<svg xmlns="http://www.w3.org/2000/svg" viewBox="0 0 100 100"><linearGradient id="a" x1="79.7" x2="20.5" y1="108.2" y2="-8.1" gradientUnits="userSpaceOnUse"><stop offset="0" stop-color="#eb724d"/><stop offset="1" stop-color="#e19129"/></linearGradient><path fill="url(#a)" d="M.1 5.7C.1 2.6 2.7 0 5.8 0h88.6c3.1 0 5.7 2.6 5.7 5.7v88.6c0 3.1-2.6 5.7-5.7 5.7H5.8a6 6 0 0 1-5.7-5.8V5.7z"/><g fill="#fff"><g fill-rule="evenodd" opacity=".9"><path d="M84.9 88.8v.8l.1.1 1.1.6 1.7 1 1.2.7.1.2v1.5L85 91.3v.7l.1.1 3.9 2.3.1.3v1.4l-.2-.1-5.2-3-.1-.2v-6.3l.2.1 4.5 2.7.7.4.1.2v1.5l-4.2-2.6z"/><path d="M92.3 94.8V90a2 2 0 0 0-.6.4v4.7c0 .1 0 .2-.2.3l-1.2.7v-6.2l.1-.2 5.3-3.1.1-.1v6.1c0 .3-.1.4-.3.5l-1 .6-.2.1V89l-.7.4v4.8l-.1.1c-.3 0-.8.3-1.2.5z" opacity=".8"/><path d="M89.9 88.5a145.6 145.6 0 0 1-5.7-3.1l-.3-.2.2-.1 5.4-3.2h.3l5.4 3.2.1.1-.1.1-5.1 3-.2.2zm-3.2-3.2.2.1 2.6 1.5h.3l2.6-1.5.1-.1-.1-.1-2.7-1.5c-.1-.1-.2 0-.2 0l-2.6 1.5-.2.1z" opacity=".6"/></g><path d="M22.7 20.2c-1 0-1.7.8-1.7 1.7v55.4c0 1 .8 1.7 1.7 1.7s1.7-.8 1.7-1.7V21.9c.1-.9-.7-1.7-1.7-1.7zm55.6 0c-1 0-1.7.8-1.7 1.7v55.4c0 1 .8 1.7 1.7 1.7s1.7-.8 1.7-1.7V21.9c0-.9-.8-1.7-1.7-1.7z" opacity=".9"/><path d="M71.4 20.1c-1 0-1.7.8-1.7 1.7v3.4c0 1-.8 1.7-1.7 1.7H33.1c-1 0-1.7-.8-1.7-1.7v-3.4c0-1-.8-1.7-1.7-1.7-1 0-1.7.8-1.7 1.7v3.4c0 2.9 2.3 5.2 5.2 5.2H68c2.9 0 5.2-2.3 5.2-5.2v-3.4c-.1-.9-.9-1.7-1.8-1.7zm-3.5 48.8H33.1a5.2 5.2 0 0 0-5.2 5.2v3.4c0 1 .8 1.7 1.7 1.7 1 0 1.7-.8 1.7-1.7v-3.4c0-1 .8-1.7 1.7-1.7h34.8c1 0 1.7.8 1.7 1.7v3.4c0 1 .8 1.7 1.7 1.7 1 0 1.7-.8 1.7-1.7v-3.4a5 5 0 0 0-5-5.2zm0-35H33.1a5.2 5.2 0 0 0-5.2 5.2v21.2c0 2.9 2.3 5.2 5.2 5.2h34.8c2.9 0 5.2-2.3 5.2-5.2V39.1c0-2.9-2.3-5.2-5.2-5.2zm1.7 26.4c0 1-.8 1.7-1.7 1.7H33.1c-1 0-1.7-.8-1.7-1.7V39.1c0-1 .8-1.7 1.7-1.7h34.8c1 0 1.7.8 1.7 1.7v21.2z"/><path d="m56.4 48.2-9.9-6.4c-.5-.3-1.2-.4-1.8-.1s-.9.9-.9 1.5v12.9c0 .6.3 1.2.9 1.5l.8.2c.3 0 .7-.1.9-.3l9.9-6.4c.5-.3.8-.9.8-1.5s-.2-1-.7-1.4zm-9.1 4.7v-6.5l5 3.3-5 3.2z" opacity=".5"/></g></svg>