<?xml version="1.0" encoding="utf-8"?>
<!-- Generator: Adobe Illustrator 24.0.1, SVG Export Plug-In . SVG Version: 6.00 Build 0)  -->
<svg version="1.1" id="Ebene_1" xmlns="http://www.w3.org/2000/svg" xmlns:xlink="http://www.w3.org/1999/xlink" x="0px" y="0px"
	 viewBox="0 0 500 500" style="enable-background:new 0 0 500 500;" xml:space="preserve">
<style type="text/css">
	.st0{fill:#003E7D;}
	.st1{fill:#FFFFFF;}
	.st2{fill:#50A0BF;}
</style>
<path class="st0" d="M500,0.1V500H-0.3V0.1H500z M-0.3,0.1H500H-0.3z"/>
<g>
	<path class="st1" d="M116.9,239.9c-1-1.7-2.4-2.8-4.2-3.8c-2.3-1-4.5-1.4-6.6-1.1c-1.9,0.3-3.4,1.1-4.7,2.4c-1.3,1.3-2,2.8-2.2,4.7
		c-0.1,1.3,0,2.6,0.6,3.5c0.4,1,1.3,2.1,2.6,3.3c1,0.7,2.2,1.3,3.2,1.7c1.6,0.6,2.9,1,4.5,1.4c2,0.6,4,1,6,1.8
		c2.3,0.9,4.6,2.1,6.8,4c3.3,2.6,5.8,5.5,7.3,9.1c1.7,3.8,2.3,7.4,2,11.2c-0.6,5.5-2.7,10.4-6.6,14.5c-3.6,3.8-8.5,6.4-14.4,7.1
		c-5.2,0.7-10.8,0-15.8-2.4c-4.6-2.1-8.9-5.7-11.5-10.6c-0.9-1.6-1.3-2.7-1.9-4.3c-0.4-1.3-0.7-2.8-1-4.7l14.5-2
		c0.1,1,0.4,1.7,0.6,2.1c0.1,0.4,0.3,1.1,0.7,1.8c1.3,2.1,2.9,3.7,4.9,4.5c2.4,1.1,5.2,1.6,7.6,1.1c2.3-0.4,4-1.3,5.6-2.8
		c1.4-1.4,2.3-3.3,2.6-5.5c0-1.6-0.1-2.8-0.7-4.1s-1.4-2.7-3.2-3.7c-0.9-1-2-1.4-3-1.8c-1.6-0.6-2.9-1-4.5-1.4
		c-2.2-0.4-4.2-1.1-6-1.8c-2.4-0.9-4.6-2.3-6.9-4c-3.2-2.6-5.2-5.2-6.8-8.5c-1.6-3.5-2.3-7.1-2-10.6c0.4-5,2.7-9.8,6.3-13.6
		c3.4-3.4,7.9-6,13.5-6.7c5-0.7,10.2,0.1,14.8,2.3c4.5,2.1,8.1,5.4,10.8,10.1L116.9,239.9z M116.9,239.9l12.9-6.9L116.9,239.9z"/>
	<path class="st1" d="M152.3,220.5v79.8h-14.7v-79.8H152.3z M137.6,220.5h14.7H137.6z"/>
	<path class="st2" d="M219.2,220.6v61.7V300l-12.8-13.2l-30.3-30.8v43.8h-14.7v-61.5v-17.7l12.8,13.2l30.3,30.8v-44H219.2z
		 M204.5,220.6h14.7H204.5z"/>
	<path class="st2" d="M243.3,253.5h21.9V268h-21.9v17.7h29.3l4.1,14.6h-48.1v-80h48.1l-4.1,14.5h-29.3V253.5z M243.3,234.8v18.7
		V234.8z"/>
	<path class="st2" d="M350.8,230.2c7.9,7.8,12.5,18,12.5,29.8c0,11.8-4.6,22-12.5,29.8c-7.9,7.8-18.3,12.3-30.2,12.3
		c-11.9,0-22.3-4.5-30.2-12.3c-7.9-7.8-12.5-18-12.5-29.8c0-11.8,4.6-22,12.5-29.8c7.9-7.8,18.3-12.3,30.2-12.3
		C332.5,217.9,342.9,222.4,350.8,230.2z M320.6,232.4c-7.6,0-14.5,3.1-19.7,8.2c-5.2,5.1-8.3,11.9-8.3,19.4c0,7.8,3.2,14.5,8.3,19.6
		c5,5,12.1,8.1,19.7,8.1c7.9,0,14.7-3,19.8-8.1c5.2-5.1,8.2-11.8,8.2-19.6c0-7.5-3.2-14.5-8.2-19.4
		C335.3,235.5,328.5,232.4,320.6,232.4z"/>
	<path class="st2" d="M403.7,239.9c-1-1.7-2.4-2.8-4.2-3.8c-2.3-1-4.5-1.4-6.6-1.1c-1.9,0.3-3.5,1.1-4.7,2.4c-1.3,1.3-2,2.8-2.2,4.7
		c-0.1,1.3,0,2.6,0.6,3.5c0.4,1,1.3,2.1,2.6,3.3c1,0.7,2.2,1.3,3.2,1.7c1.6,0.6,2.9,1,4.5,1.4c2,0.6,4,1,6,1.8
		c2.3,0.9,4.6,2.1,6.8,4c3.3,2.6,5.7,5.5,7.3,9.1c1.7,3.8,2.3,7.4,2,11.2c-0.6,5.5-2.7,10.4-6.6,14.5c-3.6,3.8-8.5,6.4-14.4,7.1
		c-5.2,0.7-10.8,0-15.8-2.4c-4.6-2.1-8.9-5.7-11.5-10.6c-0.9-1.6-1.3-2.7-1.9-4.3c-0.4-1.3-0.7-2.8-1-4.7l14.5-2
		c0.1,1,0.4,1.7,0.6,2.1c0.1,0.4,0.3,1.1,0.7,1.8c1.3,2.1,2.9,3.7,4.9,4.5c2.4,1.1,5.2,1.6,7.6,1.1c2.3-0.4,4-1.3,5.6-2.8
		c1.4-1.4,2.3-3.3,2.6-5.5c0-1.6-0.1-2.8-0.7-4.1s-1.4-2.7-3.2-3.7c-0.9-1-2-1.4-3-1.8c-1.6-0.6-2.9-1-4.5-1.4
		c-2.2-0.4-4.2-1.1-6-1.8c-2.4-0.9-4.6-2.3-6.9-4c-3.2-2.6-5.2-5.2-6.8-8.5c-1.6-3.5-2.3-7.1-2-10.6c0.4-5,2.7-9.8,6.3-13.6
		c3.5-3.4,7.9-6,13.5-6.7c5-0.7,10.2,0.1,14.8,2.3c4.5,2.1,8,5.4,10.8,10.1L403.7,239.9z M403.7,239.9l12.9-6.9L403.7,239.9z"/>
</g>
<path class="st1" d="M157,184.8c-3.2-3.2-7-4.8-11.5-4.8c-2.9,0-5.7,0.7-8.2,2.2c-2.5,1.5-4.5,3.4-6,5.9c-1.5,2.5-2.2,5.2-2.2,8.2
	c0,4.4,1.6,8.3,4.7,11.5c3.1,3.2,7,4.8,11.8,4.8c4.5,0,8.3-1.6,11.5-4.7c3.2-3.1,4.7-7,4.7-11.5C161.8,191.8,160.2,187.9,157,184.8z
	 M151.8,202.7c-1.7,1.7-3.9,2.6-6.3,2.6c-2.6,0-4.8-0.9-6.5-2.7c-1.7-1.8-2.6-3.9-2.6-6.3c0-1.6,0.4-3.1,1.2-4.5
	c0.8-1.4,1.9-2.5,3.3-3.3c1.4-0.8,2.9-1.2,4.5-1.2c2.5,0,4.6,0.9,6.3,2.6c1.8,1.8,2.6,3.9,2.6,6.4
	C154.4,198.8,153.6,200.9,151.8,202.7z"/>
</svg>
