<svg version="1.1" id="Ebene_1" xmlns="http://www.w3.org/2000/svg" x="0" y="0" viewBox="0 0 500 500" xml:space="preserve"><style>.st1{fill:#fff}.st2{fill:#50a0bf}</style><path d="M500 .1V500H-.3V.1H500zM-.3.1H500-.3z" fill="#003e7d"/><path class="st1" d="M116.9 239.9c-1-1.7-2.4-2.8-4.2-3.8-2.3-1-4.5-1.4-6.6-1.1-1.9.3-3.4 1.1-4.7 2.4-1.3 1.3-2 2.8-2.2 4.7-.1 1.3 0 2.6.6 3.5.4 1 1.3 2.1 2.6 3.3 1 .7 2.2 1.3 3.2 1.7 1.6.6 2.9 1 4.5 1.4 2 .6 4 1 6 1.8 2.3.9 4.6 2.1 6.8 4 3.3 2.6 5.8 5.5 7.3 9.1 1.7 3.8 2.3 7.4 2 11.2-.6 5.5-2.7 10.4-6.6 14.5-3.6 3.8-8.5 6.4-14.4 7.1-5.2.7-10.8 0-15.8-2.4-4.6-2.1-8.9-5.7-11.5-10.6-.9-1.6-1.3-2.7-1.9-4.3-.4-1.3-.7-2.8-1-4.7l14.5-2c.1 1 .4 1.7.6 2.1.1.4.3 1.1.7 1.8 1.3 2.1 2.9 3.7 4.9 4.5 2.4 1.1 5.2 1.6 7.6 1.1 2.3-.4 4-1.3 5.6-2.8 1.4-1.4 2.3-3.3 2.6-5.5 0-1.6-.1-2.8-.7-4.1s-1.4-2.7-3.2-3.7c-.9-1-2-1.4-3-1.8-1.6-.6-2.9-1-4.5-1.4-2.2-.4-4.2-1.1-6-1.8-2.4-.9-4.6-2.3-6.9-4-3.2-2.6-5.2-5.2-6.8-8.5-1.6-3.5-2.3-7.1-2-10.6.4-5 2.7-9.8 6.3-13.6 3.4-3.4 7.9-6 13.5-6.7 5-.7 10.2.1 14.8 2.3 4.5 2.1 8.1 5.4 10.8 10.1l-12.9 6.8zm0 0l12.9-6.9-12.9 6.9zM152.3 220.5v79.8h-14.7v-79.8h14.7zm-14.7 0h14.7-14.7z"/><path class="st2" d="M219.2 220.6V300l-12.8-13.2-30.3-30.8v43.8h-14.7v-79.2l12.8 13.2 30.3 30.8v-44h14.7zm-14.7 0h14.7-14.7zM243.3 253.5h21.9V268h-21.9v17.7h29.3l4.1 14.6h-48.1v-80h48.1l-4.1 14.5h-29.3v18.7zm0-18.7v18.7-18.7zM350.8 230.2c7.9 7.8 12.5 18 12.5 29.8s-4.6 22-12.5 29.8c-7.9 7.8-18.3 12.3-30.2 12.3-11.9 0-22.3-4.5-30.2-12.3-7.9-7.8-12.5-18-12.5-29.8s4.6-22 12.5-29.8c7.9-7.8 18.3-12.3 30.2-12.3 11.9 0 22.3 4.5 30.2 12.3zm-30.2 2.2c-7.6 0-14.5 3.1-19.7 8.2-5.2 5.1-8.3 11.9-8.3 19.4 0 7.8 3.2 14.5 8.3 19.6 5 5 12.1 8.1 19.7 8.1 7.9 0 14.7-3 19.8-8.1 5.2-5.1 8.2-11.8 8.2-19.6 0-7.5-3.2-14.5-8.2-19.4-5.1-5.1-11.9-8.2-19.8-8.2zM403.7 239.9c-1-1.7-2.4-2.8-4.2-3.8-2.3-1-4.5-1.4-6.6-1.1-1.9.3-3.5 1.1-4.7 2.4-1.3 1.3-2 2.8-2.2 4.7-.1 1.3 0 2.6.6 3.5.4 1 1.3 2.1 2.6 3.3 1 .7 2.2 1.3 3.2 1.7 1.6.6 2.9 1 4.5 1.4 2 .6 4 1 6 1.8 2.3.9 4.6 2.1 6.8 4 3.3 2.6 5.7 5.5 7.3 9.1 1.7 3.8 2.3 7.4 2 11.2-.6 5.5-2.7 10.4-6.6 14.5-3.6 3.8-8.5 6.4-14.4 7.1-5.2.7-10.8 0-15.8-2.4-4.6-2.1-8.9-5.7-11.5-10.6-.9-1.6-1.3-2.7-1.9-4.3-.4-1.3-.7-2.8-1-4.7l14.5-2c.1 1 .4 1.7.6 2.1.1.4.3 1.1.7 1.8 1.3 2.1 2.9 3.7 4.9 4.5 2.4 1.1 5.2 1.6 7.6 1.1 2.3-.4 4-1.3 5.6-2.8 1.4-1.4 2.3-3.3 2.6-5.5 0-1.6-.1-2.8-.7-4.1s-1.4-2.7-3.2-3.7c-.9-1-2-1.4-3-1.8-1.6-.6-2.9-1-4.5-1.4-2.2-.4-4.2-1.1-6-1.8-2.4-.9-4.6-2.3-6.9-4-3.2-2.6-5.2-5.2-6.8-8.5-1.6-3.5-2.3-7.1-2-10.6.4-5 2.7-9.8 6.3-13.6 3.5-3.4 7.9-6 13.5-6.7 5-.7 10.2.1 14.8 2.3 4.5 2.1 8 5.4 10.8 10.1l-12.9 6.8zm0 0l12.9-6.9-12.9 6.9z"/><path class="st1" d="M157 184.8c-3.2-3.2-7-4.8-11.5-4.8-2.9 0-5.7.7-8.2 2.2-2.5 1.5-4.5 3.4-6 5.9-1.5 2.5-2.2 5.2-2.2 8.2 0 4.4 1.6 8.3 4.7 11.5 3.1 3.2 7 4.8 11.8 4.8 4.5 0 8.3-1.6 11.5-4.7 3.2-3.1 4.7-7 4.7-11.5 0-4.6-1.6-8.5-4.8-11.6zm-5.2 17.9c-1.7 1.7-3.9 2.6-6.3 2.6-2.6 0-4.8-.9-6.5-2.7-1.7-1.8-2.6-3.9-2.6-6.3 0-1.6.4-3.1 1.2-4.5.8-1.4 1.9-2.5 3.3-3.3 1.4-.8 2.9-1.2 4.5-1.2 2.5 0 4.6.9 6.3 2.6 1.8 1.8 2.6 3.9 2.6 6.4.1 2.5-.7 4.6-2.5 6.4z"/></svg>