<?xml version="1.0" encoding="utf-8"?>
<!-- Generator: Adobe Illustrator 25.1.0, SVG Export Plug-In . SVG Version: 6.00 Build 0)  -->
<svg version="1.1" id="Layer_1" xmlns="http://www.w3.org/2000/svg" xmlns:xlink="http://www.w3.org/1999/xlink" x="0px" y="0px"
	 width="90px" height="90px" viewBox="0 0 90 90" style="enable-background:new 0 0 90 90;" xml:space="preserve">
<rect width="90" height="90"/>
<path id="s" style="fill:#FFFFFF;" d="M13,26.8683205h8.5655174l24.1755753,19.2924271v11.5274277l-23.6952667-18.89217v24.1755753
	H13V26.8683205z M36.6152115,26.8683205h9.0458298v17.1310349l-9.0458298-7.2046394V26.8683205z"/>
<path id="s_1_" style="fill:#FFFFFF;" d="M36.6152115,52.4848251l9.0458298,7.2846909v3.3621635h-9.0458298V52.4848251z"/>
<path id="s_2_" style="fill:#FFFFFF;" d="M58.709446,26.8683205h0.1601028c0.8805656,0,1.8411865,0.0800514,2.7217522,0.2401543
	c3.1220093,0.4002571,6.0839157,1.6810837,8.485466,3.6023197c2.3214951,1.8411846,4.3227844,4.2427349,5.5235596,6.9644871
	c1.4409256,3.2020607,1.6810837,6.8844376,1.1207199,10.3266487C75.0860443,57.8257103,65.8189621,64.4808273,55.98769,62.8915215
	c-3.2112465-0.4892845-6.2281303-1.8455009-8.7256203-3.9225273v-11.52742l3.2020607,2.5616493
	c1.2808228,0.9606209,2.4015465,2.0012894,3.8424759,2.8018036c4.2845612,2.2718124,9.5919991,0.9621849,12.3279457-3.0419579
	c0.8005142-1.2007713,1.2007751-2.6417007,1.2007751-4.1626816c0.0800476-1.7611351-0.3202057-3.6023216-1.2007751-5.1233025
	c-0.8005142-1.2808228-1.8411865-2.4015465-3.1220131-3.2020607c-1.4716454-0.8369255-3.113781-1.329567-4.803093-1.4409294
	V26.8683205z"/>
</svg>
