<?xml version="1.0" encoding="utf-8"?>
<!-- Generator: Adobe Illustrator 21.0.1, SVG Export Plug-In . SVG Version: 6.00 Build 0)  -->
<svg version="1.1" id="Layer_1" xmlns="http://www.w3.org/2000/svg" xmlns:xlink="http://www.w3.org/1999/xlink" x="0px" y="0px"
	 width="90px" height="90px" viewBox="0 0 90 90" style="enable-background:new 0 0 90 90;" xml:space="preserve">
<style type="text/css">
	.st0{opacity:0.75;}
	.st1{fill:#DFEAF7;}
	.st2{fill:#3A3A3A;}
	.st3{fill:#7BA5D8;}
</style>
<g id="_x23_dfeaf7ff" class="st0">
	<path class="st1" d="M22.6,24.1c7.3-4.2,14.5-8.4,21.8-12.6c9.4,5.4,18.8,10.9,28.2,16.3c0,9,0,17.9,0,26.9
		c0.3,0.2,0.6,0.3,0.9,0.5c1.9-0.6,4-0.6,5.8,0.2c1.9,0.8,3.4,2.2,4.3,4.1c1.1,2.3,1,5.1-0.2,7.4c-1.1,2-3.1,3.5-5.3,4
		c-2.3,0.6-4.8,0-6.7-1.4c-2-1.5-3.2-3.9-3.4-6.4c-7.9,4.5-15.7,9.1-23.6,13.6c-9.4-5.4-18.8-10.8-28.2-16.3c0-9,0-17.9,0-26.9
		c-0.3-0.2-0.6-0.4-0.9-0.6c-3.5,1.3-7.8-0.2-9.7-3.5c-1.6-2.6-1.6-6.2,0.2-8.7c1.5-2.3,4.2-3.8,7-3.7c3.2,0,6.2,2.1,7.4,5
		c0.4,0.9,0.5,2,0.7,3C21.3,24.8,21.9,24.4,22.6,24.1 M44.4,15.4c-7.8,4.5-15.7,9-23.5,13.5c-1.3-0.7-2.6-1.4-3.9-2.2
		c0.2-0.7,0.3-1.5,0.1-2.3c-0.3-2.2-2.3-4-4.5-4c-2.3-0.1-4.5,1.7-4.8,3.9c-0.4,2.2,0.9,4.5,3.1,5.2c1.5,0.6,3.2,0.2,4.5-0.7
		c1.4,0.9,2.8,1.7,4.2,2.4c0,9,0,18,0,27c8.3,4.8,16.5,9.5,24.8,14.3c7.8-4.5,15.6-9,23.5-13.5c1.3,0.7,2.6,1.4,3.8,2.2
		c-0.3,1.1-0.3,2.4,0.2,3.5c0.8,1.9,3,3.1,5.1,2.7c1.7-0.3,3.2-1.5,3.7-3.1c0.6-1.8,0-4-1.5-5.2c-1.6-1.4-4.2-1.4-5.9-0.1
		c-1.4-0.8-2.7-1.6-4.1-2.4c0-9,0-18,0-26.9C60.9,25,52.6,20.2,44.4,15.4z"/>
</g>
<g id="_x23_3a3a3aff">
	<path class="st2" d="M44.4,15.4c8.3,4.8,16.6,9.5,24.8,14.4c0,9,0,18,0,26.9c1.4,0.7,2.8,1.5,4.1,2.4c1.7-1.2,4.3-1.2,5.9,0.1
		c1.5,1.2,2.1,3.4,1.5,5.2c-0.5,1.6-2,2.9-3.7,3.1c-2,0.4-4.2-0.8-5.1-2.7c-0.5-1.1-0.5-2.3-0.2-3.5c-1.2-0.8-2.5-1.5-3.8-2.2
		c-7.8,4.5-15.6,9-23.5,13.5c-8.3-4.8-16.5-9.5-24.8-14.3c0-9,0-18,0-27c-1.4-0.7-2.8-1.5-4.2-2.4c-1.3,0.9-3,1.2-4.5,0.7
		c-2.1-0.7-3.5-3.1-3.1-5.2c0.3-2.3,2.5-4.1,4.8-3.9c2.2,0,4.2,1.8,4.5,4c0.2,0.8,0,1.5-0.1,2.3c1.3,0.8,2.6,1.5,3.9,2.2
		C28.7,24.5,36.5,19.9,44.4,15.4 M35.5,33.9c2.5,0.4,5,0.7,7.5,0.7c0-4.7,0-9.4,0-14.1C39.6,24.4,37,29,35.5,33.9 M45.8,20.6
		c0,4.7,0,9.4,0,14c2.5,0,4.9-0.3,7.4-0.7C51.7,29,49.2,24.4,45.8,20.6 M24,30.4c2.8,1.2,5.7,2.2,8.7,2.9c1.1-3.9,2.9-7.5,5.1-10.9
		C33.2,25.1,28.6,27.8,24,30.4 M50.8,22.4c2.3,3.3,4,7,5.2,10.9c3-0.7,5.9-1.7,8.7-2.9C60,27.7,55.4,25.1,50.8,22.4 M11.6,23.5
		c-1.2,0.5-1.5,2.3-0.4,3.2c1,1,2.8,0.3,3.1-1C14.8,24.2,13,22.7,11.6,23.5 M22.3,32.8c0,3.3,0,6.6,0,9.8c3,0,5.9,0,8.9,0
		c0.1-2.2,0.4-4.4,0.8-6.6C28.7,35.3,25.4,34.2,22.3,32.8 M56.6,36.1c0.5,2.2,0.7,4.4,0.8,6.6c3,0,5.9,0,8.9,0c0-3.3,0-6.6,0-9.9
		C63.2,34.1,60,35.3,56.6,36.1 M45.8,37.4c0,0.7,0,1.3,0,2c1.5,0.5,2.7,1.7,3.2,3.2c1.9,0,3.8,0,5.7,0c-0.1-2-0.4-4-0.8-6
		C51.2,37.1,48.5,37.4,45.8,37.4 M34,42.6c1.9,0,3.8,0,5.8,0c0.5-1.5,1.7-2.7,3.2-3.2c0-0.7,0-1.3,0-2c-2.7,0-5.5-0.3-8.2-0.8
		C34.4,38.6,34.1,40.6,34,42.6 M43.5,42.3c-1.2,0.5-1.5,2.4-0.4,3.2c1,0.9,2.8,0.4,3.1-0.9C46.7,43,44.9,41.4,43.5,42.3 M22.3,45.5
		c0,3.3,0,6.6,0,9.9c3.1-1.4,6.4-2.5,9.7-3.3c-0.5-2.2-0.7-4.4-0.8-6.6C28.3,45.5,25.3,45.5,22.3,45.5 M34,45.5c0.1,2,0.3,4.1,0.8,6
		c2.7-0.5,5.4-0.7,8.2-0.9c0-0.7,0-1.4,0-2.1c-1.5-0.5-2.6-1.6-3.1-3.1C37.9,45.5,36,45.5,34,45.5 M48.9,45.5
		c-0.5,1.4-1.7,2.6-3.1,3.1c0,0.7,0,1.4,0,2.1c2.7,0.1,5.4,0.4,8.1,0.8c0.4-2,0.7-4,0.8-6C52.7,45.5,50.8,45.5,48.9,45.5 M57.5,45.5
		c-0.1,2.2-0.3,4.4-0.8,6.6c3.3,0.8,6.6,1.9,9.7,3.3c0-3.3,0-6.6,0-9.9C63.4,45.5,60.4,45.5,57.5,45.5 M35.5,54.2
		c1.5,4.9,4,9.5,7.4,13.4c0-4.7,0-9.4,0-14.1C40.5,53.6,38,53.8,35.5,54.2 M45.8,53.5c0,4.7,0,9.4,0,14.1c3.4-3.8,5.9-8.4,7.4-13.3
		C50.7,53.8,48.3,53.6,45.8,53.5 M24,57.7c4.6,2.7,9.2,5.3,13.8,8c-2.2-3.4-4-7-5.1-10.9C29.7,55.5,26.8,56.5,24,57.7 M56,54.8
		c-1.1,3.9-2.9,7.6-5.1,10.9c4.6-2.7,9.3-5.3,13.9-8C61.9,56.5,59,55.5,56,54.8 M75.5,61.1c-1.4,0.5-1.6,2.6-0.4,3.3
		c1.1,0.9,2.9,0.1,3-1.3C78.3,61.7,76.7,60.5,75.5,61.1z"/>
</g>
<g id="_x23_7ba5d8ff">
	<path class="st3" d="M35.5,33.9c1.5-4.9,4-9.5,7.5-13.4c0,4.7,0,9.4,0,14.1C40.5,34.6,38,34.3,35.5,33.9z"/>
	<path class="st3" d="M45.8,20.6c3.4,3.8,5.9,8.4,7.4,13.3c-2.4,0.4-4.9,0.7-7.4,0.7C45.8,29.9,45.8,25.3,45.8,20.6z"/>
	<path class="st3" d="M24,30.4c4.6-2.7,9.2-5.3,13.9-8c-2.2,3.4-4,7-5.1,10.9C29.7,32.6,26.8,31.7,24,30.4z"/>
	<path class="st3" d="M50.8,22.4c4.6,2.7,9.3,5.3,13.9,8c-2.8,1.2-5.7,2.2-8.7,2.9C54.8,29.4,53.1,25.7,50.8,22.4z"/>
	<path class="st3" d="M11.6,23.5c1.4-0.8,3.2,0.7,2.7,2.2c-0.3,1.3-2.1,2-3.1,1C10.2,25.9,10.4,24.1,11.6,23.5z"/>
	<path class="st3" d="M22.3,32.8c3.1,1.4,6.4,2.5,9.7,3.3c-0.4,2.2-0.7,4.4-0.8,6.6c-3,0-5.9,0-8.9,0C22.3,39.4,22.3,36.1,22.3,32.8
		z"/>
	<path class="st3" d="M56.6,36.1c3.3-0.8,6.6-1.9,9.7-3.3c0,3.3,0,6.6,0,9.9c-3,0-5.9,0-8.9,0C57.4,40.4,57.1,38.2,56.6,36.1z"/>
	<path class="st3" d="M45.8,37.4c2.7-0.1,5.4-0.3,8.1-0.8c0.4,2,0.7,4,0.8,6c-1.9,0-3.8,0-5.7,0c-0.5-1.5-1.7-2.7-3.2-3.2
		C45.8,38.8,45.8,38.1,45.8,37.4z"/>
	<path class="st3" d="M34,42.6c0.1-2,0.3-4,0.8-6c2.7,0.4,5.4,0.8,8.2,0.8c0,0.7,0,1.3,0,2c-1.5,0.5-2.7,1.7-3.2,3.2
		C37.9,42.6,36,42.6,34,42.6z"/>
	<path class="st3" d="M43.5,42.3c1.4-0.8,3.2,0.7,2.7,2.2c-0.3,1.3-2.1,1.9-3.1,0.9C42.1,44.6,42.3,42.8,43.5,42.3z"/>
	<path class="st3" d="M22.3,45.5c3,0,5.9,0,8.9,0c0.1,2.2,0.3,4.4,0.8,6.6c-3.3,0.8-6.6,1.9-9.7,3.3C22.3,52.1,22.3,48.8,22.3,45.5z
		"/>
	<path class="st3" d="M34,45.5c1.9,0,3.9,0,5.8,0c0.5,1.5,1.7,2.6,3.1,3.1c0,0.7,0,1.4,0,2.1c-2.7,0.2-5.5,0.4-8.2,0.9
		C34.4,49.5,34.1,47.5,34,45.5z"/>
	<path class="st3" d="M48.9,45.5c1.9,0,3.8,0,5.7,0c-0.1,2-0.4,4.1-0.8,6c-2.7-0.5-5.4-0.7-8.1-0.8c0-0.7,0-1.4,0-2.1
		C47.2,48,48.4,46.9,48.9,45.5z"/>
	<path class="st3" d="M57.5,45.5c3,0,5.9,0,8.9,0c0,3.3,0,6.6,0,9.9c-3.1-1.4-6.4-2.5-9.7-3.3C57.1,49.9,57.4,47.7,57.5,45.5z"/>
	<path class="st3" d="M35.5,54.2c2.5-0.4,5-0.7,7.4-0.8c0,4.7,0,9.4,0,14.1C39.5,63.8,37,59.2,35.5,54.2z"/>
	<path class="st3" d="M45.8,53.5c2.5,0.1,4.9,0.3,7.4,0.8c-1.5,4.9-4,9.5-7.4,13.3C45.8,62.9,45.8,58.2,45.8,53.5z"/>
	<path class="st3" d="M24,57.7c2.8-1.2,5.7-2.2,8.7-2.9c1.1,3.9,2.9,7.5,5.1,10.9C33.2,63,28.6,60.4,24,57.7z"/>
	<path class="st3" d="M56,54.8c3,0.7,5.9,1.7,8.7,2.9c-4.6,2.7-9.3,5.3-13.9,8C53.1,62.4,54.8,58.7,56,54.8z"/>
	<path class="st3" d="M75.5,61.1c1.3-0.6,2.8,0.6,2.6,2c-0.1,1.4-1.9,2.2-3,1.3C73.8,63.7,74.1,61.6,75.5,61.1z"/>
</g>
</svg>
