<svg version="1.1" id="Layer_1" xmlns="http://www.w3.org/2000/svg" x="0" y="0" width="90" height="90" xml:space="preserve"><style>.st3{fill:#7ba5d8}</style><path d="M22.6 24.1c7.3-4.2 14.5-8.4 21.8-12.6 9.4 5.4 18.8 10.9 28.2 16.3v26.9c.3.2.6.3.9.5a8.27 8.27 0 0110.1 4.3c1.1 2.3 1 5.1-.2 7.4-1.1 2-3.1 3.5-5.3 4-2.3.6-4.8 0-6.7-1.4-2-1.5-3.2-3.9-3.4-6.4-7.9 4.5-15.7 9.1-23.6 13.6-9.4-5.4-18.8-10.8-28.2-16.3V33.5l-.9-.6a8.2 8.2 0 01-9.7-3.5c-1.6-2.6-1.6-6.2.2-8.7A8.2 8.2 0 0120.2 22c.4.9.5 2 .7 3 .4-.2 1-.6 1.7-.9m21.8-8.7c-7.8 4.5-15.7 9-23.5 13.5-1.3-.7-2.6-1.4-3.9-2.2.2-.7.3-1.5.1-2.3a4.7 4.7 0 00-9.3-.1c-.4 2.2.9 4.5 3.1 5.2 1.5.6 3.2.2 4.5-.7 1.4.9 2.8 1.7 4.2 2.4v27c8.3 4.8 16.5 9.5 24.8 14.3C52.2 68 60 63.5 67.9 59c1.3.7 2.6 1.4 3.8 2.2-.3 1.1-.3 2.4.2 3.5.8 1.9 3 3.1 5.1 2.7 1.7-.3 3.2-1.5 3.7-3.1.6-1.8 0-4-1.5-5.2a4.8 4.8 0 00-5.9-.1c-1.4-.8-2.7-1.6-4.1-2.4V29.7c-8.3-4.7-16.6-9.5-24.8-14.3z" fill="#dfeaf7" id="_x23_dfeaf7ff" opacity=".75"/><path d="M44.4 15.4c8.3 4.8 16.6 9.5 24.8 14.4v26.9c1.4.7 2.8 1.5 4.1 2.4a5.1 5.1 0 015.9.1c1.5 1.2 2.1 3.4 1.5 5.2-.5 1.6-2 2.9-3.7 3.1-2 .4-4.2-.8-5.1-2.7-.5-1.1-.5-2.3-.2-3.5-1.2-.8-2.5-1.5-3.8-2.2-7.8 4.5-15.6 9-23.5 13.5-8.3-4.8-16.5-9.5-24.8-14.3v-27c-1.4-.7-2.8-1.5-4.2-2.4-1.3.9-3 1.2-4.5.7a4.8 4.8 0 01-3.1-5.2c.3-2.3 2.5-4.1 4.8-3.9 2.2 0 4.2 1.8 4.5 4 .2.8 0 1.5-.1 2.3 1.3.8 2.6 1.5 3.9 2.2 7.8-4.5 15.6-9.1 23.5-13.6m-8.9 18.5c2.5.4 5 .7 7.5.7V20.5c-3.4 3.9-6 8.5-7.5 13.4m10.3-13.3v14c2.5 0 4.9-.3 7.4-.7-1.5-4.9-4-9.5-7.4-13.3M24 30.4c2.8 1.2 5.7 2.2 8.7 2.9 1.1-3.9 2.9-7.5 5.1-10.9-4.6 2.7-9.2 5.4-13.8 8m26.8-8c2.3 3.3 4 7 5.2 10.9 3-.7 5.9-1.7 8.7-2.9-4.7-2.7-9.3-5.3-13.9-8m-39.2 1.1c-1.2.5-1.5 2.3-.4 3.2 1 1 2.8.3 3.1-1 .5-1.5-1.3-3-2.7-2.2m10.7 9.3v9.8h8.9c.1-2.2.4-4.4.8-6.6-3.3-.7-6.6-1.8-9.7-3.2m34.3 3.3c.5 2.2.7 4.4.8 6.6h8.9v-9.9a61.5 61.5 0 01-9.7 3.3m-10.8 1.3v2c1.5.5 2.7 1.7 3.2 3.2h5.7c-.1-2-.4-4-.8-6-2.7.5-5.4.8-8.1.8M34 42.6h5.8a5.1 5.1 0 013.2-3.2v-2c-2.7 0-5.5-.3-8.2-.8-.4 2-.7 4-.8 6m9.5-.3c-1.2.5-1.5 2.4-.4 3.2 1 .9 2.8.4 3.1-.9.5-1.6-1.3-3.2-2.7-2.3m-21.2 3.2v9.9c3.1-1.4 6.4-2.5 9.7-3.3-.5-2.2-.7-4.4-.8-6.6h-8.9m11.7 0c.1 2 .3 4.1.8 6 2.7-.5 5.4-.7 8.2-.9v-2.1a4.8 4.8 0 01-3.1-3.1c-2 .1-3.9.1-5.9.1m14.9 0c-.5 1.4-1.7 2.6-3.1 3.1v2.1c2.7.1 5.4.4 8.1.8.4-2 .7-4 .8-6h-5.8m8.6 0c-.1 2.2-.3 4.4-.8 6.6 3.3.8 6.6 1.9 9.7 3.3v-9.9h-8.9m-22 8.7c1.5 4.9 4 9.5 7.4 13.4V53.5c-2.4.1-4.9.3-7.4.7m10.3-.7v14.1c3.4-3.8 5.9-8.4 7.4-13.3-2.5-.5-4.9-.7-7.4-.8M24 57.7c4.6 2.7 9.2 5.3 13.8 8-2.2-3.4-4-7-5.1-10.9-3 .7-5.9 1.7-8.7 2.9m32-2.9c-1.1 3.9-2.9 7.6-5.1 10.9 4.6-2.7 9.3-5.3 13.9-8-2.9-1.2-5.8-2.2-8.8-2.9m19.5 6.3c-1.4.5-1.6 2.6-.4 3.3 1.1.9 2.9.1 3-1.3.2-1.4-1.4-2.6-2.6-2z" fill="#3a3a3a" id="_x23_3a3a3aff"/><g id="_x23_7ba5d8ff"><path class="st3" d="M35.5 33.9c1.5-4.9 4-9.5 7.5-13.4v14.1c-2.5 0-5-.3-7.5-.7zM45.8 20.6c3.4 3.8 5.9 8.4 7.4 13.3-2.4.4-4.9.7-7.4.7v-14zM24 30.4c4.6-2.7 9.2-5.3 13.9-8-2.2 3.4-4 7-5.1 10.9-3.1-.7-6-1.6-8.8-2.9zM50.8 22.4c4.6 2.7 9.3 5.3 13.9 8-2.8 1.2-5.7 2.2-8.7 2.9a39.1 39.1 0 00-5.2-10.9zM11.6 23.5c1.4-.8 3.2.7 2.7 2.2-.3 1.3-2.1 2-3.1 1-1-.8-.8-2.6.4-3.2zM22.3 32.8c3.1 1.4 6.4 2.5 9.7 3.3-.4 2.2-.7 4.4-.8 6.6h-8.9v-9.9zM56.6 36.1c3.3-.8 6.6-1.9 9.7-3.3v9.9h-8.9c0-2.3-.3-4.5-.8-6.6zM45.8 37.4c2.7-.1 5.4-.3 8.1-.8.4 2 .7 4 .8 6H49a5.1 5.1 0 00-3.2-3.2v-2zM34 42.6c.1-2 .3-4 .8-6 2.7.4 5.4.8 8.2.8v2a5.1 5.1 0 00-3.2 3.2H34zM43.5 42.3c1.4-.8 3.2.7 2.7 2.2-.3 1.3-2.1 1.9-3.1.9-1-.8-.8-2.6.4-3.1zM22.3 45.5h8.9c.1 2.2.3 4.4.8 6.6-3.3.8-6.6 1.9-9.7 3.3v-9.9zM34 45.5h5.8c.5 1.5 1.7 2.6 3.1 3.1v2.1c-2.7.2-5.5.4-8.2.9-.3-2.1-.6-4.1-.7-6.1zM48.9 45.5h5.7c-.1 2-.4 4.1-.8 6-2.7-.5-5.4-.7-8.1-.8v-2.1c1.5-.6 2.7-1.7 3.2-3.1zM57.5 45.5h8.9v9.9c-3.1-1.4-6.4-2.5-9.7-3.3.4-2.2.7-4.4.8-6.6zM35.5 54.2c2.5-.4 5-.7 7.4-.8v14.1c-3.4-3.7-5.9-8.3-7.4-13.3zM45.8 53.5c2.5.1 4.9.3 7.4.8-1.5 4.9-4 9.5-7.4 13.3V53.5zM24 57.7c2.8-1.2 5.7-2.2 8.7-2.9 1.1 3.9 2.9 7.5 5.1 10.9-4.6-2.7-9.2-5.3-13.8-8zM56 54.8c3 .7 5.9 1.7 8.7 2.9-4.6 2.7-9.3 5.3-13.9 8 2.3-3.3 4-7 5.2-10.9zM75.5 61.1c1.3-.6 2.8.6 2.6 2-.1 1.4-1.9 2.2-3 1.3-1.3-.7-1-2.8.4-3.3z"/></g></svg>