<svg xmlns="http://www.w3.org/2000/svg" viewBox="0 0 91 91"><style>.st0{fill:#1394d3}.st1{fill:#fff}</style><path class="st0" d="M0 0h91v91H0z"/><path class="st1" d="M15.3 43.3H10v4.9h5.2c1.3 0 2.4-1.1 2.4-2.4s-1-2.5-2.3-2.5zm0 3.4h-3.8v-1.9h3.8c.5 0 1 .4 1 1-.1.5-.5.9-1 .9zM19.8 43.3v4.8h1.4v-3.4H25l1.9 3.6 1.3-.7-2.4-4.3zM30.1 43.5v4.6h1.5v-3.7l2.1-1 2.9 4.9 1.3-.7-3.7-6.2zM39.7 47.2l.9 1.1 4.2-3.5 4.3 3.5.9-1.1-5.2-4.3zM63 43.5v4.6h1.4v-3.7l2.1-1 3 4.9 1.2-.7-3.7-6.2zM74.7 43.3h1.5v4.9h-1.5z"/><g><path class="st1" d="M25 36.9h-5.2v4.9H25c1.3 0 2.4-1.1 2.4-2.4.1-1.4-1-2.5-2.4-2.5zm0 3.4h-3.8v-1.9H25c.5 0 1 .4 1 1s-.5.9-1 .9zM64.4 39.2v-2.3H63v4.8l7-3.7-.7-1.3zM13.8 36.9H10v4.9h3.8c1.3 0 2.4-1.1 2.4-2.4s-1.1-2.5-2.4-2.5zm0 3.4h-2.4v-1.9h2.4c.5 0 1 .4 1 1 0 .4-.4.9-1 .9zM79 36.7l-3.5 3.2-3.6-3.2-1 1 4.6 4.2 4.5-4.2zM31.6 39.2v-2.3h-1.5v4.8l7.1-3.7-.7-1.3zM58.1 41.6l-.9-.3c-1.3-.4-2.5-.9-2.5-1.7 0-1 1-1.4 1.9-1.4.9 0 1.9.4 1.9 1.4v.4h1.4v-.4c0-1.9-1.7-2.8-3.3-2.8-1.7 0-3.4 1-3.4 2.8 0 1.9 1.8 2.5 3.4 3.1l.9.3c1.2.4 1.7 1.1 1.7 2 0 1.7-1.9 2-2.7 2-1.3 0-2.7-.7-2.7-2.1v-.4h-1.4v.4c0 2.4 2.2 3.6 4.1 3.6 2.6 0 4.1-1.3 4.1-3.4.1-1.8-.7-2.9-2.5-3.5zM48.9 42.3L44.8 39l-4 3.3v-5.5h-1.5v8.6l5.5-4.5 5.5 4.5v-8.6h-1.4z"/></g><path class="st1" d="M75.4 53.3c.4 0 .7-.1 1-.3v-1.3h-1.1v.5h.4v.4c-.1.1-.3.1-.4.1-.5 0-.7-.4-.7-.8s.2-.8.7-.8c.3 0 .5.1.8.2l.3-.5c-.3-.2-.6-.3-1-.3-1 0-1.4.6-1.4 1.4 0 .8.5 1.4 1.4 1.4m-4.1 0h.4v-2.8H71v1.6l-1.4-1.6h-.4v2.8h.7v-1.6l1.4 1.6zm-5.6-.5c-.3 0-.5-.3-.5-.7v-1.6h-.7v1.6c0 .7.4 1.2 1.2 1.2.8 0 1.2-.5 1.2-1.2v-1.6h-.7v1.6c-.1.4-.2.7-.5.7m-5.3.5h1.9v-.5h-1.2v-2.2h-.7v2.7zm-3.9-2.8h-.7v2.8h.7v-1.1h.3l.7 1.1h.8l-1-1.4.8-1.4h-.8l-.6 1.2h-.3l.1-1.2zm-2.9.3c-.3-.2-.6-.3-1-.3-1 0-1.4.6-1.4 1.4 0 .8.5 1.4 1.4 1.4.4 0 .7-.1 1-.3l-.3-.5c-.2.2-.4.2-.7.2-.5 0-.7-.4-.7-.8s.2-.8.7-.8c.2 0 .4.1.7.2l.3-.5zm-4.7-.3h-.7v2.8h.7v-2.8zm-4 1.9l-.6-1.9h-.2l-.6 1.9-.5-1.9h-.7l.9 2.8h.5l.5-1.3.5 1.3h.5l.9-2.8h-.7l-.5 1.9zm-4.7-1.9H38v.5h.8v2.2h.7V51h.8l-.1-.5zm-4.8 2.8h.4v-2.8h-.7v1.6l-1.4-1.6h-.4v2.8h.7v-1.6l1.4 1.6zm-4.3-2.2v-.5H29v2.8h2.1v-.5h-1.4v-.6h1.2v-.5h-1.2v-.5c0-.2 1.4-.2 1.4-.2zM25.4 50.7c-.1-.1-.2-.1-.3 0-.1.1-.1.2 0 .4l.7.9-.7.9c-.1.1-.1.3 0 .4.1.1.2.1.3 0 .1-.1.9-1.1.9-1.1s.1-.1.1-.2 0-.1-.1-.2-.9-1-.9-1.1M22.5 51.3c0-.4-.3-.7-.9-.7h-1.3v2.8h1.3c.7 0 1-.3 1-.8 0-.3-.2-.6-.5-.7.3-.2.4-.4.4-.6m-.9.8c.2 0 .4.1.4.3 0 .1-.1.3-.4.3h-.5v-.6h.5zm-.6-.5v-.5h.5c.1 0 .2.1.2.3 0 .2-.1.3-.2.3l-.5-.1zm-2.9-.5v-.5H16v2.8h2.1v-.5h-1.4v-.6h1.2v-.5h-1.2v-.5c0-.2 1.4-.2 1.4-.2zm-5.4 1.3l-.6-1.9h-.2l-.6 1.9-.4-1.9h-.7l.9 2.8h.5L12 52l.5 1.3h.5l.9-2.8h-.7l-.5 1.9z"/></svg>
