<svg version="1.1" id="Ebene_1" xmlns="http://www.w3.org/2000/svg" x="0" y="0" viewBox="0 0 145.4 142.7" xml:space="preserve"><style>.st1,.st2{fill:#fff}.st2{stroke:#fff;stroke-width:.8832;stroke-linecap:round;stroke-linejoin:round;stroke-miterlimit:10}</style><path d="M145.4 0v142.7H0V0h145.4z" fill="#c30c2b"/><path class="st1" d="M24.8 52.9c1.4 0 2.6.2 3.6.6 1 .4 1.8.9 2.4 1.6.6.7 1.1 1.4 1.4 2.3s.4 1.7.4 2.7c0 .9-.1 1.8-.4 2.6-.3.9-.7 1.6-1.4 2.3-.6.7-1.4 1.2-2.4 1.6-1 .4-2.2.6-3.6.6h-5.2v8h-4.9V52.9h10.1zm-1.3 10.6c.6 0 1.1 0 1.6-.1s1-.2 1.4-.5c.4-.2.7-.6 1-1 .2-.4.4-1 .4-1.7s-.1-1.3-.4-1.7c-.2-.4-.6-.8-1-1-.4-.2-.9-.4-1.4-.5-.5-.1-1.1-.1-1.6-.1h-3.8v6.7l3.8-.1zM39.6 52.9v18.2h10.9v4.1H34.7V52.9h4.9zM69.3 52.9V57H57.5v4.8h10.8v3.8H57.5v5.5h12.1v4.1h-17V52.9h16.7zM77.4 52.9l9.3 15h.1v-15h4.6v22.4h-4.9l-9.3-15v15h-4.6V52.9h4.8zM93.3 57.1V53h18.3v4.1H105v18.2h-5V57.1h-6.7zM122.4 52.9l8.4 22.4h-5.1l-1.7-5h-8.4l-1.8 5h-4.9l8.5-22.4h5zm.3 13.8l-2.8-8.2h-.1l-2.9 8.2h5.8z"/><g><path class="st1" d="M17.8 89.1c-.1.4-.3.6-.7.6h-.3c-.4 0-.6-.1-.7-.6l-1.3-5.6v-.3c0-.1.1-.2.2-.2h.7c.1 0 .2.1.3.2.9 3.7 1 4.5 1.1 5.3.2-.8.4-1.5 1.3-4.8.1-.4.2-.5.6-.5h.2c.4 0 .5.1.6.5.9 3.6 1.1 4.1 1.3 4.8.1-.8.3-1.6 1.1-5.3 0-.2.1-.3.3-.3h.7c.1 0 .1.1.1.2s0 .2-.1.3L21.9 89c-.1.4-.2.6-.7.6H21c-.5 0-.6-.2-.7-.6-.9-3.3-1.1-3.9-1.2-4.7-.3.8-.5 1.5-1.3 4.8zM27.1 89.6c-.6 0-1-.2-1-1v-4.7c0-.7.3-1 1-1h2.8c.1 0 .2.1.2.2v.6c0 .1-.1.2-.2.2h-2.4c-.2 0-.3.1-.3.4v1.4h2.4c.1 0 .2.1.2.2v.5c0 .1-.1.2-.2.2h-2.4v1.6c0 .3.1.4.4.4H30c.1 0 .2.1.2.2v.5c0 .1-.1.2-.2.2l-2.9.1zM34.4 89.6c-.6 0-.9-.3-.9-.9V84c0-.6.3-1 .9-1h1.1c.3 0 .8 0 1 .1 1.1.1 1.5.6 1.5 1.6 0 .8-.3 1.3-1 1.5.8.2 1.2.6 1.2 1.6 0 .8-.2 1.4-.9 1.7-.4.1-1 .2-1.8.2l-1.1-.1zm1.1-3.9c.4 0 .7 0 .9-.1.3-.1.5-.4.5-.9 0-.6-.3-.8-.6-.9-.1-.1-.4-.1-.7-.1h-.7c-.2 0-.3.1-.3.4v1.5c-.1.1.9.1.9.1zm-1 2.6c0 .3.1.4.4.4h.8c.4 0 .8 0 .9-.1.3-.1.5-.4.5-1 0-.5-.2-.7-.5-.9-.2-.1-.5-.1-.9-.1h-1.1v1.7zM48.8 89.6c-.6 0-1-.2-1-1v-4.7c0-.7.3-1 1-1h2.8c.1 0 .2.1.2.2v.6c0 .1-.1.2-.2.2h-2.4c-.2 0-.3.1-.3.4v1.4h2.4c.1 0 .2.1.2.2v.5c0 .1-.1.2-.2.2h-2.4v1.6c0 .3.1.4.4.4h2.5c.1 0 .2.1.2.2v.5c0 .1-.1.2-.2.2l-3 .1zM55.9 89.6h-.6c-.1 0-.2-.1-.2-.3v-5.7c0-.5.2-.8.7-.8h.3c.4 0 .6.2.7.6 1.8 3.4 2.1 4.1 2.4 4.8v-5c0-.2.1-.3.3-.3h.6c.2 0 .2.1.2.3V89c0 .5-.3.6-.6.6h-.2c-.5 0-.6-.2-.8-.6-2-3.8-2.2-4.2-2.5-4.8v5.2c0 .1-.1.2-.3.2zM66.1 89.6h-.6c-.1 0-.2-.1-.2-.3v-5.4h-1.7c-.1 0-.2-.1-.2-.2v-.5c0-.2.1-.2.2-.2H68c.1 0 .2.1.2.2v.5c0 .1-.1.2-.2.2h-1.7v5.4c0 .2-.1.3-.2.3zM73.7 89.1c-.1.4-.3.6-.7.6h-.3c-.4 0-.6-.1-.7-.6l-1.3-5.6v-.3c0-.1.1-.2.2-.2h.7c.1 0 .2.1.3.2.9 3.7 1 4.5 1.1 5.3.2-.8.4-1.5 1.3-4.8.1-.4.2-.5.6-.5h.2c.4 0 .5.1.6.5.9 3.6 1.1 4.1 1.3 4.8.1-.8.3-1.6 1.1-5.3 0-.2.1-.3.3-.3h.7c.1 0 .1.1.1.2s0 .2-.1.3L77.7 89c-.1.4-.2.6-.7.6h-.2c-.5 0-.6-.2-.7-.6-.9-3.3-1.1-3.9-1.2-4.7-.1.8-.3 1.5-1.2 4.8zM82.9 89.6h-.6c-.1 0-.2-.1-.2-.3v-6.2c0-.1.1-.3.2-.3h.6c.2 0 .2.1.2.2v6.2c0 .3-.1.4-.2.4zM89.2 88.8c.6 0 1-.1 1.3-.2.1 0 .2-.1.3-.1.1 0 .1 0 .2.1s.1.4.1.5c0 .1-.1.2-.2.2-.6.2-1.2.3-1.9.3-1.6 0-2.6-.8-2.6-3.3s.7-3.6 2.8-3.6c.6 0 1.2.1 1.6.1.1 0 .2.1.2.2s-.1.4-.1.6c0 .1-.1.1-.2.1s-.2 0-.3-.1c-.3-.1-.6-.1-1.1-.1-1.5 0-1.8.9-1.8 2.5 0 1.9.3 2.8 1.7 2.8zM94.8 89.6h-.6c-.1 0-.2-.1-.2-.3v-6.2c0-.1.1-.3.2-.3h.6c.2 0 .2.1.2.2v2.5h.6c.2 0 .3-.1.4-.2l1.6-2.4c.1-.1.2-.2.3-.2h.6c.1 0 .2.1.2.2s-.1.2-.1.2c-1.4 2.1-1.6 2.4-1.9 2.8.2.4.6.8 2 3 .1.1.1.2.1.3 0 .1-.1.1-.1.2h-.8c-.1 0-.2-.1-.3-.2L96 86.8c-.1-.1-.2-.1-.4-.1H95v2.7c.1.1 0 .2-.2.2zM102.8 89.6c-.6 0-.9-.3-.9-.9v-5.5c0-.1.1-.3.2-.3h.6c.2 0 .2.1.2.2v5.1c0 .2.1.4.4.4h2.4c.1 0 .2.1.2.2v.5c0 .1-.1.2-.2.2h-2.9zM113.5 86.9c0 .9-.1 1.5-.3 1.9-.4.6-1.1.9-2.3.9-1 0-1.9-.2-2.2-1-.2-.4-.2-1.1-.2-1.8v-3.8c0-.1.1-.2.2-.2h.6c.1 0 .2.1.2.2v4.1c0 .5 0 .9.2 1.1.2.3.6.4 1.2.4.4 0 1-.1 1.2-.4.1-.2.2-.6.2-1.1v-4.1c0-.1.1-.2.2-.2h.6c.1 0 .2.1.2.2l.2 3.8zM117.9 89.6h-.6c-.1 0-.2-.1-.2-.3v-5.7c0-.5.2-.8.7-.8h.3c.4 0 .6.2.7.6 1.8 3.4 2.1 4.1 2.4 4.8v-5c0-.2.1-.3.3-.3h.6c.2 0 .2.1.2.3V89c0 .5-.3.6-.6.6h-.2c-.5 0-.6-.2-.8-.6-2-3.8-2.2-4.2-2.5-4.8v5.2c-.1.1-.2.2-.3.2zM130.6 89.2l-.2.2c-.4.1-1.2.3-2.2.3-1.7 0-2.7-.8-2.7-3.3s.8-3.6 3-3.6c.6 0 1.3.1 1.7.1.2.1.2.1.2.2s-.1.4-.1.6c0 .1-.1.1-.2.1h-.3c-.3-.1-.7-.1-1.3-.1-1.5 0-1.9.9-1.9 2.5s.3 2.6 1.7 2.6c.6 0 .9-.1 1.2-.1.1 0 .2-.1.2-.3V87h-1.3c-.1 0-.2-.1-.2-.2v-.6c0-.1.1-.2.2-.2h2c.1 0 .2.1.2.2v3z"/><g><path class="st2" d="M42.3 83.4l1.4 2.9M43.7 86.3l-1.4 2.9"/></g></g></svg>