<svg xmlns="http://www.w3.org/2000/svg" xml:space="preserve" style="fill-rule:evenodd;clip-rule:evenodd;stroke-linejoin:round;stroke-miterlimit:1.41421" viewBox="0 0 500 500"><path d="M-1456.23-1078.11 871.14-137.792 498.45 784.646l-2327.37-940.319 372.689-922.437Z" style="fill:url(#a)"/><path d="m427.95 586.741-943.418-381.167 4.547-260.408 943.418 381.168-4.547 260.407Z" style="fill:url(#b);fill-rule:nonzero"/><path d="M-233.279-476.435 710.139-95.274l-4.547 260.408-943.418-381.162 4.547-260.407Z" style="fill:url(#c);fill-rule:nonzero"/><path d="m380.208 203.183-16.45.013 3.25-15.7c2.264-10.83 10.501-10.185 10.501-10.185s4.224.171 7.382 3.119l-4.683 22.753Zm-36.518-16.147-.777 3.395-2.698 12.765h-16.238l2.908-13.252c2.421-10.83 7.436-12.764 10.989-12.764 3.223 0 6.144 1.776 6.144 5.5 0 1.448-.157 2.737-.328 4.356Zm-39.44-.803-3.71 16.963h-16.002l2.908-13.252c2.435-10.83 7.435-12.764 10.988-12.764 3.238 0 6.147 1.776 6.147 5.5 0 1.29 0 2.264-.331 3.553Zm-92.081 67.889c-1.941 9.369-8.731 14.211-13.416 14.211-2.908 0-8.08-.157-8.08-12.606 0-15.185 8.889-44.267 22.627-44.267 5.172 0 6.627 4.211 6.627 6.132l-7.758 36.53Zm200.199.947c-2.421 8.08-8.238 14.213-14.541 14.213-4.527 0-6.619-1.449-6.619-5.975 0-1.46.158-3.066.632-5.171l10.185-48.479h9.87l1.289-6.474h-9.711l6.158-29.083c-14.554-5.816-22.765-11.145-37.294-11.145-7.079 0-15.699 2.131-22.107 10.474-3.001-6.487-10.08-10.474-17.528-10.474-7.107 0-15.687 1.947-22.135 10.185-3.078-6.304-10.027-10.185-17.291-10.185-10.672 0-24.582 4.369-29.424 27.476L247.88 265.79c-2.005 2.176-4.374 3.518-7.109 3.518-4.52 0-6.625-2.422-6.625-6.948 0-1.448.164-3.053.65-5.159l11.633-54.953h-23.272l-1.777 8.554v-1.132c0-4.684-3.882-8.238-13.094-8.238-6.967 0-13.02 2.146-18.199 5.686 1.383 2.105 2.237 4.605 2.237 7.237 0 5.658-3.718 11.817-11.639 11.817-.881 0-1.448-.25-2.086-.434 6.337-1.079 9.514-6.304 9.514-11.383 0-2.632-.854-5.132-2.237-7.237-1.855-2.83-4.757-4.87-8.915-4.87-7.757 0-13.897 5.159-19.555 10.028l2.099-10.028h-23.273l-10.775 50.834c-8.345 9.039-20.966 15.212-31.255 15.212-11.838 0-15.516-5.381-15.516-16.264 0-19.831 14.567-41.926 22.063-41.926 2.716 0 4.618 1.948 4.618 7.212 0 2.513-1.218 10.304-3.402 14.659.817 1.382 2.317 2.079 5.711 2.079 9.672 0 17.7-11.475 17.7-22.121 0-9.737-5.442-15.462-18.916-15.462-23.681 0-51.46 31.964-51.46 60.599 0 18.212 10.619 27.936 28.858 27.936 14.048 0 28.615-7.763 38.206-15.92l-2.959 13.96h23.272l12.931-61.401c4.039-3.711 6.947-6.158 11.796-6.158 3.416 0 2.257 5.25 4.375 8.382.659.96 1.797 1.606 3.317 1.948-5.31 10.54-8.04 22.568-8.04 32.174 0 19.239 10.501 26.029 21.495 26.029 11.469 0 19.068-7.422 24.076-14.87.973 9.711 6.789 14.87 15.837 14.87 4.62 0 10.866-.997 17.089-5.836l-2.232 10.533c7.659-2.053 15.976-3.894 24.595-5.553l15.633-73.494h16.001l-15.001 70.573c8.224-1.329 16.449-2.487 24.371-3.5l.816-3.777 13.238-63.296h16.16l-13.765 65.112c9.08-1 17.265-1.789 24.029-2.382l13.369-62.73 16.292-.013-9.54 45.412c-.802 3.869-1.29 7.436-1.29 10.502 0 13.58 7.593 19.396 17.292 19.396 8.725 0 24.726-3.566 33.938-29.898h-6.791Z" style="fill:#fff;fill-rule:nonzero"/><path d="M239.56 310.509c-2.099 9.541-6.139 12.608-9.534 12.608-3.552 0-6.461-3.067-6.461-5.33 0-8.725 9.278-16.976 19.456-20.372l-3.461 13.094Zm78.522-.736c-2.093 9.54-6.567 13.344-9.962 13.344-3.185 0-7.58-2.593-8.528-4.751a56.785 56.785 0 0 0 2.145-7.501l5.935-29.727c-8.291 1.21-16.632 2.631-24.503 4.303l-5.263 26.174c-2.106 9.541-6.567 13.343-9.962 13.343-3.171 0-7.585-2.592-8.527-4.75a55.044 55.044 0 0 0 2.146-7.502l4.71-22.975c-15.356 4.684-49.472 13.62-52.571 30.319-1.915 10.33 9.218 17.449 19.074 17.449 7.114 0 15.673-1.934 21.976-10.171 2.586 6.131 8.245 10.171 17.456 10.171 7.171 0 15.751-2.119 22.094-10.435 3.028 6.461 10.093 10.435 17.529 10.435 9.646 0 21.857-3.71 27.713-21.45.553-1.539 1.027-3.29 1.435-5.066.078-.342.197-.605.275-.947h-.064c.564-2.619 1.013-5.172 1.381-6.949l5.658-26.529a765.511 765.511 0 0 0-24.055 2.422l-6.092 30.793ZM432.722 175.629c1.704 0 2.668-.889 2.668-2.15 0-1.408-.964-2.149-2.668-2.149h-3.186v4.299h3.186Zm-5.707-6.523h5.931c2.889 0 5.039 1.409 5.039 4.151 0 2.15-1.26 3.484-3.039 4.002l3.484 4.966h-3.04l-3.112-4.521h-2.742v4.521h-2.521v-13.119Zm16.454 6.819v-.074c0-6.3-4.891-11.488-11.414-11.488-6.448 0-11.413 5.262-11.413 11.562v.074c0 6.3 4.892 11.489 11.413 11.489 6.448 0 11.414-5.263 11.414-11.563Zm-24.31.074v-.074c0-7.041 5.707-12.97 12.896-12.97 7.264 0 12.897 5.855 12.897 12.896v.074c0 7.041-5.706 12.971-12.897 12.971-7.263 0-12.896-5.856-12.896-12.897Z" style="fill:#fff;fill-rule:nonzero"/><defs><linearGradient id="a" x1="0" x2="1" y1="0" y2="0" gradientTransform="matrix(2327.37 940.317 -785.823 1944.98 -1642.57 -616.89)" gradientUnits="userSpaceOnUse"><stop offset="0" style="stop-color:#e4244d;stop-opacity:1"/><stop offset="1" style="stop-color:#ce0639;stop-opacity:1"/></linearGradient><linearGradient id="b" x1="0" x2="1" y1="0" y2="0" gradientTransform="translate(-515.466 265.953) scale(947.961)" gradientUnits="userSpaceOnUse"><stop offset="0" style="stop-color:#ee254f;stop-opacity:1"/><stop offset="1" style="stop-color:#ce0639;stop-opacity:1"/></linearGradient><linearGradient id="c" x1="0" x2="1" y1="0" y2="0" gradientTransform="rotate(-180 355.068 -77.825) scale(947.961)" gradientUnits="userSpaceOnUse"><stop offset="0" style="stop-color:#ee254f;stop-opacity:1"/><stop offset="1" style="stop-color:#ce0639;stop-opacity:1"/></linearGradient></defs></svg>