<svg xmlns="http://www.w3.org/2000/svg" viewBox="0 0 500 500"><rect width="500" height="500" rx="104" fill="#f4f4f2"/><path d="M190,140 L110,180 L190,220" fill="none" stroke="#e67e22" stroke-width="24" stroke-linecap="round" stroke-linejoin="round"/><path d="M232,222 L268,138" stroke="#e67e22" stroke-width="24" stroke-linecap="round"/><path d="M310,140 L390,180 L310,220" fill="none" stroke="#e67e22" stroke-width="24" stroke-linecap="round" stroke-linejoin="round"/><g fill="#2f3439"><rect x="132" y="258" width="25" height="25"/><rect x="162" y="258" width="25" height="25"/><rect x="192" y="258" width="25" height="25"/><rect x="252" y="258" width="25" height="25"/><rect x="282" y="258" width="25" height="25"/><rect x="312" y="258" width="25" height="25"/><rect x="132" y="288" width="25" height="25"/><rect x="252" y="288" width="25" height="25"/><rect x="342" y="288" width="25" height="25"/><rect x="132" y="318" width="25" height="25"/><rect x="162" y="318" width="25" height="25"/><rect x="192" y="318" width="25" height="25"/><rect x="252" y="318" width="25" height="25"/><rect x="282" y="318" width="25" height="25"/><rect x="312" y="318" width="25" height="25"/><rect x="192" y="348" width="25" height="25"/><rect x="252" y="348" width="25" height="25"/><rect x="312" y="348" width="25" height="25"/><rect x="132" y="378" width="25" height="25"/><rect x="162" y="378" width="25" height="25"/><rect x="192" y="378" width="25" height="25"/><rect x="252" y="378" width="25" height="25"/><rect x="342" y="378" width="25" height="25"/></g></svg>
