<?xml version="1.0" encoding="utf-8"?>
<!-- Generator: Adobe Illustrator 16.0.0, SVG Export Plug-In . SVG Version: 6.00 Build 0)  -->
<!DOCTYPE svg PUBLIC "-//W3C//DTD SVG 1.1//EN" "http://www.w3.org/Graphics/SVG/1.1/DTD/svg11.dtd">
<svg version="1.1" id="Ebene_1" xmlns="http://www.w3.org/2000/svg" xmlns:xlink="http://www.w3.org/1999/xlink" x="0px" y="0px"
	 width="595.279px" height="841.891px" viewBox="0 0 595.279 841.891" enable-background="new 0 0 595.279 841.891"
	 xml:space="preserve">
<path fill="#666666" d="M170.634,400.729c-5.21,2.605-143.284,89.876-143.284,89.876l39.076,49.497l234.462,52.102L170.634,400.729z
	"/>
<path fill="#C1662B" d="M380.338,247.677c-61.747,39.027-132.904,60.449-194.295,99.879c-33.777,12.962-16.141,50.449-13.88,76.629
	c-1.11,29.135-3.156,58.222-9.166,86.756c-5.505,40.301,44.07,37.542,69.226,46.826c36.663,19.719,90.234,50.006,120.455,47.095
	c52.556-6.272,84.051-51.57,129.165-74.419c25.832-27.016,76.708-35.299,81.017-74.886c-8.582-37.246-3.098-85.758-21.847-120.061
	c-19.239-27.993-31.153-60.387-51.091-87.789c-20.555-28.02-47.803,1.767-65.524,16.377c-26.816,25.659-69.438,13.351-17.95-4.006
	c11.448-5.319,38.914-21.927,9.498-13.833c-11.628,2.354-23.949,5.244-35.603,1.431L380.338,247.677z"/>
<path fill="#ECBF70" d="M476.08,231.395c-50.324,41.307-116.613,58.313-166.56,99.59c-76.535,15.025,37.174,63.216,33.109,106.446
	c13.102,52.785,9.953,105.271,3.722,159.223c49.467,8.166,90.354-39.854,130.441-63.771c39.376-30.78,103.304-53.139,81.892-114.746
	c1.735-45.847-14.054-86.243-40.154-123.533c-13.557-21.364-21.357-47.626-42.449-63.214L476.08,231.395z"/>
<path fill="#610709" d="M343.872,445.009c-52.142-15.301-106.44-51.945-150.234-68.76c-56.411-24.555-6.816-13.567,44.629-36.787
	c38.853-6.735,65.418-24.533,98.497-43.491c12.54-7.66,51.462-27.374,54.618-14.914c-28.938,22.615-86.721,45.007-113.657,64.214
	c-4.238,10.792,43.816,54.351,58.084,81.566c2.957,4.272,7.275,12.986,8.067,18.171L343.872,445.009z"/>
<g transform="translate(-56.156 -270.31)">
	<path d="M224.242,627.017c7.633,5.366,15.647,10.153,23.6,15.025c13.482,8.426,27.646,15.686,41.977,22.54
		c19.764,9.624,39.757,18.766,59.55,28.329c17.396,8.377,35.298,15.593,53.545,21.875c0.222,0.129-1.605,3.274-1.828,3.145
		c-18.436-6.179-36.499-13.38-53.986-21.909c-19.752-9.601-39.665-18.867-59.359-28.583c-14.353-6.993-28.559-14.352-42.029-22.948
		c-7.965-4.973-16.056-9.817-23.477-15.591C222.101,628.757,224.108,626.876,224.242,627.017L224.242,627.017z"/>
	<path d="M222.191,629.931c0.906,10.448,2.471,20.821,3.761,31.224c1.771,14.729,1.402,29.579,0.904,44.37
		c-0.614,12.824-0.8,25.658-0.762,38.495c0.06,9.817,0.492,19.619-0.372,29.41c-0.731,6.069-1.831,12.118-3.011,18.119
		c-0.519,2.96-1.031,5.877-1.856,8.765c-0.517,2.736-1.006,3.473,1.862,4.388c10.876,2.469,21.317,6.513,31.692,10.534
		c19.651,8.412,39.133,17.227,58.595,26.07c18.598,8.568,37.658,16.022,56.747,23.406c11.383,4.096,22.729,8.229,33.43,13.914
		c0.168,0.128-1.644,2.515-1.812,2.387c-10.793-5.341-22.119-9.333-33.462-13.34c-19.237-7.223-38.387-14.675-57.061-23.276
		c-19.401-8.812-38.78-17.685-58.299-26.233c-10.332-4.141-20.723-8.165-31.444-11.191c-0.637-0.362-1.352-0.612-1.909-1.086
		c-1.885-1.603-1.429-4.083-0.978-6.188c0.78-2.834,1.209-5.69,1.686-8.594c1.082-5.933,2.147-11.895,2.819-17.885
		c0.772-9.72,0.242-19.446,0.159-29.186c-0.087-12.87,0.097-25.739,0.633-38.599c0.446-14.649,0.839-29.353-0.842-43.947
		c-1.233-10.499-2.844-20.981-3.244-31.556C219.428,629.737,222.192,629.737,222.191,629.931L222.191,629.931z"/>
	<path d="M400.665,720.257c0.592,17.424,2.01,34.807,2.96,52.212c1.039,18.958,0.898,37.943,0.197,56.907
		c-0.665,9.321-0.376,18.678-0.847,28.002c-0.576,5.51-0.609,11.118-1.958,16.512c-0.806,1.885-0.372,1.005-1.278,2.65
		c-0.08,0.176-2.567-0.953-2.487-1.129c0.749-1.336,0.396-0.646,1.053-2.071c1.235-5.258,1.03-10.739,1.663-16.084
		c0.427-9.31,0.104-18.646,0.56-27.959c0.382-18.89,0.278-37.788-0.704-56.66c-0.879-17.444-2.26-34.905-1.969-52.379
		C397.854,720.059,400.665,720.059,400.665,720.257L400.665,720.257z"/>
	<path d="M405.784,876.553c10.972-3.907,22.066-7.614,32.728-12.331c2.87-1.271,5.668-2.698,8.502-4.047
		c15.708-7.806,29.143-19.111,42.981-29.692c3.413-2.61,6.87-5.161,10.306-7.741c16.059-11.598,33.081-21.762,49.72-32.485
		c13.456-8.671,12.693-8.294,25.842-17.35c11.168-8.1,21.993-16.694,31.867-26.349c3.839-3.754,8.979-9.16,12.216-13.681
		c1.07-1.495,1.867-3.168,2.801-4.752c0.094-0.205,2.994,1.12,2.9,1.325c-0.932,1.749-1.705,3.593-2.796,5.247
		c-3.189,4.837-8.164,10.309-12.12,14.317c-9.814,9.945-20.723,18.694-31.986,26.933c-12.971,8.96-12.658,8.901-25.941,17.446
		c-16.593,10.674-33.617,20.697-49.726,32.107c-3.447,2.539-6.921,5.042-10.342,7.615c-14.102,10.608-27.737,22.033-43.634,29.958
		c-2.89,1.372-5.738,2.833-8.669,4.117c-10.766,4.716-22.003,8.419-33.243,11.808C407.017,879.098,405.61,876.652,405.784,876.553
		L405.784,876.553z"/>
	<path d="M403.824,712.689c12.945-5.354,25.611-11.342,38.156-17.565c21.805-11.515,43.095-23.96,64.254-36.611
		c14.521-8.407,28.346-17.926,41.935-27.749c1.767-1.883,4.328-2.989,6.229-4.691c0.068-0.061,0.021-0.195,0.082-0.263
		c0.358-0.385,0.771-0.715,1.157-1.072c4.819-3.043,9.913-5.702,15.072-8.126c4.407-1.7,8.594-3.769,12.625-6.215
		c1.911-1.352,3.986-2.525,6.231-3.214c2.567-0.467,4.563,1.397,6.955,1.987c1.782,0.464,3.652-0.172,5.438,0.248
		c1.501,0.353,2.272,1.223,3.413,2.165c5.358,7.44,5.595,17.196,6.459,26c1.637,15.388,3.256,30.778,4.762,46.181
		c1.583,12.147,1.166,24.364,1.146,36.564c0.105,6.362,0.536,12.711,0.645,19.073c0.043,2.593-0.085,5.182-0.236,7.769
		c-0.008,0.191-2.707,0.082-2.7-0.109c0.096-2.535,0.127-5.073,0.063-7.61c-0.15-6.376-0.637-12.735-0.827-19.11
		c-0.131-12.113,0.078-24.243-1.499-36.293c-1.537-15.404-3.104-30.805-4.602-46.213c-0.693-8.161-0.713-17.254-5.271-24.374
		c-3.062-2.545-4.382-1.009-8.063-1.87c-0.684-0.217-3.69-1.255-4.123-1.826c-0.065-0.087,0.39-0.104,0.29-0.148
		c-0.204-0.091-0.447-0.015-0.672-0.022c-2.052,0.305-3.879,1.834-5.571,2.912c-4.061,2.557-8.271,4.759-12.766,6.474
		c-5,2.366-9.879,4.99-14.749,7.609c-1.427,0.97-0.379,0.142-1.739,1.644c-1.507,1.664-3.964,3.043-5.525,4.733
		c-13.32,10.287-27.185,19.885-41.672,28.461c-21.166,12.833-42.559,25.309-64.572,36.648c-12.749,6.176-25.616,12.192-38.955,17
		c-0.169,0.097-1.539-2.287-1.37-2.384H403.824z"/>
	<path d="M398.615,712.211c-4.495-8.456-9.994-16.343-15.49-24.169c-7.841-11.234-16.67-21.695-25.493-32.155
		c-7.133-9.036-14.212-18.131-20.394-27.854c-2.006-3.78-5.792-7.525-5.876-12.052c0.513-2.92,3.011-3.596,5.404-4.628
		c6.413-1.927,11.922-5.786,17.59-9.227c14.604-9.222,30.143-16.87,45.437-24.863c20.388-10.522,40.854-20.937,60.507-32.792
		c9.438-5.568,18.287-12.037,27.832-17.424c3.825-1.794,7.296-4.204,10.689-6.696c3.708-3.132,7.758-5.807,11.942-8.252
		c4.404-2.582,8.836-5.099,13.476-7.231c0.579-0.292,1.157-0.588,1.738-0.875c0.354-0.175,3.864-2.283,4.045-2.323
		c0.642-0.143,1.31-0.104,1.965-0.156c0.535,0.376,1.111,0.698,1.604,1.127c1.371,1.192,2.849,3.125,3.939,4.466
		c3.487,4.285,6.712,8.75,9.998,13.19c8.605,11.323,17.127,22.671,24.493,34.848c4.8,8.108,8.117,16.942,11.406,25.735
		c1.193,3.244,3.54,5.8,5.362,8.678c2.455,4.015,3.941,8.564,5.702,12.918c1.051,2.687,1.875,5.433,2.712,8.188
		c0.452,1.021,0.939,2.007,1.496,2.975c0.079,0.177-2.418,1.305-2.497,1.128c-0.6-1.12-1.163-2.247-1.622-3.433
		c-0.834-2.686-1.729-5.335-2.795-7.942c-1.748-4.216-3.104-8.658-5.473-12.568c-1.894-3.013-4.32-5.698-5.631-9.06
		c-3.464-8.565-6.877-17.196-11.62-25.157c-7.385-12.07-15.907-23.316-24.338-34.667c-4.377-6.063-8.525-12.379-13.597-17.891
		c0.188-0.094,0.355-0.292,0.566-0.282s-0.384,0.167-0.559,0.282c-1.18,0.774-2.186,1.522-3.457,2.177
		c-0.604,0.311-1.203,0.635-1.805,0.953c-4.559,2.132-8.944,4.577-13.278,7.138c-4.137,2.351-8.149,4.941-11.78,8.031
		c-3.449,2.55-6.989,5-10.831,6.93c-9.363,5.596-18.016,12.239-27.335,17.912c-19.55,12.162-40.038,22.688-60.585,33.05
		c-15.349,7.846-30.955,15.302-45.679,24.286c-5.827,3.402-11.513,7.3-18.081,9.122c-1.529,0.651-3.455,0.787-4.257,2.349
		c-0.183,2.623,4.781,8.377,5.896,10.617c6.298,9.519,13.315,18.525,20.445,27.431c8.885,10.514,17.729,21.069,25.55,32.418
		c5.497,7.946,11.094,15.939,15.224,24.703c0.073,0.181-2.478,1.229-2.552,1.048H398.615z"/>
	<path d="M233.448,627.984c13.142-3.543,26.01-7.939,38.847-12.443c16.404-5.859,32.785-11.767,49.42-16.945
		c9.438-3.086,18.901-6.103,28.435-8.884c1.235-0.26,2.466-0.538,3.694-0.827c0.165-0.09,1.443,2.244,1.278,2.335
		c-1.164,0.437-2.34,0.825-3.574,1.025c-9.397,3.103-18.839,6.066-28.193,9.3c-16.563,5.273-32.872,11.264-49.264,17.043
		c-12.955,4.468-25.933,8.951-39.351,11.846C234.566,630.526,233.274,628.075,233.448,627.984L233.448,627.984z"/>
	<path d="M348.868,589.971c8.201-5.404,16.573-10.559,25.154-15.34c2.06-1.104,4.097-2.25,6.179-3.312
		c7.095-3.619,7.052-3.317,14.437-6.823c8.095-3.843,16.01-8.034,23.934-12.213c15.797-8.188,31.397-16.702,46.719-25.748
		c10.572-6.143,21.487-11.758,32.788-16.441c2.818-0.845,5.598-2.223,8.147-3.485c-1.42-1.772,0.028,1.671-0.594,1.854
		c-0.39,0.114-0.798,0.15-1.196,0.225c-0.479,0.122-0.966,0.221-1.439,0.366c-1.294,0.395-2.559,0.878-3.842,1.305
		c-6.483,2.533-13.207,4.324-19.895,6.221c-7.881,2.558-15.976,4.137-24.185,5.11c-3.692,0.35-7.479,0.795-11.135-0.056
		c-1.04-0.173-2.179-0.378-3.237-0.232c-0.058,0.008-0.031,0.127-0.084,0.151c-0.286,0.136-0.599,0.208-0.898,0.312
		c-2.882,1.095-5.462,2.836-8.09,4.42c-7.287,4.391-14.911,8.175-22.446,12.113c-10.784,5.482-21.419,11.246-32.115,16.896
		c-7.631,4.237-15.529,7.965-23.43,11.666c-5.397,2.876-11.207,4.542-17.089,6.069c-6.189,1.423-11.912,4.071-17.418,7.163
		c-4.781,2.399-9.737,4.462-14.715,6.42c-5.194,1.801-10.043,4.324-14.793,7.057c-5.824,3.225-11.366,6.91-16.891,10.617
		c-3.289,2.321-6.606,4.506-10.124,6.457c-3.564,2.389-7.01,4.917-10.688,7.136c-6.479,3.856-13.21,7.287-19.924,10.715
		c-3.372,1.886-7.699,3.678-10.691,5.625c-0.071,0.173-2.522-0.842-2.45-1.015c1.955-3.441,8.27-4.796,11.266-7.085
		c6.679-3.421,13.513-6.564,19.936-10.452c3.735-2.17,7.248-4.639,10.812-7.073c1.391-0.788,2.908-1.468,4.226-2.376
		c1.901-1.312,3.631-2.897,5.654-4.044c5.519-3.824,11.12-7.537,17.001-10.785c4.867-2.766,9.84-5.316,15.13-7.189
		c4.866-1.931,9.726-3.927,14.414-6.257c5.665-3.243,11.544-6.078,17.947-7.548c5.747-1.436,11.451-2.927,16.682-5.818
		c7.812-3.767,15.617-7.565,23.187-11.805c10.695-5.671,21.298-11.515,32.14-16.905c7.549-3.862,15.199-7.535,22.558-11.753
		c2.785-1.601,5.502-3.386,8.498-4.567c2.211-0.852,4.436-0.925,6.727-0.36c2.993,0.503,6.027,0.023,9.02-0.263
		c8.066-1.035,16.04-2.535,23.798-5.044c6.685-1.853,13.426-3.521,19.916-5.991c1.548-0.479,7.792-2.921,9.266-1.98
		c0.73,0.466,0.91,1.474,1.365,2.211c-2.151,2.415-5.866,3.112-8.647,4.479c-11.084,4.812-21.789,10.51-32.23,16.576
		c-15.319,9.137-30.93,17.724-46.778,25.912c-7.983,4.196-15.956,8.419-24.13,12.237c-7.801,3.644-6.906,2.902-14.375,6.615
		c-2.083,1.036-4.122,2.16-6.183,3.239c-8.6,4.663-16.902,9.826-25.309,14.829c-0.144,0.133-2.021-1.903-1.878-2.036H348.868z"/>
	<path d="M439.194,545.872c4.834,1.974,9.755,3.868,14.81,5.206l1.301,0.512c0.167,0.099-1.233,2.452-1.4,2.353l-1.156-0.358
		c-5.22-1.329-10.355-3.158-15.203-5.501C437.389,547.966,439.037,545.755,439.194,545.872L439.194,545.872z"/>
	<path d="M244.551,632.368c0.844,3.256,0.397,1.543,1.339,5.138c0.043,0.201-2.799,0.802-2.841,0.601
		c-0.909-3.712-0.498-1.909-1.245-5.409C241.781,632.503,244.527,632.174,244.551,632.368L244.551,632.368z"/>
	<path d="M252.146,623.419c-0.075,7.351,0.671,14.661,1.356,21.97l0.206,2.518c0.017,0.202-2.836,0.433-2.853,0.231l-0.278-2.497
		c-0.82-7.379-1.646-14.784-1.196-22.222C249.381,623.224,252.146,623.224,252.146,623.419L252.146,623.419z"/>
	<path d="M257.372,624.942c0.183,7.353,0.16,14.71,0.047,22.065c0.21,2.083,0.017,1.179,0.455,2.735
		c0.046,0.188-2.606,0.836-2.652,0.648c-0.608-2.015-0.349-0.894-0.685-3.383c-0.113-7.354-0.137-14.712,0.047-22.065
		C254.584,624.745,257.372,624.745,257.372,624.942L257.372,624.942z"/>
	<path d="M262.577,622.336c0.207,8.285,0.199,16.573,0.076,24.859c-0.062,2.71-0.026,1.506-0.099,3.614c0,0.194-2.743,0.194-2.743,0
		c-0.071-2.108-0.035-0.904-0.098-3.614c-0.123-8.286-0.131-16.575,0.076-24.859C259.79,622.139,262.577,622.139,262.577,622.336
		L262.577,622.336z"/>
	<path d="M267.787,622.336c0.254,9.526,0.214,19.057,0.129,28.586c0.207,2.06-0.357,4.125,0.032,6.163
		c0.035,0.188-2.627,0.689-2.662,0.501c-0.538-2.195-0.331-4.41-0.416-6.664c-0.085-9.528-0.125-19.06,0.129-28.586
		C264.999,622.139,267.787,622.139,267.787,622.336L267.787,622.336z"/>
	<path d="M274.518,619.59c1.492,10.497,1.439,21.116,1.894,31.685c0.191,3.536,0.275,7.055,0.857,10.549
		c0.032,0.199-2.781,0.647-2.812,0.448c-0.76-3.587-1.032-7.208-1.219-10.873c-0.53-10.504-0.538-21.036-1.493-31.518
		C271.724,619.685,274.497,619.394,274.518,619.59L274.518,619.59z"/>
	<path d="M282.126,618.648c0.098,11.945,0.918,23.865,1.488,35.794c0.275,3.25,0.042,6.504,0.397,9.743
		c0.026,0.194-2.723,0.564-2.748,0.37c-0.668-3.289-0.592-6.629-0.885-9.968c-0.702-11.964-1.573-23.948-1.063-35.938
		C279.315,618.45,282.126,618.45,282.126,618.648L282.126,618.648z"/>
	<path d="M293.847,610.615c0.503,12.128-0.386,24.253-1.027,36.36c-0.237,4.833-0.551,9.666-0.635,14.505
		c0.004,0.196-2.766,0.253-2.77,0.058c-0.316-4.895-0.03-9.803,0.119-14.699c0.553-12.073,1.402-24.135,1.524-36.224
		C291.059,610.419,293.847,610.419,293.847,610.615L293.847,610.615z"/>
	<path d="M299.043,613c0.307,11.949,0.305,23.903,0.296,35.855c0.085,5.428,0.335,10.854,0.778,16.265
		c0.238,2.9,0.02,1.896,0.615,3.858c0.052,0.188-2.606,0.919-2.658,0.731c-2.312-6.586-1.375-14.032-2.092-20.854
		c-0.007-11.952-0.01-23.905,0.296-35.855C296.278,612.805,299.043,612.805,299.043,613L299.043,613z"/>
	<path d="M308.173,611.917c0.296,12.548,0.311,25.101,0.308,37.652c0.312,8.355-0.697,16.776,0.28,25.101
		c0.025,0.2-2.798,0.551-2.823,0.352c-1.486-8.389-0.514-16.983-0.86-25.453c-0.003-12.551,0.012-25.104,0.308-37.652
		C305.385,611.72,308.173,611.72,308.173,611.917L308.173,611.917z"/>
	<path d="M317.276,605.174c0.298,12.522,0.319,25.05,0.359,37.576c-0.066,10.338-0.221,20.674,0.67,30.982
		c0.02,0.208-2.913,0.485-2.934,0.277c-1.433-10.362-1.265-20.819-1.221-31.259c0.04-12.526,0.062-25.053,0.36-37.576
		C314.512,604.979,317.276,604.979,317.276,605.174L317.276,605.174z"/>
	<path d="M326.419,608.229c-0.337,15.275-1.388,30.521-2.229,45.773c-0.318,7.326-0.871,14.648-0.562,21.985
		c0.121,2.865,0.191,5.923,1.36,8.58c0.068,0.185-2.545,1.152-2.613,0.967c-1.381-3.034-1.732-6.131-1.969-9.468
		c-0.522-7.408-0.042-14.821,0.229-22.228c0.829-15.213,1.857-30.416,2.973-45.609C323.607,608.031,326.418,608.031,326.419,608.229
		L326.419,608.229z"/>
	<path d="M333.137,605.264c1.496,14.273,2.14,28.64,2.794,42.975c0.98,10.831,0.535,21.974,2.919,32.648
		c0.04,0.197-2.741,0.768-2.781,0.571c-2.865-10.746-2.746-22.082-3.671-33.083c-0.64-14.274-1.272-28.551-2.035-42.818
		c-0.021-0.196,2.754-0.487,2.774-0.291V605.264z"/>
	<path d="M343.542,634.973c1.284,9.273,1.573,18.646,2.239,27.977c0.356,7.158,0.765,14.302,1.674,21.413
		c0.026,0.193-2.709,0.557-2.734,0.364c-1.346-7.125-1.672-14.361-2.084-21.585c-0.675-9.278-1.005-18.574-1.841-27.838
		C340.772,635.109,343.52,634.78,343.542,634.973L343.542,634.973z"/>
	<path d="M352.659,650.601c1.199,9.918,1.917,19.902,2.627,29.868c0.304,5.74,0.681,11.521,0.076,17.253
		c-0.013,0.195-2.773,0.014-2.761-0.182c0.274-5.627-0.145-11.261-0.487-16.876c-0.753-9.911-1.498-19.822-2.202-29.735
		C349.889,650.735,352.636,650.406,352.659,650.601L352.659,650.601z"/>
	<path d="M361.582,658.802c0.226,9.555,0.196,19.114,0.17,28.67c0.068,3.761,0.341,7.521,1.066,11.214
		c0.037,0.191-2.673,0.704-2.709,0.513c-0.974-3.835-1.358-7.775-1.485-11.727c-0.026-9.557-0.056-19.115,0.17-28.67
		C358.794,658.605,361.582,658.605,361.582,658.802L361.582,658.802z"/>
	<path d="M366.984,668.834c0.927,7.571,2.117,15.109,2.853,22.702c0.325,2.752,0.843,5.475,1.188,8.224
		c0.023,0.192-2.692,0.524-2.716,0.333c-0.463-2.77-1.053-5.518-1.433-8.301c-0.827-7.551-2.092-15.048-2.64-22.63
		C364.215,668.968,366.961,668.639,366.984,668.834L366.984,668.834z"/>
	<path d="M373.522,674.534c1.812,9.126,2.909,18.379,3.213,27.676l0.158,2.412c0.015,0.202-2.834,0.417-2.849,0.216l-0.285-2.509
		c-0.585-9.222-1.684-18.396-3.037-27.535C370.704,674.596,373.504,674.334,373.522,674.534L373.522,674.534z"/>
	<path d="M378.731,682.103c0.87,6.747,1.325,13.532,2.11,20.289c0.021,0.211-2.969,0.521-2.99,0.311
		c-0.885-6.749-1.371-13.523-1.894-20.308C375.938,682.197,378.711,681.907,378.731,682.103L378.731,682.103z"/>
	<path d="M386.527,693.589c0.522,3.029,0.83,6.088,1.144,9.145c0.018,0.207-2.911,0.456-2.929,0.249
		c-0.305-3.023-0.62-6.046-0.962-9.065C383.757,693.724,386.504,693.395,386.527,693.589z"/>
	<path d="M391.522,697.661c0.391,3.604,0.176,1.699,0.648,5.711c0.019,0.207-2.901,0.473-2.921,0.266
		c-0.411-4.14-0.253-2.146-0.492-5.977C388.758,697.465,391.522,697.465,391.522,697.661L391.522,697.661z"/>
	<path d="M339.636,602.414c0.916,5.777,1.313,11.62,1.515,17.461c0.008,0.206-2.906,0.316-2.914,0.11
		c-0.319-5.756-0.768-11.505-1.348-17.241C336.865,602.549,339.612,602.22,339.636,602.414L339.636,602.414z"/>
	<path d="M351.15,596.29c0.1,3.575,0.103,7.151,0.109,10.728c0,0.213-3.007,0.213-3.007,0c0.007-3.576,0.009-7.152,0.109-10.728
		C348.362,596.092,351.15,596.092,351.15,596.29z"/>
	<path d="M358.964,589.545c0.111,3.923-0.006,7.84,0.281,11.755c0.015,0.204-2.865,0.401-2.879,0.197
		c-0.354-3.979-0.283-7.96-0.167-11.953C356.199,589.35,358.964,589.35,358.964,589.545L358.964,589.545z"/>
	<path d="M366.791,584.568c0.086,4.185,0.054,1.997,0.091,6.565c0,0.21-2.969,0.21-2.969,0c0.037-4.568,0.005-2.38,0.091-6.565
		C364.004,584.371,366.791,584.371,366.791,584.568L366.791,584.568z"/>
	<path d="M371.987,579.126c0.111,3.923-0.006,7.841,0.281,11.756c0.015,0.203-2.865,0.4-2.879,0.197
		c-0.354-3.979-0.283-7.96-0.167-11.953C369.223,578.931,371.987,578.931,371.987,579.126L371.987,579.126z"/>
	<path d="M377.197,577.824c0.107,3.349,0.101,6.7,0.105,10.051c0,0.21-2.976,0.21-2.976,0c0.004-3.351-0.003-6.702,0.104-10.051
		C374.432,577.629,377.197,577.629,377.197,577.824L377.197,577.824z"/>
	<path d="M386.313,571.312c0.135,6.713,0.214,13.434,0.033,20.148c0,0.2-2.832,0.2-2.832,0c-0.18-6.713-0.101-13.434,0.034-20.148
		C383.549,571.117,386.313,571.117,386.313,571.312L386.313,571.312z"/>
	<path d="M394.128,571.312c-0.125,3.095-0.515,6.171-0.865,9.247c-0.02,0.207-2.945-0.076-2.926-0.282
		c0.347-2.987,0.712-5.973,1.026-8.964C391.363,571.117,394.128,571.117,394.128,571.312L394.128,571.312z"/>
	<path d="M399.337,564.801c0.11,4.025,0.092,8.052,0.071,12.078c0,0.206-2.907,0.206-2.907,0c-0.021-4.026-0.038-8.053,0.071-12.078
		C396.572,564.605,399.337,564.605,399.337,564.801L399.337,564.801z"/>
	<path d="M404.778,562.273c0.68,4.451,1.061,8.937,1.372,13.426c0.013,0.207-2.915,0.392-2.928,0.185
		c-0.363-4.444-0.784-8.882-1.218-13.32C401.984,562.368,404.758,562.078,404.778,562.273L404.778,562.273z"/>
	<path d="M414.965,558.289c0.129,5.207,0.156,10.419,0.036,15.627c0,0.201-2.837,0.201-2.837,0
		c-0.12-5.208-0.092-10.419,0.036-15.627C412.2,558.093,414.965,558.093,414.965,558.289L414.965,558.289z"/>
	<path d="M421.49,553.299c0.145,4.881,0.119,9.766,0.089,14.648c0,0.21-2.966,0.21-2.966,0c-0.03-4.883-0.056-9.767,0.089-14.648
		C418.702,553.102,421.49,553.102,421.49,553.299L421.49,553.299z"/>
	<path d="M433.198,549.172c0.091,3.225,0.096,6.45,0.104,9.676c0,0.21-2.973,0.21-2.973,0c0.01-3.226,0.014-6.451,0.104-9.676
		C430.434,548.977,433.198,548.977,433.198,549.172z"/>
	<path d="M429.304,555.903c-0.107,3.442-0.502,6.865-0.858,10.288c-0.018,0.209-2.979-0.05-2.961-0.26
		c0.35-3.342,0.718-6.682,1.032-10.027C426.517,555.707,429.304,555.707,429.304,555.903L429.304,555.903z"/>
	<path d="M329.011,645.779c-0.05,8.731,0.763,17.424,1.396,26.125c0.25,3.356,0.394,6.719,0.243,10.082
		c-0.004,0.195-2.764,0.134-2.76-0.061c0.022-3.282-0.23-6.552-0.511-9.821c-0.742-8.755-1.635-17.528-1.156-26.324
		C326.223,645.582,329.01,645.582,329.011,645.779L329.011,645.779z"/>
	<path d="M345.967,634.341c4.609-3.75,9.777-6.644,14.893-9.619c3.558-2.005,6.892-4.369,10.203-6.747
		c4.356-3.078,9.066-5.621,13.74-8.178c5.424-3.159,10.502-6.843,15.699-10.348c4.231-3.32,8.353-6.737,12.736-9.856
		c5.693-3.833,11.721-7.147,17.688-10.533c6.498-3.73,12.644-7.994,18.831-12.203c5.742-4.045,11.608-7.917,17.585-11.605
		c6.078-3.531,12.327-6.745,18.648-9.812c4.69-2.024,9.104-4.567,13.521-7.115c4.32-2.614,8.577-5.333,12.912-7.923
		c3.22-2.212,6.799-3.714,10.393-5.183c1.829-0.839,3.535-1.874,5.179-3.027c2.277-1.779,4.85-3.125,7.464-4.333
		c1.081-0.624,2.169-1.21,3.302-1.733c0.158-0.108,1.695,2.133,1.536,2.242c-1.148,0.48-2.206,1.096-3.261,1.761
		c-2.509,1.101-4.981,2.359-7.164,4.026c-1.783,1.239-3.595,2.378-5.552,3.335c-3.455,1.491-6.936,2.94-10.044,5.107
		c-4.362,2.568-8.623,5.304-12.949,7.934c-4.469,2.55-8.883,5.2-13.608,7.263c-6.23,3.068-12.397,6.265-18.43,9.708
		c-5.97,3.627-11.8,7.492-17.51,11.515c-6.249,4.232-12.379,8.637-18.95,12.377c-5.912,3.335-11.916,6.54-17.597,10.262
		c-4.423,3.101-8.527,6.55-12.731,9.939c-5.265,3.544-10.404,7.277-15.899,10.469c-4.602,2.493-9.227,4.991-13.564,7.923
		c-3.363,2.419-6.762,4.804-10.326,6.919c-4.966,3.023-10.04,5.863-14.734,9.314C347.843,636.364,345.835,634.483,345.967,634.341
		L345.967,634.341z"/>
	<path d="M334.646,590.113c5.335-3.095,10.985-5.579,16.116-9.019c3.42-2.67,6.782-5.366,10.431-7.725
		c4.106-2.477,8.047-5.244,12.257-7.541c4.024-1.843,7.877-3.965,11.592-6.366c3.489-2.689,7.349-4.795,11.144-7.006
		c3.805-1.707,7.537-3.552,11.281-5.387c3.686-2.337,7.611-4.189,11.532-6.092c5.004-2.113,10.1-3.994,15.209-5.837
		c4.129-1.762,8.388-3.344,12.195-5.75c2.75-1.705,5.607-3.189,8.515-4.602c0.159-0.117,1.814,2.137,1.655,2.254
		c-2.816,1.384-5.621,2.769-8.291,4.43c-3.902,2.584-8.299,4.271-12.58,6.124c-5.016,1.867-10.061,3.658-15.016,5.686
		c-3.92,1.91-7.92,3.617-11.555,6.056c-3.697,1.795-7.338,3.702-11.141,5.273c-3.75,2.215-7.603,4.271-11.047,6.964
		c-3.771,2.427-7.646,4.642-11.738,6.49c-4.192,2.205-8.038,5.028-12.126,7.42c-3.663,2.292-7.01,4.949-10.335,7.698
		c-5.148,3.646-10.866,6.241-16.449,9.141C336.139,592.44,334.49,590.229,334.646,590.113L334.646,590.113z"/>
	<path d="M425.797,785.917c2.311,8.87,3.28,18.063,4.083,27.179c0.311,3.431,0.287,6.865,0.117,10.3
		c-0.005,0.202-2.866,0.125-2.86-0.077c0.046-3.332-0.013-6.663-0.351-9.982c-0.869-8.962-1.823-17.961-3.686-26.776
		C423.056,786.369,425.751,785.727,425.797,785.917L425.797,785.917z"/>
	<path d="M422.095,787.308c-3.32-0.33-6.604,0.907-9.909,0.728c-0.685-0.037-1.549,0.13-2.024-0.363
		c-0.534-0.553-0.333-1.501-0.5-2.252c0.507-0.571,0.956-1.199,1.52-1.715c1.35-1.235,2.906-2.23,4.261-3.461
		c2.237-2.033,4.087-4.252,5.937-6.633c3.113-4.387,4.781-9.543,6.991-14.399c1.135-2.806,2.966-7.046,6.848-5.034
		c0.69,0.357,1.097,1.103,1.645,1.654c3.374,5.093,7.117,9.873,11.921,13.673c3.35,2.468,7.296,2.374,11.132,3.104
		c3.529,2.925-5.278,4.151-6.407,4.364c-2.705,0.845-5.609,1.02-8.257,2.033c-1.549,0.526-3.078,1.101-4.508,1.908
		c-1.44,1.823-0.25,4.418,0.604,6.215c2.739,4.463,4.286,9.316,5.354,14.407c0.5,3.857,1.153,7.685,1.163,11.582
		c-0.02,0.442-0.032,0.886-0.059,1.328c-0.024,0.406-0.096,0.81-0.093,1.216c0.005,0.689,0.526,1.297,0.432,1.988
		c-0.058,0.423-0.252,0.816-0.378,1.225c-2.871,2.244-7.034,3.363-10.481,4.54c-2.055,0.712-4.181,0.999-6.331,1.194
		c-0.187,0.062-1.063-2.583-0.876-2.645c1.967-0.141,3.904-0.392,5.787-1.022c2.147-0.696,4.267-1.465,6.396-2.216
		c0.912-0.321,1.77-0.824,2.717-1.02c0.118-0.024,0.231,0.065,0.348,0.099c0.06,0.062,0.132,0.255,0.179,0.184
		c0.005-0.008-0.841-4.308-0.39-4.854c-0.049-3.74-0.755-7.396-1.242-11.095c-1.066-4.919-2.559-9.599-5.16-13.946
		c-1.27-3.025-2.264-6.566,0.285-9.236c1.481-0.919,3.124-1.558,4.769-2.107c2.752-1.222,5.783-1.475,8.656-2.352
		c1.646-0.272,3.252-0.589,4.856-1.049c0.385-0.111,0.884-0.654,1.147-0.354c0.427,0.487,0.155,1.286,0.232,1.929l0.271,0.201
		c-4.369-0.406-8.578-0.979-12.289-3.62c-4.841-3.938-8.722-8.73-12.026-14.022l-0.849-0.998c0.076-0.13,0.312-0.266,0.229-0.39
		c-0.896-1.326-2.897,4.053-2.939,4.12c-2.282,5.026-3.991,10.362-7.197,14.915c-3.226,4.238-6.821,8.399-11.596,10.943
		c-0.309-0.282-0.596-0.59-0.926-0.847c-0.544-0.425,1.385,0.02,2.071-0.054c3.114-0.33,6.233-0.811,9.377-0.545
		C422.972,784.678,422.284,787.357,422.095,787.308L422.095,787.308z"/>
	<path d="M433.729,759.18c-2.995,6.617-6.878,12.772-10.298,19.165c-0.963,1.968-2.021,3.869-3.284,5.657
		c-0.564,0.799-1.162,1.63-1.322,1.516c-0.869-0.624-1.366-1.646-2.05-2.468c0.032-0.191,2.738,0.255,2.706,0.446
		c-0.857,0.062-1.714,0.138-2.572,0.183c-0.059,0.003,0.129-0.012,0.165-0.058c0.241-0.3,0.433-0.636,0.647-0.955
		c1.173-1.734,2.133-3.576,3.004-5.482c3.307-6.443,7.141-12.606,10.452-19.051C431.251,757.953,433.802,759,433.729,759.18z"/>
	<path d="M433.495,769.889c-3.771,6.154-8.514,11.655-12.313,17.785c0.037,1.152-1.334-0.738-1.321-1.374
		c0.013-0.662,0.89-0.98,1.336-1.469c0.77-0.843,1.558-1.669,2.313-2.523c2.741-3.104,2.711-3.175,5.303-6.51
		c3.958-5.182,8.183-10.137,12.388-15.112c0.229-0.224,0.43-0.864,0.684-0.671c0.868,0.66,1.738,1.574,1.92,2.649
		c0.145,0.856-0.688,1.597-1.07,2.377c-1.591,3.253-3.439,6.387-5.217,9.539c-3.247,5.304-6.878,10.707-12.128,14.222l-1.703-2.809
		c0.061-0.186,2.677,0.684,2.615,0.868l-2.809-0.058c4.822-3.466,8.229-8.492,11.3-13.485l3.753-6.569
		c0.517-0.916,1.033-1.831,1.531-2.757c0.368-0.683,0.399-1.671,1.064-2.069c0.838-0.501,1.941-0.421,2.911-0.312
		c0.255,0.029-0.333,0.39-0.5,0.584c-3.969,5.129-8.255,10.021-12.146,15.217c-2.545,3.248-2.771,3.675-5.517,6.652
		c-0.787,0.853-1.609,1.672-2.43,2.491c-1.781,1.781-2.147,3.092-4.991,1.124c-0.335-0.231,0.101-0.809,0.151-1.213
		c3.438-6.347,8.27-11.826,12.348-17.756C431.05,768.533,433.578,769.711,433.495,769.889L433.495,769.889z"/>
	<path d="M441.58,771.062c-3.634,8.872-8.273,17.301-12.957,25.652c-1.362,1.84-1.854,4.211-3.228,6.044
		c-0.056,0.18-2.589-0.61-2.532-0.789c0.423-2.346,2.217-4.305,2.928-6.534c4.55-8.346,9.144-16.684,13.168-25.3
		C439.024,769.95,441.645,770.876,441.58,771.062L441.58,771.062z"/>
	<path d="M441.541,785.234c-2.415,6.807-6.705,13.046-8.294,20.129c-0.029,0.197-2.815-0.229-2.785-0.426
		c1.109-7.416,5.684-13.922,8.527-20.751C439.063,784.005,441.615,785.053,441.541,785.234L441.541,785.234z"/>
	<path d="M442.846,796.955c-1.715,6.03-5.811,11.537-6.277,17.874c1.147-0.125-0.59,0.19-0.059-0.946
		c0.282-0.602,1.012-0.863,1.496-1.319c1.834-1.725,3.519-3.479,5.527-5.003c6.698-2.404,1.144,7.978,0.513,9.521
		c-0.415,1.015-0.795,2.043-1.192,3.064c-1.218,3.652-0.706,1.887-1.57,5.285c-0.04,0.199-2.853-0.373-2.812-0.571
		c0.851-3.645,0.336-1.768,1.58-5.62c1.124-2.864,2.418-5.637,3.586-8.479c0.189-0.462,0.074-1.175,0.517-1.404
		c0.414-0.214,2.854,0.329,1.391,0.143c-1.747,1.378-6.137,6.239-7.622,6.747c-1.008,0.345-2.195,0.444-3.193,0.073
		c-0.592-0.22-0.649-1.082-0.975-1.623c0.034-0.782-0.037-1.577,0.101-2.348c1.041-5.8,4.532-10.933,6.438-16.44
		C440.368,795.727,442.92,796.774,442.846,796.955L442.846,796.955z"/>
	<path d="M225.751,794.608c12.705,5.198,25.271,10.715,37.807,16.312c0.199,0.137-1.73,2.95-1.93,2.813
		c-12.526-5.489-25.063-10.972-37.427-16.817C224.038,796.806,225.588,794.5,225.751,794.608L225.751,794.608z"/>
	<path d="M220.231,782.616c12.946,4.394,25.366,10.101,37.657,16.046c8.96,4.707,4.728,2.388,12.717,6.919
		c0.181,0.145-1.861,2.696-2.042,2.552c-8.028-4.309-3.791-2.084-12.726-6.65c-12.166-5.853-24.428-11.489-36.977-16.481
		C218.692,784.904,220.062,782.519,220.231,782.616L220.231,782.616z"/>
	<path d="M222.836,774.802c13.179,3.387,25.65,8.885,38.168,14.114c7.597,3.313,15.17,6.657,22.934,9.56
		c0.183,0.109-1.354,2.694-1.537,2.586c-7.945-2.645-15.654-5.875-23.327-9.222c-12.419-5.183-24.751-10.611-37.607-14.654
		C221.298,777.089,222.667,774.706,222.836,774.802L222.836,774.802z"/>
	<path d="M228.046,764.383c12.333,4.168,24.55,8.639,36.7,13.31c5.757,2.292,11.389,4.865,16.967,7.557
		c0.179,0.126-1.612,2.658-1.792,2.531c-5.619-2.5-11.268-4.93-16.996-7.172c-12.088-4.603-24.224-9.085-36.251-13.843
		c-0.168-0.097,1.202-2.48,1.37-2.384L228.046,764.383z"/>
	<path d="M225.944,751.579c14.812,5.102,29.204,11.331,43.461,17.804c8.699,4.188,4.64,2.258,12.174,5.809
		c0.185,0.129-1.639,2.752-1.824,2.623c-7.71-3.335-3.582-1.505-12.366-5.525c-14.204-6.343-28.496-12.487-42.915-18.326
		C224.306,753.859,225.775,751.475,225.944,751.579L225.944,751.579z"/>
	<path d="M236.75,745.015c9.859,2.818,19.283,6.845,28.639,10.993c0.188,0.127-1.604,2.78-1.792,2.653
		c-9.318-3.925-18.632-7.859-28.201-11.146C235.219,747.42,236.573,744.919,236.75,745.015L236.75,745.015z"/>
	<path d="M230.792,728.227c11.08,5.363,22.351,10.311,33.575,15.359c6.529,2.99,3.505,1.631,9.062,4.096
		c0.179,0.119-1.499,2.644-1.678,2.525c-5.728-2.296-2.634-1.013-9.264-3.891c-11.272-4.951-22.56-9.915-33.345-15.878
		C228.987,730.322,230.636,728.111,230.792,728.227L230.792,728.227z"/>
	<path d="M222.836,714.894c13.642,3.623,26.913,8.449,40.221,13.108c6.506,2.363,12.897,5.018,19.337,7.549
		c0.189,0.117-1.464,2.797-1.653,2.68c-6.519-2.332-12.971-4.837-19.484-7.185c-13.246-4.641-26.447-9.406-39.789-13.77
		C221.298,717.18,222.668,714.796,222.836,714.894L222.836,714.894z"/>
	<path d="M222.411,703.92c15.969,7.672,31.897,15.427,47.871,23.089c6.44,2.997,12.679,6.38,18.826,9.931
		c0.173,0.138-1.782,2.585-1.955,2.446c-6.264-3.282-12.574-6.475-19.011-9.408c-16.021-7.572-31.971-15.321-47.512-23.845
		C220.475,706.007,222.255,703.794,222.411,703.92L222.411,703.92z"/>
	<path d="M235.435,700.013c14.854,8.032,29.182,16.987,43.932,25.212c7.419,3.926,4.004,2.251,10.193,5.132
		c0.18,0.122-1.556,2.664-1.735,2.541c-6.533-2.71-2.964-1.111-10.641-4.938c-14.828-8.04-29.157-16.912-43.528-25.734
		C233.498,702.1,235.278,699.887,235.435,700.013L235.435,700.013z"/>
	<path d="M225.944,685.159c15.535,5.585,30.411,12.876,45.15,20.272c5.652,2.835,11.271,5.724,16.746,8.888
		c0.168,0.133-1.71,2.513-1.878,2.38c-5.644-2.852-11.35-5.571-17.019-8.372c-14.675-7.23-29.375-14.464-44.47-20.784
		C224.307,687.439,225.776,685.056,225.944,685.159L225.944,685.159z"/>
	<path d="M231.153,674.727c15.192,5.989,29.021,14.806,42.491,23.918c4.963,3.302,9.593,7.044,14.118,10.909
		c0.145,0.154-2.035,2.194-2.179,2.04c-4.72-3.536-9.427-7.094-14.354-10.341c-13.352-8.857-26.927-17.497-41.545-24.143
		C229.516,677.006,230.985,674.624,231.153,674.727L231.153,674.727z"/>
	<path d="M227.724,659.318c16.917,7.612,31.926,18.683,46.874,29.515c5.293,3.686,10.104,7.965,14.962,12.185
		c0.138,0.135-1.774,2.082-1.912,1.947c-5.513-3.364-10.062-8.184-15.602-11.523c-14.842-10.558-29.604-21.4-45.863-29.725
		C226.013,661.608,227.554,659.209,227.724,659.318L227.724,659.318z"/>
	<path d="M230.844,651.027c13.569,5.082,25.819,12.951,37.599,21.261c4.749,3.468,9.308,7.184,13.893,10.864
		c0.148,0.155-2.042,2.267-2.191,2.112c-4.699-3.492-9.35-7.049-14.097-10.477c-11.584-8.031-23.516-15.699-36.495-21.31
		C229.378,653.386,230.671,650.935,230.844,651.027L230.844,651.027z"/>
	<path d="M228.651,639.847c15.608,7.463,30.428,16.487,45.181,25.497c0.193,0.167-2.159,2.911-2.354,2.744
		c-14.724-8.849-29.438-17.736-44.506-25.989C226.813,641.98,228.493,639.729,228.651,639.847L228.651,639.847z"/>
	<path d="M269.734,820.397c16.45,5.69,32.66,12.081,48.94,18.246c0.23,0.144-1.798,3.402-2.028,3.259
		c-16.171-6.183-32.253-12.583-48.282-19.121C268.195,822.684,269.565,820.3,269.734,820.397L269.734,820.397z"/>
	<path d="M354.245,866.172c-5.801-1.714-11.648-3.171-17.529-4.58c-2.925-0.598-5.887-0.85-8.838-1.309
		c-3.158-1.274-6.524-1.517-9.839-2.064c-4.114-0.51-8.189-1.153-12.275-1.855c-4.081-0.808-7.934-2.372-11.812-3.825
		c-3.352-1.477-6.93-2.277-10.389-3.432c-2.542-1.045-5.275-1.104-7.93-1.658c-2.56-0.562-4.9-1.672-7.523-1.992
		c-2.873,0.002-5.609-0.894-8.322-1.722c-4.185-1.126-8.349-2.328-12.512-3.53c-5.69-2.025-11.503-3.617-17.41-4.857
		c-5.713-1.403-11.385-2.981-17.078-4.474c-4.732-1.199-9.495-2.221-14.272-3.216c-3.979-0.844-7.739-2.34-11.516-3.808
		c-3.107-1.454-6.204-2.965-9.454-4.071c-3.396-1.271-6.966-2.133-10.519-2.863c-2.474-0.147-4.901-0.504-7.231-1.376
		c-2.396-1.298-5.054-1.225-7.652-1.625c-2.593-0.711-5.304-0.603-7.919-1.101c-2.94-0.645-5.84-1.445-8.777-2.104
		c-2.454-0.583-4.929-0.426-7.407-0.184c-2.738,0.35-5.497,0.374-8.252,0.317c-2.641-0.214-5.347,0.172-7.931-0.449
		c-0.176-0.079,0.942-2.558,1.117-2.479c2.478,0.398,5.037,0.073,7.535,0.286c2.211,0.035,4.426,0.048,6.623-0.25
		c3.172-0.354,6.368-0.509,9.503,0.243c2.886,0.682,5.736,1.499,8.645,2.091c2.608,0.397,5.274,0.432,7.854,1.068
		c2.766,0.35,5.528,0.552,8.071,1.844c2.258,0.773,4.596,0.953,6.955,1.197c3.66,0.761,7.337,1.614,10.818,2.99
		c3.237,1.207,6.367,2.667,9.511,4.096c3.658,1.412,7.318,2.809,11.173,3.609c4.834,0.964,9.651,1.976,14.43,3.188
		c5.662,1.471,11.286,3.095,16.986,4.405c5.955,1.283,11.807,2.943,17.548,4.984c4.166,1.226,8.327,2.464,12.506,3.646
		c2.596,0.839,5.229,1.516,7.977,1.59c2.63,0.438,5.038,1.5,7.634,2.049c2.746,0.533,5.573,0.644,8.192,1.739
		c3.507,1.119,7.106,1.972,10.49,3.453c3.742,1.397,7.468,2.89,11.414,3.624c4.077,0.688,8.156,1.282,12.251,1.855
		c3.318,0.515,6.631,0.956,9.807,2.117c3.01,0.472,6.046,0.637,9.03,1.265c5.988,1.274,11.893,2.774,17.687,4.782
		c0.168,0.097-1.202,2.48-1.37,2.384H354.245z"/>
	<path d="M87.468,765.08c10.212,8.01,19.066,17.504,27.604,27.227c5.269,6.602,2.889,3.451,7.2,9.405
		c0.114,0.189-2.562,1.797-2.675,1.607c-4.439-5.704-2.013-2.671-7.317-9.07c-8.48-9.544-17.185-18.886-26.82-27.289
		C85.326,766.818,87.334,764.937,87.468,765.08L87.468,765.08z"/>
	<path d="M81.955,758.142c9.392-4.633,18.817-9.183,27.982-14.254c12.413-6.871,23.911-15.214,35.707-23.057
		c11.269-7.289,22.937-13.939,34.988-19.841c5.673-2.593,11.096-5.514,16.192-9.097c3.246-2.351,6.371-4.859,9.674-7.129
		c1.809-1.251,3.655-2.401,5.278-3.889c1.01-1.263,2.013-2.53,3.153-3.679c0.985-1.166,2.226-2.074,3.406-3.026
		c0.134-0.141,2.13,1.745,1.996,1.886c-1.145,0.891-2.39,1.697-3.304,2.839c-1.23,1.081-2.175,2.438-3.198,3.706
		c-1.703,1.54-3.476,2.933-5.423,4.171c-3.277,2.288-6.385,4.802-9.605,7.168c-5.161,3.67-10.555,6.87-16.307,9.556
		c-11.854,6.008-23.367,12.662-34.56,19.83c-11.89,7.847-23.487,16.183-35.951,23.119c-9.234,5.081-18.699,9.736-28.38,13.906
		C83.449,760.469,81.8,758.258,81.955,758.142L81.955,758.142z"/>
	<path d="M96.626,759.044c14.498-10.41,30.056-19.158,45.776-27.552c20.689-10.681,41.67-20.783,62.011-32.128
		c7.749-4.175,15.285-8.676,22.469-13.757c0.138-0.143,2.164,1.812,2.026,1.956c-6.821,5.718-14.508,10.196-22.225,14.59
		c-20.213,11.603-41.148,21.83-61.917,32.391c-15.781,8.255-31.33,16.925-46.282,26.62c-0.149,0.132-2.011-1.987-1.861-2.119H96.626
		z"/>
	<path d="M92.539,770.972c14.113-8.117,27.99-16.63,42.006-24.914c20.644-12.173,41.823-23.398,63.312-33.997
		c9.498-4.653,19.11-9.088,28.905-13.085c0.151-0.115,1.795,2.024,1.644,2.141c-2.216,1.422-4.593,2.467-6.978,3.579
		c-7.172,3.343-14.313,6.746-21.38,10.309c-21.319,10.764-42.403,21.992-63.067,33.975c-14.152,8.171-28.113,16.703-42.672,24.149
		C94.157,773.254,92.388,771.098,92.539,770.972L92.539,770.972z"/>
	<path d="M103.403,777.226c15.206-9.838,30.671-19.254,46.197-28.577c21.359-12.75,43.168-24.689,65.481-35.677
		c5.898-2.983,11.938-5.666,18.003-8.292c0.175-0.124,1.936,2.352,1.761,2.476c-5.849,2.936-11.756,5.749-17.555,8.782
		c-22.118,11.175-43.838,23.092-65.199,35.655c-15.66,9.242-31.197,18.694-46.909,27.847
		C105.026,779.566,103.246,777.353,103.403,777.226L103.403,777.226z"/>
	<path d="M104.17,787.748c13.94-10.745,28.805-20.195,43.656-29.609c19.792-12.396,40.338-23.491,61.402-33.552
		c4.325-2.032,8.612-4.136,13.056-5.896c0.168-0.114,1.786,2.262,1.618,2.376c-4.237,2.043-8.382,4.266-12.603,6.341
		c-20.749,10.393-41.158,21.44-60.909,33.644c-14.934,9.292-29.82,18.658-44.267,28.704
		C105.982,789.893,104.027,787.886,104.17,787.748L104.17,787.748z"/>
	<path d="M104.705,798.077c15.896-10.338,31.307-21.398,47.053-31.965c13.966-9.153,27.766-18.634,42.226-27.01
		c5.458-3.161,9.869-5.378,15.389-8.241c3.932-2.019,7.912-3.729,12.218-4.682c0.184-0.087,1.407,2.507,1.224,2.594
		c-4.038,0.965-7.67,2.863-11.351,4.773c-5.058,2.752-10.084,5.432-15.036,8.382c-14.312,8.525-28.025,18.025-41.996,27.082
		c-15.92,10.512-31.486,21.622-47.945,31.278C106.329,800.415,104.549,798.202,104.705,798.077L104.705,798.077z"/>
	<path d="M112.729,806.149c0.861-0.837,1.679-1.721,2.583-2.51c2.892-2.52,8.033-6.412,10.886-8.551
		c9.242-6.926,18.668-13.579,28.137-20.189c19.084-13.081,38.377-25.948,58.598-37.22c6.123-3.035,3.31-1.797,8.38-3.854
		c0.173-0.117,1.831,2.334,1.658,2.451c-4.718,2.186-2.072,0.882-7.876,4.031c-19.848,11.685-38.961,24.581-58.057,37.44
		c-9.53,6.503-19.023,13.053-28.423,19.747c-1.608,1.146-8.924,6.396-11.027,8.049c-0.924,0.727-1.781,1.533-2.673,2.3
		C114.795,807.999,112.609,806.303,112.729,806.149L112.729,806.149z"/>
	<path d="M122.323,811.048c13.777-12.604,28.979-23.483,44.192-34.257c16.987-11.59,34.325-22.763,52.765-31.918
		c4.54-2,2.562-1.2,5.898-2.488c0.164-0.112,1.753,2.218,1.588,2.33c-3.069,1.521-1.231,0.605-5.511,2.756
		c-18.006,9.595-35.18,20.666-52.064,32.099c-15.242,10.678-30.368,21.528-44.76,33.344
		C124.3,813.063,122.191,811.197,122.323,811.048L122.323,811.048z"/>
	<path d="M152.703,800.178c14.328-13.354,30.3-24.752,46.447-35.772c7.147-4.872,14.306-9.748,21.886-13.929
		c0.157-0.133,2.043,2.082,1.887,2.216c-7.163,4.673-14.197,9.534-21.203,14.439c-16.053,11.036-31.881,22.412-46.83,34.921
		C154.757,802.208,152.571,800.333,152.703,800.178L152.703,800.178z"/>
	<path d="M153.593,812.854c9.57-5.521,17.93-12.883,26.7-19.547c2.9-2.203,5.845-4.348,8.767-6.521
		c8.339-6.169,17.11-11.698,25.916-17.162c0.188-0.166,2.537,2.494,2.35,2.66c-8.662,5.537-17.319,11.09-25.641,17.134
		c-13.767,10.017-3.814,2.692-16.676,12.361c-5.494,4.13-10.978,8.384-16.937,11.842c-0.917,0.531-1.888,0.963-2.832,1.444
		C155.084,815.181,153.436,812.97,153.593,812.854L153.593,812.854z"/>
	<path d="M172.729,812.79c9.115-7.378,18.646-14.225,28.229-20.978l5.175-3.457c0.167-0.156,2.376,2.209,2.209,2.365l-5.073,3.483
		c-9.55,6.768-19.043,13.616-28.531,20.467C174.604,814.812,172.596,812.931,172.729,812.79L172.729,812.79z"/>
	<path d="M176.635,820.603c9.994-7.923,19.854-16.015,29.748-24.063l5.653-4.53c0.16-0.174,2.611,2.098,2.451,2.271l-5.585,4.578
		c-9.89,8.117-19.821,16.216-30.26,23.625C178.51,822.626,176.502,820.746,176.635,820.603L176.635,820.603z"/>
	<path d="M194.313,817.65c7.822-5.215,15.617-10.465,23.521-15.555c0.167-0.151,2.312,2.213,2.146,2.364
		c-7.868,5.205-15.687,10.501-23.806,15.31C196.024,819.901,194.164,817.782,194.313,817.65L194.313,817.65z"/>
	<path d="M207.272,821.918c4.933-2.28,9.858-4.568,14.73-6.976c0.174-0.129,2.002,2.329,1.828,2.459
		c-4.915,2.464-9.896,4.791-15.01,6.823C208.658,824.335,207.109,822.028,207.272,821.918L207.272,821.918z"/>
	<path d="M218.723,827.179c6.218-3.959,12.419-7.934,18.756-11.701c0.167-0.142,2.174,2.224,2.007,2.366
		c-6.383,3.83-12.642,7.868-19.113,11.546C220.216,829.507,218.566,827.296,218.723,827.179L218.723,827.179z"/>
	<path d="M229.413,825.826c4.661-2.197,9.498-3.983,14.221-6.044c0.176-0.121,1.882,2.365,1.706,2.486
		c-4.729,2.123-9.566,3.94-14.377,5.864C230.8,828.242,229.25,825.935,229.413,825.826L229.413,825.826z"/>
	<path d="M238.258,825.877l2.311-1.109c0.166-0.115,1.8,2.235,1.634,2.351l-2.295,0.97
		C239.751,828.205,238.102,825.994,238.258,825.877z"/>
	<path d="M240.747,832.248c4.705-3.345,9.561-6.473,14.411-9.602c0.162-0.146,2.229,2.15,2.066,2.297
		c-4.853,3.135-9.684,6.304-14.6,9.34C242.481,834.416,240.604,832.379,240.747,832.248L240.747,832.248z"/>
	<path d="M250.121,832.518c2.844-1.188,5.652-2.454,8.487-3.664c0.175-0.116,1.817,2.354,1.643,2.472
		c-2.91,1.214-5.796,2.495-8.76,3.576C251.322,834.999,249.952,832.615,250.121,832.518L250.121,832.518z"/>
	<path d="M257.148,836.374c5.34-1.71,10.671-3.417,16.076-4.913c0.191-0.1,1.603,2.611,1.411,2.711
		c-5.432,1.527-10.803,3.257-16.254,4.709C258.205,838.967,256.972,836.46,257.148,836.374L257.148,836.374z"/>
	<path d="M272.262,839.042c4.263-1.647,8.61-3.078,12.943-4.53c0.182-0.105,1.674,2.468,1.491,2.573
		c-4.345,1.483-8.695,2.938-13.065,4.341C273.462,841.523,272.092,839.139,272.262,839.042L272.262,839.042z"/>
	<path d="M281.648,840.306c5.24-1.982,10.407-4.119,15.785-5.708c0.181-0.099,1.566,2.454,1.387,2.552
		c-5.372,1.656-10.539,3.861-15.879,5.607C282.769,842.849,281.476,840.398,281.648,840.306L281.648,840.306z"/>
	<path d="M291.81,846.857c3.148-1.318,1.473-0.631,5.03-2.054c0.174-0.109,1.729,2.354,1.555,2.464l-5.215,1.974
		C293.011,849.337,291.641,846.954,291.81,846.857z"/>
	<path d="M301.441,850.699c4.172-1.059,1.984-0.537,6.567-1.545c0.192-0.087,1.42,2.625,1.229,2.712
		c-4.562,0.913-2.375,0.466-6.562,1.34C302.497,853.293,301.265,850.787,301.441,850.699L301.441,850.699z"/>
	<path d="M313.055,852.188c5.799-1.155,11.68-1.215,17.494-0.206c1.308,0.368,2.633,0.548,3.979,0.664
		c0.183,0.064-0.735,2.652-0.918,2.588c-1.374-0.173-2.736-0.388-4.097-0.647c-5.157-0.673-10.311-0.659-15.458,0.181
		C313.874,854.837,312.872,852.259,313.055,852.188L313.055,852.188z"/>
	<path d="M294.62,823.311c8.867,3.514,17.623,7.306,26.402,11.033c0.212,0.144-1.822,3.151-2.035,3.007
		c-8.713-3.852-17.426-7.71-26.016-11.829C292.815,825.406,294.464,823.195,294.62,823.311L294.62,823.311z"/>
	<path d="M268.432,811.281c6.265,2.065,12.065,5.354,17.723,8.701c0.164,0.137-1.779,2.467-1.944,2.329
		c-5.541-3.194-11.158-6.366-17.147-8.646C266.895,813.568,268.264,811.184,268.432,811.281L268.432,811.281z"/>
	<path d="M321.028,840.641c1.297,0.058,2.6,0.032,3.89,0.173c10.547,1.151,22.18,5.217,32.21,8.567
		c8.882,3.253,4.639,1.691,12.729,4.683c0.196,0.118-1.469,2.891-1.665,2.772c-8.156-2.838-3.9-1.341-12.764-4.501
		c-11.014-3.683-22.151-7.515-33.712-9.016C321.526,843.368,320.839,840.69,321.028,840.641L321.028,840.641z"/>
	<path d="M401.349,872.723c5.491-2.616,11.142-4.874,16.722-7.29c0.187-0.126,1.961,2.515,1.774,2.641
		c-5.622,2.387-11.304,4.62-16.946,6.956C402.735,875.14,401.186,872.833,401.349,872.723L401.349,872.723z"/>
	<path d="M393.405,862.485c9.341-3.279,18.728-6.422,28.051-9.749c0.209-0.124,1.962,2.822,1.754,2.946
		c-9.4,3.294-18.868,6.412-28.436,9.187C394.606,864.965,393.236,862.582,393.405,862.485L393.405,862.485z"/>
</g>
<g>
	<path d="M355.679,368.918c-0.905-0.875-1.859-1.608-2.863-2.194c-1.004-0.585-2.07-0.972-3.199-1.159
		c-1.129-0.186-2.298-0.153-3.503,0.099c-1.207,0.253-2.465,0.78-3.774,1.58c-1.915,1.17-3.334,2.568-4.256,4.193
		c-0.921,1.625-1.423,3.35-1.507,5.177c-0.083,1.828,0.169,3.692,0.755,5.594c0.586,1.903,1.402,3.711,2.45,5.424
		c1.047,1.713,2.283,3.265,3.709,4.653c1.426,1.39,2.97,2.464,4.634,3.223c1.664,0.759,3.429,1.1,5.295,1.02
		c1.865-0.08,3.756-0.705,5.671-1.875c1.411-0.862,2.504-1.864,3.282-3.008c0.777-1.143,1.289-2.38,1.539-3.709
		c0.249-1.329,0.242-2.697-0.019-4.106c-0.261-1.408-0.726-2.81-1.392-4.201l6.146-3.757c1.18,2.231,1.919,4.48,2.218,6.742
		c0.3,2.263,0.171,4.451-0.382,6.565c-0.553,2.115-1.521,4.079-2.904,5.893c-1.382,1.813-3.165,3.388-5.348,4.722
		c-2.688,1.643-5.401,2.621-8.139,2.933c-2.739,0.314-5.371,0.065-7.896-0.745c-2.525-0.81-4.88-2.114-7.065-3.917
		c-2.186-1.801-4.068-3.995-5.648-6.581c-1.561-2.553-2.645-5.213-3.251-7.979c-0.606-2.766-0.695-5.458-0.264-8.075
		c0.431-2.617,1.404-5.08,2.922-7.393c1.517-2.31,3.619-4.287,6.307-5.93c2.016-1.231,4.082-2.114,6.201-2.648
		c2.119-0.534,4.183-0.688,6.189-0.46c2.007,0.226,3.892,0.839,5.655,1.836c1.764,0.999,3.342,2.411,4.734,4.235L355.679,368.918z"
		/>
	<path d="M394.333,379.965c-2.083,1.273-4.149,2.062-6.199,2.37s-4.007,0.2-5.871-0.322c-1.864-0.522-3.604-1.442-5.218-2.763
		c-1.614-1.32-3.037-2.988-4.27-5.004c-1.211-1.981-2.035-3.99-2.474-6.03c-0.439-2.039-0.466-4.005-0.078-5.902
		c0.385-1.897,1.182-3.688,2.391-5.373c1.208-1.684,2.854-3.162,4.936-4.435c2.083-1.273,4.148-2.063,6.199-2.371
		c2.05-0.306,4.006-0.199,5.872,0.322c1.863,0.521,3.603,1.441,5.217,2.762c1.614,1.322,3.027,2.971,4.238,4.952
		c1.231,2.016,2.066,4.043,2.506,6.082c0.438,2.039,0.464,4.006,0.079,5.903c-0.387,1.897-1.184,3.688-2.393,5.372
		C398.06,377.214,396.415,378.692,394.333,379.965z M391.562,375.43c1.276-0.78,2.22-1.726,2.832-2.838
		c0.612-1.111,0.954-2.29,1.025-3.532c0.07-1.243-0.085-2.497-0.467-3.765c-0.382-1.265-0.922-2.47-1.62-3.612
		c-0.677-1.107-1.497-2.128-2.46-3.062s-2.009-1.645-3.137-2.132c-1.128-0.487-2.327-0.711-3.596-0.675
		c-1.269,0.039-2.542,0.447-3.818,1.227c-1.276,0.78-2.221,1.727-2.832,2.838c-0.612,1.113-0.959,2.281-1.04,3.507
		s0.074,2.48,0.467,3.764c0.392,1.283,0.926,2.479,1.604,3.586c0.698,1.143,1.523,2.172,2.476,3.088
		c0.953,0.918,1.999,1.629,3.138,2.132c1.138,0.503,2.342,0.738,3.61,0.7C389.012,376.619,390.284,376.211,391.562,375.43z"/>
	<path d="M395.917,342.249l5.441-3.325l2.341,3.829l0.163,0.039c-0.01-1.977,0.439-3.81,1.347-5.495
		c0.908-1.685,2.218-3.05,3.931-4.097c2.855-1.745,5.558-2.381,8.106-1.911c2.549,0.473,4.728,2.188,6.534,5.143l10.932,17.886
		l-5.744,3.51l-10.008-16.374c-1.32-2.007-2.664-3.227-4.035-3.659c-1.371-0.43-2.912-0.122-4.626,0.925
		c-0.974,0.596-1.739,1.305-2.296,2.129c-0.558,0.826-0.915,1.714-1.072,2.663c-0.158,0.95-0.131,1.938,0.08,2.961
		c0.211,1.024,0.604,2.007,1.179,2.947l9.392,15.367l-5.743,3.51L395.917,342.249z"/>
	<path d="M422.217,326.175l4.333-2.648l-4.773-7.81l5.744-3.511l4.773,7.81l5.189-3.172l2.617,4.282l-5.189,3.172l8.499,13.905
		c0.369,0.605,0.713,1.11,1.03,1.517c0.316,0.405,0.66,0.703,1.029,0.893c0.37,0.19,0.785,0.247,1.248,0.171
		c0.461-0.073,1.012-0.307,1.649-0.697c0.403-0.246,0.802-0.5,1.194-0.763c0.393-0.263,0.76-0.569,1.102-0.915l2.709,4.434
		c-0.597,0.457-1.178,0.904-1.74,1.341c-0.564,0.437-1.165,0.85-1.803,1.24c-1.512,0.924-2.817,1.525-3.915,1.804
		c-1.099,0.28-2.077,0.301-2.936,0.065c-0.86-0.235-1.639-0.718-2.337-1.445c-0.697-0.726-1.393-1.616-2.082-2.671l-9.393-15.367
		l-4.332,2.648L422.217,326.175z"/>
	<path d="M475.81,321.24c0.431,0.705,0.831,1.153,1.201,1.341c0.368,0.19,0.822,0.121,1.359-0.208
		c0.168-0.103,0.369-0.226,0.605-0.37c0.234-0.143,0.483-0.341,0.744-0.593l2.433,3.979c-0.16,0.192-0.375,0.425-0.642,0.705
		c-0.27,0.279-0.551,0.554-0.844,0.827c-0.296,0.273-0.602,0.528-0.916,0.768c-0.316,0.239-0.591,0.431-0.826,0.574
		c-1.176,0.719-2.293,1.078-3.353,1.08c-1.062,0.003-2.067-0.512-3.021-1.545c-0.464,1.807-1.374,3.47-2.729,4.99
		c-1.354,1.519-2.805,2.752-4.35,3.696c-1.176,0.719-2.398,1.247-3.668,1.584c-1.271,0.338-2.507,0.448-3.709,0.33
		c-1.203-0.118-2.341-0.507-3.413-1.167c-1.072-0.66-1.997-1.626-2.777-2.904c-0.986-1.612-1.492-3.102-1.521-4.468
		c-0.028-1.367,0.263-2.629,0.87-3.785c0.608-1.156,1.432-2.224,2.471-3.205c1.037-0.98,2.121-1.907,3.248-2.782
		c0.918-0.837,1.821-1.585,2.711-2.245c0.889-0.657,1.633-1.309,2.232-1.953c0.598-0.642,0.979-1.302,1.144-1.979
		c0.163-0.676-0.013-1.435-0.526-2.274c-0.451-0.738-0.996-1.235-1.637-1.49s-1.298-0.349-1.973-0.283
		c-0.675,0.067-1.356,0.253-2.045,0.56c-0.689,0.307-1.32,0.634-1.892,0.982c-1.612,0.985-2.733,2.132-3.364,3.44
		c-0.631,1.309-0.582,2.709,0.146,4.202l-5.744,3.51c-0.926-1.742-1.375-3.382-1.347-4.922s0.382-2.978,1.063-4.318
		c0.681-1.336,1.628-2.562,2.84-3.673c1.213-1.11,2.542-2.106,3.986-2.989c1.276-0.78,2.618-1.416,4.025-1.907
		c1.407-0.489,2.791-0.736,4.151-0.738c1.36,0,2.635,0.293,3.825,0.881c1.189,0.587,2.205,1.57,3.047,2.948L475.81,321.24z
		 M465.631,317.495c-0.524,1.106-1.389,2.106-2.593,3.004c-1.205,0.899-2.373,1.855-3.506,2.869
		c-0.543,0.47-1.043,0.973-1.502,1.507c-0.458,0.534-0.808,1.094-1.049,1.68c-0.242,0.586-0.33,1.216-0.264,1.89
		c0.066,0.676,0.326,1.383,0.777,2.121c0.391,0.639,0.902,1.063,1.539,1.273c0.637,0.211,1.291,0.284,1.967,0.216
		c0.674-0.065,1.353-0.238,2.036-0.518c0.683-0.279,1.276-0.572,1.78-0.88c0.638-0.39,1.275-0.895,1.912-1.515
		c0.636-0.619,1.158-1.331,1.566-2.134c0.409-0.803,0.643-1.648,0.699-2.538c0.057-0.887-0.192-1.786-0.746-2.692L465.631,317.495z"
		/>
	<path d="M497.92,316.654c-2.083,1.273-4.149,2.062-6.199,2.37c-2.05,0.308-4.007,0.2-5.87-0.322
		c-1.865-0.521-3.604-1.441-5.219-2.762c-1.614-1.32-3.037-2.989-4.27-5.004c-1.211-1.981-2.035-3.99-2.474-6.03
		c-0.44-2.039-0.466-4.005-0.079-5.903c0.386-1.897,1.183-3.687,2.392-5.373c1.208-1.684,2.853-3.162,4.936-4.435
		c2.083-1.272,4.148-2.062,6.199-2.37c2.05-0.306,4.006-0.2,5.872,0.322c1.863,0.521,3.602,1.441,5.217,2.762
		c1.614,1.322,3.027,2.971,4.238,4.952c1.231,2.016,2.066,4.043,2.506,6.082c0.438,2.039,0.465,4.006,0.078,5.903
		c-0.387,1.897-1.184,3.688-2.391,5.372C501.647,313.903,500.002,315.382,497.92,316.654z M495.149,312.119
		c1.276-0.78,2.22-1.726,2.833-2.838c0.611-1.111,0.953-2.29,1.023-3.533c0.071-1.243-0.084-2.497-0.467-3.764
		c-0.381-1.265-0.921-2.47-1.619-3.612c-0.678-1.107-1.498-2.128-2.46-3.062c-0.964-0.935-2.009-1.646-3.137-2.132
		s-2.327-0.71-3.596-0.674c-1.269,0.039-2.542,0.447-3.818,1.227c-1.276,0.78-2.22,1.728-2.832,2.838
		c-0.612,1.113-0.959,2.281-1.04,3.507c-0.081,1.226,0.074,2.48,0.467,3.764c0.392,1.283,0.926,2.479,1.604,3.586
		c0.698,1.143,1.523,2.173,2.476,3.089c0.953,0.918,1.999,1.628,3.138,2.132c1.138,0.503,2.342,0.737,3.61,0.7
		S493.872,312.899,495.149,312.119z"/>
</g>
<g>
	<path d="M53.828,101.207c-0.307-2.099-1.148-3.684-2.525-4.756c-1.378-1.071-3.116-1.607-5.215-1.607
		c-0.962,0-1.99,0.164-3.083,0.492c-1.094,0.328-2.099,0.941-3.018,1.836c-0.918,0.897-1.684,2.144-2.296,3.739
		c-0.613,1.597-0.918,3.685-0.918,6.265c0,1.4,0.164,2.799,0.492,4.198c0.328,1.4,0.853,2.646,1.574,3.739
		c0.722,1.093,1.65,1.979,2.788,2.656c1.137,0.679,2.514,1.017,4.132,1.017c2.187,0,3.99-0.678,5.412-2.034
		c1.42-1.355,2.306-3.257,2.657-5.707h7.478c-0.7,4.417-2.373,7.796-5.018,10.135c-2.646,2.34-6.156,3.51-10.529,3.51
		c-2.668,0-5.018-0.449-7.052-1.345c-2.033-0.896-3.75-2.121-5.149-3.674c-1.4-1.552-2.459-3.399-3.181-5.543
		c-0.722-2.142-1.083-4.46-1.083-6.953c0-2.536,0.35-4.92,1.05-7.15c0.699-2.23,1.749-4.166,3.148-5.805
		c1.399-1.64,3.138-2.929,5.215-3.87c2.077-0.94,4.515-1.411,7.314-1.411c1.968,0,3.837,0.252,5.608,0.754
		c1.771,0.503,3.346,1.258,4.723,2.263c1.377,1.006,2.503,2.274,3.378,3.805c0.874,1.531,1.399,3.346,1.574,5.445H53.828z"/>
	<path d="M82.953,124.691c-2.712,0-5.128-0.449-7.249-1.345c-2.122-0.896-3.914-2.132-5.379-3.707
		c-1.466-1.574-2.581-3.454-3.346-5.641c-0.766-2.187-1.148-4.592-1.148-7.216c0-2.58,0.382-4.963,1.148-7.15
		c0.765-2.186,1.88-4.067,3.346-5.641c1.465-1.575,3.257-2.81,5.379-3.707c2.121-0.896,4.537-1.345,7.249-1.345
		c2.711,0,5.127,0.449,7.249,1.345c2.121,0.897,3.914,2.132,5.379,3.707c1.464,1.574,2.58,3.455,3.345,5.641
		c0.765,2.188,1.148,4.57,1.148,7.15c0,2.624-0.383,5.029-1.148,7.216c-0.766,2.187-1.881,4.067-3.345,5.641
		c-1.466,1.575-3.259,2.811-5.379,3.707C88.08,124.242,85.664,124.691,82.953,124.691z M82.953,118.787
		c1.662,0,3.105-0.35,4.33-1.05c1.224-0.699,2.23-1.617,3.018-2.755c0.787-1.137,1.366-2.416,1.738-3.837
		c0.371-1.421,0.558-2.875,0.558-4.362c0-1.443-0.187-2.886-0.558-4.33c-0.372-1.443-0.951-2.722-1.738-3.837
		s-1.794-2.022-3.018-2.722c-1.225-0.699-2.668-1.05-4.33-1.05c-1.663,0-3.105,0.351-4.329,1.05c-1.225,0.7-2.23,1.607-3.018,2.722
		s-1.368,2.394-1.738,3.837c-0.372,1.443-0.558,2.886-0.558,4.33c0,1.487,0.186,2.941,0.558,4.362
		c0.371,1.421,0.951,2.701,1.738,3.837c0.787,1.138,1.792,2.056,3.018,2.755C79.848,118.438,81.291,118.787,82.953,118.787z"/>
	<path d="M106.306,89.858h7.084v4.985l0.131,0.131c1.136-1.88,2.624-3.356,4.46-4.428c1.837-1.071,3.87-1.607,6.101-1.607
		c3.716,0,6.647,0.962,8.79,2.886c2.142,1.925,3.214,4.812,3.214,8.659v23.287h-7.478v-21.319c-0.088-2.667-0.656-4.602-1.706-5.805
		c-1.05-1.203-2.689-1.804-4.92-1.804c-1.269,0-2.406,0.229-3.411,0.689c-1.006,0.459-1.859,1.094-2.558,1.902
		c-0.7,0.81-1.247,1.761-1.64,2.854c-0.394,1.093-0.59,2.253-0.59,3.477v20.007h-7.478V89.858z"/>
	<path d="M140.547,89.858h5.641V79.691h7.479v10.167h6.756v5.576h-6.756v18.105c0,0.787,0.033,1.466,0.098,2.034
		c0.065,0.569,0.218,1.049,0.459,1.443c0.24,0.394,0.601,0.688,1.082,0.885c0.481,0.197,1.137,0.295,1.968,0.295
		c0.524,0,1.049-0.01,1.574-0.033c0.525-0.022,1.049-0.099,1.574-0.23v5.773c-0.831,0.087-1.64,0.174-2.427,0.262
		c-0.787,0.087-1.597,0.131-2.427,0.131c-1.968,0-3.554-0.187-4.756-0.558c-1.204-0.371-2.144-0.918-2.821-1.64
		c-0.679-0.722-1.138-1.628-1.377-2.722c-0.241-1.093-0.383-2.339-0.427-3.739V95.434h-5.641V89.858z"/>
	<path d="M194.206,116.229c0,0.918,0.12,1.575,0.361,1.968c0.24,0.394,0.71,0.59,1.41,0.59c0.218,0,0.481,0,0.787,0
		c0.306,0,0.656-0.043,1.05-0.131v5.182c-0.263,0.087-0.602,0.186-1.017,0.295c-0.416,0.108-0.842,0.207-1.279,0.295
		c-0.438,0.087-0.875,0.153-1.312,0.197c-0.438,0.043-0.81,0.066-1.115,0.066c-1.531,0-2.799-0.307-3.805-0.918
		c-1.006-0.612-1.663-1.683-1.968-3.214c-1.487,1.443-3.313,2.493-5.478,3.149c-2.165,0.656-4.254,0.984-6.265,0.984
		c-1.531,0-2.996-0.208-4.395-0.623c-1.4-0.416-2.635-1.027-3.707-1.837c-1.072-0.809-1.925-1.837-2.558-3.083
		c-0.634-1.247-0.951-2.7-0.951-4.362c0-2.099,0.382-3.805,1.148-5.117c0.765-1.312,1.771-2.339,3.018-3.083
		c1.246-0.743,2.646-1.279,4.198-1.607c1.552-0.328,3.116-0.579,4.69-0.754c1.355-0.262,2.645-0.448,3.87-0.558
		c1.224-0.108,2.306-0.295,3.247-0.557c0.94-0.263,1.683-0.667,2.23-1.214c0.546-0.546,0.82-1.366,0.82-2.46
		c0-0.961-0.229-1.749-0.689-2.361c-0.459-0.612-1.028-1.083-1.706-1.411c-0.678-0.328-1.433-0.546-2.263-0.656
		c-0.831-0.109-1.618-0.164-2.361-0.164c-2.099,0-3.827,0.438-5.182,1.312c-1.356,0.875-2.122,2.23-2.296,4.067h-7.478
		c0.131-2.186,0.656-4.001,1.574-5.444c0.918-1.443,2.088-2.602,3.509-3.477c1.421-0.875,3.028-1.486,4.822-1.837
		c1.792-0.35,3.629-0.525,5.51-0.525c1.662,0,3.302,0.175,4.92,0.525c1.618,0.351,3.072,0.918,4.362,1.706
		c1.29,0.787,2.329,1.804,3.116,3.05c0.787,1.246,1.181,2.766,1.181,4.559V116.229z M186.728,106.783
		c-1.138,0.744-2.537,1.192-4.199,1.345c-1.662,0.154-3.324,0.383-4.985,0.688c-0.787,0.131-1.553,0.318-2.296,0.558
		c-0.744,0.241-1.4,0.569-1.968,0.984c-0.569,0.416-1.017,0.962-1.345,1.64c-0.328,0.679-0.492,1.499-0.492,2.46
		c0,0.831,0.24,1.531,0.722,2.099c0.481,0.569,1.06,1.017,1.738,1.345c0.678,0.328,1.421,0.558,2.23,0.689
		c0.809,0.131,1.542,0.197,2.197,0.197c0.831,0,1.727-0.109,2.69-0.328c0.961-0.218,1.869-0.59,2.722-1.115
		c0.853-0.525,1.563-1.191,2.132-2c0.568-0.809,0.853-1.804,0.853-2.985V106.783z"/>
	<path d="M217.821,124.691c-2.712,0-5.128-0.449-7.249-1.345c-2.122-0.896-3.914-2.132-5.379-3.707
		c-1.466-1.574-2.581-3.454-3.346-5.641c-0.766-2.187-1.148-4.592-1.148-7.216c0-2.58,0.382-4.963,1.148-7.15
		c0.765-2.186,1.88-4.067,3.346-5.641c1.465-1.575,3.257-2.81,5.379-3.707c2.121-0.896,4.537-1.345,7.249-1.345
		c2.711,0,5.127,0.449,7.249,1.345c2.121,0.897,3.914,2.132,5.379,3.707c1.464,1.574,2.58,3.455,3.345,5.641
		c0.765,2.188,1.148,4.57,1.148,7.15c0,2.624-0.383,5.029-1.148,7.216c-0.766,2.187-1.881,4.067-3.345,5.641
		c-1.466,1.575-3.259,2.811-5.379,3.707C222.948,124.242,220.531,124.691,217.821,124.691z M217.821,118.787
		c1.662,0,3.105-0.35,4.33-1.05c1.224-0.699,2.23-1.617,3.018-2.755c0.787-1.137,1.366-2.416,1.738-3.837
		c0.371-1.421,0.558-2.875,0.558-4.362c0-1.443-0.187-2.886-0.558-4.33c-0.372-1.443-0.951-2.722-1.738-3.837
		s-1.794-2.022-3.018-2.722c-1.225-0.699-2.668-1.05-4.33-1.05c-1.663,0-3.105,0.351-4.329,1.05c-1.225,0.7-2.23,1.607-3.018,2.722
		s-1.368,2.394-1.738,3.837c-0.372,1.443-0.558,2.886-0.558,4.33c0,1.487,0.186,2.941,0.558,4.362
		c0.371,1.421,0.951,2.701,1.738,3.837c0.787,1.138,1.792,2.056,3.018,2.755C214.715,118.438,216.158,118.787,217.821,118.787z"/>
	<path d="M240.451,102.388h19.089v7.084h-19.089V102.388z"/>
	<path d="M275.808,105.93l-11.742-16.071h9.052l7.085,10.43l7.413-10.43h8.659l-11.545,15.678l12.989,18.236h-8.987l-8.593-12.529
		l-8.331,12.529h-8.791L275.808,105.93z"/>
	<path d="M302.113,76.936h7.477v46.837h-7.477V76.936z"/>
	<path d="M323.365,112.883c0.219,2.187,1.05,3.717,2.493,4.592c1.442,0.875,3.17,1.312,5.182,1.312c0.699,0,1.498-0.054,2.395-0.164
		c0.896-0.109,1.738-0.317,2.525-0.623c0.787-0.306,1.432-0.754,1.936-1.345c0.502-0.59,0.731-1.367,0.688-2.329
		c-0.044-0.961-0.394-1.749-1.05-2.361c-0.655-0.612-1.498-1.104-2.525-1.476c-1.028-0.371-2.197-0.688-3.51-0.951
		c-1.312-0.262-2.646-0.546-4.001-0.853c-1.4-0.306-2.745-0.678-4.034-1.115c-1.291-0.437-2.45-1.027-3.477-1.771
		c-1.028-0.743-1.849-1.694-2.46-2.854c-0.613-1.158-0.919-2.591-0.919-4.297c0-1.837,0.448-3.378,1.345-4.625
		c0.896-1.247,2.034-2.252,3.411-3.018c1.378-0.765,2.908-1.301,4.592-1.607c1.684-0.306,3.291-0.459,4.822-0.459
		c1.748,0,3.421,0.187,5.018,0.558c1.596,0.372,3.039,0.974,4.33,1.804c1.289,0.831,2.361,1.914,3.214,3.247
		c0.853,1.334,1.388,2.941,1.607,4.821h-7.807c-0.351-1.792-1.17-2.995-2.46-3.608c-1.29-0.612-2.766-0.918-4.428-0.918
		c-0.524,0-1.147,0.044-1.869,0.131c-0.722,0.088-1.4,0.252-2.034,0.492c-0.634,0.241-1.17,0.591-1.606,1.05
		c-0.438,0.459-0.656,1.061-0.656,1.804c0,0.918,0.316,1.663,0.951,2.23c0.634,0.569,1.465,1.04,2.493,1.41
		c1.026,0.372,2.197,0.689,3.509,0.951c1.312,0.263,2.667,0.547,4.067,0.853c1.354,0.307,2.689,0.679,4.001,1.115
		c1.312,0.438,2.481,1.028,3.51,1.771c1.027,0.744,1.858,1.684,2.493,2.821c0.633,1.138,0.951,2.537,0.951,4.198
		c0,2.012-0.459,3.718-1.378,5.117c-0.918,1.4-2.11,2.537-3.575,3.411c-1.466,0.875-3.094,1.509-4.887,1.902
		c-1.794,0.394-3.565,0.59-5.313,0.59c-2.144,0-4.122-0.241-5.937-0.722c-1.815-0.48-3.39-1.213-4.724-2.198
		c-1.334-0.984-2.384-2.208-3.148-3.673c-0.766-1.464-1.17-3.203-1.213-5.215H323.365z"/>
	<path d="M351.047,102.388h19.09v7.084h-19.09V102.388z"/>
	<path d="M383.124,108.751c0,1.312,0.186,2.581,0.558,3.805c0.371,1.225,0.929,2.296,1.673,3.214
		c0.742,0.918,1.683,1.651,2.82,2.198c1.137,0.547,2.492,0.82,4.067,0.82c2.186,0,3.945-0.47,5.28-1.411
		c1.333-0.939,2.329-2.35,2.984-4.231h7.085c-0.394,1.837-1.072,3.477-2.033,4.92c-0.963,1.443-2.122,2.657-3.478,3.641
		s-2.876,1.728-4.559,2.23c-1.684,0.502-3.444,0.754-5.28,0.754c-2.668,0-5.03-0.438-7.085-1.312
		c-2.056-0.875-3.794-2.099-5.215-3.673c-1.422-1.575-2.493-3.454-3.215-5.642c-0.722-2.186-1.082-4.592-1.082-7.216
		c0-2.404,0.383-4.69,1.148-6.855c0.765-2.165,1.857-4.067,3.279-5.707c1.421-1.64,3.138-2.94,5.149-3.903
		c2.011-0.961,4.285-1.443,6.822-1.443c2.667,0,5.062,0.558,7.183,1.673s3.881,2.591,5.281,4.428c1.398,1.837,2.416,3.947,3.05,6.33
		c0.634,2.384,0.798,4.844,0.492,7.38H383.124z M400.573,103.831c-0.088-1.181-0.339-2.317-0.754-3.411
		c-0.416-1.092-0.984-2.043-1.705-2.854c-0.722-0.809-1.598-1.464-2.624-1.968c-1.028-0.502-2.177-0.754-3.444-0.754
		c-1.312,0-2.504,0.229-3.575,0.689c-1.072,0.459-1.99,1.094-2.755,1.902c-0.766,0.81-1.378,1.761-1.837,2.854
		c-0.459,1.093-0.711,2.274-0.754,3.542H400.573z"/>
	<path d="M422.876,105.93l-11.742-16.071h9.053l7.085,10.43l7.412-10.43h8.659l-11.545,15.678l12.988,18.236h-8.987l-8.593-12.529
		l-8.331,12.529h-8.79L422.876,105.93z"/>
	<path d="M449.181,89.858h7.084v4.592h0.132c1.05-1.968,2.514-3.378,4.395-4.231c1.88-0.853,3.914-1.279,6.101-1.279
		c2.667,0,4.996,0.471,6.986,1.411c1.989,0.941,3.641,2.23,4.953,3.87c1.312,1.64,2.296,3.554,2.951,5.74
		c0.656,2.188,0.984,4.526,0.984,7.019c0,2.274-0.295,4.483-0.886,6.625c-0.59,2.143-1.487,4.034-2.689,5.674
		c-1.203,1.64-2.723,2.952-4.559,3.936c-1.837,0.984-4.002,1.476-6.494,1.476c-1.094,0-2.188-0.099-3.28-0.295
		c-1.094-0.197-2.144-0.514-3.148-0.951c-1.007-0.437-1.936-0.994-2.788-1.673c-0.853-0.677-1.564-1.476-2.132-2.394h-0.132v16.924
		h-7.478V89.858z M475.288,106.848c0-1.53-0.196-3.018-0.59-4.46c-0.394-1.443-0.984-2.723-1.771-3.837
		c-0.787-1.115-1.771-2.011-2.952-2.69c-1.181-0.677-2.536-1.017-4.066-1.017c-3.149,0-5.521,1.094-7.117,3.28
		c-1.598,2.188-2.395,5.095-2.395,8.725c0,1.706,0.207,3.291,0.623,4.756c0.415,1.466,1.038,2.722,1.869,3.772
		c0.83,1.049,1.826,1.881,2.985,2.493c1.158,0.613,2.503,0.918,4.034,0.918c1.705,0,3.148-0.35,4.329-1.05
		c1.181-0.699,2.153-1.607,2.919-2.722c0.765-1.115,1.312-2.383,1.641-3.805C475.124,109.79,475.288,108.336,475.288,106.848z"/>
	<path d="M504.61,124.691c-2.712,0-5.128-0.449-7.248-1.345c-2.122-0.896-3.915-2.132-5.38-3.707
		c-1.465-1.574-2.58-3.454-3.345-5.641c-0.766-2.187-1.148-4.592-1.148-7.216c0-2.58,0.383-4.963,1.148-7.15
		c0.765-2.186,1.88-4.067,3.345-5.641c1.465-1.575,3.258-2.81,5.38-3.707c2.12-0.896,4.536-1.345,7.248-1.345
		c2.711,0,5.127,0.449,7.249,1.345c2.12,0.897,3.913,2.132,5.379,3.707c1.465,1.574,2.58,3.455,3.346,5.641
		c0.765,2.188,1.147,4.57,1.147,7.15c0,2.624-0.383,5.029-1.147,7.216c-0.766,2.187-1.881,4.067-3.346,5.641
		c-1.466,1.575-3.259,2.811-5.379,3.707C509.737,124.242,507.321,124.691,504.61,124.691z M504.61,118.787
		c1.661,0,3.104-0.35,4.33-1.05c1.224-0.699,2.229-1.617,3.017-2.755c0.787-1.137,1.366-2.416,1.738-3.837
		c0.371-1.421,0.558-2.875,0.558-4.362c0-1.443-0.187-2.886-0.558-4.33c-0.372-1.443-0.951-2.722-1.738-3.837
		s-1.793-2.022-3.017-2.722c-1.226-0.699-2.669-1.05-4.33-1.05c-1.662,0-3.105,0.351-4.329,1.05c-1.225,0.7-2.23,1.607-3.018,2.722
		s-1.367,2.394-1.738,3.837c-0.372,1.443-0.558,2.886-0.558,4.33c0,1.487,0.186,2.941,0.558,4.362
		c0.371,1.421,0.951,2.701,1.738,3.837c0.787,1.138,1.793,2.056,3.018,2.755C501.504,118.438,502.948,118.787,504.61,118.787z"/>
	<path d="M527.962,89.858h7.02v6.56h0.131c0.219-0.918,0.645-1.814,1.279-2.689c0.634-0.874,1.399-1.673,2.296-2.394
		c0.896-0.722,1.891-1.301,2.984-1.738c1.093-0.437,2.208-0.656,3.346-0.656c0.874,0,1.476,0.022,1.804,0.065
		c0.328,0.044,0.667,0.088,1.018,0.131v7.216c-0.525-0.087-1.062-0.164-1.607-0.229c-0.548-0.065-1.083-0.099-1.607-0.099
		c-1.269,0-2.46,0.252-3.575,0.754c-1.115,0.503-2.089,1.247-2.919,2.23c-0.831,0.984-1.487,2.198-1.968,3.641
		c-0.481,1.443-0.722,3.105-0.722,4.985v16.137h-7.479V89.858z"/>
	<path d="M547.641,89.858h5.642V79.691h7.479v10.167h6.757v5.576h-6.757v18.105c0,0.787,0.032,1.466,0.099,2.034
		c0.065,0.569,0.218,1.049,0.459,1.443c0.239,0.394,0.601,0.688,1.082,0.885c0.48,0.197,1.137,0.295,1.968,0.295
		c0.525,0,1.05-0.01,1.574-0.033c0.525-0.022,1.05-0.099,1.575-0.23v5.773c-0.832,0.087-1.641,0.174-2.428,0.262
		c-0.787,0.087-1.597,0.131-2.427,0.131c-1.968,0-3.554-0.187-4.756-0.558c-1.203-0.371-2.144-0.918-2.821-1.64
		s-1.138-1.628-1.377-2.722c-0.241-1.093-0.384-2.339-0.427-3.739V95.434h-5.642V89.858z"/>
</g>
<g>
	<g>
		<path d="M397.463,465.881l14.63-8.568c2.698-1.58,5.324-1.529,7.874,0.146c2.548,1.679,4.751,5.173,6.61,10.494
			c1.128,3.228,1.724,6.215,1.789,8.959c0.065,2.742-0.365,5.151-1.289,7.226l0.062,0.18c2.132-0.262,4.178,0.771,6.138,3.103
			c1.958,2.333,3.698,5.678,5.221,10.04c0.876,2.511,1.488,4.983,1.835,7.417c0.347,2.437,0.355,4.717,0.025,6.841
			c-0.33,2.127-1.021,4.077-2.075,5.853c-1.055,1.776-2.532,3.246-4.436,4.415l-13.567,8.337L397.463,465.881z M412.247,489.742
			l8.532-5.099c1.255-0.75,2.033-2.139,2.333-4.167c0.303-2.026-0.049-4.475-1.057-7.35c-1.133-3.233-2.309-5.285-3.526-6.155
			c-1.219-0.87-2.543-0.887-3.974-0.043l-8.576,5.058L412.247,489.742z M422.206,517.951l9.166-5.594
			c1.576-0.962,2.49-2.592,2.742-4.89c0.254-2.295-0.186-5.062-1.317-8.293c-1.11-3.173-2.402-5.347-3.875-6.525
			c-1.474-1.179-3.004-1.294-4.59-0.341l-9.221,5.545L422.206,517.951z"/>
		<path d="M467.519,501.296l-4.634,2.847l-2.218-6.424l-0.083,0.051c0.222,2.676,0.001,5.064-0.66,7.163
			c-0.661,2.103-1.583,3.52-2.769,4.249c-2.811,1.729-5.368,1.473-7.671-0.771c-2.306-2.243-4.52-6.411-6.641-12.502l-10.229-29.373
			l4.781-2.838l9.847,28.353c1.408,4.056,2.762,6.698,4.06,7.928c1.299,1.231,2.597,1.449,3.896,0.655
			c0.995-0.608,1.71-1.442,2.146-2.504c0.438-1.06,0.674-2.266,0.708-3.62c0.034-1.353-0.125-2.857-0.479-4.514
			c-0.354-1.655-0.84-3.377-1.455-5.16l-9.243-26.763l4.781-2.838L467.519,501.296z"/>
		<path d="M456.688,452.248l4.529-2.688l2.312,6.753l0.145,0.128c-0.146-2.978,0.12-5.542,0.797-7.69
			c0.68-2.146,1.732-3.644,3.159-4.489c2.377-1.41,4.693-1.221,6.945,0.562c2.251,1.783,4.258,5.27,6.021,10.464l10.665,31.42
			l-4.716,2.897l-9.806-28.804c-1.282-3.568-2.535-5.968-3.757-7.194c-1.224-1.225-2.547-1.414-3.97-0.565
			c-0.811,0.483-1.43,1.228-1.858,2.23c-0.429,1.007-0.679,2.19-0.751,3.551c-0.071,1.363,0.022,2.86,0.278,4.49
			c0.257,1.633,0.669,3.277,1.237,4.936l9.278,27.101l-4.716,2.897L456.688,452.248z"/>
		<path d="M516.368,471.28l-4.468,2.745l-2.064-6.161l-0.083,0.05c0.25,3.031-0.04,5.49-0.869,7.379
			c-0.83,1.894-1.918,3.254-3.269,4.084c-1.682,1.035-3.363,1.305-5.045,0.81c-1.683-0.493-3.306-1.576-4.87-3.251
			c-1.566-1.67-3.061-3.869-4.483-6.594c-1.423-2.723-2.713-5.795-3.871-9.214c-1.396-4.124-2.341-7.851-2.828-11.173
			c-0.487-3.321-0.62-6.218-0.397-8.685c0.223-2.468,0.748-4.491,1.571-6.078c0.825-1.583,1.825-2.724,2.999-3.42
			c0.672-0.398,1.401-0.671,2.189-0.823c0.788-0.148,1.602-0.12,2.442,0.084c0.841,0.206,1.686,0.602,2.535,1.187
			c0.851,0.586,1.663,1.387,2.439,2.403l0.084-0.05l-7.787-23.236l4.807-2.815L516.368,471.28z M492.364,459.057
			c0.656,1.941,1.419,3.784,2.291,5.524c0.87,1.741,1.797,3.199,2.777,4.375c0.98,1.178,1.993,1.979,3.035,2.403
			c1.044,0.427,2.077,0.328,3.1-0.297c1.05-0.642,1.798-1.664,2.242-3.07c0.444-1.402,0.653-3.015,0.625-4.836
			c-0.027-1.821-0.242-3.756-0.646-5.807c-0.404-2.05-0.939-4.072-1.607-6.066c-1.69-5.046-3.544-8.655-5.562-10.831
			c-2.02-2.176-3.95-2.716-5.792-1.617c-1.115,0.666-1.895,1.714-2.334,3.141c-0.44,1.429-0.641,3.069-0.603,4.921
			c0.039,1.853,0.287,3.825,0.743,5.924C491.091,454.917,491.668,456.996,492.364,459.057z"/>
		<path d="M500.754,405.387l4.807-2.815l20.775,62.583l-4.716,2.897L500.754,405.387z"/>
		<path d="M528.538,439.719c0.577,1.749,1.252,3.369,2.027,4.856c0.772,1.489,1.597,2.703,2.471,3.638
			c0.874,0.938,1.79,1.552,2.75,1.841c0.957,0.29,1.935,0.129,2.929-0.479c1.382-0.845,2.288-2.15,2.721-3.916
			c0.434-1.764,0.449-4.021,0.045-6.774l4.487-2.728c0.548,2.591,0.83,5.028,0.848,7.314c0.019,2.289-0.186,4.349-0.614,6.18
			c-0.427,1.831-1.062,3.41-1.903,4.729c-0.843,1.321-1.842,2.339-3,3.051c-1.682,1.035-3.362,1.366-5.042,0.998
			c-1.682-0.369-3.316-1.329-4.908-2.879c-1.593-1.55-3.099-3.646-4.521-6.285c-1.424-2.641-2.715-5.713-3.874-9.214
			c-1.062-3.209-1.83-6.405-2.299-9.587c-0.468-3.181-0.611-6.136-0.427-8.864c0.184-2.727,0.709-5.113,1.572-7.159
			c0.863-2.044,2.106-3.549,3.729-4.511c1.705-1.011,3.48-1.178,5.322-0.501c1.841,0.676,3.607,1.968,5.3,3.875
			c1.689,1.905,3.253,4.319,4.69,7.239c1.438,2.922,2.607,6.124,3.513,9.604L528.538,439.719z M537.466,426.482
			c-0.569-1.536-1.225-2.949-1.965-4.244c-0.741-1.294-1.518-2.342-2.33-3.142c-0.812-0.8-1.657-1.338-2.532-1.616
			s-1.718-0.176-2.526,0.306c-0.838,0.5-1.497,1.26-1.979,2.278c-0.481,1.021-0.789,2.216-0.921,3.583
			c-0.134,1.371-0.105,2.872,0.083,4.504c0.189,1.634,0.548,3.303,1.079,5.01L537.466,426.482z"/>
	</g>
</g>
</svg>
