<?xml version="1.0" encoding="UTF-8"?>
<svg xmlns="http://www.w3.org/2000/svg" width="360" height="360" version="1.1" viewBox="0 0 360 360">
  <defs>
    <style>
      .cls-1 {
        fill: none;
      }

      .cls-2 {
        fill: #4285f4;
      }

      .cls-2, .cls-3, .cls-4 {
        stroke: #f2edd5;
        stroke-miterlimit: 10;
        stroke-width: 2.8px;
      }

      .cls-3 {
        fill: #8ab4f8;
      }

      .cls-5 {
        fill: #02848e;
      }

      .cls-6 {
        fill: #f2edd5;
      }

      .cls-7 {
        fill: #a13609;
      }

      .cls-4 {
        fill: #246fdb;
      }

      .cls-8 {
        fill: #0098ac;
      }
    </style>
  </defs>
  <!-- Generator: Adobe Illustrator 28.6.0, SVG Export Plug-In . SVG Version: 1.2.0 Build 709)  -->
  <g>
    <g id="Ebene_2">
      <g id="bg">
        <path class="cls-7" d="M80,0h200c44.2,0,80,35.8,80,80v200c0,44.2-35.8,80-80,80H80c-44.2,0-80-35.8-80-80V80C0,35.8,35.8,0,80,0Z"/>
        <path class="cls-5" d="M95,25h170c38.7,0,70,31.3,70,70v170c0,38.7-31.3,70-70,70H95c-38.7,0-70-31.3-70-70V95c0-38.7,31.3-70,70-70Z"/>
        <path class="cls-8" d="M158.9,85h42.3v113.8h-42.3v-113.8Z"/>
        <path class="cls-8" d="M259,161.4l-39.9,71.3h-78.2l-39.9-71.3-36.9,20.7,52.1,92.9h127.6l52.1-92.9-36.9-20.7Z"/>
      </g>
      <path id="frame" class="cls-6" d="M270,34c14.9,0,28.9,5.8,39.5,16.5s16.5,24.6,16.5,39.5v180c0,14.9-5.9,28.9-16.5,39.5s-24.6,16.5-39.5,16.5H90c-14.9,0-28.9-5.9-39.5-16.5s-16.5-24.6-16.5-39.5V90c0-14.9,5.8-28.9,16.5-39.5s24.6-16.5,39.5-16.5h180M270,20H90c-38.5,0-70,31.5-70,70v180c0,38.5,31.5,70,70,70h180c38.5,0,70-31.5,70-70V90c0-38.5-31.5-70-70-70Z"/>
      <rect class="cls-1" x="-238" y="118.8" width="171.7" height="171.7"/>
      <g>
        <polygon class="cls-3" points="195.1 259.7 165 230.3 229.7 164.2 260.9 194.8 195.1 259.7"/>
        <path class="cls-2" d="M195.2,129.8l-30-30.7-65.7,65.1c-8.5,8.5-8.5,22.2,0,30.7l64.7,65.1,30.6-28.6-49.3-51.8,49.7-49.7Z"/>
        <path class="cls-3" d="M260.5,164.6l-65.1-65.1c-8.5-8.5-22.2-8.5-30.7,0s-8.5,22.2,0,30.7l65.1,65.1c8.5,8.5,22.2,8.5,30.7,0,8.5-8.5,8.5-22.2,0-30.7Z"/>
        <circle class="cls-4" cx="179.5" cy="245.6" r="21.2"/>
      </g>
    </g>
  </g>
</svg>