<svg xmlns="http://www.w3.org/2000/svg" width="360" height="360"><defs><style>.cls-1{fill:#8ab4f8;stroke:#000;stroke-miterlimit:10;stroke-width:5px}.cls-7{fill:#0098ac}</style></defs><g id="Ebene_1"><g id="Ebene_2"><g id="bg"><path d="M80 0h200c44.2 0 80 35.8 80 80v200c0 44.2-35.8 80-80 80H80c-44.2 0-80-35.8-80-80V80C0 35.8 35.8 0 80 0" style="fill:#a13609"/><path d="M95 25h170c38.7 0 70 31.3 70 70v170c0 38.7-31.3 70-70 70H95c-38.7 0-70-31.3-70-70V95c0-38.7 31.3-70 70-70" style="fill:#02848e"/><path d="M158.9 85h42.3v113.8h-42.3V85Z" class="cls-7"/><path d="m259 161.4-39.9 71.3h-78.2L101 161.4l-36.9 20.7 52.1 92.9h127.6l52.1-92.9z" class="cls-7"/></g><path id="frame" d="M270 34c14.9 0 28.9 5.8 39.5 16.5S326 75.1 326 90v180c0 14.9-5.9 28.9-16.5 39.5S284.9 326 270 326H90c-14.9 0-28.9-5.9-39.5-16.5S34 284.9 34 270V90c0-14.9 5.8-28.9 16.5-39.5S75.1 34 90 34zm0-14H90c-38.5 0-70 31.5-70 70v180c0 38.5 31.5 70 70 70h180c38.5 0 70-31.5 70-70V90c0-38.5-31.5-70-70-70" style="fill:#f2edd5"/><path d="M195.1 259.7 165 230.3l64.7-66.1 31.2 30.6z" class="cls-1"/><path d="m195.2 129.8-30-30.7-65.7 65.1c-8.5 8.5-8.5 22.2 0 30.7l64.7 65.1 30.6-28.6-49.3-51.8 49.7-49.7Z" style="stroke:#000;stroke-miterlimit:10;stroke-width:5px;fill:#4285f4"/><path d="m260.5 164.6-65.1-65.1c-8.5-8.5-22.2-8.5-30.7 0s-8.5 22.2 0 30.7l65.1 65.1c8.5 8.5 22.2 8.5 30.7 0s8.5-22.2 0-30.7z" class="cls-1"/><circle cx="179.5" cy="245.6" r="21.2" style="stroke:#000;stroke-miterlimit:10;stroke-width:5px;fill:#246fdb"/></g></g></svg>