<svg xmlns="http://www.w3.org/2000/svg" viewBox="0 0 100 100"><linearGradient id="A" x1="79.7" x2="20.5" y1="108.2" y2="-8.1" gradientUnits="userSpaceOnUse"><stop offset="0" stop-color="#4da377"/><stop offset="1" stop-color="#91c144"/></linearGradient><path fill="url(#A)" d="M.1 5.7C.1 2.6 2.7 0 5.8 0h88.6c3.1 0 5.7 2.6 5.7 5.7v88.6c0 3.1-2.6 5.7-5.7 5.7H5.8a6 6 0 01-5.7-5.8V5.7z"/><g fill="#fff"><g fill-rule="evenodd" opacity=".9"><path d="M84.9 88.8v.8l.1.1 1.1.6 1.7 1 1.2.7.1.2v1.5L85 91.3v.7l.1.1 3.9 2.3.1.3v1.4l-.2-.1-5.2-3-.1-.2v-6.3l.2.1 4.5 2.7.7.4.1.2v1.5l-4.2-2.6z"/><path d="M92.3 94.8V90a2 2 0 0 0-.6.4v4.7c0 .1 0 .2-.2.3l-1.2.7v-6.2l.1-.2 5.3-3.1.1-.1v6.1c0 .3-.1.4-.3.5l-1 .6-.2.1V89l-.7.4v4.8l-.1.1c-.3 0-.8.3-1.2.5z" opacity=".8"/><path d="M89.9 88.5a145.6 145.6 0 01-5.7-3.1l-.3-.2.2-.1 5.4-3.2h.3l5.4 3.2.1.1-.1.1-5.1 3-.2.2zm-3.2-3.2l.2.1 2.6 1.5h.3l2.6-1.5.1-.1-.1-.1-2.7-1.5c-.1-.1-.2 0-.2 0l-2.6 1.5-.2.1z" opacity=".6"/></g><g stroke="#fff" stroke-width=".536" stroke-miterlimit="10"><path d="M55.7 21.6a3.9 3.9 0 00-5.4 0L41 31.2V26c0-.6-.5-1.1-1.1-1.1h-6.6c-.6 0-1.1.5-1.1 1.1v14.2L26 46.5a3.8 3.8 0 00.1 5.4 3.7 3.7 0 005.4-.1l.7-.7v3.7c0 .6.5 1.1 1.1 1.1.6 0 1.1-.5 1.1-1.1v-5.9l18.6-19 18.6 19v21H34.4v-6.3c0-.6-.5-1.1-1.1-1.1-.6 0-1.1.5-1.1 1.1v6.3h-1.1c-1.8 0-3.3 1.5-3.3 3.3s1.5 3.3 3.3 3.3h43.7c1.8 0 3.3-1.5 3.3-3.3s-1.5-3.3-3.3-3.3h-1.1V51.2l.7.7a3.9 3.9 0 005.4.1 3.9 3.9 0 00.1-5.4l-24.2-25zm20.2 51.6c0 .6-.5 1.1-1.1 1.1H31.1c-.6 0-1.1-.5-1.1-1.1 0-.6.5-1.1 1.1-1.1h43.7c.6 0 1.1.5 1.1 1.1zM34.4 27.1h4.4v6.4l-4.4 4.4V27.1zm43.9 23.2c-.6.6-1.7.6-2.3 0L53.7 27.6c-.2-.2-.5-.3-.8-.3-.3 0-.6.1-.8.3L30 50.3c-.6.7-1.7.7-2.3 0-.6-.6-.7-1.7 0-2.3l24.2-24.9c.3-.3.7-.5 1.2-.5s.9.2 1.2.5L78.5 48c.4.7.4 1.7-.2 2.3z"/><path d="M48.6 43a1.11 1.11 0 0 0-1.1 1.1v3.3h-1.1a3.3 3.3 0 0 0-3.3 3.3c0 1.4.9 2.6 2.2 3.1v5.7a3.33 3.33 0 0 0 3.3 3.3h1.1v3.3a1.11 1.11 0 0 0 1.1 1.1h4.4a1.11 1.11 0 0 0 1.1-1.1v-3.3h1.1a3.33 3.33 0 0 0 3.3-3.3v-5.7a3.3 3.3 0 0 0 2.2-3.1 3.33 3.33 0 0 0-3.3-3.3h-1.2v-3.3a1.11 1.11 0 0 0-1.1-1.1 1.11 1.11 0 0 0-1.1 1.1v3.3h-6.6v-3.3c.1-.6-.4-1.1-1-1.1zM54 64.9h-2.2v-2.2H54v2.2zm3.3-4.4h-8.8a1.11 1.11 0 0 1-1.1-1.1v-5.5h11v5.5a1.11 1.11 0 0 1-1.1 1.1zm3.3-9.8a1.11 1.11 0 0 1-1.1 1.1H46.4a1.11 1.11 0 0 1-1.1-1.1 1.11 1.11 0 0 1 1.1-1.1h13.1a1.11 1.11 0 0 1 1.1 1.1zm-5.5 5.5h-4.4a1.11 1.11 0 0 0-1.1 1.1 1.11 1.11 0 0 0 1.1 1.1h4.4a1.11 1.11 0 0 0 1.1-1.1c0-.7-.5-1.1-1.1-1.1z" opacity=".6" enable-background="new"/><path d="M33.3 60.3c.6 0 1.1-.5 1.1-1.1s-.5-1.1-1.1-1.1c-.6 0-1.1.5-1.1 1.1s.5 1.1 1.1 1.1z"/></g></g></svg>