<svg xmlns="http://www.w3.org/2000/svg" width="191.8" height="150"><path d="M161.51 23.46a29 29 0 00-8.43-6.38 34.17 34.17 0 00-23.46-2.73 33 33 0 00-10.13 3.76 40.36 40.36 0 00-14.92 14.69 40.44 40.44 0 00-3 5.69A69.35 69.35 0 0090.91 21.3a58.14 58.14 0 00-11.39-9.91 41.2 41.2 0 00-14.69-6.26 31.65 31.65 0 00-6.6-.57 29.69 29.69 0 00-10.48 1.82A32.35 32.35 0 0033.4 17.77a55.61 55.61 0 00-10.59 27.1 72.27 72.27 0 00-.91 11.38 111.72 111.72 0 001.48 17.43 65.27 65.27 0 008.43 22.77 92.72 92.72 0 0010.36 13.67 91.69 91.69 0 0022.77 18.1c5.81 3.42 11.39 6.61 17.65 9.79l8.32 4 5.46 2.28a11.28 11.28 0 007.4.91l1.26-.57a7.37 7.37 0 003.18-1 168.53 168.53 0 0020.62-16.39 89.56 89.56 0 007.85-8.32c3-3.41 5.81-7.06 8.54-10.7a149.13 149.13 0 0022.09-42.36 57 57 0 002.51-20 39.93 39.93 0 00-2.16-11.39 36.07 36.07 0 00-6.15-10.93z" fill="#ffce00"/><text transform="translate(64.56 104.12)" font-size="106.65" fill="#103a5d" font-family="InkFree,Ink Free">io</text></svg>