<svg xmlns="http://www.w3.org/2000/svg" viewBox="0 0 100 100"><linearGradient id="A" x1="79.7" x2="20.4" y1="108.1" y2="-8.2" gradientUnits="userSpaceOnUse"><stop offset="0" stop-color="#c28d31"/><stop offset="1" stop-color="#d4ab5b"/></linearGradient><path fill="url(#A)" d="M0 5.7C0 2.6 2.6 0 5.7 0h88.6c3.1 0 5.7 2.6 5.7 5.7v88.6c0 3.1-2.6 5.7-5.7 5.7H5.7A6 6 0 010 94.2V5.7z"/><path d="M89.1 87.7c0-.3-.2-.6-.6-.6s-.8.3-.7.6c.1.4.2.7.7.7.3.1.6-.3.6-.7zm3-1c-.4-.1-.8.5-.4.7.2.2 1.1.4 1.5.7 1.1.7 1.7 1.3 2 2.3.4 1.9 0 5-2.6 5-.7 0-1.6-.3-2-1-.4-.9.2-2.3 1.2-2.5 1.2-.2 1.7.7.7 1.3-1.9 1.1 1 .9 1.5-.1.6-1.2-.6-2.3-2-2.2-1.1.1-2.1.8-2.4 1.8-.9 2.4 1.4 4.4 3.7 4 2.5-.4 3.4-3.1 3.2-5.4-.2-2.5-1.9-3.9-4.4-4.6zm-1.9.4c-.2-.2-.1-.5-.1-.8 0-.1.1-.6-.1-.6h-.4c-.5 0-1.1.2-1.6.5a4 4 0 0 0-1.9 3l4.4.1c.3 0 .5.7-.4.7l-4.2-.1c-.5 0-.6-.2-.5-.6V89a4.4 4.4 0 0 1 4.9-3.9c.4 0 .5.1.5.5v1.1c0 .7-.6.4-.6.4z" opacity=".7" fill-rule="evenodd" fill="#fff"/><g fill="#fff"><path d="M16.9 73.6h1.2l2.7 7.1h-1.4l-.6-1.7h-2.5l-.7 1.8h-1.4l2.7-7.2zm1.6 4.4l-1-2.8-1 2.8h2zm5.1 2.9l-1-.2c-.3-.1-.6-.3-.8-.6a2 2 0 0 1-.5-.9l-.2-1.1.2-1.1.5-.9.7-.6.9-.2c.4 0 .7.1 1.1.3.3.2.6.4.7.7v-3h1.3v5.8l.1.3.2.1v1.1l-.6.1-.6-.2c-.2-.1-.2-.3-.3-.5v-.3a3 3 0 0 1-.8.8c-.2.3-.6.4-.9.4zm.3-1.2l.4-.1.4-.2.3-.3.2-.4v-1.3L25 77l-.3-.3a.8.8 0 0 0-.4-.2l-.4-.1-.6.1-.4.4-.3.5-.1.6.1.6.3.5c.1.1.3.3.5.3s.3.3.5.3zm5.4 1.1l-1.9-5.3h1.4l1.3 4.2 1.3-4.2h1.3l-1.9 5.3h-1.5zm5.4.1l-.7-.1a2 2 0 0 1-.6-.4l-.4-.5-.1-.7.2-.7.5-.5c.2-.1.4-.3.7-.3l.9-.1.7.1.6.2v-.3c0-.3-.1-.6-.3-.8s-.5-.3-.9-.3l-.8.2a3 3 0 0 0-.8.4l-.4-.9c.7-.4 1.4-.7 2.2-.7s1.3.2 1.8.6.6.9.6 1.6v1.6l.1.3.2.1v1.1l-.6.1-.6-.2-.3-.5v-.3c-.2.3-.5.5-.9.7s-.7.3-1.1.3zm.4-1l.6-.1.5-.3.2-.4v-.6l-1-.2-.9.2c-.3.1-.3.4-.3.6l.3.6.6.2zm8.9.9h-1.3v-3a2 2 0 0 0-.2-.9c-.1-.2-.4-.3-.6-.3l-.4.1-.4.2-.3.3-.2.4v3.1h-1.3v-5.3h1.2v1l.8-.8 1.2-.3.8.2.5.5.2.7.1.8v3.3zm.8-2.7l.2-1 .6-.9.9-.6 1.2-.2c.6 0 1.1.1 1.5.4.4.2.7.6.9 1l-1.3.4-.5-.4-.6-.2-.5.1-.4.3-.3.5-.1.6.1.6.3.5.4.3.5.1.7-.2.4-.4 1.3.4c-.2.4-.5.7-.9 1s-.9.4-1.5.4a5 5 0 0 1-1.2-.2l-.9-.6-.6-.9a3 3 0 0 1-.2-1zm8.4 2.8l-1.1-.2-.9-.6-.6-.9-.2-1 .2-1.1.6-.9c.2-.3.5-.5.9-.6a3.7 3.7 0 0 1 2.4 0c.4.1.6.3.9.6.2.2.4.5.5.9l.2 1v.5H52l.2.6.3.4.4.3.5.1.8-.2.5-.5 1.2.3c-.2.4-.5.7-.9 1l-1.8.3zm1.4-3.2c0-.4-.2-.7-.4-1s-.6-.4-.9-.4l-.5.1-.4.3-.3.4-.1.5h2.6zm4.4 3.2l-1-.2c-.3-.1-.6-.3-.8-.6a2 2 0 0 1-.5-.9l-.2-1.1.2-1.1.5-.9.7-.6.9-.2c.4 0 .7.1 1.1.3.3.2.6.4.7.7v-3H62v5.8l.1.3.2.1v1.1l-.6.1-.6-.2c-.2-.1-.2-.3-.3-.5v-.3a3 3 0 0 1-.8.8c-.3.3-.7.4-1 .4zm.3-1.2l.4-.1.4-.2.3-.3.2-.4v-1.3l-.2-.4-.3-.3a.8.8 0 0 0-.4-.2l-.4-.1-.6.1-.4.4-.3.5-.1.6.1.6.3.5c.1.1.3.3.5.3.1.3.3.3.5.3zm4.3 1.1v-7.1h4.7v.6h-4v2.6h3.4v.6h-3.4v3.3h-.7zm7.6.1l-1-.2c-.3-.1-.6-.3-.8-.6a2 2 0 0 1-.5-.9l-.2-1 .2-1 .5-.9.8-.6 1-.2 1 .2c.3.1.6.3.8.6.2.2.4.5.5.9l.2 1-.2 1-.5.9-.8.6c-.3.2-.6.2-1 .2zm-1.9-2.7l.2.8.4.7.6.4.7.2.7-.2.6-.5.4-.7.2-.8-.2-.8-.4-.7-.6-.5-.7-.2-.7.2-.6.5-.4.7-.2.9zm8.3-2.1c-.5 0-.9.1-1.2.4-.3.2-.6.6-.7 1v3.3H75v-5.2h.6v1.3a2.36 2.36 0 0 1 .8-.9 2 2 0 0 1 1.1-.3h.1v.4zm8.7 4.7h-.7v-2.9c0-.6-.1-1.1-.3-1.3-.2-.3-.5-.4-.9-.4l-.6.1-.5.3-.4.5-.3.6v3.2h-.7V78c0-.6-.1-1.1-.3-1.4s-.5-.4-.9-.4-.7.1-1.1.4a3 3 0 0 0-.7 1.1v3.2h-.7v-5.2h.6v1.2a2.36 2.36 0 0 1 .8-.9c.3-.2.7-.3 1.2-.3.4 0 .8.1 1.1.4.3.2.4.6.5 1 .5-.9 1.2-1.3 2-1.3l.8.2.5.5.3.7.1.9v2.7z"/><path d="M28.7 38.2h5.9v-5.5h-5.9v5.5zm1.6-4.1H33v2.6h-2.8v-2.6zm6.2-1.4v5.5h22v-5.5h-22zm20.4 4H38.1v-2.6H57v2.6zm-28 8.7h29.6v-5.5H28.9v5.5zm1.5-4.1h26.5v2.6H30.4v-2.6zm-1.5 11.2h29.6V47H28.9v5.5zm1.5-4h26.5v2.6H30.4v-2.6zm6.3 6.9v4.5h13.6v-4.5H36.7zm7.6 3.6v-.9h-3.6v-.9h3.6v-1l1.8 1.4-1.8 1.4zm29.1-43.9H40.5c-2.8 0-5 2.1-5 4.7v1h-1.7c-2.8 0-5 2.1-5 4.7v1H27c-2.8 0-5 2.1-5 4.7v30.6c0 2.6 2.3 4.7 5 4.7h32.9c2.8 0 5-2.1 5-4.7v-1h1.7c2.8 0 5-2.1 5-4.7v-1h1.7c2.8 0 5-2.1 5-4.7V19.8c.2-2.6-2.1-4.7-4.9-4.7zM61.6 61.8c0 .9-.8 1.6-1.7 1.6H27c-.9 0-1.7-.7-1.7-1.6V31.1c0-.9.8-1.6 1.7-1.6h32.9c.9 0 1.7.7 1.7 1.6v30.7zm6.7-5.7c0 .9-.8 1.6-1.7 1.6h-1.7V31.1c0-2.6-2.3-4.7-5-4.7H32.1v-1c0-.9.8-1.6 1.7-1.6h32.9c.9 0 1.7.7 1.7 1.6v30.7zm6.8-5.6c0 .9-.8 1.6-1.7 1.6h-1.7V25.5c0-2.6-2.3-4.7-5-4.7H38.9v-1c0-.9.8-1.6 1.7-1.6h32.9c.9 0 1.7.7 1.7 1.6v30.7z" opacity=".9"/></g></svg>