<svg xmlns="http://www.w3.org/2000/svg" xml:space="preserve" viewBox="0 0 360 360"><path fill="#575756" d="M68.4 208.2q-1-1.9-2.7-3.5-1.5-1.5-4-2.3-2.1-.9-5.2-1l-.9.1a14 14 0 0 0-12.5 7.3 18 18 0 0 0-2.4 9.3q0 5 2 8.5 2 3.6 5.6 5.5a18 18 0 0 0 9 2 35 35 0 0 0 11.3-2l-1.2-6.6a23 23 0 0 1-11.8 1q-1.6-.4-2.8-1.1a6 6 0 0 1-2.8-4.5h20a23 23 0 0 0-.1-8.4q-.6-2.3-1.5-4.2Zm-12.8 6H50a8 8 0 0 1 1.6-4 5 5 0 0 1 4.2-2.3h.3q1.6 0 2.7.7a5 5 0 0 1 1.6 1.6l.9 2 .2 2zM25 216.7l-.9 3.9-.7 3.7h-.2l-1.8-7.6-4.2-14.4H6.7L18 233.4h9.7l11.6-31.1H29zm153.1-4.2q-.4-2.4-1.5-4.3-1-1.9-2.6-3.5-1.6-1.5-4-2.3-2.3-.9-5.3-1l-.8.1a14 14 0 0 0-12.5 7.3 18 18 0 0 0-2.4 9.3q0 5 2 8.5 1.8 3.6 5.6 5.5a18 18 0 0 0 9 2 35 35 0 0 0 11.3-2l-1.3-6.6a23 23 0 0 1-11.7 1h-.1q-1.6-.4-2.8-1.1a6 6 0 0 1-2.8-4.5h20.1a23 23 0 0 0-.2-8.4m-14.2 1.7h-5.7a8 8 0 0 1 1.5-4 5 5 0 0 1 4.2-2.3h.3q1.6 0 2.7.7a5 5 0 0 1 1.7 1.6q.6 1 .8 2l.3 2zm-61.4-9.4q-1.5-1.6-3.5-2.4t-4.4-.8a12 12 0 0 0-6.3 1.7 11 11 0 0 0-3.4 3.3h-.2l-.4-4.4h-8.4l.2 4.6v26.6h9.7V214l.3-1.1a6 6 0 0 1 2.7-3 5 5 0 0 1 2.3-.6q1.7 0 2.8.8t1.6 2.4.5 3.5v17.3h9.7V215q0-3.5-.9-6t-2.3-4.2m37.3 0q-1.5-1.6-3.5-2.4t-4.4-.8a12 12 0 0 0-6.3 1.7 11 11 0 0 0-3.4 3.3h-.1l-.5-4.4h-8.4l.2 4.6v26.6h9.7V214l.3-1.1a6 6 0 0 1 2.7-3 5 5 0 0 1 2.3-.6q1.8 0 2.8.8 1.2.9 1.6 2.4t.5 3.5v17.3h9.7V215q0-3.5-.9-6t-2.3-4.2"/><path fill="#df4013" d="M260.2 202.7q-2.4-1-5.6-1.1a19 19 0 0 0-6.2 1q-2.9 1.2-5 3a19 19 0 0 0-6.1 9.7q-.8 2.7-.8 5.6 0 4.1 1.5 7t4.5 4.6a16 16 0 0 0 9 1.6 36 36 0 0 0 6.2-1 21 21 0 0 0 3.9-1.5l-.7-6.6a19 19 0 0 1-8.7 2h-.7q-1.6-.1-2.8-.7-1.5-.6-2.5-1.8l-.5-1-.4-2.1a57 57 0 0 0 8.4-.4q3.7-.6 6.4-1.8 2.5-1.2 4-3.3 1.4-2 1.4-5t-1.4-5a9 9 0 0 0-3.8-3.2ZM257 211q0 1.4-1.2 2.3t-3.6 1.2h-.6q-2.3.3-5.3.3a10 10 0 0 1 2.3-4.3 7 7 0 0 1 5-2.1q1.6 0 2.5.7t.9 1.9m-28.6-8.4a8 8 0 0 0-4-1 12 12 0 0 0-7.7 2.6q-1.8 1.3-3.1 3.3a6 6 0 0 0-2-4q-.9-.8-2.2-1.4a9 9 0 0 0-3.2-.5q-3 0-5.8 1.4t-4.9 4.4h-.1l.6-5.1h-8l-1.5 10.1-3.9 21h8.9l2.6-14q.5-3 1.7-5.4a12 12 0 0 1 2.6-3.7q1.5-1.3 3.1-1.3 1.1 0 1.8.5t.9 1.3q.3 1 .2 2v1.7l-.3 1.8-3.3 17.1h8.9l2.6-14q.6-3.2 1.7-5.6 1.2-2.2 2.6-3.6 1.5-1.2 3-1.2a3 3 0 0 1 1.7.4q.7.6 1 1.3t.3 2v1.8l-.4 2-3.1 17h8.9l3.4-18.2.2-1.8.2-2V210q0-2.7-.8-4.5a6 6 0 0 0-2.6-3Zm89.8-14.1q-1.1-.6-2.6-.6-1.6 0-2.8.7a5 5 0 0 0-2.8 4.8q0 1.5.6 2.5.6 1.2 1.7 1.7 1 .6 2.4.6 1.5 0 3-.7a5 5 0 0 0 2.8-4.8 5 5 0 0 0-.6-2.6q-.6-1-1.7-1.6m-14.2-.3h-9.2l-2.7 14a14 14 0 0 0-4.2-.6 20 20 0 0 0-6.6 1.1 18 18 0 0 0-9.5 7.7 21 21 0 0 0-3.6 12q0 2.8.8 5t2 3.7a9 9 0 0 0 6.9 3 12 12 0 0 0 6.4-1.8 13 13 0 0 0 3.8-4h.1l-.4 5.1h8.3a70 70 0 0 1 1.5-12l5.9-31zM289 218q-.6 3-1.7 4.9a9 9 0 0 1-3.1 3.2q-1.2.6-2.2.6-2 0-3.2-1.5-1-1.5-1.1-4.3a15 15 0 0 1 2.6-8.4 10 10 0 0 1 3.9-3.3 7 7 0 0 1 5-.3q.9.3 1.5.8zm61.4-15.7a39 39 0 0 0-7.3-.7 27 27 0 0 0-8.2 1.2 20 20 0 0 0-13.3 14.2 24 24 0 0 0-.8 6.3q0 3.2 1.2 5.7a9 9 0 0 0 3.3 3.7q2 1.4 5 1.4a11 11 0 0 0 7.3-2.8q1.7-1.5 3.2-4h.1l-.2 3.2-.2 3h8.5a41 41 0 0 1 .3-7l1-7 3-16.4zm-8.7 13.7q-.5 2.8-1.4 4.9-.8 2-1.9 3.3l-1.7 1.7-.4.2q-1.2.6-2.2.6-1.2 0-2.1-.6t-1.2-1.8q-.5-1.2-.5-2.7 0-1.8.6-3.6t1.4-3.5 2.1-3q1-1.2 2.3-1.9l.6-.3q1.5-.8 3.3-.8h1.3l1.1.2zm-38.2 15.2-.4 2.2h9.2l5.8-31.1H309z"/><g fill="#df4013"><path d="m246.3 136 .3-1.4q-.1-1.6-2.5-1.4-3.1.6-6.3 1.8a19 19 0 0 1-11.6 2.1h-.2l-7.3-2.2-2.4-.8-7.3-3.4a3 3 0 0 1 1-1.7 8 8 0 0 1 2.9-1.5l-1.3-1.4-2.8.7-.3.4q-.3.3-1 .5c-.9.2-1.1 1-1.8 1.6l-2.1-1q-.8-.1-1.4-.5a25 25 0 0 1 6.3-9.7l2.3-2.3h-1.2l-1.1.7a28 28 0 0 0-5 4.7q-1.3 1.6-2 3.6c-.3.5.1 1.5-.8 2.7l-3.1-1-2.2-.6a17 17 0 0 1 2.2-7c1.8-2.8 4.9-5.1 4.7-5.3l-1-.3c-.5-.2-1 0-1.4-.2q-1 1.4-2.3 2.6-1.7 1.6-3 3.8c-1.2 2.1-1.2 4-1.7 6l-6.2-.4-.5-3.3-.1-.8.1-.4 1-2.6c2-2.5 6.3-5.3 6.3-5.8l-.3-1.9c-4.8 1.1-2 1.6-3.1 2.1-.3.2-.8-.1-1 0q-1.5 1.5-2.9 3.5-2 2.3-2 4.3c.1.3-.4.1-.5.4l.3 4.7-2.2.1-1.6.1-.1-2q-.9-1.3 0-3l.2-3.1q0-2.5 1.5-4l.7-.7-.6-2.7-.1.1c-5 3.2-3.3 5.4-3.9 9.6l-.8 6.2-.4.1-6.6 2-1 .3-13 7.4-5.2 3 .3.7v-.4c1.4 0 2.5 0 3.7-1.3l1.2-1 2-2.1h1l-1.5 1.2c-.3.3 0 .8.5.6q1.2-1 2.5-1c.7 0 1 .9.4 1q-1.9.7-3.5 2.5l-.9.1q-.2 0-.5.3l-.9.8c-.5.3-1.2-.1-1.7.1s-.6 1-1 1.2l-.9-.6c2 8-8.3 9.3-10.6 2.7l-4.1.7-16.5 2.5c2 1.4 6 1 10.2.7 1.3 0 1 1 0 1l-9.4.4 15.6 1.8 1.2.1c2.8.4 2.5.9 3.7 1.3a108 108 0 0 1-10.7 1.2c-2.1.5-3.7 1.2-5.7 1.6q1.9.8 3.8.4l.9 1.5a105 105 0 0 1 14.3.3l11.8 1.6 6.6.8-1.6 2v2.8l.7-.2q.4-.4.5-1l-.7-.8 1-.2q1.2-.8 2.4-2.5a65 65 0 0 0 3.7-7q2-1 1 1.2c-.7 2.4-2.4 5.3-6.7 9.8q-1.2 2.1-1 4.7 1 1 1.1 2.8.6.6 1-.1.6 0 1-.6c-1-1.2-1-2.5-1.3-3.9.7-1.6 1.2-3.6 2.4-2.9q.3.7 0 1.7c0 2 .7 2.6 1.3 3.2q1 1 2.4 1.4-2.7-2.3-2.5-8 .1-2.6 1.9-5c.5-.9 1.1-.2.7.4l-1 1.8c-1 1.8-.8 3.6-.6 5.3q1 1.1 1.2 3 .3.3.5 0V166l.1-1v-.2q-.9-2.8 0-5c.5-1 1.3-.2.9.7q-.7 2.7.6 4.1c.2.2 0 .8.2 1q1.8 1 3.7 1.2l-1.3-2 .9-.4q0-1 .9-1.4a14 14 0 0 1-4.4-4.4c-.3-.6.2-1.3 1.4.3a16 16 0 0 0 3.6 3.5h1l1.9-.5.7.5q.6.3 1.2 0l.3-.1q.6-.3.5-.9-.2 0-.5-.3-.5-.4-.8-1.2-2.4.4-4.3-.6-1.2-.8-2.3-2h2.3l1.1-.2c0-.2.2-.5-.4-.7h-.7l-.2-.2q-1.2-.5-1.9-1.5-.1-1.6.2-2.8a4 4 0 0 1 2-.7h.2l.5-1.4q.4.8.2 1.7.9.4 2.5.6.7.9 1.3 0h.3q.6 0 1.1-.4l3.4.1h.3l7.5-.2q.9 0 1.3-.8.9.9 1.5 0l.7-.1.8-.1q1.4-.2 2.6.1l1-1.8c0 .4-.4.8.4 1.2q.6-.1 1.1-1h.1q.7.6 1.4 0l3.5-1 2.4-.6 1.2.3.5-1.3 2-.2q0 .4.3.8l2.6-.2a4 4 0 0 0 2.4.4l1.7-1.3 4.6.2 3.7.2 1.6.7 5.6 4q1 .7 1.7 1.6l2.4-2.4-7.1-2.4-.2-1-1.8-.6q.6-.7 1-1.5l4.5.6q-1.2.7-3.3.2.4.6 0 1a36 36 0 0 0 7.4 2.2l2-3.5q-5.3 0-10.5-.7l.4-2q1.8 0 3.5.2l2.5 1.3c.6.2 3.1-.3 4.4.1l-1-1.1h1.3l.6-1.2q-1.1.3-2.8.2-.4-.3-1-.4c-1.8-.2-3.5.1-5.4-.1v-1.1c3.1.1 6.5-.2 9.7 0l.8-2.9c-.4 0-1 .6-1.3.3-1-.8-5.3.7-6.7 0l6.6-2zm-106.5 10.2a25 25 0 0 0-6.2 2.3c-.3.2-.4-.4-.6-.3-.4 0-.8-.7-.5-.8q2.5-.3 4.4-1c2.3-.9 3.7-1.9 3.5-1.6q.2.8 1 1.3zm51.3-18.3q.6.5 1.7.1h2l2.8 1.2 1.8.8-.3 1.9h-1.5q-2.7-.3-5 .2l-3.1-1-.6-2.3zm-14.4-.9 5-.7 4.5-.6 1.2-.2v1c-.4 0-.6.6-.9.6h-.3q-2.3-.2-4.4 0-2.3.3-5 .4l-.6-.4zm-11 7.1q-.6-1.6.6-2.7c1 .3 1.2-1 2.8-1.1h1l1.7-.5q1.5 0 2.8 1.6.4 1.4 0 2.7l-.5 1.2c-1.8-1.6-3-1-4 .4l-.2.4a7 7 0 0 0-4.1-2m4.5 6.3q-.5-1 0-1.7l.4-.4q1.8 0 2.8-.9 1.2.2 2.3-.4h2.2q.8 1.3 2 2.2v1.2q-.3.8-1.4 1.4l-1.8-.2q-1.8 0-3.6.7H172a7 7 0 0 1-1.7-1.9m10 8.9c-1.6.2-3 .3-2.7-.3h-.8l-2.6.2q-1 0-2-1.2v-1.7q.3-1 1.2-1 .8.5 2.6-.3h1.2q1.8-1.1 3.1-.5 1.3 1 1.2 2.9.1 1.5-1.2 1.9m1-16.6h-1.5l-2.1-2.3.1-1.6q1.8-.7 4-.9h1c1.2 0 2.4.2 3 1.5l.1 2.2a15 15 0 0 0-4.5 1m1.2 5.4c0-1 1-1.3.9-2a9 9 0 0 0 3-.3q.4 0 1-.4 1.8-.2 2.8 1.6l-.1 1.8q-.6.8-2 1.2h-1.8l-2.3-.2zm8 10.3a18 18 0 0 1-4.5 0q-2-1.7-1.6-2.7.3-2.1 2-2.5l.4-.1c1.3.3 1.5-.2 1.8-.7q1.2-.3 2 .2 1 2 2.3 3.1v1.7q-1.2.2-2.4 1m10.3-2.5q-1.2.8-2 2h-1.1q-2.9.1-2.8-2.7-.9-1.2.2-2.4c.3-1 .9.1 1.5 0l1-.4q2-.4 2.2.5 0 .8 1 .8-.2 1.3 0 2.2m.4-7.5a24 24 0 0 1-6 .8q-1.7-.9-1.5-1.8c-.7-.6-1-1.2 0-2 .6-.8 1.6-.6 2.7-.2q.3.3 1.3.2c1 0 2.6-.2 3 .5 1 .1.8 1.2.5 2.5m.7-10.2 1.8.6 1.5.6.2 1-1.7-.1zm1.8 5q-.4-.9 0-1.3l.5-.3q.7-1 1.6-.2a7 7 0 0 0 4.3.5q.4.6.2 1.4-.2.5-.8.6h-1l-2 .1c-.4-1-3 0-2.8-.7m7 12.3a4 4 0 0 0-2.1.6c-1.4.1-3.2 0-2.9-1.7 0-.2-.4-.3-.4-.6q.3-1.5 1.6-1.8.4.5 1.7.5h2.2c1 1 .7 2 0 3m.5-5.7q-.7.6-1.6 0-.4-.4-1-.6a7 7 0 0 0-2.7-.1c-2-.5-1.4-1.8-1-3q1.2 0 1.3-1 .3 1 1.3 1h2q.8 0 1.2-.5.3.7 1 1.2.6.3 1 .1.2 2.2-1.5 3Zm3.6-4.1c.6-.5.7-1.6 1-1.5l3 1.1.4.2q.6 1.1.4 2l-.8-.1-2-.5c-1-.3-2.2-.8-2-1.2m5.1 9q-.7.1-1 .8h-.1c-.4-.2-.4-.9-1.3-.5q-2 0-3.8-.7l.4-3 .8.3 2.1 1.4h2.4c.4.1 1.2 1.2.5 1.8m.6-4-1.7-.2q-.9-.2-1.7-.8-1.4.8-1.5-1 0-1.2 1.4-1.6l1.8.5 3.2.8a5 5 0 0 1-1.5 2.3m6.6 4.8h-.8l-.8.2-.2-.7c0-.2.7-.3 1-.3s1-.2 1 0q0 .6-.2.8"/><path d="m150.9 140.3.7.6q0-.7-.4-1.5z"/></g><path fill="#575756" fill-rule="evenodd" d="M179.1 113q1.5-1.5 2.9-3.3c1.4-1.6 2.7-1.2 3.1-.5.3.2-.5.6-1.3 1-.6-.8-1 0-1 .7a16 16 0 0 0-3.7 6zm0 12.3v1.2q4.3-.7 9.3-.6c9.5.7 18.3 4.1 26.9 8.4 1.3.5 9 3.9 15.5 3.5 3.4-.2 7.4-3 13.2-4 .6-.2 1.8-.4 2 .7 0 2.2-.8 6-2.3 9.7-1.6 4-4 7.6-6 8.6-2.6-1.6-4.9-3-7.2-5-2.3.3-1-1.3-1.8-1.3-2-.1-2.1-1-2.8-.7-2.3.7-4.2-.5-6.1 1.4l-8.1 2.7c-5.8 2-12.9 4.4-14.9 4.8-5.4.8-6.9 2.5-16.1 2.4h-1.5v.9c2.3 0 4.7.3 5.8.1 7.5-1 13.9-1.6 15.3-3 .8-.2 2.3-.1 3.1-.3.3-.1 0-.5.3-.7l4.3-1.4c4.6-1.6 12.5-4.8 13.7-4.8 2-.2 4.9-1.5 6-.6q.2.4.7.6c0 1.7 1.3.6 1.8.7q3.3 2.6 7 4.7 0 .4-.3.8c-.4.5.9 1 2-.2q7.4-8.6 8-19.7c0-1.3-1.3-1.8-4.8-1-3.2.7-6 2-9.1 2.8-4.3 1.2-11 .1-14.3-1.7-1.1-1.5-1.7-.7-2.2-.8-1.1-.3-1.6-1-2.7-1-.2-.1-.6-.6-.8-.6q-1.7-.4-3.6-1.4 0-.6.6-.6 1.3-.7 2.5-1.7a9 9 0 0 1 3.8-1c.7 0 .7-.6 0-.9q-1-.2-2.3-.2-.9 0-1.5.3c-.4.2.1.8-1.6 1-1.4.3-1.9 1.5-2.6 2.6q-2.7-1.3-5.6-2.4 2.3-4.9 5.3-8.4 1.8-1.8 3.8-3.1c.3-.5-1.2-1-1.4-.9l-1.2.9c-.3.1 1.3 0 1 .2-3 2.3-6.5 5.4-8.4 11q-3-1-6-1.7c1-4.3 2.4-8.9 6.7-12.7 1 0 1.7.2 1.4-.8l1.2-.9c.5-.3-.8-.6-1.3 0l-.7.6c-.9.1-1.7-.4-2.2 1.4a18 18 0 0 0-6 12.4 56 56 0 0 0-10-.7c1.6-4.7 3.9-9.5 8.1-13.7 2.2-.2 1-.9 1.4-1.3 1.1-.8.3-1.3-.7-.7l-1.1 1c-1.6 0-.8.5-1.1.8-5.3 6-7 10.2-7.4 13.9q-2.4 0-5 .4m0 34.6h1.8c.4 0-.6.4-1.8.4zm0 2.1v-.3h1.9c.2-.2.1.2 0 .2zm-3.7-44.7 3.7-4.2v3.9l-.4 1.1c-.4 1.4-.5 5.4-1.2 7.5l1.6-.3v1.1l-3.7.7v-1.3l1.3-.3c-.6-3.3.6-7 1.8-10.5q-1.8 1.5-3 3.4zm3.7 40.7h-3.7v-1h3.7zm-3.7 0q.7.7 2.3 1.5.5-.3.4.1l1 .3v.4q-.8 0-1.7-.4l-2-1zm3.7 3.7v.3q-.9.1-1.8-.5c-.2 0-.2-.4 0-.3q.8.5 1.8.5M146.5 138q1.6 0 3.3.5c5-3 11.7-9.1 22-11.6a13 13 0 0 1 3.6-9.5v1.2q-2.8 4-3 8.1l3-.8v1.4a42 42 0 0 0-11 3.9c-4 2-8.8 5.4-13.3 8.2 2.5 3 1.8 6.8-.8 8.6-.6.4-1.2-.6-.6-.9 1.6-1.1 3.2-5.1-.2-7.5q-1.5-.7-3-.7zm29 20h-.2zv.8a8 8 0 0 1-3.7-7.3c0-.5.5-.8.6 0-.2 2.8 1 4.3 2 5.6h1.1zm-29-6.4v1.2l6.2-.2c8.2-.4 13.8-3 15-6 .5 0 1.3-.5 1-.8l-2.5-1.6c-.1-.1-.6.4-.5.4q.8.6 1.2 1.3a7 7 0 0 1-3 3 37 37 0 0 1-17.4 2.7m0 5 1.5.1c2.9.2 4.5 1.4 15 2.3 3-2.3 4.3-3.7 5-6.6.4-1.1 1.4-1.8 1 .2-.2 1.2-1.5 4.8-5 7.2a9 9 0 0 0-1.2 12c.5.7-.7 1-1.2-.2q-3.7-6.5.6-11.6c-2.8-.7-8.3-.8-11.7-1.3l-4-.6zm0-11q1.2 0 2-.6 1-1.6-1-1.7c-1-.3-.7-1 0-1 .8.2 1-.4.5-.8q-.7-.4-1.5-.4zm-25.9.5q10.6-.3 20.3-2.8c.3-3 2.7-5 5.6-5.3v.9c-2.3 0-4.4 1.5-4.6 4.7q0 3 4 4.4c.3.1 0 1-.5.8q-4-1.5-4.4-4.6a60 60 0 0 1-20.5 2.7c-1.1 0-1.9 1.5-.4 1.7q11.1.8 21 2.4l5.4.6v1.2q-9-.2-18.3 1.6-2.6.8-5.2 1.2c-.7.2.2 1.4 1 1.3l2-.1c8.7-1.4 16.3-.7 20.5-.2v1.5c-4.7-.7-5.6-.7-9.5-.7-4.4.2-8.3.3-13.3.3-1 0-2.6-2.2-1.3-2.6 1.2-.6 4.8-1.4 7.4-2.2.7-.3 1.5 0 3.3-.1l6.6-1c-7-1.2-13.5-1.8-20.5-2.5-1.6-.2-1.2-3.2 1.4-3.2m26-5q-1.2 0-2 1.1-1 2 .8 3.3l1.1.2z"/><path fill="#575756" fill-rule="evenodd" d="M228.1 139.7q2.6.5 4.1.3-.1-1.2-1-2.2l.7-.1.5 1q6.4-1 12.4-2.8c.7-.2.6.3 0 .4-4 1.1-8.1 2.4-12.1 3v.7q6.8.4 12.8-1.2l-.3.7a42 42 0 0 1-11.5 1.3q.3.8.3 1.7 5.3.4 10.4-.2 0 .4-.3.7-5 .6-10.1.2l-.2 1.1q3.8.8 9.7.6l-.4.7c-3.1.2-6.7 0-9.7-.5l-.6 1q3.9 1.1 7.9 1.8c.2 0 0 .4-.1.4l-8-1.9-.5.5q4.2 1.8 8.6 3l-.3.4c-2.7-.8-5.8-1.8-8.4-3q2.9 2.4 5.8 4.1c.4.2-.2.3-.5 0q-3-1.8-5.8-3.8l-.8.4h-.6q0-.7-.3-1.2l-.8-.3-.9-.2v-.3l3 .6c.5 0 1.5-1.6.9-1.6l-3.9-.5v-.8q2.2.4 4.6.5a3 3 0 0 0-.1-3.4l-4.5-.5zm-10-2.7 3.5.9q-.3-.8-1.2-1.7l1.1.3 1 1.6 5.6 1.6v.6q-3-.4-5-1.2v3.3q2.4.9 5 1.3v.8q-2.7-.5-5.2-1.2l-.7 2.5h4.2l1.7.2v.3l-1.4-.2-8.6.5v-.6l3-.2.9-3-3.9-.7v-.7l4 .5q.3-1.6-.1-3.2l-3.9-1zm-4.7-2 .5 1 4.2 1v.7l-4-1 .2 4.2 3.8.5v.7l-3.9-.4-.8 4.2v-11Zm4.7 11.6-4.7.1v-.6l4.7-.1zm-10-12 5 1.2a12 12 0 0 0-1.9-3.5l1 .5q.8 1 1.2 2.2v3.5l-.1-2-5.2-1zm5.3 12.1h-.2c-.5 1.3-1.3 2.2-1.5 3.2l-.7.2q.4-1.5 1.2-3.1l-4 1v-.5l4.3-1.2a23 23 0 0 0 1-4.4v4l-.1.2zm0-6v.7l-5.2-.2v-.8zm-11-7.2 5.7 1.2v.8l-5.4-1.2q.8 2.9.7 5.8l4.7.3v.7l-4.6-.2q-.1 3.9-1.1 7v-3.3q.3-2 .2-3.8h-.2v-.8h.2q.1-2-.2-4zm5.8 14.6v-.6q-3 .8-5.7 1.1v.6q2.7-.4 5.7-1.2Zm-11.3-14.8 4.8.1a15 15 0 0 0-2.5-4.5c-.2-.2.3-.3.5 0 1.6 1.7 2 2.7 2.8 4.6v2.5l-.4-1.8-5.2-.2zm5.6 16h-.5a17 17 0 0 1-2.3 4.6l-1 .3a32 32 0 0 0 2.6-4.7l-4.4.6v-.7q2.5-.2 4.6-.7l1-4v3.2l-.3.7h.3zm0-9.3v.8l-5.6.2v-.8zm-10.9-6.8h5.3v.8h-5.3zm5.3 16.9-3.6.2v3.8c-.1.4-.6.3-.6 0v-3.7l-1.1.1v-.6l1.1-.1q.3-4.2-.3-8.4h-.8v-.7h.5l-.5-2.5v-2.7q.8 2.3 1.3 5l4-.3v.8q-2 0-3.8.3.4 4 .3 8.4 1.8 0 3.5-.3zm-11.2-16.8h4.2a21 21 0 0 0-4.1-5.5v-1a26 26 0 0 1 5 6.4h.8v.8h-.5l.5 1.5v2.7l-1.3-4h-4.6zm5.9 17.2-5.8.3v-.6q3 0 5.8-.3zm0-9.8v.8l-5.8.5v-.8zm-39.3.6q5.8-3 12.7-4.5a8 8 0 0 0-3-2.8c-.3-.1-.1-.8.4-.6q2.1 1.4 3.6 3.2 5.6-1.5 11.7-2.5a31 31 0 0 0-5.2-6.2l1-.3c2 2 4 4.3 5.1 6.4l7.2-.7v1q-3.3.1-6.4.7a62 62 0 0 1 3.2 6.6l3.2-.4v.8l-3 .5a32 32 0 0 1 1.5 7.7h1.5v.6l-1.5.1-.2 6.2h-.8q.4-3 .2-6.2l-6-.1c-.3 0-.3-.5.1-.5l5.8-.1q-.1-3.7-1.4-7.6l-6.6 1c-.5 0-.7-.5 0-.7l6.3-1.2c-1-2-2-4.5-3.4-6.6l-11.5 2.4q1.5 2 1.9 3.6c.2 1-.8 1-.9.4a8 8 0 0 0-2-3.7 39 39 0 0 0-13.2 4.6q0-.6-.3-1Zm33.4-13.5v-1l-.9-1-1 .1zm-21 44.2h-.7c-.6-2.8-1-4.9.3-7.8.7-1.4 2.3-1.6 2.3-.6-.3 3.5 1.1 5 3.7 6q1.9.6.8-1l-1.7-3.2q-.4-1.1.6-.7l4.3 1.5c.3 0 .3-.5 0-.7l-1.7-1.4q-.8-.7.3-.5 4.3.8 8.4.3 2.1-.6.2.5-2.3 1.2-5.8.8-.9-.2-.3.4l1 1c.6.3 0 1-.7.8l-4.4-1.5q-.9-.5-.3.4.8 2 2.4 4c.4.5-1.8.3-2.8.1-1.6-.2-4.4-1.6-4.7-4.5v-1.6q-.4-.3-.9.1c-1.2 2.7-.9 5.1-.4 7.6Z"/><path fill="#575756" fill-rule="evenodd" d="M187 154.3v-1l1.5-.3c.7.4.4.7 0 1a2 2 0 0 1-1.5.3m17.8-3.5c-.1-.2-.4-.4.2-.7q.8.2 1.4-.2.6.1 0 .8-.8.5-1.6 0m12-6.7-.3-.7h1.4q.3.3.3.6-.8.4-1.4.1m-9.7 1.2q-.8-.5 0-.9l1-.2q.6.5 0 .7zm-10.1 1.1c-.3-.3-.6-.5 0-.8l1-.4c.4.4.9.4.3 1zm-10.4 1q-1.2-.5 0-1h1.7q.8.3-.1 1-.7-.2-1.6 0m-1-8.2c-.3-.1-.9 0-.3-1a4 4 0 0 1 2-.2q.7.4 0 .7-.8-.1-1.7.5m10.6-.7q-.8.3-.7-.6.6-.5 2-.6.9.4 0 1-.9-.6-1.3.2m10.5-.3q-.6-.4 0-.8t1.4 0q.8.6-.1.8zm10.5 1.5v-.8q.8 0 1.3.4-.2.2-.1.6zm-1-3.4-.2-.6q.2-.8 1.2-.2-.3.5 0 1-.6 0-1-.2m-10.3-4.9q-1 0-.7.6t1 .9q1 .1 1-.4a2 2 0 0 1-1.3-1m-12.5-1.7q-.8-.3.2-.7h1.8q.9.5 0 .8zm-12.2 1.7q-1.2-.6 0-1 1 0 1.4-.5 1.2.4.1 1.2zm-13 1.5q-.5-.3 0-1l1.2-.2q1.8.1 0 1zm5.5 7q-.9 0-.6-.9.9-.6 1.8-.7 1 .5.3 1.3-.8-.1-1.6.4Zm4.9 7.7q-.4-.2-.5-.8.7-.4 1.7-.2v.6q-.6 0-1.2.4m-1.4 7.4q-1-.2-.2-.6 0-.2 1.1-.3.3.4 0 .8zm50.7-12.5q-.9-.4-.6-.8.8.5 1.5 0 0 .8-.9.8m-1.4-4.4q0 .7.5.8.9-.2.6-.7zM136 120.6h1.8v-12.8h85v12.6h1.7v-14.5h-88.6zm88.5 41.3h-1.9v12.8h-85v-12.6h-1.7v14.5h88.6z"/></svg>