<svg xmlns="http://www.w3.org/2000/svg" viewBox="0 0 108.479 108.479">
  <g transform="translate(0 -188.52)">
    <rect width="15.255" height="2.87" x="240.122" y="95.365" fill="#333" ry="1.256" transform="matrix(.5927 .80542 -.79631 .60489 0 0)"/>
    <path fill="#ff682a" d="M74.096 236.293c.82-12.495-2.482-24.646-9.85-36.458-6.47-7.901-14.696-10.858-26.608-3.454-11.575 9.556-10.13 15.332-11.768 22.003.22 7.958-.687 15.776 2.046 24.049 3.002 6.337 5.654 13.023 12.28 15.734 6.418 1.158 13.12.69 20.468-3.454 9.81-2.261 10.734-10.986 13.432-18.42z"/>
    <path fill="#333" d="M51.928 228.168c.495-.167.952-.567 1.56-.057 3.517 13.33 11.848 22.111 17.33 2.398.356-.696.622-.653 1.084.151-4.78 24.744-19.378 11.452-19.974-2.492z"/>
  </g>
  <g fill="#333" transform="translate(0 -188.52)">
    <rect width="66.368" height="2.413" x="22.04" y="211.299" ry="1.207" transform="rotate(-1.695) skewX(.039)"/>
    <rect width="22.711" height="2.645" x="172.107" y="-152.79" ry="1.262" transform="matrix(-.48173 .87632 -.79896 -.60138 0 0)"/>
    <rect width="11.293" height="3.062" x="215.355" y="185.975" ry="1.07" transform="matrix(.74386 .66834 -.6458 .7635 0 0)"/>
    <rect width="15.275" height="3.229" x="-129.497" y="252.238" ry="1.128" transform="matrix(.71961 -.69438 .6066 .795 0 0)"/>
    <rect width="36.458" height="2.942" x="254.323" y="64.008" ry=".841" transform="rotate(65.056)"/>
    <rect width="32.108" height="2.814" x="-264.488" y="120.799" ry="1.207" transform="rotate(-72.984)"/>
    <path d="M57.658 220.946a1.643 1.453-59.898 0 1 .143 2.194 1.643 1.453-59.898 0 1-2.087.448 1.643 1.453-59.898 0 1-.259-2.169 1.643 1.453-59.898 0 1 2.072-.569M67.727 220.687a1.974 1.754-57.716 0 1 .173 2.628 1.974 1.754-57.716 0 1-2.525.537 1.974 1.754-57.716 0 1-.313-2.598 1.974 1.754-57.716 0 1 2.507-.682"/>
  </g>
</svg>
