<svg xmlns="http://www.w3.org/2000/svg" viewBox="0 0 500 430.28"><defs><style>.cls-1{fill:#333a46}.cls-2{fill:#7ac0bc}.cls-3{fill:#fff}</style></defs><g id="Ebene_2" data-name="Ebene 2"><g id="social_feed_" data-name="social feed +"><path d="M405.52 364.46H0L94.48 0H500l-94.48 364.46zM49.43 390.62a18.91 18.91 0 0 1 5.46 3.38l-2.6 4.29a20.54 20.54 0 0 0-4.56-2.51 12.67 12.67 0 0 0-4.56-.82 7.44 7.44 0 0 0-4.73 1.37 5 5 0 0 0-.1 7.44 17.92 17.92 0 0 0 5.89 2.59q5.87 1.62 8.76 4.44a10.22 10.22 0 0 1 2.9 7.69q0 5.78-4 8.81a15.88 15.88 0 0 1-9.82 3 18.29 18.29 0 0 1-13.26-5.1L32 421a14.93 14.93 0 0 0 9.86 3.78 8.71 8.71 0 0 0 5.5-1.59 5.22 5.22 0 0 0 2-4.33 6.29 6.29 0 0 0-.73-3.22 6.17 6.17 0 0 0-2.54-2.15 32.6 32.6 0 0 0-5.26-2q-5.59-1.62-8.09-4.36a10 10 0 0 1-2.5-7 9.79 9.79 0 0 1 1.76-5.4 10.68 10.68 0 0 1 4.52-3.85 15.1 15.1 0 0 1 6.5-1.37 17.75 17.75 0 0 1 6.41 1.11ZM87.56 395q4.09 5.47 4.09 14.87a28.46 28.46 0 0 1-1.86 10.69 15.92 15.92 0 0 1-5.4 7.18 13.94 13.94 0 0 1-8.39 2.54 13.6 13.6 0 0 1-11.52-5.47q-4.13-5.47-4.13-14.88a28.5 28.5 0 0 1 1.86-10.69 16.1 16.1 0 0 1 5.4-7.18 14 14 0 0 1 8.46-2.55A13.52 13.52 0 0 1 87.56 395Zm-20.62 14.93q0 14.88 9.06 14.88t9.06-14.95q0-14.88-9-14.87t-9.12 14.94ZM118.62 390.51a15.52 15.52 0 0 1 5 3.22l-2.93 4.27a14.44 14.44 0 0 0-3.63-2.18 10.45 10.45 0 0 0-3.9-.71 7.4 7.4 0 0 0-6.62 3.78q-2.37 3.76-2.37 11.17T106.5 421a7.54 7.54 0 0 0 6.66 3.51 10 10 0 0 0 3.8-.7 18.69 18.69 0 0 0 3.86-2.26l2.8 4.44a15.69 15.69 0 0 1-10.72 4.29 13.38 13.38 0 0 1-11.22-5.28q-4.11-5.34-4.1-14.73a29.27 29.27 0 0 1 1.86-10.88 16.54 16.54 0 0 1 5.3-7.25 13.13 13.13 0 0 1 8.16-2.59 15.73 15.73 0 0 1 5.72.96ZM136.41 373a4.8 4.8 0 0 1 1.2 3.33 4.65 4.65 0 0 1-1.2 3.29 4.09 4.09 0 0 1-3.13 1.3 4 4 0 0 1-3.07-1.3 4.65 4.65 0 0 1-1.2-3.29 4.8 4.8 0 0 1 1.2-3.33 3.93 3.93 0 0 1 3.07-1.33 4 4 0 0 1 3.13 1.33Zm0 56.39h-6.13v-39h6.13ZM171.77 423.81a4.57 4.57 0 0 0 2.2 1.74l-1.4 4.73a8.73 8.73 0 0 1-4.4-1.7 7.87 7.87 0 0 1-2.46-4.14 11.45 11.45 0 0 1-10.46 5.84 10.59 10.59 0 0 1-8.19-3.25 12.06 12.06 0 0 1-3-8.51q0-6.22 4-9.55t11.42-3.33h5.39v-2.88q0-4.15-1.8-5.92t-5.52-1.78a28.23 28.23 0 0 0-9.46 2.07l-1.53-5a32.35 32.35 0 0 1 12.12-2.66q6.19 0 9.26 3.37t3.06 9.58v17.83a6.65 6.65 0 0 0 .77 3.56Zm-6.86-4.7v-8.95h-4.59q-9.73 0-9.73 8a7.83 7.83 0 0 0 1.53 5.25 5.66 5.66 0 0 0 4.53 1.78q5.27-.01 8.26-6.08ZM183.59 428a9.35 9.35 0 0 1-2-6.33v-47l6.12-.81v47.65a4.35 4.35 0 0 0 .5 2.37 1.92 1.92 0 0 0 1.7.74 5.64 5.64 0 0 0 2.27-.44l1.6 4.73a9.21 9.21 0 0 1-4.87 1.33 6.75 6.75 0 0 1-5.32-2.24ZM223.72 380.74a6.35 6.35 0 0 0-1.2 4.26v5.4h8.53l-.67 5.25h-7.86v33.75h-6.13v-33.75h-6.26v-5.25h6.26v-5.33a11.32 11.32 0 0 1 2.9-8.1q2.9-3.08 8.09-3.07a17.62 17.62 0 0 1 4.3.48 22.79 22.79 0 0 1 4.09 1.51l-1.93 5a13.78 13.78 0 0 0-6.12-1.48 5.09 5.09 0 0 0-4 1.33ZM262.15 412.23h-22.38q.4 6.43 2.93 9.47a8.12 8.12 0 0 0 6.53 3 13 13 0 0 0 4.66-.81 18.18 18.18 0 0 0 4.46-2.59l2.65 4.1a18.24 18.24 0 0 1-12.26 4.88q-7.32 0-11.42-5.32t-4.1-14.66a30.39 30.39 0 0 1 1.78-10.76 16.78 16.78 0 0 1 5.06-7.37 12 12 0 0 1 7.76-2.66q7 0 10.72 5.11t3.73 14.13c.01 1.14-.03 2.25-.12 3.48Zm-5.93-5.48q0-5.78-2.06-8.8a7 7 0 0 0-6.2-3q-7.53 0-8.19 12.29h16.45ZM297.11 412.23h-22.38q.4 6.43 2.93 9.47a8.13 8.13 0 0 0 6.53 3 13 13 0 0 0 4.66-.81 18.41 18.41 0 0 0 4.47-2.59l2.68 4.1a18.24 18.24 0 0 1-12.26 4.88q-7.32 0-11.42-5.32t-4.09-14.66a30.39 30.39 0 0 1 1.77-10.76 17 17 0 0 1 5.06-7.37 12 12 0 0 1 7.76-2.66q7 0 10.73 5.11t3.73 14.13c-.03 1.14-.08 2.25-.17 3.48Zm-5.93-5.48c0-3.85-.68-6.78-2.06-8.8a7 7 0 0 0-6.19-3q-7.53 0-8.2 12.29h16.45ZM332.88 374.71v54.69h-5.4l-.6-5.41a13.34 13.34 0 0 1-4.33 4.63 10.49 10.49 0 0 1-5.79 1.66 11 11 0 0 1-9.76-5.47q-3.5-5.47-3.5-14.73a31.54 31.54 0 0 1 1.67-10.65 16.53 16.53 0 0 1 4.79-7.29 11.07 11.07 0 0 1 7.33-2.63q5.4 0 9.46 4.81V373.9Zm-10 48.73a15.92 15.92 0 0 0 3.87-4.33V400a13.91 13.91 0 0 0-3.7-3.81 7.81 7.81 0 0 0-4.43-1.3 7 7 0 0 0-6.29 3.78q-2.24 3.76-2.23 11.24t2.06 11.25a6.47 6.47 0 0 0 5.93 3.7 8 8 0 0 0 4.79-1.42ZM375.56 400.31h10.06v9h-10.06v11.55h-8.72v-11.52h-10.12v-9h10.12v-11.57h8.72Z" class="cls-1"/><path d="M269.19 205.74H111.38A15.4 15.4 0 0 0 96 221.12v58.66a15.4 15.4 0 0 0 15.38 15.39h9v24.15a4.39 4.39 0 0 0 2.71 4.05 4.28 4.28 0 0 0 1.68.34 4.39 4.39 0 0 0 3.1-1.29l41.06-27.25h100.26a15.41 15.41 0 0 0 15.39-15.39v-58.66a15.4 15.4 0 0 0-15.39-15.38Zm0 80.66H167.11a4.36 4.36 0 0 0-3 1.14l-.16.14-34.84 21v-18a2.62 2.62 0 0 0 0-.41 4.37 4.37 0 0 0-4.36-4h-13.37a6.63 6.63 0 0 1-6.61-6.62v-58.53a6.62 6.62 0 0 1 6.61-6.61h157.81a6.62 6.62 0 0 1 6.62 6.61v58.66a6.63 6.63 0 0 1-6.62 6.62Z" class="cls-2"/><path d="M245.71 233.87H134.52a4.39 4.39 0 0 0 0 8.77h111.19a4.39 4.39 0 1 0 0-8.77ZM215.21 259h-80.69a4.39 4.39 0 0 0 0 8.77h80.69a4.39 4.39 0 0 0 0-8.77Z" class="cls-2"/><path d="M187.81 100.37a15.4 15.4 0 0 0-15.39 15.38v58.67a15.41 15.41 0 0 0 15.39 15.38h100.27l41.06 27.26a4.39 4.39 0 0 0 7.49-3.11V189.8h9A15.4 15.4 0 0 0 361 174.42v-58.67a15.4 15.4 0 0 0-15.38-15.38Zm0 80.66a6.63 6.63 0 0 1-6.62-6.61v-58.67a6.63 6.63 0 0 1 6.62-6.61h157.81a6.62 6.62 0 0 1 6.61 6.61v58.67a6.62 6.62 0 0 1-6.61 6.61h-13.38a4.38 4.38 0 0 0-4.36 4 2.49 2.49 0 0 0 0 .4v18l-34.84-21-.16-.15a4.36 4.36 0 0 0-2.95-1.14Z" class="cls-3"/><path d="M211.29 128.5a4.39 4.39 0 1 0 0 8.77h111.19a4.39 4.39 0 0 0 0-8.77ZM241.79 153.61a4.39 4.39 0 0 0 0 8.77h80.69a4.39 4.39 0 0 0 0-8.77Z" class="cls-3"/><path d="M344.11 150.9a8.72 8.72 0 0 1-8.86-8.55v-23h-22.54a8.72 8.72 0 0 1-8.86-8.55V75.7a8.73 8.73 0 0 1 8.86-8.55h22.54v-23a8.71 8.71 0 0 1 8.86-8.55h34.31a8.72 8.72 0 0 1 8.86 8.55v23h22.53a8.72 8.72 0 0 1 8.86 8.55v35.11a8.71 8.71 0 0 1-8.86 8.55h-22.53v23a8.73 8.73 0 0 1-8.86 8.55Z" class="cls-2"/><path d="M378.42 41.28a3.06 3.06 0 0 1 3.19 2.89v25.77a3 3 0 0 0 3.18 2.88h25A3 3 0 0 1 413 75.7v35.11a3 3 0 0 1-3.19 2.88h-25a3 3 0 0 0-3.18 2.89v25.77a3 3 0 0 1-3.19 2.88h-34.33a3 3 0 0 1-3.19-2.88v-25.77a3 3 0 0 0-3.19-2.89h-25a3 3 0 0 1-3.19-2.88V75.7a3 3 0 0 1 3.19-2.88h25a3 3 0 0 0 3.19-2.88V44.17a3 3 0 0 1 3.19-2.89h34.31m0-11.33h-34.31a14.4 14.4 0 0 0-14.53 14.22v17.31h-16.87a14.4 14.4 0 0 0-14.53 14.22v35.11A14.4 14.4 0 0 0 312.71 125h16.87v17.32a14.4 14.4 0 0 0 14.53 14.22h34.31a14.39 14.39 0 0 0 14.52-14.22V125h16.87a14.4 14.4 0 0 0 14.53-14.22V75.7a14.4 14.4 0 0 0-14.53-14.22h-16.87V44.17A14.39 14.39 0 0 0 378.42 30Z" class="cls-1"/></g></g></svg>