<svg xmlns="http://www.w3.org/2000/svg" viewBox="0 0 100 100"><linearGradient id="a" x1="79.7" x2="20.5" y1="108.2" y2="-8.1" gradientUnits="userSpaceOnUse"><stop offset="0" stop-color="#264408"/><stop offset="1" stop-color="#6e8b4f"/></linearGradient><path fill="url(#a)" d="M.1 5.7C.1 2.6 2.7 0 5.8 0h88.6c3.1 0 5.7 2.6 5.7 5.7v88.6c0 3.1-2.6 5.7-5.7 5.7H5.8a6 6 0 0 1-5.7-5.8V5.7z"/><g fill="#fff"><g fill-rule="evenodd" opacity=".9"><path d="M84.9 88.8v.8l.1.1 1.1.6 1.7 1 1.2.7.1.2v1.5L85 91.3v.7l.1.1 3.9 2.3.1.3v1.4l-.2-.1-5.2-3-.1-.2v-6.3l.2.1 4.5 2.7.7.4.1.2v1.5l-4.2-2.6z"/><path d="M92.3 94.8V90a2 2 0 0 0-.6.4v4.7c0 .1 0 .2-.2.3l-1.2.7v-6.2l.1-.2 5.3-3.1.1-.1v6.1c0 .3-.1.4-.3.5l-1 .6-.2.1V89l-.7.4v4.8l-.1.1c-.3 0-.8.3-1.2.5z" opacity=".8"/><path d="M89.9 88.5a145.6 145.6 0 0 1-5.7-3.1l-.3-.2.2-.1 5.4-3.2h.3l5.4 3.2.1.1-.1.1-5.1 3-.2.2zm-3.2-3.2.2.1 2.6 1.5h.3l2.6-1.5.1-.1-.1-.1-2.7-1.5c-.1-.1-.2 0-.2 0l-2.6 1.5-.2.1z" opacity=".6"/></g><path d="M42.5 35.1c-1.6 0-3.1-.6-4.2-1.7a5.9 5.9 0 0 1-1.7-4.2c0-.4-.3-.8-.8-.8-.4 0-.8.4-.8.8a6 6 0 0 1-1.7 4.2 5.9 5.9 0 0 1-4.2 1.7c-.4 0-.8.4-.8.8s.4.8.8.8c3.3 0 5.9 2.6 5.9 5.9 0 .4.3.8.8.8.4 0 .8-.4.8-.8a6 6 0 0 1 5.9-5.9c.4 0 .8-.4.8-.8 0-.5-.4-.8-.8-.8zm-6.7 4a8 8 0 0 0-3.4-3.4c.7-.4 1.4-.8 1.9-1.4.6-.6 1.1-1.2 1.4-1.9.4.7.8 1.4 1.4 1.9.6.6 1.2 1 1.9 1.4-1.3.9-2.5 2.1-3.2 3.4zM28.4 29a4.1 4.1 0 0 1-4.2-4.1c0-.4-.3-.8-.8-.8-.4 0-.8.4-.8.8 0 2.3-1.9 4.1-4.2 4.1-.4 0-.8.4-.8.8s.3.8.8.8c2.3 0 4.2 1.9 4.2 4.1 0 .4.3.8.8.8.4 0 .8-.4.8-.8 0-2.3 1.9-4.1 4.2-4.1.4 0 .8-.4.8-.8 0-.5-.3-.8-.8-.8zm-4.9 2.8a6 6 0 0 0-2.1-2.1c.8-.5 1.6-1.2 2.1-2a5 5 0 0 0 2.1 2 7 7 0 0 0-2.1 2.1zm59.8-7.3c-2 0-3.6-1.6-3.6-3.6 0-.4-.3-.7-.7-.7-.4 0-.7.3-.7.7 0 2-1.6 3.6-3.6 3.6-.4 0-.7.3-.7.7s.3.7.7.7c2 0 3.6 1.6 3.6 3.6 0 .4.3.7.7.7.4 0 .7-.3.7-.7 0-2 1.6-3.6 3.6-3.6.4 0 .7-.3.7-.7 0-.4-.3-.7-.7-.7zM79.1 27c-.4-.7-1-1.3-1.8-1.8.7-.4 1.3-1 1.8-1.8.4.7 1 1.3 1.8 1.8a4 4 0 0 0-1.8 1.8zM19.7 44c1.7 0 3.1 1.4 3.1 3 0 .4.3.8.8.8.4 0 .8-.4.8-.8a3 3 0 0 1 3.1-3c.4 0 .8-.3.8-.8 0-.4-.3-.8-.8-.8a3.1 3.1 0 0 1-3.1-3c0-.4-.3-.8-.8-.8-.4 0-.8.4-.8.8a3 3 0 0 1-3.1 3c-.4 0-.8.3-.8.8 0 .4.3.8.8.8zm3.8-2.1c.3.5.8.9 1.3 1.3-.5.3-.9.8-1.3 1.3-.3-.5-.8-.9-1.3-1.3a4 4 0 0 0 1.3-1.3z" opacity=".55"/><path d="m81 45.4.6.2.4-.1c.3-.2.6-.5.6-.9v-5.3a1 1 0 0 0-.4-.8L66.1 25.9a3.2 3.2 0 0 0-3.9 0l-6.1 4.8v-1.9c0-.5-.4-1-1-1h-4.2a1 1 0 0 0-1 1v6.8l-3.9 3c-.2.2-.4.5-.4.8v5.3c0 .4.2.7.6.9.3.2.8.1 1-.1l.5-.4v9.7l-9.3-7.3a3.2 3.2 0 0 0-3.9 0L21.6 57.7c-.2.2-.4.5-.4.8v5.2c0 .4.2.7.6.9l.4.1.6-.2.5-.4v10.3h-1.1a1 1 0 0 0 0 2h59.3c.6 0 1-.4 1-1 0-.5-.4-1-1-1h-1.1V45l.6.4zM51.9 29.8h2.3v2.4L51.9 34v-4.2zm-4.3 10 15.8-12.5c.4-.3 1-.3 1.4 0l15.8 12.5v2.8L64.8 30.2l-.6-.2-.6.2-16 12.5v-2.9zM23.2 58.9l12.6-10c.4-.3 1-.3 1.4 0l10.5 8.3V60l-10.5-8.3c-.4-.3-.9-.3-1.2 0l-12.8 10v-2.8zm2.1 3.6 11.3-8.8 11.2 8.8v11.9h-4.4V62.7c0-.5-.4-1-1-1H30.7c-.6 0-1 .4-1 1v11.7h-4.4V62.5zm6.4 5.4h9.7v2.3h-9.7v-2.3zm9.7-2h-9.7v-2.2h9.7v2.2zm-9.7 6.3h9.7v2.3h-9.7v-2.3zM60.5 67s-.1 0 0 0c-.3 0-.6.1-.8.3a1 1 0 0 0-.3.7c0 .3.1.5.3.7.2.2.4.3.7.3h.1v5.4h-4.4V61.6h4.4V67zm18 7.4h-16V60.6c0-.5-.4-1-1-1h-6.4a1 1 0 0 0-1 1v13.9h-4.4v-31l14.4-11.3 14.4 11.3v30.9z"/><path d="M66.8 70h6.4c.5 0 1-.4 1-1v-8.5c0-.5-.4-1-1-1h-6.4c-.6 0-1 .4-1 1V69c0 .6.4 1 1 1zm1-1.9v-3.4h4.4V68l-4.4.1zm4.4-6.5v1.1h-4.4v-1.2l4.4.1zm-5.4-6.4h6.4c.5 0 1-.4 1-1v-8.5c0-.5-.4-1-1-1h-6.4c-.6 0-1 .4-1 1v8.5c0 .5.4 1 1 1zm1-2v-3.3h4.4v3.3h-4.4zm4.4-6.5v1.2h-4.4v-1.2h4.4zm-10.7-2h-6.4a1 1 0 0 0-1 1v8.5c0 .6.4 1 1 1h6.4c.6 0 1-.4 1-1v-8.5c0-.6-.5-1-1-1zm-1 2v1.2h-4.4v-1.2h4.4zm-4.4 6.5v-3.3h4.4v3.3h-4.4z" opacity=".7"/></g></svg>