<svg id="Ebene_1" xmlns="http://www.w3.org/2000/svg" width="35.28mm" height="35.28mm" viewBox="0 0 100 100"><defs><style>.cls-1,.cls-2{isolation:isolate;}.cls-3,.cls-2{fill:#fff;}.cls-4{fill:#cf0;}.cls-2{opacity:.1;}</style></defs><rect width="100" height="100"/><polygon class="cls-2" points="0 0 26.61 0 26.61 40.73 26.81 40.73 56.85 0 88.91 0 52.02 46.57 91.73 100 57.86 100 26.81 54.44 26.61 54.44 26.61 99.8 0 99.8 0 0"/><path class="cls-3" d="M44.81,91.65l-.96-2.06v2.06h-1.25v-4.52h1.25v1.94l.98-1.94h1.51l-1.29,2.18,1.37,2.34h-1.61Z"/><path class="cls-3" d="M46.56,91.65v-4.52h1.25v4.52h-1.25Z"/><path class="cls-3" d="M53.15,91.65h-1.51l-.38-1.69c-.07-.33-.13-.72-.17-1.15h0c-.03.4-.09.75-.17,1.11l-.4,1.74h-1.41l-1.09-4.52h1.32l.42,1.85c.07.29.11.64.14.98h0c.04-.33.09-.64.17-.96l.48-1.87h1.25l.46,1.8c.07.26.14.62.18.99h0c.05-.39.11-.74.18-1.05l.38-1.74h1.25l-1.1,4.52h0Z"/><path class="cls-3" d="M54.42,91.65v-4.52h1.25v4.52h-1.25Z"/><rect class="cls-3" x="56.15" y="90.4" width="1.25" height="1.25"/><g class="cls-1"><g class="cls-1"><path class="cls-4" d="M30.04,46.79l-2.95-6.65c-.03-.07-.08-.1-.15-.1h-1.65c-.08,0-.12.04-.12.12v6.55c0,.08-.03.15-.09.21-.06.06-.13.09-.21.09h-3.55c-.08,0-.15-.03-.21-.09-.06-.06-.09-.13-.09-.21v-16.9c0-.08.03-.15.09-.21.06-.06.13-.09.21-.09h7.43c1.1,0,2.07.22,2.9.67.83.45,1.48,1.09,1.94,1.91.46.82.69,1.77.69,2.84s-.27,2.08-.83,2.9c-.55.82-1.32,1.41-2.3,1.77-.08.03-.11.09-.08.18l3.3,6.88c.03.07.05.12.05.15,0,.13-.09.2-.27.2h-3.75c-.17,0-.28-.08-.35-.22ZM25.17,33.18v3.55c0,.08.04.12.12.12h2.77c.62,0,1.12-.17,1.5-.51s.58-.8.58-1.36-.19-1.05-.58-1.4c-.38-.35-.88-.53-1.5-.53h-2.77c-.08,0-.12.04-.12.12Z"/><path class="cls-4" d="M48.7,32.97c-.06.06-.13.09-.21.09h-7.85c-.08,0-.12.04-.12.12v3.08c0,.08.04.12.12.12h5.02c.08,0,.15.03.21.09s.09.13.09.21v2.92c0,.08-.03.15-.09.21s-.13.09-.21.09h-5.02c-.08,0-.12.04-.12.12v3.3c0,.08.04.12.12.12h7.85c.08,0,.15.03.21.09.06.06.09.13.09.21v2.95c0,.08-.03.15-.09.21-.06.06-.13.09-.21.09h-11.83c-.08,0-.15-.03-.21-.09-.06-.06-.09-.13-.09-.21v-16.9c0-.08.03-.15.09-.21.06-.06.13-.09.21-.09h11.83c.08,0,.15.03.21.09.06.06.09.13.09.21v2.95c0,.08-.03.15-.09.21Z"/><path class="cls-4" d="M53.53,46.55c-1.03-.44-1.82-1.07-2.38-1.9-.56-.83-.84-1.78-.84-2.86v-.48c0-.08.03-.15.09-.21.06-.06.13-.09.21-.09h3.48c.08,0,.15.03.21.09s.09.13.09.21v.3c0,.55.28,1.03.83,1.44.55.41,1.29.61,2.22.61.73,0,1.28-.16,1.62-.48.35-.32.53-.68.53-1.1,0-.33-.1-.6-.31-.81-.21-.21-.49-.38-.84-.53-.35-.14-.89-.34-1.62-.59-.1-.05-.2-.09-.3-.11-.1-.02-.19-.05-.28-.09-1.08-.35-2.02-.73-2.82-1.14-.8-.41-1.48-.97-2.05-1.7-.57-.72-.85-1.62-.85-2.69s.27-1.94.81-2.71c.54-.78,1.3-1.37,2.26-1.79.97-.42,2.06-.62,3.27-.62,1.28,0,2.44.23,3.46.7s1.83,1.12,2.41,1.97c.58.85.88,1.83.88,2.93v.35c0,.08-.03.15-.09.21-.06.06-.13.09-.21.09h-3.47c-.08,0-.15-.03-.21-.09s-.09-.13-.09-.21v-.17c0-.58-.26-1.1-.78-1.55-.52-.45-1.21-.68-2.08-.68-.65,0-1.16.13-1.52.4-.37.27-.55.64-.55,1.12,0,.37.12.67.35.91.23.24.6.47,1.09.68.49.21,1.25.48,2.26.81,1.17.4,2.08.75,2.73,1.05.65.3,1.26.79,1.84,1.46.58.68.86,1.56.86,2.66s-.27,2.02-.82,2.8c-.55.78-1.32,1.39-2.31,1.81-.99.42-2.15.64-3.46.64-1.38,0-2.59-.22-3.61-.66Z"/></g><g class="cls-1"><path class="cls-4" d="M76.15,30.21c.88.47,1.55,1.12,2.03,1.96.47.84.71,1.81.71,2.91s-.25,2.04-.74,2.88-1.19,1.47-2.09,1.92c-.9.45-1.94.67-3.12.67h-3.05c-.08,0-.12.04-.12.12v6.03c0,.08-.03.15-.09.21s-.13.09-.21.09h-3.55c-.08,0-.15-.03-.21-.09-.06-.06-.09-.13-.09-.21v-16.9c0-.08.03-.15.09-.21s.13-.09.21-.09h7.22c1.13,0,2.14.23,3.01.7ZM74.12,36.68c.42-.38.64-.88.64-1.5s-.21-1.15-.64-1.54c-.43-.39-.98-.59-1.66-.59h-2.58c-.08,0-.12.04-.12.12v3.95c0,.08.04.12.12.12h2.58c.68,0,1.24-.19,1.66-.58Z"/></g><g class="cls-1"><path class="cls-4" d="M75.3,46.55c-.38-.38-.56-.85-.56-1.41s.18-1.06.55-1.42c.37-.37.84-.55,1.42-.55s1.06.18,1.42.55c.37.37.55.84.55,1.42s-.19,1.04-.56,1.41-.85.56-1.41.56-1.04-.19-1.41-.56Z"/></g><g class="cls-1"><path class="cls-4" d="M32.11,59.06c1.52.8,2.27,2.13,2.27,4,0,1.67-.57,2.91-1.72,3.73-1.15.82-2.66,1.22-4.53,1.22h-6.65c-.08,0-.15-.03-.21-.09-.06-.06-.09-.13-.09-.21v-16.9c0-.08.03-.15.09-.21.06-.06.13-.09.21-.09h6.45c2.03,0,3.57.38,4.61,1.15s1.56,2.01,1.56,3.72-.67,2.81-2,3.53c-.1.05-.1.1,0,.15ZM25.33,54.18v3.15c0,.08.04.12.12.12h2.48c.68,0,1.21-.15,1.57-.44s.55-.7.55-1.24-.18-.98-.55-1.28-.89-.45-1.57-.45h-2.48c-.08,0-.12.04-.12.12ZM29.69,63.97c.37-.31.55-.75.55-1.34s-.18-1-.54-1.31-.88-.46-1.56-.46h-2.67c-.08,0-.12.04-.12.12v3.33c0,.08.04.12.12.12h2.67c.67,0,1.18-.15,1.55-.46Z"/></g><g class="cls-1"><path class="cls-4" d="M46.44,67.76l-.65-2.22c-.03-.07-.07-.1-.12-.1h-5.7c-.05,0-.09.03-.12.1l-.65,2.22c-.05.17-.17.25-.35.25h-3.83c-.1,0-.17-.03-.23-.09-.05-.06-.06-.15-.02-.26l5.35-16.9c.05-.17.16-.25.32-.25h4.73c.17,0,.27.08.33.25l5.38,16.9s.02.07.02.12c0,.15-.09.22-.27.22h-3.83c-.18,0-.3-.08-.35-.25ZM40.94,62.23h3.73c.1,0,.13-.05.1-.15l-1.9-6.42c-.02-.07-.04-.1-.08-.09-.03,0-.06.04-.07.09l-1.88,6.42c-.02.1.02.15.1.15Z"/></g><g class="cls-1"><path class="cls-4" d="M54.7,67.55c-1.02-.44-1.82-1.07-2.38-1.9s-.84-1.78-.84-2.86v-.48c0-.08.03-.15.09-.21s.13-.09.21-.09h3.47c.08,0,.15.03.21.09s.09.13.09.21v.3c0,.55.27,1.03.82,1.44.55.41,1.29.61,2.23.61.73,0,1.27-.16,1.62-.48.35-.32.52-.68.52-1.1,0-.33-.1-.6-.31-.81-.21-.21-.49-.38-.84-.53-.35-.14-.89-.34-1.62-.59-.1-.05-.2-.09-.3-.11-.1-.02-.19-.05-.28-.09-1.08-.35-2.03-.73-2.83-1.14s-1.48-.97-2.05-1.7c-.57-.72-.85-1.62-.85-2.69s.27-1.94.81-2.71c.54-.78,1.29-1.37,2.26-1.79.97-.42,2.06-.62,3.28-.62,1.28,0,2.44.23,3.46.7,1.02.47,1.83,1.12,2.41,1.97.58.85.88,1.83.88,2.93v.35c0,.08-.03.15-.09.21s-.13.09-.21.09h-3.48c-.08,0-.15-.03-.21-.09-.06-.06-.09-.13-.09-.21v-.17c0-.58-.26-1.1-.77-1.55-.52-.45-1.21-.68-2.08-.68-.65,0-1.16.13-1.53.4s-.55.64-.55,1.12c0,.37.12.67.35.91.23.24.6.47,1.09.68.49.21,1.25.48,2.26.81,1.17.4,2.08.75,2.72,1.05.65.3,1.26.79,1.84,1.46.58.68.86,1.56.86,2.66s-.28,2.02-.83,2.8-1.32,1.39-2.31,1.81-2.15.64-3.46.64c-1.38,0-2.59-.22-3.61-.66Z"/><path class="cls-4" d="M79.28,53.97c-.06.06-.13.09-.21.09h-7.85c-.08,0-.12.04-.12.12v3.08c0,.08.04.12.12.12h5.03c.08,0,.15.03.21.09s.09.13.09.21v2.92c0,.08-.03.15-.09.21s-.13.09-.21.09h-5.03c-.08,0-.12.04-.12.12v3.3c0,.08.04.12.12.12h7.85c.08,0,.15.03.21.09.06.06.09.13.09.21v2.95c0,.08-.03.15-.09.21-.06.06-.13.09-.21.09h-11.83c-.08,0-.15-.03-.21-.09-.06-.06-.09-.13-.09-.21v-16.9c0-.08.03-.15.09-.21s.13-.09.21-.09h11.83c.08,0,.15.03.21.09s.09.13.09.21v2.95c0,.08-.03.15-.09.21Z"/></g></g></svg>
