<svg xmlns="http://www.w3.org/2000/svg" width="100" height="100"><defs><style>.cls-2{fill:#fff}.cls-5{font-family:Barlow-Black,Barlow;font-weight:800}</style></defs><path d="M0 0h100v100H0z"/><path d="M0 0h26.61v40.73h.2L56.85 0h32.06L52.02 46.57 91.73 100H57.86L26.81 54.44h-.2V99.8H0V0z" style="fill:#fff;opacity:.1"/><path d="m44.81 91.65-.96-2.06v2.06H42.6v-4.52h1.25v1.94l.98-1.94h1.51l-1.29 2.18 1.37 2.34h-1.6ZM46.56 91.65v-4.52h1.25v4.52h-1.25ZM53.15 91.65h-1.51l-.38-1.69c-.07-.33-.13-.72-.17-1.15-.03.4-.09.75-.17 1.11l-.4 1.74h-1.41l-1.09-4.52h1.32l.42 1.85a7 7 0 0 1 .14.98c.04-.33.09-.64.17-.96l.48-1.87h1.25l.46 1.8c.07.26.14.62.18.99.05-.39.11-.74.18-1.05l.38-1.74h1.25l-1.1 4.52ZM54.42 91.65v-4.52h1.25v4.52h-1.25ZM56.15 90.4h1.25v1.25h-1.25z" class="cls-2"/><text style="fill:#cf0;font-size:25px" transform="translate(19.79 47.01)"><tspan x="0" y="0" class="cls-5">RES</tspan><tspan x="44.67" y="0" style="letter-spacing:-.24em;font-family:Barlow-Black,Barlow;font-weight:800">P</tspan><tspan x="53.67" y="0" style="font-family:Barlow-Bold,Barlow;font-weight:700">.</tspan><tspan class="cls-5"><tspan x=".17" y="21" style="letter-spacing:-.05em">B</tspan><tspan x="14.35" y="21" style="letter-spacing:-.05em">A</tspan><tspan x="30.95" y="21" style="letter-spacing:0">SE</tspan></tspan></text></svg>