<svg xmlns="http://www.w3.org/2000/svg" width="400" height="400"><path fill="#3b5998" d="M0 0h400v400H0z"/><path fill="#fefefe" fill-rule="evenodd" d="M296.884 221.069a4.2 4.2 0 0 0-4.171-4.171h-25.027a4.03 4.03 0 0 0-3.91 3c-2.216 5.214-3.78 10.167-6.909 15.251a66.476 66.476 0 0 1-102.194 13.817l17.858-17.858a8.294 8.294 0 0 0 2.477-5.866 8.4 8.4 0 0 0-8.342-8.342h-58.4a8.4 8.4 0 0 0-8.342 8.342v58.4a8.4 8.4 0 0 0 8.342 8.342 8.293 8.293 0 0 0 5.866-2.476l16.815-16.815a99.9 99.9 0 0 0 68.564 27.634c48.1 0 86.16-32.2 97.24-78.34a2.226 2.226 0 0 0 .133-.918zm3.259-104.279a8.4 8.4 0 0 0-8.342-8.342 8.293 8.293 0 0 0-5.866 2.476l-16.945 16.815a101.216 101.216 0 0 0-68.955-27.634c-48.1 0-86.552 32.066-97.762 78.34v.913a4.2 4.2 0 0 0 4.171 4.171h25.94a4.031 4.031 0 0 0 3.91-3c2.216-5.214 3.78-10.168 6.909-15.251a66.76 66.76 0 0 1 102.324-13.948l-17.988 17.989a8.287 8.287 0 0 0-2.477 5.865 8.4 8.4 0 0 0 8.342 8.343h58.4a8.4 8.4 0 0 0 8.342-8.343v-58.4z" data-name=""/></svg>