<?xml version="1.0" encoding="utf-8"?>
<!-- Generator: Adobe Illustrator 22.1.0, SVG Export Plug-In . SVG Version: 6.00 Build 0)  -->
<svg version="1.1" id="Ebene_1" xmlns="http://www.w3.org/2000/svg" xmlns:xlink="http://www.w3.org/1999/xlink" x="0px" y="0px"
	 viewBox="0 0 91 91" style="enable-background:new 0 0 91 91;" xml:space="preserve">
<metadata><?xpacket begin="﻿" id="W5M0MpCehiHzreSzNTczkc9d"?>
<x:xmpmeta xmlns:x="adobe:ns:meta/" x:xmptk="Adobe XMP Core 5.6-c143 79.161356, 2017/09/07-01:11:22        ">
   <rdf:RDF xmlns:rdf="http://www.w3.org/1999/02/22-rdf-syntax-ns#">
      <rdf:Description rdf:about=""/>
   </rdf:RDF>
</x:xmpmeta>
                                                                                                    
                                                                                                    
                                                                                                    
                                                                                                    
                                                                                                    
                                                                                                    
                                                                                                    
                                                                                                    
                                                                                                    
                                                                                                    
                                                                                                    
                                                                                                    
                                                                                                    
                                                                                                    
                                                                                                    
                                                                                                    
                                                                                                    
                                                                                                    
                                                                                                    
                                                                                                    
                           
<?xpacket end="w"?></metadata>
<style type="text/css">
	.st0{fill:#1394D3;}
	.st1{fill:#FFFFFF;}
</style>
<rect class="st0" width="91" height="91"/>
<g>
	<g>
		<path class="st1" d="M15.3,43.3H10v4.9h5.2c1.3,0,2.4-1.1,2.4-2.4S16.6,43.3,15.3,43.3z M15.3,46.7h-3.8v-1.9h3.8c0.5,0,1,0.4,1,1
			C16.2,46.3,15.8,46.7,15.3,46.7z"/>
		<polygon class="st1" points="19.8,43.3 19.8,48.1 21.2,48.1 21.2,44.7 25,44.7 26.9,48.3 28.2,47.6 25.8,43.3 		"/>
		<polygon class="st1" points="30.1,43.5 30.1,48.1 31.6,48.1 31.6,44.4 33.7,43.4 36.6,48.3 37.9,47.6 34.2,41.4 		"/>
		<polygon class="st1" points="39.7,47.2 40.6,48.3 44.8,44.8 49.1,48.3 50,47.2 44.8,42.9 		"/>
		<polygon class="st1" points="63,43.5 63,48.1 64.4,48.1 64.4,44.4 66.5,43.4 69.5,48.3 70.7,47.6 67,41.4 		"/>
		<rect x="74.7" y="43.3" class="st1" width="1.5" height="4.9"/>
	</g>
	<g>
		<path class="st1" d="M25,36.9h-5.2v4.9H25c1.3,0,2.4-1.1,2.4-2.4C27.5,38,26.4,36.9,25,36.9z M25,40.3h-3.8v-1.9H25
			c0.5,0,1,0.4,1,1S25.5,40.3,25,40.3z"/>
		<polygon class="st1" points="64.4,39.2 64.4,36.9 63,36.9 63,41.7 70,38 69.3,36.7 		"/>
		<path class="st1" d="M13.8,36.9H10v4.9h3.8c1.3,0,2.4-1.1,2.4-2.4S15.1,36.9,13.8,36.9z M13.8,40.3h-2.4v-1.9h2.4c0.5,0,1,0.4,1,1
			C14.8,39.8,14.4,40.3,13.8,40.3z"/>
		<polygon class="st1" points="79,36.7 75.5,39.9 71.9,36.7 70.9,37.7 75.5,41.9 80,37.7 		"/>
		<polygon class="st1" points="31.6,39.2 31.6,36.9 30.1,36.9 30.1,41.7 37.2,38 36.5,36.7 		"/>
		<path class="st1" d="M58.1,41.6c-0.3-0.1-0.6-0.2-0.9-0.3c-1.3-0.4-2.5-0.9-2.5-1.7c0-1,1-1.4,1.9-1.4c0.9,0,1.9,0.4,1.9,1.4v0.4
			h1.4v-0.4c0-1.9-1.7-2.8-3.3-2.8c-1.7,0-3.4,1-3.4,2.8c0,1.9,1.8,2.5,3.4,3.1h0c0.3,0.1,0.6,0.2,0.9,0.3c1.2,0.4,1.7,1.1,1.7,2
			c0,1.7-1.9,2-2.7,2c-1.3,0-2.7-0.7-2.7-2.1v-0.4h-1.4v0.4c0,2.4,2.2,3.6,4.1,3.6c2.6,0,4.1-1.3,4.1-3.4
			C60.7,43.3,59.9,42.2,58.1,41.6z"/>
		<polygon class="st1" points="48.9,42.3 44.8,39 40.8,42.3 40.8,36.8 39.3,36.8 39.3,45.4 44.8,40.9 50.3,45.4 50.3,36.8 
			48.9,36.8 		"/>
	</g>
	<path class="st1" d="M75.4,53.3c0.4,0,0.7-0.1,1-0.3v-1.3h-1.1v0.5h0.4v0.4c-0.1,0.1-0.3,0.1-0.4,0.1c-0.5,0-0.7-0.4-0.7-0.8
		c0-0.4,0.2-0.8,0.7-0.8c0.3,0,0.5,0.1,0.8,0.2l0.3-0.5c-0.3-0.2-0.6-0.3-1-0.3c-1,0-1.4,0.6-1.4,1.4C74,52.7,74.5,53.3,75.4,53.3
		 M71.3,53.3h0.4v-2.8H71v1.6l0,0l-1.4-1.6h-0.4v2.8h0.7v-1.6l0,0L71.3,53.3z M65.7,52.8c-0.3,0-0.5-0.3-0.5-0.7v-1.6h-0.7v1.6
		c0,0.7,0.4,1.2,1.2,1.2c0.8,0,1.2-0.5,1.2-1.2v-1.6h-0.7v1.6C66.1,52.5,66,52.8,65.7,52.8 M60.4,53.3h1.9v-0.5h-1.2v-2.2h-0.7
		L60.4,53.3L60.4,53.3z M56.5,50.5h-0.7v2.8h0.7v-1.1h0.3l0.7,1.1l0.8,0l-1-1.4l0.8-1.4l-0.8,0l-0.6,1.2h-0.3L56.5,50.5L56.5,50.5z
		 M53.6,50.8c-0.3-0.2-0.6-0.3-1-0.3c-1,0-1.4,0.6-1.4,1.4c0,0.8,0.5,1.4,1.4,1.4c0.4,0,0.7-0.1,1-0.3l-0.3-0.5
		c-0.2,0.2-0.4,0.2-0.7,0.2c-0.5,0-0.7-0.4-0.7-0.8c0-0.4,0.2-0.8,0.7-0.8c0.2,0,0.4,0.1,0.7,0.2L53.6,50.8z M48.9,50.5h-0.7v2.8
		h0.7V50.5z M44.9,52.4L44.9,52.4l-0.6-1.9h-0.2l-0.6,1.9l0,0L43,50.5l-0.7,0l0.9,2.8h0.5l0.5-1.3l0,0l0.5,1.3h0.5l0.9-2.8l-0.7,0
		L44.9,52.4z M40.2,50.5H38v0.5h0.8v2.2h0.7v-2.2h0.8L40.2,50.5L40.2,50.5z M35.4,53.3h0.4v-2.8h-0.7v1.6l0,0l-1.4-1.6h-0.4v2.8H34
		v-1.6l0,0L35.4,53.3z M31.1,51.1v-0.5H29v2.8h2.1v-0.5h-1.4v-0.6h1.2v-0.5h-1.2v-0.5C29.7,51.1,31.1,51.1,31.1,51.1z"/>
	<path class="st1" d="M25.4,50.7c-0.1-0.1-0.2-0.1-0.3,0c-0.1,0.1-0.1,0.2,0,0.4l0.7,0.9l-0.7,0.9c-0.1,0.1-0.1,0.3,0,0.4
		c0.1,0.1,0.2,0.1,0.3,0c0.1-0.1,0.9-1.1,0.9-1.1c0,0,0.1-0.1,0.1-0.2c0-0.1,0-0.1-0.1-0.2C26.2,51.7,25.4,50.8,25.4,50.7"/>
	<path class="st1" d="M22.5,51.3c0-0.4-0.3-0.7-0.9-0.7h-1.3v2.8h1.3c0.7,0,1-0.3,1-0.8c0-0.3-0.2-0.6-0.5-0.7l0,0
		C22.4,51.7,22.5,51.5,22.5,51.3 M21.6,52.1c0.2,0,0.4,0.1,0.4,0.3c0,0.1-0.1,0.3-0.4,0.3h-0.5v-0.6C21.1,52.1,21.6,52.1,21.6,52.1z
		 M21,51.6v-0.5h0.5c0.1,0,0.2,0.1,0.2,0.3c0,0.2-0.1,0.3-0.2,0.3L21,51.6L21,51.6z M18.1,51.1v-0.5H16v2.8h2.1v-0.5h-1.4v-0.6h1.2
		v-0.5h-1.2v-0.5C16.7,51.1,18.1,51.1,18.1,51.1z M12.7,52.4L12.7,52.4l-0.6-1.9h-0.2l-0.6,1.9l0,0l-0.4-1.9l-0.7,0l0.9,2.8h0.5
		L12,52l0,0l0.5,1.3H13l0.9-2.8l-0.7,0L12.7,52.4z"/>
</g>
</svg>
