<svg xmlns="http://www.w3.org/2000/svg" id="ai_content" data-name="ai content" viewBox="0 0 500 454.85"><defs><style>.cls-1{letter-spacing:-.03em}.cls-1,.cls-3{isolation:isolate;font-family:FiraSans-Regular,&quot;Fira Sans&quot;;font-size:74px;fill:#333a46}.cls-5{fill:#7ac0bc;stroke-width:0}.cls-3{letter-spacing:-.04em}</style></defs><path d="M405.52 364.47H0L94.48 0H500l-94.48 364.47Z" style="stroke-width:0;fill:#333a46"/><g style="isolation:isolate"><text class="cls-1" transform="matrix(.9 0 0 1 64.45 428.73)"><tspan x="0" y="0">ai </tspan></text><text class="cls-3" transform="matrix(.9 0 0 1 131.38 428.73)"><tspan x="0" y="0">c</tspan></text><text class="cls-1" transform="matrix(.9 0 0 1 160.55 428.73)"><tspan x="0" y="0">on</tspan></text><text class="cls-3" transform="matrix(.9 0 0 1 234.68 428.73)"><tspan x="0" y="0">t</tspan></text><text class="cls-1" transform="matrix(.9 0 0 1 256.05 428.73)"><tspan x="0" y="0">ent</tspan></text></g><path d="M412.19 37.74H254.38c-8.48 0-15.38 6.9-15.38 15.38v58.67c0 8.48 6.9 15.38 15.38 15.38h8.99v24.15c0 2.42 1.96 4.38 4.38 4.38h.01c1.14 0 2.26-.45 3.1-1.28l41.06-27.26h100.27c8.48 0 15.38-6.9 15.38-15.38V53.12c0-8.48-6.9-15.38-15.38-15.38Zm0 80.66H310.1c-1.13 0-2.17.43-2.94 1.14 0 0-.02.01-.02.02-.05.05-.11.1-.16.15l-34.84 21.03v-17.95c0-.15 0-.29-.02-.41a4.387 4.387 0 0 0-4.36-3.98h-13.37c-3.65 0-6.61-2.97-6.61-6.61V53.13c0-3.65 2.97-6.61 6.61-6.61H412.2c3.65 0 6.61 2.97 6.61 6.61v58.67c0 3.64-2.97 6.61-6.61 6.61h-.01Z" class="cls-5"/><path d="M388.71 65.87H277.52c-2.42 0-4.38 1.96-4.38 4.38s1.96 4.38 4.38 4.38h111.19c2.42 0 4.38-1.96 4.38-4.38s-1.96-4.38-4.38-4.38Zm-30.5 25.1h-80.69c-2.42 0-4.38 1.96-4.38 4.38s1.96 4.39 4.38 4.39h80.69c2.42 0 4.38-1.96 4.38-4.39s-1.96-4.38-4.38-4.38Z" class="cls-5"/><path d="M216 148.63c6.42 0 11.6 5.18 11.6 11.6v23.2h43.5c14.43 0 26.1 11.67 26.1 26.1v98.6c0 14.43-11.67 26.1-26.1 26.1H160.9c-14.43 0-26.1-11.67-26.1-26.1v-98.6c0-14.43 11.67-26.1 26.1-26.1h43.5v-23.2c0-6.42 5.18-11.6 11.6-11.6Zm-40.6 139.2c-3.19 0-5.8 2.61-5.8 5.8s2.61 5.8 5.8 5.8H187c3.19 0 5.8-2.61 5.8-5.8s-2.61-5.8-5.8-5.8h-11.6Zm34.8 0c-3.19 0-5.8 2.61-5.8 5.8s2.61 5.8 5.8 5.8h11.6c3.19 0 5.8-2.61 5.8-5.8s-2.61-5.8-5.8-5.8h-11.6Zm34.8 0c-3.19 0-5.8 2.61-5.8 5.8s2.61 5.8 5.8 5.8h11.6c3.19 0 5.8-2.61 5.8-5.8s-2.61-5.8-5.8-5.8H245Zm-49.3-46.4c0-8.01-6.49-14.5-14.5-14.5s-14.5 6.49-14.5 14.5 6.49 14.5 14.5 14.5 14.5-6.49 14.5-14.5Zm55.1 14.5c8.01 0 14.5-6.49 14.5-14.5s-6.49-14.5-14.5-14.5-14.5 6.49-14.5 14.5 6.49 14.5 14.5 14.5Zm-133.4-26.1h5.8v69.6h-5.8c-9.61 0-17.4-7.79-17.4-17.4v-34.8c0-9.61 7.79-17.4 17.4-17.4Zm197.2 0c9.61 0 17.4 7.79 17.4 17.4v34.8c0 9.61-7.79 17.4-17.4 17.4h-5.8v-69.6h5.8Z" style="fill:#fff;stroke-width:0"/></svg>