<svg xmlns="http://www.w3.org/2000/svg" id="ai_content" data-name="ai content" viewBox="0 0 932 1346.82"><defs><style>.cls-4{fill:#7ac0bc;stroke-width:0}.cls-7{letter-spacing:-.03em}</style></defs><path d="M418.52 678.12H13l94.48-364.47H513l-94.48 364.47z" style="stroke-width:0;fill:#333a46"/><text style="fill:#333a46;font-family:FiraSans-Regular,&quot;Fira Sans&quot;;font-size:74px" transform="matrix(.9 0 0 1 77.45 742.38)"><tspan x="0" y="0" class="cls-7">ai </tspan><tspan x="74.37" y="0" style="letter-spacing:-.04em">c</tspan><tspan x="106.78" y="0" class="cls-7">on</tspan><tspan x="189.14" y="0" style="letter-spacing:-.04em">t</tspan><tspan x="212.89" y="0" class="cls-7">ent </tspan></text><path d="M425.19 351.39H267.38c-8.48 0-15.38 6.9-15.38 15.38v58.67c0 8.48 6.9 15.38 15.38 15.38h8.99v24.15a4.379 4.379 0 0 0 4.39 4.38c1.14 0 2.26-.45 3.1-1.28l41.06-27.26h100.27c8.48 0 15.38-6.9 15.38-15.38v-58.66c0-8.48-6.9-15.38-15.38-15.38Zm0 80.66H323.1c-1.13 0-2.17.43-2.94 1.14 0 0-.02.01-.02.02-.05.05-.11.1-.16.15l-34.84 21.03v-17.95c0-.15 0-.29-.02-.41a4.381 4.381 0 0 0-4.36-3.98h-13.37c-3.65 0-6.61-2.97-6.61-6.61v-58.66c0-3.65 2.97-6.61 6.61-6.61H425.2c3.65 0 6.61 2.97 6.61 6.61v58.67c0 3.64-2.97 6.61-6.61 6.61Zm0 0" class="cls-4"/><path d="M401.71 379.52H290.52c-2.42 0-4.38 1.96-4.38 4.38s1.96 4.38 4.38 4.38h111.19c2.42 0 4.38-1.96 4.38-4.38s-1.96-4.38-4.38-4.38ZM371.21 404.62h-80.69c-2.42 0-4.38 1.96-4.38 4.38s1.96 4.39 4.38 4.39h80.69c2.42 0 4.38-1.96 4.38-4.39s-1.96-4.38-4.38-4.38Zm0 0" class="cls-4"/><path d="M229 462.28c6.42 0 11.6 5.18 11.6 11.6v23.2h43.5c14.43 0 26.1 11.67 26.1 26.1v98.6c0 14.43-11.67 26.1-26.1 26.1H173.9c-14.43 0-26.1-11.67-26.1-26.1v-98.6c0-14.43 11.67-26.1 26.1-26.1h43.5v-23.2c0-6.42 5.18-11.6 11.6-11.6Zm-40.6 139.2c-3.19 0-5.8 2.61-5.8 5.8s2.61 5.8 5.8 5.8H200c3.19 0 5.8-2.61 5.8-5.8s-2.61-5.8-5.8-5.8h-11.6Zm34.8 0c-3.19 0-5.8 2.61-5.8 5.8s2.61 5.8 5.8 5.8h11.6c3.19 0 5.8-2.61 5.8-5.8s-2.61-5.8-5.8-5.8h-11.6Zm34.8 0c-3.19 0-5.8 2.61-5.8 5.8s2.61 5.8 5.8 5.8h11.6c3.19 0 5.8-2.61 5.8-5.8s-2.61-5.8-5.8-5.8H258Zm-49.3-46.4c0-8.01-6.49-14.5-14.5-14.5s-14.5 6.49-14.5 14.5 6.49 14.5 14.5 14.5 14.5-6.49 14.5-14.5Zm55.1 14.5c8.01 0 14.5-6.49 14.5-14.5s-6.49-14.5-14.5-14.5-14.5 6.49-14.5 14.5 6.49 14.5 14.5 14.5Zm-133.4-26.1h5.8v69.6h-5.8c-9.61 0-17.4-7.79-17.4-17.4v-34.8c0-9.61 7.79-17.4 17.4-17.4Zm197.2 0c9.61 0 17.4 7.79 17.4 17.4v34.8c0 9.61-7.79 17.4-17.4 17.4h-5.8v-69.6h5.8Z" style="fill:#fff;stroke-width:0"/></svg>