<?xml version="1.0" encoding="utf-8"?>
<!-- Generator: Adobe Illustrator 21.1.0, SVG Export Plug-In . SVG Version: 6.00 Build 0)  -->
<svg version="1.1" xmlns="http://www.w3.org/2000/svg" xmlns:xlink="http://www.w3.org/1999/xlink" x="0px" y="0px"
	 viewBox="0 0 277.4 277.4" style="enable-background:new 0 0 277.4 277.4;" xml:space="preserve">
<style type="text/css">
	.st0{fill:#FFFFFC;}
	.st1{fill:#E8335D;}
</style>
<g id="bg">
</g>
<g id="Ebene_1">
	<circle id="Kreis_außen_1_" class="st0" cx="138.7" cy="138.7" r="138.7"/>
	<circle id="farbiger_Kreis__x28_RAND_x29_" class="st1" cx="138.7" cy="138.7" r="129.7"/>
	<circle id="Kreis_innen_1_" class="st0" cx="138.7" cy="138.7" r="116.9"/>
	<g id="Hirn_1_">
		<path class="st1" d="M167.8,218.3c0-1.7,0-3.1,0-4.5c0-10.4-0.1-20.9,0.2-31.3c0.1-6.2,2-11.9,6.9-16c2.9-2.4,6.1-4.6,9.3-6.7
			c0.4-0.3,1.3-0.1,1.8,0.1c4.2,1.8,7.5,4.6,10,8.4c0.4,0.5,0.7,1.1,1.1,1.6c1.2,1.4,2.8,1.7,4.2,0.8c1.4-1,1.8-2.6,0.9-4.2
			c-2.5-4.3-5.8-7.8-10.1-10.4c-1-0.6-2-1.2-3.2-1.8c4.5-7.4,5-15.3,3.2-23.7c0.6-0.2,1.2-0.4,1.8-0.6c5.3-1.5,10-4.1,13.8-8.1
			c1.6-1.7,1.8-3.4,0.5-4.7c-1.4-1.4-3.1-1.3-4.8,0.4c-3.4,3.5-7.5,5.8-12.3,6.7c-0.6,0.1-1.8-0.3-2.1-0.8
			c-4.9-7.8-11.9-12.6-21-14.1c-0.2,0-0.5-0.1-0.9-0.3c0.3-4,1.9-7.5,4.2-10.7c0.6-0.9,1.3-1.6,2-2.4c1.5-1.7,1.5-3.5,0.2-4.7
			c-1.4-1.3-3.1-1.1-4.7,0.5c-4,4.2-6.5,9.1-7.6,14.7c-0.1,0.6-0.2,1.3-0.4,2.1c-3.2,0-6-1.1-8.5-2.7c-7-4.2-11-10.4-11.7-18.7
			c-0.1-0.7-0.1-1.5-0.3-2.2c-0.4-1.6-1.5-2.5-3.2-2.4c-1.6,0.1-2.7,1.1-2.8,2.8c-0.1,1.4,0,2.8,0.2,4.1c0.3,1.6-0.2,2.4-1.4,3.3
			c-8.9,6.3-21,5.6-29.1-1.7c-0.4-0.4-0.8-0.8-1.2-1.1c-1.3-1-3-0.8-4.1,0.3c-1.1,1.2-1.3,3,0,4.1c2.2,1.9,4.5,3.7,6.9,5.2
			c1.2,0.8,1.6,1.4,1.3,2.8c-1.3,6.9-5,12.2-10.9,16c-1.5-1.7-2.8-3.3-4.2-4.8c-3.1-3.2-6.8-5.4-11-6.8c-2.1-0.7-3.8-0.1-4.4,1.6
			c-0.6,1.7,0.2,3.4,2.3,4.1c3.8,1.3,7.1,3.5,9.8,6.5c0.5,0.5,0.9,1.1,1.7,2.2c-2.9,0.2-5.3,0.5-7.7,0.6c-7.1,0.3-13.3,2.9-18.6,7.7
			c-1.8,1.7-2.1,3.3-0.9,4.8c1.3,1.5,3.1,1.4,4.9-0.2c4.8-4.3,10.5-6.1,16.8-6.3c9.8-0.2,17.6-4.5,23.4-12.5c2.4-3.3,3.9-7,4.8-11
			c0.1-0.6,0.3-1.1,0.4-1.8c8.5,1.6,16.2,0,23.1-4.6c2.8,3.7,5.6,7.2,8.5,11c-3.1,4.1-5.3,9-6,14.8c-0.9-0.1-1.7,0-2.6-0.1
			c-19.6-2.7-33.5,16.8-38.3,19.3c-2.1,1.1-2.8,2.8-2,4.5c0.8,1.6,2.6,2,4.6,1c4.2-2.1,22.8-23.5,36.2-18.6c1.2,0.5,2,0.6,2.2,2.1
			c0.9,5.7,3.3,10.7,7.2,14.9c1.6,1.8,3.4,2,4.8,0.7c1.3-1.2,1.3-3-0.2-4.7c-7.4-8.8-8.1-20-2-28.9c0.4-0.6,0.9-1.2,1.5-2
			c4.9,2.5,10.1,2.8,15.4,3.4c11.2,1.1,19.5,9.5,20.9,20.7c0.1,0.6,0,1.3,0,2.2c-1.4-0.2-2.6-0.4-3.9-0.6c-4.7-0.6-9.2,0-13.6,1.6
			c-2.3,0.9-3.2,2.4-2.6,4.2c0.6,1.8,2.3,2.4,4.6,1.6c4.3-1.5,8.7-1.9,13.2-0.9c0.5,0.1,1,0.3,1.6,0.5c-0.7,3.9-2.6,7-5.4,9.5
			c-1.6,1.5-3.4,2.9-5.3,4.1c-9.1,5.4-13.3,13.8-13.6,24c-0.4,11.1-0.1,22.2-0.2,33.3c0,0.8,0,1.5,0,2.4c-3.6,0-6.9,0-10.5,0
			c0-0.8,0-1.6,0-2.4c-0.1-10.4,0-17.1-2.9-27c-3.5-12-6.4-10.5-17-15.5c-3.5-1.7-8.3-4.7-11.5-7c-0.9-0.7-1.4-0.9-2.5-0.3
			c-10.1,5.8-17.4,2.6-27.5-3.2c-1.1-0.6-1.7-0.4-2.7,0.1c-20.8,5.4-43.5-10.1-42.7-29.1c0.5-13.2,3.3-26.9,15.1-32.9
			c1.6-0.8,2.5-1.8,3-3.5c3.7-12.4,13.2-25.7,28-20.7c1.4,0,2.3-0.3,3.1-1.5c7.1-14.1,22.7-14.2,34.9-8.7c1.3,0.6,2.3,0.6,3.6-0.1
			c10.4-6.1,25.1-9.1,32.9,2.9c1,0.8,1.8,1,3,0.8c12.2-2.3,24.9,3.8,30.7,14.8c0.8,1.4,1.7,2.3,3.2,2.9c13.4,5.3,20.8,18.8,18.1,33
			c-0.3,1.4,0,2.3,0.7,3.5c7.2,11,6.4,24.8-2,35c-0.7,0.9-1.2,2.2-1.4,3.4c-1.6,9.4-6.4,16.6-14.8,21.1
			c-12.7,6.9-20.2,17.4-23.2,31.4c-0.7,3.3-0.7,3.3-4.1,3.3C173,218.3,170.5,218.3,167.8,218.3z"/>
	</g>
	<g>
	</g>
	<g>
	</g>
	<g>
	</g>
	<g>
	</g>
	<g>
	</g>
</g>
</svg>
