<svg xmlns="http://www.w3.org/2000/svg" viewBox="0 0 277.4 277.4"><style>.st0{fill:#fffffc}.st1{fill:#e8335d}</style><g id="Ebene_1"><circle id="Kreis_außen_1_" class="st0" cx="138.7" cy="138.7" r="138.7"/><circle id="farbiger_Kreis__x28_RAND_x29_" class="st1" cx="138.7" cy="138.7" r="129.7"/><circle id="Kreis_innen_1_" class="st0" cx="138.7" cy="138.7" r="116.9"/><path class="st1" d="M167.8 218.3v-4.5c0-10.4-.1-20.9.2-31.3.1-6.2 2-11.9 6.9-16 2.9-2.4 6.1-4.6 9.3-6.7.4-.3 1.3-.1 1.8.1 4.2 1.8 7.5 4.6 10 8.4.4.5.7 1.1 1.1 1.6 1.2 1.4 2.8 1.7 4.2.8 1.4-1 1.8-2.6.9-4.2-2.5-4.3-5.8-7.8-10.1-10.4-1-.6-2-1.2-3.2-1.8 4.5-7.4 5-15.3 3.2-23.7l1.8-.6c5.3-1.5 10-4.1 13.8-8.1 1.6-1.7 1.8-3.4.5-4.7-1.4-1.4-3.1-1.3-4.8.4-3.4 3.5-7.5 5.8-12.3 6.7-.6.1-1.8-.3-2.1-.8-4.9-7.8-11.9-12.6-21-14.1-.2 0-.5-.1-.9-.3.3-4 1.9-7.5 4.2-10.7.6-.9 1.3-1.6 2-2.4 1.5-1.7 1.5-3.5.2-4.7-1.4-1.3-3.1-1.1-4.7.5-4 4.2-6.5 9.1-7.6 14.7-.1.6-.2 1.3-.4 2.1-3.2 0-6-1.1-8.5-2.7-7-4.2-11-10.4-11.7-18.7-.1-.7-.1-1.5-.3-2.2-.4-1.6-1.5-2.5-3.2-2.4-1.6.1-2.7 1.1-2.8 2.8-.1 1.4 0 2.8.2 4.1.3 1.6-.2 2.4-1.4 3.3-8.9 6.3-21 5.6-29.1-1.7-.4-.4-.8-.8-1.2-1.1-1.3-1-3-.8-4.1.3-1.1 1.2-1.3 3 0 4.1 2.2 1.9 4.5 3.7 6.9 5.2 1.2.8 1.6 1.4 1.3 2.8-1.3 6.9-5 12.2-10.9 16-1.5-1.7-2.8-3.3-4.2-4.8-3.1-3.2-6.8-5.4-11-6.8-2.1-.7-3.8-.1-4.4 1.6-.6 1.7.2 3.4 2.3 4.1 3.8 1.3 7.1 3.5 9.8 6.5.5.5.9 1.1 1.7 2.2-2.9.2-5.3.5-7.7.6-7.1.3-13.3 2.9-18.6 7.7-1.8 1.7-2.1 3.3-.9 4.8 1.3 1.5 3.1 1.4 4.9-.2 4.8-4.3 10.5-6.1 16.8-6.3 9.8-.2 17.6-4.5 23.4-12.5 2.4-3.3 3.9-7 4.8-11 .1-.6.3-1.1.4-1.8 8.5 1.6 16.2 0 23.1-4.6 2.8 3.7 5.6 7.2 8.5 11-3.1 4.1-5.3 9-6 14.8-.9-.1-1.7 0-2.6-.1-19.6-2.7-33.5 16.8-38.3 19.3-2.1 1.1-2.8 2.8-2 4.5.8 1.6 2.6 2 4.6 1 4.2-2.1 22.8-23.5 36.2-18.6 1.2.5 2 .6 2.2 2.1.9 5.7 3.3 10.7 7.2 14.9 1.6 1.8 3.4 2 4.8.7 1.3-1.2 1.3-3-.2-4.7-7.4-8.8-8.1-20-2-28.9.4-.6.9-1.2 1.5-2 4.9 2.5 10.1 2.8 15.4 3.4 11.2 1.1 19.5 9.5 20.9 20.7.1.6 0 1.3 0 2.2-1.4-.2-2.6-.4-3.9-.6-4.7-.6-9.2 0-13.6 1.6-2.3.9-3.2 2.4-2.6 4.2.6 1.8 2.3 2.4 4.6 1.6 4.3-1.5 8.7-1.9 13.2-.9.5.1 1 .3 1.6.5-.7 3.9-2.6 7-5.4 9.5-1.6 1.5-3.4 2.9-5.3 4.1-9.1 5.4-13.3 13.8-13.6 24-.4 11.1-.1 22.2-.2 33.3v2.4h-10.5v-2.4c-.1-10.4 0-17.1-2.9-27-3.5-12-6.4-10.5-17-15.5-3.5-1.7-8.3-4.7-11.5-7-.9-.7-1.4-.9-2.5-.3-10.1 5.8-17.4 2.6-27.5-3.2-1.1-.6-1.7-.4-2.7.1-20.8 5.4-43.5-10.1-42.7-29.1.5-13.2 3.3-26.9 15.1-32.9 1.6-.8 2.5-1.8 3-3.5 3.7-12.4 13.2-25.7 28-20.7 1.4 0 2.3-.3 3.1-1.5 7.1-14.1 22.7-14.2 34.9-8.7 1.3.6 2.3.6 3.6-.1 10.4-6.1 25.1-9.1 32.9 2.9 1 .8 1.8 1 3 .8 12.2-2.3 24.9 3.8 30.7 14.8.8 1.4 1.7 2.3 3.2 2.9 13.4 5.3 20.8 18.8 18.1 33-.3 1.4 0 2.3.7 3.5 7.2 11 6.4 24.8-2 35-.7.9-1.2 2.2-1.4 3.4-1.6 9.4-6.4 16.6-14.8 21.1-12.7 6.9-20.2 17.4-23.2 31.4-.7 3.3-.7 3.3-4.1 3.3-1.9.1-4.4.1-7.1.1z" id="Hirn_1_"/></g></svg>