<svg xmlns="http://www.w3.org/2000/svg" width="57" height="49" viewBox="0 0 57 49"><path d="M 1,22.647044 C 1,11.249069 13.985634,2.0013095 28.5,2 c 14.513046,0.00131 27.499999,9.249069 27.499999,20.647044 0,9.991561 -9.971701,18.313497 -22.194949,20.235857 V 47 H 23.183078 V 42.882901 C 10.963787,40.960541 1,32.632058 1,22.647044 m 22.183078,16.75256 v -2.93592 H 33.80505 v 2.941159 c 7.477457,-2.201286 12.934194,-8.946572 12.934194,-16.931964 0,-9.80692 -8.160704,-17.7700505 -18.239244,-17.7700505 -10.085137,0 -18.244521,7.9631305 -18.244521,17.7700505 0,7.985392 5.45278,14.721511 12.927599,16.926725" fill="#64c5e2"/></svg>
