<svg enable-background="new 0 0 361.8 220.5" viewBox="0 0 361.8 220.5" xmlns="http://www.w3.org/2000/svg" xmlns:xlink="http://www.w3.org/1999/xlink"><linearGradient id="a" gradientTransform="matrix(1 0 0 -1 0 222.0068)" gradientUnits="userSpaceOnUse" x1="311.9161" x2="218.9825" y1="181.7018" y2="16.0376"><stop offset="0" stop-color="#f47c00"/><stop offset=".9946" stop-color="#f7a801"/></linearGradient><linearGradient id="b" gradientTransform="matrix(1 0 0 -1 0 222.0068)" gradientUnits="userSpaceOnUse" x1="62.2581" x2="91.8891" y1="158.8171" y2="99.5551"><stop offset="0" stop-color="#068bf2"/><stop offset="1" stop-color="#0062c7"/></linearGradient><linearGradient id="c" gradientTransform="matrix(1 0 0 -1 0 222.0068)" gradientUnits="userSpaceOnUse" x1="119.2562" x2="148.8873" y1="67.5733" y2="122.7948"><stop offset="0" stop-color="#068bf2"/><stop offset="1" stop-color="#0279d5"/></linearGradient><path d="m195.6 176.3 34.2-57.7 63.7-107.4c8-11.1 23.4-14.5 35.4-7.4l10 5.9 23 13.6-12.5 21-81.8 138-16.1 27.1c-4.9 6.9-12.7 10.8-20.7 11.1-.3 0-.7 0-1 0s-.7 0-1 0c-8-.3-15.8-4.2-20.7-11.1l-16.1-27.1z" fill="url(#a)"/><path d="m132.4 119.1s0-.1 0-.2v.2l-.3-.5-63.7-107.5c-8-11.1-23.5-14.5-35.5-7.4l-9.9 5.9-23 13.6 12.5 21 47.8 80.6c33.3 23.9 56.6 12.9 72.1-5.7z" fill="url(#b)"/><path d="m241.6 9.6-9.9-5.9c-12-7.1-27.4-3.7-35.4 7.4l-63.7 107.4-.2.3v.2c-15.4 18.6-38.8 29.7-72.1 5.8l34 57.4 16.1 27.1c4.9 6.9 12.7 10.8 20.7 11.1h1 .2s.2 0 .2 0h1c8-.3 15.8-4.2 20.7-11.1l16.1-27.1 81.8-138 12.5-21z" fill="url(#c)"/></svg>