<svg xmlns="http://www.w3.org/2000/svg" viewBox="0 0 361.8 220.5"><linearGradient id="a" x1="311.916" x2="218.982" y1="181.702" y2="16.038" gradientTransform="matrix(1 0 0 -1 0 222.007)" gradientUnits="userSpaceOnUse"><stop offset="0" stop-color="#f47c00"/><stop offset=".995" stop-color="#f7a801"/></linearGradient><linearGradient id="b" x1="62.258" x2="91.889" y1="158.817" y2="99.555" gradientTransform="matrix(1 0 0 -1 0 222.007)" gradientUnits="userSpaceOnUse"><stop offset="0" stop-color="#068bf2"/><stop offset="1" stop-color="#0062c7"/></linearGradient><linearGradient id="c" x1="119.256" x2="148.887" y1="67.573" y2="122.795" gradientTransform="matrix(1 0 0 -1 0 222.007)" gradientUnits="userSpaceOnUse"><stop offset="0" stop-color="#068bf2"/><stop offset="1" stop-color="#0279d5"/></linearGradient><path fill="url(#a)" d="m195.6 176.3 34.2-57.7 63.7-107.4c8-11.1 23.4-14.5 35.4-7.4l10 5.9 23 13.6-12.5 21-81.8 138-16.1 27.1c-4.9 6.9-12.7 10.8-20.7 11.1h-2c-8-.3-15.8-4.2-20.7-11.1L192 182.3z"/><path fill="url(#b)" d="M132.4 119.1v-.2.2l-.3-.5L68.4 11.1C60.4 0 44.9-3.4 32.9 3.7L23 9.6 0 23.2l12.5 21 47.8 80.6c33.3 23.9 56.6 12.9 72.1-5.7z"/><path fill="url(#c)" d="m241.6 9.6-9.9-5.9c-12-7.1-27.4-3.7-35.4 7.4l-63.7 107.4-.2.3v.2c-15.4 18.6-38.8 29.7-72.1 5.8l34 57.4 16.1 27.1c4.9 6.9 12.7 10.8 20.7 11.1h2.4c8-.3 15.8-4.2 20.7-11.1l16.1-27.1 81.8-138 12.5-21z"/></svg>