<svg xmlns="http://www.w3.org/2000/svg" xml:space="preserve" viewBox="0 0 360 360"><linearGradient id="a" x1="310.399" x2="217.917" y1="30.07" y2="-134.788" gradientTransform="matrix(1 0 0 -1 0 141)" gradientUnits="userSpaceOnUse"><stop offset="0" style="stop-color:#f47c00"/><stop offset=".995" style="stop-color:#f7a801"/></linearGradient><path d="m194.6 246.2 34-57.4L292 81.9c8-11.1 23.3-14.5 35.3-7.4l9.9 5.9L360 94l-12.4 20.9-81.4 137.3-16 26.9c-4.9 6.8-12.6 10.7-20.6 11h-2c-8-.3-15.7-4.2-20.6-11l-16-26.9z" style="fill:url(#a)"/><linearGradient id="b" x1="61.955" x2="91.442" y1="7.297" y2="-51.677" gradientTransform="matrix(1 0 0 -1 0 141)" gradientUnits="userSpaceOnUse"><stop offset="0" style="stop-color:#068bf2"/><stop offset="1" style="stop-color:#0062c7"/></linearGradient><path d="M131.7 189.3v-.2zl-.3-.5L68 81.9c-8-11.1-23.3-14.5-35.3-7.4l-9.9 5.9L0 94l12.4 20.9 47.5 80.2c33.2 23.7 56.4 12.7 71.8-5.8" style="fill:url(#b)"/><linearGradient id="c" x1="118.676" x2="148.163" y1="-83.503" y2="-28.55" gradientTransform="matrix(1 0 0 -1 0 141)" gradientUnits="userSpaceOnUse"><stop offset="0" style="stop-color:#068bf2"/><stop offset="1" style="stop-color:#0279d5"/></linearGradient><path d="m240.4 80.4-9.9-5.9c-11.9-7.1-27.3-3.7-35.3 7.4l-63.4 106.9-.2.3v.2c-15.4 18.5-38.6 29.5-71.8 5.8l33.9 57.2 16 26.9c4.9 6.8 12.6 10.7 20.6 11h2.4c8-.3 15.7-4.2 20.6-11l16-26.9 81.4-137.4L263.1 94z" style="fill:url(#c)"/></svg>