<svg xmlns="http://www.w3.org/2000/svg" width="200" height="200"><path fill="none" d="M-1-1h202v202H-1z"/><path fill="none" d="M-1-1h181v158H-1V-1z"/><g stroke="null"><path fill="#fff" d="M14 0C6 0 0 6 0 15v169c0 9 6 16 14 16h174c6 0 13-7 13-16V15c0-9-7-15-13-15H14z"/><path fill="#f47c00" d="M18 122c6 29 10 57 27 78H14c-8 0-14-7-14-16V15C0 6 6 0 14 0h22c-5 5-10 13-14 19-18 31-10 65-4 103zM188 0h-36c9 9 15 22 21 37l-54 13c-5-13-14-23-32-19-10 2-16 9-19 15-4 8-5 18 3 61s13 53 19 59 14 8 24 6c16-4 21-18 22-33l53-14c2 32-7 58-23 75h22c6 0 12-7 12-16V15c1-9-6-15-12-15z"/><path fill="#f47c00" d="M5 10h195v174H5V10z"/><path fill="#f47c00" fill-opacity="null" d="M24-6h157v206H24V-6z"/><path fill="#fff" d="M109 196c26 0 48-14 64-36 2-3 0-8-3-6a65 74 0 0 1-45-137c3-2 2-8-1-8a83 95 0 0 0-15-3 83 95 0 1 0 0 190z"/></g><path fill="#f47c00" d="M25-4h157v201H25z"/><path fill="#fff" stroke="null" d="M109 191c28 0 53-12 70-33 2-3 0-8-4-7a71 71 0 0 1-48-131c3-1 2-7-2-7a91 91 0 0 0-16-2 90 90 0 1 0 0 180z"/></svg>