<?xml version="1.0" encoding="utf-8"?>
<!-- Generator: Adobe Illustrator 23.0.6, SVG Export Plug-In . SVG Version: 6.00 Build 0)  -->
<svg version="1.1" id="Layer_1" xmlns="http://www.w3.org/2000/svg" xmlns:xlink="http://www.w3.org/1999/xlink" x="0px" y="0px"
	 viewBox="0 0 178.4 124.9" style="enable-background:new 0 0 178.4 124.9;" xml:space="preserve">
<style type="text/css">
	.st0{fill:#420083;}
	.st1{fill-rule:evenodd;clip-rule:evenodd;fill:#420083;}
	.st2{fill:none;}
</style>
<g>
	<g>
		<path class="st0" d="M4.6,122.8c-1.2,0-2.1-0.3-2.9-0.7S0.3,120.9,0,120l2.4-1.4c0.4,1,1.2,1.5,2.2,1.5c0.9,0,1.3-0.3,1.3-0.8
			c0-0.3-0.3-0.6-0.8-0.8c-0.2-0.1-0.6-0.2-1.4-0.4c-1.1-0.3-1.9-0.7-2.5-1.3c-0.6-0.6-0.8-1.3-0.8-2.2c0-1,0.4-1.9,1.1-2.5
			c0.8-0.6,1.7-1,2.8-1c0.9,0,1.8,0.2,2.5,0.7s1.3,1.1,1.7,1.9l-2.4,1.4c-0.3-0.8-0.9-1.3-1.7-1.3c-0.3,0-0.6,0.1-0.8,0.2
			s-0.3,0.3-0.3,0.5c0,0.3,0.1,0.4,0.4,0.6s0.8,0.4,1.5,0.6c0.6,0.2,1,0.3,1.3,0.4c0.3,0.2,0.7,0.3,1.1,0.6c0.8,0.5,1.2,1.3,1.2,2.4
			s-0.4,2-1.2,2.6C6.9,122.5,5.9,122.8,4.6,122.8z"/>
		<path class="st0" d="M15.4,116.8l3.7,5.8H16l-3.2-5v5H9.9v-11.2h2.9v4.7l3.1-4.7H19L15.4,116.8z"/>
		<path class="st0" d="M26.3,111.4h3.2l-3.8,6.9v4.3h-2.9v-4.3l-3.8-6.9h3.2l2,4.1L26.3,111.4z"/>
		<path class="st0" d="M36.6,117v-5.6h2.8v11.2h-2.2l-4-5.6v5.6h-2.9v-11.2h2.2L36.6,117z"/>
		<path class="st0" d="M44.1,118.2v1.7h4.3v2.7h-7.2v-11.2h7.1v2.7H44v1.6h3.9v2.6C47.9,118.2,44.1,118.2,44.1,118.2z"/>
		<path class="st0" d="M49,111.4h8.4v2.8h-2.8v8.4h-2.9v-8.4H49C49,114.2,49,111.4,49,111.4z"/>
		<path class="st0" d="M61.4,111.4h8.4v2.8H67v8.4h-2.9v-8.4h-2.8v-2.8H61.4z"/>
		<path class="st0" d="M73.7,118.2v1.7H78v2.7h-7.2v-11.2h7.1v2.7h-4.3v1.6h3.9v2.6C77.5,118.2,73.7,118.2,73.7,118.2z"/>
		<path class="st0" d="M84.7,122.8c-1.7,0-3.1-0.6-4.2-1.7s-1.7-2.5-1.7-4.2s0.6-3.1,1.7-4.2s2.5-1.7,4.2-1.7c1,0,1.9,0.2,2.8,0.7
			s1.5,1.1,2,1.9L87,115c-0.2-0.4-0.5-0.7-0.9-0.9s-0.9-0.3-1.4-0.3c-0.9,0-1.6,0.3-2.2,0.8c-0.5,0.6-0.8,1.3-0.8,2.2
			c0,0.9,0.3,1.7,0.8,2.2c0.6,0.6,1.3,0.8,2.2,0.8c0.5,0,1-0.1,1.4-0.3s0.7-0.6,0.9-0.9l2.5,1.4c-0.5,0.8-1.2,1.5-2,1.9
			C86.7,122.6,85.7,122.8,84.7,122.8z"/>
		<path class="st0" d="M96.6,115.5v-4.1h2.8v11.2h-2.8v-4.3h-3.2v4.3h-2.9v-11.2h2.9v4.1H96.6z"/>
		<path class="st0" d="M107.4,117v-5.6h2.8v11.2H108l-3.9-5.6v5.6h-2.9v-11.2h2.2L107.4,117z"/>
		<path class="st0" d="M121.6,121.1c-1.1,1.1-2.5,1.7-4.2,1.7s-3.1-0.6-4.2-1.7s-1.7-2.5-1.7-4.2c0-1.6,0.6-3,1.7-4.1
			s2.5-1.7,4.2-1.7c1.6,0,3,0.6,4.2,1.7c1.1,1.1,1.7,2.5,1.7,4.1C123.3,118.6,122.8,120,121.6,121.1z M115.3,119.2
			c0.6,0.6,1.3,0.8,2.2,0.8s1.6-0.3,2.2-0.8c0.6-0.6,0.9-1.3,0.9-2.2c0-0.9-0.3-1.6-0.9-2.2s-1.3-0.9-2.2-0.9s-1.6,0.3-2.2,0.9
			s-0.9,1.3-0.9,2.2C114.4,117.9,114.7,118.6,115.3,119.2z"/>
		<path class="st0" d="M127.5,111.4v8.4h3.9v2.8h-6.7v-11.2C124.7,111.4,127.5,111.4,127.5,111.4z"/>
		<path class="st0" d="M141.5,121.1c-1.1,1.1-2.5,1.7-4.2,1.7c-1.6,0-3.1-0.6-4.2-1.7c-1.1-1.1-1.7-2.5-1.7-4.2c0-1.6,0.6-3,1.7-4.1
			c1.1-1.1,2.5-1.7,4.2-1.7c1.6,0,3,0.6,4.2,1.7c1.1,1.1,1.7,2.5,1.7,4.1C143.2,118.6,142.6,120,141.5,121.1z M135.1,119.2
			c0.6,0.6,1.3,0.8,2.2,0.8s1.6-0.3,2.2-0.8c0.6-0.6,0.9-1.3,0.9-2.2c0-0.9-0.3-1.6-0.9-2.2c-0.6-0.6-1.3-0.9-2.2-0.9
			s-1.6,0.3-2.2,0.9c-0.6,0.6-0.9,1.3-0.9,2.2C134.3,117.9,134.6,118.6,135.1,119.2z"/>
		<path class="st0" d="M150,116.2h5.6v1.1c0,1.6-0.5,3-1.6,4c-1,1-2.4,1.5-4,1.5c-1.7,0-3.2-0.6-4.3-1.7s-1.7-2.5-1.7-4.1
			s0.6-3,1.7-4.2c1.1-1.1,2.5-1.7,4.2-1.7c1,0,2,0.2,2.9,0.7s1.6,1.1,2.1,1.9l-2.4,1.4c-0.2-0.3-0.6-0.6-1-0.8s-0.9-0.3-1.5-0.3
			c-0.9,0-1.6,0.3-2.2,0.9c-0.6,0.6-0.9,1.3-0.9,2.2c0,0.9,0.3,1.6,0.8,2.2c0.6,0.6,1.4,0.9,2.4,0.9c1.3,0,2.2-0.5,2.6-1.5H150
			V116.2L150,116.2z"/>
		<path class="st0" d="M156.9,122.6v-11.2h2.9v11.2H156.9z"/>
		<path class="st0" d="M164.4,118.2v1.7h4.3v2.7h-7.2v-11.2h7.1v2.7h-4.3v1.6h3.9v2.6C168.3,118.2,164.4,118.2,164.4,118.2z"/>
		<path class="st0" d="M174.1,122.8c-1.2,0-2.1-0.3-2.9-0.7s-1.3-1.2-1.7-2.1l2.4-1.4c0.4,1,1.1,1.5,2.2,1.5c0.9,0,1.3-0.3,1.3-0.8
			c0-0.3-0.3-0.6-0.8-0.8c-0.2-0.1-0.6-0.2-1.4-0.4c-1.1-0.3-1.9-0.7-2.5-1.3c-0.6-0.6-0.9-1.3-0.9-2.2c0-1,0.4-1.9,1.1-2.5
			c0.8-0.6,1.7-1,2.8-1c0.9,0,1.8,0.2,2.5,0.7s1.3,1.1,1.7,1.9l-2.4,1.4c-0.4-0.8-0.9-1.3-1.7-1.3c-0.3,0-0.6,0.1-0.8,0.2
			s-0.3,0.3-0.3,0.5c0,0.3,0.1,0.4,0.4,0.6s0.8,0.4,1.5,0.6c0.6,0.2,1,0.3,1.3,0.4c0.4,0.2,0.7,0.3,1.1,0.6c0.8,0.5,1.2,1.3,1.2,2.4
			s-0.4,2-1.2,2.6C176.4,122.5,175.4,122.8,174.1,122.8z"/>
	</g>
	<g>
		<path class="st0" d="M101.7,61.1h8.3c1.1,0,1.8-0.5,2-1.7c0.2-1.1-0.3-1.7-1.4-1.7h-8.3c-1.1,0-1.7,0.5-1.9,1.7
			C100.1,60.5,100.6,61.1,101.7,61.1 M101,65.2h8.3c1.1,0,1.7-0.6,1.9-1.7c0.2-1.1-0.2-1.7-1.3-1.7h-8.3c-1.1,0-1.8,0.5-2,1.7
			C99.4,64.6,99.9,65.2,101,65.2z M98.9,67.7c-0.2,1.1,0.3,1.7,1.4,1.7h8.3c1.1,0,1.7-0.6,1.9-1.7c0.2-1.1-0.3-1.7-1.4-1.7h-8.3
			C99.7,66,99.1,66.6,98.9,67.7z M98.2,71.8c-0.2,1.1,0.3,1.7,1.4,1.7h8.3c1.1,0,1.7-0.6,1.9-1.7c0.2-1.1-0.3-1.7-1.4-1.7h-8.3
			C99,70.1,98.3,70.7,98.2,71.8z M104.6,44.6h8.3c1.1,0,1.7-0.5,1.9-1.7c0.2-1.1-0.2-1.7-1.3-1.7h-8.3c-1.1,0-1.8,0.5-2,1.7
			C103,44,103.5,44.6,104.6,44.6z M103.9,48.7h8.3c1.1,0,1.7-0.5,1.9-1.7c0.2-1.1-0.2-1.7-1.3-1.7h-8.3c-1.1,0-1.8,0.5-2,1.7
			C102.3,48.1,102.8,48.7,103.9,48.7z M101.8,51.2c-0.2,1.1,0.3,1.7,1.4,1.7h8.3c1.1,0,1.7-0.5,1.9-1.7c0.2-1.1-0.3-1.7-1.4-1.7
			h-8.3C102.6,49.5,102,50.1,101.8,51.2z M101.1,55.3c-0.2,1.1,0.2,1.7,1.3,1.7h8.3c1.1,0,1.8-0.5,2-1.7c0.2-1.1-0.3-1.7-1.4-1.7
			H103C101.9,53.6,101.3,54.2,101.1,55.3z M98.6,32.2h24.8c1.1,0,1.7-0.5,1.9-1.6c0.2-1.1-0.3-1.6-1.4-1.6H99.1
			c-1.1,0-1.7,0.5-1.9,1.6C97,31.6,97.5,32.2,98.6,32.2z M97.8,36.3h24.8c1.1,0,1.7-0.5,1.9-1.7c0.2-1.1-0.3-1.7-1.4-1.7H98.4
			c-1.1,0-1.7,0.5-1.9,1.7C96.3,35.7,96.7,36.3,97.8,36.3z M97.1,40.4h24.8c1.1,0,1.8-0.5,2-1.7c0.2-1.1-0.3-1.7-1.4-1.7H97.7
			c-1.1,0-1.7,0.5-1.9,1.7C95.5,39.9,96,40.4,97.1,40.4z M58.9,51.2c-0.2,1.1,0.3,1.7,1.4,1.7H85c1.1,0,1.7-0.5,1.9-1.7
			c0.2-1.1-0.3-1.7-1.4-1.7H60.8C59.7,49.5,59.1,50.1,58.9,51.2z M66.6,30.5c-0.2,1.1,0.3,1.6,1.4,1.6h20.6c1.1,0,1.7-0.5,1.9-1.6
			c0.2-1.1-0.3-1.6-1.4-1.6H68.6C67.5,28.9,66.8,29.4,66.6,30.5z M55.3,71.8c-0.2,1.1,0.3,1.7,1.4,1.7h20.6c1.1,0,1.7-0.6,1.9-1.7
			c0.2-1.1-0.3-1.7-1.4-1.7H57.2C56.1,70.1,55.4,70.7,55.3,71.8z M61.9,55.3c-0.2,1.1,0.2,1.7,1.3,1.7h21c1.1,0,1.8-0.5,2-1.7
			c0.2-1.1-0.3-1.7-1.4-1.7h-21C62.7,53.6,62.1,54.2,61.9,55.3z M59.6,47c-0.2,1.1,0.3,1.7,1.4,1.7h20.6c1.1,0,1.7-0.5,1.9-1.7
			c0.2-1.1-0.2-1.7-1.3-1.7H61.6C60.5,45.4,59.8,45.9,59.6,47z M60.3,42.9c-0.2,1.1,0.3,1.7,1.4,1.7h8.2c1.1,0,1.7-0.5,1.9-1.7
			c0.2-1.1-0.2-1.7-1.3-1.7h-8.2C61.2,41.2,60.5,41.8,60.3,42.9z M74,59.4c-0.2,1.1,0.2,1.7,1.3,1.7h8.3c1.1,0,1.8-0.5,2-1.7
			c0.2-1.1-0.3-1.7-1.4-1.7h-8.3C74.8,57.8,74.1,58.3,74,59.4z M63.2,36.3H88c1.1,0,1.7-0.5,1.9-1.7c0.2-1.1-0.3-1.7-1.4-1.7H63.7
			c-1.1,0-1.7,0.5-1.9,1.7C61.6,35.7,62.1,36.3,63.2,36.3z M62.4,40.4h24.8c1.1,0,1.8-0.5,2-1.7c0.2-1.1-0.3-1.7-1.4-1.7H63
			c-1.1,0-1.7,0.5-1.9,1.7C60.9,39.9,61.3,40.4,62.4,40.4z M58.1,65.2h24.8c1.1,0,1.7-0.6,1.9-1.7c0.2-1.1-0.2-1.7-1.3-1.7H58.7
			c-1.1,0-1.8,0.5-2,1.7C56.5,64.6,57,65.2,58.1,65.2z M57.3,69.3h24.8c1.1,0,1.7-0.6,1.9-1.7c0.2-1.1-0.3-1.7-1.4-1.7H57.9
			c-1.1,0-1.7,0.6-1.9,1.7C55.8,68.8,56.2,69.3,57.3,69.3z"/>
		<path class="st1" d="M47,61.5c0,0,3.3,6.5,10.6,0.6l0.7,2.5c0,0-12.3,6.3-15.5-2.5L47,61.5z"/>
		<path class="st1" d="M132.9,45.2c0,0,0.2-10.2-10.9-4.8l0.6-3.4c0,0,13.1-3.9,14.2,5.4L132.9,45.2z"/>
		<path class="st1" d="M124.2,24c0,0,3.9,4-1.3,5.6l0.4,2.6c0,0,9.4,0.6,7.9-4.7c-0.3-1-0.9-2.1-2.1-3.5H124.2z"/>
		<path class="st1" d="M57.5,70.1c0,0-2.4,0-3.5,0.2l0.1,0.9l3.7,0.5L57.5,70.1z"/>
		<path class="st1" d="M56.1,70.1c0,0-2.2,0-3.8,0.5l0.2,2.4l3-1.6L56.1,70.1z"/>
		<path class="st1" d="M57.2,73.5c0,0-1.3,0-2.4,0.4l-0.7-0.7l2.9-0.4l1.4-0.5L57.2,73.5z"/>
		<path class="st0" d="M136.6,41.4h-4.3c0.6,2.9,0.9,6,0.9,9.1c0,24.1-19.6,43.7-43.8,43.7c-13.1,0-24.8-5.6-32.8-14.7l-0.3-0.3
			l-0.8-0.8l-5.1-0.1c8.7,12.2,22.9,20.1,39,20.1c26.5,0,48-21.5,48-48C137.5,47.4,137.2,44.4,136.6,41.4z"/>
		<path class="st0" d="M89.3,6.7C104,6.7,117,14,125,25.1h4.9c-0.1-0.2-0.2-0.3-0.3-0.5c-8.6-13.3-23.4-22.1-40.4-22.1
			c-26.5,0-48,21.5-47.9,48c0,4,0.5,7.9,1.4,11.6l4.4,0c-1.1-3.7-1.6-7.6-1.6-11.6C45.6,26.3,65.1,6.7,89.3,6.7z"/>
		<path class="st2" d="M55.4,78.4l-0.9-0.9C54.8,77.8,55.2,78.1,55.4,78.4z"/>
		<path class="st0" d="M54.5,77.4L54.5,77.4L54.5,77.4c-1-1.3-1.7-3.1,1.9-4.1l0.6-3.1c0,0-13.7-0.7-6.4,8.3l5.2,0.2l-0.3-0.3
			C55.3,78.2,54.8,77.8,54.5,77.4z"/>
		<polygon class="st0" points="54.5,77.4 54.5,77.4 54.5,77.4 		"/>
	</g>
</g>
</svg>
