<svg xmlns="http://www.w3.org/2000/svg" id="Ebene_1" viewBox="0 0 500 500"><style>.st0{fill:#333a46}</style><path d="M405.5 432.2H0L94.5 67.8H500z" class="st0"/><path fill="none" d="M0 441h402v60H0z"/><path d="M51.1 468.5v28H45v-27c0-5.8-2.3-7.5-4.9-7.5-3.8 0-5.9 2.7-8.3 6.9v27.7h-6.1v-27c0-5.8-2.3-7.5-4.9-7.5-3.8 0-5.9 2.7-8.3 6.9v27.7H6.3v-39h5.3l.5 5.7c2.3-3.9 5.5-6.6 10.1-6.6 4.3 0 7.5 2.6 8.9 7 2.5-4.2 5.7-7 10.5-7 5.7-.2 9.5 4.4 9.5 11.7zm34.3 18.9c0 3.4 1.1 4.5 2.9 5.3l-1.4 4.7c-3.5-.4-5.8-2-6.9-5.8-2.5 4.1-6.2 5.8-10.5 5.8-7 0-11.2-4.8-11.2-11.8 0-8.4 5.7-12.9 15.5-12.9h5.4v-2.9c0-5.6-2.5-7.7-7.3-7.7-2.6 0-5.9.7-9.5 2.1l-1.5-5c4.3-1.8 8.2-2.7 12.1-2.7 8.5 0 12.3 4.8 12.3 13v17.9zm-6.1-1.2v-9h-4.6c-6.5 0-9.7 2.7-9.7 8 0 4.6 2.1 7 6.1 7 3.5.1 6.2-1.9 8.2-6zm17 10.3v-54.7l6.1-.8v55.5h-6.1zm27.8 0h-7.3l-13.9-21.3 12.9-17.7h6.9l-12.9 17.2 14.3 21.8zm10.4-7.8c0 2.1.6 3.1 2.2 3.1.9 0 1.6-.1 2.3-.4l1.6 4.7c-1.7.9-3.4 1.3-5.2 1.3-4.5 0-7-3-7-8.6v-47l6.1-.8v47.7zm37.8-9.4h-22.4c.6 9 4.4 12.5 9.5 12.5 3.5 0 6.1-1 9.1-3.4l2.7 4.1c-3.5 3-7.4 4.9-12.3 4.9-9.8 0-15.5-7.6-15.5-20 0-12.1 5.5-20.8 14.6-20.8 9.5 0 14.5 7.3 14.5 19.2-.1 1.4-.1 2.6-.2 3.5zm-5.9-5.4c0-7.6-2.7-11.8-8.3-11.8-4.7 0-7.7 3.6-8.2 12.3h16.5v-.5zm33.2-16.8-1.1 6.7c-1.1-.3-1.8-.4-3.1-.4-4.4 0-6.9 3.5-8.4 11v22.3h-6.1v-39h5.3l.6 7.9c1.9-5.8 5.1-8.8 9.4-8.8 1.1-.2 2.3 0 3.4.3zm66.1 11.4v28h-6.1v-27c0-5.8-2.3-7.5-4.9-7.5-3.8 0-5.9 2.7-8.3 6.9v27.7h-6.1v-27c0-5.8-2.3-7.5-4.9-7.5-3.8 0-5.9 2.7-8.3 6.9v27.7H221v-39h5.3l.5 5.7c2.3-3.9 5.5-6.6 10.1-6.6 4.3 0 7.5 2.6 8.9 7 2.5-4.2 5.7-7 10.5-7 5.6-.2 9.4 4.4 9.4 11.7zm39.4 8.5c0 12.1-5.7 20.4-15.7 20.4s-15.7-8-15.7-20.4c0-12.1 5.7-20.4 15.7-20.4s15.7 8 15.7 20.4zm-24.7 0c0 10.1 3.2 14.9 9.1 14.9s9.1-4.7 9.1-14.9c0-10.1-3.2-14.9-9-14.9-5.9 0-9.2 4.7-9.2 14.9zm60.3 19.5h-5.4l-.6-5.4c-2.3 3.9-5.8 6.3-10.1 6.3-8.5 0-13.3-8.1-13.3-20.2 0-11.9 5.2-20.6 13.8-20.6 4.1 0 7.1 2.1 9.5 4.8V441l6.1.8v54.7zm-6.1-10.3v-19.1c-2.2-3.1-4.7-5.1-8.1-5.1-5.3 0-8.5 4.9-8.5 15 0 10.3 2.9 14.9 8 14.9 3.9.1 6.3-2.1 8.6-5.7zm38 10.3-.5-6.1c-2.7 4.7-5.9 7-10.9 7-6.1 0-9.8-4.3-9.8-11.9v-28h6.1v27.2c0 5.3 1.6 7.3 5.4 7.3s6.7-2.8 8.8-6.7v-27.8h6.1v39h-5.2zm22-7.8c0 2.1.6 3.1 2.2 3.1.9 0 1.6-.1 2.3-.4l1.6 4.7c-1.7.9-3.4 1.3-5.2 1.3-4.5 0-7-3-7-8.6v-47l6.1-.8v47.7z" class="st0"/><path fill="#fff" d="m371.1 254.1-117.7-119c-6-6.3-15.9-6.3-21.9 0l-117.7 119c-6 6.3-3.8 11.5 5 11.5h24.5v91.3c0 6.6.3 12 12.1 12h57.1v-91.6h59.8v91.6h60c9 0 9.2-5.3 9.2-12v-91.3H366c8.9-.1 11.1-5.3 5.1-11.5z"/><path fill="#7abfbc" d="M212.5 276.5h59.8v92.3h-59.8z"/></svg>