<svg xmlns="http://www.w3.org/2000/svg" viewBox="0 0 361.36 361.36"><title>ngdot Logo</title><circle cx="180.68" cy="180.68" r="171.68" transform="translate(-74.84 180.68) rotate(-45)" style="stroke:#000;stroke-miterlimit:10;stroke-width:18px"/><path d="M189.7,228.49c-.57-26.33-2.18-94.72-3.58-93.26-1.73,1.79-14.41,40.4-14.41,42.93v49.08L94.71,116q-4.8-6-11-6h-2.6a12.37,12.37,0,0,0-9.2,3.9,12.88,12.88,0,0,0-3.8,9.3v119.4a8.88,8.88,0,0,0,9,9,9.05,9.05,0,0,0,6.5-2.6,8.55,8.55,0,0,0,2.7-6.4V134.44l77.4,111.8a12.56,12.56,0,0,0,10.6,5.4h2.4a12.88,12.88,0,0,0,9.3-3.8A12.39,12.39,0,0,0,189.7,241Z" style="fill:#fff"/><path d="M189.7,130.94q-18,20-18,50.1,0,30.27,18,50.12Z" style="fill:#fff"/><path d="M208,138.27q14.16-11.61,35.3-11.63,19.8,0,39.2,11.2a11.46,11.46,0,0,0,5.1,1,6.86,6.86,0,0,0,5.3-2.5,9.62,9.62,0,0,0,2.2-6.6,6.88,6.88,0,0,0-4-6.3,105.09,105.09,0,0,0-21.1-10.2q-11.7-4.2-28.7-4.2-18.7,0-33.3,7.62Z" style="fill:#fff"/><path d="M292.45,176.84a9.25,9.25,0,0,0-6.8-2.8h-39.4a8.2,8.2,0,1,0,0,16.4h33v36.2a72.15,72.15,0,0,1-35,8.8q-22.18,0-36.3-12.09v21.8q14.72,7.47,33.9,7.49a101.45,101.45,0,0,0,45.8-11.2,13,13,0,0,0,5.5-4.9,13.67,13.67,0,0,0,2.1-7.5v-45.4A9.23,9.23,0,0,0,292.45,176.84Z" style="fill:#fff"/></svg>