<svg version="1.1" id="Ebene_1" xmlns="http://www.w3.org/2000/svg" x="0" y="0" viewBox="0 0 100 100" xml:space="preserve"><style>.st2{fill:#fff}</style><g id="Energieausweis"><linearGradient id="SVGID_1_" gradientUnits="userSpaceOnUse" x1="79.6" y1="6384.1" x2="20.4" y2="6267.8" gradientTransform="translate(0 -6276)"><stop offset="0" stop-color="#72ca6d"/><stop offset="1" stop-color="#13c2c9"/></linearGradient><path d="M0 5.7C0 2.6 2.6 0 5.7 0h88.7c3.1 0 5.7 2.6 5.7 5.7v88.7c0 3.1-2.6 5.7-5.7 5.7H5.7A6 6 0 010 94.3V5.7z" fill="url(#SVGID_1_)"/></g><path class="st2" d="M47.2 45.3c0 1.4-.7 2.5-2 3.1a4 4 0 011.6 3.3c0 1.3-.5 2.4-1.6 3.1-1 .8-2.5 1.1-4.2 1.1-1.9 0-3.4-.4-4.5-1.2s-1.7-2-1.7-3.6h2.8c0 .8.3 1.5.9 2 .6.5 1.4.7 2.5.7.9 0 1.7-.2 2.2-.5.5-.4.8-.8.8-1.5 0-.6-.3-1.1-.8-1.4l-2.9-1.2c-1.4-.4-2.5-.8-3.3-1.2s-1.3-.9-1.6-1.5c-.4-.6-.5-1.3-.5-2.1 0-1.4.6-2.5 1.9-3.2-.5-.4-.9-.8-1.1-1.4s-.4-1.2-.4-1.9c0-1.3.5-2.3 1.6-3.1s2.5-1.2 4.2-1.2c1.8 0 3.3.4 4.3 1.3s1.5 2.1 1.5 3.6h-2.8c0-.8-.3-1.5-.8-2-.6-.5-1.3-.7-2.2-.7s-1.7.2-2.2.5c-.5.4-.8.9-.8 1.5s.2 1.1.7 1.5c.5.3 1.4.7 2.9 1.1 1.5.4 2.6.8 3.3 1.2s1.3.9 1.6 1.5c.4.7.6 1.4.6 2.2zm-6.5-2.5l-1.8-.6c-.8.3-1.2.9-1.2 1.9 0 .6.2 1.1.6 1.4.4.3 1.1.7 2.3 1l2.1.6.5.2c.9-.4 1.3-1 1.3-1.9 0-.6-.3-1.1-.8-1.5-.6-.3-1.6-.7-3-1.1z" opacity=".6"/><path class="st2" d="M32.4 60.2c-.6.1-1 .6-1 1.2 0 .8.7 1.4 1.5 1.2.7-.1 1.1-.8 1-1.4-.2-.7-.8-1.2-1.5-1zM81.6 26.5l-11.1-4.4h-.9L63 24.7l-4.5 1.8c-.3.1-.5.4-.6.6l-.1.4v17.3a8 8 0 003.8 6.7l7.8 4.7.6.2.6-.2 5.3-3.2 2.4-1.5h.1a8 8 0 003.8-6.7V27.6c.2-.5-.1-.9-.6-1.1zM80 44.8c0 1.4-.6 2.8-1.5 3.8l-1.1.9-1.3.8-5.9 3.6-7.2-4.3a5.7 5.7 0 01-2.7-4.7V28.4l3-1.2 6.1-2.4.8-.3.8.3 7.1 2.8 2 .8-.1 16.4z"/><path fill="none" d="M51.8 69.2h-3.3L47 75.3h6.3z"/><path class="st2" d="M76.1 56.5v3.6H37.6c-.7 0-1.2.5-1.2 1.2s.5 1.2 1.2 1.2h38.5v1.7c0 1.4-1.1 2.5-2.5 2.5H26.8a2.5 2.5 0 01-2.5-2.5v-1.7h3.5c.7 0 1.2-.5 1.2-1.2s-.5-1.2-1.2-1.2h-3.5V32.7c0-1.4 1.1-2.5 2.5-2.5h28.1v-2.4H26.8a5 5 0 00-4.9 4.9v31.6a5 5 0 004.9 4.9H46l-1.4 6H47l1.4-6h3.4l1.4 6h2.5l-1.4-6h19.2a5 5 0 004.9-4.9V55l-2.3 1.5zM53.3 75.3H47v.1h-2.5v-.1h-8.3c-.7 0-1.2.5-1.2 1.2s.5 1.2 1.2 1.2H65c.7 0 1.2-.5 1.2-1.2s-.5-1.2-1.2-1.2h-9.2v.1l-2.5-.1zM47 75.3h-2.5zM53.3 75.3h2.5z"/><path d="M73.9 36.6h-.4V35c0-1.8-1.5-3.2-3.2-3.2S67 33.2 67 35v1.6h-.4c-.7 0-1.2.5-1.2 1.2v5.7c0 .7.5 1.2 1.2 1.2h7.3c.7 0 1.2-.5 1.2-1.2v-5.7c0-.7-.5-1.2-1.2-1.2zM68.1 35c0-1.2 1-2.2 2.2-2.2s2.2 1 2.2 2.2v1.6h-4.3l-.1-1.6zm2.7 5.8V42c0 .3-.2.5-.5.5s-.5-.2-.5-.5v-1.2a1 1 0 01-.5-.9c0-.6.5-1.1 1.1-1.1s1.1.5 1.1 1.1c-.2.3-.4.7-.7.9z" opacity=".6" fill="#fff"/></svg>