<svg xmlns="http://www.w3.org/2000/svg" viewBox="0 0 100 100"><linearGradient id="A" x1="79.6" x2="20.4" y1="108.1" y2="-8.2" gradientUnits="userSpaceOnUse"><stop offset="0" stop-color="#72ca6d"/><stop offset="1" stop-color="#13c2c9"/></linearGradient><path fill="url(#A)" d="M0 5.7C0 2.6 2.6 0 5.7 0h88.6c3.1 0 5.7 2.6 5.7 5.7v88.6c0 3.1-2.6 5.7-5.7 5.7H5.7A6 6 0 010 94.2V5.7z"/><g fill="#fff"><path d="M47.1 45.3c0 1.4-.7 2.5-2 3.1a4 4 0 0 1 1.6 3.3c0 1.3-.5 2.4-1.6 3.1-1 .8-2.5 1.1-4.2 1.1-1.9 0-3.4-.4-4.5-1.2s-1.7-2-1.7-3.6h2.8c0 .8.3 1.5.9 2s1.4.7 2.5.7c.9 0 1.7-.2 2.2-.5.5-.4.8-.8.8-1.5 0-.6-.3-1.1-.8-1.4l-2.9-1.2c-1.4-.4-2.5-.8-3.3-1.2s-1.3-.9-1.6-1.5c-.4-.6-.5-1.3-.5-2.1 0-1.4.6-2.5 1.9-3.2-.5-.4-.9-.8-1.1-1.4s-.4-1.2-.4-1.9c0-1.3.5-2.3 1.6-3.1a7 7 0 0 1 4.2-1.2c1.8 0 3.3.4 4.3 1.3s1.5 2.1 1.5 3.6H44c0-.8-.3-1.5-.8-2-.6-.5-1.3-.7-2.2-.7s-1.7.2-2.2.5c-.5.4-.8.9-.8 1.5s.2 1.1.7 1.5c.5.3 1.4.7 2.9 1.1s2.6.8 3.3 1.2 1.3.9 1.6 1.5c.4.7.6 1.4.6 2.2zm-6.5-2.5l-1.8-.6c-.8.3-1.2.9-1.2 1.9 0 .6.2 1.1.6 1.4s1.1.7 2.3 1l2.1.6.5.2c.9-.4 1.3-1 1.3-1.9 0-.6-.3-1.1-.8-1.5-.6-.3-1.6-.7-3-1.1z" opacity=".6"/><path d="M32.3 60.2c-.6.1-1 .6-1 1.2 0 .8.7 1.4 1.5 1.2.7-.1 1.1-.8 1-1.4-.2-.7-.8-1.2-1.5-1zm49.2-33.7l-11.1-4.4h-.9l-6.6 2.6-4.5 1.8c-.3.1-.5.4-.6.6l-.1.4v17.3a8 8 0 0 0 3.8 6.7l7.8 4.7.6.2.6-.2 5.3-3.2 2.4-1.5h.1a8 8 0 0 0 3.8-6.7V27.6c.2-.5-.1-.9-.6-1.1zm-1.6 18.3c0 1.4-.6 2.8-1.5 3.8l-1.1.9-1.3.8-5.9 3.6-7.2-4.3a5.7 5.7 0 0 1-2.7-4.7V28.4l3-1.2 6.1-2.4.8-.3.8.3 7.1 2.8 2 .8-.1 16.4zM76 56.5v3.6H37.5c-.7 0-1.2.5-1.2 1.2s.5 1.2 1.2 1.2H76v1.7c0 1.4-1.1 2.5-2.5 2.5H26.7a2.5 2.5 0 0 1-2.5-2.5v-1.7h3.5c.7 0 1.2-.5 1.2-1.2s-.5-1.2-1.2-1.2h-3.5V32.7c0-1.4 1.1-2.5 2.5-2.5h28.1v-2.4H26.7a5 5 0 0 0-4.9 4.9v31.6a5 5 0 0 0 4.9 4.9h19.2l-1.4 6h2.4l1.4-6h3.4l1.4 6h2.5l-1.4-6h19.2a5 5 0 0 0 4.9-4.9V55L76 56.5z"/><path d="M53.2 74.9h-6.3v.1h-2.3v-.1h-8.5c-.7 0-1.2.5-1.2 1.2s.5 1.2 1.2 1.2h28.8c.7 0 1.2-.5 1.2-1.2s-.5-1.2-1.2-1.2h-9.4v.1l-2.3-.1zm-6.3.4h-2.5zm6.3 0h2.5z"/><path d="M73.8 36.6h-.4V35c0-1.8-1.5-3.2-3.2-3.2a3.3 3.3 0 00-3.3 3.2v1.6h-.4c-.7 0-1.2.5-1.2 1.2v5.7c0 .7.5 1.2 1.2 1.2h7.3c.7 0 1.2-.5 1.2-1.2v-5.7c0-.7-.5-1.2-1.2-1.2zM68 35c0-1.2 1-2.2 2.2-2.2s2.2 1 2.2 2.2v1.6h-4.3L68 35zm2.7 5.8V42c0 .3-.2.5-.5.5s-.5-.2-.5-.5v-1.2a1 1 0 01-.5-.9c0-.6.5-1.1 1.1-1.1.6 0 1.1.5 1.1 1.1-.2.3-.4.7-.7.9z" opacity=".6"/></g><path d="M89.1 87.7c0-.3-.2-.6-.6-.6s-.8.3-.7.6c.1.4.2.7.7.7.2.1.6-.3.6-.7zm3-1c-.4-.1-.8.5-.4.7.2.2 1.1.4 1.5.7 1.1.7 1.7 1.3 2 2.3.4 1.9 0 5-2.6 5-.7 0-1.6-.3-2-1-.4-.9.2-2.3 1.2-2.5 1.2-.2 1.7.7.7 1.3-1.9 1.1 1 .9 1.5-.1.6-1.2-.6-2.3-2-2.2-1.1.1-2.1.8-2.4 1.8-.9 2.4 1.4 4.4 3.7 4 2.5-.4 3.4-3.1 3.2-5.4-.2-2.5-2-3.9-4.4-4.6zm-1.9.4c-.2-.2-.1-.5-.1-.8 0-.1.1-.6-.1-.6h-.4c-.5 0-1.1.2-1.6.5a4 4 0 0 0-1.9 3l4.4.1c.3 0 .5.7-.4.7l-4.2-.1c-.5 0-.6-.2-.5-.6V89a4.4 4.4 0 0 1 4.9-3.9c.4 0 .5.1.5.5v1.1c0 .7-.6.4-.6.4z" opacity=".7" fill="#fff" fill-rule="evenodd"/></svg>