<svg xmlns="http://www.w3.org/2000/svg" xml:space="preserve" viewBox="0 0 401 401"><style>.st4{fill:#fff}.st6{fill:#98c11d}</style><path id="Ebene_2" fill="#262a2e" d="M-1-1h403v403H-1z"/><g id="Ebene_1"><path d="M299.97 185.16h8.37l22.27 56.9-8.37.01-6.23-17.14-24.07.01-6.37 17.14h-7.81l22.21-56.92zm-5.64 33.4 19.29-.01-9.5-26.54h-.16l-9.63 26.55zm-34.12-20.77h7.57v44.31h-7.57z" class="st4"/><path fill="#fff" fill-rule="evenodd" d="M264.2 187.62c.09-.05.21-.08.26-.15.24-.38.46-.77.73-1.23-.11.64-.68 1.03-.65 1.63.03.01.07.03.1.04.22-.34.43-.69.66-1.02.18-.27.39-.52.58-.79.83-1.19 2.05-1.62 3.41-1.8h.07c.3 0 .66-.05.79.28.13.31-.06.59-.25.85-.49.68-.81 1.43-.9 2.27-.02.15-.06.3-.1.45-.09.31-.29.46-.62.4-.11-.02-.23 0-.44 0 .24.16.4.26.56.36.39.27.48.64.31 1.1-.12.31-.21.63-.31.94-.2.57-.46 1.12-.91 1.52-.15.14-.44.09-.63.2-.26.14-.41-.01-.62-.1-1.06-.47-1.32-1.48-1.74-2.42-.06.01-.16.02-.25.02-.21.46-.42.95-.66 1.42-.3.6-.93.8-1.44 1.15-.08.05-.28-.09-.42-.11-.34-.04-.52-.22-.74-.5-.37-.47-.58-1.01-.79-1.54-.16-.4-.14-.87-.17-1.31-.01-.1.14-.25.24-.32.2-.13.42-.23.64-.4h-.36c-.59-.02-.82-.31-.83-.9-.01-.36-.12-.73-.23-1.09-.09-.29-.22-.57-.37-.84-.15-.25-.33-.48-.5-.72v-.36c.29-.35.68-.38 1.09-.34 1.06.1 2 .52 2.7 1.32.61.69 1.13 1.46 1.69 2.19.01-.01.04-.1.08-.19l.02-.01z" clip-rule="evenodd"/><path d="m75.23 185.28 10.36-.01 17.97 47.82 17.99-47.84 10.36-.01.03 56.92h-7.18l-.03-47.36h-.16l-17.75 47.37h-6.46l-17.81-47.35h-.16l.03 47.36h-7.18l-.01-56.9zm72.06-.04 39.3-.02v6.38l-31.73.02.01 18.1 29.58-.02v6.38l-29.58.02.01 19.69 31.97-.02v6.38l-39.54.02-.02-56.93zm52.7-.03 19.53-.01c17.54-.01 27.35 8.75 27.36 27.09.01 19.05-8.35 29.82-27.33 29.83l-19.53.01-.03-56.92zm7.6 50.54 12.6-.01c5.18 0 19.13-1.45 19.12-22.41-.01-13.55-5.03-21.76-18.99-21.75l-12.76.01.03 44.16z" class="st4"/><path d="m106.21 98.4 37.39-.02v6.38l-29.82.02.01 18.1 26.15-.01v6.38l-26.15.01.02 26.07h-7.57l-.03-56.93zm59.63-.03h8.37l22.28 56.91h-8.37l-6.23-17.14-24.08.01-6.37 17.14h-7.81l22.21-56.92zm-5.64 33.41 19.29-.01-9.5-26.54h-.16l-9.63 26.55zm78.76-16.79c-.88-8.13-6.3-11.64-14.12-11.63-6.38 0-12.75 2.32-12.75 9.73 0 7.02 9.09 8.05 18.26 10.11 9.09 2.07 18.18 5.25 18.19 16.41.01 12.12-11.87 16.99-22.23 16.99-12.76.01-23.52-6.2-23.53-20.08h7.17c.01 9.57 7.98 13.71 16.59 13.7 6.86 0 14.43-2.16 14.42-10.37 0-7.81-9.09-9.16-18.18-11.15-9.09-1.99-18.26-4.61-18.27-15.06-.01-11.56 10.27-16.67 20.64-16.67 11.64-.01 20.49 5.49 20.98 18.01l-7.17.01zm30.99-10.22h-4.21l-3.92-.94V98.4l34.67-.03v6.38l-18.98.01.03 50.55h-7.57l-.02-50.54z" class="st6"/><path d="M106.73 103.81v-5.39l-28.36.02c10.61.91 20.28 2.78 28.36 5.37z" class="st6"/><path d="M106.73 105.84v-3.53l-18.57.01c6.94.6 13.28 1.83 18.57 3.52zm3.72-4.56v1.03H91.88c6.94-.18 13.28-.53 18.57-1.03zm151.56 1.81v-4.68l-24.15.01c6.26.81 19.39 2.43 24.15 4.67z" class="st6"/><path d="m265.73 104.77-3.72-2.97-14.66.01c2.83.36 5.43.68 10.06 1.29 3.41.44 2.41 1.16 8.32 1.67zm-1.52-3.87v.89h-14.66c4.09-.13 11.53-.46 14.66-.89zm-117.99 50.9.29 3.53-18.57-.01c6.94-.6 17.06-.45 18.28-3.52z" class="st6"/><path d="M88.15 305.67H86.6c-.12-.58-.32-1.11-.62-1.6s-.67-.92-1.12-1.29c-.45-.37-.96-.65-1.53-.86-.57-.2-1.19-.31-1.85-.31-1.07 0-2.04.28-2.91.83-.88.56-1.58 1.37-2.1 2.44-.53 1.07-.79 2.39-.79 3.94 0 1.57.26 2.89.79 3.96.52 1.07 1.22 1.88 2.1 2.44.88.55 1.85.83 2.91.83.66 0 1.28-.1 1.85-.31.57-.2 1.08-.49 1.53-.85.45-.36.83-.79 1.12-1.29.3-.49.51-1.03.62-1.61h1.55c-.14.78-.39 1.5-.77 2.16-.38.67-.85 1.25-1.43 1.75s-1.25.89-2 1.17c-.75.28-1.58.42-2.48.42-1.42 0-2.68-.36-3.78-1.07-1.1-.71-1.96-1.72-2.58-3.01-.62-1.3-.94-2.83-.94-4.59 0-1.76.31-3.29.94-4.59.62-1.3 1.48-2.3 2.58-3.01s2.36-1.07 3.78-1.07c.9 0 1.73.14 2.48.42.75.28 1.42.67 2 1.17.58.5 1.06 1.09 1.43 1.75.38.68.64 1.4.77 2.18zm18.05 3.17c0 1.76-.31 3.29-.94 4.59-.63 1.3-1.49 2.31-2.58 3.02-1.1.71-2.36 1.07-3.78 1.07s-2.68-.36-3.78-1.07c-1.1-.71-1.96-1.72-2.58-3.02-.62-1.3-.94-2.83-.94-4.59 0-1.76.31-3.29.94-4.59.62-1.3 1.48-2.31 2.58-3.02s2.36-1.07 3.78-1.07 2.68.36 3.78 1.07c1.1.71 1.96 1.72 2.58 3.02s.94 2.83.94 4.59zm-1.5 0c0-1.51-.25-2.81-.76-3.89s-1.2-1.9-2.07-2.48c-.87-.57-1.87-.86-2.98-.86-1.11 0-2.09.29-2.97.86-.87.57-1.56 1.39-2.07 2.47s-.76 2.37-.76 3.89c0 1.51.25 2.81.76 3.88.51 1.08 1.2 1.9 2.07 2.48.87.58 1.87.86 2.98.86 1.11 0 2.1-.29 2.98-.86.88-.57 1.57-1.4 2.07-2.48.51-1.06.76-2.36.75-3.87zm18.96-8.44v16.88h-1.5l-9.97-14.14h-.13v14.14h-1.54V300.4H112l10.01 14.15h.13V300.4h1.52zm4.04 1.38v-1.39h12.24v1.39h-5.35v15.5h-1.54v-15.5h-5.35zm14.33 15.5h-1.62l6.14-16.88h1.65l6.14 16.88h-1.62l-5.29-14.88h-.11l-5.29 14.88zm1.16-6.47h8.37v1.38h-8.37v-1.38zm27.68-1.97c0 1.76-.31 3.29-.94 4.59-.63 1.3-1.49 2.31-2.58 3.02-1.1.71-2.36 1.07-3.78 1.07s-2.68-.36-3.78-1.07c-1.1-.71-1.96-1.72-2.58-3.02-.62-1.3-.94-2.83-.94-4.59 0-1.76.31-3.29.94-4.59.62-1.3 1.48-2.31 2.58-3.02s2.36-1.07 3.78-1.07 2.68.36 3.78 1.07c1.1.71 1.96 1.72 2.58 3.02.62 1.3.94 2.83.94 4.59zm-1.5 0c0-1.51-.25-2.81-.76-3.89s-1.2-1.9-2.07-2.48c-.87-.57-1.87-.86-2.98-.86-1.11 0-2.09.29-2.97.86-.87.57-1.56 1.39-2.07 2.47-.51 1.08-.76 2.37-.76 3.89 0 1.51.25 2.81.76 3.88s1.2 1.9 2.07 2.48c.87.58 1.87.86 2.98.86 1.11 0 2.1-.29 2.98-.86.88-.57 1.57-1.4 2.07-2.48.5-1.06.75-2.36.75-3.87zm12.91 8.44V300.4h9.79v1.39h-8.25v6.36h7.73v1.39h-7.73v6.37h8.42v1.39h-9.96zm14.62-16.88 4.67 7.33h.11l4.67-7.33h1.82l-5.43 8.44 5.43 8.44h-1.82l-4.67-7.25h-.11l-4.67 7.25h-1.82l5.52-8.44-5.52-8.44h1.82zm13.76 1.38v-1.39h12.24v1.39h-5.35v15.5h-1.54v-15.5h-5.35zm16.29 15.5V300.4h9.79v1.39h-8.25v6.36h7.73v1.39h-7.73v6.37h8.42v1.39h-9.96zm27.5-16.88v16.88h-1.5l-9.97-14.14h-.13v14.14h-1.54V300.4h1.49l10.01 14.15h.13V300.4h1.51zm14.23 4.22c-.09-.94-.51-1.69-1.24-2.24-.74-.56-1.66-.83-2.78-.83-.78 0-1.48.13-2.07.4-.6.27-1.06.64-1.4 1.12-.34.47-.51 1.01-.51 1.62 0 .45.1.84.29 1.17.19.34.45.62.78.86s.69.44 1.09.61c.4.17.8.31 1.21.43l1.78.51c.54.15 1.08.34 1.62.57.54.23 1.03.52 1.48.87.45.35.81.78 1.08 1.28s.41 1.11.41 1.81c0 .9-.23 1.71-.7 2.43-.47.72-1.14 1.29-2.01 1.71-.87.42-1.92.63-3.14.63-1.15 0-2.15-.19-2.99-.57-.85-.38-1.51-.91-1.99-1.59a4.52 4.52 0 0 1-.82-2.35h1.58c.05.67.27 1.23.66 1.69.38.46.89.81 1.5 1.05.62.24 1.3.36 2.06.36.84 0 1.59-.14 2.25-.42.66-.28 1.17-.68 1.55-1.19.38-.51.56-1.1.56-1.78 0-.57-.15-1.05-.45-1.44-.3-.39-.71-.71-1.24-.98-.53-.26-1.14-.5-1.84-.7l-2.02-.59c-1.32-.39-2.35-.94-3.08-1.64s-1.1-1.59-1.1-2.67c0-.91.25-1.7.73-2.39.49-.69 1.14-1.23 1.98-1.62.83-.39 1.77-.58 2.81-.58 1.05 0 1.98.19 2.79.58.81.38 1.45.92 1.92 1.59.48.67.73 1.44.76 2.3h-1.51zm7.56-4.22v16.88h-1.54V300.4h1.54zm18.91 8.44c0 1.76-.31 3.29-.94 4.59-.63 1.3-1.49 2.31-2.59 3.02-1.1.71-2.35 1.07-3.78 1.07-1.42 0-2.68-.36-3.78-1.07-1.1-.71-1.96-1.72-2.58-3.02-.63-1.3-.94-2.83-.94-4.59 0-1.76.31-3.29.94-4.59.62-1.3 1.48-2.31 2.58-3.02s2.36-1.07 3.78-1.07 2.68.36 3.78 1.07c1.1.71 1.96 1.72 2.59 3.02.62 1.3.94 2.83.94 4.59zm-1.5 0c0-1.51-.25-2.81-.76-3.89s-1.19-1.9-2.07-2.48c-.87-.57-1.87-.86-2.98-.86-1.1 0-2.09.29-2.97.86-.87.57-1.57 1.39-2.07 2.47s-.76 2.37-.76 3.89c0 1.51.25 2.81.76 3.88.51 1.08 1.2 1.9 2.07 2.48.87.58 1.86.86 2.98.86 1.11 0 2.1-.29 2.98-.86.88-.57 1.57-1.4 2.07-2.48s.75-2.36.75-3.87zm18.95-8.44v16.88h-1.5l-9.97-14.14H301v14.14h-1.54V300.4h1.49l10.01 14.15h.13V300.4h1.51zm14.23 4.22c-.09-.94-.51-1.69-1.24-2.24-.74-.56-1.66-.83-2.78-.83-.78 0-1.48.13-2.07.4-.6.27-1.06.64-1.4 1.12-.34.47-.51 1.01-.51 1.62 0 .45.1.84.29 1.17.19.34.45.62.78.86s.69.44 1.09.61c.4.17.8.31 1.21.43l1.78.51c.54.15 1.08.34 1.62.57.54.23 1.03.52 1.48.87.45.35.81.78 1.08 1.28s.41 1.11.41 1.81c0 .9-.23 1.71-.7 2.43-.47.72-1.14 1.29-2.01 1.71-.87.42-1.92.63-3.14.63-1.15 0-2.15-.19-2.99-.57-.85-.38-1.51-.91-1.99-1.59a4.52 4.52 0 0 1-.82-2.35h1.58c.05.67.27 1.23.66 1.69.38.46.89.81 1.5 1.05.62.24 1.3.36 2.06.36.84 0 1.59-.14 2.25-.42.66-.28 1.17-.68 1.55-1.19.38-.51.56-1.1.56-1.78 0-.57-.15-1.05-.45-1.44-.3-.39-.71-.71-1.24-.98-.53-.26-1.14-.5-1.84-.7l-2.02-.59c-1.32-.39-2.35-.94-3.08-1.64s-1.1-1.59-1.1-2.67c0-.91.25-1.7.73-2.39.49-.69 1.14-1.23 1.98-1.62.83-.39 1.77-.58 2.81-.58 1.05 0 1.98.19 2.79.58.81.38 1.45.92 1.92 1.59.48.67.73 1.44.76 2.3h-1.51zM72.69 272.54h255.62v1H72.69z" class="st4"/></g></svg>