<svg xmlns="http://www.w3.org/2000/svg" width="100mm" height="100mm" viewBox="0 0 354.331 354.331"><path fill="#e2001a" d="M170.511 354.33a8.858 8.858 0 0 1-6.284-2.604l-46.645-46.645a8.882 8.882 0 0 1 0-12.568c3.469-3.473 9.101-3.473 12.568 0l40.361 40.36 155.707-155.706-155.707-155.71-40.363 40.364c-3.469 3.47-9.102 3.47-12.568 0a8.885 8.885 0 0 1 0-12.57l46.647-46.648c3.469-3.47 9.102-3.47 12.568 0l168.277 168.278a8.887 8.887 0 0 1 0 12.57L176.795 351.726a8.858 8.858 0 0 1-6.284 2.605z"/><path d="M64.629 263.709H12.97c-2.071 0-3.571-.68-4.496-2.042-.926-1.36-1.388-3.564-1.388-6.613v-28.126c0-3.045.462-5.249 1.388-6.613.925-1.36 2.425-2.042 4.496-2.042h43.974c1.415 0 2.477-.68 3.188-2.042.707-1.36 1.063-3.007 1.063-4.929 0-2.724-.356-4.726-1.063-6.01-.71-1.28-1.773-2.003-3.188-2.165l-24.52-5.048c-7.63-1.6-13.76-5.289-18.392-11.06-4.633-5.77-6.946-15.385-6.946-28.848v-25.243c0-13.619 2.997-24.076 8.99-31.373 5.993-7.29 14.274-10.937 24.847-10.937h45.774c2.069 0 3.566.685 4.495 2.042.924 1.365 1.389 3.569 1.389 6.611v28.609c0 3.046-.465 5.25-1.389 6.613-.927 1.362-2.426 2.042-4.495 2.042h-38.09c-1.418 0-2.509.684-3.271 2.042-.762 1.364-1.145 3.088-1.145 5.168 0 2.085.38 3.847 1.145 5.289.762 1.442 1.85 2.246 3.27 2.404l24.356 4.808c7.629 1.605 13.786 5.289 18.472 11.06 4.684 5.77 7.03 15.385 7.03 28.848v25.243c0 13.623-3.023 24.08-9.072 31.373-6.046 7.295-14.303 10.939-24.764 10.939zm140.748 0H122.17c-2.07 0-3.57-.68-4.495-2.042-.926-1.36-1.388-3.564-1.388-6.613V99.274c0-3.043.462-5.247 1.388-6.611.925-1.36 2.425-2.042 4.495-2.042h25.338c2.07 0 3.569.684 4.496 2.042.924 1.364 1.388 3.568 1.388 6.61v119h22.396v-38.944c0-3.044.462-5.248 1.39-6.613.923-1.36 2.423-2.042 4.494-2.042h23.703c2.068 0 3.568.685 4.495 2.042.924 1.365 1.389 3.569 1.389 6.613v75.725c0 3.047-.465 5.25-1.389 6.613-.924 1.362-2.424 2.042-4.493 2.042z"/><path fill="#707173" d="M98.468 210.909v10.49c0 13.623-3.024 24.08-9.073 31.373-6.048 7.295-14.305 10.937-24.766 10.937H12.97c-2.071 0-3.571-.68-4.496-2.042-.926-1.36-1.388-3.564-1.388-6.613v-28.126c0-3.045.462-5.249 1.388-6.613.925-1.36 2.425-2.042 4.496-2.042h43.974c1.415 0 2.477-.68 3.188-2.042.707-1.36 1.063-3.007 1.063-4.929 0-.133 0-.262-.003-.391m150.068-.002v44.145c0 3.047-.463 5.25-1.388 6.613-.926 1.362-2.426 2.042-4.495 2.042H122.17c-2.07 0-3.57-.68-4.495-2.042-.926-1.36-1.388-3.564-1.388-6.613v-44.18l37.108-.032v7.433h22.396v-7.433"/></svg>