<svg viewBox="0 0 399 570" xmlns="http://www.w3.org/2000/svg" fill-rule="evenodd" clip-rule="evenodd" stroke-linejoin="round" stroke-miterlimit="2"><path d="M396.802 514.888c0-3.13-2.541-5.67-5.67-5.67H7.362a5.673 5.673 0 00-5.67 5.67v49.442a5.673 5.673 0 005.67 5.67h383.77a5.673 5.673 0 005.67-5.67v-49.442z" fill="#f47c00"/><g fill="#fff" fill-rule="nonzero"><path d="M28.395 553.952a10.46 10.46 0 01-7.574-3.079c-2.835-2.835-2.794-6.035-2.794-11.583s-.041-8.749 2.794-11.584a10.457 10.457 0 017.574-3.077c5.306 0 9.275 3.118 10.288 8.87h-4.456c-.689-2.917-2.633-4.943-5.832-4.943a5.765 5.765 0 00-4.253 1.742c-1.418 1.539-1.742 3.201-1.742 8.992 0 5.792.324 7.452 1.742 8.991a5.765 5.765 0 004.253 1.742 5.845 5.845 0 005.872-4.941h4.416c-.972 5.75-5.063 8.87-10.288 8.87zM59.745 550.873c-4.204 4.079-10.983 4.079-15.188 0-2.836-2.835-2.795-6.035-2.795-11.583s-.04-8.749 2.795-11.584c4.205-4.078 10.983-4.078 15.188 0 2.836 2.835 2.754 6.035 2.754 11.584 0 5.55.082 8.748-2.754 11.583zm-3.321-20.534a6.063 6.063 0 00-8.586 0c-1.418 1.539-1.702 3.16-1.702 8.951 0 5.792.284 7.411 1.702 8.95a6.061 6.061 0 008.586 0c1.418-1.539 1.701-3.158 1.701-8.95 0-5.791-.283-7.412-1.701-8.951zM88.341 553.708v-19.279l-6.642 14.054h-3.24l-6.805-14.054v19.279H67.28v-28.836h4.374l8.424 17.942 8.263-17.942h4.374v28.836h-4.374zM119.571 553.708v-19.279l-6.642 14.054h-3.241l-6.805-14.054v19.279h-4.372v-28.836h4.373l8.424 17.942 8.263-17.942h4.374v28.836h-4.374zM139.622 553.952c-5.873 0-10.327-4.011-10.327-9.964v-19.116h4.373v18.914c0 3.848 2.349 6.237 5.954 6.237 3.606 0 5.994-2.39 5.994-6.237v-18.914h4.375v19.116c0 5.953-4.496 9.964-10.369 9.964zM173.079 553.708l-13.326-20.291v20.291h-4.373v-28.836h4.009l13.325 20.25v-20.25h4.374v28.836h-4.009zM182.923 524.872h4.373v28.836h-4.373zM202.89 528.8v24.908h-4.373V528.8h-7.939v-3.928h20.252v3.928h-7.94z"/><path d="M223.549 541.842v11.866h-4.374v-11.866l-8.627-16.97h4.779l6.035 12.677 6.035-12.677h4.779l-8.627 16.97zM254.131 553.708h-11.664v-28.836h11.218c5.346 0 8.707 3.036 8.707 7.897a6.541 6.541 0 01-3.888 6.116 6.87 6.87 0 014.334 6.683c0 5.305-3.604 8.14-8.707 8.14zm-.811-24.908h-6.48v8.262h6.48c2.795 0 4.699-1.458 4.699-4.131 0-2.674-1.904-4.131-4.699-4.131zm.405 12.191h-6.885v8.788h6.885c3.038 0 4.74-1.862 4.74-4.413 0-2.552-1.702-4.375-4.74-4.375zM284.186 553.708l-1.985-5.791H270.82l-1.984 5.791h-4.659l10.572-28.836h3.523l10.571 28.836h-4.657zm-7.574-22.316l-4.496 12.798h8.87l-4.374-12.798zM299.255 541.842v11.866h-4.374v-11.866l-8.627-16.97h4.78l6.035 12.677 6.033-12.677h4.78l-8.627 16.97zM310.152 553.708v-28.836h18.427v3.928h-14.054v8.424h11.989v3.888h-11.989v8.668h14.054v3.928h-18.427zM348.793 553.708l-6.076-12.15h-5.468v12.15h-4.374v-28.836h11.179c5.466 0 8.95 3.523 8.95 8.423a7.595 7.595 0 01-5.75 7.655l6.642 12.758h-5.103zM343.73 528.8h-6.481v9.032h6.481c2.916 0 4.901-1.661 4.901-4.496 0-2.836-1.985-4.536-4.901-4.536zM375.405 553.708l-13.326-20.291v20.291h-4.373v-28.836h4.009l13.325 20.25v-20.25h4.374v28.836h-4.009z"/></g><path d="M37.516 486.189a37.483 37.483 0 01-27.484-11.175C-.261 464.709.001 451.974.001 434.389c0-17.584-.274-30.331 10.031-40.648a37.538 37.538 0 0127.484-11.163c19.062 0 33.918 10.877 37.504 32.166H54.767c-2.002-8.161-7.148-14.439-17.167-14.439a16.497 16.497 0 00-12.724 5.254c-3.872 4.336-5.028 9.173-5.028 28.795 0 19.621 1.192 24.434 5.028 28.759A16.487 16.487 0 0037.6 468.39c10.019 0 15.165-6.29 17.167-14.439H75.02c-3.586 21.361-18.609 32.238-37.504 32.238zm98.024-9.161c-4.575 4.872-12.164 9.161-23.184 9.161-11.02 0-18.466-4.301-23.052-9.161-6.719-7.006-8.435-15.488-8.435-29.045 0-13.558 1.716-21.897 8.435-28.926 4.586-4.861 12.032-9.126 23.052-9.126s18.597 4.265 23.184 9.126c6.731 7.017 8.447 15.487 8.447 28.926 0 13.438-1.704 22.028-8.435 29.045h-.012zm-14.451-47.082a11.747 11.747 0 00-8.721-3.288 11.473 11.473 0 00-8.601 3.288c-3.848 3.871-4.289 10.293-4.289 18.037 0 7.743.441 14.296 4.289 18.144a11.44 11.44 0 008.601 3.324 11.718 11.718 0 008.721-3.324c3.872-3.86 4.301-10.436 4.301-18.144 0-7.708-.429-14.166-4.301-18.037zm75.543 55.385v-45.092c0-10.162-6.433-13.581-12.307-13.581-5.873 0-12.437 3.419-12.437 13.581v45.08h-18.633v-74.554h18.204v6.886a25.421 25.421 0 0118.549-7.72c7.458 0 13.462 2.383 17.608 6.588 6.028 5.957 7.589 12.986 7.589 21.158v47.654h-18.573zm53.801 0c-15.166 0-21.623-10.722-21.623-21.337v-36.931h-7.827v-14.142h7.863v-22.04c7.779 0 18.621-4.086 18.621-4.086v26.126h13.104v14.165h-13.104v35.741c0 4.289 2.013 6.731 6.457 6.731h6.707v15.737l-10.198.036zm58.376 0v-6.433c-5.004 5.027-9.721 7.148-18.311 7.148s-14.594-2.132-19.062-6.6a23.928 23.928 0 01-6.147-16.75c0-11.914 8.149-21.587 25.471-21.587h17.584v-3.729c0-8.137-3.979-11.747-13.855-11.747-7.148 0-10.448 1.727-14.296 6.171l-11.914-11.592c7.303-8.017 14.463-10.281 26.913-10.281 20.896 0 31.761 8.852 31.761 26.317v49.083h-18.144zm-.441-31.463h-14.713c-6.731 0-10.448 3.133-10.448 8.411 0 5.277 3.431 8.589 10.722 8.589 5.135 0 8.447-.405 11.723-3.574 1.989-1.87 2.704-4.849 2.704-9.447l.012-3.979zm81.762 23.171c-4.575 4.873-12.164 9.162-23.195 9.162-11.032 0-18.466-4.301-23.041-9.162-6.731-7.005-8.435-15.487-8.435-29.045 0-13.557 1.704-21.896 8.435-28.925 4.575-4.861 12.021-9.126 23.041-9.126s18.62 4.265 23.195 9.126c6.719 7.017 8.423 15.487 8.423 28.925 0 13.439-1.751 22.017-8.471 29.034l.048.011zm-14.499-47.093a11.808 11.808 0 00-8.744-3.288 11.392 11.392 0 00-8.578 3.288c-3.872 3.871-4.312 10.293-4.312 18.037 0 7.743.44 14.296 4.312 18.144a11.363 11.363 0 008.578 3.324 11.778 11.778 0 008.744-3.324c3.848-3.86 4.277-10.436 4.277-18.144 0-7.708-.476-14.166-4.277-18.037z" fill="#f47c00" fill-rule="nonzero"/><g fill-rule="nonzero"><path d="M26.357 0C11.957 0 .085 11.801 0 26.201v295.534c.085 14.408 11.971 26.213 26.38 26.201h345.793c14.409.012 26.294-11.793 26.38-26.201V26.201C398.467 11.793 386.582-.012 372.173 0H26.357z" fill="#fff"/><path d="M35.418 211.016c11.159 51.911 20.444 101.345 52.961 136.92H26.357c-14.4 0-26.272-11.801-26.357-26.201V26.201C.085 11.793 11.971-.012 26.38 0h44.814a171.426 171.426 0 00-28.522 33.7C7.186 87.932 21.76 147.164 35.418 211.016zM372.173 0h-70.324c16.65 16.649 30.688 38.208 41.289 65.012L236.213 87.575c-11.717-22.451-29.527-41.131-64.365-33.789-19.216 4.062-31.959 14.842-37.606 26.648-6.941 14.551-10.355 30.865 6.249 108.398 16.605 77.532 26.38 91.057 38.655 101.546 9.976 8.481 26.067 13.19 45.283 9.128 34.86-7.343 43.453-31.602 44.97-56.844l106.903-22.585c2.522 55.303-14.596 98.198-44.814 127.859h40.663c14.409.012 26.294-11.793 26.38-26.201V26.201C398.445 11.801 386.573 0 372.173 0z" fill="#f47c00"/></g></svg>