<?xml version="1.0" encoding="UTF-8" standalone="no"?><!DOCTYPE svg PUBLIC "-//W3C//DTD SVG 1.1//EN" "http://www.w3.org/Graphics/SVG/1.1/DTD/svg11.dtd"><svg width="100%" height="100%" viewBox="0 0 399 570" version="1.1" xmlns="http://www.w3.org/2000/svg" xmlns:xlink="http://www.w3.org/1999/xlink" xml:space="preserve" xmlns:serif="http://www.serif.com/" style="fill-rule:evenodd;clip-rule:evenodd;stroke-linejoin:round;stroke-miterlimit:2;"><g><g><g><path d="M396.802,514.888c0,-3.13 -2.541,-5.67 -5.67,-5.67l-383.77,0c-3.129,0 -5.67,2.54 -5.67,5.67l0,49.442c0,3.129 2.541,5.67 5.67,5.67l383.77,0c3.129,0 5.67,-2.541 5.67,-5.67l0,-49.442Z" style="fill:#f47c00;"/><g><path d="M28.395,553.952c-2.837,0.044 -5.573,-1.068 -7.574,-3.079c-2.835,-2.835 -2.794,-6.035 -2.794,-11.583c0,-5.548 -0.041,-8.749 2.794,-11.584c2.002,-2.011 4.738,-3.122 7.574,-3.077c5.306,0 9.275,3.118 10.288,8.87l-4.456,0c-0.689,-2.917 -2.633,-4.943 -5.832,-4.943c-1.597,-0.034 -3.139,0.597 -4.253,1.742c-1.418,1.539 -1.742,3.201 -1.742,8.992c0,5.792 0.324,7.452 1.742,8.991c1.114,1.145 2.656,1.776 4.253,1.742c2.906,0.057 5.432,-2.069 5.872,-4.941l4.416,0c-0.972,5.75 -5.063,8.87 -10.288,8.87Z" style="fill:#fff;fill-rule:nonzero;"/><path d="M59.745,550.873c-4.204,4.079 -10.983,4.079 -15.188,0c-2.836,-2.835 -2.795,-6.035 -2.795,-11.583c0,-5.548 -0.04,-8.749 2.795,-11.584c4.205,-4.078 10.983,-4.078 15.188,0c2.836,2.835 2.754,6.035 2.754,11.584c0,5.55 0.082,8.748 -2.754,11.583Zm-3.321,-20.534c-1.137,-1.141 -2.683,-1.783 -4.293,-1.783c-1.611,0 -3.156,0.642 -4.293,1.783c-1.418,1.539 -1.702,3.16 -1.702,8.951c0,5.792 0.284,7.411 1.702,8.95c1.137,1.141 2.682,1.783 4.293,1.783c1.61,0 3.156,-0.642 4.293,-1.783c1.418,-1.539 1.701,-3.158 1.701,-8.95c0,-5.791 -0.283,-7.412 -1.701,-8.951Z" style="fill:#fff;fill-rule:nonzero;"/><path d="M88.341,553.708l0,-19.279l-6.642,14.054l-3.24,0l-6.805,-14.054l0,19.279l-4.374,0l0,-28.836l4.374,0l8.424,17.942l8.263,-17.942l4.374,0l0,28.836l-4.374,0Z" style="fill:#fff;fill-rule:nonzero;"/><path d="M119.571,553.708l0,-19.279l-6.642,14.054l-3.241,0l-6.805,-14.054l0,19.279l-4.372,0l0,-28.836l4.373,0l8.424,17.942l8.263,-17.942l4.374,0l0,28.836l-4.374,0Z" style="fill:#fff;fill-rule:nonzero;"/><path d="M139.622,553.952c-5.873,0 -10.327,-4.011 -10.327,-9.964l0,-19.116l4.373,0l0,18.914c0,3.848 2.349,6.237 5.954,6.237c3.606,0 5.994,-2.39 5.994,-6.237l0,-18.914l4.375,0l0,19.116c0,5.953 -4.496,9.964 -10.369,9.964Z" style="fill:#fff;fill-rule:nonzero;"/><path d="M173.079,553.708l-13.326,-20.291l0,20.291l-4.373,0l0,-28.836l4.009,0l13.325,20.25l0,-20.25l4.374,0l0,28.836l-4.009,0Z" style="fill:#fff;fill-rule:nonzero;"/><rect x="182.923" y="524.872" width="4.373" height="28.836" style="fill:#fff;fill-rule:nonzero;"/><path d="M202.89,528.8l0,24.908l-4.373,0l0,-24.908l-7.939,0l0,-3.928l20.252,0l0,3.928l-7.94,0Z" style="fill:#fff;fill-rule:nonzero;"/><path d="M223.549,541.842l0,11.866l-4.374,0l0,-11.866l-8.627,-16.97l4.779,0l6.035,12.677l6.035,-12.677l4.779,0l-8.627,16.97Z" style="fill:#fff;fill-rule:nonzero;"/><path d="M254.131,553.708l-11.664,0l0,-28.836l11.218,0c5.346,0 8.707,3.036 8.707,7.897c0.058,2.632 -1.481,5.051 -3.888,6.116c2.717,1.071 4.464,3.766 4.334,6.683c0,5.305 -3.604,8.14 -8.707,8.14Zm-0.811,-24.908l-6.48,0l0,8.262l6.48,0c2.795,0 4.699,-1.458 4.699,-4.131c0,-2.674 -1.904,-4.131 -4.699,-4.131Zm0.405,12.191l-6.885,0l0,8.788l6.885,0c3.038,0 4.74,-1.862 4.74,-4.413c0,-2.552 -1.702,-4.375 -4.74,-4.375l0,0Z" style="fill:#fff;fill-rule:nonzero;"/><path d="M284.186,553.708l-1.985,-5.791l-11.381,0l-1.984,5.791l-4.659,0l10.572,-28.836l3.523,0l10.571,28.836l-4.657,0Zm-7.574,-22.316l-4.496,12.798l8.87,0l-4.374,-12.798Z" style="fill:#fff;fill-rule:nonzero;"/><path d="M299.255,541.842l0,11.866l-4.374,0l0,-11.866l-8.627,-16.97l4.78,0l6.035,12.677l6.033,-12.677l4.78,0l-8.627,16.97Z" style="fill:#fff;fill-rule:nonzero;"/><path d="M310.152,553.708l0,-28.836l18.427,0l0,3.928l-14.054,0l0,8.424l11.989,0l0,3.888l-11.989,0l0,8.668l14.054,0l0,3.928l-18.427,0Z" style="fill:#fff;fill-rule:nonzero;"/><path d="M348.793,553.708l-6.076,-12.15l-5.468,0l0,12.15l-4.374,0l0,-28.836l11.179,0c5.466,0 8.95,3.523 8.95,8.423c0.143,3.58 -2.272,6.796 -5.75,7.655l6.642,12.758l-5.103,0Zm-5.063,-24.908l-6.481,0l0,9.032l6.481,0c2.916,0 4.901,-1.661 4.901,-4.496c0,-2.836 -1.985,-4.536 -4.901,-4.536Z" style="fill:#fff;fill-rule:nonzero;"/><path d="M375.405,553.708l-13.326,-20.291l0,20.291l-4.373,0l0,-28.836l4.009,0l13.325,20.25l0,-20.25l4.374,0l0,28.836l-4.009,0Z" style="fill:#fff;fill-rule:nonzero;"/></g></g><path d="M37.516,486.189c-10.304,0.215 -20.254,-3.83 -27.484,-11.175c-10.293,-10.305 -10.031,-23.04 -10.031,-40.625c0,-17.584 -0.274,-30.331 10.031,-40.648c7.236,-7.335 17.183,-11.375 27.484,-11.163c19.062,0 33.918,10.877 37.504,32.166l-20.253,0c-2.002,-8.161 -7.148,-14.439 -17.167,-14.439c-4.802,-0.187 -9.454,1.733 -12.724,5.254c-3.872,4.336 -5.028,9.173 -5.028,28.795c0,19.621 1.192,24.434 5.028,28.759c3.265,3.53 7.918,5.46 12.724,5.277c10.019,0 15.165,-6.29 17.167,-14.439l20.253,0c-3.586,21.361 -18.609,32.238 -37.504,32.238Zm98.024,-9.161c-4.575,4.872 -12.164,9.161 -23.184,9.161c-11.02,0 -18.466,-4.301 -23.052,-9.161c-6.719,-7.006 -8.435,-15.488 -8.435,-29.045c0,-13.558 1.716,-21.897 8.435,-28.926c4.586,-4.861 12.032,-9.126 23.052,-9.126c11.02,0 18.597,4.265 23.184,9.126c6.731,7.017 8.447,15.487 8.447,28.926c0,13.438 -1.704,22.028 -8.435,29.045l-0.012,0Zm-14.451,-47.082c-2.328,-2.251 -5.486,-3.442 -8.721,-3.288c-3.199,-0.154 -6.32,1.04 -8.601,3.288c-3.848,3.871 -4.289,10.293 -4.289,18.037c0,7.743 0.441,14.296 4.289,18.144c2.272,2.265 5.396,3.472 8.601,3.324c3.241,0.148 6.401,-1.057 8.721,-3.324c3.872,-3.86 4.301,-10.436 4.301,-18.144c0,-7.708 -0.429,-14.166 -4.301,-18.037Zm75.543,55.385l0,-45.092c0,-10.162 -6.433,-13.581 -12.307,-13.581c-5.873,0 -12.437,3.419 -12.437,13.581l0,45.08l-18.633,0l0,-74.554l18.204,0l0,6.886c4.858,-5.01 11.571,-7.804 18.549,-7.72c7.458,0 13.462,2.383 17.608,6.588c6.028,5.957 7.589,12.986 7.589,21.158l0,47.654l-18.573,0Zm53.801,0c-15.166,0 -21.623,-10.722 -21.623,-21.337l0,-36.931l-7.827,0l0,-14.142l7.863,0l0,-22.04c7.779,0 18.621,-4.086 18.621,-4.086l0,26.126l13.104,0l0,14.165l-13.104,0l0,35.741c0,4.289 2.013,6.731 6.457,6.731l6.707,0l0,15.737l-10.198,0.036Zm58.376,0l0,-6.433c-5.004,5.027 -9.721,7.148 -18.311,7.148c-8.59,0 -14.594,-2.132 -19.062,-6.6c-4.131,-4.58 -6.335,-10.585 -6.147,-16.75c0,-11.914 8.149,-21.587 25.471,-21.587l17.584,0l0,-3.729c0,-8.137 -3.979,-11.747 -13.855,-11.747c-7.148,0 -10.448,1.727 -14.296,6.171l-11.914,-11.592c7.303,-8.017 14.463,-10.281 26.913,-10.281c20.896,0 31.761,8.852 31.761,26.317l0,49.083l-18.144,0Zm-0.441,-31.463l-14.713,0c-6.731,0 -10.448,3.133 -10.448,8.411c0,5.277 3.431,8.589 10.722,8.589c5.135,0 8.447,-0.405 11.723,-3.574c1.989,-1.87 2.704,-4.849 2.704,-9.447l0.012,-3.979Zm81.762,23.171c-4.575,4.873 -12.164,9.162 -23.195,9.162c-11.032,0 -18.466,-4.301 -23.041,-9.162c-6.731,-7.005 -8.435,-15.487 -8.435,-29.045c0,-13.557 1.704,-21.896 8.435,-28.925c4.575,-4.861 12.021,-9.126 23.041,-9.126c11.02,0 18.62,4.265 23.195,9.126c6.719,7.017 8.423,15.487 8.423,28.925c0,13.439 -1.751,22.017 -8.471,29.034l0.048,0.011Zm-14.499,-47.093c-2.337,-2.251 -5.503,-3.441 -8.744,-3.288c-3.193,-0.157 -6.308,1.037 -8.578,3.288c-3.872,3.871 -4.312,10.293 -4.312,18.037c0,7.743 0.44,14.296 4.312,18.144c2.261,2.267 5.379,3.475 8.578,3.324c3.247,0.147 6.415,-1.057 8.744,-3.324c3.848,-3.86 4.277,-10.436 4.277,-18.144c0,-7.708 -0.476,-14.166 -4.277,-18.037Z" style="fill:#f47c00;fill-rule:nonzero;"/></g><g><path d="M26.357,0c-14.4,0 -26.272,11.801 -26.357,26.201l0,295.534c0.085,14.408 11.971,26.213 26.38,26.201l345.793,0c14.409,0.012 26.294,-11.793 26.38,-26.201l0,-295.534c-0.086,-14.408 -11.971,-26.213 -26.38,-26.201l-345.816,0Z" style="fill:#fff;fill-rule:nonzero;"/><path d="M35.418,211.016c11.159,51.911 20.444,101.345 52.961,136.92l-62.022,0c-14.4,0 -26.272,-11.801 -26.357,-26.201l0,-295.534c0.085,-14.408 11.971,-26.213 26.38,-26.201l44.814,0c-10.92,9.957 -20.507,21.284 -28.522,33.7c-35.486,54.232 -20.912,113.464 -7.254,177.316Zm336.755,-211.016l-70.324,0c16.65,16.649 30.688,38.208 41.289,65.012l-106.925,22.563c-11.717,-22.451 -29.527,-41.131 -64.365,-33.789c-19.216,4.062 -31.959,14.842 -37.606,26.648c-6.941,14.551 -10.355,30.865 6.249,108.398c16.605,77.532 26.38,91.057 38.655,101.546c9.976,8.481 26.067,13.19 45.283,9.128c34.86,-7.343 43.453,-31.602 44.97,-56.844l106.903,-22.585c2.522,55.303 -14.596,98.198 -44.814,127.859l40.663,0c14.409,0.012 26.294,-11.793 26.38,-26.201l0,-295.534c-0.086,-14.4 -11.958,-26.201 -26.358,-26.201Z" style="fill:#f47c00;fill-rule:nonzero;"/></g></g></svg>