<svg xmlns="http://www.w3.org/2000/svg" id="acacb264-2187-4aa0-b467-d52a258970a5" data-name="Ebene 1" viewBox="0 0 574.02 157.32"><defs><style>.a922364c-fee6-471e-a241-65a51dd136be{fill:#f47c00}.a97318ec-b0ee-4b71-9d79-d877db3a51b1{fill:#fff}</style></defs><rect width="331.65" height="51.02" x="240.94" y="106.3" class="a922364c-fee6-471e-a241-65a51dd136be" rx="5.67"/><path d="M271.01 86.97a31.45 31.45 0 0 1-23.07-9.38c-8.64-8.65-8.42-19.34-8.42-34.1s-.23-25.46 8.42-34.12A31.5 31.5 0 0 1 271.01 0c16 0 28.47 9.13 31.48 27h-17c-1.68-6.85-6-12.12-14.41-12.12a13.84 13.84 0 0 0-10.68 4.41c-3.25 3.64-4.22 7.7-4.22 24.17s1 20.51 4.22 24.14a13.83 13.83 0 0 0 10.68 4.43c8.41 0 12.73-5.28 14.41-12.12h17c-3.01 17.93-15.62 27.06-31.48 27.06Zm82.28-7.69c-3.84 4.09-10.21 7.69-19.46 7.69s-15.5-3.61-19.35-7.69c-5.64-5.88-7.08-13-7.08-24.38s1.44-18.38 7.08-24.28c3.85-4.08 10.1-7.66 19.35-7.66s15.61 3.58 19.46 7.66c5.65 5.89 7.09 13 7.09 24.28s-1.43 18.49-7.08 24.38Zm-12.13-39.52a9.86 9.86 0 0 0-7.32-2.76 9.63 9.63 0 0 0-7.22 2.76c-3.23 3.25-3.6 8.64-3.6 15.14s.37 12 3.6 15.23a9.6 9.6 0 0 0 7.22 2.79 9.83 9.83 0 0 0 7.32-2.79c3.25-3.24 3.61-8.76 3.61-15.23s-.36-11.89-3.61-15.14Zm63.41 46.49V48.4c0-8.53-5.4-11.4-10.33-11.4s-10.44 2.87-10.44 11.4v37.84h-15.64V23.66h15.28v5.78a21.33 21.33 0 0 1 15.57-6.48c6.26 0 11.3 2 14.78 5.53 5.06 5 6.37 10.9 6.37 17.76v40Zm45.16 0c-12.73 0-18.15-9-18.15-17.91v-31h-6.57V25.47h6.6V6.97c6.53 0 15.63-3.43 15.63-3.43v21.93h11v11.89h-11v30c0 3.6 1.69 5.65 5.42 5.65h5.63v13.21Zm49 0v-5.4c-4.2 4.22-8.16 6-15.37 6s-12.25-1.79-16-5.54a20.08 20.08 0 0 1-5.16-14.06c0-10 6.84-18.12 21.38-18.12h14.76V46c0-6.83-3.34-9.86-11.63-9.86-6 0-8.77 1.45-12 5.18l-10-9.73c6.13-6.73 12.14-8.63 22.59-8.63 17.54 0 26.66 7.43 26.66 22.09v41.2Zm-.37-26.41h-12.35c-5.65 0-8.77 2.63-8.77 7.06s2.88 7.21 9 7.21c4.31 0 7.09-.34 9.84-3 1.67-1.57 2.27-4.07 2.27-7.93Zm68.63 19.45c-3.84 4.09-10.21 7.69-19.47 7.69s-15.5-3.61-19.34-7.69c-5.65-5.88-7.08-13-7.08-24.38s1.43-18.38 7.08-24.28c3.84-4.08 10.09-7.66 19.34-7.66s15.63 3.58 19.47 7.66c5.64 5.89 7.07 13 7.07 24.28s-1.47 18.48-7.11 24.37Zm-12.17-39.53a9.91 9.91 0 0 0-7.34-2.76 9.56 9.56 0 0 0-7.2 2.76c-3.25 3.25-3.62 8.64-3.62 15.14s.37 12 3.62 15.23a9.53 9.53 0 0 0 7.2 2.79 9.88 9.88 0 0 0 7.34-2.79c3.23-3.24 3.59-8.76 3.59-15.23s-.4-11.89-3.59-15.14Z" class="a922364c-fee6-471e-a241-65a51dd136be"/><path d="M11.82 1.42A11.81 11.81 0 0 0 .01 13.16v132.42a11.81 11.81 0 0 0 11.82 11.74h154.94a11.81 11.81 0 0 0 11.82-11.74V13.16a11.81 11.81 0 0 0-11.82-11.74Z" class="a97318ec-b0ee-4b71-9d79-d877db3a51b1"/><path d="M15.88 95.97c5 23.26 9.16 45.41 23.73 61.35H11.82A11.81 11.81 0 0 1 .01 145.58V13.16A11.81 11.81 0 0 1 11.83 1.42h20.08a76.8 76.8 0 0 0-12.78 15.1c-15.9 24.3-9.37 50.84-3.25 79.45ZM166.77 1.42h-31.51c7.46 7.46 13.75 17.12 18.5 29.13l-47.91 10.11C100.6 30.6 92.62 22.23 77.01 25.52c-8.61 1.82-14.32 6.65-16.85 11.94-3.11 6.52-4.64 13.83 2.8 48.57s11.82 40.8 17.32 45.5c4.47 3.8 11.68 5.91 20.29 4.09 15.62-3.29 19.47-14.16 20.15-25.47l47.9-10.12c1.13 24.78-6.54 44-20.08 57.29h18.22a11.81 11.81 0 0 0 11.82-11.74V13.16a11.81 11.81 0 0 0-11.81-11.74Z" class="a922364c-fee6-471e-a241-65a51dd136be"/><path d="M263.354 143.85a8.772 8.772 0 0 1-6.357-2.585c-2.38-2.38-2.346-5.065-2.346-9.722s-.034-7.344 2.346-9.724a8.775 8.775 0 0 1 6.357-2.583c4.454 0 7.785 2.617 8.635 7.445h-3.74c-.578-2.448-2.21-4.148-4.895-4.148a4.837 4.837 0 0 0-3.57 1.462c-1.19 1.292-1.462 2.686-1.462 7.548s.272 6.254 1.462 7.546a4.837 4.837 0 0 0 3.57 1.462 4.888 4.888 0 0 0 4.929-4.147h3.706c-.816 4.827-4.25 7.445-8.635 7.445ZM289.669 141.265a9.155 9.155 0 0 1-12.75 0c-2.38-2.38-2.345-5.065-2.345-9.722s-.034-7.344 2.346-9.724a9.157 9.157 0 0 1 12.749 0c2.38 2.38 2.312 5.065 2.312 9.723s.068 7.343-2.312 9.723Zm-2.788-17.236a5.088 5.088 0 0 0-7.207 0c-1.19 1.292-1.428 2.652-1.428 7.513s.238 6.221 1.428 7.513a5.088 5.088 0 0 0 7.207 0c1.19-1.292 1.428-2.651 1.428-7.513s-.238-6.221-1.428-7.513ZM313.672 143.645v-16.183l-5.575 11.797h-2.72l-5.712-11.797v16.183h-3.671V119.44h3.67l7.072 15.06 6.936-15.06h3.671v24.205ZM339.886 143.645v-16.183l-5.576 11.797h-2.72l-5.711-11.797v16.183h-3.671V119.44h3.67l7.072 15.06 6.936-15.06h3.671v24.205ZM356.717 143.85c-4.93 0-8.67-3.367-8.67-8.364V119.44h3.672v15.876c0 3.23 1.971 5.235 4.998 5.235s5.031-2.005 5.031-5.235V119.44h3.672v16.046c0 4.997-3.774 8.363-8.703 8.363ZM384.8 143.645l-11.185-17.032v17.032h-3.671V119.44h3.365l11.184 16.998V119.44h3.672v24.205ZM393.063 143.645V119.44h3.67v24.205ZM409.823 122.737v20.908h-3.67v-20.908h-6.665v-3.297h17v3.297Z" class="a97318ec-b0ee-4b71-9d79-d877db3a51b1"/><path d="M427.164 133.684v9.961h-3.672v-9.96l-7.241-14.245h4.012l5.065 10.64 5.066-10.64h4.011ZM452.834 143.645h-9.791V119.44h9.417c4.487 0 7.309 2.549 7.309 6.629a5.484 5.484 0 0 1-3.264 5.134 5.754 5.754 0 0 1 3.638 5.61c0 4.452-3.026 6.832-7.309 6.832Zm-.68-20.908h-5.44v6.935h5.44c2.345 0 3.944-1.223 3.944-3.467s-1.599-3.468-3.945-3.468Zm.34 10.233h-5.78v7.377h5.78c2.55 0 3.978-1.563 3.978-3.705s-1.429-3.672-3.979-3.672ZM478.062 143.645l-1.666-4.861h-9.553l-1.666 4.861h-3.91l8.874-24.205h2.957l8.873 24.205Zm-6.358-18.732-3.773 10.743h7.445ZM490.71 133.684v9.961h-3.67v-9.96l-7.242-14.245h4.012l5.065 10.64 5.065-10.64h4.012ZM499.857 143.645V119.44h15.468v3.297h-11.797v7.071h10.064v3.264h-10.064v7.275h11.797v3.298ZM532.292 143.645l-5.1-10.2h-4.59v10.2h-3.67V119.44h9.382c4.589 0 7.513 2.957 7.513 7.07a6.357 6.357 0 0 1-4.827 6.426l5.575 10.709Zm-4.25-20.908h-5.44v7.582h5.44c2.448 0 4.114-1.395 4.114-3.775s-1.666-3.807-4.114-3.807ZM554.63 143.645l-11.186-17.032v17.032h-3.67V119.44h3.365l11.184 16.998V119.44h3.672v24.205Z" class="a97318ec-b0ee-4b71-9d79-d877db3a51b1"/></svg>