<svg id="acacb264-2187-4aa0-b467-d52a258970a5" data-name="Ebene 1" xmlns="http://www.w3.org/2000/svg" viewBox="0 0 574.02 157.32"><defs><style>.a922364c-fee6-471e-a241-65a51dd136be{fill:#f47c00;}.a97318ec-b0ee-4b71-9d79-d877db3a51b1{fill:#fff;}</style></defs><title>cto_logo_02</title><rect class="a922364c-fee6-471e-a241-65a51dd136be" x="240.94" y="106.3" width="331.65" height="51.02" rx="5.67"/><path class="a922364c-fee6-471e-a241-65a51dd136be" d="M271.01,86.97a31.45,31.45,0,0,1-23.07-9.38c-8.64-8.65-8.42-19.34-8.42-34.1s-.23-25.46,8.42-34.12A31.5,31.5,0,0,1,271.01,0c16,0,28.47,9.13,31.48,27h-17c-1.68-6.85-6-12.12-14.41-12.12a13.84,13.84,0,0,0-10.68,4.41c-3.25,3.64-4.22,7.7-4.22,24.17s1,20.51,4.22,24.14a13.83,13.83,0,0,0,10.68,4.43c8.41,0,12.73-5.28,14.41-12.12h17C299.48,77.84,286.87,86.97,271.01,86.97Zm82.28-7.69c-3.84,4.09-10.21,7.69-19.46,7.69s-15.5-3.61-19.35-7.69c-5.64-5.88-7.08-13-7.08-24.38s1.44-18.38,7.08-24.28c3.85-4.08,10.1-7.66,19.35-7.66s15.61,3.58,19.46,7.66c5.65,5.89,7.09,13,7.09,24.28s-1.43,18.49-7.08,24.38ZM341.16,39.76A9.86,9.86,0,0,0,333.84,37a9.63,9.63,0,0,0-7.22,2.76c-3.23,3.25-3.6,8.64-3.6,15.14s.37,12,3.6,15.23a9.6,9.6,0,0,0,7.22,2.79,9.83,9.83,0,0,0,7.32-2.79c3.25-3.24,3.61-8.76,3.61-15.23S344.41,43.01,341.16,39.76Zm63.41,46.49V48.4c0-8.53-5.4-11.4-10.33-11.4S383.8,39.87,383.8,48.4V86.24H368.16V23.66h15.28v5.78a21.33,21.33,0,0,1,15.57-6.48c6.26,0,11.3,2,14.78,5.53,5.06,5,6.37,10.9,6.37,17.76v40Zm45.16,0c-12.73,0-18.15-9-18.15-17.91v-31h-6.57V25.47h6.6V6.97c6.53,0,15.63-3.43,15.63-3.43V25.47h11V37.36h-11v30c0,3.6,1.69,5.65,5.42,5.65h5.63V86.22Zm49,0v-5.4c-4.2,4.22-8.16,6-15.37,6s-12.25-1.79-16-5.54a20.08,20.08,0,0,1-5.16-14.06c0-10,6.84-18.12,21.38-18.12h14.76V46c0-6.83-3.34-9.86-11.63-9.86-6,0-8.77,1.45-12,5.18l-10-9.73c6.13-6.73,12.14-8.63,22.59-8.63,17.54,0,26.66,7.43,26.66,22.09v41.2Zm-.37-26.41H486.01c-5.65,0-8.77,2.63-8.77,7.06s2.88,7.21,9,7.21c4.31,0,7.09-.34,9.84-3,1.67-1.57,2.27-4.07,2.27-7.93Zm68.63,19.45c-3.84,4.09-10.21,7.69-19.47,7.69s-15.5-3.61-19.34-7.69c-5.65-5.88-7.08-13-7.08-24.38s1.43-18.38,7.08-24.28c3.84-4.08,10.09-7.66,19.34-7.66s15.63,3.58,19.47,7.66c5.64,5.89,7.07,13,7.07,24.28s-1.47,18.48-7.11,24.37ZM554.82,39.76A9.91,9.91,0,0,0,547.48,37a9.56,9.56,0,0,0-7.2,2.76c-3.25,3.25-3.62,8.64-3.62,15.14s.37,12,3.62,15.23a9.53,9.53,0,0,0,7.2,2.79,9.88,9.88,0,0,0,7.34-2.79c3.23-3.24,3.59-8.76,3.59-15.23S558.01,43.01,554.82,39.76Z"/><path class="a97318ec-b0ee-4b71-9d79-d877db3a51b1" d="M11.82,1.42A11.81,11.81,0,0,0,.01,13.16V145.58a11.81,11.81,0,0,0,11.82,11.74H166.77a11.81,11.81,0,0,0,11.82-11.74V13.16A11.81,11.81,0,0,0,166.77,1.42Z"/><path class="a922364c-fee6-471e-a241-65a51dd136be" d="M15.88,95.97c5,23.26,9.16,45.41,23.73,61.35H11.82A11.81,11.81,0,0,1,.01,145.58V13.16A11.81,11.81,0,0,1,11.83,1.42H31.91a76.8,76.8,0,0,0-12.78,15.1C3.23,40.82,9.76,67.36,15.88,95.97ZM166.77,1.42H135.26c7.46,7.46,13.75,17.12,18.5,29.13L105.85,40.66C100.6,30.6,92.62,22.23,77.01,25.52c-8.61,1.82-14.32,6.65-16.85,11.94-3.11,6.52-4.64,13.83,2.8,48.57s11.82,40.8,17.32,45.5c4.47,3.8,11.68,5.91,20.29,4.09,15.62-3.29,19.47-14.16,20.15-25.47l47.9-10.12c1.13,24.78-6.54,44-20.08,57.29h18.22a11.81,11.81,0,0,0,11.82-11.74V13.16A11.81,11.81,0,0,0,166.77,1.42Z"/><path class="a97318ec-b0ee-4b71-9d79-d877db3a51b1" d="M263.354,143.8491a8.7718,8.7718,0,0,1-6.3574-2.584c-2.38-2.38-2.3457-5.0654-2.3457-9.7226s-.0342-7.3438,2.3457-9.7237a8.775,8.775,0,0,1,6.3574-2.583c4.4536,0,7.7852,2.6172,8.6353,7.4453h-3.74c-.5781-2.4482-2.21-4.1484-4.8955-4.1484a4.8373,4.8373,0,0,0-3.57,1.4619c-1.19,1.292-1.4619,2.6865-1.4619,7.5479s.2719,6.2548,1.4619,7.5468a4.8373,4.8373,0,0,0,3.57,1.4619,4.8884,4.8884,0,0,0,4.9292-4.1474h3.7061C271.1733,141.2309,267.7393,143.8491,263.354,143.8491Z"/><path class="a97318ec-b0ee-4b71-9d79-d877db3a51b1" d="M289.6689,141.2651a9.1546,9.1546,0,0,1-12.749,0c-2.38-2.38-2.3457-5.0654-2.3457-9.7226s-.0342-7.3438,2.3457-9.7237a9.1572,9.1572,0,0,1,12.749,0c2.38,2.38,2.3116,5.0654,2.3116,9.7237S292.0488,138.8852,289.6689,141.2651Zm-2.788-17.2363a5.0879,5.0879,0,0,0-7.2071,0c-1.19,1.292-1.4282,2.6523-1.4282,7.5137s.2383,6.2207,1.4282,7.5126a5.0879,5.0879,0,0,0,7.2071,0c1.19-1.2919,1.4277-2.6513,1.4277-7.5126S288.0713,125.3208,286.8809,124.0288Z"/><path class="a97318ec-b0ee-4b71-9d79-d877db3a51b1" d="M313.6719,143.645V127.4624l-5.5752,11.7968h-2.72l-5.712-11.7968V143.645h-3.6709V119.44h3.6709l7.0713,15.06,6.9356-15.06h3.6719V143.645Z"/><path class="a97318ec-b0ee-4b71-9d79-d877db3a51b1" d="M339.8857,143.645V127.4624l-5.5752,11.7968h-2.72l-5.7119-11.7968V143.645H322.208V119.44h3.6709L332.95,134.5l6.9355-15.06h3.6719V143.645Z"/><path class="a97318ec-b0ee-4b71-9d79-d877db3a51b1" d="M356.7168,143.8491c-4.93,0-8.6689-3.3662-8.6689-8.3633V119.44h3.6709v15.876c0,3.23,1.9716,5.2353,4.998,5.2353s5.0312-2.0058,5.0312-5.2353V119.44H365.42v16.0459C365.42,140.4829,361.6465,143.8491,356.7168,143.8491Z"/><path class="a97318ec-b0ee-4b71-9d79-d877db3a51b1" d="M384.8,143.645l-11.1855-17.0322V143.645h-3.6709V119.44h3.3652l11.1846,16.9981V119.44h3.6718V143.645Z"/><path class="a97318ec-b0ee-4b71-9d79-d877db3a51b1" d="M393.0625,143.645V119.44h3.6709V143.645Z"/><path class="a97318ec-b0ee-4b71-9d79-d877db3a51b1" d="M409.8232,122.7368V143.645h-3.6709V122.7368h-6.664V119.44h16.999v3.2969Z"/><path class="a97318ec-b0ee-4b71-9d79-d877db3a51b1" d="M427.1641,133.6841v9.9609h-3.6719v-9.9609L416.251,119.44h4.0117l5.0654,10.6406,5.0655-10.6406h4.0117Z"/><path class="a97318ec-b0ee-4b71-9d79-d877db3a51b1" d="M452.834,143.645h-9.791V119.44h9.417c4.4873,0,7.3086,2.5488,7.3086,6.6289a5.484,5.484,0,0,1-3.2637,5.1338,5.7539,5.7539,0,0,1,3.6377,5.6094C460.1426,141.2651,457.1172,143.645,452.834,143.645Zm-.6807-20.9082h-5.4394v6.9355h5.4394c2.3457,0,3.9444-1.2236,3.9444-3.4677S454.499,122.7368,452.1533,122.7368Zm.34,10.2334h-5.7793v7.3769h5.7793c2.55,0,3.9785-1.5634,3.9785-3.705S455.043,132.97,452.4932,132.97Z"/><path class="a97318ec-b0ee-4b71-9d79-d877db3a51b1" d="M478.0615,143.645l-1.666-4.8613h-9.5527l-1.666,4.8613h-3.91l8.874-24.2051h2.9571l8.873,24.2051Zm-6.3574-18.7324-3.7734,10.7431h7.4453Z"/><path class="a97318ec-b0ee-4b71-9d79-d877db3a51b1" d="M490.7109,133.6841v9.9609h-3.6718v-9.9609L479.7979,119.44H483.81l5.0654,10.6406L493.94,119.44h4.0117Z"/><path class="a97318ec-b0ee-4b71-9d79-d877db3a51b1" d="M499.8574,143.645V119.44h15.4678v3.2969H503.5283v7.0713h10.0635v3.2636H503.5283v7.2754h11.7969v3.2979Z"/><path class="a97318ec-b0ee-4b71-9d79-d877db3a51b1" d="M532.292,143.645l-5.1-10.1992h-4.59V143.645h-3.6709V119.44h9.3829c4.5888,0,7.5126,2.957,7.5126,7.07A6.3568,6.3568,0,0,1,531,132.936l5.5752,10.709Zm-4.25-20.9082h-5.44v7.582h5.44c2.4482,0,4.1142-1.3945,4.1142-3.7744S530.49,122.7368,528.042,122.7368Z"/><path class="a97318ec-b0ee-4b71-9d79-d877db3a51b1" d="M554.63,143.645l-11.1856-17.0322V143.645h-3.6709V119.44h3.3653l11.1845,16.9981V119.44h3.6719V143.645Z"/></svg>