<svg version="1" xmlns="http://www.w3.org/2000/svg" width="408" height="420"><path fill="#181715" d="M49.903 72.304h-10l-15.901-24.4-10.3 10.7v13.7h-8.5V0h8.5v47.103l24.201-25.401h11.301L29.902 41.802 49.903 72.304zM63.3 72.304v-7.3h18.301V28.901H65.3v-7.2h24.902v43.303h18.401v7.3H63.3zM79.401 12.101V.1h12.101v12.001H79.401z"/><path fill="#C50F50" d="M158.202,67.704c-3.4,3.4-8.101,5.9-15.001,5.9s-11.601-2.5-15.001-5.9c-7-7.101-8.201-16.801-8.201-30.202 s1.2-23.201,8.201-30.302c3.4-3.4,8.101-5.801,15.001-5.801s11.601,2.4,15.001,5.801c7,7.101,8.2,16.9,8.2,30.302 S165.202,60.604,158.202,67.704z M151.801,12.301c-2-1.9-4.9-3.2-8.601-3.2s-6.601,1.3-8.601,3.2c-5.9,5.601-5.8,15.801-5.8,25.201 c0,3.9-0.1,8.001,0.3,11.801l26.102-32.002C154.401,15.401,153.301,13.7,151.801,12.301z M157.301,26.401L131.5,58.304 c0.8,1.699,1.8,3.199,3.1,4.4c2,1.899,4.9,3.199,8.601,3.199s6.6-1.3,8.601-3.199c5.9-5.601,5.8-15.801,5.8-25.202 C157.602,33.802,157.602,30.001,157.301,26.401z"/><path fill="#181715" d="M220.301,38.802c0-2.8-0.9-5.4-2.7-7.4c-1.7-1.9-4.3-3.3-8-3.3c-5.101,0-9.601,3.9-11.601,8.601 c-1.6,3.801-2.2,9-2.2,13.101v22.501h-8.601V21.701h7.5l0.7,7.601c3.2-6.101,9.701-8.9,16.001-8.9c6.801,0,11.601,3.4,14.401,7.4 c2.4,3.5,3.2,7.4,3.2,11H220.301z"/><path fill="#C50F50" d="M242.599,72.304v-7.8H261.5V12.501l-18.801,11.301V14.7l19.201-11.9h8.201v61.704h18.801v7.8H242.599z"/><path fill="#181715" d="M341,67.704c-3.9,4-10.4,5.9-17.301,5.9s-12.801-1.5-17.302-5.9c-3.1-3-5-7.4-5-11.701h8.501 c0.101,3.5,2,6,4.4,7.801c2.399,1.801,5.8,2.5,9.8,2.5c3.501,0,7.301-0.699,9.901-2.9c1.4-1.1,2.5-2.9,2.5-5.2 c0-3.3-2.101-6.2-7.501-7l-12.9-1.9c-3.9-0.601-7.101-2.3-9.301-4.7c-2-2.301-3-5.4-3-8.701c0-4.1,1.801-7.4,4.101-9.7 c3.3-3.399,9.101-5.8,15.401-5.8c6.9,0,13.2,2.3,16.7,6.801c2.101,2.699,3.301,5.6,3.5,9.6H335c-0.101-2.6-1.5-4.9-3-6.2 c-2.101-1.899-5.301-3-8.7-3c-3.101,0-6.301,0.7-8.602,2.5c-1.8,1.5-2.8,3.3-2.8,5.3c0,3.801,2.5,5.602,6.7,6.301l13.701,2.1 c6.101,0.9,12.7,5.301,12.7,13.802C345,62.003,343.4,65.204,341,67.704z"/><path fill="#C50F50" d="M361.598 72.304v-7.8h18.901V12.501l-18.801 11.301V14.7l19.201-11.9h8.2v61.704H407.9v7.8H361.598zM38.203 149.784c-3.4 3.4-8.101 5.9-15.001 5.9s-11.601-2.5-15.001-5.9C1.2 142.684 0 132.983 0 119.582S1.2 96.381 8.201 89.28c3.4-3.4 8.101-5.801 15.001-5.801s11.601 2.4 15.001 5.801c7 7.101 8.2 16.9 8.2 30.302S45.203 142.684 38.203 149.784zM31.802 94.381c-2-1.9-4.9-3.2-8.601-3.2s-6.601 1.3-8.601 3.2c-5.9 5.601-5.8 15.801-5.8 25.201 0 3.9-.1 8.001.3 11.801l26.102-32.002C34.402 97.481 33.302 95.78 31.802 94.381zM37.302 108.481l-25.801 31.902c.8 1.699 1.8 3.199 3.1 4.4 2 1.899 4.9 3.199 8.601 3.199s6.6-1.3 8.601-3.199c5.9-5.601 5.8-15.801 5.8-25.202C37.603 115.882 37.603 112.081 37.302 108.481z"/><path fill="#181715" d="M90.401 155.484c-11.4 0-16.301-7.9-16.301-16.001v-28.402H58.3v-7.3h15.801V90.681l8.5-2.7v15.801h21.201v7.3H82.601v27.602c0 5.4 3.1 9.102 9 9.102 5 0 8.601-1.5 12.801-3.4v7.5C100.702 153.984 96.302 155.484 90.401 155.484zM128.7 131.782c0 4.4 1.5 9.301 5.1 12.701 2.4 2.301 5.701 3.801 9.701 3.801 4.5 0 6.801-1 9.301-3 1.8-1.4 3.5-3.701 4.2-6.101h8.201c-2.4 10.501-11.101 16.501-21.702 16.501-6.5 0-12-2.7-16.001-6.601-5.4-5.3-7.5-12.601-7.5-19.802 0-7.9 2.601-15.301 7.5-20.301 3.9-3.9 9.301-6.5 16.101-6.5 6.4 0 12.001 2.4 15.601 6.1 4.8 4.9 7.3 12.301 7.3 20.201v3H128.7zM153.201 113.882c-2.5-2.6-5.7-4.1-9.701-4.1-9.701 0-14.301 9-14.5 15h28.501C157.401 120.482 155.801 116.582 153.201 113.882z"/><path fill="#C50F50" d="M218.201 149.784c-3.4 3.4-8.101 5.9-15.001 5.9s-11.601-2.5-15.001-5.9c-7-7.101-8.201-16.801-8.201-30.202s1.2-23.201 8.201-30.302c3.4-3.4 8.101-5.801 15.001-5.801s11.601 2.4 15.001 5.801c7 7.101 8.2 16.9 8.2 30.302S225.202 142.684 218.201 149.784zM211.801 94.381c-2-1.9-4.9-3.2-8.601-3.2s-6.601 1.3-8.601 3.2c-5.9 5.601-5.8 15.801-5.8 25.201 0 3.9-.1 8.001.3 11.801l26.102-32.002C214.401 97.481 213.301 95.78 211.801 94.381zM217.301 108.481L191.5 140.384c.8 1.699 1.8 3.199 3.1 4.4 2 1.899 4.9 3.199 8.601 3.199s6.601-1.3 8.601-3.199c5.9-5.601 5.8-15.801 5.8-25.202C217.601 115.882 217.601 112.081 217.301 108.481zM278.201 149.784c-3.4 3.4-8.101 5.9-15.001 5.9s-11.601-2.5-15.001-5.9c-7-7.101-8.201-16.801-8.201-30.202s1.2-23.201 8.201-30.302c3.4-3.4 8.101-5.801 15.001-5.801s11.601 2.4 15.001 5.801c7 7.101 8.2 16.9 8.2 30.302S285.201 142.684 278.201 149.784zM271.8 94.381c-2-1.9-4.9-3.2-8.601-3.2s-6.601 1.3-8.601 3.2c-5.9 5.601-5.8 15.801-5.8 25.201 0 3.9-.1 8.001.3 11.801L275.2 99.381C274.4 97.481 273.3 95.78 271.8 94.381zM277.3 108.481l-25.801 31.902c.8 1.699 1.8 3.199 3.1 4.4 2 1.899 4.9 3.199 8.601 3.199s6.6-1.3 8.601-3.199c5.9-5.601 5.8-15.801 5.8-25.202C277.601 115.882 277.601 112.081 277.3 108.481z"/><path fill="#181715" d="M336.2 154.384v-32.102c0-7.4-3.301-12.101-11.102-12.101-4.899 0-9.199 3.5-11.4 8.101-1.699 3.7-2.199 9.101-2.199 13v23.102h-8.602v-50.603h7.501l.7 7.601c3-5.801 9.9-8.9 15.801-8.9 11.501 0 18.001 6.9 18.001 18.601v33.302H336.2zM378.799 173.886l-3.2-5.801c6.5-2.8 8.001-6.5 8.001-13.601h-7.501v-14.501H390.8v14.501C390.8 163.685 387.899 170.085 378.799 173.886zM376.099 118.282v-14.501H390.3v14.501H376.099zM40.303 202.962c0-2.8-.9-5.4-2.7-7.4-1.7-1.9-4.3-3.3-8-3.3-5.101 0-9.601 3.9-11.601 8.601-1.6 3.801-2.2 9-2.2 13.101v22.501H7.201v-50.603h7.5l.7 7.601c3.2-6.101 9.7-8.9 16.001-8.9 6.8 0 11.601 3.4 14.4 7.4 2.4 3.5 3.2 7.4 3.2 11H40.303zM99.102 231.664c-3.7 3.601-9.4 6.101-15.801 6.101S71 235.265 67.3 231.664c-5.5-5.4-7.901-12.501-7.901-20.501 0-8.001 2.4-15.102 7.901-20.502 3.7-3.6 9.601-6.1 16.001-6.1s12.101 2.5 15.801 6.1c5.5 5.4 7.9 12.401 7.9 20.402C107.002 219.063 104.603 226.264 99.102 231.664zM92.602 195.562c-2.2-2-5.4-3.6-9.4-3.6-4 0-7.201 1.6-9.4 3.6-4.3 3.9-5.701 10.001-5.701 15.502 0 5.5 1.4 11.8 5.701 15.7 2.2 2 5.4 3.601 9.4 3.601 4 0 7.2-1.601 9.4-3.601 4.3-3.9 5.701-10.101 5.701-15.601S96.902 199.462 92.602 195.562z"/><path fill="#C50F50" d="M158.202,231.864c-3.4,3.4-8.101,5.9-15.001,5.9s-11.601-2.5-15.001-5.9 c-7-7.101-8.201-16.801-8.201-30.202s1.2-23.201,8.201-30.302c3.4-3.4,8.101-5.801,15.001-5.801s11.601,2.4,15.001,5.801 c7,7.101,8.2,16.9,8.2,30.302S165.202,224.764,158.202,231.864z M151.801,176.461c-2-1.9-4.9-3.2-8.601-3.2s-6.601,1.3-8.601,3.2 c-5.9,5.601-5.8,15.801-5.8,25.201c0,3.9-0.1,8.001,0.3,11.801l26.102-32.002C154.401,179.562,153.301,177.86,151.801,176.461z M157.301,190.562L131.5,222.464c0.8,1.699,1.8,3.199,3.1,4.4c2,1.899,4.9,3.199,8.601,3.199s6.6-1.3,8.601-3.199 c5.9-5.601,5.8-15.801,5.8-25.202C157.602,197.962,157.602,194.161,157.301,190.562z"/><path fill="#181715" d="M221.001,231.864c-3.9,4-10.4,5.9-17.301,5.9s-12.801-1.5-17.301-5.9c-3.1-3-5-7.4-5-11.701h8.5 c0.1,3.5,2,6,4.4,7.801c2.4,1.801,5.8,2.5,9.8,2.5c3.5,0,7.3-0.699,9.901-2.9c1.4-1.1,2.5-2.9,2.5-5.2c0-3.3-2.1-6.2-7.5-7 l-12.901-1.9c-3.9-0.601-7.101-2.3-9.3-4.7c-2-2.301-3-5.4-3-8.701c0-4.1,1.8-7.4,4.101-9.7c3.3-3.399,9.101-5.8,15.401-5.8 c6.9,0,13.201,2.3,16.701,6.801c2.1,2.699,3.3,5.6,3.5,9.6h-8.5c-0.1-2.6-1.5-4.9-3-6.2c-2.1-1.899-5.3-3-8.7-3 c-3.1,0-6.3,0.7-8.601,2.5c-1.8,1.5-2.8,3.3-2.8,5.3c0,3.801,2.5,5.602,6.7,6.301l13.701,2.1c6.1,0.9,12.701,5.301,12.701,13.802 C225.001,226.163,223.401,229.364,221.001,231.864z"/><path fill="#C50F50" d="M242.599 236.464v-7.8H261.5v-52.003l-18.801 11.301v-9.102l19.201-11.9h8.201v61.704h18.801v7.8H242.599zM338.2 231.864c-3.4 3.4-8.101 5.9-15.001 5.9s-11.601-2.5-15.001-5.9c-7-7.101-8.201-16.801-8.201-30.202s1.201-23.201 8.201-30.302c3.4-3.4 8.101-5.801 15.001-5.801s11.601 2.4 15.001 5.801c7 7.101 8.2 16.9 8.2 30.302S345.2 224.764 338.2 231.864zM331.8 176.461c-2-1.9-4.9-3.2-8.601-3.2s-6.601 1.3-8.601 3.2c-5.9 5.601-5.801 15.801-5.801 25.201 0 3.9-.1 8.001.301 11.801l26.102-32.002C334.399 179.562 333.3 177.86 331.8 176.461zM337.3 190.562l-25.801 31.902c.799 1.699 1.799 3.199 3.1 4.4 2 1.899 4.9 3.199 8.601 3.199s6.601-1.3 8.601-3.199c5.9-5.601 5.8-15.801 5.8-25.202C337.6 197.962 337.6 194.161 337.3 190.562z"/><path fill="#181715" d="M384.1,184.562c6,0,11.4,2.1,14.9,5.5c3.4,3.301,5.9,7.4,6.301,12.9H396.7c-0.4-3.5-2.101-5.9-4-7.801 c-2.001-1.899-5.301-3.199-8.601-3.199c-4.001,0-7.201,1.6-9.401,3.6c-4.3,3.9-5.5,10.102-5.5,15.602s1.2,11.601,5.5,15.5 c2.2,2.001,5.4,3.701,9.401,3.701c3.3,0,6.6-1.301,8.601-3.201c1.899-1.899,3.7-4.3,4.1-7.8h8.501c-0.4,5.501-3,9.7-6.4,13.001 c-3.5,3.4-8.801,5.4-14.801,5.4c-6.4,0-12.102-2.601-15.802-6.201c-5.5-5.4-7.8-12.4-7.8-20.4c0-8.001,2.3-15.001,7.8-20.401 C371.998,187.161,377.699,184.562,384.1,184.562z"/><path fill="#C50F50" d="M2.601,318.544v-7.801h18.901V258.74L2.7,270.041v-9.101l19.201-11.9h8.201v61.703h18.801v7.801H2.601z"/><path fill="#181715" d="M96.302,318.544v-32.102c0-7.601-3.5-12.102-11.5-12.102c-4.9,0-9.101,3.301-11.301,7.901 c-1.7,3.7-2,9.101-2,13v23.302H62.9v-72.305H71.5v28.402c3-5.2,9.701-8.001,15.401-8.001c11.5,0,18.001,6.9,18.001,18.602v33.302 H96.302z"/><path fill="#C50F50" d="M122.6,318.544v-7.801H141.5V258.74l-18.801,11.301v-9.101l19.201-11.9h8.201v61.703h18.801v7.801H122.6z"/><path fill="#181715" d="M222.401 319.244c-4.5 0-7.5-3.4-7.5-7.7h-.2c-3 5.1-9.601 8.3-16.701 8.3-12.101 0-17.501-7.7-17.501-14.9 0-7.501 5.201-15.801 18.101-16.501l15.801-.9v-3.7c0-2.5-.3-5.2-2.6-7.301-1.7-1.6-4.4-2.899-8.5-2.899-4.601 0-7.5 1.399-9.201 3.1-1.6 1.601-2.5 3.301-2.7 5.9h-8.4c.1-4.3 2-7.7 4.7-10.4 3.5-3.5 9.4-5.601 15.601-5.601 9.8 0 15.601 4.5 18.001 10.001 1 2.3 1.5 4.6 1.5 7.5v24.502c0 2.7 1.3 3.4 3 3.4.9 0 2.2-.301 2.2-.301v6.301C226.202 318.944 224.501 319.244 222.401 319.244zM214.401 294.143l-14.001.8c-5.4.3-11.201 2.9-11.201 9.301 0 4.5 2.9 8.4 10.101 8.4 3.9 0 7.9-1.3 10.601-4.101 3-3.1 4.5-7.2 4.5-11.4V294.143zM276.2 318.544v-32.102c0-7.4-3.3-12.102-11.101-12.102-4.9 0-9.2 3.501-11.4 8.101-1.7 3.7-2.2 9.101-2.2 13.001v23.102h-8.601V267.94h7.5l.7 7.601c3-5.8 9.9-8.9 15.801-8.9 11.5 0 18.001 6.9 18.001 18.602v33.302H276.2z"/><path fill="#C50F50" d="M302.598 318.544v-7.801h18.901V258.74l-18.801 11.301v-9.101l19.201-11.9h8.2v61.703H348.9v7.801H302.598zM398.2 313.943c-3.4 3.4-8.101 5.9-15.001 5.9s-11.601-2.5-15.001-5.9c-7-7.101-8.2-16.801-8.2-30.201 0-13.401 1.2-23.202 8.2-30.302 3.4-3.4 8.101-5.801 15.001-5.801s11.601 2.4 15.001 5.801c7 7.1 8.2 16.9 8.2 30.302C406.4 297.143 405.2 306.843 398.2 313.943zM391.8 258.54c-2-1.899-4.9-3.2-8.601-3.2s-6.601 1.301-8.601 3.2c-5.9 5.601-5.801 15.801-5.801 25.202 0 3.899-.1 8 .301 11.801l26.102-32.002C394.399 261.641 393.3 259.94 391.8 258.54zM397.3 272.642l-25.802 31.901c.801 1.7 1.801 3.2 3.101 4.4 2 1.9 4.9 3.2 8.601 3.2s6.601-1.3 8.601-3.2c5.9-5.601 5.8-15.801 5.8-25.201C397.6 280.042 397.6 276.241 397.3 272.642zM2.601 400.624v-7.801h18.901V340.82L2.7 352.121v-9.101l19.201-11.9h8.201v61.703h18.801v7.801H2.601zM98.202 396.023c-3.4 3.4-8.101 5.9-15.001 5.9s-11.601-2.5-15.001-5.9c-7-7.101-8.201-16.801-8.201-30.201 0-13.401 1.2-23.202 8.201-30.302 3.4-3.4 8.101-5.801 15.001-5.801s11.601 2.4 15.001 5.801c7 7.1 8.2 16.9 8.2 30.302C106.402 379.223 105.203 388.923 98.202 396.023zM91.802 340.62c-2-1.899-4.9-3.2-8.601-3.2s-6.601 1.301-8.601 3.2c-5.9 5.601-5.8 15.801-5.8 25.202 0 3.899-.1 8 .3 11.801l26.102-32.002C94.402 343.721 93.302 342.021 91.802 340.62zM97.302 354.722L71.5 386.623c.8 1.7 1.8 3.2 3.1 4.4 2 1.9 4.9 3.2 8.601 3.2s6.601-1.3 8.601-3.2c5.9-5.601 5.8-15.801 5.8-25.201C97.602 362.122 97.602 358.321 97.302 354.722z"/><path fill="#181715" d="M161.002,396.023c-3.9,4.001-10.401,5.9-17.301,5.9s-12.801-1.5-17.301-5.9c-3.1-3-5-7.4-5-11.7h8.5 c0.1,3.5,2,6,4.4,7.8c2.4,1.801,5.8,2.501,9.8,2.501c3.5,0,7.301-0.7,9.901-2.9c1.4-1.101,2.5-2.9,2.5-5.2 c0-3.301-2.1-6.2-7.5-7.001l-12.901-1.899c-3.9-0.601-7.1-2.301-9.3-4.701c-2-2.3-3-5.399-3-8.7c0-4.101,1.8-7.4,4.101-9.7 c3.3-3.4,9.1-5.801,15.401-5.801c6.9,0,13.201,2.3,16.701,6.801c2.1,2.7,3.3,5.601,3.5,9.601h-8.5c-0.1-2.601-1.5-4.9-3-6.2 c-2.1-1.9-5.3-3.001-8.7-3.001c-3.101,0-6.301,0.7-8.601,2.501c-1.8,1.5-2.8,3.3-2.8,5.3c0,3.801,2.5,5.601,6.701,6.301l13.701,2.1 c6.1,0.9,12.701,5.301,12.701,13.801C165.002,390.323,163.402,393.523,161.002,396.023z"/><path fill="#C50F50" d="M218.201,396.023c-3.4,3.4-8.101,5.9-15.001,5.9s-11.601-2.5-15.001-5.9 c-7-7.101-8.201-16.801-8.201-30.201c0-13.401,1.2-23.202,8.201-30.302c3.4-3.4,8.101-5.801,15.001-5.801s11.601,2.4,15.001,5.801 c7,7.1,8.2,16.9,8.2,30.302C226.401,379.223,225.202,388.923,218.201,396.023z M211.801,340.62c-2-1.899-4.9-3.2-8.601-3.2 s-6.601,1.301-8.601,3.2c-5.9,5.601-5.8,15.801-5.8,25.202c0,3.899-0.1,8,0.3,11.801l26.102-32.002 C214.401,343.721,213.301,342.021,211.801,340.62z M217.301,354.722L191.5,386.623c0.8,1.7,1.8,3.2,3.1,4.4 c2,1.9,4.9,3.2,8.601,3.2s6.601-1.3,8.601-3.2c5.9-5.601,5.8-15.801,5.8-25.201C217.601,362.122,217.601,358.321,217.301,354.722z"/><path fill="#181715" d="M289.901 400.624h-10L264 376.223l-10.3 10.7v13.701h-8.5v-72.305h8.5v47.104l24.201-25.402h11.301L269.9 370.122 289.901 400.624zM303.298 400.624v-7.301h18.301v-36.102h-16.301v-7.201H330.2v43.303h18.4v7.301H303.298zM319.399 340.42v-12H331.5v12H319.399zM378.799 420.125l-3.2-5.8c6.5-2.801 8.001-6.501 8.001-13.602h-7.501v-14.5H390.8v14.5C390.8 409.925 387.899 416.325 378.799 420.125zM376.099 364.521v-14.501H390.3v14.501H376.099z"/></svg>