<svg xmlns="http://www.w3.org/2000/svg" xmlns:xlink="http://www.w3.org/1999/xlink" xml:space="preserve" id="Layer_1" width="90" height="90" x="0" y="0" version="1.1"><style>.st0{fill:#fff}.st3{clip-path:url(#SVGID_2_);fill:#e42024}</style><path d="M0 0h90v90H0z"/><path d="M13 26.9h8.6l24.1 19.3v11.5L22 38.8V63h-9zm23.6 0h9V44l-9-7.2v-10z" class="st0"/><path d="m36.6 52.5 9 7.3V63h-9z" class="st0"/><g id="cookie"><defs><path id="SVGID_1_" d="M47.3 18.3h38.8v54.1H47.3z"/></defs><clipPath id="SVGID_2_"><use xlink:href="#SVGID_1_" style="overflow:visible"/></clipPath><path d="M53.3 28c2.3-.7 4.8-1 7.3-.7.5 0 1 .1 1.6.2.7.1 1.1 1 .7 1.6-.2.5-.8.6-1.2.9-.7.7-.9 1.8-.4 2.7.3.5.8.9 1.4 1.1.5.2.8.7.8 1.2-.1.4-.2.7-.2 1.1 0 1 .3 2 .9 2.8 1 1.4 2.9 2.1 4.6 1.6.6-.1 1.2.2 1.3.8.2.6.6 1.1 1.2 1.4.9.4 2 .2 2.7-.6.3-.3.4-.8.7-1 .6-.4 1.5-.1 1.7.6l.3 1.8c.2 1.9.1 3.9-.4 5.8-.6 2.7-1.9 5.3-3.7 7.4s-4 3.8-6.5 5c-3.8 1.7-8.3 2-12.4.8-2.9-.9-5.7-2.5-7.8-4.7-2.2-2.2-3.8-5-4.6-8-.6-2.3-.7-4.8-.4-7.2.4-2.6 1.4-5.2 2.9-7.4 2.2-3.4 5.6-6 9.5-7.2m2.7 1.7c-3.1.6-6.1 2.1-8.4 4.4-2.2 2.2-3.7 5-4.3 8-.5 2.7-.4 5.5.5 8.2 1.1 3.4 3.5 6.3 6.5 8.3 2.2 1.4 4.8 2.2 7.4 2.4 2.5.2 5-.3 7.3-1.3 2.6-1.1 4.9-3 6.5-5.3 1.4-2 2.4-4.4 2.8-6.9.1-.9.2-1.9.1-2.8-1 .6-2.3.8-3.4.4-1.1-.3-2.1-1.1-2.7-2.1-1.1.1-2.2-.1-3.1-.5-1.5-.6-2.7-1.7-3.4-3.1-.6-1.1-.9-2.5-.7-3.8-1.4-.8-2.3-2.3-2.3-3.9 0-.8.2-1.5.6-2.2-1.2-.1-2.3 0-3.4.2" class="st3"/><path d="M53.7 34c.5-.1 1.1 0 1.6.2.6.3 1 1 1.1 1.6.1.5 0 1.1-.3 1.6-.4.6-1.2 1.1-1.9 1-1.2 0-2.3-1.1-2.2-2.2-.1-1 .7-2 1.7-2.2" class="st3"/><path d="M49.1 43c1-.3 2.2.2 2.6 1.2.4.9.2 2-.5 2.6-.8.8-2.2.8-3 0-.7-.6-1-1.8-.5-2.6.3-.5.8-1 1.4-1.2" class="st3"/><path d="M59.6 45.2c.7-.2 1.4.4 1.4 1.1s-.8 1.3-1.5 1.1c-.6-.2-.9-.8-.7-1.4.1-.4.4-.7.8-.8" class="st3"/><path d="M68.6 49.7c.6-.2 1.4.3 1.4 1 .1.4-.2.9-.5 1.1-.6.4-1.5.1-1.7-.6-.2-.6.1-1.3.8-1.5" class="st3"/><path d="M52.6 52.1c.2-.1.5-.1.8-.1.6.1 1 .8.8 1.4-.1.6-.8.9-1.3.8-.6-.1-1-.7-.9-1.3 0-.4.3-.7.6-.8" class="st3"/><path d="M60.2 52.1c.4-.2.8-.1 1.1-.1.9.1 1.6.8 1.8 1.6q.15.6 0 1.2c-.2.8-.8 1.4-1.6 1.6-.6.1-1.2.1-1.8-.2-.7-.4-1.1-1.1-1.1-1.9.1-1 .7-1.9 1.6-2.2" class="st3"/></g></svg>