<svg xmlns="http://www.w3.org/2000/svg" viewBox="0 0 500 500"><style>.st0{display:none}.st1{display:inline}.st2{fill:#333a46}.st3{fill:none}.st4{fill:#fff}.st5{fill:#7abfbc}.st7{fill:#ef672f}.st10,.st11{display:inline;fill:#7abfbc}.st11{fill:none;stroke:#fff;stroke-width:8.5039;stroke-miterlimit:10}</style><g id="maklermodul" class="st0"><g class="st1"><path class="st2" d="M405.5 432.2H0L94.5 67.8H500z"/></g><g class="st1"><path class="st3" d="M0 441h416v60H0z"/><path class="st2" d="M58.1 468.5v28H52v-27c0-5.8-2.3-7.5-4.9-7.5-3.8 0-5.9 2.7-8.3 6.9v27.7h-6.1v-27c0-5.8-2.3-7.5-4.9-7.5-3.8 0-5.9 2.7-8.3 6.9v27.7h-6.1v-39h5.3l.5 5.7c2.3-3.9 5.5-6.6 10.1-6.6 4.3 0 7.5 2.6 8.9 7 2.5-4.2 5.7-7 10.5-7 5.6-.2 9.4 4.4 9.4 11.7zM92.4 487.4c0 3.4 1.1 4.5 2.9 5.3l-1.4 4.7c-3.5-.4-5.8-2-6.9-5.8-2.5 4.1-6.2 5.8-10.5 5.8-7 0-11.2-4.8-11.2-11.8 0-8.4 5.7-12.9 15.5-12.9h5.4v-2.9c0-5.6-2.5-7.7-7.3-7.7-2.6 0-5.9.7-9.5 2.1l-1.5-5c4.3-1.8 8.2-2.7 12.1-2.7 8.5 0 12.3 4.8 12.3 13v17.9zm-6.1-1.2v-9h-4.6c-6.5 0-9.7 2.7-9.7 8 0 4.6 2.1 7 6.1 7 3.5.1 6.2-1.9 8.2-6zM103.3 496.5v-54.7l6.1-.8v55.5h-6.1zm27.8 0h-7.3l-13.9-21.3 12.9-17.7h6.9l-12.9 17.2 14.3 21.8zM141.5 488.7c0 2.1.6 3.1 2.2 3.1.9 0 1.6-.1 2.3-.4l1.6 4.7c-1.7.9-3.4 1.3-5.2 1.3-4.5 0-7-3-7-8.6v-47l6.1-.8v47.7zM179.3 479.3h-22.4c.6 9 4.4 12.5 9.5 12.5 3.5 0 6.1-1 9.1-3.4l2.7 4.1c-3.5 3-7.4 4.9-12.3 4.9-9.8 0-15.5-7.6-15.5-20 0-12.1 5.5-20.8 14.6-20.8 9.5 0 14.5 7.3 14.5 19.2-.1 1.4-.1 2.6-.2 3.5zm-5.9-5.4c0-7.6-2.7-11.8-8.3-11.8-4.7 0-7.7 3.6-8.2 12.3h16.5v-.5zM206.6 457.1l-1.1 6.7c-1.1-.3-1.8-.4-3.1-.4-4.4 0-6.9 3.5-8.4 11v22.3h-6.1v-39h5.3l.6 7.9c1.9-5.8 5.1-8.8 9.4-8.8 1.1-.2 2.3 0 3.4.3zM272.7 468.5v28h-6.1v-27c0-5.8-2.3-7.5-4.9-7.5-3.8 0-5.9 2.7-8.3 6.9v27.7h-6.1v-27c0-5.8-2.3-7.5-4.9-7.5-3.8 0-5.9 2.7-8.3 6.9v27.7H228v-39h5.3l.5 5.7c2.3-3.9 5.5-6.6 10.1-6.6 4.3 0 7.5 2.6 8.9 7 2.5-4.2 5.7-7 10.5-7 5.6-.2 9.4 4.4 9.4 11.7zM312.1 477c0 12.1-5.7 20.4-15.7 20.4s-15.7-8-15.7-20.4c0-12.1 5.7-20.4 15.7-20.4s15.7 8 15.7 20.4zm-24.7 0c0 10.1 3.2 14.9 9.1 14.9s9.1-4.7 9.1-14.9c0-10.1-3.2-14.9-9-14.9-5.9 0-9.2 4.7-9.2 14.9zM347.7 496.5h-5.4l-.6-5.4c-2.3 3.9-5.8 6.3-10.1 6.3-8.5 0-13.3-8.1-13.3-20.2 0-11.9 5.2-20.6 13.8-20.6 4.1 0 7.1 2.1 9.5 4.8V441l6.1.8v54.7zm-6.1-10.3v-19.1c-2.2-3.1-4.7-5.1-8.1-5.1-5.3 0-8.5 4.9-8.5 15 0 10.3 2.9 14.9 8 14.9 3.9.1 6.3-2.1 8.6-5.7zM379.6 496.5l-.5-6.1c-2.7 4.7-5.9 7-10.9 7-6.1 0-9.8-4.3-9.8-11.9v-28h6.1v27.2c0 5.3 1.6 7.3 5.4 7.3s6.7-2.8 8.8-6.7v-27.8h6.1v39h-5.2zM401.6 488.7c0 2.1.6 3.1 2.2 3.1.9 0 1.6-.1 2.3-.4l1.6 4.7c-1.7.9-3.4 1.3-5.2 1.3-4.5 0-7-3-7-8.6v-47l6.1-.8v47.7z"/></g><g class="st1"><path class="st4" d="M371.1 254.1l-117.7-119c-6-6.3-15.9-6.3-21.9 0l-117.7 119c-6 6.3-3.8 11.5 5 11.5h24.5v91.3c0 6.6.3 12 12.1 12h57.1v-91.6h59.8v91.6h60c9 0 9.2-5.3 9.2-12v-91.3H366c8.9-.1 11.1-5.3 5.1-11.5z"/><path class="st5" d="M212.5 276.5h59.8v92.3h-59.8z"/></g></g><g id="immoexpress" class="st0"><g class="st1"><path class="st2" d="M405.5 432.2H0L94.5 67.8H500z"/></g><g class="st1"><path class="st3" d="M0 441h416v60H0z"/><path class="st2" d="M28.2 443.4c0 2.6-1.7 4.6-4.3 4.6-2.5 0-4.3-2-4.3-4.6 0-2.7 1.7-4.7 4.3-4.7 2.6.1 4.3 2.1 4.3 4.7zm-7.3 53.1v-39H27v39h-6.1zM82.8 468.5v28h-6.1v-27c0-5.8-2.3-7.5-4.9-7.5-3.8 0-5.9 2.7-8.3 6.9v27.7h-6.1v-27c0-5.8-2.3-7.5-4.9-7.5-3.8 0-5.9 2.7-8.3 6.9v27.7H38v-39h5.3l.5 5.7c2.3-3.9 5.5-6.6 10.1-6.6 4.3 0 7.5 2.6 8.9 7 2.5-4.2 5.7-7 10.5-7 5.7-.2 9.5 4.4 9.5 11.7zM138.2 468.5v28H132v-27c0-5.8-2.3-7.5-4.9-7.5-3.8 0-5.9 2.7-8.3 6.9v27.7h-6.1v-27c0-5.8-2.3-7.5-4.9-7.5-3.8 0-5.9 2.7-8.3 6.9v27.7h-6.1v-39h5.3l.5 5.7c2.3-3.9 5.5-6.6 10.1-6.6 4.3 0 7.5 2.6 8.9 7 2.5-4.2 5.7-7 10.5-7 5.7-.2 9.5 4.4 9.5 11.7zM177.6 477c0 12.1-5.7 20.4-15.7 20.4s-15.7-8-15.7-20.4c0-12.1 5.7-20.4 15.7-20.4s15.7 8 15.7 20.4zm-24.7 0c0 10.1 3.2 14.9 9.1 14.9 5.9 0 9.1-4.7 9.1-14.9 0-10.1-3.2-14.9-9-14.9-5.9 0-9.2 4.7-9.2 14.9zM212.4 479.3H190c.6 9 4.4 12.5 9.5 12.5 3.5 0 6.1-1 9.1-3.4l2.7 4.1c-3.5 3-7.4 4.9-12.3 4.9-9.8 0-15.5-7.6-15.5-20 0-12.1 5.5-20.8 14.6-20.8 9.5 0 14.5 7.3 14.5 19.2 0 1.4-.1 2.6-.2 3.5zm-5.9-5.4c0-7.6-2.7-11.8-8.3-11.8-4.7 0-7.7 3.6-8.2 12.3h16.5v-.5zM238.6 496.5L230 480l-8.7 16.5h-6.9l12.3-20.6-10.9-18.4h7.2l7.3 14.3 7.4-14.3h6.9l-10.8 18.1 12.2 20.9h-7.4zM280.1 477c0 11.8-4.7 20.4-13.8 20.4-3.8 0-6.9-1.4-9.2-4.4v18.5l-6.1.8v-54.8h5.3l.5 5.3c2.6-4 6.4-6.1 10.4-6.1 9.2-.1 12.9 8 12.9 20.3zm-6.6 0c0-10.1-2.7-14.9-7.9-14.9-3.7 0-6.6 3-8.5 6.1v19c1.8 3 4.5 4.7 7.7 4.7 5.6-.1 8.7-4.7 8.7-14.9zM307.6 457.1l-1.1 6.7c-1.1-.3-1.8-.4-3.1-.4-4.4 0-6.9 3.5-8.4 11v22.3h-6.1v-39h5.3l.6 7.9c1.9-5.8 5.1-8.8 9.4-8.8 1.1-.2 2.3 0 3.4.3zM338.6 479.3h-22.4c.6 9 4.4 12.5 9.5 12.5 3.5 0 6.1-1 9.1-3.4l2.7 4.1c-3.5 3-7.4 4.9-12.3 4.9-9.8 0-15.5-7.6-15.5-20 0-12.1 5.5-20.8 14.6-20.8 9.5 0 14.5 7.3 14.5 19.2 0 1.4-.1 2.6-.2 3.5zm-5.9-5.4c0-7.6-2.7-11.8-8.3-11.8-4.7 0-7.7 3.6-8.2 12.3h16.5v-.5zM368.7 461.1l-2.7 4.5c-3.1-2.4-5.8-3.6-9.1-3.6-4 0-6.5 2-6.5 5.1 0 3.2 1.9 4.7 7.5 6.3 7.4 2.1 11.7 5.3 11.7 12.1 0 8.1-6.7 11.8-13.9 11.8-5.9 0-10.2-2.1-13.3-5.1l3.4-4.3c2.7 2.5 5.9 3.9 9.7 3.9 4.6 0 7.5-2.3 7.5-5.7 0-4.1-1.7-5.5-8.5-7.5-7.6-2.2-10.6-5.8-10.6-11.4 0-6.1 5.4-10.7 12.7-10.7 5.1.1 8.7 1.7 12.1 4.6zM398.1 461.1l-2.7 4.5c-3.1-2.4-5.8-3.6-9.1-3.6-4 0-6.5 2-6.5 5.1 0 3.2 1.9 4.7 7.5 6.3 7.4 2.1 11.7 5.3 11.7 12.1 0 8.1-6.7 11.8-13.9 11.8-5.9 0-10.2-2.1-13.3-5.1l3.4-4.3c2.7 2.5 5.9 3.9 9.7 3.9 4.6 0 7.5-2.3 7.5-5.7 0-4.1-1.7-5.5-8.5-7.5-7.6-2.2-10.6-5.8-10.6-11.4 0-6.1 5.4-10.7 12.7-10.7 5.1.1 8.8 1.7 12.1 4.6z"/></g><path fill="#fff" d="M363.2 377.7H257V287h-34.2v90.7H114.7V269.4h22.9v85.4h62.3v-90.6h79.9v90.6h60.5V231.5L239 150.9l-105.1 85.5-14.4-17.8 119.4-97.1 124.3 99z"/></g><g id="wib24" class="st0"><g class="st1"><path class="st2" d="M405.5 432.2H0L94.5 67.8H500z"/></g><g class="st1"><path class="st3" d="M0 441h416v60H0z"/><path class="st2" d="M146.2 496.5l-6.1-32.9-6.3 32.9h-8.1l-8.2-39h6.1l6.3 34.3 6.9-34.3h6.9l6.6 34.3 6.4-34.3h5.9l-8 39h-8.4zM175.8 443.4c0 2.6-1.7 4.6-4.3 4.6-2.5 0-4.3-2-4.3-4.6 0-2.7 1.7-4.7 4.3-4.7 2.6.1 4.3 2.1 4.3 4.7zm-7.3 53.1v-39h6.1v39h-6.1zM214.7 477c0 12.2-5.3 20.4-13.8 20.4-3.9 0-6.9-1.9-9.3-5.2l-.6 4.3h-5.4v-54.7l6.1-.8v21.4c2.4-3.6 5.7-5.8 9.9-5.8 8 0 13.1 7.3 13.1 20.4zm-6.6 0c0-11.1-3.3-14.9-8.2-14.9-3.9 0-6.4 3-8.2 6.1v18.6c1.8 3.1 4.6 5.3 7.7 5.3 5.2-.1 8.7-4.5 8.7-15.1zM261.7 459.8c0 9.3-5.3 15.8-19 31h20l-.7 5.7h-26.3v-5.4c15.7-18.2 19.6-22.9 19.6-31 0-5.2-3-8.2-7.3-8.2-3.7 0-6.2 1.6-9.1 5.4l-4.1-3.6c3.6-5 7.9-7.5 13.5-7.5 8.3.1 13.4 5.9 13.4 13.6zM292.1 484.3v12.2h-5.9v-12.2h-19v-4.9l13.4-33.2 5.1 2.4-12.1 30.3h12.7l.5-13.3h5.3v13.3h5.8v5.4h-5.8z"/></g><g class="st1"><path class="st4" d="M119.5 340.6v-14.8l19-18.5c45.7-43.5 66.3-66.6 66.6-93.6 0-18.2-8.8-35-35.5-35-16.2 0-29.7 8.3-38 15.1l-7.7-17.1c12.4-10.5 30-18.2 50.6-18.2 38.5 0 54.8 26.4 54.8 52 0 33-23.9 59.7-61.7 96.1l-14.3 13.2v.5h80.4v20.1H119.5zM335.6 340.6v-48.7h-83.1v-16l79.8-114.2h26.1v111.2h25.1v19h-25.1v48.7h-22.8zm0-67.7v-59.7c0-9.4.3-18.7.9-28.1h-.9c-5.5 10.5-9.9 18.2-14.8 26.4L277 272.3v.6h58.6z"/></g></g><g id="contao_apps" class="st0"><g class="st1"><path class="st2" d="M405.5 432.2H0L94.5 67.8H500z"/></g><g class="st1"><path class="st3" d="M0 441h416v60H0z"/><path class="st2" d="M60 460.8l-3 4.4c-2.3-2.1-4.5-3-7.5-3-5.5 0-9 4.8-9 14.9 0 10.2 3.5 14.4 9 14.4 2.9 0 5-1 7.5-3.2l2.9 4.7c-3.1 2.8-6.7 4.3-10.7 4.3-9.5 0-15.3-7.5-15.3-20.1 0-12.4 5.8-20.7 15.3-20.7 4.2.1 7.5 1.3 10.8 4.3zM94.8 477c0 12.1-5.7 20.4-15.7 20.4s-15.7-8-15.7-20.4c0-12.1 5.7-20.4 15.7-20.4s15.7 8 15.7 20.4zM70 477c0 10.1 3.2 14.9 9.1 14.9 5.9 0 9.1-4.7 9.1-14.9 0-10.1-3.2-14.9-9-14.9-5.9 0-9.2 4.7-9.2 14.9zM129.9 468.5v28h-6.1v-27c0-5.8-2.1-7.5-5.5-7.5-3.9 0-6.6 2.7-8.9 6.9v27.7h-6.1v-39h5.3l.5 5.8c2.4-4 6.1-6.7 10.7-6.7 6.4-.1 10.1 4.4 10.1 11.8zM158.3 494.7c-2.3 1.8-4.9 2.7-7.9 2.7-5.9 0-9.5-3.8-9.5-11.1v-23.5h-6.1v-5.3h6.1v-8.8l6.1-.8v9.6h8.3l-.7 5.3h-7.7V486c0 3.9 1.1 5.8 4.2 5.8 1.5 0 2.9-.5 4.7-1.7l2.5 4.6zM186.6 487.4c0 3.4 1.1 4.5 2.9 5.3l-1.4 4.7c-3.5-.4-5.8-2-6.9-5.8-2.5 4.1-6.2 5.8-10.5 5.8-7 0-11.2-4.8-11.2-11.8 0-8.4 5.7-12.9 15.5-12.9h5.4v-2.9c0-5.6-2.5-7.7-7.3-7.7-2.6 0-5.9.7-9.5 2.1l-1.5-5c4.3-1.8 8.2-2.7 12.1-2.7 8.5 0 12.3 4.8 12.3 13v17.9zm-6.1-1.2v-9h-4.6c-6.5 0-9.7 2.7-9.7 8 0 4.6 2.1 7 6.1 7 3.5.1 6.2-1.9 8.2-6zM226.3 477c0 12.1-5.7 20.4-15.7 20.4s-15.7-8-15.7-20.4c0-12.1 5.7-20.4 15.7-20.4s15.7 8 15.7 20.4zm-24.7 0c0 10.1 3.2 14.9 9.1 14.9 5.9 0 9.1-4.7 9.1-14.9 0-10.1-3.2-14.9-9-14.9-6 0-9.2 4.7-9.2 14.9zM274.4 487.4c0 3.4 1.1 4.5 2.9 5.3l-1.4 4.7c-3.5-.4-5.8-2-6.9-5.8-2.5 4.1-6.2 5.8-10.5 5.8-7 0-11.2-4.8-11.2-11.8 0-8.4 5.7-12.9 15.5-12.9h5.4v-2.9c0-5.6-2.5-7.7-7.3-7.7-2.6 0-5.9.7-9.5 2.1l-1.5-5c4.3-1.8 8.2-2.7 12.1-2.7 8.5 0 12.3 4.8 12.3 13v17.9zm-6.2-1.2v-9h-4.6c-6.5 0-9.7 2.7-9.7 8 0 4.6 2.1 7 6.1 7 3.6.1 6.2-1.9 8.2-6zM314.4 477c0 11.8-4.7 20.4-13.8 20.4-3.8 0-6.9-1.4-9.2-4.4v18.5l-6.1.8v-54.8h5.3l.5 5.3c2.6-4 6.4-6.1 10.4-6.1 9.2-.1 12.9 8 12.9 20.3zm-6.6 0c0-10.1-2.7-14.9-7.9-14.9-3.7 0-6.6 3-8.5 6.1v19c1.8 3 4.5 4.7 7.7 4.7 5.6-.1 8.7-4.7 8.7-14.9zM352.3 477c0 11.8-4.7 20.4-13.8 20.4-3.8 0-6.9-1.4-9.2-4.4v18.5l-6.1.8v-54.8h5.3l.5 5.3c2.6-4 6.4-6.1 10.4-6.1 9.2-.1 12.9 8 12.9 20.3zm-6.6 0c0-10.1-2.7-14.9-7.9-14.9-3.7 0-6.6 3-8.5 6.1v19c1.8 3 4.5 4.7 7.7 4.7 5.6-.1 8.7-4.7 8.7-14.9zM382.5 461.1l-2.7 4.5c-3.1-2.4-5.8-3.6-9.1-3.6-4 0-6.5 2-6.5 5.1 0 3.2 1.9 4.7 7.5 6.3 7.4 2.1 11.7 5.3 11.7 12.1 0 8.1-6.7 11.8-13.9 11.8-5.9 0-10.2-2.1-13.3-5.1l3.4-4.3c2.7 2.5 5.9 3.9 9.7 3.9 4.6 0 7.5-2.3 7.5-5.7 0-4.1-1.7-5.5-8.5-7.5-7.6-2.2-10.6-5.8-10.6-11.4 0-6.1 5.4-10.7 12.7-10.7 5.1.1 8.8 1.7 12.1 4.6z"/></g><g class="st1"><path class="st4" d="M311.1 136.4H191.7c-12.7 0-23.1 10.4-23.1 23.1v180.2c0 12.7 10.4 23.1 23.1 23.1h119.4c12.7 0 23.1-10.4 23.1-23.1V159.5c0-12.7-10.4-23.1-23.1-23.1zm-59.3 220.1c-8-.3-12.2-5.2-12.2-11.5 0-6.4 4.4-11.7 12.2-11.6 8.2.1 11.7 5.2 11.7 11.6 0 6.3-4.1 11.8-11.7 11.5zm69-29.6H181.6V159.6h139.2v167.3z"/><path class="st5" d="M277.1 201.4h17.2c2.5 0 4.5 2 4.5 4.5v74.7c0 2.5-2 4.5-4.5 4.5h-10.8c8.4-8.6 11.2-19.1 10.8-31-.8.1-1.4.2-2 .3-7.4 1.6-14.8 3.2-22.2 4.7-1.4.3-1.8.9-1.9 2.2-.4 4.2-1.9 7.9-5.7 10.1-6.1 3.5-15.8 4.1-19.9-6.3-.4-1.1-.9-2.2-1.2-3.3-1.3-4.8-2.8-9.6-3.7-14.4-1.3-6.8-2.6-13.7-3-20.7-.5-9.1 7.7-15.2 16.6-13 3.9.9 6.4 3.5 8.3 6.8.7 1.2 1.4 1.5 2.7 1.2 5.3-1.2 10.6-2.3 15.9-3.4 2.6-.6 5.3-1.1 8.1-1.7-2.1-5.9-5.3-10.8-9.2-15.2z"/><path class="st2" d="M277.2 201.4c3.9 4.4 7 9.3 9.1 15.1-2.8.6-5.5 1.2-8.1 1.7-5.3 1.1-10.6 2.2-15.9 3.4-1.3.3-2 0-2.7-1.2-1.9-3.3-4.4-5.8-8.3-6.8-8.9-2.1-17.1 3.9-16.6 13 .4 6.9 1.7 13.8 3 20.7.9 4.9 2.4 9.6 3.7 14.4.3 1.1.8 2.2 1.2 3.3 4.2 10.4 13.8 9.8 19.9 6.3 3.8-2.2 5.3-5.9 5.7-10.1.1-1.3.6-1.9 1.9-2.2 7.4-1.5 14.8-3.1 22.2-4.7.6-.1 1.1-.2 2-.3.4 11.9-2.3 22.4-10.8 31h-58.9c-3.6-4-6.1-8.7-7.8-13.8-3.5-10.5-5.4-21.4-7.5-32.3-1.1-5.8-1.5-11.7-.6-17.6 1.3-8 5.4-14.4 10.9-20.1 19.3.2 38.5.2 57.6.2z"/><path class="st5" d="M219.6 201.4c-5.5 5.7-9.6 12.1-10.9 20.1-.9 5.9-.5 11.8.6 17.6 2.1 10.9 3.9 21.8 7.5 32.3 1.7 5.1 4.2 9.8 7.8 13.8h-16.4c-2.5 0-4.5-2-4.5-4.5V206c0-2.5 2-4.5 4.5-4.5h11.4z"/></g><g class="st1"><path class="st4" d="M314.5 862.1h-126c-13.4 0-24.4 11-24.4 24.4v190.1c0 13.4 11 24.4 24.4 24.4h126c13.4 0 24.4-11 24.4-24.4V886.5c0-13.5-11-24.4-24.4-24.4zm-62.6 229.1c-11.6-.4-17.7-7.5-17.7-16.7 0-9.3 6.3-16.9 17.7-16.7 11.8.2 16.9 7.5 16.9 16.7s-5.9 17.1-16.9 16.7zm59.8-43.7h-121V886.6h121v160.9z"/></g></g><g id="magento_products" class="st0"><g class="st1"><path class="st2" d="M405.5 432.2H0L94.5 67.8H500z"/></g><g class="st1"><path class="st3" d="M0 441h416v60H0z"/><path class="st2" d="M44.5 462.2v21.5h-4.7v-20.8c0-4.5-1.7-5.8-3.8-5.8-2.9 0-4.5 2.1-6.4 5.3v21.3h-4.7v-20.8c0-4.5-1.7-5.8-3.8-5.8-2.9 0-4.6 2.1-6.4 5.3v21.3H10v-30h4.1l.4 4.4c1.8-3 4.3-5.1 7.8-5.1 3.3 0 5.8 2 6.8 5.4 1.9-3.3 4.4-5.4 8.1-5.4 4.4 0 7.3 3.6 7.3 9.2zM71 476.7c0 2.6.9 3.5 2.3 4l-1.1 3.6c-2.7-.3-4.5-1.5-5.3-4.5-1.9 3.1-4.8 4.5-8.1 4.5-5.4 0-8.6-3.7-8.6-9.1 0-6.4 4.4-9.9 11.9-9.9h4.2v-2.2c0-4.3-1.9-5.9-5.6-5.9-2 0-4.5.6-7.3 1.6l-1.2-3.8c3.3-1.4 6.3-2.1 9.3-2.1 6.5 0 9.5 3.7 9.5 10v13.8zm-4.8-.9v-6.9h-3.5c-5 0-7.5 2.1-7.5 6.2 0 3.5 1.6 5.4 4.7 5.4 2.7 0 4.8-1.5 6.3-4.7zM101.2 455.1c-2.3.8-4.8.9-7.9.9 3.2 1.6 4.8 4.1 4.8 7.6 0 5.9-3.8 10.2-10.3 10.2-1.2 0-2.3-.2-3.4-.6-.8.6-1.3 1.7-1.3 2.8 0 1.4.8 2.5 3.5 2.5h4.3c5.5 0 9.2 3.5 9.2 8.3 0 5.8-4.3 9.1-12.7 9.1-8.8 0-11.6-3-11.6-9.1H80c0 3.4 1.4 5 7.3 5 5.8 0 7.9-1.7 7.9-4.7 0-2.8-2.1-4.3-5.4-4.3h-4.3c-4.8 0-7-2.7-7-5.7 0-1.9 1-3.9 3-5.3-3.1-1.8-4.6-4.4-4.6-8.3 0-6.2 4.5-10.5 10.4-10.5 6.7.2 9.2-1.1 12.4-2.7l1.5 4.8zm-19.4 8.4c0 4 2 6.8 5.7 6.8s5.7-2.5 5.7-6.8c0-4.4-1.9-6.7-5.8-6.7-3.6 0-5.6 2.8-5.6 6.7zM124.3 470.5h-17.2c.5 7 3.4 9.6 7.3 9.6 2.7 0 4.7-.8 7-2.6l2.1 3.1c-2.7 2.3-5.7 3.8-9.4 3.8-7.5 0-12-5.9-12-15.4 0-9.3 4.3-16 11.2-16 7.3 0 11.1 5.6 11.1 14.8 0 1.1 0 2-.1 2.7zm-4.6-4.2c0-5.9-2.1-9.1-6.4-9.1-3.6 0-6 2.8-6.3 9.5h12.7v-.4zM151.5 462.2v21.5h-4.7v-20.8c0-4.5-1.6-5.8-4.3-5.8-3 0-5.1 2.1-6.9 5.3v21.3h-4.7v-30h4.1l.4 4.4c1.8-3.1 4.7-5.1 8.3-5.1 4.9 0 7.8 3.5 7.8 9.2zM173.3 482.4c-1.8 1.4-3.7 2.1-6.1 2.1-4.6 0-7.3-3-7.3-8.6v-18.1h-4.7v-4h4.7V447l4.7-.6v7.4h6.4l-.5 4h-5.9v17.9c0 3 .9 4.4 3.2 4.4 1.2 0 2.3-.4 3.6-1.3l1.9 3.6zM198.6 468.7c0 9.3-4.4 15.7-12.1 15.7-7.7 0-12.1-6.2-12.1-15.7 0-9.3 4.4-15.7 12.1-15.7 7.8 0 12.1 6.2 12.1 15.7zm-19 .1c0 7.8 2.5 11.5 7 11.5s7-3.6 7-11.5c0-7.8-2.5-11.5-6.9-11.5-4.6-.1-7.1 3.6-7.1 11.5zM239.8 468.7c0 9.1-3.6 15.7-10.6 15.7-2.9 0-5.3-1.1-7.1-3.4v14.3l-4.7.6v-42.2h4.1l.4 4c2-3.1 4.9-4.7 8-4.7 7.1 0 9.9 6.2 9.9 15.7zm-5 0c0-7.8-2.1-11.5-6.1-11.5-2.9 0-5.1 2.3-6.5 4.7v14.7c1.4 2.3 3.5 3.6 6 3.6 4.2 0 6.6-3.6 6.6-11.5zM261 453.4l-.9 5.1c-.8-.2-1.4-.3-2.4-.3-3.4 0-5.3 2.7-6.5 8.4v17.2h-4.7v-30h4.1l.5 6.1c1.4-4.5 3.9-6.8 7.2-6.8.9-.1 1.9 0 2.7.3zM286.8 468.7c0 9.3-4.4 15.7-12.1 15.7-7.7 0-12.1-6.2-12.1-15.7 0-9.3 4.4-15.7 12.1-15.7s12.1 6.2 12.1 15.7zm-19.1.1c0 7.8 2.5 11.5 7 11.5s7-3.6 7-11.5c0-7.8-2.5-11.5-6.9-11.5-4.5-.1-7.1 3.6-7.1 11.5zM314.2 483.8H310l-.5-4.2c-1.7 3-4.5 4.8-7.8 4.8-6.6 0-10.2-6.2-10.2-15.6 0-9.2 4-15.8 10.6-15.8 3.2 0 5.5 1.6 7.3 3.7V441l4.7.6v42.2zm-4.7-8v-14.7c-1.7-2.4-3.6-3.9-6.3-3.9-4.1 0-6.6 3.8-6.6 11.6 0 7.9 2.3 11.5 6.2 11.5 3.1 0 4.9-1.7 6.7-4.5zM338.7 483.8l-.4-4.7c-2.1 3.6-4.6 5.4-8.4 5.4-4.7 0-7.5-3.3-7.5-9.2v-21.5h4.7v21c0 4.1 1.2 5.6 4.2 5.6 2.9 0 5.1-2.2 6.8-5.2v-21.4h4.7v30h-4.1zM369.4 456.3l-2.3 3.4c-1.8-1.6-3.5-2.3-5.7-2.3-4.3 0-6.9 3.7-6.9 11.5 0 7.9 2.7 11.1 6.9 11.1 2.3 0 3.8-.8 5.8-2.5l2.3 3.6c-2.4 2.2-5.1 3.3-8.3 3.3-7.3 0-11.8-5.8-11.8-15.4 0-9.6 4.5-16 11.8-16 3.1 0 5.6.9 8.2 3.3zM388.1 482.4c-1.8 1.4-3.7 2.1-6.1 2.1-4.6 0-7.3-3-7.3-8.6v-18.1H370v-4h4.7V447l4.7-.6v7.4h6.4l-.5 4h-5.9v17.9c0 3 .9 4.4 3.2 4.4 1.2 0 2.3-.4 3.6-1.3l1.9 3.6zM408.2 456.4l-2.1 3.5c-2.4-1.9-4.5-2.7-7-2.7-3.1 0-5 1.5-5 3.9 0 2.5 1.4 3.6 5.8 4.8 5.7 1.6 9 4.1 9 9.3 0 6.3-5.2 9.1-10.7 9.1-4.6 0-7.8-1.7-10.2-3.9l2.6-3.3c2.1 1.9 4.6 3 7.5 3 3.5 0 5.8-1.8 5.8-4.4 0-3.1-1.3-4.3-6.6-5.8-5.8-1.7-8.2-4.5-8.2-8.8 0-4.7 4.2-8.2 9.7-8.2 4.1.1 6.9 1.4 9.4 3.5z"/></g><g class="st1"><path class="st7" d="M172.9 266.2v58.3c0 .7-.3 1.4-.4 2.2-.6-.3-1.3-.4-1.9-.8-8.3-5.1-16.6-10.3-25-15.4-1.2-.7-1.4-1.7-1.4-3v-40.7-74.5c0-1.9.5-3.1 2.2-4.1 13-8 26-16 39-24.1 19.2-11.9 38.4-23.7 57.5-35.6 2.2-1.4 4.5-2.7 6.7-4.1 1.3-.8 2.3-.8 3.6 0 8.5 5.3 17.1 10.6 25.7 15.9 13.3 8.2 26.6 16.4 39.8 24.6 11.7 7.2 23.4 14.5 35.1 21.7 1.2.7 2.3 1.4 3.5 2.1 1 .6 1.5 1.4 1.5 2.6V307.8c0 1.4-.6 2.3-1.8 3.1-8.3 5-16.5 10.2-24.8 15.2-.6.4-1.3.5-1.9.7-.1-.7-.4-1.4-.4-2.1V220.5v-13c0-1.4-.5-2.2-1.7-2.9-25.1-15.5-50.3-31-75.4-46.6-1-.6-1.8-.6-2.7 0-15.9 9.8-31.7 19.7-47.6 29.5-9.2 5.7-18.5 11.4-27.8 17.1-1.3.8-1.8 1.7-1.8 3.3v58.3z"/><path class="st7" d="M267.5 199.8c.8.4 1.6.8 2.3 1.3 10.1 6.2 20.2 12.5 30.3 18.7 1.4.9 1.9 1.9 1.9 3.5v119c0 1.6-.5 2.6-1.9 3.5-9 5.5-18 11.1-27 16.6-6.8 4.2-13.5 8.3-20.3 12.5-1.1.7-1.9.7-3 0-15.7-9.8-31.5-19.5-47.3-29.2-1.3-.8-1.9-1.8-1.9-3.3v-2.2c0-38.5 0-77-.1-115.5 0-2.7.8-4.2 3.1-5.6 10.1-6 20-12.3 30-18.4.3-.2.5-.3.8-.5.9-.6 1.3-.2 1.3.8v136.5c0 2.1.6 3.5 2.5 4.5 4 2.2 7.8 4.7 11.6 7.1 1 .6 1.8.7 2.8 0 4.1-2.6 8.3-5.2 12.4-7.7 1.3-.8 1.7-1.7 1.7-3.2V285v-82.9-2.2c.5.1.7 0 .8-.1z"/></g></g><g id="mobile" class="st0"><g class="st1"><path class="st2" d="M405.5 432.2H0L94.5 67.8H500z"/></g><g class="st1"><path class="st3" d="M0 441h416v60H0z"/><path class="st2" d="M57.5 468.5v28h-6.1v-27c0-5.8-2.3-7.5-4.9-7.5-3.8 0-5.9 2.7-8.3 6.9v27.7H32v-27c0-5.8-2.3-7.5-4.9-7.5-3.8 0-5.9 2.7-8.3 6.9v27.7h-6.1v-39H18l.5 5.7c2.3-3.9 5.5-6.6 10.1-6.6 4.3 0 7.5 2.6 8.9 7 2.5-4.2 5.7-7 10.5-7 5.7-.2 9.5 4.4 9.5 11.7zM96.9 477c0 12.1-5.7 20.4-15.7 20.4s-15.7-8-15.7-20.4c0-12.1 5.7-20.4 15.7-20.4s15.7 8 15.7 20.4zm-24.7 0c0 10.1 3.2 14.9 9.1 14.9 5.9 0 9.1-4.7 9.1-14.9 0-10.1-3.2-14.9-9-14.9-5.9 0-9.2 4.7-9.2 14.9zM134.5 477c0 12.2-5.3 20.4-13.8 20.4-3.9 0-6.9-1.9-9.3-5.2l-.6 4.3h-5.4v-54.7l6.1-.8v21.4c2.4-3.6 5.7-5.8 9.9-5.8 7.9 0 13.1 7.3 13.1 20.4zm-6.6 0c0-11.1-3.3-14.9-8.2-14.9-3.9 0-6.4 3-8.2 6.1v18.6c1.8 3.1 4.6 5.3 7.7 5.3 5.2-.1 8.7-4.5 8.7-15.1zM150.6 443.4c0 2.6-1.7 4.6-4.3 4.6-2.5 0-4.3-2-4.3-4.6 0-2.7 1.7-4.7 4.3-4.7 2.6.1 4.3 2.1 4.3 4.7zm-7.3 53.1v-39h6.1v39h-6.1zM166.2 488.7c0 2.1.6 3.1 2.2 3.1.9 0 1.6-.1 2.3-.4l1.6 4.7c-1.7.9-3.4 1.3-5.2 1.3-4.5 0-7-3-7-8.6v-47l6.1-.8v47.7zM203.9 479.3h-22.4c.6 9 4.4 12.5 9.5 12.5 3.5 0 6.1-1 9.1-3.4l2.7 4.1c-3.5 3-7.4 4.9-12.3 4.9-9.8 0-15.5-7.6-15.5-20 0-12.1 5.5-20.8 14.6-20.8 9.5 0 14.5 7.3 14.5 19.2 0 1.4-.1 2.6-.2 3.5zm-5.9-5.4c0-7.6-2.7-11.8-8.3-11.8-4.7 0-7.7 3.6-8.2 12.3H198v-.5zM273.3 468.5v28h-6.1v-27c0-5.8-2.3-7.5-4.9-7.5-3.8 0-5.9 2.7-8.3 6.9v27.7h-6.1v-27c0-5.8-2.3-7.5-4.9-7.5-3.8 0-5.9 2.7-8.3 6.9v27.7h-6.1v-39h5.3l.5 5.7c2.3-3.9 5.5-6.6 10.1-6.6 4.3 0 7.5 2.6 8.9 7 2.5-4.2 5.7-7 10.5-7 5.6-.2 9.4 4.4 9.4 11.7zM312.7 477c0 12.1-5.7 20.4-15.7 20.4s-15.7-8-15.7-20.4c0-12.1 5.7-20.4 15.7-20.4s15.7 8 15.7 20.4zm-24.7 0c0 10.1 3.2 14.9 9.1 14.9 5.9 0 9.1-4.7 9.1-14.9 0-10.1-3.2-14.9-9-14.9-5.9 0-9.2 4.7-9.2 14.9zM348.3 496.5h-5.4l-.6-5.4c-2.3 3.9-5.8 6.3-10.1 6.3-8.5 0-13.3-8.1-13.3-20.2 0-11.9 5.2-20.6 13.8-20.6 4.1 0 7.1 2.1 9.5 4.8V441l6.1.8v54.7zm-6.1-10.3v-19.1c-2.2-3.1-4.7-5.1-8.1-5.1-5.3 0-8.5 4.9-8.5 15 0 10.3 2.9 14.9 8 14.9 3.9.1 6.3-2.1 8.6-5.7zM380.2 496.5l-.5-6.1c-2.7 4.7-5.9 7-10.9 7-6.1 0-9.8-4.3-9.8-11.9v-28h6.1v27.2c0 5.3 1.6 7.3 5.4 7.3s6.7-2.8 8.8-6.7v-27.8h6.1v39h-5.2zM402.2 488.7c0 2.1.6 3.1 2.2 3.1.9 0 1.6-.1 2.3-.4l1.6 4.7c-1.7.9-3.4 1.3-5.2 1.3-4.5 0-7-3-7-8.6v-47l6.1-.8v47.7z"/></g><g class="st1"><path class="st4" d="M372.7 301.9c0 2.1-1.7 3.8-3.8 3.8h-3.5v15.2c0 12.5-10.2 22.7-22.7 22.7S320 333.4 320 320.9v-15.2H181.9v15.2c0 12.5-10.2 22.7-22.7 22.7s-22.7-10.2-22.7-22.7v-15.2h-2.3c-2.1 0-3.8-1.7-3.8-3.8v-45.5c0-14.7 3.3-22.9 17.7-26.5l24.6-49.6c3.7-8.9 13.2-24.6 33.5-24.6h90.9c18.9 0 30.6 16.5 33.5 24.6l26.4 49.6c15.9 6.2 15.9 11.8 15.9 26.5v45.5zm-47.1-72l-24.5-42.3c-.3-1.3-2.7-3.2-4.1-3.2h-91c-1.4 0-3.8 1.9-4.1 3.2l-22.7 42.3s19.8 6.2 72.3 6.2c51.6 0 74.1-6.2 74.1-6.2z"/><path class="st5" d="M168.2 248.8c-10.4 0-18.9 8.5-18.9 18.9 0 10.4 8.5 18.9 18.9 18.9 10.4 0 18.9-8.5 18.9-18.9 0-10.3-8.5-18.9-18.9-18.9zM334.8 248.8c-10.4 0-18.9 8.5-18.9 18.9 0 10.4 8.5 18.9 18.9 18.9 10.4 0 18.9-8.5 18.9-18.9.1-10.3-8.5-18.9-18.9-18.9z"/></g></g><g id="theme_helper" class="st0"><g class="st1"><path class="st2" d="M405.5 432.2H0L94.5 67.8H500z"/></g><g class="st1"><path class="st3" d="M0 441h416v60H0z"/><path class="st2" d="M37.1 494.7c-2.3 1.8-4.9 2.7-7.9 2.7-5.9 0-9.5-3.8-9.5-11.1v-23.5h-6.1v-5.3h6.1v-8.8l6.1-.8v9.6h8.3l-.7 5.3H26V486c0 3.9 1.1 5.8 4.2 5.8 1.5 0 2.9-.5 4.7-1.7l2.2 4.6zM68.5 468.5v28h-6.1v-27c0-5.8-2.3-7.5-5.6-7.5-3.8 0-6.5 2.7-8.9 6.8v27.8h-6.1V442l6.1-.7v21.8c2.5-3.8 6-6.3 10.4-6.3 6.4-.2 10.2 4.4 10.2 11.7zM105.5 479.3H83.2c.6 9 4.4 12.5 9.5 12.5 3.5 0 6.1-1 9.1-3.4l2.7 4.1c-3.5 3-7.4 4.9-12.3 4.9-9.8 0-15.5-7.6-15.5-20 0-12.1 5.5-20.8 14.6-20.8 9.5 0 14.5 7.3 14.5 19.2-.1 1.4-.2 2.6-.3 3.5zm-5.9-5.4c0-7.6-2.7-11.8-8.3-11.8-4.7 0-7.7 3.6-8.2 12.3h16.5v-.5zM158.9 468.5v28h-6.1v-27c0-5.8-2.3-7.5-4.9-7.5-3.8 0-5.9 2.7-8.3 6.9v27.7h-6.1v-27c0-5.8-2.3-7.5-4.9-7.5-3.8 0-5.9 2.7-8.3 6.9v27.7h-6.1v-39h5.3l.5 5.7c2.3-3.9 5.5-6.6 10.1-6.6 4.3 0 7.5 2.6 8.9 7 2.5-4.2 5.7-7 10.5-7 5.6-.2 9.4 4.4 9.4 11.7zM195.9 479.3h-22.4c.6 9 4.4 12.5 9.5 12.5 3.5 0 6.1-1 9.1-3.4l2.7 4.1c-3.5 3-7.4 4.9-12.3 4.9-9.8 0-15.5-7.6-15.5-20 0-12.1 5.5-20.8 14.6-20.8 9.5 0 14.5 7.3 14.5 19.2-.1 1.4-.1 2.6-.2 3.5zm-5.9-5.4c0-7.6-2.7-11.8-8.3-11.8-4.7 0-7.7 3.6-8.2 12.3H190v-.5zM247.2 468.5v28h-6.1v-27c0-5.8-2.3-7.5-5.6-7.5-3.8 0-6.5 2.7-8.9 6.8v27.8h-6.1V442l6.1-.7v21.8c2.5-3.8 6-6.3 10.4-6.3 6.4-.2 10.2 4.4 10.2 11.7zM284.2 479.3h-22.4c.6 9 4.4 12.5 9.5 12.5 3.5 0 6.1-1 9.1-3.4l2.7 4.1c-3.5 3-7.4 4.9-12.3 4.9-9.8 0-15.5-7.6-15.5-20 0-12.1 5.5-20.8 14.6-20.8 9.5 0 14.5 7.3 14.5 19.2 0 1.4-.1 2.6-.2 3.5zm-5.9-5.4c0-7.6-2.7-11.8-8.3-11.8-4.7 0-7.7 3.6-8.2 12.3h16.5v-.5zM298.6 488.7c0 2.1.6 3.1 2.2 3.1.9 0 1.6-.1 2.3-.4l1.6 4.7c-1.7.9-3.4 1.3-5.2 1.3-4.5 0-7-3-7-8.6v-47l6.1-.8v47.7zM339.8 477c0 11.8-4.7 20.4-13.8 20.4-3.8 0-6.9-1.4-9.2-4.4v18.5l-6.1.8v-54.8h5.3l.5 5.3c2.6-4 6.4-6.1 10.4-6.1 9.2-.1 12.9 8 12.9 20.3zm-6.6 0c0-10.1-2.7-14.9-7.9-14.9-3.7 0-6.6 3-8.5 6.1v19c1.8 3 4.5 4.7 7.7 4.7 5.6-.1 8.7-4.7 8.7-14.9zM374.9 479.3h-22.4c.6 9 4.4 12.5 9.5 12.5 3.5 0 6.1-1 9.1-3.4l2.7 4.1c-3.5 3-7.4 4.9-12.3 4.9-9.8 0-15.5-7.6-15.5-20 0-12.1 5.5-20.8 14.6-20.8 9.5 0 14.5 7.3 14.5 19.2 0 1.4-.1 2.6-.2 3.5zm-5.9-5.4c0-7.6-2.7-11.8-8.3-11.8-4.7 0-7.7 3.6-8.2 12.3H369v-.5zM402.2 457.1l-1.1 6.7c-1.1-.3-1.8-.4-3.1-.4-4.4 0-6.9 3.5-8.4 11v22.3h-6.1v-39h5.3l.6 7.9c1.9-5.8 5.1-8.8 9.4-8.8 1.1-.2 2.4 0 3.4.3z"/></g><g class="st1" fill-rule="evenodd" clip-rule="evenodd"><path d="M387.3 177.2c-1-2.4-4.4-3.4-6.9-2.7-8 2.3-16.6-.3-21.7-6.7-5.2-6.6-5.8-15.9-1.4-23.1 1.4-2.3.8-5.2-1.4-6.8-5.6-4-11.7-7.4-18-10-2.5-1-5.3.1-6.5 2.5-3.5 7.3-12.3 12.2-20.5 11.3-8.5-1-15.5-7.2-17.4-15.6-.6-2.6-3.1-4.3-5.8-3.9-6.8 1.2-13.4 3.1-19.8 5.7-2.5 1-3.7 3.8-2.9 6.3 2.7 8.1 0 17-6.6 22.2-6.3 5-16.3 5.6-23.2 1.4-2.3-1.4-5.2-.8-6.8 1.4-4.1 5.7-7.5 11.8-10.1 18.2-1 2.5.1 5.3 2.5 6.5 7.7 3.8 12.3 12 11.3 20.5-.9 8.1-7.1 14.9-15.6 17.4-2.8.7-4.2 3.2-3.8 5.8 1.1 6.8 3.1 13.5 5.8 20 1 2.4 4.5 3.4 7 2.6 7.6-2.4 16.3.2 21.6 6.8 5.2 6.6 5.8 15.9 1.4 23.1-1.4 2.3-.8 5.2 1.4 6.8 5.6 4 11.6 7.4 18 10 2.5 1 5.3 0 6.5-2.5 3.6-7.3 12.3-12.2 20.4-11.3 8.5 1 15.5 7.2 17.4 15.6.6 2.6 3.2 4.3 5.8 3.9 3.5-.6 6.9-1.4 10.3-2.4 3.2-.9 6.4-2 9.5-3.3 2.5-1 3.7-3.8 2.9-6.3-2.7-8 0-17 6.5-22.2 6.4-5.1 16.3-5.6 23.2-1.4 2.3 1.4 5.2.8 6.8-1.4 4.1-5.6 7.4-11.8 10.1-18.2 1-2.5 0-5.3-2.5-6.5-7.7-3.7-12.3-12-11.3-20.5.9-8 6.7-14.9 14.5-17.1l1.1-.3c2.6-.5 4.3-3.1 3.9-5.8-1.1-6.8-3-13.5-5.7-20zm-75.7 64.6c-16.1 4.7-33.1-4.6-37.8-20.7-4.7-16.1 4.6-33.1 20.7-37.8 16.1-4.7 33.1 4.6 37.8 20.7 4.8 16.2-4.5 33.1-20.7 37.8zm0 0" fill="#7abfbc"/><path d="M289.7 276.9c-.3-2.6-3.3-4.5-5.9-4.5-8.4 0-15.8-4.9-18.9-12.5-3.2-7.8-1.1-16.9 5.1-22.6 2-1.8 2.2-4.8.6-6.9-4.3-5.4-9.2-10.4-14.5-14.6-2.1-1.7-5.1-1.4-6.9.6-5.5 6-15.2 8.3-22.8 5.1-7.9-3.3-12.8-11.3-12.3-19.8.2-2.7-1.8-5-4.5-5.3-6.8-.8-13.7-.8-20.6-.1-2.7.3-4.6 2.6-4.5 5.2.3 8.5-4.7 16.3-12.5 19.5-7.5 3.1-17.2.8-22.6-5.2-1.8-2-4.8-2.2-6.9-.6-5.5 4.3-10.5 9.2-14.8 14.6-1.7 2.1-1.4 5.1.5 6.9 6.4 5.8 8.4 14.9 5.1 22.8-3.2 7.5-11 12.4-19.9 12.4-2.9-.1-5 1.8-5.3 4.5-.8 6.9-.8 13.9 0 20.8.3 2.6 3.4 4.5 6 4.5 8-.2 15.6 4.7 18.8 12.5 3.2 7.8 1.1 16.9-5.1 22.6-2 1.8-2.2 4.8-.6 6.9 4.2 5.4 9.1 10.3 14.5 14.6 2.1 1.7 5.1 1.5 7-.6 5.5-6 15.3-8.3 22.8-5.1 7.9 3.3 12.9 11.3 12.4 19.8-.2 2.7 1.8 5 4.5 5.3 3.5.4 7 .6 10.5.6 3.3 0 6.7-.2 10-.6 2.7-.3 4.6-2.6 4.5-5.2-.3-8.5 4.7-16.3 12.5-19.5 7.5-3.1 17.2-.8 22.6 5.1 1.8 2 4.8 2.2 6.9.6 5.5-4.3 10.4-9.2 14.8-14.6 1.7-2.1 1.4-5.1-.5-6.9-6.4-5.8-8.4-14.9-5.1-22.8 3.1-7.4 10.6-12.4 18.7-12.4h1.1c2.6.2 5-1.8 5.4-4.5.7-6.6.7-13.6-.1-20.6zm-90.6 40.9c-16.8 0-30.5-13.7-30.5-30.5s13.7-30.5 30.5-30.5 30.5 13.7 30.5 30.5c-.1 16.8-13.7 30.5-30.5 30.5zm0 0" fill="#fff"/></g></g><g id="social_feed" class="st0"><g class="st1"><path class="st2" d="M405.5 432.2H0L94.5 67.8H500z"/></g><g class="st1"><path class="st3" d="M0 441h416v60H0z"/><path class="st2" d="M79.7 461.1l-2.7 4.5c-3.1-2.4-5.8-3.6-9.1-3.6-4 0-6.5 2-6.5 5.1 0 3.2 1.9 4.7 7.5 6.3 7.4 2.1 11.7 5.3 11.7 12.1 0 8.1-6.7 11.8-13.9 11.8-5.9 0-10.2-2.1-13.3-5.1L57 488c2.7 2.5 5.9 3.9 9.7 3.9 4.6 0 7.5-2.3 7.5-5.7 0-4.1-1.7-5.5-8.5-7.5-7.6-2.2-10.6-5.8-10.6-11.4 0-6.1 5.4-10.7 12.7-10.7 4.9 0 8.6 1.6 11.9 4.5zM116.5 477c0 12.1-5.7 20.4-15.7 20.4s-15.7-8-15.7-20.4c0-12.1 5.7-20.4 15.7-20.4s15.7 8 15.7 20.4zm-24.7 0c0 10.1 3.2 14.9 9.1 14.9 5.9 0 9.1-4.7 9.1-14.9 0-10.1-3.2-14.9-9-14.9-6 0-9.2 4.7-9.2 14.9zM148.5 460.8l-3 4.4c-2.3-2.1-4.5-3-7.5-3-5.5 0-9 4.8-9 14.9 0 10.2 3.5 14.4 9 14.4 2.9 0 5-1 7.5-3.2l2.9 4.7c-3.1 2.8-6.7 4.3-10.7 4.3-9.5 0-15.3-7.5-15.3-20.1 0-12.4 5.8-20.7 15.3-20.7 4.2.1 7.5 1.3 10.8 4.3zM162.4 443.4c0 2.6-1.7 4.6-4.3 4.6-2.5 0-4.3-2-4.3-4.6 0-2.7 1.7-4.7 4.3-4.7 2.6.1 4.3 2.1 4.3 4.7zm-7.3 53.1v-39h6.1v39h-6.1zM195.9 487.4c0 3.4 1.1 4.5 2.9 5.3l-1.4 4.7c-3.5-.4-5.8-2-6.9-5.8-2.5 4.1-6.2 5.8-10.5 5.8-7 0-11.2-4.8-11.2-11.8 0-8.4 5.7-12.9 15.5-12.9h5.4v-2.9c0-5.6-2.5-7.7-7.3-7.7-2.6 0-5.9.7-9.5 2.1l-1.5-5c4.3-1.8 8.2-2.7 12.1-2.7 8.5 0 12.3 4.8 12.3 13v17.9zm-6.1-1.2v-9h-4.6c-6.5 0-9.7 2.7-9.7 8 0 4.6 2.1 7 6.1 7 3.5.1 6.2-1.9 8.2-6zM212.6 488.7c0 2.1.6 3.1 2.2 3.1.9 0 1.6-.1 2.3-.4l1.6 4.7c-1.7.9-3.4 1.3-5.2 1.3-4.5 0-7-3-7-8.6v-47l6.1-.8v47.7zM247.4 452.1v5.4h8.5l-.7 5.3h-7.9v33.7h-6.1v-33.7H235v-5.3h6.3v-5.3c0-6.5 3.9-11.2 11-11.2 3.3 0 5.6.7 8.4 2l-1.9 5c-2.3-1.1-4.3-1.5-6.1-1.5-4 0-5.3 1.8-5.3 5.6zM287 479.3h-22.4c.6 9 4.4 12.5 9.5 12.5 3.5 0 6.1-1 9.1-3.4l2.7 4.1c-3.5 3-7.4 4.9-12.3 4.9-9.8 0-15.5-7.6-15.5-20 0-12.1 5.5-20.8 14.6-20.8 9.5 0 14.5 7.3 14.5 19.2-.1 1.4-.1 2.6-.2 3.5zm-5.9-5.4c0-7.6-2.7-11.8-8.3-11.8-4.7 0-7.7 3.6-8.2 12.3h16.5v-.5zM322 479.3h-22.4c.6 9 4.4 12.5 9.5 12.5 3.5 0 6.1-1 9.1-3.4l2.7 4.1c-3.5 3-7.4 4.9-12.3 4.9-9.8 0-15.5-7.6-15.5-20 0-12.1 5.5-20.8 14.6-20.8 9.5 0 14.5 7.3 14.5 19.2-.1 1.4-.2 2.6-.2 3.5zm-6-5.4c0-7.6-2.7-11.8-8.3-11.8-4.7 0-7.7 3.6-8.2 12.3H316v-.5zM357.7 496.5h-5.4l-.6-5.4c-2.3 3.9-5.8 6.3-10.1 6.3-8.5 0-13.3-8.1-13.3-20.2 0-11.9 5.2-20.6 13.8-20.6 4.1 0 7.1 2.1 9.5 4.8V441l6.1.8v54.7zm-6.1-10.3v-19.1c-2.2-3.1-4.7-5.1-8.1-5.1-5.3 0-8.5 4.9-8.5 15 0 10.3 2.9 14.9 8 14.9 3.9.1 6.3-2.1 8.6-5.7z"/></g><g class="st1"><path class="st4" d="M297.6 242.6H113.1c-9.9 0-18 8.1-18 18v68.6c0 9.9 8.1 18 18 18h10.5v28.2c0 2.1 1.3 3.9 3.2 4.7.6.3 1.3.4 2 .4 1.3 0 2.6-.5 3.6-1.5l48-31.9h117.2c9.9 0 18-8.1 18-18v-68.6c0-9.8-8.1-17.9-18-17.9zm0 94.3H178.2c-1.3 0-2.5.5-3.4 1.3l-.2.2-40.7 24.6v-21-.5c-.2-2.6-2.4-4.7-5.1-4.7h-15.6c-4.3 0-7.7-3.5-7.7-7.7v-68.6c0-4.3 3.5-7.7 7.7-7.7h184.5c4.3 0 7.7 3.5 7.7 7.7v68.6c-.1 4.4-3.6 7.8-7.8 7.8zm0 0"/><path class="st4" d="M270.1 275.5h-130c-2.8 0-5.1 2.3-5.1 5.1s2.3 5.1 5.1 5.1h130c2.8 0 5.1-2.3 5.1-5.1.1-2.8-2.2-5.1-5.1-5.1zm0 0M234.5 304.9h-94.3c-2.8 0-5.1 2.3-5.1 5.1s2.3 5.1 5.1 5.1h94.3c2.8 0 5.1-2.3 5.1-5.1s-2.3-5.1-5.1-5.1zm0 0"/><g><path class="st5" d="M202.4 119.4c-9.9 0-18 8.1-18 18V206c0 9.9 8.1 18 18 18h117.2l48 31.9c1 1 2.3 1.5 3.6 1.5.7 0 1.3-.1 2-.4 1.9-.8 3.2-2.7 3.2-4.7V224h10.5c9.9 0 18-8.1 18-18v-68.6c0-9.9-8.1-18-18-18H202.4zm0 94.3c-4.3 0-7.7-3.5-7.7-7.7v-68.6c0-4.3 3.5-7.7 7.7-7.7h184.5c4.3 0 7.7 3.5 7.7 7.7V206c0 4.3-3.5 7.7-7.7 7.7h-15.6c-2.7 0-4.9 2-5.1 4.7v21.5l-40.7-24.6-.2-.2c-.9-.8-2.1-1.3-3.4-1.3H202.4v-.1zm0 0"/><path class="st5" d="M229.9 152.3c-2.8 0-5.1 2.3-5.1 5.1s2.3 5.1 5.1 5.1h130c2.8 0 5.1-2.3 5.1-5.1s-2.3-5.1-5.1-5.1h-130zm0 0M265.5 181.7c-2.8 0-5.1 2.3-5.1 5.1s2.3 5.1 5.1 5.1h94.3c2.8 0 5.1-2.3 5.1-5.1s-2.3-5.1-5.1-5.1h-94.3zm0 0"/></g></g></g><g id="advanced_classes" class="st0"><g class="st1"><path class="st2" d="M405.5 432.2H0L94.5 67.8H500z"/></g><g class="st1"><path class="st3" d="M0 441h416v60H0z"/><path class="st2" d="M25.8 479.2c0 2.8.9 3.7 2.4 4.3l-1.2 3.9c-2.9-.4-4.8-1.6-5.7-4.8-2 3.4-5.1 4.8-8.6 4.8-5.8 0-9.2-4-9.2-9.7 0-6.9 4.7-10.6 12.7-10.6h4.4v-2.4c0-4.6-2-6.3-6-6.3-2.1 0-4.8.6-7.8 1.7L5.5 456c3.6-1.5 6.8-2.2 10-2.2 7 0 10.2 4 10.2 10.7v14.7zm-5-.9v-7.4H17c-5.3 0-8 2.2-8 6.6 0 3.8 1.7 5.8 5 5.8 3 0 5.1-1.7 6.8-5zM57.2 486.8h-4.4l-.5-4.5c-1.9 3.2-4.8 5.2-8.3 5.2-7 0-10.9-6.7-10.9-16.7 0-9.8 4.3-17 11.4-17 3.4 0 5.9 1.7 7.8 4V441l5.1.7v45.1zm-5-8.5v-15.7c-1.8-2.6-3.8-4.2-6.7-4.2-4.3 0-7 4-7 12.4 0 8.5 2.4 12.3 6.6 12.3 3.2-.1 5.2-1.8 7.1-4.8zM71.6 486.8l-10-32.1h5.5l7.6 27.1 7.5-27.1h5.3l-9.8 32.1h-6.1zM111.4 479.2c0 2.8.9 3.7 2.4 4.3l-1.2 3.9c-2.9-.4-4.8-1.6-5.7-4.8-2 3.4-5.1 4.8-8.6 4.8-5.8 0-9.2-4-9.2-9.7 0-6.9 4.7-10.6 12.7-10.6h4.4v-2.4c0-4.6-2-6.3-6-6.3-2.1 0-4.8.6-7.8 1.7l-1.3-4.1c3.6-1.5 6.8-2.2 10-2.2 7 0 10.2 4 10.2 10.7v14.7zm-5-.9v-7.4h-3.8c-5.3 0-8 2.2-8 6.6 0 3.8 1.7 5.8 5 5.8 2.9 0 5.1-1.7 6.8-5zM142.5 463.7v23.1h-5.1v-22.3c0-4.8-1.8-6.2-4.6-6.2-3.2 0-5.4 2.3-7.4 5.7v22.8h-5.1v-32.1h4.3l.4 4.8c2-3.3 5.1-5.5 8.8-5.5 5.6-.1 8.7 3.6 8.7 9.7zM170.6 457.3l-2.5 3.7c-1.9-1.7-3.7-2.5-6.1-2.5-4.6 0-7.4 4-7.4 12.3 0 8.4 2.9 11.9 7.4 11.9 2.4 0 4.1-.9 6.2-2.6l2.4 3.8c-2.6 2.3-5.5 3.5-8.8 3.5-7.8 0-12.6-6.2-12.6-16.5 0-10.2 4.8-17.1 12.6-17.1 3.4.1 6.1 1 8.8 3.5zM197.3 472.6h-18.4c.5 7.4 3.6 10.3 7.8 10.3 2.9 0 5-.9 7.5-2.8l2.2 3.4c-2.9 2.5-6.1 4-10.1 4-8.1 0-12.8-6.3-12.8-16.5 0-10 4.6-17.1 12-17.1 7.8 0 11.9 6 11.9 15.9 0 1 0 2.1-.1 2.8zm-4.9-4.5c0-6.3-2.3-9.8-6.8-9.8-3.8 0-6.4 3-6.8 10.1h13.6v-.3zM226.8 486.8h-4.4l-.5-4.5c-1.9 3.2-4.8 5.2-8.3 5.2-7 0-10.9-6.7-10.9-16.7 0-9.8 4.3-17 11.4-17 3.4 0 5.9 1.7 7.8 4V441l5.1.7v45.1zm-5.1-8.5v-15.7c-1.8-2.6-3.8-4.2-6.7-4.2-4.3 0-7 4-7 12.4 0 8.5 2.4 12.3 6.6 12.3 3.2-.1 5.2-1.8 7.1-4.8zM268.4 457.3l-2.5 3.7c-1.9-1.7-3.7-2.5-6.1-2.5-4.6 0-7.4 4-7.4 12.3 0 8.4 2.9 11.9 7.4 11.9 2.4 0 4.1-.9 6.2-2.6l2.4 3.8c-2.6 2.3-5.5 3.5-8.8 3.5-7.8 0-12.6-6.2-12.6-16.5 0-10.2 4.8-17.1 12.6-17.1 3.4.1 6.1 1 8.8 3.5zM278.7 480.3c0 1.7.5 2.6 1.8 2.6.7 0 1.3-.1 1.9-.4l1.3 3.9c-1.4.7-2.8 1.1-4.3 1.1-3.7 0-5.8-2.4-5.8-7.1v-38.7l5.1-.7v39.3zM308.1 479.2c0 2.8.9 3.7 2.4 4.3l-1.2 3.9c-2.9-.4-4.8-1.6-5.7-4.8-2 3.4-5.1 4.8-8.6 4.8-5.8 0-9.2-4-9.2-9.7 0-6.9 4.7-10.6 12.7-10.6h4.4v-2.4c0-4.6-2-6.3-6-6.3-2.1 0-4.8.6-7.8 1.7l-1.3-4.1c3.6-1.5 6.8-2.2 10-2.2 7 0 10.2 4 10.2 10.7v14.7zm-5.1-.9v-7.4h-3.8c-5.3 0-8 2.2-8 6.6 0 3.8 1.7 5.8 5 5.8 3 0 5.2-1.7 6.8-5zM334.8 457.5l-2.2 3.7c-2.5-2-4.8-2.9-7.5-2.9-3.3 0-5.3 1.6-5.3 4.2s1.5 3.8 6.2 5.2c6.1 1.7 9.6 4.4 9.6 10 0 6.7-5.5 9.8-11.4 9.8-4.9 0-8.4-1.8-10.9-4.2l2.8-3.5c2.2 2.1 4.9 3.2 8 3.2 3.8 0 6.2-1.9 6.2-4.7 0-3.4-1.4-4.6-7-6.2-6.3-1.8-8.7-4.8-8.7-9.4 0-5.1 4.4-8.8 10.4-8.8 4 0 7 1.3 9.8 3.6zM359 457.5l-2.2 3.7c-2.5-2-4.8-2.9-7.5-2.9-3.3 0-5.3 1.6-5.3 4.2s1.5 3.8 6.2 5.2c6.1 1.7 9.6 4.4 9.6 10 0 6.7-5.5 9.8-11.4 9.8-4.9 0-8.4-1.8-10.9-4.2l2.8-3.5c2.2 2.1 4.9 3.2 8 3.2 3.8 0 6.2-1.9 6.2-4.7 0-3.4-1.4-4.6-7-6.2-6.3-1.8-8.7-4.8-8.7-9.4 0-5.1 4.4-8.8 10.4-8.8 4.1 0 7.1 1.3 9.8 3.6zM387.4 472.6H369c.5 7.4 3.6 10.3 7.8 10.3 2.9 0 5-.9 7.5-2.8l2.2 3.4c-2.9 2.5-6.1 4-10.1 4-8.1 0-12.8-6.3-12.8-16.5 0-10 4.6-17.1 12-17.1 7.8 0 11.9 6 11.9 15.9 0 1-.1 2.1-.1 2.8zm-4.9-4.5c0-6.3-2.3-9.8-6.8-9.8-3.8 0-6.4 3-6.8 10.1h13.6v-.3zM412.1 457.5l-2.2 3.7c-2.5-2-4.8-2.9-7.5-2.9-3.3 0-5.3 1.6-5.3 4.2s1.5 3.8 6.2 5.2c6.1 1.7 9.6 4.4 9.6 10 0 6.7-5.5 9.8-11.4 9.8-4.9 0-8.4-1.8-10.9-4.2l2.8-3.5c2.2 2.1 4.9 3.2 8 3.2 3.8 0 6.2-1.9 6.2-4.7 0-3.4-1.4-4.6-7-6.2-6.3-1.8-8.7-4.8-8.7-9.4 0-5.1 4.4-8.8 10.4-8.8 4.1 0 7.1 1.3 9.8 3.6z"/></g><g class="st1"><path class="st3" d="M0 293h500v127H0z"/><path class="st4" d="M218.9 305.5l-7.2 9.5c-3.3-3.2-6.8-5-11.2-5-7.9 0-13.5 7.1-13.5 24.1 0 16.7 5.5 23.8 13.8 23.8 4.9 0 8.5-2.7 12.1-5.8l6.7 9.6c-4 4.6-10.9 8.9-19.5 8.9-17.1 0-28.5-12.8-28.5-36.5 0-23.2 12.1-36.2 28.1-36.2 8.4 0 14.1 2.8 19.2 7.6zM272.4 306.8l-6.9 8.9c-4.2-3.9-8.5-5.8-13.6-5.8s-8.4 2.4-8.4 6.8 2.3 6.2 12.1 9.6c11.8 4.2 18.5 9.6 18.5 22.4 0 12.9-9.2 21.9-24.7 21.9-10.8 0-18.5-4.4-23.7-9.9l7.6-9.2c4.4 4.4 9.4 6.9 15.7 6.9 6.1 0 9.9-3.2 9.9-8.5 0-5.1-2.3-7.4-11.4-10.5-13.9-4.8-19.1-11.2-19.1-21.5 0-12.2 9.5-20 22.5-20 9.4 0 16 3.1 21.5 8.9zM327.4 306.8l-6.9 8.9c-4.2-3.9-8.6-5.8-13.6-5.8-5.1 0-8.4 2.4-8.4 6.8s2.3 6.2 12.1 9.6c11.8 4.2 18.5 9.6 18.5 22.4 0 12.9-9.2 21.9-24.7 21.9-10.8 0-18.5-4.4-23.7-9.9l7.6-9.2c4.4 4.4 9.4 6.9 15.7 6.9 6.1 0 9.9-3.2 9.9-8.5 0-5.1-2.3-7.4-11.4-10.5-13.9-4.8-19.1-11.2-19.1-21.5 0-12.2 9.5-20 22.5-20 9.5 0 16.1 3.1 21.5 8.9z"/></g><g class="st1"><path class="st5" d="M346 197.1c-7.3 0-13.2-5.9-13.2-13.2v-19.2c0-13.9-11.3-25.2-25.2-25.2h-6.4c-3.3 0-6 2.7-6 6s2.7 6 6 6h6.4c7.3 0 13.2 5.9 13.2 13.2v19.2c0 7.7 3.5 14.6 8.9 19.2-5.4 4.6-8.9 11.5-8.9 19.2v19.2c0 7.3-5.9 13.2-13.2 13.2h-6.4c-3.3 0-6 2.7-6 6s2.7 6 6 6h6.4c13.9 0 25.2-11.3 25.2-25.2v-19.2c0-7.3 5.9-13.2 13.2-13.2 3.3 0 6-2.7 6-6s-2.7-6-6-6zm0 0M179.2 183.9v-19.2c0-7.3 5.9-13.2 13.2-13.2h6.4c3.3 0 6-2.7 6-6s-2.7-6-6-6h-6.4c-13.9 0-25.2 11.3-25.2 25.2v19.2c0 7.3-5.9 13.2-13.2 13.2-3.3 0-6 2.7-6 6s2.7 6 6 6c7.3 0 13.2 5.9 13.2 13.2v19.2c0 13.9 11.3 25.2 25.2 25.2h6.4c3.3 0 6-2.7 6-6s-2.7-6-6-6h-6.4c-7.3 0-13.2-5.9-13.2-13.2v-19.2c0-7.7-3.5-14.6-8.9-19.2 5.4-4.6 8.9-11.5 8.9-19.2zm0 0M282 229.1c-1.6 0-3.1.6-4.2 1.8-1.1 1.1-1.8 2.7-1.8 4.2 0 1.6.6 3.1 1.8 4.2 1.1 1.1 2.7 1.8 4.2 1.8 1.6 0 3.1-.6 4.2-1.8 1.1-1.1 1.8-2.7 1.8-4.2 0-1.6-.6-3.1-1.8-4.2-1.1-1.2-2.6-1.8-4.2-1.8zm0 0M250 229.1c-1.6 0-3.1.6-4.2 1.8-1.1 1.1-1.8 2.7-1.8 4.2 0 1.6.6 3.1 1.8 4.2 1.1 1.1 2.7 1.8 4.2 1.8 1.6 0 3.1-.6 4.2-1.8 1.1-1.1 1.8-2.7 1.8-4.2 0-1.6-.6-3.1-1.8-4.2-1.1-1.2-2.6-1.8-4.2-1.8zm0 0M218 229.1c-1.6 0-3.1.6-4.2 1.8-1.1 1.1-1.8 2.7-1.8 4.2 0 1.6.6 3.1 1.8 4.2 1.1 1.1 2.7 1.8 4.2 1.8 1.6 0 3.1-.6 4.2-1.8 1.1-1.1 1.8-2.7 1.8-4.2 0-1.6-.6-3.1-1.8-4.2-1.1-1.2-2.6-1.8-4.2-1.8zm0 0"/></g></g><g id="amp" class="st0"><g class="st1"><path class="st2" d="M405.5 432.2H0L94.5 67.8H500z"/></g><g class="st1"><path class="st3" d="M0 431h416v60H0z"/><path class="st2" d="M173.2 477.4c0 3.4 1.1 4.5 2.9 5.3l-1.4 4.7c-3.5-.4-5.8-2-6.9-5.8-2.5 4.1-6.2 5.8-10.5 5.8-7 0-11.2-4.8-11.2-11.8 0-8.4 5.7-12.9 15.5-12.9h5.4v-2.9c0-5.6-2.5-7.7-7.3-7.7-2.6 0-5.9.7-9.5 2.1l-1.5-5c4.3-1.8 8.2-2.7 12.1-2.7 8.5 0 12.3 4.8 12.3 13v17.9zm-6.1-1.2v-9h-4.6c-6.5 0-9.7 2.7-9.7 8 0 4.6 2.1 7 6.1 7 3.5.1 6.2-1.9 8.2-6zM228.9 458.5v28h-6.1v-27c0-5.8-2.3-7.5-4.9-7.5-3.8 0-5.9 2.7-8.3 6.9v27.7h-6.1v-27c0-5.8-2.3-7.5-4.9-7.5-3.8 0-5.9 2.7-8.3 6.9v27.7h-6.1v-39h5.3l.5 5.7c2.3-3.9 5.5-6.6 10.1-6.6 4.3 0 7.5 2.6 8.9 7 2.5-4.2 5.7-7 10.5-7 5.6-.2 9.4 4.4 9.4 11.7zM268.6 467c0 11.8-4.7 20.4-13.8 20.4-3.8 0-6.9-1.4-9.2-4.4v18.5l-6.1.8v-54.8h5.3l.5 5.3c2.6-4 6.4-6.1 10.4-6.1 9.3-.1 12.9 8 12.9 20.3zm-6.6 0c0-10.1-2.7-14.9-7.9-14.9-3.7 0-6.6 3-8.5 6.1v19c1.8 3 4.5 4.7 7.7 4.7 5.7-.1 8.7-4.7 8.7-14.9z"/></g><g class="st1"><path class="st4" d="M301.7 127H198.3c-9.9 0-17.9 8.1-17.9 17.9v210.2c0 9.9 8 17.9 17.9 17.9h103.5c9.9 0 17.9-8 17.9-17.9V144.9c-.1-9.8-8.1-17.9-18-17.9zm-77.2 10.9h51.1c1.3 0 2.3 1.9 2.3 4.3s-1.1 4.3-2.3 4.3h-51.1c-1.3 0-2.4-1.9-2.4-4.3s1.1-4.3 2.4-4.3zm81.7 178.2H193.8V157.3h112.5v158.8zm0 0"/></g><path class="st10" d="M208 170h85v20h-85z"/><path class="st11" d="M208 207h85M208 229.5h85M208 252h85M208 274.5h85M208 297h68.5"/><path class="st10" d="M250 358.9c-8.3 0-15-6.7-15-15s6.7-15 15-15 15 6.7 15 15-6.7 15-15 15z"/></g><g id="MATE" class="st0"><g class="st1"><path class="st2" d="M405.5 432.2H0L94.5 67.8H500z"/></g><g class="st1"><path class="st3" d="M0 441h416v60H0z"/><path class="st2" d="M72.6 496.5l-1.6-23c-.6-8-1.1-16.6-1.1-20.8l-9.9 38h-6l-10.5-38.1c0 6-.3 13.9-.9 21.4l-1.5 22.5h-6l3.8-51h8.5l9.7 37.1 9.2-37.1h8.6l3.8 51h-6.1zM92.6 483.7l-3.5 12.8h-6.4l14.7-51h8l14.7 51h-6.7l-3.5-12.8H92.6zm8.7-32.3L94.1 478h14.3l-7.1-26.6zM135.9 451.5v45h-6.3v-45h-13.1v-6h32.8l-.7 6h-12.7zM161.3 451.1v16.7h15.5v5.6h-15.5v17.5h19v5.6H155v-51h24.8l-.7 5.6h-17.8zM222.3 494.7c-2.3 1.8-4.9 2.7-7.9 2.7-5.9 0-9.5-3.8-9.5-11.1v-23.5h-6.1v-5.3h6.1v-8.8l6.1-.8v9.6h8.3l-.7 5.3h-7.7V486c0 3.9 1.1 5.8 4.2 5.8 1.5 0 2.9-.5 4.7-1.7l2.5 4.6zM253.7 468.5v28h-6.1v-27c0-5.8-2.3-7.5-5.6-7.5-3.8 0-6.5 2.7-8.9 6.8v27.8H227V442l6.1-.7v21.8c2.5-3.8 6-6.3 10.4-6.3 6.4-.2 10.2 4.4 10.2 11.7zM290.7 479.3h-22.4c.6 9 4.4 12.5 9.5 12.5 3.5 0 6.1-1 9.1-3.4l2.7 4.1c-3.5 3-7.4 4.9-12.3 4.9-9.8 0-15.5-7.6-15.5-20 0-12.1 5.5-20.8 14.6-20.8 9.5 0 14.5 7.3 14.5 19.2-.1 1.4-.1 2.6-.2 3.5zm-5.9-5.4c0-7.6-2.7-11.8-8.3-11.8-4.7 0-7.7 3.6-8.2 12.3h16.5v-.5zM344 468.5v28h-6.1v-27c0-5.8-2.3-7.5-4.9-7.5-3.8 0-5.9 2.7-8.3 6.9v27.7h-6.1v-27c0-5.8-2.3-7.5-4.9-7.5-3.8 0-5.9 2.7-8.3 6.9v27.7h-6.1v-39h5.3l.5 5.7c2.3-3.9 5.5-6.6 10.1-6.6 4.3 0 7.5 2.6 8.9 7 2.5-4.2 5.7-7 10.5-7 5.6-.2 9.4 4.4 9.4 11.7zM381.1 479.3h-22.4c.6 9 4.4 12.5 9.5 12.5 3.5 0 6.1-1 9.1-3.4l2.7 4.1c-3.5 3-7.4 4.9-12.3 4.9-9.8 0-15.5-7.6-15.5-20 0-12.1 5.5-20.8 14.6-20.8 9.5 0 14.5 7.3 14.5 19.2-.1 1.4-.2 2.6-.2 3.5zm-6-5.4c0-7.6-2.7-11.8-8.3-11.8-4.7 0-7.7 3.6-8.2 12.3h16.5v-.5z"/></g><g class="st1"><path class="st4" d="M135 163.5c1 0 2.1-.4 2.8-1.2.7-.7 1.2-1.8 1.2-2.8 0-1-.4-2.1-1.2-2.8-.7-.7-1.8-1.2-2.8-1.2-1.1 0-2.1.4-2.8 1.2-.7.7-1.2 1.8-1.2 2.8 0 1.1.4 2.1 1.2 2.8.7.8 1.7 1.2 2.8 1.2zm0 0M147.8 163.5c1 0 2.1-.4 2.8-1.2.7-.7 1.2-1.8 1.2-2.8 0-1-.4-2.1-1.2-2.8-.7-.7-1.8-1.2-2.8-1.2-1.1 0-2.1.4-2.8 1.2-.7.7-1.2 1.8-1.2 2.8 0 1.1.4 2.1 1.2 2.8.7.8 1.7 1.2 2.8 1.2zm0 0M160.6 163.5c1 0 2.1-.4 2.8-1.2.7-.7 1.2-1.8 1.2-2.8 0-1-.4-2.1-1.2-2.8-.7-.7-1.8-1.2-2.8-1.2-1 0-2.1.4-2.8 1.2-.7.7-1.2 1.8-1.2 2.8 0 1.1.4 2.1 1.2 2.8.7.8 1.7 1.2 2.8 1.2zm0 0M177.6 163.5h161.9c2.2 0 4-1.8 4-4s-1.8-4-4-4H177.6c-2.2 0-4 1.8-4 4s1.8 4 4 4zm0 0M356.5 163.5h8.5c2.2 0 4-1.8 4-4s-1.8-4-4-4h-8.5c-2.2 0-4 1.8-4 4s1.8 4 4 4zm0 0"/><path class="st4" d="M365 138.5H135c-11.6 0-21 9.4-21 21v181c0 11.6 9.4 21 21 21h230c11.6 0 21-9.4 21-21v-181c0-11.6-9.4-21-21-21zm-230 7.9h230c7.2 0 13 5.9 13 13v13H121.9v-13c0-7.1 5.9-13 13.1-13zm230 207.2H135c-7.2 0-13-5.9-13-13v-160h256.1v160c0 7.1-5.9 13-13.1 13zm0 0"/><g><path class="st5" d="M132 189.1h236V208H132zM132 213h156v62.7H132z"/><path class="st4" d="M293.6 213H368v62.7h-74.4zM132 280.2h236v16H132z"/><path class="st5" d="M174.4 301h71.3v25.2h-71.3zM251.8 301h71.3v25.2h-71.3z"/><path class="st4" d="M174.4 326.2h71.3v20h-71.3zM251.8 326.2h71.3v20h-71.3z"/></g></g></g><g id="default"><path class="st2" d="M405.5 421.2H0L94.5 56.8H500z"/><path class="st3" d="M-7 430h414v60H-7z"/><path class="st2" d="M31.4 485.5H26l-.6-5.4c-2.3 3.9-5.8 6.3-10.1 6.3-8.5 0-13.3-8.1-13.3-20.2 0-11.9 5.2-20.6 13.8-20.6 4.1 0 7.1 2.1 9.5 4.8V430l6.1.8v54.7zm-6.1-10.3v-19.1c-2.2-3.1-4.7-5.1-8.1-5.1-5.3 0-8.5 4.9-8.5 15 0 10.3 2.9 14.9 8 14.9 3.9.1 6.2-2.1 8.6-5.7zM49.7 432.4c0 2.6-1.7 4.6-4.3 4.6-2.5 0-4.3-2-4.3-4.6 0-2.7 1.7-4.7 4.3-4.7 2.6.1 4.3 2.1 4.3 4.7zm-7.3 53.1v-39h6.1v39h-6.1zM87.8 448.3c-2.9 1-6.3 1.2-10.3 1.2 4.1 2.1 6.2 5.3 6.2 9.8 0 7.7-5 13.2-13.4 13.2-1.6 0-3-.2-4.5-.7-1 .8-1.7 2.2-1.7 3.6 0 1.8 1 3.2 4.6 3.2h5.6c7.2 0 12 4.6 12 10.8 0 7.5-5.6 11.8-16.5 11.8-11.5 0-15.1-3.9-15.1-11.8h5.5c0 4.4 1.8 6.5 9.5 6.5 7.6 0 10.3-2.1 10.3-6.1 0-3.7-2.7-5.5-7.1-5.5h-5.5c-6.3 0-9.1-3.5-9.1-7.4 0-2.5 1.3-5 3.9-6.9-4.1-2.4-5.9-5.8-5.9-10.8 0-8 5.8-13.6 13.5-13.6 8.7.2 11.9-1.4 16.1-3.5l1.9 6.2zm-25.1 10.9c0 5.2 2.6 8.8 7.4 8.8s7.4-3.3 7.4-8.9c0-5.7-2.5-8.7-7.5-8.7-4.8.1-7.3 3.7-7.3 8.8zM99.8 432.4c0 2.6-1.7 4.6-4.3 4.6-2.5 0-4.3-2-4.3-4.6 0-2.7 1.7-4.7 4.3-4.7 2.6.1 4.3 2.1 4.3 4.7zm-7.3 53.1v-39h6.1v39h-6.1zM127.3 483.7c-2.3 1.8-4.9 2.7-7.9 2.7-5.9 0-9.5-3.8-9.5-11.1v-23.5h-6.1v-5.3h6.1v-8.8l6.1-.8v9.6h8.3l-.7 5.3h-7.7V475c0 3.9 1.1 5.8 4.2 5.8 1.5 0 2.9-.5 4.7-1.7l2.5 4.6zM155.6 476.4c0 3.4 1.1 4.5 2.9 5.3l-1.4 4.7c-3.5-.4-5.8-2-6.9-5.8-2.5 4.1-6.2 5.8-10.5 5.8-7 0-11.2-4.8-11.2-11.8 0-8.4 5.7-12.9 15.5-12.9h5.4v-2.9c0-5.6-2.5-7.7-7.3-7.7-2.6 0-5.9.7-9.5 2.1l-1.5-5c4.3-1.8 8.2-2.7 12.1-2.7 8.5 0 12.3 4.8 12.3 13v17.9zm-6.1-1.2v-9h-4.6c-6.5 0-9.7 2.7-9.7 8 0 4.6 2.1 7 6.1 7 3.5.1 6.2-1.9 8.2-6zM172.3 477.7c0 2.1.6 3.1 2.2 3.1.9 0 1.6-.1 2.3-.4l1.6 4.7c-1.7.9-3.4 1.3-5.2 1.3-4.5 0-7-3-7-8.6v-47l6.1-.8v47.7zM208 476.4c0 3.4 1.1 4.5 2.9 5.3l-1.4 4.7c-3.5-.4-5.8-2-6.9-5.8-2.5 4.1-6.2 5.8-10.5 5.8-7 0-11.2-4.8-11.2-11.8 0-8.4 5.7-12.9 15.5-12.9h5.4v-2.9c0-5.6-2.5-7.7-7.3-7.7-2.6 0-5.9.7-9.5 2.1l-1.5-5c4.3-1.8 8.2-2.7 12.1-2.7 8.5 0 12.3 4.8 12.3 13v17.9zm-6.1-1.2v-9h-4.6c-6.5 0-9.7 2.7-9.7 8 0 4.6 2.1 7 6.1 7 3.5.1 6.2-1.9 8.2-6zM247.3 448.3c-2.9 1-6.3 1.2-10.3 1.2 4.1 2.1 6.2 5.3 6.2 9.8 0 7.7-5 13.2-13.4 13.2-1.6 0-3-.2-4.5-.7-1 .8-1.7 2.2-1.7 3.6 0 1.8 1 3.2 4.6 3.2h5.6c7.2 0 12 4.6 12 10.8 0 7.5-5.6 11.8-16.5 11.8-11.5 0-15.1-3.9-15.1-11.8h5.5c0 4.4 1.8 6.5 9.5 6.5 7.6 0 10.3-2.1 10.3-6.1 0-3.7-2.7-5.5-7.1-5.5H227c-6.3 0-9.1-3.5-9.1-7.4 0-2.5 1.3-5 3.9-6.9-4.1-2.4-5.9-5.8-5.9-10.8 0-8 5.8-13.6 13.5-13.6 8.7.2 11.9-1.4 16.1-3.5l1.8 6.2zm-25.2 10.9c0 5.2 2.6 8.8 7.4 8.8s7.4-3.3 7.4-8.9c0-5.7-2.5-8.7-7.5-8.7-4.7.1-7.3 3.7-7.3 8.8zM277.3 468.3h-22.4c.6 9 4.4 12.5 9.5 12.5 3.5 0 6.1-1 9.1-3.4l2.7 4.1c-3.5 3-7.4 4.9-12.3 4.9-9.8 0-15.5-7.6-15.5-20 0-12.1 5.5-20.8 14.6-20.8 9.5 0 14.5 7.3 14.5 19.2-.1 1.4-.1 2.6-.2 3.5zm-5.9-5.4c0-7.6-2.7-11.8-8.3-11.8-4.7 0-7.7 3.6-8.2 12.3h16.5v-.5zM312.6 457.5v28h-6.1v-27c0-5.8-2.1-7.5-5.5-7.5-3.9 0-6.6 2.7-8.9 6.9v27.7H286v-39h5.3l.5 5.8c2.4-4 6.1-6.7 10.7-6.7 6.4-.1 10.1 4.4 10.1 11.8zM341 483.7c-2.3 1.8-4.9 2.7-7.9 2.7-5.9 0-9.5-3.8-9.5-11.1v-23.5h-6.1v-5.3h6.1v-8.8l6.1-.8v9.6h8.3l-.7 5.3h-7.7V475c0 3.9 1.1 5.8 4.2 5.8 1.5 0 2.9-.5 4.7-1.7l2.5 4.6zM366.5 485.5l-.5-6.1c-2.7 4.7-5.9 7-10.9 7-6.1 0-9.8-4.3-9.8-11.9v-28h6.1v27.2c0 5.3 1.6 7.3 5.4 7.3s6.7-2.8 8.8-6.7v-27.8h6.1v39h-5.2zM401.4 446.1l-1.1 6.7c-1.1-.3-1.8-.4-3.1-.4-4.4 0-6.9 3.5-8.4 11v22.3h-6.1v-39h5.3l.6 7.9c1.9-5.8 5.1-8.8 9.4-8.8 1.1-.2 2.4 0 3.4.3z"/><path class="st4" d="M135.3 321.4H100V192.1h29l2.1 6.3h1c4.4-6.5 12.4-8.6 21.6-8.6 25.8 0 32.8 16.8 32.8 50.6 0 34.4-6.7 54.6-34.9 54.6-6.7 0-10.7-1.1-15.5-4.6h-.8v31zm7.7-101.8c-3.1 0-5.7 1.1-8.2 2.5v43.5c3.2 1.5 5.7 1.9 8.4 1.9 7.8 0 8-8.4 8-24.6 0-14.5-.6-23.3-8.2-23.3zM246.9 284.1h-1.1c-4.2 6.5-11.1 10.7-21.2 10.7-26.2 0-34.2-19.5-34.2-53.3s11.8-51.9 33.4-51.9c7.6 0 12.8 1.5 17.2 5.2V158h35.1v103.7c0 5.3 1.9 6.7 7.8 6.7l-3.1 25.4c-3.8.2-8.8.8-14.1.8-8.2.2-16.8-1.9-19.8-10.5zM233.7 267c2.7 0 5.3-.4 8.4-1.9v-43.5c-2.5-1.5-5-2.5-8.2-2.5-7.6 0-8.2 8.8-8.2 23.3 0 16.2.2 24.6 8 24.6zM310.1 156.6c13.5 0 18.7 5.3 18.7 16.4 0 10.7-5.2 16-18.7 16-13.9 0-19.1-5-19.1-16 0-11.2 5.2-16.4 19.1-16.4zm-17.4 136.1v-99.6h34.7v99.6h-34.7zM375.4 292.7h-34.8V192.1h30.7l2.1 6.1h.8c6.5-7.3 11.3-8.6 25.8-8.6l-1.5 33.6h-9.7c-10.9 0-13.5 2.3-13.5 13v56.5z"/></g></svg>