<svg xmlns="http://www.w3.org/2000/svg" xml:space="preserve" id="Ebene_2_00000003082143268403364210000017331588248483125951_" x="0" y="0" style="enable-background:new 0 0 360 360" version="1.1" viewBox="0 0 360 360"><style>.st2{fill:#f2edd5}</style><g id="bg"><path d="M80 0h200c44.2 0 80 35.8 80 80v200c0 44.2-35.8 80-80 80H80c-44.2 0-80-35.8-80-80V80C0 35.8 35.8 0 80 0z" style="fill:#a13609"/><path d="M95 25h170c38.7 0 70 31.3 70 70v170c0 38.7-31.3 70-70 70H95c-38.7 0-70-31.3-70-70V95c0-38.7 31.3-70 70-70z" style="fill:#2d3f4b"/></g><path id="frame" d="M270 34c14.9 0 28.9 5.8 39.5 16.5S326 75.1 326 90v180c0 14.9-5.9 28.9-16.5 39.5S284.9 326 270 326H90c-14.9 0-28.9-5.9-39.5-16.5S34 284.9 34 270V90c0-14.9 5.8-28.9 16.5-39.5S75.1 34 90 34h180m0-14H90c-38.5 0-70 31.5-70 70v180c0 38.5 31.5 70 70 70h180c38.5 0 70-31.5 70-70V90c0-38.5-31.5-70-70-70z" class="st2"/><path d="M233.9 250.7h46.9v20.5h-46.9v-20.5z" style="fill:none"/><path d="M235.1 255.9H124.9c-11.4 0-20.7-9.3-20.7-20.7V124.9c0-11.4 9.3-20.7 20.7-20.7h110.2c11.4 0 20.7 9.3 20.7 20.7v110.2c.1 11.5-9.2 20.8-20.7 20.8zM124.9 114.1c-5.9 0-10.7 4.8-10.7 10.7V235c0 5.9 4.8 10.7 10.7 10.7h110.2c5.9 0 10.7-4.8 10.7-10.7V124.9c0-5.9-4.8-10.7-10.7-10.7H124.9z" class="st2"/><path d="M156.4 177.1c-11.4 0-20.7-9.3-20.7-20.7s9.3-20.7 20.7-20.7 20.7 9.3 20.7 20.7-9.3 20.7-20.7 20.7zm0-31.5c-5.9 0-10.7 4.8-10.7 10.7s4.8 10.7 10.7 10.7 10.7-4.8 10.7-10.7-4.8-10.7-10.7-10.7zM132.8 255.9c-1.3 0-2.6-.5-3.5-1.5-2-2-2-5.1 0-7.1l71.5-71.5c8.1-8.1 21.2-8.1 29.3 0l24.3 24.3c2 2 2 5.1 0 7.1s-5.1 2-7.1 0L223 182.9c-4.2-4.2-11-4.2-15.2 0l-71.5 71.5c-1 1-2.3 1.5-3.5 1.5z" class="st2"/></svg>