<svg xmlns="http://www.w3.org/2000/svg" width="360" height="360"><defs><style>.cls-3{fill:#f2edd5}</style></defs><g id="Ebene_2"><g id="bg"><path d="M80 0h200c44.2 0 80 35.8 80 80v200c0 44.2-35.8 80-80 80H80c-44.2 0-80-35.8-80-80V80C0 35.8 35.8 0 80 0" style="fill:#a13609"/><path d="M95 25h170c38.7 0 70 31.3 70 70v170c0 38.7-31.3 70-70 70H95c-38.7 0-70-31.3-70-70V95c0-38.7 31.3-70 70-70" style="fill:#2d3f4b"/></g><path id="frame" d="M270 34c14.9 0 28.9 5.8 39.5 16.5S326 75.1 326 90v180c0 14.9-5.9 28.9-16.5 39.5S284.9 326 270 326H90c-14.9 0-28.9-5.9-39.5-16.5S34 284.9 34 270V90c0-14.9 5.8-28.9 16.5-39.5S75.1 34 90 34zm0-14H90c-38.5 0-70 31.5-70 70v180c0 38.5 31.5 70 70 70h180c38.5 0 70-31.5 70-70V90c0-38.5-31.5-70-70-70" class="cls-3"/><path d="M233.9 250.7h46.9v20.5h-46.9z" style="fill:none"/><path d="M180 265.7c-2 0-3.9-.8-5.3-2.2l-34.8-34.8c-2.9-2.9-2.9-7.7 0-10.6 2.9-2.9 7.7-2.9 10.6 0l21.9 21.9v-51.4c0-4.1 3.4-7.5 7.5-7.5s7.5 3.4 7.5 7.5v69.5c0 3-1.8 5.8-4.6 6.9-.9.4-1.9.6-2.9.6Z" class="cls-3"/><path d="M180 265.7c-1.9 0-3.8-.7-5.3-2.2-2.9-2.9-2.9-7.7 0-10.6l34.7-34.8c2.9-2.9 7.7-2.9 10.6 0s2.9 7.7 0 10.6l-34.8 34.8c-1.5 1.5-3.4 2.2-5.3 2.2Z" class="cls-3"/><path d="M248.9 224.7c-2.5 0-4.9-1.2-6.3-3.4-2.2-3.5-1.2-8.1 2.2-10.4 9.1-5.8 14.5-15.8 14.5-26.6 0-17.4-14.2-31.6-31.6-31.6h-15.6c-3.3 0-6.2-2.2-7.2-5.4-2.9-9.7-8.4-18.3-16-24.9-10.7-9.4-24.5-14-38.7-13.1-14.2.9-27.2 7.4-36.6 18.1-19.4 22.1-17.1 55.9 5 75.2 3.1 2.7 3.4 7.5.7 10.6-2.7 3.1-7.5 3.4-10.6.7-28.4-24.8-31.2-68-6.4-96.4 12-13.7 28.7-22 46.9-23.2 18.2-1.2 35.8 4.7 49.5 16.7 8.3 7.2 14.7 16.3 18.6 26.5h10.2c25.7 0 46.6 20.9 46.6 46.6 0 15.9-8 30.6-21.4 39.2-1.3.8-2.7 1.2-4.1 1.2Z" class="cls-3"/></g></svg>