<svg xmlns="http://www.w3.org/2000/svg" viewBox="0 0 278.91 278.91">
  <circle cx="138.53" cy="140.38" r="138.38" data-name="Ebene 2" style="fill:#fff"/>
  <path d="M150.79 20.67c-76.9 0-139.46 62.56-139.46 139.46a138.66 138.66 0 0 0 23.08 76.71v-77a116.36 116.36 0 1 1 116.38 116.65h-1a106.85 106.85 0 0 1-22.15-2.49v-23.58a86 86 0 0 0 22.19 3h1a93.32 93.32 0 1 0-93.31-93.56v103.8a140.26 140.26 0 0 0 23.07 16.86V160.57c0 .8.06 1.6.09 2.4 0-.95-.09-1.89-.09-2.84v-.25a69.87 69.87 0 0 1 7.67-31.59 70.64 70.64 0 0 1 32.65-31.64 69.6 69.6 0 0 1 59.76 0 70.62 70.62 0 0 1 32.64 31.64 69.83 69.83 0 0 1-.41 64.54 70.69 70.69 0 0 1-29.39 29.39 69.75 69.75 0 0 1-32.72 8.12c-.32 0-.63-.05-1-.05a72 72 0 0 1-31.76-8.07 61.12 61.12 0 0 1-13.47-9.39v78.65a126.58 126.58 0 0 0 22.15 5.94 140.48 140.48 0 0 0 23.08 2.1h1c76.89 0 139.46-62.56 139.46-139.45s-62.57-139.4-139.46-139.4" data-name="Ebene 1" style="fill:#1d1d1b" transform="translate(-11.33 -20.67)"/>
</svg>
