<svg xmlns="http://www.w3.org/2000/svg" xml:space="preserve" id="Ebene_2_00000156570788268193613470000017052364798905568165_" x="0" y="0" style="enable-background:new 0 0 360 360" version="1.1" viewBox="0 0 360 360"><style>.st2{fill:#0098ac}</style><g id="bg"><path d="M80 0h200c44.2 0 80 35.8 80 80v200c0 44.2-35.8 80-80 80H80c-44.2 0-80-35.8-80-80V80C0 35.8 35.8 0 80 0z" style="fill:#a13609"/><path d="M95 25h170c38.7 0 70 31.3 70 70v170c0 38.7-31.3 70-70 70H95c-38.7 0-70-31.3-70-70V95c0-38.7 31.3-70 70-70z" style="fill:#02848e"/><path d="M158.9 85h42.3v113.8h-42.3z" class="st2"/><path d="m259 161.4-39.9 71.3h-78.2L101 161.4l-36.9 20.7 52.1 92.9h127.6l52.1-92.9z" class="st2"/></g><path id="frame" d="M270 34c14.9 0 28.9 5.8 39.5 16.5S326 75.1 326 90v180c0 14.9-5.9 28.9-16.5 39.5S284.9 326 270 326H90c-14.9 0-28.9-5.9-39.5-16.5S34 284.9 34 270V90c0-14.9 5.8-28.9 16.5-39.5S75.1 34 90 34h180m0-14H90c-38.5 0-70 31.5-70 70v180c0 38.5 31.5 70 70 70h180c38.5 0 70-31.5 70-70V90c0-38.5-31.5-70-70-70z" style="fill:#f2edd5"/><path id="Ebene_3_00000169539594426848969890000002756613158210979771_" d="M292.1 181.5c0-16-7.7-28.6-22.4-28.6-14.8 0-23.8 12.6-23.8 28.4 0 18.7 10.5 28.1 25.8 28.1 7.4 0 13-1.7 17.3-4.1V193c-4.2 2-9 3.4-15.3 3.4-6 0-11.4-2-12-9.4h30.5c-.2-.8-.1-4-.1-5.5zm-30.8-5.9c0-7 4.2-10 8.2-10 3.9 0 7.8 2.9 7.8 10h-16zM221.9 153c-6.2 0-10 2.9-12.2 4.9l-.8-3.9h-13.7v72.6l15.6-3.3v-17.6c2.2 1.7 5.6 4 11.1 4 11.3 0 21.3-9 21.3-28.7-.3-18.1-10.6-28-21.3-28zm-3.9 43c-3.7 0-5.9-1.4-7.4-2.9V170c1.7-1.8 3.9-3 7.4-3 5.6 0 9.6 6.3 9.6 14.5S223.7 196 218 196zm-44.3-46.7 15.6-3.4v-12.6l-15.6 3.3v12.7zm0 4.8h15.6v54.4h-15.6v-54.4zm-16.9 4.5-.9-4.6h-13.6v54.4h15.6v-36.9c3.7-4.8 9.9-4 11.9-3.3v-14.4c-2-.5-9.2-1.9-13 4.8zm-31.1-18.1-15.2 3.1v49.9c0 9.1 7 16 16.1 16 5.1 0 8.9-.9 11-2V195c-2 .8-11.9 3.7-11.9-5.6v-22.1h11.8V154h-11.9c.1.1.1-13.5.1-13.5zm-42.2 29.4c0-2.5 2-3.4 5.4-3.4 4.8 0 10.7 1.4 15.5 4v-14.7c-5.2-2-10.2-2.9-15.5-2.9-12.6 0-21 6.6-21 17.6 0 17.3 23.6 14.5 23.6 21.9 0 2.9-2.5 3.9-6 3.9-5.2 0-11.7-2-17-4.9v14.8c5.7 2.5 11.6 3.6 17 3.6 13 0 21.9-6.5 21.9-17.5-.1-18.7-23.9-15.5-23.9-22.4z" style="fill-rule:evenodd;clip-rule:evenodd;fill:#f2edd5"/></svg>