<svg xmlns="http://www.w3.org/2000/svg" viewBox="0 0 260 260"><path d="M271.5 251.7c0 1.8-.9 7.6-8.1 8.3l-259 30c-6.7-.2-8.3-5.8-8.3-8.3L-2.8-3.7c0-1.7 1.4-8.3 8.3-8.3l257.6 8c4.2 0 8.6 2.9 8.3 9.5l.1 246.2z" fill="#e43427"/><path d="M209.5 102c-9.3 1.2-17.7 3.1-23.5 4.7v.1c3.8 14.1-12.1 30.8-35.6 37.2-23.5 6.4-45.6.1-49.5-14-3.8-14.1 12.1-30.8 35.6-37.2 21.3-5.8 41.3-1.6 47.8 9.8 5.4-1.4 13.3-3.3 22.2-4.6-15-17.4-49.5-23.6-85.8-13.8-43.9 11.9-73.7 43-66.5 69.4 7.2 26.4 48.6 38.1 92.5 26.2 43.9-11.9 73.6-43 66.5-69.4-.8-3-2-5.8-3.7-8.4z" fill="#fff"/></svg>