<svg xmlns="http://www.w3.org/2000/svg" width="450" height="450"><path d="M0 0h450v450H0V0"/><path fill="#FFF" d="M183.1 134.6H228c.1 28.5-.1 56.9.1 85.3-15.1-11.7-30-23.8-45-35.8.3-16.5.1-33 .1-49.5zm.1 128.1L227 298c1.3 1 1 2.7 1 4 0 4.4.4 8.9-.4 13.3h-44.3c-.8-12.8-.1-25.6-.4-38.3.1-4.8-.2-9.6.3-14.3z"/><path fill="#FFF" d="M64.9 158c.2-7.8-.6-15.7.5-23.5 13.5.2 27.1 0 40.7 0 1.2 0 2.3.4 3.3 1.2l119 95.2c.2 19.1 0 38.3.1 57.5-39.1-30.7-77.7-62-116.8-92.8l-2-.4.1 119.8c-15 0-29.9.3-44.8-.1-.3-52.3 0-104.6-.1-156.9z"/><path fill="#E42024" d="M381.4 200.2a92 92 0 0 0-34-48.6 85.2 85.2 0 0 0-54.2-17.2c-.2 14.8 0 29.6 0 44.4a47.3 47.3 0 0 1 42.5 30.3c3.4 10 3.8 21.2.9 31.4a43.8 43.8 0 0 1-25.5 25.7 47.4 47.4 0 0 1-33.9.7c-11.6-4.4-20.6-13.4-30.2-21-3.1-2.5-6.4-5-9.5-7.7l-1.7.3V287c0 2.9-.4 5.9.7 8.6 0 0 41.9 71.5 60.1 71.5 19.1 0 71.6-90 71.6-90a91.8 91.8 0 0 0 15.7-45.3 83 83 0 0 0-2.5-31.6z"/><circle cx="292" cy="224.8" r="22.7" fill="#E42024" stroke="#000" stroke-miterlimit="10"/><path fill="#2D2F3A" d="M310 310h110v110H310z"/><path fill="#FFF" d="M388 324.1c2.8-3 7-4.7 11.1-4 4.8.8 8.5 4.3 11.5 8l-12.4 12.3c.7.6 1.4 1.2 2.3 1.5a5 5 0 0 0 4.2-.7c2.4-1.7 4-4 5.7-6.4l5 3.2c-1.7 4-4.7 7.2-8.2 9.7a13 13 0 0 1-12.6 1.1c-4.2-1.9-7.6-5.3-9.7-9.4-1.5 1.5-2.7 3.6-2.4 5.8.2 2.1 1.6 3.8 3.1 5.2l9 9c-2.2 2.3-4.6 4.5-6.8 6.9l-7.7-7.8-12.4 12.4c1.4 1.5 3.7 2.3 5.6 1.3 3-1.5 4.8-4.3 6.6-7 1.7 1 3.3 2.2 5 3.3a23.1 23.1 0 0 1-9.2 10.3 12.6 12.6 0 0 1-9.3 1.3c-2-.5-3.7-1.5-5.4-2.5l7 7c.3.3.8.8.3 1.2l-5.9 5.7h-.4c-3.7-3.6-7.3-7.6-11.3-11-1.3-1-3-2.2-4.8-1.7-1.7.8-3 2.8-2.5 4.7a12 12 0 0 0 3.2 4.9l9.1 9.1h-12.8a53.5 53.5 0 0 0-.3.3l.2-.3-18.8-18.7-5.2-5.3c2.2-2 4.2-4.3 6.4-6.3.7.2 1 .8 1.5 1.3 3.6 3.5 7 7.1 10.7 10.6a10.6 10.6 0 0 1 11.2-10.5 12 12 0 0 1 7.2 3.8c-1-1.8-2-3.6-2.4-5.6-1-4 .5-8.3 3.2-11.3 2.6-2.8 6.2-5.1 10.1-5 2.9-.1 5.6 1 7.9 2.6-2.3-2.5-4.7-4.8-7.1-7.2l5.9-5.9 4.2 3.4a9.6 9.6 0 0 1-1-5.3 8.5 8.5 0 0 1 3.5-5.6c1.4 1.4 2.5 3 3.9 4.2-1.3-4.5.6-9.5 4-12.6m3.5 8.5c.5 1.1 1 2.4 2.3 3l5.5-5.7c-1.1-1.3-2.9-2.6-4.7-2.3-2.1.5-3.9 2.8-3 5M361 363.1c.6 1.1 1 2.4 2.2 3l5.7-5.7c-1.3-1.3-2.9-2.6-4.8-2.3-2.1.5-3.9 2.8-3 5z"/><path fill="#49DAD0" d="M315.4 397.8h27.2l-.5.6-4.4 4.4-8.6 8.6c-2-1.7-3.7-3.6-5.5-5.4l-8.2-8.2z"/></svg>