<svg xmlns="http://www.w3.org/2000/svg" viewBox="0 0 500 416.66"><defs><style>.cls-1{fill:#333a46}.cls-2{fill:#fff}.cls-3{fill:#7abfbc}</style></defs><g id="Ebene_2" data-name="Ebene 2"><g id="contao-themes.net"><path class="cls-1" d="M405.52 364.46H0L94.48 0H500l-94.48 364.46zM19.13 386a12 12 0 013.87 2.51l-2.25 3.3a11.41 11.41 0 00-2.8-1.68 8.09 8.09 0 00-3-.54 5.73 5.73 0 00-5.11 2.91Q8 395.41 8 401.1t1.8 8.41a5.78 5.78 0 005.13 2.71 7.7 7.7 0 002.92-.54 14.42 14.42 0 003-1.74l2.15 3.42a12.08 12.08 0 01-8.26 3.3 10.28 10.28 0 01-8.64-4.1q-3.15-4.11-3.16-11.34a22.42 22.42 0 011.44-8.38 12.78 12.78 0 014.08-5.59 10.11 10.11 0 016.28-2 12 12 0 014.39.75zM45.32 389.48q3.16 4.22 3.16 11.45a21.85 21.85 0 01-1.48 8.24 12.28 12.28 0 01-4.15 5.53 10.76 10.76 0 01-6.47 2 10.48 10.48 0 01-8.87-4.21q-3.18-4.21-3.18-11.46a22.09 22.09 0 011.43-8.24 12.33 12.33 0 014.24-5.56 10.74 10.74 0 016.51-2 10.39 10.39 0 018.81 4.25zM29.45 401q0 11.46 7 11.46t7-11.52q0-11.44-6.93-11.45T29.45 401zM72.2 387.71a10 10 0 012.08 6.73V416h-4.72v-20.8c0-2.13-.36-3.63-1.07-4.51a3.9 3.9 0 00-3.19-1.31 5.76 5.76 0 00-3.79 1.37 13.79 13.79 0 00-3.08 3.93V416h-4.72v-30h4l.41 4.45a11.22 11.22 0 013.57-3.76 8.43 8.43 0 014.69-1.37 7.15 7.15 0 015.82 2.39zM94.85 414.61a9.64 9.64 0 01-6 2.05 6.76 6.76 0 01-5.36-2.19q-1.92-2.19-1.92-6.35V390H76.8v-4.05h4.72v-6.78l4.71-.63v7.41h6.42l-.52 4.05h-5.9v17.9a6 6 0 00.75 3.39 2.82 2.82 0 002.49 1.05 6.35 6.35 0 003.59-1.34zM115.94 411.68a3.48 3.48 0 001.69 1.34l-1.08 3.64a6.68 6.68 0 01-3.38-1.31 6 6 0 01-1.9-3.19 8.83 8.83 0 01-8.06 4.5 8.13 8.13 0 01-6.3-2.5 9.3 9.3 0 01-2.31-6.56 9 9 0 013.1-7.35q3.1-2.56 8.8-2.57h4.15v-2.22q0-3.19-1.38-4.56a5.85 5.85 0 00-4.26-1.37 21.83 21.83 0 00-7.28 1.6l-1.18-3.82a24.77 24.77 0 019.33-2.05q4.77 0 7.13 2.59c1.58 1.73 2.36 4.19 2.36 7.38V409a5.09 5.09 0 00.57 2.68zm-5.29-3.62v-6.9h-3.54q-7.48 0-7.49 6.16a6.07 6.07 0 001.18 4 4.34 4.34 0 003.49 1.37q4.05.04 6.36-4.63zM141.51 389.48q3.15 4.22 3.15 11.45a21.85 21.85 0 01-1.43 8.24 12.23 12.23 0 01-4.16 5.53 10.73 10.73 0 01-6.46 2 10.48 10.48 0 01-8.88-4.21q-3.18-4.21-3.18-11.46a21.88 21.88 0 011.44-8.24 12.25 12.25 0 014.16-5.52 10.74 10.74 0 016.51-2 10.39 10.39 0 018.85 4.21zM125.63 401q0 11.46 7 11.46t7-11.52q0-11.44-6.93-11.45T125.63 401zM148.1 395.92h14.52v4.44H148.1zM181.65 414.61a9.64 9.64 0 01-6.05 2.05 6.76 6.76 0 01-5.36-2.19c-1.28-1.46-1.93-3.58-1.93-6.35V390h-4.72v-4.05h4.72v-6.78l4.72-.63v7.41h6.42l-.52 4.05H173v17.9a6 6 0 00.75 3.39 2.82 2.82 0 002.49 1.05 6.38 6.38 0 003.59-1.31zM202.45 387.71a10 10 0 012.08 6.73V416h-4.72v-20.8c0-2.13-.37-3.63-1.1-4.51a4 4 0 00-3.21-1.31 5.68 5.68 0 00-3.74 1.37 13.93 13.93 0 00-3.08 3.88V416H184v-42.09l4.72-.57v16.76q3.18-4.85 8-4.84a7.16 7.16 0 015.73 2.45zM231.77 402.76h-17.24q.32 5 2.26 7.29a6.25 6.25 0 005 2.34 10 10 0 003.59-.63 14 14 0 003.44-2l2.05 3.13a14 14 0 01-9.44 3.76 10.47 10.47 0 01-8.8-4.1q-3.15-4.11-3.15-11.28a23.45 23.45 0 011.36-8.3 12.85 12.85 0 013.9-5.67 9.19 9.19 0 016-2.05 9.6 9.6 0 018.26 3.93q2.88 3.93 2.87 10.89c0 .93-.03 1.77-.1 2.69zm-4.56-4.22a12.11 12.11 0 00-1.59-6.78 5.41 5.41 0 00-4.78-2.34q-5.79 0-6.31 9.46h12.68zM269.58 387.74a10.37 10.37 0 012 6.7V416h-4.72v-20.8q0-5.82-3.8-5.82a4.77 4.77 0 00-3.38 1.29 17.35 17.35 0 00-3 4V416H252v-20.8q0-5.82-3.79-5.82a4.82 4.82 0 00-3.44 1.31 17.91 17.91 0 00-2.92 4V416h-4.72v-30h4l.41 4.39q3-5.07 7.8-5.07a6.61 6.61 0 014.28 1.42 7.83 7.83 0 012.54 4 13.62 13.62 0 013.51-4 7.49 7.49 0 014.54-1.4 6.48 6.48 0 015.37 2.4zM298.82 402.76h-17.24q.32 5 2.26 7.29a6.25 6.25 0 005 2.34 10 10 0 003.59-.63 14 14 0 003.44-2l2.13 3.14a14.06 14.06 0 01-9.44 3.76 10.46 10.46 0 01-8.8-4.1q-3.15-4.11-3.15-11.28a23.45 23.45 0 011.36-8.3 12.92 12.92 0 013.89-5.67 9.23 9.23 0 016-2.05 9.62 9.62 0 018.26 3.93q2.86 3.93 2.87 10.89c-.07.92-.1 1.76-.17 2.68zm-4.57-4.22c0-3-.53-5.22-1.59-6.78a5.38 5.38 0 00-4.77-2.34q-5.79 0-6.31 9.46h12.67zM316.47 386.11a14.54 14.54 0 014.2 2.57l-2 3.3a15.5 15.5 0 00-3.51-1.93 9.85 9.85 0 00-3.52-.63 5.75 5.75 0 00-3.64 1.05 3.83 3.83 0 00-.08 5.73 13.86 13.86 0 004.54 2 15.45 15.45 0 016.75 3.42 7.86 7.86 0 012.23 5.93 8 8 0 01-3.1 6.78 12.2 12.2 0 01-7.57 2.33 14.08 14.08 0 01-10.21-3.93l2.52-3.19a11.47 11.47 0 007.59 2.91 6.65 6.65 0 004.23-1.23 4 4 0 001.57-3.33 4.72 4.72 0 00-.57-2.48 4.63 4.63 0 00-1.95-1.66 26 26 0 00-4.05-1.51 13.26 13.26 0 01-6.23-3.36 8.12 8.12 0 01-.67-9.6 8.34 8.34 0 013.49-3 11.59 11.59 0 015-1.05 13.69 13.69 0 014.98.88zM329.34 409.88a4 4 0 011 2.79 4.11 4.11 0 01-1 2.83 3.36 3.36 0 01-5.08 0 4.15 4.15 0 01-1-2.83 4 4 0 011-2.79 3.4 3.4 0 015.08 0zM353.79 387.71a10.09 10.09 0 012.07 6.73V416h-4.72v-20.8c0-2.13-.35-3.63-1.07-4.51a3.89 3.89 0 00-3.18-1.31 5.76 5.76 0 00-3.8 1.37 14 14 0 00-3.08 3.93V416h-4.72v-30h4.06l.41 4.45a11.1 11.1 0 013.56-3.76 8.43 8.43 0 014.69-1.37 7.18 7.18 0 015.78 2.39zM383.1 402.76h-17.23q.3 5 2.25 7.29a6.25 6.25 0 005 2.34 9.92 9.92 0 003.59-.63 13.77 13.77 0 003.44-2l2.05 3.13a14 14 0 01-9.44 3.76 10.47 10.47 0 01-8.8-4.1q-3.15-4.11-3.15-11.28a23.45 23.45 0 011.36-8.3 12.94 12.94 0 013.9-5.67 9.19 9.19 0 016-2.05 9.59 9.59 0 018.26 3.93q2.88 3.93 2.88 10.89c0 .93-.04 1.77-.11 2.69zm-4.56-4.22c0-3-.53-5.22-1.59-6.78a5.38 5.38 0 00-4.77-2.34q-5.81 0-6.31 9.46h12.67zM402.08 414.61a9.62 9.62 0 01-6.05 2.05 6.76 6.76 0 01-5.36-2.19q-1.92-2.19-1.92-6.35V390H384v-4.05h4.72v-6.78l4.72-.63v7.41h6.41l-.51 4.05h-5.9v17.9a6 6 0 00.74 3.39 2.85 2.85 0 002.49 1.05 6.35 6.35 0 003.59-1.31z"/><path class="cls-2" d="M135 95.71a4 4 0 10-2.83-1.17 4 4 0 002.83 1.17zM147.77 95.71A4 4 0 10145 88.9a4 4 0 000 5.64 4 4 0 002.82 1.17zM160.55 95.71a4 4 0 10-2.82-1.17 4 4 0 002.82 1.17zM177.59 95.71h161.86a4 4 0 000-8H177.59a4 4 0 000 8zM356.49 95.71H365a4 4 0 100-8h-8.51a4 4 0 100 8z"/><path class="cls-2" d="M365 70.69H135a21.06 21.06 0 00-21 21v181a21.07 21.07 0 0021 21h230a21.07 21.07 0 0021-21v-181a21.06 21.06 0 00-21-21zm-230 8h230a13.07 13.07 0 0113.05 13v13H122v-13a13.07 13.07 0 0113-13zm230 207.1H135a13.06 13.06 0 01-13-13.05v-160h256.1v160a13.06 13.06 0 01-13.1 13.05z"/><path class="cls-3" d="M132.01 121.34H368v18.89H132.01zM132.01 145.27H288v62.68H132.01z"/><path class="cls-2" d="M293.63 145.27h74.36v62.68h-74.36zM132.01 212.45H368v15.98H132.01z"/><path class="cls-3" d="M174.41 233.19h71.29v25.2h-71.29zM251.84 233.19h71.29v25.2h-71.29z"/><path class="cls-2" d="M174.41 258.39h71.29v20.02h-71.29zM251.84 258.39h71.29v20.02h-71.29z"/></g></g></svg>
