<svg xmlns="http://www.w3.org/2000/svg" viewBox="0 0 500 416.66"><defs><style>.cls-1{fill:#333a46;}.cls-2{fill:#fff;}.cls-3{fill:#7abfbc;}</style></defs><title>Element 2</title><g id="Ebene_2" data-name="Ebene 2"><g id="MATE"><polygon class="cls-1" points="405.52 364.46 0 364.46 94.48 0 500 0 405.52 364.46"/><path class="cls-1" d="M22.85,376.94a15.4,15.4,0,0,1,4.44,3l-2.67,3.48a10.08,10.08,0,0,0-6.82-2.91,8.32,8.32,0,0,0-7.1,3.76Q8,388,8,396.32q0,8.08,2.67,11.94a8.25,8.25,0,0,0,7.08,3.85,8.37,8.37,0,0,0,3.9-.86,21.91,21.91,0,0,0,3.59-2.45l2.46,3.48a12.44,12.44,0,0,1-4.18,3.13,13.37,13.37,0,0,1-5.92,1.25,13,13,0,0,1-7.67-2.36,15.3,15.3,0,0,1-5.24-6.95,29.35,29.35,0,0,1-1.87-11,28.11,28.11,0,0,1,1.95-11,15.68,15.68,0,0,1,5.28-6.93A12.68,12.68,0,0,1,17.49,376,13.85,13.85,0,0,1,22.85,376.94Z"/><path class="cls-1" d="M49.53,389.48q3.15,4.22,3.16,11.45a21.85,21.85,0,0,1-1.44,8.24,12.23,12.23,0,0,1-4.16,5.53,10.71,10.71,0,0,1-6.46,2,10.5,10.5,0,0,1-8.88-4.21q-3.18-4.21-3.18-11.46A21.88,21.88,0,0,1,30,392.75a12.25,12.25,0,0,1,4.16-5.52,10.74,10.74,0,0,1,6.51-2A10.39,10.39,0,0,1,49.53,389.48ZM33.65,401q0,11.46,7,11.46t7-11.52q0-11.44-6.93-11.45T33.65,401Z"/><path class="cls-1" d="M76.41,387.71a10,10,0,0,1,2.08,6.73V416H73.77v-20.8c0-2.13-.36-3.63-1.08-4.51a3.89,3.89,0,0,0-3.18-1.31,5.76,5.76,0,0,0-3.79,1.37,13.62,13.62,0,0,0-3.08,3.93V416H57.92v-30h4l.41,4.45A11.22,11.22,0,0,1,66,386.63a8.43,8.43,0,0,1,4.69-1.37A7.16,7.16,0,0,1,76.41,387.71Z"/><path class="cls-1" d="M99.06,414.61a9.66,9.66,0,0,1-6,2.05,6.76,6.76,0,0,1-5.36-2.19q-1.94-2.19-1.93-6.35V390H81v-4.05h4.72v-6.78l4.72-.63v7.41h6.41L96.34,390h-5.9v17.9a6,6,0,0,0,.75,3.39,2.82,2.82,0,0,0,2.48,1.05A6.33,6.33,0,0,0,97.26,411Z"/><path class="cls-1" d="M120.14,411.68a3.51,3.51,0,0,0,1.7,1.34l-1.08,3.64a6.76,6.76,0,0,1-3.39-1.31,6,6,0,0,1-1.89-3.19,8.84,8.84,0,0,1-8.06,4.5,8.15,8.15,0,0,1-6.31-2.5,9.3,9.3,0,0,1-2.31-6.56,9,9,0,0,1,3.11-7.35q3.11-2.56,8.8-2.57h4.15v-2.22q0-3.19-1.38-4.56a5.88,5.88,0,0,0-4.26-1.37,21.88,21.88,0,0,0-7.29,1.6l-1.18-3.82a24.82,24.82,0,0,1,9.34-2.05q4.77,0,7.13,2.59t2.36,7.38V409A5.19,5.19,0,0,0,120.14,411.68Zm-5.28-3.62v-6.9h-3.54q-7.48,0-7.49,6.16a6,6,0,0,0,1.18,4,4.34,4.34,0,0,0,3.49,1.37Q112.55,412.73,114.86,408.06Z"/><path class="cls-1" d="M145.72,389.48q3.15,4.22,3.15,11.45a22,22,0,0,1-1.43,8.24,12.3,12.3,0,0,1-4.16,5.53,10.73,10.73,0,0,1-6.46,2,10.48,10.48,0,0,1-8.88-4.21q-3.18-4.21-3.18-11.46a21.88,21.88,0,0,1,1.44-8.24,12.24,12.24,0,0,1,4.15-5.52,10.77,10.77,0,0,1,6.52-2A10.41,10.41,0,0,1,145.72,389.48ZM129.84,401q0,11.46,7,11.46t7-11.52q0-11.44-6.92-11.45T129.84,401Z"/><path class="cls-1" d="M152.31,395.92h14.52v4.44H152.31Z"/><path class="cls-1" d="M185.86,414.61a9.66,9.66,0,0,1-6.05,2.05,6.78,6.78,0,0,1-5.37-2.19q-1.92-2.19-1.92-6.35V390H167.8v-4.05h4.72v-6.78l4.72-.63v7.41h6.41l-.51,4.05h-5.9v17.9a6,6,0,0,0,.74,3.39,2.85,2.85,0,0,0,2.49,1.05,6.33,6.33,0,0,0,3.59-1.31Z"/><path class="cls-1" d="M206.66,387.71a10,10,0,0,1,2.08,6.73V416H204v-20.8c0-2.13-.37-3.63-1.1-4.51a4,4,0,0,0-3.21-1.31,5.73,5.73,0,0,0-3.75,1.37,13.91,13.91,0,0,0-3.07,3.88V416h-4.72V373.91l4.72-.57V390.1q3.18-4.85,8-4.84A7.16,7.16,0,0,1,206.66,387.71Z"/><path class="cls-1" d="M236,402.76H218.74q.31,5,2.26,7.29a6.24,6.24,0,0,0,5,2.34,10,10,0,0,0,3.59-.63,13.73,13.73,0,0,0,3.43-2l2.06,3.13a14.06,14.06,0,0,1-9.44,3.76,10.44,10.44,0,0,1-8.8-4.1q-3.15-4.11-3.16-11.28a23.68,23.68,0,0,1,1.36-8.3,13,13,0,0,1,3.9-5.67,9.23,9.23,0,0,1,6-2.05,9.62,9.62,0,0,1,8.26,3.93q2.86,3.93,2.87,10.89C236.08,401,236.05,401.84,236,402.76Zm-4.57-4.22c0-3-.53-5.22-1.59-6.78a5.38,5.38,0,0,0-4.77-2.34q-5.79,0-6.31,9.46h12.67Z"/><path class="cls-1" d="M273.79,387.74a10.37,10.37,0,0,1,2,6.7V416h-4.72v-20.8q0-5.82-3.8-5.82a4.81,4.81,0,0,0-3.39,1.29,17.65,17.65,0,0,0-3,4V416h-4.72v-20.8q0-5.82-3.8-5.82a4.81,4.81,0,0,0-3.43,1.31,17.9,17.9,0,0,0-2.93,4V416h-4.72v-30h4.06l.41,4.39q3-5.07,7.79-5.07a6.62,6.62,0,0,1,4.29,1.42,7.89,7.89,0,0,1,2.54,4,13.62,13.62,0,0,1,3.51-4,7.47,7.47,0,0,1,4.54-1.4A6.51,6.51,0,0,1,273.79,387.74Z"/><path class="cls-1" d="M303,402.76H285.79q.31,5,2.26,7.29a6.23,6.23,0,0,0,5,2.34,10,10,0,0,0,3.6-.63,13.73,13.73,0,0,0,3.43-2l2,3.13a14,14,0,0,1-9.44,3.76,10.44,10.44,0,0,1-8.79-4.1q-3.17-4.11-3.16-11.28a23.45,23.45,0,0,1,1.36-8.3,13,13,0,0,1,3.9-5.67,9.21,9.21,0,0,1,6-2.05,9.62,9.62,0,0,1,8.26,3.93q2.87,3.93,2.87,10.89C303.13,401,303.09,401.84,303,402.76Zm-4.57-4.22c0-3-.53-5.22-1.59-6.78a5.38,5.38,0,0,0-4.77-2.34q-5.81,0-6.31,9.46h12.67Z"/><path class="cls-1" d="M320.67,386.11a14.59,14.59,0,0,1,4.21,2.57l-2,3.3a15.5,15.5,0,0,0-3.51-1.93,9.93,9.93,0,0,0-3.52-.63,5.73,5.73,0,0,0-3.64,1.05,3.83,3.83,0,0,0-.08,5.73,13.76,13.76,0,0,0,4.54,2,15.45,15.45,0,0,1,6.75,3.42,7.86,7.86,0,0,1,2.23,5.93,8,8,0,0,1-3.1,6.78,12.2,12.2,0,0,1-7.57,2.33,14.08,14.08,0,0,1-10.21-3.93l2.51-3.19a11.5,11.5,0,0,0,7.6,2.91,6.69,6.69,0,0,0,4.23-1.23,4,4,0,0,0,1.56-3.33,4.82,4.82,0,0,0-.56-2.48,4.76,4.76,0,0,0-1.95-1.66,26.42,26.42,0,0,0-4.05-1.51,13.3,13.3,0,0,1-6.24-3.36,7.64,7.64,0,0,1-1.92-5.36,7.54,7.54,0,0,1,1.26-4.24,8.28,8.28,0,0,1,3.49-3,11.56,11.56,0,0,1,5-1.05A13.67,13.67,0,0,1,320.67,386.11Z"/><path class="cls-1" d="M333.55,409.88a4,4,0,0,1,1,2.79,4.16,4.16,0,0,1-1,2.83,3.26,3.26,0,0,1-2.57,1.16,3.2,3.2,0,0,1-2.51-1.16,4.16,4.16,0,0,1-1-2.83,4,4,0,0,1,1-2.79,3.24,3.24,0,0,1,2.51-1.14A3.31,3.31,0,0,1,333.55,409.88Z"/><path class="cls-1" d="M358,387.71a10,10,0,0,1,2.08,6.73V416h-4.72v-20.8c0-2.13-.36-3.63-1.08-4.51a3.87,3.87,0,0,0-3.18-1.31,5.76,5.76,0,0,0-3.79,1.37,13.79,13.79,0,0,0-3.08,3.93V416H339.5v-30h4.05l.41,4.45a11.22,11.22,0,0,1,3.57-3.76,8.43,8.43,0,0,1,4.69-1.37A7.16,7.16,0,0,1,358,387.71Z"/><path class="cls-1" d="M387.31,402.76H370.07q.31,5,2.26,7.29a6.25,6.25,0,0,0,5,2.34,10,10,0,0,0,3.59-.63,14,14,0,0,0,3.44-2l2.05,3.13a14,14,0,0,1-9.44,3.76,10.46,10.46,0,0,1-8.8-4.1q-3.15-4.11-3.15-11.28a23.45,23.45,0,0,1,1.36-8.3,12.92,12.92,0,0,1,3.89-5.67,9.23,9.23,0,0,1,6-2.05,9.6,9.6,0,0,1,8.26,3.93q2.88,3.93,2.87,10.89C387.41,401,387.38,401.84,387.31,402.76Zm-4.56-4.22c0-3-.54-5.22-1.6-6.78a5.38,5.38,0,0,0-4.77-2.34q-5.79,0-6.31,9.46h12.68Z"/><path class="cls-1" d="M406.29,414.61a9.64,9.64,0,0,1-6.05,2.05,6.76,6.76,0,0,1-5.36-2.19q-1.94-2.19-1.93-6.35V390h-4.72v-4.05H393v-6.78l4.72-.63v7.41h6.42l-.52,4.05h-5.9v17.9a6,6,0,0,0,.75,3.39,2.82,2.82,0,0,0,2.48,1.05,6.38,6.38,0,0,0,3.6-1.31Z"/><path class="cls-2" d="M135,95.71a4,4,0,1,0-2.83-1.17A4,4,0,0,0,135,95.71Z"/><path class="cls-2" d="M147.77,95.71A4,4,0,1,0,145,88.9a4,4,0,0,0,0,5.64,4,4,0,0,0,2.82,1.17Z"/><path class="cls-2" d="M160.55,95.71a4,4,0,1,0-2.82-1.17,4,4,0,0,0,2.82,1.17Z"/><path class="cls-2" d="M177.59,95.71H339.45a4,4,0,0,0,0-8H177.59a4,4,0,0,0,0,8Z"/><path class="cls-2" d="M356.49,95.71H365a4,4,0,1,0,0-8h-8.51a4,4,0,1,0,0,8Z"/><path class="cls-2" d="M365,70.69H135a21.06,21.06,0,0,0-21,21v181a21.07,21.07,0,0,0,21,21H365a21.07,21.07,0,0,0,21-21v-181a21.06,21.06,0,0,0-21-21Zm-230,8H365a13.07,13.07,0,0,1,13.05,13v13H122v-13a13.07,13.07,0,0,1,13-13ZM365,285.79H135a13.06,13.06,0,0,1-13-13.05v-160h256.1v160A13.06,13.06,0,0,1,365,285.79Z"/><rect class="cls-3" x="132.01" y="121.34" width="235.99" height="18.89"/><rect class="cls-3" x="132.01" y="145.27" width="155.99" height="62.68"/><rect class="cls-2" x="293.63" y="145.27" width="74.36" height="62.68"/><rect class="cls-2" x="132.01" y="212.45" width="235.99" height="15.98"/><rect class="cls-3" x="174.41" y="233.19" width="71.29" height="25.2"/><rect class="cls-3" x="251.84" y="233.19" width="71.29" height="25.2"/><rect class="cls-2" x="174.41" y="258.39" width="71.29" height="20.02"/><rect class="cls-2" x="251.84" y="258.39" width="71.29" height="20.02"/></g></g></svg>