<svg xmlns="http://www.w3.org/2000/svg" xml:space="preserve" id="Ebene_1" x="0" y="0" version="1.1" viewBox="0 0 734.06 221.79"><style>.st0{fill:#303c52}.st1{fill:#abaeb3}</style><path d="M252.14 51.48v8.2l-15.86 1.88c1.46 1.82 2.76 4.21 3.91 7.15 1.15 2.94 1.72 6.26 1.72 9.96 0 8.39-2.87 15.08-8.59 20.08-5.73 5-13.59 7.5-23.59 7.5-2.55 0-4.95-.21-7.19-.63-5.52 2.92-8.28 6.59-8.28 11.02 0 2.34.96 4.08 2.89 5.2 1.93 1.12 5.23 1.68 9.92 1.68h15.16c9.27 0 16.39 1.95 21.37 5.86 4.97 3.91 7.46 9.58 7.46 17.03 0 9.48-3.8 16.71-11.41 21.68-7.6 4.97-18.7 7.46-33.28 7.46-11.2 0-19.83-2.08-25.9-6.25s-9.1-10.05-9.1-17.66c0-5.21 1.67-9.71 5-13.52 3.33-3.8 8.02-6.38 14.06-7.73-2.19-.99-4.02-2.53-5.51-4.61-1.48-2.08-2.23-4.5-2.23-7.27 0-3.13.83-5.86 2.5-8.2 1.67-2.34 4.3-4.61 7.89-6.8-4.43-1.82-8.03-4.92-10.82-9.3-2.79-4.38-4.18-9.38-4.18-15 0-9.38 2.81-16.6 8.44-21.68s13.59-7.62 23.91-7.62c4.48 0 8.52.52 12.11 1.56h29.6zm-68.28 100c0 4.63 1.95 8.15 5.86 10.55 3.91 2.39 9.5 3.59 16.8 3.59 10.88 0 18.95-1.63 24.18-4.88 5.23-3.26 7.85-7.67 7.85-13.24 0-4.64-1.43-7.85-4.3-9.65-2.87-1.8-8.26-2.7-16.17-2.7h-15.55c-5.89 0-10.47 1.41-13.75 4.22s-4.92 6.85-4.92 12.11zm7.03-72.57c0 5.99 1.69 10.52 5.08 13.59 3.38 3.07 8.1 4.61 14.14 4.61 12.66 0 18.98-6.15 18.98-18.44 0-12.86-6.41-19.3-19.22-19.3-6.09 0-10.78 1.64-14.06 4.92s-4.92 8.16-4.92 14.62zm108.81 59.76c-12.66 0-22.64-3.85-29.96-11.56-7.32-7.71-10.98-18.41-10.98-32.11 0-13.8 3.4-24.77 10.2-32.89s15.92-12.19 27.38-12.19c10.73 0 19.22 3.53 25.47 10.59 6.25 7.06 9.38 16.37 9.38 27.93v8.2H272.2c.26 10.05 2.8 17.68 7.62 22.89 4.82 5.21 11.6 7.81 20.35 7.81 9.22 0 18.33-1.93 27.34-5.78v11.56c-4.58 1.98-8.92 3.4-13.01 4.26-4.08.86-9.02 1.29-14.8 1.29zm-3.51-77.89c-6.88 0-12.36 2.24-16.45 6.72-4.09 4.48-6.5 10.68-7.23 18.59h44.77c0-8.18-1.82-14.44-5.47-18.79-3.65-4.34-8.85-6.52-15.62-6.52zm81.55 67.19c2.29 0 4.5-.17 6.64-.51 2.13-.34 3.83-.69 5.08-1.05v9.92c-1.41.68-3.48 1.24-6.21 1.68-2.73.44-5.2.66-7.38.66-16.56 0-24.84-8.72-24.84-26.17V61.56h-12.27v-6.25l12.27-5.39 5.47-18.28h7.5v19.84h24.84v10.08H364v50.39c0 5.16 1.22 9.12 3.67 11.88 2.43 2.76 5.79 4.14 10.07 4.14zm27.21 9.14V22.89h13.28v102.19h50.39v12.03h-63.67zm133.96 0-2.58-12.19h-.63c-4.27 5.37-8.53 9-12.77 10.9-4.25 1.9-9.54 2.85-15.9 2.85-8.49 0-15.14-2.19-19.96-6.56-4.82-4.38-7.23-10.6-7.23-18.67 0-17.29 13.83-26.35 41.48-27.19l14.53-.47v-5.31c0-6.72-1.45-11.68-4.34-14.88s-7.51-4.8-13.87-4.8c-7.14 0-15.21 2.19-24.22 6.56l-3.98-9.92c4.22-2.29 8.84-4.09 13.87-5.39 5.03-1.3 10.06-1.95 15.12-1.95 10.21 0 17.77 2.27 22.7 6.8s7.38 11.8 7.38 21.8v58.44h-9.6zm-29.3-9.14c8.07 0 14.41-2.21 19.02-6.64 4.61-4.43 6.91-10.63 6.91-18.59V95l-12.97.55c-10.31.37-17.75 1.97-22.3 4.8-4.56 2.84-6.84 7.25-6.84 13.24 0 4.69 1.42 8.26 4.26 10.7 2.84 2.46 6.81 3.68 11.92 3.68zm131.43 9.14-15.7-50.23c-.99-3.07-2.84-10.05-5.55-20.94h-.63c-2.08 9.12-3.91 16.15-5.47 21.09l-16.17 50.08h-15l-23.36-85.63h13.59c5.52 21.51 9.73 37.89 12.62 49.14s4.54 18.83 4.96 22.73h.63c.57-2.97 1.5-6.81 2.77-11.52 1.28-4.71 2.38-8.45 3.32-11.21l15.7-49.14h14.06l15.31 49.14c2.92 8.96 4.89 16.48 5.94 22.58h.63c.21-1.88.77-4.77 1.68-8.67.91-3.91 6.34-24.92 16.29-63.05h13.44l-23.67 85.63h-15.39z" class="st0"/><path d="M274.09 199.72c0-1.25-.52-2.34-1.56-3.28s-2.8-1.96-5.28-3.08c-2.48-1.12-4.21-2.05-5.2-2.79-.98-.74-1.71-1.55-2.18-2.43s-.7-1.92-.7-3.12c0-2.24.81-4.09 2.42-5.55 1.61-1.46 3.7-2.19 6.26-2.19 2.76 0 4.96.78 6.61 2.34 1.65 1.56 2.47 3.62 2.47 6.18h-2.98c0-1.65-.56-3.01-1.69-4.09s-2.6-1.63-4.4-1.63c-1.75 0-3.15.45-4.18 1.34-1.03.9-1.54 2.06-1.54 3.49 0 1.16.39 2.11 1.18 2.85.79.73 2.49 1.73 5.1 2.98 2.7 1.18 4.57 2.16 5.59 2.93s1.79 1.63 2.31 2.56c.52.94.78 2.05.78 3.34 0 2.4-.83 4.31-2.5 5.72-1.67 1.41-3.86 2.12-6.58 2.12-2.88 0-5.21-.79-7-2.36-1.78-1.58-2.67-3.61-2.67-6.1h3.01c.09 1.8.69 3.19 1.81 4.18 1.12.99 2.73 1.48 4.85 1.48 1.83 0 3.29-.45 4.4-1.34 1.12-.88 1.67-2.07 1.67-3.55zm19.2 4.9c2.08 0 3.67-.58 4.78-1.74 1.11-1.16 1.71-2.83 1.8-5h2.87c-.14 2.97-1.09 5.3-2.85 7-1.75 1.69-3.96 2.54-6.61 2.54-3.46 0-6.06-1.11-7.83-3.32-1.76-2.21-2.66-5.49-2.7-9.84v-3.54c0-4.44.88-7.79 2.65-10.04 1.76-2.26 4.38-3.38 7.85-3.38 2.88 0 5.16.91 6.82 2.73 1.66 1.82 2.55 4.36 2.66 7.61h-2.87c-.09-2.4-.7-4.26-1.83-5.57-1.13-1.32-2.72-1.97-4.78-1.97-2.58 0-4.47.87-5.68 2.6-1.21 1.74-1.81 4.4-1.81 7.99v3.3c0 3.72.61 6.42 1.83 8.11 1.23 1.68 3.12 2.52 5.7 2.52zm18.74-22.23c.86-1.56 1.95-2.8 3.26-3.72 1.32-.92 2.82-1.38 4.52-1.38 5.07 0 7.66 3.38 7.79 10.12v19.47h-2.95v-19.15c-.02-2.6-.47-4.51-1.37-5.75-.9-1.24-2.3-1.85-4.22-1.85-1.56 0-2.96.59-4.2 1.76-1.24 1.17-2.19 2.78-2.83 4.82v20.17h-2.98v-41.25h2.98v16.76zm26.32-4.57.08 4.62c.86-1.58 1.96-2.83 3.29-3.76 1.33-.93 2.85-1.4 4.55-1.4 5.07 0 7.66 3.38 7.79 10.12v19.47h-2.95v-19.15c-.02-2.6-.47-4.51-1.37-5.75-.9-1.24-2.3-1.85-4.22-1.85-1.56 0-2.96.59-4.2 1.76-1.24 1.17-2.19 2.78-2.83 4.82v20.17h-2.98v-29.06h2.84zm33.22 29.6c-3.42 0-6.1-1.12-8.03-3.36-1.93-2.24-2.92-5.42-2.95-9.56v-3.54c0-4.26.93-7.6 2.79-10.03 1.86-2.43 4.42-3.64 7.68-3.64 3.15 0 5.55 1.03 7.21 3.09 1.66 2.06 2.5 5.21 2.54 9.45v2.79h-17.27v1.64c0 3.33.71 5.9 2.13 7.71 1.42 1.81 3.43 2.71 6.03 2.71 2.86 0 5.18-1.05 6.96-3.14l1.56 1.99c-1.9 2.59-4.78 3.89-8.65 3.89zm-.51-27.34c-2.35 0-4.15.83-5.41 2.48-1.26 1.66-1.96 4.08-2.08 7.26h14.26v-.78c-.15-5.97-2.4-8.96-6.77-8.96zm19.42 26.8h-3.01v-41.25h3.01v41.25zm11.57 0h-3.01v-41.25h3.01v41.25zm8.16-1.96c0-.64.2-1.19.6-1.62.4-.44.96-.66 1.68-.66s1.28.22 1.69.66.62.98.62 1.62c0 .63-.21 1.15-.62 1.56-.41.41-.98.62-1.69.62-.72 0-1.28-.21-1.68-.62-.4-.41-.6-.93-.6-1.56zm22.8 2.5c-3.42 0-6.1-1.12-8.03-3.36-1.93-2.24-2.92-5.42-2.95-9.56v-3.54c0-4.26.93-7.6 2.79-10.03 1.86-2.43 4.42-3.64 7.68-3.64 3.15 0 5.55 1.03 7.21 3.09 1.66 2.06 2.5 5.21 2.54 9.45v2.79h-17.27v1.64c0 3.33.71 5.9 2.13 7.71 1.42 1.81 3.43 2.71 6.03 2.71 2.86 0 5.18-1.05 6.96-3.14l1.56 1.99c-1.9 2.59-4.78 3.89-8.65 3.89zm-.51-27.34c-2.35 0-4.15.83-5.41 2.48-1.26 1.66-1.96 4.08-2.08 7.26h14.26v-.78c-.14-5.97-2.4-8.96-6.77-8.96zm15.98-10.64c0-.61.17-1.13.51-1.56s.82-.64 1.45-.64 1.11.21 1.46.64c.35.43.52.95.52 1.56s-.17 1.12-.52 1.54c-.35.42-.84.63-1.46.63s-1.11-.21-1.45-.63c-.34-.41-.51-.93-.51-1.54zm3.44 37.44h-3.01v-29.06h3.01v29.06zm11.09-29.06.08 4.62c.86-1.58 1.96-2.83 3.29-3.76 1.33-.93 2.85-1.4 4.55-1.4 5.07 0 7.66 3.38 7.79 10.12v19.47h-2.95v-19.15c-.02-2.6-.47-4.51-1.37-5.75-.9-1.24-2.3-1.85-4.22-1.85-1.56 0-2.96.59-4.2 1.76-1.24 1.17-2.19 2.78-2.83 4.82v20.17h-2.98v-29.06h2.84zm25.59 29.06v-26.37h-4v-2.69h4v-3.81c.04-2.88.7-5.09 2-6.63s3.09-2.31 5.38-2.31c1.04 0 2 .15 2.87.46l-.21 2.74c-.79-.2-1.59-.3-2.42-.3-1.45 0-2.58.54-3.4 1.63-.81 1.08-1.22 2.64-1.22 4.66v3.57h5.69v2.69h-5.69v26.37h-3zm29.91 0c-.27-.93-.45-2.27-.54-4.03-.9 1.45-2.05 2.57-3.45 3.37-1.41.8-2.93 1.2-4.58 1.2-2.51 0-4.46-.71-5.85-2.12-1.4-1.42-2.09-3.43-2.09-6.04 0-2.85.97-5.1 2.91-6.77s4.62-2.51 8.04-2.52h4.99v-4.06c0-2.08-.51-3.57-1.54-4.47s-2.54-1.36-4.52-1.36c-1.84 0-3.36.54-4.54 1.61-1.18 1.07-1.77 2.46-1.77 4.16l-2.98-.03c0-2.38.9-4.4 2.69-6.06s4.04-2.48 6.74-2.48c2.92 0 5.13.73 6.63 2.2s2.26 3.61 2.26 6.42v14.26c0 2.85.26 4.98.78 6.39v.32h-3.18zm-8.19-2.34c1.75 0 3.31-.46 4.66-1.37a8 8 0 0 0 2.97-3.65v-7.06h-4.73c-2.72.04-4.77.64-6.15 1.81-1.38 1.17-2.07 2.75-2.07 4.74.01 3.69 1.78 5.53 5.32 5.53zm27.9.08c2.08 0 3.67-.58 4.78-1.74 1.11-1.16 1.71-2.83 1.8-5h2.87c-.14 2.97-1.09 5.3-2.85 7-1.75 1.69-3.96 2.54-6.61 2.54-3.46 0-6.06-1.11-7.83-3.32-1.76-2.21-2.66-5.49-2.7-9.84v-3.54c0-4.44.88-7.79 2.64-10.04 1.76-2.26 4.38-3.38 7.86-3.38 2.88 0 5.16.91 6.82 2.73 1.67 1.82 2.55 4.36 2.66 7.61h-2.87c-.09-2.4-.7-4.26-1.83-5.57-1.13-1.32-2.72-1.97-4.78-1.97-2.58 0-4.47.87-5.68 2.6-1.21 1.74-1.81 4.4-1.81 7.99v3.3c0 3.72.61 6.42 1.83 8.11 1.23 1.68 3.13 2.52 5.7 2.52zm18.75-22.23c.86-1.56 1.95-2.8 3.26-3.72 1.32-.92 2.82-1.38 4.53-1.38 5.07 0 7.66 3.38 7.79 10.12v19.47h-2.95v-19.15c-.02-2.6-.47-4.51-1.37-5.75-.9-1.24-2.3-1.85-4.22-1.85-1.56 0-2.96.59-4.2 1.76-1.24 1.17-2.19 2.78-2.83 4.82v20.17H554v-41.25h2.98v16.76zm23.39 22.53c0-.64.2-1.19.6-1.62.4-.44.96-.66 1.68-.66s1.28.22 1.69.66.62.98.62 1.62c0 .63-.21 1.15-.62 1.56-.41.41-.98.62-1.69.62-.72 0-1.28-.21-1.68-.62-.4-.41-.6-.93-.6-1.56zm27.74-5.2c0-1.25-.52-2.34-1.56-3.28s-2.8-1.96-5.28-3.08c-2.48-1.12-4.21-2.05-5.2-2.79s-1.71-1.55-2.17-2.43c-.47-.88-.7-1.92-.7-3.12 0-2.24.81-4.09 2.42-5.55 1.61-1.46 3.7-2.19 6.26-2.19 2.76 0 4.96.78 6.61 2.34 1.65 1.56 2.47 3.62 2.47 6.18h-2.98c0-1.65-.56-3.01-1.69-4.09s-2.6-1.63-4.4-1.63c-1.75 0-3.15.45-4.18 1.34-1.03.9-1.54 2.06-1.54 3.49 0 1.16.39 2.11 1.18 2.85.79.73 2.49 1.73 5.1 2.98 2.7 1.18 4.57 2.16 5.59 2.93s1.79 1.63 2.31 2.56c.52.94.78 2.05.78 3.34 0 2.4-.83 4.31-2.5 5.72-1.67 1.41-3.86 2.12-6.58 2.12-2.88 0-5.21-.79-7-2.36s-2.67-3.61-2.67-6.1h3.01c.09 1.8.69 3.19 1.81 4.18 1.12.99 2.73 1.48 4.85 1.48 1.83 0 3.29-.45 4.4-1.34 1.1-.88 1.66-2.07 1.66-3.55zm9.91-30.28c0-.61.17-1.13.51-1.56s.82-.64 1.45-.64 1.11.21 1.46.64c.35.43.52.95.52 1.56s-.17 1.12-.52 1.54c-.35.42-.84.63-1.46.63s-1.11-.21-1.45-.63c-.34-.41-.51-.93-.51-1.54zm3.43 37.44h-3.01v-29.06h3.01v29.06zm17.43-2.26c2.08 0 3.67-.58 4.78-1.74 1.11-1.16 1.71-2.83 1.8-5h2.87c-.14 2.97-1.09 5.3-2.85 7-1.75 1.69-3.96 2.54-6.61 2.54-3.46 0-6.06-1.11-7.83-3.32-1.76-2.21-2.66-5.49-2.7-9.84v-3.54c0-4.44.88-7.79 2.64-10.04 1.76-2.26 4.38-3.38 7.86-3.38 2.88 0 5.16.91 6.82 2.73 1.67 1.82 2.55 4.36 2.66 7.61h-2.87c-.09-2.4-.7-4.26-1.83-5.57-1.13-1.32-2.72-1.97-4.78-1.97-2.58 0-4.47.87-5.68 2.6-1.21 1.74-1.81 4.4-1.81 7.99v3.3c0 3.72.61 6.42 1.83 8.11 1.23 1.68 3.12 2.52 5.7 2.52zm18.75-22.23c.86-1.56 1.95-2.8 3.26-3.72 1.32-.92 2.82-1.38 4.53-1.38 5.07 0 7.66 3.38 7.79 10.12v19.47h-2.95v-19.15c-.02-2.6-.47-4.51-1.37-5.75-.9-1.24-2.3-1.85-4.22-1.85-1.56 0-2.96.59-4.2 1.76-1.24 1.17-2.19 2.78-2.83 4.82v20.17h-2.98v-41.25h2.98v16.76zm33.05 25.03c-3.42 0-6.1-1.12-8.03-3.36-1.93-2.24-2.92-5.42-2.95-9.56v-3.54c0-4.26.93-7.6 2.79-10.03 1.86-2.43 4.42-3.64 7.68-3.64 3.15 0 5.55 1.03 7.21 3.09 1.66 2.06 2.5 5.21 2.54 9.45v2.79h-17.27v1.64c0 3.33.71 5.9 2.13 7.71 1.42 1.81 3.43 2.71 6.03 2.71 2.86 0 5.18-1.05 6.96-3.14l1.56 1.99c-1.9 2.59-4.78 3.89-8.65 3.89zm-.51-27.34c-2.35 0-4.15.83-5.41 2.48-1.26 1.66-1.96 4.08-2.08 7.26h14.26v-.78c-.14-5.97-2.4-8.96-6.77-8.96zm27.48.54c-.72-.13-1.34-.19-1.88-.19-1.65 0-3.03.56-4.15 1.69-1.12 1.13-1.91 2.69-2.38 4.7v20.06h-2.98v-29.06h2.93l.05 4.35c1.41-3.26 3.63-4.89 6.66-4.89.79 0 1.39.12 1.8.35l-.05 2.99zM151.65 99.31c0 41.88-33.95 75.83-75.83 75.83S0 141.19 0 99.31c0-41.88 33.95-75.83 75.83-75.83s75.82 33.96 75.82 75.83zm-9.78 0c0-36.67-29.76-66.04-66.04-66.04-36.67 0-66.04 29.76-66.04 66.04 0 36.67 29.76 66.04 66.04 66.04 36.67.01 66.04-29.75 66.04-66.04z" class="st1"/><path d="M63.95 136.03a3.667 3.667 0 0 1-5.19-.02L32.5 109.54a3.667 3.667 0 0 1 .02-5.19l2.6-2.58a3.667 3.667 0 0 1 5.19.02l21.09 21.26 49.97-49.57a3.667 3.667 0 0 1 5.19.02l2.58 2.61a3.667 3.667 0 0 1-.02 5.19l-55.17 54.73z" class="st0"/><path d="M733.36 44.55c0 12.04-9.76 21.8-21.8 21.8s-21.8-9.76-21.8-21.8 9.76-21.8 21.8-21.8 21.8 9.76 21.8 21.8zm-21.8-18.98c-10.54 0-18.98 8.56-18.98 18.98 0 10.54 8.55 18.98 18.98 18.98 10.54 0 18.98-8.56 18.98-18.98.01-10.54-8.55-18.98-18.98-18.98zm8.16 30.94h-1.71c-.35 0-.76-.25-.93-.56l-4.75-8.84h-4.49v8.34c0 .58-.47 1.05-1.05 1.05h-1.49c-.58 0-1.05-.47-1.05-1.05v-21.6c0-.58.47-1.05 1.05-1.05h6.25c5.02 0 8.25 1.96 8.25 7.05 0 2.94-1.49 5.35-3.88 6.4.17.27-.26-.5 4.72 8.71.39.69-.12 1.55-.92 1.55zm-3.57-16.6c0-3.64-2.68-3.74-4.5-3.74h-3.8v7.57h4.59c2.32 0 3.71-1.43 3.71-3.83z" class="st1"/></svg>