<?xml version="1.0" encoding="utf-8"?>
<!-- Generator: Adobe Illustrator 24.1.1, SVG Export Plug-In . SVG Version: 6.00 Build 0)  -->
<svg version="1.1" id="Ebene_1" xmlns="http://www.w3.org/2000/svg" xmlns:xlink="http://www.w3.org/1999/xlink" x="0px" y="0px"
	 viewBox="0 0 734.06 221.79" style="enable-background:new 0 0 734.06 221.79;" xml:space="preserve">
<style type="text/css">
	.st0{fill:#303C52;}
	.st1{fill:#ABAEB3;}
</style>
<g>
	<path class="st0" d="M252.14,51.48v8.2l-15.86,1.88c1.46,1.82,2.76,4.21,3.91,7.15c1.15,2.94,1.72,6.26,1.72,9.96
		c0,8.39-2.87,15.08-8.59,20.08c-5.73,5-13.59,7.5-23.59,7.5c-2.55,0-4.95-0.21-7.19-0.63c-5.52,2.92-8.28,6.59-8.28,11.02
		c0,2.34,0.96,4.08,2.89,5.2c1.93,1.12,5.23,1.68,9.92,1.68h15.16c9.27,0,16.39,1.95,21.37,5.86c4.97,3.91,7.46,9.58,7.46,17.03
		c0,9.48-3.8,16.71-11.41,21.68c-7.6,4.97-18.7,7.46-33.28,7.46c-11.2,0-19.83-2.08-25.9-6.25c-6.07-4.17-9.1-10.05-9.1-17.66
		c0-5.21,1.67-9.71,5-13.52c3.33-3.8,8.02-6.38,14.06-7.73c-2.19-0.99-4.02-2.53-5.51-4.61c-1.48-2.08-2.23-4.5-2.23-7.27
		c0-3.13,0.83-5.86,2.5-8.2c1.67-2.34,4.3-4.61,7.89-6.8c-4.43-1.82-8.03-4.92-10.82-9.3c-2.79-4.38-4.18-9.38-4.18-15
		c0-9.38,2.81-16.6,8.44-21.68s13.59-7.62,23.91-7.62c4.48,0,8.52,0.52,12.11,1.56H252.14z M183.86,151.48
		c0,4.63,1.95,8.15,5.86,10.55c3.91,2.39,9.5,3.59,16.8,3.59c10.88,0,18.95-1.63,24.18-4.88c5.23-3.26,7.85-7.67,7.85-13.24
		c0-4.64-1.43-7.85-4.3-9.65c-2.87-1.8-8.26-2.7-16.17-2.7h-15.55c-5.89,0-10.47,1.41-13.75,4.22S183.86,146.22,183.86,151.48z
		 M190.89,78.91c0,5.99,1.69,10.52,5.08,13.59c3.38,3.07,8.1,4.61,14.14,4.61c12.66,0,18.98-6.15,18.98-18.44
		c0-12.86-6.41-19.3-19.22-19.3c-6.09,0-10.78,1.64-14.06,4.92S190.89,72.45,190.89,78.91z"/>
	<path class="st0" d="M299.7,138.67c-12.66,0-22.64-3.85-29.96-11.56c-7.32-7.71-10.98-18.41-10.98-32.11
		c0-13.8,3.4-24.77,10.2-32.89s15.92-12.19,27.38-12.19c10.73,0,19.22,3.53,25.47,10.59c6.25,7.06,9.38,16.37,9.38,27.93v8.2H272.2
		c0.26,10.05,2.8,17.68,7.62,22.89c4.82,5.21,11.6,7.81,20.35,7.81c9.22,0,18.33-1.93,27.34-5.78v11.56
		c-4.58,1.98-8.92,3.4-13.01,4.26C310.42,138.24,305.48,138.67,299.7,138.67z M296.19,60.78c-6.88,0-12.36,2.24-16.45,6.72
		c-4.09,4.48-6.5,10.68-7.23,18.59h44.77c0-8.18-1.82-14.44-5.47-18.79C308.16,62.96,302.96,60.78,296.19,60.78z"/>
	<path class="st0" d="M377.74,127.97c2.29,0,4.5-0.17,6.64-0.51c2.13-0.34,3.83-0.69,5.08-1.05v9.92c-1.41,0.68-3.48,1.24-6.21,1.68
		c-2.73,0.44-5.2,0.66-7.38,0.66c-16.56,0-24.84-8.72-24.84-26.17V61.56h-12.27v-6.25l12.27-5.39l5.47-18.28h7.5v19.84h24.84v10.08
		h-24.84v50.39c0,5.16,1.22,9.12,3.67,11.88C370.1,126.59,373.46,127.97,377.74,127.97z"/>
	<path class="st0" d="M404.95,137.11V22.89h13.28v102.19h50.39v12.03H404.95z"/>
	<path class="st0" d="M538.91,137.11l-2.58-12.19h-0.63c-4.27,5.37-8.53,9-12.77,10.9c-4.25,1.9-9.54,2.85-15.9,2.85
		c-8.49,0-15.14-2.19-19.96-6.56c-4.82-4.38-7.23-10.6-7.23-18.67c0-17.29,13.83-26.35,41.48-27.19l14.53-0.47v-5.31
		c0-6.72-1.45-11.68-4.34-14.88s-7.51-4.8-13.87-4.8c-7.14,0-15.21,2.19-24.22,6.56l-3.98-9.92c4.22-2.29,8.84-4.09,13.87-5.39
		c5.03-1.3,10.06-1.95,15.12-1.95c10.21,0,17.77,2.27,22.7,6.8s7.38,11.8,7.38,21.8v58.44H538.91z M509.61,127.97
		c8.07,0,14.41-2.21,19.02-6.64c4.61-4.43,6.91-10.63,6.91-18.59V95l-12.97,0.55c-10.31,0.37-17.75,1.97-22.3,4.8
		c-4.56,2.84-6.84,7.25-6.84,13.24c0,4.69,1.42,8.26,4.26,10.7C500.53,126.75,504.5,127.97,509.61,127.97z"/>
	<path class="st0" d="M641.04,137.11l-15.7-50.23c-0.99-3.07-2.84-10.05-5.55-20.94h-0.63c-2.08,9.12-3.91,16.15-5.47,21.09
		l-16.17,50.08h-15l-23.36-85.63h13.59c5.52,21.51,9.73,37.89,12.62,49.14s4.54,18.83,4.96,22.73h0.63
		c0.57-2.97,1.5-6.81,2.77-11.52c1.28-4.71,2.38-8.45,3.32-11.21l15.7-49.14h14.06l15.31,49.14c2.92,8.96,4.89,16.48,5.94,22.58
		h0.63c0.21-1.88,0.77-4.77,1.68-8.67c0.91-3.91,6.34-24.92,16.29-63.05h13.44l-23.67,85.63H641.04z"/>
</g>
<g>
	<path class="st1" d="M274.09,199.72c0-1.25-0.52-2.34-1.56-3.28c-1.04-0.94-2.8-1.96-5.28-3.08c-2.48-1.12-4.21-2.05-5.2-2.79
		c-0.98-0.74-1.71-1.55-2.18-2.43s-0.7-1.92-0.7-3.12c0-2.24,0.81-4.09,2.42-5.55c1.61-1.46,3.7-2.19,6.26-2.19
		c2.76,0,4.96,0.78,6.61,2.34c1.65,1.56,2.47,3.62,2.47,6.18h-2.98c0-1.65-0.56-3.01-1.69-4.09s-2.6-1.63-4.4-1.63
		c-1.75,0-3.15,0.45-4.18,1.34c-1.03,0.9-1.54,2.06-1.54,3.49c0,1.16,0.39,2.11,1.18,2.85c0.79,0.73,2.49,1.73,5.1,2.98
		c2.7,1.18,4.57,2.16,5.59,2.93s1.79,1.63,2.31,2.56c0.52,0.94,0.78,2.05,0.78,3.34c0,2.4-0.83,4.31-2.5,5.72
		c-1.67,1.41-3.86,2.12-6.58,2.12c-2.88,0-5.21-0.79-7-2.36c-1.78-1.58-2.67-3.61-2.67-6.1h3.01c0.09,1.8,0.69,3.19,1.81,4.18
		c1.12,0.99,2.73,1.48,4.85,1.48c1.83,0,3.29-0.45,4.4-1.34C273.54,202.39,274.09,201.2,274.09,199.72z"/>
	<path class="st1" d="M293.29,204.62c2.08,0,3.67-0.58,4.78-1.74c1.11-1.16,1.71-2.83,1.8-5h2.87c-0.14,2.97-1.09,5.3-2.85,7
		c-1.75,1.69-3.96,2.54-6.61,2.54c-3.46,0-6.06-1.11-7.83-3.32c-1.76-2.21-2.66-5.49-2.7-9.84v-3.54c0-4.44,0.88-7.79,2.65-10.04
		c1.76-2.26,4.38-3.38,7.85-3.38c2.88,0,5.16,0.91,6.82,2.73c1.66,1.82,2.55,4.36,2.66,7.61h-2.87c-0.09-2.4-0.7-4.26-1.83-5.57
		c-1.13-1.32-2.72-1.97-4.78-1.97c-2.58,0-4.47,0.87-5.68,2.6c-1.21,1.74-1.81,4.4-1.81,7.99v3.3c0,3.72,0.61,6.42,1.83,8.11
		C288.82,203.78,290.71,204.62,293.29,204.62z"/>
	<path class="st1" d="M312.03,182.39c0.86-1.56,1.95-2.8,3.26-3.72c1.32-0.92,2.82-1.38,4.52-1.38c5.07,0,7.66,3.38,7.79,10.12
		v19.47h-2.95v-19.15c-0.02-2.6-0.47-4.51-1.37-5.75c-0.9-1.24-2.3-1.85-4.22-1.85c-1.56,0-2.96,0.59-4.2,1.76
		c-1.24,1.17-2.19,2.78-2.83,4.82v20.17h-2.98v-41.25h2.98V182.39z"/>
	<path class="st1" d="M338.35,177.82l0.08,4.62c0.86-1.58,1.96-2.83,3.29-3.76c1.33-0.93,2.85-1.4,4.55-1.4
		c5.07,0,7.66,3.38,7.79,10.12v19.47h-2.95v-19.15c-0.02-2.6-0.47-4.51-1.37-5.75c-0.9-1.24-2.3-1.85-4.22-1.85
		c-1.56,0-2.96,0.59-4.2,1.76c-1.24,1.17-2.19,2.78-2.83,4.82v20.17h-2.98v-29.06H338.35z"/>
	<path class="st1" d="M371.57,207.42c-3.42,0-6.1-1.12-8.03-3.36c-1.93-2.24-2.92-5.42-2.95-9.56v-3.54c0-4.26,0.93-7.6,2.79-10.03
		c1.86-2.43,4.42-3.64,7.68-3.64c3.15,0,5.55,1.03,7.21,3.09c1.66,2.06,2.5,5.21,2.54,9.45v2.79h-17.27v1.64
		c0,3.33,0.71,5.9,2.13,7.71c1.42,1.81,3.43,2.71,6.03,2.71c2.86,0,5.18-1.05,6.96-3.14l1.56,1.99
		C378.32,206.12,375.44,207.42,371.57,207.42z M371.06,180.08c-2.35,0-4.15,0.83-5.41,2.48c-1.26,1.66-1.96,4.08-2.08,7.26h14.26
		v-0.78C377.68,183.07,375.43,180.08,371.06,180.08z"/>
	<path class="st1" d="M390.48,206.88h-3.01v-41.25h3.01V206.88z"/>
	<path class="st1" d="M402.05,206.88h-3.01v-41.25h3.01V206.88z"/>
	<path class="st1" d="M410.21,204.92c0-0.64,0.2-1.19,0.6-1.62c0.4-0.44,0.96-0.66,1.68-0.66c0.72,0,1.28,0.22,1.69,0.66
		s0.62,0.98,0.62,1.62c0,0.63-0.21,1.15-0.62,1.56c-0.41,0.41-0.98,0.62-1.69,0.62c-0.72,0-1.28-0.21-1.68-0.62
		C410.41,206.07,410.21,205.55,410.21,204.92z"/>
	<path class="st1" d="M433.01,207.42c-3.42,0-6.1-1.12-8.03-3.36c-1.93-2.24-2.92-5.42-2.95-9.56v-3.54c0-4.26,0.93-7.6,2.79-10.03
		c1.86-2.43,4.42-3.64,7.68-3.64c3.15,0,5.55,1.03,7.21,3.09c1.66,2.06,2.5,5.21,2.54,9.45v2.79h-17.27v1.64
		c0,3.33,0.71,5.9,2.13,7.71c1.42,1.81,3.43,2.71,6.03,2.71c2.86,0,5.18-1.05,6.96-3.14l1.56,1.99
		C439.76,206.12,436.88,207.42,433.01,207.42z M432.5,180.08c-2.35,0-4.15,0.83-5.41,2.48c-1.26,1.66-1.96,4.08-2.08,7.26h14.26
		v-0.78C439.13,183.07,436.87,180.08,432.5,180.08z"/>
	<path class="st1" d="M448.48,169.44c0-0.61,0.17-1.13,0.51-1.56s0.82-0.64,1.45-0.64s1.11,0.21,1.46,0.64
		c0.35,0.43,0.52,0.95,0.52,1.56s-0.17,1.12-0.52,1.54c-0.35,0.42-0.84,0.63-1.46,0.63s-1.11-0.21-1.45-0.63
		C448.65,170.57,448.48,170.05,448.48,169.44z M451.92,206.88h-3.01v-29.06h3.01V206.88z"/>
	<path class="st1" d="M463.01,177.82l0.08,4.62c0.86-1.58,1.96-2.83,3.29-3.76c1.33-0.93,2.85-1.4,4.55-1.4
		c5.07,0,7.66,3.38,7.79,10.12v19.47h-2.95v-19.15c-0.02-2.6-0.47-4.51-1.37-5.75c-0.9-1.24-2.3-1.85-4.22-1.85
		c-1.56,0-2.96,0.59-4.2,1.76c-1.24,1.17-2.19,2.78-2.83,4.82v20.17h-2.98v-29.06H463.01z"/>
	<path class="st1" d="M488.6,206.88v-26.37h-4v-2.69h4v-3.81c0.04-2.88,0.7-5.09,2-6.63c1.3-1.54,3.09-2.31,5.38-2.31
		c1.04,0,2,0.15,2.87,0.46l-0.21,2.74c-0.79-0.2-1.59-0.3-2.42-0.3c-1.45,0-2.58,0.54-3.4,1.63c-0.81,1.08-1.22,2.64-1.22,4.66v3.57
		h5.69v2.69h-5.69v26.37H488.6z"/>
	<path class="st1" d="M518.51,206.88c-0.27-0.93-0.45-2.27-0.54-4.03c-0.9,1.45-2.05,2.57-3.45,3.37c-1.41,0.8-2.93,1.2-4.58,1.2
		c-2.51,0-4.46-0.71-5.85-2.12c-1.4-1.42-2.09-3.43-2.09-6.04c0-2.85,0.97-5.1,2.91-6.77s4.62-2.51,8.04-2.52h4.99v-4.06
		c0-2.08-0.51-3.57-1.54-4.47s-2.54-1.36-4.52-1.36c-1.84,0-3.36,0.54-4.54,1.61c-1.18,1.07-1.77,2.46-1.77,4.16l-2.98-0.03
		c0-2.38,0.9-4.4,2.69-6.06s4.04-2.48,6.74-2.48c2.92,0,5.13,0.73,6.63,2.2s2.26,3.61,2.26,6.42v14.26c0,2.85,0.26,4.98,0.78,6.39
		v0.32H518.51z M510.32,204.54c1.75,0,3.31-0.46,4.66-1.37c1.35-0.91,2.34-2.13,2.97-3.65v-7.06h-4.73
		c-2.72,0.04-4.77,0.64-6.15,1.81c-1.38,1.17-2.07,2.75-2.07,4.74C505.01,202.7,506.78,204.54,510.32,204.54z"/>
	<path class="st1" d="M538.22,204.62c2.08,0,3.67-0.58,4.78-1.74c1.11-1.16,1.71-2.83,1.8-5h2.87c-0.14,2.97-1.09,5.3-2.85,7
		c-1.75,1.69-3.96,2.54-6.61,2.54c-3.46,0-6.06-1.11-7.83-3.32c-1.76-2.21-2.66-5.49-2.7-9.84v-3.54c0-4.44,0.88-7.79,2.64-10.04
		c1.76-2.26,4.38-3.38,7.86-3.38c2.88,0,5.16,0.91,6.82,2.73c1.67,1.82,2.55,4.36,2.66,7.61h-2.87c-0.09-2.4-0.7-4.26-1.83-5.57
		c-1.13-1.32-2.72-1.97-4.78-1.97c-2.58,0-4.47,0.87-5.68,2.6c-1.21,1.74-1.81,4.4-1.81,7.99v3.3c0,3.72,0.61,6.42,1.83,8.11
		C533.75,203.78,535.65,204.62,538.22,204.62z"/>
	<path class="st1" d="M556.97,182.39c0.86-1.56,1.95-2.8,3.26-3.72c1.32-0.92,2.82-1.38,4.53-1.38c5.07,0,7.66,3.38,7.79,10.12
		v19.47h-2.95v-19.15c-0.02-2.6-0.47-4.51-1.37-5.75c-0.9-1.24-2.3-1.85-4.22-1.85c-1.56,0-2.96,0.59-4.2,1.76
		c-1.24,1.17-2.19,2.78-2.83,4.82v20.17h-2.98v-41.25h2.98V182.39z"/>
	<path class="st1" d="M580.36,204.92c0-0.64,0.2-1.19,0.6-1.62c0.4-0.44,0.96-0.66,1.68-0.66c0.72,0,1.28,0.22,1.69,0.66
		s0.62,0.98,0.62,1.62c0,0.63-0.21,1.15-0.62,1.56c-0.41,0.41-0.98,0.62-1.69,0.62c-0.72,0-1.28-0.21-1.68-0.62
		C580.56,206.07,580.36,205.55,580.36,204.92z"/>
	<path class="st1" d="M608.1,199.72c0-1.25-0.52-2.34-1.56-3.28c-1.04-0.94-2.8-1.96-5.28-3.08c-2.48-1.12-4.21-2.05-5.2-2.79
		s-1.71-1.55-2.17-2.43c-0.47-0.88-0.7-1.92-0.7-3.12c0-2.24,0.81-4.09,2.42-5.55c1.61-1.46,3.7-2.19,6.26-2.19
		c2.76,0,4.96,0.78,6.61,2.34c1.65,1.56,2.47,3.62,2.47,6.18h-2.98c0-1.65-0.56-3.01-1.69-4.09c-1.13-1.08-2.6-1.63-4.4-1.63
		c-1.75,0-3.15,0.45-4.18,1.34c-1.03,0.9-1.54,2.06-1.54,3.49c0,1.16,0.39,2.11,1.18,2.85c0.79,0.73,2.49,1.73,5.1,2.98
		c2.7,1.18,4.57,2.16,5.59,2.93s1.79,1.63,2.31,2.56c0.52,0.94,0.78,2.05,0.78,3.34c0,2.4-0.83,4.31-2.5,5.72
		c-1.67,1.41-3.86,2.12-6.58,2.12c-2.88,0-5.21-0.79-7-2.36s-2.67-3.61-2.67-6.1h3.01c0.09,1.8,0.69,3.19,1.81,4.18
		c1.12,0.99,2.73,1.48,4.85,1.48c1.83,0,3.29-0.45,4.4-1.34C607.54,202.39,608.1,201.2,608.1,199.72z"/>
	<path class="st1" d="M618.01,169.44c0-0.61,0.17-1.13,0.51-1.56s0.82-0.64,1.45-0.64s1.11,0.21,1.46,0.64
		c0.35,0.43,0.52,0.95,0.52,1.56s-0.17,1.12-0.52,1.54c-0.35,0.42-0.84,0.63-1.46,0.63s-1.11-0.21-1.45-0.63
		C618.18,170.57,618.01,170.05,618.01,169.44z M621.44,206.88h-3.01v-29.06h3.01V206.88z"/>
	<path class="st1" d="M638.87,204.62c2.08,0,3.67-0.58,4.78-1.74c1.11-1.16,1.71-2.83,1.8-5h2.87c-0.14,2.97-1.09,5.3-2.85,7
		c-1.75,1.69-3.96,2.54-6.61,2.54c-3.46,0-6.06-1.11-7.83-3.32c-1.76-2.21-2.66-5.49-2.7-9.84v-3.54c0-4.44,0.88-7.79,2.64-10.04
		c1.76-2.26,4.38-3.38,7.86-3.38c2.88,0,5.16,0.91,6.82,2.73c1.67,1.82,2.55,4.36,2.66,7.61h-2.87c-0.09-2.4-0.7-4.26-1.83-5.57
		c-1.13-1.32-2.72-1.97-4.78-1.97c-2.58,0-4.47,0.87-5.68,2.6c-1.21,1.74-1.81,4.4-1.81,7.99v3.3c0,3.72,0.61,6.42,1.83,8.11
		C634.4,203.78,636.29,204.62,638.87,204.62z"/>
	<path class="st1" d="M657.62,182.39c0.86-1.56,1.95-2.8,3.26-3.72c1.32-0.92,2.82-1.38,4.53-1.38c5.07,0,7.66,3.38,7.79,10.12
		v19.47h-2.95v-19.15c-0.02-2.6-0.47-4.51-1.37-5.75c-0.9-1.24-2.3-1.85-4.22-1.85c-1.56,0-2.96,0.59-4.2,1.76
		c-1.24,1.17-2.19,2.78-2.83,4.82v20.17h-2.98v-41.25h2.98V182.39z"/>
	<path class="st1" d="M690.67,207.42c-3.42,0-6.1-1.12-8.03-3.36c-1.93-2.24-2.92-5.42-2.95-9.56v-3.54c0-4.26,0.93-7.6,2.79-10.03
		c1.86-2.43,4.42-3.64,7.68-3.64c3.15,0,5.55,1.03,7.21,3.09c1.66,2.06,2.5,5.21,2.54,9.45v2.79h-17.27v1.64
		c0,3.33,0.71,5.9,2.13,7.71c1.42,1.81,3.43,2.71,6.03,2.71c2.86,0,5.18-1.05,6.96-3.14l1.56,1.99
		C697.42,206.12,694.54,207.42,690.67,207.42z M690.16,180.08c-2.35,0-4.15,0.83-5.41,2.48c-1.26,1.66-1.96,4.08-2.08,7.26h14.26
		v-0.78C696.79,183.07,694.53,180.08,690.16,180.08z"/>
	<path class="st1" d="M717.64,180.62c-0.72-0.13-1.34-0.19-1.88-0.19c-1.65,0-3.03,0.56-4.15,1.69c-1.12,1.13-1.91,2.69-2.38,4.7
		v20.06h-2.98v-29.06h2.93l0.05,4.35c1.41-3.26,3.63-4.89,6.66-4.89c0.79,0,1.39,0.12,1.8,0.35L717.64,180.62z"/>
</g>
<g>
	<path class="st1" d="M151.65,99.31c0,41.88-33.95,75.83-75.83,75.83S0,141.19,0,99.31c0-41.88,33.95-75.83,75.83-75.83
		S151.65,57.44,151.65,99.31z M141.87,99.31c0-36.67-29.76-66.04-66.04-66.04c-36.67,0-66.04,29.76-66.04,66.04
		c0,36.67,29.76,66.04,66.04,66.04C112.5,165.36,141.87,135.6,141.87,99.31z"/>
</g>
<path class="st0" d="M63.95,136.03c-1.44,1.43-3.76,1.42-5.19-0.02L32.5,109.54c-1.43-1.44-1.42-3.76,0.02-5.19l2.6-2.58
	c1.44-1.43,3.76-1.42,5.19,0.02l21.09,21.26l49.97-49.57c1.44-1.43,3.76-1.42,5.19,0.02l2.58,2.61c1.43,1.44,1.42,3.76-0.02,5.19
	L63.95,136.03z"/>
<g>
	<path class="st1" d="M733.36,44.55c0,12.04-9.76,21.8-21.8,21.8s-21.8-9.76-21.8-21.8s9.76-21.8,21.8-21.8
		S733.36,32.51,733.36,44.55z M711.56,25.57c-10.54,0-18.98,8.56-18.98,18.98c0,10.54,8.55,18.98,18.98,18.98
		c10.54,0,18.98-8.56,18.98-18.98C730.55,34.01,721.99,25.57,711.56,25.57z M719.72,56.51h-1.71h0c-0.35,0-0.76-0.25-0.93-0.56
		l-4.75-8.84h-4.49v8.34c0,0.58-0.47,1.05-1.05,1.05h-1.49c-0.58,0-1.05-0.47-1.05-1.05v-21.6c0-0.58,0.47-1.05,1.05-1.05h6.25
		c5.02,0,8.25,1.96,8.25,7.05c0,2.94-1.49,5.35-3.88,6.4c0.17,0.27-0.26-0.5,4.72,8.71C721.03,55.65,720.52,56.51,719.72,56.51z
		 M716.15,39.91c0-3.64-2.68-3.74-4.5-3.74h-3.8v7.57h4.59C714.76,43.74,716.15,42.31,716.15,39.91z"/>
</g>
<g>
</g>
<g>
</g>
<g>
</g>
<g>
</g>
<g>
</g>
<g>
</g>
</svg>
