<svg xmlns="http://www.w3.org/2000/svg" width="450" height="450" viewBox="0 0 450 450"><path d="M0 0h450v450H0V0"/><path fill="#FFF" d="M183.1 134.6H228c.1 28.5-.1 56.9.1 85.3-15.1-11.7-30-23.8-45-35.8.3-16.5.1-33 .1-49.5zM183.2 262.7L227 298c1.3 1 1 2.7 1 4 0 4.4.4 8.9-.4 13.3h-44.3c-.8-12.8-.1-25.6-.4-38.3.1-4.8-.2-9.6.3-14.3z"/><path fill="#FFF" d="M64.9 158c.2-7.8-.6-15.7.5-23.5 13.5.2 27.1 0 40.7 0 1.2 0 2.3.4 3.3 1.2l119 95.2c.2 19.1 0 38.3.1 57.5-39.1-30.7-77.7-62-116.8-92.8l-2-.4.1 119.8c-15 0-29.9.3-44.8-.1-.3-52.3 0-104.6-.1-156.9z"/><path fill="#E42024" d="M381.4 200.2a92 92 0 00-34-48.6 85.2 85.2 0 00-54.2-17.2c-.2 14.8 0 29.6 0 44.4a47.3 47.3 0 0142.5 30.3c3.4 10 3.8 21.2.9 31.4a43.8 43.8 0 01-25.5 25.7 47.4 47.4 0 01-33.9.7c-11.6-4.4-20.6-13.4-30.2-21-3.1-2.5-6.4-5-9.5-7.7l-1.7.3V287c0 2.9-.4 5.9.7 8.6 0 0 41.9 71.5 60.1 71.5 19.1 0 71.6-90 71.6-90a91.8 91.8 0 0015.7-45.3 83 83 0 00-2.5-31.6z"/><circle fill="#E42024" stroke="#000" stroke-miterlimit="10" cx="292" cy="224.8" r="22.7"/><g><path fill="#008272" d="M310 310h110v110H310V310m24.8 11.4V397a1662.3 1662.3 0 0113.8 8c1.1.5 2.1 1.3 3.3 1.8l6.7-3.8c3.8-2.4 7.9-4.4 11.7-6.8l9-5.1 4-2.3c3.7-2.2 7.4-4.4 11.3-6.5v-19.6L384 359l-5-1.7-14.4-5c-2.6-1-5.4-1.9-8-3 .2 1.1.8 2.1 1.1 3.1l2 4.8c.4 1.6 1.3 3 1.8 4.7 1 2 1.5 4.1 2.5 6.1l6.5 3.1c1.8.7 3.5 1.6 5.3 2.4l-1.4.8c-1.3.6-2.5 1.6-3.8 2.2-2.5 1.5-5.1 2.8-7.6 4.4l-5.6 3.2c-2 1-3.6 2.3-5.5 3a180083.4 180083.4 0 01-.3-60c-3.3-1-6.5-2.2-9.7-3.3-2.5-.7-4.7-1.8-7.2-2.4z"/><path fill="#FFF" d="M334.8 321.4c2.5.6 4.7 1.7 7.2 2.4l9.7 3.4c.2.2.3.5.3.8v59.2c2-.8 3.6-2.2 5.5-3.1l5.6-3.2c2.5-1.6 5-2.9 7.6-4.4 1.3-.6 2.5-1.6 3.8-2.2l1.4-.8c-1.8-.8-3.5-1.7-5.3-2.4l-6.5-3c-1-2-1.6-4.2-2.5-6.2-.5-1.6-1.4-3.1-1.9-4.7-.5-1.7-1.3-3.1-1.9-4.8-.3-1-.9-2-1.1-3 2.6 1 5.4 1.9 8 3 4.8 1.5 9.6 3.2 14.3 4.9l5.1 1.7 10.5 3.7v19.6c-3.9 2-7.6 4.3-11.4 6.5l-4 2.3-8.9 5c-3.8 2.5-8 4.5-11.7 7l-6.7 3.7c-1.2-.5-2.2-1.3-3.3-1.8l-3-1.7-10.4-5.8c-.2-.1-.4-.2-.4-.5v-75.6z"/></g></svg>