<svg xmlns="http://www.w3.org/2000/svg" xml:space="preserve" width="595.279" height="841.891"><path fill="#666" d="M170.634 400.729c-5.21 2.605-143.284 89.876-143.284 89.876l39.076 49.497 234.462 52.102-130.254-191.475z"/><path fill="#C1662B" d="M380.338 247.677c-61.747 39.027-132.904 60.449-194.295 99.879-33.777 12.962-16.141 50.449-13.88 76.629-1.11 29.135-3.156 58.222-9.166 86.756-5.505 40.301 44.07 37.542 69.226 46.826 36.663 19.719 90.234 50.006 120.455 47.095 52.556-6.272 84.051-51.57 129.165-74.419 25.832-27.016 76.708-35.299 81.017-74.886-8.582-37.246-3.098-85.758-21.847-120.061-19.239-27.993-31.153-60.387-51.091-87.789-20.555-28.02-47.803 1.767-65.524 16.377-26.816 25.659-69.438 13.351-17.95-4.006 11.448-5.319 38.914-21.927 9.498-13.833-11.628 2.354-23.949 5.244-35.603 1.431l-.005.001z"/><path fill="#ECBF70" d="M476.08 231.395c-50.324 41.307-116.613 58.313-166.56 99.59-76.535 15.025 37.174 63.216 33.109 106.446 13.102 52.785 9.953 105.271 3.722 159.223 49.467 8.166 90.354-39.854 130.441-63.771 39.376-30.78 103.304-53.139 81.892-114.746 1.735-45.847-14.054-86.243-40.154-123.533-13.557-21.364-21.357-47.626-42.449-63.214l-.001.005z"/><path fill="#610709" d="M343.872 445.009c-52.142-15.301-106.44-51.945-150.234-68.76-56.411-24.555-6.816-13.567 44.629-36.787 38.853-6.735 65.418-24.533 98.497-43.491 12.54-7.66 51.462-27.374 54.618-14.914-28.938 22.615-86.721 45.007-113.657 64.214-4.238 10.792 43.816 54.351 58.084 81.566 2.957 4.272 7.275 12.986 8.067 18.171l-.004.001z"/><path d="M168.086 356.707c7.633 5.366 15.647 10.153 23.6 15.025 13.482 8.426 27.646 15.686 41.977 22.54 19.764 9.624 39.757 18.766 59.55 28.329 17.396 8.377 35.298 15.593 53.545 21.875.222.129-1.605 3.274-1.828 3.145-18.436-6.179-36.499-13.38-53.986-21.909-19.752-9.601-39.665-18.867-59.359-28.583-14.353-6.993-28.559-14.352-42.029-22.948-7.965-4.973-16.056-9.817-23.477-15.591-.134-.143 1.873-2.024 2.007-1.883zM166.035 359.621c.906 10.448 2.471 20.821 3.761 31.224 1.771 14.729 1.402 29.579.904 44.37-.614 12.824-.8 25.658-.762 38.495.06 9.817.492 19.619-.372 29.41-.731 6.069-1.831 12.118-3.011 18.119-.519 2.96-1.031 5.877-1.856 8.765-.517 2.736-1.006 3.473 1.862 4.388 10.876 2.469 21.317 6.513 31.692 10.534 19.651 8.412 39.133 17.227 58.595 26.07 18.598 8.568 37.658 16.022 56.747 23.406 11.383 4.096 22.729 8.229 33.43 13.914.168.128-1.644 2.515-1.812 2.387-10.793-5.341-22.119-9.333-33.462-13.34-19.237-7.223-38.387-14.675-57.061-23.276-19.401-8.812-38.78-17.685-58.299-26.233-10.332-4.141-20.723-8.165-31.444-11.191-.637-.362-1.352-.612-1.909-1.086-1.885-1.603-1.429-4.083-.978-6.188.78-2.834 1.209-5.69 1.686-8.594 1.082-5.933 2.147-11.895 2.819-17.885.772-9.72.242-19.446.159-29.186-.087-12.87.097-25.739.633-38.599.446-14.649.839-29.353-.842-43.947-1.233-10.499-2.844-20.981-3.244-31.556.001-.195 2.765-.195 2.764-.001z"/><path d="M344.509 449.947c.592 17.424 2.01 34.807 2.96 52.212 1.039 18.958.898 37.943.197 56.907-.665 9.321-.376 18.678-.847 28.002-.576 5.51-.609 11.118-1.958 16.512-.806 1.885-.372 1.005-1.278 2.65-.08.176-2.567-.953-2.487-1.129.749-1.336.396-.646 1.053-2.071 1.235-5.258 1.03-10.739 1.663-16.084.427-9.31.104-18.646.56-27.959.382-18.89.278-37.788-.704-56.66-.879-17.444-2.26-34.905-1.969-52.379-.001-.199 2.81-.199 2.81-.001zM349.628 606.243c10.972-3.907 22.066-7.614 32.728-12.331 2.87-1.271 5.668-2.698 8.502-4.047 15.708-7.806 29.143-19.111 42.981-29.692 3.413-2.61 6.87-5.161 10.306-7.741 16.059-11.598 33.081-21.762 49.72-32.485 13.456-8.671 12.693-8.294 25.842-17.35 11.168-8.1 21.993-16.694 31.867-26.349 3.839-3.754 8.979-9.16 12.216-13.681 1.07-1.495 1.867-3.168 2.801-4.752.094-.205 2.994 1.12 2.9 1.325-.932 1.749-1.705 3.593-2.796 5.247-3.189 4.837-8.164 10.309-12.12 14.317-9.814 9.945-20.723 18.694-31.986 26.933-12.971 8.96-12.658 8.901-25.941 17.446-16.593 10.674-33.617 20.697-49.726 32.107-3.447 2.539-6.921 5.042-10.342 7.615-14.102 10.608-27.737 22.033-43.634 29.958-2.89 1.372-5.738 2.833-8.669 4.117-10.766 4.716-22.003 8.419-33.243 11.808-.173.1-1.58-2.346-1.406-2.445z"/><path d="M347.668 442.379c12.945-5.354 25.611-11.342 38.156-17.565 21.805-11.515 43.095-23.96 64.254-36.611 14.521-8.407 28.346-17.926 41.935-27.749 1.767-1.883 4.328-2.989 6.229-4.691.068-.061.021-.195.082-.263.358-.385.771-.715 1.157-1.072 4.819-3.043 9.913-5.702 15.072-8.126a79.171 79.171 0 0 0 12.625-6.215c1.911-1.352 3.986-2.525 6.231-3.214 2.567-.467 4.563 1.397 6.955 1.987 1.782.464 3.652-.172 5.438.248 1.501.353 2.272 1.223 3.413 2.165 5.358 7.44 5.595 17.196 6.459 26 1.637 15.388 3.256 30.778 4.762 46.181 1.583 12.147 1.166 24.364 1.146 36.564.105 6.362.536 12.711.645 19.073.043 2.593-.085 5.182-.236 7.769-.008.191-2.707.082-2.7-.109.096-2.535.127-5.073.063-7.61-.15-6.376-.637-12.735-.827-19.11-.131-12.113.078-24.243-1.499-36.293-1.537-15.404-3.104-30.805-4.602-46.213-.693-8.161-.713-17.254-5.271-24.374-3.062-2.545-4.382-1.009-8.063-1.87-.684-.217-3.69-1.255-4.123-1.826-.065-.087.39-.104.29-.148-.204-.091-.447-.015-.672-.022-2.052.305-3.879 1.834-5.571 2.912-4.061 2.557-8.271 4.759-12.766 6.474-5 2.366-9.879 4.99-14.749 7.609-1.427.97-.379.142-1.739 1.644-1.507 1.664-3.964 3.043-5.525 4.733-13.32 10.287-27.185 19.885-41.672 28.461-21.166 12.833-42.559 25.309-64.572 36.648-12.749 6.176-25.616 12.192-38.955 17-.169.097-1.539-2.287-1.37-2.384z"/><path d="M342.459 441.901c-4.495-8.456-9.994-16.343-15.49-24.169-7.841-11.234-16.67-21.695-25.493-32.155-7.133-9.036-14.212-18.131-20.394-27.854-2.006-3.78-5.792-7.525-5.876-12.052.513-2.92 3.011-3.596 5.404-4.628 6.413-1.927 11.922-5.786 17.59-9.227 14.604-9.222 30.143-16.87 45.437-24.863 20.388-10.522 40.854-20.937 60.507-32.792 9.438-5.568 18.287-12.037 27.832-17.424 3.825-1.794 7.296-4.204 10.689-6.696 3.708-3.132 7.758-5.807 11.942-8.252 4.404-2.582 8.836-5.099 13.476-7.231.579-.292 1.157-.588 1.738-.875.354-.175 3.864-2.283 4.045-2.323.642-.143 1.31-.104 1.965-.156.535.376 1.111.698 1.604 1.127 1.371 1.192 2.849 3.125 3.939 4.466 3.487 4.285 6.712 8.75 9.998 13.19 8.605 11.323 17.127 22.671 24.493 34.848 4.8 8.108 8.117 16.942 11.406 25.735 1.193 3.244 3.54 5.8 5.362 8.678 2.455 4.015 3.941 8.564 5.702 12.918 1.051 2.687 1.875 5.433 2.712 8.188a31.448 31.448 0 0 0 1.496 2.975c.079.177-2.418 1.305-2.497 1.128-.6-1.12-1.163-2.247-1.622-3.433-.834-2.686-1.729-5.335-2.795-7.942-1.748-4.216-3.104-8.658-5.473-12.568-1.894-3.013-4.32-5.698-5.631-9.06-3.464-8.565-6.877-17.196-11.62-25.157-7.385-12.07-15.907-23.316-24.338-34.667-4.377-6.063-8.525-12.379-13.597-17.891.188-.094.355-.292.566-.282s-.384.167-.559.282c-1.18.774-2.186 1.522-3.457 2.177-.604.311-1.203.635-1.805.953-4.559 2.132-8.944 4.577-13.278 7.138-4.137 2.351-8.149 4.941-11.78 8.031-3.449 2.55-6.989 5-10.831 6.93-9.363 5.596-18.016 12.239-27.335 17.912-19.55 12.162-40.038 22.688-60.585 33.05-15.349 7.846-30.955 15.302-45.679 24.286-5.827 3.402-11.513 7.3-18.081 9.122-1.529.651-3.455.787-4.257 2.349-.183 2.623 4.781 8.377 5.896 10.617 6.298 9.519 13.315 18.525 20.445 27.431 8.885 10.514 17.729 21.069 25.55 32.418 5.497 7.946 11.094 15.939 15.224 24.703.073.181-2.478 1.229-2.552 1.048h.007zM177.292 357.674c13.142-3.543 26.01-7.939 38.847-12.443 16.404-5.859 32.785-11.767 49.42-16.945 9.438-3.086 18.901-6.103 28.435-8.884 1.235-.26 2.466-.538 3.694-.827.165-.09 1.443 2.244 1.278 2.335-1.164.437-2.34.825-3.574 1.025-9.397 3.103-18.839 6.066-28.193 9.3-16.563 5.273-32.872 11.264-49.264 17.043-12.955 4.468-25.933 8.951-39.351 11.846-.174.092-1.466-2.359-1.292-2.45z"/><path d="M292.712 319.661c8.201-5.404 16.573-10.559 25.154-15.34 2.06-1.104 4.097-2.25 6.179-3.312 7.095-3.619 7.052-3.317 14.437-6.823 8.095-3.843 16.01-8.034 23.934-12.213 15.797-8.188 31.397-16.702 46.719-25.748 10.572-6.143 21.487-11.758 32.788-16.441 2.818-.845 5.598-2.223 8.147-3.485-1.42-1.772.028 1.671-.594 1.854-.39.114-.798.15-1.196.225-.479.122-.966.221-1.439.366-1.294.395-2.559.878-3.842 1.305-6.483 2.533-13.207 4.324-19.895 6.221-7.881 2.558-15.976 4.137-24.185 5.11-3.692.35-7.479.795-11.135-.056-1.04-.173-2.179-.378-3.237-.232-.058.008-.031.127-.084.151-.286.136-.599.208-.898.312-2.882 1.095-5.462 2.836-8.09 4.42-7.287 4.391-14.911 8.175-22.446 12.113-10.784 5.482-21.419 11.246-32.115 16.896-7.631 4.237-15.529 7.965-23.43 11.666-5.397 2.876-11.207 4.542-17.089 6.069-6.189 1.423-11.912 4.071-17.418 7.163-4.781 2.399-9.737 4.462-14.715 6.42-5.194 1.801-10.043 4.324-14.793 7.057-5.824 3.225-11.366 6.91-16.891 10.617-3.289 2.321-6.606 4.506-10.124 6.457-3.564 2.389-7.01 4.917-10.688 7.136-6.479 3.856-13.21 7.287-19.924 10.715-3.372 1.886-7.699 3.678-10.691 5.625-.071.173-2.522-.842-2.45-1.015 1.955-3.441 8.27-4.796 11.266-7.085 6.679-3.421 13.513-6.564 19.936-10.452 3.735-2.17 7.248-4.639 10.812-7.073 1.391-.788 2.908-1.468 4.226-2.376 1.901-1.312 3.631-2.897 5.654-4.044 5.519-3.824 11.12-7.537 17.001-10.785 4.867-2.766 9.84-5.316 15.13-7.189 4.866-1.931 9.726-3.927 14.414-6.257 5.665-3.243 11.544-6.078 17.947-7.548 5.747-1.436 11.451-2.927 16.682-5.818 7.812-3.767 15.617-7.565 23.187-11.805 10.695-5.671 21.298-11.515 32.14-16.905 7.549-3.862 15.199-7.535 22.558-11.753 2.785-1.601 5.502-3.386 8.498-4.567 2.211-.852 4.436-.925 6.727-.36 2.993.503 6.027.023 9.02-.263 8.066-1.035 16.04-2.535 23.798-5.044 6.685-1.853 13.426-3.521 19.916-5.991 1.548-.479 7.792-2.921 9.266-1.98.73.466.91 1.474 1.365 2.211-2.151 2.415-5.866 3.112-8.647 4.479-11.084 4.812-21.789 10.51-32.23 16.576-15.319 9.137-30.93 17.724-46.778 25.912-7.983 4.196-15.956 8.419-24.13 12.237-7.801 3.644-6.906 2.902-14.375 6.615-2.083 1.036-4.122 2.16-6.183 3.239-8.6 4.663-16.902 9.826-25.309 14.829-.144.133-2.021-1.903-1.878-2.036h-.002zM383.038 275.562c4.834 1.974 9.755 3.868 14.81 5.206l1.301.512c.167.099-1.233 2.452-1.4 2.353l-1.156-.358c-5.22-1.329-10.355-3.158-15.203-5.501-.157-.118 1.491-2.329 1.648-2.212zM188.395 362.058c.844 3.256.397 1.543 1.339 5.138.043.201-2.799.802-2.841.601-.909-3.712-.498-1.909-1.245-5.409-.023-.195 2.723-.524 2.747-.33z"/><path d="M195.99 353.109c-.075 7.351.671 14.661 1.356 21.97l.206 2.518c.017.202-2.836.433-2.853.231l-.278-2.497c-.82-7.379-1.646-14.784-1.196-22.222 0-.195 2.765-.195 2.765 0zM201.216 354.632c.183 7.353.16 14.71.047 22.065.21 2.083.017 1.179.455 2.735.046.188-2.606.836-2.652.648-.608-2.015-.349-.894-.685-3.383-.113-7.354-.137-14.712.047-22.065 0-.197 2.788-.197 2.788 0zM206.421 352.026c.207 8.285.199 16.573.076 24.859-.062 2.71-.026 1.506-.099 3.614 0 .194-2.743.194-2.743 0-.071-2.108-.035-.904-.098-3.614-.123-8.286-.131-16.575.076-24.859.001-.197 2.788-.197 2.788 0zM211.631 352.026c.254 9.526.214 19.057.129 28.586.207 2.06-.357 4.125.032 6.163.035.188-2.627.689-2.662.501-.538-2.195-.331-4.41-.416-6.664-.085-9.528-.125-19.06.129-28.586 0-.197 2.788-.197 2.788 0zM218.362 349.28c1.492 10.497 1.439 21.116 1.894 31.685.191 3.536.275 7.055.857 10.549.032.199-2.781.647-2.812.448-.76-3.587-1.032-7.208-1.219-10.873-.53-10.504-.538-21.036-1.493-31.518-.021-.196 2.752-.487 2.773-.291zM225.97 348.338c.098 11.945.918 23.865 1.488 35.794.275 3.25.042 6.504.397 9.743.026.194-2.723.564-2.748.37-.668-3.289-.592-6.629-.885-9.968-.702-11.964-1.573-23.948-1.063-35.938 0-.199 2.811-.199 2.811-.001zM237.691 340.305c.503 12.128-.386 24.253-1.027 36.36-.237 4.833-.551 9.666-.635 14.505.004.196-2.766.253-2.77.058-.316-4.895-.03-9.803.119-14.699.553-12.073 1.402-24.135 1.524-36.224.001-.196 2.789-.196 2.789 0zM242.887 342.69c.307 11.949.305 23.903.296 35.855.085 5.428.335 10.854.778 16.265.238 2.9.02 1.896.615 3.858.052.188-2.606.919-2.658.731-2.312-6.586-1.375-14.032-2.092-20.854-.007-11.952-.01-23.905.296-35.855 0-.195 2.765-.195 2.765 0zM252.017 341.607c.296 12.548.311 25.101.308 37.652.312 8.355-.697 16.776.28 25.101.025.2-2.798.551-2.823.352-1.486-8.389-.514-16.983-.86-25.453-.003-12.551.012-25.104.308-37.652-.001-.197 2.787-.197 2.787 0zM261.12 334.864c.298 12.522.319 25.05.359 37.576-.066 10.338-.221 20.674.67 30.982.02.208-2.913.485-2.934.277-1.433-10.362-1.265-20.819-1.221-31.259.04-12.526.062-25.053.36-37.576.002-.195 2.766-.195 2.766 0zM270.263 337.919c-.337 15.275-1.388 30.521-2.229 45.773-.318 7.326-.871 14.648-.562 21.985.121 2.865.191 5.923 1.36 8.58.068.185-2.545 1.152-2.613.967-1.381-3.034-1.732-6.131-1.969-9.468-.522-7.408-.042-14.821.229-22.228.829-15.213 1.857-30.416 2.973-45.609-.001-.198 2.81-.198 2.811 0zM276.981 334.954c1.496 14.273 2.14 28.64 2.794 42.975.98 10.831.535 21.974 2.919 32.648.04.197-2.741.768-2.781.571-2.865-10.746-2.746-22.082-3.671-33.083-.64-14.274-1.272-28.551-2.035-42.818-.021-.196 2.754-.487 2.774-.291v-.002zM287.386 364.663c1.284 9.273 1.573 18.646 2.239 27.977.356 7.158.765 14.302 1.674 21.413.026.193-2.709.557-2.734.364-1.346-7.125-1.672-14.361-2.084-21.585-.675-9.278-1.005-18.574-1.841-27.838-.024-.195 2.724-.524 2.746-.331zM296.503 380.291c1.199 9.918 1.917 19.902 2.627 29.868.304 5.74.681 11.521.076 17.253-.013.195-2.773.014-2.761-.182.274-5.627-.145-11.261-.487-16.876a6046.043 6046.043 0 0 1-2.202-29.735c-.023-.194 2.724-.523 2.747-.328zM305.426 388.492c.226 9.555.196 19.114.17 28.67.068 3.761.341 7.521 1.066 11.214.037.191-2.673.704-2.709.513-.974-3.835-1.358-7.775-1.485-11.727-.026-9.557-.056-19.115.17-28.67 0-.197 2.788-.197 2.788 0zM310.828 398.524c.927 7.571 2.117 15.109 2.853 22.702.325 2.752.843 5.475 1.188 8.224.023.192-2.692.524-2.716.333-.463-2.77-1.053-5.518-1.433-8.301-.827-7.551-2.092-15.048-2.64-22.63-.021-.194 2.725-.523 2.748-.328zM317.366 404.224c1.812 9.126 2.909 18.379 3.213 27.676l.158 2.412c.015.202-2.834.417-2.849.216l-.285-2.509c-.585-9.222-1.684-18.396-3.037-27.535-.018-.198 2.782-.46 2.8-.26zM322.575 411.793c.87 6.747 1.325 13.532 2.11 20.289.021.211-2.969.521-2.99.311-.885-6.749-1.371-13.523-1.894-20.308-.019-.198 2.754-.488 2.774-.292zM330.371 423.279c.522 3.029.83 6.088 1.144 9.145.018.207-2.911.456-2.929.249-.305-3.023-.62-6.046-.962-9.065-.023-.194 2.724-.523 2.747-.329zM335.366 427.351c.391 3.604.176 1.699.648 5.711.019.207-2.901.473-2.921.266-.411-4.14-.253-2.146-.492-5.977.001-.196 2.765-.196 2.765 0zM283.48 332.104c.916 5.777 1.313 11.62 1.515 17.461.008.206-2.906.316-2.914.11a380.886 380.886 0 0 0-1.348-17.241c-.024-.195 2.723-.524 2.747-.33zM294.994 325.98c.1 3.575.103 7.151.109 10.728 0 .213-3.007.213-3.007 0 .007-3.576.009-7.152.109-10.728.001-.198 2.789-.198 2.789 0zM302.808 319.235c.111 3.923-.006 7.84.281 11.755.015.204-2.865.401-2.879.197-.354-3.979-.283-7.96-.167-11.953 0-.194 2.765-.194 2.765.001zM310.635 314.258c.086 4.185.054 1.997.091 6.565 0 .21-2.969.21-2.969 0 .037-4.568.005-2.38.091-6.565 0-.197 2.787-.197 2.787 0zM315.831 308.816c.111 3.923-.006 7.841.281 11.756.015.203-2.865.4-2.879.197-.354-3.979-.283-7.96-.167-11.953.001-.195 2.765-.195 2.765 0zM321.041 307.514c.107 3.349.101 6.7.105 10.051 0 .21-2.976.21-2.976 0 .004-3.351-.003-6.702.104-10.051.002-.195 2.767-.195 2.767 0zM330.157 301.002c.135 6.713.214 13.434.033 20.148 0 .2-2.832.2-2.832 0-.18-6.713-.101-13.434.034-20.148.001-.195 2.765-.195 2.765 0zM337.972 301.002c-.125 3.095-.515 6.171-.865 9.247-.02.207-2.945-.076-2.926-.282.347-2.987.712-5.973 1.026-8.964 0-.196 2.765-.196 2.765-.001zM343.181 294.491c.11 4.025.092 8.052.071 12.078 0 .206-2.907.206-2.907 0-.021-4.026-.038-8.053.071-12.078 0-.196 2.765-.196 2.765 0zM348.622 291.963c.68 4.451 1.061 8.937 1.372 13.426.013.207-2.915.392-2.928.185a836.984 836.984 0 0 0-1.218-13.32c-.02-.196 2.754-.486 2.774-.291zM358.809 287.979c.129 5.207.156 10.419.036 15.627 0 .201-2.837.201-2.837 0a328.28 328.28 0 0 1 .036-15.627c0-.196 2.765-.196 2.765 0zM365.334 282.989c.145 4.881.119 9.766.089 14.648 0 .21-2.966.21-2.966 0-.03-4.883-.056-9.767.089-14.648 0-.197 2.788-.197 2.788 0zM377.042 278.862c.091 3.225.096 6.45.104 9.676 0 .21-2.973.21-2.973 0 .01-3.226.014-6.451.104-9.676.001-.195 2.765-.195 2.765 0zM373.148 285.593c-.107 3.442-.502 6.865-.858 10.288-.018.209-2.979-.05-2.961-.26.35-3.342.718-6.682 1.032-10.027 0-.197 2.787-.197 2.787-.001zM272.855 375.469c-.05 8.731.763 17.424 1.396 26.125.25 3.356.394 6.719.243 10.082-.004.195-2.764.134-2.76-.061.022-3.282-.23-6.552-.511-9.821-.742-8.755-1.635-17.528-1.156-26.324 0-.198 2.787-.198 2.788-.001zM289.811 364.031c4.609-3.75 9.777-6.644 14.893-9.619 3.558-2.005 6.892-4.369 10.203-6.747 4.356-3.078 9.066-5.621 13.74-8.178 5.424-3.159 10.502-6.843 15.699-10.348 4.231-3.32 8.353-6.737 12.736-9.856 5.693-3.833 11.721-7.147 17.688-10.533 6.498-3.73 12.644-7.994 18.831-12.203a346.286 346.286 0 0 1 17.585-11.605c6.078-3.531 12.327-6.745 18.648-9.812 4.69-2.024 9.104-4.567 13.521-7.115 4.32-2.614 8.577-5.333 12.912-7.923 3.22-2.212 6.799-3.714 10.393-5.183 1.829-.839 3.535-1.874 5.179-3.027 2.277-1.779 4.85-3.125 7.464-4.333a40.828 40.828 0 0 1 3.302-1.733c.158-.108 1.695 2.133 1.536 2.242-1.148.48-2.206 1.096-3.261 1.761-2.509 1.101-4.981 2.359-7.164 4.026-1.783 1.239-3.595 2.378-5.552 3.335-3.455 1.491-6.936 2.94-10.044 5.107-4.362 2.568-8.623 5.304-12.949 7.934-4.469 2.55-8.883 5.2-13.608 7.263-6.23 3.068-12.397 6.265-18.43 9.708-5.97 3.627-11.8 7.492-17.51 11.515-6.249 4.232-12.379 8.637-18.95 12.377-5.912 3.335-11.916 6.54-17.597 10.262-4.423 3.101-8.527 6.55-12.731 9.939-5.265 3.544-10.404 7.277-15.899 10.469-4.602 2.493-9.227 4.991-13.564 7.923-3.363 2.419-6.762 4.804-10.326 6.919-4.966 3.023-10.04 5.863-14.734 9.314-.135.144-2.143-1.737-2.011-1.879zM278.49 319.803c5.335-3.095 10.985-5.579 16.116-9.019 3.42-2.67 6.782-5.366 10.431-7.725 4.106-2.477 8.047-5.244 12.257-7.541a91.522 91.522 0 0 0 11.592-6.366c3.489-2.689 7.349-4.795 11.144-7.006 3.805-1.707 7.537-3.552 11.281-5.387 3.686-2.337 7.611-4.189 11.532-6.092 5.004-2.113 10.1-3.994 15.209-5.837 4.129-1.762 8.388-3.344 12.195-5.75 2.75-1.705 5.607-3.189 8.515-4.602.159-.117 1.814 2.137 1.655 2.254-2.816 1.384-5.621 2.769-8.291 4.43-3.902 2.584-8.299 4.271-12.58 6.124-5.016 1.867-10.061 3.658-15.016 5.686-3.92 1.91-7.92 3.617-11.555 6.056-3.697 1.795-7.338 3.702-11.141 5.273-3.75 2.215-7.603 4.271-11.047 6.964-3.771 2.427-7.646 4.642-11.738 6.49-4.192 2.205-8.038 5.028-12.126 7.42-3.663 2.292-7.01 4.949-10.335 7.698-5.148 3.646-10.866 6.241-16.449 9.141-.156.116-1.805-2.095-1.649-2.211zM369.641 515.607c2.311 8.87 3.28 18.063 4.083 27.179.311 3.431.287 6.865.117 10.3-.005.202-2.866.125-2.86-.077.046-3.332-.013-6.663-.351-9.982-.869-8.962-1.823-17.961-3.686-26.776-.044-.192 2.651-.834 2.697-.644z"/><path d="M365.939 516.998c-3.32-.33-6.604.907-9.909.728-.685-.037-1.549.13-2.024-.363-.534-.553-.333-1.501-.5-2.252.507-.571.956-1.199 1.52-1.715 1.35-1.235 2.906-2.23 4.261-3.461 2.237-2.033 4.087-4.252 5.937-6.633 3.113-4.387 4.781-9.543 6.991-14.399 1.135-2.806 2.966-7.046 6.848-5.034.69.357 1.097 1.103 1.645 1.654 3.374 5.093 7.117 9.873 11.921 13.673 3.35 2.468 7.296 2.374 11.132 3.104 3.529 2.925-5.278 4.151-6.407 4.364-2.705.845-5.609 1.02-8.257 2.033-1.549.526-3.078 1.101-4.508 1.908-1.44 1.823-.25 4.418.604 6.215 2.739 4.463 4.286 9.316 5.354 14.407.5 3.857 1.153 7.685 1.163 11.582-.02.442-.032.886-.059 1.328-.024.406-.096.81-.093 1.216.005.689.526 1.297.432 1.988-.058.423-.252.816-.378 1.225-2.871 2.244-7.034 3.363-10.481 4.54-2.055.712-4.181.999-6.331 1.194-.187.062-1.063-2.583-.876-2.645 1.967-.141 3.904-.392 5.787-1.022 2.147-.696 4.267-1.465 6.396-2.216.912-.321 1.77-.824 2.717-1.02.118-.024.231.065.348.099.06.062.132.255.179.184.005-.008-.841-4.308-.39-4.854-.049-3.74-.755-7.396-1.242-11.095-1.066-4.919-2.559-9.599-5.16-13.946-1.27-3.025-2.264-6.566.285-9.236 1.481-.919 3.124-1.558 4.769-2.107 2.752-1.222 5.783-1.475 8.656-2.352 1.646-.272 3.252-.589 4.856-1.049.385-.111.884-.654 1.147-.354.427.487.155 1.286.232 1.929l.271.201c-4.369-.406-8.578-.979-12.289-3.62-4.841-3.938-8.722-8.73-12.026-14.022l-.849-.998c.076-.13.312-.266.229-.39-.896-1.326-2.897 4.053-2.939 4.12-2.282 5.026-3.991 10.362-7.197 14.915-3.226 4.238-6.821 8.399-11.596 10.943-.309-.282-.596-.59-.926-.847-.544-.425 1.385.02 2.071-.054 3.114-.33 6.233-.811 9.377-.545.186.049-.502 2.728-.691 2.679z"/><path d="M377.573 488.87c-2.995 6.617-6.878 12.772-10.298 19.165-.963 1.968-2.021 3.869-3.284 5.657-.564.799-1.162 1.63-1.322 1.516-.869-.624-1.366-1.646-2.05-2.468.032-.191 2.738.255 2.706.446-.857.062-1.714.138-2.572.183-.059.003.129-.012.165-.058.241-.3.433-.636.647-.955 1.173-1.734 2.133-3.576 3.004-5.482 3.307-6.443 7.141-12.606 10.452-19.051.074-.18 2.625.867 2.552 1.047z"/><path d="M377.339 499.579c-3.771 6.154-8.514 11.655-12.313 17.785.037 1.152-1.334-.738-1.321-1.374.013-.662.89-.98 1.336-1.469.77-.843 1.558-1.669 2.313-2.523 2.741-3.104 2.711-3.175 5.303-6.51 3.958-5.182 8.183-10.137 12.388-15.112.229-.224.43-.864.684-.671.868.66 1.738 1.574 1.92 2.649.145.856-.688 1.597-1.07 2.377-1.591 3.253-3.439 6.387-5.217 9.539-3.247 5.304-6.878 10.707-12.128 14.222l-1.703-2.809c.061-.186 2.677.684 2.615.868l-2.809-.058c4.822-3.466 8.229-8.492 11.3-13.485l3.753-6.569c.517-.916 1.033-1.831 1.531-2.757.368-.683.399-1.671 1.064-2.069.838-.501 1.941-.421 2.911-.312.255.029-.333.39-.5.584-3.969 5.129-8.255 10.021-12.146 15.217-2.545 3.248-2.771 3.675-5.517 6.652-.787.853-1.609 1.672-2.43 2.491-1.781 1.781-2.147 3.092-4.991 1.124-.335-.231.101-.809.151-1.213 3.438-6.347 8.27-11.826 12.348-17.756.083-.177 2.611 1.001 2.528 1.179z"/><path d="M385.424 500.752c-3.634 8.872-8.273 17.301-12.957 25.652-1.362 1.84-1.854 4.211-3.228 6.044-.056.18-2.589-.61-2.532-.789.423-2.346 2.217-4.305 2.928-6.534 4.55-8.346 9.144-16.684 13.168-25.3.065-.185 2.686.741 2.621.927zM385.385 514.924c-2.415 6.807-6.705 13.046-8.294 20.129-.029.197-2.815-.229-2.785-.426 1.109-7.416 5.684-13.922 8.527-20.751.074-.181 2.626.867 2.552 1.048zM386.69 526.645c-1.715 6.03-5.811 11.537-6.277 17.874 1.147-.125-.59.19-.059-.946.282-.602 1.012-.863 1.496-1.319 1.834-1.725 3.519-3.479 5.527-5.003 6.698-2.404 1.144 7.978.513 9.521-.415 1.015-.795 2.043-1.192 3.064-1.218 3.652-.706 1.887-1.57 5.285-.04.199-2.853-.373-2.812-.571.851-3.645.336-1.768 1.58-5.62 1.124-2.864 2.418-5.637 3.586-8.479.189-.462.074-1.175.517-1.404.414-.214 2.854.329 1.391.143-1.747 1.378-6.137 6.239-7.622 6.747-1.008.345-2.195.444-3.193.073-.592-.22-.649-1.082-.975-1.623.034-.782-.037-1.577.101-2.348 1.041-5.8 4.532-10.933 6.438-16.44.073-.182 2.625.865 2.551 1.046zM169.595 524.298c12.705 5.198 25.271 10.715 37.807 16.312.199.137-1.73 2.95-1.93 2.813-12.526-5.489-25.063-10.972-37.427-16.817-.163-.11 1.387-2.416 1.55-2.308zM164.075 512.306c12.946 4.394 25.366 10.101 37.657 16.046 8.96 4.707 4.728 2.388 12.717 6.919.181.145-1.861 2.696-2.042 2.552-8.028-4.309-3.791-2.084-12.726-6.65-12.166-5.853-24.428-11.489-36.977-16.481-.168-.098 1.202-2.483 1.371-2.386zM166.68 504.492c13.179 3.387 25.65 8.885 38.168 14.114 7.597 3.313 15.17 6.657 22.934 9.56.183.109-1.354 2.694-1.537 2.586-7.945-2.645-15.654-5.875-23.327-9.222-12.419-5.183-24.751-10.611-37.607-14.654-.169-.097 1.2-2.48 1.369-2.384zM171.89 494.073c12.333 4.168 24.55 8.639 36.7 13.31 5.757 2.292 11.389 4.865 16.967 7.557.179.126-1.612 2.658-1.792 2.531-5.619-2.5-11.268-4.93-16.996-7.172-12.088-4.603-24.224-9.085-36.251-13.843-.168-.097 1.202-2.48 1.37-2.384l.002.001zM169.788 481.269c14.812 5.102 29.204 11.331 43.461 17.804 8.699 4.188 4.64 2.258 12.174 5.809.185.129-1.639 2.752-1.824 2.623-7.71-3.335-3.582-1.505-12.366-5.525-14.204-6.343-28.496-12.487-42.915-18.326-.168-.105 1.301-2.489 1.47-2.385zM180.594 474.705c9.859 2.818 19.283 6.845 28.639 10.993.188.127-1.604 2.78-1.792 2.653-9.318-3.925-18.632-7.859-28.201-11.146-.177-.095 1.177-2.596 1.354-2.5zM174.636 457.917c11.08 5.363 22.351 10.311 33.575 15.359 6.529 2.99 3.505 1.631 9.062 4.096.179.119-1.499 2.644-1.678 2.525-5.728-2.296-2.634-1.013-9.264-3.891-11.272-4.951-22.56-9.915-33.345-15.878-.155-.116 1.494-2.327 1.65-2.211zM166.68 444.584c13.642 3.623 26.913 8.449 40.221 13.108 6.506 2.363 12.897 5.018 19.337 7.549.189.117-1.464 2.797-1.653 2.68-6.519-2.332-12.971-4.837-19.484-7.185-13.246-4.641-26.447-9.406-39.789-13.77-.17-.096 1.2-2.48 1.368-2.382z"/><path d="M166.255 433.61c15.969 7.672 31.897 15.427 47.871 23.089 6.44 2.997 12.679 6.38 18.826 9.931.173.138-1.782 2.585-1.955 2.446-6.264-3.282-12.574-6.475-19.011-9.408-16.021-7.572-31.971-15.321-47.512-23.845-.155-.126 1.625-2.339 1.781-2.213zM179.279 429.703c14.854 8.032 29.182 16.987 43.932 25.212 7.419 3.926 4.004 2.251 10.193 5.132.18.122-1.556 2.664-1.735 2.541-6.533-2.71-2.964-1.111-10.641-4.938-14.828-8.04-29.157-16.912-43.528-25.734-.158-.126 1.622-2.339 1.779-2.213zM169.788 414.849c15.535 5.585 30.411 12.876 45.15 20.272 5.652 2.835 11.271 5.724 16.746 8.888.168.133-1.71 2.513-1.878 2.38-5.644-2.852-11.35-5.571-17.019-8.372-14.675-7.23-29.375-14.464-44.47-20.784-.166-.104 1.303-2.487 1.471-2.384zM174.997 404.417c15.192 5.989 29.021 14.806 42.491 23.918 4.963 3.302 9.593 7.044 14.118 10.909.145.154-2.035 2.194-2.179 2.04-4.72-3.536-9.427-7.094-14.354-10.341-13.352-8.857-26.927-17.497-41.545-24.143-.168-.104 1.301-2.486 1.469-2.383zM171.568 389.008c16.917 7.612 31.926 18.683 46.874 29.515 5.293 3.686 10.104 7.965 14.962 12.185.138.135-1.774 2.082-1.912 1.947-5.513-3.364-10.062-8.184-15.602-11.523-14.842-10.558-29.604-21.4-45.863-29.725-.17-.109 1.371-2.508 1.541-2.399zM174.688 380.717c13.569 5.082 25.819 12.951 37.599 21.261 4.749 3.468 9.308 7.184 13.893 10.864.148.155-2.042 2.267-2.191 2.112-4.699-3.492-9.35-7.049-14.097-10.477-11.584-8.031-23.516-15.699-36.495-21.31-.175-.091 1.118-2.542 1.291-2.45zM172.495 369.537c15.608 7.463 30.428 16.487 45.181 25.497.193.167-2.159 2.911-2.354 2.744-14.724-8.849-29.438-17.736-44.506-25.989-.159-.119 1.521-2.37 1.679-2.252zM213.578 550.087c16.45 5.69 32.66 12.081 48.94 18.246.23.144-1.798 3.402-2.028 3.259-16.171-6.183-32.253-12.583-48.282-19.121-.169-.097 1.201-2.481 1.37-2.384zM298.089 595.862c-5.801-1.714-11.648-3.171-17.529-4.58-2.925-.598-5.887-.85-8.838-1.309-3.158-1.274-6.524-1.517-9.839-2.064-4.114-.51-8.189-1.153-12.275-1.855-4.081-.808-7.934-2.372-11.812-3.825-3.352-1.477-6.93-2.277-10.389-3.432-2.542-1.045-5.275-1.104-7.93-1.658-2.56-.562-4.9-1.672-7.523-1.992-2.873.002-5.609-.894-8.322-1.722-4.185-1.126-8.349-2.328-12.512-3.53-5.69-2.025-11.503-3.617-17.41-4.857-5.713-1.403-11.385-2.981-17.078-4.474-4.732-1.199-9.495-2.221-14.272-3.216-3.979-.844-7.739-2.34-11.516-3.808-3.107-1.454-6.204-2.965-9.454-4.071-3.396-1.271-6.966-2.133-10.519-2.863-2.474-.147-4.901-.504-7.231-1.376-2.396-1.298-5.054-1.225-7.652-1.625-2.593-.711-5.304-.603-7.919-1.101-2.94-.645-5.84-1.445-8.777-2.104-2.454-.583-4.929-.426-7.407-.184-2.738.35-5.497.374-8.252.317-2.641-.214-5.347.172-7.931-.449-.176-.079.942-2.558 1.117-2.479 2.478.398 5.037.073 7.535.286 2.211.035 4.426.048 6.623-.25 3.172-.354 6.368-.509 9.503.243 2.886.682 5.736 1.499 8.645 2.091 2.608.397 5.274.432 7.854 1.068 2.766.35 5.528.552 8.071 1.844 2.258.773 4.596.953 6.955 1.197 3.66.761 7.337 1.614 10.818 2.99 3.237 1.207 6.367 2.667 9.511 4.096 3.658 1.412 7.318 2.809 11.173 3.609 4.834.964 9.651 1.976 14.43 3.188 5.662 1.471 11.286 3.095 16.986 4.405a140.98 140.98 0 0 1 17.548 4.984c4.166 1.226 8.327 2.464 12.506 3.646 2.596.839 5.229 1.516 7.977 1.59 2.63.438 5.038 1.5 7.634 2.049 2.746.533 5.573.644 8.192 1.739 3.507 1.119 7.106 1.972 10.49 3.453 3.742 1.397 7.468 2.89 11.414 3.624 4.077.688 8.156 1.282 12.251 1.855 3.318.515 6.631.956 9.807 2.117 3.01.472 6.046.637 9.03 1.265 5.988 1.274 11.893 2.774 17.687 4.782.168.097-1.202 2.48-1.37 2.384zM31.312 494.77c10.212 8.01 19.066 17.504 27.604 27.227 5.269 6.602 2.889 3.451 7.2 9.405.114.189-2.562 1.797-2.675 1.607-4.439-5.704-2.013-2.671-7.317-9.07-8.48-9.544-17.185-18.886-26.82-27.289-.134-.142 1.874-2.023 2.008-1.88zM25.799 487.832c9.392-4.633 18.817-9.183 27.982-14.254 12.413-6.871 23.911-15.214 35.707-23.057 11.269-7.289 22.937-13.939 34.988-19.841 5.673-2.593 11.096-5.514 16.192-9.097 3.246-2.351 6.371-4.859 9.674-7.129 1.809-1.251 3.655-2.401 5.278-3.889 1.01-1.263 2.013-2.53 3.153-3.679.985-1.166 2.226-2.074 3.406-3.026.134-.141 2.13 1.745 1.996 1.886-1.145.891-2.39 1.697-3.304 2.839-1.23 1.081-2.175 2.438-3.198 3.706-1.703 1.54-3.476 2.933-5.423 4.171-3.277 2.288-6.385 4.802-9.605 7.168-5.161 3.67-10.555 6.87-16.307 9.556-11.854 6.008-23.367 12.662-34.56 19.83-11.89 7.847-23.487 16.183-35.951 23.119a328.283 328.283 0 0 1-28.38 13.906c-.154.118-1.803-2.093-1.648-2.209z"/><path d="M40.47 488.734c14.498-10.41 30.056-19.158 45.776-27.552 20.689-10.681 41.67-20.783 62.011-32.128 7.749-4.175 15.285-8.676 22.469-13.757.138-.143 2.164 1.812 2.026 1.956-6.821 5.718-14.508 10.196-22.225 14.59-20.213 11.603-41.148 21.83-61.917 32.391-15.781 8.255-31.33 16.925-46.282 26.62-.149.132-2.011-1.987-1.861-2.119h.003zM36.383 500.662c14.113-8.117 27.99-16.63 42.006-24.914 20.644-12.173 41.823-23.398 63.312-33.997 9.498-4.653 19.11-9.088 28.905-13.085.151-.115 1.795 2.024 1.644 2.141-2.216 1.422-4.593 2.467-6.978 3.579-7.172 3.343-14.313 6.746-21.38 10.309-21.319 10.764-42.403 21.992-63.067 33.975-14.152 8.171-28.113 16.703-42.672 24.149-.152.125-1.921-2.031-1.77-2.157zM47.247 506.916c15.206-9.838 30.671-19.254 46.197-28.577 21.359-12.75 43.168-24.689 65.481-35.677 5.898-2.983 11.938-5.666 18.003-8.292.175-.124 1.936 2.352 1.761 2.476-5.849 2.936-11.756 5.749-17.555 8.782-22.118 11.175-43.838 23.092-65.199 35.655-15.66 9.242-31.197 18.694-46.909 27.847-.156.126-1.936-2.087-1.779-2.214zM48.014 517.438c13.94-10.745 28.805-20.195 43.656-29.609 19.792-12.396 40.338-23.491 61.402-33.552 4.325-2.032 8.612-4.136 13.056-5.896.168-.114 1.786 2.262 1.618 2.376-4.237 2.043-8.382 4.266-12.603 6.341-20.749 10.393-41.158 21.44-60.909 33.644-14.934 9.292-29.82 18.658-44.267 28.704-.141.137-2.096-1.87-1.953-2.008zM48.549 527.767c15.896-10.338 31.307-21.398 47.053-31.965 13.966-9.153 27.766-18.634 42.226-27.01 5.458-3.161 9.869-5.378 15.389-8.241 3.932-2.019 7.912-3.729 12.218-4.682.184-.087 1.407 2.507 1.224 2.594-4.038.965-7.67 2.863-11.351 4.773-5.058 2.752-10.084 5.432-15.036 8.382-14.312 8.525-28.025 18.025-41.996 27.082-15.92 10.512-31.486 21.622-47.945 31.278-.158.127-1.938-2.086-1.782-2.211zM56.573 535.839c.861-.837 1.679-1.721 2.583-2.51 2.892-2.52 8.033-6.412 10.886-8.551 9.242-6.926 18.668-13.579 28.137-20.189 19.084-13.081 38.377-25.948 58.598-37.22 6.123-3.035 3.31-1.797 8.38-3.854.173-.117 1.831 2.334 1.658 2.451-4.718 2.186-2.072.882-7.876 4.031-19.848 11.685-38.961 24.581-58.057 37.44-9.53 6.503-19.023 13.053-28.423 19.747-1.608 1.146-8.924 6.396-11.027 8.049-.924.727-1.781 1.533-2.673 2.3-.12.156-2.306-1.54-2.186-1.694zM66.167 540.738c13.777-12.604 28.979-23.483 44.192-34.257 16.987-11.59 34.325-22.763 52.765-31.918 4.54-2 2.562-1.2 5.898-2.488.164-.112 1.753 2.218 1.588 2.33-3.069 1.521-1.231.605-5.511 2.756-18.006 9.595-35.18 20.666-52.064 32.099-15.242 10.678-30.368 21.528-44.76 33.344-.131.149-2.24-1.717-2.108-1.866zM96.547 529.868c14.328-13.354 30.3-24.752 46.447-35.772 7.147-4.872 14.306-9.748 21.886-13.929.157-.133 2.043 2.082 1.887 2.216-7.163 4.673-14.197 9.534-21.203 14.439-16.053 11.036-31.881 22.412-46.83 34.921-.133.155-2.319-1.72-2.187-1.875zM97.437 542.544c9.57-5.521 17.93-12.883 26.7-19.547 2.9-2.203 5.845-4.348 8.767-6.521 8.339-6.169 17.11-11.698 25.916-17.162.188-.166 2.537 2.494 2.35 2.66-8.662 5.537-17.319 11.09-25.641 17.134-13.767 10.017-3.814 2.692-16.676 12.361-5.494 4.13-10.978 8.384-16.937 11.842-.917.531-1.888.963-2.832 1.444-.156.116-1.804-2.095-1.647-2.211zM116.573 542.48c9.115-7.378 18.646-14.225 28.229-20.978l5.175-3.457c.167-.156 2.376 2.209 2.209 2.365l-5.073 3.483c-9.55 6.768-19.043 13.616-28.531 20.467-.134.142-2.142-1.739-2.009-1.88zM120.479 550.293c9.994-7.923 19.854-16.015 29.748-24.063l5.653-4.53c.16-.174 2.611 2.098 2.451 2.271l-5.585 4.578c-9.89 8.117-19.821 16.216-30.26 23.625-.132.142-2.14-1.738-2.007-1.881zM138.157 547.34c7.822-5.215 15.617-10.465 23.521-15.555.167-.151 2.312 2.213 2.146 2.364-7.868 5.205-15.687 10.501-23.806 15.31-.15.132-2.01-1.987-1.861-2.119zM151.116 551.608c4.933-2.28 9.858-4.568 14.73-6.976.174-.129 2.002 2.329 1.828 2.459-4.915 2.464-9.896 4.791-15.01 6.823-.162.111-1.711-2.196-1.548-2.306zM162.567 556.869c6.218-3.959 12.419-7.934 18.756-11.701.167-.142 2.174 2.224 2.007 2.366-6.383 3.83-12.642 7.868-19.113 11.546-.157.117-1.807-2.094-1.65-2.211zM173.257 555.516c4.661-2.197 9.498-3.983 14.221-6.044.176-.121 1.882 2.365 1.706 2.486-4.729 2.123-9.566 3.94-14.377 5.864-.163.11-1.713-2.197-1.55-2.306zM182.102 555.567l2.311-1.109c.166-.115 1.8 2.235 1.634 2.351l-2.295.97c-.157.116-1.806-2.095-1.65-2.212zM184.591 561.938c4.705-3.345 9.561-6.473 14.411-9.602.162-.146 2.229 2.15 2.066 2.297-4.853 3.135-9.684 6.304-14.6 9.34-.143.133-2.02-1.904-1.877-2.035zM193.965 562.208c2.844-1.188 5.652-2.454 8.487-3.664.175-.116 1.817 2.354 1.643 2.472-2.91 1.214-5.796 2.495-8.76 3.576-.169.097-1.539-2.287-1.37-2.384zM200.992 566.064c5.34-1.71 10.671-3.417 16.076-4.913.191-.1 1.603 2.611 1.411 2.711-5.432 1.527-10.803 3.257-16.254 4.709-.176.086-1.409-2.421-1.233-2.507zM216.106 568.732c4.263-1.647 8.61-3.078 12.943-4.53.182-.105 1.674 2.468 1.491 2.573a753.931 753.931 0 0 1-13.065 4.341c-.169.097-1.539-2.287-1.369-2.384zM225.492 569.996c5.24-1.982 10.407-4.119 15.785-5.708.181-.099 1.566 2.454 1.387 2.552-5.372 1.656-10.539 3.861-15.879 5.607-.172.092-1.465-2.359-1.293-2.451zM235.654 576.547c3.148-1.318 1.473-.631 5.03-2.054.174-.109 1.729 2.354 1.555 2.464l-5.215 1.974c-.169.096-1.539-2.287-1.37-2.384zM245.285 580.389c4.172-1.059 1.984-.537 6.567-1.545.192-.087 1.42 2.625 1.229 2.712-4.562.913-2.375.466-6.562 1.34-.178.087-1.41-2.419-1.234-2.507zM256.899 581.878a47.553 47.553 0 0 1 17.494-.206c1.308.368 2.633.548 3.979.664.183.064-.735 2.652-.918 2.588a65.95 65.95 0 0 1-4.097-.647c-5.157-.673-10.311-.659-15.458.181-.181.069-1.183-2.509-1-2.58zM238.464 553.001c8.867 3.514 17.623 7.306 26.402 11.033.212.144-1.822 3.151-2.035 3.007-8.713-3.852-17.426-7.71-26.016-11.829-.156-.116 1.493-2.327 1.649-2.211zM212.276 540.971c6.265 2.065 12.065 5.354 17.723 8.701.164.137-1.779 2.467-1.944 2.329-5.541-3.194-11.158-6.366-17.147-8.646-.169-.097 1.2-2.481 1.368-2.384zM264.872 570.331c1.297.058 2.6.032 3.89.173 10.547 1.151 22.18 5.217 32.21 8.567 8.882 3.253 4.639 1.691 12.729 4.683.196.118-1.469 2.891-1.665 2.772-8.156-2.838-3.9-1.341-12.764-4.501-11.014-3.683-22.151-7.515-33.712-9.016-.19.049-.877-2.629-.688-2.678zM345.193 602.413c5.491-2.616 11.142-4.874 16.722-7.29.187-.126 1.961 2.515 1.774 2.641-5.622 2.387-11.304 4.62-16.946 6.956-.164.11-1.713-2.197-1.55-2.307zM337.249 592.175c9.341-3.279 18.728-6.422 28.051-9.749.209-.124 1.962 2.822 1.754 2.946-9.4 3.294-18.868 6.412-28.436 9.187-.168.096-1.538-2.287-1.369-2.384zM355.679 368.918a15.023 15.023 0 0 0-2.863-2.194 9.337 9.337 0 0 0-3.199-1.159c-1.129-.186-2.298-.153-3.503.099-1.207.253-2.465.78-3.774 1.58-1.915 1.17-3.334 2.568-4.256 4.193a11.428 11.428 0 0 0-1.507 5.177c-.083 1.828.169 3.692.755 5.594a23.744 23.744 0 0 0 2.45 5.424 23.748 23.748 0 0 0 3.709 4.653c1.426 1.39 2.97 2.464 4.634 3.223 1.664.759 3.429 1.1 5.295 1.02 1.865-.08 3.756-.705 5.671-1.875 1.411-.862 2.504-1.864 3.282-3.008a9.736 9.736 0 0 0 1.539-3.709c.249-1.329.242-2.697-.019-4.106a16.816 16.816 0 0 0-1.392-4.201l6.146-3.757c1.18 2.231 1.919 4.48 2.218 6.742.3 2.263.171 4.451-.382 6.565-.553 2.115-1.521 4.079-2.904 5.893-1.382 1.813-3.165 3.388-5.348 4.722-2.688 1.643-5.401 2.621-8.139 2.933-2.739.314-5.371.065-7.896-.745-2.525-.81-4.88-2.114-7.065-3.917-2.186-1.801-4.068-3.995-5.648-6.581-1.561-2.553-2.645-5.213-3.251-7.979-.606-2.766-.695-5.458-.264-8.075.431-2.617 1.404-5.08 2.922-7.393 1.517-2.31 3.619-4.287 6.307-5.93 2.016-1.231 4.082-2.114 6.201-2.648 2.119-.534 4.183-.688 6.189-.46 2.007.226 3.892.839 5.655 1.836 1.764.999 3.342 2.411 4.734 4.235l-6.297 3.848zM394.333 379.965c-2.083 1.273-4.149 2.062-6.199 2.37s-4.007.2-5.871-.322c-1.864-.522-3.604-1.442-5.218-2.763-1.614-1.32-3.037-2.988-4.27-5.004-1.211-1.981-2.035-3.99-2.474-6.03-.439-2.039-.466-4.005-.078-5.902.385-1.897 1.182-3.688 2.391-5.373 1.208-1.684 2.854-3.162 4.936-4.435 2.083-1.273 4.148-2.063 6.199-2.371 2.05-.306 4.006-.199 5.872.322 1.863.521 3.603 1.441 5.217 2.762 1.614 1.322 3.027 2.971 4.238 4.952 1.231 2.016 2.066 4.043 2.506 6.082.438 2.039.464 4.006.079 5.903-.387 1.897-1.184 3.688-2.393 5.372-1.208 1.686-2.853 3.164-4.935 4.437zm-2.771-4.535c1.276-.78 2.22-1.726 2.832-2.838a8.212 8.212 0 0 0 1.025-3.532 10.85 10.85 0 0 0-.467-3.765 15.488 15.488 0 0 0-4.08-6.674c-.963-.934-2.009-1.645-3.137-2.132a8.364 8.364 0 0 0-3.596-.675c-1.269.039-2.542.447-3.818 1.227-1.276.78-2.221 1.727-2.832 2.838-.612 1.113-.959 2.281-1.04 3.507s.074 2.48.467 3.764a15.512 15.512 0 0 0 4.08 6.674 10.795 10.795 0 0 0 3.138 2.132 8.213 8.213 0 0 0 3.61.7c1.268-.037 2.54-.445 3.818-1.226zM395.917 342.249l5.441-3.325 2.341 3.829.163.039c-.01-1.977.439-3.81 1.347-5.495.908-1.685 2.218-3.05 3.931-4.097 2.855-1.745 5.558-2.381 8.106-1.911 2.549.473 4.728 2.188 6.534 5.143l10.932 17.886-5.744 3.51-10.008-16.374c-1.32-2.007-2.664-3.227-4.035-3.659-1.371-.43-2.912-.122-4.626.925-.974.596-1.739 1.305-2.296 2.129a6.65 6.65 0 0 0-1.072 2.663 8.037 8.037 0 0 0 .08 2.961 9.165 9.165 0 0 0 1.179 2.947l9.392 15.367-5.743 3.51-15.922-26.048zM422.217 326.175l4.333-2.648-4.773-7.81 5.744-3.511 4.773 7.81 5.189-3.172 2.617 4.282-5.189 3.172 8.499 13.905c.369.605.713 1.11 1.03 1.517.316.405.66.703 1.029.893.37.19.785.247 1.248.171.461-.073 1.012-.307 1.649-.697.403-.246.802-.5 1.194-.763a7.11 7.11 0 0 0 1.102-.915l2.709 4.434c-.597.457-1.178.904-1.74 1.341-.564.437-1.165.85-1.803 1.24-1.512.924-2.817 1.525-3.915 1.804-1.099.28-2.077.301-2.936.065-.86-.235-1.639-.718-2.337-1.445-.697-.726-1.393-1.616-2.082-2.671l-9.393-15.367-4.332 2.648-2.616-4.283zM475.81 321.24c.431.705.831 1.153 1.201 1.341.368.19.822.121 1.359-.208l.605-.37c.234-.143.483-.341.744-.593l2.433 3.979c-.16.192-.375.425-.642.705-.27.279-.551.554-.844.827a12.93 12.93 0 0 1-.916.768c-.316.239-.591.431-.826.574-1.176.719-2.293 1.078-3.353 1.08-1.062.003-2.067-.512-3.021-1.545-.464 1.807-1.374 3.47-2.729 4.99-1.354 1.519-2.805 2.752-4.35 3.696a13.786 13.786 0 0 1-3.668 1.584c-1.271.338-2.507.448-3.709.33a7.914 7.914 0 0 1-3.413-1.167c-1.072-.66-1.997-1.626-2.777-2.904-.986-1.612-1.492-3.102-1.521-4.468-.028-1.367.263-2.629.87-3.785.608-1.156 1.432-2.224 2.471-3.205a44.109 44.109 0 0 1 3.248-2.782 34.855 34.855 0 0 1 2.711-2.245c.889-.657 1.633-1.309 2.232-1.953.598-.642.979-1.302 1.144-1.979.163-.676-.013-1.435-.526-2.274-.451-.738-.996-1.235-1.637-1.49s-1.298-.349-1.973-.283a6.617 6.617 0 0 0-2.045.56c-.689.307-1.32.634-1.892.982-1.612.985-2.733 2.132-3.364 3.44-.631 1.309-.582 2.709.146 4.202l-5.744 3.51c-.926-1.742-1.375-3.382-1.347-4.922s.382-2.978 1.063-4.318c.681-1.336 1.628-2.562 2.84-3.673a25.9 25.9 0 0 1 3.986-2.989 20.902 20.902 0 0 1 4.025-1.907c1.407-.489 2.791-.736 4.151-.738 1.36 0 2.635.293 3.825.881 1.189.587 2.205 1.57 3.047 2.948l8.196 13.401zm-10.179-3.745c-.524 1.106-1.389 2.106-2.593 3.004a50.851 50.851 0 0 0-3.506 2.869c-.543.47-1.043.973-1.502 1.507a6.215 6.215 0 0 0-1.049 1.68 3.885 3.885 0 0 0-.264 1.89c.066.676.326 1.383.777 2.121.391.639.902 1.063 1.539 1.273a4.688 4.688 0 0 0 1.967.216 7.172 7.172 0 0 0 2.036-.518 12.46 12.46 0 0 0 1.78-.88 10.98 10.98 0 0 0 1.912-1.515 8.034 8.034 0 0 0 1.566-2.134 6.424 6.424 0 0 0 .699-2.538c.057-.887-.192-1.786-.746-2.692l-2.616-4.283zM497.92 316.654c-2.083 1.273-4.149 2.062-6.199 2.37-2.05.308-4.007.2-5.87-.322-1.865-.521-3.604-1.441-5.219-2.762-1.614-1.32-3.037-2.989-4.27-5.004-1.211-1.981-2.035-3.99-2.474-6.03-.44-2.039-.466-4.005-.079-5.903.386-1.897 1.183-3.687 2.392-5.373 1.208-1.684 2.853-3.162 4.936-4.435 2.083-1.272 4.148-2.062 6.199-2.37 2.05-.306 4.006-.2 5.872.322 1.863.521 3.602 1.441 5.217 2.762 1.614 1.322 3.027 2.971 4.238 4.952 1.231 2.016 2.066 4.043 2.506 6.082.438 2.039.465 4.006.078 5.903-.387 1.897-1.184 3.688-2.391 5.372-1.209 1.685-2.854 3.164-4.936 4.436zm-2.771-4.535c1.276-.78 2.22-1.726 2.833-2.838a8.21 8.21 0 0 0 1.023-3.533 10.795 10.795 0 0 0-.467-3.764 15.443 15.443 0 0 0-4.079-6.674c-.964-.935-2.009-1.646-3.137-2.132s-2.327-.71-3.596-.674c-1.269.039-2.542.447-3.818 1.227-1.276.78-2.22 1.728-2.832 2.838a8.342 8.342 0 0 0-1.04 3.507c-.081 1.226.074 2.48.467 3.764a15.512 15.512 0 0 0 4.08 6.675 10.815 10.815 0 0 0 3.138 2.132c1.138.503 2.342.737 3.61.7s2.541-.448 3.818-1.228zM53.113 100.31c-.298-2.043-1.117-3.585-2.458-4.629-1.341-1.042-3.033-1.564-5.076-1.564-.937 0-1.938.16-3.001.479-1.064.319-2.043.916-2.937 1.788-.894.873-1.639 2.086-2.234 3.64-.597 1.554-.894 3.586-.894 6.098 0 1.363.16 2.725.479 4.086.319 1.363.83 2.576 1.532 3.639a8.285 8.285 0 0 0 2.713 2.586c1.106.661 2.447.99 4.022.99 2.128 0 3.884-.66 5.268-1.979 1.382-1.319 2.245-3.17 2.585-5.555h7.279c-.682 4.3-2.31 7.588-4.885 9.865-2.576 2.277-5.992 3.416-10.248 3.416-2.597 0-4.884-.437-6.864-1.309-1.979-.872-3.65-2.064-5.012-3.576-1.363-1.51-2.394-3.309-3.097-5.395-.702-2.085-1.053-4.342-1.053-6.768 0-2.468.34-4.789 1.021-6.96.68-2.171 1.702-4.054 3.065-5.65 1.362-1.596 3.054-2.852 5.076-3.767 2.021-.915 4.395-1.373 7.12-1.373 1.915 0 3.735.246 5.459.734 1.724.49 3.256 1.224 4.597 2.203a11.742 11.742 0 0 1 3.288 3.704c.851 1.49 1.362 3.256 1.533 5.299h-7.278zM81.463 123.169c-2.64 0-4.991-.437-7.056-1.309-2.065-.872-3.81-2.075-5.235-3.607-1.427-1.532-2.512-3.362-3.256-5.491-.745-2.128-1.117-4.469-1.117-7.023 0-2.511.372-4.831 1.117-6.959.744-2.128 1.83-3.958 3.256-5.491 1.426-1.532 3.17-2.734 5.235-3.607 2.064-.872 4.416-1.309 7.056-1.309 2.639 0 4.99.437 7.055 1.309 2.064.873 3.809 2.075 5.236 3.607 1.426 1.533 2.511 3.363 3.256 5.491.744 2.129 1.117 4.448 1.117 6.959 0 2.554-.373 4.896-1.117 7.023-.745 2.129-1.831 3.959-3.256 5.491-1.427 1.532-3.171 2.735-5.236 3.607-2.065.872-4.417 1.309-7.055 1.309zm0-5.747c1.617 0 3.022-.34 4.214-1.021a8.873 8.873 0 0 0 2.937-2.682c.767-1.106 1.33-2.352 1.692-3.735a16.74 16.74 0 0 0 0-8.46c-.362-1.405-.926-2.65-1.692-3.735a9.042 9.042 0 0 0-2.937-2.65c-1.192-.68-2.597-1.021-4.214-1.021-1.618 0-3.023.341-4.214 1.021-1.192.682-2.171 1.564-2.937 2.65s-1.331 2.331-1.692 3.735a16.825 16.825 0 0 0-.542 4.214c0 1.448.18 2.863.542 4.246a11.676 11.676 0 0 0 1.692 3.735 8.874 8.874 0 0 0 2.937 2.682c1.191.681 2.595 1.021 4.214 1.021zM104.192 89.264h6.896v4.853l.128.128c1.106-1.83 2.554-3.267 4.342-4.31 1.788-1.042 3.767-1.564 5.938-1.564 3.617 0 6.47.937 8.556 2.81 2.085 1.874 3.129 4.683 3.129 8.428v22.667h-7.279v-20.751c-.086-2.596-.639-4.479-1.66-5.651-1.022-1.17-2.618-1.756-4.789-1.756-1.235 0-2.341.224-3.32.67a7.176 7.176 0 0 0-2.49 1.852c-.682.788-1.213 1.714-1.596 2.778a9.915 9.915 0 0 0-.575 3.384v19.474h-7.279V89.264zM137.521 89.264h5.491v-9.896h7.279v9.896h6.577v5.427h-6.577v17.623c0 .766.032 1.427.096 1.979.064.553.212 1.021.447 1.404.233.383.585.67 1.054.862.468.191 1.106.287 1.916.287.511 0 1.021-.01 1.532-.032a7.587 7.587 0 0 0 1.533-.224v5.619c-.809.085-1.597.17-2.363.255-.766.085-1.554.128-2.362.128-1.916 0-3.459-.182-4.629-.543-1.171-.361-2.086-.894-2.746-1.596-.661-.702-1.107-1.585-1.341-2.649-.234-1.064-.373-2.277-.415-3.64V94.691h-5.491v-5.427zM189.75 114.932c0 .894.117 1.532.351 1.916.233.383.691.575 1.373.575h.766c.297 0 .639-.042 1.022-.128v5.044c-.255.084-.586.181-.99.287-.405.106-.82.202-1.245.288-.426.084-.852.148-1.277.191a11.4 11.4 0 0 1-1.085.064c-1.491 0-2.725-.298-3.704-.894-.979-.596-1.618-1.638-1.916-3.128-1.447 1.404-3.224 2.426-5.331 3.064-2.107.639-4.141.958-6.098.958-1.491 0-2.917-.203-4.278-.607-1.363-.404-2.565-1-3.607-1.788a8.55 8.55 0 0 1-2.49-3.001c-.618-1.213-.926-2.628-.926-4.246 0-2.043.373-3.703 1.118-4.98.744-1.277 1.724-2.277 2.937-3.001 1.213-.723 2.575-1.245 4.086-1.564a47.657 47.657 0 0 1 4.565-.734 37.283 37.283 0 0 1 3.768-.542c1.191-.106 2.245-.288 3.16-.543.915-.255 1.638-.648 2.171-1.181.532-.532.798-1.33.798-2.394 0-.936-.224-1.702-.67-2.299a4.495 4.495 0 0 0-1.66-1.373 7.212 7.212 0 0 0-2.203-.639 17.746 17.746 0 0 0-2.299-.16c-2.043 0-3.725.426-5.044 1.277-1.32.852-2.065 2.171-2.235 3.959h-7.279c.127-2.128.639-3.895 1.532-5.3a10.595 10.595 0 0 1 3.416-3.384c1.383-.851 2.947-1.447 4.693-1.788a27.981 27.981 0 0 1 5.363-.511c1.617 0 3.214.171 4.789.511 1.574.341 2.99.894 4.246 1.66a9.201 9.201 0 0 1 3.033 2.969c.766 1.213 1.149 2.692 1.149 4.438v16.984zm-7.279-9.195c-1.107.724-2.469 1.16-4.086 1.309a54.595 54.595 0 0 0-4.853.67 15.57 15.57 0 0 0-2.235.542 6.718 6.718 0 0 0-1.916.958c-.554.405-.99.937-1.309 1.596-.319.66-.479 1.458-.479 2.395 0 .809.233 1.49.702 2.043.468.554 1.032.99 1.692 1.309a7.85 7.85 0 0 0 2.171.67c.787.127 1.5.191 2.139.191.808 0 1.681-.106 2.618-.319.936-.212 1.82-.575 2.65-1.085s1.521-1.159 2.075-1.947c.553-.787.83-1.756.83-2.905v-5.427zM212.735 123.169c-2.64 0-4.991-.437-7.056-1.309-2.065-.872-3.81-2.075-5.235-3.607-1.427-1.532-2.512-3.362-3.256-5.491-.745-2.128-1.117-4.469-1.117-7.023 0-2.511.372-4.831 1.117-6.959.744-2.128 1.83-3.958 3.256-5.491 1.426-1.532 3.17-2.734 5.235-3.607 2.064-.872 4.416-1.309 7.056-1.309 2.639 0 4.99.437 7.055 1.309 2.064.873 3.809 2.075 5.236 3.607 1.426 1.533 2.511 3.363 3.256 5.491.744 2.129 1.117 4.448 1.117 6.959 0 2.554-.373 4.896-1.117 7.023-.745 2.129-1.831 3.959-3.256 5.491-1.427 1.532-3.171 2.735-5.236 3.607-2.065.872-4.416 1.309-7.055 1.309zm0-5.747c1.617 0 3.022-.34 4.214-1.021a8.873 8.873 0 0 0 2.937-2.682c.767-1.106 1.33-2.352 1.692-3.735a16.74 16.74 0 0 0 0-8.46c-.362-1.405-.926-2.65-1.692-3.735a9.042 9.042 0 0 0-2.937-2.65c-1.192-.68-2.597-1.021-4.214-1.021-1.618 0-3.023.341-4.214 1.021-1.192.682-2.171 1.564-2.937 2.65s-1.331 2.331-1.692 3.735a16.825 16.825 0 0 0-.542 4.214c0 1.448.18 2.863.542 4.246a11.676 11.676 0 0 0 1.692 3.735 8.874 8.874 0 0 0 2.937 2.682c1.191.681 2.596 1.021 4.214 1.021zM234.762 101.46h18.581v6.896h-18.581v-6.896zM256.982 89.264h5.491v-9.896h7.279v9.896h6.577v5.427h-6.577v17.623c0 .766.032 1.427.096 1.979.064.553.212 1.021.447 1.404.233.383.585.67 1.054.862.468.191 1.106.287 1.916.287.511 0 1.021-.01 1.532-.032a7.587 7.587 0 0 0 1.533-.224v5.619c-.809.085-1.597.17-2.363.255-.766.085-1.554.128-2.362.128-1.916 0-3.459-.182-4.629-.543-1.171-.361-2.086-.894-2.746-1.596-.661-.702-1.107-1.585-1.341-2.649-.234-1.064-.373-2.277-.415-3.64V94.691h-5.491v-5.427zM287.246 107.653c0 1.277.181 2.512.542 3.703.361 1.192.904 2.235 1.628 3.129.723.894 1.638 1.607 2.746 2.139 1.106.533 2.426.798 3.958.798 2.128 0 3.841-.457 5.14-1.373 1.297-.915 2.266-2.288 2.904-4.119h6.896c-.383 1.788-1.043 3.384-1.979 4.789a13.823 13.823 0 0 1-3.385 3.543c-1.32.958-2.799 1.682-4.438 2.171s-3.353.734-5.14.734c-2.597 0-4.896-.426-6.896-1.277-2.001-.851-3.693-2.043-5.076-3.575-1.384-1.533-2.426-3.362-3.129-5.491-.702-2.128-1.053-4.47-1.053-7.023 0-2.34.372-4.565 1.117-6.672.744-2.107 1.809-3.958 3.192-5.555a15.273 15.273 0 0 1 5.012-3.799c1.958-.936 4.171-1.405 6.641-1.405 2.595 0 4.925.543 6.992 1.628 2.064 1.085 3.777 2.522 5.139 4.31 1.363 1.788 2.352 3.842 2.971 6.162.615 2.321.775 4.715.479 7.183h-24.261zm16.984-4.789a11.78 11.78 0 0 0-.734-3.32 8.844 8.844 0 0 0-1.66-2.777 8.253 8.253 0 0 0-2.555-1.916c-1-.489-2.117-.734-3.351-.734-1.277 0-2.438.224-3.48.67a7.944 7.944 0 0 0-2.682 1.852 9.169 9.169 0 0 0-1.788 2.778 9.673 9.673 0 0 0-.734 3.448h16.984zM325.939 104.907 314.51 89.264h8.811l6.896 10.152 7.215-10.152h8.428l-11.237 15.26 12.643 17.75h-8.748l-8.364-12.195-8.108 12.195h-8.556l12.449-17.367zM348.03 89.264h5.491v-9.896h7.278v9.896h6.577v5.427h-6.577v17.623c0 .766.032 1.427.097 1.979.063.553.212 1.021.446 1.404.233.383.585.67 1.054.862.468.191 1.106.287 1.915.287.512 0 1.022-.01 1.533-.032a7.567 7.567 0 0 0 1.532-.224v5.619c-.81.085-1.597.17-2.362.255-.767.085-1.555.128-2.362.128-1.916 0-3.459-.182-4.63-.543-1.171-.361-2.086-.894-2.745-1.596-.66-.702-1.107-1.585-1.341-2.649-.234-1.064-.373-2.277-.415-3.64V94.691h-5.491v-5.427zM369.611 89.264h7.726l6.449 24.646h.128l6.193-24.646h7.343l5.938 24.646h.128l6.704-24.646h7.406l-10.344 33.01h-7.47l-6.13-24.518h-.128l-6.065 24.518h-7.662l-10.216-33.01zM422.478 76.686h7.279v6.896h-7.279v-6.896zm0 12.578h7.279v33.01h-7.279v-33.01zM436.525 89.264h26.816v5.108l-18.899 22.156h19.857v5.747h-29.052v-5.108l18.262-22.156h-16.984v-5.747zM497.245 114.932c0 .894.117 1.532.352 1.916.233.383.691.575 1.373.575h.766c.298 0 .639-.042 1.021-.128v5.044a17.13 17.13 0 0 1-.989.287c-.405.106-.82.202-1.245.288-.426.084-.852.148-1.277.191-.426.042-.788.064-1.085.064-1.49 0-2.725-.298-3.703-.894-.98-.596-1.618-1.638-1.916-3.128-1.447 1.404-3.225 2.426-5.331 3.064-2.107.639-4.141.958-6.098.958-1.49 0-2.916-.203-4.278-.607-1.362-.404-2.564-1-3.607-1.788a8.561 8.561 0 0 1-2.49-3.001c-.617-1.213-.926-2.628-.926-4.246 0-2.043.372-3.703 1.117-4.98.745-1.277 1.725-2.277 2.938-3.001 1.213-.723 2.575-1.245 4.086-1.564s3.033-.563 4.565-.734a37.283 37.283 0 0 1 3.768-.542c1.191-.106 2.244-.288 3.16-.543.915-.255 1.639-.648 2.171-1.181.532-.532.798-1.33.798-2.394 0-.936-.223-1.702-.67-2.299a4.503 4.503 0 0 0-1.66-1.373 7.204 7.204 0 0 0-2.203-.639 17.731 17.731 0 0 0-2.298-.16c-2.044 0-3.726.426-5.045 1.277-1.319.852-2.064 2.171-2.234 3.959h-7.279c.128-2.128.639-3.895 1.533-5.3a10.595 10.595 0 0 1 3.416-3.384c1.383-.851 2.946-1.447 4.692-1.788a27.981 27.981 0 0 1 5.363-.511c1.617 0 3.214.171 4.789.511 1.574.341 2.99.894 4.246 1.66a9.188 9.188 0 0 1 3.032 2.969c.767 1.213 1.149 2.692 1.149 4.438v16.984zm-7.278-9.195c-1.107.724-2.47 1.16-4.087 1.309a54.595 54.595 0 0 0-4.853.67c-.766.127-1.511.309-2.234.542a6.718 6.718 0 0 0-1.916.958 4.216 4.216 0 0 0-1.309 1.596c-.319.66-.479 1.458-.479 2.395 0 .809.233 1.49.702 2.043.468.554 1.031.99 1.692 1.309a7.84 7.84 0 0 0 2.171.67c.787.127 1.5.191 2.139.191.808 0 1.681-.106 2.618-.319.936-.212 1.819-.575 2.649-1.085s1.521-1.159 2.075-1.947c.553-.787.83-1.756.83-2.905v-5.427zM505.099 89.264h6.832v6.385h.128c.212-.894.627-1.766 1.245-2.618a12.118 12.118 0 0 1 2.234-2.331 11.304 11.304 0 0 1 2.905-1.692 8.7 8.7 0 0 1 3.256-.639c.852 0 1.437.022 1.756.064.319.043.648.086.99.128v7.023a35.225 35.225 0 0 0-1.564-.224 13.11 13.11 0 0 0-1.564-.096 8.363 8.363 0 0 0-3.479.734 7.994 7.994 0 0 0-2.842 2.171c-.809.958-1.447 2.139-1.915 3.543-.469 1.405-.703 3.023-.703 4.853v15.707H505.1V89.264zM557.52 122.274h-6.896v-4.469h-.128c-.979 1.915-2.405 3.288-4.278 4.118s-3.853 1.245-5.938 1.245c-2.597 0-4.863-.458-6.8-1.373-1.938-.915-3.544-2.16-4.821-3.735-1.276-1.575-2.234-3.437-2.873-5.587-.639-2.149-.958-4.458-.958-6.928 0-2.979.404-5.555 1.214-7.726.808-2.171 1.883-3.958 3.224-5.363s2.874-2.436 4.598-3.097a14.641 14.641 0 0 1 5.268-.99c1.021 0 2.064.096 3.129.288 1.063.191 2.085.5 3.064.926.979.426 1.884.969 2.714 1.628a9.059 9.059 0 0 1 2.075 2.331h.127V76.686h7.279v45.588zm-25.412-16.153c0 1.405.181 2.788.543 4.15.36 1.363.914 2.576 1.66 3.64a8.38 8.38 0 0 0 2.841 2.554c1.149.639 2.511.958 4.087.958 1.617 0 3.011-.34 4.182-1.021a8.664 8.664 0 0 0 2.873-2.682c.744-1.106 1.298-2.352 1.66-3.735.361-1.383.543-2.798.543-4.246 0-3.66-.82-6.513-2.458-8.556-1.64-2.043-3.863-3.065-6.673-3.065-1.703 0-3.14.351-4.31 1.054a8.844 8.844 0 0 0-2.873 2.746c-.745 1.128-1.277 2.405-1.597 3.831a19.943 19.943 0 0 0-.478 4.372zM397.463 465.881l14.63-8.568c2.698-1.58 5.324-1.529 7.874.146 2.548 1.679 4.751 5.173 6.61 10.494 1.128 3.228 1.724 6.215 1.789 8.959.065 2.742-.365 5.151-1.289 7.226l.062.18c2.132-.262 4.178.771 6.138 3.103 1.958 2.333 3.698 5.678 5.221 10.04.876 2.511 1.488 4.983 1.835 7.417.347 2.437.355 4.717.025 6.841-.33 2.127-1.021 4.077-2.075 5.853-1.055 1.776-2.532 3.246-4.436 4.415l-13.567 8.337-22.817-64.443zm14.784 23.861 8.532-5.099c1.255-.75 2.033-2.139 2.333-4.167.303-2.026-.049-4.475-1.057-7.35-1.133-3.233-2.309-5.285-3.526-6.155-1.219-.87-2.543-.887-3.974-.043l-8.576 5.058 6.268 17.756zm9.959 28.209 9.166-5.594c1.576-.962 2.49-2.592 2.742-4.89.254-2.295-.186-5.062-1.317-8.293-1.11-3.173-2.402-5.347-3.875-6.525-1.474-1.179-3.004-1.294-4.59-.341l-9.221 5.545 7.095 20.098zM467.519 501.296l-4.634 2.847-2.218-6.424-.083.051c.222 2.676.001 5.064-.66 7.163-.661 2.103-1.583 3.52-2.769 4.249-2.811 1.729-5.368 1.473-7.671-.771-2.306-2.243-4.52-6.411-6.641-12.502l-10.229-29.373 4.781-2.838 9.847 28.353c1.408 4.056 2.762 6.698 4.06 7.928 1.299 1.231 2.597 1.449 3.896.655a5.17 5.17 0 0 0 2.146-2.504c.438-1.06.674-2.266.708-3.62.034-1.353-.125-2.857-.479-4.514a44.268 44.268 0 0 0-1.455-5.16l-9.243-26.763 4.781-2.838 15.863 46.061zM456.688 452.248l4.529-2.688 2.312 6.753.145.128c-.146-2.978.12-5.542.797-7.69.68-2.146 1.732-3.644 3.159-4.489 2.377-1.41 4.693-1.221 6.945.562 2.251 1.783 4.258 5.27 6.021 10.464l10.665 31.42-4.716 2.897-9.806-28.804c-1.282-3.568-2.535-5.968-3.757-7.194-1.224-1.225-2.547-1.414-3.97-.565-.811.483-1.43 1.228-1.858 2.23-.429 1.007-.679 2.19-.751 3.551-.071 1.363.022 2.86.278 4.49a29.273 29.273 0 0 0 1.237 4.936l9.278 27.101-4.716 2.897-15.792-45.999zM516.368 471.28l-4.468 2.745-2.064-6.161-.083.05c.25 3.031-.04 5.49-.869 7.379-.83 1.894-1.918 3.254-3.269 4.084-1.682 1.035-3.363 1.305-5.045.81-1.683-.493-3.306-1.576-4.87-3.251-1.566-1.67-3.061-3.869-4.483-6.594-1.423-2.723-2.713-5.795-3.871-9.214-1.396-4.124-2.341-7.851-2.828-11.173-.487-3.321-.62-6.218-.397-8.685.223-2.468.748-4.491 1.571-6.078.825-1.583 1.825-2.724 2.999-3.42a6.775 6.775 0 0 1 2.189-.823 5.75 5.75 0 0 1 2.442.084c.841.206 1.686.602 2.535 1.187.851.586 1.663 1.387 2.439 2.403l.084-.05-7.787-23.236 4.807-2.815 20.968 62.758zm-24.004-12.223a43.155 43.155 0 0 0 2.291 5.524c.87 1.741 1.797 3.199 2.777 4.375.98 1.178 1.993 1.979 3.035 2.403 1.044.427 2.077.328 3.1-.297 1.05-.642 1.798-1.664 2.242-3.07.444-1.402.653-3.015.625-4.836-.027-1.821-.242-3.756-.646-5.807a48.75 48.75 0 0 0-1.607-6.066c-1.69-5.046-3.544-8.655-5.562-10.831-2.02-2.176-3.95-2.716-5.792-1.617-1.115.666-1.895 1.714-2.334 3.141-.44 1.429-.641 3.069-.603 4.921.039 1.853.287 3.825.743 5.924a58.536 58.536 0 0 0 1.731 6.236zM500.754 405.387l4.807-2.815 20.775 62.583-4.716 2.897-20.866-62.665zM528.538 439.719a32.575 32.575 0 0 0 2.027 4.856c.772 1.489 1.597 2.703 2.471 3.638.874.938 1.79 1.552 2.75 1.841.957.29 1.935.129 2.929-.479 1.382-.845 2.288-2.15 2.721-3.916.434-1.764.449-4.021.045-6.774l4.487-2.728c.548 2.591.83 5.028.848 7.314.019 2.289-.186 4.349-.614 6.18-.427 1.831-1.062 3.41-1.903 4.729-.843 1.321-1.842 2.339-3 3.051-1.682 1.035-3.362 1.366-5.042.998-1.682-.369-3.316-1.329-4.908-2.879-1.593-1.55-3.099-3.646-4.521-6.285-1.424-2.641-2.715-5.713-3.874-9.214a56.902 56.902 0 0 1-2.299-9.587c-.468-3.181-.611-6.136-.427-8.864.184-2.727.709-5.113 1.572-7.159.863-2.044 2.106-3.549 3.729-4.511 1.705-1.011 3.48-1.178 5.322-.501 1.841.676 3.607 1.968 5.3 3.875 1.689 1.905 3.253 4.319 4.69 7.239 1.438 2.922 2.607 6.124 3.513 9.604l-15.816 9.572zm8.928-13.237a28.465 28.465 0 0 0-1.965-4.244c-.741-1.294-1.518-2.342-2.33-3.142-.812-.8-1.657-1.338-2.532-1.616s-1.718-.176-2.526.306c-.838.5-1.497 1.26-1.979 2.278-.481 1.021-.789 2.216-.921 3.583-.134 1.371-.105 2.872.083 4.504a27.495 27.495 0 0 0 1.079 5.01l11.091-6.679z"/></svg>