<svg xmlns="http://www.w3.org/2000/svg" xml:space="preserve" id="Logo" x="0" y="0" style="enable-background:new 0 0 265 265" version="1.1" viewBox="0 0 265 265"><style>.st0{fill:#0096d5}</style><linearGradient id="SVGID_1_" x1="-573.445" x2="-572.738" y1="595.28" y2="594.573" gradientUnits="userSpaceOnUse"><stop offset="0" style="stop-color:#259e2e"/><stop offset=".983" style="stop-color:#1c381d"/></linearGradient><g id="Schrift_HiGru_1_"><path d="M35.6 257.5c-1.8 1.4-4.9 2.5-8.2 2.5-6.5 0-10.7-5.1-10.7-12.1v-19H9.8v-10h6.8v-10.4l10.6-5.3v15.7h9.7v10h-9.7V245c0 3.8 1.4 4.8 3.9 4.8 1.9 0 3.4-.8 6-3.1l-1.5 10.8zM70.6 231.2c-1.7-1.5-3.8-2.6-6.1-2.6-4.1 0-6.8 1.8-6.8 8.8v21.8H47v-40.3h10.6v2.7c1.8-1.9 4.5-3.5 8.3-3.5 3.5 0 6.1 1.4 7.4 2.8l-2.7 10.3zM85.5 215.5c-3.3 0-6.1-2.8-6.1-6.1s2.8-6.1 6.1-6.1 6.1 2.8 6.1 6.1c0 3.4-2.8 6.1-6.1 6.1zm-5.3 43.6v-40.3h10.6v40.3H80.2zM101.9 259.1v-50.7l10.6-5.3v56h-10.6zM139.3 260c-10.5 0-18.2-8.6-18.2-21s7.7-21 18.2-21 18.3 8.7 18.3 21-7.8 21-18.3 21zm0-31.8c-5.1 0-7.4 4.6-7.4 10.8 0 6.2 2.4 10.7 7.4 10.7 5.1 0 7.5-5.1 7.5-10.7 0-6.1-2.5-10.8-7.5-10.8zM184.8 260c-3.5 0-6.6-1.4-8.5-3.1v2.3h-10.6v-50.7l10.6-5.3v18.2c2-1.8 4.7-3.4 8.5-3.4 8.6 0 15.7 6.4 15.7 21.5 0 12-5.7 20.5-15.7 20.5zm-2-32c-3.3 0-5 1.4-6.5 3.4v15.2c1.6 2.2 4.1 3.5 7.1 3.5 4.1 0 6.3-3.5 6.3-10.3.1-8.4-2.7-11.8-6.9-11.8zM214.5 215.5c-3.3 0-6.1-2.8-6.1-6.1s2.8-6.1 6.1-6.1 6.1 2.8 6.1 6.1c0 3.4-2.8 6.1-6.1 6.1zm-5.3 43.6v-40.3h10.6v40.3h-10.6zM253 257.5c-1.8 1.4-4.9 2.5-8.2 2.5-6.5 0-10.7-5.1-10.7-12.1v-19h-6.8v-10h6.8v-10.4l10.6-5.3v15.7h9.7v10h-9.7V245c0 3.8 1.4 4.8 3.9 4.8 1.9 0 3.4-.8 6-3.1l-1.6 10.8z" class="st0"/></g><path id="Punktraster_1_" d="M25 180.3c0-.7.5-1.2 1.2-1.2.6 0 1.2.5 1.2 1.2s-.5 1.2-1.2 1.2c-.6 0-1.2-.6-1.2-1.2zm11.2-3.2c0-.8.6-1.4 1.4-1.4.8 0 1.4.6 1.4 1.4 0 .8-.6 1.4-1.4 1.4-.7 0-1.4-.6-1.4-1.4zm11.8-2.5c0-.9.8-1.7 1.7-1.7.9 0 1.7.8 1.7 1.7 0 .9-.8 1.7-1.7 1.7-1 0-1.7-.8-1.7-1.7zm12.2-2.1c0-1.1.9-2 2-2s2 .9 2 2-.9 2-2 2-2-.9-2-2zm12.7-1.5c0-1.4 1.1-2.4 2.4-2.4 1.4 0 2.4 1.1 2.4 2.4 0 1.4-1.1 2.4-2.4 2.4-1.3.1-2.4-1-2.4-2.4zm13.3-1c0-1.6 1.3-2.9 2.9-2.9 1.6 0 2.9 1.3 2.9 2.9 0 1.6-1.3 2.9-2.9 2.9-1.6.1-2.9-1.2-2.9-2.9zm13.8-.3c0-1.9 1.6-3.5 3.5-3.5s3.5 1.6 3.5 3.5-1.6 3.5-3.5 3.5-3.5-1.6-3.5-3.5zm14.5.2c0-2.3 1.9-4.2 4.2-4.2 2.3 0 4.2 1.9 4.2 4.2 0 2.3-1.9 4.2-4.2 4.2-2.4.1-4.2-1.8-4.2-4.2zm15 .9c0-2.8 2.3-5.1 5.1-5.1s5.1 2.3 5.1 5.1-2.3 5.1-5.1 5.1-5.1-2.3-5.1-5.1zm15.8 1.6c0-3.4 2.7-6.1 6.1-6.1 3.4 0 6.1 2.7 6.1 6.1 0 3.4-2.7 6.1-6.1 6.1-3.4 0-6.1-2.7-6.1-6.1zm16.3 2.4c0-4 3.3-7.3 7.3-7.3s7.3 3.3 7.3 7.3-3.3 7.3-7.3 7.3-7.3-3.3-7.3-7.3zm47.9-9.5c-.9 2.2-2.7 3.9-4.9 4.8h1.1c5.4.2 9.7 4.4 10.1 9.6.9-1.5 2.1-2.8 3.4-3.8-5.5-.4-9.8-5-9.7-10.6zm-2-18.4c.1-4.8 4.1-8.7 8.9-8.6 4.8.1 8.7 4.1 8.6 8.9-.1 3.4-2.1 6.3-4.9 7.7 6.1.2 10.7 5.1 10.5 10.9-.1 3.1-1.5 5.8-3.8 7.7 7.4.3 12.8 6.1 12.6 13.1-.2 7-6.1 12.4-13 12.2-6.7-.2-12-5.7-12.2-12.3-2 2.9-5.3 4.8-9.1 4.7-5.8-.2-10.3-5.1-10.1-10.9-1.1 3.2-4.5 5.8-8.5 5.7-4.8-.1-8.7-4.1-8.6-8.9.1-4.8 4.1-8.7 8.9-8.6 4.8.1 8.7 4.1 8.6 8.9.9-2.9 3.4-5.5 6.5-6.6-5.4-.1-9.2-4.1-9.1-8.9.1-4.8 4.1-8.7 8.9-8.6 4.7.1 8.5 3.9 8.6 8.5 1-2.7 3.1-4.8 5.7-6-4.9-.3-8.6-4.2-8.5-8.9zM40.9 166.8c0-.6.5-1.2 1.2-1.2.6 0 1.2.5 1.2 1.2s-.5 1.2-1.2 1.2-1.2-.6-1.2-1.2zm11.2-3.2c0-.8.6-1.4 1.4-1.4.8 0 1.4.6 1.4 1.4 0 .8-.6 1.4-1.4 1.4-.8 0-1.4-.7-1.4-1.4zm11.6-2.8c0-.9.8-1.7 1.7-1.7.9 0 1.7.8 1.7 1.7 0 .9-.8 1.7-1.7 1.7-.9 0-1.7-.8-1.7-1.7zm12-1.9c0-1.1.9-2 2-2s2 .9 2 2-.9 2-2 2c-1 .1-2-.8-2-2zm-19-5.4c0-.7.5-1.2 1.2-1.2.6 0 1.2.5 1.2 1.2s-.5 1.2-1.2 1.2-1.2-.5-1.2-1.2zm11.2-3.5c0-.8.6-1.4 1.4-1.4.8 0 1.4.6 1.4 1.4s-.6 1.4-1.4 1.4c-.8.1-1.4-.6-1.4-1.4zm11.5-2.7c0-.9.8-1.7 1.7-1.7.9 0 1.7.8 1.7 1.7 0 .9-.8 1.7-1.7 1.7-.9 0-1.7-.7-1.7-1.7zm12.2-2.2c0-1.1.9-2 2-2s2 .9 2 2-.9 2-2 2c-1.1.1-2-.8-2-2zm-19-5.1c0-.7.5-1.2 1.2-1.2s1.2.5 1.2 1.2-.5 1.2-1.2 1.2-1.2-.6-1.2-1.2zm11.1-3.3c0-.8.6-1.4 1.4-1.4.8 0 1.4.6 1.4 1.4 0 .8-.6 1.4-1.4 1.4-.8 0-1.4-.7-1.4-1.4zm11.5-3c0-.9.8-1.7 1.7-1.7.9 0 1.7.8 1.7 1.7 0 .9-.8 1.7-1.7 1.7-.9 0-1.7-.7-1.7-1.7zm12-2.3c0-1.1.9-2 2-2s2 .9 2 2-.9 2-2 2c-1.1.1-2-.8-2-2zm-18.7-5c0-.6.5-1.2 1.2-1.2.6 0 1.2.5 1.2 1.2s-.5 1.2-1.2 1.2-1.2-.5-1.2-1.2zm11-3.2c0-.8.6-1.4 1.4-1.4.8 0 1.4.6 1.4 1.4 0 .8-.6 1.4-1.4 1.4-.8 0-1.4-.7-1.4-1.4zm11.4-3c0-.9.8-1.7 1.7-1.7.9 0 1.7.8 1.7 1.7 0 .9-.8 1.7-1.7 1.7-.9 0-1.7-.7-1.7-1.7zm11.9-2.5c0-1.1.9-2 2-2s2 .9 2 2-.9 2-2 2c-1.1.1-2-.8-2-2zm-18.5-4.5c0-.7.5-1.2 1.2-1.2s1.2.5 1.2 1.2c0 .6-.5 1.2-1.2 1.2s-1.2-.5-1.2-1.2zm10.9-3.5c0-.8.6-1.4 1.4-1.4.8 0 1.4.6 1.4 1.4 0 .8-.6 1.4-1.4 1.4-.8 0-1.4-.6-1.4-1.4zm11.5-3c0-.9.8-1.7 1.7-1.7.9 0 1.7.8 1.7 1.7 0 .9-.8 1.7-1.7 1.7-.9 0-1.7-.8-1.7-1.7zm11.9-2.7c0-1.1.9-2 2-2s2 .9 2 2-.9 2-2 2-2-.9-2-2zm-18.5-4.2c0-.6.5-1.2 1.2-1.2.6 0 1.2.5 1.2 1.2s-.5 1.2-1.2 1.2c-.6 0-1.2-.5-1.2-1.2zm11-3.6c0-.8.6-1.4 1.4-1.4.8 0 1.4.6 1.4 1.4 0 .8-.6 1.4-1.4 1.4-.8.1-1.4-.6-1.4-1.4zm11.3-3.1c0-.9.8-1.7 1.7-1.7.9 0 1.7.8 1.7 1.7 0 .9-.8 1.7-1.7 1.7-.9 0-1.7-.8-1.7-1.7zm11.9-2.9c0-1.1.9-2 2-2s2 .9 2 2-.9 2-2 2c-1.1.1-2-.8-2-2zm-18.5-3.9c0-.6.5-1.2 1.2-1.2s1.2.5 1.2 1.2-.5 1.2-1.2 1.2-1.2-.5-1.2-1.2zm11-3.5c0-.8.6-1.4 1.4-1.4.8 0 1.4.6 1.4 1.4 0 .8-.6 1.4-1.4 1.4-.8 0-1.4-.6-1.4-1.4zm11.4-3.2c0-.9.8-1.7 1.7-1.7.9 0 1.7.8 1.7 1.7 0 .9-.8 1.7-1.7 1.7-.9 0-1.7-.7-1.7-1.7zm11.8-2.9c0-1.1.9-2 2-2s2 .9 2 2-.9 2-2 2-2-.9-2-2zm-18.3-3.8c0-.7.5-1.2 1.2-1.2.6 0 1.2.5 1.2 1.2s-.5 1.2-1.2 1.2c-.6 0-1.2-.5-1.2-1.2zm10.9-3.6c0-.8.6-1.4 1.4-1.4.8 0 1.4.6 1.4 1.4 0 .8-.6 1.4-1.4 1.4-.7 0-1.4-.6-1.4-1.4zm11.4-3.2c0-.9.8-1.7 1.7-1.7.9 0 1.7.8 1.7 1.7 0 .9-.8 1.7-1.7 1.7-.9 0-1.7-.8-1.7-1.7zm11.7-3c0-1.1.9-2 2-2s2 .9 2 2-.9 2-2 2-2-.9-2-2zm-18.1-3.4c0-.7.5-1.2 1.2-1.2s1.2.5 1.2 1.2-.5 1.2-1.2 1.2-1.2-.5-1.2-1.2zm10.9-3.7c0-.8.6-1.4 1.4-1.4.8 0 1.4.6 1.4 1.4 0 .8-.6 1.4-1.4 1.4-.8 0-1.4-.6-1.4-1.4zm11.2-3.4c0-.9.8-1.7 1.7-1.7.9 0 1.7.8 1.7 1.7 0 .9-.8 1.7-1.7 1.7-.9 0-1.7-.8-1.7-1.7zm11.8-3c0-1.1.9-2 2-2s2 .9 2 2-.9 2-2 2-2-.9-2-2zm-18.1-3.4c0-.7.5-1.2 1.2-1.2s1.2.5 1.2 1.2c0 .6-.5 1.2-1.2 1.2s-1.2-.6-1.2-1.2zm10.9-3.8c0-.8.6-1.4 1.4-1.4.8 0 1.4.6 1.4 1.4 0 .8-.6 1.4-1.4 1.4-.8 0-1.4-.6-1.4-1.4zm11.2-3.5c0-.9.8-1.7 1.7-1.7.9 0 1.7.8 1.7 1.7 0 .9-.8 1.7-1.7 1.7-1 0-1.7-.8-1.7-1.7zm11.7-2.9c0-1.1.9-2 2-2s2 .9 2 2-.9 2-2 2c-1.1.1-2-.8-2-2zm-17.8-3.1c0-.7.5-1.2 1.2-1.2s1.2.5 1.2 1.2c0 .6-.5 1.2-1.2 1.2s-1.2-.5-1.2-1.2zm10.7-4c0-.8.6-1.4 1.4-1.4.8 0 1.4.6 1.4 1.4 0 .8-.6 1.4-1.4 1.4-.8 0-1.4-.6-1.4-1.4zm11.1-3.4c0-.9.8-1.7 1.7-1.7.9 0 1.7.8 1.7 1.7 0 .9-.8 1.7-1.7 1.7-.9 0-1.7-.8-1.7-1.7zm-6.2-5.9c0-.7.5-1.2 1.2-1.2s1.2.5 1.2 1.2-.5 1.2-1.2 1.2c-.6 0-1.2-.6-1.2-1.2zm10.8-3.9c0-.8.6-1.4 1.4-1.4.8 0 1.4.6 1.4 1.4 0 .8-.6 1.4-1.4 1.4-.7 0-1.4-.6-1.4-1.4zm5-9.5c0-.7.5-1.2 1.2-1.2.6 0 1.2.5 1.2 1.2s-.5 1.2-1.2 1.2c-.6 0-1.2-.6-1.2-1.2zm-142.3 151c0-1.4 1.1-2.4 2.4-2.4 1.4 0 2.4 1.1 2.4 2.4 0 1.4-1.1 2.4-2.4 2.4-1.4 0-2.4-1.1-2.4-2.4zm13.2-1.2c0-1.6 1.3-2.9 2.9-2.9 1.6 0 2.9 1.3 2.9 2.9 0 1.6-1.3 2.9-2.9 2.9-1.6 0-2.9-1.3-2.9-2.9zm13.7-.5c0-1.9 1.6-3.5 3.5-3.5s3.5 1.6 3.5 3.5-1.6 3.5-3.5 3.5c-1.9.1-3.5-1.5-3.5-3.5zm14.3.2c0-2.3 1.9-4.2 4.2-4.2 2.3 0 4.2 1.9 4.2 4.2 0 2.3-1.9 4.2-4.2 4.2-2.3 0-4.2-1.9-4.2-4.2zm-25.5-12.5c0-1.3 1.1-2.4 2.4-2.4 1.4 0 2.4 1.1 2.4 2.4 0 1.4-1.1 2.4-2.4 2.4-1.3.1-2.4-1-2.4-2.4zm13-1.1c0-1.6 1.3-2.9 2.9-2.9 1.6 0 2.9 1.3 2.9 2.9 0 1.6-1.3 2.9-2.9 2.9-1.6 0-2.9-1.3-2.9-2.9zm13.6-.7c0-1.9 1.6-3.5 3.5-3.5s3.5 1.6 3.5 3.5-1.6 3.5-3.5 3.5-3.5-1.6-3.5-3.5zm14.2-.2c0-2.3 1.9-4.2 4.2-4.2 2.3 0 4.2 1.9 4.2 4.2 0 2.3-1.9 4.2-4.2 4.2-2.3 0-4.2-1.9-4.2-4.2zm-25.2-11.7c0-1.4 1.1-2.4 2.4-2.4 1.3 0 2.4 1.1 2.4 2.4s-1.1 2.4-2.4 2.4c-1.3 0-2.4-1.1-2.4-2.4zm12.9-1.4c0-1.6 1.3-2.9 2.9-2.9 1.6 0 2.9 1.3 2.9 2.9 0 1.6-1.3 2.9-2.9 2.9-1.6 0-2.9-1.3-2.9-2.9zm13.5-.8c0-1.9 1.6-3.5 3.5-3.5s3.5 1.6 3.5 3.5-1.6 3.5-3.5 3.5-3.5-1.6-3.5-3.5zm14.1-.5c0-2.3 1.9-4.2 4.2-4.2 2.3 0 4.2 1.9 4.2 4.2 0 2.3-1.9 4.2-4.2 4.2-2.3 0-4.2-1.9-4.2-4.2zm-25-11c0-1.4 1.1-2.4 2.4-2.4 1.3 0 2.4 1.1 2.4 2.4 0 1.4-1.1 2.4-2.4 2.4-1.3.1-2.4-1-2.4-2.4zm13-1.5c0-1.6 1.3-2.9 2.9-2.9 1.6 0 2.9 1.3 2.9 2.9 0 1.6-1.3 2.9-2.9 2.9-1.6 0-2.9-1.3-2.9-2.9zm13.4-1.1c0-1.9 1.6-3.5 3.5-3.5s3.5 1.6 3.5 3.5-1.6 3.5-3.5 3.5-3.5-1.6-3.5-3.5zm14.1-.3c0-2.3 1.9-4.2 4.2-4.2 2.3 0 4.2 1.9 4.2 4.2 0 2.3-1.9 4.2-4.2 4.2-2.3 0-4.2-1.9-4.2-4.2zM151 102c0-1.3 1.1-2.4 2.4-2.4 1.4 0 2.4 1.1 2.4 2.4 0 1.4-1.1 2.4-2.4 2.4-1.3 0-2.4-1.1-2.4-2.4zm12.8-1.7c0-1.6 1.3-2.9 2.9-2.9 1.6 0 2.9 1.3 2.9 2.9 0 1.6-1.3 2.9-2.9 2.9-1.6.1-2.9-1.3-2.9-2.9zm13.4-1.1c0-1.9 1.6-3.5 3.5-3.5s3.5 1.6 3.5 3.5-1.6 3.5-3.5 3.5-3.5-1.6-3.5-3.5zm13.9-.6c0-2.3 1.9-4.2 4.2-4.2 2.3 0 4.2 1.9 4.2 4.2 0 2.3-1.9 4.2-4.2 4.2-2.3 0-4.2-1.9-4.2-4.2zm-24.5-10.4c0-1.4 1.1-2.4 2.4-2.4 1.4 0 2.4 1.1 2.4 2.4 0 1.4-1.1 2.4-2.4 2.4-1.3.1-2.4-1-2.4-2.4zm12.8-1.7c0-1.6 1.3-2.9 2.9-2.9 1.6 0 2.9 1.3 2.9 2.9 0 1.6-1.3 2.9-2.9 2.9-1.6 0-2.9-1.3-2.9-2.9zm13.3-1.3c0-1.9 1.6-3.5 3.5-3.5s3.5 1.6 3.5 3.5-1.6 3.5-3.5 3.5c-2 0-3.5-1.5-3.5-3.5zm13.7-.7c0-2.3 1.9-4.2 4.2-4.2s4.2 1.9 4.2 4.2c0 2.3-1.9 4.2-4.2 4.2s-4.2-1.9-4.2-4.2zm-24.2-10.1c0-1.4 1.1-2.4 2.4-2.4 1.4 0 2.4 1.1 2.4 2.4 0 1.3-1.1 2.4-2.4 2.4-1.3 0-2.4-1.1-2.4-2.4zm12.8-1.8c0-1.6 1.3-2.9 2.9-2.9 1.6 0 2.9 1.3 2.9 2.9 0 1.6-1.3 2.9-2.9 2.9-1.6.1-2.9-1.3-2.9-2.9zm13.2-1.3c0-1.9 1.6-3.5 3.5-3.5s3.5 1.6 3.5 3.5-1.6 3.5-3.5 3.5c-2 0-3.5-1.6-3.5-3.5zM198 60.6c0-1.4 1.1-2.4 2.4-2.4 1.4 0 2.4 1.1 2.4 2.4 0 1.4-1.1 2.4-2.4 2.4-1.3 0-2.4-1.1-2.4-2.4zm12.5-1.8c0-1.6 1.3-2.9 2.9-2.9 1.6 0 2.9 1.3 2.9 2.9 0 1.6-1.3 2.9-2.9 2.9-1.6 0-2.9-1.3-2.9-2.9zm3-11.8c0-1.4 1.1-2.4 2.4-2.4 1.4 0 2.4 1.1 2.4 2.4 0 1.4-1.1 2.4-2.4 2.4-1.3 0-2.4-1.1-2.4-2.4zm-68.8 109.1c0-2.8 2.3-5.1 5.1-5.1s5.1 2.3 5.1 5.1-2.3 5.1-5.1 5.1c-2.9-.1-5.1-2.3-5.1-5.1zm15.4 1.4c0-3.4 2.7-6.1 6.1-6.1 3.4 0 6.1 2.7 6.1 6.1 0 3.4-2.7 6.1-6.1 6.1-3.4 0-6.1-2.7-6.1-6.1zm16.4 2.1c0-4 3.3-7.3 7.3-7.3s7.3 3.3 7.3 7.3-3.3 7.3-7.3 7.3-7.3-3.3-7.3-7.3zm-16.7-17.8c0-2.8 2.3-5.1 5.1-5.1s5.1 2.3 5.1 5.1-2.3 5.1-5.1 5.1c-2.8-.1-5.1-2.3-5.1-5.1zm15.4 1.1c0-3.4 2.7-6.1 6.1-6.1 3.4 0 6.1 2.7 6.1 6.1 0 3.4-2.7 6.1-6.1 6.1-3.4 0-6.1-2.7-6.1-6.1zm16 1.8c0-4 3.3-7.3 7.3-7.3s7.3 3.3 7.3 7.3-3.3 7.3-7.3 7.3c-4.1 0-7.3-3.2-7.3-7.3zM175 127.2c0-2.8 2.3-5.1 5.1-5.1s5.1 2.3 5.1 5.1-2.3 5.1-5.1 5.1c-2.9 0-5.1-2.3-5.1-5.1zm15.2 1.1c0-3.4 2.7-6.1 6.1-6.1 3.4 0 6.1 2.7 6.1 6.1 0 3.4-2.7 6.1-6.1 6.1-3.4 0-6.1-2.7-6.1-6.1zm15.9 1.6c0-4 3.3-7.3 7.3-7.3s7.3 3.3 7.3 7.3-3.3 7.3-7.3 7.3c-4.1 0-7.3-3.2-7.3-7.3zM190.3 113c0-2.8 2.3-5.1 5.1-5.1s5.1 2.3 5.1 5.1-2.3 5.1-5.1 5.1c-2.9 0-5.1-2.3-5.1-5.1zm14.9.6c0-3.4 2.7-6.1 6.1-6.1 3.4 0 6.1 2.7 6.1 6.1 0 3.4-2.7 6.1-6.1 6.1-3.4 0-6.1-2.7-6.1-6.1zm.3-15c0-2.8 2.3-5.1 5.1-5.1s5.1 2.3 5.1 5.1-2.3 5.1-5.1 5.1c-2.9-.1-5.1-2.3-5.1-5.1z" style="fill-rule:evenodd;clip-rule:evenodd;fill:#0096d5"/></svg>