<?xml version="1.0" encoding="utf-8"?>
<!-- Generator: Adobe Illustrator 23.0.1, SVG Export Plug-In . SVG Version: 6.00 Build 0)  -->
<svg version="1.1" id="Logo" xmlns="http://www.w3.org/2000/svg" xmlns:xlink="http://www.w3.org/1999/xlink" x="0px" y="0px"
	 viewBox="0 0 265 265" style="enable-background:new 0 0 265 265;" xml:space="preserve">
<style type="text/css">
	.Grün_x0020_bogenförmig{fill:url(#SVGID_1_);stroke:#FFFFFF;stroke-width:0.25;stroke-miterlimit:1;}
	.st0{fill:#0096D5;}
	.st1{fill-rule:evenodd;clip-rule:evenodd;fill:#0096D5;}
</style>
<linearGradient id="SVGID_1_" gradientUnits="userSpaceOnUse" x1="-573.4448" y1="595.2803" x2="-572.7377" y2="594.5732">
	<stop  offset="0" style="stop-color:#259E2E"/>
	<stop  offset="0.9831" style="stop-color:#1C381D"/>
</linearGradient>
<g id="Schrift_HiGru_1_">
	<g>
		<path class="st0" d="M35.6,257.5c-1.8,1.4-4.9,2.5-8.2,2.5c-6.5,0-10.7-5.1-10.7-12.1v-19H9.8v-10h6.8v-10.4l10.6-5.3v15.7h9.7v10
			h-9.7V245c0,3.8,1.4,4.8,3.9,4.8c1.9,0,3.4-0.8,6-3.1L35.6,257.5z"/>
		<path class="st0" d="M70.6,231.2c-1.7-1.5-3.8-2.6-6.1-2.6c-4.1,0-6.8,1.8-6.8,8.8v21.8H47v-40.3h10.6v2.7
			c1.8-1.9,4.5-3.5,8.3-3.5c3.5,0,6.1,1.4,7.4,2.8L70.6,231.2z"/>
		<path class="st0" d="M85.5,215.5c-3.3,0-6.1-2.8-6.1-6.1c0-3.3,2.8-6.1,6.1-6.1c3.3,0,6.1,2.8,6.1,6.1
			C91.6,212.8,88.8,215.5,85.5,215.5z M80.2,259.1v-40.3h10.6v40.3H80.2z"/>
		<path class="st0" d="M101.9,259.1v-50.7l10.6-5.3v56H101.9z"/>
		<path class="st0" d="M139.3,260c-10.5,0-18.2-8.6-18.2-21s7.7-21,18.2-21s18.3,8.7,18.3,21S149.8,260,139.3,260z M139.3,228.2
			c-5.1,0-7.4,4.6-7.4,10.8c0,6.2,2.4,10.7,7.4,10.7c5.1,0,7.5-5.1,7.5-10.7C146.8,232.9,144.3,228.2,139.3,228.2z"/>
		<path class="st0" d="M184.8,260c-3.5,0-6.6-1.4-8.5-3.1v2.3h-10.6v-50.7l10.6-5.3v18.2c2-1.8,4.7-3.4,8.5-3.4
			c8.6,0,15.7,6.4,15.7,21.5C200.5,251.5,194.8,260,184.8,260z M182.8,228c-3.3,0-5,1.4-6.5,3.4v15.2c1.6,2.2,4.1,3.5,7.1,3.5
			c4.1,0,6.3-3.5,6.3-10.3C189.8,231.4,187,228,182.8,228z"/>
		<path class="st0" d="M214.5,215.5c-3.3,0-6.1-2.8-6.1-6.1c0-3.3,2.8-6.1,6.1-6.1c3.3,0,6.1,2.8,6.1,6.1
			C220.6,212.8,217.8,215.5,214.5,215.5z M209.2,259.1v-40.3h10.6v40.3H209.2z"/>
		<path class="st0" d="M253,257.5c-1.8,1.4-4.9,2.5-8.2,2.5c-6.5,0-10.7-5.1-10.7-12.1v-19h-6.8v-10h6.8v-10.4l10.6-5.3v15.7h9.7v10
			h-9.7V245c0,3.8,1.4,4.8,3.9,4.8c1.9,0,3.4-0.8,6-3.1L253,257.5z"/>
	</g>
</g>
<path id="Punktraster_1_" class="st1" d="M25,180.3c0-0.7,0.5-1.2,1.2-1.2c0.6,0,1.2,0.5,1.2,1.2c0,0.7-0.5,1.2-1.2,1.2
	C25.6,181.5,25,180.9,25,180.3z M36.2,177.1c0-0.8,0.6-1.4,1.4-1.4c0.8,0,1.4,0.6,1.4,1.4c0,0.8-0.6,1.4-1.4,1.4
	C36.9,178.5,36.2,177.9,36.2,177.1z M48,174.6c0-0.9,0.8-1.7,1.7-1.7c0.9,0,1.7,0.8,1.7,1.7c0,0.9-0.8,1.7-1.7,1.7
	C48.7,176.3,48,175.5,48,174.6z M60.2,172.5c0-1.1,0.9-2,2-2c1.1,0,2,0.9,2,2c0,1.1-0.9,2-2,2C61.1,174.5,60.2,173.6,60.2,172.5z
	 M72.9,171c0-1.4,1.1-2.4,2.4-2.4c1.4,0,2.4,1.1,2.4,2.4c0,1.4-1.1,2.4-2.4,2.4C74,173.5,72.9,172.4,72.9,171z M86.2,170
	c0-1.6,1.3-2.9,2.9-2.9c1.6,0,2.9,1.3,2.9,2.9c0,1.6-1.3,2.9-2.9,2.9C87.5,173,86.2,171.7,86.2,170z M100,169.7
	c0-1.9,1.6-3.5,3.5-3.5c1.9,0,3.5,1.6,3.5,3.5c0,1.9-1.6,3.5-3.5,3.5C101.6,173.2,100,171.6,100,169.7z M114.5,169.9
	c0-2.3,1.9-4.2,4.2-4.2c2.3,0,4.2,1.9,4.2,4.2c0,2.3-1.9,4.2-4.2,4.2C116.3,174.2,114.5,172.3,114.5,169.9z M129.5,170.8
	c0-2.8,2.3-5.1,5.1-5.1c2.8,0,5.1,2.3,5.1,5.1c0,2.8-2.3,5.1-5.1,5.1C131.8,175.9,129.5,173.6,129.5,170.8z M145.3,172.4
	c0-3.4,2.7-6.1,6.1-6.1c3.4,0,6.1,2.7,6.1,6.1c0,3.4-2.7,6.1-6.1,6.1C148,178.5,145.3,175.8,145.3,172.4z M161.6,174.8
	c0-4,3.3-7.3,7.3-7.3c4,0,7.3,3.3,7.3,7.3c0,4-3.3,7.3-7.3,7.3C164.9,182.1,161.6,178.8,161.6,174.8z M209.5,165.3
	c-0.9,2.2-2.7,3.9-4.9,4.8c0.4,0,0.7,0,1.1,0c5.4,0.2,9.7,4.4,10.1,9.6c0.9-1.5,2.1-2.8,3.4-3.8
	C213.7,175.5,209.4,170.9,209.5,165.3z M207.5,146.9c0.1-4.8,4.1-8.7,8.9-8.6c4.8,0.1,8.7,4.1,8.6,8.9c-0.1,3.4-2.1,6.3-4.9,7.7
	c6.1,0.2,10.7,5.1,10.5,10.9c-0.1,3.1-1.5,5.8-3.8,7.7c7.4,0.3,12.8,6.1,12.6,13.1c-0.2,7-6.1,12.4-13,12.2
	c-6.7-0.2-12-5.7-12.2-12.3c-2,2.9-5.3,4.8-9.1,4.7c-5.8-0.2-10.3-5.1-10.1-10.9c-1.1,3.2-4.5,5.8-8.5,5.7c-4.8-0.1-8.7-4.1-8.6-8.9
	c0.1-4.8,4.1-8.7,8.9-8.6c4.8,0.1,8.7,4.1,8.6,8.9c0.9-2.9,3.4-5.5,6.5-6.6c-5.4-0.1-9.2-4.1-9.1-8.9c0.1-4.8,4.1-8.7,8.9-8.6
	c4.7,0.1,8.5,3.9,8.6,8.5c1-2.7,3.1-4.8,5.7-6C211.1,155.5,207.4,151.6,207.5,146.9z M40.9,166.8c0-0.6,0.5-1.2,1.2-1.2
	c0.6,0,1.2,0.5,1.2,1.2c0,0.7-0.5,1.2-1.2,1.2C41.4,168,40.9,167.4,40.9,166.8z M52.1,163.6c0-0.8,0.6-1.4,1.4-1.4
	c0.8,0,1.4,0.6,1.4,1.4c0,0.8-0.6,1.4-1.4,1.4C52.7,165,52.1,164.3,52.1,163.6z M63.7,160.8c0-0.9,0.8-1.7,1.7-1.7
	c0.9,0,1.7,0.8,1.7,1.7c0,0.9-0.8,1.7-1.7,1.7C64.5,162.5,63.7,161.7,63.7,160.8z M75.7,158.9c0-1.1,0.9-2,2-2c1.1,0,2,0.9,2,2
	c0,1.1-0.9,2-2,2C76.7,161,75.7,160.1,75.7,158.9z M56.7,153.5c0-0.7,0.5-1.2,1.2-1.2c0.6,0,1.2,0.5,1.2,1.2c0,0.7-0.5,1.2-1.2,1.2
	C57.2,154.7,56.7,154.2,56.7,153.5z M67.9,150c0-0.8,0.6-1.4,1.4-1.4c0.8,0,1.4,0.6,1.4,1.4s-0.6,1.4-1.4,1.4
	C68.5,151.5,67.9,150.8,67.9,150z M79.4,147.3c0-0.9,0.8-1.7,1.7-1.7c0.9,0,1.7,0.8,1.7,1.7c0,0.9-0.8,1.7-1.7,1.7
	C80.2,149,79.4,148.3,79.4,147.3z M91.6,145.1c0-1.1,0.9-2,2-2c1.1,0,2,0.9,2,2c0,1.1-0.9,2-2,2C92.5,147.2,91.6,146.3,91.6,145.1z
	 M72.6,140c0-0.7,0.5-1.2,1.2-1.2s1.2,0.5,1.2,1.2c0,0.7-0.5,1.2-1.2,1.2S72.6,140.6,72.6,140z M83.7,136.7c0-0.8,0.6-1.4,1.4-1.4
	c0.8,0,1.4,0.6,1.4,1.4c0,0.8-0.6,1.4-1.4,1.4C84.3,138.1,83.7,137.4,83.7,136.7z M95.2,133.7c0-0.9,0.8-1.7,1.7-1.7
	c0.9,0,1.7,0.8,1.7,1.7c0,0.9-0.8,1.7-1.7,1.7C96,135.4,95.2,134.7,95.2,133.7z M107.2,131.4c0-1.1,0.9-2,2-2c1.1,0,2,0.9,2,2
	c0,1.1-0.9,2-2,2C108.1,133.5,107.2,132.6,107.2,131.4z M88.5,126.4c0-0.6,0.5-1.2,1.2-1.2c0.6,0,1.2,0.5,1.2,1.2
	c0,0.7-0.5,1.2-1.2,1.2C89,127.6,88.5,127.1,88.5,126.4z M99.5,123.2c0-0.8,0.6-1.4,1.4-1.4c0.8,0,1.4,0.6,1.4,1.4
	c0,0.8-0.6,1.4-1.4,1.4C100.1,124.6,99.5,123.9,99.5,123.2z M110.9,120.2c0-0.9,0.8-1.7,1.7-1.7c0.9,0,1.7,0.8,1.7,1.7
	c0,0.9-0.8,1.7-1.7,1.7C111.7,121.9,110.9,121.2,110.9,120.2z M122.8,117.7c0-1.1,0.9-2,2-2c1.1,0,2,0.9,2,2c0,1.1-0.9,2-2,2
	C123.7,119.8,122.8,118.9,122.8,117.7z M104.3,113.2c0-0.7,0.5-1.2,1.2-1.2c0.7,0,1.2,0.5,1.2,1.2c0,0.6-0.5,1.2-1.2,1.2
	C104.8,114.4,104.3,113.9,104.3,113.2z M115.2,109.7c0-0.8,0.6-1.4,1.4-1.4c0.8,0,1.4,0.6,1.4,1.4c0,0.8-0.6,1.4-1.4,1.4
	C115.8,111.1,115.2,110.5,115.2,109.7z M126.7,106.7c0-0.9,0.8-1.7,1.7-1.7c0.9,0,1.7,0.8,1.7,1.7c0,0.9-0.8,1.7-1.7,1.7
	C127.5,108.4,126.7,107.6,126.7,106.7z M138.6,104c0-1.1,0.9-2,2-2c1.1,0,2,0.9,2,2c0,1.1-0.9,2-2,2
	C139.5,106,138.6,105.1,138.6,104z M120.1,99.8c0-0.6,0.5-1.2,1.2-1.2c0.6,0,1.2,0.5,1.2,1.2c0,0.7-0.5,1.2-1.2,1.2
	C120.7,101,120.1,100.5,120.1,99.8z M131.1,96.2c0-0.8,0.6-1.4,1.4-1.4c0.8,0,1.4,0.6,1.4,1.4c0,0.8-0.6,1.4-1.4,1.4
	C131.7,97.7,131.1,97,131.1,96.2z M142.4,93.1c0-0.9,0.8-1.7,1.7-1.7c0.9,0,1.7,0.8,1.7,1.7c0,0.9-0.8,1.7-1.7,1.7
	C143.2,94.8,142.4,94,142.4,93.1z M154.3,90.2c0-1.1,0.9-2,2-2c1.1,0,2,0.9,2,2c0,1.1-0.9,2-2,2C155.2,92.3,154.3,91.4,154.3,90.2z
	 M135.8,86.3c0-0.6,0.5-1.2,1.2-1.2c0.7,0,1.2,0.5,1.2,1.2c0,0.7-0.5,1.2-1.2,1.2C136.3,87.5,135.8,87,135.8,86.3z M146.8,82.8
	c0-0.8,0.6-1.4,1.4-1.4c0.8,0,1.4,0.6,1.4,1.4c0,0.8-0.6,1.4-1.4,1.4C147.4,84.2,146.8,83.6,146.8,82.8z M158.2,79.6
	c0-0.9,0.8-1.7,1.7-1.7c0.9,0,1.7,0.8,1.7,1.7c0,0.9-0.8,1.7-1.7,1.7C159,81.3,158.2,80.6,158.2,79.6z M170,76.7c0-1.1,0.9-2,2-2
	c1.1,0,2,0.9,2,2c0,1.1-0.9,2-2,2C170.9,78.7,170,77.8,170,76.7z M151.7,72.9c0-0.7,0.5-1.2,1.2-1.2c0.6,0,1.2,0.5,1.2,1.2
	c0,0.7-0.5,1.2-1.2,1.2C152.3,74.1,151.7,73.6,151.7,72.9z M162.6,69.3c0-0.8,0.6-1.4,1.4-1.4c0.8,0,1.4,0.6,1.4,1.4
	c0,0.8-0.6,1.4-1.4,1.4C163.3,70.7,162.6,70.1,162.6,69.3z M174,66.1c0-0.9,0.8-1.7,1.7-1.7c0.9,0,1.7,0.8,1.7,1.7
	c0,0.9-0.8,1.7-1.7,1.7C174.8,67.8,174,67,174,66.1z M185.7,63.1c0-1.1,0.9-2,2-2c1.1,0,2,0.9,2,2c0,1.1-0.9,2-2,2
	C186.6,65.1,185.7,64.2,185.7,63.1z M167.6,59.7c0-0.7,0.5-1.2,1.2-1.2c0.7,0,1.2,0.5,1.2,1.2c0,0.7-0.5,1.2-1.2,1.2
	C168.1,60.9,167.6,60.4,167.6,59.7z M178.5,56c0-0.8,0.6-1.4,1.4-1.4c0.8,0,1.4,0.6,1.4,1.4c0,0.8-0.6,1.4-1.4,1.4
	C179.1,57.4,178.5,56.8,178.5,56z M189.7,52.6c0-0.9,0.8-1.7,1.7-1.7c0.9,0,1.7,0.8,1.7,1.7c0,0.9-0.8,1.7-1.7,1.7
	C190.5,54.3,189.7,53.5,189.7,52.6z M201.5,49.6c0-1.1,0.9-2,2-2c1.1,0,2,0.9,2,2c0,1.1-0.9,2-2,2C202.4,51.6,201.5,50.7,201.5,49.6
	z M183.4,46.2c0-0.7,0.5-1.2,1.2-1.2c0.7,0,1.2,0.5,1.2,1.2c0,0.6-0.5,1.2-1.2,1.2C183.9,47.4,183.4,46.8,183.4,46.2z M194.3,42.4
	c0-0.8,0.6-1.4,1.4-1.4c0.8,0,1.4,0.6,1.4,1.4c0,0.8-0.6,1.4-1.4,1.4C194.9,43.8,194.3,43.2,194.3,42.4z M205.5,38.9
	c0-0.9,0.8-1.7,1.7-1.7c0.9,0,1.7,0.8,1.7,1.7c0,0.9-0.8,1.7-1.7,1.7C206.2,40.6,205.5,39.8,205.5,38.9z M217.2,36c0-1.1,0.9-2,2-2
	c1.1,0,2,0.9,2,2c0,1.1-0.9,2-2,2C218.1,38.1,217.2,37.2,217.2,36z M199.4,32.9c0-0.7,0.5-1.2,1.2-1.2c0.7,0,1.2,0.5,1.2,1.2
	c0,0.6-0.5,1.2-1.2,1.2C199.9,34.1,199.4,33.6,199.4,32.9z M210.1,28.9c0-0.8,0.6-1.4,1.4-1.4c0.8,0,1.4,0.6,1.4,1.4
	c0,0.8-0.6,1.4-1.4,1.4C210.7,30.3,210.1,29.7,210.1,28.9z M221.2,25.5c0-0.9,0.8-1.7,1.7-1.7c0.9,0,1.7,0.8,1.7,1.7
	c0,0.9-0.8,1.7-1.7,1.7C222,27.2,221.2,26.4,221.2,25.5z M215,19.6c0-0.7,0.5-1.2,1.2-1.2c0.7,0,1.2,0.5,1.2,1.2
	c0,0.7-0.5,1.2-1.2,1.2C215.6,20.8,215,20.2,215,19.6z M225.8,15.7c0-0.8,0.6-1.4,1.4-1.4c0.8,0,1.4,0.6,1.4,1.4
	c0,0.8-0.6,1.4-1.4,1.4C226.5,17.1,225.8,16.5,225.8,15.7z M230.8,6.2c0-0.7,0.5-1.2,1.2-1.2c0.6,0,1.2,0.5,1.2,1.2
	s-0.5,1.2-1.2,1.2C231.4,7.4,230.8,6.8,230.8,6.2z M88.5,157.2c0-1.4,1.1-2.4,2.4-2.4c1.4,0,2.4,1.1,2.4,2.4c0,1.4-1.1,2.4-2.4,2.4
	C89.5,159.6,88.5,158.5,88.5,157.2z M101.7,156c0-1.6,1.3-2.9,2.9-2.9c1.6,0,2.9,1.3,2.9,2.9c0,1.6-1.3,2.9-2.9,2.9
	C103,158.9,101.7,157.6,101.7,156z M115.4,155.5c0-1.9,1.6-3.5,3.5-3.5c1.9,0,3.5,1.6,3.5,3.5c0,1.9-1.6,3.5-3.5,3.5
	C117,159.1,115.4,157.5,115.4,155.5z M129.7,155.7c0-2.3,1.9-4.2,4.2-4.2c2.3,0,4.2,1.9,4.2,4.2c0,2.3-1.9,4.2-4.2,4.2
	C131.6,159.9,129.7,158,129.7,155.7z M104.2,143.2c0-1.3,1.1-2.4,2.4-2.4c1.4,0,2.4,1.1,2.4,2.4c0,1.4-1.1,2.4-2.4,2.4
	C105.3,145.7,104.2,144.6,104.2,143.2z M117.2,142.1c0-1.6,1.3-2.9,2.9-2.9c1.6,0,2.9,1.3,2.9,2.9c0,1.6-1.3,2.9-2.9,2.9
	C118.5,145,117.2,143.7,117.2,142.1z M130.8,141.4c0-1.9,1.6-3.5,3.5-3.5c1.9,0,3.5,1.6,3.5,3.5c0,1.9-1.6,3.5-3.5,3.5
	C132.4,144.9,130.8,143.3,130.8,141.4z M145,141.2c0-2.3,1.9-4.2,4.2-4.2c2.3,0,4.2,1.9,4.2,4.2c0,2.3-1.9,4.2-4.2,4.2
	C146.9,145.4,145,143.5,145,141.2z M119.8,129.5c0-1.4,1.1-2.4,2.4-2.4c1.3,0,2.4,1.1,2.4,2.4s-1.1,2.4-2.4,2.4
	C120.9,131.9,119.8,130.8,119.8,129.5z M132.7,128.1c0-1.6,1.3-2.9,2.9-2.9c1.6,0,2.9,1.3,2.9,2.9c0,1.6-1.3,2.9-2.9,2.9
	C134,131,132.7,129.7,132.7,128.1z M146.2,127.3c0-1.9,1.6-3.5,3.5-3.5c1.9,0,3.5,1.6,3.5,3.5c0,1.9-1.6,3.5-3.5,3.5
	C147.8,130.8,146.2,129.2,146.2,127.3z M160.3,126.8c0-2.3,1.9-4.2,4.2-4.2c2.3,0,4.2,1.9,4.2,4.2c0,2.3-1.9,4.2-4.2,4.2
	C162.2,131,160.3,129.1,160.3,126.8z M135.3,115.8c0-1.4,1.1-2.4,2.4-2.4c1.3,0,2.4,1.1,2.4,2.4c0,1.4-1.1,2.4-2.4,2.4
	C136.4,118.3,135.3,117.2,135.3,115.8z M148.3,114.3c0-1.6,1.3-2.9,2.9-2.9c1.6,0,2.9,1.3,2.9,2.9c0,1.6-1.3,2.9-2.9,2.9
	C149.6,117.2,148.3,115.9,148.3,114.3z M161.7,113.2c0-1.9,1.6-3.5,3.5-3.5c1.9,0,3.5,1.6,3.5,3.5c0,1.9-1.6,3.5-3.5,3.5
	C163.3,116.7,161.7,115.1,161.7,113.2z M175.8,112.9c0-2.3,1.9-4.2,4.2-4.2c2.3,0,4.2,1.9,4.2,4.2c0,2.3-1.9,4.2-4.2,4.2
	C177.7,117.1,175.8,115.2,175.8,112.9z M151,102c0-1.3,1.1-2.4,2.4-2.4c1.4,0,2.4,1.1,2.4,2.4c0,1.4-1.1,2.4-2.4,2.4
	C152.1,104.4,151,103.3,151,102z M163.8,100.3c0-1.6,1.3-2.9,2.9-2.9c1.6,0,2.9,1.3,2.9,2.9c0,1.6-1.3,2.9-2.9,2.9
	C165.1,103.3,163.8,101.9,163.8,100.3z M177.2,99.2c0-1.9,1.6-3.5,3.5-3.5c1.9,0,3.5,1.6,3.5,3.5c0,1.9-1.6,3.5-3.5,3.5
	C178.8,102.7,177.2,101.1,177.2,99.2z M191.1,98.6c0-2.3,1.9-4.2,4.2-4.2c2.3,0,4.2,1.9,4.2,4.2c0,2.3-1.9,4.2-4.2,4.2
	C193,102.8,191.1,100.9,191.1,98.6z M166.6,88.2c0-1.4,1.1-2.4,2.4-2.4c1.4,0,2.4,1.1,2.4,2.4c0,1.4-1.1,2.4-2.4,2.4
	C167.7,90.7,166.6,89.6,166.6,88.2z M179.4,86.5c0-1.6,1.3-2.9,2.9-2.9c1.6,0,2.9,1.3,2.9,2.9c0,1.6-1.3,2.9-2.9,2.9
	C180.7,89.4,179.4,88.1,179.4,86.5z M192.7,85.2c0-1.9,1.6-3.5,3.5-3.5c1.9,0,3.5,1.6,3.5,3.5c0,1.9-1.6,3.5-3.5,3.5
	C194.2,88.7,192.7,87.2,192.7,85.2z M206.4,84.5c0-2.3,1.9-4.2,4.2-4.2s4.2,1.9,4.2,4.2c0,2.3-1.9,4.2-4.2,4.2
	S206.4,86.8,206.4,84.5z M182.2,74.4c0-1.4,1.1-2.4,2.4-2.4c1.4,0,2.4,1.1,2.4,2.4c0,1.3-1.1,2.4-2.4,2.4
	C183.3,76.8,182.2,75.7,182.2,74.4z M195,72.6c0-1.6,1.3-2.9,2.9-2.9c1.6,0,2.9,1.3,2.9,2.9c0,1.6-1.3,2.9-2.9,2.9
	C196.3,75.6,195,74.2,195,72.6z M208.2,71.3c0-1.9,1.6-3.5,3.5-3.5c1.9,0,3.5,1.6,3.5,3.5s-1.6,3.5-3.5,3.5
	C209.7,74.8,208.2,73.2,208.2,71.3z M198,60.6c0-1.4,1.1-2.4,2.4-2.4c1.4,0,2.4,1.1,2.4,2.4c0,1.4-1.1,2.4-2.4,2.4
	C199.1,63,198,61.9,198,60.6z M210.5,58.8c0-1.6,1.3-2.9,2.9-2.9c1.6,0,2.9,1.3,2.9,2.9c0,1.6-1.3,2.9-2.9,2.9
	C211.8,61.7,210.5,60.4,210.5,58.8z M213.5,47c0-1.4,1.1-2.4,2.4-2.4c1.4,0,2.4,1.1,2.4,2.4c0,1.4-1.1,2.4-2.4,2.4
	C214.6,49.4,213.5,48.3,213.5,47z M144.7,156.1c0-2.8,2.3-5.1,5.1-5.1c2.8,0,5.1,2.3,5.1,5.1c0,2.8-2.3,5.1-5.1,5.1
	C146.9,161.1,144.7,158.9,144.7,156.1z M160.1,157.5c0-3.4,2.7-6.1,6.1-6.1c3.4,0,6.1,2.7,6.1,6.1c0,3.4-2.7,6.1-6.1,6.1
	C162.8,163.6,160.1,160.9,160.1,157.5z M176.5,159.6c0-4,3.3-7.3,7.3-7.3c4,0,7.3,3.3,7.3,7.3c0,4-3.3,7.3-7.3,7.3
	C179.8,166.9,176.5,163.6,176.5,159.6z M159.8,141.8c0-2.8,2.3-5.1,5.1-5.1c2.8,0,5.1,2.3,5.1,5.1c0,2.8-2.3,5.1-5.1,5.1
	C162.1,146.8,159.8,144.6,159.8,141.8z M175.2,142.9c0-3.4,2.7-6.1,6.1-6.1c3.4,0,6.1,2.7,6.1,6.1c0,3.4-2.7,6.1-6.1,6.1
	C177.9,149,175.2,146.3,175.2,142.9z M191.2,144.7c0-4,3.3-7.3,7.3-7.3c4,0,7.3,3.3,7.3,7.3c0,4-3.3,7.3-7.3,7.3
	C194.4,152,191.2,148.8,191.2,144.7z M175,127.2c0-2.8,2.3-5.1,5.1-5.1c2.8,0,5.1,2.3,5.1,5.1s-2.3,5.1-5.1,5.1
	C177.2,132.3,175,130,175,127.2z M190.2,128.3c0-3.4,2.7-6.1,6.1-6.1c3.4,0,6.1,2.7,6.1,6.1c0,3.4-2.7,6.1-6.1,6.1
	C192.9,134.4,190.2,131.7,190.2,128.3z M206.1,129.9c0-4,3.3-7.3,7.3-7.3c4,0,7.3,3.3,7.3,7.3c0,4-3.3,7.3-7.3,7.3
	C209.3,137.2,206.1,134,206.1,129.9z M190.3,113c0-2.8,2.3-5.1,5.1-5.1c2.8,0,5.1,2.3,5.1,5.1c0,2.8-2.3,5.1-5.1,5.1
	C192.5,118.1,190.3,115.8,190.3,113z M205.2,113.6c0-3.4,2.7-6.1,6.1-6.1c3.4,0,6.1,2.7,6.1,6.1c0,3.4-2.7,6.1-6.1,6.1
	C207.9,119.7,205.2,117,205.2,113.6z M205.5,98.6c0-2.8,2.3-5.1,5.1-5.1c2.8,0,5.1,2.3,5.1,5.1c0,2.8-2.3,5.1-5.1,5.1
	C207.7,103.6,205.5,101.4,205.5,98.6z"/>
</svg>
