<svg xmlns="http://www.w3.org/2000/svg" viewBox="0 0 100 100"><linearGradient id="a" x1="79.7" x2="20.5" y1="108.3" y2="-8" gradientUnits="userSpaceOnUse"><stop offset="0" stop-color="#e00c3f"/><stop offset="1" stop-color="#f67f93"/></linearGradient><path fill="url(#a)" d="M.1 5.8C.1 2.7 2.7.1 5.8.1h88.6c3.1 0 5.7 2.6 5.7 5.7v88.6c0 3.1-2.6 5.7-5.7 5.7H5.8a6 6 0 0 1-5.7-5.8V5.8z"/><g fill="#fff"><g fill-rule="evenodd" opacity=".9"><path d="M84.9 88.9v.8l.1.1 1.1.6 1.7 1 1.2.7.1.2v1.5L85 91.4v.7l.1.1 3.9 2.3.1.3v1.4l-.2-.1-5.2-3-.1-.2v-6.3l.2.1 4.5 2.7.7.4.1.2v1.5l-4.2-2.6z"/><path d="M92.3 94.9v-4.8a2 2 0 0 0-.6.4v4.7c0 .1 0 .2-.2.3l-1.2.7V90l.1-.2 5.3-3.1.1-.1v6.1c0 .3-.1.4-.3.5l-1 .6-.2.1v-4.8l-.7.4v4.8l-.1.1c-.3 0-.8.3-1.2.5z" opacity=".8"/><path d="M89.9 88.6a145.6 145.6 0 0 1-5.7-3.1l-.3-.2.2-.1 5.4-3.2h.3l5.4 3.2.1.1-.1.1-5.1 3-.2.2zm-3.2-3.2.2.1 2.6 1.5h.3l2.6-1.5.1-.1-.1-.1-2.7-1.5c-.1-.1-.2 0-.2 0l-2.6 1.5-.2.1z" opacity=".6"/></g><path d="m79.8 36.7-1.9-.9c-.5-.2-1 0-1.2.4s0 1 .4 1.2l1.3.7v33.3l-9.3-4.7v-17c0-.6-.4-.9-.9-.9-.6 0-.9.4-.9.9v17.1l-10.2 4.7v-7.9c0-.6-.4-.9-.9-.9s-.9.4-.9.9v7.8L46 66.8v-5.1c0-.6-.4-.9-.9-.9-.6 0-.9.4-.9.9v4.9L34 71.4V41.3c0-.6-.4-.9-.9-.9-.6 0-.9.4-.9.9v30.2L23 66.8V33.5l9.9 4.9c.3.1.6.1.8 0l1.9-.9a.78.78 0 0 0 .4-1.2c-.3-.5-.7-.7-1.2-.4l-1.4.7-10.8-5.4c-.3-.2-.7-.1-.9 0l-.4.8v35.4c0 .4.2.7.6.8L33 73.8l.4.1.4-.1 11.4-5.4 11 5.4.3.1h.1l.4-.1 11.8-5.4 10.8 5.4.5.1.5-.1c.3-.2.5-.5.5-.8V37.6l-1.3-.9z" opacity=".7"/><path d="M47 33c-.2.5 0 1 .4 1.2l7.9 3.9v3.2c0 .6.4.9.9.9.6 0 .9-.4.9-.9v-3.2l1.3-.7c.5-.2.7-.7.4-1.2-.2-.5-.7-.7-1.2-.4l-1.4.7-8-4c-.5-.1-1 0-1.2.5z" opacity=".7"/><path d="M67.7 47.6c.3 0 .6-.1.7-.4.7-.9 7.3-9.2 7.3-13.3 0-4.5-3.6-8-8-8s-8 3.6-8 8c0 4.1 6.5 12.4 7.3 13.3.1.2.4.4.7.4zm0-19.8c3.4 0 6.1 2.8 6.1 6.1 0 2.6-3.9 8.4-6.1 11.3-2.2-2.9-6.1-8.7-6.1-11.3a6 6 0 0 1 6.1-6.1zm2.3 6.1a2.26 2.26 0 0 0-2.3-2.3 2.26 2.26 0 0 0-2.3 2.3 2.26 2.26 0 0 0 2.3 2.3c1.3.1 2.3-1 2.3-2.3zm-2.8 0a.5.5 0 1 1 1 0 .5.5 0 1 1-1 0zm-27.5 6.3c.3 0 .6-.1.7-.4.7-.9 7.3-9.2 7.3-13.3a8 8 0 1 0-16 0c0 4.1 6.5 12.4 7.3 13.3l.7.4zm0-19.8c3.4 0 6.1 2.8 6.1 6.1 0 2.6-3.9 8.4-6.1 11.3-2.2-2.9-6.1-8.7-6.1-11.3 0-3.4 2.8-6.1 6.1-6.1zm2.4 6.1a2.26 2.26 0 0 0-2.3-2.3 2.26 2.26 0 0 0-2.3 2.3 2.26 2.26 0 0 0 2.3 2.3c1.2 0 2.3-1 2.3-2.3zm-2.8 0a.47.47 0 0 1 .5-.5.47.47 0 0 1 .5.5.47.47 0 0 1-.5.5.47.47 0 0 1-.5-.5zm10.9 36.6.7.4c.3 0 .6-.1.7-.4.7-.9 7.3-9.2 7.3-13.3 0-4.5-3.6-8-8-8s-8 3.6-8 8c0 4.1 6.5 12.3 7.3 13.3zm.7-19.5c3.4 0 6.1 2.8 6.1 6.1 0 2.6-3.9 8.4-6.1 11.3-2.2-2.9-6.1-8.7-6.1-11.3a6 6 0 0 1 6.1-6.1zm0 8.5a2.26 2.26 0 0 0 2.3-2.3 2.26 2.26 0 0 0-2.3-2.3 2.26 2.26 0 0 0-2.3 2.3 2.26 2.26 0 0 0 2.3 2.3zm0-2.8a.47.47 0 0 1 .5.5.47.47 0 0 1-.5.5.47.47 0 0 1-.5-.5.47.47 0 0 1 .5-.5z"/><path d="M46 41.3v-3.7c0-.6-.4-.9-.9-.9s-.9.4-.9.9v3.7c0 .6.4.9.9.9s.9-.3.9-.9z" opacity=".7"/></g></svg>