<svg xmlns="http://www.w3.org/2000/svg" viewBox="0 0 500 427.38"><defs><style>.cls-1{fill:#333a46}.cls-3{fill:#7ac0bc}</style></defs><g id="Ebene_2" data-name="Ebene 2"><g id="klaro"><path d="M405.52 364.46H0L94.48 0H500l-94.48 364.46zM4.42 416.73H.27v-37l4.15-.55ZM9.32 402 19 416.73h-4.91l-9.4-14.4 8.73-11.95h4.63ZM21.63 415.81a6.29 6.29 0 0 1-1.33-4.28v-31.75l4.14-.55v32.2a2.88 2.88 0 0 0 .34 1.6 1.25 1.25 0 0 0 1.14.5 3.73 3.73 0 0 0 1.53-.3l1.08 3.2a6.2 6.2 0 0 1-3.28.9 4.56 4.56 0 0 1-3.62-1.52ZM47.39 413a3 3 0 0 0 1.48 1.17l-.94 3.2a6 6 0 0 1-3-1.15 5.31 5.31 0 0 1-1.67-2.8 7.74 7.74 0 0 1-7.06 3.95 7.15 7.15 0 0 1-5.54-2.2 8.15 8.15 0 0 1-2-5.75 7.91 7.91 0 0 1 2.72-6.45q2.73-2.25 7.72-2.25h3.64v-1.95a5.48 5.48 0 0 0-1.21-4 5.14 5.14 0 0 0-3.74-1.2 19.15 19.15 0 0 0-6.39 1.4l-1-3.35a21.79 21.79 0 0 1 8.19-1.8q4.18 0 6.25 2.28a9.26 9.26 0 0 1 2.07 6.47v12.05a4.51 4.51 0 0 0 .48 2.38Zm-4.64-3.18v-6h-3.1q-6.57 0-6.57 5.4a5.3 5.3 0 0 0 1 3.55 3.82 3.82 0 0 0 3.06 1.2q3.58-.09 5.61-4.19ZM65.25 390.08l-.76 4.5a7.73 7.73 0 0 0-2.07-.3 4.24 4.24 0 0 0-3.56 1.8 14.2 14.2 0 0 0-2.11 5.6v15.05h-4.14v-26.35h3.55l.41 5.35a10.14 10.14 0 0 1 2.56-4.45 5.39 5.39 0 0 1 3.78-1.5 8.72 8.72 0 0 1 2.34.3ZM83.41 393.48q2.78 3.7 2.77 10a19.28 19.28 0 0 1-1.26 7.23 10.81 10.81 0 0 1-3.65 4.85 9.41 9.41 0 0 1-5.67 1.72 9.18 9.18 0 0 1-7.78-3.7c-1.82-2.42-2.82-5.76-2.82-10a19.19 19.19 0 0 1 1.26-7.22 10.73 10.73 0 0 1 3.64-4.85 9.51 9.51 0 0 1 5.72-1.73 9.12 9.12 0 0 1 7.79 3.7Zm-13.93 10.1q0 10.05 6.12 10.05t6.12-10.1q0-10-6.07-10t-6.17 10.05ZM93.6 411.38a3.55 3.55 0 0 1 .9 2.45 3.64 3.64 0 0 1-.9 2.48 2.88 2.88 0 0 1-2.25 1 2.82 2.82 0 0 1-2.2-1 3.64 3.64 0 0 1-.9-2.48 3.55 3.55 0 0 1 .9-2.45 2.83 2.83 0 0 1 2.2-1 2.89 2.89 0 0 1 2.25 1Zm-.45-6.15h-3.64l-.5-23h4.59ZM119.93 390.46a10.55 10.55 0 0 1 3.37 2.17l-2 2.9a9.76 9.76 0 0 0-2.45-1.47 7 7 0 0 0-2.63-.48 5 5 0 0 0-4.48 2.55c-1.06 1.7-1.6 4.22-1.6 7.55s.53 5.79 1.58 7.38a5.08 5.08 0 0 0 4.5 2.37 6.86 6.86 0 0 0 2.56-.47 12.83 12.83 0 0 0 2.61-1.53l1.89 3a10.55 10.55 0 0 1-7.24 2.9 9 9 0 0 1-7.58-3.6q-2.78-3.6-2.77-10a19.71 19.71 0 0 1 1.26-7.35 11.13 11.13 0 0 1 3.58-4.9 8.91 8.91 0 0 1 5.51-1.75 10.7 10.7 0 0 1 3.89.73ZM142.36 393.48q2.77 3.7 2.77 10a19.28 19.28 0 0 1-1.26 7.23 10.81 10.81 0 0 1-3.65 4.85 9.41 9.41 0 0 1-5.67 1.72 9.18 9.18 0 0 1-7.78-3.7c-1.86-2.47-2.79-5.81-2.79-10.05a19.19 19.19 0 0 1 1.26-7.22 10.73 10.73 0 0 1 3.64-4.85 9.51 9.51 0 0 1 5.72-1.73 9.12 9.12 0 0 1 7.76 3.75Zm-13.93 10.1q0 10.05 6.12 10.05t6.12-10.1q0-10-6.07-10t-6.17 10.05ZM165.4 391.93a8.82 8.82 0 0 1 1.82 5.9v18.9h-4.14v-18.25a6.34 6.34 0 0 0-.94-4 3.39 3.39 0 0 0-2.79-1.15 5 5 0 0 0-3.33 1.2 12.18 12.18 0 0 0-2.7 3.45v18.7h-4.14v-26.3h3.55l.36 3.9a9.93 9.93 0 0 1 3.13-3.3 7.48 7.48 0 0 1 4.12-1.2 6.28 6.28 0 0 1 5.06 2.15ZM183.56 390.53a12.81 12.81 0 0 1 3.69 2.25l-1.76 2.9a13.67 13.67 0 0 0-3.08-1.7 8.8 8.8 0 0 0-3.08-.55 5 5 0 0 0-3.2.93 3.33 3.33 0 0 0-.06 5 11.91 11.91 0 0 0 4 1.75 13.83 13.83 0 0 1 5.92 3 7.89 7.89 0 0 1-.77 11.15 10.69 10.69 0 0 1-6.64 2.05 12.33 12.33 0 0 1-8.95-3.45l2.2-2.8a10.08 10.08 0 0 0 6.66 2.55 5.94 5.94 0 0 0 3.72-1.07 3.53 3.53 0 0 0 1.37-2.93 4.17 4.17 0 0 0-.5-2.17 4.06 4.06 0 0 0-1.71-1.45 21.74 21.74 0 0 0-3.55-1.33 11.75 11.75 0 0 1-5.47-2.95 6.72 6.72 0 0 1-1.69-4.7 6.56 6.56 0 0 1 1.11-3.72 7.17 7.17 0 0 1 3.06-2.6 10 10 0 0 1 4.38-.93 12 12 0 0 1 4.35.77ZM208.8 405.13h-15.12q.27 4.35 2 6.4a5.47 5.47 0 0 0 4.41 2.05 8.69 8.69 0 0 0 3.15-.55 12.43 12.43 0 0 0 3-1.75L208 414a12.33 12.33 0 0 1-8.28 3.3 9.19 9.19 0 0 1-7.72-3.6q-2.76-3.6-2.77-9.9a20.45 20.45 0 0 1 1.2-7.27 11.27 11.27 0 0 1 3.42-5 8.07 8.07 0 0 1 5.24-1.8 8.42 8.42 0 0 1 7.24 3.45q2.52 3.45 2.52 9.55c.04.82.01 1.6-.05 2.4Zm-4-3.7a10.57 10.57 0 0 0-1.4-5.95 4.73 4.73 0 0 0-4.18-2.05q-5.08 0-5.54 8.3h11.12ZM229.17 391.93a8.88 8.88 0 0 1 1.82 5.9v18.9h-4.14v-18.25a6.33 6.33 0 0 0-.95-4 3.39 3.39 0 0 0-2.79-1.15 5 5 0 0 0-3.33 1.2 12.18 12.18 0 0 0-2.7 3.45v18.7h-4.14v-26.3h3.56l.36 3.9A9.91 9.91 0 0 1 220 391a7.48 7.48 0 0 1 4.12-1.2 6.31 6.31 0 0 1 5.05 2.13ZM248.49 415.53a8.48 8.48 0 0 1-5.31 1.8 5.92 5.92 0 0 1-4.7-1.92 8.22 8.22 0 0 1-1.69-5.58v-15.9h-4.14v-3.55h4.14v-5.95l4.14-.55v6.5h5.63l-.45 3.55h-5.18v15.7a5.33 5.33 0 0 0 .65 3 2.52 2.52 0 0 0 2.19.92 5.59 5.59 0 0 0 3.15-1.15ZM287.6 392a9.09 9.09 0 0 1 1.75 5.87v18.9h-4.14v-18.29q0-5.1-3.33-5.1a4.21 4.21 0 0 0-3 1.13 15.44 15.44 0 0 0-2.58 3.49v18.7h-4.14v-18.22q0-5.1-3.33-5.1a4.19 4.19 0 0 0-3 1.15 15.52 15.52 0 0 0-2.57 3.5v18.7h-4.14v-26.35h3.56l.36 3.85q2.66-4.46 6.84-4.45a5.79 5.79 0 0 1 3.75 1.25 6.88 6.88 0 0 1 2.23 3.5 11.88 11.88 0 0 1 3.08-3.52 6.61 6.61 0 0 1 4-1.23 5.71 5.71 0 0 1 4.66 2.22ZM311.36 413a3 3 0 0 0 1.48 1.17l-.94 3.2a6 6 0 0 1-3-1.15 5.31 5.31 0 0 1-1.67-2.8 7.74 7.74 0 0 1-7.06 3.95 7.15 7.15 0 0 1-5.54-2.2 8.15 8.15 0 0 1-2-5.75 7.88 7.88 0 0 1 2.72-6.45c1.81-1.5 4.39-2.25 7.72-2.25h3.64v-1.95a5.48 5.48 0 0 0-1.21-4 5.14 5.14 0 0 0-3.74-1.2 19.15 19.15 0 0 0-6.39 1.4l-1-3.35a21.79 21.79 0 0 1 8.19-1.8q4.18 0 6.25 2.28a9.26 9.26 0 0 1 2.07 6.47v12.05a4.51 4.51 0 0 0 .48 2.38Zm-4.64-3.18v-6h-3.1q-6.57 0-6.57 5.4a5.3 5.3 0 0 0 1 3.55 3.82 3.82 0 0 0 3.06 1.2q3.59-.09 5.61-4.19ZM332.8 391.93a8.88 8.88 0 0 1 1.82 5.9v18.9h-4.14v-18.25a6.34 6.34 0 0 0-.94-4 3.39 3.39 0 0 0-2.79-1.15 5 5 0 0 0-3.33 1.2 12.18 12.18 0 0 0-2.7 3.45v18.7h-4.14v-26.3h3.55l.36 3.9a9.83 9.83 0 0 1 3.13-3.3 7.46 7.46 0 0 1 4.12-1.2 6.29 6.29 0 0 1 5.06 2.15ZM356.63 413a3 3 0 0 0 1.48 1.17l-.94 3.2a6 6 0 0 1-3-1.15 5.31 5.31 0 0 1-1.67-2.8 7.74 7.74 0 0 1-7.06 3.95 7.15 7.15 0 0 1-5.54-2.2 8.15 8.15 0 0 1-2-5.75 7.88 7.88 0 0 1 2.72-6.45c1.81-1.5 4.39-2.25 7.72-2.25H352v-1.95a5.48 5.48 0 0 0-1.21-4 5.14 5.14 0 0 0-3.74-1.2 19.15 19.15 0 0 0-6.39 1.4l-1-3.35a21.79 21.79 0 0 1 8.19-1.8q4.19 0 6.25 2.28a9.26 9.26 0 0 1 2.07 6.47v12.05a4.51 4.51 0 0 0 .46 2.38Zm-4.63-3.22v-6h-3.1q-6.57 0-6.57 5.4a5.3 5.3 0 0 0 1 3.55 3.82 3.82 0 0 0 3.06 1.2q3.61-.05 5.61-4.15ZM381 391.58a11.75 11.75 0 0 1-3 .65q-1.62.15-4 .15a7 7 0 0 1 4.19 6.65 8.48 8.48 0 0 1-9.05 9 8.68 8.68 0 0 1-3-.5 2.81 2.81 0 0 0-.86 1.08 3.18 3.18 0 0 0-.31 1.37c0 1.44 1 2.15 3.1 2.15h3.78a9.15 9.15 0 0 1 4.23.95 6.89 6.89 0 0 1 3.87 6.35 6.91 6.91 0 0 1-2.83 5.93q-2.83 2.07-8.28 2.07a17.14 17.14 0 0 1-6.06-.87 5.89 5.89 0 0 1-3.17-2.63 9.45 9.45 0 0 1-.94-4.5h3.73a5 5 0 0 0 .54 2.53 3.43 3.43 0 0 0 1.94 1.4 13.08 13.08 0 0 0 4 .47c2.49 0 4.26-.34 5.33-1a3.44 3.44 0 0 0 1.6-3.08 3.29 3.29 0 0 0-1.26-2.8 5.74 5.74 0 0 0-3.51-.95h-3.74a6.55 6.55 0 0 1-4.57-1.42 4.66 4.66 0 0 1-1.55-3.58 5.06 5.06 0 0 1 .68-2.5 7 7 0 0 1 1.93-2.15 7.83 7.83 0 0 1-3-3 9 9 0 0 1-1-4.33 9.39 9.39 0 0 1 1.19-4.75 8.45 8.45 0 0 1 3.28-3.27 9.3 9.3 0 0 1 4.66-1.18 29.3 29.3 0 0 0 4.68-.22 15.83 15.83 0 0 0 3.13-.75c.82-.32 1.84-.78 3-1.38Zm-15.68 3.13A6.64 6.64 0 0 0 364 399a6.73 6.73 0 0 0 1.3 4.33 5.09 5.09 0 0 0 7.4.05 6.82 6.82 0 0 0 1.29-4.43q0-5.85-5.09-5.85a4.32 4.32 0 0 0-3.61 1.61Z" class="cls-1"/><path d="M399.83 405.13h-15.12c.18 2.9.83 5 2 6.4a5.47 5.47 0 0 0 4.41 2.05 8.69 8.69 0 0 0 3.15-.55 12.39 12.39 0 0 0 3-1.75l1.8 2.75a12.33 12.33 0 0 1-8.28 3.3 9.19 9.19 0 0 1-7.72-3.6q-2.76-3.6-2.76-9.9a20.45 20.45 0 0 1 1.19-7.27 11.27 11.27 0 0 1 3.42-5 8.07 8.07 0 0 1 5.24-1.8 8.45 8.45 0 0 1 7.25 3.45q2.52 3.45 2.52 9.55c-.01.79-.04 1.57-.1 2.37Zm-4-3.7a10.57 10.57 0 0 0-1.39-5.95 4.75 4.75 0 0 0-4.19-2.05q-5.08 0-5.53 8.3h11.11ZM416.61 390.08l-.76 4.5a7.79 7.79 0 0 0-2.07-.3 4.23 4.23 0 0 0-3.56 1.8 14.2 14.2 0 0 0-2.11 5.6v15.05H404v-26.35h3.56l.41 5.35a10.14 10.14 0 0 1 2.56-4.45 5.39 5.39 0 0 1 3.78-1.5 8.72 8.72 0 0 1 2.3.3Z" class="cls-1"/><rect width="106" height="53.25" x="176" y="261.1" rx="26.63" style="fill:#fff"/><circle cx="204.99" cy="288.2" r="21.3" class="cls-3"/><path d="M250.79 76.43A15.56 15.56 0 0 0 263.46 101c-5.59 11.81-4.09 22.39 5.78 31.26 6.2 5.57 17.77 8.68 29.05 1.85a15.53 15.53 0 0 0 9.75 9.29 15.14 15.14 0 0 0 13.25-1.81c3.22 20.31-4 51.36-32.15 70.31A74.1 74.1 0 0 1 181.22 118c14.67-30.24 45.26-43.22 69.57-41.57Zm-15.08 13.41a61.71 61.71 0 0 0 20.38 121.66c32.51-4.36 51.67-31.76 53.12-55.13a.66.66 0 0 0-.19-.09 28.54 28.54 0 0 1-14.56-6.69 1.59 1.59 0 0 0-1.18-.21 37 37 0 0 1-45.19-39.51 1.6 1.6 0 0 0-.77-1.72 26.83 26.83 0 0 1-9.81-12.51c-.72-1.86-1.19-3.81-1.8-5.8ZM303.47 85.56a9.25 9.25 0 1 1-9.31-9.33 9.24 9.24 0 0 1 9.31 9.33Z" class="cls-3"/><path d="M284.92 119.44a6.17 6.17 0 1 1 6.22-6.31 6.15 6.15 0 0 1-6.22 6.31ZM322 119.49a6.18 6.18 0 0 1-6.26 6.14 6.19 6.19 0 0 1 .09-12.37 6.18 6.18 0 0 1 6.17 6.23ZM217 156.49a12.34 12.34 0 1 1 12.4-12.3 12.36 12.36 0 0 1-12.4 12.3ZM226.34 168.83a9.29 9.29 0 1 1-9.33 9.26 9.35 9.35 0 0 1 9.33-9.26ZM269.47 193.57a9.28 9.28 0 1 1 9.34-9.26 9.36 9.36 0 0 1-9.34 9.26ZM229.39 119.4a6.17 6.17 0 1 1 6.07 6.23 6.19 6.19 0 0 1-6.07-6.23ZM254.08 150.35a6.17 6.17 0 1 1-6.09-6.19 6.2 6.2 0 0 1 6.09 6.19Z" class="cls-3"/></g></g></svg>