<svg xmlns="http://www.w3.org/2000/svg" width="450" height="450"><path d="M0 0h450v450H0V0"/><path fill="#FFF" d="M183.1 134.6H228c.1 28.5-.1 56.9.1 85.3-15.1-11.7-30-23.8-45-35.8.3-16.5.1-33 .1-49.5zm.1 128.1L227 298c1.3 1 1 2.7 1 4 0 4.4.4 8.9-.4 13.3h-44.3c-.8-12.8-.1-25.6-.4-38.3.1-4.8-.2-9.6.3-14.3z"/><path fill="#FFF" d="M64.9 158c.2-7.8-.6-15.7.5-23.5 13.5.2 27.1 0 40.7 0 1.2 0 2.3.4 3.3 1.2l119 95.2c.2 19.1 0 38.3.1 57.5-39.1-30.7-77.7-62-116.8-92.8l-2-.4.1 119.8c-15 0-29.9.3-44.8-.1-.3-52.3 0-104.6-.1-156.9z"/><path fill="#E42024" d="M381.4 200.2a92 92 0 0 0-34-48.6 85.2 85.2 0 0 0-54.2-17.2c-.2 14.8 0 29.6 0 44.4a47.3 47.3 0 0 1 42.5 30.3c3.4 10 3.8 21.2.9 31.4a43.8 43.8 0 0 1-25.5 25.7 47.4 47.4 0 0 1-33.9.7c-11.6-4.4-20.6-13.4-30.2-21-3.1-2.5-6.4-5-9.5-7.7l-1.7.3V287c0 2.9-.4 5.9.7 8.6 0 0 41.9 71.5 60.1 71.5 19.1 0 71.6-90 71.6-90a91.8 91.8 0 0 0 15.7-45.3 83 83 0 0 0-2.5-31.6z"/><circle cx="292" cy="224.8" r="22.7" fill="#E42024" stroke="#000" stroke-miterlimit="10"/><path fill="#198C65" d="M310 310h110v110H310z"/><path fill="#FFF" d="M353.1 326.8a45 45 0 0 1 24.5.2 35.9 35.9 0 0 1 15.5 9.2 23.6 23.6 0 0 1 6.8 15.6h-3.5c0-4-1.4-8.1-4-11.3-3.7-4.9-9.2-8.1-15-10 4 4 6.6 9.3 8 14.7.5 2.2.9 4.4 1.1 6.6h-3.7a32.3 32.3 0 0 0-5.7-16c-1.9-2.6-4.4-4.9-7.4-6.1 1.2 2.8 1.8 5.8 2.3 8.8.7 4.4 1 8.9 1.1 13.3h-3.4c-.2-4-.5-8-1.1-12-.5-2.8-1-5.7-2.1-8.5-.4-1-.8-2-1.6-2.6-.7.6-1 1.4-1.4 2.2a31 31 0 0 0-1.6 5.3 83 83 0 0 0-1.7 13.3c-.2 4-.1 7.8-.1 11.6v43.6h-3.5V354c.1-5.7.5-11.3 1.5-16.8.5-2.6 1.1-5.2 2.2-7.6a17.9 17.9 0 0 0-8 6.8c-1.9 2.6-3 5.7-4 8.8-.8 3-1 6.2-1.2 9.3v50.2h-3.6V355a38.7 38.7 0 0 1 4.6-18.2 30 30 0 0 1 4.9-6.5 31 31 0 0 0-14.6 9 18.4 18.4 0 0 0-4.7 11.9v53.3H330v-50.8c0-1.6 0-3.3.2-4.9.6-4.8 3-9.2 6.4-12.7a36 36 0 0 1 16.5-9.3z"/><path fill="#FFF" d="M370 391.5h3.5v13.2h-3.6v-13.2zm13.2 0h3.5v13.2h-3.5v-13.2zm13.2 0h3.6v13.2h-3.6v-13.2z"/></svg>