<svg xmlns="http://www.w3.org/2000/svg" viewBox="0 0 200 171.85"><defs><style>.cls-1{fill:#333a46;}.cls-2{fill:#7abfbc;}.cls-3{fill:#fff;}</style></defs><title>Element 8</title><g id="Ebene_2" data-name="Ebene 2"><g id="Ebene_4" data-name="Ebene 4"><polygon class="cls-1" points="162.21 145.78 0 145.78 37.79 0 200 0 162.21 145.78"/><path class="cls-1" d="M30.56,152a8,8,0,0,1,2.72,3.6,15.08,15.08,0,0,1,1,5.74,14.9,14.9,0,0,1-1,5.68,8,8,0,0,1-2.72,3.61,6.81,6.81,0,0,1-4.06,1.25,6.91,6.91,0,0,1-4.06-1.22,7.75,7.75,0,0,1-2.72-3.58,17.2,17.2,0,0,1,0-11.39A8.12,8.12,0,0,1,22.45,152a6.77,6.77,0,0,1,4.05-1.26A6.87,6.87,0,0,1,30.56,152Zm-7.79,3.09q-1.34,2-1.33,6.28c0,2.82.44,4.89,1.34,6.22a4.27,4.27,0,0,0,3.72,2q5.06,0,5.06-8.23t-5.06-8.26A4.23,4.23,0,0,0,22.77,155.06Z"/><path class="cls-1" d="M48.22,153.24q2.52,2.14,2.52,7.95t-2.52,8a8.67,8.67,0,0,1-6.11,2.32h-4.4V151.1h3.84A9.93,9.93,0,0,1,48.22,153.24Zm-8,.11v15.92h2a5.38,5.38,0,0,0,4.16-1.74q1.61-1.75,1.6-6.34a11.87,11.87,0,0,0-.83-5,4.54,4.54,0,0,0-2.1-2.31,7.35,7.35,0,0,0-3-.57Z"/><path class="cls-1" d="M64.71,153.24q2.52,2.14,2.52,7.95t-2.52,8a8.67,8.67,0,0,1-6.11,2.32H54.2V151.1H58A9.93,9.93,0,0,1,64.71,153.24Zm-8,.11v15.92h2.06a5.37,5.37,0,0,0,4.15-1.74q1.61-1.75,1.6-6.34a11.87,11.87,0,0,0-.83-5,4.54,4.54,0,0,0-2.1-2.31,7.35,7.35,0,0,0-3-.57Z"/><path class="cls-1" d="M84,170.78a5,5,0,0,1-3.14,1.07,3.53,3.53,0,0,1-2.79-1.14,4.89,4.89,0,0,1-1-3.3V158H74.66v-2.1h2.45v-3.52l2.45-.32v3.84h3.33l-.26,2.1H79.56v9.3a3.08,3.08,0,0,0,.39,1.76,1.46,1.46,0,0,0,1.29.55,3.36,3.36,0,0,0,1.87-.68Z"/><path class="cls-1" d="M95.51,156.81a5.22,5.22,0,0,1,1.08,3.49v11.19H94.14v-10.8a3.61,3.61,0,0,0-.58-2.34,2,2,0,0,0-1.66-.68,3,3,0,0,0-2,.71,7.24,7.24,0,0,0-1.59,2v11.1H85.91V149.65l2.45-.3v8.7a4.86,4.86,0,0,1,4.15-2.51A3.72,3.72,0,0,1,95.51,156.81Z"/><path class="cls-1" d="M111.4,164.63h-9a6.49,6.49,0,0,0,1.17,3.78,3.26,3.26,0,0,0,2.61,1.22,5.14,5.14,0,0,0,1.87-.33,7.23,7.23,0,0,0,1.78-1l1.07,1.62a7.28,7.28,0,0,1-4.91,2,5.42,5.42,0,0,1-4.56-2.13,9.36,9.36,0,0,1-1.64-5.86,12.21,12.21,0,0,1,.7-4.31,6.75,6.75,0,0,1,2-3,4.78,4.78,0,0,1,3.1-1.06,5,5,0,0,1,4.29,2,9.39,9.39,0,0,1,1.49,5.65C111.45,163.69,111.43,164.15,111.4,164.63Zm-2.37-2.2a6.27,6.27,0,0,0-.83-3.52,2.78,2.78,0,0,0-2.47-1.21q-3,0-3.28,4.91H109Z"/><path class="cls-1" d="M131.7,156.83a5.36,5.36,0,0,1,1,3.47v11.19h-2.45v-10.8c0-2-.66-3-2-3a2.46,2.46,0,0,0-1.76.67,8.92,8.92,0,0,0-1.55,2.08v11.07h-2.45v-10.8c0-2-.66-3-2-3a2.53,2.53,0,0,0-1.79.68,9.24,9.24,0,0,0-1.51,2.07v11.07h-2.45v-15.6h2.1l.21,2.28a4.65,4.65,0,0,1,4-2.63,3.48,3.48,0,0,1,2.23.74,4.09,4.09,0,0,1,1.32,2.07,7,7,0,0,1,1.82-2.09,3.93,3.93,0,0,1,2.36-.72A3.38,3.38,0,0,1,131.7,156.83Z"/><path class="cls-1" d="M147.55,164.63h-9a6.41,6.41,0,0,0,1.17,3.78,3.26,3.26,0,0,0,2.61,1.22,5.14,5.14,0,0,0,1.87-.33,7.23,7.23,0,0,0,1.78-1l1.07,1.62a7.3,7.3,0,0,1-4.91,2,5.42,5.42,0,0,1-4.56-2.13,9.36,9.36,0,0,1-1.64-5.86,12.21,12.21,0,0,1,.7-4.31,6.75,6.75,0,0,1,2-3,4.78,4.78,0,0,1,3.1-1.06,5,5,0,0,1,4.29,2,9.46,9.46,0,0,1,1.49,5.65C147.6,163.69,147.58,164.15,147.55,164.63Zm-2.37-2.2a6.27,6.27,0,0,0-.83-3.52,2.78,2.78,0,0,0-2.47-1.21q-3,0-3.28,4.91h6.58Z"/><path class="cls-2" d="M54,38.28a1.59,1.59,0,0,0,1.13-2.72,1.59,1.59,0,0,0-2.26,0,1.59,1.59,0,0,0-.47,1.13,1.61,1.61,0,0,0,.47,1.13,1.64,1.64,0,0,0,1.13.46Z"/><path class="cls-2" d="M59.11,38.28a1.64,1.64,0,0,0,1.13-.46,1.61,1.61,0,0,0,.47-1.13,1.59,1.59,0,0,0-.47-1.13,1.59,1.59,0,0,0-2.26,0,1.59,1.59,0,0,0-.47,1.13A1.61,1.61,0,0,0,58,37.82a1.64,1.64,0,0,0,1.13.46Z"/><path class="cls-2" d="M64.22,38.28a1.64,1.64,0,0,0,1.13-.46,1.61,1.61,0,0,0,.47-1.13,1.59,1.59,0,0,0-.47-1.13,1.59,1.59,0,0,0-2.26,0,1.59,1.59,0,0,0-.47,1.13,1.61,1.61,0,0,0,.47,1.13,1.64,1.64,0,0,0,1.13.46Z"/><path class="cls-2" d="M71,38.28h64.74a1.6,1.6,0,1,0,0-3.19H71a1.6,1.6,0,1,0,0,3.19Z"/><path class="cls-2" d="M142.59,38.28H146a1.6,1.6,0,1,0,0-3.19h-3.41a1.6,1.6,0,0,0,0,3.19Z"/><path class="cls-3" d="M146,28.27H54a8.42,8.42,0,0,0-8.41,8.42V109.1A8.42,8.42,0,0,0,54,117.51h92a8.42,8.42,0,0,0,8.41-8.41V36.69A8.42,8.42,0,0,0,146,28.27Zm-92,3.2h92a5.22,5.22,0,0,1,5.22,5.22V41.9H48.78V36.69A5.22,5.22,0,0,1,54,31.47Zm92,82.85H54a5.23,5.23,0,0,1-5.22-5.22v-64H151.22v64a5.23,5.23,0,0,1-5.22,5.22Z"/><rect class="cls-2" x="110.6" y="84.08" width="0.2" height="0.09"/><polygon class="cls-2" points="108.42 79.89 108.22 79.69 107.84 79.69 107.64 79.89 107.64 79.97 108.13 80.16 108.42 79.89"/><path class="cls-2" d="M106.12,80.16l.58.1.18-.19-.18-.19C106.38,79.88,106.19,80,106.12,80.16Z"/><path class="cls-2" d="M106.32,79.31h.09v-.2l-.29-.27h-.66v.09C105.54,79.18,105.83,79.31,106.32,79.31Z"/><polygon class="cls-2" points="97.45 87.6 97.92 87.71 98.02 87.71 98.21 87.51 97.45 87.51 97.45 87.6"/><rect class="cls-2" x="97.26" y="87.22" width="0.2" height="0.09"/><rect class="cls-2" x="97.06" y="87.6" width="0.2" height="0.11"/><rect class="cls-2" x="97.26" y="85.5" width="0.29" height="0.09"/><polygon class="cls-2" points="97.64 89.13 97.73 89.22 97.73 89.31 97.64 89.42 97.92 89.42 97.83 89.13 97.64 89.13"/><path class="cls-2" d="M101.83,81.87a3.78,3.78,0,0,0,1.44.49l.47-.09v-.4a1.75,1.75,0,0,0-1.52-.65h-.29v.09l.29.09v.09l-.11.11-.37-.11-.47.11-.78-.29h-.09C100.4,81.49,100.87,81.68,101.83,81.87Z"/><polygon class="cls-2" points="102.98 89.13 103.16 89.13 102.98 88.93 102.98 89.13"/><rect class="cls-2" x="103.36" y="87.8" width="0.18" height="0.09"/><rect class="cls-2" x="100.49" y="82.54" width="0.2" height="0.2"/><polygon class="cls-2" points="101.64 89.03 101.64 89.13 102.87 89.22 102.87 89.03 102.78 88.93 101.64 89.03"/><rect class="cls-2" x="103.27" y="88.65" width="0.38" height="0.11"/><path class="cls-2" d="M84.43,79.07a.86.86,0,0,1-.27-.54H84l-.27.27V79a.82.82,0,0,1,.54.27h.18Z"/><path class="cls-2" d="M97.55,84.08v-.2L97,83.79h-.09c0,.15.19.25.57.29Z"/><polygon class="cls-2" points="100.49 86.75 100.49 86.55 100.31 86.55 100.49 86.75"/><polygon class="cls-2" points="102.03 84.17 102.11 84.17 102.11 83.98 101.83 83.98 102.03 84.17"/><path class="cls-2" d="M103,85.59h.09l-.38-.47h-.09C102.72,85.41,102.85,85.57,103,85.59Z"/><polygon class="cls-2" points="104.32 86.64 104.41 86.55 104.88 86.64 104.99 86.64 104.99 86.37 104.32 86.37 104.32 86.64"/><rect class="cls-2" x="99.06" y="83.7" width="0.2" height="0.09"/><path class="cls-2" d="M99.26,85.32c0,.18.29.27.76.27h.09l.11-.09-.2-.18Z"/><polygon class="cls-2" points="111.85 77.21 111.85 77.05 111.56 77.09 111.56 77.12 111.85 77.21"/><polygon class="cls-2" points="96.88 79.31 96.68 79.31 96.68 79.37 96.88 79.34 96.88 79.31"/><polygon class="cls-2" points="110.31 77.21 110.14 77.21 110.22 77.3 110.31 77.28 110.31 77.21"/><polygon class="cls-2" points="111.85 77.01 111.56 76.92 111.56 77.09 111.85 77.05 111.85 77.01"/><polygon class="cls-2" points="93.63 79.78 93.35 79.78 93.35 79.88 93.68 79.83 93.63 79.78"/><path class="cls-2" d="M106.22,77.68c0-.32-.58-.55-1.72-.67v.11c.42.57.81.85,1.15.85h.17l.13,0Z"/><rect class="cls-2" x="84.43" y="79.61" width="0.18" height="0.18"/><rect class="cls-2" x="96.5" y="88.18" width="0.09" height="0.2"/><path class="cls-2" d="M85.53,80.44l-.36-.09h-.09v.19h.63q.18,0,.18.36H86l.18-.18v-.18l-.09-.47Z"/><rect class="cls-2" x="87.07" y="80.44" width="0.56" height="0.09"/><path class="cls-2" d="M84.9,74.63l-.38.54.29.27.36-.18Q85.08,74.63,84.9,74.63Z"/><path class="cls-2" d="M94.49,82.54h.09c0-.18-.24-.27-.58-.27h-.09C93.91,82.41,94.11,82.5,94.49,82.54Z"/><rect class="cls-2" x="93.91" y="87.89" width="0.2" height="0.09"/><rect class="cls-2" x="93.63" y="82.74" width="0.29" height="0.09"/><path class="cls-2" d="M94.87,88.65h-.09v.19c-.58.16-.87.29-.87.38l.76.2.49-.11C95.1,88.87,95,88.65,94.87,88.65Z"/><rect class="cls-2" x="95.74" y="88.56" width="0.18" height="0.09"/><polygon class="cls-2" points="96.88 79.4 96.88 79.34 96.68 79.37 96.68 79.4 96.88 79.4"/><polygon class="cls-2" points="105.94 77.95 105.82 77.97 105.93 77.97 105.94 77.95"/><polygon class="cls-2" points="110.31 77.28 110.22 77.3 110.31 77.39 110.31 77.28"/><polygon class="cls-2" points="93.63 79.97 93.82 79.97 93.68 79.83 93.35 79.88 93.35 79.89 93.63 79.97"/><rect class="cls-2" x="94.87" y="88.09" width="0.2" height="0.18"/><polygon class="cls-2" points="103.54 82.65 103.45 82.74 103.74 82.83 103.83 82.83 103.83 82.65 103.54 82.54 103.54 82.65"/><path class="cls-2" d="M96.88,65.29H97l.09-.09-.38-1.07H96.5l-.11.29C96.57,65,96.73,65.29,96.88,65.29Z"/><rect class="cls-2" x="100.4" y="64.71" width="0.2" height="0.2"/><rect class="cls-2" x="98.01" y="68.34" width="0.11" height="0.18"/><rect class="cls-2" x="91.82" y="79.31" width="0.2" height="0.09"/><rect class="cls-2" x="97.92" y="65.47" width="0.2" height="0.11"/><rect class="cls-2" x="100.22" y="67.48" width="0.09" height="0.2"/><polygon class="cls-2" points="93.25 71.02 93.53 71.29 93.53 71.2 93.35 71.02 93.25 71.02"/><polygon class="cls-2" points="91.91 73.78 92.4 73.87 92.49 73.87 92.49 73.67 91.91 73.58 91.91 73.78"/><rect class="cls-2" x="91.91" y="78.17" width="0.38" height="0.09"/><polygon class="cls-2" points="93.16 75.39 93.25 75.5 93.44 75.3 93.44 75.21 93.16 75.21 93.16 75.39"/><path class="cls-2" d="M92.69,66.52c0,.32-.1.49-.29.49v.29c0,.15.32.25.95.28l.28-.48v-.29C93.63,66.68,93.31,66.58,92.69,66.52Z"/><rect class="cls-2" x="105.26" y="85.7" width="0.2" height="0.09"/><path class="cls-2" d="M95.54,69.57V68.43l-.2-.2h-.18l-.29.2a.33.33,0,0,0,.38.38V69a.26.26,0,0,0-.29.29l.49.27Z"/><rect class="cls-2" x="93.82" y="65.47" width="0.09" height="0.2"/><polygon class="cls-2" points="94.49 66.52 94.29 66.52 94.29 66.72 94.49 66.52"/><polygon class="cls-2" points="95.34 69.86 95.07 69.77 94.96 69.77 94.96 69.86 95.16 69.86 95.16 70.06 94.96 70.06 94.96 70.35 95.34 70.35 95.34 70.15 95.25 70.06 95.34 69.97 95.34 69.86"/><path class="cls-2" d="M94.78,66.14l-.2.2.29.29H95v-.11a2.27,2.27,0,0,0,.67-1.23c.39,0,.58-.16.58-.49v-.18l-.09-.09c-.19,0-.29-.06-.29-.2h-.09l-.11.09c0,.52-.19.78-.56.78l-.2-.2-.58.2V65h-.18l.09.58C94.59,65.8,94.78,66,94.78,66.14Z"/><polygon class="cls-2" points="96.01 68.52 96.01 68.34 95.83 68.34 96.01 68.52"/><polygon class="cls-2" points="95.34 64.42 95.34 64.24 95.25 64.13 95.16 64.13 95.07 64.24 95.25 64.42 95.34 64.42"/><polygon class="cls-2" points="96.79 66.14 96.59 65.96 96.3 65.96 96.3 66.14 96.79 66.25 96.79 66.14"/><polygon class="cls-2" points="96.01 66.14 95.74 66.14 95.92 66.34 96.01 66.34 96.01 66.14"/><polygon class="cls-2" points="95.63 66.63 95.45 66.63 95.63 66.81 95.63 66.63"/><rect class="cls-2" x="107.46" y="84.55" width="0.09" height="0.2"/><rect class="cls-2" x="106.5" y="81.6" width="0.29" height="0.09"/><rect class="cls-2" x="106.88" y="81.69" width="0.2" height="0.09"/><polygon class="cls-2" points="108.42 84.74 108.42 84.55 108.22 84.55 108.42 84.74"/><path class="cls-2" d="M108.13,81a4.11,4.11,0,0,1-1.54-.47l-.18.27v.11H107c0,.35.28.57.85.67,0-.13.16-.2.47-.2Z"/><rect class="cls-2" x="105.17" y="81.78" width="0.2" height="0.09"/><polygon class="cls-2" points="109.09 80.82 109.09 80.73 108.71 80.55 108.51 80.55 108.42 80.64 108.6 80.82 109.09 80.82"/><polygon class="cls-2" points="92.49 64.62 92.49 64.53 92.4 64.53 92.2 64.71 92.2 64.8 92.29 64.8 92.49 64.62"/><path class="cls-2" d="M105.46,81H105c0,.1.28.23.85.38h.09l.1-.09C106,81.12,105.78,81,105.46,81Z"/><polygon class="cls-2" points="106.03 86.64 106.22 86.84 106.41 86.84 106.22 86.64 106.03 86.64"/><polygon class="cls-2" points="106.13 82.45 106.32 82.65 106.5 82.65 106.5 82.36 106.13 82.36 106.13 82.45"/><rect class="cls-2" x="108.98" y="83.12" width="0.2" height="0.09"/><polygon class="cls-2" points="109.27 78.84 109.27 79.02 109.85 79.11 109.85 79.02 109.94 78.93 109.94 78.84 109.85 78.73 109.27 78.84"/><path class="cls-2" d="M109.65,80.55q0,.27-.18.27l.29.29h.18l-.09-.56Z"/><path class="cls-2" d="M111.47,80.26h-.29v.09l.76.38h.2v-.09A.66.66,0,0,0,111.47,80.26Z"/><path class="cls-2" d="M111.56,78.93l-.38-.09h-.09a.71.71,0,0,0,.56.76l.67-.49-.76-.27Z"/><polygon class="cls-2" points="109.85 79.69 109.85 79.51 109.56 79.4 109.56 79.51 109.75 79.69 109.85 79.69"/><polygon class="cls-2" points="109.18 81.69 109.38 81.87 109.56 81.87 109.38 81.69 109.18 81.69"/><polygon class="cls-2" points="109.38 84.45 109.09 84.36 109.09 84.55 109.38 84.55 109.38 84.45"/><path class="cls-2" d="M109.27,83.88c-.06-.26-.25-.38-.56-.38h-.2c.06.25.25.38.58.38Z"/><rect class="cls-2" x="109.38" y="84.74" width="0.18" height="0.09"/><rect class="cls-2" x="77.71" y="75.8" width="0.18" height="0.09"/><rect class="cls-2" x="64.72" y="73.62" width="0.18" height="0.09"/><rect class="cls-2" x="64.72" y="75.26" width="0.18" height="0.09"/><polygon class="cls-2" points="64.63 75.44 64.07 75.53 64.07 75.71 64.27 75.71 64.72 75.62 64.63 75.53 64.63 75.44"/><rect class="cls-2" x="65.54" y="79.98" width="0.18" height="0.09"/><polygon class="cls-2" points="64.63 72.26 64.72 72.26 65.17 72.17 65.17 72.08 64.63 72.08 64.63 72.26"/><rect class="cls-2" x="85.98" y="72.44" width="0.27" height="0.09"/><rect class="cls-2" x="63.53" y="77.16" width="0.09" height="0.18"/><path class="cls-2" d="M68.08,70.53h-.36l-.27.27h.09Q68.08,70.71,68.08,70.53Z"/><polygon class="cls-2" points="64.54 77.07 64.36 77.07 64.27 77.34 64.54 77.34 64.45 77.25 64.45 77.16 64.54 77.07"/><rect class="cls-2" x="63.62" y="77.99" width="0.18" height="0.09"/><polygon class="cls-2" points="63.53 77.63 63.53 77.72 63.98 77.81 64.27 77.72 64.27 77.63 63.8 77.54 63.53 77.63"/><rect class="cls-2" x="70.9" y="71.9" width="0.18" height="0.09"/><polygon class="cls-2" points="69.89 67.8 70.18 67.8 70.18 67.62 69.89 67.71 69.89 67.8"/><rect class="cls-2" x="69.71" y="66.63" width="0.27" height="0.09"/><polygon class="cls-2" points="73.45 71.07 73.45 70.98 72.8 70.98 72.62 71.16 72.8 71.16 73.45 71.07"/><rect class="cls-2" x="70.45" y="82.25" width="0.18" height="0.09"/><polygon class="cls-2" points="83.71 76.98 83.98 77.25 83.98 77.16 83.8 76.98 83.71 76.98"/><rect class="cls-2" x="73.72" y="70.89" width="0.18" height="0.09"/><path class="cls-2" d="M67.36,76.89h-.18l-.29.27.56.18.63-.18Q68,76.89,67.36,76.89Z"/><rect class="cls-2" x="68.08" y="70.98" width="0.27" height="0.09"/><polygon class="cls-2" points="68.26 68.34 68.63 68.25 68.63 68.16 68.26 68.16 68.26 68.34"/><polygon class="cls-2" points="66.35 83.15 66.35 83.35 66.8 83.35 66.62 83.15 66.35 83.15"/><rect class="cls-2" x="77.8" y="82.61" width="0.27" height="0.09"/><path class="cls-2" d="M68.26,83.89v-.17l-.61.09a1.29,1.29,0,0,0,.52.08Z"/><polygon class="cls-2" points="67.09 84.71 66.89 84.89 67.54 84.89 67.36 84.71 67.09 84.71"/><rect class="cls-2" x="71.71" y="88.34" width="0.18" height="0.09"/><rect class="cls-2" x="77.08" y="85.25" width="0.18" height="0.09"/><rect class="cls-2" x="69.35" y="87.44" width="0.18" height="0.09"/><polygon class="cls-2" points="77.71 82.34 77.71 82.27 77.09 82.37 77.53 82.34 77.71 82.34"/><polygon class="cls-2" points="77.71 82.16 77.26 82.16 75.71 81.98 75.53 82.25 76.08 82.43 77.09 82.37 77.71 82.27 77.71 82.16"/><path class="cls-2" d="M68.26,83.71q-.09-.27-.54-.27h-.36v.09a.45.45,0,0,0,.29.28l.61-.09Z"/><path class="cls-2" d="M81.52,81.89V81.8s0-.07,0-.11l-.2,0,0,.17Z"/><rect class="cls-2" x="81.25" y="86.98" width="0.09" height="0.18"/><path class="cls-2" d="M81.25,81.26v.18l.06.28.2,0C81.46,81.41,81.38,81.26,81.25,81.26Z"/><polygon class="cls-2" points="78.9 85.61 79.08 85.79 79.17 85.79 78.99 85.61 78.9 85.61"/><polygon class="cls-2" points="74.98 88.61 75.44 88.7 75.44 88.52 74.98 88.52 74.98 88.61"/><polygon class="cls-2" points="80.89 87.8 80.98 87.44 80.62 87.8 80.89 87.8"/><path class="cls-2" d="M80.71,87.07q0,.21.45.27v-.09L81,87.07Z"/><polygon class="cls-2" points="78.16 88.97 78.16 89.06 78.52 88.7 78.43 88.7 78.16 88.97"/><path class="cls-2" d="M79.72,84.26q0,.18.45.36v-.09Q80.17,84.31,79.72,84.26Z"/><path class="cls-2" d="M75.25,87.44l-.18.18c.06.18.24.27.55.27h.65A1.18,1.18,0,0,0,75.25,87.44Z"/><path class="cls-2" d="M75.25,85.88l-.36.09v.2l.45.09h.93l.09.09h.09v-.18h-.27A1.59,1.59,0,0,1,75.25,85.88Z"/><rect class="cls-2" x="71.17" y="66.9" width="0.45" height="0.09"/><polygon class="cls-2" points="76.72 87.98 76.72 88.07 77.62 88.25 77.62 88.07 77.17 87.98 76.72 87.98"/><polygon class="cls-2" points="84.25 81.53 84.07 81.35 83.98 81.35 84.16 81.53 84.25 81.53"/><path class="cls-2" d="M78.16,65.25H78c-.44,0-.68.09-.72.28h.18C77.89,65.53,78.13,65.43,78.16,65.25Z"/><polygon class="cls-2" points="94.49 67.58 94.49 67.48 94.29 67.3 94 67.3 93.82 67.48 93.82 67.67 94.29 67.77 94.49 67.58"/><rect class="cls-2" x="78.34" y="76.25" width="0.18" height="0.09"/><polygon class="cls-2" points="72.17 81.98 72.35 82.16 73 82.16 73 82.07 72.53 81.89 72.17 81.98"/><polygon class="cls-2" points="78.43 73.44 78.43 73.53 78.61 73.53 79.35 73.35 79.35 73.26 79.17 73.26 78.43 73.44"/><rect class="cls-2" x="78.43" y="75.98" width="0.18" height="0.18"/><rect class="cls-2" x="77.35" y="73.44" width="0.27" height="0.09"/><polygon class="cls-2" points="77.44 66.45 77.71 66.45 77.98 66.36 77.98 66.27 77.89 66.27 77.44 66.36 77.44 66.45"/><path class="cls-2" d="M78.61,70.17V70h-.54q-.66,0-.72.27v.09h.36Z"/><rect class="cls-2" x="78.43" y="74.72" width="0.09" height="0.18"/><polygon class="cls-2" points="78.34 77.63 78.43 77.72 78.52 77.72 78.61 77.45 78.52 77.45 78.34 77.63"/><polygon class="cls-2" points="82.53 74.72 82.62 74.63 82.62 74.54 82.35 74.54 82.53 74.72"/><path class="cls-2" d="M83.17,76.8,83,77v.18l.19.18h.09q.13,0,.27-.36l-.27-.18Z"/><polygon class="cls-2" points="82.71 77.81 82.89 77.63 82.71 77.63 82.71 77.81"/><polygon class="cls-2" points="79.63 81.71 79.9 81.62 79.9 81.53 79.44 81.53 79.63 81.71"/><polygon class="cls-2" points="83.53 74.81 83.44 74.9 83.53 75.17 83.71 74.99 83.53 74.81"/><path class="cls-2" d="M84.34,75.44l.09-.63-.09-.09h-.09l-.09.09v.09l.09.09q-.54.2-.54.63l.09.09-.18.18v.18h.18Q83.8,75.89,84.34,75.44Z"/><polygon class="cls-2" points="80.71 79.52 80.98 79.8 81.07 79.8 80.8 79.52 80.71 79.52"/><polygon class="cls-2" points="80.71 75.26 80.53 75.08 80.44 75.17 80.44 75.26 80.53 75.35 80.71 75.35 80.71 75.26"/><rect class="cls-2" x="80.98" y="78.35" width="0.18" height="0.09"/><path class="cls-2" d="M80.89,77.34v.11a1,1,0,0,1,.63-.29l-.09-.09V77q.27-.09.27-.54h-.18Z"/><polygon class="cls-2" points="79.53 70.53 79.35 70.35 79.35 70.62 79.53 70.62 79.53 70.53"/><polygon class="cls-2" points="76.81 77.72 76.81 77.54 76.63 77.72 76.81 77.72"/><polygon class="cls-2" points="77.08 77.54 77.08 77.25 76.81 77.25 77.08 77.54"/><rect class="cls-2" x="75.99" y="76.62" width="0.18" height="0.18"/><path class="cls-2" d="M85.35,71.34h-.09v.09l.09.38-.09.27h.09l.09.09h.09l.09-.09V71.9C85.59,71.53,85.5,71.34,85.35,71.34Z"/><polygon class="cls-2" points="85.08 77.45 85.26 77.45 85.26 76.71 85.17 76.71 85.08 77.45"/><polygon class="cls-2" points="73.18 72.44 74.08 72.17 74.08 71.99 73.27 71.99 73.18 72.44"/><path class="cls-2" d="M75.52,77.54v.09l.19.18h.19C75.9,77.71,75.78,77.62,75.52,77.54Z"/><polygon class="cls-2" points="74.44 79.52 74.71 79.8 74.8 79.8 74.8 79.7 74.62 79.52 74.44 79.52"/><rect class="cls-2" x="79.26" y="69.9" width="0.18" height="0.09"/><polygon class="cls-2" points="76.81 73.44 76.63 73.62 76.81 73.62 76.81 73.44"/><rect class="cls-2" x="85.35" y="71.16" width="0.18" height="0.09"/><rect class="cls-2" x="84.72" y="70.8" width="0.09" height="0.18"/><rect class="cls-2" x="81.16" y="69.44" width="0.45" height="0.09"/><rect class="cls-2" x="83.8" y="73.89" width="0.18" height="0.09"/><rect class="cls-2" x="80.62" y="73.17" width="0.18" height="0.18"/><path class="cls-2" d="M81.52,73.53v-.45q-.54.09-.54.27v.09l.45.09Z"/><polygon class="cls-2" points="83.26 69.72 83.08 69.53 82.98 69.53 82.8 69.72 82.8 69.9 83.08 69.99 83.26 69.72"/><polygon class="cls-2" points="83.89 72.44 83.89 72.35 83.71 72.17 83.53 72.17 83.53 72.44 83.71 72.62 83.89 72.44"/><polygon class="cls-2" points="84.34 70.26 84.43 69.9 84.34 69.53 84.43 69.44 84.25 69.44 84.16 69.99 84.25 70.26 84.34 70.26"/><path class="cls-2" d="M84.61,72.08a4.45,4.45,0,0,0,.74-1.37v-.18H85V71a1.54,1.54,0,0,0-.56.92Z"/><polygon class="cls-2" points="84.34 72.71 84.34 72.53 84.16 72.35 84.07 72.35 83.98 72.81 84.25 72.62 84.34 72.71"/><polygon class="cls-2" points="92.87 65.47 92.87 65.2 92.4 65.2 92.29 65.47 92.4 65.58 92.87 65.47"/><polygon class="cls-2" points="118.63 79.97 118.43 79.78 118.16 79.78 118.16 79.89 118.43 79.97 118.63 79.97"/><rect class="cls-2" x="121.3" y="88.18" width="0.09" height="0.2"/><rect class="cls-2" x="118.43" y="82.74" width="0.29" height="0.09"/><path class="cls-2" d="M119.67,88.65h-.09v.19c-.57.16-.86.29-.86.38l.75.2.49-.11C119.9,88.87,119.81,88.65,119.67,88.65Z"/><rect class="cls-2" x="120.54" y="88.56" width="0.18" height="0.09"/><rect class="cls-2" x="118.72" y="87.89" width="0.2" height="0.09"/><rect class="cls-2" x="116.71" y="78.17" width="0.38" height="0.09"/><rect class="cls-2" x="116.62" y="79.31" width="0.2" height="0.09"/><path class="cls-2" d="M119.29,82.54h.09c0-.18-.24-.27-.57-.27h-.09Q118.72,82.48,119.29,82.54Z"/><polygon class="cls-2" points="126.45 70.15 126.54 70.15 126.54 69.97 126.25 69.97 126.45 70.15"/><rect class="cls-2" x="122.06" y="85.5" width="0.29" height="0.09"/><polygon class="cls-2" points="122.44 89.13 122.53 89.22 122.53 89.31 122.44 89.42 122.73 89.42 122.64 89.13 122.44 89.13"/><polygon class="cls-2" points="122.26 87.6 122.73 87.71 122.82 87.71 123.02 87.51 122.26 87.51 122.26 87.6"/><rect class="cls-2" x="135.41" y="84.08" width="0.2" height="0.09"/><polygon class="cls-2" points="134.56 74.92 134.36 74.74 134.27 74.74 134.45 74.92 134.56 74.92"/><rect class="cls-2" x="121.48" y="79.31" width="0.2" height="0.09"/><path class="cls-2" d="M134.18,76.92a.66.66,0,0,0-.67-.38v.29l.67.18Z"/><path class="cls-2" d="M122.35,84.08v-.2l-.58-.09h-.09c0,.15.19.25.58.29Z"/><rect class="cls-2" x="93.91" y="70.35" width="0.2" height="0.09"/><rect class="cls-2" x="121.86" y="87.6" width="0.2" height="0.11"/><rect class="cls-2" x="122.06" y="87.22" width="0.2" height="0.09"/><path class="cls-2" d="M135.32,72.82v.09l-.49-.18-.18.18-.29-.18h-.18v.09a3.7,3.7,0,0,0,1.32.58l.39-.11A.76.76,0,0,0,135.32,72.82Z"/><polygon class="cls-2" points="133.4 71.49 133.69 71.58 133.69 71.4 133.4 71.4 133.4 71.49"/><path class="cls-2" d="M131.59,69.68c.57.06.85.28.85.67h.67l.2-.2v-.09c0-.24-.57-.43-1.72-.58Z"/><polygon class="cls-2" points="130.93 69.1 131.13 69.3 131.31 69.3 131.13 69.1 130.93 69.1"/><polygon class="cls-2" points="133.22 79.89 133.02 79.69 132.64 79.69 132.44 79.89 132.44 79.97 132.93 80.16 133.22 79.89"/><polygon class="cls-2" points="131.5 67.19 131.79 67.19 131.79 66.81 131.31 66.72 130.93 66.72 130.84 67.01 131.13 66.92 131.5 67.19"/><path class="cls-2" d="M132.64,70.44l-.29.18-.67-.09h-.09v.09l1.72.49h.09V71C133.32,70.8,133.06,70.61,132.64,70.44Z"/><polygon class="cls-2" points="127.03 70.73 127.2 70.91 127.3 70.91 127.11 70.73 127.03 70.73"/><path class="cls-2" d="M135.23,71.2v-.09l-.2-.2h-.38C134.65,71.06,134.84,71.16,135.23,71.2Z"/><polygon class="cls-2" points="134.18 69.86 133.98 69.86 134.18 70.06 134.18 69.86"/><path class="cls-2" d="M134.27,72.53h.09l.2-.18v-.11L133.22,72A1.51,1.51,0,0,0,134.27,72.53Z"/><polygon class="cls-2" points="132.64 66.81 132.35 66.52 132.26 66.52 132.26 66.63 132.44 66.81 132.64 66.81"/><polygon class="cls-2" points="132.73 71.78 132.73 71.96 132.84 72.06 132.93 72.06 133.02 71.96 132.84 71.78 132.73 71.78"/><path class="cls-2" d="M130.93,72.91h-.38l-.09-.09V73a2.19,2.19,0,0,0,1.13.49l.47-.09v-.29l-.75-.29Z"/><polygon class="cls-2" points="129.97 72.73 129.97 72.91 130.26 72.91 130.06 72.73 129.97 72.73"/><polygon class="cls-2" points="133.22 72.44 133.11 72.53 133.31 72.73 133.4 72.73 133.51 72.62 133.31 72.44 133.22 72.44"/><path class="cls-2" d="M128.07,69.57H128c0,.18.35.37,1,.58h.11v-.09C129.12,70,128.77,69.8,128.07,69.57Z"/><path class="cls-2" d="M130.06,69.48v-.09c0-.11-.16-.2-.47-.29l-.58.09v.11l1,.18Z"/><polygon class="cls-2" points="130.06 70.73 130.55 70.82 130.55 70.62 130.06 70.53 130.06 70.73"/><rect class="cls-2" x="129.3" y="71.68" width="0.38" height="0.09"/><path class="cls-2" d="M130.73,72.06V72c0-.19-.24-.28-.56-.28H130l-.09.09c0,.15.19.25.58.29Z"/><rect class="cls-2" x="119.67" y="88.09" width="0.2" height="0.18"/><polygon class="cls-2" points="133.22 84.74 133.22 84.55 133.02 84.55 133.22 84.74"/><polygon class="cls-2" points="134.18 84.45 133.89 84.36 133.89 84.55 134.18 84.55 134.18 84.45"/><path class="cls-2" d="M132.93,81a4,4,0,0,1-1.53-.47l-.18.27v.11h.57c0,.35.29.57.85.67,0-.13.16-.2.47-.2Z"/><path class="cls-2" d="M132.06,76.06v-.18l-.27-.1h-.11C131.68,75.88,131.81,76,132.06,76.06Z"/><polygon class="cls-2" points="130.84 86.64 131.02 86.84 131.22 86.84 131.02 86.64 130.84 86.64"/><polygon class="cls-2" points="133.89 80.82 133.89 80.73 133.51 80.55 133.31 80.55 133.22 80.64 133.4 80.82 133.89 80.82"/><polygon class="cls-2" points="130.93 82.45 131.13 82.65 131.31 82.65 131.31 82.36 130.93 82.36 130.93 82.45"/><rect class="cls-2" x="131.31" y="81.6" width="0.29" height="0.09"/><rect class="cls-2" x="131.68" y="81.69" width="0.2" height="0.09"/><rect class="cls-2" x="132.26" y="84.55" width="0.09" height="0.2"/><rect class="cls-2" x="133.78" y="83.12" width="0.2" height="0.09"/><polygon class="cls-2" points="136.65 77.01 136.36 76.92 136.36 77.12 136.65 77.21 136.65 77.01"/><polygon class="cls-2" points="135.12 77.39 135.12 77.21 134.94 77.21 135.12 77.39"/><path class="cls-2" d="M136.27,80.26H136v.09l.76.38h.2v-.09A.66.66,0,0,0,136.27,80.26Z"/><rect class="cls-2" x="134.18" y="84.74" width="0.18" height="0.09"/><path class="cls-2" d="M136.36,78.93l-.38-.09h-.09a.71.71,0,0,0,.56.76l.67-.49-.76-.27Z"/><polygon class="cls-2" points="134.07 78.84 134.07 79.02 134.65 79.11 134.65 79.02 134.74 78.93 134.74 78.84 134.65 78.73 134.07 78.84"/><path class="cls-2" d="M134.45,80.55q0,.27-.18.27l.29.29h.18l-.09-.56Z"/><polygon class="cls-2" points="133.98 81.69 134.18 81.87 134.36 81.87 134.18 81.69 133.98 81.69"/><polygon class="cls-2" points="134.65 79.69 134.65 79.51 134.36 79.4 134.36 79.51 134.56 79.69 134.65 79.69"/><path class="cls-2" d="M134.07,83.88c-.06-.26-.25-.38-.56-.38h-.2c.06.25.25.38.58.38Z"/><path class="cls-2" d="M130.26,81h-.47c0,.1.28.23.85.38h.09l.11-.09C130.78,81.12,130.58,81,130.26,81Z"/><path class="cls-2" d="M127.78,85.59h.09l-.38-.47h-.09C127.52,85.41,127.65,85.57,127.78,85.59Z"/><rect class="cls-2" x="123.86" y="83.7" width="0.2" height="0.09"/><polygon class="cls-2" points="126.83 84.17 126.92 84.17 126.92 83.98 126.63 83.98 126.83 84.17"/><path class="cls-2" d="M126.63,81.87a3.78,3.78,0,0,0,1.44.49l.47-.09v-.4a1.75,1.75,0,0,0-1.52-.65h-.28v.09l.28.09v.09l-.1.11-.38-.11-.47.11-.78-.29h-.09C125.2,81.49,125.68,81.68,126.63,81.87Z"/><path class="cls-2" d="M124.06,85.32c0,.18.29.27.76.27h.09l.11-.09-.2-.18Z"/><path class="cls-2" d="M130.46,78h.27l.29-.29c0-.32-.58-.55-1.72-.67v.11C129.72,77.69,130.11,78,130.46,78Z"/><path class="cls-2" d="M130.93,80.16l.57.1.18-.19-.18-.19C131.18,79.88,131,80,130.93,80.16Z"/><rect class="cls-2" x="126.54" y="77.77" width="0.2" height="0.11"/><polygon class="cls-2" points="128.54 75.21 128.34 75.01 128.25 75.01 128.45 75.21 128.54 75.21"/><rect class="cls-2" x="128.16" y="87.8" width="0.18" height="0.09"/><polygon class="cls-2" points="129.12 86.64 129.21 86.55 129.68 86.64 129.79 86.64 129.79 86.37 129.12 86.37 129.12 86.64"/><polygon class="cls-2" points="125.29 86.75 125.29 86.55 125.11 86.55 125.29 86.75"/><polygon class="cls-2" points="128.34 82.65 128.25 82.74 128.54 82.83 128.63 82.83 128.63 82.65 128.34 82.54 128.34 82.65"/><rect class="cls-2" x="129.97" y="81.78" width="0.2" height="0.09"/><rect class="cls-2" x="130.06" y="85.7" width="0.2" height="0.09"/><rect class="cls-2" x="125.29" y="82.54" width="0.2" height="0.2"/><polygon class="cls-2" points="126.45 89.03 126.45 89.13 127.67 89.22 127.67 89.03 127.58 88.93 126.45 89.03"/><rect class="cls-2" x="128.07" y="88.65" width="0.38" height="0.11"/><polygon class="cls-2" points="127.78 89.13 127.96 89.13 127.78 88.93 127.78 89.13"/><path class="cls-2" d="M130.26,78.84v.09c.08.25.37.38.86.38h.1v-.2l-.29-.27Z"/><polygon class="cls-2" points="106.13 69.1 106.32 69.3 106.5 69.3 106.32 69.1 106.13 69.1"/><polygon class="cls-2" points="106.7 67.19 106.99 67.19 106.99 66.81 106.5 66.72 106.13 66.72 106.03 67.01 106.32 66.92 106.7 67.19"/><path class="cls-2" d="M110.42,71.2v-.09l-.2-.2h-.37C109.85,71.06,110,71.16,110.42,71.2Z"/><polygon class="cls-2" points="107.84 66.81 107.55 66.52 107.46 66.52 107.46 66.63 107.64 66.81 107.84 66.81"/><path class="cls-2" d="M103.27,69.57h-.11c0,.18.35.37,1,.58h.11v-.09C104.32,70,104,69.8,103.27,69.57Z"/><path class="cls-2" d="M109.47,72.53h.09l.2-.18v-.11L108.42,72A1.51,1.51,0,0,0,109.47,72.53Z"/><path class="cls-2" d="M105.26,69.48v-.09c0-.11-.16-.2-.47-.29l-.58.09v.11l1,.18Z"/><polygon class="cls-2" points="109.38 69.86 109.18 69.86 109.38 70.06 109.38 69.86"/><path class="cls-2" d="M106.79,69.68c.57.06.85.28.85.67h.67l.2-.2v-.09c0-.24-.57-.43-1.72-.58Z"/><polygon class="cls-2" points="108.6 71.49 108.89 71.58 108.89 71.4 108.6 71.4 108.6 71.49"/><polygon class="cls-2" points="103.45 75.01 103.65 75.21 103.74 75.21 103.54 75.01 103.45 75.01"/><polygon class="cls-2" points="108.51 72.44 108.42 72.44 108.31 72.53 108.51 72.73 108.6 72.73 108.71 72.62 108.51 72.44"/><polygon class="cls-2" points="107.93 71.78 107.93 71.96 108.04 72.06 108.13 72.06 108.22 71.96 108.04 71.78 107.93 71.78"/><path class="cls-2" d="M108.71,76.54v.29l.67.18v-.09A.67.67,0,0,0,108.71,76.54Z"/><path class="cls-2" d="M106.12,72.91h-.37l-.1-.09V73a2.19,2.19,0,0,0,1.14.49l.47-.09v-.29l-.76-.29Z"/><polygon class="cls-2" points="109.47 74.74 109.65 74.92 109.75 74.92 109.56 74.74 109.47 74.74"/><polygon class="cls-2" points="105.26 70.73 105.75 70.82 105.75 70.62 105.26 70.53 105.26 70.73"/><path class="cls-2" d="M106.88,75.78c0,.1.13.19.38.28v-.18l-.27-.1Z"/><rect class="cls-2" x="104.5" y="71.68" width="0.38" height="0.09"/><path class="cls-2" d="M105.93,72.06V72c-.05-.19-.24-.28-.56-.28h-.2l-.09.09c0,.15.19.25.57.29Z"/><polygon class="cls-2" points="105.17 72.73 105.17 72.91 105.46 72.91 105.26 72.73 105.17 72.73"/><polygon class="cls-2" points="101.73 69.97 101.45 69.97 101.64 70.15 101.73 70.15 101.73 69.97"/><polygon class="cls-2" points="102.22 70.73 102.4 70.91 102.49 70.91 102.31 70.73 102.22 70.73"/><polygon class="cls-2" points="97.35 74.25 97.35 74.45 97.64 74.45 97.45 74.25 97.35 74.25"/><path class="cls-2" d="M96.79,70.73h-.11c-.38,0-.63.22-.76.67l.58.18c0-.16.15-.41.47-.76h-.09Z"/><polygon class="cls-2" points="98.21 68.81 98.21 68.63 97.64 68.63 97.64 68.72 98.12 68.81 98.21 68.81"/><polygon class="cls-2" points="98.12 71.11 98.12 70.91 97.92 71.11 98.12 71.11"/><polygon class="cls-2" points="94.58 75.12 94.58 74.92 94.4 74.92 94.58 75.12"/><path class="cls-2" d="M98.77,70.24l-.47-.18-.09.09h-.09l-.2-.18h-.09l-.1.09c.32.23.48.41.48.56l.56-.09Z"/><path class="cls-2" d="M94.67,71.87l-.38.19v.29l.49.18v-.09H95C95,72.12,94.87,71.93,94.67,71.87Z"/><polygon class="cls-2" points="95.74 70.53 95.34 70.53 95.54 70.73 95.92 70.73 95.74 70.53"/><polygon class="cls-2" points="94.67 71.11 94.58 71.2 94.58 71.49 94.87 71.49 95.07 71.29 94.67 71.02 94.67 71.11"/><path class="cls-2" d="M96.79,68.52H96.5v.11l.09.09-.09.47h.09l.09.11h.11a.5.5,0,0,0,.56-.58Z"/><polygon class="cls-2" points="100.89 68.23 100.89 68.05 100.69 68.05 100.89 68.23"/><path class="cls-2" d="M101.45,64.33l-.38.2v.09h.09c.19,0,.29-.06.29-.2Z"/><path class="cls-2" d="M110.51,72.82v.09l-.48-.18-.18.18-.29-.18h-.18v.09a3.76,3.76,0,0,0,1.31.58l.4-.11A.78.78,0,0,0,110.51,72.82Z"/><rect class="cls-2" x="101.74" y="77.77" width="0.2" height="0.11"/><rect class="cls-2" x="99.17" y="64.91" width="0.27" height="0.09"/><polygon class="cls-2" points="98.97 72.25 99.06 72.25 99.26 72.06 98.97 72.06 98.97 72.25"/><path class="cls-2" d="M98.68,72.62h-.09c0,.14.18.26.47.38v-.09C99.06,72.82,98.94,72.72,98.68,72.62Z"/><polygon class="cls-2" points="100.49 74.07 100.6 74.16 100.78 73.96 100.49 73.96 100.49 74.07"/><path class="cls-2" d="M100.22,74.54v.2l.27.09h.2C100.69,74.72,100.53,74.62,100.22,74.54Z"/><path class="cls-2" d="M107.84,70.44l-.29.18-.67-.09h-.09v.09l1.72.49h.09V71C108.52,70.8,108.26,70.61,107.84,70.44Z"/><path class="cls-2" d="M119.47,71.87l-.37.19v.29l.48.18v-.09h.18C119.76,72.12,119.67,71.93,119.47,71.87Z"/><polygon class="cls-2" points="119.38 75.12 119.38 74.92 119.2 74.92 119.38 75.12"/><polygon class="cls-2" points="119.47 71.11 119.38 71.2 119.38 71.49 119.67 71.49 119.87 71.29 119.47 71.02 119.47 71.11"/><path class="cls-2" d="M121.59,70.73h-.11c-.37,0-.63.22-.76.67l.58.18c0-.16.16-.41.47-.76h-.09Z"/><path class="cls-2" d="M121.59,68.52h-.29v.11l.09.09-.09.47h.09l.09.11h.11a.5.5,0,0,0,.56-.58Z"/><polygon class="cls-2" points="120.54 70.53 120.14 70.53 120.34 70.73 120.72 70.73 120.54 70.53"/><polygon class="cls-2" points="119.29 66.52 119.09 66.52 119.09 66.72 119.29 66.52"/><rect class="cls-2" x="118.63" y="65.47" width="0.09" height="0.2"/><rect class="cls-2" x="118.72" y="70.35" width="0.2" height="0.09"/><polygon class="cls-2" points="119.29 67.58 119.29 67.48 119.09 67.3 118.81 67.3 118.63 67.48 118.63 67.67 119.09 67.77 119.29 67.58"/><polygon class="cls-2" points="120.43 66.63 120.25 66.63 120.43 66.81 120.43 66.63"/><polygon class="cls-2" points="122.15 74.25 122.15 74.45 122.44 74.45 122.26 74.25 122.15 74.25"/><rect class="cls-2" x="123.97" y="64.91" width="0.27" height="0.09"/><path class="cls-2" d="M126.25,64.33l-.38.2v.09H126c.19,0,.29-.06.29-.2Z"/><polygon class="cls-2" points="123.77 72.25 123.86 72.25 124.06 72.06 123.77 72.06 123.77 72.25"/><polygon class="cls-2" points="125.29 74.07 125.4 74.16 125.58 73.96 125.29 73.96 125.29 74.07"/><path class="cls-2" d="M125,74.54v.2l.27.09h.2C125.49,74.72,125.33,74.62,125,74.54Z"/><polygon class="cls-2" points="122.92 71.11 122.92 70.91 122.73 71.11 122.92 71.11"/><polygon class="cls-2" points="123.02 68.81 123.02 68.63 122.44 68.63 122.44 68.72 122.92 68.81 123.02 68.81"/><path class="cls-2" d="M123.48,72.62h-.09c0,.14.18.26.47.38v-.09C123.86,72.82,123.74,72.72,123.48,72.62Z"/><path class="cls-2" d="M123.57,70.24l-.46-.18-.09.09h-.1l-.19-.18h-.09l-.11.09c.32.23.49.41.49.56l.55-.09Z"/><polygon class="cls-2" points="125.69 68.23 125.69 68.05 125.49 68.05 125.69 68.23"/><path class="cls-2" d="M117.49,66.52c0,.32-.1.49-.29.49v.29c0,.15.32.25,1,.28l.27-.48v-.29C118.43,66.68,118.11,66.58,117.49,66.52Z"/><rect class="cls-2" x="122.82" y="68.34" width="0.11" height="0.18"/><polygon class="cls-2" points="118.05 71.02 118.34 71.29 118.34 71.2 118.16 71.02 118.05 71.02"/><rect class="cls-2" x="125.02" y="67.48" width="0.09" height="0.2"/><rect class="cls-2" x="122.73" y="65.47" width="0.2" height="0.11"/><rect class="cls-2" x="125.2" y="64.71" width="0.2" height="0.2"/><polygon class="cls-2" points="117.29 64.62 117.29 64.53 117.2 64.53 117 64.71 117 64.8 117.09 64.8 117.29 64.62"/><polygon class="cls-2" points="117.67 65.47 117.67 65.2 117.2 65.2 117.09 65.47 117.2 65.58 117.67 65.47"/><polygon class="cls-2" points="117.96 75.39 118.05 75.5 118.25 75.3 118.25 75.21 117.96 75.21 117.96 75.39"/><polygon class="cls-2" points="116.71 73.78 117.2 73.87 117.29 73.87 117.29 73.67 116.71 73.58 116.71 73.78"/><polygon class="cls-2" points="120.14 64.42 120.14 64.24 120.05 64.13 119.96 64.13 119.87 64.24 120.05 64.42 120.14 64.42"/><polygon class="cls-2" points="120.14 69.86 119.87 69.77 119.76 69.77 119.76 69.86 119.96 69.86 119.96 70.06 119.76 70.06 119.76 70.35 120.14 70.35 120.14 70.15 120.05 70.06 120.14 69.97 120.14 69.86"/><polygon class="cls-2" points="120.81 66.14 120.54 66.14 120.72 66.34 120.81 66.34 120.81 66.14"/><path class="cls-2" d="M121.68,65.29h.09l.09-.09-.38-1.07h-.18l-.11.29C121.37,65,121.53,65.29,121.68,65.29Z"/><path class="cls-2" d="M119.58,66.14l-.2.2.29.29h.09v-.11a2.27,2.27,0,0,0,.67-1.23c.39,0,.58-.16.58-.49v-.18l-.09-.09c-.19,0-.29-.06-.29-.2h-.09l-.11.09c0,.52-.18.78-.56.78l-.2-.2-.57.2V65h-.19l.1.58C119.39,65.8,119.58,66,119.58,66.14Z"/><polygon class="cls-2" points="120.81 68.52 120.81 68.34 120.63 68.34 120.81 68.52"/><polygon class="cls-2" points="121.59 66.14 121.39 65.96 121.1 65.96 121.1 66.14 121.59 66.25 121.59 66.14"/><path class="cls-2" d="M120.34,69.57V68.43l-.2-.2H120l-.29.2a.33.33,0,0,0,.38.38V69a.26.26,0,0,0-.29.29l.49.27Z"/><rect class="cls-2" x="76.63" y="53.39" width="0.18" height="0.09"/><polygon class="cls-2" points="63.17 66.28 63.17 66.01 62.99 66.01 62.9 66.1 63.08 66.28 63.17 66.28"/><polygon class="cls-2" points="76.54 52.29 76.36 52.29 76.27 52.56 76.54 52.74 76.54 52.29"/><polygon class="cls-2" points="69.71 60.02 69.8 59.93 69.8 59.84 69.71 59.75 69.62 59.75 69.53 59.84 69.53 59.93 69.62 60.02 69.71 60.02"/><polygon class="cls-2" points="76 51.38 76 51.29 75.8 51.29 75.34 51.65 75.53 51.83 76 51.38"/><polygon class="cls-2" points="57.08 71.11 56.99 71.02 56.81 71.2 57.08 71.2 57.08 71.11"/><path class="cls-2" d="M89.07,70.93V71l.09.09a1.09,1.09,0,0,0,.63-.36v-.09l-.09-.09Q89.07,70.68,89.07,70.93Z"/><polygon class="cls-2" points="57.08 79.09 56.99 79.2 57.17 79.38 57.26 79.38 57.35 79.29 57.17 79.09 57.08 79.09"/><path class="cls-2" d="M58.08,69.37H58l-.09.09-.18-.18h-.19v.18l1.11.36v-.09l.09-.09C58.73,69.52,58.51,69.43,58.08,69.37Z"/><polygon class="cls-2" points="62.54 67.19 62.45 67.1 62.36 67.1 62.27 67.19 62.27 67.28 62.36 67.37 62.45 67.37 62.54 67.28 62.54 67.19"/><polygon class="cls-2" points="61.73 74.83 61.73 74.56 61.45 74.56 61.45 74.65 61.63 74.83 61.73 74.83"/><polygon class="cls-2" points="61.73 78.1 61.73 78.01 61.63 77.92 61.55 77.92 61.45 78.01 61.45 78.1 61.55 78.19 61.63 78.19 61.73 78.1"/><rect class="cls-2" x="76.63" y="51.83" width="0.18" height="0.27"/><polygon class="cls-2" points="87.34 73.83 87.43 73.74 87.25 73.56 87.25 73.83 87.34 73.83"/><polygon class="cls-2" points="63.62 83.1 63.71 83.19 63.89 83.01 63.62 83.01 63.62 83.1"/><rect class="cls-2" x="64.07" y="82.65" width="0.11" height="0.18"/><polygon class="cls-2" points="64.45 83.15 64.54 83.14 64.54 83.01 64.45 83.01 64.45 83.15"/><rect class="cls-2" x="63.44" y="82.65" width="0.18" height="0.18"/><path class="cls-2" d="M88.44,74.83c-.11-.72-.26-1.09-.45-1.09H87.9l-.09.09a.32.32,0,0,0,.36.37v.09l-.54.09c-.2,0-.29-.12-.29-.36h-.09l-.27.36.27.09v.18q-.36,0-.36.45L86,74a.89.89,0,0,1,.45-.73v.18h.19v-.29l-.09-.09c-.25,0-.37-.06-.37-.18s-.09-.36-.27-.36v-.18l.09-.09h-.09l-.09-.09h-.36l-.27.18q0,.63-.45.63c-.19,0-.29-.23-.29-.54V72.1l.18-.45h.2l.09.09q0,.36.27.36h.54v-.54l-.09-.09h.09l1.36,1.44c.61,0,.92.06.92.18h.09l.09-.09a7.72,7.72,0,0,0-1.28-3.36h-.36v.18h-.19q0-.36-.18-.36c0-.08.12-.17.37-.27a.24.24,0,0,0,.27.27v-.18c-2.74-4.3-6.52-6.45-11.37-6.45v-.18h-.18v.18a15.46,15.46,0,0,0-5.9,1.45,13,13,0,0,0-6.18,7.28q-.09.9-.45.9v.18h.18l-.36,3v.27q.27,3.18.63,3.18v.11l-.09.09v.18l.27.63h.09l.09-.09.45.09v.09h-.54v.09L64.07,82v.2l-.36.18.18.18.56-.18a3.52,3.52,0,0,0,.44.7l2.76-.42a.45.45,0,0,1-.29-.28v-.09h.36q.45,0,.54.27h0l8.83-1.36-1,.07-.56-.18.19-.28,1.55.19h.45v.11l3.6-.55-.06-.29V80.1c.13,0,.21.15.26.44l6.34-1a14.45,14.45,0,0,0,.59-4.2ZM86,71.29h.27v.09H86ZM63.53,76h.09v.18h-.09Zm.27.92h-.18v-.09h.18Zm.47-.36-.29.09-.45-.09v-.09l.27-.09.47.09Zm.27-.38h-.27l.09-.27h.18l-.09.09v.09Zm-.27-1.62h-.2v-.18l.56-.09v.09l.09.09Zm.63-.36h-.18v-.09h.18Zm0-1.65h-.18v-.09h.18ZM65.18,71l-.46.09h-.09v-.18h.55Zm.54,7.89h-.18v-.09h.18Zm2-9.54h.36q0,.18-.54.27h-.09ZM66.35,82.2V82h.27l.18.2Zm1.1-6L66.89,76l.29-.27h.18q.67,0,.72.27Zm.9-6.26h-.27v-.1h.27Zm.28-2.82-.37.09V67h.37Zm5.09,2.63h.18v.09h-.18Zm-.92.09h.65v.1L72.8,70h-.18Zm-3.09-4.35H70v.09h-.27Zm.47,1.18h-.29v-.09l.29-.09Zm.45,14.54h-.18V81.1h.18Zm.45-10.35H70.9v-.09h.18Zm.54-5h-.45v-.09h.45ZM73,81h-.65l-.18-.19.36-.09.47.19Zm1.08-10-.9.27.09-.45h.81Zm.72,7.62h-.09l-.27-.27h.18l.18.18Zm2-6.36v.18h-.18Zm-1.1,4.37-.19-.18v-.09c.26.09.38.18.38.27Zm.47-1H76v-.18h.19Zm.63.92h-.18l.18-.18Zm.27-.18-.27-.29h.27Zm8.18-.83v.74h-.18l.09-.74Zm.36-4.62-.09.09h-.09l-.09-.09h-.09l.09-.27-.09-.38v-.09h.09c.15,0,.24.18.27.56Zm-.09-.83h-.18V70h.18Zm-.81-.46h.09v.18h-.09Zm.27.18v-.45h.36v.18a4.56,4.56,0,0,1-.74,1.38l-.18-.18A1.55,1.55,0,0,1,85,69.82Zm-.74-1.53h.18l-.09.09.09.36-.09.36h-.09l-.09-.27Zm-.18,2.91h.09l.18.18v.18l-.09-.09-.27.18ZM83.53,71h.18l.18.18v.09l-.18.18-.18-.18ZM84,72.73v.09H83.8v-.09ZM82.8,68.56l.18-.18h.1l.18.18-.18.27-.28-.09Zm-1.64-.27h.45v.09h-.45ZM81,72.19q0-.18.54-.27v.45h-.09L81,72.28ZM80.62,72h.18v.18h-.18Zm-1.36-3.27h.18v.09h-.18ZM78,64.1h.18q0,.27-.72.27h-.18Q77.32,64.1,78,64.1Zm0,1v.09l-.27.09h-.27V65.2l.45-.09Zm-.36,7.26h-.27v-.09h.27Zm-.27-3.18V69.1q.06-.27.72-.27h.54V69l-.9.18Zm1.08,4.37h.09v.18h-.09Zm-.09,1.54h.18v.09h-.18Zm-.45-.36h-.18v-.09h.18Zm.63,1.82h-.09l-.09-.09.18-.18h.09ZM78.61,75h-.18v-.18h.18Zm.74-2.82-.74.18h-.18v-.09l.74-.18h.18Zm0-3,.19.18v.09h-.19Zm.55,11.27-.27.09-.19-.18h.46Zm.54-6.35V74l.09-.1.18.19v.09h-.18ZM81,78.64l-.27-.27h.09l.27.27Zm.18-1.36H81v-.09h.18Zm.27-1.46v.09l.09.09a1,1,0,0,0-.63.29v-.11l.63-.9h.18Q81.7,75.73,81.43,75.82Zm1.19-2.35-.09.09-.18-.18h.27Zm.09,3.18v-.18h.18Zm.55-.47h-.09L83,76v-.18l.19-.18h.09l.27.18Q83.4,76.18,83.26,76.18Zm.18-2.44.09-.09.18.18-.18.19Zm.18,1,.18-.18-.09-.09c0-.29.18-.5.54-.64l-.09-.09v-.09l.09-.09h.09l.09.09-.09.64q-.54.45-.54.63h-.18ZM84,76v.09l-.27-.27h.09Zm-.27,1.83v-.18l.27-.28h.18a.9.9,0,0,0,.27.55v.18h-.18A.82.82,0,0,0,83.71,77.83Zm.9.81h-.18v-.18h.18ZM84.52,74l.38-.55c.12,0,.21.21.27.64l-.36.18Zm1.64,5.54-.18.18h-.09q0-.36-.18-.36h-.63V79.2h.09l.36.09.54-.38.09.47Zm1.47-.18h-.56v-.09h.56Z"/><polygon class="cls-2" points="90.16 68.38 90.34 68.56 90.63 68.38 90.43 68.2 90.16 68.38"/><rect class="cls-2" x="113.19" y="73.09" width="0.09" height="0.2"/><rect class="cls-2" x="113.19" y="71.29" width="0.09" height="0.18"/><polygon class="cls-2" points="111.47 68.52 111.27 68.7 111.47 68.7 111.47 68.52"/><rect class="cls-2" x="112.23" y="70.42" width="0.18" height="0.11"/><rect class="cls-2" x="112.7" y="72.71" width="0.2" height="0.09"/><rect class="cls-2" x="112.7" y="71.76" width="0.2" height="0.09"/><path class="cls-2" d="M112.81,74.63l-.11-.58.11-.47c-.13,0-.23-.35-.29-1.06h-.11l.11-.09v-.09l-.2-.87.09-.09-.09-.09-.09.09h-.47l-.2-.18c.39-.14.58-.27.58-.4a10.55,10.55,0,0,0-3.43-5.24q-1.59-1.76-6-2.67a27.67,27.67,0,0,0-5-.29v.29h-.19c0-.19-.06-.29-.19-.29H95c-.82,0-1.23.13-1.23.38l-.38-.09-.95.2-.11-.49h-.47l-.2.2v.09l.2.2.09-.11v.11l-.29.38V64.6l-.09.29.09.47v2.39l.11.49h.09l.29-.2.18.29v.09h-.18v.19h.09l.09-.09h.11v.67h-.11l-.56-.49h-.11l-.09.58.09.38v.2l-.18.27h.18v7.64l-.09.38.09.38V79l1.73-.27v-.1h.28l.05,0,3-.46v-.06h.2v0l8.94-1.37h-.17c-.34,0-.73-.28-1.15-.84v-.11c1.14.12,1.72.34,1.72.67l-.27.27,4.27-.66-.09-.08h.19v.07l1.24-.19v-.17l.29.09v0l1-.15.07-.26-.2-.58Zm-20.61-11v-.09l.2-.18h.09v.09l-.2.18Zm.09.67L92.4,64h.47v.28l-.47.1ZM92,78.24h-.2v-.09H92Zm.27-1.14h-.38V77h.38Zm.2-4.39H92.4l-.49-.09v-.19l.58.09Zm1,1.43-.19.2-.09-.11v-.18h.28Zm.1-4-.29-.27h.1l.19.18Zm.09-4.19-.28.49c-.63,0-.95-.13-.95-.29v-.29c.19,0,.29-.16.29-.49.62.06.94.16.94.29Zm6.77-2.38h.2v.2h-.2Zm-.18,2.76h.09v.2h-.09Zm-2.3-2h.2v.1h-.2Zm.2,2.87v.18H98v-.18ZM96.5,63h.18L97.06,64l-.09.09h-.09c-.15,0-.31-.28-.49-.86Zm-.2,1.82h.29l.2.18v.11L96.3,65ZM95.16,63h.09l.09.11v.18h-.09l-.18-.18Zm-.87.87V64l.58-.19.2.19c.37,0,.56-.25.56-.77l.11-.09h.09c0,.13.1.2.29.2l.09.09v.18c0,.32-.19.48-.58.48A2.19,2.19,0,0,1,95,65.36v.11h-.09l-.29-.29.2-.2c0-.15-.19-.34-.58-.56l-.09-.57Zm1.63,1.33-.18-.2H96v.2Zm.09,2v.18l-.18-.18ZM95.34,69v.2H95V68.9h.2v-.2H95v-.09h.11l.27.09v.11l-.09.09ZM95,68.14c0-.19.1-.28.29-.28v-.2a.34.34,0,0,1-.38-.38l.29-.2h.18l.2.2v1.14h-.09Zm.49-2.67h.18v.18Zm-1-.11-.2.2v-.2Zm-.67-1h.09v.19h-.09Zm0,2,.18-.18h.29l.2.18v.11l-.2.18-.47-.09Zm.29,3h-.2v-.09h.2ZM94.58,74l-.18-.2h.18Zm.2-2.67v.09l-.49-.18v-.29l.38-.2c.2.06.29.25.29.58Zm.09-1h-.29V70l.09-.09v-.09l.4.27Zm.47-1h.4l.18.2h-.38Zm1.16,1-.58-.18c.13-.45.38-.67.76-.67h.11l.09.09H97C96.65,70,96.5,70.26,96.5,70.42Zm.29-2.28h-.11l-.09-.1H96.5l.09-.47-.09-.09v-.11h.29l.56.2A.5.5,0,0,1,96.79,68.14Zm.56,5.15v-.2h.1l.19.2Zm.29-5.81h.57v.18h-.09l-.48-.09ZM98.12,70h-.2l.2-.2Zm-.39-1,.1-.09h.09l.2.18h.09l.09-.09.47.18v.29l-.56.09C98.21,69.32,98.05,69.13,97.73,68.9Zm1.33,2.95c-.29-.12-.44-.25-.47-.38h.09c.26.09.38.19.38.29Zm0-.76H99v-.18h.29Zm.38-7.24h-.27v-.09h.27Zm1,9.82-.27-.09v-.2c.31.09.47.18.47.29Zm.11-.67-.11-.09V72.8h.29Zm.29-5.92-.2-.18h.2Zm.27-3.61h-.09v-.09l.38-.2v.09C101.45,63.4,101.35,63.47,101.16,63.47Zm.29,5.34h.29V69h-.09Zm.48,7.91h-.19v-.1h.19Zm.47-7-.18-.18h.09l.18.18Zm7.82,0,.2.2V70c-.38,0-.57-.13-.57-.29Zm-.46,1.34v.11l-.2.18h-.09a1.49,1.49,0,0,1-1-.58Zm-.38-2.39v.2l-.2-.2Zm-.49,1.54v.18l-.29-.09v-.09ZM108.6,70h-.09l-1.72-.49v-.09h.09l.67.09.29-.18c.42.17.68.36.76.58Zm-.09-1V69l-.2.2h-.67c0-.38-.28-.61-.85-.67v-.19C107.94,68.47,108.51,68.66,108.51,68.9Zm-1.05-3.54h.09l.29.29h-.2l-.18-.18Zm-1.34.2h.38l.49.09V66h-.29l-.38-.27-.29.09Zm.38,2.58h-.18l-.2-.19h.2Zm-2.85,5.91-.2-.2h.09l.2.2Zm.67-5.06h-.11q-1-.3-1-.57h.11c.7.22,1,.39,1,.48Zm-.11-.85V68l.58-.09c.31.08.47.18.47.29v.09h-.09Zm1.54,1.32v.2l-.49-.09v-.2Zm-.87,1.16h-.38v-.09h.38Zm.2,0,.09-.09h.2c.32,0,.51.09.56.27v.11h-.28C105.27,70.86,105.08,70.76,105.08,70.62Zm.09,1.14v-.18h.09l.2.18Zm2.09,3.14c-.25-.08-.38-.17-.38-.27H107l.27.09Zm0-2.65-.47.09a2.28,2.28,0,0,1-1.14-.49v-.18l.1.09h.37l.38-.09.76.29Zm.87-1.34H108l-.11-.11v-.18H108l.18.18Zm.38.67-.2-.2.11-.09h.09l.2.18-.11.11Zm.87,4.28-.67-.18v-.29a.65.65,0,0,1,.67.38Zm.27-2.1-.18-.18h.09l.2.18Zm1-1.51a4,4,0,0,1-1.31-.58v-.09h.18l.29.18.18-.18.48.18v-.09a.76.76,0,0,1,.58.47Z"/><rect class="cls-2" x="137.03" y="70.42" width="0.18" height="0.11"/><rect class="cls-2" x="137.5" y="71.76" width="0.2" height="0.09"/><polygon class="cls-2" points="136.27 68.52 136.07 68.7 136.27 68.7 136.27 68.52"/><rect class="cls-2" x="137.99" y="71.29" width="0.09" height="0.18"/><path class="cls-2" d="M137.12,71.47l.09-.09-.09-.09-.09.09h-.47l-.2-.18c.39-.14.58-.27.58-.4a10.48,10.48,0,0,0-3.43-5.24q-1.59-1.76-6-2.67a27.6,27.6,0,0,0-5-.29v.29h-.18c0-.19-.07-.29-.2-.29h-2.3c-.82,0-1.22.13-1.22.38l-.38-.09-1,.2-.11-.49h-.47l-.2.2v.09l.2.2.09-.11v.11l-.29.38V64.6l-.09.29.09.47v2.39l.11.49h.09l.29-.2.18.29v.09h-.18v.19H117l.09-.09h.11v.67h-.11l-.56-.49h-.11l-.09.58.09.38v.2l-.18.27h.18v5.06L137.24,72ZM117,63.65v-.09l.2-.18h.09v.09l-.2.18Zm.09.67.11-.28h.47v.28l-.47.1Zm.2,8.39h-.09l-.49-.09v-.19l.58.09Zm1,1.43-.2.2-.09-.11v-.18h.29Zm.09-4-.29-.27h.11l.18.18Zm.09-4.19-.27.49c-.64,0-1-.13-1-.29v-.29c.19,0,.29-.16.29-.49.62.06.94.16.94.29Zm6.77-2.38h.2v.2h-.2ZM125,66.32h.09v.2H125Zm-2.29-2h.19v.1h-.19Zm.19,2.87v.18h-.1v-.18ZM121.3,63h.18l.38,1.06-.09.09h-.09c-.15,0-.31-.28-.49-.86Zm-.2,1.82h.29l.2.18v.11L121.1,65ZM120,63h.09l.09.11v.18h-.09l-.18-.18Zm-.86.87V64l.57-.19.2.19c.38,0,.56-.25.56-.77l.11-.09h.09c0,.13.1.2.29.2l.09.09v.18c0,.32-.19.48-.58.48a2.19,2.19,0,0,1-.67,1.23v.11h-.09l-.29-.29.2-.2c0-.15-.19-.34-.57-.56l-.1-.57Zm1.62,1.33-.18-.2h.27v.2Zm.09,2v.18l-.18-.18Zm-.67,1.8v.2h-.38V68.9h.2v-.2h-.2v-.09h.11l.27.09v.11l-.09.09Zm-.38-.85c0-.19.1-.28.29-.28v-.2a.34.34,0,0,1-.38-.38l.29-.2h.18l.2.2v1.14h-.09Zm.49-2.67h.18v.18Zm-1-.11-.19.2v-.2Zm-.66-1h.09v.19h-.09Zm0,2,.18-.18h.29l.19.18v.11l-.19.18-.47-.09Zm.28,3h-.19v-.09h.19Zm.47,4.68-.18-.2h.18Zm.2-2.67v.09l-.48-.18v-.29l.37-.2c.2.06.29.25.29.58Zm.09-1h-.29V70l.09-.09v-.09l.4.27Zm.47-1h.4l.18.2h-.38Zm1.16,1-.58-.18c.13-.45.39-.67.76-.67h.11l.09.09h.09C121.46,70,121.3,70.26,121.3,70.42Zm.29-2.28h-.11l-.09-.1h-.09l.09-.47-.09-.09v-.11h.29l.56.2A.5.5,0,0,1,121.59,68.14Zm.56,5.15v-.2h.11l.18.2Zm.29-5.81H123v.18h-.1l-.48-.09Zm.48,2.47h-.19l.19-.2Zm-.39-1,.11-.09h.09l.19.18h.1l.09-.09.46.18v.29l-.55.09C123,69.32,122.85,69.13,122.53,68.9Zm1.33,2.95c-.29-.12-.44-.25-.47-.38h.09c.26.09.38.19.38.29Zm0-.76h-.09v-.18h.29Zm.38-7.24H124v-.09h.27Zm1.05,9.82-.27-.09v-.2c.31.09.47.18.47.29Zm.11-.67-.11-.09V72.8h.29Zm.29-5.92-.2-.18h.2Zm.27-3.61h-.09v-.09l.38-.2v.09C126.25,63.4,126.15,63.47,126,63.47Zm.58,5.52h-.09l-.2-.18h.29Zm.67.76-.19-.18h.1l.18.18Zm7.82,0,.2.2V70c-.39,0-.58-.13-.58-.29Zm-.47,1.34v.11l-.2.18h-.09a1.49,1.49,0,0,1-1.05-.58Zm-.38-2.39v.2l-.2-.2Zm-.49,1.54v.18l-.29-.09v-.09ZM133.4,70h-.09l-1.72-.49v-.09h.09l.67.09.29-.18c.42.17.68.36.76.58Zm-.09-1V69l-.2.2h-.67c0-.38-.28-.61-.85-.67v-.19C132.74,68.47,133.31,68.66,133.31,68.9Zm-1.05-3.54h.09l.29.29h-.2l-.18-.18Zm-1.33.2h.38l.48.09V66h-.29l-.38-.27-.28.09Zm.38,2.58h-.19l-.19-.19h.19ZM129,68l.58-.09c.31.08.47.18.47.29v.09H130l-1-.19Zm1.54,1.42v.2l-.49-.09v-.2ZM129.12,69H129q-1-.3-1-.57h.11c.7.22,1.05.39,1.05.48Zm.56,1.63h-.38v-.09h.38Zm.2,0,.09-.09h.2c.32,0,.51.09.56.27v.11h-.27C130.07,70.86,129.88,70.76,129.88,70.62Zm.09,1.14v-.18h.09l.2.18Zm2.09.49-.47.09a2.29,2.29,0,0,1-1.13-.49v-.18l.09.09h.38l.38-.09.75.29Zm.87-1.34h-.09l-.11-.11v-.18h.11l.18.18Zm.47.67h-.09l-.2-.2.11-.09h.09l.2.18Zm2.1.67a3.91,3.91,0,0,1-1.32-.58v-.09h.18l.29.18.18-.18.49.18v-.09a.74.74,0,0,1,.57.47Z"/><rect class="cls-2" x="64.81" y="85.25" width="0.09" height="0.18"/><rect class="cls-2" x="64.07" y="84.53" width="0.11" height="0.18"/><polygon class="cls-2" points="61.91 88.25 62.09 88.43 62.27 88.25 62.27 88.16 62.18 88.07 61.91 88.25"/><rect class="cls-2" x="64.45" y="84.89" width="0.09" height="0.18"/><rect class="cls-2" x="65.9" y="86.35" width="0.09" height="0.18"/><rect class="cls-2" x="64.07" y="85.25" width="0.11" height="0.18"/><polygon class="cls-2" points="65.27 85.07 65.27 84.89 65.08 85.07 65.27 85.07"/><rect class="cls-2" x="65.54" y="85.97" width="0.09" height="0.2"/><rect class="cls-2" x="66.17" y="86.8" width="0.18" height="0.09"/><polygon class="cls-2" points="61.63 89.44 61.81 89.62 62 89.44 62 89.35 61.73 89.35 61.63 89.44"/><polygon class="cls-2" points="66.8 91.7 66.8 91.79 66.98 91.79 67.09 91.7 67.09 91.61 66.98 91.52 66.8 91.7"/><rect class="cls-2" x="65.18" y="85.61" width="0.09" height="0.18"/><polygon class="cls-2" points="67.09 86.89 67.09 86.71 66.89 86.89 67.09 86.89"/><polygon class="cls-2" points="88.26 81.62 88.53 81.62 88.53 81.53 88.44 81.44 88.26 81.62"/><polygon class="cls-2" points="64.45 84.35 64.54 84.35 64.54 84.29 64.45 84.3 64.45 84.35"/><path class="cls-2" d="M81.52,81.8v.09h-.18l0-.17-3.6.55v.07h-.18l-.44,0-8.83,1.35v.17h-.09a1.29,1.29,0,0,1-.52-.08l-2.76.43a12.25,12.25,0,0,0,.83,1q-.27,0-.27.18h.27l.09-.09.18.18v.09l-.09.09v.09h.18l.09-.09v.09l.09.09V86l-.09.09h.09l.09.11h.09l.09-.11a12.15,12.15,0,0,0,8.63,3.47h.64a12.08,12.08,0,0,0,7.82-2.73v-.45l-.09-.09.09-.09q.18,0,.18.36H84a11.88,11.88,0,0,0,3.87-5.81l-6.34,1S81.52,81.76,81.52,81.8ZM66.89,84.89l.2-.18h.27l.18.18Zm10.19.36h.18v.09h-.18Zm-7.55,2.28h-.18v-.09h.18Zm2.36.9h-.18v-.09h.18Zm3.54.27L75,88.61v-.09h.45Zm.19-.81c-.31,0-.49-.09-.55-.27l.18-.18a1.18,1.18,0,0,1,1,.45Zm.83-1.54h-.09l-.09-.09h-.93l-.45-.09V86l.36-.09a1.59,1.59,0,0,0,.93.29h.27Zm1.17,1.9-.9-.18V88h.45l.45.09Zm.45-5.55H77.8v-.09h.27Zm.09,6.36V89l.27-.27h.09Zm.92-3.27-.18-.18H79l.18.18Zm1.09-1.17q-.42-.18-.45-.36.45,0,.45.27Zm.72,3.18h-.27l.36-.36Zm.27-.46q-.45-.06-.45-.27H81l.18.18Zm.18-.18h-.09V87h.09Zm2.73-5.81.18.18h-.09L84,81.35Z"/><rect class="cls-2" x="76.36" y="93.97" width="0.18" height="0.09"/><polygon class="cls-2" points="77.26 93.7 77.17 93.79 77.17 93.88 77.26 93.97 77.35 93.97 77.44 93.88 77.44 93.79 77.35 93.7 77.26 93.7"/><polygon class="cls-2" points="76.9 91.97 76.81 92.08 76.81 92.17 76.9 92.26 76.99 92.26 77.08 92.17 77.08 92.08 76.99 91.97 76.9 91.97"/><polygon class="cls-2" points="82.89 89.06 82.89 88.97 82.8 88.88 82.71 88.88 82.62 88.97 82.62 89.06 82.71 89.17 82.8 89.17 82.89 89.06"/><polygon class="cls-2" points="77.35 92.08 77.35 92.17 77.62 92.17 77.62 91.88 77.53 91.88 77.35 92.08"/><polygon class="cls-2" points="70.09 99.07 69.98 99.16 69.98 99.25 70.09 99.34 70.18 99.34 70.27 99.25 70.27 99.16 70.18 99.07 70.09 99.07"/><polygon class="cls-2" points="72.44 96.25 72.44 96.34 72.53 96.43 72.71 96.25 72.71 96.16 72.53 96.16 72.44 96.25"/><polygon class="cls-2" points="81.43 91.25 81.52 91.34 81.7 91.16 81.7 90.97 81.52 90.97 81.43 91.25"/><polygon class="cls-2" points="81.34 98.71 81.25 98.8 81.25 98.89 81.34 98.98 81.43 98.98 81.52 98.89 81.52 98.8 81.43 98.71 81.34 98.71"/><path class="cls-2" d="M82.62,97.33v.09h.27c.09-.42.18-.63.28-.63V96.7l-.09-.09C83,96.61,82.83,96.85,82.62,97.33Z"/><rect class="cls-2" x="70.27" y="90.61" width="0.09" height="0.18"/><path class="cls-2" d="M111.85,77.21l-.29-.09v0l-1.24.19v.11l-.1-.09L106,78l0,0h-.11l-8.94,1.37v.06h-.2v0l-3,.46.14.15h-.19l-.28-.1h0l-1.73.26V85a1.12,1.12,0,0,1,.4.76v.09c-.27,0-.4.07-.4.2l.11.09h.09l.09-.09.29.38-.09.29H92l-.4-.29v3.05l.2.18.47-.09.58.09V89.6l.09.09h5l.58-.09.47.09h.2q6,0,8.76-2.38l-.09-.09v-.09a1.9,1.9,0,0,0,1.43-.87v-.18h-.18v-.2h.47a7.76,7.76,0,0,0,1.71-2.38,2.1,2.1,0,0,0-1.24-.29v-.09h.19V83l-.19-.29v-.2h.19l.2-.27.27.09.11-.09v-.11l.85.38a1.7,1.7,0,0,0,.38-.85l-.47-.47h.2l.27.18q.38,0,.78-3.81l-.11-.09v-.11l.13-.49-1,.15Zm-17,10.88h.2v.18h-.2ZM94,82.27c.34,0,.53.09.58.27h-.09c-.38,0-.58-.13-.58-.27Zm.11,5.62V88h-.2v-.09Zm-.48-5.15h.28v.09h-.28Zm1,6.68-.76-.2c0-.09.29-.22.87-.38v-.19h.09c.13,0,.23.22.29.66Zm1.25-.77h-.18v-.09h.18Zm.67-.28H96.5v-.19h.09Zm.29-4.58H97l.58.09v.2h-.1C97.07,84,96.88,83.94,96.88,83.79Zm.67,1.71v.09h-.29V85.5Zm-.29,2.21h-.2V87.6h.2Zm0-.49h.19v.09h-.19Zm.38,2.2.09-.11v-.09l-.09-.09h.19l.09.29ZM98,87.71h-.09l-.47-.11v-.09h.76Zm12.59-3.63h.2v.09h-.2Zm-3-4.2.2-.19h.38l.2.19-.29.28-.49-.18Zm-.76.19-.18.19-.58-.1c.07-.18.26-.28.58-.28Zm-1.42-1.23h.66l.29.27v.2h-.09c-.49,0-.78-.13-.86-.38Zm-5,2.47.78.29.47-.11.37.11.11-.11V81.4l-.29-.09v-.09h.29a1.75,1.75,0,0,1,1.52.65v.4l-.47.09a3.78,3.78,0,0,1-1.44-.49c-1-.19-1.43-.38-1.43-.56Zm2.87,6.49h.18v.09h-.18Zm-.29-2.21H103c-.13,0-.26-.18-.38-.47h.09Zm-1-1.6v.18H102l-.19-.18Zm-3-.2V83.7h.2v.09Zm1,1.8H100c-.47,0-.72-.09-.76-.27H100l.2.18Zm.38,1.16-.18-.2h.18Zm.2-4h-.2v-.2h.2Zm2.18,6.48-1.22-.09V89l1.13-.09.09.09Zm.11-.09v-.2l.18.2Zm.67-.38h-.38v-.1h.38Zm.18-5.92h-.09l-.29-.09.09-.09v-.11l.29.11ZM105,86.64h-.11l-.47-.09-.09.09v-.27H105Zm.47-.85h-.2V85.7h.2Zm-.29-3.92v-.09h.2v.09Zm.67-.47c-.57-.15-.85-.28-.85-.38h.47c.32,0,.51.1.57.29l-.1.09Zm.38,5.44-.19-.2h.19l.19.2Zm.28-4.19h-.18l-.2-.2v-.09h.38Zm.29-1h-.29V81.6h.29Zm.29.09h-.2v-.09h.2Zm.47,3h-.09v-.19h.09Zm.29-3.14c-.57-.1-.85-.32-.85-.67h-.58v-.11l.18-.27a4.11,4.11,0,0,0,1.54.47l.18.38C108,81.4,107.84,81.47,107.84,81.6Zm.58,3.14-.2-.19h.2Zm.09-4.19h.2l.38.18v.09h-.49l-.18-.18Zm.67,2.57v.09H109v-.09Zm-.67.38h.2c.31,0,.5.12.56.38h-.18C108.76,83.88,108.57,83.75,108.51,83.5Zm.58.86.29.09v.1h-.29Zm.47.47h-.18v-.09h.18Zm-.18-3-.2-.18h.2l.18.18Zm.38-.76-.29-.29q.18,0,.18-.27h.2l.09.56Zm-.2-1.6V79.4l.29.11v.18h-.09Zm.38-.58-.09.09v.09l-.58-.09v-.18l.58-.11.09.11Zm2.2,1.8h-.2l-.76-.38v-.09h.29a.66.66,0,0,1,.67.38Zm-.49-1.13a.71.71,0,0,1-.56-.76h.09l.38.09v-.09l.76.27Z"/><rect class="cls-2" x="137.99" y="74.25" width="0.09" height="0.2"/><path class="cls-2" d="M137.7,76.63l-.2-.57.11-.28-.11-.57.11-.47c-.13,0-.23-.36-.29-1.07h-.11l.11-.09v-.09l-.08-.33-20.82,3.19v2.58l-.09.38.09.38V85a1.12,1.12,0,0,1,.4.76v.09c-.27,0-.4.07-.4.2l.11.09h.09l.09-.09.29.38-.09.29h-.09l-.4-.29v3.05l.2.18.47-.09.58.09V89.6l.09.09h5l.57-.09.47.09h.2q6.06,0,8.76-2.38l-.09-.09v-.09a1.88,1.88,0,0,0,1.43-.87v-.18h-.18v-.2h.47a7.6,7.6,0,0,0,1.71-2.38,2.1,2.1,0,0,0-1.24-.29v-.09h.2V83l-.2-.29v-.2h.2l.2-.27.27.09.1-.09v-.11l.85.38a1.61,1.61,0,0,0,.38-.85l-.47-.47h.2l.27.18c.26,0,.51-1.27.78-3.81l-.11-.09v-.11ZM116.82,79.4h-.2v-.09h.2Zm.27-1.14h-.38v-.09h.38Zm2.58,9.83h.2v.18h-.2Zm-.86-5.82c.33,0,.53.09.57.27h-.09q-.57-.06-.57-.27Zm.1,5.62V88h-.19v-.09Zm-.75-8.11h.27l.2.2h-.2l-.27-.1Zm.27,3h.29v.09h-.29Zm1,6.68-.75-.2c0-.09.29-.22.86-.38v-.19h.09c.14,0,.23.22.29.66Zm1.25-.77h-.18v-.09h.18Zm.67-.28h-.09v-.19h.09Zm.09-9.06h.2v.09h-.2Zm.2,4.48h.09l.58.09v.2h-.09C121.87,84,121.68,83.94,121.68,83.79Zm.67,1.71v.09h-.29V85.5Zm-.29,2.21h-.2V87.6h.2Zm0-.49h.2v.09h-.2Zm.38,2.2.09-.11v-.09l-.09-.09h.2l.09.29Zm.38-1.71h-.09l-.47-.11v-.09H123Zm12.59-3.63h.19v.09h-.19Zm-1-9.34.2.18h-.11l-.18-.18Zm-.85,1.8a.66.66,0,0,1,.67.38V77l-.67-.18Zm-1.07,3.34.2-.19H133l.2.19-.29.28-.49-.18Zm-.65-4.1.27.1v.18c-.25-.09-.38-.18-.38-.28Zm-.11,4.29-.18.19-.57-.1c.06-.18.25-.28.57-.28Zm-.46-.76h-.1c-.49,0-.78-.13-.86-.38v-.09h.67l.29.27ZM129.3,77c1.14.12,1.72.35,1.72.67l-.29.29h-.27c-.35,0-.74-.28-1.16-.85Zm-1-2,.2.2h-.09l-.2-.2Zm-1.8,2.76h.2v.11h-.2Zm-1.25,3.54.78.29.47-.11.38.11.1-.11V81.4l-.28-.09v-.09H127a1.75,1.75,0,0,1,1.52.65v.4l-.47.09a3.78,3.78,0,0,1-1.44-.49c-.95-.19-1.43-.38-1.43-.56Zm2.87,6.49h.18v.09h-.18Zm-.29-2.21h-.09c-.13,0-.26-.18-.38-.47h.09Zm-1-1.6v.18h-.09l-.2-.18Zm-3.06-.2V83.7h.2v.09Zm1,1.8h-.09c-.47,0-.72-.09-.76-.27h.76l.2.18Zm.38,1.16-.18-.2h.18Zm.2-4h-.2v-.2h.2Zm2.19,6.48-1.23-.09V89l1.13-.09.1.09Zm.1-.09v-.2l.18.2Zm.67-.38h-.38v-.1h.38Zm.18-5.92h-.09l-.29-.09.09-.09v-.11l.29.11Zm1.16,3.81h-.11l-.47-.09-.09.09v-.27h.67Zm.47-.85h-.2V85.7h.2ZM130,81.87v-.09h.2v.09Zm.67-.47c-.57-.15-.85-.28-.85-.38h.47c.32,0,.52.1.58.29l-.11.09Zm.38,5.44-.18-.2H131l.2.2Zm.29-4.19h-.19l-.19-.2v-.09h.38Zm.28-1h-.28V81.6h.28Zm.29.09h-.2v-.09h.2Zm.47,3h-.09v-.19h.09Zm.29-3.14c-.56-.1-.85-.32-.85-.67h-.57v-.11l.18-.27a4,4,0,0,0,1.53.47l.18.38C132.8,81.4,132.64,81.47,132.64,81.6Zm.58,3.14-.2-.19h.2Zm.09-4.19h.2l.38.18v.09h-.49l-.18-.18Zm.67,2.57v.09h-.2v-.09Zm-.67.38h.2c.31,0,.5.12.56.38h-.18C133.56,83.88,133.37,83.75,133.31,83.5Zm.58.86.29.09v.1h-.29Zm.47.47h-.18v-.09h.18Zm-.18-3-.2-.18h.2l.18.18Zm.38-.76-.29-.29q.18,0,.18-.27h.2l.09.56Zm-.2-1.6V79.4l.29.11v.18h-.09Zm.38-.58-.09.09v.09l-.58-.09v-.18l.58-.11.09.11Zm.38-1.54-.18-.18h.18Zm1.24-.47.29.09v.2l-.29-.09Zm.58,3.81h-.2l-.76-.38v-.09h.29a.66.66,0,0,1,.67.38Zm-.49-1.13a.71.71,0,0,1-.56-.76H136l.38.09v-.09l.76.27Z"/><rect class="cls-2" x="137.5" y="73.87" width="0.2" height="0.09"/><path class="cls-2" d="M59.47,98.93H57.39V97.52h1.87a.18.18,0,0,0,.18-.18V97a.18.18,0,0,0-.18-.18H57.39V95.53h2a.18.18,0,0,0,.18-.17V95a.18.18,0,0,0-.18-.17H56.82a.18.18,0,0,0-.18.17v4.44a.18.18,0,0,0,.18.17h2.65a.17.17,0,0,0,.17-.17V99.1A.17.17,0,0,0,59.47,98.93Z"/><path class="cls-2" d="M62.36,97.19l1.49-2.08a.17.17,0,0,0,0-.18.16.16,0,0,0-.15-.09h-.45a.19.19,0,0,0-.14.07l-1.06,1.53-.15.21-1.14-1.73a.18.18,0,0,0-.15-.08h-.5a.17.17,0,0,0-.16.09.17.17,0,0,0,0,.18l1.45,2.08-1.57,2.16a.17.17,0,0,0,0,.18.16.16,0,0,0,.15.09h.47a.17.17,0,0,0,.14-.07l1.27-1.82,1.21,1.81a.18.18,0,0,0,.15.08h.49a.17.17,0,0,0,.16-.09.19.19,0,0,0,0-.18Z"/><path class="cls-2" d="M67.33,95.39a1.25,1.25,0,0,0-.36-.28,1.91,1.91,0,0,0-.44-.16,3.56,3.56,0,0,0-.49-.09l-.52,0h-1a.18.18,0,0,0-.17.17v4.44a.18.18,0,0,0,.17.17h.39a.17.17,0,0,0,.17-.17l0-1.67h.57a3.41,3.41,0,0,0,.73-.07,2,2,0,0,0,.64-.26,1.41,1.41,0,0,0,.45-.46,1.34,1.34,0,0,0,.17-.68,1.67,1.67,0,0,0-.08-.52A1.09,1.09,0,0,0,67.33,95.39Zm-1.52,1.7H65.1V95.53h.56a4.26,4.26,0,0,1,.54,0,1.27,1.27,0,0,1,.39.13.63.63,0,0,1,.23.23.87.87,0,0,1,.08.39.68.68,0,0,1-.08.34.66.66,0,0,1-.2.24,1.16,1.16,0,0,1-.34.14A2.26,2.26,0,0,1,65.81,97.09Z"/><path class="cls-2" d="M71,98.93H69V95a.18.18,0,0,0-.17-.17h-.4a.18.18,0,0,0-.18.17v4.44a.18.18,0,0,0,.18.17H71a.18.18,0,0,0,.17-.17V99.1A.18.18,0,0,0,71,98.93Z"/><path class="cls-2" d="M75.2,95.44a2,2,0,0,0-.73-.51,2.7,2.7,0,0,0-1.94,0,2.14,2.14,0,0,0-.75.52,2.22,2.22,0,0,0-.46.79,3.14,3.14,0,0,0,0,2,2.14,2.14,0,0,0,.46.79,2.21,2.21,0,0,0,.73.5,2.7,2.7,0,0,0,1,.17,2.55,2.55,0,0,0,1-.18A2.07,2.07,0,0,0,75.2,99a2.36,2.36,0,0,0,.47-.78,3.12,3.12,0,0,0,.15-1,3.18,3.18,0,0,0-.15-1A2.26,2.26,0,0,0,75.2,95.44Zm-1,.14a1.35,1.35,0,0,1,.48.37,1.8,1.8,0,0,1,.29.55,2.71,2.71,0,0,1,.1.71,2.43,2.43,0,0,1-.11.73,1.57,1.57,0,0,1-.29.56,1.15,1.15,0,0,1-.48.36,1.75,1.75,0,0,1-1.35,0,1.36,1.36,0,0,1-.78-.92,2.23,2.23,0,0,1-.11-.7,2.26,2.26,0,0,1,.11-.69,1.42,1.42,0,0,1,.3-.57,1.53,1.53,0,0,1,.48-.39,1.78,1.78,0,0,1,1.36,0Z"/><path class="cls-2" d="M79.8,98.75l-.25-.65a3.1,3.1,0,0,0-.22-.48,1.16,1.16,0,0,0-.28-.33l0,0a1.36,1.36,0,0,0,.39-.27,1.25,1.25,0,0,0,.25-.38,1.19,1.19,0,0,0,.09-.47,1.31,1.31,0,0,0-.11-.55,1.1,1.1,0,0,0-.29-.38A1.5,1.5,0,0,0,79,95a3.13,3.13,0,0,0-.44-.1,3.44,3.44,0,0,0-.45,0H76.68a.18.18,0,0,0-.17.17v4.44a.18.18,0,0,0,.17.17h.4a.17.17,0,0,0,.17-.17V97.59H78a1.58,1.58,0,0,1,.34,0,.53.53,0,0,1,.2.09.54.54,0,0,1,.15.18,1.92,1.92,0,0,1,.16.35l.46,1.27a.17.17,0,0,0,.16.11h.43a.19.19,0,0,0,.14-.07.18.18,0,0,0,0-.16Zm-.75-2.55a.62.62,0,0,1-.08.33.67.67,0,0,1-.23.21,1.13,1.13,0,0,1-.34.11,2,2,0,0,1-.41,0h-.72V95.53H78a2.25,2.25,0,0,1,.46,0,.81.81,0,0,1,.32.11.44.44,0,0,1,.19.19A.62.62,0,0,1,79.05,96.2Z"/><rect class="cls-2" x="80.73" y="94.84" width="0.76" height="4.78" rx="0.17"/><path class="cls-2" d="M86.26,94.84h-.37a.18.18,0,0,0-.18.17v3.51l-2.39-3.6a.17.17,0,0,0-.14-.08h-.54a.18.18,0,0,0-.18.17v4.44a.18.18,0,0,0,.18.17H83a.18.18,0,0,0,.17-.17V96l2.36,3.53a.17.17,0,0,0,.14.07h.55a.17.17,0,0,0,.17-.17V95A.17.17,0,0,0,86.26,94.84Z"/><path class="cls-2" d="M91,97H89.46a.16.16,0,0,0-.17.17v.35a.17.17,0,0,0,.17.17h1v1.14a2.37,2.37,0,0,1-.36.09,2.52,2.52,0,0,1-1.29-.08,1.31,1.31,0,0,1-.51-.34A1.44,1.44,0,0,1,88,98a2.25,2.25,0,0,1-.11-.71,2.33,2.33,0,0,1,.11-.7,1.88,1.88,0,0,1,.3-.58,1.53,1.53,0,0,1,.5-.4,1.83,1.83,0,0,1,1.07-.12,1.59,1.59,0,0,1,.33.09,1.28,1.28,0,0,1,.25.15.55.55,0,0,1,.15.19.19.19,0,0,0,.14.09.17.17,0,0,0,.15-.07l.17-.21a.17.17,0,0,0,0-.17.81.81,0,0,0-.25-.36,1.27,1.27,0,0,0-.37-.25A2,2,0,0,0,90,94.8a2.64,2.64,0,0,0-1.51.16,2.31,2.31,0,0,0-.75.56,2.36,2.36,0,0,0-.46.82,2.84,2.84,0,0,0-.16,1,2.93,2.93,0,0,0,.15,1,2,2,0,0,0,1.21,1.24,2.73,2.73,0,0,0,1,.17,4.43,4.43,0,0,0,.81-.07,2.92,2.92,0,0,0,.76-.24.18.18,0,0,0,.1-.16v-2a.11.11,0,0,0-.05-.12A.13.13,0,0,0,91,97Z"/><path class="cls-2" d="M97.3,98.72a.2.2,0,0,0-.12-.1.22.22,0,0,0-.16,0,1.1,1.1,0,0,1-.48.25h0a2.16,2.16,0,0,1-1.38,0,1.31,1.31,0,0,1-.47-.37,1.52,1.52,0,0,1-.27-.54,2.41,2.41,0,0,1-.1-.67,2.6,2.6,0,0,1,.1-.68,1.93,1.93,0,0,1,.3-.59,1.53,1.53,0,0,1,.5-.4,1.39,1.39,0,0,1,.7-.16,1.57,1.57,0,0,1,1,.28.17.17,0,0,0,.14,0,.18.18,0,0,0,.11-.08l.15-.22a.18.18,0,0,0,0-.23,1.83,1.83,0,0,0-.63-.36,2.31,2.31,0,0,0-.77-.11,2.34,2.34,0,0,0-1,.2,2.26,2.26,0,0,0-.73.56,2.4,2.4,0,0,0-.46.81,3,3,0,0,0-.16,1,2.82,2.82,0,0,0,.15.92,2.14,2.14,0,0,0,.42.77,2,2,0,0,0,.69.52,2.21,2.21,0,0,0,1,.19,3.66,3.66,0,0,0,.91-.11,1.86,1.86,0,0,0,.7-.36.16.16,0,0,0,.06-.2Z"/><path class="cls-2" d="M101.8,95.44h0a2.09,2.09,0,0,0-.73-.51,2.73,2.73,0,0,0-1.95,0,2.2,2.2,0,0,0-.74.52,2.24,2.24,0,0,0-.47.79,3.14,3.14,0,0,0,0,2,2.29,2.29,0,0,0,.46.79,2.25,2.25,0,0,0,.74.5,2.65,2.65,0,0,0,1,.17,2.55,2.55,0,0,0,1-.18,2.1,2.1,0,0,0,.75-.52,2.18,2.18,0,0,0,.46-.78,2.86,2.86,0,0,0,.16-1,2.91,2.91,0,0,0-.16-1A2.1,2.1,0,0,0,101.8,95.44Zm-.56.51a1.45,1.45,0,0,1,.29.55,2.34,2.34,0,0,1,.1.71,2.43,2.43,0,0,1-.1.73,1.75,1.75,0,0,1-.29.56,1.32,1.32,0,0,1-.48.36,1.78,1.78,0,0,1-1.36,0,1.44,1.44,0,0,1-.48-.36,1.67,1.67,0,0,1-.3-.56,2.24,2.24,0,0,1-.1-.7,2.26,2.26,0,0,1,.1-.69,1.72,1.72,0,0,1,.3-.57,1.46,1.46,0,0,1,.49-.39,1.57,1.57,0,0,1,.67-.14,1.67,1.67,0,0,1,.69.13A1.23,1.23,0,0,1,101.24,96Z"/><path class="cls-2" d="M106.86,94.84h-.37a.18.18,0,0,0-.18.17v3.51l-2.39-3.6a.18.18,0,0,0-.15-.08h-.54a.18.18,0,0,0-.17.17v4.44a.18.18,0,0,0,.17.17h.4a.18.18,0,0,0,.18-.17V96l2.36,3.53a.17.17,0,0,0,.14.07h.55a.18.18,0,0,0,.17-.17V95A.18.18,0,0,0,106.86,94.84Z"/><path class="cls-2" d="M111.1,95.36V95a.18.18,0,0,0-.18-.17h-3.31a.18.18,0,0,0-.18.17v.35a.18.18,0,0,0,.18.17h1.28v3.92a.18.18,0,0,0,.17.17h.41a.18.18,0,0,0,.18-.17V95.53h1.27A.18.18,0,0,0,111.1,95.36Z"/><path class="cls-2" d="M113.15,94.94a.18.18,0,0,0-.16-.1h-.46a.17.17,0,0,0-.16.1l-1.86,4.44a.15.15,0,0,0,0,.16.16.16,0,0,0,.14.08h.42a.18.18,0,0,0,.17-.11l.47-1.19h2l.51,1.2a.17.17,0,0,0,.16.1h.42a.18.18,0,0,0,.17-.24ZM112,97.69l.7-1.74.08-.21.73,2Z"/><path class="cls-2" d="M119.1,95.44h0a2,2,0,0,0-.74-.51,2.7,2.7,0,0,0-1.94,0,2.34,2.34,0,0,0-.75.52,2.22,2.22,0,0,0-.46.79,3.14,3.14,0,0,0,0,2,2,2,0,0,0,1.2,1.29,2.65,2.65,0,0,0,1,.17,2.55,2.55,0,0,0,1-.18,2.07,2.07,0,0,0,.74-.52,2.2,2.2,0,0,0,.47-.78,3.11,3.11,0,0,0,.16-1,3.18,3.18,0,0,0-.16-1A2.24,2.24,0,0,0,119.1,95.44Zm-.56.51a1.6,1.6,0,0,1,.29.55,2.71,2.71,0,0,1,.1.71,2.8,2.8,0,0,1-.1.73h0a1.77,1.77,0,0,1-.3.56,1.17,1.17,0,0,1-.48.36,1.75,1.75,0,0,1-1.35,0,1.44,1.44,0,0,1-.48-.36,1.67,1.67,0,0,1-.3-.56,2.24,2.24,0,0,1-.1-.7,2.26,2.26,0,0,1,.1-.69,1.72,1.72,0,0,1,.3-.57,1.53,1.53,0,0,1,.48-.39,1.62,1.62,0,0,1,.68-.14,1.59,1.59,0,0,1,.68.13A1.35,1.35,0,0,1,118.54,96Z"/><path class="cls-2" d="M125.19,94.84h-3.32a.18.18,0,0,0-.17.17v.35a.18.18,0,0,0,.17.17h1.28v3.92a.18.18,0,0,0,.18.17h.41a.18.18,0,0,0,.17-.17V95.53h1.28a.18.18,0,0,0,.17-.17V95A.18.18,0,0,0,125.19,94.84Z"/><path class="cls-2" d="M129.41,94.84H129a.18.18,0,0,0-.18.17v1.81h-2.3V95a.17.17,0,0,0-.17-.17H126a.17.17,0,0,0-.17.17v4.44a.17.17,0,0,0,.17.17h.4a.18.18,0,0,0,.17-.17V97.51h2.3v1.94a.18.18,0,0,0,.17.17h.41a.18.18,0,0,0,.18-.17V95A.18.18,0,0,0,129.41,94.84Z"/><path class="cls-2" d="M133.37,98.93h-2.08V97.52h1.87a.17.17,0,0,0,.17-.18V97a.17.17,0,0,0-.17-.18h-1.87V95.53h2a.18.18,0,0,0,.18-.17V95a.18.18,0,0,0-.18-.17h-2.56a.18.18,0,0,0-.18.17v4.44a.18.18,0,0,0,.18.17h2.65a.18.18,0,0,0,.17-.17V99.1A.18.18,0,0,0,133.37,98.93Z"/><path class="cls-2" d="M139.25,94.84h-.61a.18.18,0,0,0-.16.1L137,98.17h0l-.18.42-1.63-3.66a.18.18,0,0,0-.16-.1h-.63a.18.18,0,0,0-.18.17v4.44a.18.18,0,0,0,.18.17h.39a.18.18,0,0,0,.18-.17V96.09l1.54,3.43a.18.18,0,0,0,.16.1H137a.18.18,0,0,0,.16-.1l1.55-3.4v3.33a.18.18,0,0,0,.18.17h.4a.17.17,0,0,0,.17-.17V95A.17.17,0,0,0,139.25,94.84Z"/><path class="cls-2" d="M143.18,98.93H141.1V97.52H143a.18.18,0,0,0,.18-.18V97a.18.18,0,0,0-.18-.18h-1.86V95.53h2a.18.18,0,0,0,.17-.17V95a.18.18,0,0,0-.17-.17h-2.57a.17.17,0,0,0-.17.17v4.44a.17.17,0,0,0,.17.17h2.65a.18.18,0,0,0,.18-.17V99.1A.18.18,0,0,0,143.18,98.93Z"/></g></g></svg>