<svg xmlns="http://www.w3.org/2000/svg" viewBox="0 0 200 171.85"><defs><style>.cls-1{fill:#333a46}.cls-2{fill:#7abfbc}</style></defs><g id="Ebene_2" data-name="Ebene 2"><g id="Ebene_4" data-name="Ebene 4"><path d="M162.21 145.78H0L37.79 0H200l-37.79 145.78zM30.56 152a8 8 0 0 1 2.72 3.6 15.08 15.08 0 0 1 1 5.74 14.9 14.9 0 0 1-1 5.68 8 8 0 0 1-2.72 3.61 6.81 6.81 0 0 1-4.06 1.25 6.91 6.91 0 0 1-4.06-1.22 7.75 7.75 0 0 1-2.72-3.58 17.2 17.2 0 0 1 0-11.39 8.12 8.12 0 0 1 2.73-3.69 6.77 6.77 0 0 1 4.05-1.26 6.87 6.87 0 0 1 4.06 1.26Zm-7.79 3.09q-1.34 2-1.33 6.28c0 2.82.44 4.89 1.34 6.22a4.27 4.27 0 0 0 3.72 2q5.06 0 5.06-8.23t-5.06-8.26a4.23 4.23 0 0 0-3.73 1.96ZM48.22 153.24q2.52 2.14 2.52 7.95t-2.52 8a8.67 8.67 0 0 1-6.11 2.32h-4.4V151.1h3.84a9.93 9.93 0 0 1 6.67 2.14Zm-8 .11v15.92h2a5.38 5.38 0 0 0 4.16-1.74q1.61-1.75 1.6-6.34a11.87 11.87 0 0 0-.83-5 4.54 4.54 0 0 0-2.1-2.31 7.35 7.35 0 0 0-3-.57ZM64.71 153.24q2.52 2.14 2.52 7.95t-2.52 8a8.67 8.67 0 0 1-6.11 2.32h-4.4V151.1H58a9.93 9.93 0 0 1 6.71 2.14Zm-8 .11v15.92h2.06a5.37 5.37 0 0 0 4.15-1.74q1.61-1.75 1.6-6.34a11.87 11.87 0 0 0-.83-5 4.54 4.54 0 0 0-2.1-2.31 7.35 7.35 0 0 0-3-.57ZM84 170.78a5 5 0 0 1-3.14 1.07 3.53 3.53 0 0 1-2.79-1.14 4.89 4.89 0 0 1-1-3.3V158h-2.41v-2.1h2.45v-3.52l2.45-.32v3.84h3.33l-.26 2.1h-3.07v9.3a3.08 3.08 0 0 0 .39 1.76 1.46 1.46 0 0 0 1.29.55 3.36 3.36 0 0 0 1.87-.68ZM95.51 156.81a5.22 5.22 0 0 1 1.08 3.49v11.19h-2.45v-10.8a3.61 3.61 0 0 0-.58-2.34 2 2 0 0 0-1.66-.68 3 3 0 0 0-2 .71 7.24 7.24 0 0 0-1.59 2v11.1h-2.4v-21.83l2.45-.3v8.7a4.86 4.86 0 0 1 4.15-2.51 3.72 3.72 0 0 1 3 1.27ZM111.4 164.63h-9a6.49 6.49 0 0 0 1.17 3.78 3.26 3.26 0 0 0 2.61 1.22 5.14 5.14 0 0 0 1.87-.33 7.23 7.23 0 0 0 1.78-1l1.07 1.62a7.28 7.28 0 0 1-4.91 2 5.42 5.42 0 0 1-4.56-2.13 9.36 9.36 0 0 1-1.64-5.86 12.21 12.21 0 0 1 .7-4.31 6.75 6.75 0 0 1 2-3 4.78 4.78 0 0 1 3.1-1.06 5 5 0 0 1 4.29 2 9.39 9.39 0 0 1 1.49 5.65c.08.48.06.94.03 1.42Zm-2.37-2.2a6.27 6.27 0 0 0-.83-3.52 2.78 2.78 0 0 0-2.47-1.21q-3 0-3.28 4.91H109ZM131.7 156.83a5.36 5.36 0 0 1 1 3.47v11.19h-2.45v-10.8c0-2-.66-3-2-3a2.46 2.46 0 0 0-1.76.67 8.92 8.92 0 0 0-1.55 2.08v11.07h-2.45v-10.8c0-2-.66-3-2-3a2.53 2.53 0 0 0-1.79.68 9.24 9.24 0 0 0-1.51 2.07v11.07h-2.45v-15.6h2.1l.21 2.28a4.65 4.65 0 0 1 4-2.63 3.48 3.48 0 0 1 2.23.74 4.09 4.09 0 0 1 1.32 2.07 7 7 0 0 1 1.82-2.09 3.93 3.93 0 0 1 2.36-.72 3.38 3.38 0 0 1 2.92 1.25ZM147.55 164.63h-9a6.41 6.41 0 0 0 1.17 3.78 3.26 3.26 0 0 0 2.61 1.22 5.14 5.14 0 0 0 1.87-.33 7.23 7.23 0 0 0 1.78-1l1.07 1.62a7.3 7.3 0 0 1-4.91 2 5.42 5.42 0 0 1-4.56-2.13 9.36 9.36 0 0 1-1.64-5.86 12.21 12.21 0 0 1 .7-4.31 6.75 6.75 0 0 1 2-3 4.78 4.78 0 0 1 3.1-1.06 5 5 0 0 1 4.29 2 9.46 9.46 0 0 1 1.49 5.65c.08.48.06.94.03 1.42Zm-2.37-2.2a6.27 6.27 0 0 0-.83-3.52 2.78 2.78 0 0 0-2.47-1.21q-3 0-3.28 4.91h6.58Z" class="cls-1"/><path d="M54 38.28a1.59 1.59 0 0 0 1.13-2.72 1.59 1.59 0 0 0-2.26 0 1.59 1.59 0 0 0-.47 1.13 1.61 1.61 0 0 0 .47 1.13 1.64 1.64 0 0 0 1.13.46ZM59.11 38.28a1.64 1.64 0 0 0 1.13-.46 1.61 1.61 0 0 0 .47-1.13 1.59 1.59 0 0 0-.47-1.13 1.59 1.59 0 0 0-2.26 0 1.59 1.59 0 0 0-.47 1.13 1.61 1.61 0 0 0 .49 1.13 1.64 1.64 0 0 0 1.13.46ZM64.22 38.28a1.64 1.64 0 0 0 1.13-.46 1.61 1.61 0 0 0 .47-1.13 1.59 1.59 0 0 0-.47-1.13 1.59 1.59 0 0 0-2.26 0 1.59 1.59 0 0 0-.47 1.13 1.61 1.61 0 0 0 .47 1.13 1.64 1.64 0 0 0 1.13.46ZM71 38.28h64.74a1.6 1.6 0 1 0 0-3.19H71a1.6 1.6 0 1 0 0 3.19ZM142.59 38.28H146a1.6 1.6 0 1 0 0-3.19h-3.41a1.6 1.6 0 0 0 0 3.19Z" class="cls-2"/><path d="M146 28.27H54a8.42 8.42 0 0 0-8.41 8.42v72.41a8.42 8.42 0 0 0 8.41 8.41h92a8.42 8.42 0 0 0 8.41-8.41V36.69a8.42 8.42 0 0 0-8.41-8.42Zm-92 3.2h92a5.22 5.22 0 0 1 5.22 5.22v5.21H48.78v-5.21A5.22 5.22 0 0 1 54 31.47Zm92 82.85H54a5.23 5.23 0 0 1-5.22-5.22v-64h102.44v64a5.23 5.23 0 0 1-5.22 5.22Z" style="fill:#fff"/><path d="M110.6 84.08h.2v.09h-.2zM108.42 79.89l-.2-.2h-.38l-.2.2v.08l.49.19.29-.27zM106.12 80.16l.58.1.18-.19-.18-.19c-.32 0-.51.12-.58.28ZM106.32 79.31h.09v-.2l-.29-.27h-.66v.09c.08.25.37.38.86.38ZM97.45 87.6l.47.11h.1l.19-.2h-.76v.09zM97.26 87.22h.2v.09h-.2zM97.06 87.6h.2v.11h-.2zM97.26 85.5h.29v.09h-.29zM97.64 89.13l.09.09v.09l-.09.11h.28l-.09-.29h-.19zM101.83 81.87a3.78 3.78 0 0 0 1.44.49l.47-.09v-.4a1.75 1.75 0 0 0-1.52-.65h-.29v.09l.29.09v.09l-.11.11-.37-.11-.47.11-.78-.29h-.09c0 .18.47.37 1.43.56ZM102.98 89.13h.18l-.18-.2v.2zM103.36 87.8h.18v.09h-.18zM100.49 82.54h.2v.2h-.2zM101.64 89.03v.1l1.23.09v-.19l-.09-.1-1.14.1zM103.27 88.65h.38v.11h-.38zM84.43 79.07a.86.86 0 0 1-.27-.54H84l-.27.27v.2a.82.82 0 0 1 .54.27h.18ZM97.55 84.08v-.2l-.55-.09h-.09c0 .15.19.25.57.29ZM100.49 86.75v-.2h-.18l.18.2zM102.03 84.17h.08v-.19h-.28l.2.19zM103 85.59h.09l-.38-.47h-.09c.1.29.23.45.38.47ZM104.32 86.64l.09-.09.47.09h.11v-.27h-.67v.27zM99.06 83.7h.2v.09h-.2zM99.26 85.32c0 .18.29.27.76.27h.09l.11-.09-.2-.18ZM111.85 77.21v-.16l-.29.04v.03l.29.09zM96.88 79.31h-.2v.06l.2-.03v-.03zM110.31 77.21h-.17l.08.09.09-.02v-.07z" class="cls-2"/><path d="m111.85 77.01-.29-.09v.17l.29-.04v-.04zM93.63 79.78h-.28v.1l.33-.05-.05-.05zM106.22 77.68c0-.32-.58-.55-1.72-.67v.11c.42.57.81.85 1.15.85H105.95ZM84.43 79.61h.18v.18h-.18zM96.5 88.18h.09v.2h-.09zM85.53 80.44l-.36-.09h-.09v.19h.63q.18 0 .18.36H86l.18-.18v-.18l-.09-.47ZM87.07 80.44h.56v.09h-.56zM84.9 74.63l-.38.54.29.27.36-.18q-.09-.63-.27-.63ZM94.49 82.54h.09c0-.18-.24-.27-.58-.27h-.09c0 .14.2.23.58.27ZM93.91 87.89h.2v.09h-.2zM93.63 82.74h.29v.09h-.29zM94.87 88.65h-.09v.19c-.58.16-.87.29-.87.38l.76.2.49-.11c-.06-.44-.16-.66-.29-.66ZM95.74 88.56h.18v.09h-.18zM96.88 79.4v-.06l-.2.03v.03h.2z" class="cls-2"/><path d="m105.94 77.95-.12.02h.11l.01-.02zM110.31 77.28l-.09.02.09.09v-.11zM93.63 79.97h.19l-.14-.14-.33.05v.01l.28.08zM94.87 88.09h.2v.18h-.2zM103.54 82.65l-.09.09.29.09h.09v-.18l-.29-.11v.11zM96.88 65.29H97l.09-.09-.38-1.07h-.21l-.11.29c.18.58.34.87.49.87ZM100.4 64.71h.2v.2h-.2zM98.01 68.34h.11v.18h-.11zM91.82 79.31h.2v.09h-.2zM97.92 65.47h.2v.11h-.2zM100.22 67.48h.09v.2h-.09zM93.25 71.02l.28.27v-.09l-.18-.18h-.1zM91.91 73.78l.49.09h.09v-.2l-.58-.09v.2zM91.91 78.17h.38v.09h-.38zM93.16 75.39l.09.11.19-.2v-.09h-.28v.18zM92.69 66.52c0 .32-.1.49-.29.49v.29c0 .15.32.25.95.28l.28-.48v-.29c0-.13-.32-.23-.94-.29ZM105.26 85.7h.2v.09h-.2zM95.54 69.57v-1.14l-.2-.2h-.18l-.29.2a.33.33 0 0 0 .38.38V69a.26.26 0 0 0-.29.29l.49.27ZM93.82 65.47h.09v.2h-.09zM94.49 66.52h-.2v.2l.2-.2zM95.34 69.86l-.27-.09h-.11v.09h.2v.2h-.2v.29h.38v-.2l-.09-.09.09-.09v-.11zM94.78 66.14l-.2.2.29.29H95v-.11a2.27 2.27 0 0 0 .67-1.23c.39 0 .58-.16.58-.49v-.18l-.09-.09c-.19 0-.29-.06-.29-.2h-.09l-.11.09c0 .52-.19.78-.56.78l-.2-.2-.58.2V65h-.18l.09.58c.35.22.54.42.54.56ZM96.01 68.52v-.18h-.18l.18.18zM95.34 64.42v-.18l-.09-.11h-.09l-.09.11.18.18h.09zM96.79 66.14l-.2-.18h-.29v.18l.49.11v-.11zM96.01 66.14h-.27l.18.2h.09v-.2zM95.63 66.63h-.18l.18.18v-.18zM107.46 84.55h.09v.2h-.09zM106.5 81.6h.29v.09h-.29zM106.88 81.69h.2v.09h-.2zM108.42 84.74v-.19h-.2l.2.19zM108.13 81a4.11 4.11 0 0 1-1.54-.47l-.18.27v.11h.59c0 .35.28.57.85.67 0-.13.16-.2.47-.2ZM105.17 81.78h.2v.09h-.2zM109.09 80.82v-.09l-.38-.18h-.2l-.09.09.18.18h.49zM92.49 64.62v-.09h-.09l-.2.18v.09h.09l.2-.18zM105.46 81H105c0 .1.28.23.85.38h.09l.1-.09c-.04-.17-.26-.29-.58-.29ZM106.03 86.64l.19.2h.19l-.19-.2h-.19zM106.13 82.45l.19.2h.18v-.29h-.37v.09zM108.98 83.12h.2v.09h-.2zM109.27 78.84v.18l.58.09v-.09l.09-.09v-.09l-.09-.11-.58.11zM109.65 80.55q0 .27-.18.27l.29.29h.18l-.09-.56ZM111.47 80.26h-.29v.09l.76.38h.2v-.09a.66.66 0 0 0-.67-.38ZM111.56 78.93l-.38-.09h-.09a.71.71 0 0 0 .56.76l.67-.49-.76-.27ZM109.85 79.69v-.18l-.29-.11v.11l.19.18h.1zM109.18 81.69l.2.18h.18l-.18-.18h-.2zM109.38 84.45l-.29-.09v.19h.29v-.1zM109.27 83.88c-.06-.26-.25-.38-.56-.38h-.2c.06.25.25.38.58.38ZM109.38 84.74h.18v.09h-.18zM77.71 75.8h.18v.09h-.18zM64.72 73.62h.18v.09h-.18zM64.72 75.26h.18v.09h-.18zM64.63 75.44l-.56.09v.18h.2l.45-.09-.09-.09v-.09zM65.54 79.98h.18v.09h-.18zM64.63 72.26h.09l.45-.09v-.09h-.54v.18zM85.98 72.44h.27v.09h-.27zM63.53 77.16h.09v.18h-.09zM68.08 70.53h-.36l-.27.27h.09q.54-.09.54-.27ZM64.54 77.07h-.18l-.09.27h.27l-.09-.09v-.09l.09-.09zM63.62 77.99h.18v.09h-.18zM63.53 77.63v.09l.45.09.29-.09v-.09l-.47-.09-.27.09zM70.9 71.9h.18v.09h-.18zM69.89 67.8h.29v-.18l-.29.09v.09zM69.71 66.63h.27v.09h-.27zM73.45 71.07v-.09h-.65l-.18.18h.18l.65-.09zM70.45 82.25h.18v.09h-.18zM83.71 76.98l.27.27v-.09l-.18-.18h-.09zM73.72 70.89h.18v.09h-.18zM67.36 76.89h-.18l-.29.27.56.18.63-.18q-.08-.27-.72-.27ZM68.08 70.98h.27v.09h-.27zM68.26 68.34l.37-.09v-.09h-.37v.18zM66.35 83.15v.2h.45l-.18-.2h-.27zM77.8 82.61h.27v.09h-.27zM68.26 83.89v-.17l-.61.09a1.29 1.29 0 0 0 .52.08ZM67.09 84.71l-.2.18h.65l-.18-.18h-.27zM71.71 88.34h.18v.09h-.18zM77.08 85.25h.18v.09h-.18zM69.35 87.44h.18v.09h-.18zM77.71 82.34v-.07l-.62.1.44-.03h.18zM77.71 82.16h-.45l-1.55-.18-.18.27.55.18 1.01-.06.62-.1v-.11z" class="cls-2"/><path d="M68.26 83.71q-.09-.27-.54-.27h-.36v.09a.45.45 0 0 0 .29.28l.61-.09ZM81.52 81.89v-.2h-.2v.17ZM81.25 86.98h.09v.18h-.09z" class="cls-2"/><path d="M81.25 81.26v.18l.06.28h.2c-.05-.31-.13-.46-.26-.46ZM78.9 85.61l.18.18h.09l-.18-.18h-.09zM74.98 88.61l.46.09v-.18h-.46v.09zM80.89 87.8l.09-.36-.36.36h.27zM80.71 87.07q0 .21.45.27v-.09l-.16-.18ZM78.16 88.97v.09l.36-.36h-.09l-.27.27zM79.72 84.26q0 .18.45.36v-.09q0-.22-.45-.27ZM75.25 87.44l-.18.18c.06.18.24.27.55.27h.65a1.18 1.18 0 0 0-1.02-.45ZM75.25 85.88l-.36.09v.2l.45.09h.93l.09.09h.09v-.18h-.27a1.59 1.59 0 0 1-.93-.29ZM71.17 66.9h.45v.09h-.45zM76.72 87.98v.09l.9.18v-.18l-.45-.09h-.45zM84.25 81.53l-.18-.18h-.09l.18.18h.09zM78.16 65.25H78c-.44 0-.68.09-.72.28h.18c.43 0 .67-.1.7-.28ZM94.49 67.58v-.1l-.2-.18H94l-.18.18v.19l.47.1.2-.19zM78.34 76.25h.18v.09h-.18zM72.17 81.98l.18.18H73v-.09l-.47-.18-.36.09zM78.43 73.44v.09h.18l.74-.18v-.09h-.18l-.74.18zM78.43 75.98h.18v.18h-.18zM77.35 73.44h.27v.09h-.27zM77.44 66.45h.27l.27-.09v-.09h-.09l-.45.09v.09zM78.61 70.17V70h-.54q-.66 0-.72.27v.09h.36ZM78.43 74.72h.09v.18h-.09zM78.34 77.63l.09.09h.09l.09-.27h-.09l-.18.18zM82.53 74.72l.09-.09v-.09h-.27l.18.18zM83.17 76.8 83 77v.18l.19.18h.09q.13 0 .27-.36l-.27-.18ZM82.71 77.81l.18-.18h-.18v.18zM79.63 81.71l.27-.09v-.09h-.46l.19.18zM83.53 74.81l-.09.09.09.27.18-.18-.18-.18zM84.34 75.44l.09-.63-.09-.09h-.09l-.09.09v.09l.09.09q-.54.2-.54.63l.09.09-.18.18v.18h.18q0-.18.54-.63ZM80.71 79.52l.27.28h.09l-.27-.28h-.09zM80.71 75.26l-.18-.18-.09.09v.09l.09.09h.18v-.09zM80.98 78.35h.18v.09h-.18zM80.89 77.34v.11a1 1 0 0 1 .63-.29l-.09-.09V77q.27-.09.27-.54h-.18ZM79.53 70.53l-.18-.18v.27h.18v-.09zM76.81 77.72v-.18l-.18.18h.18zM77.08 77.54v-.29h-.27l.27.29zM75.99 76.62h.18v.18h-.18zM85.35 71.34h-.09v.09l.09.38-.09.27h.09l.09.09h.09l.09-.09v-.18c-.03-.37-.12-.56-.27-.56ZM85.08 77.45h.18v-.74h-.09l-.09.74zM73.18 72.44l.9-.27v-.18h-.81l-.09.45zM75.52 77.54v.09l.19.18h.19c0-.1-.12-.19-.38-.27ZM74.44 79.52l.27.28h.09v-.1l-.18-.18h-.18zM79.26 69.9h.18v.09h-.18zM76.81 73.44l-.18.18h.18v-.18zM85.35 71.16h.18v.09h-.18zM84.72 70.8h.09v.18h-.09zM81.16 69.44h.45v.09h-.45zM83.8 73.89h.18v.09h-.18zM80.62 73.17h.18v.18h-.18zM81.52 73.53v-.45q-.54.09-.54.27v.09l.45.09ZM83.26 69.72l-.18-.19h-.1l-.18.19v.18l.28.09.18-.27zM83.89 72.44v-.09l-.18-.18h-.18v.27l.18.18.18-.18zM84.34 70.26l.09-.36-.09-.37.09-.09h-.18l-.09.55.09.27h.09z" class="cls-2"/><path d="M84.61 72.08a4.45 4.45 0 0 0 .74-1.37v-.18H85V71a1.54 1.54 0 0 0-.56.92ZM84.34 72.71v-.18l-.18-.18h-.09l-.09.46.27-.19.09.09zM92.87 65.47v-.27h-.47l-.11.27.11.11.47-.11zM118.63 79.97l-.2-.19h-.27v.11l.27.08h.2zM121.3 88.18h.09v.2h-.09zM118.43 82.74h.29v.09h-.29zM119.67 88.65h-.09v.19c-.57.16-.86.29-.86.38l.75.2.49-.11c-.06-.44-.15-.66-.29-.66ZM120.54 88.56h.18v.09h-.18zM118.72 87.89h.2v.09h-.2zM116.71 78.17h.38v.09h-.38zM116.62 79.31h.2v.09h-.2zM119.29 82.54h.09c0-.18-.24-.27-.57-.27h-.09q0 .21.57.27ZM126.45 70.15h.09v-.18h-.29l.2.18zM122.06 85.5h.29v.09h-.29zM122.44 89.13l.09.09v.09l-.09.11h.29l-.09-.29h-.2zM122.26 87.6l.47.11h.09l.2-.2h-.76v.09zM135.41 84.08h.2v.09h-.2zM134.56 74.92l-.2-.18h-.09l.18.18h.11zM121.48 79.31h.2v.09h-.2zM134.18 76.92a.66.66 0 0 0-.67-.38v.29l.67.18ZM122.35 84.08v-.2l-.58-.09h-.09c0 .15.19.25.58.29ZM93.91 70.35h.2v.09h-.2zM121.86 87.6h.2v.11h-.2zM122.06 87.22h.2v.09h-.2zM135.32 72.82v.09l-.49-.18-.18.18-.29-.18h-.18v.09a3.7 3.7 0 0 0 1.32.58l.39-.11a.76.76 0 0 0-.57-.47ZM133.4 71.49l.29.09v-.18h-.29v.09zM131.59 69.68c.57.06.85.28.85.67h.67l.2-.2v-.09c0-.24-.57-.43-1.72-.58ZM130.93 69.1l.2.2h.18l-.18-.2h-.2zM133.22 79.89l-.2-.2h-.38l-.2.2v.08l.49.19.29-.27zM131.5 67.19h.29v-.38l-.48-.09h-.38l-.09.29.29-.09.37.27zM132.64 70.44l-.29.18-.67-.09h-.09v.09l1.72.49h.09V71c-.08-.2-.34-.39-.76-.56ZM127.03 70.73l.17.18h.1l-.19-.18h-.08zM135.23 71.2v-.09l-.2-.2h-.38c0 .15.19.25.58.29ZM134.18 69.86h-.2l.2.2v-.2zM134.27 72.53h.09l.2-.18v-.11l-1.34-.24a1.51 1.51 0 0 0 1.05.53ZM132.64 66.81l-.29-.29h-.09v.11l.18.18h.2zM132.73 71.78v.18l.11.1h.09l.09-.1-.18-.18h-.11zM130.93 72.91h-.38l-.09-.09V73a2.19 2.19 0 0 0 1.13.49l.47-.09v-.29l-.75-.29ZM129.97 72.73v.18h.29l-.2-.18h-.09zM133.22 72.44l-.11.09.2.2h.09l.11-.11-.2-.18h-.09zM128.07 69.57H128c0 .18.35.37 1 .58h.11v-.09c.01-.06-.34-.26-1.04-.49ZM130.06 69.48v-.09c0-.11-.16-.2-.47-.29l-.58.09v.11l1 .18ZM130.06 70.73l.49.09v-.2l-.49-.09v.2zM129.3 71.68h.38v.09h-.38zM130.73 72.06V72c0-.19-.24-.28-.56-.28H130l-.09.09c0 .15.19.25.58.29ZM119.67 88.09h.2v.18h-.2zM133.22 84.74v-.19h-.2l.2.19zM134.18 84.45l-.29-.09v.19h.29v-.1zM132.93 81a4 4 0 0 1-1.53-.47l-.18.27v.11h.57c0 .35.29.57.85.67 0-.13.16-.2.47-.2ZM132.06 76.06v-.18l-.27-.1h-.11c0 .1.13.22.38.28ZM130.84 86.64l.18.2h.2l-.2-.2h-.18zM133.89 80.82v-.09l-.38-.18h-.2l-.09.09.18.18h.49zM130.93 82.45l.2.2h.18v-.29h-.38v.09zM131.31 81.6h.29v.09h-.29zM131.68 81.69h.2v.09h-.2zM132.26 84.55h.09v.2h-.09zM133.78 83.12h.2v.09h-.2zM136.65 77.01l-.29-.09v.2l.29.09v-.2zM135.12 77.39v-.18h-.18l.18.18zM136.27 80.26H136v.09l.76.38h.2v-.09a.66.66 0 0 0-.69-.38ZM134.18 84.74h.18v.09h-.18zM136.36 78.93l-.38-.09h-.09a.71.71 0 0 0 .56.76l.67-.49-.76-.27ZM134.07 78.84v.18l.58.09v-.09l.09-.09v-.09l-.09-.11-.58.11zM134.45 80.55q0 .27-.18.27l.29.29h.18l-.09-.56ZM133.98 81.69l.2.18h.18l-.18-.18h-.2zM134.65 79.69v-.18l-.29-.11v.11l.2.18h.09zM134.07 83.88c-.06-.26-.25-.38-.56-.38h-.2c.06.25.25.38.58.38ZM130.26 81h-.47c0 .1.28.23.85.38h.09l.11-.09c-.06-.17-.26-.29-.58-.29ZM127.78 85.59h.09l-.38-.47h-.09c.12.29.25.45.38.47ZM123.86 83.7h.2v.09h-.2zM126.83 84.17h.09v-.19h-.29l.2.19zM126.63 81.87a3.78 3.78 0 0 0 1.44.49l.47-.09v-.4a1.75 1.75 0 0 0-1.52-.65h-.28v.09l.28.09v.09l-.1.11-.38-.11-.47.11-.78-.29h-.09c0 .18.48.37 1.43.56ZM124.06 85.32c0 .18.29.27.76.27h.09l.11-.09-.2-.18ZM130.46 78h.27l.29-.29c0-.32-.58-.55-1.72-.67v.11c.42.54.81.85 1.16.85ZM130.93 80.16l.57.1.18-.19-.18-.19c-.32 0-.5.12-.57.28ZM126.54 77.77h.2v.11h-.2zM128.54 75.21l-.2-.2h-.09l.2.2h.09zM128.16 87.8h.18v.09h-.18zM129.12 86.64l.09-.09.47.09h.11v-.27h-.67v.27zM125.29 86.75v-.2h-.18l.18.2zM128.34 82.65l-.09.09.29.09h.09v-.18l-.29-.11v.11zM129.97 81.78h.2v.09h-.2zM130.06 85.7h.2v.09h-.2zM125.29 82.54h.2v.2h-.2zM126.45 89.03v.1l1.22.09v-.19l-.09-.1-1.13.1zM128.07 88.65h.38v.11h-.38zM127.78 89.13h.18l-.18-.2v.2zM130.26 78.84v.09c.08.25.37.38.86.38h.1v-.2l-.29-.27ZM106.13 69.1l.19.2h.18l-.18-.2h-.19zM106.7 67.19h.29v-.38l-.49-.09h-.37l-.1.29.29-.09.38.27zM110.42 71.2v-.09l-.2-.2h-.37c0 .15.15.25.57.29ZM107.84 66.81l-.29-.29h-.09v.11l.18.18h.2zM103.27 69.57h-.11c0 .18.35.37 1 .58h.11v-.09c.05-.06-.27-.26-1-.49ZM109.47 72.53h.09l.2-.18v-.11l-1.34-.24a1.51 1.51 0 0 0 1.05.53ZM105.26 69.48v-.09c0-.11-.16-.2-.47-.29l-.58.09v.11l1 .18ZM109.38 69.86h-.2l.2.2v-.2zM106.79 69.68c.57.06.85.28.85.67h.67l.2-.2v-.09c0-.24-.57-.43-1.72-.58ZM108.6 71.49l.29.09v-.18h-.29v.09zM103.45 75.01l.2.2h.09l-.2-.2h-.09zM108.51 72.44h-.09l-.11.09.2.2h.09l.11-.11-.2-.18zM107.93 71.78v.18l.11.1h.09l.09-.1-.18-.18h-.11zM108.71 76.54v.29l.67.18v-.09a.67.67 0 0 0-.67-.38ZM106.12 72.91h-.37l-.1-.09V73a2.19 2.19 0 0 0 1.14.49l.47-.09v-.29l-.76-.29ZM109.47 74.74l.18.18h.1l-.19-.18h-.09zM105.26 70.73l.49.09v-.2l-.49-.09v.2zM106.88 75.78c0 .1.13.19.38.28v-.18l-.27-.1ZM104.5 71.68h.38v.09h-.38zM105.93 72.06V72c-.05-.19-.24-.28-.56-.28h-.2l-.09.09c0 .15.19.25.57.29ZM105.17 72.73v.18h.29l-.2-.18h-.09zM101.73 69.97h-.28l.19.18h.09v-.18zM102.22 70.73l.18.18h.09l-.18-.18h-.09zM97.35 74.25v.2h.29l-.19-.2h-.1zM96.79 70.73h-.11c-.38 0-.63.22-.76.67l.58.18c0-.16.15-.41.47-.76h-.09ZM98.21 68.81v-.18h-.57v.09l.48.09h.09zM98.12 71.11v-.2l-.2.2h.2zM94.58 75.12v-.2h-.18l.18.2zM98.77 70.24l-.47-.18-.09.09h-.09l-.2-.18h-.09l-.1.09c.32.23.48.41.48.56l.56-.09ZM94.67 71.87l-.38.19v.29l.49.18v-.09H95c0-.32-.13-.51-.33-.57ZM95.74 70.53h-.4l.2.2h.38l-.18-.2zM94.67 71.11l-.09.09v.29h.29l.2-.2-.4-.27v.09zM96.79 68.52h-.29v.11l.09.09-.09.47h.09l.09.11h.11a.5.5 0 0 0 .56-.58ZM100.89 68.23v-.18h-.2l.2.18zM101.45 64.33l-.38.2v.09h.09c.19 0 .29-.06.29-.2ZM110.51 72.82v.09l-.48-.18-.18.18-.29-.18h-.18v.09a3.76 3.76 0 0 0 1.31.58l.4-.11a.78.78 0 0 0-.58-.47ZM101.74 77.77h.2v.11h-.2zM99.17 64.91h.27V65h-.27zM98.97 72.25h.09l.2-.19h-.29v.19zM98.68 72.62h-.09c0 .14.18.26.47.38v-.09c0-.09-.12-.19-.38-.29ZM100.49 74.07l.11.09.18-.2h-.29v.11zM100.22 74.54v.2l.27.09h.2c0-.11-.16-.21-.47-.29ZM107.84 70.44l-.29.18-.67-.09h-.09v.09l1.72.49h.09V71c-.08-.2-.34-.39-.76-.56ZM119.47 71.87l-.37.19v.29l.48.18v-.09h.18c0-.32-.09-.51-.29-.57ZM119.38 75.12v-.2h-.18l.18.2zM119.47 71.11l-.09.09v.29h.29l.2-.2-.4-.27v.09zM121.59 70.73h-.11c-.37 0-.63.22-.76.67l.58.18c0-.16.16-.41.47-.76h-.09ZM121.59 68.52h-.29v.11l.09.09-.09.47h.09l.09.11h.11a.5.5 0 0 0 .56-.58ZM120.54 70.53h-.4l.2.2h.38l-.18-.2zM119.29 66.52h-.2v.2l.2-.2zM118.63 65.47h.09v.2h-.09zM118.72 70.35h.2v.09h-.2zM119.29 67.58v-.1l-.2-.18h-.28l-.18.18v.19l.46.1.2-.19zM120.43 66.63h-.18l.18.18v-.18zM122.15 74.25v.2h.29l-.18-.2h-.11zM123.97 64.91h.27V65h-.27zM126.25 64.33l-.38.2v.09h.13c.19 0 .29-.06.29-.2ZM123.77 72.25h.09l.2-.19h-.29v.19zM125.29 74.07l.11.09.18-.2h-.29v.11zM125 74.54v.2l.27.09h.2c.02-.11-.14-.21-.47-.29ZM122.92 71.11v-.2l-.19.2h.19zM123.02 68.81v-.18h-.58v.09l.48.09h.1zM123.48 72.62h-.09c0 .14.18.26.47.38v-.09c0-.09-.12-.19-.38-.29ZM123.57 70.24l-.46-.18-.09.09h-.1l-.19-.18h-.09l-.11.09c.32.23.49.41.49.56l.55-.09ZM125.69 68.23v-.18h-.2l.2.18zM117.49 66.52c0 .32-.1.49-.29.49v.29c0 .15.32.25 1 .28l.27-.48v-.29c-.04-.13-.36-.23-.98-.29ZM122.82 68.34h.11v.18h-.11zM118.05 71.02l.29.27v-.09l-.18-.18h-.11zM125.02 67.48h.09v.2h-.09zM122.73 65.47h.2v.11h-.2zM125.2 64.71h.2v.2h-.2zM117.29 64.62v-.09h-.09l-.2.18v.09h.09l.2-.18zM117.67 65.47v-.27h-.47l-.11.27.11.11.47-.11zM117.96 75.39l.09.11.2-.2v-.09h-.29v.18zM116.71 73.78l.49.09h.09v-.2l-.58-.09v.2zM120.14 64.42v-.18l-.09-.11h-.09l-.09.11.18.18h.09zM120.14 69.86l-.27-.09h-.11v.09h.2v.2h-.2v.29h.38v-.2l-.09-.09.09-.09v-.11zM120.81 66.14h-.27l.18.2h.09v-.2zM121.68 65.29h.09l.09-.09-.38-1.07h-.18l-.11.29c.18.58.34.87.49.87ZM119.58 66.14l-.2.2.29.29h.09v-.11a2.27 2.27 0 0 0 .67-1.23c.39 0 .58-.16.58-.49v-.18l-.09-.09c-.19 0-.29-.06-.29-.2h-.09l-.11.09c0 .52-.18.78-.56.78l-.2-.2-.57.2V65h-.19l.1.58c.38.22.57.42.57.56ZM120.81 68.52v-.18h-.18l.18.18zM121.59 66.14l-.2-.18h-.29v.18l.49.11v-.11zM120.34 69.57v-1.14l-.2-.2H120l-.29.2a.33.33 0 0 0 .38.38V69a.26.26 0 0 0-.29.29l.49.27ZM76.63 53.39h.18v.09h-.18zM63.17 66.28v-.27h-.18l-.09.09.18.18h.09zM76.54 52.29h-.18l-.09.27.27.18v-.45zM69.71 60.02l.09-.09v-.09l-.09-.09h-.09l-.09.09v.09l.09.09h.09zM76 51.38v-.09h-.2l-.46.36.19.18.47-.45zM57.08 71.11l-.09-.09-.18.18h.27v-.09zM89.07 70.93V71l.09.09a1.09 1.09 0 0 0 .63-.36v-.09l-.09-.09q-.63.13-.63.38ZM57.08 79.09l-.09.11.18.18h.09l.09-.09-.18-.2h-.09zM58.08 69.37H58l-.09.09-.18-.18h-.19v.18l1.11.36v-.09l.09-.09c-.01-.12-.23-.21-.66-.27ZM62.54 67.19l-.09-.09h-.09l-.09.09v.09l.09.09h.09l.09-.09v-.09zM61.73 74.83v-.27h-.28v.09l.18.18h.1zM61.73 78.1v-.09l-.1-.09h-.08l-.1.09v.09l.1.09h.08l.1-.09zM76.63 51.83h.18v.27h-.18zM87.34 73.83l.09-.09-.18-.18v.27h.09zM63.62 83.1l.09.09.18-.18h-.27v.09zM64.07 82.65h.11v.18h-.11zM64.45 83.15l.09-.01v-.13h-.09v.14zM63.44 82.65h.18v.18h-.18z" class="cls-2"/><path d="M88.44 74.83c-.11-.72-.26-1.09-.45-1.09h-.09l-.09.09a.32.32 0 0 0 .36.37v.09l-.54.09c-.2 0-.29-.12-.29-.36h-.09l-.27.36.27.09v.18q-.36 0-.36.45L86 74a.89.89 0 0 1 .45-.73v.18h.19v-.29l-.09-.09c-.25 0-.37-.06-.37-.18s-.09-.36-.27-.36v-.18l.09-.09h-.09l-.09-.09h-.36l-.27.18q0 .63-.45.63c-.19 0-.29-.23-.29-.54v-.34l.18-.45h.2l.09.09q0 .36.27.36h.54v-.54l-.09-.09h.09l1.36 1.44c.61 0 .92.06.92.18h.09l.09-.09a7.72 7.72 0 0 0-1.28-3.36h-.36v.18h-.19q0-.36-.18-.36c0-.08.12-.17.37-.27a.24.24 0 0 0 .27.27v-.18c-2.74-4.3-6.52-6.45-11.37-6.45v-.18h-.18v.18a15.46 15.46 0 0 0-5.9 1.45 13 13 0 0 0-6.18 7.28q-.09.9-.45.9v.18h.18l-.36 3v.27q.27 3.18.63 3.18v.11l-.09.09v.18l.27.63h.09l.09-.09.45.09v.09h-.54v.09l.61 1.72v.2l-.36.18.18.18.56-.18a3.52 3.52 0 0 0 .44.7l2.76-.42a.45.45 0 0 1-.29-.28v-.09h.36q.45 0 .54.27l8.83-1.36-1 .07-.56-.18.19-.28 1.55.19h.45v.11l3.6-.55-.06-.29v-.17c.13 0 .21.15.26.44l6.34-1a14.45 14.45 0 0 0 .59-4.2ZM86 71.29h.27v.09H86ZM63.53 76h.09v.18h-.09Zm.27.92h-.18v-.09h.18Zm.47-.36-.29.09-.45-.09v-.09l.27-.09.47.09Zm.27-.38h-.27l.09-.27h.18l-.09.09v.09Zm-.27-1.62h-.2v-.18l.56-.09v.09l.09.09Zm.63-.36h-.18v-.09h.18Zm0-1.65h-.18v-.09h.18Zm.28-1.55-.46.09h-.09v-.18h.55Zm.54 7.89h-.18v-.09h.18Zm2-9.54h.36q0 .18-.54.27h-.09ZM66.35 82.2V82h.27l.18.2Zm1.1-6-.56-.2.29-.27h.18q.67 0 .72.27Zm.9-6.26h-.27v-.1h.27Zm.28-2.82-.37.09V67h.37Zm5.09 2.63h.18v.09h-.18Zm-.92.09h.65v.1l-.65.06h-.18Zm-3.09-4.35H70v.09h-.27Zm.47 1.18h-.29v-.09l.29-.09Zm.45 14.54h-.18v-.11h.18Zm.45-10.35h-.18v-.09h.18Zm.54-5h-.45v-.09h.45ZM73 81h-.65l-.18-.19.36-.09.47.19Zm1.08-10-.9.27.09-.45h.81Zm.72 7.62h-.09l-.27-.27h.18l.18.18Zm2-6.36v.18h-.18Zm-1.1 4.37-.19-.18v-.09c.26.09.38.18.38.27Zm.47-1H76v-.18h.19Zm.63.92h-.18l.18-.18Zm.27-.18-.27-.29h.27Zm8.18-.83v.74h-.18l.09-.74Zm.36-4.62-.09.09h-.09l-.09-.09h-.09l.09-.27-.09-.38v-.09h.09c.15 0 .24.18.27.56Zm-.09-.83h-.18V70h.18Zm-.81-.46h.09v.18h-.09Zm.27.18v-.45h.36v.18a4.56 4.56 0 0 1-.74 1.38l-.18-.18a1.55 1.55 0 0 1 .58-.92Zm-.74-1.53h.18l-.09.09.09.36-.09.36h-.09l-.09-.27Zm-.18 2.91h.09l.18.18v.18l-.09-.09-.27.18Zm-.53-.19h.18l.18.18v.09l-.18.18-.18-.18Zm.47 1.73v.09h-.2v-.09Zm-1.2-4.17.18-.18h.1l.18.18-.18.27-.28-.09Zm-1.64-.27h.45v.09h-.45Zm-.16 3.9q0-.18.54-.27v.45h-.09l-.45-.09Zm-.38-.19h.18v.18h-.18Zm-1.36-3.27h.18v.09h-.18ZM78 64.1h.18q0 .27-.72.27h-.18q.04-.27.72-.27Zm0 1v.09l-.27.09h-.27v-.08l.45-.09Zm-.36 7.26h-.27v-.09h.27Zm-.27-3.18v-.08q.06-.27.72-.27h.54V69l-.9.18Zm1.08 4.37h.09v.18h-.09Zm-.09 1.54h.18v.09h-.18Zm-.45-.36h-.18v-.09h.18Zm.63 1.82h-.09l-.09-.09.18-.18h.09Zm.07-1.55h-.18v-.18h.18Zm.74-2.82-.74.18h-.18v-.09l.74-.18h.18Zm0-3 .19.18v.09h-.19Zm.55 11.27-.27.09-.19-.18h.46Zm.54-6.35V74l.09-.1.18.19v.09h-.18Zm.56 4.54-.27-.27h.09l.27.27Zm.18-1.36H81v-.09h.18Zm.27-1.46v.09l.09.09a1 1 0 0 0-.63.29v-.11l.63-.9h.18q-.02.45-.29.54Zm1.19-2.35-.09.09-.18-.18h.27Zm.09 3.18v-.18h.18Zm.55-.47h-.09L83 76v-.18l.19-.18h.09l.27.18q-.15.36-.29.36Zm.18-2.44.09-.09.18.18-.18.19Zm.18 1 .18-.18-.09-.09c0-.29.18-.5.54-.64l-.09-.09v-.09l.09-.09h.09l.09.09-.09.64q-.54.45-.54.63h-.18ZM84 76v.09l-.27-.27h.09Zm-.27 1.83v-.18l.27-.28h.18a.9.9 0 0 0 .27.55v.18h-.18a.82.82 0 0 0-.56-.27Zm.9.81h-.18v-.18h.18ZM84.52 74l.38-.55c.12 0 .21.21.27.64l-.36.18Zm1.64 5.54-.18.18h-.09q0-.36-.18-.36h-.63v-.16h.09l.36.09.54-.38.09.47Zm1.47-.18h-.56v-.09h.56ZM90.16 68.38l.18.18.29-.18-.2-.18-.27.18zM113.19 73.09h.09v.2h-.09zM113.19 71.29h.09v.18h-.09zM111.47 68.52l-.2.18h.2v-.18zM112.23 70.42h.18v.11h-.18zM112.7 72.71h.2v.09h-.2zM112.7 71.76h.2v.09h-.2z" class="cls-2"/><path d="m112.81 74.63-.11-.58.11-.47c-.13 0-.23-.35-.29-1.06h-.11l.11-.09v-.09l-.2-.87.09-.09-.09-.09-.09.09h-.47l-.2-.18c.39-.14.58-.27.58-.4a10.55 10.55 0 0 0-3.43-5.24q-1.59-1.76-6-2.67a27.67 27.67 0 0 0-5-.29v.29h-.19c0-.19-.06-.29-.19-.29H95c-.82 0-1.23.13-1.23.38l-.38-.09-.95.2-.11-.49h-.47l-.2.2v.09l.2.2.09-.11v.11l-.29.38v1.13l-.09.29.09.47v2.39l.11.49h.09l.29-.2.18.29v.09h-.18v.19h.09l.09-.09h.11v.67h-.11l-.56-.49h-.11l-.09.58.09.38v.2l-.18.27h.18v7.64l-.09.38.09.38V79l1.73-.27v-.1h.33l3-.46v-.06h.2l8.94-1.37h-.17c-.34 0-.73-.28-1.15-.84v-.11c1.14.12 1.72.34 1.72.67l-.27.27 4.27-.66-.09-.08h.19v.07l1.24-.19v-.17l.29.09 1-.15.07-.26-.2-.58Zm-20.61-11v-.09l.2-.18h.09v.09l-.2.18Zm.09.67.11-.3h.47v.28l-.47.1ZM92 78.24h-.2v-.09h.2Zm.27-1.14h-.38V77h.38Zm.2-4.39h-.07l-.49-.09v-.19l.58.09Zm1 1.43-.19.2-.09-.11v-.18h.28Zm.1-4-.29-.27h.1l.19.18Zm.09-4.19-.28.49c-.63 0-.95-.13-.95-.29v-.29c.19 0 .29-.16.29-.49.62.06.94.16.94.29Zm6.77-2.38h.2v.2h-.2Zm-.18 2.76h.09v.2h-.09Zm-2.3-2h.2v.1h-.2Zm.2 2.87v.18H98v-.18ZM96.5 63h.18l.38 1-.09.09h-.09c-.15 0-.31-.28-.49-.86Zm-.2 1.82h.29l.2.18v.11L96.3 65ZM95.16 63h.09l.09.11v.18h-.09l-.18-.18Zm-.87.87V64l.58-.19.2.19c.37 0 .56-.25.56-.77l.11-.09h.09c0 .13.1.2.29.2l.09.09v.18c0 .32-.19.48-.58.48a2.19 2.19 0 0 1-.63 1.27v.11h-.09l-.29-.29.2-.2c0-.15-.19-.34-.58-.56l-.09-.57Zm1.63 1.33-.18-.2H96v.2Zm.09 2v.18l-.18-.18Zm-.67 1.8v.2H95v-.3h.2v-.2H95v-.09h.11l.27.09v.11l-.09.09Zm-.34-.86c0-.19.1-.28.29-.28v-.2a.34.34 0 0 1-.38-.38l.29-.2h.18l.2.2v1.14h-.09Zm.49-2.67h.18v.18Zm-1-.11-.2.2v-.2Zm-.67-1h.09v.19h-.09Zm0 2 .18-.18h.29l.2.18v.11l-.2.18-.47-.09Zm.29 3h-.2v-.09h.2Zm.47 4.64-.18-.2h.18Zm.2-2.67v.09l-.49-.18v-.29l.38-.2c.2.06.29.25.29.58Zm.09-1h-.29V70l.09-.09v-.09l.4.27Zm.47-1h.4l.18.2h-.38Zm1.16 1-.58-.18c.13-.45.38-.67.76-.67h.11l.09.09H97c-.35.43-.5.69-.5.85Zm.29-2.28h-.11l-.09-.1h-.09l.09-.47-.09-.09v-.11h.29l.56.2a.5.5 0 0 1-.56.66Zm.56 5.15V73h.1l.19.2Zm.29-5.81h.57v.18h-.09l-.48-.09Zm.48 2.61h-.2l.2-.2Zm-.39-1 .1-.09h.09l.2.18h.09l.09-.09.47.18v.29l-.56.09c0-.24-.16-.43-.48-.66Zm1.33 2.95c-.29-.12-.44-.25-.47-.38h.09c.26.09.38.19.38.29Zm0-.76H99v-.18h.29Zm.38-7.24h-.27v-.09h.27Zm1 9.82-.27-.09v-.2c.31.09.47.18.47.29Zm.11-.67-.11-.09v-.21h.29Zm.29-5.92-.2-.18h.2Zm.27-3.61h-.09v-.09l.38-.2v.09c.05.03-.05.1-.24.1Zm.29 5.34h.29V69h-.09Zm.48 7.91h-.19v-.1h.19Zm.47-7-.18-.18h.09l.18.18Zm7.82 0 .2.2V70c-.38 0-.57-.13-.57-.29Zm-.46 1.34v.11l-.2.18h-.09a1.49 1.49 0 0 1-1-.58Zm-.38-2.39v.2l-.2-.2Zm-.49 1.54v.18l-.29-.09v-.09Zm-.24-.31h-.09l-1.72-.49v-.09h.09l.67.09.29-.18c.42.17.68.36.76.58Zm-.09-1-.2.2h-.67c0-.38-.28-.61-.85-.67v-.19c1.15.13 1.72.32 1.72.56Zm-1.05-3.54h.09l.29.29h-.2l-.18-.18Zm-1.34.2h.38l.49.09V66h-.29l-.38-.27-.29.09Zm.38 2.58h-.18l-.2-.19h.2Zm-2.85 5.91-.2-.2h.09l.2.2Zm.67-5.06h-.11q-1-.3-1-.57h.11c.7.22 1 .39 1 .48Zm-.11-.85V68l.58-.09c.31.08.47.18.47.29v.09h-.09Zm1.54 1.32v.2l-.49-.09v-.2Zm-.87 1.16h-.38v-.09h.38Zm.2 0 .09-.09h.2c.32 0 .51.09.56.27v.11h-.28c-.38-.15-.57-.25-.57-.39Zm.09 1.14v-.18h.09l.2.18Zm2.09 3.14c-.25-.08-.38-.17-.38-.27h.12l.27.09Zm0-2.65-.47.09a2.28 2.28 0 0 1-1.14-.49v-.18l.1.09h.37l.38-.09.76.29Zm.87-1.34H108l-.11-.11v-.18h.11l.18.18Zm.38.67-.2-.2.11-.09h.09l.2.18-.11.11Zm.87 4.28-.67-.18v-.29a.65.65 0 0 1 .67.38Zm.27-2.1-.18-.18h.09l.2.18Zm1-1.51a4 4 0 0 1-1.31-.58v-.09h.18l.29.18.18-.18.48.18v-.09a.76.76 0 0 1 .58.47ZM137.03 70.42h.18v.11h-.18zM137.5 71.76h.2v.09h-.2zM136.27 68.52l-.2.18h.2v-.18zM137.99 71.29h.09v.18h-.09z" class="cls-2"/><path d="m137.12 71.47.09-.09-.09-.09-.09.09h-.47l-.2-.18c.39-.14.58-.27.58-.4a10.48 10.48 0 0 0-3.43-5.24q-1.59-1.76-6-2.67a27.6 27.6 0 0 0-5-.29v.29h-.18c0-.19-.07-.29-.2-.29h-2.3c-.82 0-1.22.13-1.22.38l-.38-.09-1 .2-.11-.49h-.47l-.2.2v.09l.2.2.09-.11v.11l-.29.38v1.13l-.09.29.09.47v2.39l.11.49h.09l.29-.2.18.29v.09h-.18v.19h.06l.09-.09h.11v.67h-.11l-.56-.49h-.11l-.09.58.09.38v.2l-.18.27h.18v5.06L137.24 72ZM117 63.65v-.09l.2-.18h.09v.09l-.2.18Zm.09.67.11-.28h.47v.28l-.47.1Zm.2 8.39h-.09l-.49-.09v-.19l.58.09Zm1 1.43-.2.2-.09-.11v-.18h.29Zm.09-4-.29-.27h.11l.18.18Zm.09-4.19-.27.49c-.64 0-1-.13-1-.29v-.29c.19 0 .29-.16.29-.49.62.06.94.16.94.29Zm6.77-2.38h.2v.2h-.2Zm-.24 2.75h.09v.2H125Zm-2.29-2h.19v.1h-.19Zm.19 2.87v.18h-.1v-.18ZM121.3 63h.18l.38 1.06-.09.09h-.09c-.15 0-.31-.28-.49-.86Zm-.2 1.82h.29l.2.18v.11l-.49-.11ZM120 63h.09l.09.11v.18h-.09l-.18-.18Zm-.86.87V64l.57-.19.2.19c.38 0 .56-.25.56-.77l.11-.09h.09c0 .13.1.2.29.2l.09.09v.18c0 .32-.19.48-.58.48a2.19 2.19 0 0 1-.67 1.23v.11h-.09l-.29-.29.2-.2c0-.15-.19-.34-.57-.56l-.1-.57Zm1.62 1.33-.18-.2h.27v.2Zm.09 2v.18l-.18-.18Zm-.67 1.8v.2h-.38v-.3h.2v-.2h-.2v-.09h.11l.27.09v.11l-.09.09Zm-.38-.85c0-.19.1-.28.29-.28v-.2a.34.34 0 0 1-.38-.38l.29-.2h.18l.2.2v1.14h-.09Zm.49-2.67h.18v.18Zm-1-.11-.19.2v-.2Zm-.66-1h.09v.19h-.09Zm0 2 .18-.18h.29l.19.18v.11l-.19.18-.47-.09Zm.28 3h-.19v-.09h.19Zm.47 4.68-.18-.2h.18Zm.2-2.67v.09l-.48-.18V71l.37-.2c.2.06.29.25.29.58Zm.09-1h-.29V70l.09-.09v-.09l.4.27Zm.47-1h.4l.18.2h-.38Zm1.16 1-.58-.18c.13-.45.39-.67.76-.67h.11l.09.09h.09c-.31.38-.47.64-.47.8Zm.29-2.28h-.11l-.09-.1h-.09l.09-.47-.09-.09v-.11h.29l.56.2a.5.5 0 0 1-.56.61Zm.56 5.15v-.2h.11l.18.2Zm.29-5.81h.56v.18h-.1l-.48-.09Zm.48 2.47h-.19l.19-.2Zm-.39-1 .11-.09h.09l.19.18h.1l.09-.09.46.18v.29l-.55.09c-.02-.15-.17-.34-.49-.57Zm1.33 2.95c-.29-.12-.44-.25-.47-.38h.09c.26.09.38.19.38.29Zm0-.76h-.09v-.18h.29Zm.38-7.24H124v-.09h.27Zm1.05 9.82-.27-.09v-.2c.31.09.47.18.47.29Zm.11-.67-.11-.09v-.12h.29Zm.29-5.92-.2-.18h.2Zm.27-3.61h-.09v-.09l.38-.2v.09c0 .12-.1.19-.25.19Zm.58 5.52h-.09l-.2-.18h.29Zm.67.76-.19-.18h.1l.18.18Zm7.82 0 .2.2V70c-.39 0-.58-.13-.58-.29Zm-.47 1.34v.11l-.2.18h-.09a1.49 1.49 0 0 1-1.05-.58Zm-.38-2.39v.2l-.2-.2Zm-.49 1.54v.18l-.29-.09v-.09Zm-.29-.25h-.09l-1.72-.49v-.09h.09l.67.09.29-.18c.42.17.68.36.76.58Zm-.09-1-.2.2h-.67c0-.38-.28-.61-.85-.67v-.19c1.15.13 1.72.32 1.72.56Zm-1.05-3.54h.09l.29.29h-.2l-.18-.18Zm-1.33.2h.38l.48.09V66h-.29l-.38-.27-.28.09Zm.38 2.58h-.19l-.19-.19h.19ZM129 68l.58-.09c.31.08.47.18.47.29v.09H130l-1-.19Zm1.54 1.42v.2l-.49-.09v-.2Zm-1.42-.42H129q-1-.3-1-.57h.11c.7.22 1.05.39 1.05.48Zm.56 1.63h-.38v-.09h.38Zm.2 0 .09-.09h.2c.32 0 .51.09.56.27v.11h-.27c-.39-.06-.58-.16-.58-.3Zm.09 1.14v-.18h.09l.2.18Zm2.09.49-.47.09a2.29 2.29 0 0 1-1.13-.49v-.18l.09.09h.38l.38-.09.75.29Zm.87-1.34h-.09l-.11-.11v-.18h.11l.18.18Zm.47.67h-.09l-.2-.2.11-.09h.09l.2.18Zm2.1.67a3.91 3.91 0 0 1-1.32-.58v-.09h.18l.29.18.18-.18.49.18v-.09a.74.74 0 0 1 .57.47ZM64.81 85.25h.09v.18h-.09zM64.07 84.53h.11v.18h-.11zM61.91 88.25l.18.18.18-.18v-.09l-.09-.09-.27.18zM64.45 84.89h.09v.18h-.09zM65.9 86.35h.09v.18h-.09zM64.07 85.25h.11v.18h-.11zM65.27 85.07v-.18l-.19.18h.19zM65.54 85.97h.09v.2h-.09zM66.17 86.8h.18v.09h-.18zM61.63 89.44l.18.18.19-.18v-.09h-.27l-.1.09zM66.8 91.7v.09h.18l.11-.09v-.09l-.11-.09-.18.18zM65.18 85.61h.09v.18h-.09zM67.09 86.89v-.18l-.2.18h.2zM88.26 81.62h.27v-.09l-.09-.09-.18.18zM64.45 84.35h.09v-.06l-.09.01v.05z" class="cls-2"/><path d="M81.52 81.8v.09h-.18v-.17l-3.6.55v.07h-.62l-8.83 1.35v.17h-.09a1.29 1.29 0 0 1-.52-.08l-2.76.43a12.25 12.25 0 0 0 .83 1q-.27 0-.27.18h.27l.09-.09.18.18v.09l-.09.09v.09h.18l.09-.09v.09l.09.09V86l-.09.09h.09l.09.11h.09l.09-.11a12.15 12.15 0 0 0 8.63 3.47h.64a12.08 12.08 0 0 0 7.82-2.73v-.45l-.09-.09.09-.09q.18 0 .18.36H84a11.88 11.88 0 0 0 3.87-5.81l-6.34 1s-.01.01-.01.05Zm-14.63 3.09.2-.18h.27l.18.18Zm10.19.36h.18v.09h-.18Zm-7.55 2.28h-.18v-.09h.18Zm2.36.9h-.18v-.09h.18Zm3.54.27-.43-.09v-.09h.45Zm.19-.81c-.31 0-.49-.09-.55-.27l.18-.18a1.18 1.18 0 0 1 1 .45Zm.83-1.54h-.09l-.09-.09h-.93l-.45-.09V86l.36-.09a1.59 1.59 0 0 0 .93.29h.27Zm1.17 1.9-.9-.18V88h.45l.45.09Zm.45-5.55h-.27v-.09h.27Zm.09 6.36V89l.27-.27h.09Zm.92-3.27-.18-.18h.1l.18.18Zm1.09-1.17q-.42-.18-.45-.36.45 0 .45.27Zm.72 3.18h-.27l.36-.36Zm.27-.46q-.45-.06-.45-.27H81l.18.18Zm.18-.18h-.09V87h.09Zm2.73-5.81.18.18h-.09l-.16-.18ZM76.36 93.97h.18v.09h-.18zM77.26 93.7l-.09.09v.09l.09.09h.09l.09-.09v-.09l-.09-.09h-.09zM76.9 91.97l-.09.11v.09l.09.09h.09l.09-.09v-.09l-.09-.11h-.09zM82.89 89.06v-.09l-.09-.09h-.09l-.09.09v.09l.09.11h.09l.09-.11zM77.35 92.08v.09h.27v-.29h-.09l-.18.2zM70.09 99.07l-.11.09v.09l.11.09h.09l.09-.09v-.09l-.09-.09h-.09zM72.44 96.25v.09l.09.09.18-.18v-.09h-.18l-.09.09zM81.43 91.25l.09.09.18-.18v-.19h-.18l-.09.28zM81.34 98.71l-.09.09v.09l.09.09h.09l.09-.09v-.09l-.09-.09h-.09zM82.62 97.33v.09h.27c.09-.42.18-.63.28-.63v-.09l-.09-.09c-.08 0-.25.24-.46.72ZM70.27 90.61h.09v.18h-.09zM111.85 77.21l-.29-.09-1.24.19v.11l-.1-.09L106 78h-.11l-8.94 1.37v.06h-.2l-3 .46.14.15h-.19l-.28-.1-1.73.26V85a1.12 1.12 0 0 1 .4.76v.09c-.27 0-.4.07-.4.2l.11.09h.09l.09-.09.29.38-.09.29H92l-.4-.29v3.05l.2.18.47-.09.58.09v-.06l.09.09h5l.58-.09.47.09h.2q6 0 8.76-2.38l-.09-.09v-.09a1.9 1.9 0 0 0 1.43-.87v-.18h-.18v-.2h.47a7.76 7.76 0 0 0 1.71-2.38 2.1 2.1 0 0 0-1.24-.29v-.09h.19V83l-.19-.29v-.2h.19l.2-.27.27.09.11-.09v-.11l.85.38a1.7 1.7 0 0 0 .38-.85l-.47-.47h.2l.27.18q.38 0 .78-3.81l-.11-.09v-.11l.13-.49-1 .15Zm-17 10.88h.2v.18h-.2ZM94 82.27c.34 0 .53.09.58.27h-.09c-.38 0-.58-.13-.58-.27Zm.11 5.62V88h-.2v-.09Zm-.48-5.15h.28v.09h-.28Zm1 6.68-.76-.2c0-.09.29-.22.87-.38v-.19h.09c.13 0 .23.22.29.66Zm1.25-.77h-.18v-.09h.18Zm.67-.28h-.05v-.19h.09Zm.29-4.58H97l.58.09v.2h-.1c-.41-.08-.6-.14-.6-.29Zm.67 1.71v.09h-.29v-.09Zm-.29 2.21h-.2v-.11h.2Zm0-.49h.19v.09h-.19Zm.38 2.2.09-.11v-.09l-.09-.09h.19l.09.29Zm.4-1.71h-.09l-.47-.11v-.09h.76Zm12.59-3.63h.2v.09h-.2Zm-3-4.2.2-.19h.38l.2.19-.29.28-.49-.18Zm-.76.19-.18.19-.58-.1c.07-.18.26-.28.58-.28Zm-1.42-1.23h.66l.29.27v.2h-.09c-.49 0-.78-.13-.86-.38Zm-5 2.47.78.29.47-.11.37.11.11-.11v-.09l-.29-.09v-.09h.29a1.75 1.75 0 0 1 1.52.65v.4l-.47.09a3.78 3.78 0 0 1-1.44-.49c-1-.19-1.43-.38-1.43-.56Zm2.87 6.49h.18v.09h-.18Zm-.29-2.21h.01c-.13 0-.26-.18-.38-.47h.09Zm-1-1.6v.18h.01l-.19-.18Zm-3-.2v-.09h.2v.09Zm1 1.8h.01c-.47 0-.72-.09-.76-.27h.76l.2.18Zm.38 1.16-.18-.2h.18Zm.2-4h-.2v-.2h.2Zm2.18 6.48-1.22-.09V89l1.13-.09.09.09Zm.11-.09v-.2l.18.2Zm.67-.38h-.38v-.1h.38Zm.18-5.92h-.09l-.29-.09.09-.09v-.11l.29.11Zm1.29 3.8h-.11l-.47-.09-.09.09v-.27h.67Zm.47-.85h-.2v-.09h.2Zm-.29-3.92v-.09h.2v.09Zm.67-.47c-.57-.15-.85-.28-.85-.38h.47c.32 0 .51.1.57.29l-.1.09Zm.38 5.44-.19-.2h.19l.19.2Zm.28-4.19h-.18l-.2-.2v-.09h.38Zm.29-1h-.29v-.05h.29Zm.29.09h-.2v-.09h.2Zm.47 3h-.09v-.19h.09Zm.29-3.14c-.57-.1-.85-.32-.85-.67h-.58v-.11l.18-.27a4.11 4.11 0 0 0 1.54.47l.18.38c-.32 0-.48.07-.48.2Zm.58 3.14-.2-.19h.2Zm.09-4.19h.2l.38.18v.09h-.49l-.18-.18Zm.67 2.57v.09H109v-.09Zm-.67.38h.2c.31 0 .5.12.56.38h-.18c-.34 0-.53-.13-.59-.38Zm.58.86.29.09v.1h-.29Zm.47.47h-.18v-.09h.18Zm-.18-3-.2-.18h.2l.18.18Zm.38-.76-.29-.29q.18 0 .18-.27h.2l.09.56Zm-.2-1.6v-.07l.29.11v.18h-.09Zm.38-.58-.09.09v.09l-.58-.09v-.18l.58-.11.09.11Zm2.2 1.8h-.2l-.76-.38v-.09h.29a.66.66 0 0 1 .67.38Zm-.49-1.13a.71.71 0 0 1-.56-.76h.09l.38.09v-.09l.76.27ZM137.99 74.25h.09v.2h-.09zM137.7 76.63l-.2-.57.11-.28-.11-.57.11-.47c-.13 0-.23-.36-.29-1.07h-.11l.11-.09v-.09l-.08-.33-20.82 3.19v2.58l-.09.38.09.38V85a1.12 1.12 0 0 1 .4.76v.09c-.27 0-.4.07-.4.2l.11.09h.09l.09-.09.29.38-.09.29h-.09l-.4-.29v3.05l.2.18.47-.09.58.09v-.06l.09.09h5l.57-.09.47.09h.2q6.06 0 8.76-2.38l-.09-.09v-.09a1.88 1.88 0 0 0 1.43-.87v-.18h-.18v-.2h.47a7.6 7.6 0 0 0 1.71-2.38 2.1 2.1 0 0 0-1.24-.29v-.09h.2V83l-.2-.29v-.2h.2l.2-.27.27.09.1-.09v-.11l.85.38a1.61 1.61 0 0 0 .38-.85l-.47-.47h.2l.27.18c.26 0 .51-1.27.78-3.81l-.11-.09v-.11Zm-20.88 2.77h-.2v-.09h.2Zm.27-1.14h-.38v-.09h.38Zm2.58 9.83h.2v.18h-.2Zm-.86-5.82c.33 0 .53.09.57.27h-.09q-.57-.06-.57-.27Zm.1 5.62V88h-.19v-.09Zm-.75-8.11h.27l.2.2h-.2l-.27-.1Zm.27 3h.29v.09h-.29Zm1 6.68-.75-.2c0-.09.29-.22.86-.38v-.19h.09c.14 0 .23.22.29.66Zm1.25-.77h-.18v-.09h.18Zm.67-.28h-.09v-.19h.09Zm.09-9.06h.2v.09h-.2Zm.2 4.48h.09l.58.09v.2h-.09c-.35-.12-.54-.18-.54-.33Zm.67 1.71v.09h-.29v-.13Zm-.29 2.21h-.2v-.15h.2Zm0-.49h.2v.09h-.2Zm.38 2.2.09-.11v-.09l-.09-.09h.2l.09.29Zm.38-1.71h-.09l-.47-.11v-.09h.78Zm12.59-3.63h.19v.09h-.19Zm-1-9.34.2.18h-.11l-.18-.18Zm-.85 1.8a.66.66 0 0 1 .67.38V77l-.67-.18Zm-1.07 3.34.2-.19h.35l.2.19-.29.28-.49-.18Zm-.65-4.1.27.1v.18c-.25-.09-.38-.18-.38-.28Zm-.11 4.29-.18.19-.57-.1c.06-.18.25-.28.57-.28Zm-.46-.76h-.1c-.49 0-.78-.13-.86-.38v-.09h.67l.29.27ZM129.3 77c1.14.12 1.72.35 1.72.67l-.29.29h-.27c-.35 0-.74-.28-1.16-.85Zm-1-2 .2.2h-.09l-.2-.2Zm-1.8 2.76h.2v.11h-.2Zm-1.25 3.54.78.29.47-.11.38.11.1-.11v-.08l-.28-.09v-.09h.3a1.75 1.75 0 0 1 1.52.65v.4l-.47.09a3.78 3.78 0 0 1-1.44-.49c-.95-.19-1.43-.38-1.43-.56Zm2.87 6.49h.18v.09h-.18Zm-.29-2.21h-.09c-.13 0-.26-.18-.38-.47h.09Zm-1-1.6v.18h-.09l-.2-.18Zm-3.06-.2v-.08h.2v.09Zm1 1.8h-.09c-.47 0-.72-.09-.76-.27h.76l.2.18Zm.38 1.16-.18-.2h.18Zm.2-4h-.2v-.2h.2Zm2.19 6.48-1.23-.09V89l1.13-.09.1.09Zm.1-.09v-.2l.18.2Zm.67-.38h-.38v-.1h.38Zm.18-5.92h-.09l-.29-.09.09-.09v-.11l.29.11Zm1.16 3.81h-.11l-.47-.09-.09.09v-.27h.67Zm.47-.85h-.2v-.09h.2Zm-.12-3.92v-.09h.2v.09Zm.67-.47c-.57-.15-.85-.28-.85-.38h.47c.32 0 .52.1.58.29l-.11.09Zm.38 5.44-.18-.2h.13l.2.2Zm.29-4.19h-.19l-.19-.2v-.09h.38Zm.28-1h-.28v-.05h.28Zm.29.09h-.2v-.09h.2Zm.47 3h-.09v-.19h.09Zm.29-3.14c-.56-.1-.85-.32-.85-.67h-.57v-.11l.18-.27a4 4 0 0 0 1.53.47l.18.38c-.34 0-.5.07-.5.2Zm.58 3.14-.2-.19h.2Zm.09-4.19h.2l.38.18v.09h-.49l-.18-.18Zm.67 2.57v.09h-.2v-.09Zm-.67.38h.2c.31 0 .5.12.56.38h-.18c-.36 0-.55-.13-.61-.38Zm.58.86.29.09v.1h-.29Zm.47.47h-.18v-.09h.18Zm-.18-3-.2-.18h.2l.18.18Zm.38-.76-.29-.29q.18 0 .18-.27h.2l.09.56Zm-.2-1.6v-.07l.29.11v.18h-.09Zm.38-.58-.09.09v.09l-.58-.09v-.18l.58-.11.09.11Zm.38-1.54-.18-.18h.18Zm1.24-.47.29.09v.2l-.29-.09Zm.58 3.81h-.2l-.76-.38v-.09h.29a.66.66 0 0 1 .67.38Zm-.49-1.13a.71.71 0 0 1-.56-.76h.08l.38.09v-.09l.76.27ZM137.5 73.87h.2v.09h-.2zM59.47 98.93h-2.08v-1.41h1.87a.18.18 0 0 0 .18-.18V97a.18.18 0 0 0-.18-.18h-1.87v-1.29h2a.18.18 0 0 0 .18-.17V95a.18.18 0 0 0-.18-.17h-2.57a.18.18 0 0 0-.18.17v4.44a.18.18 0 0 0 .18.17h2.65a.17.17 0 0 0 .17-.17v-.34a.17.17 0 0 0-.17-.17ZM62.36 97.19l1.49-2.08a.17.17 0 0 0 0-.18.16.16 0 0 0-.15-.09h-.45a.19.19 0 0 0-.14.07l-1.06 1.53-.15.21-1.14-1.73a.18.18 0 0 0-.15-.08h-.5a.17.17 0 0 0-.16.09.17.17 0 0 0 0 .18l1.45 2.08-1.57 2.16a.17.17 0 0 0 0 .18.16.16 0 0 0 .15.09h.47a.17.17 0 0 0 .14-.07l1.27-1.82 1.21 1.81a.18.18 0 0 0 .15.08h.49a.17.17 0 0 0 .16-.09.19.19 0 0 0 0-.18ZM67.33 95.39a1.25 1.25 0 0 0-.36-.28 1.91 1.91 0 0 0-.44-.16 3.56 3.56 0 0 0-.49-.09h-1.52a.18.18 0 0 0-.17.17v4.44a.18.18 0 0 0 .17.17h.39a.17.17 0 0 0 .17-.17V97.8h.57a3.41 3.41 0 0 0 .73-.07 2 2 0 0 0 .64-.26 1.41 1.41 0 0 0 .45-.46 1.34 1.34 0 0 0 .17-.68 1.67 1.67 0 0 0-.08-.52 1.09 1.09 0 0 0-.23-.42Zm-1.52 1.7h-.71v-1.56h.56a4.26 4.26 0 0 1 .54 0 1.27 1.27 0 0 1 .39.13.63.63 0 0 1 .23.23.87.87 0 0 1 .08.39.68.68 0 0 1-.08.34.66.66 0 0 1-.2.24 1.16 1.16 0 0 1-.34.14 2.26 2.26 0 0 1-.47.09Z" class="cls-2"/><path d="M71 98.93h-2V95a.18.18 0 0 0-.17-.17h-.4a.18.18 0 0 0-.18.17v4.44a.18.18 0 0 0 .18.17H71a.18.18 0 0 0 .17-.17v-.34a.18.18 0 0 0-.17-.17ZM75.2 95.44a2 2 0 0 0-.73-.51 2.7 2.7 0 0 0-1.94 0 2.14 2.14 0 0 0-.75.52 2.22 2.22 0 0 0-.46.79 3.14 3.14 0 0 0 0 2 2.14 2.14 0 0 0 .46.79 2.21 2.21 0 0 0 .73.5 2.7 2.7 0 0 0 1 .17 2.55 2.55 0 0 0 1-.18 2.07 2.07 0 0 0 .69-.52 2.36 2.36 0 0 0 .47-.78 3.12 3.12 0 0 0 .15-1 3.18 3.18 0 0 0-.15-1 2.26 2.26 0 0 0-.47-.78Zm-1 .14a1.35 1.35 0 0 1 .48.37 1.8 1.8 0 0 1 .29.55 2.71 2.71 0 0 1 .1.71 2.43 2.43 0 0 1-.11.73 1.57 1.57 0 0 1-.29.56 1.15 1.15 0 0 1-.48.36 1.75 1.75 0 0 1-1.35 0 1.36 1.36 0 0 1-.78-.92 2.23 2.23 0 0 1-.11-.7 2.26 2.26 0 0 1 .11-.69 1.42 1.42 0 0 1 .3-.57 1.53 1.53 0 0 1 .48-.39 1.78 1.78 0 0 1 1.36 0ZM79.8 98.75l-.25-.65a3.1 3.1 0 0 0-.22-.48 1.16 1.16 0 0 0-.28-.33 1.36 1.36 0 0 0 .39-.27 1.25 1.25 0 0 0 .25-.38 1.19 1.19 0 0 0 .09-.47 1.31 1.31 0 0 0-.11-.55 1.1 1.1 0 0 0-.29-.38A1.5 1.5 0 0 0 79 95a3.13 3.13 0 0 0-.44-.1 3.44 3.44 0 0 0-.45 0h-1.43a.18.18 0 0 0-.17.17v4.44a.18.18 0 0 0 .17.17h.4a.17.17 0 0 0 .17-.17v-1.92H78a1.58 1.58 0 0 1 .34 0 .53.53 0 0 1 .2.09.54.54 0 0 1 .15.18 1.92 1.92 0 0 1 .16.35l.46 1.27a.17.17 0 0 0 .16.11h.43a.19.19 0 0 0 .14-.07.18.18 0 0 0 0-.16Zm-.75-2.55a.62.62 0 0 1-.08.33.67.67 0 0 1-.23.21 1.13 1.13 0 0 1-.34.11 2 2 0 0 1-.41 0h-.72v-1.32H78a2.25 2.25 0 0 1 .46 0 .81.81 0 0 1 .32.11.44.44 0 0 1 .19.19.62.62 0 0 1 .08.37Z" class="cls-2"/><rect width=".76" height="4.78" x="80.73" y="94.84" class="cls-2" rx=".17"/><path d="M86.26 94.84h-.37a.18.18 0 0 0-.18.17v3.51l-2.39-3.6a.17.17 0 0 0-.14-.08h-.54a.18.18 0 0 0-.18.17v4.44a.18.18 0 0 0 .18.17H83a.18.18 0 0 0 .17-.17V96l2.36 3.53a.17.17 0 0 0 .14.07h.55a.17.17 0 0 0 .17-.17V95a.17.17 0 0 0-.13-.16ZM91 97h-1.54a.16.16 0 0 0-.17.17v.35a.17.17 0 0 0 .17.17h1v1.14a2.37 2.37 0 0 1-.36.09 2.52 2.52 0 0 1-1.29-.08 1.31 1.31 0 0 1-.51-.34 1.44 1.44 0 0 1-.3-.5 2.25 2.25 0 0 1-.11-.71 2.33 2.33 0 0 1 .11-.7 1.88 1.88 0 0 1 .3-.58 1.53 1.53 0 0 1 .5-.4 1.83 1.83 0 0 1 1.07-.12 1.59 1.59 0 0 1 .33.09 1.28 1.28 0 0 1 .25.15.55.55 0 0 1 .15.19.19.19 0 0 0 .14.09.17.17 0 0 0 .15-.07l.17-.21a.17.17 0 0 0 0-.17.81.81 0 0 0-.25-.36 1.27 1.27 0 0 0-.37-.25 2 2 0 0 0-.44-.15 2.64 2.64 0 0 0-1.51.16 2.31 2.31 0 0 0-.75.56 2.36 2.36 0 0 0-.46.82 2.84 2.84 0 0 0-.16 1 2.93 2.93 0 0 0 .15 1 2 2 0 0 0 1.21 1.24 2.73 2.73 0 0 0 1 .17 4.43 4.43 0 0 0 .81-.07 2.92 2.92 0 0 0 .76-.24.18.18 0 0 0 .1-.16v-2a.11.11 0 0 0-.05-.12.13.13 0 0 0-.1-.16ZM97.3 98.72a.2.2 0 0 0-.12-.1.22.22 0 0 0-.16 0 1.1 1.1 0 0 1-.48.25 2.16 2.16 0 0 1-1.38 0 1.31 1.31 0 0 1-.47-.37 1.52 1.52 0 0 1-.27-.54 2.41 2.41 0 0 1-.1-.67 2.6 2.6 0 0 1 .1-.68 1.93 1.93 0 0 1 .3-.59 1.53 1.53 0 0 1 .5-.4 1.39 1.39 0 0 1 .7-.16 1.57 1.57 0 0 1 1 .28.17.17 0 0 0 .14 0 .18.18 0 0 0 .11-.08l.15-.22a.18.18 0 0 0 0-.23 1.83 1.83 0 0 0-.63-.36 2.31 2.31 0 0 0-.77-.11 2.34 2.34 0 0 0-1 .2 2.26 2.26 0 0 0-.73.56 2.4 2.4 0 0 0-.46.81 3 3 0 0 0-.16 1 2.82 2.82 0 0 0 .15.92 2.14 2.14 0 0 0 .42.77 2 2 0 0 0 .69.52 2.21 2.21 0 0 0 1 .19 3.66 3.66 0 0 0 .91-.11 1.86 1.86 0 0 0 .7-.36.16.16 0 0 0 .06-.2ZM101.8 95.44a2.09 2.09 0 0 0-.73-.51 2.73 2.73 0 0 0-1.95 0 2.2 2.2 0 0 0-.74.52 2.24 2.24 0 0 0-.47.79 3.14 3.14 0 0 0 0 2 2.29 2.29 0 0 0 .46.79 2.25 2.25 0 0 0 .74.5 2.65 2.65 0 0 0 1 .17 2.55 2.55 0 0 0 1-.18 2.1 2.1 0 0 0 .75-.52 2.18 2.18 0 0 0 .46-.78 2.86 2.86 0 0 0 .16-1 2.91 2.91 0 0 0-.16-1 2.1 2.1 0 0 0-.52-.78Zm-.56.51a1.45 1.45 0 0 1 .29.55 2.34 2.34 0 0 1 .1.71 2.43 2.43 0 0 1-.1.73 1.75 1.75 0 0 1-.29.56 1.32 1.32 0 0 1-.48.36 1.78 1.78 0 0 1-1.36 0 1.44 1.44 0 0 1-.48-.36 1.67 1.67 0 0 1-.3-.56 2.24 2.24 0 0 1-.1-.7 2.26 2.26 0 0 1 .1-.69 1.72 1.72 0 0 1 .3-.57 1.46 1.46 0 0 1 .49-.39 1.57 1.57 0 0 1 .67-.14 1.67 1.67 0 0 1 .69.13 1.23 1.23 0 0 1 .47.42ZM106.86 94.84h-.37a.18.18 0 0 0-.18.17v3.51l-2.39-3.6a.18.18 0 0 0-.15-.08h-.54a.18.18 0 0 0-.17.17v4.44a.18.18 0 0 0 .17.17h.4a.18.18 0 0 0 .18-.17V96l2.36 3.53a.17.17 0 0 0 .14.07h.55a.18.18 0 0 0 .17-.17V95a.18.18 0 0 0-.17-.16ZM111.1 95.36V95a.18.18 0 0 0-.18-.17h-3.31a.18.18 0 0 0-.18.17v.35a.18.18 0 0 0 .18.17h1.28v3.92a.18.18 0 0 0 .17.17h.41a.18.18 0 0 0 .18-.17v-3.91h1.27a.18.18 0 0 0 .18-.17ZM113.15 94.94a.18.18 0 0 0-.16-.1h-.46a.17.17 0 0 0-.16.1l-1.86 4.44a.15.15 0 0 0 0 .16.16.16 0 0 0 .14.08h.42a.18.18 0 0 0 .17-.11l.47-1.19h2l.51 1.2a.17.17 0 0 0 .16.1h.42a.18.18 0 0 0 .17-.24ZM112 97.69l.7-1.74.08-.21.73 2ZM119.1 95.44a2 2 0 0 0-.74-.51 2.7 2.7 0 0 0-1.94 0 2.34 2.34 0 0 0-.75.52 2.22 2.22 0 0 0-.46.79 3.14 3.14 0 0 0 0 2 2 2 0 0 0 1.2 1.29 2.65 2.65 0 0 0 1 .17 2.55 2.55 0 0 0 1-.18 2.07 2.07 0 0 0 .74-.52 2.2 2.2 0 0 0 .47-.78 3.11 3.11 0 0 0 .16-1 3.18 3.18 0 0 0-.16-1 2.24 2.24 0 0 0-.52-.78Zm-.56.51a1.6 1.6 0 0 1 .29.55 2.71 2.71 0 0 1 .1.71 2.8 2.8 0 0 1-.1.73 1.77 1.77 0 0 1-.3.56 1.17 1.17 0 0 1-.48.36 1.75 1.75 0 0 1-1.35 0 1.44 1.44 0 0 1-.48-.36 1.67 1.67 0 0 1-.3-.56 2.24 2.24 0 0 1-.1-.7 2.26 2.26 0 0 1 .1-.69 1.72 1.72 0 0 1 .3-.57 1.53 1.53 0 0 1 .48-.39 1.62 1.62 0 0 1 .68-.14 1.59 1.59 0 0 1 .68.13 1.35 1.35 0 0 1 .48.42ZM125.19 94.84h-3.32a.18.18 0 0 0-.17.17v.35a.18.18 0 0 0 .17.17h1.28v3.92a.18.18 0 0 0 .18.17h.41a.18.18 0 0 0 .17-.17v-3.92h1.28a.18.18 0 0 0 .17-.17V95a.18.18 0 0 0-.17-.16ZM129.41 94.84H129a.18.18 0 0 0-.18.17v1.81h-2.3V95a.17.17 0 0 0-.17-.17H126a.17.17 0 0 0-.17.17v4.44a.17.17 0 0 0 .17.17h.4a.18.18 0 0 0 .17-.17v-1.93h2.3v1.94a.18.18 0 0 0 .17.17h.41a.18.18 0 0 0 .18-.17V95a.18.18 0 0 0-.22-.16ZM133.37 98.93h-2.08v-1.41h1.87a.17.17 0 0 0 .17-.18V97a.17.17 0 0 0-.17-.18h-1.87v-1.29h2a.18.18 0 0 0 .18-.17V95a.18.18 0 0 0-.18-.17h-2.56a.18.18 0 0 0-.18.17v4.44a.18.18 0 0 0 .18.17h2.65a.18.18 0 0 0 .17-.17v-.34a.18.18 0 0 0-.18-.17ZM139.25 94.84h-.61a.18.18 0 0 0-.16.1L137 98.17l-.18.42-1.63-3.66a.18.18 0 0 0-.16-.1h-.63a.18.18 0 0 0-.18.17v4.44a.18.18 0 0 0 .18.17h.39a.18.18 0 0 0 .18-.17v-3.35l1.54 3.43a.18.18 0 0 0 .16.1h.33a.18.18 0 0 0 .16-.1l1.55-3.4v3.33a.18.18 0 0 0 .18.17h.4a.17.17 0 0 0 .17-.17V95a.17.17 0 0 0-.21-.16ZM143.18 98.93h-2.08v-1.41h1.9a.18.18 0 0 0 .18-.18V97a.18.18 0 0 0-.18-.18h-1.86v-1.29h2a.18.18 0 0 0 .17-.17V95a.18.18 0 0 0-.17-.17h-2.57a.17.17 0 0 0-.17.17v4.44a.17.17 0 0 0 .17.17h2.65a.18.18 0 0 0 .18-.17v-.34a.18.18 0 0 0-.22-.17Z" class="cls-2"/></g></g></svg>