<svg xmlns="http://www.w3.org/2000/svg" width="192" height="192" viewBox="0 0 192 192"><path fill="#00a0e4" d="M116.698 173.952l18.393-18.392-18.393-18.393-18.392 18.393z"/><path fill="#444443" d="M54.832 75.3l10.87-10.87 8.637-8.637a33.945 33.945 0 0 1 5.644-4.529c2.088-1.348 4.296-2.252 6.619-2.716 2.32-.466 4.665-.395 7.037.209 2.367.602 4.62 1.972 6.756 4.11 2.322 2.322 3.622 4.784 3.903 7.385.275 2.602-.096 5.156-1.115 7.664-1.024 2.508-2.416 4.926-4.18 7.245-1.766 2.323-3.532 4.368-5.295 6.131l-5.572 5.572 17 17 5.571-5.573c1.763-1.763 3.808-3.529 6.131-5.295 2.319-1.764 4.738-3.157 7.245-4.18 2.508-1.019 5.063-1.39 7.664-1.115 2.601.281 5.063 1.581 7.385 3.903 2.138 2.138 3.507 4.39 4.11 6.755.604 2.373.675 4.718.209 7.038-.463 2.322-1.368 4.531-2.716 6.619a33.945 33.945 0 0 1-4.53 5.643l-8.637 8.638 18.393 18.392 7.801-7.8a90.097 90.097 0 0 0 11.775-14.562c3.484-5.339 5.92-10.842 7.315-16.512a37.19 37.19 0 0 0 .21-17.068c-1.256-5.713-4.482-11.17-9.685-16.374-3.158-3.156-6.643-5.617-10.45-7.384-3.81-1.763-7.712-2.738-11.705-2.926-3.995-.185-7.987.371-11.984 1.671a35.691 35.691 0 0 0-1.5.528c.188-.499.363-.999.526-1.501 1.3-3.995 1.857-7.989 1.672-11.984-.188-3.991-1.163-7.895-2.925-11.705-1.767-3.808-4.229-7.293-7.385-10.45-5.204-5.203-10.662-8.429-16.374-9.685a37.19 37.19 0 0 0-17.067.21c-5.67 1.395-11.174 3.831-16.513 7.315a90.097 90.097 0 0 0-14.561 11.775L18.048 75.301l57.825 57.825 18.392-18.393z"/></svg>
