<?xml version="1.0" encoding="UTF-8"?>
<svg id="Ebene_1" data-name="Ebene 1" xmlns="http://www.w3.org/2000/svg" viewBox="0 0 64.64 64.64">
  <defs>
    <style>
      .cls-1 {
        fill: none;
      }

      .cls-2 {
        fill-rule: evenodd;
      }

      .cls-2, .cls-3 {
        fill: #fff;
      }

      .cls-4 {
        fill: #df4113;
      }
    </style>
  </defs>
  <rect class="cls-1" x=".01" width="64.63" height="64.63" rx="8.5" ry="8.5"/>
  <rect class="cls-4" y=".01" width="64.63" height="64.63" rx="8.5" ry="8.5"/>
  <path class="cls-3" d="M19.52,38.31c.87.09,1.76.24,2.66.45l.83-5.1c-2.4-.58-4.8-.61-7.19-.1-2.19.47-4,1.34-5.42,2.62-1.42,1.28-2.38,2.88-2.87,4.8s-.5,4.03,0,6.32c.78,3.67,2.26,6.28,4.46,7.84,2.19,1.56,4.96,1.98,8.3,1.27,2.33-.5,4.34-1.35,6.01-2.56l-1.08-5.06c-.85.58-1.7,1.11-2.56,1.57-.86.47-1.78.81-2.76,1.01-3.24.69-5.31-1.1-6.22-5.36-.44-2.05-.38-3.74.17-5.08s1.54-2.16,2.96-2.46c.94-.2,1.84-.26,2.72-.17"/>
  <g>
    <path class="cls-2" d="M49.35,29.8l.3-.39c1.09-1.49,1.84-3.2,2.21-5.02.17-.82-.36-1.62-1.19-1.79s-1.62.36-1.79,1.19c-1.09,5.34-6.3,8.78-11.64,7.69-5.34-1.09-8.79-6.3-7.7-11.64,1.09-5.34,6.3-8.79,11.64-7.7.82.17,1.62-.36,1.79-1.19s-.36-1.62-1.19-1.79c-.83-.17-1.7-.26-2.58-.26-2.9,0-5.71.98-7.99,2.77-5.6,4.41-6.56,12.53-2.15,18.13,4.41,5.6,12.53,6.56,18.13,2.15l5.55,5.55.14.13c.61.47,1.47.42,2.01-.13.59-.6.59-1.56-.01-2.15l-5.55-5.55Z"/>
    <path class="cls-2" d="M57.16,12.02l-.57-.2-.28-.11c-1.2-.5-2.14-1.5-2.56-2.73l-.2-.57-.07-.18c-.26-.52-.78-.85-1.36-.85-.65,0-1.23.41-1.44,1.03l-.2.57-.11.28c-.5,1.2-1.5,2.14-2.73,2.56l-.57.2-.18.07c-.36.18-.64.49-.77.87-.27.79.15,1.66.95,1.93l.57.2.28.11c1.2.5,2.14,1.5,2.56,2.73l.2.57.07.18c.18.36.49.64.87.77.79.27,1.66-.15,1.93-.95l.2-.57.11-.28c.5-1.2,1.5-2.14,2.73-2.56l.57-.2.18-.07c.36-.18.64-.49.77-.87.27-.79-.15-1.66-.95-1.93ZM52.11,14.68c-.36-.45-.77-.86-1.22-1.22.45-.36.86-.77,1.22-1.22.36.45.77.86,1.22,1.22-.45.36-.86.77-1.22,1.22Z"/>
  </g>
</svg>