<svg viewBox="0 0 153.822 153.822" xmlns="http://www.w3.org/2000/svg" xmlns:xlink="http://www.w3.org/1999/xlink"><linearGradient id="a" gradientUnits="userSpaceOnUse" x1="76.911" x2="76.911" y1="15.042" y2="127.647"><stop offset="0" stop-color="#66c5e8"/><stop offset="1" stop-color="#4e4795"/></linearGradient><rect fill="#31285b" height="153.822" rx="9.358" width="153.822"/><circle cx="76.911" cy="66.262" fill="url(#a)" r="53.389"/><g fill="#fff"><path d="m42.12 134.419c.349-.644.833-1.142 1.452-1.496.618-.354 1.327-.531 2.125-.531 1.027 0 1.878.257 2.551.771s1.125 1.234 1.354 2.162h-2.259c-.12-.358-.322-.641-.606-.845-.284-.205-.636-.308-1.055-.308-.599 0-1.073.218-1.422.651s-.523 1.05-.523 1.848c0 .789.174 1.399.523 1.834.349.434.823.65 1.422.65.848 0 1.401-.379 1.661-1.137h2.259c-.229.897-.683 1.61-1.362 2.14-.678.528-1.526.793-2.543.793-.798 0-1.507-.177-2.125-.531-.619-.354-1.103-.854-1.452-1.496-.349-.644-.524-1.395-.524-2.253s.175-1.608.524-2.252z"/><path d="m52.67 140.42c-.639-.354-1.14-.855-1.504-1.504-.364-.648-.546-1.396-.546-2.245s.187-1.596.561-2.244.885-1.149 1.534-1.504c.648-.354 1.371-.531 2.169-.531s1.521.177 2.17.531 1.16.855 1.534 1.504c.375.648.562 1.396.562 2.244s-.192 1.597-.576 2.245-.903 1.149-1.557 1.504-1.384.531-2.192.531c-.798 0-1.517-.177-2.155-.531zm3.224-1.572c.334-.185.601-.461.801-.83.199-.369.299-.818.299-1.348 0-.787-.207-1.394-.621-1.817-.414-.424-.92-.637-1.519-.637s-1.1.213-1.504.637-.606 1.03-.606 1.817.197 1.395.591 1.818c.394.425.891.636 1.489.636.379 0 .735-.092 1.07-.276z"/><path d="m67.678 133.341c.608.624.913 1.494.913 2.611v4.863h-2.095v-4.579c0-.658-.165-1.165-.494-1.519s-.778-.531-1.347-.531c-.579 0-1.035.177-1.369.531s-.501.86-.501 1.519v4.579h-2.095v-8.29h2.095v1.032c.279-.359.636-.641 1.07-.846.434-.204.911-.307 1.429-.307.988 0 1.786.312 2.395.936z"/><path d="m73.02 134.247v4.011c0 .279.067.481.202.605.135.125.361.188.681.188h.973v1.766h-1.317c-1.766 0-2.648-.857-2.648-2.574v-3.995h-.988v-1.721h.988v-2.05h2.11v2.05h1.855v1.721h-1.855z"/><path d="m76.35 134.412c.334-.648.788-1.147 1.362-1.497.573-.349 1.214-.523 1.923-.523.618 0 1.159.125 1.624.374.463.249.836.563 1.115.942v-1.182h2.109v8.29h-2.109v-1.212c-.27.389-.643.711-1.115.965-.475.255-1.021.382-1.639.382-.698 0-1.334-.18-1.908-.539-.574-.358-1.028-.865-1.362-1.519-.334-.653-.501-1.404-.501-2.252 0-.838.167-1.581.501-2.229zm5.723.95c-.199-.364-.469-.644-.807-.838-.34-.195-.703-.292-1.094-.292s-.748.095-1.077.284c-.33.189-.596.467-.801.83-.205.364-.307.796-.307 1.295s.102.935.307 1.31c.205.374.474.66.808.86.334.199.691.299 1.069.299.391 0 .754-.097 1.094-.292.338-.194.607-.474.807-.838s.301-.801.301-1.31-.102-.944-.301-1.309z"/><path d="m88.059 140.42c-.639-.354-1.14-.855-1.504-1.504s-.546-1.396-.546-2.245.188-1.596.562-2.244.885-1.149 1.533-1.504 1.372-.531 2.17-.531 1.521.177 2.17.531 1.16.855 1.534 1.504.561 1.396.561 2.244-.191 1.597-.576 2.245c-.384.648-.902 1.149-1.556 1.504s-1.385.531-2.192.531c-.799 0-1.517-.177-2.155-.531zm3.225-1.572c.335-.185.602-.461.801-.83.2-.369.3-.818.3-1.348 0-.787-.207-1.394-.621-1.817s-.921-.637-1.519-.637-1.101.213-1.504.637c-.404.424-.606 1.03-.606 1.817s.197 1.395.591 1.818c.395.425.891.636 1.489.636.379 0 .735-.092 1.069-.276z"/><path d="m96.073 140.569c-.245-.234-.367-.526-.367-.875s.122-.642.367-.876c.244-.234.556-.352.935-.352.369 0 .674.117.913.352s.359.526.359.876-.12.641-.359.875-.544.352-.913.352c-.379 0-.69-.117-.935-.352z"/><path d="m100.113 131.186c-.245-.233-.367-.525-.367-.875s.122-.641.367-.875c.244-.234.551-.353.92-.353s.676.118.921.353c.244.234.366.526.366.875s-.122.642-.366.875c-.245.235-.552.353-.921.353s-.676-.117-.92-.353zm1.953 1.34v8.29h-2.096v-8.29z"/><path d="m104.093 134.412c.334-.648.791-1.147 1.369-1.497.578-.349 1.222-.523 1.931-.523.538 0 1.052.117 1.541.352s.878.546 1.167.936v-3.936h2.125v11.073h-2.125v-1.228c-.259.409-.623.739-1.092.988-.47.249-1.013.374-1.632.374-.698 0-1.337-.18-1.915-.539-.578-.358-1.035-.865-1.369-1.519s-.501-1.404-.501-2.252c0-.838.167-1.581.501-2.229zm5.724.95c-.199-.364-.469-.644-.808-.838-.34-.195-.703-.292-1.093-.292s-.748.095-1.077.284-.597.467-.801.83c-.204.364-.307.796-.307 1.295s.103.935.307 1.31c.204.374.474.66.809.86.334.199.69.299 1.069.299.39 0 .753-.097 1.093-.292.339-.194.608-.474.808-.838s.3-.801.3-1.31-.101-.944-.3-1.309z"/></g><path d="m82.518 63.733c-2.475-.39-4.423-2.462-4.685-4.954-.085-.81.003-1.59.231-2.307.245-.77-.333-1.554-1.142-1.555h-.012c-6.505 0-11.732 5.475-11.323 12.069.351 5.65 4.949 10.248 10.599 10.599 6.594.409 12.069-4.817 12.069-11.323 0-.843-.095-1.663-.272-2.452s-1.086-1.129-1.79-.731c-1.059.599-2.331.865-3.676.653z" fill="#31285b"/><path d="m61.51 99.938c-.853 0-1.719-.207-2.522-.643-2.115-1.148-4.135-2.513-5.989-4.044-6.572-5.399-11.222-13.083-12.906-21.422-1.773-8.585-.437-17.782 3.774-25.477 1.152-2.121 2.51-4.13 4.044-5.99 1.86-2.254 5.195-2.574 7.451-.713 2.254 1.861 2.573 5.196.713 7.451-.549.665-1.072 1.365-1.556 2.08-3 4.419-4.619 9.74-4.605 15.083-.007 4.475 1.112 8.931 3.254 12.86 2.476 4.57 6.301 8.395 10.872 10.871 4.808 2.672 2.903 9.915-2.531 9.944z" fill="#31285b"/><path d="m80.194 103.667c-6.654-.209-7.171-9.665-.528-10.558.898-.091 1.799-.229 2.678-.409 12.332-2.399 21.697-13.867 21.541-26.437.13-10.631-6.664-20.824-16.484-24.867-2.455-1.04-5.081-1.71-7.735-1.979-2.908-.295-5.026-2.892-4.731-5.8.296-2.908 2.89-5.027 5.8-4.731 2.486.253 4.947.753 7.335 1.496 18.321 5.618 29.581 24.694 25.637 43.447-3.109 15.952-17.272 28.67-33.512 29.837z" fill="#31285b"/><circle cx="64.522" cy="36.381" fill="#31285b" r="5.63"/></svg>
