<svg xmlns="http://www.w3.org/2000/svg" viewBox="0 0 100 100"><linearGradient id="A" x1="79.7" x2="20.4" y1="108.2" y2="-8.1" gradientUnits="userSpaceOnUse"><stop offset="0" stop-color="#455761"/><stop offset="1" stop-color="#81979c"/></linearGradient><path fill="url(#A)" d="M.1 5.7C.1 2.6 2.7 0 5.7 0h88.6c3.1 0 5.7 2.6 5.7 5.7v88.6c0 3.1-2.6 5.7-5.7 5.7H5.7A6 6 0 010 94.2V5.7z"/><g fill="#fff"><g fill-rule="evenodd" opacity=".9"><path d="M84.8 88.8v.8l.1.1 1.1.6 1.7 1 1.2.7.1.2v1.5l-4.1-2.4v.7l.1.1 3.9 2.3.1.3v1.4l-.2-.1-5.2-3-.1-.2v-6.3l.2.1 4.5 2.7.7.4.1.2v1.5c-1.4-1-2.8-1.8-4.2-2.6z"/><path d="M92.2 94.8V90a2 2 0 0 0-.6.4v4.7c0 .1 0 .2-.2.3l-1.2.7v-6.2l.1-.2 5.3-3.1.1-.1v6.1c0 .3-.1.4-.3.5l-1 .6-.2.1V89l-.7.4v4.8l-.1.1c-.3 0-.7.3-1.2.5z" opacity=".8"/><path d="M89.9 88.5a145.6 145.6 0 01-5.7-3.1l-.3-.2.2-.1 5.4-3.2h.3l5.4 3.2.1.1-.1.1-5.1 3-.2.2zm-3.2-3.2l.2.1 2.6 1.5h.3l2.6-1.5.1-.1-.1-.1-2.7-1.5c-.1-.1-.2 0-.2 0l-2.6 1.5-.2.1z" opacity=".6"/></g><path d="M84.7 56.7c-.1-.9-.5-1.7-1.1-2.3l-3.3-2.8v-8c0-.6-.5-1.1-1.1-1.1h-4.4c-.6 0-1.1.5-1.1 1.1v2.3l-5.6-4.7a3.2 3.2 0 00-4.3 0L48.2 54.5a3.3 3.3 0 003.2 5.7v16.9c0 .6.5 1.1 1.1 1.1h26.7c.6 0 1.1-.5 1.1-1.1v-17c1.3.5 2.7.1 3.6-1a3 3 0 00.8-2.4zm-8.8-11.9h2.2v5l-2.2-1.9v-3.1zm-5.6 31.1h-9V67h9v8.9zm7.8 0h-5.6v-10c0-.6-.5-1.1-1.1-1.1H60.2c-.6 0-1.1.5-1.1 1.1v10h-5.5V58.5l12.3-10.4 12.2 10.4v17.4zm4.1-18.2c-.4.5-1.1.5-1.6.1l-14.1-12a1 1 0 00-1.4 0L50.9 57.9c-.5.4-1.2.3-1.6-.1-.4-.5-.3-1.2.1-1.6L65 42.9a1 1 0 011.4 0l15.7 13.2c.5.4.5 1.1.1 1.6z" opacity=".8"/><path d="M64.6 35h7.7c.5 0 1-.4 1-1v-4.1l-.1-.1a.8.8 0 0 0-.4-.4l-.2-.1h-.1L36 20.6h-4l-.3.1h-.2l-15.3 8.6-.2.2-.2.3-.1.3v3.8c0 .5.4 1 1 1h13.4v17.8l-3.6 3.6a1 1 0 0 0-.3.7v15.3h-1.9v5.8h19.2v-5.8h-1.9V57.1a1 1 0 0 0-.3-.7l-3.6-3.6V35h19.2m7.7-3.8h6.7v1.9h-6.7v-1.9zM58.8 35h3.8m.1-1.9h-3.8v-1.9h3.8v1.9zM33 22.5h1.9v6.7H33v-6.7zm-.9 8.7h3.8v1.5l-.4.4h-3.4v-1.9zm3.8 4.2v6.9l-3.4-3.4 3.4-3.5zm-3.8-.4h1.5l-1.5 1.5V35zm0 6.1l3.4 3.4-3.4 3.4v-6.8zm3.8 5.8v6.9l-3.4-3.4 3.4-3.5zm-3.8 6.3v-.6l3.4 3.4-3.4 3.4v-6.2zm3.8 5.2v6.9l-3.4-3.4 3.4-3.5zm-3.8 5.8l3.4 3.4-3.4 3.4v-6.8zm3.8 5.7v2.5h-2.5l2.5-2.5zm-4.8-46.7v6H20.4l10.7-6zm-13.4 9.9v-1.9h12.5v1.9H17.7zm10.5 24.4l1.9-1.9v16.9h-1.9v-15zm13.5 16.8v1.9H26.3v-1.9h15.4zm-1.9-16.8v15h-1.9v-17l1.9 2zm17.1-24.4H37.8v-1.9H57v1.9zm-20-3.9v-6.5l27.3 6.5H36.9z"/></g></svg>