<svg xmlns="http://www.w3.org/2000/svg" xml:space="preserve" id="Ebene_2_00000003082143268403364210000017331588248483125951_" x="0" y="0" style="enable-background:new 0 0 360 360" version="1.1" viewBox="0 0 360 360"><style>.st2{fill:#f2edd5}</style><g id="bg"><path d="M80 0h200c44.2 0 80 35.8 80 80v200c0 44.2-35.8 80-80 80H80c-44.2 0-80-35.8-80-80V80C0 35.8 35.8 0 80 0z" style="fill:#a13609"/><path d="M95 25h170c38.7 0 70 31.3 70 70v170c0 38.7-31.3 70-70 70H95c-38.7 0-70-31.3-70-70V95c0-38.7 31.3-70 70-70z" style="fill:#2d3f4b"/></g><path id="frame" d="M270 34c14.9 0 28.9 5.8 39.5 16.5S326 75.1 326 90v180c0 14.9-5.9 28.9-16.5 39.5S284.9 326 270 326H90c-14.9 0-28.9-5.9-39.5-16.5S34 284.9 34 270V90c0-14.9 5.8-28.9 16.5-39.5S75.1 34 90 34h180m0-14H90c-38.5 0-70 31.5-70 70v180c0 38.5 31.5 70 70 70h180c38.5 0 70-31.5 70-70V90c0-38.5-31.5-70-70-70z" class="st2"/><g id="icon"><path d="M207.9 125.7v-22.1c-20.2 1.8-35.6 18.8-35.5 39h24.2c0-10.1 5.2-15.5 11.3-16.9z" class="st2"/><path d="M238.8 171.9c9.1-10.6 14.7-17.3 14.7-30.2 0-22.4-15.2-36.6-35.5-38.2v22c7 2.2 11.7 8.8 11.3 16.1 0 6.2-1.9 10.2-6.7 16l-49.3 41.7v22.3h79.1v-22.8h-44.5l30.9-26.9zM143 108.1h-26.4L70 198.5v23.2h46.6v-22.3h-19z" class="st2"/><path d="M149.1 175.1h-22.3v64.8h22.3v-18.2h12.2v-22.3h-12.2z" class="st2"/><path d="M290 232.1h-23.6v-23.6h-23.6v23.6h-23.6v23.6h23.6v23.6h23.6v-23.6H290z" style="fill:#f2edd5;stroke:#2d3f4b;stroke-width:2;stroke-miterlimit:10"/></g></svg>