<svg xmlns="http://www.w3.org/2000/svg" viewBox="0 0 443.7 443.7"><path fill="#f2edd5" d="M398.5 220.9c0 97.9-79.3 177.2-177.2 177.2-97.9 0-177.2-79.3-177.2-177.2 0-97.9 79.3-177.2 177.2-177.2 97.9 0 177.2 79.3 177.2 177.2z"/><path fill="#a13609" d="M221.8 443.7C99.5 443.7 0 344.2 0 221.8 0 99.5 99.5 0 221.8 0c122.3 0 221.8 99.5 221.8 221.8.1 122.4-99.4 221.9-221.8 221.9zm0-398.4c-97.3 0-176.5 79.2-176.5 176.5s79.2 176.5 176.5 176.5 176.5-79.2 176.5-176.5c.1-97.3-79.1-176.5-176.5-176.5z"/><path fill="#2d3f4b" d="m260 335.8 46.4-39c4.5-5.4 6.6-9.2 6.6-14.9 0-7.9-4-13.6-11-15.1v-20.6c19 1.5 33.6 14.7 33.6 35.7 0 12-4.8 18.3-13.3 28.2L294 335.4h43.7C366.3 306.1 384 266 384 221.8c0-4.4-.2-8.7-.5-13H207.2v36.9L190 279.6h-47.6V205h-2v-2s68.8-53.1 178.8-53.1c17.7 0 34.3 1.4 49.8 3.7-25.8-55.5-82-93.9-147.2-93.9-89.6 0-162.1 72.6-162.1 162.1 0 89.6 72.6 162.1 162.1 162.1 33.3 0 64.3-10.1 90.1-27.3H260v-20.8zm34-89.5v20.6c-5 1.3-11.2 6.8-11.2 12.8h-22.6c0-16 13.8-31.7 33.8-33.4zm-152.3-50.2c-4.5 2.9-6.9 4.9-6.9 4.9v1.6h-13.1v-11.3h28.1c0 .1-3.7 1.9-8.1 4.8zm109.4-63.4 8.5 4.2-3.6 6.9-9.4-2.5 4.5-8.6zm-4.8-2.4-5 9.5-5.9-1.6 5.5-10.5 5.4 2.6zm-10.1-5-6 11.5-5.9-1.6 6.6-12.5 5.3 2.6zm-16.6-8.2 6.4 3.2-7.1 13.5-7.1-1.9 7.8-14.8zm-12.6 9.7h2.5v37.9l-2.5.8v-38.7zm-68.5 6.3c0-.7.6-1.3 1.3-1.3.7 0 1.3.6 1.3 1.3v1.7h-2.5v-1.7zm-31.1 16.2h-.1l32.4-10.8 32.5 10.8h-.2l-1.2 2.9h-62.1l-1.3-2.9zm8.3 22.7h48.2l-4.5 11.3h-39.2l-4.5-11.3zm21.6 107.6h-15.6v-30.4h15.6v30.4zm0-38.2h-15.6v-11.3h15.6v11.3zm0-19.3h-15.6v-11.3h15.6v11.3zM212 356.7h-44v-21.8l42-83.2h24.7l-42.4 84H212v21zm40 0h-12v16h-20v-60h20v23h12v21z"/><circle cx="221.8" cy="221.8" r="216.2" fill="none"/><path fill="#f2edd5" d="m60.5 322.7-3.5 2.2 2 3.2-1.7 1-2-3.2-6.6 4.1c-1.5.9-2.1 1.9-1.3 3.1.4.6.7 1 1 1.2l-1.6 1.1c-.4-.3-1-.9-1.5-1.8-.6-1-.8-2.1-.6-3 .3-1 1.2-1.9 2.6-2.8l6.6-4.1-1.2-1.9 1.7-1 1.2 1.9 2.9-1.8 2 1.8zM55.7 337c-2.8 2.1-2.7 4.8-1.2 6.9 1.1 1.5 2 2.2 2.9 2.8l-1.3 1.5c-.9-.5-2.2-1.5-3.5-3.3-2.6-3.6-1.8-7.4 1.7-9.9s7.8-2.5 10.2.9c2.7 3.8.1 7.2-2 8.8-.4.3-.8.5-1 .6l-5.8-8.3zm6 5.1c1.4-.9 3-3 1.3-5.4-1.5-2.1-4.2-1.7-5.8-.8l4.5 6.2zm5.5 4.8c1.3-1.1 2.4-2 3.4-3l1.5 1.8-2.1 1.9.1.1c1.9-.7 3.8-.3 5 1 .2.2.3.4.4.6l-1.9 1.6c-.1-.2-.3-.5-.5-.7-1.2-1.4-3.1-1.5-4.8-.5-.3.2-.7.4-1 .7l-5.9 4.9-1.6-2 7.4-6.4zm7.5 8.3c1-1 1.9-1.9 2.7-2.8L79 354l-1.5 1.7.1.1c1.5-.4 3.4-.4 5.1 1.3 1.4 1.4 1.6 3.3.8 4.9.9-.3 1.7-.3 2.5-.2 1.1.1 2 .6 3 1.5 1.3 1.3 2.5 4.2-1.1 7.7l-6 6-1.8-1.8 5.7-5.8c1.9-2 2.4-3.8.9-5.3-1-1-2.6-1.1-3.9-.5-.3.2-.7.4-1.1.8l-6.3 6.3-1.8-1.8 6.1-6.1c1.6-1.6 2.1-3.5.7-4.9-1.2-1.1-2.9-1.1-4.1-.4-.4.2-.7.4-1 .8l-6.1 6.1-1.8-1.8 7.3-7.4zm12.2 25.9 9.2-11 2 1.7-9.2 11-2-1.7zm14-12.2c-.5.7-1.5.8-2.3.2-.7-.6-.7-1.6-.2-2.2.6-.7 1.6-.8 2.3-.2.8.6.8 1.5.2 2.2zm-.9 9.5c.9-1.2 1.6-2.2 2.2-3.2l1.9 1.4-1.3 2c1.4-.7 3.5-.8 5.4.6 1.6 1.2 3.4 4 .5 7.9l-5 6.9-2.1-1.5 4.9-6.7c1.4-1.9 1.8-3.9-.2-5.4-1.4-1-3.2-.8-4.4.1-.3.2-.6.5-.9.9l-5.1 7-2.1-1.5 6.2-8.5zm15.9 23.4.8-1.7h-.1c-1.3.5-3.1.6-4.9-.5-2.5-1.5-2.7-4-1.6-5.8 1.8-3 5.4-3 10.1-.1l.2-.3c.6-1 1.4-3-1.1-4.5-1.1-.7-2.5-1.1-3.7-1l.4-1.8c1.4 0 3.1.4 4.7 1.4 3.7 2.3 3.1 5.4 1.6 7.9l-2.8 4.6c-.6 1.1-1.2 2.1-1.6 3.1l-2-1.3zm3.5-6.5c-2.4-1.5-5.4-2.8-6.9-.4-.9 1.4-.3 2.7.8 3.4 1.6 1 3.2.6 4.2-.2l.6-.6 1.3-2.2zm13.6-8.1 2.3 1.2-9.8 18.6-2.3-1.2 9.8-18.6zm4.8 25.8 2.2-4.8-8.2-3.7.7-1.6 12.9-7.7 2.6 1.2-4.9 10.9 2.5 1.1-.8 1.9-2.5-1.1-2.3 4.8-2.2-1zm3-6.7 2.6-5.9c.4-.9.9-1.8 1.3-2.7h-.1c-1 .8-1.8 1.3-2.6 1.9l-7 4v.1l5.8 2.6zm5.6 10.3.5-1.5 2.6-1.2c6.2-2.8 9.1-4.4 10.1-7.1.7-1.8.4-3.9-2.4-4.8-1.6-.6-3.3-.2-4.4.2l-.2-2c1.6-.6 3.7-.8 5.8 0 3.9 1.4 4.6 4.6 3.7 7.2-1.2 3.4-4.6 5.2-9.7 7.5l-1.9.8v.1l8.2 2.9-.7 2-11.6-4.1zm25.9.1c.3-1 1.2-1.6 2.2-1.4 1 .2 1.5 1.2 1.3 2.2-.3 1-1.1 1.6-2.2 1.4-1-.2-1.5-1.2-1.3-2.2zm17.9-2.9 1 7.5c.2 1.6.4 3.2.5 4.7h.1c.5-1.4 1.2-2.9 1.8-4.3l3.2-7 2.2.3 1.3 7.4c.3 1.8.5 3.3.7 4.8h.1c.4-1.4 1-2.9 1.7-4.5l2.9-6.9 2.6.3-6.4 13.7-2.4-.3-1.3-7.1c-.3-1.6-.5-3.1-.7-4.8h-.1c-.6 1.7-1.2 3.1-1.9 4.5l-3.1 6.5-2.4-.3-2.5-14.8 2.7.3zm22.5 9.9c0 3.5 2.2 5 4.8 5.1 1.9 0 3-.2 4-.6l.4 1.9c-.9.4-2.5.8-4.8.8-4.4-.1-7-3.1-6.9-7.4s2.8-7.7 6.9-7.6c4.7.1 5.8 4.3 5.7 6.9 0 .5-.1.9-.1 1.2l-10-.3zm7.7-1.6c.1-1.7-.6-4.3-3.5-4.3-2.6-.1-3.9 2.3-4.1 4.1l7.6.2zm7.7 8.5c0-1 0-2.4-.1-3.7l-1-17.3 2.6-.2.5 9h.1c.8-1.7 2.4-2.8 4.7-2.9 3.5-.2 6.2 2.6 6.5 6.9.3 5.1-2.8 7.9-6 8-2.1.1-3.8-.6-5-2.4h-.1v2.4l-2.2.2zm2.3-5.9c0 .3.1.6.2.9.6 1.8 2.2 2.9 4.1 2.8 2.7-.2 4.2-2.5 4-5.8-.2-2.9-1.8-5.2-4.6-5.1-1.8.1-3.4 1.4-3.8 3.4 0 .3-.1.7-.1 1.1l.2 2.7zm33.1-19.7 3.3 17c.2 1.3.5 2.7.8 3.6l-2.3.4-.6-2.4h-.1c-.5 1.7-2 3.2-4.3 3.7-3.4.7-6.6-1.7-7.4-6-.9-4.7 1.4-8.1 4.9-8.8 2.2-.4 3.8.3 4.7 1.3h.1l-1.6-8.4 2.5-.4zm-.2 12.8c-.1-.3-.2-.8-.3-1.1-.7-1.6-2.3-2.6-4.3-2.3-2.6.5-3.8 3.1-3.2 6.2.5 2.9 2.4 4.9 5.2 4.4 1.7-.3 3.1-1.8 3.2-3.8 0-.4 0-.7-.1-1.1l-.5-2.3zm10.1-.5c1 3.4 3.6 4.2 6.1 3.4 1.8-.5 2.8-1.1 3.6-1.8l.9 1.7c-.8.7-2.2 1.5-4.3 2.2-4.2 1.2-7.6-.9-8.8-5-1.2-4.2.3-8.1 4.4-9.3 4.5-1.3 6.8 2.3 7.5 4.9.1.5.2.9.2 1.2l-9.6 2.7zm6.9-3.9c-.4-1.6-1.8-3.9-4.6-3.1-2.5.7-3 3.4-2.7 5.2l7.3-2.1zm5.8-8 5.5 6.6c.9 1.1 1.7 2 2.4 3h.1c-.1-1.2-.1-2.5-.1-3.9l-.2-8.5 2.6-1-.3 15.4-2.3.9-10.1-11.5 2.4-1zm17.6 1.3c1.5 3.2 4.2 3.5 6.6 2.4 1.7-.8 2.6-1.6 3.3-2.3l1.2 1.5c-.7.8-1.9 1.9-3.9 2.8-4 1.9-7.6.3-9.4-3.6-1.8-3.9-1-8.1 2.8-9.9 4.2-2 7.1 1.2 8.2 3.6.2.5.3.9.4 1.1l-9.2 4.4zm6.1-4.9c-.7-1.5-2.4-3.6-5.1-2.3-2.4 1.1-2.4 3.8-1.8 5.5l6.9-3.2zm.5-14.3 2.3-1.2 10 18.5-2.3 1.2-10-18.5zm25 1c2.8 4.5 1 8.4-2 10.3-3.3 2.1-7.3 1.3-9.7-2.6-2.6-4.1-1.4-8.1 1.9-10.2 3.5-2.3 7.5-1.2 9.8 2.5zm-9.5 6.2c1.7 2.7 4.5 3.7 6.6 2.3 2.1-1.3 2.4-4.3.7-7-1.3-2.1-4-4-6.6-2.4-2.5 1.6-2.1 4.8-.7 7.1zm12.1-11c-1.1-1.5-2.1-2.6-2.9-3.6l1.9-1.4 1.6 1.9c-.2-2 .5-3.9 2.4-5.3 2.8-2.1 6.6-1.4 9.2 2.1 3.1 4.1 2.2 8-.5 10.1-1.5 1.2-3.3 1.5-4.9.9l4.7 6.2-2 1.6-9.5-12.5zm4.4 1.5c.2.3.5.6.7.8 1.5 1.1 3.5 1.2 5 0 2.2-1.7 2.1-4.4.1-7.1-1.7-2.3-4.4-3.3-6.6-1.6-1.4 1.1-2 3.1-1.2 5 .1.3.3.7.5 1l1.5 1.9zm9.5-13.2c-1-1.1-1.9-1.9-2.8-2.7l1.6-1.6 1.7 1.6.1-.1c-.4-1.5-.3-3.4 1.4-5 1.4-1.4 3.3-1.5 4.9-.7-.2-.9-.3-1.7-.1-2.5.2-1.1.6-2 1.6-2.9 1.4-1.3 4.3-2.4 7.7 1.2l5.8 6.1-1.8 1.8-5.6-5.9c-1.9-2-3.8-2.5-5.3-1-1.1 1-1.1 2.6-.6 3.8.2.3.4.7.8 1.1l6.1 6.4-1.8 1.8-5.9-6.2c-1.6-1.6-3.5-2.1-4.9-.8-1.2 1.1-1.1 2.9-.5 4.1.2.4.4.7.7 1.1l6 6.2-1.8 1.8-7.3-7.6zm22.2-17.1c2.7 2.2 5.3 1.4 7-.6 1.2-1.4 1.7-2.5 2-3.5l1.7.9c-.3 1-.9 2.5-2.4 4.2-2.8 3.4-6.8 3.5-10.1.7s-4.3-6.9-1.6-10.1c3-3.6 7-1.9 9-.2.4.3.7.7.9.8l-6.5 7.8zm3.5-7.1c-1.3-1.1-3.7-2.2-5.6 0-1.7 2-.6 4.5.7 5.8l4.9-5.8zm2.9-6.8c-1.2-.9-2.2-1.5-3.2-2.1l1.3-1.9 2 1.2c-.7-1.4-.8-3.5.5-5.4 1.1-1.6 3.9-3.5 7.9-.6l7 4.9-1.5 2.1-6.8-4.8c-1.9-1.3-4-1.7-5.4.3-1 1.4-.8 3.2.2 4.4.2.3.5.6.9.8l7 5-1.5 2.1-8.4-6zm4.7-21.4 3.5 2.1 1.9-3.2 1.7 1-1.9 3.2 6.6 4c1.5.9 2.6 1 3.4-.2.4-.6.5-1.1.6-1.4l1.7.9c-.1.5-.4 1.3-.9 2.2-.6 1-1.5 1.7-2.4 1.8-1 .2-2.3-.2-3.7-1.1l-6.7-4-1.1 1.9-1.7-1 1.1-1.9-2.9-1.8.8-2.5z"/></svg>