<svg xmlns="http://www.w3.org/2000/svg" width="450" height="450"><path d="M0 0h450v450H0V0"/><path fill="#FFF" d="M183.1 134.6H228c.1 28.5-.1 56.9.1 85.3-15.1-11.7-30-23.8-45-35.8.3-16.5.1-33 .1-49.5zm.1 128.1L227 298c1.3 1 1 2.7 1 4 0 4.4.4 8.9-.4 13.3h-44.3c-.8-12.8-.1-25.6-.4-38.3.1-4.8-.2-9.6.3-14.3z"/><path fill="#FFF" d="M64.9 158c.2-7.8-.6-15.7.5-23.5 13.5.2 27.1 0 40.7 0 1.2 0 2.3.4 3.3 1.2l119 95.2c.2 19.1 0 38.3.1 57.5-39.1-30.7-77.7-62-116.8-92.8l-2-.4.1 119.8c-15 0-29.9.3-44.8-.1-.3-52.3 0-104.6-.1-156.9z"/><path fill="#E42024" d="M381.4 200.2a92 92 0 0 0-34-48.6 85.2 85.2 0 0 0-54.2-17.2c-.2 14.8 0 29.6 0 44.4a47.3 47.3 0 0 1 42.5 30.3c3.4 10 3.8 21.2.9 31.4a43.8 43.8 0 0 1-25.5 25.7 47.4 47.4 0 0 1-33.9.7c-11.6-4.4-20.6-13.4-30.2-21-3.1-2.5-6.4-5-9.5-7.7l-1.7.3V287c0 2.9-.4 5.9.7 8.6 0 0 41.9 71.5 60.1 71.5 19.1 0 71.6-90 71.6-90a91.8 91.8 0 0 0 15.7-45.3 83 83 0 0 0-2.5-31.6z"/><circle cx="292" cy="224.8" r="22.7" fill="#E42024" stroke="#000" stroke-miterlimit="10"/><path fill="#7AC630" d="M310 310h110v110H310z"/><path fill="#FFF" d="M333.1 408c-1.2-.3-1.8-.8-5-4-3.8-3.8-4-4.2-4-6.2 0-2.2-.7-1.4 11.5-13.6 12.3-12.3 11.6-11.8 13.8-11.8 1 0 1.3 0 2.2.5l1 .5 5.9-6-.8-1.2a26.2 26.2 0 1 1 8.1 8.1l-1.1-.7-6 6 .5 1c.4.8.5 1 .5 2 0 2.3.5 1.6-11.7 13.9a108.2 108.2 0 0 1-11.6 11.1c-1 .4-2.4.6-3.3.4zm50.6-34.3a21.8 21.8 0 1 0-7.8-43 21.8 21.8 0 0 0 7.8 43zM371 399l-7.5-2.2c-.1 0 4-15 4.3-15.2l15 4.2c.2.1 0 1-1.8 7.2a1361 1361 0 0 0-2.5 8.2L371 399zm10 1.8 4.2-14.8 14.8-4.2c0 .1-4 14.9-4.2 15a955.8 955.8 0 0 1-14.9 4zm-24.4-6.5 5.8-5.9c.5-.7 1.3-2.5 1.6-3.5l.2-1.8v-1l.6-.2h.7l-4.2 14.8-5 1.5-5 1.4 5.3-5.3zm28.4-10.5-.2-.6-.2-.5.5-.1c4.6-.8 9.5-3 13.4-5.9.5-.4.9-.6.9-.4l.9 3.2c-.1.2-15.3 4.4-15.3 4.4zm-51.6-4.4c-.1-.1-4-13.2-4.3-14.7 0-.2.5-.1 7.4 1.9 7.3 2 7.5 2.1 7.6 2.5.1.3 0 .4-.4.8l-5.2 5c-1.6 1.6-3.1 3.2-4.8 4.7l-.3-.2zm2.8-15-7.4-2 4.4-15.3 15.3 4.2a229.1 229.1 0 0 1-4.6 15.3l-7.7-2.2zm10.1 1.9 1.6-5.3 1.4-5 .2 1.1a35.9 35.9 0 0 0 2.2 7.8 83.4 83.4 0 0 1-5.4 1.4zm-5.5-19.2-7.5-2.3c-.1-.2-4.3-14.7-4.2-14.8 0 0 14.7 4.1 14.9 4.3l4.2 15-7.4-2.2zm7.3-5.9-1.8-6.2-.2-1 5.7-1.6 6-1.7c.2 0-.2.5-.8 1.1a29.8 29.8 0 0 0-7.2 14.2c0 1-.4-.1-1.7-4.8z"/></svg>