<svg xmlns="http://www.w3.org/2000/svg" width="500" height="500"><path fill="#fff" d="m499.5 157.37-10.77-55.45a26.5 26.5 0 0 0-31.09-21l-4.78.93V26.67A26.84 26.84 0 0 0 426 0H74a26.85 26.85 0 0 0-26.86 26.67v134.08l-25.68 5a26.55 26.55 0 0 0-21 31.09l10.78 55.44a26.55 26.55 0 0 0 26 21.46 27 27 0 0 0 5.07-.49l4.79-.93v55.21A26.85 26.85 0 0 0 74 354.19h352a26.84 26.84 0 0 0 26.85-26.67V193.44l25.68-5a26.5 26.5 0 0 0 21-31.08z"/><path fill="#f47c00" d="M47.14 272.31 94 263.19c8.71 34.49 20.31 66.08 43.08 91H74a26.84 26.84 0 0 1-26.86-26.67zM452.86 26.67A26.84 26.84 0 0 0 426 0h-71.58c16.95 16.94 31.25 38.9 42 66.18l-108.83 23c-11.89-22.88-30.02-41.91-65.48-34.42-19.55 4.13-32.54 15.12-38.27 27.12-4.87 10.22-8 21.3-4 53.07l273-53.06zM229.55 295.58c10.17 8.62 26.53 13.44 46.09 9.3 35.48-7.47 44.24-32.18 45.77-57.86l108.82-23c2.57 56.3-14.85 99.88-45.61 130.16H426a26.84 26.84 0 0 0 26.85-26.67V193.44l-250.57 48.71c10.23 35.99 18.07 45.57 27.27 53.43zM90.57 34.31A174.74 174.74 0 0 1 119.61 0H74a26.85 26.85 0 0 0-26.86 26.67v134.08L71.6 156C65 113.09 65.61 72.48 90.57 34.31zM486.12 160l-10.77-55.45a12.88 12.88 0 0 0-15.1-10.18L24.06 179.12a12.88 12.88 0 0 0-10.19 15.1l10.78 55.45a12.89 12.89 0 0 0 15.1 10.19l436.19-84.79A12.88 12.88 0 0 0 486.12 160z"/><path fill="#fff" d="m45.45 204.62 1.82 9.38 15-2.93 1.29 6.64-15 2.92 3 15.47-7.44 1.45-7.4-38.11 25.1-4.88 1.29 6.64zm39.32 3.97a4.72 4.72 0 0 0-4-.94c-2.14.41-4.18 2.47-3.5 6l3.27 16.8-7 1.35-5.42-27.88 6.8-1.32.52 2.68a9.6 9.6 0 0 1 6.43-4.36 8.57 8.57 0 0 1 7.13 1.35zm6.69-14.13-1.1-5.68 7.12-1.38 1.1 5.67zm6.45 32.62-5.42-27.88 7-1.35 5.42 27.88zm17.89-15.7c.7 3.59 3.4 5.79 7.31 5a7.9 7.9 0 0 0 5.81-3.85l5 3.3a13.54 13.54 0 0 1-9.75 6.44c-6.58 1.28-13.48-.49-15.67-11.78-1.77-9.1 2.15-15.19 9.38-16.6 7.76-1.5 13.25 3.32 14.74 11l.6 3.1zm8.45-9.69a5.29 5.29 0 0 0-9.31 1.81 7.75 7.75 0 0 0-.06 3.12l10.59-2.06a7.84 7.84 0 0 0-1.22-2.87zm33.93 13.68-3.28-16.86c-.74-3.8-3.4-4.62-5.59-4.19s-4.41 2.19-3.67 6l3.28 16.86-7 1.35-5.42-27.88 6.8-1.33.5 2.57a9.72 9.72 0 0 1 6.39-4.24 9.25 9.25 0 0 1 7.07 1.18c2.68 1.81 3.78 4.32 4.37 7.37l3.51 17.8zm29.82-5.81-.5-2.62a8.55 8.55 0 0 1-6.34 4.28 10 10 0 0 1-7.34-1.18c-3.32-2.24-4.31-7-5.12-11.22s-1.68-8.95.56-12.27a9.87 9.87 0 0 1 6.31-3.84 8.5 8.5 0 0 1 7.33 1.46l-2.46-12.68 7-1.36 7.41 38.11zm-9.18-21c-4.18.81-4.05 4.34-3.16 8.89s2.09 7.92 6.27 7.11 4.08-4.41 3.2-9-2.13-7.8-6.27-6.98zm33.05 16.7c-4.39.86-8.44 1.14-12.66-1.7l3.67-5.44a10.25 10.25 0 0 0 7.94 1.18c2.41-.47 4.77-1.76 4.37-3.85-.27-1.39-1.21-2.2-3.45-2l-4.47.42c-5.12.5-8.65-1.09-9.65-6.23-1.13-5.78 3.36-9.87 9-11 4.33-.85 8.12-.8 11.28 1.19l-3.41 5.17c-1.88-1.14-4.43-1.09-6.84-.62-2.78.54-3.71 2.06-3.44 3.45.2 1 .86 2.11 3.36 1.84l4.47-.42c5.62-.54 9 1.87 9.89 6.58 1.2 6.17-3.48 10.17-10.06 11.43zm48.68-13.01a11.81 11.81 0 0 1-8 5.11 11.66 11.66 0 0 1-9.28-1.75c-3-2.14-4.29-5.17-5.27-10.25s-.95-8.32 1.05-11.43a11.65 11.65 0 0 1 7.95-5.1 11.78 11.78 0 0 1 9.34 1.74c3 2.13 4.28 5.17 5.26 10.2s.96 8.36-1.05 11.48zm-8.83-16.56a4.45 4.45 0 0 0-3.5-.6 4.36 4.36 0 0 0-3 1.86c-1.17 1.72-.86 4.16-.3 7.05s1.2 5.32 2.93 6.49a4.38 4.38 0 0 0 3.45.6 4.49 4.49 0 0 0 3-1.86c1.16-1.73.84-4.22.28-7.11s-1.13-5.27-2.86-6.43zm22.81-5.54 4.24 21.78-7 1.35-4.24-21.78-2.89.56-1-5.3 2.89-.56-.67-3.48c-.77-4 .91-8.45 6.58-9.55l4-.77 1.15 5.88-2.73.53c-1.66.32-2.23 1.38-1.92 3l.59 3 5.14-1 1 5.3zM315 185.21a14.2 14.2 0 0 1-11.08-2.21 11.25 11.25 0 0 1-4.21-5.12 52.44 52.44 0 0 1-2.49-9.35A53.42 53.42 0 0 1 296 159a11.05 11.05 0 0 1 2-6.33 14.24 14.24 0 0 1 9.47-6.17c7.33-1.43 13.57 1.8 16.36 9.31l-7.55 1.47c-1.43-3.11-3.88-4.85-7.47-4.16a6 6 0 0 0-4.38 2.91c-1.23 2-1.22 3.74.22 11.12s2.09 9 4 10.39a6 6 0 0 0 5.15 1.06c3.59-.7 5.21-3.23 5.37-6.65l7.55-1.47c.19 7.98-4.43 13.32-11.72 14.73zm38.52-11.04a11.74 11.74 0 0 1-8 5.11 11.62 11.62 0 0 1-9.29-1.75c-3-2.13-4.28-5.16-5.26-10.25s-1-8.31 1-11.42a11.65 11.65 0 0 1 8-5.1 11.78 11.78 0 0 1 9.34 1.74c3 2.13 4.28 5.17 5.26 10.2s.96 8.36-1.05 11.47zm-8.83-16.55a4.46 4.46 0 0 0-3.5-.6 4.34 4.34 0 0 0-3 1.86c-1.17 1.72-.86 4.16-.3 7.05s1.2 5.32 2.93 6.49a4.38 4.38 0 0 0 3.45.6 4.49 4.49 0 0 0 3-1.86c1.16-1.73.84-4.22.28-7.11s-1.13-5.27-2.86-6.43zm35.45 14.6-3.28-16.86c-.74-3.8-3.4-4.61-5.59-4.19s-4.41 2.19-3.67 6l3.28 16.83-7 1.35-5.42-27.88 6.8-1.32.5 2.57a9.69 9.69 0 0 1 6.39-4.24 9.22 9.22 0 0 1 7.06 1.18c2.69 1.81 3.79 4.32 4.38 7.37l3.46 17.82zm23.17-4.5c-5.67 1.1-8.86-2.45-9.63-6.41l-2.68-13.8-2.95.57-1-5.3 3-.57-1.6-8.24 6.95-1.36 1.6 8.25 4.93-1 1 5.3-4.92 1 2.6 13.38c.31 1.61 1.23 2.37 2.89 2.05l2.52-.49 1.14 5.89zm24.25-4.72-.47-2.4a8.64 8.64 0 0 1-6.33 4c-3.16.62-5.61.26-7.6-1.07a9.1 9.1 0 0 1-3.51-5.82c-.87-4.44 1.47-8.67 8-9.93l6.58-1.28-.27-1.39c-.59-3.05-2.35-4.1-6-3.38-2.68.52-3.78 1.4-4.91 3.34l-5.28-3.47c2.15-3.53 4.66-4.91 9.31-5.81 7.82-1.52 12.53 1 13.8 7.54l3.56 18.35zm-2.45-11.74-5.51 1.07c-2.52.49-3.68 1.94-3.3 3.92s1.91 3 4.64 2.43c1.93-.37 3.13-.77 4.13-2.19.61-.84.66-2 .33-3.73zm35.4 2.12a12.85 12.85 0 0 1-17.28 3.36c-3-2.14-4.28-5.17-5.27-10.25s-.95-8.32 1.05-11.43A11.65 11.65 0 0 1 447 130a11.78 11.78 0 0 1 9.34 1.74c3 2.14 4.28 5.17 5.26 10.2s.92 8.33-1.09 11.44zm-8.82-16.56a4.49 4.49 0 0 0-3.51-.6 4.36 4.36 0 0 0-3 1.86c-1.17 1.73-.86 4.16-.29 7s1.2 5.33 2.92 6.49a4.34 4.34 0 0 0 3.45.61 4.5 4.5 0 0 0 3-1.87c1.16-1.72.84-4.22.28-7.11s-1.13-5.2-2.85-6.38z"/><path d="M67.65 416.46a15.61 15.61 0 0 1-11.48-4.67 12.24 12.24 0 0 1-3.46-6.39 78.17 78.17 0 0 1 0-21.17 12 12 0 0 1 3.46-6.39 15.61 15.61 0 0 1 11.48-4.67c8.19 0 14.23 4.79 15.67 13.46h-8.43c-.9-3.65-3.17-6-7.18-6a6.59 6.59 0 0 0-5.32 2.21c-1.73 1.85-2.09 3.77-2.09 12s.36 10.16 2.09 12a6.56 6.56 0 0 0 5.32 2.16c4 0 6.28-2.39 7.18-6h8.43c-1.44 8.68-7.54 13.46-15.67 13.46zm43.76-3.83a12.87 12.87 0 0 1-9.68 3.83 12.73 12.73 0 0 1-9.63-3.83c-2.81-2.93-3.53-6.45-3.53-12.13s.72-9.15 3.53-12.08a12.77 12.77 0 0 1 9.63-3.83 12.91 12.91 0 0 1 9.68 3.83c2.81 2.93 3.53 6.46 3.53 12.08s-.72 9.2-3.53 12.13zm-6-19.67a4.92 4.92 0 0 0-3.64-1.37 4.78 4.78 0 0 0-3.63 1.41c-1.62 1.62-1.8 4.31-1.8 7.54s.18 6 1.8 7.59a4.75 4.75 0 0 0 3.59 1.37 4.88 4.88 0 0 0 3.64-1.37c1.62-1.62 1.8-4.37 1.8-7.59s-.17-5.96-1.8-7.54zm35.05 23.14v-18.83c0-4.25-2.69-5.68-5.14-5.68s-5.2 1.43-5.2 5.68v18.83h-7.77V385h7.59v2.87a10.66 10.66 0 0 1 7.77-3.23 10.11 10.11 0 0 1 7.35 2.75c2.52 2.51 3.17 5.44 3.17 8.85v19.86zm25.88 0c-6.33 0-9-4.48-9-8.91v-15.42H154v-5.92h3.29v-9.21h7.77v9.21h5.5v5.92h-5.5v14.94c0 1.8.84 2.81 2.69 2.81h2.81v6.58zm27.08 0v-2.69c-2.09 2.09-4.06 3-7.65 3s-6.1-.9-8-2.75a10 10 0 0 1-2.57-7c0-5 3.41-9 10.64-9h7.35v-1.56c0-3.41-1.67-4.9-5.79-4.9-3 0-4.37.72-6 2.57l-5-4.84c3-3.35 6-4.31 11.23-4.31 8.73 0 13.28 3.71 13.28 11v20.48zm-.18-13.1h-6.15c-2.81 0-4.37 1.31-4.37 3.52s1.44 3.59 4.49 3.59c2.15 0 3.52-.18 4.9-1.49.84-.78 1.13-2 1.13-3.95zm37.66 9.63a14.08 14.08 0 0 1-19.31 0c-2.8-2.93-3.52-6.45-3.52-12.13s.72-9.15 3.52-12.08a14.08 14.08 0 0 1 19.31 0c2.81 2.93 3.53 6.46 3.53 12.08s-.72 9.2-3.53 12.13zm-6-19.67a5 5 0 0 0-3.65-1.37 4.81 4.81 0 0 0-3.59 1.37c-1.61 1.62-1.79 4.31-1.79 7.54s.18 6 1.79 7.59a4.78 4.78 0 0 0 3.59 1.37 4.92 4.92 0 0 0 3.65-1.37c1.61-1.62 1.79-4.37 1.79-7.59s-.21-5.92-1.82-7.5zm47.91 7.12h-8.19v16h-8.31v-42.55h16.5c8.79 0 14.05 6 14.05 13.28s-5.26 13.27-14.05 13.27zm-.42-19.08h-7.77v11.6h7.77c3.77 0 6.16-2.33 6.16-5.79s-2.39-5.81-6.16-5.81zm37.78 12.44a5.2 5.2 0 0 0-4.13-1.85c-2.39 0-5 1.79-5 5.74v18.77h-7.77V385h7.59v3a10.58 10.58 0 0 1 7.83-3.35 9.41 9.41 0 0 1 7.36 2.93zm10.16-13.81v-6.34h7.95v6.34zm.12 36.47V385h7.77v31.1zm29.89 0h-6.1L332.76 385H341l6.34 19.25 6.23-19.25h8.19zm31.38 0v-2.69c-2.09 2.09-4.06 3-7.65 3s-6.1-.9-7.95-2.75a10 10 0 0 1-2.57-7c0-5 3.41-9 10.64-9h7.35v-1.56c0-3.41-1.67-4.9-5.8-4.9-3 0-4.36.72-6 2.57l-5-4.84c3.05-3.35 6-4.31 11.24-4.31 8.73 0 13.27 3.71 13.27 11v20.48zm-.18-13.1h-6.16c-2.8 0-4.36 1.31-4.36 3.52s1.44 3.59 4.48 3.59c2.16 0 3.53-.18 4.91-1.49.83-.78 1.13-2 1.13-3.95zm28.52 13.46c-6.22 0-13.93-3.35-13.93-16s7.71-15.91 13.93-15.91a13.27 13.27 0 0 1 10.28 4.19l-5.26 5.26c-1.62-1.73-3-2.45-5-2.45a5.41 5.41 0 0 0-4.43 2c-1.19 1.5-1.73 3.59-1.73 6.88s.54 5.44 1.73 6.93a5.38 5.38 0 0 0 4.43 2c2 0 3.4-.71 5-2.45l5.26 5.2a13.32 13.32 0 0 1-10.28 4.35zm27.94 4.66a11.14 11.14 0 0 1-2.33 4 9 9 0 0 1-6.7 2.39h-3.05v-7h1.8c2.21 0 3.11-.53 3.88-2.81l1.32-3.82L422.25 385h8.19l6.46 19.25 6.21-19.25h8.19z"/></svg>