<svg xmlns="http://www.w3.org/2000/svg" xml:space="preserve" id="Oveleon_Contao_Recommendation_Bundle" x="0" y="0" version="1.1" viewBox="0 0 100 100"><style>.st2{fill-rule:evenodd;clip-rule:evenodd;fill:#fff}.st3{opacity:.3;enable-background:new}.st3,.st4{fill:#fff}</style><g id="Hintergrund"><linearGradient id="SVGID_1_" x1="79.731" x2="20.409" y1="6395.04" y2="6278.613" gradientTransform="translate(0 -6286.787)" gradientUnits="userSpaceOnUse"><stop offset="0" stop-color="#b84133"/><stop offset="1" stop-color="#f2785c"/></linearGradient><path fill="url(#SVGID_1_)" d="M0 5.7C0 2.6 2.6 0 5.7 0h88.7c3.1 0 5.7 2.6 5.7 5.7v88.7c0 3.1-2.6 5.7-5.7 5.7H5.7C2.6 100 0 97.4 0 94.3V5.7z"/></g><g opacity=".7"><path d="M89.1 87.7c0-.3-.2-.6-.6-.6s-.8.3-.7.6c.1.4.2.7.7.7.3.1.6-.3.6-.7zm3-1c-.4-.1-.8.5-.4.7.2.2 1.1.4 1.5.7 1.1.7 1.7 1.3 2 2.3.4 1.9 0 5-2.6 5-.7 0-1.6-.3-2-1-.4-.9.2-2.3 1.2-2.5 1.2-.2 1.7.7.7 1.3-1.9 1.1 1 .9 1.5-.1.6-1.2-.6-2.3-2-2.2-1.1.1-2.1.8-2.4 1.8-.9 2.4 1.4 4.4 3.7 4 2.5-.4 3.4-3.1 3.2-5.4-.2-2.5-1.9-3.9-4.4-4.6z" class="st2"/><path d="M90.2 87.1c-.2-.2-.1-.5-.1-.8 0-.1.1-.6-.1-.6h-.4c-.5 0-1.1.2-1.6.5-1 .6-1.8 1.8-1.9 3 .6 0 4.1.1 4.4.1s.5.7-.4.7c-1 0-3.1-.1-4.2-.1-.5 0-.6-.2-.5-.6V89c.3-2.5 2.4-4.1 4.9-4 .4 0 .5.1.5.5v1.1c.1.8-.6.5-.6.5z" class="st2"/></g><circle cx="26.7" cy="35.3" r="3.4" class="st3"/><circle cx="39.2" cy="35.3" r="3.4" class="st3"/><circle cx="52" cy="35.3" r="3.4" class="st3"/><circle cx="64.3" cy="35.3" r="3.4" class="st3"/><circle cx="77.1" cy="35.3" r="3.4" class="st3"/><path d="M38.6 45.9c-.2-.2-.4-.3-.7-.3s-.5.1-.7.3c-.1.1-.2.4-.2.7s.1.5.3.7c.2.2.4.3.7.3s.5-.1.7-.3c.2-.2.3-.4.3-.7s-.2-.6-.4-.7z" class="st4"/><path d="M85.1 24.3h-66c-1.6 0-3 1.3-3 3v17.3c0 1.6 1.3 3 3 3h14.7c.5 0 1-.4 1-1 0-.5-.4-1-1-1H19.1c-.5 0-1-.4-1-1V27.3c0-.5.4-1 1-1h66c.5 0 1 .4 1 1v17.3c0 .5-.4 1-1 1H64.7c-.3 0-.5.1-.7.3l-3.3 3.3-3.3-3.3c-.2-.2-.4-.3-.7-.3H49c-.1-.2-.2-.4-.2-.6-.7-1.4-1.9-2.4-3.4-2.8l-1.4-.4c-.5-.2-1 .1-1.2.6l-2.2 6.2c-.6 1.7-1.9 3.2-3.5 4L35 53.7c-.5-.6-1.3-1-2.2-1h-6.3c-1.6 0-2.8 1.3-2.8 2.8V73c0 1.6 1.3 2.8 2.8 2.8h6.3c1 0 1.9-.5 2.4-1.3l1 .4c1.5.6 3 .9 4.6.9h13.3c2 0 3.6-1.6 3.6-3.6 0-.7-.2-1.3-.5-1.8 1.5-.5 2.5-1.8 2.5-3.5 0-.7-.2-1.3-.5-1.9 1.4-.5 2.4-1.8 2.4-3.4 0-1.6-1.1-3-2.6-3.5.3-.5.5-1.1.5-1.8 0-2-1.6-3.6-3.6-3.6H48l1.1-3.3c.2-.6.3-1.2.3-1.9h6.9l3.7 3.7c.2.2.4.3.7.3s.5-.1.7-.3l3.7-3.7h20c1.6 0 3-1.3 3-3V27.3c0-1.7-1.3-3-3-3zM33.7 73c0 .5-.4.8-.8.8h-6.3c-.5 0-.8-.4-.8-.8V55.5c0-.5.4-.8.8-.8h2.2v12.2c0 .5.4 1 1 1 .5 0 1-.4 1-1V54.7H33c.4 0 .7.2.8.6v.2c-.1 0-.1 17.5-.1 17.5zM56 54.7c.9 0 1.7.7 1.7 1.7 0 .9-.7 1.7-1.7 1.7h-5.4c-.5 0-1 .4-1 1 0 .5.4 1 1 1h7.5c.9 0 1.7.7 1.7 1.7s-.7 1.7-1.7 1.7h-7.5c-.5 0-1 .4-1 1 0 .5.4 1 1 1h5.6c.9 0 1.7.7 1.7 1.7 0 .9-.7 1.7-1.7 1.7h-5.6c-.5 0-1 .4-1 1s.4 1 1 1h3.5c.9 0 1.7.7 1.7 1.7s-.7 1.7-1.7 1.7H40.8c-1.3 0-2.7-.2-3.9-.7l-1.3-.5v-17l2.4-1.3c2-1.1 3.6-2.9 4.4-5.1l1.9-5.3.5.2c1 .3 1.7.9 2.2 1.8s.5 1.9.2 2.9l-1.5 4.6c-.1.3-.1.6.1.9.2.3.5.4.8.4H56z" class="st4"/><path d="M69.7 33.7c-.2-.6-.7-1-1.3-1.1l-1.7-.3-.8-1.6c-.3-.5-.8-.9-1.4-.9-.6 0-1.1.3-1.4.9l-.8 1.6-1.7.3c-.6.1-1.1.5-1.3 1.1-.2.6 0 1.2.4 1.6l1.3 1.2-.3 1.7c-.1.6.1 1.2.6 1.5.3.2.6.3.9.3.3 0 .5-.1.7-.2l1.6-.8 1.6.8c.5.3 1.2.2 1.7-.1.5-.4.7-.9.6-1.5l-.3-1.7 1.3-1.2c.4-.4.5-1 .3-1.6zm-3.1 1.6c-.4.4-.5.9-.5 1.4l.2 1.2-1-.5c-.5-.2-1-.2-1.5 0l-1 .5.2-1.2c.1-.5-.1-1-.5-1.4l-.8-.8 1.2-.2c.5-.1 1-.4 1.2-.9l.5-1 .5 1c.2.5.7.8 1.2.9l1.2.2-.9.8zm15.7-1.6c-.2-.6-.7-1-1.3-1.1l-1.7-.3-.8-1.6c-.3-.5-.8-.9-1.4-.9-.6 0-1.1.3-1.4.9l-.8 1.6-1.7.3c-.6.1-1.1.5-1.3 1.1-.2.6 0 1.2.4 1.6l1.3 1.2-.3 1.7c-.1.6.1 1.2.6 1.5.3.2.6.3.9.3.3 0 .5-.1.7-.2l1.6-.8 1.6.8c.5.3 1.2.2 1.7-.1.5-.4.7-.9.6-1.5l-.3-1.7 1.3-1.2c.4-.4.5-1 .3-1.6zm-3.2 1.6c-.4.4-.5.9-.5 1.4l.2 1.2-1-.5c-.5-.2-1-.2-1.5 0l-1 .5.2-1.2c.1-.5-.1-1-.5-1.4l-.8-.8 1.2-.2c.5-.1 1-.4 1.2-.9l.5-1 .5 1c.2.5.7.8 1.2.9l1.2.2-.9.8zm-21.9-1.6c-.2-.6-.7-1-1.3-1.1l-1.7-.3-.8-1.6c-.3-.5-.8-.9-1.4-.9-.6 0-1.1.3-1.4.9l-.8 1.6-1.8.3c-.6.1-1.1.5-1.3 1.1-.2.6 0 1.2.4 1.6l1.3 1.2-.3 1.7c-.1.6.1 1.2.6 1.5.3.2.6.3.9.3.3 0 .5-.1.7-.2l1.6-.8 1.6.8c.5.3 1.2.2 1.7-.1.5-.4.7-.9.6-1.5l-.3-1.7 1.3-1.2c.4-.4.6-1 .4-1.6zM54 35.3c-.4.4-.5.9-.5 1.4l.2 1.2-1-.5c-.5-.2-1-.2-1.5 0l-1 .5.2-1.2c.1-.5-.1-1-.5-1.4l-.8-.8 1.2-.2c.5-.1 1-.4 1.2-.9l.5-1 .5 1c.2.5.7.8 1.2.9l1.2.2-.9.8zm-9.4-1.6c-.2-.6-.7-1-1.3-1.1l-1.7-.3-.8-1.6c-.3-.5-.8-.9-1.4-.9-.6 0-1.1.3-1.4.9l-.8 1.6-1.7.3c-.6.1-1.1.5-1.3 1.1-.2.6 0 1.2.4 1.6l1.3 1.2-.3 1.7c-.1.6.1 1.2.6 1.5.3.2.6.3.9.3.3 0 .5-.1.7-.2l1.6-.8 1.6.8c.5.3 1.2.2 1.7-.1.5-.4.7-.9.6-1.5l-.3-1.7 1.3-1.2c.3-.4.5-1 .3-1.6zm-3.2 1.6c-.4.4-.5.9-.5 1.4l.2 1.2-1-.5c-.5-.2-1-.2-1.5 0l-1 .5.2-1.2c.1-.5-.1-1-.5-1.4l-.8-.8 1.2-.2c.5-.1 1-.4 1.2-.9l.5-1 .5 1c.2.5.7.8 1.2.9l1.2.2-.9.8zM32 33.7c-.2-.6-.7-1-1.3-1.1l-1.7-.2-.8-1.6c-.3-.5-.8-.9-1.4-.9-.6 0-1.1.3-1.4.9l-.8 1.6-1.7.3c-.6.1-1.1.5-1.3 1.1-.2.6 0 1.2.4 1.6l1.3 1.2-.3 1.7c-.1.6.1 1.2.6 1.5.3.2.6.3.9.3.3 0 .5-.1.7-.2l1.6-.8 1.6.8c.5.3 1.2.2 1.7-.1.5-.4.7-.9.6-1.5l-.3-1.7 1.3-1.2c.3-.5.5-1.1.3-1.7zm-3.2 1.6c-.4.4-.5.9-.5 1.4l.2 1.2-1-.5c-.5-.2-1-.2-1.5 0l-1 .5.2-1.2c.1-.5-.1-1-.5-1.4l-.8-.8 1.2-.2c.5-.1 1-.4 1.2-.9l.5-1 .5 1c.2.5.7.8 1.2.9l1.2.2-.9.8z" class="st4"/></svg>