<svg xmlns="http://www.w3.org/2000/svg" xml:space="preserve" id="Ebene_2_00000003082143268403364210000017331588248483125951_" x="0" y="0" style="enable-background:new 0 0 360 360" version="1.1" viewBox="0 0 360 360"><style>.st2{fill:#f2edd5}</style><g id="bg"><path d="M80 0h200c44.2 0 80 35.8 80 80v200c0 44.2-35.8 80-80 80H80c-44.2 0-80-35.8-80-80V80C0 35.8 35.8 0 80 0z" style="fill:#a13609"/><path d="M95 25h170c38.7 0 70 31.3 70 70v170c0 38.7-31.3 70-70 70H95c-38.7 0-70-31.3-70-70V95c0-38.7 31.3-70 70-70z" style="fill:#2d3f4b"/></g><path id="frame" d="M270 34c14.9 0 28.9 5.8 39.5 16.5S326 75.1 326 90v180c0 14.9-5.9 28.9-16.5 39.5S284.9 326 270 326H90c-14.9 0-28.9-5.9-39.5-16.5S34 284.9 34 270V90c0-14.9 5.8-28.9 16.5-39.5S75.1 34 90 34h180m0-14H90c-38.5 0-70 31.5-70 70v180c0 38.5 31.5 70 70 70h180c38.5 0 70-31.5 70-70V90c0-38.5-31.5-70-70-70z" class="st2"/><path d="M242.6 171.8h-39.2c-8.5 0-15.3-6.9-15.3-15.3v-39.2c0-8.5 6.9-15.3 15.3-15.3h39.2c8.5 0 15.3 6.9 15.3 15.3v39.2c.1 8.5-6.8 15.3-15.3 15.3zM203.5 117c-.2 0-.4.2-.4.4v39.2c0 .2.2.4.4.4h39.2c.2 0 .4-.2.4-.4v-39.2c0-.2-.2-.4-.4-.4h-39.2z" class="st2"/><path d="M211.3 258h-94c-8.5 0-15.3-6.9-15.3-15.3v-94c0-8.5 6.9-15.3 15.3-15.3h39.2c8.5 0 15.3 6.9 15.3 15.3v39.5h39.5c8.5 0 15.3 6.9 15.3 15.3v39.2c0 8.4-6.8 15.3-15.3 15.3zm-39.5-15h39.5c.2 0 .4-.2.4-.4v-39.2c0-.2-.2-.4-.4-.4h-39.5v40zM117 203.1v39.6c0 .2.2.4.4.4h39.5v-39.9l-39.9-.1zm0-14.9h39.9v-39.5c0-.2-.2-.4-.4-.4h-39.1c-.2 0-.4.2-.4.4v39.5z" class="st2"/></svg>