<svg viewBox="0 0 390 390" xmlns="http://www.w3.org/2000/svg" fill-rule="evenodd" clip-rule="evenodd" stroke-linejoin="round" stroke-miterlimit="1.414"><path d="M99.358 195.005l47.91-82.99h66.975l-42.035-72.794h-52.722c-10.034 0-16.4 3.744-21.818 13.125-4.475 7.747-72.275 125.19-76.153 131.906-3.875 6.716-4.366 13.944-.332 20.931l36.147 62.61 42.028-72.788z" fill="#009fe3" fill-rule="nonzero"/><path d="M243.093 277.985h-95.819l-47.915-82.981-42.028 72.788s35.775 61.962 40.787 70.653c5.022 8.69 11.447 12.334 22.278 12.334h164.728l42.025-72.794h-84.056z" fill="#1470b8" fill-rule="nonzero"/><path d="M243.093 112.014l47.913 82.985-33.485 57.996h84.053l26.363-45.659c5.019-8.697 4.962-16.078-.456-25.462-5.416-9.375-82.36-142.65-82.36-142.65h-84.053l42.025 72.79z" fill="#009640" fill-rule="nonzero"/></svg>
