<svg xmlns="http://www.w3.org/2000/svg" viewBox="0 0 100 100"><title>DER HÄUPTLING</title><polygon points="30.8 66.2 45.4 66.2 45.4 62.6 39.8 62.6 39.8 51.5 59.4 51.5 59.4 62.6 54 62.6 54 66.2 68.4 66.2 68.4 62.6 63.5 62.6 63.5 36.9 68.4 36.9 68.4 33.5 54 33.5 54 36.9 59.4 36.9 59.4 47.9 39.8 47.9 39.8 36.9 45.4 36.9 45.4 33.5 30.8 33.5 30.8 36.9 35.7 36.9 35.7 62.6 30.8 62.6 30.8 66.2"/><polygon points="0.2 1.6 0.2 98.4 62 98.4 62 94.8 4.1 94.8 4.1 74.8 11.6 74.8 11.6 88.2 15 88.2 15 81.6 15.2 80.9 15.2 45.9 22.5 45.9 22.5 77.3 77.3 77.3 77.3 53.2 83.9 53.2 84.8 53.4 88.4 53.4 88.4 11.6 11.6 11.6 11.6 35.5 15.2 35.5 15.2 15 84.8 15 84.8 49.5 77.3 49.5 77.3 22.5 43.2 22.5 43.2 25.9 73.9 25.9 73.9 73.9 26.1 73.9 26.1 25.9 36.4 25.9 36.4 22.5 22.5 22.5 22.5 42.3 11.6 42.3 11.6 71.1 4.1 71.1 4.1 5.5 96.3 5.5 96.3 94.8 72.3 94.8 72.3 88.2 88.4 88.2 88.4 60 84.8 60 84.8 84.8 21.8 84.8 21.8 88.2 68.6 88.2 68.6 98.4 99.8 98.4 99.8 1.6 0.2 1.6"/></svg>