<svg xmlns="http://www.w3.org/2000/svg" viewBox="0 0 100 100"><linearGradient id="a" x1="79.6" x2="20.4" y1="108.1" y2="-8.2" gradientUnits="userSpaceOnUse"><stop offset="0" stop-color="#c3ac14"/><stop offset="1" stop-color="#dfe136"/></linearGradient><path fill="url(#a)" d="M0 5.7C0 2.6 2.6 0 5.7 0h88.6c3.1 0 5.7 2.6 5.7 5.7v88.6c0 3.1-2.6 5.7-5.7 5.7H5.7A6 6 0 0 1 0 94.2V5.7z"/><g fill="#fff"><g fill-rule="evenodd" opacity=".9"><path d="M84.8 88.7v.8l.1.1 1.1.6 1.7 1 1.2.7.1.2v1.5l-4.1-2.4v.7l.1.1 3.9 2.3.1.3V96l-.2-.1-5.2-3-.1-.2v-6.3l.2.1 4.5 2.7.7.4.1.2v1.5l-4.2-2.6z"/><path d="M92.2 94.8V90a2 2 0 0 0-.6.4v4.7c0 .1 0 .2-.2.3l-1.2.7v-6.2l.1-.2 5.3-3.1.1-.1v6.1c0 .3-.1.4-.3.5l-1 .6-.2.1V89l-.7.4v4.8l-.1.1c-.3-.1-.8.2-1.2.5z" opacity=".8"/><path d="M89.8 88.5a145.6 145.6 0 0 1-5.7-3.1l-.3-.2.2-.1 5.4-3.2h.3l5.4 3.2.1.1-.1.1-5.1 3-.2.2zm-3.2-3.3.2.1 2.6 1.5h.3l2.6-1.5.1-.1-.1-.1-2.7-1.5c-.1-.1-.2 0-.2 0l-2.6 1.5-.2.1z" opacity=".6"/></g><g stroke="#fff" stroke-miterlimit="10" stroke-width=".6"><path d="M80.4 68.9c0-.1 0-.1 0 0v-.3l-.1-.1-2.5-3.8-7-10.5-.1-.1H58.3c3.5-4.7 7-10.9 7-17.1a15.2 15.2 0 1 0-30.4-.4c0 6.2 3.5 12.4 7 17.1H30.1c-.3 0-.6.2-.8.4l-2.5 3.8-7 10.4-.1.1-.1.2v3.9c0 .5.4 1 1 1h58.9c.5 0 1-.4 1-1l-.1-3.6c0 .1 0 .1 0 0zm-8.7-.9-.9-1.9h5.7l1.3 1.9h-6.1zM68 60.4l-2.3-4.8h3.7l3.2 4.8H68zM50.1 23.3c7.3 0 13.3 6 13.3 13.3 0 10.2-10.6 20.9-13.3 23.4l-1-1-.4-.5c-3.9-4-11.8-13.1-11.8-22a13.1 13.1 0 0 1 13.2-13.2zm9.2 37.1.8 2.9H40l.8-2.9h6.8l1.8 1.7c.2.2.4.2.6.2l.6-.2 1.8-1.7h6.9zm-13.5-1.9h-5.7a1 1 0 0 0-.9.7l-1.3 4.7v.4c.1.3.3.6.7.7h23l.3-.1.2-.2.2-.4v-.4L61 59.2a1 1 0 0 0-.9-.7h-5.8l2.5-2.9h6.9l2.9 6.1c.2.3.5.5.9.5H74l1.3 1.9h-5.9l-.5.1c-.4.2-.6.6-.5 1.1v.2l1.2 2.4H30.5l4.3-9.1.1-.5a1 1 0 0 0-.2-.6l-.1-.1h-5.3l1.3-1.9h12.7l2.5 2.8zm-17.7 1h4.4l-4.1 8.6h-6l5.7-8.6zm50.4 12.3h-57v-1.9h57v1.9z"/><path d="M55.8 44.2a1 1 0 0 0 0-2V37l.4.3.6.2c.3 0 .6-.1.8-.4a.95.95 0 0 0-.2-1.3L50.7 31h-1l-3.4 2.4v-1.5a1 1 0 0 0-2 0v2.9l-1.5 1.1a1 1 0 0 0-.2 1.3c.2.3.5.4.8.4l.6-.2.4-.3v5.2a1 1 0 0 0 0 2l11.4-.1zm-9.5-8.4 3.8-2.7 3.8 2.7v6.6H51v-2a1 1 0 0 0-2 0v1.9h-2.7v-6.5z" opacity=".7"/></g></g></svg>