<svg width="500" height="500" viewBox="0 0 500 500" fill="none" xmlns="http://www.w3.org/2000/svg">
<rect width="500" height="500" fill="black"/>
<path fill-rule="evenodd" clip-rule="evenodd" d="M228.913 177C249.699 177 270.742 189.011 270.742 211.964C270.742 231.17 257.236 241.518 243.603 249.005L267.084 272.837C269.051 268.619 269.667 262.907 270.002 257.772C270.414 251.603 270.414 245.22 270.414 240.995V239.901L310.636 239.901V261.255H293.529C292.687 273.751 289.956 283.189 284.981 290.795C289.509 295.305 293.899 299.769 298.265 304.212C302.68 308.704 307.07 313.172 311.567 317.643L313.445 319.517H278.726L268.712 309.066C257.183 318.184 242.8 323 227.045 323C194.262 323 177.108 301.516 177.108 280.292C177.108 264.9 185.46 252.468 202.623 242.309C193.715 233.198 187.503 225.497 187.503 212.741C187.503 191.696 204.533 177 228.913 177ZM120.702 187.956C149.381 187.956 165.005 207.285 165.005 230.372C165.005 253.251 149.184 272.784 120.702 272.784H87.0833L87.0833 319.541H59L59 187.956H120.702ZM396.705 187.956C425.38 187.956 441 207.285 441 230.372C441 253.251 425.186 272.784 396.705 272.784H363.086V319.541H335.002V187.956H396.705ZM219.367 259.005C209.29 264.637 203.208 268.985 203.208 279.319C203.208 293.407 215.907 299.713 228.501 299.713C235.492 299.713 245.058 298.402 251.672 292.275C246.224 286.725 240.914 281.224 235.604 275.723C230.238 270.166 224.875 264.612 219.367 259.005ZM116.946 212.611H87.0833L87.0833 248.126H116.946C128.021 248.126 136.329 241.219 136.329 230.372C136.329 219.317 128.021 212.611 116.946 212.611ZM392.948 212.611H363.086V248.126H392.948C404.023 248.126 412.328 241.219 412.328 230.372C412.328 219.317 404.023 212.611 392.948 212.611ZM228.913 199.127C221.288 199.127 213.599 203.215 213.599 212.351C213.599 219.838 219.766 225.655 225.21 230.79C225.682 231.233 226.154 231.68 226.615 232.123L227.035 231.908C235.879 227.441 244.227 223.216 244.227 212.931C244.227 204.544 238.215 199.127 228.913 199.127Z" fill="white"/>
</svg>
