<svg xmlns="http://www.w3.org/2000/svg" viewBox="0 0 501.45 427.24"><defs><style>.cls-1{fill:#333a46;}.cls-2{fill:none;stroke:#7bc0bc;stroke-linecap:round;stroke-miterlimit:10;stroke-width:11px;}.cls-3{fill:#7ac0bc;}</style></defs><title>Element 1</title><g id="Ebene_2" data-name="Ebene 2"><g id="Ebene_18" data-name="Ebene 18"><polygon class="cls-1" points="406.97 364.46 1.45 364.46 95.93 0 501.45 0 406.97 364.46"/><path class="cls-1" d="M26.14,421.73A3.85,3.85,0,0,0,28,423.21l-1.19,4a7.51,7.51,0,0,1-3.74-1.45,6.66,6.66,0,0,1-2.1-3.53,9.75,9.75,0,0,1-8.9,5,9,9,0,0,1-7-2.77,10.3,10.3,0,0,1-2.55-7.25q0-5.3,3.43-8.13t9.73-2.83H20.3V403.8q0-3.53-1.53-5a6.45,6.45,0,0,0-4.71-1.51A24.18,24.18,0,0,0,6,399l-1.3-4.22A27.47,27.47,0,0,1,15,392.52q5.26,0,7.88,2.87t2.61,8.16v15.18A5.67,5.67,0,0,0,26.14,421.73Zm-5.84-4V410.1H16.39q-8.28,0-8.28,6.81a6.68,6.68,0,0,0,1.3,4.47,4.82,4.82,0,0,0,3.86,1.51Q17.74,422.89,20.3,417.72Z" transform="translate(-2.55)"/><path class="cls-1" d="M53.84,395.23a11.16,11.16,0,0,1,2.29,7.44v23.81H50.92v-23c0-2.36-.4-4-1.19-5a4.29,4.29,0,0,0-3.52-1.45,6.36,6.36,0,0,0-4.2,1.51,15.42,15.42,0,0,0-3.4,4.35v23.56H33.4v-33.2h4.48l.45,4.91A12.38,12.38,0,0,1,42.27,394a9.4,9.4,0,0,1,5.19-1.52A7.93,7.93,0,0,1,53.84,395.23Z" transform="translate(-2.55)"/><path class="cls-1" d="M69,378.48a4.07,4.07,0,0,1,1,2.83,4,4,0,0,1-1,2.8,3.45,3.45,0,0,1-2.66,1.11,3.39,3.39,0,0,1-2.61-1.11,4,4,0,0,1-1-2.8,4.07,4.07,0,0,1,1-2.83,3.35,3.35,0,0,1,2.61-1.14A3.41,3.41,0,0,1,69,378.48Zm0,48H63.79v-33.2H69Z" transform="translate(-2.55)"/><path class="cls-1" d="M112.83,395.26a11.44,11.44,0,0,1,2.21,7.41v23.81h-5.21v-23q0-6.44-4.2-6.43a5.29,5.29,0,0,0-3.74,1.42,19.26,19.26,0,0,0-3.29,4.44v23.56H93.38v-23c0-4.29-1.39-6.43-4.19-6.43a5.3,5.3,0,0,0-3.8,1.45,19.65,19.65,0,0,0-3.23,4.41v23.56H76.94v-33.2h4.48l.45,4.85q3.34-5.61,8.62-5.61a7.35,7.35,0,0,1,4.74,1.58,8.65,8.65,0,0,1,2.8,4.41,15,15,0,0,1,3.89-4.44,8.3,8.3,0,0,1,5-1.55A7.2,7.2,0,0,1,112.83,395.26Z" transform="translate(-2.55)"/><path class="cls-1" d="M143.45,421.73a3.9,3.9,0,0,0,1.87,1.48l-1.19,4a7.51,7.51,0,0,1-3.74-1.45,6.66,6.66,0,0,1-2.1-3.53,9.75,9.75,0,0,1-8.9,5,9.06,9.06,0,0,1-7-2.77,10.3,10.3,0,0,1-2.55-7.25c0-3.53,1.15-6.24,3.43-8.13s5.53-2.83,9.73-2.83h4.59V403.8q0-3.53-1.53-5a6.45,6.45,0,0,0-4.71-1.51,24.18,24.18,0,0,0-8.05,1.76l-1.3-4.22a27.47,27.47,0,0,1,10.32-2.27q5.26,0,7.88,2.87t2.61,8.16v15.18A5.67,5.67,0,0,0,143.45,421.73Zm-5.84-4V410.1H133.7q-8.28,0-8.28,6.81a6.68,6.68,0,0,0,1.3,4.47,4.82,4.82,0,0,0,3.86,1.51Q135.05,422.89,137.61,417.72Z" transform="translate(-2.55)"/><path class="cls-1" d="M165.79,425a10.72,10.72,0,0,1-6.69,2.27,7.48,7.48,0,0,1-5.93-2.43c-1.41-1.61-2.12-4-2.12-7v-20h-5.22v-4.47h5.22v-7.5l5.21-.69v8.19h7.09l-.57,4.47h-6.52v19.79a6.57,6.57,0,0,0,.83,3.74,3.11,3.11,0,0,0,2.75,1.17,7.07,7.07,0,0,0,4-1.45Z" transform="translate(-2.55)"/><path class="cls-1" d="M190.23,411.87h-19q.33,5.47,2.49,8.06a6.92,6.92,0,0,0,5.56,2.58,11.11,11.11,0,0,0,4-.69,15.53,15.53,0,0,0,3.8-2.21l2.26,3.47a15.53,15.53,0,0,1-10.43,4.16,11.54,11.54,0,0,1-9.72-4.54q-3.5-4.53-3.49-12.47a26,26,0,0,1,1.5-9.17,14.27,14.27,0,0,1,4.31-6.27,10.2,10.2,0,0,1,6.61-2.27,10.62,10.62,0,0,1,9.13,4.35q3.17,4.35,3.17,12C190.34,409.87,190.3,410.86,190.23,411.87Zm-5-4.67q0-4.9-1.76-7.49a6,6,0,0,0-5.27-2.59q-6.41,0-7,10.46h14Z" transform="translate(-2.55)"/><path class="cls-1" d="M219.26,379.92v46.56h-4.6l-.51-4.6a11.47,11.47,0,0,1-3.68,3.94,9,9,0,0,1-4.94,1.42,9.34,9.34,0,0,1-8.3-4.67q-3-4.65-3-12.53a26.74,26.74,0,0,1,1.42-9.07,14,14,0,0,1,4.08-6.21,9.43,9.43,0,0,1,6.24-2.24,10.31,10.31,0,0,1,8,4.1V379.23Zm-8.51,41.49a13.64,13.64,0,0,0,3.29-3.69V401.47a11.63,11.63,0,0,0-3.15-3.24,6.65,6.65,0,0,0-3.77-1.11,5.93,5.93,0,0,0-5.36,3.22c-1.26,2.14-1.9,5.33-1.9,9.57s.59,7.48,1.76,9.58a5.52,5.52,0,0,0,5,3.15A6.76,6.76,0,0,0,210.75,421.41Z" transform="translate(-2.55)"/><path class="cls-1" d="M254.47,425a10.72,10.72,0,0,1-6.69,2.27,7.46,7.46,0,0,1-5.93-2.43c-1.42-1.61-2.13-4-2.13-7v-20h-5.21v-4.47h5.21v-7.5l5.22-.69v8.19H252l-.57,4.47h-6.52v19.79a6.58,6.58,0,0,0,.82,3.74,3.13,3.13,0,0,0,2.75,1.17,7,7,0,0,0,4-1.45Z" transform="translate(-2.55)"/><path class="cls-1" d="M262.23,378.48a4.07,4.07,0,0,1,1,2.83,4,4,0,0,1-1,2.8,3.45,3.45,0,0,1-2.66,1.11,3.39,3.39,0,0,1-2.61-1.11,4,4,0,0,1-1-2.8,4.07,4.07,0,0,1,1-2.83,3.35,3.35,0,0,1,2.61-1.14A3.41,3.41,0,0,1,262.23,378.48Zm0,48H257v-33.2h5.21Z" transform="translate(-2.55)"/><path class="cls-1" d="M306.06,395.26a11.44,11.44,0,0,1,2.21,7.41v23.81h-5.21v-23q0-6.44-4.2-6.43a5.29,5.29,0,0,0-3.74,1.42,19.26,19.26,0,0,0-3.29,4.44v23.56h-5.21v-23q0-6.44-4.2-6.43a5.3,5.3,0,0,0-3.8,1.45,19.65,19.65,0,0,0-3.23,4.41v23.56h-5.22v-33.2h4.48l.45,4.85q3.34-5.61,8.62-5.61a7.35,7.35,0,0,1,4.74,1.58,8.65,8.65,0,0,1,2.8,4.41,15.1,15.1,0,0,1,3.89-4.44,8.32,8.32,0,0,1,5-1.55A7.2,7.2,0,0,1,306.06,395.26Z" transform="translate(-2.55)"/><path class="cls-1" d="M338.38,411.87H319.33q.35,5.47,2.5,8.06a6.88,6.88,0,0,0,5.55,2.58,11.07,11.07,0,0,0,4-.69,15.35,15.35,0,0,0,3.8-2.21l2.27,3.47A15.57,15.57,0,0,1,327,427.24a11.57,11.57,0,0,1-9.72-4.54q-3.48-4.53-3.49-12.47a25.78,25.78,0,0,1,1.51-9.17,14.19,14.19,0,0,1,4.31-6.27,10.19,10.19,0,0,1,6.6-2.27,10.62,10.62,0,0,1,9.13,4.35q3.18,4.35,3.18,12Q338.5,410.36,338.38,411.87Zm-5-4.67q0-4.9-1.76-7.49a6,6,0,0,0-5.28-2.59q-6.41,0-7,10.46h14Z" transform="translate(-2.55)"/><path class="cls-1" d="M345.67,425.32a7.94,7.94,0,0,1-1.68-5.39v-40l5.22-.69V419.8a3.63,3.63,0,0,0,.43,2,1.6,1.6,0,0,0,1.44.63,4.75,4.75,0,0,0,1.93-.38l1.36,4a7.82,7.82,0,0,1-4.14,1.14A5.72,5.72,0,0,1,345.67,425.32Z" transform="translate(-2.55)"/><path class="cls-1" d="M363.27,378.48a4.07,4.07,0,0,1,1,2.83,4,4,0,0,1-1,2.8,3.45,3.45,0,0,1-2.66,1.11,3.39,3.39,0,0,1-2.61-1.11,4,4,0,0,1-1-2.8,4.07,4.07,0,0,1,1-2.83,3.35,3.35,0,0,1,2.61-1.14A3.41,3.41,0,0,1,363.27,378.48Zm0,48h-5.21v-33.2h5.21Z" transform="translate(-2.55)"/><path class="cls-1" d="M391.65,395.23a11.17,11.17,0,0,1,2.3,7.44v23.81h-5.22v-23c0-2.36-.4-4-1.19-5a4.28,4.28,0,0,0-3.52-1.45,6.35,6.35,0,0,0-4.19,1.51,15.24,15.24,0,0,0-3.4,4.35v23.56h-5.22v-33.2h4.48l.45,4.91a12.38,12.38,0,0,1,3.94-4.15,9.4,9.4,0,0,1,5.19-1.52A7.93,7.93,0,0,1,391.65,395.23Z" transform="translate(-2.55)"/><path class="cls-1" d="M424.05,411.87H405q.35,5.47,2.5,8.06a6.9,6.9,0,0,0,5.55,2.58,11.07,11.07,0,0,0,4-.69,15.35,15.35,0,0,0,3.8-2.21l2.27,3.47a15.53,15.53,0,0,1-10.43,4.16,11.57,11.57,0,0,1-9.73-4.54q-3.48-4.53-3.48-12.47a26,26,0,0,1,1.5-9.17,14.27,14.27,0,0,1,4.31-6.27,10.19,10.19,0,0,1,6.6-2.27,10.61,10.61,0,0,1,9.13,4.35q3.18,4.35,3.18,12Q424.17,410.36,424.05,411.87Zm-5-4.67q0-4.9-1.76-7.49a6,6,0,0,0-5.27-2.59q-6.41,0-7,10.46h14Z" transform="translate(-2.55)"/><line class="cls-2" x1="96.45" y1="190.23" x2="398.45" y2="190.23"/><line class="cls-2" x1="119.95" y1="185.73" x2="119.95" y2="138.73"/><line class="cls-2" x1="223.95" y1="185.73" x2="223.95" y2="138.73"/><line class="cls-2" x1="356.95" y1="185.73" x2="356.95" y2="138.73"/><line class="cls-2" x1="178.95" y1="236.73" x2="178.95" y2="189.73"/><line class="cls-2" x1="309.95" y1="236.73" x2="309.95" y2="189.73"/><circle class="cls-3" cx="119.95" cy="189.73" r="13.5"/><circle class="cls-3" cx="178.95" cy="189.73" r="13.5"/><circle class="cls-3" cx="223.95" cy="189.73" r="13.5"/><circle class="cls-3" cx="309.95" cy="189.73" r="13.5"/><circle class="cls-3" cx="356.95" cy="189.73" r="13.5"/></g></g></svg>