<svg xmlns="http://www.w3.org/2000/svg" viewBox="0 0 501.45 427.24"><defs><style>.cls-1{fill:#333a46}.cls-2{fill:none;stroke:#7bc0bc;stroke-linecap:round;stroke-miterlimit:10;stroke-width:11px}.cls-3{fill:#7ac0bc}</style></defs><g id="Ebene_2" data-name="Ebene 2"><g id="Ebene_18" data-name="Ebene 18"><path d="M406.97 364.46H1.45L95.93 0h405.52l-94.48 364.46z" class="cls-1"/><path d="M26.14 421.73a3.85 3.85 0 001.86 1.48l-1.19 4a7.51 7.51 0 01-3.74-1.45 6.66 6.66 0 01-2.1-3.53 9.75 9.75 0 01-8.9 5 9 9 0 01-7-2.77 10.3 10.3 0 01-2.55-7.25q0-5.3 3.43-8.13t9.73-2.83h4.62v-2.45q0-3.53-1.53-5a6.45 6.45 0 00-4.71-1.51A24.18 24.18 0 006 399l-1.3-4.22a27.47 27.47 0 0110.3-2.26q5.26 0 7.88 2.87t2.61 8.16v15.18a5.67 5.67 0 00.65 3zm-5.84-4v-7.63h-3.91q-8.28 0-8.28 6.81a6.68 6.68 0 001.3 4.47 4.82 4.82 0 003.86 1.51q4.47 0 7.03-5.17zM53.84 395.23a11.16 11.16 0 012.29 7.44v23.81h-5.21v-23c0-2.36-.4-4-1.19-5a4.29 4.29 0 00-3.52-1.45 6.36 6.36 0 00-4.2 1.51 15.42 15.42 0 00-3.4 4.35v23.56H33.4v-33.2h4.48l.45 4.91a12.38 12.38 0 013.94-4.16 9.4 9.4 0 015.19-1.52 7.93 7.93 0 016.38 2.75zM69 378.48a4.07 4.07 0 011 2.83 4 4 0 01-1 2.8 3.45 3.45 0 01-2.66 1.11 3.39 3.39 0 01-2.61-1.11 4 4 0 01-1-2.8 4.07 4.07 0 011-2.83 3.35 3.35 0 012.61-1.14 3.41 3.41 0 012.66 1.14zm0 48h-5.21v-33.2H69zM112.83 395.26a11.44 11.44 0 012.21 7.41v23.81h-5.21v-23q0-6.44-4.2-6.43a5.29 5.29 0 00-3.74 1.42 19.26 19.26 0 00-3.29 4.44v23.56h-5.22v-23c0-4.29-1.39-6.43-4.19-6.43a5.3 5.3 0 00-3.8 1.45 19.65 19.65 0 00-3.23 4.41v23.56h-5.22v-33.2h4.48l.45 4.85q3.34-5.61 8.62-5.61a7.35 7.35 0 014.74 1.58 8.65 8.65 0 012.8 4.41 15 15 0 013.89-4.44 8.3 8.3 0 015-1.55 7.2 7.2 0 015.91 2.76zM143.45 421.73a3.9 3.9 0 001.87 1.48l-1.19 4a7.51 7.51 0 01-3.74-1.45 6.66 6.66 0 01-2.1-3.53 9.75 9.75 0 01-8.9 5 9.06 9.06 0 01-7-2.77 10.3 10.3 0 01-2.55-7.25c0-3.53 1.15-6.24 3.43-8.13s5.53-2.83 9.73-2.83h4.59v-2.45q0-3.53-1.53-5a6.45 6.45 0 00-4.71-1.51 24.18 24.18 0 00-8.05 1.76l-1.3-4.22a27.47 27.47 0 0110.32-2.27q5.26 0 7.88 2.87t2.61 8.16v15.18a5.67 5.67 0 00.64 2.96zm-5.84-4v-7.63h-3.91q-8.28 0-8.28 6.81a6.68 6.68 0 001.3 4.47 4.82 4.82 0 003.86 1.51q4.47 0 7.03-5.17zM165.79 425a10.72 10.72 0 01-6.69 2.27 7.48 7.48 0 01-5.93-2.43c-1.41-1.61-2.12-4-2.12-7v-20h-5.22v-4.47h5.22v-7.5l5.21-.69v8.19h7.09l-.57 4.47h-6.52v19.79a6.57 6.57 0 00.83 3.74 3.11 3.11 0 002.75 1.17 7.07 7.07 0 004-1.45zM190.23 411.87h-19q.33 5.47 2.49 8.06a6.92 6.92 0 005.56 2.58 11.11 11.11 0 004-.69 15.53 15.53 0 003.8-2.21l2.26 3.47a15.53 15.53 0 01-10.43 4.16 11.54 11.54 0 01-9.72-4.54q-3.5-4.53-3.49-12.47a26 26 0 011.5-9.17 14.27 14.27 0 014.31-6.27 10.2 10.2 0 016.61-2.27 10.62 10.62 0 019.13 4.35q3.17 4.35 3.17 12c-.08 1-.12 1.99-.19 3zm-5-4.67q0-4.9-1.76-7.49a6 6 0 00-5.27-2.59q-6.41 0-7 10.46h14zM219.26 379.92v46.56h-4.6l-.51-4.6a11.47 11.47 0 01-3.68 3.94 9 9 0 01-4.94 1.42 9.34 9.34 0 01-8.3-4.67q-3-4.65-3-12.53a26.74 26.74 0 011.42-9.07 14 14 0 014.08-6.21 9.43 9.43 0 016.24-2.24 10.31 10.31 0 018 4.1v-17.39zm-8.51 41.49a13.64 13.64 0 003.29-3.69v-16.25a11.63 11.63 0 00-3.15-3.24 6.65 6.65 0 00-3.77-1.11 5.93 5.93 0 00-5.36 3.22c-1.26 2.14-1.9 5.33-1.9 9.57s.59 7.48 1.76 9.58a5.52 5.52 0 005 3.15 6.76 6.76 0 004.13-1.23zM254.47 425a10.72 10.72 0 01-6.69 2.27 7.46 7.46 0 01-5.93-2.43c-1.42-1.61-2.13-4-2.13-7v-20h-5.21v-4.47h5.21v-7.5l5.22-.69v8.19H252l-.57 4.47h-6.52v19.79a6.58 6.58 0 00.82 3.74 3.13 3.13 0 002.75 1.17 7 7 0 004-1.45zM262.23 378.48a4.07 4.07 0 011 2.83 4 4 0 01-1 2.8 3.45 3.45 0 01-2.66 1.11 3.39 3.39 0 01-2.61-1.11 4 4 0 01-1-2.8 4.07 4.07 0 011-2.83 3.35 3.35 0 012.61-1.14 3.41 3.41 0 012.66 1.14zm0 48H257v-33.2h5.21zM306.06 395.26a11.44 11.44 0 012.21 7.41v23.81h-5.21v-23q0-6.44-4.2-6.43a5.29 5.29 0 00-3.74 1.42 19.26 19.26 0 00-3.29 4.44v23.56h-5.21v-23q0-6.44-4.2-6.43a5.3 5.3 0 00-3.8 1.45 19.65 19.65 0 00-3.23 4.41v23.56h-5.22v-33.2h4.48l.45 4.85q3.34-5.61 8.62-5.61a7.35 7.35 0 014.74 1.58 8.65 8.65 0 012.8 4.41 15.1 15.1 0 013.89-4.44 8.32 8.32 0 015-1.55 7.2 7.2 0 015.91 2.76zM338.38 411.87h-19.05q.35 5.47 2.5 8.06a6.88 6.88 0 005.55 2.58 11.07 11.07 0 004-.69 15.35 15.35 0 003.8-2.21l2.27 3.47a15.57 15.57 0 01-10.45 4.16 11.57 11.57 0 01-9.72-4.54q-3.48-4.53-3.49-12.47a25.78 25.78 0 011.51-9.17 14.19 14.19 0 014.31-6.27 10.19 10.19 0 016.6-2.27 10.62 10.62 0 019.13 4.35q3.18 4.35 3.18 12-.02 1.49-.14 3zm-5-4.67q0-4.9-1.76-7.49a6 6 0 00-5.28-2.59q-6.41 0-7 10.46h14zM345.67 425.32a7.94 7.94 0 01-1.68-5.39v-40l5.22-.69v40.56a3.63 3.63 0 00.43 2 1.6 1.6 0 001.44.63 4.75 4.75 0 001.93-.38l1.36 4a7.82 7.82 0 01-4.14 1.14 5.72 5.72 0 01-4.56-1.87zM363.27 378.48a4.07 4.07 0 011 2.83 4 4 0 01-1 2.8 3.45 3.45 0 01-2.66 1.11 3.39 3.39 0 01-2.61-1.11 4 4 0 01-1-2.8 4.07 4.07 0 011-2.83 3.35 3.35 0 012.61-1.14 3.41 3.41 0 012.66 1.14zm0 48h-5.21v-33.2h5.21zM391.65 395.23a11.17 11.17 0 012.3 7.44v23.81h-5.22v-23c0-2.36-.4-4-1.19-5a4.28 4.28 0 00-3.52-1.45 6.35 6.35 0 00-4.19 1.51 15.24 15.24 0 00-3.4 4.35v23.56h-5.22v-33.2h4.48l.45 4.91a12.38 12.38 0 013.94-4.15 9.4 9.4 0 015.19-1.52 7.93 7.93 0 016.38 2.74zM424.05 411.87H405q.35 5.47 2.5 8.06a6.9 6.9 0 005.55 2.58 11.07 11.07 0 004-.69 15.35 15.35 0 003.8-2.21l2.27 3.47a15.53 15.53 0 01-10.43 4.16 11.57 11.57 0 01-9.73-4.54q-3.48-4.53-3.48-12.47a26 26 0 011.5-9.17 14.27 14.27 0 014.31-6.27 10.19 10.19 0 016.6-2.27 10.61 10.61 0 019.13 4.35q3.18 4.35 3.18 12-.03 1.49-.15 3zm-5-4.67q0-4.9-1.76-7.49a6 6 0 00-5.27-2.59q-6.41 0-7 10.46h14z" class="cls-1" transform="translate(-2.55)"/><path d="M96.45 190.23h302M119.95 185.73v-47M223.95 185.73v-47M356.95 185.73v-47M178.95 236.73v-47M309.95 236.73v-47" class="cls-2"/><circle cx="119.95" cy="189.73" r="13.5" class="cls-3"/><circle cx="178.95" cy="189.73" r="13.5" class="cls-3"/><circle cx="223.95" cy="189.73" r="13.5" class="cls-3"/><circle cx="309.95" cy="189.73" r="13.5" class="cls-3"/><circle cx="356.95" cy="189.73" r="13.5" class="cls-3"/></g></g></svg>
