<svg xmlns="http://www.w3.org/2000/svg" width="90" height="90"><linearGradient id="a" gradientUnits="userSpaceOnUse" x1="0" y1="2" x2="90" y2="92" gradientTransform="matrix(1 0 0 -1 0 92)"><stop offset="0" stop-color="#b0084d"/><stop offset="1" stop-color="#ff4f8b"/></linearGradient><path fill="url(#a)" d="M0 0h90v90H0z"/><g fill="#fff"><path d="M31 16.3c4.7-2.6 10-4.1 15.4-4.1 3.9 0 7.8.4 11.6 1.4 2.8.8 5.4 2 7.8 3.6-.5.7-.9 1.4-1.4 2-3.5-2.4-7.6-3.7-11.8-4.3-3.1-.4-6.2-.5-9.3-.2-7.2.9-14.1 4.5-19 9.9-3.6 4-6.2 9-7.3 14.2 1.9.4 3.6 1.9 4 3.8h7.2V45H21c-.4 1.9-2.2 3.4-4.1 3.8 1.3 7.3 5.2 14.2 10.8 19.1 5.1 4.4 11.6 7.1 18.3 7.2 4 .1 8-.9 11.8-2.3 3.1-1.2 6.1-2.8 8.9-4.7.5.7 1 1.3 1.4 2a42.7 42.7 0 01-8.4 4.6 37.9 37.9 0 01-8.7 2.6c-6.7 1.1-13.8-.4-19.7-3.8-5.3-3-9.6-7.5-12.6-12.7a38 38 0 01-4.4-12.2 5.5 5.5 0 01-3-2.6c-.7-1.5-.7-3.3.2-4.7.6-1.1 1.7-1.8 2.8-2.2.8-3.9 2.2-7.7 4.3-11.1 3.2-4.8 7.4-8.9 12.4-11.7M15.1 41.5c-.7.3-1.3.9-1.6 1.7-.6 1.6.7 3.4 2.3 3.4 1.6.2 3.1-1.4 2.9-3 0-1.6-2-2.7-3.6-2.1z"/><path d="M68.5 20.3c1.4-1 3.4-1.2 5-.5 1.4.6 2.6 1.9 3 3.5.3 1.1.2 2.3-.3 3.3-.8 1.7-2.5 2.9-4.3 3a5 5 0 01-5.3-3.8h-3.8v17H69c.3-1.2 1-2.3 2.1-3 1.4-1 3.3-1.1 4.9-.5 1.4.6 2.6 1.9 3 3.4a5.15 5.15 0 01-3.7 6.2c-1.5.4-3.3.1-4.5-1-.9-.7-1.5-1.7-1.7-2.7h-6.2v17.1h3.8c.3-1.2 1-2.2 2-2.9a5.4 5.4 0 014.3-.8 5.05 5.05 0 013.4 6.9c-.6 1.4-1.9 2.6-3.4 3-1.2.3-2.4.2-3.5-.3-1.4-.7-2.4-1.9-2.8-3.4h-5c-.7 0-1.3-.6-1.2-1.2V45.3H53v-2.4h7.5V24.6c0-.7.6-1.2 1.2-1.2h5c.1-1.3.8-2.4 1.8-3.1m1.9 1.7c-.9.4-1.6 1.3-1.6 2.2-.2 1.5 1.2 3 2.7 2.9 1.6 0 2.9-1.6 2.6-3.1-.3-1.6-2.2-2.6-3.7-2m2.7 19.4c-1.1.3-2 1.5-1.9 2.7 0 1.4 1.4 2.7 2.8 2.5 1.5 0 2.8-1.5 2.5-3-.1-1.6-1.9-2.7-3.4-2.2M70.4 61c-1.1.4-1.8 1.6-1.6 2.8.1 1.4 1.4 2.5 2.8 2.3 1.5-.1 2.8-1.6 2.4-3.1-.2-1.6-2.1-2.6-3.6-2zM40.3 32.8c3.1 0 6.2.1 9.1.9 1.1.3 2.4.8 3 1.8.4.7.3 1.5-.1 2.1L45.4 52c-.1.2-.2.4-.2.6v5.7c0 .5-.2 1.2-.8 1.4L37.2 63c-.5.3-1.1.1-1.4-.3-.3-.4-.3-.9-.3-1.4v-8.9c-1.6-3.7-3.3-7.3-5-10.9-.7-1.4-1.3-2.9-2-4.4-.3-.6-.2-1.5.3-2 .7-.8 1.7-1.2 2.7-1.5 2.9-.6 5.9-.8 8.8-.8m-6.2 2.9c-1 .2-2.1.4-3.1.9.7.3 1.5.5 2.2.7 3.4.7 7 .7 10.5.5 2.1-.2 4.3-.4 6.3-1.2-.6-.3-1.3-.5-1.9-.6-1.9-.4-3.9-.6-5.8-.6-2.7-.2-5.5-.2-8.2.3m-1.7 3.8c1.8 4 3.6 8 5.5 12 .1.2.2.5.2.7v7.9c1.6-.7 3.2-1.5 4.8-2.2v-5.4c0-.3 0-.7.1-1 1.9-4 3.8-8 5.8-12.1-3 .7-6.1.8-9.2.8-2.5 0-4.9-.2-7.2-.7z"/></g></svg>