<svg data-v-fde0c5aa="" xmlns="http://www.w3.org/2000/svg" viewBox="0 0 300 300" class="iconAbove"><!----><defs data-v-fde0c5aa=""><!----></defs><rect data-v-fde0c5aa="" fill="#F6F2EE" x="0" y="0" width="300px" height="300px" class="logo-background-square"></rect><defs data-v-fde0c5aa=""><!----></defs><g data-v-fde0c5aa="" id="0443784a-8d8d-4c97-b835-41e597e4e3ed" fill="#35291E" transform="matrix(5.469078565269436,0,0,5.469078565269436,17.70298691131177,153.75749751691617)"><path d="M6.10 13.52L6.10 12.73L6.10 12.73Q5.57 13.24 4.95 13.48L4.95 13.48L4.95 13.48Q4.33 13.72 3.70 13.70L3.70 13.70L3.70 13.70Q3.07 13.68 2.47 13.41L2.47 13.41L2.47 13.41Q1.88 13.15 1.42 12.65L1.42 12.65L1.42 12.65Q0.97 12.15 0.69 11.46L0.69 11.46L0.69 11.46Q0.42 10.77 0.42 9.88L0.42 9.88L0.42 9.88Q0.42 9.04 0.71 8.33L0.71 8.33L0.71 8.33Q1.01 7.62 1.51 7.11L1.51 7.11L1.51 7.11Q2.00 6.61 2.64 6.34L2.64 6.34L2.64 6.34Q3.28 6.06 3.96 6.09L3.96 6.09L3.96 6.09Q4.63 6.12 5.04 6.39L5.04 6.39L5.04 6.39Q5.45 6.66 5.63 7.03L5.63 7.03L5.63 7.03Q5.82 7.39 5.83 7.76L5.83 7.76L5.83 7.76Q5.84 8.13 5.71 8.36L5.71 8.36L5.71 8.36Q5.47 8.01 5.04 7.89L5.04 7.89L5.04 7.89Q4.61 7.77 4.20 7.77L4.20 7.77L4.20 7.77Q3.56 7.77 3.12 8.09L3.12 8.09L3.12 8.09Q2.69 8.40 2.46 8.88L2.46 8.88L2.46 8.88Q2.24 9.35 2.23 9.91L2.23 9.91L2.23 9.91Q2.23 10.46 2.44 10.93L2.44 10.93L2.44 10.93Q2.66 11.41 3.10 11.73L3.10 11.73L3.10 11.73Q3.54 12.04 4.20 12.04L4.20 12.04L4.20 12.04Q4.76 12.04 5.12 11.79L5.12 11.79L5.12 11.79Q5.49 11.54 5.71 11.14L5.71 11.14L5.71 11.14Q5.92 10.74 6.01 10.24L6.01 10.24L6.01 10.24Q6.10 9.74 6.10 9.25L6.10 9.25L6.10 7.04L6.10 6.27L7.92 6.27L7.92 13.52L6.10 13.52ZM12.84 16.34L12.84 16.34L12.84 16.34Q12.14 16.34 11.49 16.17L11.49 16.17L11.49 16.17Q10.84 16.00 10.37 15.66L10.37 15.66L10.37 15.66Q9.91 15.32 9.72 14.79L9.72 14.79L9.72 14.79Q9.52 14.27 9.73 13.54L9.73 13.54L9.73 13.54Q9.95 13.79 10.31 14.00L10.31 14.00L10.31 14.00Q10.67 14.21 11.07 14.36L11.07 14.36L11.07 14.36Q11.47 14.50 11.88 14.59L11.88 14.59L11.88 14.59Q12.29 14.67 12.64 14.66L12.64 14.66L12.64 14.66Q13.29 14.63 13.69 14.45L13.69 14.45L13.69 14.45Q14.10 14.27 14.33 13.98L14.33 13.98L14.33 13.98Q14.56 13.69 14.64 13.33L14.64 13.33L14.64 13.33Q14.73 12.96 14.73 12.57L14.73 12.57L14.73 12.57Q14.20 13.10 13.57 13.34L13.57 13.34L13.57 13.34Q12.95 13.57 12.32 13.55L12.32 13.55L12.32 13.55Q11.69 13.52 11.10 13.25L11.10 13.25L11.10 13.25Q10.50 12.98 10.04 12.49L10.04 12.49L10.04 12.49Q9.59 12.00 9.32 11.30L9.32 11.30L9.32 11.30Q9.04 10.60 9.04 9.73L9.04 9.73L9.04 9.73Q9.04 8.89 9.34 8.20L9.34 8.20L9.34 8.20Q9.63 7.52 10.13 7.04L10.13 7.04L10.13 7.04Q10.63 6.57 11.26 6.31L11.26 6.31L11.26 6.31Q11.90 6.06 12.59 6.09L12.59 6.09L12.59 6.09Q13.26 6.12 13.66 6.39L13.66 6.39L13.66 6.39Q14.07 6.66 14.26 7.02L14.26 7.02L14.26 7.02Q14.45 7.38 14.46 7.76L14.46 7.76L14.46 7.76Q14.46 8.13 14.34 8.36L14.34 8.36L14.34 8.36Q14.21 8.19 14.04 8.07L14.04 8.07L14.04 8.07Q13.86 7.95 13.66 7.88L13.66 7.88L13.66 7.88Q13.45 7.81 13.24 7.78L13.24 7.78L13.24 7.78Q13.02 7.76 12.82 7.76L12.82 7.76L12.82 7.76Q12.18 7.76 11.75 8.06L11.75 8.06L11.75 8.06Q11.31 8.37 11.09 8.83L11.09 8.83L11.09 8.83Q10.86 9.28 10.86 9.81L10.86 9.81L10.86 9.81Q10.85 10.35 11.07 10.80L11.07 10.80L11.07 10.80Q11.28 11.26 11.73 11.56L11.73 11.56L11.73 11.56Q12.17 11.87 12.82 11.87L12.82 11.87L12.82 11.87Q13.38 11.87 13.75 11.65L13.75 11.65L13.75 11.65Q14.11 11.42 14.33 11.05L14.33 11.05L14.33 11.05Q14.55 10.68 14.64 10.21L14.64 10.21L14.64 10.21Q14.73 9.74 14.73 9.25L14.73 9.25L14.73 7.04L14.73 6.27L16.55 6.27L16.55 12.71L16.55 12.71Q16.55 13.54 16.31 14.21L16.31 14.21L16.31 14.21Q16.07 14.88 15.60 15.36L15.60 15.36L15.60 15.36Q15.13 15.83 14.44 16.09L14.44 16.09L14.44 16.09Q13.75 16.34 12.84 16.34ZM21.46 6.10L21.46 6.10L21.46 6.10Q22.57 6.10 23.43 6.64L23.43 6.64L23.43 6.64Q24.29 7.17 24.78 7.99L24.78 7.99L24.78 7.99Q25.27 8.82 25.30 9.83L25.30 9.83L25.30 9.83Q25.34 10.84 24.79 11.80L24.79 11.80L24.79 11.80Q24.33 12.60 23.59 13.08L23.59 13.08L23.59 13.08Q22.85 13.55 22.01 13.67L22.01 13.67L22.01 13.67Q21.17 13.79 20.32 13.53L20.32 13.53L20.32 13.53Q19.47 13.27 18.80 12.60L18.80 12.60L18.80 12.60Q18.05 11.83 17.79 10.82L17.79 10.82L17.79 10.82Q17.54 9.81 17.84 8.81L17.84 8.81L17.84 8.81Q17.96 8.40 18.25 8.13L18.25 8.13L18.25 8.13Q18.54 7.87 18.90 7.74L18.90 7.74L18.90 7.74Q19.26 7.62 19.66 7.63L19.66 7.63L19.66 7.63Q20.05 7.64 20.38 7.79L20.38 7.79L20.38 7.79Q20.72 7.94 20.95 8.21L20.95 8.21L20.95 8.21Q21.18 8.48 21.22 8.88L21.22 8.88L21.22 8.88Q21.01 8.72 20.72 8.71L20.72 8.71L20.72 8.71Q20.43 8.71 20.15 8.84L20.15 8.84L20.15 8.84Q19.88 8.97 19.69 9.25L19.69 9.25L19.69 9.25Q19.50 9.52 19.50 9.93L19.50 9.93L19.50 9.93Q19.50 10.63 19.80 11.09L19.80 11.09L19.80 11.09Q20.09 11.55 20.53 11.78L20.53 11.78L20.53 11.78Q20.97 12.01 21.48 12.01L21.48 12.01L21.48 12.01Q21.99 12.01 22.44 11.77L22.44 11.77L22.44 11.77Q22.88 11.54 23.17 11.07L23.17 11.07L23.17 11.07Q23.46 10.60 23.46 9.90L23.46 9.90L23.46 9.90Q23.46 9.35 23.27 8.93L23.27 8.93L23.27 8.93Q23.07 8.51 22.74 8.24L22.74 8.24L22.74 8.24Q22.41 7.97 21.98 7.86L21.98 7.86L21.98 7.86Q21.55 7.76 21.06 7.85L21.06 7.85L21.06 7.85Q20.85 7.60 20.55 7.46L20.55 7.46L20.55 7.46Q20.24 7.31 19.89 7.26L19.89 7.26L19.89 7.26Q19.54 7.21 19.19 7.27L19.19 7.27L19.19 7.27Q18.84 7.34 18.54 7.52L18.54 7.52L18.54 7.52Q19.10 6.85 19.84 6.48L19.84 6.48L19.84 6.48Q20.58 6.10 21.46 6.10ZM28.24 6.27L28.24 7.11L28.24 7.11Q28.35 6.86 28.58 6.68L28.58 6.68L28.58 6.68Q28.81 6.50 29.09 6.37L29.09 6.37L29.09 6.37Q29.37 6.24 29.67 6.17L29.67 6.17L29.67 6.17Q29.96 6.10 30.21 6.09L30.21 6.09L30.21 6.09Q30.74 6.06 31.26 6.24L31.26 6.24L31.26 6.24Q31.78 6.41 32.21 6.85L32.21 6.85L32.21 6.85Q32.84 7.50 32.84 8.74L32.84 8.74L32.84 13.52L31.05 13.52L31.05 13.52Q31.05 13.29 31.06 12.88L31.06 12.88L31.06 12.88Q31.07 12.47 31.07 11.99L31.07 11.99L31.07 11.99Q31.07 11.51 31.07 10.99L31.07 10.99L31.07 10.99Q31.07 10.47 31.05 10.01L31.05 10.01L31.05 10.01Q31.04 9.55 31.01 9.18L31.01 9.18L31.01 9.18Q30.98 8.82 30.94 8.65L30.94 8.65L30.94 8.65Q30.83 8.20 30.51 7.98L30.51 7.98L30.51 7.98Q30.20 7.76 29.83 7.76L29.83 7.76L29.83 7.76Q29.36 7.76 29.09 8.02L29.09 8.02L29.09 8.02Q28.83 8.27 28.83 8.69L28.83 8.69L28.83 8.69Q28.66 8.64 28.49 8.46L28.49 8.46L28.49 8.46Q28.32 8.29 28.24 8.09L28.24 8.09L28.24 8.47L28.24 13.52L26.43 13.52L26.43 6.27L28.24 6.27ZM36.82 16.24L36.82 16.24L36.82 16.24Q36.13 16.24 35.55 16.06L35.55 16.06L35.55 16.06Q34.97 15.88 34.59 15.52L34.59 15.52L34.59 15.52Q34.22 15.16 34.08 14.62L34.08 14.62L34.08 14.62Q33.95 14.07 34.16 13.36L34.16 13.36L34.16 13.36Q34.33 13.66 34.60 13.90L34.60 13.90L34.60 13.90Q34.87 14.13 35.21 14.28L35.21 14.28L35.21 14.28Q35.55 14.43 35.91 14.51L35.91 14.51L35.91 14.51Q36.27 14.59 36.62 14.57L36.62 14.57L36.62 14.57Q37.63 14.53 38.16 14.05L38.16 14.05L38.16 14.05Q38.70 13.57 38.70 12.54L38.70 12.54L38.70 12.54Q38.60 12.81 38.36 13.01L38.36 13.01L38.36 13.01Q38.12 13.20 37.83 13.34L37.83 13.34L37.83 13.34Q37.53 13.47 37.23 13.54L37.23 13.54L37.23 13.54Q36.92 13.61 36.67 13.62L36.67 13.62L36.67 13.62Q36.13 13.65 35.62 13.48L35.62 13.48L35.62 13.48Q35.10 13.31 34.68 12.88L34.68 12.88L34.68 12.88Q34.05 12.24 34.05 11.00L34.05 11.00L34.05 6.26L35.83 6.26L35.83 6.26Q35.83 6.50 35.82 6.90L35.82 6.90L35.82 6.90Q35.81 7.29 35.81 7.78L35.81 7.78L35.81 7.78Q35.81 8.26 35.81 8.77L35.81 8.77L35.81 8.77Q35.81 9.28 35.83 9.74L35.83 9.74L35.83 9.74Q35.84 10.21 35.87 10.56L35.87 10.56L35.87 10.56Q35.90 10.92 35.94 11.09L35.94 11.09L35.94 11.09Q36.05 11.54 36.36 11.76L36.36 11.76L36.36 11.76Q36.67 11.98 37.03 11.98L37.03 11.98L37.03 11.98Q37.27 11.98 37.48 11.91L37.48 11.91L37.48 11.91Q37.69 11.83 37.85 11.69L37.85 11.69L37.85 11.69Q38.01 11.55 38.11 11.38L38.11 11.38L38.11 11.38Q38.21 11.20 38.21 10.99L38.21 10.99L38.21 10.99Q38.56 11.09 38.70 11.48L38.70 11.48L38.70 6.26L40.50 6.26L40.50 12.64L40.50 12.64Q40.50 14.29 39.57 15.27L39.57 15.27L39.57 15.27Q38.64 16.24 36.82 16.24ZM43.69 6.27L43.69 6.27L47.96 6.27L44.70 11.98L47.77 11.98L47.77 13.52L41.90 13.52L45.16 7.81L44.02 7.81L44.02 7.81Q43.81 7.81 43.56 7.83L43.56 7.83L43.56 7.83Q43.32 7.85 43.10 7.93L43.10 7.93L43.10 7.93Q42.88 8.01 42.72 8.14L42.72 8.14L42.72 8.14Q42.56 8.27 42.52 8.50L42.52 8.50L42.52 8.50Q42.24 8.25 42.13 7.86L42.13 7.86L42.13 7.86Q42.03 7.48 42.14 7.13L42.14 7.13L42.14 7.13Q42.25 6.78 42.63 6.52L42.63 6.52L42.63 6.52Q43.01 6.27 43.69 6.27Z"></path></g><defs data-v-fde0c5aa=""><linearGradient data-v-fde0c5aa="" gradientTransform="rotate(25)" id="84ee3a2a-005d-4385-aefa-96f920b17767" x1="0%" y1="0%" x2="100%" y2="0%"><stop data-v-fde0c5aa="" offset="0%" stop-color="#5F2517" stop-opacity="1"></stop><stop data-v-fde0c5aa="" offset="100%" stop-color="#FFEDB5" stop-opacity="1"></stop></linearGradient></defs><g data-v-fde0c5aa="" id="3ef55960-d4c5-4900-a93f-fadb77eb4b7e" stroke="none" fill="url(#84ee3a2a-005d-4385-aefa-96f920b17767)" transform="matrix(1.4379870445800673,0,0,1.4379870445800673,57.96881851874802,20.928081777564373)"><path d="M74.313 25l-28.094 78h8.469l28.094-78h-8.469zM38 36.25l-2.188 1.406-34 22-1.813 1.156v4.25l1.688 1.219 34 24L38 91.875v-9.781L11.156 63.125 38 45.75v-9.5zm52 0v9.5l26.844 17.375L90 82.094v9.781l2.313-1.594 34-24 1.688-1.219v-4.25l-1.813-1.156-34-22L90 36.25z"></path></g><!----></svg>