<svg xmlns="http://www.w3.org/2000/svg" class="iconAbove" viewBox="0 0 300 300"><path fill="#F6F2EE" d="M0 0h300v300H0z" class="logo-background-square"/><path fill="#35291E" d="M51.064 227.7v-4.321q-2.898 2.79-6.29 4.102-3.39 1.312-6.835 1.203-3.446-.11-6.727-1.586-3.227-1.422-5.743-4.157-2.461-2.734-3.992-6.508Q20 212.66 20 207.792q0-4.594 1.586-8.477 1.64-3.883 4.375-6.672 2.68-2.735 6.18-4.212 3.5-1.53 7.22-1.367 3.664.164 5.906 1.64 2.242 1.478 3.227 3.501 1.039 1.969 1.094 3.993.054 2.023-.657 3.281-1.312-1.914-3.664-2.57-2.352-.657-4.594-.657-3.5 0-5.906 1.75-2.352 1.696-3.61 4.32-1.203 2.571-1.258 5.634 0 3.008 1.149 5.579 1.203 2.625 3.61 4.375 2.406 1.695 6.015 1.695 3.063 0 5.032-1.367 2.023-1.367 3.226-3.555 1.149-2.188 1.641-4.922.492-2.735.492-5.415V188.05h9.954v39.65h-9.954Zm36.862 15.422q-3.828 0-7.383-.93t-6.126-2.789q-2.515-1.86-3.555-4.758-1.093-2.844.055-6.836 1.203 1.367 3.172 2.516 1.97 1.148 4.157 1.968 2.187.766 4.43 1.258 2.242.438 4.156.383 3.555-.164 5.743-1.148 2.242-.985 3.5-2.57 1.258-1.587 1.695-3.556.493-2.023.493-4.156-2.9 2.898-6.345 4.211-3.39 1.258-6.836 1.149-3.445-.165-6.672-1.641-3.282-1.477-5.797-4.157-2.462-2.68-3.938-6.508-1.532-3.828-1.532-8.586 0-4.594 1.641-8.368 1.586-3.719 4.32-6.344 2.735-2.57 6.18-3.993 3.501-1.367 7.275-1.203 3.664.164 5.852 1.64 2.242 1.478 3.281 3.446 1.04 1.97 1.094 4.048 0 2.023-.656 3.281-.711-.93-1.641-1.586-.985-.656-2.078-1.04-1.149-.382-2.297-.546-1.204-.11-2.297-.11-3.5 0-5.852 1.641-2.407 1.696-3.61 4.211-1.258 2.462-1.258 5.36-.055 2.953 1.149 5.415 1.148 2.515 3.61 4.156 2.406 1.695 5.96 1.695 3.063 0 5.087-1.203 1.969-1.258 3.172-3.281 1.203-2.024 1.695-4.594.493-2.57.493-5.25V188.048h9.953v35.22q0 4.54-1.312 8.204-1.313 3.664-3.883 6.29-2.57 2.57-6.345 3.992-3.773 1.367-8.75 1.367Zm47.143-56.003q6.071 0 10.774 2.953 4.704 2.899 7.384 7.383 2.68 4.54 2.844 10.064.218 5.523-2.79 10.774-2.515 4.375-6.562 7-4.048 2.57-8.642 3.227-4.594.656-9.242-.766-4.65-1.422-8.313-5.086-4.102-4.211-5.524-9.735-1.367-5.524.273-10.993.657-2.242 2.243-3.719 1.586-1.422 3.555-2.133 1.968-.656 4.156-.601 2.133.054 3.938.875 1.86.82 3.117 2.297 1.258 1.476 1.477 3.664-1.149-.875-2.735-.93-1.586 0-3.117.711-1.477.711-2.516 2.242-1.039 1.477-1.039 3.72 0 3.828 1.64 6.344 1.587 2.515 3.993 3.773 2.407 1.258 5.196 1.258 2.789 0 5.25-1.312 2.407-1.258 3.993-3.829 1.586-2.57 1.586-6.399 0-3.008-1.04-5.305-1.093-2.297-2.898-3.773-1.805-1.477-4.157-2.079-2.351-.546-5.031-.054-1.149-1.368-2.79-2.133-1.695-.82-3.609-1.094-1.914-.273-3.828.055-1.915.383-3.555 1.367 3.062-3.664 7.11-5.688 4.047-2.078 8.86-2.078Zm37.08.93v4.594q.602-1.368 1.86-2.352 1.258-.984 2.79-1.695 1.53-.711 3.172-1.094 1.586-.383 2.953-.438 2.898-.164 5.742.82 2.844.93 5.196 3.337 3.446 3.555 3.446 10.336V227.7h-9.79q0-1.257.055-3.5.054-2.242.054-4.867v-5.47q0-2.843-.11-5.359-.054-2.516-.218-4.54-.164-1.968-.383-2.898-.601-2.461-2.351-3.664-1.696-1.203-3.72-1.203-2.57 0-4.047 1.422-1.421 1.367-1.421 3.664-.93-.274-1.86-1.258-.93-.93-1.367-2.024V227.7h-9.9v-39.65h9.9Zm46.925 54.526q-3.773 0-6.945-.984-3.172-.985-5.25-2.953-2.024-1.97-2.79-4.923-.71-3.008.438-6.89.93 1.64 2.406 2.953 1.477 1.258 3.336 2.078 1.86.82 3.829 1.258 1.968.437 3.883.328 5.523-.219 8.422-2.844 2.953-2.625 2.953-8.258-.547 1.476-1.86 2.57-1.312 1.04-2.898 1.805-1.64.711-3.281 1.094-1.696.383-3.063.437-2.953.164-5.742-.765-2.844-.93-5.141-3.282-3.446-3.5-3.446-10.282v-25.923h9.735q0 1.313-.055 3.5-.054 2.133-.054 4.813v5.414q0 2.79.11 5.305.054 2.57.218 4.485.164 1.969.383 2.899.601 2.46 2.297 3.664 1.695 1.203 3.664 1.203 1.313 0 2.461-.383 1.149-.437 2.024-1.203t1.422-1.695q.546-.985.546-2.133 1.915.547 2.68 2.68v-28.55h9.845v34.894q0 9.024-5.087 14.383-5.086 5.305-15.04 5.305Zm37.573-54.526H280l-17.83 31.228h16.79v8.422h-32.103l17.83-31.228h-6.235q-1.149 0-2.516.11-1.313.109-2.516.546-1.203.438-2.078 1.149-.875.71-1.094 1.969-1.531-1.368-2.133-3.5-.547-2.079.055-3.993.602-1.914 2.68-3.336 2.078-1.367 5.797-1.367Z"/><defs><linearGradient id="a" x1="0%" x2="100%" y1="0%" y2="0%" gradientTransform="rotate(25)"><stop offset="0%" stop-color="#5F2517"/><stop offset="100%" stop-color="#FFEDB5"/></linearGradient></defs><path fill="url(#a)" d="m74.313 25-28.094 78h8.469l28.094-78h-8.469zM38 36.25l-2.188 1.406-34 22-1.813 1.156v4.25l1.688 1.219 34 24L38 91.875v-9.781L11.156 63.125 38 45.75v-9.5zm52 0v9.5l26.844 17.375L90 82.094v9.781l2.313-1.594 34-24 1.688-1.219v-4.25l-1.813-1.156-34-22L90 36.25z" transform="matrix(1.43799 0 0 1.43799 57.969 20.928)"/></svg>