<svg xmlns="http://www.w3.org/2000/svg" xmlns:xlink="http://www.w3.org/1999/xlink" width="100%" height="100%" viewBox="0 0 2336 2295" fill-rule="evenodd" stroke-linecap="round" stroke-linejoin="round" stroke-miterlimit="10"><style><![CDATA[.B{stroke:#fff}.C{stroke-miterlimit:1.5}.D{fill-rule:nonzero}.E{stroke-width:15.48}]]></style><g transform="matrix(12.0237 0 0 12.0434 -1188.68 -289.75506)"><clipPath id="A"><path d="M98.861 24.059h194.242v190.555H98.861z"/></clipPath><g clip-path="url(#A)"><g transform="matrix(1.34846 0 0 1.34626 98.134958 23.229349)" class="D"><path d="M0 0h145.4v142.7H0z" fill="#c30c2b"/><g transform="matrix(1.16504 0 0 1.16504 4.06724 -50.661)"><g fill="#fff"><path d="M22.392 90.713c1.066 0 1.98.152 2.742.457s1.371.685 1.828 1.219.838 1.066 1.066 1.752.305 1.295.305 2.056c0 .685-.076 1.371-.305 1.98a4.19 4.19 0 0 1-1.066 1.752c-.457.533-1.066.914-1.828 1.219s-1.675.457-2.742.457h-3.96v6.093H14.7V90.713h7.692zm-.99 8.073c.457 0 .838 0 1.219-.076s.762-.152 1.066-.381c.305-.152.533-.457.762-.762.152-.305.305-.762.305-1.295s-.076-.99-.305-1.295c-.152-.305-.457-.609-.762-.762a4.37 4.37 0 0 0-1.066-.381c-.381-.076-.838-.076-1.219-.076h-2.894v5.103l2.894-.076zm12.262-8.073v13.861h8.301v3.123H29.932V90.713h3.732zm22.619 0v3.123h-8.987v3.656h8.225v2.894h-8.225v4.189h9.215v3.123H43.564V90.713h12.719zm6.169 0l7.083 11.424h.076V90.713h3.503v17.06h-3.732l-7.083-11.424v11.424h-3.503v-17.06h3.656zm12.109 3.199V90.79h13.937v3.123h-5.026v13.861h-3.808V93.912h-5.103zm22.162-3.199l6.397 17.06h-3.884l-1.295-3.808h-6.397l-1.371 3.808h-3.732l6.473-17.06h3.808zm.228 10.51l-2.132-6.245h-.076l-2.209 6.245h4.417zm-79.89 17.06c-.076.305-.228.457-.533.457H16.3c-.305 0-.457-.076-.533-.457l-.99-4.265v-.228c0-.076.076-.152.152-.152h.533c.076 0 .152.076.228.152l.838 4.036.99-3.656c.076-.305.152-.381.457-.381h.152c.305 0 .381.076.457.381l.99 3.656c.076-.609.228-1.219.838-4.036 0-.152.076-.228.228-.228h.533c.076 0 .076.076.076.152s0 .152-.076.228l-.99 4.265c-.076.305-.152.457-.533.457h-.152c-.381 0-.457-.152-.533-.457l-.914-3.579c-.228.609-.381 1.142-.99 3.656zm7.083.381c-.457 0-.762-.152-.762-.762v-3.579c0-.533.228-.762.762-.762h2.132c.076 0 .152.076.152.152v.457c0 .076-.076.152-.152.152h-1.828c-.152 0-.228.076-.228.305v1.066h1.828c.076 0 .152.076.152.152v.381c0 .076-.076.152-.152.152H24.22v1.219c0 .228.076.305.305.305h1.828c.076 0 .152.076.152.152v.381c0 .076-.076.152-.152.152l-2.209.076zm5.56 0c-.457 0-.685-.228-.685-.685V114.4c0-.457.228-.762.685-.762h.838c.228 0 .609 0 .762.076.838.076 1.142.457 1.142 1.219 0 .609-.228.99-.762 1.142.609.152.914.457.914 1.219 0 .609-.152 1.066-.685 1.295a5.69 5.69 0 0 1-1.371.152l-.838-.076zm.838-2.97c.305 0 .533 0 .685-.076.228-.076.381-.305.381-.685 0-.457-.228-.609-.457-.685-.076-.076-.305-.076-.533-.076h-.533c-.152 0-.228.076-.228.305v1.142c-.076.076.685.076.685.076zm-.762 1.98c0 .228.076.305.305.305h.609c.305 0 .609 0 .685-.076.228-.076.381-.305.381-.762a.71.71 0 0 0-.381-.685c-.152-.076-.381-.076-.685-.076h-.838v1.295h-.076zm10.891.99c-.457 0-.762-.152-.762-.762v-3.579c0-.533.228-.762.762-.762h2.132c.076 0 .152.076.152.152v.457c0 .076-.076.152-.152.152h-1.828c-.152 0-.228.076-.228.305v1.066h1.828c.076 0 .152.076.152.152v.381c0 .076-.076.152-.152.152h-1.828v1.219c0 .228.076.305.305.305h1.904c.076 0 .152.076.152.152v.381c0 .076-.076.152-.152.152l-2.285.076zm5.407 0h-.457c-.076 0-.152-.076-.152-.228v-4.341c0-.381.152-.609.533-.609h.228c.305 0 .457.152.533.457l1.828 3.656v-3.808c0-.152.076-.228.228-.228h.457c.152 0 .152.076.152.228v4.417c0 .381-.228.457-.457.457h-.152c-.381 0-.457-.152-.609-.457l-1.904-3.656v3.96c0 .076-.076.152-.228.152zm7.768 0h-.457c-.076 0-.152-.076-.152-.228v-4.113h-1.295c-.076 0-.152-.076-.152-.152v-.381c0-.152.076-.152.152-.152h3.351c.076 0 .152.076.152.152v.381c0 .076-.076.152-.152.152h-1.295v4.113c0 .152-.076.228-.152.228zm5.788-.381c-.076.305-.228.457-.533.457h-.228c-.305 0-.457-.076-.533-.457l-.99-4.265v-.228c0-.076.076-.152.152-.152h.533c.076 0 .152.076.228.152l.838 4.036.99-3.656c.076-.305.152-.381.457-.381h.152c.305 0 .381.076.457.381l.99 3.656c.076-.609.228-1.219.838-4.036 0-.152.076-.228.228-.228h.533c.076 0 .076.076.076.152s0 .152-.076.228l-1.066 4.265c-.076.305-.152.457-.533.457h-.152c-.381 0-.457-.152-.533-.457l-.914-3.579c-.076.609-.228 1.142-.914 3.656zm7.007.381h-.457c-.076 0-.152-.076-.152-.228v-4.722c0-.076.076-.228.152-.228h.457a.12.12 0 0 1 .152.152v4.722c0 .228-.076.305-.152.305zm4.798-.609c.457 0 .762-.076.99-.152.076 0 .152-.076.228-.076s.076 0 .152.076.076.305.076.381-.076.152-.152.152c-.457.152-.914.228-1.447.228-1.219 0-1.98-.609-1.98-2.513s.533-2.742 2.132-2.742c.457 0 .914.076 1.219.076.076 0 .152.076.152.152s-.076.305-.076.457c0 .076-.076.076-.152.076s-.152 0-.228-.076c-.228-.076-.457-.076-.838-.076-1.142 0-1.371.685-1.371 1.904 0 1.447.228 2.132 1.295 2.132zm4.265.609h-.457c-.076 0-.152-.076-.152-.228v-4.722c0-.076.076-.228.152-.228h.457a.12.12 0 0 1 .152.152v1.904h.457c.152 0 .228-.076.305-.152l1.219-1.828c.076-.076.152-.152.228-.152h.457c.076 0 .152.076.152.152s-.076.152-.076.152l-1.447 2.132c.152.305.457.609 1.523 2.285.076.076.076.152.076.228s-.076.076-.076.152h-.609c-.076 0-.152-.076-.228-.152l-1.219-1.828c-.076-.076-.152-.076-.305-.076h-.457v2.056c.076.076 0 .152-.152.152zm6.093 0c-.457 0-.685-.228-.685-.685v-4.189c0-.076.076-.228.152-.228h.457a.12.12 0 0 1 .152.152v3.884c0 .152.076.305.305.305h1.828c.076 0 .152.076.152.152v.381c0 .076-.076.152-.152.152h-2.209v.076zm8.149-2.056c0 .685-.076 1.142-.228 1.447-.305.457-.838.685-1.752.685-.762 0-1.447-.152-1.675-.762-.152-.305-.152-.838-.152-1.371v-2.894c0-.076.076-.152.152-.152h.457c.076 0 .152.076.152.152v3.123c0 .381 0 .685.152.838.152.228.457.305.914.305.305 0 .762-.076.914-.305.076-.152.152-.457.152-.838v-3.123c0-.076.076-.152.152-.152h.457c.076 0 .152.076.152.152l.152 2.894zm3.351 2.056h-.457c-.076 0-.152-.076-.152-.228v-4.341c0-.381.152-.609.533-.609h.228c.305 0 .457.152.533.457l1.828 3.656v-3.808c0-.152.076-.228.228-.228h.457c.152 0 .152.076.152.228v4.417c0 .381-.228.457-.457.457h-.152c-.381 0-.457-.152-.609-.457l-1.904-3.656v3.96c-.076.076-.152.152-.228.152zm9.672-.305l-.152.152c-.305.076-.914.228-1.675.228-1.295 0-2.056-.609-2.056-2.513s.609-2.742 2.285-2.742c.457 0 .99.076 1.295.076.152.076.152.076.152.152s-.076.305-.076.457c0 .076-.076.076-.152.076h-.228c-.228-.076-.533-.076-.99-.076-1.142 0-1.447.685-1.447 1.904s.228 1.98 1.295 1.98c.457 0 .685-.076.914-.076.076 0 .152-.076.152-.228v-1.066h-.99c-.076 0-.152-.076-.152-.152v-.457c0-.076.076-.152.152-.152h1.523c.076 0 .152.076.152.152v2.285z"/></g><path d="M35.72 113.942l1.066 2.209m0 0l-1.066 2.209" stroke-width=".67" class="B"/></g></g><g transform="matrix(1.46473 0 0 1.46473 -36.0075 66.7899)"><g transform="matrix(.083157 .0014 -.001403 .083022 -541.374 11.4621)" class="B C E"><path d="M9012.27 287.569c20.88-43.153 40.39-81.795 50.69-97.809 7.73-12.032 40.79-45.01 42.9-1.169.71 14.886-102.45 301.208-102.45 301.208l-71.27-31.015s12.36-27.441 50.19-105.642" fill="none"/></g><path d="M206.467 64.041c-3.686-1.964-6.549-3.225-8.756-3.62-1.781-.319-3.208-.103-4.362.61-1.193.736-2.137 2.046-2.791 4.096-1.348 4.221-5.948 7.199-9.827 8.767-1.557.63-3.007 1.028-4.104 1.163-.5.061-.894.103-1.13.005a1.29 1.29 0 0 0-1.07.034c-.289.144-.488.355-.618.611s-.206.58-.106.989c.048.195.169.481.421.813.286.377.824.929 1.569 1.586 3.399 2.998 11.388 8.522 17.391 10.091 3.022.79 5.595.539 7.159-.988 1.449-1.414 7.855-10.2 9.011-16.708.585-3.296-.138-6.038-2.786-7.449h0zm-.605 1.134c-8.406-4.479-12.287-5.265-14.078.342-2.432 7.616-14.454 11.705-16.785 10.73-1.223.607 18.96 16.287 24.344 11.033 1.984-1.936 13.678-18.289 6.519-22.104z" fill="#fff"/><g fill="none" stroke-width="1.286" class="B C"><path d="M192.055 64.625s1.414 2.146 3.116 1.396c0 0 2.88 3.197 4.34 1.865 0 0 1.96 3.189 4.554 1.758 0 0 1.683 2.853 3.908 1.898m-17.655-3.033s1.455 2.146 3.207 1.396c0 0 2.964 3.197 4.467 1.865 0 0 2.017 3.189 4.687 1.758 0 0 1.732 2.853 4.022 1.898m-27.168 5.402s4.575.777 7.033-2.917m-3.208 5.597s4.575.777 7.033-2.917"/></g><g transform="matrix(.082062 -.013503 .013525 .081928 -533.636 147.869)" class="B C E"><path d="M8694.75 686.599s55.01 9.363 84.56-35.125" fill="none"/></g></g><g fill="#fff"><path d="M214.377 152.863a3.54 3.54 0 0 0-3.539 3.532 3.54 3.54 0 0 0 3.539 3.532c1.953 0 3.538-1.583 3.538-3.532s-1.585-3.532-3.538-3.532zm0 1.052c1.371 0 2.484 1.111 2.484 2.481s-1.114 2.481-2.484 2.481-2.485-1.112-2.485-2.481 1.114-2.481 2.485-2.481zm6.614 7.25c-2.709 0-4.908 2.195-4.908 4.899s2.199 4.899 4.908 4.899 4.907-2.195 4.907-4.899-2.199-4.899-4.907-4.899zm0 1.052c2.126 0 3.853 1.724 3.853 3.847s-1.727 3.848-3.853 3.848-3.854-1.724-3.854-3.848 1.727-3.847 3.854-3.847zm1.428-7.57a2.61 2.61 0 0 0-2.61 2.605 2.61 2.61 0 1 0 5.22 0 2.61 2.61 0 0 0-2.61-2.605zm0 1.052c.858 0 1.556.696 1.556 1.554s-.697 1.554-1.556 1.554-1.556-.696-1.556-1.554.697-1.554 1.556-1.554z"/></g><g fill="none" stroke-width=".388" class="B C"><path d="M221.038 162.892s-2.709.604-2.709 2.704m-4.044-10.996s-1.713.382-1.713 1.71m11.942 4.497h2.092-.995v-1.188 2.24m-7.479-7.698h2.092-.995v-1.188 2.24m-5.331 14.055h2.092-.995v-1.188 2.24m-93.741-75.925h2.092-.995v-1.188 2.24"/></g><g fill="#fff"><use xlink:href="#C"/><path d="M126.579 93.019l-1.165.145c-.194.024-.34.189-.34.384a.39.39 0 0 0 .34.385l1.165.145v.006l.123 1.507c.016.201.185.356.387.356s.371-.155.387-.356l.123-1.507v-.006l1.165-.145c.194-.024.34-.189.34-.385s-.146-.36-.34-.384l-1.165-.145v-.006l-.123-1.507c-.016-.201-.185-.356-.387-.356s-.371.155-.387.356l-.123 1.507v.006zm.51-1.482l.123 1.507a.44.44 0 0 0 .092.239c.052.064.12.104.193.113l1.219.152-1.219.152c-.073.009-.141.049-.193.113a.44.44 0 0 0-.092.239l-.123 1.507-.123-1.507c-.007-.09-.039-.175-.091-.239s-.12-.104-.193-.113l-1.22-.152 1.22-.152c.073-.009.141-.049.193-.113s.084-.149.091-.239l.123-1.507zm85.299 70.717c-.017-.2-.185-.354-.387-.354a.39.39 0 0 0-.387.354l-.19 2.174c-.004.047-.019.092-.048.125-.014.016-.03.029-.049.032l-1.88.219c-.196.023-.343.188-.343.385s.147.362.343.385l1.88.219c.019.002.035.016.049.032.029.033.044.078.048.125l.19 2.174c.017.2.185.354.387.354a.39.39 0 0 0 .387-.354l.189-2.174c.004-.047.02-.092.049-.125.013-.016.03-.029.049-.032l1.88-.219a.39.39 0 0 0 .343-.385.39.39 0 0 0-.343-.385l-1.88-.219c-.019-.002-.035-.016-.049-.032-.029-.033-.045-.078-.049-.125l-.189-2.174zm-.387.034l.189 2.174a.61.61 0 0 0 .141.344c.08.093.185.15.298.163l1.879.219-1.879.219a.47.47 0 0 0-.298.163.61.61 0 0 0-.141.344l-.189 2.174-.19-2.174c-.011-.13-.061-.252-.141-.344s-.185-.15-.298-.163l-1.88-.219 1.88-.219a.47.47 0 0 0 .298-.163c.08-.092.13-.214.141-.344l.19-2.174z"/></g><g transform="matrix(.049607 -.029921 .034721 .057377 -316.358 318.706)"><path d="M8454.78 530.351c-.3-2.987-3.2-5.28-6.67-5.28s-6.37 2.293-6.67 5.28l-3.27 32.427c-.07.698-.33 1.365-.83 1.861-.24.237-.51.439-.84.472l-32.43 3.264c-3.38.339-5.92 2.808-5.92 5.741s2.54 5.402 5.92 5.742l32.43 3.263c.33.034.6.236.84.472.5.496.76 1.163.83 1.861l3.27 32.427c.3 2.987 3.2 5.28 6.67 5.28s6.37-2.293 6.67-5.28l3.26-32.427c.07-.698.34-1.365.84-1.861.23-.236.51-.438.84-.472l32.43-3.263c3.37-.34 5.92-2.808 5.92-5.742s-2.55-5.402-5.92-5.741l-32.43-3.264c-.33-.033-.61-.235-.84-.472-.5-.496-.77-1.163-.84-1.861l-3.26-32.427zm-6.67.5l3.26 32.427c.2 1.943 1.06 3.758 2.44 5.138a8.48 8.48 0 0 0 5.14 2.437l32.42 3.263-32.42 3.264c-1.94.195-3.76 1.056-5.14 2.436a8.5 8.5 0 0 0-2.44 5.138l-3.26 32.427-3.27-32.427a8.43 8.43 0 0 0-2.43-5.138c-1.38-1.38-3.2-2.241-5.14-2.436l-32.43-3.264 32.43-3.263a8.48 8.48 0 0 0 5.14-2.437c1.38-1.38 2.24-3.195 2.43-5.138l3.27-32.427z" fill="#fff"/></g></g></g><defs ><path id="C" d="M227.407 150.241c-.017-.2-.185-.354-.387-.354s-.369.154-.387.354l-.19 2.174c-.004.047-.019.092-.048.125-.014.016-.03.029-.049.032l-1.88.219c-.196.023-.343.188-.343.385s.147.362.343.385l1.88.219c.019.002.035.016.049.032.029.033.044.078.048.125l.19 2.174c.017.2.185.354.387.354s.369-.154.387-.354l.189-2.174c.004-.047.02-.092.049-.125.013-.016.03-.029.049-.032l1.88-.219c.195-.023.343-.188.343-.385s-.148-.362-.343-.385l-1.88-.219c-.019-.002-.035-.016-.049-.032-.029-.033-.045-.078-.049-.125l-.189-2.174zm-.387.034l.189 2.174a.61.61 0 0 0 .141.344c.08.093.185.15.298.163l1.879.219-1.879.219c-.112.013-.218.071-.298.163a.61.61 0 0 0-.141.344l-.189 2.174-.19-2.174c-.011-.13-.061-.252-.141-.344s-.185-.15-.298-.163l-1.88-.219 1.88-.219c.112-.013.218-.071.298-.163s.13-.214.141-.344l.19-2.174z"/></defs></svg>