<svg xmlns="http://www.w3.org/2000/svg" viewBox="0 0 286.9 158.8"><path d="M79.5 32.5c18.8 0 35 11.6 42.4 27.8l18.5-32.1C125.7 11 103.8 0 79.5 0 35.6 0 0 35.6 0 79.7c0 39.2 28.3 71.7 65.5 78.3l18.2-31.5c-1.4.1-2.8.2-4.2.2-25.6 0-47-21.3-47-47 0-25.6 21.4-47.2 47-47.2z" style="fill-rule:evenodd;clip-rule:evenodd;fill:#3c3c3c"/><path d="M205.8 96.1h71.7V65.5h-71.7V37.3l-33.4 57.9v63.6h33.4V96.1zm4.1-66h77v-29h-60.3l-16.7 29z" style="fill-rule:evenodd;clip-rule:evenodd;fill:#b3b3b3"/><path d="M119.5 158.8H81.1L172.2 1.1h38.4z" style="fill-rule:evenodd;clip-rule:evenodd;fill:#e2070f"/></svg>