<svg xmlns="http://www.w3.org/2000/svg" width="64" height="64"><path fill="#f47c00" d="M56.033 2.317H8.005a5.335 5.335 0 0 0-5.337 5.336v49.033c0 2.948 2.388 5.283 5.337 5.283h48.028c2.948 0 5.336-2.348 5.336-5.283V7.653a5.335 5.335 0 0 0-5.336-5.336zm0 54.409H8.005V7.613h48.028z"/><path fill="none" d="M0-.038h64.038V64H0z"/><path fill="#f47c00" d="M29.155 12.319a16.876 7.12 0 0 0-16.874 7.118 16.876 7.12 0 0 0 16.874 7.12 16.876 7.12 0 0 0 16.877-7.12 16.876 7.12 0 0 0-16.877-7.118zm-16.882 9.357v.06l.008-.06zm0 .06v5.505h.015a3.047 3.047 0 0 0-.015.144c-.003 3.932 7.553 7.12 16.874 7.121.122 0 .24-.007.36-.008v-4.336c0-.495.162-.95.43-1.323-.264.005-.523.015-.79.015-9.319 0-16.873-3.187-16.874-7.118zm33.746-.06.005.06v-.06zm.005.06c0 2.627-3.384 4.916-8.403 6.149h8.344c.027-.166.06-.331.06-.5a3.052 3.052 0 0 0-.014-.144h.013zm-33.751 7.61v.06l.008-.06zm0 .06v5.507h.015a2.928 2.928 0 0 0-.015.143c-.003 3.932 7.553 7.121 16.874 7.121.122 0 .24-.007.36-.008v-5.651c-.12 0-.238.008-.36.008-9.319 0-16.873-3.188-16.874-7.12zm19.292-.023-.45.428v20.798l.463.428h20.93l.455-.5V33.278l-3.81-3.896zm5.73 1.321h9.837v6.377h-9.837zm6.337 1.478v3.304h1.712v-3.304zm-31.36 4.836v.06l.009-.06zm0 .06v5.506h.016a2.928 2.928 0 0 0-.015.143c-.003 3.933 7.553 7.121 16.874 7.121.122 0 .24-.006.36-.007v-5.652c-.12 0-.238.008-.36.008-9.319 0-16.873-3.188-16.874-7.12zm22.691 3.617h14.19v7.892h-14.19z"/></svg>