<svg version="1.1" id="Ebene_1" xmlns="http://www.w3.org/2000/svg" x="0" y="0" viewBox="0 0 191.8 150" xml:space="preserve"><style>.st0{fill:#0b395d}</style><g id="visulisation"><path class="st0" d="M66.1 34h16v2.5h-16zm0 4.9h16v2.5h-16zm0 4.9h11.1v2.5H66.1zm0 4.9h11.1v2.5H66.1zM59.9 98h73.9v2.5H59.9z"/><path class="st0" d="M59.9 26.6h2.5v73.9h-2.5zm71.4 10.5l-4.9-9.9c-.3-.6-1-.9-1.7-.6l-9.9 4.9c-.6.3-.9 1-.6 1.7.3.6 1 .9 1.7.6l7.1-3.6-1.9 5.6c-8.6 24.4-30.6 41.5-56.4 43.7L65 82c26.7-2.3 49.6-20.1 58.5-45.4l2-5.7 3.6 7.3c.3.6 1 .9 1.7.6.5-.3.8-1.1.5-1.7z"/><path class="st0" d="M129.3 95.6H120c-.5 0-.9-.4-.9-.9V50.9c0-.5.4-.9.9-.9h9.3c.5 0 .9.4.9.9v43.8c0 .5-.4.9-.9.9zm-13.4 0h-9.7c-.4 0-.7-.3-.7-.7v-27c0-.4.3-.7.7-.7h9.7c.4 0 .7.3.7.7v27c0 .4-.3.7-.7.7zm-13.5 0h-9.9c-.3 0-.6-.3-.6-.6V76.4c0-.3.3-.6.6-.6h9.9c.3 0 .6.3.6.6V95c-.1.3-.3.6-.6.6zm-13.4 0H78.8c-.3 0-.5-.2-.5-.5V82.5c0-.3.2-.5.5-.5H89c.3 0 .5.2.5.5v12.6c0 .3-.3.5-.5.5zm-13.4 0H65.3c-.2 0-.4-.2-.4-.4v-9c0-.2.2-.4.4-.4h10.3c.2 0 .4.2.4.4v9c0 .2-.2.4-.4.4z"/><path d="M26.8 6.6S7.6 6.6 7.6 25.8V125s0 19.2 19.2 19.2h139.4s19.2 0 19.2-19.2V25.8s0-19.2-19.2-19.2H26.8z" fill="none" stroke="#0b395d" stroke-width="2.47"/><path d="M34.6 109.8c.3 0 .4.1.3.4l-3.1 11.2c-.7 2.8-.8 3.1-3.6 3.1-2.5 0-2.7-.4-3.5-3.1l-3.2-11.2c-.1-.3 0-.4.3-.4h2c.2 0 .2.1.4.4l3 10.6c.4 1.2.4 1.4 1 1.4.7 0 .8-.2 1.2-1.4l2.8-10.6c.1-.3.1-.4.4-.4h2zm5.9-4.2c0 1-.5 1.6-1.6 1.6-1 0-1.6-.6-1.6-1.6s.6-1.6 1.6-1.6 1.6.5 1.6 1.6zm-.7 4.2c.3 0 .4.1.4.4V124c0 .3-.1.4-.4.4H38c-.3 0-.4-.1-.4-.4v-13.8c0-.3.1-.4.4-.4h1.8zm13.4.1c.2 0 .4.2.4.4v1.1c0 .3-.1.4-.4.4h-5.1c-1.3 0-2 .4-2 1.4v.3c0 .7.4 1.4 1.7 1.9l3.6 1.4c2.5.9 2.7 2.3 2.7 3.8v.3c0 3-1.8 3.6-5.5 3.6-2.4 0-4.5-.2-5-.2-.3 0-.4-.2-.4-.4v-1.2c0-.3.1-.4.4-.4h5.1c2.2 0 2.9-.2 2.9-1.4v-.3c0-.8-.3-1.3-1.6-1.8l-3.9-1.4c-2.1-.8-2.6-2.4-2.6-3.8v-.6c0-2.9 2.6-3.3 5.5-3.3 1.2 0 2.6.1 4.2.2zm15.9-.1c.3 0 .4.1.4.4v13.5c0 .3-.1.3-.4.4-2.2.4-4.4.4-5.7.4-4.9 0-6.3-.6-6.3-6.3v-8.1c0-.3.2-.4.5-.4h1.7c.3 0 .4.1.4.4v7.9c0 4.1.8 4.2 3.4 4.2h3.7v-12.1c0-.3.1-.4.4-.4l1.9.1zm15.1 4.1v9.4c0 .2 0 .6-.5.7-1 .3-3.3.6-6.1.6-3.6 0-5.3-.7-5.3-4.3 0-3.2 1.7-4.1 4.8-4.1h4.4v-1.8c0-1.7-1-2.4-3.6-2.4h-4.1c-.3 0-.4-.1-.4-.4v-1.1c0-.3.1-.4.4-.4 1.6-.3 3-.3 4.1-.3 4.3-.1 6.3 1.2 6.3 4.1zm-7 4.3c-1.5 0-2.3.5-2.3 2 0 1.8.9 2.2 3.1 2.2.8 0 2.5-.1 3.5-.3v-3.8l-4.3-.1zm12.8-14c.3 0 .4.1.4.4V124c0 .3-.1.4-.4.4h-1.8c-.3 0-.4-.1-.4-.4v-19.4c0-.3.1-.4.4-.4H90zm7.1 1.4c0 1-.5 1.6-1.6 1.6-1 0-1.6-.6-1.6-1.6s.6-1.6 1.6-1.6c1.1 0 1.6.5 1.6 1.6zm-.7 4.2c.3 0 .4.1.4.4V124c0 .3-.1.4-.4.4h-1.8c-.3 0-.4-.1-.4-.4v-13.8c0-.3.1-.4.4-.4h1.8zm13.4.1c.2 0 .4.2.4.4v1.1c0 .3-.1.4-.4.4h-5.1c-1.3 0-2 .4-2 1.4v.3c0 .7.4 1.4 1.7 1.9l3.6 1.4c2.5.9 2.7 2.3 2.7 3.8v.3c0 3-1.8 3.6-5.5 3.6-2.4 0-4.5-.2-5-.2-.3 0-.4-.2-.4-.4v-1.2c0-.3.1-.4.4-.4h5.1c2.2 0 2.9-.2 2.9-1.4v-.3c0-.8-.3-1.3-1.6-1.8l-3.9-1.4c-2.1-.8-2.6-2.4-2.6-3.8v-.6c0-2.9 2.6-3.3 5.5-3.3 1.3 0 2.6.1 4.2.2zm14.9 4v9.4c0 .2 0 .6-.5.7-1 .3-3.3.6-6.1.6-3.6 0-5.3-.7-5.3-4.3 0-3.2 1.7-4.1 4.8-4.1h4.4v-1.8c0-1.7-1-2.4-3.6-2.4h-4.1c-.3 0-.4-.1-.4-.4v-1.1c0-.3.1-.4.4-.4 1.6-.3 3-.3 4.1-.3 4.4-.1 6.3 1.2 6.3 4.1zm-7 4.3c-1.5 0-2.3.5-2.3 2 0 1.8.9 2.2 3.1 2.2.8 0 2.5-.1 3.5-.3v-3.8l-4.3-.1zm13.6-12.4c.3-.1.5.1.5.3v3.7h2.9c.3 0 .4.1.4.4v1.3c0 .3-.1.4-.4.4h-2.9v9c0 1.2.3 1.4 1.8 1.4h1.3c.3 0 .4.1.4.4v1.3c0 .2-.1.4-.4.4-.5.1-1.3.2-1.5.2-2 0-4.2 0-4.2-3V112h-1.5c-.3 0-.4-.1-.4-.4v-1.3c0-.3.1-.4.4-.4h1.5v-3.2c0-.3.1-.4.4-.4l1.7-.5zm9.3-.2c0 1-.5 1.6-1.6 1.6-1 0-1.6-.6-1.6-1.6s.6-1.6 1.6-1.6c1.1 0 1.6.5 1.6 1.6zm-.7 4.2c.3 0 .4.1.4.4V124c0 .3-.1.4-.4.4h-1.8c-.3 0-.4-.1-.4-.4v-13.8c0-.3.1-.4.4-.4h1.8zm16.4 7.4c0 6-1.1 7.4-6.3 7.4s-6.4-1.5-6.4-7.4 1.1-7.5 6.4-7.5 6.3 1.5 6.3 7.5zm-10 0c0 4.1.4 5.2 3.7 5.2s3.7-1 3.7-5.2-.4-5.2-3.7-5.2c-3.3-.1-3.7 1-3.7 5.2zM172 116v8.1c0 .3-.2.4-.5.4h-1.7c-.3 0-.4-.1-.4-.4v-7.9c0-4.1-.8-4.2-3.4-4.2h-3.7v12.1c0 .3-.1.4-.4.4H160c-.3 0-.4-.1-.4-.4v-13.5c0-.3.1-.4.4-.4 2.1-.4 4.4-.4 5.7-.4 4.9-.1 6.3.5 6.3 6.2z" fill="#003764"/></g></svg>