<svg xmlns="http://www.w3.org/2000/svg" viewBox="0 0 191.8 150"><path fill="#0b395d" d="M64.92 33.19h16.02v2.46H64.92zM64.92 38.12h16.02v2.46H64.92zM64.92 43.05h11.09v2.46H64.92zM64.92 47.98h11.09v2.46H64.92zM58.75 97.27h73.94v2.46H58.75z"/><path fill="#0b395d" d="M58.68 25.86h2.46V99.8h-2.46zM130.1 36.34l-4.93-9.86a1.22 1.22 0 00-1.65-.55l-9.86 4.93a1.23 1.23 0 101.1 2.2l7.14-3.57-2 5.57a65.75 65.75 0 01-56.32 43.73l.21 2.46a68.22 68.22 0 0058.49-45.38l2-5.68 3.62 7.25a1.24 1.24 0 001.66.55 1.23 1.23 0 00.54-1.65z"/><rect x="117.91" y="49.21" width="11.09" height="45.6" rx=".87" fill="#0b395d"/><rect x="104.35" y="66.46" width="11.09" height="28.34" rx=".69" fill="#0b395d"/><rect x="90.66" y="75.09" width="11.09" height="19.72" rx=".57" fill="#0b395d"/><rect x="77.17" y="81.25" width="11.09" height="13.56" rx=".48" fill="#0b395d"/><rect x="63.68" y="84.95" width="11.09" height="9.86" rx=".41" fill="#0b395d"/><path d="M25.61 5.86S6.43 5.86 6.43 25v99.17s0 19.18 19.18 19.18H165s19.18 0 19.18-19.18V25s0-19.18-19.18-19.18z" fill="none" stroke="#0b395d" stroke-width="2.47"/><path d="M33.4 108.8c.33 0 .38.08.33.43l-3.08 11.27c-.74 2.77-.83 3.15-3.66 3.15-2.55 0-2.69-.38-3.49-3.15l-3.21-11.27c-.06-.35 0-.43.33-.43h2c.22 0 .25.08.36.43l3 10.68c.35 1.21.44 1.42 1 1.42.75 0 .86-.21 1.19-1.42L31 109.23c.09-.35.14-.43.36-.43zM39.36 104.49a1.62 1.62 0 01-3.24 0 1.43 1.43 0 011.62-1.56 1.42 1.42 0 011.62 1.56zm-.71 4.31a.36.36 0 01.41.4v13.91a.36.36 0 01-.41.4h-1.82a.36.36 0 01-.41-.4V109.2a.36.36 0 01.41-.4zM52.14 108.9a.41.41 0 01.39.43v1.16a.36.36 0 01-.41.4H47c-1.26 0-2 .43-2 1.4v.35c0 .76.35 1.4 1.7 1.89l3.66 1.47c2.52.94 2.74 2.31 2.74 3.79v.3c0 3-1.84 3.61-5.55 3.61a50.07 50.07 0 01-5-.25c-.33 0-.41-.19-.41-.4v-1.18a.37.37 0 01.41-.41h5.09c2.2 0 2.88-.24 2.88-1.4v-.32c0-.78-.33-1.29-1.59-1.8l-3.93-1.5a3.78 3.78 0 01-2.64-3.85V112c0-3 2.64-3.36 5.58-3.36a35 35 0 014.2.26zM68.11 108.8c.28 0 .41.13.41.4v13.61c0 .32-.13.35-.41.4a31.66 31.66 0 01-5.71.44c-4.92 0-6.38-.62-6.38-6.33v-8.12c0-.27.19-.4.47-.4h1.76a.36.36 0 01.41.4v7.93c0 4.09.82 4.26 3.46 4.26h3.77V109.2c0-.27.13-.4.41-.4zM83.31 112.88v9.42a.67.67 0 01-.52.75 22.93 22.93 0 01-6.1.6c-3.63 0-5.31-.73-5.31-4.34 0-3.22 1.74-4.14 4.87-4.14h4.42v-1.8c0-1.67-1-2.42-3.57-2.42H73c-.33 0-.41-.08-.41-.4v-1.11c0-.32.11-.37.38-.43a24.63 24.63 0 014.15-.32c4.27-.03 6.19 1.31 6.19 4.19zm-7 4.36c-1.51 0-2.3.49-2.3 2 0 1.78.9 2.18 3.16 2.18a16.47 16.47 0 003.51-.32v-3.88zM89.22 103.15c.28 0 .41.13.41.4v19.56c0 .27-.13.4-.41.4h-1.81c-.28 0-.41-.13-.41-.4v-19.56c0-.27.13-.4.41-.4zM96.37 104.49a1.62 1.62 0 11-1.62-1.56 1.42 1.42 0 011.62 1.56zm-.72 4.31c.28 0 .42.13.42.4v13.91c0 .27-.14.4-.42.4h-1.81c-.28 0-.41-.13-.41-.4V109.2c0-.27.13-.4.41-.4zM110.47 108.8c.3 0 .44.13.44.4v.64a.81.81 0 01-.17.49l-8.11 10.92h8.11c.28 0 .44.14.44.4v1.46c0 .27-.16.4-.44.4H99.25c-.27 0-.44-.13-.44-.4v-.76a.68.68 0 01.2-.48l8-10.81h-7.4c-.3 0-.44-.14-.44-.41v-1.45c0-.27.14-.4.44-.4zM125 112.88v9.42a.67.67 0 01-.52.75 22.93 22.93 0 01-6.1.6c-3.63 0-5.3-.73-5.3-4.34 0-3.22 1.73-4.14 4.86-4.14h4.42v-1.8c0-1.67-1-2.42-3.57-2.42h-4.12c-.33 0-.41-.08-.41-.4v-1.11c0-.32.11-.37.38-.43a24.63 24.63 0 014.15-.32c4.21-.03 6.21 1.31 6.21 4.19zm-7 4.36c-1.51 0-2.3.49-2.3 2 0 1.78.9 2.18 3.16 2.18a16.47 16.47 0 003.51-.32v-3.88zM131.55 104.73c.3-.08.47.06.47.35v3.74h2.88c.3 0 .44.14.44.41v1.26c0 .27-.14.4-.44.4H132v9c0 1.19.33 1.46 1.78 1.46h1.32c.3 0 .44.1.44.37v1.29c0 .25-.14.38-.41.43a7.38 7.38 0 01-1.54.17c-2 0-4.23 0-4.23-3.07v-9.69h-1.54c-.28 0-.41-.13-.41-.4v-1.26a.36.36 0 01.41-.41h1.54v-3.23c0-.26.11-.37.36-.43zM141 104.49a1.44 1.44 0 01-1.62 1.59 1.46 1.46 0 01-1.63-1.59 1.43 1.43 0 011.63-1.56 1.42 1.42 0 011.62 1.56zm-.72 4.31c.28 0 .41.13.41.4v13.91c0 .27-.13.4-.41.4h-1.81c-.28 0-.41-.13-.41-.4V109.2c0-.27.13-.4.41-.4zM156.78 116.17c0 6-1.07 7.48-6.38 7.48s-6.4-1.48-6.4-7.48 1.1-7.51 6.4-7.51 6.38 1.51 6.38 7.51zm-10.14 0c0 4.17.41 5.22 3.76 5.22s3.74-1 3.74-5.22-.41-5.25-3.74-5.25-3.76 1.08-3.76 5.25zM172.58 115v8.15c0 .27-.19.4-.46.4h-1.76c-.28 0-.41-.13-.41-.4v-7.94c0-4.11-.83-4.25-3.47-4.25h-3.76v12.19a.36.36 0 01-.41.4h-1.82a.36.36 0 01-.41-.4v-13.63c0-.35.14-.37.41-.43a32.23 32.23 0 015.72-.43c4.92 0 6.37.59 6.37 6.34z" fill="#0b395d"/></svg>