<?xml version="1.0" encoding="utf-8"?>
<!-- Generator: Adobe Illustrator 23.1.0, SVG Export Plug-In . SVG Version: 6.00 Build 0)  -->
<svg version="1.1" id="Ebene_1" xmlns="http://www.w3.org/2000/svg" xmlns:xlink="http://www.w3.org/1999/xlink" x="0px" y="0px"
	 viewBox="0 0 191.8 150" style="enable-background:new 0 0 191.8 150;" xml:space="preserve">
<style type="text/css">
	.st0{fill:#0B395D;}
	.st1{fill:none;stroke:#0B395D;stroke-width:2.4696;}
	.st2{fill:#003764;}
</style>
<g id="visulisation">
	<g>
		<g>
			<g>
				<rect x="66.1" y="34" class="st0" width="16" height="2.5"/>
			</g>
		</g>
		<g>
			<g>
				<rect x="66.1" y="38.9" class="st0" width="16" height="2.5"/>
			</g>
		</g>
		<g>
			<g>
				<rect x="66.1" y="43.8" class="st0" width="11.1" height="2.5"/>
			</g>
		</g>
		<g>
			<g>
				<rect x="66.1" y="48.7" class="st0" width="11.1" height="2.5"/>
			</g>
		</g>
		<g>
			<g>
				<rect x="59.9" y="98" class="st0" width="73.9" height="2.5"/>
			</g>
			<g>
				<g>
					<rect x="59.9" y="26.6" class="st0" width="2.5" height="73.9"/>
				</g>
			</g>
		</g>
		<g>
			<g>
				<path class="st0" d="M131.3,37.1l-4.9-9.9c-0.3-0.6-1-0.9-1.7-0.6l0,0l-9.9,4.9c-0.6,0.3-0.9,1-0.6,1.7c0.3,0.6,1,0.9,1.7,0.6
					l7.1-3.6l-1.9,5.6c-8.6,24.4-30.6,41.5-56.4,43.7L65,82c26.7-2.3,49.6-20.1,58.5-45.4l2-5.7l3.6,7.3c0.3,0.6,1,0.9,1.7,0.6
					C131.3,38.5,131.6,37.7,131.3,37.1z"/>
			</g>
		</g>
		<g>
			<path class="st0" d="M129.3,95.6H120c-0.5,0-0.9-0.4-0.9-0.9V50.9c0-0.5,0.4-0.9,0.9-0.9h9.3c0.5,0,0.9,0.4,0.9,0.9v43.8
				C130.2,95.2,129.8,95.6,129.3,95.6z"/>
			<path class="st0" d="M115.9,95.6h-9.7c-0.4,0-0.7-0.3-0.7-0.7v-27c0-0.4,0.3-0.7,0.7-0.7h9.7c0.4,0,0.7,0.3,0.7,0.7v27
				C116.6,95.3,116.3,95.6,115.9,95.6z"/>
			<path class="st0" d="M102.4,95.6h-9.9c-0.3,0-0.6-0.3-0.6-0.6V76.4c0-0.3,0.3-0.6,0.6-0.6h9.9c0.3,0,0.6,0.3,0.6,0.6V95
				C102.9,95.3,102.7,95.6,102.4,95.6z"/>
			<path class="st0" d="M89,95.6H78.8c-0.3,0-0.5-0.2-0.5-0.5V82.5c0-0.3,0.2-0.5,0.5-0.5H89c0.3,0,0.5,0.2,0.5,0.5v12.6
				C89.5,95.4,89.2,95.6,89,95.6z"/>
			<path class="st0" d="M75.6,95.6H65.3c-0.2,0-0.4-0.2-0.4-0.4v-9c0-0.2,0.2-0.4,0.4-0.4h10.3c0.2,0,0.4,0.2,0.4,0.4v9
				C76,95.4,75.8,95.6,75.6,95.6z"/>
		</g>
	</g>
	<path class="st1" d="M26.8,6.6c0,0-19.2,0-19.2,19.2V125c0,0,0,19.2,19.2,19.2h139.4c0,0,19.2,0,19.2-19.2V25.8
		c0,0,0-19.2-19.2-19.2C166.2,6.6,26.8,6.6,26.8,6.6z"/>
	<g>
		<path class="st2" d="M34.6,109.8c0.3,0,0.4,0.1,0.3,0.4l-3.1,11.2c-0.7,2.8-0.8,3.1-3.6,3.1c-2.5,0-2.7-0.4-3.5-3.1l-3.2-11.2
			c-0.1-0.3,0-0.4,0.3-0.4h2c0.2,0,0.2,0.1,0.4,0.4l3,10.6c0.4,1.2,0.4,1.4,1,1.4c0.7,0,0.8-0.2,1.2-1.4l2.8-10.6
			c0.1-0.3,0.1-0.4,0.4-0.4H34.6z"/>
		<path class="st2" d="M40.5,105.6c0,1-0.5,1.6-1.6,1.6c-1,0-1.6-0.6-1.6-1.6s0.6-1.6,1.6-1.6S40.5,104.5,40.5,105.6z M39.8,109.8
			c0.3,0,0.4,0.1,0.4,0.4V124c0,0.3-0.1,0.4-0.4,0.4H38c-0.3,0-0.4-0.1-0.4-0.4v-13.8c0-0.3,0.1-0.4,0.4-0.4H39.8z"/>
		<path class="st2" d="M53.2,109.9c0.2,0,0.4,0.2,0.4,0.4v1.1c0,0.3-0.1,0.4-0.4,0.4h-5.1c-1.3,0-2,0.4-2,1.4v0.3
			c0,0.7,0.4,1.4,1.7,1.9l3.6,1.4c2.5,0.9,2.7,2.3,2.7,3.8v0.3c0,3-1.8,3.6-5.5,3.6c-2.4,0-4.5-0.2-5-0.2c-0.3,0-0.4-0.2-0.4-0.4
			v-1.2c0-0.3,0.1-0.4,0.4-0.4h5.1c2.2,0,2.9-0.2,2.9-1.4v-0.3c0-0.8-0.3-1.3-1.6-1.8l-3.9-1.4c-2.1-0.8-2.6-2.4-2.6-3.8V113
			c0-2.9,2.6-3.3,5.5-3.3C50.2,109.7,51.6,109.8,53.2,109.9z"/>
		<path class="st2" d="M69.1,109.8c0.3,0,0.4,0.1,0.4,0.4v13.5c0,0.3-0.1,0.3-0.4,0.4c-2.2,0.4-4.4,0.4-5.7,0.4
			c-4.9,0-6.3-0.6-6.3-6.3v-8.1c0-0.3,0.2-0.4,0.5-0.4h1.7c0.3,0,0.4,0.1,0.4,0.4v7.9c0,4.1,0.8,4.2,3.4,4.2h3.7v-12.1
			c0-0.3,0.1-0.4,0.4-0.4L69.1,109.8L69.1,109.8z"/>
		<path class="st2" d="M84.2,113.9v9.4c0,0.2,0,0.6-0.5,0.7c-1,0.3-3.3,0.6-6.1,0.6c-3.6,0-5.3-0.7-5.3-4.3c0-3.2,1.7-4.1,4.8-4.1
			h4.4v-1.8c0-1.7-1-2.4-3.6-2.4h-4.1c-0.3,0-0.4-0.1-0.4-0.4v-1.1c0-0.3,0.1-0.4,0.4-0.4c1.6-0.3,3-0.3,4.1-0.3
			C82.2,109.7,84.2,111,84.2,113.9z M77.2,118.2c-1.5,0-2.3,0.5-2.3,2c0,1.8,0.9,2.2,3.1,2.2c0.8,0,2.5-0.1,3.5-0.3v-3.8L77.2,118.2
			L77.2,118.2z"/>
		<path class="st2" d="M90,104.2c0.3,0,0.4,0.1,0.4,0.4V124c0,0.3-0.1,0.4-0.4,0.4h-1.8c-0.3,0-0.4-0.1-0.4-0.4v-19.4
			c0-0.3,0.1-0.4,0.4-0.4H90z"/>
		<path class="st2" d="M97.1,105.6c0,1-0.5,1.6-1.6,1.6c-1,0-1.6-0.6-1.6-1.6s0.6-1.6,1.6-1.6C96.6,104,97.1,104.5,97.1,105.6z
			 M96.4,109.8c0.3,0,0.4,0.1,0.4,0.4V124c0,0.3-0.1,0.4-0.4,0.4h-1.8c-0.3,0-0.4-0.1-0.4-0.4v-13.8c0-0.3,0.1-0.4,0.4-0.4H96.4z"/>
		<path class="st2" d="M109.8,109.9c0.2,0,0.4,0.2,0.4,0.4v1.1c0,0.3-0.1,0.4-0.4,0.4h-5.1c-1.3,0-2,0.4-2,1.4v0.3
			c0,0.7,0.4,1.4,1.7,1.9l3.6,1.4c2.5,0.9,2.7,2.3,2.7,3.8v0.3c0,3-1.8,3.6-5.5,3.6c-2.4,0-4.5-0.2-5-0.2c-0.3,0-0.4-0.2-0.4-0.4
			v-1.2c0-0.3,0.1-0.4,0.4-0.4h5.1c2.2,0,2.9-0.2,2.9-1.4v-0.3c0-0.8-0.3-1.3-1.6-1.8l-3.9-1.4c-2.1-0.8-2.6-2.4-2.6-3.8V113
			c0-2.9,2.6-3.3,5.5-3.3C106.9,109.7,108.2,109.8,109.8,109.9z"/>
		<path class="st2" d="M124.7,113.9v9.4c0,0.2,0,0.6-0.5,0.7c-1,0.3-3.3,0.6-6.1,0.6c-3.6,0-5.3-0.7-5.3-4.3c0-3.2,1.7-4.1,4.8-4.1
			h4.4v-1.8c0-1.7-1-2.4-3.6-2.4h-4.1c-0.3,0-0.4-0.1-0.4-0.4v-1.1c0-0.3,0.1-0.4,0.4-0.4c1.6-0.3,3-0.3,4.1-0.3
			C122.8,109.7,124.7,111,124.7,113.9z M117.7,118.2c-1.5,0-2.3,0.5-2.3,2c0,1.8,0.9,2.2,3.1,2.2c0.8,0,2.5-0.1,3.5-0.3v-3.8
			L117.7,118.2L117.7,118.2z"/>
		<path class="st2" d="M131.3,105.8c0.3-0.1,0.5,0.1,0.5,0.3v3.7h2.9c0.3,0,0.4,0.1,0.4,0.4v1.3c0,0.3-0.1,0.4-0.4,0.4h-2.9v9
			c0,1.2,0.3,1.4,1.8,1.4h1.3c0.3,0,0.4,0.1,0.4,0.4v1.3c0,0.2-0.1,0.4-0.4,0.4c-0.5,0.1-1.3,0.2-1.5,0.2c-2,0-4.2,0-4.2-3V112h-1.5
			c-0.3,0-0.4-0.1-0.4-0.4v-1.3c0-0.3,0.1-0.4,0.4-0.4h1.5v-3.2c0-0.3,0.1-0.4,0.4-0.4L131.3,105.8z"/>
		<path class="st2" d="M140.6,105.6c0,1-0.5,1.6-1.6,1.6c-1,0-1.6-0.6-1.6-1.6s0.6-1.6,1.6-1.6C140.1,104,140.6,104.5,140.6,105.6z
			 M139.9,109.8c0.3,0,0.4,0.1,0.4,0.4V124c0,0.3-0.1,0.4-0.4,0.4h-1.8c-0.3,0-0.4-0.1-0.4-0.4v-13.8c0-0.3,0.1-0.4,0.4-0.4H139.9z"
			/>
		<path class="st2" d="M156.3,117.2c0,6-1.1,7.4-6.3,7.4s-6.4-1.5-6.4-7.4s1.1-7.5,6.4-7.5S156.3,111.2,156.3,117.2z M146.3,117.2
			c0,4.1,0.4,5.2,3.7,5.2s3.7-1,3.7-5.2s-0.4-5.2-3.7-5.2C146.7,111.9,146.3,113,146.3,117.2z"/>
		<path class="st2" d="M172,116v8.1c0,0.3-0.2,0.4-0.5,0.4h-1.7c-0.3,0-0.4-0.1-0.4-0.4v-7.9c0-4.1-0.8-4.2-3.4-4.2h-3.7v12.1
			c0,0.3-0.1,0.4-0.4,0.4H160c-0.3,0-0.4-0.1-0.4-0.4v-13.5c0-0.3,0.1-0.4,0.4-0.4c2.1-0.4,4.4-0.4,5.7-0.4
			C170.6,109.7,172,110.3,172,116z"/>
	</g>
</g>
</svg>
