<svg xmlns="http://www.w3.org/2000/svg" viewBox="0 0 191.8 150"><defs><clipPath id="a"><path fill="none" d="M5.2 4.62h180.23v140H5.2z"/></clipPath></defs><g clip-path="url(#a)"><path d="M25.61 5.86S6.43 5.86 6.43 25v99.17s0 19.18 19.18 19.18H165s19.18 0 19.18-19.18V25s0-19.18-19.18-19.18z" fill="none" stroke="#0b395d" stroke-width="2.47"/><path d="M127.62 47.93a6.37 6.37 0 10-6.37 6.37 6.36 6.36 0 006.37-6.37m9.21 4.66a2.73 2.73 0 10-3.83-3.86l-6.48 6.48H116l-6.48-6.48a2.73 2.73 0 10-3.87 3.86l8.3 8.3v23.43a3.19 3.19 0 006.37 0V73.4h1.82v10.92a3.19 3.19 0 006.37 0V60.89zM75.52 47.47a5.84 5.84 0 10-5.84 5.84 5.83 5.83 0 005.84-5.84m10.84 20.85a2.55 2.55 0 00-.42-1.38l-6.67-10a5.74 5.74 0 00-4.59-2.79h-10a5.74 5.74 0 00-4.59 2.79l-6.67 10a2.55 2.55 0 00-.42 1.38 2.5 2.5 0 004.59 1.38l5.91-8.88h1.18v3.44L58.24 75a1.58 1.58 0 00-.23.86 1.67 1.67 0 001.66 1.66h5v7.09a2.93 2.93 0 002.93 2.89h4.17a2.91 2.91 0 002.91-2.92v-7.09h5a1.68 1.68 0 001.67-1.66 1.59 1.59 0 00-.24-.86l-6.43-10.71v-3.44h1.18l5.91 8.88a2.5 2.5 0 004.59-1.38M81.81 43.82c-3.31-1.93-5.44-4.87-5.44-8.2s2.25-6.45 5.7-8.35a10.85 10.85 0 00-.47 3.11c0 3.66 1.89 7 5.3 9.53a20.08 20.08 0 0011.72 3.56c.59 0 1.21 0 1.8-.08a17.79 17.79 0 01-9.65 2.7 20.85 20.85 0 01-3.6-.33 17.48 17.48 0 01-5.69 2.62 14.91 14.91 0 01-1.76.32.69.69 0 01-.71-.59c-.08-.39.18-.63.41-.9a10.82 10.82 0 002.39-3.39m16.81-23.91c7.95 0 14.4 4.68 14.4 10.47 0 3.31-2.13 6.28-5.44 8.2A10.45 10.45 0 00110 42c.22.26.49.51.41.89a.7.7 0 01-.66.6h-.06a15.68 15.68 0 01-1.76-.33 17.12 17.12 0 01-5.68-2.62 20 20 0 01-3.6.33c-8 0-14.4-4.68-14.4-10.47s6.44-10.47 14.4-10.47m0 2.62c-6.38 0-11.78 3.6-11.78 7.85s5.4 7.85 11.78 7.85a18.12 18.12 0 003.13-.28l1.08-.21.9.64c.41.28.84.55 1.27.79l-.72-1.71 2-1.15c2.61-1.51 4.13-3.68 4.13-5.93 0-4.25-5.4-7.85-11.78-7.85" fill="#0b395d"/></g><path d="M65.68 111c.28 0 .44.16.44.46v12.51c0 5.24-1.06 6.76-6.31 6.76a31.13 31.13 0 01-4-.24.38.38 0 01-.35-.43v-1.15c0-.26.1-.4.38-.4h3.88c3.06 0 3.74-.72 3.74-3.13v-.16a21.68 21.68 0 01-3.61.22c-5.16 0-6.25-1.5-6.25-7.49s1.12-7.4 6.39-7.4a29.45 29.45 0 015.69.45zM60 112.75c-3.36 0-3.74 1-3.74 5.19s.41 5.21 3.8 5.21a28.67 28.67 0 003.44-.15v-10.25zM77.18 110.8c.27.08.41.19.41.46v1.12c0 .27-.16.4-.44.37h-2.37c-1.89 0-2.38.3-2.38 1.5v10.61a.36.36 0 01-.41.4h-1.77c-.28 0-.41-.13-.41-.4v-11.23c0-3 2.73-3.12 4.31-3.12a15.81 15.81 0 013.06.29zM91.79 118c0 6-1.06 7.43-6.34 7.43s-6.36-1.47-6.36-7.43 1.09-7.46 6.36-7.46 6.34 1.46 6.34 7.46zm-10.08 0c0 4.14.41 5.18 3.74 5.18s3.72-1 3.72-5.18-.41-5.22-3.72-5.22-3.74 1.01-3.74 5.22zM107 110.64c.28 0 .41.13.41.4v13.53c0 .32-.13.35-.41.4a32.07 32.07 0 01-5.68.43c-4.89 0-6.34-.62-6.34-6.29V111c0-.27.2-.4.47-.4h1.75a.36.36 0 01.41.4v7.89c0 4.06.82 4.22 3.44 4.22h3.74V111a.36.36 0 01.41-.4zM123.63 117.94c0 6-1.09 7.46-6.25 7.46a31.46 31.46 0 01-3.61-.16v4.92a.36.36 0 01-.41.4h-1.8a.36.36 0 01-.41-.4v-18.74c0-.3.17-.41.44-.46a31.38 31.38 0 015.65-.45c5.3 0 6.39 1.49 6.39 7.43zm-9.86-5.19v10.19a31.15 31.15 0 003.45.21c3.38 0 3.79-1 3.79-5.18s-.38-5.22-3.74-5.22zM136.17 110.75a.39.39 0 01.38.43v1.14a.37.37 0 01-.41.41h-5.08c-1.25 0-2 .42-2 1.39v.34c0 .75.35 1.39 1.69 1.87l3.63 1.42c2.52.94 2.73 2.3 2.73 3.77v.29c0 3-1.83 3.59-5.51 3.59-2.38 0-4.54-.19-5-.24s-.41-.19-.41-.4v-1.18a.36.36 0 01.41-.4h5c2.19 0 2.87-.24 2.87-1.39v-.32c0-.78-.33-1.29-1.58-1.79l-3.88-1.45a3.75 3.75 0 01-2.63-3.82v-.56c0-2.94 2.63-3.34 5.55-3.34a34.77 34.77 0 014.24.24z" fill="#003764"/></svg>