<svg xmlns="http://www.w3.org/2000/svg" xmlns:xlink="http://www.w3.org/1999/xlink" viewBox="0 0 191.8 150"><defs><clipPath id="clip-path"><rect x="5.2" y="4.62" width="180.23" height="140" style="fill:none"/></clipPath></defs><title>groups_c4g</title><g id="Zentral"><g style="clip-path:url(#clip-path)"><path d="M25.61,5.86S6.43,5.86,6.43,25v99.17s0,19.18,19.18,19.18H165s19.18,0,19.18-19.18V25s0-19.18-19.18-19.18Z" style="fill:none;stroke:#0b395d;stroke-width:2.4695510774624982px"/><path d="M127.62,47.93a6.37,6.37,0,1,0-6.37,6.37,6.36,6.36,0,0,0,6.37-6.37m9.21,4.66A2.73,2.73,0,1,0,133,48.73l-6.48,6.48H116l-6.48-6.48a2.73,2.73,0,1,0-3.87,3.86l8.3,8.3V84.32a3.19,3.19,0,0,0,6.37,0V73.4h1.82V84.32a3.19,3.19,0,0,0,6.37,0V60.89Z" style="fill:#0b395d"/><path d="M75.52,47.47a5.84,5.84,0,1,0-5.84,5.84,5.83,5.83,0,0,0,5.84-5.84M86.36,68.32a2.55,2.55,0,0,0-.42-1.38l-6.67-10a5.74,5.74,0,0,0-4.59-2.79h-10a5.74,5.74,0,0,0-4.59,2.79l-6.67,10A2.55,2.55,0,0,0,53,68.32a2.5,2.5,0,0,0,4.59,1.38l5.91-8.88h1.18v3.44L58.24,75a1.58,1.58,0,0,0-.23.86,1.67,1.67,0,0,0,1.66,1.66h5v7.09A2.93,2.93,0,0,0,67.6,87.5h4.17a2.91,2.91,0,0,0,2.91-2.92V77.49h5a1.68,1.68,0,0,0,1.67-1.66,1.59,1.59,0,0,0-.24-.86L74.68,64.26V60.82h1.18l5.91,8.88a2.5,2.5,0,0,0,4.59-1.38" style="fill:#0b395d"/><path d="M81.81,43.82c-3.31-1.93-5.44-4.87-5.44-8.2s2.25-6.45,5.7-8.35a10.85,10.85,0,0,0-.47,3.11c0,3.66,1.89,7,5.3,9.53a20.08,20.08,0,0,0,11.72,3.56c.59,0,1.21,0,1.8-.08a17.79,17.79,0,0,1-9.65,2.7,20.85,20.85,0,0,1-3.6-.33,17.48,17.48,0,0,1-5.69,2.62,14.91,14.91,0,0,1-1.76.32.69.69,0,0,1-.71-.59c-.08-.39.18-.63.41-.9a10.82,10.82,0,0,0,2.39-3.39M98.62,19.91c7.95,0,14.4,4.68,14.4,10.47,0,3.31-2.13,6.28-5.44,8.2A10.45,10.45,0,0,0,110,42c.22.26.49.51.41.89a.7.7,0,0,1-.66.6h-.06a15.68,15.68,0,0,1-1.76-.33,17.12,17.12,0,0,1-5.68-2.62,20,20,0,0,1-3.6.33c-8,0-14.4-4.68-14.4-10.47s6.44-10.47,14.4-10.47m0,2.62c-6.38,0-11.78,3.6-11.78,7.85s5.4,7.85,11.78,7.85a18.12,18.12,0,0,0,3.13-.28l1.08-.21.9.64c.41.28.84.55,1.27.79l-.72-1.71,2-1.15c2.61-1.51,4.13-3.68,4.13-5.93,0-4.25-5.4-7.85-11.78-7.85" style="fill:#0b395d"/><path d="M146.09,104.64c-4.75,0-8.17,1-8.17,5.09v.76a5.45,5.45,0,0,0,3.8,5.59l5,1.9c1.72.64,2.17,1.25,2.17,2.16v.38c0,1.34-.8,1.64-3.34,1.64h-7.38c-.45,0-.61.19-.61.61v2.35c0,.35.12.54.57.57,1.26.12,4.11.35,7.42.35,5,0,7.86-1,7.86-5.33v-.49c0-2.36-.53-4.29-3.87-5.55l-5-1.82c-1.6-.61-2.09-1.33-2.09-2.25v-.45c0-1.18.91-1.67,2.51-1.67h7c.42,0,.61-.19.61-.57v-2.25c0-.34-.19-.53-.57-.6a38.07,38.07,0,0,0-5.93-.42m-20.22,4c4.22,0,4.64,1.48,4.64,6.69,0,5.43-.57,6.69-4.87,6.69a38.56,38.56,0,0,1-4.1-.23V108.63Zm-.15-4a45.19,45.19,0,0,0-8.1.68c-.45.08-.72.31-.72.76v26.76c0,.42.19.61.57.61H121c.38,0,.57-.19.57-.61v-7a39.73,39.73,0,0,0,4.82.23c7,0,8.74-2.25,8.74-10.87,0-8.33-1.71-10.53-9.38-10.53m-16.78.19a.5.5,0,0,0-.57.57V122H104c-3.57,0-4.45-.26-4.45-5.89V105.4c0-.38-.15-.57-.53-.57H95.6c-.38,0-.65.19-.65.57V117c0,7.94,2,9.05,9,9.05a45.66,45.66,0,0,0,8.48-.65c.38-.08.57-.11.57-.61V105.4a.5.5,0,0,0-.57-.57Zm-26.51,3.8c4.07,0,4.64,1.33,4.64,6.73S86.5,122,82.43,122s-4.63-1.33-4.63-6.68.57-6.73,4.63-6.73m0-4c-7.6,0-9.23,2.13-9.23,10.72S74.83,126,82.43,126s9.28-2.13,9.28-10.68S90,104.64,82.43,104.64m-16.36,0c-2.81,0-6.42.34-6.42,4.86v15.78a.5.5,0,0,0,.57.57h3.46a.5.5,0,0,0,.57-.57v-14.6c0-1.67.68-2.05,3-2.05h3.46c.42,0,.65-.15.65-.57v-2.32c0-.42-.23-.57-.61-.68a23.77,23.77,0,0,0-4.64-.42m-14.89,4v13.15A31,31,0,0,1,47,122c-4.26,0-4.83-1.26-4.83-6.69,0-5.21.42-6.69,4.6-6.69Zm-4.22-4c-7.63,0-9.38,2.16-9.38,10.53,0,8.59,1.71,10.87,8.74,10.87a28.3,28.3,0,0,0,4.86-.35v.19c0,3-.91,3.92-4.71,3.92H40.54c-.38,0-.57.15-.57.57v2.24a.59.59,0,0,0,.53.61,45.21,45.21,0,0,0,6.24.42c7.71,0,9-2.4,9-9V106.08a.71.71,0,0,0-.72-.76,44.07,44.07,0,0,0-8.1-.68" style="fill:#0b395d"/></g></g></svg>