<?xml version="1.0" encoding="utf-8"?>
<!-- Generator: Adobe Illustrator 19.0.0, SVG Export Plug-In . SVG Version: 6.00 Build 0)  -->
<svg version="1.1" id="Ebene_1" xmlns="http://www.w3.org/2000/svg" xmlns:xlink="http://www.w3.org/1999/xlink" x="0px" y="0px"
	 viewBox="0 0 16383 16383" style="enable-background:new 0 0 16383 16383;" xml:space="preserve">
<style type="text/css">
	.st0{fill-rule:evenodd;clip-rule:evenodd;fill:#CF0C11;}
</style>
<path id="XMLID_5_" class="st0" d="M8191.5,233.5c4395.1,0,7958,3562.9,7958,7958c0,1163-249.6,2267.7-697.9,3263.6H9866.6
	l4811.9-5314.6H9999.8v-1659c0-188.1-47.8-359.8-144-516c-197.2-319.9-481.6-480.5-852.5-480.5H3693.2
	c-284.6,0-499.4,47.6-645.5,141.7c-237,149.5-355.4,435.2-355.4,854.8v1660.8H500.4C1404.3,2740.3,4505,233.5,8191.5,233.5
	L8191.5,233.5z M14701.1,12769.6l-7489.6,14.1l4652.5-5314.6H9999.8v1223.2l-1328.7,1513.9V7470.9H4020.9v2657.3H2692.2V7470.9
	H266.4c-21.3,237.4-32.9,477.7-32.9,720.6c0,4395.1,3562.9,7958,7958,7958C10882.3,16149.5,13260.9,14813.8,14701.1,12769.6
	L14701.1,12769.6z M7211.6,6142.3v-1.8h1459.6v-996.9c0-96.3-32.1-175-95.2-237c-63.2-62-142.9-93.1-239.1-93.1H4350.9
	c-220.4,0-330,109.6-330,330v998.7H7211.6z"/>
</svg>
