<svg xmlns="http://www.w3.org/2000/svg" viewBox="0 0 504 441.62"><defs><style>.cls-1,.cls-2{fill:#333a46;}.cls-2{font-size:62px;font-family:FiraSans-Regular, Fira Sans;letter-spacing:-0.03em;}.cls-3{letter-spacing:-0.03em;}.cls-4{letter-spacing:-0.02em;}.cls-5{fill:#fff;}.cls-6{fill:#7abfbc;}</style></defs><g id="Ebene_2" data-name="Ebene 2"><g id="mobile.de_import" data-name="mobile.de import"><polygon class="cls-1" points="409.52 364.46 4 364.46 98.48 0 504 0 409.52 364.46"/><text class="cls-2" transform="translate(0.98 419.73) scale(0.9 1)">mobi<tspan class="cls-3" x="137.45" y="0">l</tspan><tspan x="153.45" y="0">e</tspan><tspan class="cls-3" x="186" y="0">.</tspan><tspan x="198.71" y="0">de impo</tspan><tspan class="cls-4" x="419.12" y="0">r</tspan><tspan x="442.12" y="0">t</tspan></text><path class="cls-5" d="M376.7,234.08a3.74,3.74,0,0,1-3.79,3.8H369.4V253A22.73,22.73,0,1,1,324,253V237.88H185.86V253a22.73,22.73,0,0,1-45.46,0V237.88h-2.31a3.75,3.75,0,0,1-3.8-3.8V188.63c0-14.66,3.28-22.87,17.67-26.5h0l24.59-49.6c3.69-8.92,13.2-24.61,33.5-24.61H301c18.95,0,30.61,16.52,33.49,24.61l26.36,49.6h0c15.9,6.19,15.9,11.84,15.9,26.5Zm-47.13-72-24.48-42.26a5.74,5.74,0,0,0-4.14-3.19h-90.9a5.74,5.74,0,0,0-4.15,3.19l-22.7,42.26s19.76,6.19,72.3,6.19C307.13,168.32,329.57,162.13,329.57,162.13Z"/><path class="cls-6" d="M172.17,181.07A18.93,18.93,0,1,0,191.1,200,19,19,0,0,0,172.17,181.07Z"/><path class="cls-6" d="M338.83,181.07A18.93,18.93,0,1,0,357.75,200,19,19,0,0,0,338.83,181.07Z"/></g></g></svg>