<svg id="Ebene_1" xmlns="http://www.w3.org/2000/svg" viewBox="0 0 500 500"><style>.st0{fill:#333a46}.st3{fill:#7abfbc}</style><path class="st0" d="M405.5 432.2H0L94.5 67.8H500z"/><path fill="none" d="M0 441h404v60H0z"/><path class="st0" d="M51.5 468.5v28h-6.1v-27c0-5.8-2.3-7.5-4.9-7.5-3.8 0-5.9 2.7-8.3 6.9v27.7H26v-27c0-5.8-2.3-7.5-4.9-7.5-3.8 0-5.9 2.7-8.3 6.9v27.7H6.7v-39H12l.5 5.7c2.3-3.9 5.5-6.6 10.1-6.6 4.3 0 7.5 2.6 8.9 7 2.5-4.2 5.7-7 10.5-7 5.7-.2 9.5 4.4 9.5 11.7zM90.9 477c0 12.1-5.7 20.4-15.7 20.4s-15.7-8-15.7-20.4c0-12.1 5.7-20.4 15.7-20.4s15.7 8 15.7 20.4zm-24.7 0c0 10.1 3.2 14.9 9.1 14.9 5.9 0 9.1-4.7 9.1-14.9 0-10.1-3.2-14.9-9-14.9-5.9 0-9.2 4.7-9.2 14.9zM128.5 477c0 12.2-5.3 20.4-13.8 20.4-3.9 0-6.9-1.9-9.3-5.2l-.6 4.3h-5.4v-54.7l6.1-.8v21.4c2.4-3.6 5.7-5.8 9.9-5.8 7.9 0 13.1 7.3 13.1 20.4zm-6.6 0c0-11.1-3.3-14.9-8.2-14.9-3.9 0-6.4 3-8.2 6.1v18.6c1.8 3.1 4.6 5.3 7.7 5.3 5.2-.1 8.7-4.5 8.7-15.1zM144.6 443.4c0 2.6-1.7 4.6-4.3 4.6-2.5 0-4.3-2-4.3-4.6 0-2.7 1.7-4.7 4.3-4.7 2.6.1 4.3 2.1 4.3 4.7zm-7.3 53.1v-39h6.1v39h-6.1zM160.2 488.7c0 2.1.6 3.1 2.2 3.1.9 0 1.6-.1 2.3-.4l1.6 4.7c-1.7.9-3.4 1.3-5.2 1.3-4.5 0-7-3-7-8.6v-47l6.1-.8v47.7zM197.9 479.3h-22.4c.6 9 4.4 12.5 9.5 12.5 3.5 0 6.1-1 9.1-3.4l2.7 4.1c-3.5 3-7.4 4.9-12.3 4.9-9.8 0-15.5-7.6-15.5-20 0-12.1 5.5-20.8 14.6-20.8 9.5 0 14.5 7.3 14.5 19.2 0 1.4-.1 2.6-.2 3.5zm-5.9-5.4c0-7.6-2.7-11.8-8.3-11.8-4.7 0-7.7 3.6-8.2 12.3H192v-.5zM267.3 468.5v28h-6.1v-27c0-5.8-2.3-7.5-4.9-7.5-3.8 0-5.9 2.7-8.3 6.9v27.7h-6.1v-27c0-5.8-2.3-7.5-4.9-7.5-3.8 0-5.9 2.7-8.3 6.9v27.7h-6.1v-39h5.3l.5 5.7c2.3-3.9 5.5-6.6 10.1-6.6 4.3 0 7.5 2.6 8.9 7 2.5-4.2 5.7-7 10.5-7 5.6-.2 9.4 4.4 9.4 11.7zM306.7 477c0 12.1-5.7 20.4-15.7 20.4s-15.7-8-15.7-20.4c0-12.1 5.7-20.4 15.7-20.4s15.7 8 15.7 20.4zm-24.7 0c0 10.1 3.2 14.9 9.1 14.9 5.9 0 9.1-4.7 9.1-14.9 0-10.1-3.2-14.9-9-14.9-5.9 0-9.2 4.7-9.2 14.9zM342.3 496.5h-5.4l-.6-5.4c-2.3 3.9-5.8 6.3-10.1 6.3-8.5 0-13.3-8.1-13.3-20.2 0-11.9 5.2-20.6 13.8-20.6 4.1 0 7.1 2.1 9.5 4.8V441l6.1.8v54.7zm-6.1-10.3v-19.1c-2.2-3.1-4.7-5.1-8.1-5.1-5.3 0-8.5 4.9-8.5 15 0 10.3 2.9 14.9 8 14.9 3.9.1 6.3-2.1 8.6-5.7zM374.2 496.5l-.5-6.1c-2.7 4.7-5.9 7-10.9 7-6.1 0-9.8-4.3-9.8-11.9v-28h6.1v27.2c0 5.3 1.6 7.3 5.4 7.3s6.7-2.8 8.8-6.7v-27.8h6.1v39h-5.2zM396.2 488.7c0 2.1.6 3.1 2.2 3.1.9 0 1.6-.1 2.3-.4l1.6 4.7c-1.7.9-3.4 1.3-5.2 1.3-4.5 0-7-3-7-8.6v-47l6.1-.8v47.7z"/><g><path d="M372.7 301.9c0 2.1-1.7 3.8-3.8 3.8h-3.5v15.2c0 12.5-10.2 22.7-22.7 22.7S320 333.4 320 320.9v-15.2H181.9v15.2c0 12.5-10.2 22.7-22.7 22.7s-22.7-10.2-22.7-22.7v-15.2h-2.3c-2.1 0-3.8-1.7-3.8-3.8v-45.5c0-14.7 3.3-22.9 17.7-26.5l24.6-49.6c3.7-8.9 13.2-24.6 33.5-24.6h90.9c18.9 0 30.6 16.5 33.5 24.6l26.4 49.6c15.9 6.2 15.9 11.8 15.9 26.5v45.5zm-47.1-72l-24.5-42.3c-.3-1.3-2.7-3.2-4.1-3.2h-91c-1.4 0-3.8 1.9-4.1 3.2l-22.7 42.3s19.8 6.2 72.3 6.2c51.6 0 74.1-6.2 74.1-6.2z" fill="#fff"/><path class="st3" d="M168.2 248.8c-10.4 0-18.9 8.5-18.9 18.9 0 10.4 8.5 18.9 18.9 18.9 10.4 0 18.9-8.5 18.9-18.9 0-10.3-8.5-18.9-18.9-18.9zM334.8 248.8c-10.4 0-18.9 8.5-18.9 18.9 0 10.4 8.5 18.9 18.9 18.9 10.4 0 18.9-8.5 18.9-18.9.1-10.3-8.5-18.9-18.9-18.9z"/></g></svg>