<svg xmlns="http://www.w3.org/2000/svg" viewBox="0 0 500 432.94"><defs><style>.cls-1{fill:#333a46}.cls-3{fill:#7abfbc}</style></defs><g id="Ebene_2" data-name="Ebene 2"><g id="mobile.de_import" data-name="mobile.de import"><path d="M405.52 364.46H0L94.48 0H500l-94.48 364.46zM37.6 389a11.29 11.29 0 0 1 2.17 7.29v23.43h-5.13V397.1q0-6.32-4.13-6.32a5.2 5.2 0 0 0-3.68 1.39 19 19 0 0 0-3.24 4.37v23.19h-5.13V397.1q0-6.32-4.13-6.32a5.24 5.24 0 0 0-3.74 1.42 19.81 19.81 0 0 0-3.18 4.34v23.19H2.28v-32.67h4.4l.45 4.77q3.3-5.52 8.48-5.52a7.19 7.19 0 0 1 4.66 1.55A8.47 8.47 0 0 1 23 392.2a14.88 14.88 0 0 1 3.83-4.37 8.18 8.18 0 0 1 4.93-1.52A7.08 7.08 0 0 1 37.6 389ZM69.38 390.9q3.42 4.59 3.43 12.46a23.85 23.85 0 0 1-1.56 9 13.44 13.44 0 0 1-4.52 6 11.75 11.75 0 0 1-7 2.14 11.41 11.41 0 0 1-9.73-4.61q-3.47-4.59-3.46-12.47a23.84 23.84 0 0 1 1.56-8.95 13.44 13.44 0 0 1 4.52-6 11.82 11.82 0 0 1 7.09-2.14 11.33 11.33 0 0 1 9.67 4.57Zm-17.27 12.52q0 12.46 7.58 12.47t7.59-12.53q0-12.45-7.53-12.46t-7.64 12.52ZM101.32 390.81q3 4.5 3 12.55a26.38 26.38 0 0 1-1.4 9 13.45 13.45 0 0 1-4 6 9.47 9.47 0 0 1-6.14 2.14q-4.64 0-7.81-4.34l-.51 3.59h-4.57v-45.84l5.14-.68v17.92q3.18-4.84 8.31-4.84a9.11 9.11 0 0 1 7.98 4.5Zm-4.49 22.07q1.92-3.08 1.92-9.52 0-6.63-1.78-9.58a5.63 5.63 0 0 0-5.08-2.94q-3.9 0-6.86 5.08v15.63a9.69 9.69 0 0 0 2.87 3.22 6.21 6.21 0 0 0 3.6 1.23 6 6 0 0 0 5.33-3.12ZM116.78 372.49a4 4 0 0 1 1 2.79 3.92 3.92 0 0 1-1 2.76 3.42 3.42 0 0 1-2.62 1.08 3.35 3.35 0 0 1-2.57-1.08 3.93 3.93 0 0 1-1-2.76 4 4 0 0 1 1-2.79 3.28 3.28 0 0 1 2.57-1.12 3.35 3.35 0 0 1 2.62 1.12Zm0 47.24h-5.14v-32.67h5.14ZM127.35 418.58a7.79 7.79 0 0 1-1.64-5.3v-39.37l5.13-.68v39.93a3.6 3.6 0 0 0 .42 2 1.57 1.57 0 0 0 1.42.62 4.6 4.6 0 0 0 1.9-.37l1.34 4a7.77 7.77 0 0 1-4.08 1.12 5.67 5.67 0 0 1-4.49-1.95ZM162.48 405.35h-18.75c.22 3.59 1 6.24 2.45 7.93a6.79 6.79 0 0 0 5.47 2.54 10.74 10.74 0 0 0 3.91-.68 15 15 0 0 0 3.74-2.14l2.23 3.41a15.3 15.3 0 0 1-10.27 4.1 11.39 11.39 0 0 1-9.57-4.47c-2.29-3-3.43-7.07-3.43-12.27a25.52 25.52 0 0 1 1.48-9 14 14 0 0 1 4.24-6.16 10 10 0 0 1 6.5-2.24 10.44 10.44 0 0 1 9 4.28q3.14 4.28 3.13 11.84c-.02.89-.06 1.87-.13 2.86Zm-5-4.59q0-4.83-1.73-7.38a5.86 5.86 0 0 0-5.19-2.54q-6.3 0-6.86 10.29h13.78ZM173.8 413.1a4.34 4.34 0 0 1 1.12 3 4.45 4.45 0 0 1-1.12 3.06 3.55 3.55 0 0 1-2.79 1.28 3.5 3.5 0 0 1-2.73-1.28 4.49 4.49 0 0 1-1.12-3.06 4.39 4.39 0 0 1 1.12-3 3.53 3.53 0 0 1 2.73-1.24 3.58 3.58 0 0 1 2.79 1.24ZM203.88 373.91v45.82h-4.52l-.5-4.52a11.29 11.29 0 0 1-3.63 3.87 8.81 8.81 0 0 1-4.85 1.4 9.21 9.21 0 0 1-8.18-4.59q-2.92-4.59-2.93-12.34a26.49 26.49 0 0 1 1.4-8.93 13.86 13.86 0 0 1 4-6.11 9.26 9.26 0 0 1 6.13-2.2 10.16 10.16 0 0 1 7.93 4v-17.08Zm-8.37 40.83a13.19 13.19 0 0 0 3.24-3.63v-16a11.73 11.73 0 0 0-3.1-3.2 6.61 6.61 0 0 0-3.71-1.08 5.82 5.82 0 0 0-5.27 3.16q-1.87 3.17-1.87 9.42c0 4.22.57 7.36 1.73 9.43a5.41 5.41 0 0 0 5 3.1 6.63 6.63 0 0 0 3.98-1.2ZM235.18 405.35h-18.74c.22 3.59 1 6.24 2.45 7.93a6.78 6.78 0 0 0 5.47 2.54 10.82 10.82 0 0 0 3.91-.68A14.79 14.79 0 0 0 232 413l2.24 3.41a15.3 15.3 0 0 1-10.27 4.1 11.39 11.39 0 0 1-9.57-4.51c-2.29-3-3.43-7.07-3.43-12.27a25.52 25.52 0 0 1 1.48-9 14 14 0 0 1 4.24-6.16 10 10 0 0 1 6.5-2.24 10.45 10.45 0 0 1 9 4.28q3.12 4.28 3.13 11.84c-.02.93-.06 1.91-.14 2.9Zm-5-4.59q0-4.83-1.73-7.38a5.88 5.88 0 0 0-5.19-2.54q-6.31 0-6.86 10.29h13.78ZM260.91 372.49a4 4 0 0 1 1 2.79 3.92 3.92 0 0 1-1 2.76 3.42 3.42 0 0 1-2.62 1.08 3.35 3.35 0 0 1-2.57-1.08 3.93 3.93 0 0 1-1-2.76 4 4 0 0 1 1-2.79 3.28 3.28 0 0 1 2.57-1.12 3.35 3.35 0 0 1 2.62 1.12Zm0 47.24h-5.14v-32.67h5.14ZM305.44 389a11.29 11.29 0 0 1 2.17 7.29v23.43h-5.13V397.1q0-6.32-4.13-6.32a5.2 5.2 0 0 0-3.68 1.39 19 19 0 0 0-3.24 4.37v23.19h-5.13V397.1q0-6.32-4.13-6.32a5.22 5.22 0 0 0-3.74 1.42 19.18 19.18 0 0 0-3.18 4.34v23.19h-5.14v-32.67h4.41l.45 4.77q3.28-5.52 8.48-5.52a7.21 7.21 0 0 1 4.66 1.55 8.6 8.6 0 0 1 2.76 4.34 15 15 0 0 1 3.82-4.37 8.23 8.23 0 0 1 4.94-1.52 7.1 7.1 0 0 1 5.81 2.69ZM338.3 390.78q2.63 4.46 2.62 12.58 0 7.69-3 12.4a9.56 9.56 0 0 1-8.54 4.72 9.08 9.08 0 0 1-7.7-3.73v15.5l-5.13.69v-45.88H321l.39 4.4a11.79 11.79 0 0 1 3.9-3.81 9.42 9.42 0 0 1 4.8-1.34q5.59 0 8.21 4.47Zm-2.9 12.58q0-12.53-6.64-12.52a6.2 6.2 0 0 0-4 1.43 13.73 13.73 0 0 0-3.13 3.65v15.94a8.24 8.24 0 0 0 2.79 2.94 7 7 0 0 0 3.69 1q7.29.02 7.29-12.44ZM369 390.9q3.44 4.59 3.44 12.46a23.65 23.65 0 0 1-1.57 9 13.3 13.3 0 0 1-4.52 6 11.7 11.7 0 0 1-7 2.14 11.4 11.4 0 0 1-9.65-4.59q-3.47-4.59-3.46-12.47a23.84 23.84 0 0 1 1.56-8.95 13.37 13.37 0 0 1 4.52-6 11.82 11.82 0 0 1 7.09-2.14 11.3 11.3 0 0 1 9.59 4.55Zm-17.27 12.52q0 12.46 7.59 12.47t7.59-12.53q0-12.45-7.53-12.46t-7.69 12.52ZM395.16 386.69l-1 5.58a9.51 9.51 0 0 0-2.56-.38 5.25 5.25 0 0 0-4.41 2.24 17.42 17.42 0 0 0-2.62 6.94v18.66h-5.14v-32.67h4.41l.5 6.63a12.58 12.58 0 0 1 3.18-5.52 6.68 6.68 0 0 1 4.69-1.86 10.71 10.71 0 0 1 2.95.38ZM415 418.24a10.53 10.53 0 0 1-6.59 2.24 7.36 7.36 0 0 1-5.83-2.39q-2.08-2.38-2.09-6.92v-19.71h-5.14v-4.4h5.14v-7.38l5.13-.68v8.06h7l-.56 4.4h-6.42v19.47a6.55 6.55 0 0 0 .81 3.69 3.09 3.09 0 0 0 2.71 1.14 6.94 6.94 0 0 0 3.9-1.42Z" class="cls-1"/><path d="M372.7 234.08a3.74 3.74 0 0 1-3.79 3.8h-3.51V253a22.73 22.73 0 1 1-45.4 0v-15.12H181.86V253a22.73 22.73 0 0 1-45.46 0v-15.12h-2.31a3.75 3.75 0 0 1-3.8-3.8v-45.45c0-14.66 3.28-22.87 17.67-26.5l24.59-49.6c3.69-8.92 13.2-24.61 33.5-24.61H297c18.95 0 30.61 16.52 33.49 24.61l26.36 49.6c15.9 6.19 15.9 11.84 15.9 26.5Zm-47.13-72-24.48-42.26a5.74 5.74 0 0 0-4.14-3.19h-90.9a5.74 5.74 0 0 0-4.15 3.19l-22.7 42.26s19.76 6.19 72.3 6.19c51.63.05 74.07-6.14 74.07-6.14Z" style="fill:#fff"/><path d="M168.17 181.07A18.93 18.93 0 1 0 187.1 200a19 19 0 0 0-18.93-18.93ZM334.83 181.07A18.93 18.93 0 1 0 353.75 200a19 19 0 0 0-18.92-18.93Z" class="cls-3"/></g></g></svg>