<svg xmlns="http://www.w3.org/2000/svg" xml:space="preserve" style="fill-rule:evenodd;clip-rule:evenodd;stroke-linejoin:round;stroke-miterlimit:2" viewBox="0 0 256 256"><path d="M0 0h256v256H0z" style="fill:#101110"/><path d="M96.075 188.266h3.71c.931 0 1.756.203 2.477.608a4.238 4.238 0 0 1 1.679 1.707c.398.732.598 1.573.598 2.522 0 .948-.2 1.789-.598 2.522a4.242 4.242 0 0 1-1.679 1.706c-.721.406-1.546.608-2.477.608h-3.71v-9.673Zm3.635 8.471c.712 0 1.339-.152 1.88-.456.54-.304.958-.73 1.251-1.278.293-.548.44-1.182.44-1.9 0-.719-.147-1.352-.44-1.901a3.136 3.136 0 0 0-1.251-1.278c-.541-.304-1.168-.456-1.88-.456h-2.377v7.269h2.377ZM112.31 194.319c0 .101-.008.235-.025.4h-5.407c.075.645.333 1.163.773 1.555.44.392.987.587 1.641.587.796 0 1.438-.294 1.924-.884l.667.857a2.945 2.945 0 0 1-1.126.884 3.6 3.6 0 0 1-1.503.304c-.704 0-1.328-.159-1.873-.477a3.237 3.237 0 0 1-1.264-1.333c-.298-.571-.447-1.216-.447-1.935 0-.709.145-1.349.434-1.921a3.287 3.287 0 0 1 1.195-1.333 3.162 3.162 0 0 1 1.716-.477c.638 0 1.206.159 1.704.477.499.318.889.762 1.17 1.333.281.572.421 1.226.421 1.963Zm-3.295-2.654c-.578 0-1.062.194-1.452.581-.39.387-.618.893-.685 1.52h4.275c-.067-.617-.295-1.122-.685-1.513-.39-.392-.874-.588-1.453-.588ZM115.894 198.022c-.545 0-1.069-.08-1.572-.242-.503-.161-.897-.366-1.182-.615l.503-1.05c.294.23.65.415 1.069.553a4.04 4.04 0 0 0 1.27.207c1.056 0 1.585-.331 1.585-.995a.675.675 0 0 0-.214-.525 1.312 1.312 0 0 0-.535-.283 11.22 11.22 0 0 0-.911-.201 8.304 8.304 0 0 1-1.314-.317 2.015 2.015 0 0 1-.874-.608c-.244-.286-.365-.687-.365-1.203 0-.663.251-1.195.754-1.596s1.178-.601 2.025-.601c.444 0 .889.06 1.333.18.444.119.809.281 1.094.483l-.516 1.051c-.544-.387-1.186-.581-1.924-.581-.511 0-.901.092-1.169.277-.268.184-.402.428-.402.732 0 .24.075.428.226.567.151.138.337.239.559.304.223.064.535.138.937.221.537.101.971.209 1.302.324.331.116.614.311.849.588.234.276.352.663.352 1.161 0 .663-.258 1.19-.774 1.582-.515.391-1.217.587-2.106.587ZM120.283 190.615h1.207v7.324h-1.207v-7.324Zm.603-1.409a.766.766 0 0 1-.584-.249.859.859 0 0 1-.233-.608c0-.24.078-.445.233-.615a.755.755 0 0 1 .584-.256c.235 0 .43.081.585.242a.834.834 0 0 1 .233.601.9.9 0 0 1-.233.629.759.759 0 0 1-.585.256ZM130.167 190.615v6.329c0 1.281-.289 2.227-.868 2.84-.578.613-1.442.919-2.59.919a5.674 5.674 0 0 1-1.798-.283c-.57-.189-1.032-.459-1.384-.809l.579-1.022c.31.295.694.527 1.15.698.457.17.929.255 1.415.255.78 0 1.356-.202 1.729-.608.373-.405.56-1.022.56-1.852v-.58a2.703 2.703 0 0 1-1.05.85 3.224 3.224 0 0 1-1.352.283 3.372 3.372 0 0 1-1.729-.449 3.18 3.18 0 0 1-1.214-1.257c-.293-.539-.44-1.154-.44-1.845 0-.691.147-1.306.44-1.845a3.138 3.138 0 0 1 1.214-1.251 3.417 3.417 0 0 1 1.729-.442c.503 0 .97.101 1.402.304.432.203.786.502 1.063.898v-1.133h1.144Zm-3.471 5.859a2.29 2.29 0 0 0 1.176-.304 2.14 2.14 0 0 0 .817-.849c.197-.364.296-.777.296-1.237 0-.71-.214-1.283-.641-1.721-.428-.437-.977-.656-1.648-.656-.679 0-1.232.219-1.66.656-.427.438-.641 1.011-.641 1.721 0 .46.099.873.296 1.237.197.363.469.647.817.849.348.203.744.304 1.188.304ZM136.027 190.546c.847 0 1.52.27 2.018.808.499.539.749 1.329.749 2.37v4.215h-1.208v-4.063c0-.709-.155-1.243-.465-1.603-.31-.359-.754-.539-1.333-.539-.654 0-1.169.21-1.547.629-.377.419-.565 1.021-.565 1.804v3.772h-1.208v-7.324h1.157v1.106c.243-.378.572-.668.987-.871a3.18 3.18 0 0 1 1.415-.304ZM151.029 198.091l-1.169-1.285c-.78.829-1.761 1.244-2.943 1.244a3.807 3.807 0 0 1-1.584-.318 2.599 2.599 0 0 1-1.1-.891 2.24 2.24 0 0 1-.397-1.306c0-.59.166-1.113.497-1.569.331-.456.878-.923 1.641-1.402-.385-.424-.658-.806-.817-1.147a2.491 2.491 0 0 1-.239-1.064c0-.655.216-1.18.648-1.576.431-.396 1.008-.594 1.729-.594.67 0 1.203.18 1.597.539.394.359.591.852.591 1.479 0 .488-.145.925-.434 1.312-.289.387-.769.793-1.44 1.216l2.176 2.377c.251-.525.431-1.11.54-1.755l.969.346c-.151.847-.407 1.584-.768 2.211l1.183 1.299-.68.884Zm-3.734-8.941c-.394 0-.703.109-.925.325-.222.217-.333.5-.333.85 0 .249.061.488.182.719.122.23.359.543.711.939.578-.359.979-.668 1.201-.926.222-.258.333-.539.333-.843 0-.322-.103-.58-.308-.773-.205-.194-.493-.291-.861-.291Zm-.302 7.794c.872 0 1.588-.304 2.15-.912l-2.502-2.736c-.604.369-1.025.712-1.264 1.03a1.735 1.735 0 0 0-.359 1.071c0 .46.183.833.548 1.119.364.285.84.428 1.427.428ZM156.6 188.266h3.71c.931 0 1.756.203 2.477.608a4.238 4.238 0 0 1 1.679 1.707c.398.732.598 1.573.598 2.522 0 .948-.2 1.789-.598 2.522a4.242 4.242 0 0 1-1.679 1.706c-.721.406-1.546.608-2.477.608h-3.71v-9.673Zm3.635 8.471c.712 0 1.339-.152 1.88-.456.54-.304.957-.73 1.251-1.278.293-.548.44-1.182.44-1.9 0-.719-.147-1.352-.44-1.901a3.142 3.142 0 0 0-1.251-1.278c-.541-.304-1.168-.456-1.88-.456h-2.377v7.269h2.377ZM172.835 194.319c0 .101-.008.235-.025.4h-5.407c.075.645.333 1.163.773 1.555.44.392.987.587 1.641.587.796 0 1.438-.294 1.924-.884l.666.857a2.934 2.934 0 0 1-1.125.884 3.604 3.604 0 0 1-1.503.304c-.704 0-1.329-.159-1.873-.477a3.237 3.237 0 0 1-1.264-1.333c-.298-.571-.447-1.216-.447-1.935 0-.709.145-1.349.434-1.921a3.287 3.287 0 0 1 1.195-1.333 3.162 3.162 0 0 1 1.716-.477c.637 0 1.205.159 1.704.477.499.318.889.762 1.17 1.333.281.572.421 1.226.421 1.963Zm-3.295-2.654c-.578 0-1.062.194-1.452.581-.39.387-.618.893-.685 1.52h4.275c-.067-.617-.295-1.122-.685-1.513-.39-.392-.874-.588-1.453-.588ZM180.267 190.615l-2.917 7.324h-1.233l-2.917-7.324h1.257l2.289 5.873 2.339-5.873h1.182ZM187.215 194.319c0 .101-.008.235-.025.4h-5.407c.075.645.333 1.163.773 1.555.44.392.987.587 1.641.587.797 0 1.438-.294 1.924-.884l.667.857a2.945 2.945 0 0 1-1.126.884 3.6 3.6 0 0 1-1.503.304c-.704 0-1.328-.159-1.873-.477a3.244 3.244 0 0 1-1.264-1.333c-.298-.571-.447-1.216-.447-1.935 0-.709.145-1.349.434-1.921a3.294 3.294 0 0 1 1.195-1.333 3.163 3.163 0 0 1 1.717-.477c.637 0 1.205.159 1.703.477.499.318.889.762 1.17 1.333.281.572.421 1.226.421 1.963Zm-3.294-2.654c-.579 0-1.063.194-1.453.581-.39.387-.618.893-.685 1.52h4.275c-.067-.617-.295-1.122-.685-1.513-.39-.392-.874-.588-1.452-.588ZM188.888 187.686h1.207v10.254h-1.207zM195.251 198.022a3.355 3.355 0 0 1-1.786-.484 3.346 3.346 0 0 1-1.238-1.333c-.298-.567-.447-1.209-.447-1.928 0-.718.149-1.361.447-1.928a3.308 3.308 0 0 1 1.238-1.326 3.396 3.396 0 0 1 1.786-.477 3.36 3.36 0 0 1 1.779.477c.524.318.935.76 1.233 1.326.297.567.446 1.21.446 1.928 0 .719-.149 1.361-.446 1.928a3.37 3.37 0 0 1-1.233 1.333 3.32 3.32 0 0 1-1.779.484Zm0-1.161c.427 0 .811-.108 1.15-.324.34-.217.606-.521.799-.912.193-.392.289-.841.289-1.348 0-.507-.096-.956-.289-1.347a2.16 2.16 0 0 0-.799-.905 2.125 2.125 0 0 0-1.15-.318c-.428 0-.811.106-1.151.318a2.207 2.207 0 0 0-.805.905c-.197.391-.295.84-.295 1.347s.098.956.295 1.348c.197.391.466.695.805.912a2.1 2.1 0 0 0 1.151.324ZM203.915 190.546a3.26 3.26 0 0 1 1.736.47c.511.313.911.751 1.201 1.313.289.562.433 1.211.433 1.948 0 .737-.144 1.389-.433 1.956a3.24 3.24 0 0 1-1.201 1.319c-.512.314-1.09.47-1.736.47a2.85 2.85 0 0 1-1.314-.304 2.79 2.79 0 0 1-1.012-.884v3.786h-1.207v-10.005h1.157v1.161a2.627 2.627 0 0 1 1.018-.919 2.977 2.977 0 0 1 1.358-.311Zm-.1 6.315c.427 0 .811-.108 1.15-.324.34-.217.608-.521.805-.912.197-.392.296-.841.296-1.348 0-.507-.099-.956-.296-1.347a2.2 2.2 0 0 0-.805-.905 2.125 2.125 0 0 0-1.15-.318c-.42 0-.799.108-1.138.325-.34.216-.608.518-.805.905-.197.387-.296.833-.296 1.34 0 .507.097.956.289 1.348.193.391.462.695.805.912.344.216.725.324 1.145.324ZM217.295 190.546c.839 0 1.503.267 1.994.802.49.534.735 1.326.735 2.376v4.215h-1.207v-4.063c0-.709-.149-1.243-.446-1.603-.298-.359-.724-.539-1.277-.539-.612 0-1.098.21-1.459.629-.36.419-.54 1.021-.54 1.804v3.772h-1.208v-4.063c0-.709-.148-1.243-.446-1.603-.298-.359-.723-.539-1.276-.539-.612 0-1.099.21-1.459.629-.361.419-.541 1.021-.541 1.804v3.772h-1.207v-7.324h1.157v1.092c.243-.378.562-.666.956-.864a2.954 2.954 0 0 1 1.345-.297c.52 0 .981.115 1.383.346.403.23.713.566.931 1.008a2.656 2.656 0 0 1 1.05-.995 3.174 3.174 0 0 1 1.515-.359ZM228.315 194.319c0 .101-.008.235-.025.4h-5.407c.075.645.333 1.163.773 1.555.44.392.987.587 1.641.587.796 0 1.438-.294 1.924-.884l.666.857a2.934 2.934 0 0 1-1.125.884 3.604 3.604 0 0 1-1.503.304c-.704 0-1.329-.159-1.873-.477a3.237 3.237 0 0 1-1.264-1.333c-.298-.571-.447-1.216-.447-1.935 0-.709.145-1.349.434-1.921a3.287 3.287 0 0 1 1.195-1.333 3.162 3.162 0 0 1 1.716-.477c.637 0 1.205.159 1.704.477.499.318.889.762 1.17 1.333.281.572.421 1.226.421 1.963Zm-3.295-2.654c-.578 0-1.062.194-1.452.581-.39.387-.618.893-.685 1.52h4.275c-.067-.617-.295-1.122-.685-1.513-.39-.392-.874-.588-1.453-.588ZM233.546 190.546c.847 0 1.52.27 2.019.808.499.539.748 1.329.748 2.37v4.215h-1.207v-4.063c0-.709-.155-1.243-.466-1.603-.31-.359-.754-.539-1.333-.539-.653 0-1.169.21-1.546.629-.378.419-.566 1.021-.566 1.804v3.772h-1.207v-7.324h1.156v1.106c.244-.378.573-.668.988-.871a3.176 3.176 0 0 1 1.414-.304ZM242.299 197.511a1.758 1.758 0 0 1-.654.38 2.52 2.52 0 0 1-.805.131c-.671 0-1.19-.198-1.559-.594-.369-.396-.554-.963-.554-1.7v-4.021h-1.131v-1.092h1.131v-1.603h1.208v1.603h1.911v1.092h-1.911v3.966c0 .396.09.7.27.912.18.212.438.318.773.318.369 0 .684-.115.944-.346l.377.954ZM109.889 109.336h4.223v8.905c-1.084.899-2.34 1.589-3.766 2.069a13.411 13.411 0 0 1-4.309.721c-2.073 0-3.937-.486-5.592-1.458-1.655-.972-2.953-2.32-3.895-4.044-.942-1.725-1.412-3.674-1.412-5.848s.47-4.123 1.412-5.848c.942-1.724 2.249-3.073 3.923-4.045s3.557-1.458 5.65-1.458c1.75 0 3.338.324 4.765.972a9.518 9.518 0 0 1 3.595 2.822l-2.967 3.01c-1.427-1.651-3.149-2.477-5.165-2.477-1.274 0-2.406.293-3.395.878-.989.586-1.76 1.411-2.312 2.477-.551 1.066-.827 2.289-.827 3.669 0 1.359.276 2.571.827 3.637.552 1.066 1.318 1.897 2.297 2.493.98.596 2.098.893 3.353.893 1.332 0 2.53-.313 3.595-.94v-6.428ZM131.118 120.655l-3.852-6.114h-4.252v6.114h-4.622V98.707h8.646c1.769 0 3.305.324 4.608.972 1.303.648 2.306 1.567 3.01 2.759.704 1.191 1.056 2.602 1.056 4.233 0 1.63-.357 3.036-1.07 4.217-.714 1.181-1.727 2.085-3.039 2.712l4.48 7.055h-4.965Zm-.086-13.984c0-1.233-.361-2.179-1.084-2.838-.723-.658-1.779-.988-3.167-.988h-3.767v7.651h3.767c1.388 0 2.444-.334 3.167-1.003.723-.669 1.084-1.61 1.084-2.822ZM154.829 116.579v4.076h-15.465V98.707h15.094v4.076h-10.5v4.766h9.273v3.95h-9.273v5.08h10.871ZM173.975 116.579v4.076H158.51V98.707h15.094v4.076h-10.5v4.766h9.273v3.95h-9.273v5.08h10.871ZM195.974 98.707v21.948h-3.795l-9.958-13.326v13.326h-4.566V98.707h3.824l9.929 13.326V98.707h4.566ZM105.039 128.13c1.769 0 3.305.324 4.608.972 1.303.648 2.306 1.568 3.01 2.759.704 1.192 1.056 2.603 1.056 4.233 0 1.61-.352 3.015-1.056 4.217-.704 1.202-1.707 2.122-3.01 2.76-1.303.637-2.839.956-4.608.956h-4.024v6.052h-4.622V128.13h8.646Zm-.257 11.758c1.388 0 2.444-.329 3.167-.988.723-.658 1.084-1.593 1.084-2.806 0-1.233-.361-2.179-1.084-2.837-.723-.659-1.779-.988-3.167-.988h-3.767v7.619h3.767ZM116.966 128.13h4.622v21.949h-4.622zM138.908 150.079l-4.822-7.62-4.737 7.62h-5.307l7.39-11.163-7.019-10.786h5.25l4.594 7.118 4.508-7.118h4.993l-6.962 10.598 7.447 11.351h-5.335ZM161.472 146.002v4.077h-15.465V128.13h15.095v4.076h-10.501v4.766h9.274v3.951h-9.274v5.079h10.871ZM165.153 128.13h4.623v17.81h10.015v4.139h-14.638V128.13ZM197.053 138.665c1.142.397 2.036 1.061 2.682 1.991.647.931.971 2.075.971 3.434 0 1.923-.681 3.402-2.041 4.436-1.36 1.035-3.343 1.553-5.949 1.553h-10.329V128.13h9.759c2.434 0 4.303.512 5.606 1.536 1.303 1.025 1.955 2.415 1.955 4.171 0 1.066-.233 2.017-.699 2.853a5.11 5.11 0 0 1-1.955 1.975Zm-10.072-6.71v5.174h4.594c1.141 0 2.007-.22 2.596-.659.59-.439.885-1.087.885-1.944s-.295-1.499-.885-1.928c-.589-.428-1.455-.643-2.596-.643h-4.594Zm5.393 14.298c1.217 0 2.135-.219 2.753-.658.619-.439.928-1.119.928-2.038 0-1.819-1.227-2.728-3.681-2.728h-5.393v5.424h5.393ZM213.888 150.455c-2.074 0-3.942-.491-5.607-1.474-1.664-.982-2.967-2.336-3.909-4.06-.942-1.725-1.412-3.664-1.412-5.817s.47-4.092 1.412-5.816c.942-1.725 2.245-3.078 3.909-4.061 1.665-.982 3.533-1.473 5.607-1.473 2.073 0 3.937.491 5.592 1.473 1.655.983 2.958 2.336 3.909 4.061.951 1.724 1.427 3.663 1.427 5.816s-.476 4.092-1.427 5.817c-.951 1.724-2.254 3.078-3.909 4.06-1.655.983-3.519 1.474-5.592 1.474Zm0-4.327c1.179 0 2.244-.298 3.196-.894.951-.596 1.697-1.426 2.239-2.493.543-1.066.814-2.278.814-3.637 0-1.358-.271-2.571-.814-3.637-.542-1.066-1.288-1.897-2.239-2.493-.952-.595-2.017-.893-3.196-.893-1.18 0-2.245.298-3.196.893-.951.596-1.698 1.427-2.24 2.493-.542 1.066-.813 2.279-.813 3.637 0 1.359.271 2.571.813 3.637.542 1.067 1.289 1.897 2.24 2.493.951.596 2.016.894 3.196.894ZM240.096 150.079l-4.822-7.62-4.736 7.62h-5.307l7.39-11.163-7.02-10.786h5.251l4.593 7.118 4.509-7.118h4.993l-6.962 10.598 7.447 11.351h-5.336Z" style="fill:#86b0a9;fill-rule:nonzero"/><path d="M16.2 89.49h69.665v69.665H16.2zM85.865 55.297h34.193V89.49H85.865zM85.865 159.156h19.493v19.493H85.865zM66.372 178.649h19.494v19.493H66.372z" style="fill:#86b0a9"/></svg>