<?xml version="1.0" encoding="UTF-8" standalone="no"?><!DOCTYPE svg PUBLIC "-//W3C//DTD SVG 1.1//EN" "http://www.w3.org/Graphics/SVG/1.1/DTD/svg11.dtd"><svg width="100%" height="100%" viewBox="0 0 64 64" version="1.1" xmlns="http://www.w3.org/2000/svg" xmlns:xlink="http://www.w3.org/1999/xlink" xml:space="preserve" xmlns:serif="http://www.serif.com/" style="fill-rule:evenodd;clip-rule:evenodd;stroke-linejoin:round;stroke-miterlimit:2;"><rect x="0" y="0" width="64" height="64" style="fill:#101110;"/><g><g id="Webdesign-Webentwicklung--Webhosting" serif:id="Webdesign Webentwicklung  Webhosting"><g><path d="M24.019,47.066l0.927,0c0.233,0 0.439,0.051 0.62,0.152c0.18,0.102 0.32,0.244 0.419,0.427c0.1,0.183 0.15,0.393 0.15,0.631c-0,0.237 -0.05,0.447 -0.15,0.63c-0.099,0.183 -0.239,0.325 -0.419,0.427c-0.181,0.101 -0.387,0.152 -0.62,0.152l-0.927,-0l-0,-2.419Zm0.908,2.118c0.179,0 0.335,-0.038 0.47,-0.114c0.136,-0.076 0.24,-0.182 0.313,-0.319c0.074,-0.137 0.11,-0.296 0.11,-0.475c0,-0.18 -0.036,-0.338 -0.11,-0.475c-0.073,-0.137 -0.177,-0.244 -0.313,-0.32c-0.135,-0.076 -0.291,-0.114 -0.47,-0.114l-0.594,0l0,1.817l0.594,0Z" style="fill:#86b0a9;fill-rule:nonzero;"/><path d="M28.078,48.58c-0,0.025 -0.003,0.058 -0.007,0.1l-1.352,-0c0.019,0.161 0.084,0.291 0.194,0.389c0.11,0.097 0.247,0.146 0.41,0.146c0.199,0 0.359,-0.073 0.481,-0.221l0.167,0.214c-0.076,0.097 -0.17,0.171 -0.282,0.222c-0.112,0.05 -0.237,0.076 -0.375,0.076c-0.176,-0 -0.333,-0.04 -0.469,-0.12c-0.136,-0.079 -0.241,-0.19 -0.316,-0.333c-0.074,-0.143 -0.111,-0.304 -0.111,-0.484c-0,-0.177 0.036,-0.337 0.108,-0.48c0.072,-0.143 0.172,-0.254 0.299,-0.333c0.127,-0.08 0.27,-0.119 0.429,-0.119c0.159,-0 0.301,0.039 0.426,0.119c0.125,0.079 0.222,0.19 0.292,0.333c0.07,0.143 0.106,0.306 0.106,0.491Zm-0.824,-0.664c-0.145,0 -0.266,0.049 -0.363,0.145c-0.098,0.097 -0.155,0.224 -0.172,0.38l1.069,0c-0.016,-0.154 -0.074,-0.28 -0.171,-0.378c-0.097,-0.098 -0.219,-0.147 -0.363,-0.147Z" style="fill:#86b0a9;fill-rule:nonzero;"/><path d="M28.974,49.506c-0.137,-0 -0.268,-0.021 -0.393,-0.061c-0.126,-0.04 -0.225,-0.091 -0.296,-0.154l0.126,-0.262c0.073,0.057 0.162,0.103 0.267,0.138c0.105,0.035 0.211,0.052 0.318,0.052c0.264,-0 0.396,-0.083 0.396,-0.249c-0,-0.055 -0.018,-0.099 -0.054,-0.131c-0.035,-0.032 -0.08,-0.056 -0.133,-0.071c-0.054,-0.015 -0.13,-0.032 -0.228,-0.05c-0.134,-0.023 -0.244,-0.05 -0.329,-0.08c-0.085,-0.03 -0.158,-0.08 -0.218,-0.152c-0.061,-0.071 -0.092,-0.171 -0.092,-0.3c0,-0.166 0.063,-0.299 0.189,-0.399c0.126,-0.1 0.295,-0.15 0.506,-0.15c0.111,-0 0.222,0.014 0.334,0.044c0.111,0.03 0.202,0.071 0.273,0.121l-0.129,0.263c-0.136,-0.097 -0.296,-0.145 -0.481,-0.145c-0.128,-0 -0.225,0.023 -0.292,0.069c-0.067,0.046 -0.101,0.107 -0.101,0.183c0,0.06 0.019,0.107 0.057,0.142c0.037,0.034 0.084,0.06 0.14,0.076c0.055,0.016 0.133,0.034 0.234,0.055c0.134,0.025 0.242,0.052 0.325,0.081c0.083,0.029 0.154,0.078 0.212,0.147c0.059,0.069 0.088,0.166 0.088,0.29c0,0.166 -0.064,0.298 -0.193,0.396c-0.129,0.098 -0.304,0.147 -0.526,0.147Z" style="fill:#86b0a9;fill-rule:nonzero;"/><path d="M30.071,47.654l0.302,-0l-0,1.831l-0.302,-0l-0,-1.831Zm0.151,-0.353c-0.059,0 -0.108,-0.02 -0.147,-0.062c-0.038,-0.041 -0.058,-0.092 -0.058,-0.152c0,-0.06 0.02,-0.111 0.058,-0.154c0.039,-0.042 0.088,-0.063 0.147,-0.063c0.058,-0 0.107,0.02 0.146,0.06c0.039,0.04 0.058,0.09 0.058,0.15c-0,0.062 -0.019,0.115 -0.058,0.157c-0.039,0.043 -0.088,0.064 -0.146,0.064Z" style="fill:#86b0a9;fill-rule:nonzero;"/><path d="M32.542,47.654l-0,1.582c-0,0.32 -0.073,0.557 -0.217,0.71c-0.145,0.153 -0.361,0.23 -0.648,0.23c-0.157,-0 -0.307,-0.024 -0.449,-0.071c-0.143,-0.047 -0.258,-0.115 -0.346,-0.202l0.144,-0.256c0.078,0.074 0.174,0.132 0.288,0.175c0.114,0.042 0.232,0.064 0.354,0.064c0.195,-0 0.339,-0.051 0.432,-0.152c0.093,-0.102 0.14,-0.256 0.14,-0.463l-0,-0.145c-0.071,0.094 -0.159,0.165 -0.263,0.212c-0.103,0.047 -0.216,0.071 -0.338,0.071c-0.159,-0 -0.303,-0.038 -0.432,-0.112c-0.129,-0.075 -0.23,-0.18 -0.303,-0.315c-0.074,-0.135 -0.11,-0.288 -0.11,-0.461c-0,-0.173 0.036,-0.327 0.11,-0.461c0.073,-0.135 0.174,-0.239 0.303,-0.313c0.129,-0.074 0.273,-0.11 0.432,-0.11c0.126,-0 0.243,0.025 0.351,0.076c0.108,0.05 0.197,0.125 0.266,0.224l-0,-0.283l0.286,-0Zm-0.868,1.465c0.109,-0 0.207,-0.026 0.294,-0.076c0.087,-0.051 0.155,-0.122 0.204,-0.213c0.05,-0.091 0.074,-0.194 0.074,-0.309c0,-0.177 -0.053,-0.321 -0.16,-0.43c-0.107,-0.11 -0.244,-0.164 -0.412,-0.164c-0.17,-0 -0.308,0.054 -0.415,0.164c-0.107,0.109 -0.16,0.253 -0.16,0.43c-0,0.115 0.024,0.218 0.074,0.309c0.049,0.091 0.117,0.162 0.204,0.213c0.087,0.05 0.186,0.076 0.297,0.076Z" style="fill:#86b0a9;fill-rule:nonzero;"/><path d="M34.007,47.637c0.211,-0 0.38,0.067 0.504,0.202c0.125,0.134 0.187,0.332 0.187,0.592l0,1.054l-0.301,-0l-0,-1.016c-0,-0.177 -0.039,-0.311 -0.117,-0.401c-0.077,-0.089 -0.188,-0.134 -0.333,-0.134c-0.163,-0 -0.292,0.052 -0.387,0.157c-0.094,0.105 -0.141,0.255 -0.141,0.451l-0,0.943l-0.302,-0l0,-1.831l0.289,-0l0,0.276c0.061,-0.094 0.143,-0.167 0.247,-0.217c0.104,-0.051 0.222,-0.076 0.354,-0.076Z" style="fill:#86b0a9;fill-rule:nonzero;"/><path d="M37.757,49.523l-0.292,-0.321c-0.195,0.207 -0.44,0.31 -0.736,0.31c-0.146,0 -0.278,-0.026 -0.396,-0.079c-0.117,-0.053 -0.209,-0.127 -0.275,-0.223c-0.066,-0.095 -0.099,-0.204 -0.099,-0.326c0,-0.148 0.041,-0.278 0.124,-0.392c0.083,-0.114 0.22,-0.231 0.411,-0.351c-0.097,-0.106 -0.165,-0.202 -0.205,-0.287c-0.04,-0.085 -0.06,-0.174 -0.06,-0.266c0,-0.163 0.054,-0.295 0.162,-0.394c0.108,-0.099 0.252,-0.148 0.433,-0.148c0.167,-0 0.3,0.045 0.399,0.134c0.098,0.09 0.148,0.214 0.148,0.37c-0,0.122 -0.036,0.232 -0.109,0.328c-0.072,0.097 -0.192,0.198 -0.36,0.304l0.544,0.595c0.063,-0.132 0.108,-0.278 0.135,-0.439l0.242,0.086c-0.037,0.212 -0.101,0.396 -0.191,0.553l0.295,0.325l-0.17,0.221Zm-0.933,-2.235c-0.099,-0 -0.176,0.027 -0.231,0.081c-0.056,0.054 -0.084,0.125 -0.084,0.212c0,0.062 0.015,0.122 0.046,0.18c0.03,0.057 0.089,0.136 0.177,0.235c0.145,-0.09 0.245,-0.167 0.301,-0.232c0.055,-0.064 0.083,-0.134 0.083,-0.21c0,-0.081 -0.026,-0.145 -0.077,-0.194c-0.051,-0.048 -0.123,-0.072 -0.215,-0.072Zm-0.076,1.948c0.218,0 0.397,-0.076 0.538,-0.228l-0.626,-0.684c-0.151,0.092 -0.256,0.178 -0.316,0.257c-0.06,0.08 -0.089,0.169 -0.089,0.268c-0,0.115 0.045,0.209 0.136,0.28c0.092,0.071 0.21,0.107 0.357,0.107Z" style="fill:#86b0a9;fill-rule:nonzero;"/><path d="M39.15,47.066l0.928,0c0.232,0 0.439,0.051 0.619,0.152c0.18,0.102 0.32,0.244 0.42,0.427c0.099,0.183 0.149,0.393 0.149,0.631c-0,0.237 -0.05,0.447 -0.149,0.63c-0.1,0.183 -0.24,0.325 -0.42,0.427c-0.18,0.101 -0.387,0.152 -0.619,0.152l-0.928,-0l0,-2.419Zm0.909,2.118c0.178,0 0.334,-0.038 0.47,-0.114c0.135,-0.076 0.239,-0.182 0.312,-0.319c0.074,-0.137 0.11,-0.296 0.11,-0.475c0,-0.18 -0.036,-0.338 -0.11,-0.475c-0.073,-0.137 -0.177,-0.244 -0.312,-0.32c-0.136,-0.076 -0.292,-0.114 -0.47,-0.114l-0.595,0l0,1.817l0.595,0Z" style="fill:#86b0a9;fill-rule:nonzero;"/><path d="M43.209,48.58c-0,0.025 -0.002,0.058 -0.007,0.1l-1.351,-0c0.018,0.161 0.083,0.291 0.193,0.389c0.11,0.097 0.247,0.146 0.41,0.146c0.199,0 0.36,-0.073 0.481,-0.221l0.167,0.214c-0.076,0.097 -0.169,0.171 -0.282,0.222c-0.112,0.05 -0.237,0.076 -0.375,0.076c-0.176,-0 -0.332,-0.04 -0.469,-0.12c-0.136,-0.079 -0.241,-0.19 -0.316,-0.333c-0.074,-0.143 -0.111,-0.304 -0.111,-0.484c-0,-0.177 0.036,-0.337 0.108,-0.48c0.073,-0.143 0.172,-0.254 0.299,-0.333c0.127,-0.08 0.27,-0.119 0.429,-0.119c0.159,-0 0.301,0.039 0.426,0.119c0.125,0.079 0.222,0.19 0.292,0.333c0.071,0.143 0.106,0.306 0.106,0.491Zm-0.824,-0.664c-0.145,0 -0.266,0.049 -0.363,0.145c-0.097,0.097 -0.155,0.224 -0.171,0.38l1.069,0c-0.017,-0.154 -0.074,-0.28 -0.172,-0.378c-0.097,-0.098 -0.218,-0.147 -0.363,-0.147Z" style="fill:#86b0a9;fill-rule:nonzero;"/><path d="M45.067,47.654l-0.73,1.831l-0.308,-0l-0.729,-1.831l0.314,-0l0.573,1.468l0.584,-1.468l0.296,-0Z" style="fill:#86b0a9;fill-rule:nonzero;"/><path d="M46.804,48.58c-0,0.025 -0.002,0.058 -0.006,0.1l-1.352,-0c0.019,0.161 0.083,0.291 0.193,0.389c0.11,0.097 0.247,0.146 0.41,0.146c0.199,0 0.36,-0.073 0.481,-0.221l0.167,0.214c-0.076,0.097 -0.169,0.171 -0.281,0.222c-0.113,0.05 -0.238,0.076 -0.376,0.076c-0.176,-0 -0.332,-0.04 -0.469,-0.12c-0.136,-0.079 -0.241,-0.19 -0.316,-0.333c-0.074,-0.143 -0.111,-0.304 -0.111,-0.484c-0,-0.177 0.036,-0.337 0.108,-0.48c0.073,-0.143 0.172,-0.254 0.299,-0.333c0.127,-0.08 0.27,-0.119 0.429,-0.119c0.159,-0 0.301,0.039 0.426,0.119c0.125,0.079 0.222,0.19 0.292,0.333c0.071,0.143 0.106,0.306 0.106,0.491Zm-0.824,-0.664c-0.144,0 -0.266,0.049 -0.363,0.145c-0.097,0.097 -0.155,0.224 -0.171,0.38l1.069,0c-0.017,-0.154 -0.074,-0.28 -0.172,-0.378c-0.097,-0.098 -0.218,-0.147 -0.363,-0.147Z" style="fill:#86b0a9;fill-rule:nonzero;"/><rect x="47.222" y="46.921" width="0.302" height="2.563" style="fill:#86b0a9;fill-rule:nonzero;"/><path d="M48.813,49.506c-0.166,-0 -0.315,-0.041 -0.447,-0.121c-0.132,-0.081 -0.235,-0.192 -0.309,-0.334c-0.075,-0.141 -0.112,-0.302 -0.112,-0.482c0,-0.179 0.037,-0.34 0.112,-0.482c0.074,-0.141 0.177,-0.252 0.309,-0.331c0.132,-0.08 0.281,-0.119 0.447,-0.119c0.165,-0 0.314,0.039 0.445,0.119c0.131,0.079 0.233,0.19 0.308,0.331c0.074,0.142 0.111,0.303 0.111,0.482c0,0.18 -0.037,0.341 -0.111,0.482c-0.075,0.142 -0.177,0.253 -0.308,0.334c-0.131,0.08 -0.28,0.121 -0.445,0.121Zm-0,-0.291c0.107,0 0.202,-0.027 0.287,-0.081c0.085,-0.054 0.152,-0.13 0.2,-0.228c0.048,-0.098 0.072,-0.21 0.072,-0.337c0,-0.126 -0.024,-0.239 -0.072,-0.337c-0.048,-0.097 -0.115,-0.173 -0.2,-0.226c-0.085,-0.053 -0.18,-0.079 -0.287,-0.079c-0.107,-0 -0.203,0.026 -0.288,0.079c-0.085,0.053 -0.152,0.129 -0.201,0.226c-0.049,0.098 -0.074,0.211 -0.074,0.337c-0,0.127 0.025,0.239 0.074,0.337c0.049,0.098 0.116,0.174 0.201,0.228c0.085,0.054 0.181,0.081 0.288,0.081Z" style="fill:#86b0a9;fill-rule:nonzero;"/><path d="M50.979,47.637c0.161,-0 0.306,0.039 0.434,0.117c0.128,0.078 0.228,0.188 0.3,0.328c0.072,0.141 0.108,0.303 0.108,0.487c0,0.185 -0.036,0.347 -0.108,0.489c-0.072,0.142 -0.172,0.252 -0.3,0.33c-0.128,0.078 -0.273,0.118 -0.434,0.118c-0.12,-0 -0.229,-0.026 -0.329,-0.076c-0.099,-0.051 -0.184,-0.125 -0.253,-0.222l0,0.947l-0.302,0l0,-2.501l0.29,-0l-0,0.29c0.067,-0.101 0.152,-0.178 0.254,-0.23c0.103,-0.052 0.216,-0.077 0.34,-0.077Zm-0.025,1.578c0.107,0 0.202,-0.027 0.287,-0.081c0.085,-0.054 0.152,-0.13 0.202,-0.228c0.049,-0.098 0.073,-0.21 0.073,-0.337c0,-0.126 -0.024,-0.239 -0.073,-0.337c-0.05,-0.097 -0.117,-0.173 -0.202,-0.226c-0.085,-0.053 -0.18,-0.079 -0.287,-0.079c-0.105,-0 -0.2,0.027 -0.285,0.081c-0.085,0.054 -0.152,0.129 -0.201,0.226c-0.049,0.097 -0.074,0.209 -0.074,0.335c0,0.127 0.024,0.239 0.072,0.337c0.049,0.098 0.116,0.174 0.202,0.228c0.086,0.054 0.181,0.081 0.286,0.081Z" style="fill:#86b0a9;fill-rule:nonzero;"/><path d="M54.324,47.637c0.209,-0 0.376,0.066 0.498,0.2c0.123,0.133 0.184,0.332 0.184,0.594l0,1.054l-0.302,-0l0,-1.016c0,-0.177 -0.037,-0.311 -0.111,-0.401c-0.075,-0.089 -0.181,-0.134 -0.319,-0.134c-0.153,-0 -0.275,0.052 -0.365,0.157c-0.09,0.105 -0.135,0.255 -0.135,0.451l-0,0.943l-0.302,-0l-0,-1.016c-0,-0.177 -0.037,-0.311 -0.112,-0.401c-0.074,-0.089 -0.181,-0.134 -0.319,-0.134c-0.153,-0 -0.274,0.052 -0.365,0.157c-0.09,0.105 -0.135,0.255 -0.135,0.451l0,0.943l-0.302,-0l0,-1.831l0.29,-0l-0,0.273c0.06,-0.095 0.14,-0.167 0.239,-0.216c0.098,-0.05 0.21,-0.074 0.336,-0.074c0.13,-0 0.245,0.028 0.346,0.086c0.1,0.057 0.178,0.142 0.232,0.252c0.063,-0.106 0.151,-0.189 0.263,-0.249c0.112,-0.06 0.238,-0.089 0.379,-0.089Z" style="fill:#86b0a9;fill-rule:nonzero;"/><path d="M57.079,48.58c-0,0.025 -0.002,0.058 -0.007,0.1l-1.351,-0c0.018,0.161 0.083,0.291 0.193,0.389c0.11,0.097 0.247,0.146 0.41,0.146c0.199,0 0.36,-0.073 0.481,-0.221l0.167,0.214c-0.076,0.097 -0.169,0.171 -0.281,0.222c-0.113,0.05 -0.238,0.076 -0.376,0.076c-0.176,-0 -0.332,-0.04 -0.469,-0.12c-0.136,-0.079 -0.241,-0.19 -0.316,-0.333c-0.074,-0.143 -0.111,-0.304 -0.111,-0.484c-0,-0.177 0.036,-0.337 0.108,-0.48c0.073,-0.143 0.172,-0.254 0.299,-0.333c0.127,-0.08 0.27,-0.119 0.429,-0.119c0.159,-0 0.301,0.039 0.426,0.119c0.125,0.079 0.222,0.19 0.292,0.333c0.071,0.143 0.106,0.306 0.106,0.491Zm-0.824,-0.664c-0.145,0 -0.266,0.049 -0.363,0.145c-0.097,0.097 -0.155,0.224 -0.171,0.38l1.069,0c-0.017,-0.154 -0.074,-0.28 -0.172,-0.378c-0.097,-0.098 -0.218,-0.147 -0.363,-0.147Z" style="fill:#86b0a9;fill-rule:nonzero;"/><path d="M58.387,47.637c0.211,-0 0.379,0.067 0.504,0.202c0.125,0.134 0.187,0.332 0.187,0.592l0,1.054l-0.302,-0l0,-1.016c0,-0.177 -0.038,-0.311 -0.116,-0.401c-0.077,-0.089 -0.189,-0.134 -0.333,-0.134c-0.164,-0 -0.293,0.052 -0.387,0.157c-0.094,0.105 -0.141,0.255 -0.141,0.451l-0,0.943l-0.302,-0l-0,-1.831l0.289,-0l0,0.276c0.061,-0.094 0.143,-0.167 0.247,-0.217c0.104,-0.051 0.222,-0.076 0.354,-0.076Z" style="fill:#86b0a9;fill-rule:nonzero;"/><path d="M60.575,49.378c-0.044,0.041 -0.099,0.073 -0.164,0.095c-0.065,0.022 -0.132,0.033 -0.201,0.033c-0.168,-0 -0.298,-0.05 -0.39,-0.149c-0.092,-0.099 -0.138,-0.241 -0.138,-0.425l-0,-1.005l-0.283,-0l-0,-0.273l0.283,-0l-0,-0.401l0.302,0l-0,0.401l0.478,-0l-0,0.273l-0.478,-0l-0,0.991c-0,0.099 0.022,0.175 0.067,0.228c0.045,0.053 0.11,0.08 0.194,0.08c0.092,-0 0.17,-0.029 0.235,-0.087l0.095,0.239Z" style="fill:#86b0a9;fill-rule:nonzero;"/></g></g><g id="GREEN-PIXELBOX" serif:id="GREENPIXELBOX"><g><path d="M27.472,27.334l1.056,-0l0,2.226c-0.271,0.225 -0.585,0.397 -0.942,0.518c-0.356,0.12 -0.715,0.18 -1.077,0.18c-0.518,-0 -0.984,-0.122 -1.398,-0.365c-0.414,-0.243 -0.738,-0.58 -0.974,-1.011c-0.235,-0.431 -0.353,-0.918 -0.353,-1.462c0,-0.543 0.118,-1.031 0.353,-1.462c0.236,-0.431 0.563,-0.768 0.981,-1.011c0.419,-0.243 0.89,-0.364 1.413,-0.364c0.437,-0 0.834,0.081 1.191,0.243c0.357,0.162 0.656,0.397 0.899,0.705l-0.742,0.753c-0.357,-0.413 -0.787,-0.62 -1.291,-0.62c-0.319,0 -0.602,0.074 -0.849,0.22c-0.247,0.146 -0.44,0.353 -0.578,0.619c-0.138,0.267 -0.207,0.572 -0.207,0.917c0,0.34 0.069,0.643 0.207,0.91c0.138,0.266 0.329,0.474 0.574,0.623c0.245,0.149 0.525,0.223 0.839,0.223c0.332,0 0.632,-0.078 0.898,-0.235l0,-1.607Z" style="fill:#86b0a9;fill-rule:nonzero;"/><path d="M32.779,30.164l-0.963,-1.529l-1.062,0l-0,1.529l-1.156,-0l0,-5.487l2.161,-0c0.443,-0 0.827,0.081 1.152,0.243c0.326,0.162 0.577,0.392 0.753,0.689c0.176,0.298 0.264,0.651 0.264,1.059c-0,0.407 -0.089,0.759 -0.268,1.054c-0.178,0.295 -0.431,0.521 -0.759,0.678l1.12,1.764l-1.242,-0Zm-0.021,-3.496c0,-0.309 -0.09,-0.545 -0.271,-0.71c-0.181,-0.164 -0.445,-0.247 -0.792,-0.247l-0.941,0l-0,1.913l0.941,0c0.347,0 0.611,-0.084 0.792,-0.251c0.181,-0.167 0.271,-0.402 0.271,-0.705Z" style="fill:#86b0a9;fill-rule:nonzero;"/><path d="M38.707,29.145l0,1.019l-3.866,-0l-0,-5.487l3.773,-0l0,1.019l-2.625,-0l0,1.191l2.319,0l-0,0.988l-2.319,-0l0,1.27l2.718,-0Z" style="fill:#86b0a9;fill-rule:nonzero;"/><path d="M43.494,29.145l-0,1.019l-3.867,-0l0,-5.487l3.774,-0l-0,1.019l-2.625,-0l-0,1.191l2.318,0l0,0.988l-2.318,-0l-0,1.27l2.718,-0Z" style="fill:#86b0a9;fill-rule:nonzero;"/><path d="M48.993,24.677l0,5.487l-0.948,-0l-2.49,-3.332l0,3.332l-1.141,-0l-0,-5.487l0.956,-0l2.482,3.331l0,-3.331l1.141,-0Z" style="fill:#86b0a9;fill-rule:nonzero;"/><path d="M26.26,32.032c0.442,0 0.826,0.081 1.152,0.243c0.325,0.162 0.576,0.392 0.752,0.69c0.176,0.298 0.264,0.651 0.264,1.059c0,0.402 -0.088,0.753 -0.264,1.054c-0.176,0.3 -0.427,0.53 -0.752,0.69c-0.326,0.159 -0.71,0.239 -1.152,0.239l-1.006,-0l-0,1.513l-1.156,-0l0,-5.488l2.162,0Zm-0.065,2.94c0.348,0 0.612,-0.082 0.792,-0.247c0.181,-0.165 0.271,-0.398 0.271,-0.701c0,-0.309 -0.09,-0.545 -0.271,-0.71c-0.18,-0.164 -0.444,-0.247 -0.792,-0.247l-0.941,0l-0,1.905l0.941,0Z" style="fill:#86b0a9;fill-rule:nonzero;"/><rect x="29.241" y="32.032" width="1.156" height="5.487" style="fill:#86b0a9;fill-rule:nonzero;"/><path d="M34.727,37.52l-1.206,-1.905l-1.184,1.905l-1.327,-0l1.848,-2.791l-1.755,-2.697l1.313,0l1.148,1.78l1.127,-1.78l1.249,0l-1.741,2.65l1.862,2.838l-1.334,-0Z" style="fill:#86b0a9;fill-rule:nonzero;"/><path d="M40.368,36.501l0,1.019l-3.866,-0l-0,-5.488l3.773,0l0,1.02l-2.625,-0l0,1.191l2.319,0l-0,0.988l-2.319,-0l0,1.27l2.718,-0Z" style="fill:#86b0a9;fill-rule:nonzero;"/><path d="M41.288,32.032l1.156,0l-0,4.453l2.504,-0l-0,1.035l-3.66,-0l0,-5.488Z" style="fill:#86b0a9;fill-rule:nonzero;"/><path d="M49.263,34.666c0.286,0.1 0.509,0.266 0.671,0.498c0.162,0.233 0.242,0.519 0.242,0.858c0,0.481 -0.17,0.851 -0.51,1.11c-0.34,0.258 -0.835,0.388 -1.487,0.388l-2.582,-0l-0,-5.488l2.439,0c0.609,0 1.076,0.129 1.402,0.385c0.326,0.256 0.489,0.603 0.489,1.042c-0,0.267 -0.059,0.504 -0.175,0.713c-0.117,0.21 -0.279,0.374 -0.489,0.494Zm-2.518,-1.677l0,1.293l1.149,0c0.285,0 0.501,-0.055 0.649,-0.164c0.147,-0.11 0.221,-0.272 0.221,-0.486c-0,-0.215 -0.074,-0.375 -0.221,-0.482c-0.148,-0.108 -0.364,-0.161 -0.649,-0.161l-1.149,-0Zm1.348,3.574c0.305,0 0.534,-0.055 0.689,-0.164c0.154,-0.11 0.232,-0.28 0.232,-0.51c-0,-0.454 -0.307,-0.682 -0.921,-0.682l-1.348,0l0,1.356l1.348,0Z" style="fill:#86b0a9;fill-rule:nonzero;"/><path d="M53.472,37.614c-0.518,-0 -0.986,-0.123 -1.402,-0.369c-0.416,-0.245 -0.742,-0.584 -0.977,-1.015c-0.235,-0.431 -0.353,-0.916 -0.353,-1.454c-0,-0.538 0.118,-1.023 0.353,-1.454c0.235,-0.431 0.561,-0.77 0.977,-1.015c0.416,-0.246 0.884,-0.369 1.402,-0.369c0.518,0 0.984,0.123 1.398,0.369c0.414,0.245 0.74,0.584 0.977,1.015c0.238,0.431 0.357,0.916 0.357,1.454c0,0.538 -0.119,1.023 -0.357,1.454c-0.237,0.431 -0.563,0.77 -0.977,1.015c-0.414,0.246 -0.88,0.369 -1.398,0.369Zm-0,-1.082c0.295,-0 0.561,-0.075 0.799,-0.223c0.238,-0.149 0.424,-0.357 0.56,-0.624c0.135,-0.266 0.203,-0.569 0.203,-0.909c0,-0.34 -0.068,-0.643 -0.203,-0.909c-0.136,-0.267 -0.322,-0.474 -0.56,-0.623c-0.238,-0.149 -0.504,-0.224 -0.799,-0.224c-0.295,0 -0.561,0.075 -0.799,0.224c-0.238,0.149 -0.424,0.356 -0.56,0.623c-0.135,0.266 -0.203,0.569 -0.203,0.909c-0,0.34 0.068,0.643 0.203,0.909c0.136,0.267 0.322,0.475 0.56,0.624c0.238,0.148 0.504,0.223 0.799,0.223Z" style="fill:#86b0a9;fill-rule:nonzero;"/><path d="M60.024,37.52l-1.205,-1.905l-1.185,1.905l-1.326,-0l1.847,-2.791l-1.755,-2.697l1.313,0l1.148,1.78l1.127,-1.78l1.249,0l-1.741,2.65l1.862,2.838l-1.334,-0Z" style="fill:#86b0a9;fill-rule:nonzero;"/></g></g><g id="Form-1" serif:id="Form 1"><g><g><rect x="4.05" y="22.373" width="17.416" height="17.416" style="fill:#86b0a9;"/></g></g></g><g id="Form-1-Kopie" serif:id="Form 1 Kopie"><g><g><rect x="21.466" y="13.824" width="8.548" height="8.548" style="fill:#86b0a9;"/></g></g></g><g id="Form-1-Kopie-2" serif:id="Form 1 Kopie 2"><g><g><rect x="21.466" y="39.789" width="4.873" height="4.873" style="fill:#86b0a9;"/></g></g></g><g id="Form-1-Kopie-3" serif:id="Form 1 Kopie 3"><g><g><rect x="16.593" y="44.662" width="4.873" height="4.873" style="fill:#86b0a9;"/></g></g></g></g></svg>