<svg id="Ebene_1" xmlns="http://www.w3.org/2000/svg" viewBox="0 0 100 100"><style>.st1{opacity:.9;enable-background:new}.st1,.st2{fill:#fff}</style><linearGradient id="SVGID_1_" gradientUnits="userSpaceOnUse" x1="79.748" y1="-8.384" x2="20.252" y2="108.384" gradientTransform="matrix(1 0 0 -1 0 100)"><stop offset="0" stop-color="#c28d31"/><stop offset="1" stop-color="#d4ab5b"/></linearGradient><path d="M95 100H5c-2.76 0-5-2.24-5-5V5c0-2.76 2.24-5 5-5h90c2.76 0 5 2.24 5 5v90c0 2.76-2.24 5-5 5z" fill="url(#SVGID_1_)"/><path class="st1" d="M28.15 40.19h5.94v-5.53h-5.94v5.53zm1.58-4.06h2.79v2.6h-2.79v-2.6zM35.98 34.66v5.53h22.03v-5.53H35.98zm20.46 4.07H37.56v-2.6h18.89v2.6h-.01z"/><path class="st2" d="M12.97 77.61h1.36l3 7.89h-1.58l-.73-1.97h-2.76l-.72 1.97H9.96l3.01-7.89zm1.77 4.85l-1.09-3.1-1.13 3.1h2.22zM20.29 85.61c-.4 0-.77-.08-1.11-.23-.34-.16-.63-.37-.88-.64a2.88 2.88 0 0 1-.57-.96c-.14-.37-.21-.76-.21-1.18s.06-.81.19-1.18.31-.68.54-.96c.23-.27.5-.49.82-.64.32-.16.67-.23 1.04-.23.43 0 .82.1 1.16.31s.61.48.81.81V77.4h1.49v6.4c0 .16.03.27.08.33s.14.1.27.11v1.27c-.26.05-.47.08-.63.08-.27 0-.48-.07-.66-.2a.727.727 0 0 1-.29-.52l-.03-.37c-.21.37-.51.65-.87.84-.36.18-.75.27-1.15.27zm.39-1.26a1.444 1.444 0 0 0 .84-.28c.12-.09.24-.19.34-.31.1-.12.18-.25.23-.39v-1.39c-.06-.16-.14-.31-.25-.45s-.23-.25-.37-.36c-.14-.1-.28-.18-.43-.24s-.3-.09-.45-.09c-.22 0-.43.05-.62.14-.19.1-.35.23-.48.39a1.967 1.967 0 0 0-.42 1.24c0 .24.04.47.12.68s.19.39.33.54c.14.16.31.28.51.37s.42.15.65.15zM26.62 85.5l-2.14-5.82H26l1.48 4.61 1.49-4.61h1.4l-2.14 5.82h-1.61zM32.59 85.61c-.28 0-.54-.05-.79-.14-.24-.09-.46-.22-.63-.39-.18-.17-.32-.36-.42-.58s-.15-.47-.15-.73c0-.27.06-.53.18-.76s.29-.43.51-.59.48-.29.78-.38.64-.14 1-.14c.26 0 .51.02.76.07.25.04.47.11.66.19v-.33c0-.38-.11-.68-.33-.89s-.54-.31-.97-.31c-.31 0-.62.06-.91.17-.3.11-.6.27-.91.49l-.46-.94c.75-.5 1.56-.74 2.42-.74.84 0 1.49.21 1.95.62s.69 1.01.69 1.78v1.81c0 .16.03.27.08.33s.15.1.27.11v1.27c-.25.05-.47.08-.66.08-.28 0-.5-.06-.65-.19s-.25-.29-.28-.5l-.03-.32c-.26.34-.57.6-.94.78s-.74.23-1.17.23zm.43-1.09c.25 0 .49-.04.72-.13s.4-.21.53-.36c.16-.13.24-.27.24-.42v-.67c-.18-.07-.37-.12-.58-.16s-.41-.06-.6-.06c-.39 0-.7.09-.94.26s-.37.39-.37.66c0 .25.1.46.29.63.19.17.42.25.71.25zM42.79 85.5H41.3v-3.27c0-.47-.08-.81-.24-1.02s-.39-.32-.68-.32c-.15 0-.3.03-.46.09s-.3.14-.44.25-.26.24-.37.38c-.11.15-.19.31-.24.49v3.4h-1.49v-5.82h1.34v1.08c.21-.37.53-.66.93-.87.41-.21.87-.31 1.38-.31.36 0 .66.07.89.2s.41.31.53.52c.13.21.21.46.26.73.05.27.07.55.07.83v3.64h.01zM43.73 82.59c0-.41.07-.79.21-1.16.14-.36.34-.68.61-.96.27-.27.59-.49.97-.66s.8-.24 1.28-.24c.64 0 1.18.14 1.63.41.45.27.78.63 1.01 1.08l-1.46.44c-.13-.21-.29-.38-.5-.49s-.44-.17-.69-.17c-.21 0-.42.04-.6.13-.19.09-.35.2-.48.36-.14.15-.24.33-.32.55-.08.21-.12.45-.12.71s.04.5.12.71.19.4.33.56.3.28.48.36.38.13.59.13c.27 0 .51-.07.74-.2.23-.13.38-.3.47-.49l1.46.44c-.2.44-.53.81-.99 1.09-.46.28-1.01.42-1.66.42-.47 0-.9-.08-1.28-.25a2.878 2.878 0 0 1-1.59-1.63c-.14-.36-.21-.74-.21-1.14zM53 85.61c-.47 0-.89-.08-1.27-.24s-.7-.38-.97-.65-.47-.59-.62-.96-.22-.74-.22-1.14c0-.42.07-.81.21-1.17.14-.37.34-.69.61-.97s.59-.5.97-.66.81-.24 1.28-.24.9.08 1.27.24.69.38.96.66c.26.27.46.59.6.96.14.36.21.74.21 1.13 0 .1 0 .19-.01.28s-.01.16-.03.22h-4.5c.02.23.08.43.17.61s.2.33.34.46.3.22.48.29.36.1.56.1c.3 0 .58-.07.84-.22s.44-.33.54-.57l1.28.36c-.21.44-.56.81-1.03 1.09-.45.28-1.01.42-1.67.42zm1.52-3.51c-.04-.44-.2-.79-.48-1.05s-.63-.39-1.04-.39c-.2 0-.39.04-.56.11s-.33.17-.46.29c-.13.13-.24.28-.33.46s-.14.37-.15.59l3.02-.01zM59.37 85.61c-.4 0-.77-.08-1.11-.23s-.63-.37-.88-.64c-.24-.27-.43-.59-.57-.96s-.21-.76-.21-1.18.06-.81.19-1.18.31-.68.54-.96c.23-.27.5-.49.82-.64.32-.16.67-.23 1.04-.23.43 0 .82.1 1.16.31s.61.48.81.81V77.4h1.49v6.4c0 .16.03.27.08.33.05.07.14.1.27.11v1.27c-.26.05-.47.08-.63.08-.27 0-.49-.07-.66-.2s-.27-.31-.29-.52l-.03-.37c-.21.37-.51.65-.87.84-.36.18-.75.27-1.15.27zm.39-1.26a1.444 1.444 0 0 0 .84-.28c.12-.09.24-.19.34-.31.1-.12.18-.25.23-.39v-1.39c-.06-.16-.14-.31-.25-.45s-.23-.25-.37-.36c-.14-.1-.28-.18-.43-.24s-.3-.09-.45-.09c-.22 0-.43.05-.62.14-.19.1-.35.23-.48.39a1.967 1.967 0 0 0-.42 1.24c0 .24.04.47.12.68.08.21.19.39.33.54.14.16.31.28.51.37s.41.15.65.15zM64.44 85.5v-7.89h5.18v.69h-4.4v2.9h3.71v.64h-3.71v3.66h-.78zM72.92 85.61c-.42 0-.81-.08-1.16-.24-.35-.16-.65-.38-.91-.65s-.45-.59-.59-.96-.21-.74-.21-1.14c0-.41.07-.79.22-1.16s.34-.68.6-.96c.26-.27.56-.49.91-.66.35-.16.73-.24 1.14-.24s.8.08 1.15.24.66.38.91.66c.26.27.46.59.6.96s.22.75.22 1.16a3.117 3.117 0 0 1-.8 2.1c-.25.27-.56.49-.91.65s-.75.24-1.17.24zm-2.1-2.98a2.456 2.456 0 0 0 .62 1.64c.19.21.41.38.67.49s.53.18.82.18.56-.06.82-.18c.25-.12.48-.29.67-.5.19-.21.34-.46.46-.74a2.535 2.535 0 0 0 0-1.82c-.11-.29-.26-.53-.46-.74s-.42-.38-.67-.5c-.26-.12-.53-.18-.82-.18s-.56.06-.81.18-.47.29-.67.51-.34.46-.46.75c-.12.28-.17.59-.17.91zM79.95 80.38c-.51.01-.96.16-1.33.42s-.64.63-.8 1.1v3.6h-.76v-5.79h.71v1.39c.21-.44.5-.79.87-1.04s.75-.38 1.17-.38c.06 0 .11 0 .14.01v.69zM89.57 85.5h-.75v-3.23c0-.67-.11-1.17-.32-1.49s-.53-.48-.96-.48c-.22 0-.43.04-.63.12s-.38.2-.54.34a2.517 2.517 0 0 0-.73 1.2v3.53h-.76v-3.23c0-.69-.1-1.19-.31-1.5s-.53-.47-.96-.47c-.44 0-.83.15-1.17.46s-.58.7-.73 1.2v3.54h-.76V79.7h.69v1.31c.24-.44.55-.79.93-1.04s.81-.37 1.28-.37c.49 0 .88.14 1.17.41.29.27.47.63.54 1.08.54-.99 1.29-1.49 2.23-1.49.33 0 .6.06.83.18s.41.29.54.5c.14.22.24.48.3.79.06.31.09.65.09 1.03v3.4h.02z"/><path class="st1" d="M72.96 17.1H40.02c-2.78 0-5.04 2.1-5.04 4.69v.97h-1.74c-2.78 0-5.04 2.1-5.04 4.69v.98h-1.74c-2.78 0-5.04 2.11-5.04 4.69v30.66c0 2.59 2.26 4.69 5.04 4.69H59.4c2.78 0 5.04-2.1 5.04-4.69v-.98h1.74c2.78 0 5.04-2.11 5.04-4.69v-.97h1.74c2.78 0 5.04-2.1 5.04-4.69V21.79c0-2.58-2.26-4.69-5.04-4.69zM61.07 63.79c0 .86-.75 1.56-1.68 1.56H26.45c-.93 0-1.68-.7-1.68-1.56V33.13c0-.86.75-1.56 1.68-1.56h32.94c.93 0 1.68.7 1.68 1.56v30.66zm6.79-5.67c0 .86-.75 1.56-1.68 1.56h-1.74V33.13c0-2.59-2.26-4.69-5.04-4.69H31.55v-.98c0-.86.75-1.56 1.68-1.56h32.94c.93 0 1.68.7 1.68 1.56v30.66h.01zm6.78-5.67c0 .86-.75 1.56-1.68 1.56h-1.74V27.46c0-2.59-2.26-4.69-5.04-4.69H38.33v-.97c0-.86.75-1.56 1.68-1.56h32.94c.93 0 1.68.7 1.68 1.56v30.65h.01z"/><path class="st1" d="M28.34 47.36h29.68v-5.53H28.34v5.53zm1.57-4.06h26.53v2.6H29.91v-2.6zM36.13 57.41v4.53H49.7v-4.53H36.13zm7.64 3.64l-.01-.92h-3.64v-.91h3.64l.01-.98 1.78 1.44-1.78 1.37zM28.34 54.54h29.68v-5.53H28.34v5.53zm1.57-4.07h26.53v2.6H29.91v-2.6z"/></svg>