<svg xmlns="http://www.w3.org/2000/svg" width="100%" height="100%" viewBox="0 0 2336 2295" fill-rule="evenodd" stroke-linecap="round" stroke-linejoin="round" stroke-miterlimit="10" xmlns:v="https://vecta.io/nano"><style><![CDATA[.B{fill:#231f20}.C{fill:#2b2f30}.D{fill-rule:nonzero}.E{stroke:#231f20}.F{stroke-miterlimit:1.5}]]></style><g transform="matrix(12.0237 0 0 12.0434 -1188.68375 -289.75)"><clipPath id="A"><path d="M98.861 24.059h194.242v190.555H98.861z"/></clipPath><g clip-path="url(#A)"><g transform="matrix(1.34846 0 0 1.34626 97.949958 23.281349)" class="D"><path d="M0 0h145.4v142.7H0z" fill="#c30c2b"/><g transform="matrix(1.16504 0 0 1.16504 4.06724 -50.661)"><g fill="#fff"><path d="M22.392 90.713c1.066 0 1.98.152 2.742.457s1.371.685 1.828 1.219.838 1.066 1.066 1.752.305 1.295.305 2.056c0 .685-.076 1.371-.305 1.98a4.19 4.19 0 0 1-1.066 1.752c-.457.533-1.066.914-1.828 1.219s-1.675.457-2.742.457h-3.96v6.093H14.7V90.713h7.692zm-.99 8.073c.457 0 .838 0 1.219-.076s.762-.152 1.066-.381c.305-.152.533-.457.762-.762.152-.305.305-.762.305-1.295s-.076-.99-.305-1.295c-.152-.305-.457-.609-.762-.762a4.37 4.37 0 0 0-1.066-.381c-.381-.076-.838-.076-1.219-.076h-2.894v5.103l2.894-.076zm12.262-8.073v13.861h8.301v3.123H29.932V90.713h3.732zm22.619 0v3.123h-8.987v3.656h8.225v2.894h-8.225v4.189h9.215v3.123H43.564V90.713h12.719zm6.169 0l7.083 11.424h.076V90.713h3.503v17.06h-3.732l-7.083-11.424v11.424h-3.503v-17.06h3.656zm12.109 3.199V90.79h13.937v3.123h-5.026v13.861h-3.808V93.912h-5.103zm22.162-3.199l6.397 17.06h-3.884l-1.295-3.808h-6.397l-1.371 3.808h-3.732l6.473-17.06h3.808zm.228 10.51l-2.132-6.245h-.076l-2.209 6.245h4.417zm-79.89 17.06c-.076.305-.228.457-.533.457H16.3c-.305 0-.457-.076-.533-.457l-.99-4.265v-.228c0-.076.076-.152.152-.152h.533c.076 0 .152.076.228.152l.838 4.036.99-3.656c.076-.305.152-.381.457-.381h.152c.305 0 .381.076.457.381l.99 3.656c.076-.609.228-1.219.838-4.036 0-.152.076-.228.228-.228h.533c.076 0 .076.076.076.152s0 .152-.076.228l-.99 4.265c-.076.305-.152.457-.533.457h-.152c-.381 0-.457-.152-.533-.457l-.914-3.579c-.228.609-.381 1.142-.99 3.656zm7.083.381c-.457 0-.762-.152-.762-.762v-3.579c0-.533.228-.762.762-.762h2.132c.076 0 .152.076.152.152v.457c0 .076-.076.152-.152.152h-1.828c-.152 0-.228.076-.228.305v1.066h1.828c.076 0 .152.076.152.152v.381c0 .076-.076.152-.152.152H24.22v1.219c0 .228.076.305.305.305h1.828c.076 0 .152.076.152.152v.381c0 .076-.076.152-.152.152l-2.209.076zm5.56 0c-.457 0-.685-.228-.685-.685V114.4c0-.457.228-.762.685-.762h.838c.228 0 .609 0 .762.076.838.076 1.142.457 1.142 1.219 0 .609-.228.99-.762 1.142.609.152.914.457.914 1.219 0 .609-.152 1.066-.685 1.295a5.69 5.69 0 0 1-1.371.152l-.838-.076zm.838-2.97c.305 0 .533 0 .685-.076.228-.076.381-.305.381-.685 0-.457-.228-.609-.457-.685-.076-.076-.305-.076-.533-.076h-.533c-.152 0-.228.076-.228.305v1.142c-.076.076.685.076.685.076zm-.762 1.98c0 .228.076.305.305.305h.609c.305 0 .609 0 .685-.076.228-.076.381-.305.381-.762a.71.71 0 0 0-.381-.685c-.152-.076-.381-.076-.685-.076h-.838v1.295h-.076zm10.891.99c-.457 0-.762-.152-.762-.762v-3.579c0-.533.228-.762.762-.762h2.132c.076 0 .152.076.152.152v.457c0 .076-.076.152-.152.152h-1.828c-.152 0-.228.076-.228.305v1.066h1.828c.076 0 .152.076.152.152v.381c0 .076-.076.152-.152.152h-1.828v1.219c0 .228.076.305.305.305h1.904c.076 0 .152.076.152.152v.381c0 .076-.076.152-.152.152l-2.285.076zm5.407 0h-.457c-.076 0-.152-.076-.152-.228v-4.341c0-.381.152-.609.533-.609h.228c.305 0 .457.152.533.457l1.828 3.656v-3.808c0-.152.076-.228.228-.228h.457c.152 0 .152.076.152.228v4.417c0 .381-.228.457-.457.457h-.152c-.381 0-.457-.152-.609-.457l-1.904-3.656v3.96c0 .076-.076.152-.228.152zm7.768 0h-.457c-.076 0-.152-.076-.152-.228v-4.113h-1.295c-.076 0-.152-.076-.152-.152v-.381c0-.152.076-.152.152-.152h3.351c.076 0 .152.076.152.152v.381c0 .076-.076.152-.152.152h-1.295v4.113c0 .152-.076.228-.152.228zm5.788-.381c-.076.305-.228.457-.533.457h-.228c-.305 0-.457-.076-.533-.457l-.99-4.265v-.228c0-.076.076-.152.152-.152h.533c.076 0 .152.076.228.152l.838 4.036.99-3.656c.076-.305.152-.381.457-.381h.152c.305 0 .381.076.457.381l.99 3.656c.076-.609.228-1.219.838-4.036 0-.152.076-.228.228-.228h.533c.076 0 .076.076.076.152s0 .152-.076.228l-1.066 4.265c-.076.305-.152.457-.533.457h-.152c-.381 0-.457-.152-.533-.457l-.914-3.579c-.076.609-.228 1.142-.914 3.656zm7.007.381h-.457c-.076 0-.152-.076-.152-.228v-4.722c0-.076.076-.228.152-.228h.457a.12.12 0 0 1 .152.152v4.722c0 .228-.076.305-.152.305zm4.798-.609c.457 0 .762-.076.99-.152.076 0 .152-.076.228-.076s.076 0 .152.076.076.305.076.381-.076.152-.152.152c-.457.152-.914.228-1.447.228-1.219 0-1.98-.609-1.98-2.513s.533-2.742 2.132-2.742c.457 0 .914.076 1.219.076.076 0 .152.076.152.152s-.076.305-.076.457c0 .076-.076.076-.152.076s-.152 0-.228-.076c-.228-.076-.457-.076-.838-.076-1.142 0-1.371.685-1.371 1.904 0 1.447.228 2.132 1.295 2.132zm4.265.609h-.457c-.076 0-.152-.076-.152-.228v-4.722c0-.076.076-.228.152-.228h.457a.12.12 0 0 1 .152.152v1.904h.457c.152 0 .228-.076.305-.152l1.219-1.828c.076-.076.152-.152.228-.152h.457c.076 0 .152.076.152.152s-.076.152-.076.152l-1.447 2.132c.152.305.457.609 1.523 2.285.076.076.076.152.076.228s-.076.076-.076.152h-.609c-.076 0-.152-.076-.228-.152l-1.219-1.828c-.076-.076-.152-.076-.305-.076h-.457v2.056c.076.076 0 .152-.152.152zm6.093 0c-.457 0-.685-.228-.685-.685v-4.189c0-.076.076-.228.152-.228h.457a.12.12 0 0 1 .152.152v3.884c0 .152.076.305.305.305h1.828c.076 0 .152.076.152.152v.381c0 .076-.076.152-.152.152h-2.209v.076zm8.149-2.056c0 .685-.076 1.142-.228 1.447-.305.457-.838.685-1.752.685-.762 0-1.447-.152-1.675-.762-.152-.305-.152-.838-.152-1.371v-2.894c0-.076.076-.152.152-.152h.457c.076 0 .152.076.152.152v3.123c0 .381 0 .685.152.838.152.228.457.305.914.305.305 0 .762-.076.914-.305.076-.152.152-.457.152-.838v-3.123c0-.076.076-.152.152-.152h.457c.076 0 .152.076.152.152l.152 2.894zm3.351 2.056h-.457c-.076 0-.152-.076-.152-.228v-4.341c0-.381.152-.609.533-.609h.228c.305 0 .457.152.533.457l1.828 3.656v-3.808c0-.152.076-.228.228-.228h.457c.152 0 .152.076.152.228v4.417c0 .381-.228.457-.457.457h-.152c-.381 0-.457-.152-.609-.457l-1.904-3.656v3.96c-.076.076-.152.152-.228.152zm9.672-.305l-.152.152c-.305.076-.914.228-1.675.228-1.295 0-2.056-.609-2.056-2.513s.609-2.742 2.285-2.742c.457 0 .99.076 1.295.076.152.076.152.076.152.152s-.076.305-.076.457c0 .076-.076.076-.152.076h-.228c-.228-.076-.533-.076-.99-.076-1.142 0-1.447.685-1.447 1.904s.228 1.98 1.295 1.98c.457 0 .685-.076.914-.076.076 0 .152-.076.152-.228v-1.066h-.99c-.076 0-.152-.076-.152-.152v-.457c0-.076.076-.152.152-.152h1.523c.076 0 .152.076.152.152v2.285z"/></g><path d="M35.72 113.942l1.066 2.209m0 0l-1.066 2.209" stroke="#fff" stroke-width=".67"/></g></g><g class="C"><path d="M225.691 180.068s-5.119-16.386-13.226-11.699c0 0-14.06 4.667 6.037 38.221l12.349.447 34.052 4.908 10.078 2.614 9.803-.05s-5.572-11.434-9.002-14.471-28.296-7.972-28.296-7.972l-15.11-8.157-6.684-3.841zm50.657-19.506c-.116-.237 11.651-5.984 14.725 6.228 1.864 7.404-8.594 14.898-10.167 10.541l-11.46-8.239 6.901-8.531z"/></g><g transform="matrix(.082962 -.005851 .005861 .082827 74.6267 -167.796)" class="B"><path d="M2163.1 4159.19s47.4-32 89.52 6.86c26.81 24.72 22.3 62.09 6.9 83.89-7.09 10.03-18.09 24.28-30.1 28.05-5.57 1.75-7.84-11.92-13.47-16.43l-59.75-35.12 6.9-67.25z"/></g><g transform="matrix(.083147 .001905 -.001908 .083012 106.624 -184.798)" class="C"><path d="M1580.92 4177.57s-69.56-98.09 3.52-162.15c103.54-90.76 192.92 28.08 192.92 28.08l-60.1 92.08-136.34 41.99z"/></g><g transform="matrix(-.004314 -.082921 .083057 -.004307 -102.715 358.934)" class="B"><path d="M2163.1 4159.19s47.4-32 89.52 6.86c39.48 36.42 9.08 104.97-22.06 106.12-5.56.2-9.25-6.31-14.61-10.61l-59.75-35.12 6.9-67.25z"/></g><path d="M227.89 168.422c2.705-5.909 12.187-12.79 18.534-14.224 8.495-1.919 24.059 1.262 29.51 6.94 4.593 4.784 10.207 12.51 10.194 19.099s-3.583 13.37-9.289 18.579c-8.359 7.632-38.233 5.097-46.985-7.84-4.89-7.229-4.747-16.476-1.964-22.553z" fill="#f9f1e9"/><path d="M254.448 186.106s-.821 3.207-2.921 4.108c0 0-6.156 1.666-6.293-4.242" fill="none" stroke-width=".887" class="E F"/><g transform="matrix(-.080569 -.024058 -.023832 .079551 510.627 -118.649)" class="E F"><path d="M1877.42 4403.73s-9.87 38.62-35.12 49.47c0 0-74.02 20.07-75.67-51.09" fill="none" stroke-width="10.61"/></g><path d="M254.281 186.451c1.282.266 5.472-1.225 4.758-3.062-.929-2.395-6.46-2.89-7.698-1.595-1.154 1.206 1.657 4.392 2.94 4.657z" class="B"/><path d="M234.553 171.861c1.816-2.595 7.325-14.973 16.029-5.22 4.455 4.99-2.648 15.575-10.891 15.565s-6.953-7.75-5.138-10.344z" class="C"/><g transform="matrix(.031764 -.076739 .076864 .031712 -112.384 176.523)" class="C"><path d="M1637.42 4258.98c21.83-31.25 88.07-180.32 192.73-62.87 53.56 60.1-31.84 187.58-130.95 187.45-99.11-.12-83.6-93.34-61.78-124.58z"/></g><path d="M242.532 165.559c1.986-1.268 7.776.298 8.178 3.33.743 5.606-3.699 9.085-5.726 8.864-6.155-.672-5.883-3.884-6.175-6.045s2.006-5.052 3.723-6.149z" fill="#f1f1f2"/><g transform="matrix(.071604 -.042238 .042307 .071488 -36.0509 -52.7996)"><path d="M1728.05 4182.43c23.88-15.27 93.5 3.59 98.33 40.1 8.93 67.52-44.48 109.41-68.85 106.75-74.01-8.09-70.73-46.78-74.25-72.8s24.12-60.84 44.77-74.05z" fill="#f1f1f2"/></g><path d="M244.054 167.568c2.87-2.094 6.033.025 6.76 1.256s-.622 4.984-.622 4.984-1.31 2.35-2.458 2.749c-1.231.428-4.059.781-5.328-2.008-.699-1.536.377-6.054 1.648-6.981z" class="B"/><g transform="matrix(-.075792 .034187 -.034243 -.075669 548.161 438.562)" class="B"><path d="M1746.35 4206.63c34.51-25.22 63.15.78 75.45 13.3 12.3 12.53 5.38 55.84-1.65 61.85 0 0-15.75 28.3-29.55 33.11-14.8 5.15-48.81 9.4-64.06-24.18-8.4-18.5 4.53-72.91 19.81-84.08z"/></g><path d="M273.828 215.403c-10.236 2.953-65.176 8.377-56.52-.897 0 0-1.327-13.958 12.219-13.71 2.837.051 7.892 3.765 11.299 5.683 3.074 1.73 9.302 2.467 13.79 2.812 4.373.336 9.673-1.362 13.138-.741 3.554.635 9.008 6.007 6.073 6.853z" fill="#f9f1e9"/><g fill="none" stroke-width=".443" class="E F"><path d="M213.72 168.056c1.518 1.197 2.674 2.548 3.809 4.449m-6.573-2.886c.214 1.937.739 3.648 1.456 5.398"/></g></g></g></svg>