<svg xmlns="http://www.w3.org/2000/svg" viewBox="0 0 459.5 123.334"><g fill="#414652"><path d="M134.857 40.933c.018.019.046.028.084.028 0-.113-.028-.169-.084-.169l5.793-.028 5.597 6.666h4.5v-1.491l-4.388-5.175h.197c1.144 0 2.128-.408 2.953-1.224.824-.815 1.237-1.795 1.237-2.938v-5.231c0-1.144-.413-2.124-1.237-2.939-.825-.815-1.81-1.223-2.953-1.223h-16.059V47.43h4.359v-6.497zm0-9.366h11.475v4.81h-11.475v-4.81zM169.759 27.18h-11.925c-1.163 0-2.147.403-2.952 1.209-.807.806-1.21 1.791-1.21 2.953v11.925c0 1.163.403 2.146 1.21 2.953.805.807 1.789 1.209 2.952 1.209h11.925c1.144 0 2.123-.408 2.938-1.223.815-.816 1.224-1.795 1.224-2.939V31.342c0-1.143-.408-2.123-1.224-2.938s-1.795-1.224-2.938-1.224zm-.253 15.862h-11.475V31.567h11.475v11.475zM181.177 47.429h16.03v-4.387h-15.834V31.567h15.834V27.18h-16.03c-1.163 0-2.147.403-2.953 1.209-.807.806-1.209 1.791-1.209 2.953v11.925c0 1.163.402 2.146 1.209 2.953.805.806 1.79 1.209 2.953 1.209zM211.043 32.102l-2.53 3.009h-3.966V27.18h-4.388v20.249h4.388v-7.93h3.966l6.637 7.93h4.556V45.91l-7.227-8.606 7.227-8.605V27.18h-4.556zM226.568 47.429h11.924c1.143 0 2.123-.408 2.939-1.223.814-.816 1.223-1.795 1.223-2.939v-3.994c0-1.144-.408-2.124-1.223-2.939-.816-.815-1.797-1.224-2.939-1.224h-11.728v-3.543h11.476v1.659h4.414v-1.884c0-1.143-.408-2.123-1.223-2.938-.816-.815-1.797-1.224-2.939-1.224h-11.924c-1.145 0-2.124.403-2.939 1.209s-1.224 1.791-1.224 2.953v3.994c0 1.163.408 2.146 1.224 2.953.815.806 1.795 1.209 2.939 1.209h11.672v3.543h-11.476v-1.66h-4.359v1.885c0 1.163.408 2.146 1.224 2.953.815.807 1.795 1.21 2.939 1.21zM261.693 27.18H249.77c-1.162 0-2.146.403-2.953 1.209s-1.209 1.791-1.209 2.953v11.925c0 1.163.402 2.146 1.209 2.953.807.807 1.791 1.209 2.953 1.209h11.924c1.145 0 2.125-.408 2.939-1.223.816-.816 1.225-1.795 1.225-2.939V31.342c0-1.143-.408-2.123-1.225-2.938-.815-.816-1.795-1.224-2.94-1.224zm-.252 15.862h-11.475V31.567h11.475v11.475zM289.227 43.042h-15.889v-15.89h-4.361v20.277h20.25zM290.885 27.18h4.389v20.249h-4.389zM317.252 46.206c.814-.816 1.223-1.795 1.223-2.939V31.342c0-1.143-.408-2.123-1.223-2.938-.816-.815-1.805-1.224-2.969-1.224h-16.057v20.249h16.057c1.164 0 2.153-.408 2.969-1.223zm-3.193-3.164h-11.473V31.567h11.473v11.475zM132.822 58.101c-1.613 1.613-2.419 3.583-2.419 5.906v23.85c0 2.326.806 4.293 2.419 5.906 1.611 1.613 3.58 2.418 5.905 2.418h32.062v-8.775h-31.668V64.458h31.668v-8.775h-32.062c-2.325 0-4.293.806-5.905 2.418zM208.699 55.683H184.85c-2.325 0-4.294.806-5.906 2.418-1.613 1.613-2.418 3.583-2.418 5.906v23.85c0 2.326.805 4.293 2.418 5.906 1.612 1.613 3.581 2.418 5.906 2.418h23.849c2.287 0 4.247-.816 5.879-2.447 1.631-1.631 2.446-3.59 2.446-5.877v-23.85c0-2.286-.815-4.247-2.446-5.877-1.632-1.631-3.592-2.447-5.879-2.447zm-.506 31.722h-22.949V64.458h22.949v22.947zM231.984 55.626h-8.717v40.555h40.497v-8.776h-31.78zM298.58 87.405h-22.947V55.683h-8.719v32.173c0 2.326.807 4.293 2.418 5.906 1.613 1.613 3.582 2.418 5.906 2.418h23.85c2.285 0 4.246-.816 5.877-2.447 1.633-1.631 2.447-3.59 2.447-5.877V55.683h-8.832v31.722zM336.322 72.052l-13.724-16.369H313.6v40.498h8.716v-27.11l14.006 16.592 13.949-16.648v27.166h8.776V55.683h-9.057zM397.463 82.683l-22.668-27h-8.998v40.498h8.717v-27.11l22.781 27.11h9V55.683h-8.832zM452.809 67.776v-3.77c0-2.286-.814-4.247-2.445-5.877-1.633-1.631-3.592-2.447-5.879-2.447h-23.848c-2.289 0-4.248.806-5.879 2.418-1.631 1.613-2.447 3.583-2.447 5.906v7.986c0 2.326.816 4.295 2.447 5.908 1.631 1.611 3.59 2.418 5.879 2.418h23.342v7.086H421.03v-3.318h-8.719v3.77c0 2.326.816 4.293 2.447 5.906s3.59 2.418 5.879 2.418h23.848c2.287 0 4.246-.816 5.879-2.447 1.631-1.631 2.445-3.59 2.445-5.877V79.87c0-2.289-.814-4.248-2.445-5.879-1.633-1.631-3.592-2.447-5.879-2.447H421.03v-7.086h22.949v3.318h8.83zM63.441 27.121h43.238v69.093H63.441zM29.662 27.121h27.023v69.093H29.662zM6.691 27.121h16.214v69.093H6.691z"/></g></svg>