<svg version="1.1" xmlns="http://www.w3.org/2000/svg" viewBox="0 0 459.5 123.334">
<g>
	<path fill="#414652" d="M134.857,40.933c0.018,0.019,0.046,0.028,0.084,0.028c0-0.113-0.028-0.169-0.084-0.169l5.793-0.028
		l5.597,6.666h4.5v-1.491l-4.388-5.175h0.197c1.144,0,2.128-0.408,2.953-1.224c0.824-0.815,1.237-1.795,1.237-2.938v-5.231
		c0-1.144-0.413-2.124-1.237-2.939c-0.825-0.815-1.81-1.223-2.953-1.223h-16.059v20.221h4.359V40.933z M134.857,31.567h11.475v4.81
		h-11.475V31.567z"/>
	<path fill="#414652" d="M169.759,27.18h-11.925c-1.163,0-2.147,0.403-2.952,1.209c-0.807,0.806-1.21,1.791-1.21,2.953v11.925
		c0,1.163,0.403,2.146,1.21,2.953c0.805,0.807,1.789,1.209,2.952,1.209h11.925c1.144,0,2.123-0.408,2.938-1.223
		c0.815-0.816,1.224-1.795,1.224-2.939V31.342c0-1.143-0.408-2.123-1.224-2.938S170.902,27.18,169.759,27.18z M169.506,43.042
		h-11.475V31.567h11.475V43.042z"/>
	<path fill="#414652" d="M181.177,47.429h16.03v-4.387h-15.834V31.567h15.834V27.18h-16.03c-1.163,0-2.147,0.403-2.953,1.209
		c-0.807,0.806-1.209,1.791-1.209,2.953v11.925c0,1.163,0.402,2.146,1.209,2.953C179.029,47.026,180.014,47.429,181.177,47.429z"/>
	<polygon fill="#414652" points="211.043,32.102 208.513,35.111 204.547,35.111 204.547,27.18 200.159,27.18 200.159,47.429
		204.547,47.429 204.547,39.499 208.513,39.499 215.15,47.429 219.706,47.429 219.706,45.91 212.479,37.304 219.706,28.699
		219.706,27.18 215.15,27.18 	"/>
	<path fill="#414652" d="M226.568,47.429h11.924c1.143,0,2.123-0.408,2.939-1.223c0.814-0.816,1.223-1.795,1.223-2.939v-3.994
		c0-1.144-0.408-2.124-1.223-2.939c-0.816-0.815-1.797-1.224-2.939-1.224h-11.728v-3.543h11.476v1.659h4.414v-1.884
		c0-1.143-0.408-2.123-1.223-2.938c-0.816-0.815-1.797-1.224-2.939-1.224h-11.924c-1.145,0-2.124,0.403-2.939,1.209
		s-1.224,1.791-1.224,2.953v3.994c0,1.163,0.408,2.146,1.224,2.953c0.815,0.806,1.795,1.209,2.939,1.209h11.672v3.543h-11.476v-1.66
		h-4.359v1.885c0,1.163,0.408,2.146,1.224,2.953C224.444,47.026,225.424,47.429,226.568,47.429z"/>
	<path fill="#414652" d="M261.693,27.18H249.77c-1.162,0-2.146,0.403-2.953,1.209s-1.209,1.791-1.209,2.953v11.925
		c0,1.163,0.402,2.146,1.209,2.953c0.807,0.807,1.791,1.209,2.953,1.209h11.924c1.145,0,2.125-0.408,2.939-1.223
		c0.816-0.816,1.225-1.795,1.225-2.939V31.342c0-1.143-0.408-2.123-1.225-2.938C263.818,27.588,262.838,27.18,261.693,27.18z
		 M261.441,43.042h-11.475V31.567h11.475V43.042z"/>
	<polygon fill="#414652" points="289.227,43.042 273.338,43.042 273.338,27.152 268.977,27.152 268.977,47.429 289.227,47.429 	"/>
	<rect x="290.885" y="27.18" fill="#414652" width="4.389" height="20.249"/>
	<path fill="#414652" d="M317.252,46.206c0.814-0.816,1.223-1.795,1.223-2.939V31.342c0-1.143-0.408-2.123-1.223-2.938
		c-0.816-0.815-1.805-1.224-2.969-1.224h-16.057v20.249h16.057C315.447,47.429,316.436,47.021,317.252,46.206z M314.059,43.042
		h-11.473V31.567h11.473V43.042z"/>
	<path fill="#414652" d="M132.822,58.101c-1.613,1.613-2.419,3.583-2.419,5.906v23.85c0,2.326,0.806,4.293,2.419,5.906
		c1.611,1.613,3.58,2.418,5.905,2.418h32.062v-8.775h-31.668V64.458h31.668v-8.775h-32.062
		C136.402,55.683,134.434,56.489,132.822,58.101z"/>
	<path fill="#414652" d="M208.699,55.683h-23.849c-2.325,0-4.294,0.806-5.906,2.418c-1.613,1.613-2.418,3.583-2.418,5.906v23.85
		c0,2.326,0.805,4.293,2.418,5.906c1.612,1.613,3.581,2.418,5.906,2.418h23.849c2.287,0,4.247-0.816,5.879-2.447
		c1.631-1.631,2.446-3.59,2.446-5.877v-23.85c0-2.286-0.815-4.247-2.446-5.877C212.946,56.499,210.986,55.683,208.699,55.683z
		 M208.193,87.405h-22.949V64.458h22.949V87.405z"/>
	<polygon fill="#414652" points="231.984,55.626 223.267,55.626 223.267,96.181 263.764,96.181 263.764,87.405 231.984,87.405 	"/>
	<path fill="#414652" d="M298.58,87.405h-22.947V55.683h-8.719v32.173c0,2.326,0.807,4.293,2.418,5.906
		c1.613,1.613,3.582,2.418,5.906,2.418h23.85c2.285,0,4.246-0.816,5.877-2.447c1.633-1.631,2.447-3.59,2.447-5.877V55.683h-8.832
		V87.405z"/>
	<polygon fill="#414652" points="336.322,72.052 322.598,55.683 313.6,55.683 313.6,96.181 322.316,96.181 322.316,69.071
		336.322,85.663 350.271,69.015 350.271,96.181 359.047,96.181 359.047,55.683 349.99,55.683 	"/>
	<polygon fill="#414652" points="397.463,82.683 374.795,55.683 365.797,55.683 365.797,96.181 374.514,96.181 374.514,69.071
		397.295,96.181 406.295,96.181 406.295,55.683 397.463,55.683 	"/>
	<path fill="#414652" d="M452.809,67.776v-3.77c0-2.286-0.814-4.247-2.445-5.877c-1.633-1.631-3.592-2.447-5.879-2.447h-23.848
		c-2.289,0-4.248,0.806-5.879,2.418c-1.631,1.613-2.447,3.583-2.447,5.906v7.986c0,2.326,0.816,4.295,2.447,5.908
		c1.631,1.611,3.59,2.418,5.879,2.418h23.342v7.086h-22.949v-3.318h-8.719v3.77c0,2.326,0.816,4.293,2.447,5.906
		s3.59,2.418,5.879,2.418h23.848c2.287,0,4.246-0.816,5.879-2.447c1.631-1.631,2.445-3.59,2.445-5.877V79.87
		c0-2.289-0.814-4.248-2.445-5.879c-1.633-1.631-3.592-2.447-5.879-2.447h-23.455v-7.086h22.949v3.318H452.809z"/>
	<rect x="63.441" y="27.121" fill="#414652" width="43.238" height="69.093"/>
	<rect x="29.662" y="27.121" fill="#414652" width="27.023" height="69.093"/>
	<rect x="6.691" y="27.121" fill="#414652" width="16.214" height="69.093"/>
</g>
</svg>
