<svg xmlns="http://www.w3.org/2000/svg" width="320" height="407">
  <path fill="#F60002" d="M212 13c2.23 2.23 2.73 3.656 3.74 6.614l1.002 2.904 1.067 3.15 1.113 3.237c1.177 3.426 2.347 6.854 3.516 10.282 1.166 3.41 2.334 6.82 3.504 10.23.73 2.122 1.455 4.246 2.177 6.37C229.891 60.96 231.76 66.012 234 71l-1.026-3.7c-1.252-4.53-2.492-9.063-3.729-13.597-.537-1.963-1.077-3.924-1.62-5.884a1660.65 1660.65 0 0 1-2.316-8.46l-.745-2.655-.668-2.486-.599-2.18c-.334-2.294.001-3.847.703-6.038l.645 1.84c9.314 26.587 18.63 53.171 28.042 79.722l1.044 2.945c2.077 5.86 4.156 11.718 6.234 17.577 3.139 8.846 6.275 17.693 9.41 26.541l1.052 2.967a18294.741 18294.741 0 0 1 15.986 45.333c6.324 17.997 12.67 35.986 19.087 53.95l.951 2.664c.88 2.464 1.761 4.927 2.643 7.39l.764 2.14.726 2.024.696 1.947c.505 1.376 1.03 2.745 1.57 4.108 1.9 4.833 2.588 7.771 1.15 12.852-5.963 8.93-17.805 12.417-27.867 14.492-24.796 4.02-51.412 2.011-76.133-1.492l-2.035-.287C146.695 293.998 63.37 279.415 19 233l-2.652-2.645c-4.69-4.704-8.135-8.732-8.535-15.542C8 212 8 212 9 210h81v10h10l-.188 3.438c-.014 4.19.98 7.58 2.434 11.484C103 237 103 237 103.348 239.14c.477 1.986.477 1.986 2.27 2.851L108 243c1.709.988 3.417 1.976 5.123 2.969C154.992 270.143 218.678 288.194 267 277c4.393-1.52 8.138-3.425 12-6-.49-6.541-1.472-12.65-3.227-18.966l-.688-2.552c-.753-2.784-1.516-5.564-2.28-8.345l-1.623-5.985a7918.937 7918.937 0 0 0-4.391-16.111c-1.54-5.637-3.07-11.277-4.6-16.916-2.51-9.236-5.022-18.47-7.538-27.705a18966.112 18966.112 0 0 1-10-36.873l-.752-2.78-3.661-13.548a72136.518 72136.518 0 0 0-7.678-28.39c-2.968-10.967-5.95-21.93-8.948-32.889-1.15-4.208-2.298-8.416-3.446-12.625-1.212-4.44-2.43-8.879-3.651-13.317l-1.826-6.69-.839-3.029-.748-2.758-.651-2.372C212 17 212 17 212 13Zm24 65 1 2Z"/>
  <path fill="#F60001" d="m256.063 308.75 2.34-.002c18.714.026 38.59.48 53.597 13.252 2 2.375 2 2.375 3 5-.445 4.715-1.486 8.892-3.07 13.343l-1.295 3.672-1.405 3.915-1.446 4.075c-1.01 2.84-2.022 5.68-3.04 8.518-1.294 3.614-2.58 7.23-3.862 10.85-.995 2.804-1.994 5.607-2.993 8.41a3153.77 3153.77 0 0 0-1.422 3.997c-7.352 20.682-7.352 20.682-11.69 22.775a85.408 85.408 0 0 1-12.214.57l-2.217-.027A626.5 626.5 0 0 1 265 407c.639-6.657 2.165-12.851 3.941-19.29l1.768-6.538c.928-3.409 1.859-6.817 2.792-10.224.903-3.306 1.797-6.615 2.69-9.925l.853-3.078c1.925-6.87 1.925-6.87 1.956-13.945-9.603-9.084-26.845-8.377-39.262-8.215C197.115 337 140.082 346.002 106 374h-2c-3.054 7.2-4.24 13.23-4 21H90v10H9c-1.005-8.038-1.236-9.919 3-16 2.435-2.977 5.066-5.686 7.813-8.375l2.285-2.252C28.85 371.876 35.898 366.666 44 362l1.87-1.105c59.36-34.74 142.035-52.091 210.192-52.145Z"/>
  <path fill="#010000" d="M223 26c1.754 2.631 2.676 4.598 3.701 7.536l.988 2.812 1.065 3.07 1.129 3.222c.807 2.305 1.612 4.61 2.415 6.917 1.713 4.92 3.436 9.835 5.158 14.751l2.656 7.589c4.14 11.837 8.321 23.66 12.513 35.478l2.102 5.932c2.09 5.898 4.182 11.795 6.273 17.693l8.375 23.625 1.051 2.966a18299.071 18299.071 0 0 1 15.987 45.334c6.324 17.997 12.67 35.986 19.087 53.95l.951 2.664c.88 2.464 1.761 4.927 2.643 7.39l.764 2.14.726 2.024.696 1.947c.505 1.376 1.03 2.745 1.57 4.108 1.9 4.833 2.588 7.771 1.15 12.852-5.963 8.93-17.805 12.417-27.867 14.492-24.796 4.02-51.412 2.011-76.133-1.492l-2.035-.287C57.98 281.379 57.98 281.379 23 236c3.404 1.254 6.202 2.691 9.152 4.793 4.92 3.349 10.037 5.978 15.41 8.52l3.016 1.43C61.483 255.823 72.661 260.005 84 264l2.779 1.002c49.186 17.681 104.315 30.189 156.738 30.183 2.347.002 4.694.02 7.042.04 17.033.064 36.681-.936 50.441-12.225 2.304-2.828 3.044-4.244 2.829-7.914-.936-5.594-3.027-10.882-4.923-16.207l-1.268-3.61c-1.135-3.232-2.279-6.461-3.424-9.69-1.203-3.396-2.398-6.794-3.594-10.191-2.415-6.857-4.84-13.711-7.266-20.564-1.62-4.574-3.236-9.15-4.852-13.725a19299.801 19299.801 0 0 0-16.825-47.43 8791.35 8791.35 0 0 1-12.777-36.111 2537.02 2537.02 0 0 0-2.484-7.021c-6.58-18.552-11.977-37.347-17.103-56.35l-.96-3.553a2674.4 2674.4 0 0 1-2.677-10.029l-.822-3.066-.743-2.835-.654-2.47C223 30 223 30 223 26Z"/>
  <path fill="#FE0114" d="M277 214c2.351 3.527 2.214 5.029 2.125 9.188l-.055 3.292L279 229l1-8c2.468 3.701 2.307 5.622 2 10-1 2.438-1 2.438-2 4h3l1-4 .875 3.313c.944 3.727.944 3.727 3.125 6.687a61.983 61.983 0 0 1 1.29 4.012l.663 2.295.672 2.38.695 2.417c.565 1.964 1.123 3.93 1.68 5.896h1l.313 3.25c.371 3.633.371 3.633 2.125 5.625 2.481 3.375 3.45 6.945 3.562 11.125-3.868 6.807-13.415 8.679-20.508 10.723-11.686 2.674-24.07 2.364-35.992 2.402l-3.075.014A120.717 120.717 0 0 1 224 290c-2.665-.193-5.332-.311-8-.438-4.274-.227-8.42-.473-12.563-1.625-3.739-1.02-6.595-1.097-10.437-.937v-2l-2.094.59c-3.52.497-5.977-.126-9.406-1.027-3.991-1.04-7.387-1.633-11.5-1.563-2.335-.66-4.668-1.328-7-2-2.664-.425-5.315-.717-8-1v-2l-2.98.125c-4.318 0-8.19-.989-12.333-2.125-4.78-1.427-4.78-1.427-9.687-2v-2l-1.906-.113c-5.156-.396-9.434-1.198-14.2-3.188-2.93-1.081-5.796-1.376-8.894-1.699v-2l-3.813-.813c-13-2.925-24.691-7.44-36.714-13.171-2.491-1.023-4.822-1.58-7.473-2.016v-2l-1.977-.55c-4.95-1.425-9.488-2.944-14.023-5.45v-1l8-1-2.23-.008c-7.944-.315-7.944-.315-10.438-2.36-1.13-1.529-2.232-3.08-3.332-4.632-2.527-.656-2.527-.656-5-1-2.188-2-2.188-2-4-4l-2-1c-.625-2.563-.625-2.563-1-5 3.038-1.013 5.16-1.15 8.342-1.193l3.307-.049c4.97-.044 9.94-.085 14.911-.108 2.627-.017 5.253-.044 7.88-.082 3.78-.055 7.56-.077 11.341-.091l3.57-.07 3.307.01 2.913-.025C79 220 79 220 80.834 222.349 82 225 82 225 82 228h3l1 3a145.14 145.14 0 0 0 5 5l2.57 2.605 2.555 2.583 2.57 2.605c2.296 2.328 2.296 2.328 5.305 4.207v2h2v2l2.875.813C112 254 112 254 114 257c2.144.836 2.144.836 4.625 1.375 4.444 1.21 7.75 2.923 11.547 5.484 2.47 1.542 5.033 2.372 7.828 3.141v-2c2.975.66 5.59 1.649 8.375 2.875 5.411 2.226 10.883 3.343 16.621 4.414C166 273 166 273 169 275c1.967.382 3.95.685 5.938.938 4.32.551 8.443 1.391 12.652 2.492 6.624 1.694 13.273 2.777 20.035 3.757l3.484.538c6.002.885 11.787 1.465 17.856 1.29C231 284 231 284 234.25 284.5c13.54 1.805 29.543 1.239 41.75-5.5a403.918 403.918 0 0 0 3-3h2l2-4h2l-1-17h-2l-4-18h-1a54.977 54.977 0 0 1 0-23Z"/>
  <path fill="#010000" d="m256.063 308.75 2.34-.002c18.714.026 38.59.48 53.597 13.252 2 2.375 2 2.375 3 5-.445 4.715-1.486 8.892-3.07 13.343l-1.295 3.672-1.405 3.915-1.446 4.075c-1.01 2.84-2.022 5.68-3.04 8.518-1.294 3.614-2.58 7.23-3.862 10.85-.995 2.804-1.994 5.607-2.993 8.41a3153.77 3153.77 0 0 0-1.422 3.997c-2.564 7.212-5.244 14.276-8.467 21.22h-6c2.184-7.646 4.772-15.106 7.484-22.578.862-2.4 1.722-4.802 2.582-7.203 1.346-3.75 2.694-7.5 4.057-11.244 1.32-3.639 2.624-7.283 3.924-10.928l1.246-3.39 1.124-3.178 1.002-2.775c.696-3.237.39-5.508-.419-8.704-6.601-9.105-19.47-12.268-30-14-23.772-3.455-49.388-1.434-73 2l-2.007.287C143.955 331.043 67.51 342.68 25 379l-2-1c50.867-51.761 163.688-69.195 233.063-69.25Z"/>
  <path fill="#FF1227" d="M150 341c-5.207 5.951-14.667 8.512-22 11h-3v2c-12 6-12 6-15.305 7.61-2.523 1.301-3.77 2.385-5.695 4.39l-2.938 1.875c-3.084 2.14-4.771 4.19-7.062 7.125a107.578 107.578 0 0 1-3.125 2.5C87.559 380 87.559 380 86 385l-6 11H19c0-5 0-5 1.875-7.313C23 387 23 387 25 387v-2c8.33-4.755 8.33-4.755 11.563-5.938 2.455-1.07 4.142-2.299 6.25-3.937 5.645-4.343 11.117-7.031 18.058-8.566 3.33-.874 6.441-2.237 9.617-3.555 2.358-.942 4.716-1.742 7.137-2.504 2.85-.914 5.333-1.973 7.938-3.438 5.727-2.994 12.162-4.088 18.407-5.566 6.88-1.68 13.659-3.778 20.436-5.824l2.282-.684c1.456-.437 2.911-.879 4.364-1.326 6.293-1.889 12.353-2.823 18.948-2.662Z"/>
  <path fill="#414141" d="M146.688 147.563c4.956 5.224 3.612 12.433 3.662 19.267.017 1.65.044 3.3.082 4.95.055 2.382.077 4.763.091 7.146l.07 2.223c-.017 3.917-.433 5.65-2.907 8.746-7.066 5.537-14.333 6.268-22.999 6.167l-2.244-.013c-1.814-.012-3.629-.03-5.443-.049v-10l-3.29-.516c-1.445-.244-2.89-.488-4.335-.734l-2.16-.332c-4.892-.853-8.253-2.253-12.215-5.418-3.166-4.749-2.369-9.79-2.375-15.375l-.074-3.445c-.03-8.342-.03-8.342 2.265-12.36 11.197-9.333 40.393-9.343 51.871-.257ZM105 155a69.93 69.93 0 0 0-.375 8.5l-.035 2.379c-.024 2.544-.024 2.544.41 6.121 3.68 2.453 5.474 2.232 9.855 2.195l2.005-.008c2.11-.011 4.218-.037 6.328-.062 1.431-.01 2.863-.02 4.294-.027 3.506-.022 7.012-.057 10.518-.098.054-2.959.094-5.916.125-8.875l.05-2.55.02-2.442.032-2.254c-.06-2.124-.06-2.124-2.227-3.879-5.1-1.762-10.74-1.184-16.063-1.188l-3.337-.037-3.198-.005-2.922-.013c-2.732.071-2.732.071-5.48 2.243Z"/>
  <path fill="#FE0114" d="M244.616 323.815c2.115-.002 4.23-.02 6.345-.04 8.188-.034 16.005.525 24.039 2.225l2.314.475c2.01.433 4.003.907 5.998 1.4.65.148 1.301.296 1.971.45 4.89 1.201 8.643 2.77 12.717 5.675 2.064 3.676 2.131 5.391 1.242 9.516l-1.367 3.734-.714 1.995c-1.647 4.547-3.429 9.043-5.266 13.517-1.475 3.689-2.673 7.46-3.895 11.238-2.5 7.672-5.01 15.304-8.086 22.77-1.385 3.38-2.645 6.804-3.914 10.23h-6c2.992-13.154 6.308-26.207 9.724-39.256A1858.295 1858.295 0 0 0 286 343h-3v-2h-2l-1-3c-2-1.209-2-1.209-4-2v-2l-3.188-.438a130.663 130.663 0 0 1-11.074-2.097c-6.026-1.31-11.845-1.652-17.988-1.653l-2.292-.002c-4.573.045-8.929.505-13.458 1.19-2.29.143-4.582.268-6.875.375-8.52.532-16.756 1.992-25.125 3.625l-2.77.535c-1.543.305-3.084.616-4.625.934-2.119.432-4.242.844-6.367 1.25l-2.025.39c-1.93.373-3.863.741-5.795 1.11-3.004.686-5.586 1.601-8.418 2.781-1.409.347-2.826.66-4.25.937-4.724.999-9.196 2.476-13.75 4.063l-3.188 1c-2.946.975-2.946.975-6.062 2.687L136 352l-2-1c4.183-3.775 7.746-5.98 13-8l2-1c-9.494.201-17.812 2.472-26.777 5.302a693.76 693.76 0 0 1-10.973 3.323l-2.118.629c-6.32 1.85-12.69 3.368-19.132 4.746l1-3c11.33-5.665 24.793-7.952 37-11l2.42-.606c3.379-.846 6.758-1.687 10.139-2.523 3.1-.785 6.176-1.626 9.253-2.496 8.551-2.358 17.296-3.556 26.055-4.871 2.796-.45 5.551-.98 8.32-1.567 4.117-.859 8.182-1.291 12.368-1.652 2.442-.285 4.744-.769 7.132-1.348 3.85-.918 7.346-1.01 11.313-.937 2.86-.316 2.86-.316 5.715-.684L223 325l3.27-.523c6.088-.752 12.221-.663 18.346-.662Z"/>
  <path fill="#414141" d="m183.438 141.75 2.986-.023c9.312.024 16.792.489 23.576 7.273 2.1 4.2 1.318 9.634 1.375 14.25l.113 3.434c.1 9.385.1 9.385-2.511 12.925-7.84 6.297-15.73 5.854-25.415 5.766l-3.853.035c-8.515-.026-15.982-.304-22.709-5.91-3.788-4.735-3.217-9.526-3.25-15.313l-.063-2.697c-.03-5.245.292-8.997 3.313-13.49 8.206-5.793 16.66-6.326 26.438-6.25ZM167 155c-1.476 2.952-1.248 5.653-1.313 8.938l-.113 3.777c.088 3.285.088 3.285 2.095 4.968 2.88 1.628 4.752 1.69 8.05 1.68l3.324-.002 3.457-.048 3.457.01c6.752.001 6.752.001 13.043-2.323v-17c-4.128-1.651-5.75-2.254-9.871-2.266l-2.74-.007-2.827.023-2.814-.023c-4.93.014-9.187.167-13.748 2.273ZM56.21 141.902l2.935.005c3.076.005 6.153.018 9.23.03 2.092.006 4.185.01 6.277.014 5.116.011 10.232.028 15.348.049v11l-47 1v19l47 1v11c-6.547.074-13.094.129-19.641.165-2.225.015-4.45.035-6.675.061-3.207.037-6.414.054-9.621.067-.987.015-1.974.03-2.99.047-7.163.002-13.067-.536-18.538-5.639-2.868-5.047-2.148-10.534-2.097-16.201l-.073-3.707c.017-9.973.017-9.973 3.05-13.059 7.292-4.89 14.22-4.88 22.796-4.832Z"/>
  <path fill="#FF3141" d="m78 222 .688 2.605c1.496 3.87 3.612 6.631 6.312 9.708l1.471 1.704c5.116 5.823 10.571 11.688 17.318 15.6L106 253v2h2v2h4c2.25 2.5 2.25 2.5 4 5-9.132-.907-16.871-3.191-25.344-6.555a124.697 124.697 0 0 0-8.406-3.007c-4.585-1.47-8.954-3.408-13.355-5.352C65.922 245.97 63.14 245.419 60 245v-2l-2.688.25c-4.146-.313-5.223-1.529-8.312-4.25-5.066-3.507-10.394-6.24-15.996-8.79C31 229 31 229 30 226l-5-1v-2a646913.054 646913.054 0 0 1 40.527-.781l3.431-.067 3.155-.06 2.793-.054C77 222 77 222 78 222Z"/>
  <path fill="#68BDF9" d="M191 198h59v11h-23v42h-13v-42h-23v-11Z"/>
  <path fill="#FF525C" d="M100 361v3a246.63 246.63 0 0 1-4.867 4.059c-3.417 3.11-6.118 6.776-8.985 10.386-1.774 2.11-3.43 3.8-5.585 5.493-2.898 2.039-2.898 2.039-4.563 6.062H31c2.292-3.437 3.96-3.882 7.75-5.195 2.165-.775 4.223-1.66 6.313-2.618 4.25-1.916 8.551-3.692 12.874-5.437l2.01-.82C64.764 374 64.764 374 67 374v-2c6.187-3.513 12.59-6.045 19.313-8.313l2.353-.807c3.884-1.278 7.188-2.236 11.334-1.88Z"/>
  <path fill="#FF1429" d="m29.342 219.807 3.307-.049c4.97-.044 9.94-.085 14.911-.108 2.627-.017 5.253-.044 7.88-.082 3.78-.055 7.56-.077 11.341-.091l3.57-.07 3.307.01 2.913-.025C79 220 79 220 80.834 222.349 82 225 82 225 82 228h3l1 3a145.14 145.14 0 0 0 5 5l2.57 2.605 2.555 2.582 2.57 2.606c2.296 2.328 2.296 2.328 5.305 4.207v2h2v2l2.875.812C112 254 112 254 114 257c2.144.836 2.144.836 4.625 1.375 3.476.952 6.212 1.97 9.187 4 4.414 2.978 9.17 4.67 14.149 6.496a84.865 84.865 0 0 1 6.726 2.816c4.343 1.721 8.722 2.528 13.313 3.313v2c-23.62-1.5-47.756-10.465-70-18v-2l-3.813-.25c-5.745-.613-10.855-2.607-16.187-4.75v-2l-3.313-.313c-3.543-.66-4.62-.89-6.687-3.687 4.648-.262 7.714.455 11.937 2.375 4.308 1.94 8.52 3.334 13.063 4.625 1.913.704 3.804 1.454 5.697 2.208 7.36 2.928 14.383 4.922 22.303 5.792l-3-2v-2h-4v-2h-2v-2l-2.063-.563c-3.445-1.685-5.435-3.768-8.054-6.523-1.852-1.883-3.787-3.544-5.82-5.227C84.472 235.861 78.816 230.268 77 223H25v2l2.25.25c3.33.908 4.335 2.335 6.75 4.75 2.32 1.031 4.654 2.03 7 3 2.113 1.23 4.022 2.552 6 4v1c-3.076.362-5.937.522-9 0-2.083-1.765-3.365-3.774-5-6-2.527-.656-2.527-.656-5-1-2.187-2-2.187-2-4-4l-2-1c-.625-2.563-.625-2.563-1-5 3.038-1.013 5.16-1.15 8.342-1.193Z"/>
  <path fill="#68BDF9" d="M176 197h12v54h-12v-54Z"/>
  <path fill="#FE0318" d="M277 214c2.351 3.527 2.214 5.029 2.125 9.188l-.055 3.292L279 229l1-8c2.468 3.701 2.307 5.622 2 10-1 2.438-1 2.438-2 4h3l1-4 .875 3.313c.944 3.727.944 3.727 3.125 6.687a61.983 61.983 0 0 1 1.29 4.012l.663 2.295.672 2.38.695 2.417c.565 1.964 1.123 3.93 1.68 5.896h1l1 7h1v14c-12.88 7.072-27.33 10.489-42 10l1-2c1.89-.598 1.89-.598 4.25-1.063l2.469-.511c1.67-.312 3.348-.572 5.031-.801 3.087-.857 4.852-2.527 7.25-4.625 4.778-4 4.778-4 7-4l2-4h2l-1-17h-2l-4-18h-1a54.977 54.977 0 0 1 0-23Z"/>
  <path fill="#FE0012" d="M135 350c-4.624 3.74-9.144 6.692-14.546 9.168-8.74 4.06-15.531 9.064-22.329 15.894l-2.25 2.253c-4.991 5.232-9.99 11.04-11.378 18.326C84 398 84 398 82 400c-2.688.247-2.688.247-6.146.243l-3.914.01-4.249-.023H63.35c-3.036-.002-6.072-.01-9.107-.024-3.892-.017-7.784-.021-11.675-.02-2.99 0-5.98-.006-8.97-.013-1.434-.003-2.87-.005-4.304-.006-2.006-.002-4.012-.012-6.018-.022l-3.461-.011C17 400 17 400 14 399c.526-5.523 2.239-9.628 6.54-13.323 1.784-1.293 3.6-2.497 5.46-3.677l1.993-1.294C43.192 371 43.192 371 49 371c-5.848 5.076-10.781 8.981-18 12l-3 2h-3v2l-2.438 1.813C19.465 391 19.465 391 19 396l61-1c3.318-6.52 3.318-6.52 6.313-13.188 2.074-3.458 4.61-5.587 7.699-8.14 2.185-1.776 2.185-1.776 4.675-4.485 2.39-2.26 4.298-3.014 7.313-4.187l1-3c1.602-1.027 1.602-1.027 3.625-1.938 2.828-1.315 5.517-2.7 8.188-4.312C122 354 122 354 125 354v-2c6.625-3.125 6.625-3.125 10-2Z"/>
  <path fill="#FF3342" d="M116 353c-2.99 3.335-5.895 5.215-10 7h-2l-.688 1.688c-1.686 2.97-3.842 4.957-6.312 7.312-7.892 7.308-7.892 7.308-14 16h-2l-3 9H21c7.091-8.864 18.41-12.428 29-16h2v-2l9-2 1-4c2.117-1.264 2.117-1.264 4.875-2.324l2.984-1.178L73 365.313a3738.8 3738.8 0 0 0 6.125-2.387l2.758-1.05c2.065-.696 2.065-.696 3.117-1.876l3.5-.188c5.822-.544 11.053-2.645 16.47-4.729 3.816-1.437 6.877-2.467 11.03-2.083Zm-49 19v2l-1.66.445c-5.573 1.577-10.96 3.488-16.34 5.618l-1.996.78C44.196 381.97 42.162 382.837 40 385c-2.048.838-4.124 1.52-6.223 2.219-1.973.642-1.973.642-2.777 2.781 6.335.152 12.67.257 19.006.33 2.156.03 4.311.07 6.466.123 3.098.072 6.195.106 9.294.133.963.03 1.927.062 2.92.094 2.575.001 4.816-.05 7.314-.68 2.575-2.772 2.575-2.772 4-6a204.887 204.887 0 0 1 5-4 112.064 112.064 0 0 0 3.875-4.875c2.506-3.235 4.941-5.99 8.125-8.563l3-2.562v-3c-11.017-.54-23.375 6.051-33 11Z"/>
  <path fill="#68BDF9" d="M214 364h13c.025 5.802.043 11.605.055 17.407.005 1.975.012 3.95.02 5.925.013 2.835.018 5.67.023 8.504l.015 2.686c0 6.25 0 6.25-1.113 8.478h-11c-1.718-3.436-1.12-7.384-1.098-11.164l.005-2.75c.005-2.903.018-5.807.03-8.711.006-1.966.01-3.932.014-5.898.011-4.826.028-9.651.049-14.477ZM176 364h12v43h-12v-43Z"/>
  <path fill="#FF5C64" d="M38 227a557.17 557.17 0 0 1 15.369-.604c1.74-.055 3.48-.13 5.22-.226 14.504-.777 14.504-.777 19.208 3.187 2.078 2.936 2.078 2.936 3.633 5.87 1.778 3.14 3.68 4.657 6.57 6.773l5 5 3 2v2c-5.735-1.107-11.26-2.628-16.813-4.438l-1.957-.621C73.64 244.745 70.94 243.36 68 241c-2.65-.714-2.65-.714-5-1v-2l-3.688-.313c-3.764-.458-6.136-1.57-9.312-3.687-2.191-.696-2.191-.696-4-1v-2l-2.313-.313c-2.913-.745-3.717-1.532-5.687-3.687Z"/>
  <path fill="#FE0115" d="M14 215h69c1.7 5.098 2.206 7.844 2 13h-3c-2.108-2.888-3-4.385-3-8l-58 1 1 5c2.471 1.155 2.471 1.155 5 2l1 3 2.188-.375c3.262.435 3.616.93 5.625 3.375L38 237h-6l-1-3h-3v-2h-3v-2l-4-1v-2h-2v-2h-2v-8h-3v-2Z"/>
  <path fill="#FF646B" d="M93 366c-1.856 4.67-5.324 6.666-9.297 9.512-2.637 2.427-3.576 4.113-5.207 7.215-1.947 3.041-2.826 4.096-6.36 5.031-3.481.201-6.842.126-10.323-.07l-3.6-.073c-8.682-.26-8.682-.26-12.213-2.615 7.33-4.815 14.758-8.06 23-11 1.28-.473 2.558-.947 3.836-1.422C82.568 369 82.568 369 86 369v-2c3-1 3-1 7-1Z"/>
  <path fill="#FF1E32" d="m29.342 219.807 3.307-.049c4.97-.044 9.94-.085 14.911-.108 2.627-.017 5.253-.044 7.88-.082 3.78-.055 7.56-.077 11.341-.091l3.57-.07 3.307.01 2.913-.025C79 220 79 220 80.834 222.349 82 225 82 225 82 228h3l1 3 2.187 2.187c2.215 2.215 3.93 4.24 5.75 6.75 2.729 3.735 5.716 6.876 9.063 10.063l-1 2-1.469-1.504c-3.4-3.447-6.806-6.774-10.531-9.871-5.574-4.802-11.19-10.387-13-17.625H25v2l2.25.25c3.33.908 4.335 2.335 6.75 4.75 2.32 1.031 4.654 2.03 7 3 2.113 1.23 4.022 2.552 6 4v1c-3.076.362-5.937.522-9 0-2.083-1.765-3.365-3.774-5-6-2.527-.656-2.527-.656-5-1-2.187-2-2.187-2-4-4l-2-1c-.625-2.563-.625-2.563-1-5 3.038-1.013 5.16-1.15 8.342-1.193Z"/>
  <path fill="#FF4552" d="M31 225c6.28-.28 12.557-.472 18.842-.604 2.135-.055 4.27-.13 6.404-.226 17.824-.777 17.824-.777 22.57 3.174 1.735 2.823 2.963 5.583 4.184 8.656 2.536 2.632 2.536 2.632 5.125 4.375l2.582 1.922L93 244c3.67 3.425 6.837 7.114 10 11-2 1-2 1-5.527-.074a475.131 475.131 0 0 1-4.41-1.613l-2.333-.844a801.631 801.631 0 0 1-9.878-3.656C74.334 246.365 67.783 244.563 61 243v-3l-2.035-.281c-4.414-1.07-8.308-3.173-12.35-5.192-3.88-1.883-7.27-3.043-11.615-3.527l1-2-2.5-1.438L31 226v-1Zm7 2c2.553 2.792 4.224 3.49 8 4v2c8.27 3.516 8.27 3.516 17 5v2l1.863.586 2.45.789 2.425.773C72 243 72 243 75 245a76.788 76.788 0 0 0 4.125 1.508l2.39.8 2.485.817 2.484.84 2.391.793 2.18.723c2.093.648 2.093.648 4.945.519v-2a352.227 352.227 0 0 0-5.195-3.645c-2.4-1.803-4.01-3.961-5.805-6.355l-2.438-2.375c-2.117-2.17-3.21-3.71-4.686-6.246-1.482-2.09-2.295-3.188-4.75-3.994-2.266-.195-4.435-.173-6.708-.069l-2.467.03c-2.59.04-5.175.127-7.764.216-1.76.036-3.519.068-5.279.096-4.304.077-8.605.198-12.908.342Z"/>
  <path fill="#FE0012" d="M286 343c1.997 3.257 2.13 4.999 1.25 8.688l-.621 2.695L286 357l-.41 2.055c-1.204 6.005-3.006 11.826-4.762 17.687-1.503 5.051-2.794 10.087-3.828 15.258h2l.297-1.758c1.012-5.289 2.455-8.841 5.703-13.242l1-3 2 1c-2.566 7.3-5.167 14.567-8.086 21.734-1.37 3.398-2.642 6.83-3.914 10.266h-6c2.992-13.154 6.308-26.207 9.724-39.256A1858.295 1858.295 0 0 0 286 343Z"/>
  <path fill="#FF6E74" d="M50 230c4.104-.145 8.207-.234 12.313-.313l3.537-.126 3.388-.05 3.127-.079C75 230 75 230 76.735 232.411L78 235c1.977 1.937 1.977 1.937 4.125 3.625 3.766 3.049 3.766 3.049 4.875 6.375-3.285-.424-5.923-1.39-8.875-2.813C71.706 239.214 64.841 237.696 58 236v-2l-8-2v-2Z"/>
  <path fill="#FF1126" d="M275 330c7.562.158 14.944 1.065 21 6 .883 2.469.883 2.469 1 5-.914 1.698-1.84 3.392-2.875 5.02-1.954 3.439-2.995 7.206-4.125 10.98h-2l.395-2.484c.411-3.22.7-6.271.605-9.516-1.99-2.477-1.99-2.477-5-4-1.605-1.713-3.078-3.505-4.57-5.316-1.422-1.725-1.422-1.725-3.11-3.336C275 331 275 331 275 330Z"/>
  <path fill="#FF182C" d="M111 353c-6.942 4.628-15.558 7.153-23.84 7.617-3.669.65-6.707 2.562-9.898 4.422-2.604 1.106-3.664.948-6.262-.039 6.1-3.688 11.503-6.465 18.574-7.57 3.953-.7 7.656-2.08 11.426-3.43 3.473-1.158 6.36-1.069 10-1Zm-40 14-1.934.77-2.504 1.043-2.496 1.019c-2.4 1.052-2.4 1.052-3.066 4.168-2.066.73-2.066.73-4.563 1.188l-2.503.48L52 376v2a753.375 753.375 0 0 1-5.875 2.563l-3.305 1.44c-.93.33-1.861.658-2.82.997l-2-1c1.894-3.342 2.94-3.98 6.688-5.25L48 376v-2l2.598-.988 3.465-1.325 3.59-1.37a134.521 134.521 0 0 0 7.472-3.192C68 366 68 366 71 367Z"/>
  <path fill="#FF1127" d="M289 261h2v3h2c2.257 5.36 3.363 9.198 3 15-4.859 2.6-9.54 4.95-15 6-2.203-.96-2.203-.96-4-2a1915.32 1915.32 0 0 1 3.25-3.75l1.93-2.223C284 275 284 275 286.375 272.813c3.056-3.41 2.75-7.428 2.625-11.813Z"/>
  <path fill="#FF1B2F" d="M134 346v2c-1.623.67-3.249 1.337-4.875 2l-2.742 1.125C124 352 124 352 122 352l-.27 1.871c-.73 2.129-.73 2.129-2.367 3.29l-2.05.901-2.18 1L113 360c-3.639 1.716-6.238 3.123-9 6l-2.938 1.875c-3.084 2.14-4.771 4.19-7.062 7.125a381.113 381.113 0 0 1-6 5c-1.71 1.63-3.354 3.305-5 5 3.036-6.716 8.784-11.921 14-17l2.563-2.563L102 363l1.75-2c3.367-2.993 7.27-4.925 11.25-7l-3-2c2.913-1.01 5.831-2.006 8.75-3l2.5-.867 2.422-.82 2.222-.762C130 346 130 346 134 346Z"/>
  <path fill="#FF0920" d="m287 343 3 2c-1 8.571-1 8.571-2 12h2l1-5c1 2 1 2 .04 5.195a529.771 529.771 0 0 1-1.415 3.93c-2.145 5.99-2.145 5.99-3.125 12.25-.585 4.24-2.115 6.878-4.29 10.504-1.484 2.6-2.399 5.245-3.21 8.121h-2c.249-7.709 2.258-14.169 4.765-21.38 1.897-5.49 3.415-10.856 4.235-16.62l.332-2.27c.396-2.93.668-5.77.668-8.73Z"/>
  <path fill="#FF061D" d="m102 366 2 1c-.941.895-1.882 1.79-2.852 2.71C94.358 376.27 88.168 382.386 84 391l-1-3a82.789 82.789 0 0 1 3-4l.688-2.313c1.742-3.567 4.252-5.46 7.273-7.976 2.508-2.104 4.76-4.363 7.039-6.711l1-1Zm-84 27 1 3c7.919-.084 15.838-.18 23.757-.288 3.676-.05 7.353-.096 11.03-.134 3.547-.037 7.094-.083 10.64-.136 1.355-.019 2.71-.034 4.065-.045 1.894-.017 3.787-.047 5.681-.078l3.27-.04c2.723-.027 2.723-.027 4.557-2.279l2 5c-5.326.907-10.593 1.394-16 1l-1-1a77.61 77.61 0 0 0-4.703-.205l-3.034-.06-3.298-.051-3.359-.063c-3.556-.066-7.112-.125-10.669-.183l-7.212-.131c-5.909-.108-11.817-.21-17.725-.307l1-4Z"/>
  <path fill="#FF0E24" d="M18 218h63c1.684 4.21 2.24 5.79 2 10-4-4.625-4-4.625-4-8l-58 1 1 4h-2l-2-7Z"/>
  <path fill="#FF4451" d="M100 361v3a237.61 237.61 0 0 1-4.871 4.059c-2.523 2.3-4.522 4.818-6.629 7.503-3.495 4.4-6.731 7.495-11.5 10.438 1.273-3.125 3.01-5.12 5.43-7.438C88.4 372.795 88.4 372.795 93 366l-3.727 1.059-4.898 1.378-2.45.698c-4.292 1.204-8.5 2.242-12.925 2.865 6.71-6.71 21.591-11.298 31-11Zm-33 11 2 1Z"/>
  <path fill="#FF2638" d="m80 385 1 2-3 7H21l4-5 2 1-1 1h51l2-5 1-1Z"/>
  <path fill="#050000" d="M90 220h10l-.188 3.313C99.784 228.796 101.394 233.8 103 239c-3.933-2.082-6.216-4.163-8.75-7.813l-1.797-2.519c-1.596-2.93-2.087-5.37-2.453-8.668Z"/>
  <path fill="#060000" d="M100 377h2l-.438 1.652C100.186 384.25 99.817 389.24 100 395H90c.5-4.677 1.653-7.476 4.438-11.25l1.87-2.578C98 379 98 379 100 377Z"/>
  <path fill="#FE0012" d="M90 355c-6.362 4.506-13.013 7.055-20.293 9.668-2.16.776-4.31 1.576-6.437 2.437C58.998 368.79 54.61 370 50 370c4.16-2.946 8.09-5.022 12.875-6.875l1.935-.75a911.414 911.414 0 0 1 4.07-1.562c2.19-.84 4.37-1.702 6.55-2.567l4.32-1.683 2.058-.822c4.85-1.855 4.85-1.855 8.192-.741Z"/>
  <path fill="#FF4652" d="M39 387c2.802.154 5.583.257 8.387.316l2.476.063c2.608.066 5.216.125 7.825.183l5.306.131c4.335.107 8.67.209 13.006.307v2H31c2.548-3.822 3.609-4.464 8-3Z"/>
  <path fill="#FF787B" d="m78 376-2 4h-2v4H56c2.876-2.876 3.775-3.482 7.438-4.563 2.353-.704 4.462-1.385 6.644-2.519 2.669-1.277 5.004-1.05 7.918-.918Z"/>
  <path fill="#FE0115" d="M104 249c6.605.838 11.433 3.625 17.188 6.813l3.021 1.619 2.896 1.588 2.63 1.44c2.362 1.606 3.704 3.169 5.265 5.54-3.597-.567-6.202-1.498-9.313-3.375-2.993-1.742-5.848-3.13-9.124-4.25C113 257 113 257 111 254c-2.552-1.205-2.552-1.205-5-2v-2l-2-1Z"/>
  <path fill="#FF0A21" d="M76 363c-4.962 2.58-10.002 4.945-15.125 7.188l-3.508 1.542c-3.163 1.193-6.023 1.848-9.367 2.27v2c-1.287.697-2.58 1.382-3.875 2.063l-2.18 1.16L40 380l-2-1c7.18-5.917 13.688-10.449 22.848-12.426 3.462-.924 6.683-2.414 9.953-3.867C73 362 73 362 76 363Z"/>
  <path fill="#FF7F81" d="M63.441 230.84c6.188.193 9.86.701 14.309 5.222A94.642 94.642 0 0 1 81 240c-2 1-2 1-4.164.441l-2.461-.879-2.477-.87L70 238v-2l-10-1c0-3.934 0-3.934 3.441-4.16Z"/>
  <path fill="#FF1F32" d="M292 267h1l1 11c-4.23 2.417-7.123 3.348-12 3 1.564-3.84 4.1-6.1 7-9a155.71 155.71 0 0 0 3-5Z"/>
  <path fill="#FF2537" d="M61 372v2l-9 2v2a753.375 753.375 0 0 1-5.875 2.563l-3.305 1.44c-.93.33-1.861.658-2.82.997l-2-1c1.894-3.342 2.94-3.98 6.688-5.25L48 376v-2c4.504-1.757 8.176-2.193 13-2Z"/>
  <path fill="#FF1F32" d="M282 334c5.26-.316 8.446.334 13 3-.498 3.688-1.1 5.605-4 8-3.257-3.167-6.272-6.362-9-10v-1Z"/>
  <path fill="#FF0E24" d="M41 240h11v2l8 1v2h6c-3.641 2.33-6.752 2.309-11 2l-3-2c-2.588-.827-5.196-1.519-7.82-2.219C42 242 42 242 41 240ZM283 242h3c1.968 5.823 3.402 10.834 3 17-3.574-2.383-3.665-3.339-4.688-7.375-.25-.956-.502-1.913-.761-2.898C283 246 283 246 283 242Z"/>
  <path fill="#FF535D" d="M38 227h37c-3.637 2.425-5.114 2.171-9.418 1.977l-3.799-.157-3.97-.195c-1.336-.058-2.671-.116-4.006-.172-3.27-.142-6.538-.293-9.807-.453l1 3a101.168 101.168 0 0 1-6-2l-1-2Z"/>
  <path fill="#FF8284" d="m78 376-2 4h-2v2h-8c3.152-5.853 5.528-6.144 12-6Z"/>
  <path fill="#FF7276" d="M84 372c-1.382 3.21-2.924 5.05-5.625 7.25l-1.914 1.578L75 382l-1-2 4-4-9 1c1-2 1-2 3.125-3.063C76.007 372.673 79.909 372 84 372Z"/>
  <path fill="#FF5E66" d="M93 366c-1.502 4.206-4.286 5.739-8 8v-3l-2.75 1.063c-3.256.939-4.177.892-7.25-.063 1.268-.506 2.54-1.005 3.813-1.5l2.144-.844C83 369 83 369 86 369v-2c3-1 3-1 7-1Z"/>
  <path fill="#FE0010" d="M262 170c2.904 4.356 4.198 8.188 3.625 13.438L265 186c-2.903-4.354-4.28-8.76-3.625-14l.625-2Z"/>
  <path fill="#FF0E24" d="M101 261c7.361.313 13.309 1.94 20 5-3.915 1.51-6.67.441-10.563-.813l-3.44-1.082C104 263 104 263 101 261Z"/>
  <path fill="#FF0D24" d="M38 381c-10.374 6.52-10.374 6.52-16 8l1-2h2v-2c1.408-.87 2.826-1.72 4.25-2.563l2.39-1.44c2.668-1.127 3.705-1.014 6.36.003Z"/>
  <path fill="#FF061B" d="M41 240h11l-1 4c-3.558-.61-6.683-1.578-10-3v-1Z"/>
  <path fill="#FF2D3D" d="M285 336c5.875.875 5.875.875 7 2 .04 2 .043 4 0 6-2.648-2.578-4.944-4.916-7-8Z"/>
  <path fill="#FF2D3E" d="m291 272 2 4c-2.313 1.563-2.313 1.563-5 3l-3-1 6-6Z"/>
</svg>
