<svg xmlns="http://www.w3.org/2000/svg" xml:space="preserve" viewBox="0 0 141.73 219.37"><path fill="#fff" d="M140.79 66.56H86.46l38.33-3.66 6.54-10.8c.63-1.04.52-2.22-.21-3.91L111.67.49c-.4-.91-1.38-.41-1.82.39L70.1 66.56H.94c-.63 0-.94.31-.94.94v84.53c0 .6.35.94.94.94h54.33l-38.32 3.66-6.38 10.55c-.38.57-.81 2.25-.11 3.85l19.48 47.59c.36.82 1.22 1.06 1.81.26l39.87-65.91h69.16c.63 0 .94-.34.94-.94V67.5c.01-.59-.33-.94-.93-.94z"/><path d="M112.5 83.43c.6 0 .95.35.95.95v7.94c0 .6.35.95.95.95h4.03c.64 0 .95-.35.95-.95v-7.94c0-.6.35-.95.95-.95h3.56c.64 0 .95.32.95.95v20.34c0 .6-.32.95-.95.95h-3.56c-.6 0-.95-.35-.95-.95V99.7c0-.64-.32-.95-.95-.95h-4.03c-.61 0-.95.32-.95.95v5.02c0 .6-.32.95-.95.95h-3.56c-.6 0-.95-.35-.95-.95V84.39c0-.64.32-.95.95-.95h3.56zm-15.22 7.9c-.64.13-.95-.16-1.05-.79-.22-1.3-1.27-2.13-2.76-2.13-1.24 0-2 .73-1.88 1.46.45 2.48 10.49 2.42 10.49 9.72 0 .95-1.08 6.58-8.61 6.58-6.67 0-8.1-4.39-8.26-6.86-.03-.57.25-.92.82-1.05l3.59-.79c.63-.13.99.16 1.05.83.13 1.53 1.3 2.42 2.8 2.42 1.56 0 2.7-.92 2.51-1.78-.6-2.7-10.17-2.1-10.17-9.41-.03-.95.54-6.58 7.66-6.58 6.55 0 8.07 4.26 8.26 6.55.03.57-.25.92-.83 1.05l-3.62.78zm-26.42-8.39c-8.02 0-8.44 5.99-8.44 8.23v13.43c0 .7.35 1.08.95 1.08h3.56c.64 0 .95-.32.95-.95v-3.19c0-.64.35-.95.95-.95h4.04c.6 0 .95.32.95.95v3.19c0 .64.32.95.95.95h3.56c.6 0 .95-.38.95-1.08V91.17c.02-2.24-.39-8.23-8.42-8.23zm3.03 11.22c0 .6-.35.95-.95.95h-4.16c-.6 0-.95-.35-.95-.95v-.99c0-2.95.19-4.76 3.03-4.76s3.03 1.8 3.03 4.76v.99zM44.16 83.43c.63 0 .95.32.95.95v14.87c0 .6.35.95.95.95h9.5c.64 0 .95.32.95.95v3.56c0 .64-.32.95-.95.95H40.6c-.6 0-.95-.35-.95-.95V84.39c0-.64.35-.95.95-.95h3.56zm-15.21 7.9c-.64.13-.95-.16-1.05-.79-.22-1.3-1.27-2.13-2.76-2.13-1.24 0-2 .73-1.88 1.46.45 2.48 10.49 2.42 10.49 9.72 0 .95-1.08 6.58-8.61 6.58-6.67 0-8.1-4.39-8.26-6.86-.03-.57.25-.92.82-1.05l3.59-.79c.63-.13.99.16 1.05.83.13 1.53 1.3 2.42 2.8 2.42 1.56 0 2.7-.92 2.51-1.78-.6-2.7-10.17-2.1-10.17-9.41-.03-.95.54-6.58 7.66-6.58 6.55 0 8.07 4.26 8.26 6.55.03.57-.25.92-.83 1.05l-3.62.78z"/><path fill="#00afcb" d="M120.06 121.76c-.63.13-.95-.16-1.05-.8-.22-1.3-1.27-2.13-2.76-2.13-1.24 0-2 .73-1.88 1.46.44 2.48 10.49 2.41 10.49 9.72 0 .95-1.08 6.58-8.61 6.58-6.67 0-8.1-4.39-8.26-6.86-.03-.57.25-.92.83-1.05l3.59-.79c.64-.13.99.16 1.05.83.13 1.52 1.3 2.41 2.8 2.41 1.56 0 2.7-.92 2.51-1.78-.6-2.7-10.17-2.1-10.17-9.41-.03-.95.54-6.58 7.66-6.58 6.54 0 8.07 4.26 8.26 6.55.03.57-.25.92-.83 1.05l-3.63.8zm-72-8.47c-8.02 0-8.44 5.99-8.44 8.23v6.94c0 2.24.41 8.23 8.44 8.23 8.02 0 8.44-5.99 8.44-8.23v-6.94c0-2.24-.41-8.23-8.44-8.23zm0 17.41c-2.84 0-2.97-1.8-2.97-4.76V124c0-2.95.14-4.74 2.97-4.74 2.84 0 2.97 1.8 2.97 4.76v1.93c.01 2.95-.13 4.75-2.97 4.75zm54.12 4.08-5.22-12.02a.428.428 0 0 1-.05-.36l5.23-7.36c.44-.67.19-1.18-.6-1.18h-4.7c-.51 0-.86.19-1.14.6l-4.29 6.12c-.16.25-.38.19-.38-.13v-5.65c0-.64-.32-.95-.95-.95h-3.62c-.6 0-.95.32-.95.95v20.34c0 .61.35.95.95.95h3.62c.64 0 .95-.35.95-.95v-4.27c0-.16.03-.29.13-.41l1.9-2.68c.1-.09.22-.06.3.11l3.18 7.47c.25.52.55.74.99.74h4.15c.63 0 .88-.59.5-1.32zm-22.83-.39-2.83-6.26c-.06-.16-.03-.32.1-.41 1.68-1.21 2.42-3.27 2.42-6.23 0-5.21-2.29-7.63-7.94-7.63h-7.47c-.57 0-.99.41-.99.99v20.28c0 .57.41.99.99.99h3.48c.57 0 .99-.41.99-.99v-5.02c0-.57.41-.98.98-.98h1.7c.09 0 .19.06.25.16l2.93 6.39c.13.29.41.44.73.44h3.62c.98-.02 1.49-.91 1.04-1.73zm-8.09-10.74h-2.19c-.57 0-.99-.41-.99-.99v-2.35c0-.57.41-.99.99-.99h2.19c1.53 0 2.29.19 2.29 2.16s-.76 2.17-2.29 2.17zm-37.61-9.79h-3.57c-.56 0-.96.29-1.03.82l-.39 13.99a.1.1 0 0 1-.2 0l-1.1-6.44c-.09-.45-.55-.73-1.11-.73h-1.94c-.56 0-1.02.28-1.11.73l-1.1 6.44c0 .06-.05.1-.1.1s-.1-.05-.1-.1l-.39-13.99c-.06-.54-.47-.82-1.03-.82h-3.57c-.66 0-.96.38-.84 1.05l2.07 20.33c.09.54.47.82 1.03.82h3.76c.56 0 .9-.29 1.03-.82 0 0 1.16-7.7 1.18-7.82.02-.12.1-.46.1-.94v-.09c0-.03.02-.05.05-.05s.05.02.05.05v.09c0 .47.08.81.1.94.02.12 1.18 7.82 1.18 7.82.13.54.47.82 1.03.82h3.76c.56 0 .94-.29 1.03-.82l2.07-20.33c.1-.67-.2-1.05-.86-1.05z"/></svg>