<svg xmlns="http://www.w3.org/2000/svg" viewBox="0 0 500 421.24"><defs><style>.cls-1{fill:#333a46}.cls-2{fill:#7abfbc}</style></defs><g id="Ebene_2" data-name="Ebene 2"><g id="Ebene_21" data-name="Ebene 21"><path class="cls-1" d="M405.52 364.46H0L94.48 0H500l-94.48 364.46zM25.26 377.33a17.3 17.3 0 014.9 3.27l-2.94 3.85a11.16 11.16 0 00-7.55-3.22 9.23 9.23 0 00-7.85 4.16q-3 4.16-3 13.36 0 8.94 2.94 13.19a9.11 9.11 0 007.83 4.26 9.23 9.23 0 004.31-.95 23.64 23.64 0 004-2.71l2.72 3.85a13.81 13.81 0 01-4.62 3.46 14.94 14.94 0 01-6.55 1.39 14.33 14.33 0 01-8.45-2.62 16.89 16.89 0 01-5.78-7.68 32.24 32.24 0 01-2.07-12.19 31.2 31.2 0 012.15-12.19 17.38 17.38 0 015.84-7.66 14 14 0 018.22-2.58 15.43 15.43 0 015.9 1.01zM58.88 378.93a16.94 16.94 0 015.79 7.66 32.15 32.15 0 012.07 12.22 31.83 31.83 0 01-2.07 12.1 17.05 17.05 0 01-5.79 7.68 14.44 14.44 0 01-8.64 2.65 14.73 14.73 0 01-8.65-2.59 16.64 16.64 0 01-5.78-7.65 36.55 36.55 0 010-24.25 17.09 17.09 0 015.81-7.75 14.4 14.4 0 018.62-2.68 14.62 14.62 0 018.64 2.61zm-16.58 6.59q-2.84 4.28-2.84 13.35t2.87 13.23a9 9 0 007.91 4.22q10.76 0 10.76-17.51t-10.76-17.58a9 9 0 00-7.94 4.29zM102.91 420.48h-7.2l-15.88-36.85q.35 4.33.54 8t.2 8.91v19.91h-5v-43.38h7L98.6 414q-.16-1.64-.45-5.73t-.29-7.5v-23.7h5zM127.29 420.48h-5.78l-12.59-43.41h5.78l9.81 36.93 9.81-36.92h5.45zM166.3 381.86h-15.14V396h13.16v4.78h-13.16v14.87h16.22v4.79h-21.6v-43.37h21.15zM187.56 402.08h-6.06v18.4h-5.39v-43.41h10.26q7.32 0 11.09 3.09t3.77 9.2a12.08 12.08 0 01-2.1 7.37 12.69 12.69 0 01-6.35 4.28l10.55 19.47h-6.41zm-.62-4.59q4.25 0 6.41-1.92c1.43-1.29 2.15-3.35 2.15-6.21q0-4-2.18-5.83c-1.46-1.2-3.79-1.79-7-1.79h-4.82v15.75zM232.36 382.18h-10.83v38.3h-5.39v-38.3H205v-5.11h27.89zM267.57 419a10.72 10.72 0 01-6.69 2.27 7.46 7.46 0 01-5.93-2.43c-1.42-1.61-2.13-4-2.13-7v-20h-5.21v-4.47h5.21v-7.5l5.22-.69v8.19h7.09l-.57 4.47H258v19.79a6.58 6.58 0 00.82 3.74 3.13 3.13 0 002.75 1.17 7 7 0 004-1.45zM293.39 389.23a11.17 11.17 0 012.3 7.44v23.81h-5.22v-23c0-2.36-.4-4-1.22-5a4.35 4.35 0 00-3.54-1.45 6.28 6.28 0 00-4.14 1.51 15.65 15.65 0 00-3.4 4.29v23.62H273V374l5.22-.63v18.52q3.51-5.36 8.84-5.36a7.92 7.92 0 016.33 2.7zM328.63 405.87h-19.05q.35 5.47 2.5 8.06a6.88 6.88 0 005.55 2.58 11.07 11.07 0 004-.69 15.35 15.35 0 003.8-2.21l2.27 3.47a15.57 15.57 0 01-10.43 4.16 11.57 11.57 0 01-9.73-4.54q-3.54-4.53-3.54-12.47a26 26 0 011.51-9.17 14.19 14.19 0 014.31-6.27 10.19 10.19 0 016.6-2.27 10.62 10.62 0 019.13 4.35q3.18 4.35 3.18 12 .02 1.49-.1 3zm-5-4.67q0-4.9-1.76-7.49a6 6 0 00-5.28-2.59q-6.41 0-7 10.46h14zM373.25 389.26a11.44 11.44 0 012.21 7.41v23.81h-5.21v-23q0-6.44-4.2-6.43a5.29 5.29 0 00-3.74 1.42 19.26 19.26 0 00-3.29 4.44v23.56h-5.21v-23q0-6.44-4.2-6.43a5.3 5.3 0 00-3.8 1.45 19.65 19.65 0 00-3.23 4.41v23.56h-5.22v-33.2h4.48l.46 4.85q3.34-5.61 8.61-5.61a7.33 7.33 0 014.74 1.58 8.73 8.73 0 012.81 4.41 14.93 14.93 0 013.88-4.44 8.32 8.32 0 015-1.55 7.2 7.2 0 015.91 2.76zM408.41 405.87h-19.05q.33 5.47 2.49 8.06a6.92 6.92 0 005.56 2.58 11.11 11.11 0 004-.69 15.53 15.53 0 003.8-2.21l2.26 3.47a15.53 15.53 0 01-10.47 4.16 11.54 11.54 0 01-9.72-4.54q-3.5-4.53-3.49-12.47a26 26 0 011.5-9.17 14.27 14.27 0 014.31-6.27 10.2 10.2 0 016.61-2.27 10.62 10.62 0 019.13 4.35q3.16 4.35 3.17 12c.01 1-.03 1.99-.1 3zm-5.05-4.67c0-3.27-.58-5.77-1.76-7.49a6 6 0 00-5.27-2.59q-6.4 0-7 10.46h14z"/><path class="cls-2" d="M135 95.71a4 4 0 10-2.83-1.17 4 4 0 002.83 1.17zM147.77 95.71A4 4 0 10145 88.9a4 4 0 000 5.64 4 4 0 002.82 1.17zM160.55 95.71a4 4 0 10-2.82-1.17 4 4 0 002.82 1.17zM177.59 95.71h161.86a4 4 0 000-8H177.59a4 4 0 000 8zM356.49 95.71H365a4 4 0 100-8h-8.51a4 4 0 100 8z"/><path d="M365 70.69H135a21.06 21.06 0 00-21 21v181a21.07 21.07 0 0021 21h230a21.07 21.07 0 0021-21v-181a21.06 21.06 0 00-21-21zm-230 8h230a13.07 13.07 0 0113.05 13v13H122v-13a13.07 13.07 0 0113-13zm230 207.1H135a13.06 13.06 0 01-13-13.05v-160h256.1v160a13.06 13.06 0 01-13.1 13.05z" fill="#fff"/><path class="cls-2" d="M182.8 182.83v6A6.63 6.63 0 00184 193a3.53 3.53 0 003 1.38 3.05 3.05 0 002.5-.84 6 6 0 00.9-3.43l.05-1.11h8.47l.27.8v.12l.07.2v.21c-.14 3.68-1.27 6.55-3.35 8.54s-5.09 3-8.93 3a13.05 13.05 0 01-9.51-3.61 12.62 12.62 0 01-3.69-9.37v-6a12.87 12.87 0 013.55-9.34 12.32 12.32 0 019.19-3.64c3.93 0 7 1 9.16 3.07a12.71 12.71 0 013.62 8.58v.23l-.08.22v.12l-.26.8h-8.47l-.05-1.11a6 6 0 00-1-3.49 3.66 3.66 0 00-2.91-.94 3 3 0 00-2.63 1.34 7 7 0 00-1.1 4.1zm40.89-9.13a13.17 13.17 0 013.74 9.58v5.19a13.22 13.22 0 01-3.71 9.59 14.24 14.24 0 01-19.37 0 13.14 13.14 0 01-3.74-9.59v-5.19a13.22 13.22 0 013.73-9.58 14.19 14.19 0 0119.35 0zm-12.84 19.18a3.71 3.71 0 003.22 1.5 3.54 3.54 0 003.13-1.5 7.32 7.32 0 001.22-4.41v-5.23a7.2 7.2 0 00-1.23-4.37 3.61 3.61 0 00-3.16-1.5 3.69 3.69 0 00-3.2 1.49 7.33 7.33 0 00-1.21 4.38v5.23a7.27 7.27 0 001.23 4.41zm36.66-22.58h-1.17v15.36l-8.48-14.77-.34-.59H229v31.15h9v-15.36l8.48 14.77.34.59h8.52V170.3h-7.84zm29.34 0H276l-.23.87-4.88 17.83-4.79-17.8-.23-.87h-9.49l.5 1.53 9.3 28.81.26.81h8.92l.26-.81 9.38-28.84.5-1.53h-8.61zm10.79 0h-1.16v31.15h22.36V194h-13.32v-4.85h11.3v-7.48h-11.3v-3.85h13.36v-7.52h-21.24zm49.07 28.64l.48.35v2.16h-8.46l-.31-.25a4.36 4.36 0 01-1.48-2.91 19.07 19.07 0 01-.26-3.07v-1.75a3.17 3.17 0 00-.75-2.32 3.27 3.27 0 00-2.36-.74h-3.44v11h-9.05V170.3h12.25a13.65 13.65 0 018.66 2.57 8.78 8.78 0 013.37 7.25 7.48 7.48 0 01-1.4 4.53 8.32 8.32 0 01-1.79 1.76 6.46 6.46 0 012.16 2 8.87 8.87 0 011.35 5v1.82a10 10 0 00.31 2.31 2.32 2.32 0 00.72 1.4zm-16.58-16h3.24a3.56 3.56 0 002.33-.64 2.19 2.19 0 00.66-1.76 2.66 2.66 0 00-.75-2 3.1 3.1 0 00-2.28-.74h-3.2zm39.55-12.63h-23v7.49h7.54v23.66h9.05v-23.67h7.59v-7.49zm-190.49 30.58L140.1 171a1.81 1.81 0 00-3.1 1.31v43.95a1.81 1.81 0 003.1 1.32l8.86-9.12 5.43 13.21a1.81 1.81 0 002.37 1l5-2.19a1.9 1.9 0 001-2.45l-5.71-13.91h10.85a1.88 1.88 0 001.29-3.23zm10.48 19.76a2.66 2.66 0 01-1.57.41 3 3 0 01-1.64-.46 1.73 1.73 0 01-.75-1.47h-1.8v.06a2.88 2.88 0 001.09 2.35 4.53 4.53 0 003.12 1 4.64 4.64 0 002.91-.85 2.66 2.66 0 001.12-2.23 2.3 2.3 0 00-1-1.94 7.57 7.57 0 00-2.92-1.14 4.4 4.4 0 01-1.75-.64 1.15 1.15 0 01-.43-1 1.41 1.41 0 01.48-1.07 2.22 2.22 0 011.5-.44 2.12 2.12 0 011.51.54 1.67 1.67 0 01.57 1.23h1.8v-.06a2.76 2.76 0 00-1-2.26 4.89 4.89 0 00-5.68 0 2.71 2.71 0 00-1.07 2.15 2.27 2.27 0 00.95 1.92 7.65 7.65 0 002.84 1.11 4.52 4.52 0 011.8.7 1.3 1.3 0 01.47 1 1.26 1.26 0 01-.55 1.09zm11.5 1.53a4.35 4.35 0 001.46-.92l-.73-1.26a3.82 3.82 0 01-1.25.75 4.55 4.55 0 01-1.68.28 2.4 2.4 0 01-2-1 4.06 4.06 0 01-.76-2.45v-.05h6.72v-1.18a5.08 5.08 0 00-1.07-3.37 3.94 3.94 0 00-3.17-1.26 4.07 4.07 0 00-3.12 1.47 5.35 5.35 0 00-1.31 3.68v.42a5.39 5.39 0 001.28 3.74 4.37 4.37 0 003.44 1.44 6 6 0 002.19-.29zm-.73-8.16a2.84 2.84 0 01.6 1.85v.25h-4.78v-.05a3.81 3.81 0 01.82-2 2.06 2.06 0 011.62-.8 2.1 2.1 0 011.74.73zm6.83-6.62h-1.88v14.94h1.88zm5.14 0h-1.89v14.94h1.89zm5.14 0h-1.89v1.93h1.89zm0 4.58h-1.89v10.36h1.89zm3.09 0v10.36h1.89v-7.55a2.89 2.89 0 011-1.08 2.68 2.68 0 011.44-.39 2.14 2.14 0 011.65.58 2.79 2.79 0 01.54 1.94v6.5h1.89v-6.54a4.34 4.34 0 00-.92-3 3.39 3.39 0 00-2.59-1 3.49 3.49 0 00-1.78.45 3.87 3.87 0 00-1.3 1.28l-.13-1.54zm10.93 5.57a5.69 5.69 0 001.09 3.61 3.62 3.62 0 003 1.38 3.83 3.83 0 001.63-.33 3.26 3.26 0 001.21-1v1.17a2.64 2.64 0 01-.62 1.91 2.75 2.75 0 01-2 .62 5.8 5.8 0 01-1.42-.17 4.57 4.57 0 01-1.22-.47l-.48 1.47a7.17 7.17 0 003.14.76 4.75 4.75 0 003.34-1.06 4 4 0 001.16-3.06V212h-1.5l-.23 1.35a3.4 3.4 0 00-1.25-1.14 3.56 3.56 0 00-1.73-.4 3.51 3.51 0 00-3 1.53 6.86 6.86 0 00-1.09 4zm1.89-.2a5.58 5.58 0 01.67-2.9 2.2 2.2 0 012-1.13 2.48 2.48 0 011.41.39 3 3 0 01.94 1v4.77a3 3 0 01-.94 1.09 2.51 2.51 0 01-1.43.39 2.29 2.29 0 01-2-.95 4.31 4.31 0 01-.66-2.51zm17 2.65a5.08 5.08 0 01-.63-2.64V217a5 5 0 01.64-2.62 2.27 2.27 0 012.12-1.07 2.32 2.32 0 011.69.67 2.17 2.17 0 01.67 1.61h1.7v-.06a3.31 3.31 0 00-1.11-2.63 4.73 4.73 0 00-6.43.41A5.66 5.66 0 00238 217v.4a5.7 5.7 0 001.2 3.71 4.2 4.2 0 003.46 1.47 4.36 4.36 0 002.88-1 2.89 2.89 0 001.19-2.39v-.05H245a1.78 1.78 0 01-.71 1.42 2.59 2.59 0 01-1.65.58 2.27 2.27 0 01-2.16-1.14zm8.08-2.72a5.62 5.62 0 001.25 3.78 4.63 4.63 0 006.78 0 5.69 5.69 0 001.24-3.79v-.22a5.66 5.66 0 00-1.25-3.79 4.61 4.61 0 00-6.78 0 5.68 5.68 0 00-1.24 3.78zm1.88-.22a4.88 4.88 0 01.7-2.71 2.27 2.27 0 012-1.08 2.3 2.3 0 012.06 1.08 4.88 4.88 0 01.71 2.71v.21a5 5 0 01-.7 2.72 2.51 2.51 0 01-4.11 0 4.86 4.86 0 01-.7-2.72zm9.9-5.08v10.36h1.88v-7.55a3 3 0 011-1.08 2.68 2.68 0 011.44-.39 2.16 2.16 0 011.66.58 2.79 2.79 0 01.54 1.94v6.5h1.88v-6.54a4.29 4.29 0 00-.92-3 3.38 3.38 0 00-2.59-1 3.51 3.51 0 00-1.78.45 3.76 3.76 0 00-1.29 1.28L262 212zm11.94-2.5V212h-1.65v1.4h1.65v6.29a3 3 0 00.68 2.18 2.44 2.44 0 001.83.69 3.3 3.3 0 00.82-.11 1.79 1.79 0 00.62-.28l-.25-1.29a3 3 0 01-.35.09 1.59 1.59 0 01-.36 0 1.09 1.09 0 01-.8-.3 1.4 1.4 0 01-.3-1v-6.29h2V212h-2v-2.5zM287 222.34a5.85 5.85 0 01-.21-1 9.51 9.51 0 01-.06-1.08v-5a3.17 3.17 0 00-1.07-2.59 4.3 4.3 0 00-2.83-.89 4.37 4.37 0 00-2.91.94 2.52 2.52 0 00-1.07 2.07h1.8a1.39 1.39 0 01.57-1.11 2.28 2.28 0 011.48-.47 2.19 2.19 0 011.57.53 1.93 1.93 0 01.56 1.45v1h-2.05a5.6 5.6 0 00-3.26.84 2.67 2.67 0 00-1.2 2.32 3 3 0 00.85 2.28 3.33 3.33 0 002.46.83 3.54 3.54 0 001.82-.5 4.39 4.39 0 001.38-1.25 5.83 5.83 0 00.06.72c0 .24.09.52.15.83zm-6.35-1.79a1.45 1.45 0 01-.43-1.09 1.7 1.7 0 01.69-1.34 2.69 2.69 0 011.82-.58h2.12v1.68a2.54 2.54 0 01-1.07 1.21 3.38 3.38 0 01-1.85.52 1.82 1.82 0 01-1.32-.4zm8.58-3.27a5.62 5.62 0 001.25 3.78 4.63 4.63 0 006.78 0 5.69 5.69 0 001.25-3.79v-.22a5.71 5.71 0 00-1.25-3.79 4.62 4.62 0 00-6.79 0 5.68 5.68 0 00-1.24 3.78zm1.88-.22a5 5 0 01.7-2.71 2.27 2.27 0 012-1.08 2.32 2.32 0 012.07 1.08 4.88 4.88 0 01.7 2.71v.21a4.86 4.86 0 01-.7 2.72 2.51 2.51 0 01-4.11 0 5 5 0 01-.7-2.72zm15.57-7.58V212H305v1.4h1.64v6.29a3 3 0 00.68 2.18 2.44 2.44 0 001.83.69 3.3 3.3 0 00.82-.11 1.71 1.71 0 00.62-.28l-.25-1.29a2.53 2.53 0 01-.35.09 1.59 1.59 0 01-.36 0 1.09 1.09 0 01-.8-.3 1.4 1.4 0 01-.3-1v-6.29h2V212h-2v-2.5zm8.26-2.08H313v14.94h1.89v-7.65a3 3 0 011.05-1 2.74 2.74 0 011.42-.37 2.12 2.12 0 011.64.61 2.76 2.76 0 01.55 1.9v6.51h1.89v-6.49a4.34 4.34 0 00-.93-3.06 3.31 3.31 0 00-2.58-1 3.56 3.56 0 00-1.72.42 3.75 3.75 0 00-1.32 1.16zm16 14.78a4.4 4.4 0 001.47-.92l-.74-1.23a3.82 3.82 0 01-1.25.75 4.55 4.55 0 01-1.68.28 2.42 2.42 0 01-2-1 4.12 4.12 0 01-.75-2.45v-.05h6.72v-1.18a5 5 0 00-1.08-3.37 3.91 3.91 0 00-3.16-1.26 4.07 4.07 0 00-3.12 1.47 5.31 5.31 0 00-1.32 3.68v.42a5.44 5.44 0 001.28 3.74 4.37 4.37 0 003.44 1.44 6 6 0 002.1-.32zm-.72-8.16a2.89 2.89 0 01.59 1.85v.25h-4.78v-.05a3.82 3.82 0 01.83-2 2 2 0 011.62-.8 2.12 2.12 0 011.65.73zm4.79-2v10.36h1.88v-7.67a2.26 2.26 0 01.86-1 2.54 2.54 0 011.41-.36 1.88 1.88 0 011.56.68 3.4 3.4 0 01.54 2.13v6.21h1.9v-6.65a2.91 2.91 0 01.7-1.7 2 2 0 011.57-.67 1.92 1.92 0 011.57.64 3.45 3.45 0 01.52 2.17v6.21h1.89v-6.19a5 5 0 00-.92-3.27 3.09 3.09 0 00-2.5-1.09 3.38 3.38 0 00-1.88.52 3.93 3.93 0 00-1.29 1.39 2.94 2.94 0 00-1.11-1.43 3.22 3.22 0 00-1.78-.48 3.87 3.87 0 00-1.81.41 3.53 3.53 0 00-1.29 1.14l-.23-1.37zm23.83 10.2a4.4 4.4 0 001.47-.92l-.74-1.23a3.82 3.82 0 01-1.25.75 4.55 4.55 0 01-1.68.28 2.42 2.42 0 01-2-1 4.06 4.06 0 01-.75-2.45v-.05h6.73v-1.18a5 5 0 00-1.08-3.37 3.92 3.92 0 00-3.17-1.26 4 4 0 00-3.11 1.47 5.31 5.31 0 00-1.32 3.68v.42a5.44 5.44 0 001.28 3.74 4.37 4.37 0 003.44 1.44 6 6 0 002.09-.36zM358 214a2.89 2.89 0 01.59 1.85v.25h-4.78v-.05a3.74 3.74 0 01.83-2 2 2 0 011.61-.8 2.13 2.13 0 011.75.75z"/></g></g></svg>