<svg xmlns="http://www.w3.org/2000/svg" id="Layer_1" width="90" height="90"><style>.st1{fill:#fff}.st2{enable-background:new}.st3{fill:#f27c22}</style><path id="bg" fill="#17314b" d="M357.358 1171.613h6.352v5.81h-6.352z" transform="matrix(14.1707 0 0 15.4889 -5064.02 -18147)"/><path id="cloud" d="M90 56.2c-2.9-1.8-6.3-2.9-10.1-2.9-4.4 0-8.4 1.5-11.6 4-2.8-.9-5.9-1.4-9.1-1.4-2.9 0-5.6.4-8.1 1.1-2.5-2-5.7-3.1-9.1-3.1-4.1 0-7.9 1.7-10.5 4.4-2.1-1.5-4.7-2.4-7.4-2.4-4 0-7.5 1.8-10.1 4.7-3.7-2.4-8.6-3.9-14-4.1V90h90V56.2z" class="st1"/><g id="shuttle"><path d="M47.536 44.2c-.3 0-.5.2-.5.5V49c0 .3.2.5.5.5s.5-.2.5-.5v-4.3c.1-.2-.2-.5-.5-.5zm-1.9-.7c-.3 0-.5.2-.5.5v3.6c0 .3.2.5.5.5s.5-.2.5-.5V44c.1-.2-.2-.5-.5-.5zm-2 .9c-.3 0-.5.2-.5.5V49c0 .3.2.5.5.5s.5-.2.5-.5v-4.1c.1-.3-.2-.5-.5-.5zm15.2-6.2c-.3 0-.5.2-.5.5V43c0 .3.2.5.5.5s.5-.2.5-.5v-4.3c0-.3-.2-.5-.5-.5zm-1.9-.7c-.3 0-.5.2-.5.5v3.6c0 .3.2.5.5.5s.5-.2.5-.5V38c.1-.3-.2-.5-.5-.5zm-2 .8c-.3 0-.5.2-.5.5V43c0 .3.2.5.5.5s.5-.2.5-.5v-4.1c0-.3-.2-.6-.5-.6zm-20.5-.1c-.3 0-.5.2-.5.5V43c0 .3.2.5.5.5s.5-.2.5-.5v-4.3c.1-.3-.2-.5-.5-.5zm-1.8-.7c-.3 0-.5.2-.5.5v3.6c0 .3.2.5.5.5s.5-.2.5-.5V38c0-.3-.3-.5-.5-.5zm-2.1.8c-.3 0-.5.2-.5.5V43c0 .3.2.5.5.5s.5-.2.5-.5v-4.1c.1-.3-.2-.6-.5-.6zm11.4-17.4c0 1.8 1.5 3.3 3.3 3.3 1.8 0 3.3-1.5 3.3-3.3s-1.5-3.3-3.3-3.3c-1.8.1-3.3 1.5-3.3 3.3zm5.1 0c0 1-.8 1.8-1.8 1.8s-1.8-.8-1.8-1.8.8-1.8 1.8-1.8c1 .1 1.8.9 1.8 1.8z" class="st1"/><path d="M39.536 31.1c.4 0 .8-.3.8-.8V14.6h9.8V14c-.1-.3-.3-.6-.4-.9h-8.9c-.2.3-.3.6-.4.9 1.8-3.9 4.1-7.4 4.9-7.4.8.1 3.1 3.5 4.9 7.4v16.4c0 .4.3.8.8.8.4 0 .8-.3.8-.8V13.9c0-.1 0-.2-.1-.3-1.3-2.6-4.3-8.6-6.5-8.6s-5.2 5.9-6.4 8.5c0 .1-.1.2-.1.3v16.5c.1.5.4.8.8.8z" class="st1"/><path d="M56.736 28.3c-1.2-1-2.4-2-3.4-3.3v2.3c.8.8 1.6 1.5 2.4 2.1 1.8 1.5 3.5 2.8 3.8 4.9h-8.7c-.4 0-.8.3-.8.8v1.7h-9.8v-1.7c0-.4-.3-.8-.8-.8h-8.7c.3-2 1.9-3.3 3.8-4.9.8-.7 1.7-1.4 2.4-2.1V25c-.9 1.3-2.2 2.3-3.4 3.3-2.2 1.8-4.4 3.6-4.4 6.8 0 .2.1.4.2.5s.3.2.5.2h8.7v1.7c0 .4.3.8.8.8h1.4v2.5c0 .4.3.8.8.8h6.9c.4 0 .8-.3.8-.8v-2.5h1.4c.4 0 .8-.3.8-.8v-1.7h8.7c.2 0 .4-.1.5-.2.1-.1.2-.3.2-.5.3-3.2-1.9-5-4.1-6.8zm-8.8 11.8h-5.4v-1.7h5.4v1.7z" class="st1"/></g><g id="Layer_2"><g class="st2"><path d="M30.371 73.08c-.897 0-1.586-.26-2.065-.78-.477-.523-.716-1.275-.716-2.257v-.056c0-.9.258-1.628.775-2.184.516-.555 1.202-.833 2.059-.833h.049c.645 0 1.258.14 1.841.419l-.492 1.264a4.833 4.833 0 0 0-.697-.272 2.37 2.37 0 0 0-.669-.094c-.38 0-.677.157-.892.47-.216.313-.323.744-.323 1.295 0 1.143.435 1.715 1.305 1.715.403 0 .906-.124 1.508-.374v1.358c-.496.22-1.057.33-1.683.33z" class="st3"/></g><g class="st2"><path d="M33.57 67.746c.496-.522 1.217-.784 2.161-.784.945 0 1.66.259 2.149.776.488.518.732 1.278.732 2.279 0 1.002-.246 1.762-.736 2.283-.49.52-1.206.78-2.145.78-.939 0-1.658-.261-2.157-.784-.495-.523-.744-1.282-.744-2.275s.247-1.751.74-2.275zm2.16.533c-.806 0-1.208.577-1.208 1.732 0 1.154.4 1.732 1.2 1.732.406 0 .707-.14.904-.419.196-.28.294-.714.294-1.305 0-.59-.099-1.029-.296-1.313-.198-.285-.496-.427-.895-.427z" class="st3"/></g><g class="st2"><path d="M45.344 72.999h-2.106l-2.171-4.187h-.037c.052.642.077 1.145.077 1.508v2.679h-1.422v-5.944h2.097l2.163 4.13h.024a25.228 25.228 0 0 1-.056-1.442v-2.688h1.43V73z" class="st3"/></g><g class="st2"><path d="M50.698 68.369H49.25v4.63h-1.606v-4.63h-1.452v-1.314h4.505v1.314z" class="st3"/></g><g class="st2"><path d="M56.37 72.999h-1.757l-.297-1.114H52.39L52.09 73h-1.765l1.94-5.968h2.142l1.963 5.968zm-2.383-2.431-.256-.976a18.315 18.315 0 0 1-.386-1.581c-.025.138-.074.366-.147.683-.065.306-.224.93-.476 1.874h1.265z" class="st3"/></g><g class="st2"><path d="M57.366 67.746c.496-.522 1.216-.784 2.16-.784.945 0 1.661.259 2.149.776.488.518.732 1.278.732 2.279 0 1.002-.246 1.762-.736 2.283-.49.52-1.206.78-2.145.78-.939 0-1.658-.261-2.156-.784-.496-.523-.744-1.282-.744-2.275s.246-1.751.74-2.275zm2.158.533c-.805 0-1.207.577-1.207 1.732 0 1.154.4 1.732 1.2 1.732.406 0 .707-.14.904-.419.196-.28.294-.714.294-1.305 0-.59-.098-1.029-.296-1.313-.198-.285-.496-.427-.895-.427z" class="st3"/></g><path d="M21.606 80.977h-1.113V79.01c0-.143.001-.256.003-.339.002-.083.016-.389.043-.918h-.028l-.904 3.223h-1.153l-.917-3.23h-.028c.043.55.064.978.064 1.282v1.948H16.5v-4.484h1.613l.932 3.184h.025l.92-3.184h1.616v4.484zm5.042 0h-1.325l-.224-.84h-1.453l-.227.84h-1.331l1.463-4.502h1.616l1.481 4.502zm-1.797-1.834-.193-.736a13.82 13.82 0 0 1-.292-1.193 11.42 11.42 0 0 1-.11.515c-.049.231-.169.702-.359 1.414h.954zm2.282-2.65h1.469c1.218 0 1.828.442 1.828 1.325 0 .52-.255.921-.764 1.205l1.31 1.954h-1.374l-.951-1.632h-.307v1.632h-1.211v-4.484zm1.211.917v1.024h.227c.423 0 .635-.187.635-.56 0-.31-.208-.464-.623-.464h-.239zm4.257 3.567h-1.218v-4.484h1.218v1.948c.067-.131.191-.322.37-.574l.94-1.374h1.327l-1.414 2.009 1.39 2.475h-1.368l-.886-1.714-.36.214v1.5zm5.76-3.512H36.91v.706h1.34v.972h-1.34v.846h1.45v.988h-2.662v-4.484h2.662v.972zm3.854.019h-1.091v3.493h-1.212v-3.493h-1.095v-.99h3.398v.99zm1.859 3.493h-1.218v-4.484h1.218v4.484zm5.238 0h-1.589l-1.637-3.159h-.028c.039.485.058.864.058 1.138v2.02h-1.073v-4.483h1.582l1.632 3.116h.019a18.878 18.878 0 0 1-.043-1.089v-2.027h1.08v4.484zm4.704-2.625v2.416a5.28 5.28 0 0 1-1.732.27c-.693 0-1.228-.2-1.604-.6-.376-.402-.565-.969-.565-1.703 0-.734.207-1.302.622-1.704.414-.401.992-.602 1.734-.602.54 0 1.024.094 1.453.282l-.383.95c-.32-.159-.667-.239-1.04-.239s-.654.115-.846.345c-.192.23-.288.557-.288.98 0 .424.087.745.262.965.175.22.427.33.756.33.176 0 .341-.018.497-.053v-.702h-.8v-.935h1.934zm2.337 1.325c.223.116.462.208.717.276.254.067.476.1.667.1s.328-.03.415-.09a.283.283 0 0 0 .13-.244c0-.112-.071-.212-.214-.3-.082-.051-.275-.145-.58-.282s-.53-.268-.675-.393c-.288-.245-.432-.577-.432-.995s.151-.743.454-.974c.303-.23.716-.346 1.239-.346.464 0 .937.107 1.42.322l-.374.935c-.415-.192-.776-.288-1.083-.288-.151 0-.264.027-.339.08a.245.245 0 0 0-.112.208c0 .086.045.166.135.24.08.06.319.182.716.363.398.18.674.372.827.573.153.202.23.453.23.753v.025c0 .409-.158.744-.474 1.006-.316.261-.731.392-1.247.392h-.036a3.82 3.82 0 0 1-.749-.063 2.703 2.703 0 0 1-.635-.219v-1.08zM64 76.493v2.699c0 .589-.166 1.044-.497 1.365-.331.32-.807.481-1.427.481s-1.095-.156-1.422-.469-.49-.763-.49-1.35v-2.726h1.217v2.632c0 .312.058.541.175.687.116.145.295.217.536.217.242 0 .418-.07.53-.213.11-.142.167-.375.167-.698v-2.625h1.211zm2.16 4.484H64.94v-4.484h1.217v4.484zm4.038-3.493h-1.092v3.493h-1.211v-3.493h-1.095v-.99h3.398v.99zm3.303-.019h-1.45v.706h1.34v.972h-1.34v.846h1.45v.988h-2.662v-4.484H73.5v.972z" class="st2"/></g></svg>