<svg id="Layer_1" xmlns="http://www.w3.org/2000/svg" width="90" height="90"><style>.st1{fill:#fff}.st2{enable-background:new}.st3{fill:#f27c22}</style><path fill="#17314b" d="M357.35849 1171.6131592h6.3511329v5.8106127H357.35849z" transform="matrix(14.1707 0 0 15.4889 -5064.02 -18147)" id="bg"/><path id="cloud" class="st1" d="M90 56.2000008c-2.9000015-1.7999992-6.3000031-2.9000015-10.0999985-2.9000015-4.4000015 0-8.4000015 1.5-11.5999985 4-2.800003-.9000016-5.9000015-1.4000016-9.0999984-1.4000016-2.9000015 0-5.5999985.4000015-8.0999985 1.0999985-2.5-2-5.7000008-3.0999985-9.0999985-3.0999985-4.0999985 0-7.9000015 1.7000008-10.5 4.4000015-2.1000004-1.5-4.7000008-2.4000015-7.3999996-2.4000015-4 0-7.5 1.7999992-10.1000004 4.7000008-3.6999998-2.4000015-8.6000004-3.9000015-14-4.0999985V90h90s0-33.7999992-.0000076-33.7999992z"/><g id="shuttle"><path class="st1" d="M47.5362167 44.2000008c-.2999992 0-.5.2000008-.5.5V49c0 .2999992.2000008.5.5.5s.5-.2000008.5-.5v-4.2999992c.1000023-.2000008-.2000007-.5-.5-.5zM45.636219 43.5c-.2999992 0-.5.2000008-.5.5v3.5999985c0 .2999992.2000008.5.5.5s.5-.2000008.5-.5V44c.0999985-.2000008-.2000007-.5-.5-.5zM43.636219 44.4000015c-.2999992 0-.5.2000008-.5.5V49c0 .2999992.2000008.5.5.5s.5-.2000008.5-.5v-4.0999985c.0999985-.300003-.2000007-.5-.5-.5zM58.836216 38.2000008c-.2999992 0-.5.2000008-.5.5V43c0 .2999992.2000008.5.5.5s.5-.2000008.5-.5v-4.2999992c0-.2999993-.199997-.5-.5-.5zM56.9362183 37.5c-.2999992 0-.5.2000008-.5.5v3.5999985c0 .2999992.2000008.5.5.5s.5-.2000008.5-.5V38c.0999984-.2999992-.2000008-.5-.5-.5zM54.9362183 38.2999992c-.2999992 0-.5.2000008-.5.5V43c0 .2999992.2000008.5.5.5s.5-.2000008.5-.5v-4.0999985c0-.300003-.2000008-.6000023-.5-.6000023zM34.4362183 38.2000008c-.2999992 0-.5.2000008-.5.5V43c0 .2999992.2000008.5.5.5s.5-.2000008.5-.5v-4.2999992c.0999984-.2999993-.2000008-.5-.5-.5zM32.636219 37.5c-.2999992 0-.5.2000008-.5.5v3.5999985c0 .2999992.2000008.5.5.5s.5-.2000008.5-.5V38c0-.2999992-.300003-.5-.5-.5zM30.5362148 38.2999992c-.2999992 0-.5.2000008-.5.5V43c0 .2999992.2000008.5.5.5s.5-.2000008.5-.5v-4.0999985c.1000004-.300003-.1999988-.6000023-.5-.6000023zM41.9362183 20.8999996c0 1.7999992 1.5 3.2999992 3.2999992 3.2999992 1.7999992 0 3.2999992-1.5 3.2999992-3.2999992s-1.5-3.2999992-3.2999992-3.2999992c-1.7999992.1000004-3.2999992 1.5-3.2999992 3.2999992zm5.0999984 0c0 1-.7999992 1.7999992-1.7999992 1.7999992s-1.7999992-.7999992-1.7999992-1.7999992.7999992-1.7999992 1.7999992-1.7999992c1 .1000004 1.7999992.8999996 1.7999992 1.7999992z"/><path class="st1" d="M39.5362167 31.1000004c.4000015 0 .7999992-.2999992.7999992-.7999992V14.6000004h9.7999992V14c-.0999985-.3000002-.2999992-.6000004-.4000015-.8999996H40.836216c-.2000008.3000002-.2999993.6000004-.4000016.8999996 1.7999992-3.8999996 4.0999985-7.4000001 4.9000015-7.4000001.7999993.0999999 3.0999985 3.5000005 4.9000016 7.4000001v16.3999996c0 .3999996.2999992.7999992.7999992.7999992.4000015 0 .7999992-.2999992.7999992-.7999992v-16.5c0-.1000004 0-.1999998-.0999985-.3000002C50.4362183 11 47.4362183 5 45.2362175 5s-5.2000008 5.8999996-6.4000015 8.5c0 .1000004-.0999985.1999998-.0999985.3000002v16.5c.0999985.499999.4000015.8000002.7999992.8000002z"/><path class="st1" d="M56.7362175 28.2999992c-1.2000008-1-2.4000015-2-3.4000015-3.2999992v2.2999992c.7999992.7999992 1.5999985 1.5 2.4000015 2.1000004 1.7999992 1.5 3.5 2.8000011 3.7999992 4.8999996H50.836216c-.4000015 0-.7999992.2999992-.7999992.7999992v1.7000008h-9.7999992v-1.7000008c0-.4000015-.2999992-.7999992-.7999992-.7999992h-8.7000027c.2999992-2 1.9000034-3.2999992 3.8000011-4.8999996.7999992-.7000007 1.7000007-1.3999996 2.4000015-2.1000004V25c-.9000015 1.2999992-2.2000008 2.2999992-3.4000015 3.2999992-2.2000027 1.7999992-4.4000015 3.6000004-4.4000015 6.7999992 0 .2000008.1000004.4000015.2000008.5s.2999992.2000008.5.2000008h8.7000008V37.5c0 .4000015.2999992.7999992.7999992.7999992h1.4000015v2.5c0 .4000015.2999992.7999992.7999992.7999992h6.9000015c.4000015 0 .7999992-.2999992.7999992-.7999992v-2.5h1.4000015c.4000015 0 .7999992-.2999992.7999992-.7999992v-1.7000008h8.7000008c.2000008 0 .4000015-.0999985.5-.2000008.0999985-.0999985.2000008-.2999992.2000008-.5.2999992-3.1999988-1.9000015-4.999998-4.1000023-6.7999992zm-8.7999992 11.7999993h-5.4000015v-1.7000008h5.4000015v1.7000008z"/></g><g id="Layer_2"><g class="st2"><path class="st3" d="M-59.2122421-117.5634232c-.1403236 0-.247982-.0407028-.3230133-.1220779-.0746117-.08181-.111908-.1994476-.111908-.35289v-.0089035c0-.1407318.0403748-.2545547.1211319-.3414536.0807457-.0868835.1880913-.1303329.322052-.1303329h.0076218c.1008835 0 .1968956.0218277.2880363.0654831l-.0769348.1977463c-.0394173-.0186462-.0757751-.0328522-.1090469-.0426178-.0332832-.0097351-.0681419-.0146103-.1045914-.0146103-.0593491 0-.1058655.0244904-.1395645.0734406-.033699.0489578-.0505562.1164627-.0505562.2025146 0 .1789017.0680428.2683258.204113.2683258.0631447 0 .1417847-.0195007.2358932-.0584869v.2123566c-.077568.0343474-.1653175.0515059-.2632331.0515059z" transform="translate(408.961 824.755) scale(6.39378)"/></g><g class="st2"><path class="st3" d="M-58.711834-118.3976593c.0775681-.0817795.1902122-.1227112.3379517-.1227112.1477165 0 .2597351.0404968.3360405.1214523.0762939.0809708.1144447.1997528.1144447.3563766 0 .1566467-.0383644.2756348-.1150856.3570404-.0767212.0813751-.18853.1220779-.3353996.1220779-.1468849 0-.2593346-.0409012-.3373184-.1227112-.0775681-.08181-.1163635-.2003937-.1163635-.355751s.0385704-.2739409.1157302-.3557738zm.3376236.0832977c-.1258888 0-.1888351.0903091-.1888351.270874 0 .1805725.0625153.2708817.1875725.2708817.0635757 0 .1107368-.0218277.141468-.065506.030735-.0436554.0461006-.1116867.0461006-.2041092 0-.0924072-.0154762-.1608658-.0464134-.2053757-.0309486-.0445098-.0775795-.0667648-.1398926-.0667648z" transform="translate(408.961 824.755) scale(6.39378)"/></g><g class="st2"><path class="st3" d="M-56.8704834-117.5761414h-.3293686l-.3395386-.6549301h-.0057297c.0080528.1004791.0120888.1791077.0120888.2359085v.4190216h-.2225456v-.9295959h.3280945l.3382645.6460037h.0038109c-.0059433-.0970535-.0088959-.1722946-.0088959-.2257156v-.4202881h.2238197v.9295959z" transform="translate(408.961 824.755) scale(6.39378)"/></g><g class="st2"><path class="st3" d="M-56.0330734-118.3003616h-.2263641v.7242203h-.2511482v-.7242203h-.2269974v-.2053757h.7045097v.2053757z" transform="translate(408.961 824.755) scale(6.39378)"/></g><g class="st2"><path class="st3" d="M-55.1460724-117.5761414h-.2746887l-.0464058-.1742096h-.3013878l-.0470581.1742096h-.2759514l.3033028-.9334259h.3350754l.3071136.9334259zm-.3725967-.3802414l-.0400696-.1525879c-.0275536-.0970688-.0476685-.1795273-.0603828-.2473526-.0038338.0216217-.0114555.0572281-.0229111.1068344-.01017.0478897-.0349731.1455917-.0743866.2931061h.1977501z" transform="translate(408.961 824.755) scale(6.39378)"/></g><g class="st2"><path class="st3" d="M-54.9902191-118.3976593c.0775681-.0817795.1902237-.1227112.3379402-.1227112.1477356 0 .2597351.0404968.3360405.1214523.0763054.0809708.1144562.1997528.1144562.3563766 0 .1566467-.0383759.2756348-.1150856.3570404-.0767326.0813751-.18853.1220779-.3354111.1220779-.1468849 0-.2593117-.0409012-.337307-.1227112-.0775681-.08181-.1163521-.2003937-.1163521-.355751s.038559-.2739409.1157189-.3557738zm.3376236.0832977c-.1258888 0-.1888466.0903091-.1888466.270874 0 .1805725.0625267.2708817.1875839.2708817.0635872 0 .1107368-.0218277.141468-.065506.030735-.0436554.0460892-.1116867.0460892-.2041092 0-.0924072-.0154648-.1608658-.046402-.2053757-.03096-.0445098-.077568-.0667648-.1398925-.0667648z" transform="translate(408.961 824.755) scale(6.39378)"/></g><g><g class="st2"><path d="M-65.3164215-185.8562927h-.2307968v-.4075623c0-.0296783.000206-.0531158.0006256-.070282.0004196-.0171509.0033875-.0806427.0089035-.1904297h-.005722l-.1875763.6682739h-.2390671l-.1901245-.6695557h-.005722c.0089111.1140289.0133438.2026215.0133438.2657928v.4037628h-.2225342v-.9296112h.3344498l.1932983.6600189h.0050812l.1907501-.6600189h.3350906v.9296114zM-64.2710953-185.8562927h-.2746811l-.0464172-.1742401h-.3013916l-.0470505.1742401h-.2759476l.303299-.9334106h.3350754l.3071136.9334106zm-.3726043-.380249l-.0400543-.1525879c-.0275574-.0970612-.0476913-.1795197-.0604095-.247345-.0038071.0216064-.0114288.0572357-.0228806.1068268-.0101776.0479126-.0349731.1455994-.0743942.2931061h.1977386zM-64.1706314-186.7859039h.3045731c.252636 0 .3789558.0915527.3789558.274704 0 .107666-.0527725.1909637-.1583176.2498779l.2714958.4050293h-.2848587l-.197113-.3382721h-.0635796v.3382721h-.2511559v-.9296112zm.2511558.1901397v.2123413h.0470505c.0877419 0 .1316223-.0387726.1316223-.116333 0-.0640259-.043026-.0960083-.1290817-.0960083h-.0495911zM-63.0369339-185.8562927h-.2524261v-.9296112h.2524261v.4037628c.0139885-.0270996.0396347-.0667725.0769386-.1188965l.1945572-.2848663h.2753258l-.2931252.4164734.288044.5131378h-.2835884l-.183754-.3554382-.074398.0445099v.3109283zM-61.8428268-186.5843506h-.3007469v.1462555h.2778664v.2015533h-.2778664v.1754913h.3007469v.2047577h-.5519028v-.9296112h.5519028v.2015534zM-61.0435638-186.5805206h-.2263603v.7242279h-.2511597v-.7242279h-.2269897v-.2053833h.7045097v.2053833zM-60.6582565-185.8562927h-.2524261v-.9296112h.2524261v.9296112zM-59.5722198-185.8562927h-.3293953l-.3395004-.6549072h-.0057373c.0080109.1004639.0120735.1790771.0120735.2359009v.4190063h-.2225647v-.9296112h.3280792l.3383064.6460266h.0038261c-.0059814-.0970764-.0089073-.1723175-.0089073-.2257233v-.4203033h.2238197v.9296112zM-58.5968819-186.4005737v.5010223c-.1080856.0373383-.227829.055954-.35923.055954-.1437149 0-.2545471-.0415192-.3325615-.1246185-.0779877-.0830536-.116993-.2007141-.116993-.35289 0-.1521606.042923-.2699127.1287689-.3532104.0858459-.0832825.205677-.124939.3595543-.124939.1119118 0 .2123756.019516.3013916.0584869l-.079483.1971283c-.0665359-.0330505-.1383934-.0495911-.2155418-.0495911s-.135643.0238342-.1754875.0715332c-.0398445.0476837-.0597801.1154175-.0597801.2031403 0 .0877533.0181427.1544189.0543709.1999664.0362549.045578.0884743.0683594.1567459.0683594.036438 0 .0707817-.0035858.1030045-.0108185v-.1455994h-.1659546v-.193924h.4011954zM-58.1123543-186.125885c.0462112.0241547.0957108.0432281.1484985.0572205.0527573.0139771.0988503.0209808.1382751.0209808s.0681496-.0062561.086174-.0187531c.0179939-.0125122.0270233-.0293427.0270233-.0505676 0-.0232849-.0148582-.0440521-.0445099-.0622864-.0169754-.0106201-.0570297-.0301056-.1201897-.0585022s-.1097908-.055542-.1398888-.0813904c-.0597534-.0508728-.0896416-.1196594-.0896416-.2063446s.031353-.1539612.0940933-.2018738c.0627441-.0478821.1483803-.0718536.2568817-.0718536.0962181 0 .1943512.0222626.2943954.0667725l-.0775681.193924c-.0860558-.0398407-.1608696-.0597839-.2244492-.0597839-.0313835 0-.0547905.0055389-.0702705.016571-.0154839.0110016-.0231972.0254059-.0231972.0432129 0 .0178223.0093269.0343475.027977.0495911.0165291.0127411.0660286.0378418.148468.0753632.0824394.0375061.1395607.0771484.1713638.1188965.0317726.0417633.0476761.0937958.0476761.1560974v.0050812c0 .0847931-.0327301.1542969-.0982208.2085724-.0654907.054245-.1516647.0813599-.2584953.0813599h-.0076218c-.0606194 0-.1123314-.0043335-.1551323-.013031-.0428352-.008667-.0866852-.023819-.1316414-.0454559v-.2238009zM-56.5272141-186.7859039v.5595551c0 .1220703-.034317.2163849-.1030045.2829437-.0686607.0665436-.1673279.0998077-.2959785.0998077s-.226902-.0323944-.2947235-.0972595-.1017189-.1581268-.1017189-.2797852v-.5652618h.25243v.5455627c0 .0648346.0120735.1123352.0362244.1424408.0241814.0300903.0612488.0451355.1112862.0451355.0500069 0 .0865631-.01474.1096687-.04422.0231056-.0294342.0346718-.077652.0346718-.1446381v-.544281h.2511443zM-56.0795708-185.8562927h-.2524261v-.9296112h.2524261v.9296112zM-55.2421799-186.5805206h-.2263336v.7242279h-.2511711v-.7242279h-.2269936v-.2053833h.7044983v.2053833zM-54.5573845-186.5843506h-.3007584v.1462555h.2778625v.2015533h-.2778625v.1754913h.3007584v.2047577h-.5519028v-.9296112h.5519028v.2015534z" transform="translate(336.645 977.412) scale(4.82327)"/></g></g></g></svg>