<svg xmlns="http://www.w3.org/2000/svg" xml:space="preserve" width="450" height="450" style="enable-background:new 0 0 450 450"><path d="M333.4 434c0-24-19.5-43.6-43.5-43.6h-59.1C117 390.4 63.6 342 63.6 230.5c0-100.4 54.7-142.2 159-142.2 104.1 0 161 2 161 104.3 0 27.3-3.5 24-14.6 13.6-11.5-10.8-31.1-29-63.2-29-26.7 0-37.9 7.5-43.4 11.2-2 1.4-3.4 2.2-4.4 2-1.6-.4-2.5-3.8-4.9-12.7-1.5-5.6-3.6-13.6-6.9-24.4a995.7 995.7 0 0 0-47.5 25.2 44.8 44.8 0 0 0-70 48.7c-60.3 57.6 19.2 77 96.3 79 3-.9 1.2 4-1.5 11-4.8 12.3-12.1 31.4 1.5 36.4 9.7 3.7 18.5-6.7 28.7-18.9 12-14.3 26.2-31.1 46.8-31.1 20.6 0 17.5 12.1 14.4 24.6-2.7 10.8-5.5 21.8 6.7 25.4 16 4.8 28-11.8 38-25.5 6.5-9 12-16.6 17.3-16.6 56.5 0 73.4-23.2 73.4-113.4 0-134.8-84.3-181.6-227.8-181.6C76.4 16.5.3 104 .3 230.5.3 363.4 86 434 231.3 434h102.1zm-162-197.6a23.7 23.7 0 1 0 0-47.4 23.7 23.7 0 0 0 0 47.4z" style="fill-rule:evenodd;clip-rule:evenodd;fill:#121321"/></svg>