<?xml version="1.0" standalone="no"?>
<!DOCTYPE svg PUBLIC "-//W3C//DTD SVG 20010904//EN"
 "http://www.w3.org/TR/2001/REC-SVG-20010904/DTD/svg10.dtd">
<svg version="1.0" xmlns="http://www.w3.org/2000/svg"
 width="400.000000pt" height="400.000000pt" viewBox="0 0 400.000000 400.000000"
 preserveAspectRatio="xMidYMid meet">

<g transform="translate(0.000000,400.000000) scale(0.100000,-0.100000)"
fill="#000000" stroke="none">
<path d="M1820 3594 c-14 -3 -65 -12 -113 -20 -175 -29 -406 -119 -566 -221
-361 -230 -619 -604 -713 -1037 -19 -87 -22 -131 -22 -316 0 -183 3 -230 22
-316 124 -575 521 -1021 1071 -1204 151 -51 263 -70 442 -77 292 -11 536 43
799 178 427 220 735 631 832 1112 33 161 33 451 0 614 -43 217 -140 442 -265
620 -79 113 -267 301 -380 380 -174 122 -394 218 -608 263 -81 18 -145 23
-289 26 -102 1 -196 0 -210 -2z m430 -61 c337 -55 631 -211 872 -461 397 -414
532 -1001 356 -1552 -80 -249 -209 -452 -409 -645 -523 -502 -1324 -571 -1936
-166 -113 75 -293 246 -376 357 -305 409 -393 934 -236 1414 74 225 189 418
353 588 366 381 863 549 1376 465z"/>
<path d="M1782 3509 c-164 -21 -374 -93 -527 -180 -402 -228 -679 -620 -756
-1067 -26 -154 -26 -370 0 -524 111 -646 635 -1155 1286 -1248 104 -14 347
-12 450 5 320 53 606 197 830 419 302 299 455 664 455 1086 0 411 -150 778
-434 1066 -240 242 -515 384 -851 439 -97 16 -345 18 -453 4z m499 -59 c310
-63 571 -208 789 -437 180 -189 304 -415 365 -667 120 -493 -21 -1004 -379
-1375 -195 -201 -432 -337 -706 -405 -346 -85 -682 -47 -1005 114 -170 85
-278 165 -410 302 -335 348 -479 835 -384 1303 131 648 658 1122 1324 1189 90
9 305 -4 406 -24z"/>
<path d="M1920 3162 c-56 -33 -66 -43 -70 -71 -4 -29 -14 -39 -80 -76 l-75
-43 -5 -76 c-5 -73 -6 -77 -37 -96 l-33 -20 0 -84 0 -85 75 -41 c55 -30 81
-39 97 -34 17 5 47 -6 115 -42 l93 -49 93 49 c68 36 98 47 115 42 16 -5 42 4
97 34 l75 41 0 90 0 89 -35 14 -34 15 -3 77 -3 76 -75 43 c-68 39 -75 46 -75
74 0 29 -7 35 -70 71 -38 21 -77 39 -85 39 -8 1 -44 -16 -80 -37z m122 -38
l31 -16 -29 -19 c-36 -24 -52 -24 -88 0 l-29 19 29 16 c37 20 48 20 86 0z
m-74 -142 l3 -42 -35 17 c-33 15 -36 20 -36 61 l0 44 33 -19 c27 -16 32 -26
35 -61z m132 35 c0 -40 -3 -45 -35 -60 l-35 -17 0 40 c0 35 5 43 33 60 17 11
33 20 35 20 1 0 2 -19 2 -43z m-250 -50 c0 -19 15 -31 75 -63 l75 -39 75 39
c60 32 75 44 75 63 0 29 0 29 60 -2 49 -25 50 -26 50 -71 0 -40 -2 -44 -17
-35 -18 9 -86 -19 -145 -61 -27 -19 -28 -23 -28 -103 l0 -84 32 -17 31 -16
-59 -34 c-32 -19 -66 -34 -74 -34 -8 0 -42 15 -74 34 l-59 34 31 16 32 17 0
88 0 89 -78 40 c-58 30 -82 38 -95 31 -15 -9 -17 -5 -17 35 0 44 1 46 48 70
59 31 62 31 62 3z m-10 -197 c0 -3 -13 -13 -29 -23 -28 -16 -32 -16 -65 0 -20
9 -36 20 -36 23 0 4 15 13 33 22 29 14 35 14 65 0 17 -9 32 -18 32 -22z m450
0 c0 -3 -16 -14 -36 -23 -33 -16 -37 -16 -65 0 -16 10 -29 20 -29 23 0 4 15
13 33 22 29 14 35 14 65 0 17 -9 32 -19 32 -22z m-575 -67 c32 -15 35 -20 35
-60 l0 -44 -40 23 c-35 20 -40 27 -40 61 0 20 2 37 5 37 2 0 20 -8 40 -17z
m165 -21 c0 -34 -4 -41 -40 -61 l-40 -22 0 41 c0 35 4 43 33 60 44 27 47 26
47 -18z m288 18 c28 -17 32 -25 32 -60 l0 -41 -40 22 c-36 20 -40 27 -40 61 0
44 3 45 48 18z m162 -17 c0 -34 -5 -41 -40 -61 l-40 -23 0 44 c0 39 3 45 33
60 45 22 47 21 47 -20z"/>
<path d="M1660 2081 l0 -151 35 0 35 0 0 50 0 50 36 0 c101 0 148 105 78 171
-22 20 -38 24 -105 28 l-79 3 0 -151z m115 79 c19 -7 26 -16 23 -31 -4 -27
-30 -44 -52 -36 -21 8 -22 77 0 77 1 0 15 -5 29 -10z"/>
<path d="M1900 2080 l0 -150 79 0 c95 0 107 4 126 41 19 35 19 69 1 95 -10 13
-11 25 -5 35 12 19 11 66 -1 89 -14 26 -63 40 -136 40 l-64 0 0 -150z m135 55
c0 -15 -8 -21 -32 -23 -30 -3 -33 -1 -33 23 0 24 3 26 33 23 24 -2 32 -8 32
-23z m0 -115 c0 -21 -5 -26 -32 -28 -31 -3 -33 -1 -33 28 0 29 2 31 33 28 27
-2 32 -7 32 -28z"/>
<path d="M2137 2223 c-4 -3 -7 -71 -7 -150 l0 -143 65 0 c38 0 78 6 94 15 38
19 61 71 61 137 0 97 -54 148 -158 148 -27 0 -52 -3 -55 -7z m131 -94 c15 -28
10 -102 -8 -124 -7 -8 -21 -15 -31 -15 -17 0 -19 9 -19 90 0 88 0 89 23 81 12
-4 28 -19 35 -32z"/>
<path d="M2680 1535 c0 -42 3 -55 15 -55 8 0 15 5 15 12 0 9 3 9 12 0 7 -7 27
-12 45 -12 27 0 33 4 34 23 l0 22 11 -22 c6 -13 19 -23 30 -23 15 0 18 8 18
55 0 42 -3 55 -15 55 -8 0 -15 -8 -15 -17 -1 -17 -1 -17 -11 0 -12 20 -78 24
-97 5 -9 -9 -12 -9 -12 0 0 7 -7 12 -15 12 -12 0 -15 -13 -15 -55z m88 -17
l-3 -23 -13 23 c-11 19 -11 26 0 39 12 15 13 15 16 0 2 -9 2 -27 0 -39z"/>
<path d="M990 1380 l0 -30 1010 0 1010 0 0 30 0 30 -1010 0 -1010 0 0 -30z"/>
</g>
</svg>
