<svg xmlns="http://www.w3.org/2000/svg" width="533.333" height="533.333" version="1.0" viewBox="0 0 400 400"><path d="M182 40.6c-1.4.3-6.5 1.2-11.3 2-17.5 2.9-40.6 11.9-56.6 22.1-36.1 23-61.9 60.4-71.3 103.7-1.9 8.7-2.2 13.1-2.2 31.6 0 18.3.3 23 2.2 31.6C55.2 289.1 94.9 333.7 149.9 352c15.1 5.1 26.3 7 44.2 7.7 29.2 1.1 53.6-4.3 79.9-17.8 42.7-22 73.5-63.1 83.2-111.2 3.3-16.1 3.3-45.1 0-61.4-4.3-21.7-14-44.2-26.5-62-7.9-11.3-26.7-30.1-38-38-17.4-12.2-39.4-21.8-60.8-26.3-8.1-1.8-14.5-2.3-28.9-2.6-10.2-.1-19.6 0-21 .2zm43 6.1c33.7 5.5 63.1 21.1 87.2 46.1 39.7 41.4 53.2 100.1 35.6 155.2-8 24.9-20.9 45.2-40.9 64.5-52.3 50.2-132.4 57.1-193.6 16.6-11.3-7.5-29.3-24.6-37.6-35.7C45.2 252.5 36.4 200 52.1 152c7.4-22.5 18.9-41.8 35.3-58.8C124 55.1 173.7 38.3 225 46.7z"/><path d="M178.2 49.1c-16.4 2.1-37.4 9.3-52.7 18-40.2 22.8-67.9 62-75.6 106.7-2.6 15.4-2.6 37 0 52.4C61 290.8 113.4 341.7 178.5 351c10.4 1.4 34.7 1.2 45-.5 32-5.3 60.6-19.7 83-41.9C336.7 278.7 352 242.2 352 200c0-41.1-15-77.8-43.4-106.6-24-24.2-51.5-38.4-85.1-43.9-9.7-1.6-34.5-1.8-45.3-.4zm49.9 5.9c31 6.3 57.1 20.8 78.9 43.7 18 18.9 30.4 41.5 36.5 66.7 12 49.3-2.1 100.4-37.9 137.5-19.5 20.1-43.2 33.7-70.6 40.5-34.6 8.5-68.2 4.7-100.5-11.4-17-8.5-27.8-16.5-41-30.2C60 267 45.6 218.3 55.1 171.5c13.1-64.8 65.8-112.2 132.4-118.9 9-.9 30.5.4 40.6 2.4z"/><path d="M192 83.8c-5.6 3.3-6.6 4.3-7 7.1-.4 2.9-1.4 3.9-8 7.6l-7.5 4.3-.5 7.6c-.5 7.3-.6 7.7-3.7 9.6l-3.3 2v16.9l7.5 4.1c5.5 3 8.1 3.9 9.7 3.4 1.7-.5 4.7.6 11.5 4.2l9.3 4.9 9.3-4.9c6.8-3.6 9.8-4.7 11.5-4.2 1.6.5 4.2-.4 9.7-3.4l7.5-4.1V121l-3.5-1.4-3.4-1.5-.3-7.7-.3-7.6-7.5-4.3c-6.8-3.9-7.5-4.6-7.5-7.4 0-2.9-.7-3.5-7-7.1-3.8-2.1-7.7-3.9-8.5-3.9-.8-.1-4.4 1.6-8 3.7zm12.2 3.8 3.1 1.6-2.9 1.9c-3.6 2.4-5.2 2.4-8.8 0l-2.9-1.9 2.9-1.6c3.7-2 4.8-2 8.6 0zm-7.4 14.2.3 4.2-3.5-1.7c-3.3-1.5-3.6-2-3.6-6.1v-4.4l3.3 1.9c2.7 1.6 3.2 2.6 3.5 6.1zm13.2-3.5c0 4-.3 4.5-3.5 6L203 106v-4c0-3.5.5-4.3 3.3-6 1.7-1.1 3.3-2 3.5-2 .1 0 .2 1.9.2 4.3zm-25 5c0 1.9 1.5 3.1 7.5 6.3l7.5 3.9 7.5-3.9c6-3.2 7.5-4.4 7.5-6.3 0-2.9 0-2.9 6 .2 4.9 2.5 5 2.6 5 7.1 0 4-.2 4.4-1.7 3.5-1.8-.9-8.6 1.9-14.5 6.1-2.7 1.9-2.8 2.3-2.8 10.3v8.4l3.2 1.7 3.1 1.6-5.9 3.4c-3.2 1.9-6.6 3.4-7.4 3.4-.8 0-4.2-1.5-7.4-3.4l-5.9-3.4 3.1-1.6 3.2-1.7v-17.7l-7.8-4c-5.8-3-8.2-3.8-9.5-3.1-1.5.9-1.7.5-1.7-3.5 0-4.4.1-4.6 4.8-7 5.9-3.1 6.2-3.1 6.2-.3zm-1 19.7c0 .3-1.3 1.3-2.9 2.3-2.8 1.6-3.2 1.6-6.5 0-2-.9-3.6-2-3.6-2.3 0-.4 1.5-1.3 3.3-2.2 2.9-1.4 3.5-1.4 6.5 0 1.7.9 3.2 1.8 3.2 2.2zm45 0c0 .3-1.6 1.4-3.6 2.3-3.3 1.6-3.7 1.6-6.5 0-1.6-1-2.9-2-2.9-2.3 0-.4 1.5-1.3 3.3-2.2 2.9-1.4 3.5-1.4 6.5 0 1.7.9 3.2 1.9 3.2 2.2zm-57.5 6.7c3.2 1.5 3.5 2 3.5 6v4.4l-4-2.3c-3.5-2-4-2.7-4-6.1 0-2 .2-3.7.5-3.7.2 0 2 .8 4 1.7zm16.5 2.1c0 3.4-.4 4.1-4 6.1l-4 2.2V136c0-3.5.4-4.3 3.3-6 4.4-2.7 4.7-2.6 4.7 1.8zm28.8-1.8c2.8 1.7 3.2 2.5 3.2 6v4.1l-4-2.2c-3.6-2-4-2.7-4-6.1 0-4.4.3-4.5 4.8-1.8zm16.2 1.7c0 3.4-.5 4.1-4 6.1l-4 2.3v-4.4c0-3.9.3-4.5 3.3-6 4.5-2.2 4.7-2.1 4.7 2zm-67 60.2V207h7v-10h3.6c10.1 0 14.8-10.5 7.8-17.1-2.2-2-3.8-2.4-10.5-2.8l-7.9-.3v15.1zm11.5-7.9c1.9.7 2.6 1.6 2.3 3.1-.4 2.7-3 4.4-5.2 3.6-2.1-.8-2.2-7.7 0-7.7.1 0 1.5.5 2.9 1zm12.5 8v15h7.9c9.5 0 10.7-.4 12.6-4.1 1.9-3.5 1.9-6.9.1-9.5-1-1.3-1.1-2.5-.5-3.5 1.2-1.9 1.1-6.6-.1-8.9-1.4-2.6-6.3-4-13.6-4H190v15zm13.5-5.5c0 1.5-.8 2.1-3.2 2.3-3 .3-3.3.1-3.3-2.3s.3-2.6 3.3-2.3c2.4.2 3.2.8 3.2 2.3zm0 11.5c0 2.1-.5 2.6-3.2 2.8-3.1.3-3.3.1-3.3-2.8s.2-3.1 3.3-2.8c2.7.2 3.2.7 3.2 2.8zm10.2-20.3c-.4.3-.7 7.1-.7 15V207h6.5c3.8 0 7.8-.6 9.4-1.5 3.8-1.9 6.1-7.1 6.1-13.7 0-9.7-5.4-14.8-15.8-14.8-2.7 0-5.2.3-5.5.7zm13.1 9.4c1.5 2.8 1 10.2-.8 12.4-.7.8-2.1 1.5-3.1 1.5-1.7 0-1.9-.9-1.9-9 0-8.8 0-8.9 2.3-8.1 1.2.4 2.8 1.9 3.5 3.2zm41.2 59.4c0 4.2.3 5.5 1.5 5.5.8 0 1.5-.5 1.5-1.2 0-.9.3-.9 1.2 0 .7.7 2.7 1.2 4.5 1.2 2.7 0 3.3-.4 3.4-2.3v-2.2l1.1 2.2c.6 1.3 1.9 2.3 3 2.3 1.5 0 1.8-.8 1.8-5.5 0-4.2-.3-5.5-1.5-5.5-.8 0-1.5.8-1.5 1.7-.1 1.7-.1 1.7-1.1 0-1.2-2-7.8-2.4-9.7-.5-.9.9-1.2.9-1.2 0 0-.7-.7-1.2-1.5-1.2-1.2 0-1.5 1.3-1.5 5.5zm8.8 1.7-.3 2.3-1.3-2.3c-1.1-1.9-1.1-2.6 0-3.9 1.2-1.5 1.3-1.5 1.6 0 .2.9.2 2.7 0 3.9zM99 262v3h202v-6H99v3z"/></svg>