<svg xmlns="http://www.w3.org/2000/svg" viewBox="0 0 191.8 150"><title>forum_c4g</title><g id="Ebene_11" data-name="Ebene 11"><path d="M124.91,86.41c7.58-4.39,12.45-11.13,12.45-18.75,0-7.81-5.15-14.73-13.06-19.08a23.81,23.81,0,0,1,1.08,7.11c0,8.37-4.3,16.09-12.11,21.79-7.25,5.24-16.74,8.11-26.8,8.11-1.35,0-2.76-.1-4.12-.19a40.61,40.61,0,0,0,22.08,6.17,47.15,47.15,0,0,0,8.22-.75,39.46,39.46,0,0,0,13,6,34.36,34.36,0,0,0,4.05.74,1.62,1.62,0,0,0,1.62-1.35c.19-.89-.42-1.45-.93-2.06-1.83-2.06-3.88-3.88-5.47-7.77M86.47,31.74c-18.19,0-32.93,10.71-32.93,24C53.54,63.27,58.4,70,66,74.44c-1.62,3.88-3.65,5.67-5.47,7.76-.51.61-1.12,1.17-.93,2.06a1.62,1.62,0,0,0,1.5,1.36h.14a35.16,35.16,0,0,0,4-.75,39.19,39.19,0,0,0,13-6,46.39,46.39,0,0,0,8.23.74c18.19,0,32.92-10.7,32.92-23.94S104.66,31.74,86.47,31.74m0,6c14.59,0,26.92,8.24,26.92,18s-12.33,18-26.92,18A40.57,40.57,0,0,1,79.34,73l-2.48-.47L74.8,74c-.93.65-1.92,1.26-2.9,1.82l1.62-3.93L69,69.25c-6-3.46-9.45-8.42-9.45-13.56,0-9.73,12.35-18,26.94-18" style="fill:#103a5d"/><path d="M68.26,104.23a.39.39,0,0,1,.36.42h0v1.19a.36.36,0,0,1-.32.4H66.73c-1.54,0-2.27.11-2.27,1.46v2.12h3.46c.3,0,.4.14.35.43l-.22,1.3a.39.39,0,0,1-.42.35H64.46v12.27a.36.36,0,0,1-.32.4H62.26a.37.37,0,0,1-.4-.32V111.93H59.94a.36.36,0,0,1-.4-.32v-1.37a.36.36,0,0,1,.3-.41.17.17,0,0,1,.1,0h1.92v-2.68c0-3,2.49-3.16,4-3.16A12,12,0,0,1,68.26,104.23Z" style="fill:#003764"/><path d="M82.4,117.21c0,6-1.05,7.51-6.27,7.51s-6.3-1.48-6.3-7.51,1.08-7.55,6.3-7.55S82.4,111.18,82.4,117.21Zm-10,0c0,4.18.4,5.25,3.71,5.25s3.67-1.06,3.67-5.25-.37-5.28-3.68-5.28S72.38,113,72.38,117.21Z" style="fill:#003764"/><path d="M92.88,109.93c.27.08.4.19.4.46v1.13a.36.36,0,0,1-.31.39H90.49c-1.86,0-2.35.3-2.35,1.51v10.77a.36.36,0,0,1-.32.4H86a.37.37,0,0,1-.4-.32V112.83c0-3,2.71-3.17,4.27-3.17A15.55,15.55,0,0,1,92.88,109.93Z" style="fill:#003764"/><path d="M107.32,109.8a.35.35,0,0,1,.4.31v13.78c0,.32-.13.35-.4.4a31.16,31.16,0,0,1-5.62.43c-4.84,0-6.27-.62-6.27-6.35v-8.16c0-.27.19-.4.46-.4h1.73a.35.35,0,0,1,.4.31.14.14,0,0,1,0,.09v8c0,4.11.82,4.28,3.41,4.28h3.71V110.21a.35.35,0,0,1,.31-.4.14.14,0,0,1,.09,0Z" style="fill:#003764"/><path d="M131.36,115.89l-.05,8.3a.36.36,0,0,1-.32.4h-1.81a.36.36,0,0,1-.41-.3.38.38,0,0,1,0-.1v-8c0-4.14-.81-4.3-3.35-4.3a18.72,18.72,0,0,0-3.17.24,11.58,11.58,0,0,1,.43,3.84l0,8.19c0,.32-.11.4-.35.4h-1.81a.36.36,0,0,1-.4-.32v-8.18c0-4-.81-4.11-3.36-4.11H114v12.24a.36.36,0,0,1-.32.4h-1.86a.36.36,0,0,1-.4-.32.11.11,0,0,1,0-.08V110.53c0-.32.14-.38.4-.43a27.34,27.34,0,0,1,4.51-.44,12.07,12.07,0,0,1,4.49.82,14.42,14.42,0,0,1,4.36-.85C129.87,109.63,131.36,110.29,131.36,115.89Z" style="fill:#003764"/><path d="M24.72,5.15S5.2,5.15,5.2,24.67v101s0,19.53,19.52,19.53h141.9s19.53,0,19.53-19.53V24.67s0-19.52-19.53-19.52Z" style="fill:none;stroke:#103a5d;stroke-width:2.51389524052214px"/></g></svg>