<svg xmlns="http://www.w3.org/2000/svg" xml:space="preserve" style="fill-rule:evenodd;clip-rule:evenodd;stroke-linejoin:round;stroke-miterlimit:2" viewBox="0 0 500 300"><path d="M-277.747-623.45h606.565V982.97h-606.565z" style="fill:#c40f33"/><path d="m445.331-228.061-945.609 945.609 164.373 164.372L609.703-63.689 445.331-228.061Z" style="fill:#cf0f35"/><path d="m400.381-149.303-821.599 821.599 562.012 562.011 821.598-821.598-562.011-562.012Z" style="fill:#a90e2d"/><path d="m709.657-259.841-1036.44 1036.44 381.499 381.499 1036.44-1036.44-381.499-381.499Z" style="fill:#af1231"/><text x="278.508" y="214.72" style="font-family:&quot;OpenSans-Semibold&quot;,&quot;Open Sans&quot;,sans-serif;font-weight:600;font-size:25px;fill:#fff">Event Softwar<tspan x="445.549" y="214.72">e</tspan></text><path d="m108.118 111.457-1.963-.758c-.873-.334-1.722-.501-2.534-.501-2.142-.033-3.858 1.311-4.53 3.145l-14.632 35.826a184.903 184.903 0 0 0-4.031 11.098 189.64 189.64 0 0 0-4.035-11.094l-14.64-35.84c-.669-1.824-2.376-3.168-4.52-3.135-.821 0-1.664.17-2.524.496l-1.977.767c-2.303.822-3.451 2.598-3.407 4.286 0 .639.137 1.262.371 1.852l21.263 49.533c1.498 3.28 4.692 5.537 7.57 5.617l3.802-.003c2.87-.077 6.068-2.334 7.56-5.606l-1.091-.385 1.096.377 21.253-49.512c.238-.616.374-1.234.374-1.873.046-1.684-1.105-3.46-3.405-4.29" style="fill:#fff;fill-rule:nonzero"/><path d="m108.118 111.457-1.963-.758c-.873-.334-1.722-.501-2.534-.501-2.142-.033-3.858 1.311-4.53 3.145l-14.632 35.826a184.903 184.903 0 0 0-4.031 11.098 189.64 189.64 0 0 0-4.035-11.094l-14.64-35.84c-.669-1.824-2.376-3.168-4.52-3.135-.821 0-1.664.17-2.524.496l-1.977.767c-2.303.822-3.451 2.598-3.407 4.286 0 .639.137 1.262.371 1.852l21.263 49.533c1.498 3.28 4.692 5.537 7.57 5.617l3.802-.003c2.87-.077 6.068-2.334 7.56-5.606l-1.091-.385 1.096.377 21.253-49.512c.238-.616.374-1.234.374-1.873.046-1.684-1.105-3.46-3.405-4.29" style="fill:#fff;fill-rule:nonzero"/><path d="m108.118 111.457-1.963-.758c-.873-.334-1.722-.501-2.534-.501-2.142-.033-3.858 1.311-4.53 3.145l-14.632 35.826a184.903 184.903 0 0 0-4.031 11.098 189.64 189.64 0 0 0-4.035-11.094l-14.64-35.84c-.669-1.824-2.376-3.168-4.52-3.135-.821 0-1.664.17-2.524.496l-1.977.767c-2.303.822-3.451 2.598-3.407 4.286 0 .639.137 1.262.371 1.852l21.263 49.533c1.498 3.28 4.692 5.537 7.57 5.617l3.802-.003c2.87-.077 6.068-2.334 7.56-5.606l-1.091-.385 1.096.377 21.253-49.512c.238-.616.374-1.234.374-1.873.046-1.684-1.105-3.46-3.405-4.29M131.021 85.036h-1.97c-3.01 0-5.395 2.14-5.398 4.852v6.965c.003 2.708 2.383 4.851 5.398 4.856h1.97c2.887 0 5.389-2.103 5.395-4.856v-6.965c-.006-2.755-2.508-4.852-5.395-4.852" style="fill:#fff;fill-rule:nonzero"/><path d="M131.021 85.036h-1.97c-3.01 0-5.395 2.14-5.398 4.852v6.965c.003 2.708 2.383 4.851 5.398 4.856h1.97c2.887 0 5.389-2.103 5.395-4.856v-6.965c-.006-2.755-2.508-4.852-5.395-4.852" style="fill:#fff;fill-rule:nonzero"/><path d="M131.021 85.036h-1.97c-3.01 0-5.395 2.14-5.398 4.852v6.965c.003 2.708 2.383 4.851 5.398 4.856h1.97c2.887 0 5.389-2.103 5.395-4.856v-6.965c-.006-2.755-2.508-4.852-5.395-4.852M131.021 110.61h-1.97c-3.015.006-5.395 2.148-5.398 4.858v52.424c.003 2.714 2.383 4.85 5.398 4.854h1.97c2.887 0 5.389-2.094 5.395-4.854v-52.424c-.006-2.757-2.508-4.858-5.395-4.858" style="fill:#fff;fill-rule:nonzero"/><path d="M131.021 110.61h-1.97c-3.015.006-5.395 2.148-5.398 4.858v52.424c.003 2.714 2.383 4.85 5.398 4.854h1.97c2.887 0 5.389-2.094 5.395-4.854v-52.424c-.006-2.757-2.508-4.858-5.395-4.858" style="fill:#fff;fill-rule:nonzero"/><path d="M131.021 110.61h-1.97c-3.015.006-5.395 2.148-5.398 4.858v52.424c.003 2.714 2.383 4.85 5.398 4.854h1.97c2.887 0 5.389-2.094 5.395-4.854v-52.424c-.006-2.757-2.508-4.858-5.395-4.858M207.332 111.457l-1.963-.76c-.872-.331-1.718-.501-2.531-.501-2.146-.037-3.856 1.317-4.525 3.145l-14.634 35.828a189.09 189.09 0 0 0-4.035 11.098 189.047 189.047 0 0 0-4.031-11.094l-14.646-35.84c-.667-1.82-2.376-3.174-4.52-3.137-.814 0-1.661.172-2.52.496l-1.98.768c-2.303.821-3.449 2.598-3.406 4.286 0 .64.139 1.265.373 1.853l21.259 49.538c1.502 3.275 4.697 5.528 7.57 5.609h3.802c2.872-.081 6.068-2.334 7.563-5.606l-1.087-.385 1.091.382 21.25-49.517c.238-.615.383-1.234.383-1.874.037-1.683-1.111-3.453-3.413-4.289" style="fill:#fff;fill-rule:nonzero"/><path d="m207.332 111.457-1.963-.76c-.872-.331-1.718-.501-2.531-.501-2.146-.037-3.856 1.317-4.525 3.145l-14.634 35.828a189.09 189.09 0 0 0-4.035 11.098 189.047 189.047 0 0 0-4.031-11.094l-14.646-35.84c-.667-1.82-2.376-3.174-4.52-3.137-.814 0-1.661.172-2.52.496l-1.98.768c-2.303.821-3.449 2.598-3.406 4.286 0 .64.139 1.265.373 1.853l21.259 49.538c1.502 3.275 4.697 5.528 7.57 5.609h3.802c2.872-.081 6.068-2.334 7.563-5.606l-1.087-.385 1.091.382 21.25-49.517c.238-.615.383-1.234.383-1.874.037-1.683-1.111-3.453-3.413-4.289" style="fill:#fff;fill-rule:nonzero"/><path d="m207.332 111.457-1.963-.76c-.872-.331-1.718-.501-2.531-.501-2.146-.037-3.856 1.317-4.525 3.145l-14.634 35.828a189.09 189.09 0 0 0-4.035 11.098 189.047 189.047 0 0 0-4.031-11.094l-14.646-35.84c-.667-1.82-2.376-3.174-4.52-3.137-.814 0-1.661.172-2.52.496l-1.98.768c-2.303.821-3.449 2.598-3.406 4.286 0 .64.139 1.265.373 1.853l21.259 49.538c1.502 3.275 4.697 5.528 7.57 5.609h3.802c2.872-.081 6.068-2.334 7.563-5.606l-1.087-.385 1.091.382 21.25-49.517c.238-.615.383-1.234.383-1.874.037-1.683-1.111-3.453-3.413-4.289M339.079 114.511c-3.428-2.789-8.278-4.28-13.988-4.28v.004h-2.106c-11.112.042-18.096 6.008-21.958 5.82-1.071-.133-.576.241-1.344-.808l-1.434-2.32c-.432-.881-1.787-2.352-4.26-2.313h-1.971c-2.469.003-4.403 1.845-4.407 4.219v40.773c-.009 3.596-3.281 6.54-7.273 6.547h-40.39c-5.736-.127-7.839-2.414-7.979-6.668v-8.95h34.719c2.388 0 4.734-.593 6.508-2.033 1.771-1.436 2.837-3.687 2.826-6.621v-12.285c-.015-8.36-8.015-14.982-17.353-14.986h-22.1c-9.339.004-17.334 6.626-17.357 14.986v31.658c.023 8.428 7.638 15.465 16.51 15.492h29.276c11.108-.044 18.091-6.004 21.958-5.824 1.07.138.571-.238 1.339.809l1.43 2.32c.432.881 1.797 2.354 4.264 2.315h1.972c2.474 0 4.407-1.844 4.407-4.219l.004-40.397c.003-3.593 3.276-6.537 7.274-6.543h16.742c3.996.006 7.265 2.95 7.276 6.543v40.146c.004 2.706 2.376 4.846 5.39 4.85h1.976c2.883 0 5.381-2.097 5.391-4.85V126.23c.012-4.866-1.914-8.932-5.342-11.719m-107.102 12.482c0-3.334 2.963-5.775 6.424-5.786h18.436c3.458.011 6.424 2.452 6.424 5.786v9.577h-31.284v-9.577ZM368.298 101.709h1.97c2.892 0 5.388-2.103 5.392-4.858v-6.962c-.004-2.756-2.508-4.853-5.392-4.853h-1.97c-3.013.005-5.391 2.14-5.395 4.853v6.962c.004 2.706 2.382 4.853 5.395 4.858M370.268 110.61h-1.97c-3.013.006-5.391 2.151-5.396 4.858v52.424c.005 2.714 2.383 4.85 5.396 4.857h1.97c2.891 0 5.387-2.1 5.391-4.857l.007-52.424c-.011-2.756-2.507-4.858-5.398-4.858M433.319 110.613h-21.812c-9.345.004-17.343 6.626-17.365 14.985l.003 31.908c.019 8.299 7.401 15.236 16.796 15.243h22.941c9.252-.01 16.783-6.935 16.794-15.243v-31.908c-.023-8.359-8.02-14.981-17.357-14.985m4.599 45.631c-.008 3.336-2.98 5.902-6.568 5.909h-18.016c-3.582-.007-6.417-2.547-6.43-5.909v-29.127c.007-3.227 2.859-5.909 6.574-5.909h17.872c3.557.007 6.56 2.708 6.568 5.909v29.127Z" style="fill:#fff;fill-rule:nonzero"/></svg>