<?xml version="1.0" encoding="UTF-8" standalone="no"?><!DOCTYPE svg PUBLIC "-//W3C//DTD SVG 1.1//EN" "http://www.w3.org/Graphics/SVG/1.1/DTD/svg11.dtd"><svg width="100%" height="100%" viewBox="0 0 500 300" version="1.1" xmlns="http://www.w3.org/2000/svg" xmlns:xlink="http://www.w3.org/1999/xlink" xml:space="preserve" xmlns:serif="http://www.serif.com/" style="fill-rule:evenodd;clip-rule:evenodd;stroke-linejoin:round;stroke-miterlimit:2;"><rect x="-277.747" y="-623.45" width="606.565" height="1606.42" style="fill:#c40f33;"/><path d="M445.331,-228.061l-945.609,945.609l164.373,164.372l945.608,-945.609l-164.372,-164.372Z" style="fill:#cf0f35;"/><path d="M400.381,-149.303l-821.599,821.599l562.012,562.011l821.598,-821.598l-562.011,-562.012Z" style="fill:#a90e2d;"/><path d="M709.657,-259.841l-1036.44,1036.44l381.499,381.499l1036.44,-1036.44l-381.499,-381.499Z" style="fill:#af1231;"/><text x="278.508px" y="214.72px" style="font-family:'OpenSans-Semibold', 'Open Sans', sans-serif;font-weight:600;font-size:25px;fill:#fff;">Event Softwar<tspan x="445.549px " y="214.72px ">e</tspan></text><g><path d="M108.118,111.457l-1.963,-0.758c-0.873,-0.334 -1.722,-0.501 -2.534,-0.501c-2.142,-0.033 -3.858,1.311 -4.53,3.145l-14.632,35.826c-1.814,4.535 -3.197,8.539 -4.031,11.098c-0.84,-2.556 -2.221,-6.563 -4.035,-11.094l-14.64,-35.84c-0.669,-1.824 -2.376,-3.168 -4.52,-3.135c-0.821,0 -1.664,0.17 -2.524,0.496l-1.977,0.767c-2.303,0.822 -3.451,2.598 -3.407,4.286c0,0.639 0.137,1.262 0.371,1.852l21.263,49.533c1.498,3.28 4.692,5.537 7.57,5.617l3.802,-0.003c2.87,-0.077 6.068,-2.334 7.56,-5.606l-1.091,-0.385l1.096,0.377l21.253,-49.512c0.238,-0.616 0.374,-1.234 0.374,-1.873c0.046,-1.684 -1.105,-3.46 -3.405,-4.29" style="fill:#fff;fill-rule:nonzero;"/><path d="M108.118,111.457l-1.963,-0.758c-0.873,-0.334 -1.722,-0.501 -2.534,-0.501c-2.142,-0.033 -3.858,1.311 -4.53,3.145l-14.632,35.826c-1.814,4.535 -3.197,8.539 -4.031,11.098c-0.84,-2.556 -2.221,-6.563 -4.035,-11.094l-14.64,-35.84c-0.669,-1.824 -2.376,-3.168 -4.52,-3.135c-0.821,0 -1.664,0.17 -2.524,0.496l-1.977,0.767c-2.303,0.822 -3.451,2.598 -3.407,4.286c0,0.639 0.137,1.262 0.371,1.852l21.263,49.533c1.498,3.28 4.692,5.537 7.57,5.617l3.802,-0.003c2.87,-0.077 6.068,-2.334 7.56,-5.606l-1.091,-0.385l1.096,0.377l21.253,-49.512c0.238,-0.616 0.374,-1.234 0.374,-1.873c0.046,-1.684 -1.105,-3.46 -3.405,-4.29" style="fill:#fff;fill-rule:nonzero;"/><path d="M108.118,111.457l-1.963,-0.758c-0.873,-0.334 -1.722,-0.501 -2.534,-0.501c-2.142,-0.033 -3.858,1.311 -4.53,3.145l-14.632,35.826c-1.814,4.535 -3.197,8.539 -4.031,11.098c-0.84,-2.556 -2.221,-6.563 -4.035,-11.094l-14.64,-35.84c-0.669,-1.824 -2.376,-3.168 -4.52,-3.135c-0.821,0 -1.664,0.17 -2.524,0.496l-1.977,0.767c-2.303,0.822 -3.451,2.598 -3.407,4.286c0,0.639 0.137,1.262 0.371,1.852l21.263,49.533c1.498,3.28 4.692,5.537 7.57,5.617l3.802,-0.003c2.87,-0.077 6.068,-2.334 7.56,-5.606l-1.091,-0.385l1.096,0.377l21.253,-49.512c0.238,-0.616 0.374,-1.234 0.374,-1.873c0.046,-1.684 -1.105,-3.46 -3.405,-4.29" style="fill:#fff;fill-rule:nonzero;"/><path d="M131.021,85.036l-1.97,0c-3.01,0 -5.395,2.14 -5.398,4.852l0,6.965c0.003,2.708 2.383,4.851 5.398,4.856l1.97,0c2.887,0 5.389,-2.103 5.395,-4.856l0,-6.965c-0.006,-2.755 -2.508,-4.852 -5.395,-4.852" style="fill:#fff;fill-rule:nonzero;"/><path d="M131.021,85.036l-1.97,0c-3.01,0 -5.395,2.14 -5.398,4.852l0,6.965c0.003,2.708 2.383,4.851 5.398,4.856l1.97,0c2.887,0 5.389,-2.103 5.395,-4.856l0,-6.965c-0.006,-2.755 -2.508,-4.852 -5.395,-4.852" style="fill:#fff;fill-rule:nonzero;"/><path d="M131.021,85.036l-1.97,0c-3.01,0 -5.395,2.14 -5.398,4.852l0,6.965c0.003,2.708 2.383,4.851 5.398,4.856l1.97,0c2.887,0 5.389,-2.103 5.395,-4.856l0,-6.965c-0.006,-2.755 -2.508,-4.852 -5.395,-4.852" style="fill:#fff;fill-rule:nonzero;"/><path d="M131.021,110.61l-1.97,0c-3.015,0.006 -5.395,2.148 -5.398,4.858l0,52.424c0.003,2.714 2.383,4.85 5.398,4.854l1.97,0c2.887,0 5.389,-2.094 5.395,-4.854l0,-52.424c-0.006,-2.757 -2.508,-4.858 -5.395,-4.858" style="fill:#fff;fill-rule:nonzero;"/><path d="M131.021,110.61l-1.97,0c-3.015,0.006 -5.395,2.148 -5.398,4.858l0,52.424c0.003,2.714 2.383,4.85 5.398,4.854l1.97,0c2.887,0 5.389,-2.094 5.395,-4.854l0,-52.424c-0.006,-2.757 -2.508,-4.858 -5.395,-4.858" style="fill:#fff;fill-rule:nonzero;"/><path d="M131.021,110.61l-1.97,0c-3.015,0.006 -5.395,2.148 -5.398,4.858l0,52.424c0.003,2.714 2.383,4.85 5.398,4.854l1.97,0c2.887,0 5.389,-2.094 5.395,-4.854l0,-52.424c-0.006,-2.757 -2.508,-4.858 -5.395,-4.858" style="fill:#fff;fill-rule:nonzero;"/><path d="M207.332,111.457l-1.963,-0.76c-0.872,-0.331 -1.718,-0.501 -2.531,-0.501c-2.146,-0.037 -3.856,1.317 -4.525,3.145l-14.634,35.828c-1.814,4.535 -3.196,8.539 -4.035,11.098c-0.838,-2.556 -2.219,-6.563 -4.031,-11.094l-14.646,-35.84c-0.667,-1.82 -2.376,-3.174 -4.52,-3.137c-0.814,0 -1.661,0.172 -2.52,0.496l-1.98,0.768c-2.303,0.821 -3.449,2.598 -3.406,4.286c0,0.64 0.139,1.265 0.373,1.853l21.259,49.538c1.502,3.275 4.697,5.528 7.57,5.609l3.802,0c2.872,-0.081 6.068,-2.334 7.563,-5.606l-1.087,-0.385l1.091,0.382l21.25,-49.517c0.238,-0.615 0.383,-1.234 0.383,-1.874c0.037,-1.683 -1.111,-3.453 -3.413,-4.289" style="fill:#fff;fill-rule:nonzero;"/><path d="M207.332,111.457l-1.963,-0.76c-0.872,-0.331 -1.718,-0.501 -2.531,-0.501c-2.146,-0.037 -3.856,1.317 -4.525,3.145l-14.634,35.828c-1.814,4.535 -3.196,8.539 -4.035,11.098c-0.838,-2.556 -2.219,-6.563 -4.031,-11.094l-14.646,-35.84c-0.667,-1.82 -2.376,-3.174 -4.52,-3.137c-0.814,0 -1.661,0.172 -2.52,0.496l-1.98,0.768c-2.303,0.821 -3.449,2.598 -3.406,4.286c0,0.64 0.139,1.265 0.373,1.853l21.259,49.538c1.502,3.275 4.697,5.528 7.57,5.609l3.802,0c2.872,-0.081 6.068,-2.334 7.563,-5.606l-1.087,-0.385l1.091,0.382l21.25,-49.517c0.238,-0.615 0.383,-1.234 0.383,-1.874c0.037,-1.683 -1.111,-3.453 -3.413,-4.289" style="fill:#fff;fill-rule:nonzero;"/><path d="M207.332,111.457l-1.963,-0.76c-0.872,-0.331 -1.718,-0.501 -2.531,-0.501c-2.146,-0.037 -3.856,1.317 -4.525,3.145l-14.634,35.828c-1.814,4.535 -3.196,8.539 -4.035,11.098c-0.838,-2.556 -2.219,-6.563 -4.031,-11.094l-14.646,-35.84c-0.667,-1.82 -2.376,-3.174 -4.52,-3.137c-0.814,0 -1.661,0.172 -2.52,0.496l-1.98,0.768c-2.303,0.821 -3.449,2.598 -3.406,4.286c0,0.64 0.139,1.265 0.373,1.853l21.259,49.538c1.502,3.275 4.697,5.528 7.57,5.609l3.802,0c2.872,-0.081 6.068,-2.334 7.563,-5.606l-1.087,-0.385l1.091,0.382l21.25,-49.517c0.238,-0.615 0.383,-1.234 0.383,-1.874c0.037,-1.683 -1.111,-3.453 -3.413,-4.289" style="fill:#fff;fill-rule:nonzero;"/><path d="M339.079,114.511c-3.428,-2.789 -8.278,-4.28 -13.988,-4.28l0,0.004l-2.106,0c-11.112,0.042 -18.096,6.008 -21.958,5.82c-1.071,-0.133 -0.576,0.241 -1.344,-0.808l-1.434,-2.32c-0.432,-0.881 -1.787,-2.352 -4.26,-2.313l-1.971,0c-2.469,0.003 -4.403,1.845 -4.407,4.219l0,40.773c-0.009,3.596 -3.281,6.54 -7.273,6.547l-40.39,0c-5.736,-0.127 -7.839,-2.414 -7.979,-6.668l0,-8.95l34.719,0c2.388,0 4.734,-0.593 6.508,-2.033c1.771,-1.436 2.837,-3.687 2.826,-6.621l0,-12.285c-0.015,-8.36 -8.015,-14.982 -17.353,-14.986l-22.1,0c-9.339,0.004 -17.334,6.626 -17.357,14.986l0,31.658c0.023,8.428 7.638,15.465 16.51,15.492l29.276,0c11.108,-0.044 18.091,-6.004 21.958,-5.824c1.07,0.138 0.571,-0.238 1.339,0.809l1.43,2.32c0.432,0.881 1.797,2.354 4.264,2.315l1.972,0c2.474,0 4.407,-1.844 4.407,-4.219l0.004,-40.397c0.003,-3.593 3.276,-6.537 7.274,-6.543l16.742,0c3.996,0.006 7.265,2.95 7.276,6.543l0,40.146c0.004,2.706 2.376,4.846 5.39,4.85l1.976,0c2.883,0 5.381,-2.097 5.391,-4.85l0,-41.666c0.012,-4.866 -1.914,-8.932 -5.342,-11.719m-107.102,12.482c0,-3.334 2.963,-5.775 6.424,-5.786l18.436,0c3.458,0.011 6.424,2.452 6.424,5.786l0,9.577l-31.284,0l0,-9.577Z" style="fill:#fff;fill-rule:nonzero;"/><path d="M368.298,101.709l1.97,0c2.892,0 5.388,-2.103 5.392,-4.858l0,-6.962c-0.004,-2.756 -2.508,-4.853 -5.392,-4.853l-1.97,0c-3.013,0.005 -5.391,2.14 -5.395,4.853l0,6.962c0.004,2.706 2.382,4.853 5.395,4.858" style="fill:#fff;fill-rule:nonzero;"/><path d="M370.268,110.61l-1.97,0c-3.013,0.006 -5.391,2.151 -5.396,4.858l0,52.424c0.005,2.714 2.383,4.85 5.396,4.857l1.97,0c2.891,0 5.387,-2.1 5.391,-4.857l0.007,-52.424c-0.011,-2.756 -2.507,-4.858 -5.398,-4.858" style="fill:#fff;fill-rule:nonzero;"/><path d="M433.319,110.613l-21.812,0c-9.345,0.004 -17.343,6.626 -17.365,14.985l0.003,31.908c0.019,8.299 7.401,15.236 16.796,15.243l22.941,0c9.252,-0.01 16.783,-6.935 16.794,-15.243l0,-31.908c-0.023,-8.359 -8.02,-14.981 -17.357,-14.985m4.599,45.631c-0.008,3.336 -2.98,5.902 -6.568,5.909l-18.016,0c-3.582,-0.007 -6.417,-2.547 -6.43,-5.909l0,-29.127c0.007,-3.227 2.859,-5.909 6.574,-5.909l17.872,0c3.557,0.007 6.56,2.708 6.568,5.909l0,29.127Z" style="fill:#fff;fill-rule:nonzero;"/></g></svg>