<svg xmlns="http://www.w3.org/2000/svg" xmlns:xlink="http://www.w3.org/1999/xlink" width="300" height="300"><defs><linearGradient id="b" x1="100%" x2="0%" y1="0%" y2="102.578%"><stop offset="0%" stop-color="#62278B"/><stop offset="59.329%" stop-color="#572B82"/><stop offset="100%" stop-color="#572B82"/></linearGradient><linearGradient id="g" x1="4.097%" x2="83.299%" y1="12.531%" y2="84.938%"><stop offset="0%" stop-color="#FFF" stop-opacity=".5"/><stop offset="100%" stop-color="#FFF" stop-opacity="0"/></linearGradient><linearGradient id="h" x1="16.833%" x2="95.653%" y1="80.771%" y2="36.551%"><stop offset="4.294%" stop-color="#5C257E"/><stop offset="96.93%" stop-color="#8C509A"/></linearGradient><linearGradient id="i" x1="75.408%" x2="23.115%" y1="146.951%" y2="10.816%"><stop offset="4.294%" stop-color="#5C257E"/><stop offset="100%" stop-color="#FFF"/></linearGradient><linearGradient id="j" x1="100.452%" x2="21.788%" y1="134.204%" y2="-6.561%"><stop offset="4.294%" stop-color="#5C257E"/><stop offset="100%" stop-color="#FFF"/></linearGradient><linearGradient id="k" x1="25.279%" x2="68.36%" y1="22.419%" y2="91.527%"><stop offset="23.31%" stop-color="#4F256F"/><stop offset="84.05%" stop-color="#5C257E"/></linearGradient><linearGradient id="l" x1="43.923%" x2="54.14%" y1="20.561%" y2="82.256%"><stop offset="23.31%" stop-color="#4F256F"/><stop offset="84.05%" stop-color="#5C257E"/></linearGradient><linearGradient id="o" x1="15.044%" x2="104.502%" y1="10.883%" y2="102.138%"><stop offset="0%" stop-color="#FFF" stop-opacity=".5"/><stop offset="100%"/></linearGradient><path id="a" d="M0 0h300v300H0z"/><path id="e" d="M174.606 152.165c0 15.373-12.476 27.835-27.865 27.835H27.865C12.475 180 0 167.538 0 152.165V27.835C0 12.462 12.476 0 27.865 0H207l-32.395 32.287v119.878z"/><path id="f" d="M201 3l-26.402 26.311v121.863c0 14.263-11.563 25.826-25.826 25.826H25.826C11.563 177 0 165.437 0 151.174V28.826C0 14.563 11.563 3 25.826 3H201z"/><path id="n" d="M47.5 0C21.266 0 0 18.253 0 40.774c0 7.658 2.504 14.795 6.786 20.917V95.14l22.318-16.764c5.66 2.039 11.875 3.172 18.396 3.172 26.234 0 47.5-18.253 47.5-40.773C95 18.253 73.734 0 47.5 0z"/><filter id="d" width="144.9%" height="150%" x="-21.7%" y="-25%" filterUnits="objectBoundingBox"><feMorphology in="SourceAlpha" operator="dilate" radius="1" result="shadowSpreadOuter1"/><feOffset in="shadowSpreadOuter1" result="shadowOffsetOuter1"/><feGaussianBlur in="shadowOffsetOuter1" result="shadowBlurOuter1" stdDeviation="14"/><feColorMatrix in="shadowBlurOuter1" result="shadowMatrixOuter1" values="0 0 0 0 0 0 0 0 0 0 0 0 0 0 0 0 0 0 0.2 0"/><feOffset dx="2" dy="2" in="SourceAlpha" result="shadowOffsetOuter2"/><feGaussianBlur in="shadowOffsetOuter2" result="shadowBlurOuter2" stdDeviation=".5"/><feColorMatrix in="shadowBlurOuter2" result="shadowMatrixOuter2" values="0 0 0 0 0 0 0 0 0 0 0 0 0 0 0 0 0 0 0.1 0"/><feMerge><feMergeNode in="shadowMatrixOuter1"/><feMergeNode in="shadowMatrixOuter2"/></feMerge></filter><filter id="m" width="182.1%" height="179.6%" x="-41.1%" y="-39.8%" filterUnits="objectBoundingBox"><feOffset dx="-2" dy="2" in="SourceAlpha" result="shadowOffsetOuter1"/><feGaussianBlur in="shadowOffsetOuter1" result="shadowBlurOuter1" stdDeviation="9"/><feColorMatrix in="shadowBlurOuter1" result="shadowMatrixOuter1" values="0 0 0 0 0 0 0 0 0 0 0 0 0 0 0 0 0 0 0.647044362 0"/><feMerge><feMergeNode in="shadowMatrixOuter1"/><feMergeNode in="SourceGraphic"/></feMerge></filter><filter id="p" width="156.2%" height="152.4%" x="-27.4%" y="-26.2%" filterUnits="objectBoundingBox"><feOffset dy="2" in="SourceAlpha" result="shadowOffsetOuter1"/><feGaussianBlur in="shadowOffsetOuter1" result="shadowBlurOuter1" stdDeviation="2.5"/><feColorMatrix in="shadowBlurOuter1" result="shadowMatrixOuter1" values="0 0 0 0 0 0 0 0 0 0 0 0 0 0 0 0 0 0 0.2 0"/><feMerge><feMergeNode in="shadowMatrixOuter1"/><feMergeNode in="SourceGraphic"/></feMerge></filter></defs><g fill="none" fill-rule="evenodd"><mask id="c" fill="#fff"><use xlink:href="#a"/></mask><use fill="url(#b)" xlink:href="#a"/><g mask="url(#c)"><g transform="translate(77.006 60)"><use fill="#000" filter="url(#d)" xlink:href="#e"/><path fill="#B1B1B1" d="M207 0l-32.395 32.282v115.892c0 14.263-11.562 25.826-25.826 25.826H25.826C11.563 174 0 162.437 0 148.174V25.826C0 11.563 11.563 0 25.826 0H207z"/><path fill="#565656" d="M207 0l-32.395 32.287v121.887c0 14.263-11.562 25.826-25.826 25.826H25.826C11.563 180 0 168.437 0 154.174V31.798C0 17.534 11.563 5.972 25.826 5.972l66.681-.001L89.959 3H201l6-3z"/><use fill="#7C7C7C" xlink:href="#f"/><use fill="url(#g)" fill-opacity=".57" xlink:href="#f"/><path fill="#FFF" d="M174.606 152.165c0 15.373-12.476 27.835-27.865 27.835H27.865C12.475 180 0 167.538 0 152.165V27.835C0 12.462 12.476 0 27.865 0H207l-32.395 32.287v119.878z"/><g fill-rule="nonzero"><path fill="url(#h)" d="M101.78 132.29c.494 1.65.905 2.72 1.069 3.133.082 0-.082 0 0 0-2.466-35.113 17.84-49.042 24.993-72.121.082-.33.164-.742.247-1.154.164-.495.246-1.072.328-1.566 1.151-6.43-1.233-14.012-5.919-21.925 0-.082-.082-.082-.082-.165l-1.233-1.978c-.74-1.236-1.645-2.473-2.467-3.71-.082-.082-.164-.246-.246-.411l-.74-.99c-.247-.33-.494-.659-.74-1.07-.247-.33-.494-.66-.822-.99-.247-.33-.576-.66-.823-1.071-.164-.248-.41-.495-.575-.742C107.206 18.216 97.34 8.984 86.982.824c0 0-.082-.082 0 0 .986 13.188.74 26.458-.905 36.926-1.89 12.694-6.988 27.283-13.73 40.47-14.715-1.73-29.596-5.604-41.188-11.044C21.458 62.642 10.44 55.636 0 47.394c.082 1.071.164 2.225.247 3.297 0 .33.082.66.082.989.082.824.164 1.566.246 2.308 0 .33.083.742.083 1.071.082.825.164 1.566.246 2.308 0 .33.083.66.083.99.164.988.246 1.978.41 2.967v.33c.165 1.153.33 2.307.494 3.379 0 .082 0 .165.082.247.165.99.329 1.978.493 3.05 0 .247.083.412.083.577l.493 2.72c.082.165.082.33.082.494.247 1.072.411 2.06.658 3.132.74 3.297 1.644 6.512 2.548 9.562v.082c1.562 5.11 3.453 9.89 5.509 14.095.329.576.657 1.236.904 1.813v.082c.247.495.576 1.072.904 1.566v.083c.33.577.658 1.071.987 1.566.082.082.082.165.164.165.411.66.905 1.318 1.316 1.895.082.083.164.165.246.33l.083.083c.493.659 1.068 1.318 1.562 1.978.41.412.74.824 1.15 1.236l.494.495.74.741c.164.165.329.33.575.495.247.247.494.412.74.577.165.165.411.33.576.412.246.165.493.412.74.577.164.165.41.247.575.412.247.165.494.33.822.495.165.082.411.247.576.33.329.164.575.33.904.412l.494.247c.493.247.986.412 1.397.577.329.082.576.247.822.33 23.102 6.923 46.122-2.061 73.91 19.287" transform="translate(20.5 17.936)"/><g opacity=".8"><path fill="url(#i)" d="M86.077 36.926c-1.89 12.693-6.988 27.282-13.73 40.47 26.062 3.05 51.384-.906 55.742-16.155C132.857 44.591 111.317 19.04 86.982 0c.904 13.353.658 26.376-.905 36.926z" opacity=".51" transform="translate(20.5 18.76)"/><path fill="url(#j)" d="M31.159 66.352C21.458 61.818 10.44 54.812 0 46.57c2.302 30.909 11.592 63.054 28.035 68.33 15.045 4.78 32.392-14.095 44.313-37.504-14.716-1.648-29.597-5.604-41.19-11.044z" opacity=".51" transform="translate(20.5 18.76)"/></g><g opacity=".7"><path fill="url(#k)" d="M51.877 95.612C13.483 81.352 0 46.57 0 46.57c1.398 18.957 5.426 38.327 12.168 51.762.328.577.575 1.154.904 1.731 0 .082.082.082.082.165.329.494.576 1.071.904 1.566 0 .082.083.165.165.165.329.494.575.989.904 1.483.082.083.082.165.165.165.329.495.575.907.904 1.401.247.33.411.577.576.825.082.082.082.165.164.247.164.165.329.412.411.577.329.495.74.907 1.069 1.319 2.877 3.38 6.166 5.852 9.701 7.006.329.082.575.247.822.33 23.102 6.923 46.122-2.061 73.91 19.287-2.138-2.885-21.869-28.107-50.972-38.987z" transform="translate(20.5 18.76)"/><path fill="url(#l)" d="M128.089 61.241C132.857 44.591 111.317 19.04 86.982 0c0 0 21.21 30.58 11.756 70.555-7.317 30.827 3.289 61.653 4.111 64.044.082 0-.082 0 0 0-2.466-35.113 17.84-49.043 24.993-72.121 0-.413.082-.825.247-1.237z" transform="translate(20.5 18.76)"/></g></g></g><path fill="#000" d="M99.592 154.64L194.558 240H85.606C71.464 240 60 228.555 60 214.438v-15.903l39.592-43.896z" opacity=".1"/><g filter="url(#m)" transform="translate(19 142)"><path fill="#CFCFCF" d="M47.5 2.861C21.266 2.861 0 21.114 0 43.635c0 7.659 2.504 14.795 6.786 20.918V98l22.318-16.763c5.66 2.038 11.875 3.172 18.396 3.172 26.234 0 47.5-18.253 47.5-40.774 0-22.52-21.266-40.774-47.5-40.774z"/><use fill="#FFF" xlink:href="#n"/><use fill="url(#o)" fill-opacity=".2" xlink:href="#n"/><g fill="#F47C00" fill-rule="nonzero" filter="url(#p)" transform="translate(22.143 14.593)"><path d="M4.294 29.905c1.353 6.562 2.478 12.81 6.42 17.307H3.195C1.438 47.212.01 45.732 0 43.9V6.545c.003-1.838 1.433-3.326 3.195-3.326h5.433a21.464 21.464 0 00-3.458 4.26c-4.299 6.869-2.532 14.358-.876 22.426zM46.04 3.22h-8.65c2.048 2.105 3.774 4.831 5.078 8.22l-13.15 2.853c-1.44-2.839-3.63-5.2-7.916-4.272-2.364.513-3.931 1.876-4.626 3.369-.854 1.84-1.274 3.903.769 13.706 2.042 9.803 3.245 11.513 4.754 12.84 1.228 1.071 3.207 1.667 5.57 1.153 4.288-.928 5.345-3.995 5.532-7.187l13.15-2.856c.31 6.993-1.796 12.416-5.513 16.167h5.002c1.784.001 3.234-1.48 3.245-3.313V6.546c-.003-1.84-1.456-3.329-3.245-3.327z"/></g></g></g></g></svg>