<svg xmlns="http://www.w3.org/2000/svg" xmlns:xlink="http://www.w3.org/1999/xlink" width="300" height="300" viewBox="0 0 300 300">
  <defs>
    <linearGradient id="c4_akeneo_ext@1x-b" x1="100%" x2="0%" y1="0%" y2="102.578%">
      <stop offset="0%" stop-color="#62278B"/>
      <stop offset="59.329%" stop-color="#572B82"/>
      <stop offset="100%" stop-color="#572B82"/>
    </linearGradient>
    <rect id="c4_akeneo_ext@1x-a" width="300" height="300" x="0" y="0"/>
    <path id="c4_akeneo_ext@1x-e" d="M174.605786,152.164948 C174.605786,167.537823 162.130166,180 146.74071,180 L27.8650752,180 C12.4756191,180 0,167.537823 0,152.164948 L0,27.8350515 C0,12.4621771 12.4756191,0 27.8650752,0 L207,0 L174.605348,32.2868041 L174.605786,152.164948 Z"/>
    <filter id="c4_akeneo_ext@1x-d" width="144.9%" height="150%" x="-21.7%" y="-25%" filterUnits="objectBoundingBox">
      <feMorphology in="SourceAlpha" operator="dilate" radius="1" result="shadowSpreadOuter1"/>
      <feOffset in="shadowSpreadOuter1" result="shadowOffsetOuter1"/>
      <feGaussianBlur in="shadowOffsetOuter1" result="shadowBlurOuter1" stdDeviation="14"/>
      <feColorMatrix in="shadowBlurOuter1" result="shadowMatrixOuter1" values="0 0 0 0 0   0 0 0 0 0   0 0 0 0 0  0 0 0 0.2 0"/>
      <feOffset dx="2" dy="2" in="SourceAlpha" result="shadowOffsetOuter2"/>
      <feGaussianBlur in="shadowOffsetOuter2" result="shadowBlurOuter2" stdDeviation=".5"/>
      <feColorMatrix in="shadowBlurOuter2" result="shadowMatrixOuter2" values="0 0 0 0 0   0 0 0 0 0   0 0 0 0 0  0 0 0 0.1 0"/>
      <feMerge>
        <feMergeNode in="shadowMatrixOuter1"/>
        <feMergeNode in="shadowMatrixOuter2"/>
      </feMerge>
    </filter>
    <linearGradient id="c4_akeneo_ext@1x-g" x1="4.097%" x2="83.299%" y1="12.531%" y2="84.938%">
      <stop offset="0%" stop-color="#FFF" stop-opacity=".5"/>
      <stop offset="100%" stop-color="#FFF" stop-opacity="0"/>
    </linearGradient>
    <path id="c4_akeneo_ext@1x-f" d="M201,3 L174.598,29.311 L174.598293,151.173664 C174.598293,165.437155 163.035449,177 148.771957,177 L25.8263365,177 C11.5628447,177 1.74677396e-15,165.437155 0,151.173664 L0,28.8263365 C-5.29948763e-15,14.5628447 11.5628447,3 25.8263365,3 L201,3 Z"/>
    <linearGradient id="c4_akeneo_ext@1x-h" x1="16.833%" x2="95.653%" y1="80.771%" y2="36.551%">
      <stop offset="4.294%" stop-color="#5C257E"/>
      <stop offset="96.93%" stop-color="#8C509A"/>
    </linearGradient>
    <linearGradient id="c4_akeneo_ext@1x-i" x1="75.408%" x2="23.115%" y1="146.951%" y2="10.816%">
      <stop offset="4.294%" stop-color="#5C257E"/>
      <stop offset="100%" stop-color="#FFF"/>
    </linearGradient>
    <linearGradient id="c4_akeneo_ext@1x-j" x1="100.452%" x2="21.788%" y1="134.204%" y2="-6.561%">
      <stop offset="4.294%" stop-color="#5C257E"/>
      <stop offset="100%" stop-color="#FFF"/>
    </linearGradient>
    <linearGradient id="c4_akeneo_ext@1x-k" x1="25.279%" x2="68.36%" y1="22.419%" y2="91.527%">
      <stop offset="23.31%" stop-color="#4F256F"/>
      <stop offset="84.05%" stop-color="#5C257E"/>
    </linearGradient>
    <linearGradient id="c4_akeneo_ext@1x-l" x1="43.923%" x2="54.14%" y1="20.561%" y2="82.256%">
      <stop offset="23.31%" stop-color="#4F256F"/>
      <stop offset="84.05%" stop-color="#5C257E"/>
    </linearGradient>
    <filter id="c4_akeneo_ext@1x-m" width="182.1%" height="179.6%" x="-41.1%" y="-39.8%" filterUnits="objectBoundingBox">
      <feOffset dx="-2" dy="2" in="SourceAlpha" result="shadowOffsetOuter1"/>
      <feGaussianBlur in="shadowOffsetOuter1" result="shadowBlurOuter1" stdDeviation="9"/>
      <feColorMatrix in="shadowBlurOuter1" result="shadowMatrixOuter1" values="0 0 0 0 0   0 0 0 0 0   0 0 0 0 0  0 0 0 0.647044362 0"/>
      <feMerge>
        <feMergeNode in="shadowMatrixOuter1"/>
        <feMergeNode in="SourceGraphic"/>
      </feMerge>
    </filter>
    <linearGradient id="c4_akeneo_ext@1x-o" x1="15.044%" x2="104.502%" y1="10.883%" y2="102.138%">
      <stop offset="0%" stop-color="#FFF" stop-opacity=".5"/>
      <stop offset="100%"/>
    </linearGradient>
    <path id="c4_akeneo_ext@1x-n" d="M47.5,0 C21.2664286,0 0,18.2530365 0,40.7737226 C0,48.4323869 2.50392857,55.5686378 6.78571429,61.6914918 L6.78571429,95.1386861 L29.1043527,78.37527 C34.7636384,80.4139562 40.9789286,81.5474453 47.5,81.5474453 C73.7335714,81.5474453 95,63.2944088 95,40.7737226 C95,18.2530365 73.7335714,0 47.5,0 Z"/>
    <filter id="c4_akeneo_ext@1x-p" width="156.2%" height="152.4%" x="-27.4%" y="-26.2%" filterUnits="objectBoundingBox">
      <feOffset dy="2" in="SourceAlpha" result="shadowOffsetOuter1"/>
      <feGaussianBlur in="shadowOffsetOuter1" result="shadowBlurOuter1" stdDeviation="2.5"/>
      <feColorMatrix in="shadowBlurOuter1" result="shadowMatrixOuter1" values="0 0 0 0 0   0 0 0 0 0   0 0 0 0 0  0 0 0 0.2 0"/>
      <feMerge>
        <feMergeNode in="shadowMatrixOuter1"/>
        <feMergeNode in="SourceGraphic"/>
      </feMerge>
    </filter>
  </defs>
  <g fill="none" fill-rule="evenodd">
    <mask id="c4_akeneo_ext@1x-c" fill="#fff">
      <use xlink:href="#c4_akeneo_ext@1x-a"/>
    </mask>
    <use fill="url(#c4_akeneo_ext@1x-b)" xlink:href="#c4_akeneo_ext@1x-a"/>
    <g mask="url(#c4_akeneo_ext@1x-c)">
      <g transform="translate(-42 -50)">
        <g transform="translate(102 110)">
          <g transform="translate(17.006)">
            <use fill="#000" filter="url(#c4_akeneo_ext@1x-d)" xlink:href="#c4_akeneo_ext@1x-e"/>
            <path fill="#B1B1B1" d="M207,0 L174.605,32.282 L174.605786,148.173664 C174.605786,162.437155 163.042941,174 148.779449,174 L25.8263365,174 C11.5628447,174 5.29948763e-15,162.437155 0,148.173664 L0,25.8263365 C-1.74677396e-15,11.5628447 11.5628447,6.17287461e-15 25.8263365,0 L207,0 Z"/>
            <path fill="#565656" d="M207,0 L174.605,32.287 L174.605786,154.173664 C174.605786,168.437155 163.042941,180 148.779449,180 L25.8263365,180 C11.5628447,180 7.30987219e-15,168.437155 0,154.173664 L0,31.7979005 C-1.74677396e-15,17.5344087 11.5628447,5.97156398 25.8263365,5.97156398 L92.507,5.971 L89.9589844,3 L201,3 L207,0 Z"/>
            <use fill="#7C7C7C" xlink:href="#c4_akeneo_ext@1x-f"/>
            <use fill="url(#c4_akeneo_ext@1x-g)" fill-opacity=".57" xlink:href="#c4_akeneo_ext@1x-f"/>
            <path fill="#FFF" d="M174.605786,152.164948 C174.605786,167.537823 162.130166,180 146.74071,180 L27.8650752,180 C12.4756191,180 0,167.537823 0,152.164948 L0,27.8350515 C0,12.4621771 12.4756191,0 27.8650752,0 L207,0 L174.605348,32.2868041 L174.605786,152.164948 Z"/>
            <g fill-rule="nonzero" transform="translate(20.5 17.936)">
              <path fill="url(#c4_akeneo_ext@1x-h)" d="M101.780237,132.290909 C102.273518,133.939394 102.684585,135.010909 102.849012,135.42303 C102.931225,135.42303 102.766798,135.42303 102.849012,135.42303 L102.849012,135.42303 L102.849012,135.42303 L102.849012,135.42303 L102.849012,135.42303 C100.382609,100.310303 120.689328,86.3806061 127.841897,63.3018182 C127.924111,62.9721212 128.006324,62.56 128.088538,62.1478788 C128.252964,61.6533333 128.335178,61.0763636 128.417391,60.5818182 C129.568379,54.1527273 127.18419,46.569697 122.498024,38.6569697 C122.498024,38.5745455 122.41581,38.5745455 122.41581,38.4921212 C122.004743,37.8327273 121.593676,37.1733333 121.182609,36.5139394 L121.182609,36.5139394 C120.442688,35.2775758 119.53834,34.0412121 118.716206,32.8048485 C118.633992,32.7224242 118.551779,32.5575758 118.469565,32.3927273 C118.222925,32.0630303 117.976285,31.7333333 117.729644,31.4036364 C117.483004,31.0739394 117.236364,30.7442424 116.989723,30.3321212 C116.743083,30.0024242 116.496443,29.6727273 116.167589,29.3430303 C115.920949,29.0133333 115.592095,28.6836364 115.345455,28.2715152 C115.181028,28.0242424 114.934387,27.7769697 114.76996,27.529697 C107.206324,18.2157576 97.3407115,8.98424242 86.9818182,0.824242424 L86.9818182,0.824242424 L86.9818182,0.824242424 L86.9818182,0.824242424 C86.9818182,0.824242424 86.8996047,0.741818182 86.9818182,0.824242424 C87.9683794,14.0121212 87.7217391,27.2824242 86.0774704,37.750303 C84.1865613,50.4436364 79.0893281,65.0327273 72.3478261,78.2206061 C57.6316206,76.489697 42.7509881,72.6157576 31.1588933,67.1757576 C21.4577075,62.6424242 10.4411067,55.6363636 0,47.3939394 C0.0822134387,48.4654545 0.164426877,49.6193939 0.246640316,50.6909091 C0.246640316,51.0206061 0.328853755,51.350303 0.328853755,51.68 C0.411067194,52.5042424 0.493280632,53.2460606 0.575494071,53.9878788 C0.575494071,54.3175758 0.65770751,54.729697 0.65770751,55.0593939 C0.739920949,55.8836364 0.822134387,56.6254545 0.904347826,57.3672727 C0.904347826,57.6969697 0.986561265,58.0266667 0.986561265,58.3563636 C1.15098814,59.3454545 1.23320158,60.3345455 1.39762846,61.3236364 C1.39762846,61.4060606 1.39762846,61.4884848 1.39762846,61.6533333 C1.56205534,62.8072727 1.72648221,63.9612121 1.89090909,65.0327273 C1.89090909,65.1151515 1.89090909,65.1975758 1.97312253,65.28 C2.13754941,66.2690909 2.30197628,67.2581818 2.46640316,68.329697 C2.46640316,68.5769697 2.5486166,68.7418182 2.5486166,68.9066667 C2.71304348,69.8133333 2.87747036,70.72 3.04189723,71.6266667 C3.12411067,71.7915152 3.12411067,71.9563636 3.12411067,72.1212121 C3.37075099,73.1927273 3.53517787,74.1818182 3.78181818,75.2533333 L3.78181818,75.2533333 C4.52173913,78.550303 5.42608696,81.7648485 6.33043478,84.8145455 C6.33043478,84.8969697 6.33043478,84.8969697 6.33043478,84.8969697 C7.89249012,90.0072727 9.78339921,94.7878788 11.8387352,98.9915152 C12.1675889,99.5684848 12.4964427,100.227879 12.743083,100.804848 L12.743083,100.887273 L12.743083,100.887273 C12.9897233,101.381818 13.3185771,101.958788 13.6474308,102.453333 L13.6474308,102.453333 C13.6474308,102.453333 13.6474308,102.453333 13.6474308,102.535758 C13.9762846,103.112727 14.3051383,103.607273 14.6339921,104.101818 L14.6339921,104.101818 C14.7162055,104.184242 14.7162055,104.266667 14.798419,104.266667 L14.798419,104.266667 C15.2094862,104.926061 15.7027668,105.585455 16.113834,106.162424 C16.1960474,106.244848 16.2782609,106.327273 16.3604743,106.492121 L16.4426877,106.574545 C16.9359684,107.233939 17.5114625,107.893333 18.0047431,108.552727 L18.0047431,108.552727 C18.4158103,108.964848 18.744664,109.37697 19.1557312,109.789091 C19.3201581,109.953939 19.484585,110.118788 19.6490119,110.283636 C19.8956522,110.530909 20.1422925,110.778182 20.3889328,111.025455 C20.5533597,111.190303 20.7177866,111.355152 20.9644269,111.52 C21.2110672,111.767273 21.4577075,111.932121 21.7043478,112.09697 C21.8687747,112.261818 22.115415,112.426667 22.2798419,112.509091 C22.5264822,112.673939 22.7731225,112.921212 23.0197628,113.086061 C23.1841897,113.250909 23.43083,113.333333 23.5952569,113.498182 C23.8418972,113.66303 24.0885375,113.827879 24.4173913,113.992727 C24.5818182,114.075152 24.8284585,114.24 24.9928854,114.322424 C25.3217391,114.487273 25.5683794,114.652121 25.8972332,114.734545 C26.0616601,114.81697 26.226087,114.899394 26.3905138,114.981818 C26.8837945,115.229091 27.3770751,115.393939 27.7881423,115.558788 C28.116996,115.641212 28.3636364,115.806061 28.6102767,115.888485 C51.712253,122.812121 74.7320158,113.827879 102.520158,135.175758"/>
              <g opacity=".8" transform="translate(0 .824)">
                <path fill="url(#c4_akeneo_ext@1x-i)" d="M86.0774704,36.9260606 C84.1865613,49.6193939 79.0893281,64.2084848 72.3478261,77.3963636 C98.4094862,80.4460606 123.731225,76.489697 128.088538,61.2412121 C132.856917,44.5915152 111.316996,19.04 86.9818182,1.17131893e-14 C87.886166,13.3527273 87.6395257,26.3757576 86.0774704,36.9260606 Z" opacity=".51"/>
                <path fill="url(#c4_akeneo_ext@1x-j)" d="M31.1588933,66.3515152 C21.4577075,61.8181818 10.4411067,54.8121212 0,46.569697 C2.30197628,77.4787879 11.5920949,109.624242 28.0347826,114.899394 C43.0798419,119.68 60.4268775,100.804848 72.3478261,77.3963636 C57.6316206,75.7478788 42.7509881,71.7915152 31.1588933,66.3515152 Z" opacity=".51"/>
              </g>
              <g opacity=".7" transform="translate(0 .824)">
                <path fill="url(#c4_akeneo_ext@1x-k)" d="M51.8766798,95.6121212 C13.483004,81.3527273 0,46.569697 0,46.569697 L0,46.569697 C1.39762846,65.5272727 5.42608696,84.8969697 12.1675889,98.3321212 C12.4964427,98.9090909 12.743083,99.4860606 13.0719368,100.06303 C13.0719368,100.145455 13.1541502,100.145455 13.1541502,100.227879 C13.483004,100.722424 13.7296443,101.299394 14.058498,101.793939 C14.058498,101.876364 14.1407115,101.958788 14.2229249,101.958788 C14.5517787,102.453333 14.798419,102.947879 15.1272727,103.442424 C15.2094862,103.524848 15.2094862,103.607273 15.2916996,103.607273 C15.6205534,104.101818 15.8671937,104.513939 16.1960474,105.008485 C16.4426877,105.338182 16.6071146,105.585455 16.7715415,105.832727 C16.8537549,105.915152 16.8537549,105.997576 16.9359684,106.08 C17.1003953,106.244848 17.2648221,106.492121 17.3470356,106.65697 C17.6758893,107.151515 18.0869565,107.563636 18.4158103,107.975758 C21.2932806,111.355152 24.5818182,113.827879 28.116996,114.981818 C28.4458498,115.064242 28.6924901,115.229091 28.9391304,115.311515 C52.0411067,122.235152 75.0608696,113.250909 102.849012,134.598788 C100.711462,131.713939 80.9802372,106.492121 51.8766798,95.6121212 Z"/>
                <path fill="url(#c4_akeneo_ext@1x-l)" d="M128.088538,61.2412121 C132.856917,44.5915152 111.316996,19.04 86.9818182,0 L86.9818182,0 C86.9818182,0 108.192885,30.5793939 98.7383399,70.5551515 C91.4213439,101.381818 102.026877,132.208485 102.849012,134.598788 C102.931225,134.598788 102.766798,134.598788 102.849012,134.598788 L102.849012,134.598788 L102.849012,134.598788 L102.849012,134.598788 L102.849012,134.598788 C100.382609,99.4860606 120.689328,85.5563636 127.841897,62.4775758 C127.841897,62.0654545 127.924111,61.6533333 128.088538,61.2412121 Z"/>
              </g>
            </g>
          </g>
          <path fill="#000" d="M39.5923038,94.6391753 L134.558,179.999175 L25.606208,180 C11.4642898,180 1.13686838e-13,168.555464 1.13686838e-13,154.437913 L1.13686838e-13,138.535175 L39.5923038,94.6391753 Z" opacity=".1"/>
        </g>
        <g filter="url(#c4_akeneo_ext@1x-m)" transform="translate(61 192)">
          <path fill="#CFCFCF" d="M47.5,2.86131387 C21.2664286,2.86131387 0,21.1143504 0,43.6350365 C0,51.2937007 2.50392857,58.4299516 6.78571429,64.5528057 L6.78571429,98 L29.1043527,81.2365839 C34.7636384,83.27527 40.9789286,84.4087591 47.5,84.4087591 C73.7335714,84.4087591 95,66.1557226 95,43.6350365 C95,21.1143504 73.7335714,2.86131387 47.5,2.86131387 Z"/>
          <use fill="#FFF" xlink:href="#c4_akeneo_ext@1x-n"/>
          <use fill="url(#c4_akeneo_ext@1x-o)" fill-opacity=".2" xlink:href="#c4_akeneo_ext@1x-n"/>
          <g fill="#F47C00" fill-rule="nonzero" filter="url(#c4_akeneo_ext@1x-p)" transform="translate(22.143 14.593)">
            <path d="M4.29383117,29.9051563 C5.64664502,36.4666838 6.77218615,42.715086 10.7142857,47.2116788 L3.19534632,47.2116788 C1.43797519,47.2116788 0.0104162554,45.7321276 0,43.8998846 L0,6.54487705 C0.00298497879,4.70712153 1.43271635,3.2189781 3.19534632,3.2189781 L8.62824675,3.2189781 C7.30434398,4.47750027 6.14210735,5.90925247 5.17045455,7.4786112 C0.871212121,14.3476222 2.63798701,21.837242 4.29383117,29.9051563 Z M46.0408983,3.2189781 L37.3908007,3.2189781 C39.4387134,5.32408214 41.1654386,8.04999276 42.4694045,11.439039 L29.3199385,14.291933 C27.8787131,11.4531482 25.6880505,9.09125675 21.402807,10.0196466 C19.0391974,10.533224 17.4716932,11.8961793 16.7771598,13.3889398 C15.9234053,15.2287884 15.5033911,17.2915634 17.5458133,27.094683 C19.5882356,36.8978025 20.7906294,38.6078458 22.3004845,39.934117 C23.527585,41.0064214 25.5068679,41.6018325 27.8704775,41.0882552 C32.1584662,40.1598653 33.2153648,37.0925104 33.4020379,33.9009939 L46.5515038,31.0452781 C46.8617104,38.0378314 44.7561488,43.4614341 41.0391598,47.2116788 L46.0408983,47.2116788 C47.8250375,47.2132627 49.27514,45.7327531 49.2857143,43.8988214 L49.2857143,6.54594477 C49.2826845,4.70649777 47.8303742,3.21741915 46.0408983,3.2189781 Z"/>
          </g>
        </g>
      </g>
    </g>
  </g>
</svg>
