<?xml version="1.0" encoding="utf-8"?>
<svg version="1.1" id="Ebene_1" xmlns="http://www.w3.org/2000/svg" xmlns:xlink="http://www.w3.org/1999/xlink" x="0px" y="0px"
	 viewBox="0 0 180 39" style="enable-background:new 0 0 180 39;" xml:space="preserve">
<style type="text/css">
	.st0{fill:#FBBA00;}
	.st1{fill:#575756;}
</style>
<g id="XMLID_262_">
	<rect id="XMLID_324_" x="0.3" y="2.3" class="st0" width="21.3" height="21.2"/>
	<rect id="XMLID_323_" x="158.7" y="2.3" class="st0" width="21.3" height="21.2"/>
	<path id="XMLID_320_" class="st1" d="M44.9,15H30.1v8.5h-4.3V2.3h19.1c1.2,0,2.1,0.9,2.1,2.1v8.5C47.1,14.1,46.2,15,44.9,15
		 M42.8,6.4H30.1v4.4h12.8V6.4z"/>
	<path id="XMLID_317_" class="st1" d="M66.8,23.5V15H54.1v8.5h-4.3V2.3H69c1.2,0,2.1,0.9,2.1,2.1v6.4c0,1.2-0.9,2.1-2.1,2.1
		c1.2,0,2.1,0.9,2.1,2.1v8.5H66.8z M66.8,6.4H54.1v4.4h12.8V6.4z"/>
	<polygon id="XMLID_316_" class="st1" points="75.1,23.5 75.1,2.3 96.4,2.3 96.4,6.4 79.4,6.4 79.4,10.8 92.1,10.8 92.1,15 79.4,15 
		79.4,19.3 96.4,19.3 96.4,23.5 	"/>
	<rect id="XMLID_315_" x="99.6" y="2.3" class="st1" width="4.3" height="21.2"/>
	<path id="XMLID_314_" class="st1" d="M126.9,23.5h-17c-1.2,0-2.1-0.9-2.1-2.1v-4.8l4.3,0.5v2.2h12.8V15h-14.9c-1.2,0-2.1-1-2.1-2.1
		V4.4c0-1.2,0.9-2.1,2.1-2.1h17c1.2,0,2.1,0.9,2.1,2.1v4.7l-4.3-0.5V6.4h-12.8v4.4h14.9c1.2,0,2.1,1,2.1,2.1v8.5
		C129.1,22.6,128.2,23.5,126.9,23.5"/>
	<path id="XMLID_313_" class="st1" d="M152.2,23.5h-17c-1.2,0-2.1-0.9-2.1-2.1v-4.8l4.3,0.5v2.2h12.8V15h-14.9c-1.2,0-2.1-1-2.1-2.1
		V4.4c0-1.2,0.9-2.1,2.1-2.1h17c1.2,0,2.1,0.9,2.1,2.1v4.7l-4.3-0.5V6.4h-12.8v4.4h14.9c1.2,0,2.1,1,2.1,2.1v8.5
		C154.4,22.6,153.4,23.5,152.2,23.5"/>
</g>
<g>
	<path class="st1" d="M0.3,29h0.8l1.2,6.4h0.3L4.1,29H5l1.5,6.4h0.3L8,29h0.8l-1.4,7.1H5.9L4.6,30l-1.4,6.1H1.8L0.3,29z"/>
	<path class="st1" d="M10,36.1V29h4.3v0.7h-3.6v2.5h2.9v0.7h-2.9v2.6h3.6v0.7H10z"/>
	<path class="st1" d="M16.5,33.4v2.7h-0.8V29h2.6c0.8,0,1.3,0.2,1.7,0.5c0.4,0.4,0.6,0.9,0.6,1.6c0,1.1-0.4,1.8-1.3,2.1l1.4,2.9
		h-0.9l-1.3-2.7H16.5z M18.4,32.7c1,0,1.5-0.5,1.5-1.5c0-1-0.5-1.5-1.5-1.5h-1.8v3H18.4z"/>
	<path class="st1" d="M22.1,29h2.6c0.7,0,1.2,0.1,1.6,0.4c0.4,0.3,0.5,0.8,0.5,1.4c0,0.4-0.1,0.8-0.2,1c-0.2,0.3-0.4,0.4-0.7,0.6
		c0.8,0.3,1.1,0.8,1.1,1.7c0,0.7-0.2,1.2-0.6,1.5c-0.4,0.3-0.9,0.5-1.6,0.5h-2.7V29z M24.7,29.7h-1.8v2.5h1.8c0.4,0,0.8-0.1,1-0.3
		s0.3-0.5,0.3-1c0-0.4-0.1-0.7-0.3-0.9S25.1,29.7,24.7,29.7z M24.7,32.8h-1.8v2.6h1.9c0.5,0,0.8-0.1,1.1-0.3c0.2-0.2,0.4-0.5,0.4-1
		c0-0.3,0-0.5-0.1-0.7c-0.1-0.2-0.2-0.3-0.4-0.4C25.4,32.9,25.1,32.8,24.7,32.8z"/>
	<path class="st1" d="M28.5,36.1V29h4.3v0.7h-3.6v2.5h2.9v0.7h-2.9v2.6h3.6v0.7H28.5z"/>
	<path class="st1" d="M33.5,36.1l2-7.1h1.7l2,7.1h-0.8l-0.5-1.8h-3.1l-0.5,1.8H33.5z M36.1,29.7L35,33.6h2.7l-1.1-3.9H36.1z"/>
	<path class="st1" d="M43,33.2v-0.7h2V36c-0.9,0.2-1.6,0.2-2.3,0.2c-1,0-1.8-0.3-2.2-0.9c-0.4-0.6-0.6-1.5-0.6-2.8s0.2-2.2,0.6-2.8
		c0.4-0.6,1.1-0.9,2.1-0.9c0.6,0,1.3,0.1,2,0.2l0.4,0.1l0,0.7c-0.9-0.1-1.6-0.2-2.2-0.2c-0.8,0-1.3,0.2-1.6,0.7
		c-0.3,0.5-0.4,1.2-0.4,2.3s0.1,1.8,0.4,2.3c0.3,0.5,0.8,0.7,1.6,0.7c0.5,0,1,0,1.5-0.1v-2.2H43z"/>
	<path class="st1" d="M46.6,36.1V29h4.3v0.7h-3.6v2.5h2.9v0.7h-2.9v2.6h3.6v0.7H46.6z"/>
	<path class="st1" d="M52.3,36.1V29h1.5l2.7,6.4h0.2V29h0.8v7.1H56l-2.8-6.4h-0.2v6.4H52.3z"/>
	<path class="st1" d="M58.5,29.7V29h5.2v0.7h-2.2v6.4h-0.8v-6.4H58.5z"/>
	<path class="st1" d="M65.4,34c0,1,0.6,1.5,1.7,1.5c0.6,0,1-0.1,1.3-0.4c0.3-0.2,0.4-0.6,0.4-1.2v-5h0.8v5c0,0.8-0.2,1.4-0.6,1.7
		s-1,0.5-1.9,0.5s-1.4-0.2-1.9-0.5s-0.6-0.9-0.6-1.7v-5h0.8V34z"/>
	<path class="st1" d="M72.1,33.4v2.7h-0.8V29H74c0.8,0,1.3,0.2,1.7,0.5c0.4,0.4,0.6,0.9,0.6,1.6c0,1.1-0.4,1.8-1.3,2.1l1.4,2.9h-0.9
		l-1.3-2.7H72.1z M74,32.7c1,0,1.5-0.5,1.5-1.5c0-1-0.5-1.5-1.5-1.5h-1.8v3H74z"/>
	<path class="st1" d="M79.9,38.4v-9.8h0.6v9.8H79.9z"/>
	<path class="st1" d="M84.5,36.1V29h1.4l2,6l2-6h1.4v7.1h-0.8v-6.3h-0.1l-2.1,6h-0.9l-2.1-6h-0.1v6.3H84.5z"/>
	<path class="st1" d="M93.2,36.1V29h4.3v0.7H94v2.5h2.9v0.7H94v2.6h3.6v0.7H93.2z"/>
	<path class="st1" d="M101.4,36.1h-2.5V29h2.5c1.2,0,1.9,0.5,2.3,1.4c0.2,0.5,0.3,1.2,0.3,2.1c0,1.8-0.4,2.9-1.3,3.4
		C102.4,36,102,36.1,101.4,36.1z M103.3,32.4c0-1.4-0.3-2.2-0.9-2.6c-0.2-0.1-0.6-0.2-0.9-0.2h-1.8v5.7h1.8
		C102.7,35.4,103.3,34.4,103.3,32.4z"/>
	<path class="st1" d="M105.6,36.1V29h0.8v7.1H105.6z"/>
	<path class="st1" d="M108.1,36.1V29h4.3v0.7h-3.6v2.5h2.9v0.7h-2.9v2.6h3.6v0.7H108.1z"/>
	<path class="st1" d="M113.8,36.1V29h1.5l2.7,6.4h0.2V29h0.8v7.1h-1.5l-2.8-6.4h-0.2v6.4H113.8z"/>
	<path class="st1" d="M123.4,33.7h-1.8v2.4h-0.8V29h2.6c0.8,0,1.4,0.2,1.7,0.6c0.4,0.4,0.6,1,0.6,1.7
		C125.7,32.9,124.9,33.7,123.4,33.7z M121.6,33h1.8c1,0,1.5-0.6,1.5-1.7c0-0.6-0.1-1-0.4-1.2c-0.2-0.3-0.6-0.4-1.1-0.4h-1.8V33z"/>
	<path class="st1" d="M127.7,33.4v2.7h-0.8V29h2.6c0.8,0,1.3,0.2,1.7,0.5c0.4,0.4,0.6,0.9,0.6,1.6c0,1.1-0.4,1.8-1.3,2.1l1.4,2.9
		H131l-1.3-2.7H127.7z M129.6,32.7c1,0,1.5-0.5,1.5-1.5c0-1-0.5-1.5-1.5-1.5h-1.8v3H129.6z"/>
	<path class="st1" d="M138.6,32.6c0,1.3-0.2,2.2-0.6,2.8s-1.1,0.9-2.2,0.9s-1.8-0.3-2.2-0.9c-0.4-0.6-0.6-1.5-0.6-2.8
		c0-1.3,0.2-2.2,0.6-2.8s1.1-0.9,2.2-0.9c1.1,0,1.8,0.3,2.2,0.9C138.4,30.4,138.6,31.3,138.6,32.6z M133.8,32.6c0,1,0.1,1.8,0.4,2.3
		c0.3,0.5,0.8,0.7,1.6,0.7c0.8,0,1.3-0.2,1.6-0.7c0.3-0.4,0.4-1.2,0.4-2.3c0-1.1-0.1-1.8-0.4-2.3c-0.3-0.5-0.8-0.7-1.6-0.7
		s-1.3,0.2-1.6,0.7C133.9,30.8,133.8,31.5,133.8,32.6z"/>
	<path class="st1" d="M142.6,36.1h-2.5V29h2.5c1.2,0,1.9,0.5,2.3,1.4c0.2,0.5,0.3,1.2,0.3,2.1c0,1.8-0.4,2.9-1.3,3.4
		C143.6,36,143.1,36.1,142.6,36.1z M144.5,32.4c0-1.4-0.3-2.2-0.9-2.6c-0.2-0.1-0.6-0.2-0.9-0.2h-1.8v5.7h1.8
		C143.9,35.4,144.5,34.4,144.5,32.4z"/>
	<path class="st1" d="M147.5,34c0,1,0.6,1.5,1.7,1.5c0.6,0,1-0.1,1.3-0.4c0.3-0.2,0.4-0.6,0.4-1.2v-5h0.8v5c0,0.8-0.2,1.4-0.6,1.7
		c-0.4,0.4-1,0.5-1.9,0.5s-1.4-0.2-1.9-0.5c-0.4-0.4-0.6-0.9-0.6-1.7v-5h0.8V34z"/>
	<path class="st1" d="M154.2,36.1h-0.8V29h0.8v3.3l1.2,0l1.8-3.3h0.9l-2,3.6l2.2,3.6h-0.9l-1.9-3.2l-1.2,0V36.1z"/>
	<path class="st1" d="M158.5,29.7V29h5.2v0.7h-2.2v6.4h-0.8v-6.4H158.5z"/>
	<path class="st1" d="M164.7,36.1V29h0.8v7.1H164.7z"/>
	<path class="st1" d="M172.6,32.6c0,1.3-0.2,2.2-0.6,2.8s-1.1,0.9-2.2,0.9s-1.8-0.3-2.2-0.9c-0.4-0.6-0.6-1.5-0.6-2.8
		c0-1.3,0.2-2.2,0.6-2.8s1.1-0.9,2.2-0.9c1.1,0,1.8,0.3,2.2,0.9C172.4,30.4,172.6,31.3,172.6,32.6z M167.8,32.6c0,1,0.1,1.8,0.4,2.3
		c0.3,0.5,0.8,0.7,1.6,0.7c0.8,0,1.3-0.2,1.6-0.7c0.3-0.4,0.4-1.2,0.4-2.3c0-1.1-0.1-1.8-0.4-2.3c-0.3-0.5-0.8-0.7-1.6-0.7
		s-1.3,0.2-1.6,0.7C167.9,30.8,167.8,31.5,167.8,32.6z"/>
	<path class="st1" d="M174.1,36.1V29h1.5l2.7,6.4h0.2V29h0.8v7.1h-1.5l-2.8-6.4h-0.2v6.4H174.1z"/>
</g>
</svg>
