<svg xmlns="http://www.w3.org/2000/svg" xml:space="preserve" style="fill-rule:evenodd;clip-rule:evenodd;stroke-linecap:round;stroke-linejoin:round;stroke-miterlimit:10" viewBox="0 0 2336 2295"><path d="M0 0h145.4v142.7H0z" style="fill:#c30c2b;fill-rule:nonzero" transform="translate(-10.961 -13.607)scale(16.2135)"/><g transform="matrix(4.20444 0 0 4.20444 91.664 71.165)"><clipPath id="a"><path d="M0 0h512v512H0z"/></clipPath><g clip-path="url(#a)"><path d="M48 256c0-114.9 93.1-208 208-208 63.1 0 119.6 28.1 157.8 72.5 8.6 10.1 23.8 11.2 33.8 2.6s11.2-23.8 2.6-33.8C403.3 34.6 333.7 0 256 0 114.6 0 0 114.6 0 256v40c0 13.3 10.7 24 24 24s24-10.7 24-24zm458.5-52.9c-2.7-13-15.5-21.3-28.4-18.5s-21.3 15.5-18.5 28.4c2.9 13.9 4.5 28.3 4.5 43.1v40c0 13.3 10.7 24 24 24s24-10.7 24-24v-40c0-18.1-1.9-35.8-5.5-52.9zM256 80c-19 0-37.4 3-54.5 8.6-15.2 5-18.7 23.7-8.3 35.9 7.1 8.3 18.8 10.8 29.4 7.9s21.8-4.4 33.4-4.4c70.7 0 128 57.3 128 128v24.9c0 25.2-1.5 50.3-4.4 75.3-1.7 14.6 9.4 27.8 24.2 27.8 11.8 0 21.9-8.6 23.3-20.3 3.3-27.4 5-55 5-82.7v-24.9c0-97.2-78.8-176-176-176zm-105.3 68.7c-9.1-10.6-25.3-11.4-33.9-.4C93.7 178 80 215.4 80 256v24.9c0 24.2-2.6 48.4-7.8 71.9-3.4 15.6 7.9 31.2 23.9 31.2 10.5 0 19.9-7 22.2-17.3 6.4-28.1 9.7-56.8 9.7-85.8V256c0-27.2 8.5-52.4 22.9-73.1 7.2-10.4 8-24.6-.2-34.2M256 160c-53 0-96 43-96 96v24.9c0 35.9-4.6 71.5-13.8 106.1-3.8 14.3 6.7 29 21.5 29 9.5 0 17.9-6.2 20.4-15.4 10.5-39 15.9-79.2 15.9-119.7V256c0-28.7 23.3-52 52-52s52 23.3 52 52v24.9c0 36.3-3.5 72.4-10.4 107.9-2.7 13.9 7.7 27.2 21.8 27.2 10.2 0 19-7 21-17 7.7-38.8 11.6-78.3 11.6-118.1V256c0-53-43-96-96-96m24 96c0-13.3-10.7-24-24-24s-24 10.7-24 24v24.9c0 59.9-11 119.3-32.5 175.2l-5.9 15.3c-4.8 12.4 1.4 26.3 13.8 31s26.3-1.4 31-13.8l5.9-15.3A536.2 536.2 0 0 0 280 280.9z" style="fill-rule:nonzero"/></g></g><path d="M30.155 55.024q1.863 0 3.194.532c.887.355 1.597.799 2.129 1.42s.976 1.242 1.242 2.041.355 1.508.355 2.396c0 .799-.089 1.597-.355 2.307a4.9 4.9 0 0 1-1.242 2.041c-.532.621-1.242 1.065-2.129 1.42q-1.33.532-3.194.532h-4.614v7.098h-4.348V55.024zm-1.153 9.405c.532 0 .976 0 1.42-.089s.887-.177 1.242-.444c.355-.177.621-.532.887-.887a3.4 3.4 0 0 0 .355-1.508c0-.621-.089-1.153-.355-1.508a2.13 2.13 0 0 0-.887-.887 5.2 5.2 0 0 0-1.242-.444c-.443-.089-.976-.089-1.42-.089H25.63v5.945zm14.285-9.405v16.148h9.671v3.638H38.939V55.024zm26.352 0v3.638h-10.47v4.259h9.583v3.372h-9.583v4.88h10.736v3.638H54.821V55.024zm7.187 0 8.252 13.309h.089V55.024h4.081v19.875H84.9L76.648 61.59v13.309h-4.081V55.024zm14.108 3.727v-3.638h16.237v3.638h-5.856v16.148h-4.436V58.75zm25.82-3.727 7.453 19.875h-4.525l-1.508-4.436h-7.453l-1.597 4.436h-4.348l7.542-19.875zm.266 12.244-2.484-7.276h-.089l-2.573 7.276zM23.944 87.143c-.089.355-.266.532-.621.532h-.266c-.355 0-.532-.089-.621-.532l-1.153-4.969v-.266c0-.089.089-.177.177-.177h.621c.089 0 .177.089.266.177l.976 4.703 1.153-4.259c.089-.355.177-.444.532-.444h.177c.355 0 .444.089.532.444l1.153 4.259c.089-.71.266-1.42.976-4.703q0-.266.266-.266h.621c.089 0 .089.089.089.177s0 .177-.089.266l-1.153 4.969c-.089.355-.177.532-.621.532h-.177c-.444 0-.532-.177-.621-.532l-1.065-4.17c-.266.71-.444 1.331-1.153 4.259zm8.252.444c-.532 0-.887-.177-.887-.887v-4.17c0-.621.266-.887.887-.887h2.484c.089 0 .177.089.177.177v.532c0 .089-.089.177-.177.177h-2.129c-.177 0-.266.089-.266.355v1.242h2.129c.089 0 .177.089.177.177v.444c0 .089-.089.177-.177.177h-2.129v1.42c0 .266.089.355.355.355h2.129c.089 0 .177.089.177.177v.444c0 .089-.089.177-.177.177l-2.573.089zm6.477 0q-.798 0-.799-.799v-4.17c0-.532.266-.887.799-.887h.976c.266 0 .71 0 .887.089.976.089 1.331.532 1.331 1.42 0 .71-.266 1.153-.887 1.331.71.177 1.065.532 1.065 1.42 0 .71-.177 1.242-.799 1.508a6.6 6.6 0 0 1-1.597.177zm.976-3.46c.355 0 .621 0 .799-.089.266-.089.444-.355.444-.799 0-.532-.266-.71-.532-.799-.089-.089-.355-.089-.621-.089h-.621c-.177 0-.266.089-.266.355v1.331c-.089.089.799.089.799.089zm-.887 2.307c0 .266.089.355.355.355h.71c.355 0 .71 0 .799-.089.266-.089.444-.355.444-.887 0-.444-.177-.621-.444-.799-.177-.089-.444-.089-.799-.089h-.976v1.508zm12.688 1.153c-.532 0-.887-.177-.887-.887v-4.17c0-.621.266-.887.887-.887h2.484c.089 0 .177.089.177.177v.532c0 .089-.089.177-.177.177h-2.129c-.177 0-.266.089-.266.355v1.242h2.129c.089 0 .177.089.177.177v.444c0 .089-.089.177-.177.177h-2.129v1.42c0 .266.089.355.355.355h2.218c.089 0 .177.089.177.177v.444c0 .089-.089.177-.177.177l-2.662.089zm6.3 0h-.532c-.089 0-.177-.089-.177-.266v-5.057c0-.444.177-.71.621-.71h.266c.355 0 .532.177.621.532l2.129 4.259v-4.436q0-.266.266-.266h.532c.177 0 .177.089.177.266v5.146c0 .444-.266.532-.532.532h-.177c-.444 0-.532-.177-.71-.532l-2.218-4.259v4.614c0 .089-.089.177-.266.177m9.052 0h-.534c-.089 0-.177-.089-.177-.266V82.53h-1.508c-.089 0-.177-.089-.177-.177v-.444c0-.177.089-.177.177-.177h3.904c.089 0 .177.089.177.177v.444c0 .089-.089.177-.177.177h-1.508v4.791c0 .177-.089.266-.177.266m6.741-.444c-.089.355-.266.532-.621.532h-.266c-.355 0-.532-.089-.621-.532l-1.153-4.969v-.266c0-.089.089-.177.177-.177h.621c.089 0 .177.089.266.177l.976 4.703 1.153-4.259c.089-.355.177-.444.532-.444h.177c.355 0 .444.089.532.444l1.153 4.259c.089-.71.266-1.42.976-4.703q0-.266.266-.266h.621c.089 0 .089.089.089.177s0 .177-.089.266l-1.242 4.969c-.089.355-.177.532-.621.532h-.177c-.444 0-.532-.177-.621-.532l-1.065-4.17c-.089.71-.266 1.331-1.065 4.259zm8.163.444h-.532c-.089 0-.177-.089-.177-.266V81.82c0-.089.089-.266.177-.266h.532a.14.14 0 0 1 .177.177v5.501c0 .266-.089.355-.177.355m5.59-.71c.532 0 .887-.089 1.153-.177.089 0 .177-.089.266-.089s.089 0 .177.089.089.355.089.444-.089.177-.177.177a5.2 5.2 0 0 1-1.686.266c-1.42 0-2.307-.71-2.307-2.928s.621-3.194 2.484-3.194c.532 0 1.065.089 1.42.089.089 0 .177.089.177.177s-.089.355-.089.532c0 .089-.089.089-.177.089s-.177 0-.266-.089c-.266-.089-.532-.089-.976-.089-1.331 0-1.597.799-1.597 2.218 0 1.686.266 2.484 1.508 2.484zm4.969.71h-.532c-.089 0-.177-.089-.177-.266V81.82c0-.089.089-.266.177-.266h.532a.14.14 0 0 1 .177.177v2.218h.532c.177 0 .266-.089.355-.177l1.42-2.129c.089-.089.177-.177.266-.177h.532c.089 0 .177.089.177.177s-.089.177-.089.177l-1.686 2.484c.177.355.532.71 1.775 2.662.089.089.089.177.089.266s-.089.089-.089.177h-.71c-.089 0-.177-.089-.266-.177l-1.42-2.129c-.089-.089-.177-.089-.355-.089h-.532v2.396c.089.089 0 .177-.177.177zm7.098 0q-.798 0-.799-.799v-4.88c0-.089.089-.266.177-.266h.532a.14.14 0 0 1 .177.177v4.525c0 .177.089.355.355.355h2.129c.089 0 .177.089.177.177v.444c0 .089-.089.177-.177.177h-2.573v.089zm9.494-2.396c0 .799-.089 1.331-.266 1.686-.355.532-.976.799-2.041.799-.887 0-1.686-.177-1.952-.887-.177-.355-.177-.976-.177-1.597V81.82c0-.089.089-.177.177-.177h.532c.089 0 .177.089.177.177v3.638c0 .444 0 .799.177.976.177.266.532.355 1.065.355.355 0 .887-.089 1.065-.355.089-.177.177-.532.177-.976V81.82c0-.089.089-.177.177-.177h.532c.089 0 .177.089.177.177l.177 3.372zm3.904 2.396h-.532c-.089 0-.177-.089-.177-.266v-5.057c0-.444.177-.71.621-.71h.266c.355 0 .532.177.621.532l2.129 4.259v-4.436q0-.266.266-.266h.532c.177 0 .177.089.177.266v5.146c0 .444-.266.532-.532.532h-.177c-.444 0-.532-.177-.71-.532l-2.218-4.259v4.614c-.089.089-.177.177-.266.177m11.268-.355-.177.177a7.8 7.8 0 0 1-1.952.266c-1.508 0-2.396-.71-2.396-2.928s.71-3.194 2.662-3.194c.532 0 1.153.089 1.508.089.177.089.177.089.177.177s-.089.355-.089.532c0 .089-.089.089-.177.089h-.266c-.266-.089-.621-.089-1.153-.089-1.331 0-1.686.799-1.686 2.218s.266 2.307 1.508 2.307c.532 0 .799-.089 1.065-.089.089 0 .177-.089.177-.266V85.28h-1.153c-.089 0-.177-.089-.177-.177v-.532c0-.089.089-.177.177-.177h1.775c.089 0 .177.089.177.177v2.662z" style="fill:#fff;fill-rule:nonzero" transform="translate(-10.961 -13.607)scale(16.2135)"/><path d="m45.682 82.086 1.242 2.573m0 0-1.242 2.573" style="fill-rule:nonzero;stroke:#fff;stroke-width:.78px" transform="translate(-10.864 -12.591)scale(16.2135)"/></svg>