<?xml version="1.0" encoding="utf-8"?>
<svg version="1.1" id="Layer_1" xmlns="http://www.w3.org/2000/svg" xmlns:xlink="http://www.w3.org/1999/xlink" x="0px" y="0px"
	 viewBox="0 0 128 128" style="enable-background:new 0 0 128 128;" xml:space="preserve">
<style type="text/css">
	.st0{fill:#CFF1FB;}
	.st1{fill:#91DEF5;}
	.st2{fill:#F6F7F7;}
	.st3{fill:#FFCFB8;}
	.st4{fill:#FFA77B;}
	.st5{fill:#E9EAEB;}
	.st6{fill:#746887;}
	.st7{fill:#F98770;}
	.st8{fill:#9B9B9B;}
	.st9{fill:#FFDDCF;}
	.st10{fill:#FFFFFF;}
	.st11{fill:#B7B7B7;}
	.st12{fill:#FFBC99;}
	.st13{fill:#DBDCDE;}
	.st14{fill:#FECFBA;}
	.st15{fill:#D0F1FA;}
	.st16{fill:#FDA77F;}
	.st17{fill:#94DEF4;}
</style>
<g>
	<g>
		<path class="st2" d="M115.57,4.5H55.509v20c0,1.66-1.338,3-2.997,3H15.426v96c0,1.66,1.338,3,2.997,3h83.863l16.281-16.3V7.5
			C118.566,5.84,117.228,4.5,115.57,4.5z"/>
		<g>
			<path class="st13" d="M33.535,75.685c0,5.673,3.379,10.266,7.556,10.266V65.419C36.913,65.419,33.535,70.012,33.535,75.685z"/>
			<path class="st13" d="M92.902,65.419v20.532c4.177,0,7.556-4.593,7.556-10.266C100.457,70.012,97.079,65.419,92.902,65.419z"/>
			<path class="st13" d="M56.202,96.758c0,1.79,1.45,3.242,3.238,3.242h16.191c1.788,0,3.238-1.451,3.238-3.242v-3.242H56.202
				V96.758z"/>
			<path class="st0" d="M86.36,57.855H47.632c-3.616,0-6.541,2.929-6.541,6.549v22.564c0,3.62,2.925,6.549,6.541,6.549H86.36
				c3.616,0,6.541-2.929,6.541-6.549V64.404C92.902,60.783,89.976,57.855,86.36,57.855z"/>
			<g>
				<ellipse class="st13" cx="55.662" cy="72.444" rx="4.857" ry="4.863"/>
				<ellipse class="st13" cx="78.33" cy="72.444" rx="4.857" ry="4.863"/>
			</g>
			<ellipse class="st13" cx="66.996" cy="38.944" rx="5.937" ry="5.944"/>
		</g>
		<path class="st5" d="M102.281,113.196V126.5l16.286-16.304h-13.289C103.623,110.196,102.281,111.539,102.281,113.196z"/>
		<path class="st4" d="M52.513,1.5H11.56c-1.658,0-2.997,1.34-2.997,3v20c0,1.66,1.338,3,2.997,3h40.953c1.658,0,2.997-1.34,2.997-3
			v-20C55.509,2.84,54.171,1.5,52.513,1.5z"/>
	</g>
	<g>
		<g>
			<path class="st7" d="M41.09,63.919c-4.992,0-9.054,5.278-9.054,11.766s4.062,11.766,9.054,11.766c0.828,0,1.498-0.671,1.498-1.5
				V65.419C42.589,64.591,41.918,63.919,41.09,63.919z M39.592,84.18c-2.618-0.967-4.559-4.409-4.559-8.495s1.942-7.527,4.559-8.495
				V84.18z"/>
			<path class="st7" d="M92.902,63.919c-0.828,0-1.498,0.671-1.498,1.5v20.532c0,0.829,0.671,1.5,1.498,1.5
				c4.992,0,9.054-5.278,9.054-11.766S97.894,63.919,92.902,63.919z M94.4,84.18V67.191c2.618,0.967,4.559,4.409,4.559,8.495
				S97.018,83.213,94.4,84.18z"/>
			<path class="st7" d="M78.87,92.016H56.202c-0.828,0-1.498,0.671-1.498,1.5v3.242c0,2.615,2.125,4.742,4.737,4.742h16.191
				c2.612,0,4.737-2.127,4.737-4.742v-3.242C80.368,92.688,79.697,92.016,78.87,92.016z M77.371,96.758
				c0,0.96-0.781,1.742-1.74,1.742H59.44c-0.959,0-1.74-0.781-1.74-1.742v-1.742h19.671V96.758z"/>
			<path class="st6" d="M86.36,56.355H47.632c-4.433,0-8.04,3.61-8.04,8.048v22.564c0,4.438,3.607,8.049,8.04,8.049H86.36
				c4.433,0,8.04-3.611,8.04-8.049V64.403C94.4,59.965,90.793,56.355,86.36,56.355z M91.403,86.967c0,2.784-2.263,5.049-5.043,5.049
				H47.632c-2.78,0-5.043-2.265-5.043-5.049V64.403c0-2.784,2.263-5.048,5.043-5.048H86.36c2.78,0,5.043,2.265,5.043,5.048V86.967z"
				/>
			<path class="st6" d="M71.186,53.17l-4.441-1.27l0.542-0.362c0.373-0.249,0.615-0.652,0.66-1.099l0.54-5.403
				c0.082-0.824-0.518-1.56-1.342-1.642c-0.82-0.081-1.558,0.519-1.64,1.343l-0.469,4.698l-2.649,1.768
				c-0.486,0.324-0.739,0.902-0.649,1.479c0.09,0.578,0.507,1.05,1.069,1.211l4.655,1.331l-1.904,1.43
				c-0.662,0.497-0.796,1.438-0.3,2.1c0.295,0.393,0.744,0.6,1.2,0.6c0.313,0,0.629-0.098,0.898-0.3l4.318-3.242
				c0.456-0.342,0.678-0.913,0.575-1.473S71.733,53.327,71.186,53.17z"/>
			<g>
				<path class="st6" d="M55.662,66.081c-3.504,0-6.355,2.854-6.355,6.363c0,3.509,2.851,6.363,6.355,6.363s6.355-2.854,6.355-6.363
					C62.018,68.935,59.167,66.081,55.662,66.081z M55.662,75.807c-1.852,0-3.359-1.509-3.359-3.363s1.507-3.363,3.359-3.363
					c1.852,0,3.359,1.508,3.359,3.363S57.515,75.807,55.662,75.807z"/>
				<path class="st6" d="M78.33,66.081c-3.504,0-6.355,2.854-6.355,6.363c0,3.509,2.851,6.363,6.355,6.363
					c3.504,0,6.355-2.854,6.355-6.363C84.685,68.935,81.834,66.081,78.33,66.081z M78.33,75.807c-1.852,0-3.359-1.509-3.359-3.363
					s1.507-3.363,3.359-3.363c1.852,0,3.359,1.508,3.359,3.363S80.182,75.807,78.33,75.807z"/>
			</g>
			<path class="st6" d="M73.472,85.532H60.52c-0.828,0-1.498,0.671-1.498,1.5s0.671,1.5,1.498,1.5h12.953
				c0.828,0,1.498-0.671,1.498-1.5S74.3,85.532,73.472,85.532z"/>
			<path class="st7" d="M66.996,31.5c-4.1,0-7.435,3.339-7.435,7.443s3.335,7.444,7.435,7.444c4.1,0,7.435-3.339,7.435-7.444
				S71.096,31.5,66.996,31.5z M66.996,43.387c-2.447,0-4.438-1.994-4.438-4.444s1.991-4.443,4.438-4.443
				c2.447,0,4.438,1.993,4.438,4.443S69.443,43.387,66.996,43.387z"/>
		</g>
		<path class="st6" d="M118.566,23.06c-0.828,0-1.498,0.671-1.498,1.5v85.02L101.665,125H18.422c-0.826,0-1.498-0.673-1.498-1.5
			v-7.784c0-0.829-0.671-1.5-1.498-1.5s-1.498,0.671-1.498,1.5v7.784c0,2.481,2.016,4.5,4.495,4.5h83.863
			c0.397,0,0.778-0.158,1.059-0.439l16.281-16.3c0.281-0.281,0.439-0.663,0.439-1.061V24.56
			C120.065,23.731,119.394,23.06,118.566,23.06z"/>
		<path class="st6" d="M115.57,3H55.509c-0.828,0-1.498,0.671-1.498,1.5v20c0,0.827-0.672,1.5-1.498,1.5H15.426
			c-0.828,0-1.498,0.671-1.498,1.5v80.241c0,0.829,0.671,1.5,1.498,1.5s1.498-0.671,1.498-1.5V29h35.589
			c2.479,0,4.495-2.019,4.495-4.5V6h58.562c0.826,0,1.498,0.673,1.498,1.5v9.072c0,0.829,0.671,1.5,1.498,1.5
			c0.828,0,1.498-0.671,1.498-1.5V7.5C120.065,5.019,118.048,3,115.57,3z"/>
		<path class="st6" d="M118.567,108.696h-13.289c-2.479,0-4.495,2.019-4.495,4.5V126.5c0,0.607,0.365,1.154,0.925,1.386
			c0.185,0.077,0.38,0.114,0.573,0.114c0.39,0,0.774-0.152,1.06-0.439l16.285-16.304c0.429-0.429,0.557-1.074,0.325-1.635
			C119.719,109.061,119.173,108.696,118.567,108.696z M103.78,122.879v-9.683c0-0.827,0.672-1.5,1.498-1.5h9.672L103.78,122.879z"/>
		<path class="st6" d="M23.546,9h-7.991c-0.828,0-1.498,0.671-1.498,1.5s0.671,1.5,1.498,1.5h7.991c0.828,0,1.498-0.671,1.498-1.5
			S24.374,9,23.546,9z"/>
		<path class="st6" d="M19.551,9c-0.828,0-1.498,0.671-1.498,1.5v9c0,0.829,0.671,1.5,1.498,1.5s1.498-0.671,1.498-1.5v-9
			C21.049,9.671,20.378,9,19.551,9z"/>
		<path class="st6" d="M48.517,9h-7.991c-0.828,0-1.498,0.671-1.498,1.5s0.671,1.5,1.498,1.5h7.991c0.828,0,1.498-0.671,1.498-1.5
			S49.345,9,48.517,9z"/>
		<path class="st6" d="M44.522,9c-0.828,0-1.498,0.671-1.498,1.5v9c0,0.829,0.671,1.5,1.498,1.5c0.828,0,1.498-0.671,1.498-1.5v-9
			C46.02,9.671,45.35,9,44.522,9z"/>
		<path class="st6" d="M36.452,9.316c-0.655-0.509-1.594-0.391-2.103,0.263l-6.992,9c-0.508,0.654-0.39,1.596,0.263,2.105
			C27.894,20.897,28.218,21,28.539,21c0.446,0,0.888-0.199,1.184-0.579l6.992-9C37.223,10.767,37.105,9.825,36.452,9.316z"/>
		<path class="st6" d="M29.723,9.579c-0.509-0.654-1.449-0.772-2.103-0.263c-0.653,0.509-0.771,1.451-0.263,2.105l6.992,9
			C34.645,20.801,35.087,21,35.533,21c0.321,0,0.645-0.103,0.919-0.316c0.653-0.509,0.771-1.451,0.263-2.105L29.723,9.579z"/>
		<path class="st7" d="M52.513,0H35.392c-0.828,0-1.498,0.671-1.498,1.5S34.564,3,35.392,3h17.121c0.826,0,1.498,0.673,1.498,1.5v20
			c0,0.827-0.672,1.5-1.498,1.5H11.56c-0.826,0-1.498-0.673-1.498-1.5v-20c0-0.827,0.672-1.5,1.498-1.5h16.114
			c0.828,0,1.498-0.671,1.498-1.5S28.501,0,27.674,0H11.56C9.081,0,7.065,2.019,7.065,4.5v20c0,2.481,2.016,4.5,4.495,4.5h40.953
			c2.479,0,4.495-2.019,4.495-4.5v-20C57.008,2.019,54.991,0,52.513,0z"/>
	</g>
</g>
<g>
</g>
</svg>
