<svg xmlns="http://www.w3.org/2000/svg" xml:space="preserve" style="fill-rule:evenodd;clip-rule:evenodd;stroke-linejoin:round;stroke-miterlimit:2" viewBox="0 0 1024 1024"><path d="M3.185 3.317H185.4V144.2H3.185z" style="fill:#3c3c3c" transform="matrix(5.61975 0 0 7.26842 -17.899 -24.107)"/><path d="M141.023 12.353c-5.233 0-8.995 1.046-8.995 5.614v.834c0 2.469.919 4.985 4.186 6.153l5.523 2.093c1.881.714 2.42 1.385 2.42 2.389v.418c0 1.464-.884 1.815-3.685 1.815h-8.154c-.502 0-.672.205-.672.665v2.595c0 .381.127.605.605.605 1.38.127 4.525.375 8.167.375 5.481 0 8.663-1.089 8.663-5.856v-.544c0-2.595-.605-4.731-4.271-6.116l-5.481-2.008c-1.76-.672-2.305-1.464-2.305-2.469v-.502c0-1.3 1.005-1.845 2.765-1.845h7.701c.46 0 .671-.205.671-.605v-2.48c0-.375-.211-.605-.605-.665a42.262 42.262 0 0 0-6.533-.466m-17.102.212a.56.56 0 0 0-.605.605v21.916l-.002.051a.56.56 0 0 0 .607.554h3.811l.058.003a.552.552 0 0 0 .547-.608V13.194a.552.552 0 0 0-.605-.605l-3.811-.024Zm1.924-9.504c-1.966 0-3.055 1.047-3.055 2.892s1.089 2.885 3.055 2.885c1.966 0 3.025-1.046 3.025-2.885 0-1.839-1.047-2.892-3.025-2.892m-11.923 13.69v14.482a33.6 33.6 0 0 1-4.562.254c-4.688 0-5.317-1.379-5.317-7.368 0-5.735.46-7.368 5.069-7.368h4.81Zm-4.646-4.398c-8.415 0-10.339 2.389-10.339 11.597 0 9.461 1.882 11.971 9.631 11.971a31.262 31.262 0 0 0 5.354-.375v.212c0 3.303-1.004 4.307-5.191 4.307h-6.527c-.417 0-.605.169-.605.605v2.474a.645.645 0 0 0 .605.666 48.37 48.37 0 0 0 6.866.459c8.5 0 9.921-2.637 9.963-9.921V13.944c.002-.018.002-.037.002-.055a.784.784 0 0 0-.78-.78h-.02a48.558 48.558 0 0 0-8.917-.756" style="fill:#fff;fill-rule:nonzero" transform="translate(130.99 651.247) scale(5.08255)"/><path d="M75.073.49c-.509 0-.738.091-.829.46l-6.122 21.269a5.873 5.873 0 0 0-.327 1.567v2.486c0 .509.23.696.69.696h15.523v8.058a.608.608 0 0 0 .689.665h4.555a.608.608 0 0 0 .696-.689v-8.034h5.481c.502 0 .732-.187.732-.696v-3.817c0-.417-.23-.647-.732-.647h-5.481V11.173c0-.605-.327-.695-.829-.508l-4.561 1.609a.806.806 0 0 0-.55.829v8.705h-9.813l5.899-20.489c.139-.508.042-.829-.509-.829h-4.512Z" style="fill:#2ea1db;fill-rule:nonzero" transform="translate(130.99 651.247) scale(5.08255)"/><path d="M54.771 12.353a50.084 50.084 0 0 0-9.377.671c-.381.085-.605.127-.605.672v21.39c0 .418.164.605.605.605h3.848a.56.56 0 0 0 .607-.554l-.002-.051V16.751h4.839c3.932 0 4.9.254 4.9 6.448v11.887a.553.553 0 0 0 .605.605h3.769a.608.608 0 0 0 .671-.601V22.274c0-8.748-2.135-9.921-9.878-9.921m-23.847 4.398c4.477 0 5.106 1.464 5.106 7.41 0 5.947-.605 7.368-5.106 7.368-4.501 0-5.112-1.464-5.112-7.368s.605-7.41 5.112-7.41m0-4.398c-8.372 0-10.175 2.347-10.175 11.808s1.815 11.76 10.175 11.76c8.36 0 10.211-2.341 10.211-11.76s-1.814-11.808-10.211-11.808m-19.884 0C2.522 12.353.847 14.7.847 24.119s1.675 11.802 10.175 11.802a42.538 42.538 0 0 0 6.612-.46.68.68 0 0 0 .609-.674c0-.025-.002-.05-.004-.076v-2.552c0-.424-.212-.605-.672-.605h-6.545c-4.483 0-5.07-1.507-5.07-7.411s.605-7.368 5.07-7.368h6.569c.46 0 .672-.212.672-.605v-2.601a.673.673 0 0 0-.605-.75 42.658 42.658 0 0 0-6.612-.466" style="fill:#fff;fill-rule:nonzero" transform="translate(130.99 651.247) scale(5.08255)"/><path d="M1074.58 4888.18c-3.48-57.94-5.24-116.34-5.24-175.14 0-1593.03 1293.33-2886.36 2886.36-2886.36 145.35 0 288.2 10.76 427.8 31.54l-742.88 2522.07a957.135 957.135 0 0 0-57.43 282.37v478.6c0 90.93 43.07 124.43 124.43 124.43h1383.97c-103.49 721.96-725.12 1277.63-1475.52 1277.63-822.71 0-1490.65-667.94-1490.65-1490.66 0-716.71 506.89-1315.96 1181.43-1458.49l322.58-1088.21c-4.45-.02-8.9-.03-13.36-.03-1350.32 0-2456.6 1053.19-2541.49 2382.25Z" style="fill:#2fa0da" transform="matrix(.07909 0 0 .07909 199.152 3.284)"/><path d="M5354.14 2187.96c887.06 492.7 1487.91 1439.27 1487.91 2525.08 0 1593.02-1293.33 2886.35-2886.35 2886.35-58.81 0-117.21-1.76-175.14-5.23C5039 7513.78 6050.12 6517.65 6154.01 5265.69h377.31v-971.55H4746.17l607.97-2106.18Z" style="fill:#fff" transform="matrix(.07909 0 0 .07909 199.152 3.284)"/></svg>