<svg id="Ebene_1" xmlns="http://www.w3.org/2000/svg" viewBox="0 0 500 500"><style>.st0{fill:#333a46}.st3{fill:#7abfbc}.st4{fill:none;stroke:#fff;stroke-width:8.5039;stroke-miterlimit:10}</style><path class="st0" d="M405.5 432.2H0L94.5 67.8H500z"/><path fill="none" d="M0 431h404v60H0z"/><path class="st0" d="M167.2 477.4c0 3.4 1.1 4.5 2.9 5.3l-1.4 4.7c-3.5-.4-5.8-2-6.9-5.8-2.5 4.1-6.2 5.8-10.5 5.8-7 0-11.2-4.8-11.2-11.8 0-8.4 5.7-12.9 15.5-12.9h5.4v-2.9c0-5.6-2.5-7.7-7.3-7.7-2.6 0-5.9.7-9.5 2.1l-1.5-5c4.3-1.8 8.2-2.7 12.1-2.7 8.5 0 12.3 4.8 12.3 13v17.9zm-6.1-1.2v-9h-4.6c-6.5 0-9.7 2.7-9.7 8 0 4.6 2.1 7 6.1 7 3.5.1 6.2-1.9 8.2-6zM222.9 458.5v28h-6.1v-27c0-5.8-2.3-7.5-4.9-7.5-3.8 0-5.9 2.7-8.3 6.9v27.7h-6.1v-27c0-5.8-2.3-7.5-4.9-7.5-3.8 0-5.9 2.7-8.3 6.9v27.7h-6.1v-39h5.3l.5 5.7c2.3-3.9 5.5-6.6 10.1-6.6 4.3 0 7.5 2.6 8.9 7 2.5-4.2 5.7-7 10.5-7 5.6-.2 9.4 4.4 9.4 11.7zM262.6 467c0 11.8-4.7 20.4-13.8 20.4-3.8 0-6.9-1.4-9.2-4.4v18.5l-6.1.8v-54.8h5.3l.5 5.3c2.6-4 6.4-6.1 10.4-6.1 9.3-.1 12.9 8 12.9 20.3zm-6.6 0c0-10.1-2.7-14.9-7.9-14.9-3.7 0-6.6 3-8.5 6.1v19c1.8 3 4.5 4.7 7.7 4.7 5.7-.1 8.7-4.7 8.7-14.9z"/><path d="M301.7 127H198.3c-9.9 0-17.9 8.1-17.9 17.9v210.2c0 9.9 8 17.9 17.9 17.9h103.5c9.9 0 17.9-8 17.9-17.9V144.9c-.1-9.8-8.1-17.9-18-17.9zm-77.2 10.9h51.1c1.3 0 2.3 1.9 2.3 4.3s-1.1 4.3-2.3 4.3h-51.1c-1.3 0-2.4-1.9-2.4-4.3s1.1-4.3 2.4-4.3zm81.7 178.2H193.8V157.3h112.5v158.8zm0 0" fill="#fff"/><path class="st3" d="M208 170h85v20h-85z"/><path class="st4" d="M208 207h85M208 229.5h85M208 252h85M208 274.5h85M208 297h68.5"/><path class="st3" d="M250 358.9c-8.3 0-15-6.7-15-15s6.7-15 15-15 15 6.7 15 15-6.7 15-15 15z"/></svg>