<?xml version="1.0" encoding="utf-8"?>
<svg version="1.1" id="Ebene_1" xmlns="http://www.w3.org/2000/svg" xmlns:xlink="http://www.w3.org/1999/xlink" x="0px" y="0px"
	 viewBox="0 0 500 500" style="enable-background:new 0 0 500 500;" xml:space="preserve">
<style type="text/css">
	.st0{fill:#333A46;}
	.st1{fill:none;}
	.st2{fill:#FFFFFF;}
	.st3{fill:#7ABFBC;}
	.st4{fill:none;stroke:#FFFFFF;stroke-width:8.5039;stroke-miterlimit:10;}
</style>
<g>
	<polygon class="st0" points="405.5,432.2 0,432.2 94.5,67.8 500,67.8 	"/>
</g>
<g>
	<rect y="431" class="st1" width="404" height="60"/>
	<path class="st0" d="M167.2,477.4c0,3.4,1.1,4.5,2.9,5.3l-1.4,4.7c-3.5-0.4-5.8-2-6.9-5.8c-2.5,4.1-6.2,5.8-10.5,5.8
		c-7,0-11.2-4.8-11.2-11.8c0-8.4,5.7-12.9,15.5-12.9h5.4v-2.9c0-5.6-2.5-7.7-7.3-7.7c-2.6,0-5.9,0.7-9.5,2.1l-1.5-5
		c4.3-1.8,8.2-2.7,12.1-2.7c8.5,0,12.3,4.8,12.3,13V477.4z M161.1,476.2v-9h-4.6c-6.5,0-9.7,2.7-9.7,8c0,4.6,2.1,7,6.1,7
		C156.4,482.3,159.1,480.3,161.1,476.2z"/>
	<path class="st0" d="M222.9,458.5v28h-6.1v-27c0-5.8-2.3-7.5-4.9-7.5c-3.8,0-5.9,2.7-8.3,6.9v27.7h-6.1v-27c0-5.8-2.3-7.5-4.9-7.5
		c-3.8,0-5.9,2.7-8.3,6.9v27.7h-6.1v-39h5.3l0.5,5.7c2.3-3.9,5.5-6.6,10.1-6.6c4.3,0,7.5,2.6,8.9,7c2.5-4.2,5.7-7,10.5-7
		C219.1,446.6,222.9,451.2,222.9,458.5z"/>
	<path class="st0" d="M262.6,467c0,11.8-4.7,20.4-13.8,20.4c-3.8,0-6.9-1.4-9.2-4.4v18.5l-6.1,0.8v-54.8h5.3l0.5,5.3
		c2.6-4,6.4-6.1,10.4-6.1C259,446.6,262.6,454.7,262.6,467z M256,467c0-10.1-2.7-14.9-7.9-14.9c-3.7,0-6.6,3-8.5,6.1v19
		c1.8,3,4.5,4.7,7.7,4.7C253,481.8,256,477.2,256,467z"/>
</g>
<g>
	<path class="st2" d="M301.7,127H198.3c-9.9,0-17.9,8.1-17.9,17.9v210.2c0,9.9,8,17.9,17.9,17.9h103.5c9.9,0,17.9-8,17.9-17.9V144.9
		C319.6,135.1,311.6,127,301.7,127L301.7,127z M224.5,137.9h51.1c1.3,0,2.3,1.9,2.3,4.3c0,2.4-1.1,4.3-2.3,4.3h-51.1
		c-1.3,0-2.4-1.9-2.4-4.3C222.1,139.8,223.2,137.9,224.5,137.9L224.5,137.9z M306.2,316.1H193.8V157.3h112.5V316.1z M306.2,316.1"/>
</g>
<rect x="208" y="170" class="st3" width="85" height="20"/>
<line class="st4" x1="208" y1="207" x2="293" y2="207"/>
<line class="st4" x1="208" y1="229.5" x2="293" y2="229.5"/>
<line class="st4" x1="208" y1="252" x2="293" y2="252"/>
<line class="st4" x1="208" y1="274.5" x2="293" y2="274.5"/>
<line class="st4" x1="208" y1="297" x2="276.5" y2="297"/>
<path class="st3" d="M250,358.9c-8.3,0-15-6.7-15-15c0-8.3,6.7-15,15-15c8.3,0,15,6.7,15,15C265,352.2,258.3,358.9,250,358.9
	L250,358.9z"/>
</svg>