<svg xmlns="http://www.w3.org/2000/svg" viewBox="0 0 191.8 150"><title>import_c4g</title><g id="Ebene_10" data-name="Ebene 10"><path d="M59.65,105.39a1.59,1.59,0,1,1-1.6-1.59h0A1.42,1.42,0,0,1,59.65,105,1.21,1.21,0,0,1,59.65,105.39Zm-.7,4.32a.36.36,0,0,1,.4.32v14.1a.36.36,0,0,1-.32.4H57.17a.36.36,0,0,1-.41-.3.17.17,0,0,1,0-.1v-14a.36.36,0,0,1,.31-.4H59Z" style="fill:#003764"/><path d="M83,115.82l0,8.3a.36.36,0,0,1-.31.4.17.17,0,0,1-.1,0H80.79a.36.36,0,0,1-.41-.3.17.17,0,0,1,0-.1v-8c0-4.13-.81-4.29-3.36-4.29a18.53,18.53,0,0,0-3.16.24,11.79,11.79,0,0,1,.43,3.83l0,8.2c0,.32-.11.4-.35.4H72.13a.36.36,0,0,1-.4-.31.14.14,0,0,1,0-.09V116c0-4-.82-4.1-3.36-4.1h-2.7v12.24a.36.36,0,0,1-.32.4H63.49a.38.38,0,0,1-.41-.31V110.43c0-.32.13-.38.41-.43a27.33,27.33,0,0,1,4.51-.43,12.1,12.1,0,0,1,4.49.81,14.71,14.71,0,0,1,4.35-.84C81.49,109.54,83,110.19,83,115.82Z" style="fill:#003764"/><path d="M98.9,117.08c0,6-1.08,7.54-6.19,7.54a28.19,28.19,0,0,1-3.56-.16v5a.37.37,0,0,1-.31.41H87a.37.37,0,0,1-.4-.32V110.49c0-.3.16-.4.43-.46a31,31,0,0,1,5.6-.46C97.82,109.57,98.9,111.11,98.9,117.08Zm-9.75-5.26v10.32a29.7,29.7,0,0,0,3.4.22c3.36,0,3.76-1,3.76-5.25s-.38-5.26-3.71-5.26Z" style="fill:#003764"/><path d="M114.31,117.11c0,6-1,7.51-6.27,7.51s-6.3-1.48-6.3-7.51,1.08-7.54,6.3-7.54S114.31,111.08,114.31,117.11Zm-10,0c0,4.19.41,5.25,3.7,5.25s3.68-1,3.68-5.25-.37-5.29-3.67-5.29S104.3,112.9,104.3,117.11Z" style="fill:#003764"/><path d="M124.8,109.87c.27.08.4.19.4.46v1.13a.34.34,0,0,1-.31.39.48.48,0,0,1-.12,0h-2.35c-1.86,0-2.35.3-2.35,1.51v10.73a.36.36,0,0,1-.32.4.14.14,0,0,1-.09,0h-1.75a.37.37,0,0,1-.4-.31V112.74c0-3.06,2.71-3.17,4.27-3.17A15.31,15.31,0,0,1,124.8,109.87Z" style="fill:#003764"/><path d="M130.33,105.63c.3-.08.46.05.46.35v3.75h2.83c.3,0,.43.14.43.41v1.27c0,.27-.13.41-.43.41h-2.83v9.08c0,1.19.32,1.46,1.75,1.46h1.3c.3,0,.43.11.43.38V124c0,.24-.13.38-.4.43a6.91,6.91,0,0,1-1.51.16c-1.94,0-4.16,0-4.16-3.08v-9.73h-1.52a.37.37,0,0,1-.4-.32v-1.36a.37.37,0,0,1,.31-.41h1.61v-3.24a.38.38,0,0,1,.32-.43h0Z" style="fill:#003764"/><path d="M130.94,36.11a14.28,14.28,0,0,0-10.48-4.37H104a1.57,1.57,0,0,0-1.05.33,1.71,1.71,0,0,0-.5,1,9.77,9.77,0,0,0-.16,1.21,10.29,10.29,0,0,0,0,1.36c0,.54,0,.88,0,1a2.32,2.32,0,0,0,.1.7,1,1,0,0,0,.36.47l.41.28a1.33,1.33,0,0,0,.58.16,4.18,4.18,0,0,0,.61.05h16a8.24,8.24,0,0,1,8.21,8.21V82.75A8.25,8.25,0,0,1,120.47,91H104a1.53,1.53,0,0,0-1.05.34,1.68,1.68,0,0,0-.5,1,9.77,9.77,0,0,0-.16,1.21,10.29,10.29,0,0,0,0,1.36c0,.54,0,.87,0,1A1.68,1.68,0,0,0,104,97.55h16.45a14.84,14.84,0,0,0,14.79-14.8V46.56a14.24,14.24,0,0,0-4.37-10.48M115.3,62.29,87.35,34.34a3.28,3.28,0,0,0-5.57,2.34V51.53h-23a3.33,3.33,0,0,0-3.28,3.29V74.53a3.31,3.31,0,0,0,3.28,3.29h23V92.58a3.28,3.28,0,0,0,5.6,2.32l28-28a3.24,3.24,0,0,0,.06-4.57l-.06-.06" style="fill:#003764"/><path d="M24.65,5.15S5.12,5.15,5.12,24.67v101s0,19.53,19.53,19.53H166.54s19.53,0,19.53-19.53V24.67s0-19.52-19.53-19.52Z" style="fill:none;stroke:#103a5d;stroke-width:2.51389524052214px"/></g></svg>