<svg xmlns="http://www.w3.org/2000/svg" data-name="Ebene 2" viewBox="0 0 354.663 90.669"><defs><linearGradient id="a" x1="10.743" x2="88.715" y1="8.2" y2="8.2" data-name="Unbenannter Verlauf 3" gradientUnits="userSpaceOnUse"><stop offset="0" stop-color="#ee7635"/><stop offset="1" stop-color="#ff9c00"/></linearGradient></defs><path d="M68.091 47.568c.631-3.157 1.789-7.472 1.789-9.366 0-1.474-.632-2.42-2.211-2.42-2.42 0-6.209 2.946-9.366 9.576L51.147 79.14H30.731l6.209-29.572c.947-4.315 1.789-8.945 1.789-11.366 0-1.578-.842-2.42-2.104-2.42-2 0-6.946 3.473-8.945 9.682l-6.631 33.677H0l8.945-43.569-5.577-1.895v-4.63c4.63-2.315 17.153-3.789 26.521-3.789l2.21 1.263-3.578 11.787h.421c5.156-7.577 12.629-13.05 21.679-13.05 3.368 0 8.946 2 8.946 9.787 0 .737-.211 2.421-.422 3.263 5.578-8.209 12.945-13.05 21.785-13.05 5.262 0 10.103 3.684 10.103 9.472 0 4.525-1.052 8.313-1.999 12.839l-5.052 22.732h6.841v4.63c-2.842 2.21-13.786 5.473-19.996 5.473-6.104 0-8.313-2.736-8.313-5.262 0-1.895.526-4.946 1.474-8.419l4.104-19.154ZM128.712 66.617c-3.789 7.577-10.63 13.786-20.417 13.786-7.262 0-13.05-5.473-13.05-15.891 0-24.311 13.471-39.255 32.94-39.255 3.578 0 6.735 1.368 9.682 2.631 4.631-1.368 9.787-2.104 18.733-2.104l-8.209 44.517h6.945v4.63c-2.841 2.21-12.733 5.473-19.153 5.473-5.683 0-8.104-3.263-8.104-5.788s.421-4.631 1.053-7.998h-.421Zm1.157-8.524 4.314-23.995c-1.157-.631-2.21-1.263-3.788-1.263-9.261 0-14.103 15.05-14.103 29.889 0 5.577 1.368 7.156 3.368 7.156 3.157 0 7.156-4.421 10.208-11.787ZM190.698 40.518c-1.474.632-3.788 3.157-4.631 4.946l-7.156 33.677h-21.048l8.945-43.569-5.577-1.895v-4.63c4.735-2.211 16.312-3.789 26.521-3.789l2.104 1.263-2.525 11.893h.421c4.314-6.841 8.84-13.155 16.732-13.155 1.895 0 4.421.315 6.104 1.263.947 9.577-5.157 20.838-9.577 22.311l-10.313-8.313ZM189.935 80.403h43.148v10.266h-43.148V80.403ZM270.68 56.093l-3.053-1.052-4.63 24.1h-21.048l13.681-68.827-6.735-1.895v-4.63C252.894 2 265.207 0 276.363 0l2.21 1.158-9.577 47.147h3.684c3.789-3.789 7.473-9.577 8.63-12.84.421-1.999.105-7.262-.105-8.945 2.421-.842 7.788-1.368 13.05-1.368 5.157 0 10.208.526 11.787 1.368-3.578 9.262-14.733 17.891-19.785 21.68 1.999 5.367 8.209 16.312 13.05 22.101h4.631v4.63c-2.842 2.21-12.208 5.473-18.628 5.473-3.367 0-6.42-1.263-8.945-5.998-3.052-5.684-4.314-12.524-5.683-18.312Z" style="fill:#000;stroke-width:0"/><path d="M352.348 65.249c-3.578 6.209-14.733 15.154-26.521 15.154-13.365 0-21.68-7.156-21.68-20.416 0-18.417 14.523-34.729 33.571-34.729 10.209 0 16.944 4.946 16.944 11.576 0 9.051-8.314 16.312-28.73 17.786-.211 1.263-.421 3.473-.421 4.946 0 7.156 4.735 10.313 8.945 10.313 5.262 0 11.05-3.999 14.418-7.999l3.473 3.368Zm-25.679-16.943c6.841 0 12.839-5.263 12.839-11.472 0-2.631-1.263-3.999-3.367-3.999-3.157 0-7.156 4.315-9.472 15.471Z" style="fill:#000;stroke-width:0"/><path d="M83.363 14.98c0-1.086 1.086-2.368 2.701-2.368 1.031 0 1.588.78 1.588 1.644 0 1.003-.78 2.144-2.451 2.144-1.281 0-1.838-.668-1.838-1.42Z" style="fill:#ff9c00;stroke-width:0"/><path d="M88.715 4.602c0 2.317-2.572 3.518-5.304 3.518-.457 0-.872 0-1.318-.085-1.573 3.731-4.974 8.322-8.907 8.322-2.03 0-4.677-2.817-5.963-6.165-.988 1.775-2.774 6.207-5.878 6.207-1.18 0-2.785-1.775-4.018-4.134-1.722 2.274-3.986 4.092-6.462 4.092-2.03 0-4.677-2.817-5.963-6.165-.988 1.775-2.774 6.207-5.878 6.207-1.18 0-2.785-1.775-4.018-4.134-1.722 2.274-3.986 4.092-6.462 4.092-2.03 0-4.677-2.817-5.963-6.165-.988 1.775-2.774 6.207-5.878 6.207-2.232 0-5.963-6.335-5.963-11.011 0-2.817 1.658-5.017 4.432-5.017.946 0 1.329.415 1.329 1.414 0 2.232 1.775 7.621 3.55 7.621 1.169 0 1.286-2.902 2.073-5.431.627-2.019 1.903-3.603 4.145-3.603 1.445 0 1.445.627 1.445 1.456 0 5.591 2.774 8.652 4.517 8.652.616 0 1.18-.308 1.637-.808-.5-1.435-.808-2.934-.808-4.283 0-2.817 1.658-5.017 4.432-5.017.946 0 1.329.415 1.329 1.414 0 2.232 1.775 7.621 3.55 7.621 1.169 0 1.286-2.902 2.073-5.431.627-2.019 1.903-3.603 4.145-3.603 1.445 0 1.445.627 1.445 1.456 0 5.591 2.774 8.652 4.517 8.652.616 0 1.18-.308 1.637-.808-.5-1.435-.808-2.934-.808-4.283 0-2.817 1.658-5.017 4.432-5.017.946 0 1.329.415 1.329 1.414 0 2.232 1.775 7.621 3.55 7.621 1.169 0 1.286-2.902 2.073-5.431.627-2.019 1.903-3.603 4.145-3.603 1.445 0 1.445.627 1.445 1.456 0 5.591 2.774 8.652 4.517 8.652 1.36 0 2.402-1.488 2.817-3.189-1.743-.829-2.987-2.232-2.987-4.39 0-1.775.999-2.902 2.445-2.902 1.945 0 3.89 1.701 3.89 4.358 0 .159-.042.372-.042.531h.329c1.998 0 4.06-.989 4.762-1.988.34.33.627 1.116.627 1.701Z" style="fill:url(#a);stroke-width:0"/></svg>