<svg xmlns="http://www.w3.org/2000/svg" data-name="Ebene 1" viewBox="0 0 800 800"><rect width="800" height="800" fill="#34495e" rx="30" ry="30"/><g fill="#f6f6f6"><path d="M102.31 304.26c-3.36 2.3-5.71 4.91-7.05 7.85l-.16-8.17zm3.04 39.63h-9.53l-.24-19.77c1.12 2.35 3.08 4.18 5.88 5.48 2.8 1.31 6.66 1.69 11.57 1.16 1.39-.16 2.55-.25 3.48-.28s1.71.04 2.32.2 1.11.41 1.48.76q.555.525.96 1.32c.43 1.07.37 2.1-.16 3.08-.53.99-1.82 1.94-3.84 2.84-.96.43-2.02.8-3.16 1.12-1.15.32-2.28.57-3.4.76q-1.68.285-3.24.36c-1.04.05-1.96.03-2.76-.08l.64 3.04Zm14.41-38.67 12.41.4 6.56 38.27h-10.89c3.31-2.61 5.38-5.48 6.2-8.61q1.245-4.68-.84-9.33c-1.44-2.93-3.51-5.06-6.2-6.36-2.7-1.31-6.36-1.75-11.01-1.32-1.44.16-2.67.27-3.68.32s-1.87.03-2.56-.08-1.25-.32-1.68-.64-.77-.72-1.04-1.2c-.43-1.01-.36-2.01.2-3s1.61-1.83 3.16-2.52c1.76-.8 3.59-1.33 5.48-1.6s3.43-.35 4.6-.24l-.72-4.08Z"/><path d="M146.9 304.9c-4.27 1.28-7.74 3.5-10.41 6.64v-7.21l10.41.56Zm-10.41 36.59c.37.43.73.81 1.08 1.16s.68.71 1 1.08h-2.08zm16.73-28.18q2.235-.165 3.96.84c1.15.67 2.12 1.59 2.92 2.76s1.43 2.51 1.88 4c.45 1.5.76 3.04.92 4.64.37 4-.09 7.25-1.4 9.73s-3.32 3.86-6.04 4.12c-2.88.27-5.18-.77-6.89-3.12s-2.75-5.39-3.12-9.13c-.16-1.6-.13-3.19.08-4.76s.63-3.01 1.24-4.32 1.44-2.39 2.48-3.24 2.36-1.36 3.96-1.52Zm22.66 5.84c-.85-3.04-2.18-5.67-3.96-7.89-1.79-2.21-3.99-4.02-6.6-5.4l10.57.72v12.57Zm-6.32 24.58c1.39-1.28 2.64-2.73 3.76-4.36s1.97-3.45 2.56-5.48v9.85h-6.32ZM185.41 305.38l-1.84 38.11-7.45.56 1.12-38.35zm11.84-.4 18.65-.72-2.88 36.51-17.53 1.6zM254.34 304.18v41.15l-9.61-.48 1.68-32.98-12.41-.64-1.52 32.9-13.53-.72-2.08-40.43 18.01.64c.53.91 1.27 1.64 2.2 2.2q1.395.84 3.24.84c1.39.11 2.6-.11 3.64-.64s1.85-1.25 2.44-2.16l7.93.32ZM272.67 309.79q-2.64-.165-5.16.6a14.4 14.4 0 0 0-4.64 2.4c-1.41 1.09-2.67 2.44-3.76 4.04s-1.94 3.44-2.52 5.52v-16.17l26.02-2-.4 10.09h-.16c-.8-1.23-1.99-2.25-3.56-3.08s-3.51-1.29-5.8-1.4Zm-16.09 26.5c.43 1.49 1.01 2.87 1.76 4.12s1.6 2.34 2.56 3.24l-4.32.16v-7.53Zm24.42-2.57c-.43 1.6-1.25 2.87-2.48 3.8s-2.64 1.38-4.24 1.32c-2.4-.16-4.26-1.16-5.56-3-1.31-1.84-1.88-4.31-1.72-7.41q.165-4.32 2.28-7.17c1.41-1.89 3.4-2.79 5.96-2.68 1.71.11 3.12.72 4.24 1.84s1.81 2.43 2.08 3.92c.05.37.08.75.08 1.12v.96l-.24 4.72c0 .8-.13 1.65-.4 2.56Zm.96 8.73h-.56l.4-.4h.16zm13.77-39.23-2.48 38.67h-1.04c0-.8.03-1.6.08-2.4s.08-1.6.08-2.4l1.6-33.78 1.76-.08ZM335.27 342.21l.32 2.96-39.63-2.72v-23.14l5.12 21.22 10.97.56 4.56-13.21c.48-1.71.97-3.48 1.48-5.32s1-3.96 1.48-6.36h.16c.27 2.4.53 4.52.8 6.36s.61 3.72 1.04 5.64l2.96 13.45 10.73.56Zm-27.54-11.29c-.27-2.24-.53-4.4-.8-6.48s-.53-4.08-.8-6l-2-13.13 11.37-.56-4.24 14.01c-.59 1.87-1.17 3.83-1.76 5.88-.59 2.06-1.15 4.15-1.68 6.28h-.08Zm17.7-26.66 7.21-.24.96 14.73v.4c-.59 2.14-1.12 4.28-1.6 6.44s-.93 4.31-1.36 6.44h-.16c-.21-2.24-.51-4.42-.88-6.52-.37-2.11-.77-4.28-1.2-6.52l-2.96-14.73ZM347.04 304.9c-4.27 1.28-7.74 3.5-10.41 6.64v-7.21l10.41.56Zm-10.4 36.59c.37.43.73.81 1.08 1.16s.68.71 1 1.08h-2.08zm16.73-28.18q2.235-.165 3.96.84c1.15.67 2.12 1.59 2.92 2.76s1.43 2.51 1.88 4c.45 1.5.76 3.04.92 4.64.37 4-.09 7.25-1.4 9.73s-3.32 3.86-6.04 4.12c-2.88.27-5.18-.77-6.89-3.12s-2.75-5.39-3.12-9.13c-.16-1.6-.13-3.19.08-4.76s.63-3.01 1.24-4.32 1.44-2.39 2.48-3.24 2.36-1.36 3.96-1.52Zm22.65 5.84c-.85-3.04-2.18-5.67-3.96-7.89-1.79-2.21-3.99-4.02-6.6-5.4l10.57.72v12.57Zm-6.32 24.58c1.39-1.28 2.64-2.73 3.76-4.36s1.97-3.45 2.56-5.48v9.85h-6.32Z"/><path d="m383.87 342.93-3.92-.24-5.2-39.79 10.81.48c0 1.6-.01 3.36-.04 5.28s-.12 4.19-.28 6.8l-1.36 27.46Zm17.61-38.83c-.75.69-1.47 1.5-2.16 2.4-.69.91-1.25 1.98-1.68 3.2h-.4v-5.76zm10.97.4h1.6l1.92 39.79-18.49-.72.88-20.41c.11-.53.17-1.05.2-1.56s.12-.97.28-1.4c.53-2.08 1.63-3.71 3.28-4.88s3.76-1.71 6.32-1.6c1.39.16 2.56.35 3.52.56l.48-9.77ZM420.13 342.13l-2.88-.16-1.6-37.95h1.12zm10.57-37.71 24.66 1.04v1.84l-12.01 1.04-7.77 14.17c-.43.85-.88 1.75-1.36 2.68s-.91 1.91-1.28 2.92h-.24l-2-23.7Zm12.09 39.15-8.81-.56-.16-3.2 3.04-4.64 5.92 8.41Zm12.73-30.58.4 25.7-10.25-12.41z"/></g><g fill="#f6f6f6"><path d="M103.17 389.04h8.68v27.98h27.77v-27.98h8.68v66.99h-8.68v-31.45h-27.77v31.45h-8.68zM163.32 431.11c0-16.13 12.05-25.94 25.32-25.94 14.3 0 22.67 9.29 22.67 23.28 0 1.94-.2 3.78-.41 5.11h-41.97v-6.54h36.96l-2.14 2.35c0-11.74-5.82-17.56-14.91-17.56s-17.15 6.94-17.15 19.3 8.37 19.4 19.4 19.4c5.92 0 10.62-1.84 15.11-4.7l3.06 5.51c-4.9 3.27-11.23 5.92-19.2 5.92-14.91 0-26.75-9.6-26.75-26.14ZM242.76 439.38v-49.22H225.2v-6.84h26.04v56.67c0 7.15 3.88 10.21 9.8 10.21 2.86 0 5.92-.71 9.29-2.25l2.14 6.33c-4.6 1.94-7.86 2.96-13.27 2.96-10.62 0-16.44-6.13-16.44-17.87ZM288.41 406.4h6.94l.71 6.33h.31c4.6-4.39 11.13-7.56 17.15-7.56 13.38 0 20.52 9.9 20.52 25.32 0 16.85-10.62 26.75-22.57 26.75-4.6 0-10.31-2.35-14.81-6.43h-.2l.41 9.39v16.75h-8.48v-70.56Zm36.96 24.1c0-10.93-4.08-18.18-13.99-18.18-4.39 0-9.5 2.25-14.5 7.35v24.71c4.6 4.19 9.8 5.72 13.17 5.72 8.78 0 15.32-7.35 15.32-19.61ZM350.7 406.91l14.4-.51H394v6.84h-43.3zm14.19-4.69c0-12.05 6.33-20.12 20.01-20.12 4.9 0 9.6.92 14.3 2.86l-1.94 6.33c-4.08-1.74-7.25-2.35-11.54-2.35-8.88 0-12.46 5-12.46 12.97v54.12h-8.37zM409.31 437.24V406.4h8.48v29.71c0 9.29 3.27 13.79 11.44 13.79 5.72 0 9.91-2.66 15.42-9.09V406.4h8.48v49.63h-7.05l-.71-8.68h-.41c-5 5.82-10.82 9.9-18.48 9.9-11.74 0-17.16-6.94-17.16-20.01ZM487.84 439.38v-49.22h-17.56v-6.84h26.04v56.67c0 7.15 3.88 10.21 9.8 10.21 2.86 0 5.92-.71 9.29-2.25l2.14 6.33c-4.59 1.94-7.86 2.96-13.27 2.96-10.62 0-16.44-6.13-16.44-17.87ZM594.96 448.78h16.64v-52.49h-16.64v-7.25h41.87v7.25h-16.64v52.49h16.64v7.25h-41.87zM655.41 389.04h16.54c20.12 0 31.04 11.95 31.04 33.19s-10.93 33.8-30.63 33.8h-16.95zm15.93 59.94c15.21 0 22.77-9.8 22.77-26.75s-7.56-26.14-22.77-26.14h-7.35v52.89z"/></g></svg>