<svg xmlns="http://www.w3.org/2000/svg" data-name="Ebene 1" viewBox="0 0 800 800"><rect width="800" height="800" fill="#34495e" rx="30" ry="30"/><g fill="#f6f6f6"><path d="M99.55 209.63c-7.2 4.92-12.23 10.52-15.09 16.81l-.34-17.49 15.43.69Zm6.52 84.88H85.66l-.51-42.36c2.4 5.03 6.6 8.95 12.6 11.75q9 4.2 24.78 2.49c2.97-.34 5.46-.54 7.46-.6s3.66.09 4.97.43 2.37.89 3.17 1.63 1.48 1.69 2.06 2.83c.91 2.29.8 4.49-.34 6.6-1.14 2.12-3.89 4.15-8.23 6.09-2.06.92-4.32 1.71-6.77 2.4-2.46.69-4.89 1.23-7.29 1.63s-4.72.66-6.94.77c-2.23.12-4.2.06-5.92-.17l1.37 6.52Zm30.87-82.82 26.58.86 14.06 81.97h-23.32c7.09-5.6 11.52-11.75 13.29-18.43q2.655-10.035-1.8-19.98c-3.09-6.29-7.52-10.83-13.29-13.63s-13.63-3.74-23.58-2.83q-4.635.51-7.89.69c-2.17.12-4 .06-5.49-.17s-2.69-.69-3.6-1.37a8 8 0 0 1-2.23-2.57c-.92-2.17-.77-4.31.43-6.43 1.2-2.11 3.46-3.91 6.77-5.4 3.77-1.71 7.69-2.86 11.75-3.43s7.34-.74 9.86-.51l-1.54-8.75Z"/><path d="M195.07 211c-9.15 2.74-16.58 7.49-22.29 14.23V209.8zm-22.3 78.37c.8.92 1.57 1.74 2.31 2.49s1.46 1.52 2.14 2.31h-4.46v-4.8Zm35.84-60.36q4.8-.345 8.49 1.8c2.46 1.43 4.54 3.4 6.26 5.92 1.71 2.52 3.06 5.38 4.03 8.57.97 3.2 1.63 6.52 1.97 9.95.8 8.57-.2 15.52-3 20.83-2.8 5.32-7.12 8.26-12.95 8.83-6.17.57-11.09-1.66-14.75-6.69s-5.89-11.55-6.69-19.55c-.34-3.43-.29-6.83.17-10.2s1.34-6.46 2.66-9.26c1.31-2.8 3.09-5.11 5.32-6.94s5.06-2.92 8.49-3.26m48.53 12.51q-2.745-9.78-8.49-16.89c-3.83-4.74-8.55-8.6-14.15-11.57l22.64 1.54zm-13.54 52.65c2.97-2.74 5.66-5.86 8.06-9.35s4.23-7.4 5.49-11.75v21.09H243.6ZM277.55 212.03l-3.94 81.63-15.95 1.2 2.4-82.14zm25.38-.86 39.96-1.54-6.17 78.2-37.55 3.43 3.77-80.08ZM425.2 209.46v88.14l-20.58-1.03 3.6-70.65-26.58-1.37-3.26 70.48-28.98-1.54-4.46-86.6 38.58 1.37c1.14 1.95 2.71 3.52 4.72 4.72 2 1.2 4.31 1.8 6.94 1.8 2.97.23 5.57-.23 7.8-1.37s3.97-2.68 5.23-4.63l16.98.69ZM464.47 221.46c-3.77-.23-7.46.2-11.06 1.29s-6.92 2.8-9.95 5.14-5.72 5.23-8.06 8.66-4.15 7.37-5.4 11.83v-34.64l55.73-4.29-.86 21.61h-.34c-1.71-2.63-4.26-4.83-7.63-6.6s-7.52-2.77-12.43-3M430 278.22c.91 3.2 2.17 6.15 3.77 8.83 1.6 2.69 3.43 5 5.49 6.94l-9.26.34v-16.12Zm52.3-5.49c-.92 3.43-2.69 6.15-5.32 8.15s-5.66 2.94-9.09 2.83c-5.14-.34-9.12-2.49-11.92-6.43s-4.03-9.23-3.69-15.86c.23-6.17 1.86-11.29 4.89-15.35s7.29-5.97 12.78-5.74c3.66.23 6.69 1.54 9.09 3.94s3.88 5.2 4.46 8.4c.11.8.17 1.6.17 2.4v2.06l-.51 10.12c0 1.71-.29 3.54-.86 5.49Zm2.06 18.7h-1.2l.86-.86h.34zm29.49-84.03-5.32 82.83h-2.23c0-1.71.06-3.43.17-5.14s.17-3.43.17-5.14l3.43-72.37 3.77-.17ZM169.86 419.43l.69 6.34-84.88-5.83v-49.56l10.97 45.44 23.49 1.2 9.77-28.29c1.03-3.66 2.08-7.46 3.17-11.4s2.14-8.49 3.17-13.63h.34c.57 5.14 1.14 9.69 1.71 13.63s1.31 7.97 2.23 12.09l6.35 28.81 22.98 1.2Zm-58.99-24.18q-.855-7.2-1.71-13.89c-.57-4.46-1.14-8.75-1.71-12.86l-4.29-28.12 24.35-1.2-9.09 30.01c-1.26 4-2.52 8.2-3.77 12.6-1.26 4.4-2.46 8.89-3.6 13.46h-.17Zm37.9-57.1 15.43-.51 2.06 31.55v.86c-1.26 4.57-2.4 9.17-3.43 13.8s-2 9.23-2.92 13.8h-.34q-.69-7.2-1.89-13.98c-.8-4.51-1.66-9.17-2.57-13.98l-6.34-31.55ZM195.07 339.52c-9.15 2.74-16.58 7.49-22.29 14.23v-15.43zm-22.3 78.37c.8.92 1.57 1.74 2.31 2.49s1.46 1.52 2.14 2.31h-4.46v-4.8Zm35.84-60.36q4.8-.345 8.49 1.8c2.46 1.43 4.54 3.4 6.26 5.92 1.71 2.52 3.06 5.38 4.03 8.57.97 3.2 1.63 6.52 1.97 9.95.8 8.57-.2 15.52-3 20.83-2.8 5.32-7.12 8.26-12.95 8.83-6.17.57-11.09-1.66-14.75-6.69s-5.89-11.55-6.69-19.55c-.34-3.43-.29-6.83.17-10.2s1.34-6.46 2.66-9.26c1.31-2.8 3.09-5.11 5.32-6.94s5.06-2.92 8.49-3.26m48.53 12.51q-2.745-9.78-8.49-16.89c-3.83-4.74-8.55-8.6-14.15-11.57l22.64 1.54zm-13.54 52.65c2.97-2.74 5.66-5.86 8.06-9.35s4.23-7.4 5.49-11.75v21.09H243.6Z"/><path d="m273.95 420.97-8.4-.51-11.15-85.23 23.15 1.03c0 3.43-.03 7.2-.09 11.32q-.09 6.18-.6 14.58l-2.92 58.82Zm37.73-83.16a41 41 0 0 0-4.63 5.14c-1.49 1.95-2.69 4.23-3.6 6.86h-.86v-12.35l9.09.34Zm23.49.85h3.43l4.12 85.23-39.61-1.54 1.89-43.73c.23-1.14.37-2.26.43-3.34.06-1.09.26-2.08.6-3 1.14-4.46 3.49-7.94 7.03-10.46 3.54-2.51 8.06-3.66 13.55-3.43 2.97.34 5.49.74 7.55 1.2l1.03-20.92ZM351.63 419.26l-6.17-.34-3.43-81.28h2.4l7.2 81.63Zm22.64-80.77 52.82 2.23v3.94l-25.72 2.23-16.63 30.35c-.92 1.83-1.89 3.75-2.92 5.74-1.03 2-1.95 4.09-2.74 6.26h-.51l-4.29-50.76Zm25.89 83.86-18.86-1.2-.34-6.86 6.52-9.95 12.69 18.01Zm27.27-65.51.86 55.05-21.95-26.58z"/></g><g fill="#f6f6f6"><path d="M84.68 493.57h9.13v31.68h29.23v-31.68h9.13v75.84h-9.13V533.8H93.81v35.61h-9.13zM147.97 541.2c0-18.27 12.68-29.37 26.65-29.37 15.04 0 23.85 10.52 23.85 26.36 0 2.2-.22 4.28-.43 5.78h-44.16v-7.4h38.9l-2.26 2.66c0-13.3-6.12-19.89-15.69-19.89s-18.05 7.86-18.05 21.85 8.81 21.97 20.42 21.97c6.23 0 11.18-2.08 15.9-5.32l3.22 6.24c-5.16 3.7-11.82 6.71-20.2 6.71-15.69 0-28.15-10.87-28.15-29.6ZM231.57 550.57v-55.73h-18.48v-7.75h27.4v64.17c0 8.09 4.08 11.56 10.32 11.56 3.01 0 6.23-.81 9.78-2.54l2.26 7.17c-4.84 2.2-8.27 3.35-13.97 3.35-11.17 0-17.3-6.94-17.3-20.23ZM279.61 513.22h7.31l.75 7.17h.32c4.84-4.97 11.71-8.56 18.05-8.56 14.08 0 21.6 11.21 21.6 28.67 0 19.08-11.18 30.29-23.75 30.29-4.84 0-10.85-2.66-15.58-7.28h-.21l.43 10.64v18.96h-8.92zm38.9 27.29c0-12.37-4.3-20.58-14.72-20.58-4.62 0-9.99 2.54-15.26 8.32v27.98c4.84 4.74 10.32 6.47 13.86 6.47 9.24 0 16.12-8.32 16.12-22.2ZM345.16 513.8l15.15-.58h30.41v7.75h-45.56zm14.93-5.32c0-13.64 6.66-22.78 21.06-22.78 5.16 0 10.1 1.04 15.04 3.24l-2.04 7.17c-4.3-1.96-7.63-2.66-12.14-2.66-9.35 0-13.11 5.67-13.11 14.68v61.28h-8.81zM406.84 548.14v-34.92h8.92v33.64c0 10.52 3.44 15.61 12.03 15.61 6.02 0 10.42-3.01 16.23-10.29v-38.96h8.92v56.19h-7.41l-.75-9.83h-.43c-5.27 6.59-11.39 11.21-19.45 11.21-12.36 0-18.05-7.86-18.05-22.66ZM489.47 550.57v-55.73h-18.48v-7.75h27.4v64.17c0 8.09 4.08 11.56 10.32 11.56 3.01 0 6.23-.81 9.78-2.54l2.26 7.17c-4.84 2.2-8.27 3.35-13.97 3.35-11.18 0-17.3-6.94-17.3-20.23ZM602.19 561.2h17.51v-59.43h-17.51v-8.21h44.06v8.21h-17.51v59.43h17.51v8.21h-44.06zM665.81 493.57h17.41c21.17 0 32.67 13.53 32.67 37.58s-11.5 38.27-32.24 38.27h-17.84v-75.84Zm16.76 67.87c16.01 0 23.96-11.1 23.96-30.29s-7.95-29.6-23.96-29.6h-7.74v59.89z"/></g></svg>