<svg xmlns="http://www.w3.org/2000/svg" viewBox="0 0 500 429.62"><defs><style>.cls-1{fill:#333a46}.cls-2{fill:#7abfbc}</style></defs><g id="Ebene_2" data-name="Ebene 2"><g id="MATE"><path class="cls-1" d="M405.52 364.46H0L94.48 0H500l-94.48 364.46zM78.7 428.73h-6.13l-1.6-23q-1-13.55-1.13-20.8l-9.92 38H54l-10.47-38.08q0 9.25-.86 21.39l-1.53 22.49h-6l3.8-51h8.52l9.66 37.08 9.19-37.08h8.59zM110 415.93H92.62l-3.47 12.8h-6.39l14.72-51h8l14.65 51h-6.66zm-1.53-5.7l-7.13-26.64-7.19 26.64zM148.63 383.74h-12.72v45h-6.33v-45h-13.05v-6h32.76zM179.06 383.37h-17.78V400h15.45v5.62h-15.45v17.47h19.05v5.62H155v-51h24.8zM222.29 427a12.59 12.59 0 01-7.86 2.66 8.75 8.75 0 01-7-2.85q-2.5-2.85-2.5-8.25V395h-6.13v-5.26h6.2v-8.8l6.13-.82v9.62h8.32l-.66 5.26h-7.69v23.23a7.86 7.86 0 001 4.41 3.68 3.68 0 003.23 1.36 8.29 8.29 0 004.67-1.7zM251 392q2.68 3.18 2.69 8.73v28h-6.12v-27q0-4.14-1.43-5.84a5.15 5.15 0 00-4.17-1.71 7.4 7.4 0 00-4.86 1.78 18.4 18.4 0 00-4 5v27.75H227v-54.59l6.12-.74v21.76q4.14-6.3 10.39-6.3A9.32 9.32 0 01251 392zM290.68 411.56h-22.37c.26 4.3 1.24 7.45 2.93 9.48a8.1 8.1 0 006.52 3 12.88 12.88 0 004.67-.82 18 18 0 004.46-2.59l2.66 4.08a18.26 18.26 0 01-12.25 4.88q-7.33 0-11.42-5.33t-4.1-14.65a30.67 30.67 0 011.76-10.77 16.85 16.85 0 015.07-7.36 11.93 11.93 0 017.76-2.67q7 0 10.72 5.11t3.73 14.13c0 1.17-.05 2.33-.14 3.51zm-5.92-5.47q0-5.77-2.07-8.81a7 7 0 00-6.19-3q-7.53 0-8.19 12.28h16.45zM341.43 392.06q2.6 3.22 2.6 8.7v28h-6.13v-27q0-7.55-4.93-7.55a6.23 6.23 0 00-4.39 1.67 22.68 22.68 0 00-3.86 5.22v27.67h-6.13v-27q0-7.55-4.93-7.55a6.21 6.21 0 00-4.46 1.71 22.74 22.74 0 00-3.8 5.18v27.67h-6.12v-39h5.26l.53 5.7q3.93-6.58 10.12-6.59a8.54 8.54 0 015.56 1.86 10.15 10.15 0 013.3 5.18 17.73 17.73 0 014.56-5.22 9.78 9.78 0 015.9-1.82 8.46 8.46 0 016.92 3.17zM381.06 411.56h-22.38c.27 4.3 1.24 7.45 2.93 9.48a8.12 8.12 0 006.53 3 12.78 12.78 0 004.66-.82 17.87 17.87 0 004.46-2.59l2.67 4.08a18.28 18.28 0 01-12.26 4.88q-7.32 0-11.42-5.33t-4.1-14.65a30.44 30.44 0 011.77-10.77 16.83 16.83 0 015.06-7.36 12 12 0 017.76-2.67q7 0 10.72 5.11t3.73 14.13c0 1.17-.04 2.33-.13 3.51zm-5.93-5.47q0-5.77-2.06-8.81a7 7 0 00-6.2-3q-7.51 0-8.19 12.28h16.45z"/><path class="cls-2" d="M150.49 239.66v-.54h1.23a.41.41 0 00.46-.47v-10.17a.41.41 0 00-.46-.47h-1.23v-.55h9.56l.06 3.88h-.42v-.35a4.7 4.7 0 00-.21-.94 3.42 3.42 0 00-.48-1 2.21 2.21 0 00-2-1h-2.76a.41.41 0 00-.46.47v4.67h1.51a1.36 1.36 0 00.77-.21 1.08 1.08 0 00.42-.61 4.57 4.57 0 00.17-.74 6.17 6.17 0 000-.8h.45v5.36h-.45v-.81a3.88 3.88 0 00-.17-.74 1.17 1.17 0 00-.48-.64 1.36 1.36 0 00-.77-.21h-1.51v4.88a.41.41 0 00.46.47H157a2.79 2.79 0 001-.22 2 2 0 00.89-.66 4.57 4.57 0 00.59-1.27 7.43 7.43 0 00.31-1.35l.07-.55h.43l-.2 4.59zM161.67 239.66v-.41h.45a1 1 0 00.43-.09 1.94 1.94 0 00.33-.23 2.39 2.39 0 00.23-.26l.26-.36 1.55-2.32-2.08-3.35a1.35 1.35 0 01-.13-.21.32.32 0 00-.15-.13 1.21 1.21 0 00-.3 0h-.52v-.41h3.38v.41h-.42a.31.31 0 00-.34.35.82.82 0 00.1.37l1.2 1.91 1.14-1.69a1 1 0 00.14-.54.38.38 0 00-.12-.3.48.48 0 00-.28-.1h-.41v-.41h3v.41h-.43a1.43 1.43 0 00-1.18.74l-1.55 2.3 2.18 3.51a2 2 0 00.17.25.66.66 0 00.24.13 1.35 1.35 0 00.43.06h.4v.41h-3.55v-.41h.51c.26 0 .39-.09.39-.29a.76.76 0 00-.12-.36l-1.38-2.21-1.24 1.69a1.53 1.53 0 00-.25.61c0 .35.14.52.43.52h.3v.41zM170.33 239.66v-.41h.95a.33.33 0 00.38-.38v-10.62a.33.33 0 00-.38-.38h-.95v-.41h2.57v6h.1a3.9 3.9 0 011.07-1.32 2.15 2.15 0 011.32-.48 2 2 0 011.38.45 2.54 2.54 0 01.79 2.11v4.67a.33.33 0 00.38.38h.72v.41h-3.43v-.41h.72a.33.33 0 00.38-.38v-5c0-1.19-.37-1.79-1.1-1.79a2 2 0 00-1.53 1 3.59 3.59 0 00-.76 2.27v3.56c0 .26.12.38.37.38h.69v.41zM179.66 239.66v-.41h.72a.33.33 0 00.38-.38v-6.23a.34.34 0 00-.38-.38h-.72v-.41H182v7a.33.33 0 00.38.38h.72v.41zm1.63-9.93a.91.91 0 01-.65-.26.91.91 0 010-1.27.94.94 0 011.3 0 .91.91 0 010 1.27.91.91 0 01-.65.26zM184 239.66v-.41h.89a.33.33 0 00.38-.38v-10.62a.33.33 0 00-.38-.38H184v-.41h2.5v11.41a.33.33 0 00.38.38h.89v.41zM188.74 237.85a2.08 2.08 0 01.21-.95 2.15 2.15 0 01.47-.66 2.39 2.39 0 01.73-.43 4.32 4.32 0 01.75-.25l.76-.16 1.62-.29v-1.46a1.4 1.4 0 00-1.58-1.59 2 2 0 00-1.06.3.81.81 0 00-.47.67.46.46 0 00.05.26.31.31 0 00.25.17c.43.11.64.34.64.67s-.25.67-.76.67a1 1 0 01-.68-.29 1.1 1.1 0 01-.31-.84 1.75 1.75 0 01.73-1.49 2.75 2.75 0 011.66-.54 3.23 3.23 0 011.95.6 2.12 2.12 0 01.82 1.84v4.21c0 .57.17.86.52.86.53 0 .8-.57.8-1.71h.3q0 2.43-1.35 2.43c-1 0-1.47-.55-1.51-1.65h-.08a3.46 3.46 0 01-.83 1.14 1.87 1.87 0 01-1.33.54 2.85 2.85 0 01-1.62-.45 1.73 1.73 0 01-.68-1.6zm1.51.07c0 .89.35 1.33 1.06 1.33a1.43 1.43 0 00.74-.19 1.78 1.78 0 00.58-.58 5.3 5.3 0 00.37-.65c.09-.19.18-.42.28-.7v-1.61l-1.53.33a1.83 1.83 0 00-1.14.67 2.36 2.36 0 00-.36 1.4zM197 239.66v-.41h.72a.33.33 0 00.38-.38v-6.23a.34.34 0 00-.38-.38H197v-.41h2.33V234h.07a5.24 5.24 0 01.71-1.4 2.5 2.5 0 01.76-.75 1.75 1.75 0 01.86-.24 1.14 1.14 0 011 .42 1.55 1.55 0 01.33 1 1.46 1.46 0 01-.24.79.79.79 0 01-.72.37.9.9 0 01-.55-.16.56.56 0 01-.22-.49.81.81 0 01.46-.75c.25-.14.38-.29.38-.46s-.16-.29-.48-.29a1.29 1.29 0 00-.59.15 1.93 1.93 0 00-.65.66 5.77 5.77 0 00-.65 1.34 7.46 7.46 0 00-.44 2.4v2.26a.33.33 0 00.38.38h.72v.41zM204 237.85a2.07 2.07 0 01.2-.95 2.33 2.33 0 01.47-.66 2.39 2.39 0 01.73-.43 4.32 4.32 0 01.75-.25l.76-.16 1.63-.29v-1.46a1.41 1.41 0 00-1.59-1.59 2 2 0 00-1.06.3.83.83 0 00-.47.67.57.57 0 00.05.26.32.32 0 00.26.17c.42.11.63.34.63.67s-.25.67-.75.67a1 1 0 01-.69-.29 1.14 1.14 0 01-.31-.84 1.76 1.76 0 01.74-1.49 2.72 2.72 0 011.65-.54 3.23 3.23 0 011.95.6 2.09 2.09 0 01.82 1.84v4.21c0 .57.17.86.52.86.53 0 .8-.57.8-1.71h.31c0 1.62-.46 2.43-1.36 2.43s-1.47-.55-1.5-1.65h-.09a3.32 3.32 0 01-.83 1.14 1.87 1.87 0 01-1.33.54 2.88 2.88 0 01-1.62-.45 1.73 1.73 0 01-.67-1.6zm1.5.07c0 .89.36 1.33 1.06 1.33a1.43 1.43 0 00.74-.19 1.69 1.69 0 00.58-.58 5.55 5.55 0 00.38-.65c.08-.19.17-.42.28-.7v-1.61l-1.53.33a1.85 1.85 0 00-1.15.67 2.36 2.36 0 00-.33 1.4zM215.18 239.87a1.67 1.67 0 01-1.28-.55 2.15 2.15 0 01-.5-1.49v-5.5h-1.27v-.48h.38a1.33 1.33 0 001.2-.83 3.79 3.79 0 00.44-1.84v-.62h.48v3.29h2.13v.48h-2.13V238c0 .81.3 1.21.91 1.21.81 0 1.22-.7 1.22-2.12h.3v.65a5.72 5.72 0 01-.11.71 2.06 2.06 0 01-.29.73 1.73 1.73 0 01-.56.5 1.86 1.86 0 01-.92.19zM218.14 239.66v-.41h.72a.33.33 0 00.38-.38v-6.23a.34.34 0 00-.38-.38h-.72v-.41h2.33v7a.33.33 0 00.38.38h.72v.41zm1.63-9.93a.92.92 0 01-.65-.26.91.91 0 010-1.27.92.92 0 01.65-.26.91.91 0 01.65.26.91.91 0 010 1.27.91.91 0 01-.65.26zM222.62 239.66v-.41h.71a.33.33 0 00.38-.38v-6.23a.33.33 0 00-.38-.38h-.71v-.41H225v1.58a3.9 3.9 0 011.07-1.32 2.15 2.15 0 011.32-.48 2 2 0 011.38.45 2.54 2.54 0 01.79 2.11v4.67a.33.33 0 00.38.38h.72v.41h-3.43v-.41h.77a.33.33 0 00.38-.38v-5c0-1.19-.37-1.79-1.1-1.79a2 2 0 00-1.53 1 3.59 3.59 0 00-.76 2.27v3.56c0 .26.12.38.37.38h.64v.41zM232 241.75a1.51 1.51 0 01.5-1.11 2.1 2.1 0 011.18-.58V240c-1-.22-1.51-.64-1.51-1.27a1.31 1.31 0 01.54-1.11 3.06 3.06 0 011.33-.54V237a2.61 2.61 0 01-1.73-2.59 2.54 2.54 0 01.9-2 3.32 3.32 0 013.56-.43 2.34 2.34 0 01.87.57 1.24 1.24 0 01.5-.67 1.21 1.21 0 01.68-.23 1.37 1.37 0 011 .35 1.15 1.15 0 01.38.89 1.11 1.11 0 01-.2.67.61.61 0 01-.52.25.87.87 0 01-.48-.14.54.54 0 01-.21-.47.6.6 0 01.29-.55.35.35 0 00.19-.31c0-.18-.15-.27-.46-.27a.81.81 0 00-.56.24 1 1 0 00-.28.58 2.61 2.61 0 01.48 1.57 2.56 2.56 0 01-.88 2.05 3.19 3.19 0 01-2.17.76 5.21 5.21 0 00-1.74.27c-.51.18-.76.47-.76.88s.36.57 1.1.57h2.87a2.86 2.86 0 011.84.59 2.11 2.11 0 01.73 1.74 2.05 2.05 0 01-1 1.84 5 5 0 01-2.68.63 6.45 6.45 0 01-2.6-.48 1.59 1.59 0 01-1.16-1.56zm.76 0a1.3 1.3 0 00.9 1.21 5 5 0 002 .4 6.25 6.25 0 001.42-.15 2.41 2.41 0 001.15-.6 1.46 1.46 0 00.52-1.17 1.43 1.43 0 00-.32-.92 1.38 1.38 0 00-1.1-.38h-1.91a5.45 5.45 0 00-1.25.13 2.34 2.34 0 00-1 .5 1.21 1.21 0 00-.46.95zm.92-7.27a3 3 0 00.45 1.77 1.52 1.52 0 002.46 0 3.69 3.69 0 000-3.53 1.52 1.52 0 00-2.46 0 3 3 0 00-.5 1.73zM246 233.46a8.41 8.41 0 01.57-3.15 5.34 5.34 0 011.66-2.29 4 4 0 012.57-.86 3.61 3.61 0 012.12.78 3.3 3.3 0 01.45.33.77.77 0 00.48.24.25.25 0 00.2-.08 1.06 1.06 0 00.14-.3l.29-.84h.43v4.77h-.43a7.74 7.74 0 00-1.58-3.23 2.89 2.89 0 00-2.1-1.13 2.71 2.71 0 00-1.25.28 2.36 2.36 0 00-.86.73 4.21 4.21 0 00-.53 1.22 8 8 0 00-.27 1.59c0 .55-.07 1.2-.07 1.94s0 1.4.08 2a9.52 9.52 0 00.31 1.64 4.05 4.05 0 00.59 1.27 2.55 2.55 0 00.93.79 2.85 2.85 0 001.34.29 3.2 3.2 0 001.53-.36 2.94 2.94 0 001.07-1 5.31 5.31 0 00.63-1.34 7.43 7.43 0 00.27-1.52h.62c0 .25 0 .5-.08.77a6.94 6.94 0 01-.2.86 5.08 5.08 0 01-.34.9 4.72 4.72 0 01-.53.84 4.08 4.08 0 01-.73.71 3.2 3.2 0 01-1 .48 4.17 4.17 0 01-1.26.18 4.37 4.37 0 01-2.18-.56 4.7 4.7 0 01-1.6-1.5 7.26 7.26 0 01-.95-2.07 8.2 8.2 0 01-.32-2.38zM260.38 239.87a3.05 3.05 0 01-2.44-1.21 4.42 4.42 0 01-1-2.9 4.46 4.46 0 011-2.91 3.08 3.08 0 012.44-1.21 3 3 0 012.43 1.21 4.46 4.46 0 011 2.91 4.42 4.42 0 01-1 2.9 3 3 0 01-2.43 1.21zm0-.41c1.28 0 1.92-1.24 1.92-3.7s-.64-3.7-1.92-3.7-1.92 1.23-1.92 3.7.64 3.7 1.92 3.7zM265.12 239.66v-.41h.72a.33.33 0 00.38-.38v-6.23a.34.34 0 00-.38-.38h-.72v-.41h2.33v1.58h.07a3.9 3.9 0 011.07-1.32 2.14 2.14 0 011.31-.48 2.07 2.07 0 011.39.45 2.54 2.54 0 01.79 2.11v4.67a.33.33 0 00.38.38h.72v.41h-3.43v-.41h.72a.33.33 0 00.38-.38v-5c0-1.19-.37-1.79-1.1-1.79a2 2 0 00-1.53 1 3.6 3.6 0 00-.77 2.27v3.56a.33.33 0 00.38.38h.72v.41zM277.1 239.87a1.67 1.67 0 01-1.28-.55 2.15 2.15 0 01-.5-1.49v-5.5h-1.27v-.48h.38a1.33 1.33 0 001.2-.83 3.79 3.79 0 00.44-1.84v-.62h.48v3.29h2.13v.48h-2.13V238c0 .81.3 1.21.91 1.21.81 0 1.22-.7 1.22-2.12h.3v.65a4.52 4.52 0 01-.12.71 1.89 1.89 0 01-.28.73 1.73 1.73 0 01-.56.5 1.86 1.86 0 01-.92.19zM280.2 237.85a2.08 2.08 0 01.21-.95 2 2 0 01.47-.66 2.32 2.32 0 01.72-.43 4.32 4.32 0 01.75-.25l.76-.16 1.63-.29v-1.46a1.4 1.4 0 00-1.58-1.59 2 2 0 00-1.06.3.83.83 0 00-.48.67.57.57 0 00.05.26.33.33 0 00.26.17c.42.11.63.34.63.67s-.25.67-.75.67a1 1 0 01-.69-.29 1.14 1.14 0 01-.3-.84 1.75 1.75 0 01.73-1.49 2.73 2.73 0 011.66-.54 3.18 3.18 0 011.94.6 2.09 2.09 0 01.82 1.84v4.21c0 .57.18.86.53.86.53 0 .79-.57.79-1.71h.31c0 1.62-.45 2.43-1.36 2.43s-1.47-.55-1.5-1.65h-.09a3.42 3.42 0 01-.82 1.14 1.89 1.89 0 01-1.34.54 2.84 2.84 0 01-1.61-.45 1.73 1.73 0 01-.68-1.6zm1.51.07c0 .89.35 1.33 1.05 1.33a1.41 1.41 0 00.74-.19 1.61 1.61 0 00.58-.58 5.55 5.55 0 00.38-.65c.08-.19.18-.42.28-.7v-1.61l-1.53.33a1.85 1.85 0 00-1.15.67 2.43 2.43 0 00-.35 1.4zM292.07 239.87a3 3 0 01-2.43-1.21 4.42 4.42 0 01-1-2.9 4.46 4.46 0 011-2.91 3 3 0 012.43-1.21 3.08 3.08 0 012.44 1.21 4.46 4.46 0 011 2.91 4.42 4.42 0 01-1 2.9 3.05 3.05 0 01-2.44 1.21zm0-.41c1.28 0 1.92-1.24 1.92-3.7s-.64-3.7-1.92-3.7-1.92 1.23-1.92 3.7.64 3.7 1.92 3.7zM302 232.06l.14-4.6H312l.13 4.6h-.43v-.6a7.51 7.51 0 00-.26-1.25 3.71 3.71 0 00-.6-1.31 2.1 2.1 0 00-1.69-.89h-.79a.41.41 0 00-.46.47v10.17a.41.41 0 00.46.47H310v.54h-5.8v-.54h1.65a.41.41 0 00.46-.47v-10.17a.41.41 0 00-.46-.47h-.79a2.05 2.05 0 00-1.7.89 3.71 3.71 0 00-.6 1.31 7.25 7.25 0 00-.25 1.25 5.67 5.67 0 000 .6zM313.37 239.66v-.41h1a.33.33 0 00.38-.38v-10.62a.34.34 0 00-.38-.38h-1v-.41h2.57v6h.06a3.68 3.68 0 011.07-1.32 2.19 2.19 0 012.7 0 2.57 2.57 0 01.78 2.11v4.67a.33.33 0 00.38.38h.72v.41h-3.43v-.41h.78a.33.33 0 00.38-.38v-5c0-1.19-.36-1.79-1.1-1.79a2 2 0 00-1.53 1 3.59 3.59 0 00-.76 2.27v3.56a.33.33 0 00.38.38h.63v.41zM322.88 235.76a5.08 5.08 0 01.39-2 3.81 3.81 0 011.14-1.53 2.63 2.63 0 011.69-.6 2.55 2.55 0 011.14.26 2.47 2.47 0 01.87.69 4.26 4.26 0 01.59 1 5.15 5.15 0 01.34 1.12 6.2 6.2 0 01.11 1.14h-4.76a10.66 10.66 0 00.08 1.47 5.18 5.18 0 00.29 1.13 1.58 1.58 0 001.58 1 2.19 2.19 0 00.67-.11 2 2 0 00.66-.36 1.81 1.81 0 00.57-.77 4.08 4.08 0 00.33-1.23h.43a3.56 3.56 0 01-.78 2.07 2.35 2.35 0 01-1.9.81 3 3 0 01-2.48-1.15 4.49 4.49 0 01-.96-2.94zm1.51-.41h3.25a8.6 8.6 0 00-.08-1.17 6.88 6.88 0 00-.26-1 1.79 1.79 0 00-.5-.79 1.17 1.17 0 00-1.54 0 1.91 1.91 0 00-.52.79 5.77 5.77 0 00-.27 1.05 7.29 7.29 0 00-.08 1.12zM330.43 239.66v-.41h.72a.33.33 0 00.38-.38v-6.23a.34.34 0 00-.38-.38h-.72v-.41h2.33v1.51h.07c.62-1.15 1.35-1.73 2.21-1.73a2.1 2.1 0 011.42.45 2.28 2.28 0 01.72 1.44h.07a4.21 4.21 0 01.24-.47 5.82 5.82 0 01.44-.61 2.23 2.23 0 01.7-.59 1.78 1.78 0 01.9-.24 2.12 2.12 0 011.42.45 2.54 2.54 0 01.79 2.11v4.67a.33.33 0 00.38.38h.72v.41h-3.43v-.41h.72a.33.33 0 00.38-.38v-5a2.73 2.73 0 00-.27-1.26.89.89 0 00-.86-.53 1.83 1.83 0 00-1.44 1 3.85 3.85 0 00-.69 2.28v3.56a.33.33 0 00.38.38h.72v.41h-3.43v-.41h.72a.33.33 0 00.38-.38v-5a2.73 2.73 0 00-.27-1.26.88.88 0 00-.86-.53 1.83 1.83 0 00-1.44 1 3.85 3.85 0 00-.69 2.28v3.56a.33.33 0 00.38.38h.72v.41zM344.05 235.76a4.91 4.91 0 01.4-2 3.81 3.81 0 011.14-1.53 2.66 2.66 0 012.83-.34 2.53 2.53 0 01.86.69 3.93 3.93 0 01.59 1 4.68 4.68 0 01.35 1.12 6.2 6.2 0 01.1 1.14h-4.76a10.53 10.53 0 00.09 1.47 4.25 4.25 0 00.29 1.13 1.56 1.56 0 00.6.77 1.68 1.68 0 001 .27 2.09 2.09 0 00.67-.11 1.92 1.92 0 00.67-.36 2 2 0 00.57-.77 4.09 4.09 0 00.32-1.23h.41a3.56 3.56 0 01-.78 2.07 2.32 2.32 0 01-1.89.81 3 3 0 01-2.48-1.15 4.49 4.49 0 01-.98-2.98zm1.51-.41h3.26a7.22 7.22 0 00-.09-1.17 5.86 5.86 0 00-.26-1 1.78 1.78 0 00-.49-.79 1.18 1.18 0 00-1.55 0 2 2 0 00-.51.79 5.05 5.05 0 00-.27 1.05 7.27 7.27 0 00-.09 1.12zM152 210.93h198.09v6.04H152zM175.5 187.61l.42-1.06a9.12 9.12 0 01.49-1l18.71-33.08a1.25 1.25 0 01.54-.54 2.4 2.4 0 01.74-.1h2.39v47.62h-3v-40.57a17.48 17.48 0 01.1-1.86l-18.77 33.28a1.46 1.46 0 01-1.35.88h-.53a1.51 1.51 0 01-1.35-.88L154.64 157a17.62 17.62 0 01.1 1.89v40.58h-3v-47.63h2.35a2.54 2.54 0 01.76.1 1.23 1.23 0 01.56.54l19.21 33.11a12.67 12.67 0 01.88 2.02zM258.85 199.46h-2.66a1.16 1.16 0 01-.77-.26 1.65 1.65 0 01-.47-.65l-5.62-13.83h-23.39l-5.58 13.83a1.52 1.52 0 01-.47.64 1.28 1.28 0 01-.81.27h-2.63l19.49-47.62h3.43zM227 182.16h21.33l-9.73-24.06q-.24-.57-.48-1.29l-.47-1.53c-.15.53-.31 1-.47 1.53s-.31.92-.47 1.33zM303.7 151.84v2.93H287v44.69h-3.43v-44.69h-16.85v-2.93zM350.58 151.84v2.86h-25.07V174h20.86v2.79h-20.86v19.81h25.07v2.86H322v-47.62zM135 95.71a4 4 0 10-2.83-1.17 4 4 0 002.83 1.17zM147.77 95.71A4 4 0 10145 88.9a4 4 0 000 5.64 4 4 0 002.82 1.17zM160.55 95.71a4 4 0 10-2.82-1.17 4 4 0 002.82 1.17zM177.59 95.71h161.86a4 4 0 000-8H177.59a4 4 0 000 8zM356.49 95.71H365a4 4 0 100-8h-8.51a4 4 0 100 8z"/><path d="M365 70.69H135a21.06 21.06 0 00-21 21v181a21.07 21.07 0 0021 21h230a21.07 21.07 0 0021-21v-181a21.06 21.06 0 00-21-21zm-230 8h230a13.07 13.07 0 0113.05 13v13H122v-13a13.07 13.07 0 0113-13zm230 207.1H135a13.06 13.06 0 01-13-13.05v-160h256.1v160a13.06 13.06 0 01-13.1 13.05z" fill="#fff"/></g></g></svg>
