<?xml version="1.0" encoding="UTF-8"?>
<svg id="Ebene_1" xmlns="http://www.w3.org/2000/svg" width="360" height="360" version="1.1" viewBox="0 0 360 360">
  <!-- Generator: Adobe Illustrator 30.3.0, SVG Export Plug-In . SVG Version: 2.1.3 Build 182)  -->
  <path d="M77.1-2.6h200c44.2,0,80,35.8,80,80v200c0,44.2-35.8,80-80,80H77.1c-44.2,0-80-35.8-80-80V77.4C-2.9,33.2,32.9-2.6,77.1-2.6Z" style="fill: #a13609;"/>
  <path d="M92.1,22.4h170c38.7,0,70,31.3,70,70v170c0,38.7-31.3,70-70,70H92.1c-38.7,0-70-31.3-70-70V92.4c0-38.7,31.3-70,70-70Z" style="fill: #2d3f4b;"/>
  <path d="M267.1,31.4c14.9,0,28.9,5.8,39.5,16.5s16.5,24.6,16.5,39.5v180c0,14.9-5.9,28.9-16.5,39.5s-24.6,16.5-39.5,16.5H87.1c-14.9,0-28.9-5.9-39.5-16.5s-16.5-24.6-16.5-39.5V87.4c0-14.9,5.8-28.9,16.5-39.5s24.6-16.5,39.5-16.5h180M267.1,17.4H87.1c-38.5,0-70,31.5-70,70v180c0,38.5,31.5,70,70,70h180c38.5,0,70-31.5,70-70V87.4c0-38.5-31.5-70-70-70Z" style="fill: #f2edd5;"/>
  <g>
    <path d="M161.1,185.4h32M177.1,129.4v56M209.1,145.4v-16h-64v16" style="fill: none; stroke: #f2edd5; stroke-linecap: round; stroke-linejoin: round; stroke-width: 12px;"/>
    <path d="M113.1,237.4v-120c0-11,9-20,20-20h100c4.4,0,8,3.6,8,8v144c0,4.4-3.6,8-8,8h-100c-11,0-20-9-20-20s9-20,20-20h108" style="fill: none; stroke: #f2edd5; stroke-linecap: round; stroke-linejoin: round; stroke-width: 12px;"/>
  </g>
</svg>