<?xml version="1.0" encoding="UTF-8"?><svg id="Ebene_1" xmlns="http://www.w3.org/2000/svg" width="35.28mm" height="35.28mm" viewBox="0 0 100 100"><defs><style>.cls-1,.cls-2{isolation:isolate;}.cls-3,.cls-2{fill:#fff;}.cls-4{fill:#cf0;}.cls-2{opacity:.1;}</style></defs><rect width="100" height="100"/><polygon class="cls-2" points="0 0 26.61 0 26.61 40.73 26.81 40.73 56.85 0 88.91 0 52.02 46.57 91.73 100 57.86 100 26.81 54.44 26.61 54.44 26.61 99.8 0 99.8 0 0"/><g class="cls-1"><g class="cls-1"><path class="cls-4" d="M29.37,56.93c-1.01-.52-1.79-1.25-2.35-2.2-.56-.95-.84-2.05-.84-3.3v-5.4c0-1.23.28-2.32.84-3.26.56-.94,1.34-1.67,2.35-2.19,1.01-.52,2.18-.78,3.51-.78s2.5.25,3.51.74c1.01.49,1.79,1.18,2.35,2.08.56.89.84,1.92.84,3.09,0,.08-.03.15-.09.2-.06.05-.13.07-.21.07l-3.55.23c-.2,0-.3-.09-.3-.28,0-.78-.23-1.41-.7-1.88-.47-.47-1.08-.7-1.85-.7s-1.38.24-1.85.71-.7,1.1-.7,1.86v5.67c0,.77.23,1.38.7,1.85s1.08.7,1.85.7,1.38-.23,1.85-.7c.47-.47.7-1.08.7-1.85,0-.18.1-.27.3-.27l3.55.17c.08,0,.15.03.21.08.06.05.09.11.09.17,0,1.18-.28,2.22-.84,3.12-.56.9-1.34,1.6-2.35,2.09-1.01.49-2.18.74-3.51.74s-2.5-.26-3.51-.78Z"/><path class="cls-4" d="M53.25,40.01h3.53c.08,0,.15.03.21.09s.09.13.09.21v16.9c0,.08-.03.15-.09.21-.06.06-.13.09-.21.09h-3.55c-.08,0-.15-.03-.21-.09-.06-.06-.09-.13-.09-.21v-10.05c0-.07-.02-.1-.05-.1s-.07.03-.1.08l-2.15,3.45c-.07.13-.18.2-.35.2h-1.78c-.17,0-.28-.07-.35-.2l-2.18-3.48s-.07-.07-.1-.07-.05.03-.05.1v10.08c0,.08-.03.15-.09.21-.06.06-.13.09-.21.09h-3.55c-.08,0-.15-.03-.21-.09-.06-.06-.09-.13-.09-.21v-16.9c0-.08.03-.15.09-.21.06-.06.13-.09.21-.09h3.52c.15,0,.27.07.35.2l3.48,5.45c.05.1.1.1.15,0l3.43-5.45c.07-.13.18-.2.35-.2Z"/><path class="cls-4" d="M59,57.41c-.05-.07-.04-.15.03-.25l4.72-8.33s.03-.1,0-.15l-4.72-8.33-.05-.15c0-.13.09-.2.28-.2h3.85c.18,0,.31.07.38.2l2.83,5.25c.05.07.1.07.15,0l2.85-5.25c.07-.13.19-.2.38-.2h3.85c.12,0,.19.03.22.1.03.07.03.15-.03.25l-4.7,8.33s-.02.1,0,.15l4.7,8.33c.03.07.05.12.05.15,0,.13-.08.2-.25.2h-3.83c-.17,0-.29-.07-.38-.2l-2.88-5.22c-.05-.08-.1-.08-.15,0l-2.85,5.22c-.08.13-.21.2-.38.2h-3.83c-.12,0-.2-.03-.25-.1Z"/></g></g><path class="cls-3" d="M44.81,91.65l-.96-2.06v2.06h-1.25v-4.52h1.25v1.94l.98-1.94h1.51l-1.29,2.18,1.37,2.34h-1.61Z"/><path class="cls-3" d="M46.56,91.65v-4.52h1.25v4.52h-1.25Z"/><path class="cls-3" d="M53.15,91.65h-1.51l-.38-1.69c-.07-.33-.13-.72-.17-1.15h0c-.03.4-.09.75-.17,1.11l-.4,1.74h-1.41l-1.09-4.52h1.32l.42,1.85c.07.29.11.64.14.98h0c.04-.33.09-.64.17-.96l.48-1.87h1.25l.46,1.8c.07.26.14.62.18.99h0c.05-.39.11-.74.18-1.05l.38-1.74h1.25l-1.1,4.52h0Z"/><path class="cls-3" d="M54.42,91.65v-4.52h1.25v4.52h-1.25Z"/><rect class="cls-3" x="56.15" y="90.4" width="1.25" height="1.25"/></svg>
