<?xml version="1.0" encoding="utf-8"?>
<!-- Generator: Adobe Illustrator 24.0.1, SVG Export Plug-In . SVG Version: 6.00 Build 0)  -->
<svg version="1.1" id="Layer_1" xmlns="http://www.w3.org/2000/svg" xmlns:xlink="http://www.w3.org/1999/xlink" x="0px" y="0px"
	 viewBox="0 0 738.8 136.3" style="enable-background:new 0 0 738.8 136.3;" xml:space="preserve">
<style type="text/css">
	.st0{fill:#343434;}
	.st1{fill:none;}
	.st2{fill:#D3DE2A;}
	.st3{fill:#606161;}
	.st4{fill:none;stroke:#343434;stroke-width:2;stroke-miterlimit:10;}
</style>
<g>
	<g>
		<g>
			<path class="st0" d="M205,108.2V30h17.2V37h0.3c2.5-3.7,5-6.2,7.5-7.5c2.5-1.4,5.6-2,9.3-2h1.5v18.2c-3.9,0.2-7.2,1-9.6,2.4
				c-2.5,1.4-4.3,3.4-5.6,6c-1.2,2.6-1.9,6.1-1.9,10.3v44H205z"/>
			<path class="st0" d="M325.9,77.6h-60.7c1.9,5.3,4.7,9.3,8.4,12c3.7,2.7,8.3,4.1,13.6,4.1c4.2,0,7.7-0.8,10.5-2.5
				c2.8-1.7,5.2-4.2,7.1-7.5h19.7c-1.3,3.6-2.7,6.6-4.3,8.9c-2.4,3.6-5.4,6.8-8.8,9.6c-3.4,2.8-7.1,4.9-11.1,6.4
				c-4,1.5-8.7,2.2-14.1,2.2c-13.1,0-23.5-4.9-31.4-14.6c-6.2-7.7-9.3-16.8-9.3-27.2c0-7.7,1.8-14.8,5.4-21.4
				c3.6-6.6,8.7-11.7,15.1-15.3c6.4-3.6,13.5-5.4,21.1-5.4c7.4,0,14.2,1.7,20.4,5.2c6.2,3.5,11,8.3,14.4,14.7
				c3.4,6.3,5.2,13.1,5.2,20.3C327.1,70.5,326.7,74,325.9,77.6z M307.9,62.4c-1.1-5.9-3.6-10.4-7.4-13.6c-3.8-3.1-8.4-4.7-14-4.7
				c-4.1,0-7.7,0.9-10.8,2.7c-3.1,1.8-5.7,4.3-7.7,7.5c-1.3,2.1-2.4,4.8-3.3,8H307.9z"/>
			<path class="st0" d="M358.4,108.2L326.8,30h20.3L366,81.9h0.4L384.1,30h20.6l-31.6,78.2H358.4z"/>
			<path class="st0" d="M412.8,21.2V4h18.7v17.2H412.8z M412.8,108.2V30h18.7v78.2H412.8z"/>
			<path class="st0" d="M523.9,77.6h-60.7c1.9,5.3,4.7,9.3,8.4,12c3.7,2.7,8.3,4.1,13.6,4.1c4.2,0,7.7-0.8,10.5-2.5
				c2.8-1.7,5.2-4.2,7.1-7.5h19.7c-1.3,3.6-2.7,6.6-4.3,8.9c-2.4,3.6-5.4,6.8-8.8,9.6c-3.4,2.8-7.1,4.9-11.1,6.4
				c-4,1.5-8.7,2.2-14.1,2.2c-13.1,0-23.5-4.9-31.4-14.6c-6.2-7.7-9.3-16.8-9.3-27.2c0-7.7,1.8-14.8,5.4-21.4
				c3.6-6.6,8.7-11.7,15.1-15.3c6.4-3.6,13.5-5.4,21.1-5.4c7.4,0,14.2,1.7,20.4,5.2c6.2,3.5,11,8.3,14.4,14.7
				c3.4,6.3,5.2,13.1,5.2,20.3C525.1,70.5,524.7,74,523.9,77.6z M505.9,62.4c-1.1-5.9-3.6-10.4-7.4-13.6c-3.8-3.1-8.4-4.7-14-4.7
				c-4.1,0-7.7,0.9-10.8,2.7c-3.1,1.8-5.7,4.3-7.7,7.5c-1.3,2.1-2.4,4.8-3.3,8H505.9z"/>
			<path class="st0" d="M538.2,108.2V30h17.2V37h0.3c2.5-3.7,5-6.2,7.5-7.5c2.5-1.4,5.6-2,9.3-2h1.5v18.2c-3.9,0.2-7.2,1-9.6,2.4
				s-4.3,3.4-5.6,6c-1.2,2.6-1.9,6.1-1.9,10.3v44H538.2z"/>
			<path class="st0" d="M631.5,51.4h-18.3c-0.6-2.4-1.5-4.2-2.7-5.2c-1.3-1.1-2.8-1.6-4.7-1.6c-2.1,0-3.8,0.7-5.2,2
				c-1.4,1.3-2,2.9-2,4.8c0,1.6,0.6,2.9,1.7,4c1.1,1.1,3.9,2.3,8.5,3.7c7.1,2.2,12.2,4.2,15.2,6c3,1.8,5.4,4.2,7.1,7.4
				c1.7,3.2,2.6,6.9,2.6,11.2c0,7.7-2.6,14.1-7.9,19.3c-5.3,5.2-11.8,7.8-19.6,7.8c-4.8,0-9-0.9-12.8-2.6s-6.8-3.8-9.1-6.3
				c-2.3-2.5-4-5.1-5.1-8c-1.1-2.9-1.8-6.3-2.1-10.4h19.2c0.9,3.7,2.1,6.2,3.8,7.7c1.7,1.5,3.8,2.2,6.4,2.2c2.7,0,4.9-0.9,6.6-2.7
				c1.4-1.5,2.1-3.6,2-5.7c-0.1-2-0.8-3.5-2.2-4.7c-1.4-1.2-4.5-2.7-9-4.4c-6.7-2.4-11.2-4.3-13.6-5.8c-3.4-2.2-6-4.7-7.7-7.7
				c-1.7-3-2.5-6.4-2.5-10.2c0-4.7,1.1-9,3.4-12.8c2.3-3.9,5.5-6.9,9.6-9c4.1-2.1,8.5-3.2,13-3.2c4,0,7.7,0.8,11,2.3
				c3.3,1.6,6,3.4,8,5.6c2.1,2.2,3.7,4.6,4.7,7.1C630.7,45.1,631.3,48,631.5,51.4z"/>
			<path class="st0" d="M648.5,108.2V46.7h-9.1V30h9.1V4h18.8V30h11.2v16.6h-11.2v61.6H648.5z"/>
			<path class="st0" d="M686.1,21.2V4h18.7v17.2H686.1z M686.1,108.2V30h18.7v78.2H686.1z"/>
			<path class="st0" d="M720.1,108.2V4h18.7v104.3H720.1z"/>
		</g>
	</g>
	<g>
		<path class="st1" d="M-1,66.9l1,0.8c0-0.4,0-0.9,0-1.3L-1,66.9z"/>
		<path class="st2" d="M98.2,17.3C94.5,12.4,89.8,5.4,76.3,2c-4.9-1.2-10.9-2-18.4-2c-3.5,0-7.8,0-12.6,0c-7.7,0-16.8,0-26.1,0
			C12.3,0,7.9,3.5,5.1,8l40.3,37.4h74.5C119.8,45.3,103.2,23.9,98.2,17.3z"/>
		<path class="st3" d="M5.1,8c-2.2,3.5-3.4,7.6-4.1,11.1C0.3,22.5,0,25.9,0,29.3c0,2.6,0,7.8,0,14.6c0,6.4,0,14.2,0,22.6
			c0,0.4,0,0.9,0,1.3c0,31,0,68.5,0,68.5s21.4-16.6,28.1-21.6c3.5-2.7,8.2-5.9,11.8-12.6c3.2-5.9,5.5-14.4,5.5-27.7
			c0-7.3,0-17.6,0-29L5.1,8z"/>
	</g>
	<line class="st4" x1="162.3" y1="7.7" x2="162.3" y2="128.6"/>
</g>
<g>
</g>
<g>
</g>
<g>
</g>
<g>
</g>
<g>
</g>
<g>
</g>
</svg>
