<svg xmlns="http://www.w3.org/2000/svg" xmlns:vectornator="http://vectornator.io" stroke-linecap="round" stroke-linejoin="round" clip-rule="evenodd" viewBox="0 0 121.3 136.3"><g vectornator:layerName="Untitled"><path fill="none" d="m-1 66.9 1 .8v-1.3l-1 .5z"/><path fill="#d3de2a" d="M98.2 17.3C94.5 12.4 89.8 5.4 76.3 2 71.4.8 65.4 0 57.9 0H19.2C12.3 0 7.9 3.5 5.1 8l40.3 37.4h74.5c-.1-.1-16.7-21.5-21.7-28.1z"/><path fill="#606161" d="M5.1 8C2.9 11.5 1.7 15.6 1 19.1c-.7 3.4-1 6.8-1 10.2v107s21.4-16.6 28.1-21.6c3.5-2.7 8.2-5.9 11.8-12.6 3.2-5.9 5.5-14.4 5.5-27.7v-29L5.1 8z"/></g></svg>