<svg xmlns="http://www.w3.org/2000/svg" viewBox="598.836 523.983 1202.328 752.034"><svg xmlns="http://www.w3.org/2000/svg" width="2400" height="1800" color-interpolation-filters="sRGB" transform="matrix(7.05882 0 0 7.05882 0 17.647)" version="1.0" viewBox="0 0 340 250"><g fill="#666" class="icon-text-wrapper icon-svg-group iconsvg"><g fill="#88CA3E" class="iconsvg-imagesvg icon_container" transform="translate(128.6 71.73)"><path fill="none" d="M0 0h82.8v82.8H0z" class="image-rect"/><svg width="82.8" height="82.8" class="image-svg-svg bn" style="overflow:visible" viewBox="0 0 60 60"><g mask="url(#a)"><svg xmlns="http://www.w3.org/2000/svg" width="60" height="60" filter="url(#b)" style="overflow:visible" viewBox="0 0 60 60"><g><path fill-rule="evenodd" d="M49.001 0H10.999C4.934 0 0 4.934 0 10.999v38.002C0 55.066 4.934 60 10.999 60h38.002C55.065 60 60 55.066 60 49.001V10.999C60 4.934 55.065 0 49.001 0"/></g><defs><filter id="b"><feColorMatrix values="0 0 0 0 0.53125 0 0 0 0 0.7890625 0 0 0 0 0.2421875 0 0 0 1 0"/></filter></defs></svg><g filter="url(#c)"><svg xmlns="http://www.w3.org/2000/svg" width="40" height="40" x="10" y="10" class="image-svg-icon" viewBox="14.875 14.8 70.36 70.36"><path d="M80 37.87a3.07 3.07 0 0 0-2.07 3.82A29.09 29.09 0 1 1 66.5 26a3.07 3.07 0 1 0 3.5-5 35.18 35.18 0 1 0 13.79 19A3.08 3.08 0 0 0 80 37.87Z"/><path d="M70.36 37.11v-.33c0-.11 0-.19-.06-.29s0-.19-.08-.28l-.12-.28a2.1 2.1 0 0 0-.13-.26l-.17-.25-.18-.23-.21-.2-.23-.2-.25-.16a1.28 1.28 0 0 0-.25-.15l-.31-.13-.18-.07h-.08l-.3-.06H67.4c-.26 0-26.66-.3-35.16 29v.09l-.06.31V64.54a2.3 2.3 0 0 0 .06.28 2.45 2.45 0 0 0 .08.29l.12.28c0 .09.08.17.13.26l.17.24.18.23c.07.08.14.14.21.21l.23.2.25.16.25.15c.1 0 .21.08.31.12s.12.06.18.07h.07a2.85 2.85 0 0 0 .72.12h.09c1.69 0 26.82-.55 35.07-29a.13.13 0 0 0 0-.06c0-.11 0-.23.07-.34s0-.2 0-.3v-.08a1.34 1.34 0 0 0-.01-.26ZM39.63 60.44c5.87-14.44 17-18.51 23.19-19.67C57 55.19 45.83 59.29 39.63 60.44Z"/></svg></g></g><mask id="a"><svg xmlns="http://www.w3.org/2000/svg" width="60" height="60" fill="#fff" style="overflow:visible" viewBox="0 0 60 60"><g><path fill-rule="evenodd" stroke="#fff" d="M49.001 0H10.999C4.934 0 0 4.934 0 10.999v38.002C0 55.066 4.934 60 10.999 60h38.002C55.065 60 60 55.066 60 49.001V10.999C60 4.934 55.065 0 49.001 0"/></g></svg><svg xmlns="http://www.w3.org/2000/svg" width="40" height="40" x="10" y="10" fill="#000" class="image-svg-icon" viewBox="14.875 14.8 70.36 70.36"><path d="M80 37.87a3.07 3.07 0 0 0-2.07 3.82A29.09 29.09 0 1 1 66.5 26a3.07 3.07 0 1 0 3.5-5 35.18 35.18 0 1 0 13.79 19A3.08 3.08 0 0 0 80 37.87Z"/><path d="M70.36 37.11v-.33c0-.11 0-.19-.06-.29s0-.19-.08-.28l-.12-.28a2.1 2.1 0 0 0-.13-.26l-.17-.25-.18-.23-.21-.2-.23-.2-.25-.16a1.28 1.28 0 0 0-.25-.15l-.31-.13-.18-.07h-.08l-.3-.06H67.4c-.26 0-26.66-.3-35.16 29v.09l-.06.31V64.54a2.3 2.3 0 0 0 .06.28 2.45 2.45 0 0 0 .08.29l.12.28c0 .09.08.17.13.26l.17.24.18.23c.07.08.14.14.21.21l.23.2.25.16.25.15c.1 0 .21.08.31.12s.12.06.18.07h.07a2.85 2.85 0 0 0 .72.12h.09c1.69 0 26.82-.55 35.07-29a.13.13 0 0 0 0-.06c0-.11 0-.23.07-.34s0-.2 0-.3v-.08a1.34 1.34 0 0 0-.01-.26ZM39.63 60.44c5.87-14.44 17-18.51 23.19-19.67C57 55.19 45.83 59.29 39.63 60.44Z"/></svg></mask></svg><defs><filter id="c"><feColorMatrix class="icon-feColorMatrix" values="0 0 0 0 0.42578125 0 0 0 0 0.6875 0 0 0 0 0.19921875 0 0 0 1 0"/></filter></defs></g><path d="m97.33 165.54 2.122 7.548 2.121-7.548h4.478l-3.886 12.495h-4.366l-2.356-7.548-2.356 7.548H88.72l-3.886-12.495h4.478l2.122 7.548 2.121-7.548h3.774Zm17.677 12.73q-3.937 0-8.721-.47v-3.182q5.212.357 7.782.357.54 0 .857-.327.327-.316.327-.857v-.938q0-1.418-1.418-1.418h-4.957v-3.305h4.488q1.407 0 1.407-1.407v-.48q0-1.407-1.407-1.407h-6.845v-3.305h8.018q2.315 0 3.396 1.05 1.081 1.051 1.081 3.193 0 1.418-.642 2.295-.653.888-1.714 1.245 1.908.52 2.59 2.54.246.734.246 1.703v.234q0 2.306-1.092 3.397-1.08 1.081-3.396 1.081Zm5.895-.47v-3.07q4.784.357 7.548.357.357 0 .592-.235.235-.234.235-.591v-.827h-5.07q-1.601 0-2.57-.958-.97-.97-.97-2.57v-.827q0-1.601.97-2.57.969-.97 2.57-.97h8.017v3.06h-6.6q-.356 0-.59.245-.235.235-.235.582 0 .357.234.591.235.235.592.235h4.243q1.602 0 2.57.969.96.969.96 2.57v.939q0 1.611-.96 2.57-.968.97-2.57.97-4.182 0-8.966-.47Zm25.225-3.07v3.07q-4.406.47-7.772.47-1.612 0-2.57-.97-.97-.959-.97-2.57v-5.416q0-1.775 1-2.775t2.774-1h7.538v3.183h-6.242q-.95 0-.95.938v4.6q0 .358.246.592.234.235.581.235 2.122 0 6.365-.357Zm14.617-5.651v5.416q0 1.775-1 2.775t-2.764 1h-5.427q-1.764 0-2.774-1-1-1-1-2.775v-5.416q0-1.775 1-2.774 1.01-1 2.774-1h5.427q1.764 0 2.764 1 1 1 1 2.774Zm-4.121 5.07v-4.723q0-.939-.939-.939h-2.835q-.939 0-.939.939v4.722q0 .939.939.939h2.835q.939 0 .939-.939Zm11.2.703h.826q1.244 0 2.825-.47v-8.842h4.13v12.495h-3.66l-.235-1.184q-1.102.735-2.275 1.082-1.163.336-1.969.336h-1.06q-1.602 0-2.57-.969-.97-.959-.97-2.57v-9.19h4.131v8.486q0 .357.235.592.234.234.591.234Zm18.86.123v3.06q-2.286.234-4.479.234-1.601 0-2.57-.969-.97-.959-.97-2.57v-6.008h-1.417v-3.182h1.418l.47-2.826h3.66v2.826h2.949v3.182h-2.948v5.426q0 .347.235.582.234.245.58.245h3.071Zm1.182 2.825v-3.07q4.784.357 7.538.357.357 0 .592-.235.234-.234.234-.591v-.827h-5.07q-1.6 0-2.57-.958-.968-.97-.968-2.57v-.827q0-1.601.969-2.57.969-.97 2.57-.97h8.017v3.06h-6.6q-.356 0-.59.245-.235.235-.235.582 0 .357.234.591.235.235.592.235h4.243q1.601 0 2.57.969.97.969.97 2.57v.939q0 1.611-.97 2.57-.969.97-2.57.97-4.172 0-8.956-.47Zm13.668.235v-3.54h4.244v3.54h-4.244Zm17.208-3.305v3.07q-4.407.47-7.773.47-1.611 0-2.57-.97-.97-.959-.97-2.57v-5.416q0-1.775 1-2.775t2.775-1h7.538v3.183h-6.243q-.948 0-.948.938v4.6q0 .358.245.592.234.235.58.235 2.123 0 6.366-.357Zm14.616-5.651v5.416q0 1.775-1 2.775-.999 1-2.763 1h-5.427q-1.764 0-2.774-1-1-1-1-2.775v-5.416q0-1.775 1-2.774 1.01-1 2.774-1h5.427q1.764 0 2.764 1 1 1 1 2.774Zm-4.12 5.07v-4.723q0-.939-.939-.939h-2.835q-.939 0-.939.939v4.722q0 .939.939.939h2.835q.939 0 .939-.939Zm14.382-8.844h.234q1.908 0 2.948 1.418 1.081-.735 2.346-1.081 1.265-.337 2.254-.337h.235q1.601 0 2.57.969.959.959.959 2.57v9.19h-4.12v-8.486q0-.357-.235-.591-.235-.235-.592-.235h-.112q-1.061 0-2.713.47v8.843h-4.131v-8.487q0-.357-.235-.591-.235-.235-.592-.235h-.112q-1.06 0-2.713.47v8.843h-4.131V165.54h3.662l.234 1.183q1.102-.735 2.275-1.081 1.163-.337 1.969-.337Z" class="tp-name iconsvg-namesvg"/></g></svg></svg>