<svg xmlns="http://www.w3.org/2000/svg" id="Ebene_1" width="2994.1mm" height="1872.7mm" data-name="Ebene 1" version="1.1" viewBox="0 0 8487.1 5308.6"><defs><style>.cls-4{stroke-width:0;fill:#fff}</style></defs><path d="M2180.7 0h4125.7v4125.7H2180.7z" style="fill:none;stroke-width:0"/><path d="M5550.1 0H2937c-417 0-756.3 339.3-756.3 756.3v2613.1c0 417 339.3 756.3 756.3 756.3h2613.1c417 0 756.3-339.3 756.3-756.3V756.3c0-417-339.3-756.3-756.3-756.3" style="stroke-width:0;fill:#88ca3e;fill-rule:evenodd"/><path d="M5414.1 1589.4c-63.5 18.8-99.8 85.6-81 149.2v.2c179.2 601.9-163.4 1235.2-765.3 1414.4-601.9 179.2-1235.2-163.4-1414.4-765.3-179.2-601.9 163.4-1235.2 765.3-1414.4 328.9-98 684.5-42.1 967.6 152 49.8 43.7 125.6 38.8 169.4-11.1 43.7-49.8 38.8-125.6-11.1-169.4-6.6-5.8-13.8-10.8-21.5-15-625.7-430.6-1481.9-272.5-1912.5 353.2-430.6 625.7-272.5 1481.9 353.2 1912.5 625.7 430.6 1481.9 272.5 1912.5-353.2 235.3-341.9 303.6-771.8 185.9-1169.8-18-63.8-84.3-101-148.2-83.3" class="cls-4"/><path d="M5037.3 1559.7v-12.9c0-4.3 0-7.4-2.3-11.3s0-7.4-3.1-10.9l-4.7-10.9c-1.5-3.5-3.2-6.9-5.1-10.2l-6.6-9.8-7-9-8.2-7.8-9-7.8-9.8-6.3c-3-2.3-6.3-4.3-9.8-5.9l-12.1-5.1-7-2.7h-3.1l-11.7-2.3h-16c-10.2 0-1042.2-11.7-1374.4 1133.6v3.5l-2.3 12.1v36c.6 3.7 1.3 7.3 2.3 10.9.8 3.8 1.9 7.6 3.1 11.3l4.7 10.9c0 3.5 3.1 6.6 5.1 10.2l6.6 9.4 7 9c2.7 3.1 5.5 5.5 8.2 8.2l9 7.8 9.8 6.3 9.8 5.9c3.9 0 8.2 3.1 12.1 4.7s4.7 2.3 7 2.7h2.7c9.1 2.8 18.6 4.3 28.1 4.7h3.5c66.1 0 1048.4-21.5 1370.9-1133.6.2-.8.2-1.6 0-2.3 0-4.3 0-9 2.7-13.3s0-7.8 0-11.7v-3.1c.2-3.4 0-6.8-.4-10.2Zm-1201.3 912c229.5-564.5 664.5-723.6 906.5-768.9-227.5 563.7-664.2 724-906.5 768.9" class="cls-4"/><path d="m622.6 4674.3 105.7 376.1L834 4674.3h223.1l-193.6 622.6H646l-117.4-376.1-117.4 376.1H193.6L0 4674.3h223.1l105.7 376.1 105.7-376.1zm880.8 634.3c-130.8 0-275.6-7.8-434.5-23.4v-158.5c173.1 11.9 302.4 17.8 387.8 17.8s32.2-5.4 42.7-16.3c10.9-10.5 16.3-24.7 16.3-42.7v-46.7c0-47.1-23.6-70.7-70.7-70.7h-247v-164.7h223.6c46.7 0 70.1-23.4 70.1-70.1v-23.9c0-46.7-23.4-70.1-70.1-70.1h-341.1v-164.7H1480c76.9 0 133.3 17.4 169.2 52.3 35.9 34.9 53.9 87.9 53.9 159.1s-10.7 85.2-32 114.4c-21.7 29.5-50.2 50.2-85.4 62 63.4 17.3 106.4 59.5 129.1 126.6 8.2 24.4 12.3 52.7 12.3 84.9v11.7c0 76.6-18.1 133-54.4 169.3-35.9 35.9-92.3 53.9-169.2 53.9Zm293.8-23.5v-153c158.9 11.9 284.3 17.8 376.1 17.8s21.7-3.9 29.5-11.7c7.8-7.8 11.7-17.6 11.7-29.4v-41.2h-252.6c-53.2 0-95.9-15.9-128.1-47.7-32.2-32.2-48.3-74.9-48.3-128.1v-41.2c0-53.2 16.1-95.9 48.3-128.1 32.2-32.2 74.9-48.3 128.1-48.3h399.5v152.5h-328.9c-11.8 0-21.6 4.1-29.4 12.2-7.8 7.8-11.7 17.5-11.7 29s3.9 21.7 11.7 29.4c7.8 7.8 17.6 11.7 29.5 11.7H2244c53.2 0 95.9 16.1 128.1 48.3 31.9 32.2 47.8 74.9 47.8 128.1v46.8c0 53.5-15.9 96.2-47.8 128.1-32.2 32.2-74.8 48.3-128.1 48.3-138.9 0-287.8-7.8-446.7-23.4ZM3054 5132.2v153c-146.4 15.6-275.4 23.4-387.3 23.4-53.5 0-96.2-16.1-128.1-48.3-32.2-31.9-48.3-74.5-48.3-128.1v-269.9c0-59 16.6-105.1 49.8-138.3 33.2-33.2 79.3-49.8 138.2-49.8h375.6v158.6h-311c-31.6 0-47.3 15.6-47.3 46.7v229.2c0 11.9 4.1 21.7 12.3 29.5 7.8 7.8 17.4 11.7 28.9 11.7 70.5 0 176.2-5.9 317.1-17.8Zm728.4-281.6v269.9c0 59-16.6 105.1-49.8 138.3s-79.1 49.8-137.7 49.8h-270.4c-58.6 0-104.7-16.6-138.2-49.8-33.2-33.2-49.8-79.3-49.8-138.3v-269.9c0-59 16.6-105 49.8-138.2 33.5-33.2 79.6-49.8 138.2-49.8h270.4c58.6 0 104.5 16.6 137.7 49.8 33.2 33.2 49.8 79.3 49.8 138.2M3577 5103.2v-235.3c0-31.2-15.6-46.8-46.8-46.8h-141.3c-31.2 0-46.8 15.6-46.8 46.8v235.3c0 31.2 15.6 46.8 46.8 46.8h141.3c31.2 0 46.8-15.6 46.8-46.8m558.1 35.1h41.2c41.3 0 88.2-7.8 140.8-23.4v-440.6h205.8v622.6h-182.4l-11.7-59c-36.6 24.4-74.4 42.4-113.4 53.9-38.6 11.2-71.3 16.7-98.1 16.7h-52.8c-53.2 0-95.9-16.1-128.1-48.3-32.2-31.9-48.3-74.5-48.3-128.1v-457.9h205.8V5097c0 11.9 3.9 21.7 11.7 29.5 7.8 7.8 17.6 11.7 29.4 11.7Zm939.7 6.1v152.5c-75.9 7.8-150.3 11.7-223.2 11.7s-95.9-16.1-128.1-48.3c-32.2-31.9-48.3-74.5-48.3-128.1v-299.4h-70.6v-158.5h70.7l23.4-140.8h182.4v140.8H5028v158.5h-146.9v270.4c0 11.5 3.9 21.2 11.7 29 7.8 8.1 17.4 12.2 28.9 12.2h153.1Zm58.9 140.7v-153c158.9 11.9 284.1 17.8 375.6 17.8s21.7-3.9 29.5-11.7c7.8-7.8 11.7-17.6 11.7-29.4v-41.2h-252.6c-53.1 0-95.8-15.9-128.1-47.7-32.2-32.2-48.2-74.9-48.2-128.1v-41.2c0-53.2 16.1-95.9 48.3-128.1 32.2-32.2 74.9-48.3 128.1-48.3h399.5v152.5h-328.9c-11.8 0-21.6 4.1-29.4 12.2-7.8 7.8-11.7 17.5-11.7 29 0 11.9 3.9 21.7 11.7 29.4 7.8 7.8 17.6 11.7 29.5 11.7h211.4c53.2 0 95.9 16.1 128.1 48.3 32.2 32.2 48.3 74.9 48.3 128.1v46.8c0 53.5-16.1 96.2-48.3 128.1-32.2 32.2-74.9 48.3-128.1 48.3-138.6 0-287.3-7.8-446.2-23.4Zm681.1 11.8v-176.4h211.5v176.4zm857.4-164.7v153c-146.4 15.6-275.5 23.4-387.3 23.4s-96.2-16.1-128.1-48.3c-32.2-31.9-48.3-74.5-48.3-128.1v-269.9c0-59 16.6-105.1 49.8-138.3 33.2-33.2 79.3-49.8 138.3-49.8h375.6v158.6h-311.1c-31.5 0-47.2 15.6-47.2 46.7v229.2c0 11.9 4.1 21.7 12.2 29.5 7.8 7.8 17.4 11.7 28.9 11.7 70.5 0 176.3-5.9 317.2-17.8Zm728.3-281.6v269.9c0 59-16.6 105.1-49.8 138.3-33.2 33.2-79.1 49.8-137.7 49.8h-270.4c-58.6 0-104.7-16.6-138.2-49.8-33.2-33.2-49.8-79.3-49.8-138.3v-269.9c0-59 16.6-105 49.8-138.2 33.5-33.2 79.6-49.8 138.2-49.8H7213c58.6 0 104.5 16.6 137.7 49.8 33.2 33.2 49.8 79.3 49.8 138.2m-205.3 252.6v-235.3c0-31.2-15.6-46.8-46.8-46.8h-141.3c-31.2 0-46.8 15.6-46.8 46.8v235.3c0 31.2 15.6 46.8 46.8 46.8h141.3c31.2 0 46.8-15.6 46.8-46.8m716.6-440.6h11.7c63.4 0 112.3 23.6 146.9 70.7 35.9-24.4 74.9-42.4 116.9-53.9 42-11.2 79.5-16.8 112.3-16.8h11.7c53.2 0 95.9 16.1 128.1 48.3 31.9 31.9 47.8 74.5 47.8 128.1v457.9h-205.3v-422.8c0-11.9-3.9-21.7-11.7-29.4-7.8-7.8-17.6-11.7-29.5-11.7h-5.6c-35.2 0-80.3 7.8-135.2 23.4V5297h-205.8v-422.9c0-11.9-3.9-21.7-11.7-29.4-7.8-7.8-17.6-11.7-29.5-11.7h-5.6c-35.2 0-80.3 7.8-135.2 23.4V5297h-205.8v-622.6h182.5l11.7 58.9c36.6-24.4 74.4-42.4 113.4-53.9 38.6-11.2 71.3-16.8 98.1-16.8Z" style="stroke-width:0;fill:#666"/></svg>