<svg xmlns="http://www.w3.org/2000/svg" viewBox="0 0 416.6 416.6"><defs><clipPath id="a"><path d="M8.3 8.3h400v400H8.3z" style="fill:none"/></clipPath></defs><g style="clip-path:url(#a)"><path d="M208.3 408.3c110.5 0 200-89.5 200-200s-89.6-200-200-200-200 89.5-200 200 89.5 200 200 200" style="fill:#ca082d"/><path d="M65.6 268h23.9v-64.5c0-3.3 0-9.5-1.1-18.9 3.3 3.9 6.1 6.7 9.4 9.4l83.9 73.4H200V149h-23.9v62.3c0 3.9.6 10.6 1.1 20.6-3.9-5-8.3-8.9-13.3-12.8l-80-70H65.6z" style="fill:#fff"/><path d="M351 169.6v-21.1H243.2c-21.7 0-28.3 5.6-28.3 28.3v62.8c0 22.2 6.7 27.8 28.3 27.8h78.9c21.7 0 28.3-5.6 28.3-27.8v-41.1h-69.5v20h43.4v26.7h-83.4v-75.6z"/></g></svg>