<?xml version="1.0" encoding="UTF-8"?>
<svg id="Ebene_1" xmlns="http://www.w3.org/2000/svg" version="1.1" xmlns:xlink="http://www.w3.org/1999/xlink" viewBox="0 0 416.6 416.6">
  <!-- Generator: Adobe Illustrator 29.3.0, SVG Export Plug-In . SVG Version: 2.1.0 Build 146)  -->
  <defs>
    <style>
      .st0 {
        fill: #fff;
      }

      .st1 {
        fill: #ca082d;
      }

      .st2 {
        fill: none;
      }

      .st3 {
        clip-path: url(#clippath);
      }
    </style>
    <clipPath id="clippath">
      <rect class="st2" x="8.3" y="8.3" width="400" height="400"/>
    </clipPath>
  </defs>
  <g class="st3">
    <path class="st1" d="M208.3,408.3c110.5,0,200-89.5,200-200S318.7,8.3,208.3,8.3,8.3,97.8,8.3,208.3s89.5,200,200,200"/>
    <path class="st0" d="M65.6,268h23.9v-64.5c0-3.3,0-9.5-1.1-18.9,3.3,3.9,6.1,6.7,9.4,9.4l83.9,73.4h18.3v-118.4h-23.9v62.3c0,3.9.6,10.6,1.1,20.6-3.9-5-8.3-8.9-13.3-12.8l-80-70h-18.3v118.9Z"/>
    <path d="M351,169.6v-21.1h-107.8c-21.7,0-28.3,5.6-28.3,28.3v62.8c0,22.2,6.7,27.8,28.3,27.8h78.9c21.7,0,28.3-5.6,28.3-27.8v-41.1h-69.5v20h43.4v26.7h-83.4v-75.6h110.1Z"/>
  </g>
</svg>