<svg xmlns="http://www.w3.org/2000/svg" xml:space="preserve" id="Oveleon_Contao_Member_Extension_Bundle" x="0" y="0" version="1.1" viewBox="0 0 100 100"><style>.st2{fill-rule:evenodd;clip-rule:evenodd}.st2,.st4{fill:#fff}</style><g id="Hintergrund"><linearGradient id="SVGID_1_" x1="79.731" x2="20.409" y1="6395.04" y2="6278.613" gradientTransform="translate(0 -6286.787)" gradientUnits="userSpaceOnUse"><stop offset="0" stop-color="#85c895"/><stop offset="1" stop-color="#9aeba3"/></linearGradient><path fill="url(#SVGID_1_)" d="M0 5.7C0 2.6 2.6 0 5.7 0h88.7c3.1 0 5.7 2.6 5.7 5.7v88.7c0 3.1-2.6 5.7-5.7 5.7H5.7C2.6 100 0 97.4 0 94.3V5.7z"/></g><g opacity=".7"><path d="M89.1 87.7c0-.3-.2-.6-.6-.6s-.8.3-.7.6c.1.4.2.7.7.7.3.1.6-.3.6-.7zm3-1c-.4-.1-.8.5-.4.7.2.2 1.1.4 1.5.7 1.1.7 1.7 1.3 2 2.3.4 1.9 0 5-2.6 5-.7 0-1.6-.3-2-1-.4-.9.2-2.3 1.2-2.5 1.2-.2 1.7.7.7 1.3-1.9 1.1 1 .9 1.5-.1.6-1.2-.6-2.3-2-2.2-1.1.1-2.1.8-2.4 1.8-.9 2.4 1.4 4.4 3.7 4 2.5-.4 3.4-3.1 3.2-5.4-.2-2.5-1.9-3.9-4.4-4.6z" class="st2"/><path d="M90.2 87.1c-.2-.2-.1-.5-.1-.8 0-.1.1-.6-.1-.6h-.4c-.5 0-1.1.2-1.6.5-1 .6-1.8 1.8-1.9 3 .6 0 4.1.1 4.4.1s.5.7-.4.7c-1 0-3.1-.1-4.2-.1-.5 0-.6-.2-.5-.6V89c.3-2.5 2.4-4.1 4.9-4 .4 0 .5.1.5.5v1.1c.1.8-.6.5-.6.5z" class="st2"/></g><circle cx="60.3" cy="62.4" r="14.8" fill="#fff" opacity=".3"/><path d="M72 49.9c0-.7-.2-2-.9-4.5-1.1-4.1-5.4-7.2-5.4-7.2-1.1-.8-2.3-1.4-3.6-1.9 1.8-1.7 3-4.1 3-6.7 0-5-4.1-9.1-9.1-9.1s-9.1 4.1-9.1 9.1c0 2.7 1.1 5 3 6.7-.2.1-.5.2-.7.3-1.1.5-2.2 1.1-3.1 1.8-1.3-3.3-4.6-5.7-8.4-5.7-5 0-9.1 4.1-9.1 9.1 0 2.6 1.1 5 2.9 6.7-4.8 1.8-8.8 5.7-10.4 10.7-.5 1.6-.2 3.4.8 4.8s2.6 2.2 4.3 2.2h17.4c1.7 7.7 8.6 13.4 16.7 13.4 9.5 0 17.2-7.7 17.2-17.2-.1-4.9-2.2-9.3-5.5-12.5zM56.1 24.1c3 0 5.5 2.5 5.5 5.5s-2.5 5.5-5.5 5.5-5.5-2.5-5.5-5.5c-.1-3 2.4-5.5 5.5-5.5zm-9.4 18.5c2.5-2.5 5.8-3.8 9.3-3.8 2.8 0 5.4.8 7.7 2.4.1.1.2.1.3.2 0 0 2.1 1.4 2.8 2.8.6 1.2.8 2.3.9 2.8-2.3-1.1-4.8-1.7-7.5-1.7-5 0-9.5 2.2-12.6 5.6-.1-.1-.2-.3-.4-.4-1.1-.8-2.3-1.4-3.6-1.9 1.8-1.5 2.9-3.7 3.1-6zm-9.1-6.3c3 0 5.5 2.5 5.5 5.5s-2.5 5.5-5.5 5.5-5.5-2.5-5.5-5.5 2.5-5.5 5.5-5.5zM26.2 62.6c-.6 0-1.1-.3-1.4-.7-.3-.5-.4-1-.3-1.6 1.8-5.5 7.1-9.3 13.1-9.3 2.8 0 5.4.8 7.7 2.4.1.1.2.1.4.2-1.6 2.6-2.5 5.6-2.5 8.8v.2h-17zm34.1 13.5c-7.5 0-13.6-6.1-13.6-13.6s6.1-13.6 13.6-13.6S73.9 55 73.9 62.5s-6.1 13.6-13.6 13.6z" class="st4"/><path d="M66.8 60.7H62v-4.8c0-1-.8-1.8-1.8-1.8s-1.8.8-1.8 1.8v4.8h-4.8c-1 0-1.8.8-1.8 1.8s.8 1.8 1.8 1.8h4.8V69c0 1 .8 1.8 1.8 1.8S62 70 62 69v-4.8h4.8c1 0 1.8-.8 1.8-1.8s-.8-1.7-1.8-1.7z" class="st4"/></svg>