<svg xmlns="http://www.w3.org/2000/svg" width="256" height="256"><path fill="#1d1d1b" d="M0 0h256v256H0z"/><g fill="#fff"><path d="M203.2 163.1v1.3h4v11.5h1.3v-11.5h4.1v-1.3zM187.2 164.4h2.5v10.2h-2.5v1.3h6.3v-1.3H191v-10.2h2.5v-1.3h-6.3zM155.5 168.7c-2 0-2.4-1.2-2.4-2.2 0-1.4 1.3-2.1 2.4-2.2 1.3-.1 2.7.3 3 1.5l.1.5 1.3-.3-.1-.5c-.5-2-2.6-2.7-4.4-2.5-1.7.2-3.5 1.4-3.5 3.5 0 1.4.5 2.3 1.2 2.8-1 .6-1.6 1.5-1.8 2.7-.1 1 .2 1.9.9 2.7.6.6 1.6 1.4 3.6 1.4h.1c2.4 0 4-1.2 4.2-3.1v-2.9h1.3v-1.3zm.3 6c-1.2 0-2.1-.3-2.7-.9-.4-.4-.6-1-.6-1.6 0-.5.4-2.2 2.9-2.1h3.3v2.7c-.1 1.2-1.2 1.9-2.9 1.9zM123 168.9c.3-.3.6-.7.7-1.1.3-.8.3-1.8 0-2.6-.5-1.3-1.6-2-2.9-2h-5.3v12.7h5.7c2.2 0 3.4-1.7 3.5-3.3.2-1.5-.3-3-1.7-3.7zm-1.7 5.7h-4.4v-4.8h4.4c1.6 0 2.3 1.2 2.3 2.4s-.7 2.4-2.3 2.4zm1.3-7.3c-.2.4-.6 1.2-1.7 1.2H117v-4h3.9c1.1 0 1.6.7 1.7 1.2.2.4.2 1.1 0 1.6zM82.7 173.4l-2.4-6.9h-1.1l-2.4 6.9-3.4-10.3H72l4.2 12.8h1l2.5-7.1 2.5 7.1h1l4.3-12.8h-1.4zM98.8 170.2h6.1v-1.3h-6.1v-4.4h6.2v-1.3h-7.5v12.7h7.5v-1.3h-6.2zM199 128.9l.6-.8c.1-.1.2-.3.2-.5s.1-.4.1-.6c0-.4-.2-.8-.5-1.2-.3-.3-.7-.5-1.3-.5s-1 .2-1.1.5c-.1.4-.3.7-.6 1l-.2.5-1 2c-.8 1.6-1.9 2.8-3.2 3.7-1.4.9-2.5 1.3-3.3 1.3 0-.1 0-.2.1-.2.3-.9.7-1.7 1-2.4.3-.6.7-1.3 1.1-2.1.4-.7 1-1.4 1.6-2l.2-.1h-.1c0-.1.2-.3.4-.5.1-.1.2-.2.3-.5.1-.2.3-.5.4-.7.1-.3.2-.6.2-1 0-.9-.3-1.6-1-2.2s-1.4-.9-2.2-.9-1.5.2-2.1.7h-.2l-2.4 2.4c-1.1 1.1-2.2 2.2-3.4 3.6-1.2 1.3-2.3 2.7-3.3 4.2l.3-.7c.4-1.1.8-2.2 1.3-3.3s.9-2.2 1.4-3.3l1.3-3.3 1.4-3.3.2-.7c0-.2.1-.4.1-.7 0-.8-.3-1.5-.8-2.1s-1.3-1-2.2-1c-1.2 0-2.1.6-2.7 1.8l-.2.6v-.1l-4.5 9.4c-.2.2-.4.4-.5.7l-.2.3-1.1 2-1.3 2.3c-.4.8-.9 1.5-1.4 2.2s-.9 1.4-1.4 2.2l-1.5 2.2c-.3.3-.5.7-.8 1-.2.4-.5.7-.8 1l-1.7 2-1.2 1.2c-.4.5-.9.9-1.4 1.3s-.9.7-1.4 1-.9.4-1.3.4h.1s0-.1-.1-.1l-.2-.6s-.1-.2-.2-.6-.1-.6-.1-.9c0-.4 0-.8.1-1.1s.1-.8.2-1.2l.2-1.2.2-1.1s.1.1.4.2.5.1.6.1h.7c.2 0 .4 0 .6-.1.2 0 .4-.1.6-.2l.8-.5 1.3-1.1c.6-.5 1.1-1.1 1.5-1.8l1.2-2.1.7-1.3.5-1.3.3-.7c0-.3.2-1 .6-2.1s.6-2.2.6-3.3c0-.4 0-.7-.1-1l-.2-1.3-.6-1.2c-.4-.8-1.1-1.4-1.9-1.6s-1.3-.4-1.5-.4h-.6c-1.2 0-2.3.4-3.1 1.2-.9.8-1.5 1.6-2 2.3l-.9 1.3c-1.1 1.9-2 3.9-2.5 6.1l-3.6 4.8c0-.4 0-1 .3-1.6.2-.6.4-1.2.5-1.8l.5-3.1V125l-.3-.7-.2-.3s-.2-.3-.5-.6c-.3-.4-.8-.5-1.4-.5h-.1l-.2-.1h-.2s-.1 0-.1.1h-.5l-.4.2c-.1 0-.2.1-.3.2-.1 0-.2.1-.3.2l-.3.2-.2.2-.3.4c-.3.3-.5.6-.6.7l-1.5 2c-.4.7-.9 1.3-1.3 1.9s-.8 1.3-1.2 2l2.9-8.5c.5-1.4 1-2.9 1.4-4.4s1-3 1.6-4.4c.3-.5.7-1.1 1.1-1.7s.7-1.3 1.1-1.9l1.9-3.5c.1-.3.2-.5.3-.7s.1-.4.2-.7l.3-.9c0-.2 0-.3.1-.5s.1-.3.1-.5V102c0-.4-.2-.7-.5-1l-.5-.7c-.1-.1-.3-.2-.5-.4-.2-.1-.4-.3-.5-.4-.2-.1-.4-.2-.7-.3h-.3c-.1 0-.3-.1-.3-.1h-.7c-.1 0-.2 0-.4.1-.1 0-.3.1-.4.1l-.6.2-.4.3-.5.4-.1.2-.7.7-.6 1.1-.7 1.3c-.6 1.2-1.1 2.4-1.4 3.7s-.7 2.5-1.2 3.7l-.5 1.5-.7 1.1-3.5 6.6c-.5 1.1-1.1 2.2-1.7 3.4-.5.9-1 1.9-1.4 2.8l-.3.3-.3.7-1.3 1.9-.8 1.3-.9 1.2c-.7.8-1.3 1.6-1.9 2.4s-1.2 1.6-2 2.3l-3.2 3.2c-.8.7-1.6 1.2-2.2 1.6s-1.2.7-1.6.8h-.2l-.2-.1h-.2c-.1 0-.1-.2-.2-.4 0-.2-.1-.5-.1-1 0-.7.1-1.3.2-1.9l.3-1.3c.6-1.4 1.2-2.6 1.7-3.6.5-.9 1.1-2.1 1.8-3.4.2-.2.5-.6.9-1.1s.8-1 1.2-1.4.9-.8 1.3-1.2c.5-.4 1-.5 1.5-.5h.2l-.1.1h.1c.2 0 .4.1.7.1.9 0 1.7-.3 2.4-1 .6-.6 1-1.4 1-2.4 0-.8-.3-1.6-1-2.3s-1.4-1-2.3-1l-1.5.1c-1.2.4-2.1.9-2.8 1.3s-1.4 1-2 1.6c-.5.5-1.1 1.3-1.9 2.5-.8 1.1-1.5 2.5-2.3 4-.4.9-.8 1.9-1.2 2.9-.3.4-.6.9-.9 1.3-.7 1.1-1.3 2-1.8 2.7-.6-1.3-1-2.7-1.4-4.1s-.6-2.7-.6-4.1c0-.2 0-.3.1-.4l2.4-1.8c.6-.6.9-1.3.9-1.9 0-.8-.3-1.4-.8-1.8l-.8-.9c-.8-.4-1.5-.7-2.2-.7-1.1 0-2 .3-2.7 1s-1.2 1.2-1.5 1.6l-.4.8c-.3 1.1-.5 2.1-.5 3s.1 1.7.2 2.6l-.9 1.7c-.4.8-.9 1.5-1.4 2.2s-.9 1.4-1.4 2.2l-1.5 2.2c-.3.3-.5.7-.8 1-.2.4-.5.7-.8 1l-1.7 2-1.2 1.2c-.4.5-.9.9-1.4 1.3s-.9.7-1.4 1-.9.4-1.3.4h-.2s0-.1-.1-.1l-.2-.6s-.1-.2-.2-.6c0-.3-.1-.6-.1-.9 0-.4 0-.8.1-1.1 0-.4.1-.8.2-1.2l.2-1.2.2-1.1s.1.1.4.2.5.1.6.1h.7c.2 0 .4 0 .6-.1.2 0 .4-.1.6-.2l.8-.5 1.3-1.1c.6-.5 1.1-1.1 1.5-1.8l1.2-2.1.7-1.3.5-1.3.3-.7c0-.3.2-1 .6-2.1s.6-2.2.6-3.3c0-.4 0-.7-.1-1l-.2-1.3-.6-1.2c-.4-.8-1.1-1.4-1.9-1.6s-1.3-.4-1.5-.4h-.6c-1.2 0-2.3.4-3.1 1.2s-1.5 1.6-2 2.3l-.9 1.3c-1.2 2-2.1 4.3-2.7 6.7 0 .2-.1.4-.1.6-.2.3-.4.6-.7.8l-1.3 1.3-1 .7c-.4.2-.7.3-.9.3h-.4l-.2-.2h-.1c.2-.4.3-.9.5-1.3.1-.4.3-.8.4-1.3l.3-1.5c0-.3.1-.6.1-.8v-2.6c0-.3-.1-.6-.2-1l.1-.4v-.3c0-.8-.3-1.5-.8-2.1s-1.2-1-2-1.1h-.4c-.1 0-.3-.1-.5-.1-.9 0-1.6.1-2.1.4-.4.3-.9.6-1.3.8l-.7.6c-.1.1-.2.2-.3.4-.1.1-.1.3-.2.4l-.6.7c-.4.4-.8 1-1.2 1.8s-.7 1.5-1 2.1l-1.2 2.7-.8 2.5-2.1 3.8c-.6.9-1.1 1.9-1.7 2.7s-1.1 1.8-1.6 2.7l-.9 1.5v-.7c0-.2 0-.4.1-.7.8-6.6 2.2-12.9 4-19s3.8-12.2 5.8-18.4l.4-1.4.5-1.3c.1-.2.1-.5.1-.7l52.4-2.6c.9-.1 1.7-.5 2.4-1.2.6-.7 1-1.5 1-2.4 0-1-.3-1.9-1-2.5-.7-.7-1.5-1-2.5-1h-.4l-75 6.5L61 84.4c0-.1 0-.3.1-.5 0-.2.1-.4.1-.5 0-.9-.3-1.8-1-2.5s-1.6-1.1-2.7-1.1c-.8 0-1.6.3-2.2.8-.7.5-1.1 1.2-1.3 2L49.9 100l-41.3 3.6c-.8.1-1.2.5-1.2 1.3 0 .4.1.7.4 1 .2.3.6.4 1 .4l40.1-2-14.7 62.4v.2c0 .9.4 1.3 1.3 1.3.7 0 1.1-.3 1.3-.9l18.6-63.4 17.8-.9-.4 1.3v.4l-.2.7c-.4 1.4-.8 2.8-1.2 4.1-.4 1.4-.8 2.7-1.3 4.1l-1.3 4c-.4.9-.7 1.9-1 2.7-.3.9-.7 1.8-1 2.7-.3-.3-.8-.4-1.5-.4h-1.4l-1.3.5-1.1.9c-.5.4-.9.9-1.3 1.4s-.6.9-.7 1.3l-2 4.1c-.5 1.1-.9 2.1-1.3 3.1s-.7 2-1.1 3.2l-.8 3.3c0 .2-.1.4-.1.6v2l.4.9c.1.2.3.4.6.6s.7.3 1.1.3h.4l.7-.2 1.1-.7c.3-.2.7-.5.9-.8l.7-.8c1.5-1.7 2.8-3.6 3.9-5.9 1.1-2.2 2.2-4.4 3.3-6.5l-.2 1.3c-.5 2.3-.9 4.8-1.2 7.2-.3 2.5-.5 4.8-.5 7.1v2c0 .5 0 1 .1 1.5s.3 1 .5 1.4c.3.4.7.6 1.2.6.6 0 1.1-.4 1.6-1.1s1-1.4 1.5-2l1.8-2.7 2.1-3.5c.2.9.6 1.6 1.2 2.2.9.7 1.7 1.1 2.6 1.1h.3c.6 0 1.2-.1 1.7-.4s1-.6 1.3-.8l1.2-1.1c.6-.8 1.2-1.5 1.7-2.2s1-1.4 1.4-2.3c0 0 .2.1.5.2.4.1.7.1 1 .2.5 0 .9 0 1.3-.2s.7-.2 1-.3l.8-.5c.1-.1.2-.1.3-.2 0 .4-.1.7-.1 1.1l-.2 1.3v2.4c0 .6 0 1.2.1 1.9s.2 1.2.3 1.8l.2.9c.2.7.7 1.3 1.3 2 .7.6 1.4 1 2.1 1h.4c.3 0 .8-.1 1.5-.2l1.6-.7.6-.5c1.1-.6 2.1-1.4 3.2-2.6s2-2.3 2.7-3.4l1.6-2.2c1.1-1.3 2-2.6 2.7-3.8.4-.7.8-1.3 1.2-2 .7 1.7 1.5 3.4 2.3 4.8l.5.8.4 1-2.2 3.2c-.7.9-1.3 1.9-2 2.9s-1.2 2-1.7 3.2v.1c-.1.2-.2.4-.2.6 0 .5.2.9.5 1.2.4.3.7.5 1.1.5.2 0 .4 0 .7-.2l.2-.2c.1 0 .2 0 .4-.2.1-.1.3-.2.4-.2l.9-.6c1.8-1.1 3.3-2.5 4.5-4.1 1-1.4 1.6-2.8 1.8-4.5.2.6.4 1.1.7 1.4.7.7 1.5 1.2 2.6 1.4h1c.6 0 1.1-.1 1.8-.5.6-.3 1.2-.7 1.8-1.1s1.1-.9 1.7-1.5c.5-.5 1-1 1.5-1.4l2.2-2.3c.7-.8 1.4-1.6 2-2.4s1.3-1.7 2-2.5l.9-1.2c.3-.5.7-.9 1-1.3l1.4-1.9.6-.7c.1-.1.1-.3.1-.5l.3-.3-.7 2.9c-.7 2.9-1.4 5.8-2 8.6-.7 2.8-1.3 5.6-1.8 8.6l-.2 1.3c-.1.2-.2.4-.2.6s0 .4-.1.6V151.1c0 .3.1.5.4.8.2.2.6.4 1 .4.3 0 .6-.2 1-.6s.7-.9 1.2-1.5.8-1.3 1.2-1.9c.4-.7.7-1.3 1.1-1.8l6.2-10.2c.4-.6.8-1.2 1.2-1.9.4-.6.8-1.3 1.3-1.9l-.7 4.8-.6 3.6-.1.7c-.1.3-.2.6-.2 1v1c0 .4.1.7.4 1s.6.4 1 .4.8-.2 1.2-.6l5.3-7.1c-.1.4-.1.9-.2 1.3l-.2 1.3v2.4c0 .6 0 1.2.1 1.9s.2 1.2.3 1.8l.2.9c.2.7.7 1.3 1.3 2 .7.6 1.4 1 2.1 1h.4c.3 0 .8-.1 1.5-.2l1.6-.7.6-.5c1.1-.6 2.1-1.4 3.2-2.6s2-2.3 2.7-3.4l1.6-2.2c1.1-1.3 2-2.6 2.7-3.8.6-1 1.2-2 1.9-3.1l-1.2 4.8c-.6 2.4-1 4.8-1.1 7.3v.5c0 .3.1.6.5.9s.7.4 1 .4c.7 0 1.1-.3 1.4-1 1.3-2.3 2.9-4.6 4.8-6.7 1.8-2.1 3.7-4.1 5.7-5.8v.8c0 .4 0 .8.1 1.1l.2.7c.1.3.3.6.7.9.3.3.7.5 1 .5l.4.1c3.2 0 6.3-2.1 9.4-6.3zm-84.1-2.6c0-.1.1-.1 0 0l-.1.2zm-52.4 7-1 1.9-.9 1.8c-.3.6-.6 1.2-1 1.8s-.8 1.1-1.2 1.6l-.6.7-.7.7c-.2.2-.4.3-.6.3l.1-1.3 1-2.9c.4-.9.9-1.9 1.3-2.7s1-1.8 1.6-2.7l1.2-1.7 1.3-1.4c.3-.3.6-.5.9-.7s.6-.4.8-.6zm19.9 2.9c-.3.7-.6 1.3-.8 1.9l-.9 1.5c-.1 0-.2.2-.3.4l-.7.7c-.6.4-.9.6-1 .6l-.6-.1s-.1-.1-.2-.4c0-.3-.1-.6-.1-.8 0-.4 0-.9.1-1.4s.3-1.2.5-2l.3-1.2c.3-.8.7-1.5 1.1-2.2s.8-1.4 1.3-2.1c.1-.2.2-.4.4-.7.2-.2.3-.4.5-.6l.2 1.1c0 .5 0 1.1.2 1.7s.3 1.1.6 1.6c-.1.7-.3 1.3-.6 2zm16.7-6.9v.2l-.2 1.9-.1.3c0 1.1-.3 2-.8 2.7-.6.7-1 1.3-1.3 1.5 0-.1 0-.2-.1-.3v-.9l.3-.8 1-2.2 1.1-2.2zm62.9 2.5 1.1-2.2.2-.3v.2l-.2 1.9-.1.3c0 1.1-.3 2-.8 2.7-.6.7-1 1.3-1.3 1.5 0-.1 0-.2-.1-.3v-.9l.3-.8zM199 137.3c-.9 0-1.8.3-2.4 1-.7.7-1 1.5-1 2.4 0 1 .3 1.8 1 2.5s1.5 1 2.4 1 1.7-.3 2.4-1 1.1-1.5 1.1-2.5c0-.9-.4-1.8-1.1-2.4-.7-.7-1.6-1-2.4-1zM248.1 126.1c-.3-.4-.8-.5-1.3-.5-.3 0-.7.1-1 .2-.3.2-.5.4-.6.7l-.2.3-1.1 2-1.3 2.3c-.4.8-.9 1.5-1.4 2.2s-.9 1.4-1.4 2.2l-1.5 2.2c-.3.3-.5.7-.8 1-.2.4-.5.7-.8 1l-1.7 2-1.2 1.2c-.4.5-.9.9-1.4 1.3s-.9.7-1.4 1-.9.4-1.3.4h-.2s0-.1-.1-.1l-.2-.6s-.1-.2-.2-.6c0-.3-.1-.6-.1-.9 0-.4 0-.8.1-1.1s.1-.8.2-1.2l.2-1.2.2-1.1s.1.1.4.2.5.1.6.1h.7c.2 0 .4 0 .6-.1s.4-.1.6-.2l.8-.5 1.3-1.1c.6-.5 1.1-1.1 1.5-1.8l1.2-2.1.7-1.3.5-1.3.3-.7c0-.3.2-1 .6-2.1s.6-2.2.6-3.3c0-.4 0-.7-.1-1l-.2-1.3-.6-1.2c-.4-.8-1.1-1.4-1.9-1.6s-1.3-.4-1.5-.4h-.6c-1.2 0-2.3.4-3.1 1.2-.9.8-1.5 1.6-2 2.3l-.9 1.3c-1.2 2-2.1 4.3-2.7 6.7-.2.7-.3 1.5-.5 2.3l-2.6 4.6c-.6.9-1.1 1.9-1.7 2.7s-1.1 1.8-1.6 2.7l-.9 1.5v-.7c0-.2 0-.4.1-.7.8-6.6 2.2-12.9 4-19s3.8-12.2 5.8-18.4l.4-1.4.5-1.3c.1-.4.2-.8.2-1 0-.9-.3-1.7-.9-2.4-.6-.6-1.4-1-2.3-1-1.4 0-2.4.7-3 2.1l-.1.2v.7l-.2 1-.4 1.4v.4l-.2.7c-.4 1.4-.8 2.8-1.2 4.1-.4 1.4-.8 2.7-1.3 4.1l-1.3 4c-.4.9-.7 1.9-1 2.7-.3.9-.7 1.8-1 2.7-.3-.3-.8-.4-1.5-.4h-1.4l-1.3.5-1.1.9c-.5.4-.9.9-1.3 1.4-.3.5-.6.9-.7 1.3l-2 4.1c-.5 1.1-.9 2.1-1.3 3.1s-.7 2-1.1 3.2l-.8 3.3c0 .2-.1.4-.1.6v2l.4.9c.1.2.3.4.6.6s.7.3 1.1.3h.4l.7-.2 1.1-.7c.3-.2.7-.5.9-.8l.7-.8c1.5-1.7 2.8-3.6 3.9-5.9 1.1-2.2 2.2-4.4 3.3-6.5l-.2 1.3c-.5 2.3-.9 4.8-1.2 7.2-.3 2.5-.5 4.8-.5 7.1v2c0 .5 0 1 .1 1.5s.3 1 .5 1.4c.3.4.7.6 1.2.6.6 0 1.1-.4 1.6-1.1s1-1.4 1.5-2l1.8-2.7 2.5-4.1v1c0 .6 0 1.2.1 1.9s.2 1.2.3 1.8l.2.9c.2.7.7 1.3 1.3 2 .7.6 1.4 1 2.1 1h.4c.3 0 .8-.1 1.5-.2l1.6-.7.6-.5c1.1-.6 2.1-1.4 3.2-2.6s2-2.3 2.7-3.4l1.6-2.2c1.1-1.3 2-2.6 2.7-3.8s1.6-2.6 2.5-4.1l1.5-2.2.7-1.3c.1-.3.2-.6.2-.8.4-.7.2-1.1-.1-1.4zm-35.2 7.2-1 1.9-.9 1.8c-.3.6-.6 1.2-1 1.8s-.8 1.1-1.2 1.6l-.6.7-.7.7c-.2.2-.4.3-.6.3l.1-1.3 1-2.9c.4-.9.9-1.9 1.3-2.7.4-.9 1-1.8 1.6-2.7l1.2-1.7 1.3-1.4c.3-.3.6-.5.9-.7s.6-.4.8-.6zm20.9-4v.2l-.2 1.9-.1.3c0 1.1-.3 2-.8 2.7-.6.7-1 1.3-1.3 1.5 0-.1 0-.2-.1-.3v-.9l.3-.8 1-2.2 1.1-2.2z"/></g></svg>