<svg height="256" width="256" xmlns="http://www.w3.org/2000/svg"><path d="M0 0h256v256H0z"/><g fill="#fff"><path d="m197.16 128.25.46-.56.08-.14a1.17 1.17 0 0 0 .3-.55 1.39 1.39 0 0 0-.16-1.14 1.36 1.36 0 0 0-.94-.65 1.5 1.5 0 0 0-1.13.19 1.4 1.4 0 0 0-.65.94s0 .07-.15.09l.06.18-.13.26-.26.61-.64 1.12a8.57 8.57 0 0 1-1.17 1.7 11.12 11.12 0 0 1-1.46 1.37 7.67 7.67 0 0 1-1.51.91 3.46 3.46 0 0 1-1.31.32.29.29 0 0 0-.21.09.54.54 0 0 1 0-.22 1.15 1.15 0 0 1 .13-.48 2.28 2.28 0 0 1 .18-.52 2.44 2.44 0 0 1 .21-.53 6.36 6.36 0 0 1 .55-1.07 12.54 12.54 0 0 1 1.37-2.09l.34-.45a2.68 2.68 0 0 1 .4-.48v-.1h.05v.46h-.07a3.88 3.88 0 0 1 .35-.91 1.73 1.73 0 0 0 .17-.21l.46-.7a2.93 2.93 0 0 0 .15-1.44 2.78 2.78 0 0 0-2.53-2.31 2.74 2.74 0 0 0-2 .65v-.08l-.22.35-.3.26-.52.51-1.06 1.05c-.35.35-.69.7-1 1.07l-1 1.11c-.67.75-1.32 1.51-1.94 2.27s-1.23 1.53-1.82 2.31l.27-.65 1.12-2.89c.38-1 .78-1.92 1.18-2.88l1.18-2.87.61-1.44.61-1.39.17-.66a2.49 2.49 0 0 0-.17-1.72 2.68 2.68 0 0 0-1.25-1.28 2.47 2.47 0 0 0-2-.11 2.64 2.64 0 0 0-1.48 1.36l-.51.53V118.17l-3.83 8a1.46 1.46 0 0 0-.41-.29 1.52 1.52 0 0 0-1.2-.11 1.49 1.49 0 0 0-.88.79l-.13.21-.38.77-.51 1-.55 1-.55 1c-.37.66-.75 1.3-1.15 1.92l-1.19 1.88-1.27 1.84-.66.89c-.21.28-.44.58-.66.89l-1.4 1.67a12.582 12.582 0 0 1-1.48 1.53l-.79.69a7.73 7.73 0 0 1-.79.59l-.4.24-.36.19a2.28 2.28 0 0 1-.68.13h-.21a.18.18 0 0 0 0-.09l-.09-.17-.08-.3a.67.67 0 0 1-.09-.34 3.11 3.11 0 0 1-.06-.44 3.85 3.85 0 0 1 0-.49 8.45 8.45 0 0 1 0-1c0-.34.07-.68.13-1l.21-1 .25-.9a.31.31 0 0 0 .22.09 3.58 3.58 0 0 0 .63.21h.34a2.74 2.74 0 0 0 1-.26l.75-.39.66-.46.53-.45a6.3 6.3 0 0 0 .48-.55 6 6 0 0 1 .46-.54 14.93 14.93 0 0 0 1.45-2.31l.13-.3.13-.31.26-.57a7.56 7.56 0 0 0 .49-1.13l.26-.61a1.82 1.82 0 0 1 .22-.56c.15-.46.27-.89.36-1.26.06-.21.11-.42.15-.64s.09-.45.15-.67a8.24 8.24 0 0 0 .14-1.48v-.46a2.3 2.3 0 0 0 0-.45l-.09-.52-.13-.57-.31-.69-.22-.35a2 2 0 0 0-.11-.2.9.9 0 0 0-.15-.19 4.84 4.84 0 0 0-.83-.74 4.08 4.08 0 0 0-1.11-.49 3.12 3.12 0 0 0-.52-.08.86.86 0 0 0-.27 0h-.48a.54.54 0 0 0-.22 0h-.2a.67.67 0 0 1-.2 0 5.76 5.76 0 0 0-1.32.52 2.25 2.25 0 0 0-.5.29l-.42.32a2.74 2.74 0 0 0-.66.61c-.2.21-.39.4-.55.59a5.64 5.64 0 0 0-.46.63l-.43.58-.36.61a10.26 10.26 0 0 0-.61 1.18l-.15.32a1 1 0 0 0-.42 0 1.24 1.24 0 0 0-.79.45l-5.64 7.5a1.24 1.24 0 0 1 .09-.39c.12-.44.23-.88.33-1.31s.2-.88.29-1.31l.26-1.37.22-1.36a2.4 2.4 0 0 1 0-.37v-.37a1.72 1.72 0 0 0 0-.39v-1a1.32 1.32 0 0 0 .06-.45 1.24 1.24 0 0 0 0-.27 1.43 1.43 0 0 0-.06-.3l-.13-.46-.13-.26a1.51 1.51 0 0 0-.18-.26 1.28 1.28 0 0 0-.31-.35 1.37 1.37 0 0 0-.45-.34 2.69 2.69 0 0 0-.61-.31h-.15a.17.17 0 0 1-.15-.1h-.09l-.09.46H151c-.06-.41-.09-.41-.09-.46h-.08a.77.77 0 0 1-.31.14l-.39.13a2.77 2.77 0 0 0-.48.26l-.31.22a.46.46 0 0 1-.21.18l-.31.35a5.88 5.88 0 0 0-.52.6l-.48.57-.75 1.13a3.23 3.23 0 0 0-.37.54 4.56 4.56 0 0 1-.38.59l-.69 1.14-.7 1.18 2.53-7.5c.4-1.31.83-2.59 1.27-3.86s.88-2.53 1.36-3.81a4 4 0 0 0 .37-.54 3.92 3.92 0 0 1 .37-.59 8.77 8.77 0 0 0 .63-1c.18-.33.37-.65.54-1l1.12-2 .53-1.09.26-.59a4.26 4.26 0 0 0 .22-.63l.26-.78a2.27 2.27 0 0 1 .09-.52.54.54 0 0 1 0-.18v-.87a2.37 2.37 0 0 0-.1-.37c0-.12-.06-.26-.11-.42a1.54 1.54 0 0 0-.24-.5l-.17-.31-.22-.26a2.76 2.76 0 0 0-.61-.52l-.35-.18a2.06 2.06 0 0 0-.35-.12.21.21 0 0 0-.15-.07c-.07 0-.08 0 0-.26H152c-.05.25-.09.25-.13.24a.14.14 0 0 0-.09 0 1.63 1.63 0 0 1-.26-.24h-.64a.31.31 0 0 1-.13 0h-.18a.49.49 0 0 1-.21 0l-.53.26-.21.13a.62.62 0 0 0-.18.14l-.22.17-.17.17-.13.13-.22.27-.31.45a.59.59 0 0 0-.13.18l-.09.17s-.11.23-.17.33l-.18.28-.52 1.14c-.15.37-.29.74-.43 1.08s-.29.72-.46 1.1c-.26.69-.51 1.4-.74 2.11s-.46 1.42-.7 2.12l-.45 1.26-.53 1-2 3.84-1.05 1.92c-.14.32-.3.65-.47 1l-.45 1c-.32.67-.64 1.32-1 2s-.5 1-.75 1.54a1.42 1.42 0 0 0-.25-.24 1.31 1.31 0 0 0-1-.17 1.35 1.35 0 0 0-.86.61l-.17.31-.18.26-.39.56-.74 1.1-.35.56a6.55 6.55 0 0 1-.39.53l-.79 1.09c-.55.7-1.1 1.39-1.66 2.07s-1.12 1.36-1.7 2l-.91 1-.91 1-.91.87-.5.41a6 6 0 0 1-.5.38 3.5 3.5 0 0 1-.46.39 4.4 4.4 0 0 1-.52.3 3.48 3.48 0 0 1-.91.49h-.22a.33.33 0 0 0-.17 0h-.16v.46h-.11c-.06-.35-.1-.35-.11-.38h-.25s.16 0 .16-.05a.12.12 0 0 1 0-.08.28.28 0 0 0 0-.13.73.73 0 0 1-.09-.35 2.86 2.86 0 0 1 0-1 4.9 4.9 0 0 1 0-.54c0-.19.06-.38.09-.59l.31-1.13c.06-.2.12-.4.19-.59s.15-.38.24-.59a4.07 4.07 0 0 1 .22-.58c.08-.19.18-.39.26-.59.18-.38.36-.75.55-1.12l.58-1.1c.12-.18.23-.35.33-.53a3.77 3.77 0 0 1 .37-.52 3.64 3.64 0 0 1 .35-.52 1.84 1.84 0 0 0 .17-.22l.18-.27c.26-.31.52-.63.78-.93a9.53 9.53 0 0 1 .83-.85 6.49 6.49 0 0 1 .79-.7 3.55 3.55 0 0 1 .79-.48 1.67 1.67 0 0 1 .65-.22.2.2 0 0 1 .11 0v.08c.1 0 .32.37.32.37h1.21a3 3 0 0 0 3-2.9v-.11a3.08 3.08 0 0 0-.91-2.1 2.92 2.92 0 0 0-2.12-.8h-.68l-.68.09c-.25.07-.48.12-.66.18l-.58.19a7.77 7.77 0 0 0-1 .5q-.47.27-.87.54a12.91 12.91 0 0 0-1.32 1.24 7 7 0 0 0-.59.64 7.79 7.79 0 0 0-.51.63 15.33 15.33 0 0 0-1 1.33c-.13.2-.24.39-.36.59a1.37 1.37 0 0 0-.87-.07 1.51 1.51 0 0 0-1 .71c-.51.88-1 1.76-1.57 2.63s-1.09 1.72-1.67 2.57c-.36.55-.72 1.09-1.09 1.62s-.75 1.07-1.14 1.58c-.19-.48-.36-.92-.53-1.39s-.33-.95-.48-1.43-.34-1-.47-1.58-.21-1-.28-1.57c0-.24 0-.48-.06-.73s0-.48 0-.73a1.39 1.39 0 0 1 0-.41l2.24-1.6a1.54 1.54 0 0 0 .47-.48 2.2 2.2 0 0 0 .39-1.59 1.94 1.94 0 0 0-.8-1.37l-1-.78a4.81 4.81 0 0 0-1.6-.54 2.19 2.19 0 0 0-.36 0 3.45 3.45 0 0 0-1 .12 4.36 4.36 0 0 0-1.35.57 6.57 6.57 0 0 0-.92.83l-.32.41a3.65 3.65 0 0 0-.27.41l-.37.77a4.76 4.76 0 0 0-.2.74c0 .24-.1.47-.16.72v-.1l-.91.71.11.22-.39.78-.53 1-.56 1-.57 1c-.38.67-.77 1.32-1.18 2l-1.21 1.91-1.25 1.86c-.24.32-.46.63-.68.91s-.45.6-.67.91l-1.44 1.7a9.74 9.74 0 0 1-.74.83c-.26.26-.53.51-.79.74l-.8.7a9.53 9.53 0 0 1-.81.61l-.41.24-.38.19a5 5 0 0 1-.64.17h-.24v-.13l-.09-.18-.09-.3a.85.85 0 0 1-.08-.35c0-.14 0-.3-.07-.45s0-.33 0-.5a7 7 0 0 1 .05-1c0-.35.07-.7.12-1.05l.22-1 .27-.91a.27.27 0 0 0 .21.09 6.89 6.89 0 0 1 .65.37h.51a2.64 2.64 0 0 0 1-.26l.75-.39.65-.45.52-.46a6.17 6.17 0 0 0 .48-.54l.45-.55a14.07 14.07 0 0 0 1.44-2.3l.13-.31.13-.3.26-.57a8.76 8.76 0 0 0 .49-1.13l.25-.61a1.82 1.82 0 0 1 .22-.56c.15-.46.26-.88.35-1.26a6 6 0 0 0 .15-.64c0-.21.1-.45.16-.67a8.07 8.07 0 0 0 .13-1.48v-.4a2.73 2.73 0 0 0 0-.5l-.08-.53-.13-.56-.31-.69-.22-.35a2 2 0 0 0-.11-.2.9.9 0 0 0-.15-.19 4.49 4.49 0 0 0-.83-.74 3.8 3.8 0 0 0-1.1-.51 3.08 3.08 0 0 0-.53-.08.75.75 0 0 0-.26 0h-.45a.54.54 0 0 0-.22 0h-.2a.61.61 0 0 1-.19 0 5.51 5.51 0 0 0-1.31.52 2.69 2.69 0 0 0-.5.28l-.42.33a2.7 2.7 0 0 0-.65.61c-.2.2-.38.4-.55.58a7.33 7.33 0 0 0-.45.64l-.39.56-.35.61c-.22.38-.41.74-.57 1.09a1.54 1.54 0 0 0-.85.06 1.35 1.35 0 0 0-.8.85l-.55 1.2-.15.3-.15.26-.15.31a2.13 2.13 0 0 1-.16.25 1.82 1.82 0 0 0-.15.27l-.15.3-.35.52a5.63 5.63 0 0 1-.74 1 7.58 7.58 0 0 1-.79.91c-.26.29-.54.57-.82.83l-.46.35-.45.26a.39.39 0 0 1-.22.11.79.79 0 0 0-.22.06 2 2 0 0 1-.35.09.49.49 0 0 1-.21 0 .13.13 0 0 1-.09 0l-.13-.17v-.05a10 10 0 0 0 .38-1c.1-.35.2-.71.32-1.09l.3-1.3a3.59 3.59 0 0 0-.11-.9 5.85 5.85 0 0 1 .07-.72v-1a1.44 1.44 0 0 0 .08-.45c0-.16 0-.32-.06-.46a4.81 4.81 0 0 0-.18-.65l.08-.4a2.64 2.64 0 0 0-.58-2 3.65 3.65 0 0 0-1.85-1.2h-.18v.46h-.17l-.46-.46h-.19a1.84 1.84 0 0 0-.33 0 5.16 5.16 0 0 0-.77.21 5.48 5.48 0 0 0-.56.23 2.2 2.2 0 0 0-.44.28 3.71 3.71 0 0 1-.41.28l-.63.55-.25.3a1.29 1.29 0 0 0-.22.3l-.47.55a3.17 3.17 0 0 0-.36.54 4.39 4.39 0 0 1-.32.51 1.25 1.25 0 0 0-.89-.1 1 1 0 0 0-.71.6l-1.34 2.4-.67 1.18c-.22.39-.45.78-.67 1.18l-2.68 4.67c-.94 1.6-1.89 3.14-2.83 4.63l-.81 1.28a5 5 0 0 1 .13-1.16c.11-.82.24-1.64.38-2.46s.3-1.63.47-2.47.34-1.65.52-2.48.37-1.66.6-2.48.41-1.65.62-2.47.45-1.63.66-2.47q.65-2.48 1.37-4.92t1.46-4.88c.23-.83.47-1.64.73-2.44s.52-1.62.77-2.45c.14-.4.28-.8.41-1.22s.26-.82.4-1.22l.39-1.2.34-1.07v-.13a4.11 4.11 0 0 0 .08-.6l42.69-2.14h.12a3.1 3.1 0 0 0 2.88-3.29s0-.07 0-.1a3.08 3.08 0 0 0-3.22-2.91h-.11l-65.08 5.63L59.54 90a.23.23 0 0 1 0-.18 3 3 0 0 0-.38-2.38 3.09 3.09 0 0 0-2-1.41A2.83 2.83 0 0 0 56 86a3.29 3.29 0 0 0-1.13.42 2.91 2.91 0 0 0-.91.8 3.56 3.56 0 0 0-.54 1.15l-3.54 15-35.81 3.08a1.41 1.41 0 0 0-.78.41 1.22 1.22 0 0 0 .09 1.61 1.14 1.14 0 0 0 .82.33L49 107l-12.73 54.08a1.23 1.23 0 0 0 .13.84 1.07 1.07 0 0 0 .66.5 1.22 1.22 0 0 0 .9-.08 1.09 1.09 0 0 0 .55-.66l16.12-54.92 17.61-.9-.08.32-.21.87a1.07 1.07 0 0 0-.09.34l-.18.57c-.14.58-.3 1.16-.47 1.76s-.35 1.17-.52 1.75l-.54 1.82c-.19.6-.38 1.17-.55 1.75l-1.17 3.46c-.28.84-.57 1.65-.87 2.42s-.59 1.58-.9 2.39a2.39 2.39 0 0 0-1.74-.39h-.43a.6.6 0 0 1-.19 0l-.61.17-.52.27-.39.26-.56.48a15.92 15.92 0 0 0-1.15 1.43 3.64 3.64 0 0 0-.3.46c-.09.16-.17.31-.26.45l-.95 1.79-.82 1.79c-.26.6-.51 1.21-.74 1.81s-.45 1.2-.69 1.82c-.12.31-.22.6-.32.88a8.06 8.06 0 0 0-.28.91l-.57 1.87-.17 1c-.06.3-.12.64-.18 1.05v.85a2.35 2.35 0 0 0 .05.37l.09.35.21.45a1.64 1.64 0 0 0 .45.46 2 2 0 0 0 .56.3 2.28 2.28 0 0 0 .52 0 .65.65 0 0 0 .24 0h.2l.65-.26.52-.26.42-.33a5 5 0 0 0 .42-.37l.39-.39.65-.74c.4-.53.78-1 1.14-1.6s.7-1.08 1-1.63c.17-.26.34-.53.5-.8l.45-.81c.14-.27.33-.58.45-.85a7.19 7.19 0 0 1 .45-.81c.4-.7.78-1.4 1.13-2.11s.69-1.43 1-2.16l-.17 1.18q-.48 2.61-.78 5.23c-.25 1.74-.43 3.51-.52 5.31 0 .46 0 .91-.06 1.37a10.29 10.29 0 0 0 0 1.36v.76a4.32 4.32 0 0 0 .07.74 7.68 7.68 0 0 0 .25 1.51 1.34 1.34 0 0 0 1.39 1 1.23 1.23 0 0 0 .87-.49 6.37 6.37 0 0 1 .45-.61c.17-.19.28-.39.45-.6a4.46 4.46 0 0 0 .41-.56l.41-.6 1.56-2.41 2.86-4.91c.46-.83.92-1.65 1.39-2.47l-.09.42a5.2 5.2 0 0 0-.11.67c0 .21 0 .43-.06.67s-.05.47-.07.69a4.09 4.09 0 0 0 0 .7 5.41 5.41 0 0 0 .26 1.55c.06.15.11.28.15.41a1.92 1.92 0 0 0 .17.39 3.7 3.7 0 0 0 .72.9 3.47 3.47 0 0 0 .91.54 3.08 3.08 0 0 0 .95.18h.39l.08-.05a1.41 1.41 0 0 0 .46 0 3.78 3.78 0 0 0 .86-.23 6.1 6.1 0 0 0 .72-.37l.63-.43 1-1a12.7 12.7 0 0 0 .87-1.07c.26-.36.5-.71.73-1.07s.35-.6.54-.93a8.74 8.74 0 0 0 .5-1 .1.1 0 0 0 .09 0l.13.05a7.3 7.3 0 0 0 1.12.27 4 4 0 0 0 1.09-.14 3.2 3.2 0 0 0 .9-.31l.74-.47a2.81 2.81 0 0 0 .36-.24 3.36 3.36 0 0 0 .29-.24l.56-.54a6.61 6.61 0 0 0 1-1.11 4.29 4.29 0 0 0 .45-.54l.18-.25c-.08.41-.18.81-.25 1.21-.13.82-.24 1.66-.32 2.52l-.13 1.25v2.59a12.3 12.3 0 0 0 .11 1.34c0 .23 0 .46.08.71a5.55 5.55 0 0 0 .13.71l.22.76c0 .13.11.26.17.38a1.84 1.84 0 0 1 .17.38 2.8 2.8 0 0 0 .27.4 4.16 4.16 0 0 0 .3.4 5.38 5.38 0 0 0 .86.72 4.16 4.16 0 0 0 1 .31H96a2 2 0 0 0 .48 0 1.92 1.92 0 0 0 .41-.05 2 2 0 0 0 .41-.13l.69-.26.62-.24.56-.4a11.36 11.36 0 0 0 1.95-1.65 11.69 11.69 0 0 0 .86-.87c.26-.29.52-.6.78-.91l.78-.94c.26-.3.5-.61.73-.93l1.39-1.88c.23-.31.45-.64.67-1l.67-1c.45-.64.9-1.28 1.32-1.94l1.27-2a2 2 0 0 0 .3-.46 5.48 5.48 0 0 1 .31-.52l.29-.45a19.41 19.41 0 0 0 1.09 3.08c.23.58.48 1.15.75 1.7s.56 1.11.85 1.66l.22.39.13.22.08.13.26.56.13.31-1.9 2.72c-.29.41-.57.83-.84 1.27s-.54.87-.81 1.31a18 18 0 0 0-1.46 2.79 1.12 1.12 0 0 0 0 1.17 1.36 1.36 0 0 0 1.86.61h.13l.13-.08a1 1 0 0 0 .22-.09 1.35 1.35 0 0 1 .45-.22l.77-.48c.29-.17.57-.35.82-.52a4.8 4.8 0 0 0 .74-.61 9.08 9.08 0 0 0 1.47-1.37 7.65 7.65 0 0 0 .65-.74q.3-.39.6-.87a8.23 8.23 0 0 0 .5-1 5.42 5.42 0 0 0 .37-1 8.23 8.23 0 0 0 .34-2.31v-.89c0-.19 0-.37-.06-.57q.84-1.11 1.65-2.25l.53-.78v.06a5.4 5.4 0 0 0-.13.7c0 .24-.06.47-.08.7a3.29 3.29 0 0 0-.09.76v1.44a2.85 2.85 0 0 0 0 .41 3.22 3.22 0 0 0 .13.87 3.88 3.88 0 0 0 .14.45l.17.45a4.22 4.22 0 0 0 .61 1 2.59 2.59 0 0 0 1 .73 2.7 2.7 0 0 0 .54.2c.19 0 .37.08.54.1h.79a.33.33 0 0 0 .14 0h.13a3.83 3.83 0 0 0 .45-.1l.46-.16a6 6 0 0 0 1.43-.77 4.64 4.64 0 0 0 .61-.46 6.26 6.26 0 0 1 .57-.45c.37-.31.73-.63 1.06-.95l1-1 1-1.12.91-1c.61-.69 1.19-1.39 1.76-2.1l1.72-2.14.83-1 .41-.56c.14-.18.27-.35.42-.52l.81-1.09.39-.57.38-.45a1.27 1.27 0 0 0 1.71 0l.78-.82-.61 2.51c-.34 1.42-.68 2.83-1 4.24s-.63 2.83-1 4.25c-.17.72-.33 1.43-.47 2.14s-.29 1.42-.46 2.15c-.06.34-.12.7-.19 1s-.16.72-.24 1.07l-.09.56-.09.52a2.28 2.28 0 0 0-.1.52c0 .18 0 .36-.07.54v.21a1 1 0 0 0 .11.74 1.18 1.18 0 0 0 .58.52 1.07 1.07 0 0 0 1.41-.53.61.61 0 0 0 0-.12c.49-.73 1-1.45 1.41-2.17s.92-1.46 1.41-2.21l2.73-4.42 2.69-4.37 1-1.63c.34-.53.68-1.07 1.06-1.62l-.65 4.16-.39 2.51-.09.65V138.95a3.51 3.51 0 0 0-.09.65 3.51 3.51 0 0 0-.09.65 1.19 1.19 0 0 0 .79 1.48 1.23 1.23 0 0 0 .57 0 1.46 1.46 0 0 0 .83-.48l7.56-10.16c0 .09 0 .19-.07.28a23.75 23.75 0 0 0-.5 2.37c-.13.79-.24 1.6-.33 2.44l-.13 1.23v1.26a10.6 10.6 0 0 0 0 1.26 11.4 11.4 0 0 0 .11 1.3c0 .23.05.45.08.69a5.58 5.58 0 0 0 .13.69l.22.74c.06.14.11.26.17.37a3 3 0 0 1 .18.36 3.07 3.07 0 0 0 .26.4l.3.39a5.35 5.35 0 0 0 .88.69 3.76 3.76 0 0 0 1 .3h.06a.08.08 0 0 0 .07 0h.69a1.83 1.83 0 0 0 .47 0 1.92 1.92 0 0 0 .41-.05 2.07 2.07 0 0 0 .4-.13l.68-.26.65-.35.55-.39a11.29 11.29 0 0 0 1.93-1.66c.31-.29.59-.58.85-.86s.51-.6.77-.91.51-.64.77-.94a10.65 10.65 0 0 0 .72-.94l1.37-1.87c.23-.32.45-.65.67-1s.44-.66.66-1c.46-.64.89-1.29 1.3-1.94l1.26-2a2.59 2.59 0 0 0 .3-.46c.09-.17.19-.35.3-.52l.56-1 .64-1 .45-.78.07.08a1.23 1.23 0 0 0 .64.35l-.33 1.19c-.26 1-.51 2-.75 3s-.48 2.06-.71 3.09c-.14.52-.25 1-.34 1.57s-.19 1.05-.3 1.57-.16 1-.23 1.57-.14 1.07-.2 1.66v.13a1 1 0 0 0 .15.78 1.49 1.49 0 0 0 .62.52 1.08 1.08 0 0 0 1 0 1.33 1.33 0 0 0 .71-.69 38.74 38.74 0 0 1 3-4.55c.57-.72 1.15-1.43 1.75-2.11s1.22-1.36 1.88-2l1.11-1.13c.37-.38.75-.74 1.15-1.09v1a2.65 2.65 0 0 1 .37.5l.17.57a6.33 6.33 0 0 0 .39.61 2.6 2.6 0 0 0 .71.52 1.24 1.24 0 0 0 .39.09l.34.09h.29a1.33 1.33 0 0 1 .28 0 6.55 6.55 0 0 0 3.86-1.54 21.07 21.07 0 0 0 3.77-4l.81-1.1zm-35.34 4.55.39-1 .48-1c.15-.32.3-.63.46-.93s.32-.62.5-.94l-.09-.26v.21l.08 1.09-.08.57.46.1v.13c-.55 0-.55.09-.55.13a.16.16 0 0 0 0 .09c-.06.32-.13.64-.22 1a4.38 4.38 0 0 1-.35.91 7.68 7.68 0 0 1-.47.78 1.83 1.83 0 0 1-.53.61.64.64 0 0 0-.1.13.31.31 0 0 1-.11.09 1.09 1.09 0 0 0 0-.26 1.91 1.91 0 0 1-.06-.33 2.22 2.22 0 0 1 0-.37zm-46.45-6.8v.08l-.11.06zm-18.05 6.8.39-1 .48-1c.14-.32.3-.63.46-.93l.5-.94.13-.26v.1a.2.2 0 0 0 0 .11l-.15 1.12-.09.57-.05.13v.13a.28.28 0 0 1 0 .13.29.29 0 0 0 0 .09 8.51 8.51 0 0 1-.26 1.11 3.23 3.23 0 0 1-.22.59 9.06 9.06 0 0 1-.54 1 1.79 1.79 0 0 1-.52.61.63.63 0 0 0-.11.12.31.31 0 0 1-.11.09 1.17 1.17 0 0 0 0-.26c0-.11 0-.22-.07-.33a2.23 2.23 0 0 1 0-.37zM64.89 128h-.11a.11.11 0 0 1-.11 0h-.14a.69.69 0 0 0 .31.09l-1 2.07c-.32.69-.64 1.36-1 2-.15.29-.29.57-.42.85s-.28.54-.43.8l-.84 1.62c-.15.26-.3.52-.47.78a6.09 6.09 0 0 1-.51.74 7.31 7.31 0 0 1-.46.76q-.27.38-.54.72l-.53.61a2.13 2.13 0 0 1-.29.31 2.43 2.43 0 0 0-.29.26 1 1 0 0 1-.27.17 1 1 0 0 1-.27.18v-.4l.14-.78.22-.87.62-1.66c.12-.29.24-.56.36-.82s.25-.53.4-.79c.27-.55.56-1.09.87-1.61s.63-1 1-1.53l1.07-1.43 1.2-1.27.29-.28a1.12 1.12 0 0 1 .33-.24 2.11 2.11 0 0 1 .58-.39.35.35 0 0 1 .27-.13.2.2 0 0 0 .09 0 1 1 0 0 1-.12.25zm17.91 5.38c-.07.25-.13.49-.19.72s-.24.68-.38 1l-.44 1-.5.87-.26.46a2.19 2.19 0 0 0-.29.39l-.64.66c-.19.14-.38.27-.58.39a.62.62 0 0 1-.26.09h-.43l-.08-.08a.73.73 0 0 0-.09-.22 4.15 4.15 0 0 1-.08-.79v-.45a4.84 4.84 0 0 1 .06-.5 3.4 3.4 0 0 0 .06-.46 3.21 3.21 0 0 1 .11-.52 4.42 4.42 0 0 0 .15-.48c0-.17.09-.35.14-.52l.18-.53.16-.45a15 15 0 0 1 .88-2c.17-.32.35-.64.53-.94l.57-.94c.14-.17.27-.35.4-.54s.26-.37.4-.55v.18l.12.78a11.11 11.11 0 0 0 .26 1.53 7.51 7.51 0 0 0 .37 1.31 4.29 4.29 0 0 1-.17.55zm105.32-.38h-.05c0 .07-.07.06-.09.45h.14zM242.92 126.5a1.4 1.4 0 0 0-.81-.87 1.58 1.58 0 0 0-1.24-.1 1.53 1.53 0 0 0-.91.8v.25l-.13.21-.38.77-.51 1-.55 1-.56 1c-.37.65-.75 1.29-1.15 1.92l-1.16 1.87-1.28 1.84c-.22.31-.44.61-.66.89s-.44.59-.65.89l-1.41 1.68a9.07 9.07 0 0 1-.72.81c-.25.25-.51.5-.76.72l-.79.69a7.73 7.73 0 0 1-.79.59l-.4.24-.36.19a2.28 2.28 0 0 1-.68.13h-.22a.12.12 0 0 0 0-.09l-.08-.17-.09-.3a1 1 0 0 1-.09-.34l-.06-.44v-.49a8.45 8.45 0 0 1 0-1c0-.34.08-.68.13-1l.21-1 .26-.9a.29.29 0 0 0 .21.09 3.69 3.69 0 0 0 .64.21h.6a2.78 2.78 0 0 0 1-.25l.73-.39.64-.44.51-.45c.16-.17.32-.35.46-.53a5.85 5.85 0 0 1 .45-.54 15.46 15.46 0 0 0 1.4-2.26l.13-.3.13-.3.25-.56a7.74 7.74 0 0 0 .45-1.16l.26-.59a1.41 1.41 0 0 1 .21-.56c.14-.45.25-.87.34-1.24.05-.2.11-.41.15-.62s.09-.44.15-.66a8.78 8.78 0 0 0 .13-1.45v-.71a2.3 2.3 0 0 0-.05-.45l-.09-.52-.13-.55-.3-.68-.22-.35a1.18 1.18 0 0 0-.11-.19.7.7 0 0 0-.15-.19 5.16 5.16 0 0 0-.82-.73 3.78 3.78 0 0 0-1.09-.48 2.34 2.34 0 0 0-.52-.08.8.8 0 0 0-.26 0h-.48a.54.54 0 0 0-.22 0h-.2a.61.61 0 0 1-.19 0 5.94 5.94 0 0 0-1.31.51 3.05 3.05 0 0 0-.5.28l-.41.32a2.87 2.87 0 0 0-.65.6c-.2.21-.39.4-.55.58a5.44 5.44 0 0 0-.45.62l-.39.56-.35.6a10.07 10.07 0 0 0-.61 1.16l-.16.36a1.93 1.93 0 0 0-.34 0 1.06 1.06 0 0 0-.72.6l-1.36 2.4c-.23.4-.46.79-.67 1.18s-.46.78-.68 1.18l-2.72 4.67c-.95 1.6-1.91 3.15-2.87 4.63l-.83 1.29a5.66 5.66 0 0 1 .14-1.16c.11-.83.24-1.65.39-2.47s.3-1.63.47-2.46.35-1.66.52-2.48.38-1.66.61-2.49.42-1.65.64-2.46.45-1.64.67-2.47q.66-2.49 1.39-4.92t1.48-4.89c.23-.82.48-1.64.74-2.44s.51-1.59.74-2.37c.15-.4.28-.81.41-1.23s.27-.81.42-1.22l.39-1.2.35-1.07v-.13a2.7 2.7 0 0 0-.11-2.07 2.88 2.88 0 0 0-3.67-1.4 3 3 0 0 0-1.53 1.54v.17a.08.08 0 0 1 0 .07.07.07 0 0 0 0 .06.18.18 0 0 1 0 .13.2.2 0 0 1 0 .11.33.33 0 0 0 0 .11l-.22.86-.09.34v.05l-.22.85a1.4 1.4 0 0 0-.08.34l-.18.56c-.14.58-.3 1.15-.48 1.74s-.34 1.16-.52 1.73-.35 1.2-.54 1.79-.37 1.17-.54 1.74l-1.16 3.41q-.47 1.25-.87 2.4c-.28.77-.58 1.55-.91 2.36a2.39 2.39 0 0 0-1.74-.39H211a.74.74 0 0 1-.21 0l-.61.17-.52.27-.39.26-.57.48c-.16.17-.3.34-.44.52a4.47 4.47 0 0 0-.7.92 2.71 2.71 0 0 0-.3.45l-.26.46-1 1.79-.83 1.78c-.26.62-.51 1.22-.74 1.83l-.7 1.82c-.12.29-.22.58-.33.87s-.19.6-.28.91l-.57 1.92-.18 1a1.28 1.28 0 0 1 0 .27 2.53 2.53 0 0 0-.26-1.17 3 3 0 0 0-.69-.93 4.18 4.18 0 0 0-1-.64 2.54 2.54 0 0 0-1.09-.23 3 3 0 0 0 0 6 2.55 2.55 0 0 0 1.09-.24 3.71 3.71 0 0 0 1-.64 2.79 2.79 0 0 0 .69-.94 2.35 2.35 0 0 0 .14-.37v.77a1.47 1.47 0 0 0 0 .36l.09.36.22.45a1.41 1.41 0 0 0 .45.46 1.73 1.73 0 0 0 .57.3 2.29 2.29 0 0 0 .52.05.93.93 0 0 0 .24 0h.2l.66-.26.52-.26.48-.35a4.4 4.4 0 0 0 .39-.35l.4-.39.65-.75c.41-.52.8-1 1.16-1.59s.71-1.08 1-1.63c.17-.27.34-.54.5-.81s.31-.55.46-.81.34-.57.48-.85.29-.54.46-.81c.4-.7.78-1.4 1.13-2.12l1-2.15-.18 1.18q-.48 2.61-.78 5.23a52.06 52.06 0 0 0-.57 5.27c0 .46 0 .91-.06 1.36s0 .74 0 1.11v1c0 .38 0 .48.07.72a6.75 6.75 0 0 0 .26 1.48 1.32 1.32 0 0 0 1.4 1A1.19 1.19 0 0 0 215 147a6.14 6.14 0 0 1 .45-.59c.17-.19.29-.38.46-.59s.28-.35.41-.54.27-.39.42-.59l1.57-2.36 2.89-4.8 1.39-2.42c.2-.33.38-.68.57-1-.12.76-.22 1.52-.3 2.31l-.13 1.22a4 4 0 0 1 0 .63v.64a10.6 10.6 0 0 0 0 1.26 11.38 11.38 0 0 0 .11 1.31l.09.7a4.3 4.3 0 0 0 .13.7l.21.74c.07.14.12.27.18.37a2.48 2.48 0 0 1 .17.37 3.51 3.51 0 0 0 .27.4l.3.39a5.73 5.73 0 0 0 .87.69 3.91 3.91 0 0 0 1.06.31h.06a.08.08 0 0 0 .07 0h.39a2 2 0 0 0 .48 0 2 2 0 0 0 .42-.05 2 2 0 0 0 .41-.13l.7-.26.66-.35.57-.39a12 12 0 0 0 2-1.66c.32-.29.61-.58.88-.87s.52-.6.78-.91.52-.63.79-.94a11.33 11.33 0 0 0 .74-.94l1.4-1.87c.23-.32.45-.65.68-1s.45-.66.67-1c.46-.65.91-1.29 1.34-1.95l1.28-2a3.37 3.37 0 0 0 .31-.46 3.4 3.4 0 0 1 .31-.52l.57-1 .65-1 .62-1 .08-.13a1.72 1.72 0 0 0-.06-1.22zm-14.86 6.28.39-1 .48-1c.15-.32.3-.63.46-.94s.32-.62.5-.93l-.39-.27v.11c.51 0 .49.06.49.11l-.13 1.09-.09.57.18.13v.13c-.21 0-.21.09-.22.13a.14.14 0 0 0 0 .09c-.06.32-.13.64-.22 1a6.31 6.31 0 0 1-.35.91 7.77 7.77 0 0 1-.48.78 1.7 1.7 0 0 1-.52.61.69.69 0 0 0-.11.13.24.24 0 0 1-.11.09 1.09 1.09 0 0 0 0-.26c0-.11-.05-.22-.07-.33s0-.25 0-.37zM211.63 128h-.11a.17.17 0 0 1-.1 0h-.14a.59.59 0 0 0 .31.09l-.94 2.07c-.3.69-.62 1.36-.94 2-.14.29-.28.57-.41.85s-.27.54-.41.8l-.83 1.62c-.15.26-.3.52-.46.78a6.39 6.39 0 0 1-.5.74 6.06 6.06 0 0 1-.48.76c-.17.25-.34.49-.52.72l-.52.61a1.7 1.7 0 0 1-.29.31 3.45 3.45 0 0 0-.28.26.78.78 0 0 1-.26.17.81.81 0 0 1-.26.18v-.4l.13-.78.22-.87.61-1.66c.12-.29.23-.56.35-.82s.25-.53.39-.79c.26-.55.55-1.09.85-1.61s.61-1 .94-1.53l1-1.43 1.18-1.27.28-.28a1.27 1.27 0 0 1 .33-.24 2.35 2.35 0 0 1 .56-.39.37.37 0 0 1 .27-.13.14.14 0 0 0 .08 0 .62.62 0 0 1-.05.24z"/><path d="m70.64 168.01-2.26-6.4h-1.04l-2.25 6.4-3.18-9.58h-.9l3.76 11.37h.87l2.22-6.31 2.23 6.31h.87l3.77-11.37h-.91zM83.99 164.8h5.45v-1.37h-5.45v-3.64h5.45v-.91h-6.36v10.47l.03.45h6.33v-1.37h-5.45zM104.93 163.79a2.78 2.78 0 0 0 .62-1 3.2 3.2 0 0 0 0-2.24 2.63 2.63 0 0 0-2.52-1.71h-4.49v10.96h4.9a3 3 0 0 0 3-2.86 3.21 3.21 0 0 0-1.51-3.15zm-1.74 4.64h-3.74v-4.09h3.74a2 2 0 0 1 0 4.09zm1.44-6.06a1.61 1.61 0 0 1-1.59 1.06h-3.59v-3.64H103a1.62 1.62 0 0 1 1.58 1.05 2.13 2.13 0 0 1 0 1.53zM133.1 166.74c0 1.42-1.52 2.19-3 2.19s-2.95-.76-2.95-2.17v-7.88h-.91v7.86c0 2.16 2.1 3.33 4.09 3.33s4.09-1.16 4.09-3.31v-7.88h-1.32zM150.38 167.52l-5.93-8.62-.89-.06v10.96h.91v-8.58l5.91 8.58h.91v-10.92h-.91zM164.66 158.88h-3.82v10.92h3.82a5.46 5.46 0 0 0 0-10.92zm-.21 9.55h-2.7v-8.64h2.7a4.32 4.32 0 0 1 0 8.64zM189.48 159.79h1.82v9.1h-1.82v.91h5.46v-1.37h-2.27v-8.64h2.27v-.91h-5.46zM202.67 158.43v1.36h3.64v10.01h.91v-10.01h3.64v-1.36z"/></g></svg>