<svg width="200" height="200" viewBox="0 0 200 200" fill="none" xmlns="http://www.w3.org/2000/svg">
<path d="M77.2702 26.836C84.3002 19.8068 93.2566 15.02 103.007 13.0809C112.757 11.1418 122.864 12.1375 132.048 15.9421C141.233 19.7467 149.083 26.1893 154.606 34.4553C160.129 42.7213 163.077 52.4395 163.077 62.3808C163.077 72.3222 160.129 82.0403 154.606 90.3063C149.083 98.5723 141.233 105.015 132.048 108.82C122.864 112.624 112.757 113.62 103.007 111.681C93.2566 109.742 84.3002 104.955 77.2702 97.9256C72.6019 93.258 68.8988 87.7166 66.3723 81.6178C63.8458 75.519 62.5454 68.9822 62.5454 62.3808C62.5454 55.7794 63.8458 49.2426 66.3723 43.1438C68.8988 37.045 72.6019 31.5036 77.2702 26.836ZM84.3968 90.7766C90.0137 96.3955 97.1708 100.223 104.963 101.774C112.755 103.325 120.832 102.53 128.172 99.4902C135.513 96.4505 141.787 91.3022 146.201 84.6964C150.615 78.0906 152.972 70.3241 152.972 62.3792C152.972 54.4343 150.615 46.6678 146.201 40.062C141.787 33.4562 135.513 28.3079 128.172 25.2682C120.832 22.2284 112.755 21.4338 104.963 22.9849C97.1708 24.5359 90.0137 28.3629 84.3968 33.9818C76.8831 41.5227 72.6643 51.734 72.6643 62.3792C72.6643 73.0244 76.8831 83.2357 84.3968 90.7766Z" fill="#913BEF"/>
<path d="M36.2735 130.623L44.5576 138.902C45.1264 139.46 45.8913 139.772 46.6879 139.772C47.4846 139.772 48.2495 139.46 48.8182 138.902L75.163 112.543C76.7578 114.115 78.9095 114.993 81.149 114.986C83.3885 114.978 85.5342 114.086 87.1185 112.503L89.4161 110.186C84.133 107.613 79.3215 104.168 75.1838 99.9948C71.0161 95.8422 67.5663 91.0269 64.9751 85.7449L62.6775 88.0617C61.0945 89.6459 60.2021 91.7917 60.1946 94.0312C60.1871 96.2707 61.0652 98.4224 62.6374 100.017L36.2735 126.364C35.7156 126.932 35.4031 127.697 35.4031 128.494C35.4031 129.291 35.7156 130.055 36.2735 130.624V130.623Z" fill="#913BEF"/>
<path d="M51.3609 158.736H37.6842C37.0797 158.737 36.5003 158.977 36.0729 159.404C35.6455 159.832 35.405 160.411 35.4042 161.016V188.371H53.6409V161.016C53.64 160.411 53.3995 159.832 52.9722 159.404C52.5448 158.977 51.9653 158.737 51.3609 158.736Z" fill="#420083"/>
<path d="M87.8328 126.821H74.1561C73.5517 126.822 72.9722 127.062 72.5448 127.49C72.1174 127.917 71.8769 128.496 71.8761 129.101V188.369H90.1128V129.101C90.112 128.496 89.8715 127.917 89.4441 127.49C89.0167 127.062 88.4373 126.822 87.8328 126.821Z" fill="#420083"/>
<path d="M124.308 140.496H110.631C110.027 140.497 109.447 140.737 109.02 141.165C108.592 141.592 108.352 142.171 108.351 142.776V188.369H126.588V142.779C126.588 142.174 126.348 141.594 125.92 141.166C125.493 140.738 124.913 140.497 124.308 140.496Z" fill="#420083"/>
<path d="M160.781 122.263H147.104C146.5 122.264 145.92 122.505 145.493 122.932C145.066 123.36 144.825 123.939 144.824 124.543V188.372H163.067V124.543C163.067 124.244 163.008 123.947 162.893 123.67C162.778 123.393 162.609 123.141 162.397 122.929C162.184 122.718 161.932 122.55 161.655 122.436C161.378 122.321 161.081 122.263 160.781 122.263Z" fill="#420083"/>
<path d="M112.781 33.3751C114.275 33.3751 115.734 33.818 116.976 34.6477C118.218 35.4774 119.186 36.6567 119.757 38.0364C120.329 39.4161 120.478 40.9344 120.187 42.3991C119.896 43.8638 119.176 45.2092 118.12 46.2652C117.064 47.3213 115.719 48.0404 114.254 48.3318C112.789 48.6231 111.271 48.4736 109.891 47.9021C108.512 47.3306 107.332 46.3627 106.503 45.121C105.673 43.8793 105.23 42.4194 105.23 40.926C105.23 38.9234 106.026 37.0028 107.442 35.5867C108.858 34.1707 110.778 33.3751 112.781 33.3751Z" fill="#420083"/>
<path d="M112.781 32.5718C114.434 32.5718 116.049 33.0618 117.423 33.9798C118.797 34.8978 119.867 36.2026 120.5 37.7292C121.132 39.2558 121.298 40.9357 120.975 42.5563C120.653 44.1769 119.857 45.6656 118.689 46.834C117.52 48.0024 116.032 48.7981 114.411 49.1205C112.79 49.4429 111.111 49.2774 109.584 48.6451C108.057 48.0127 106.753 46.9419 105.835 45.568C104.917 44.1941 104.427 42.5788 104.427 40.9264C104.429 38.7114 105.31 36.5878 106.876 35.0216C108.443 33.4554 110.566 32.5743 112.781 32.5718ZM112.781 47.6735C114.115 47.6722 115.419 47.2754 116.528 46.5333C117.637 45.7911 118.5 44.7369 119.01 43.504C119.52 42.271 119.652 40.9146 119.391 39.6062C119.13 38.2978 118.487 37.0962 117.543 36.1532C116.6 35.2103 115.397 34.5683 114.089 34.3085C112.78 34.0487 111.424 34.1826 110.191 34.6935C108.959 35.2044 107.905 36.0692 107.164 37.1786C106.423 38.288 106.028 39.5922 106.028 40.9264C106.03 42.7163 106.742 44.4322 108.008 45.6972C109.275 46.9623 110.991 47.6731 112.781 47.6735Z" fill="#420083"/>
<path d="M134.872 49.441C120.245 52.1722 105.238 52.1722 90.6109 49.441C90.3153 49.3858 90.0116 49.3899 89.7175 49.4531C89.4235 49.5164 89.145 49.6376 88.8982 49.8095C88.6514 49.9815 88.4413 50.2008 88.2802 50.4548C88.119 50.7087 88.01 50.9922 87.9595 51.2887C87.8987 51.5848 87.8988 51.8902 87.9597 52.1863C88.0207 52.4824 88.1413 52.763 88.3141 53.011C88.4869 53.2591 88.7085 53.4693 88.9651 53.6291C89.2218 53.7888 89.5083 53.8946 89.8071 53.9401C94.7757 54.8374 99.7909 55.4542 104.829 55.7878C105.784 55.8613 106.672 56.3062 107.303 57.027C107.933 57.7478 108.256 58.6871 108.202 59.6433V59.8034L107.801 63.5789C107.131 69.5053 105.756 75.3304 103.703 80.9301L100.972 88.2408C100.765 88.7946 100.783 89.4074 101.022 89.9479C101.262 90.4884 101.703 90.9136 102.253 91.1325C102.806 91.339 103.419 91.3206 103.959 91.0812C104.5 90.8418 104.925 90.4005 105.144 89.8516L105.785 88.4858C107.954 83.8266 110.042 79.0072 111.89 74.1878C111.931 74.0628 111.999 73.9479 112.088 73.8506C112.177 73.7532 112.285 73.6755 112.405 73.6226C112.526 73.5696 112.657 73.5426 112.788 73.5431C112.92 73.5437 113.05 73.5719 113.171 73.6258C113.299 73.6745 113.415 73.7498 113.512 73.8467C113.609 73.9435 113.684 74.0598 113.733 74.1878C115.58 79.0072 117.668 83.8282 119.838 88.4858L120.561 90.0117C120.724 90.4121 121.001 90.7555 121.359 90.9985C121.716 91.2416 122.137 91.3734 122.569 91.3774C122.842 91.3627 123.112 91.3088 123.37 91.2173C123.651 91.1193 123.91 90.9664 124.131 90.7673C124.352 90.5682 124.532 90.3271 124.659 90.0579C124.786 89.7887 124.858 89.4969 124.871 89.1995C124.885 88.9021 124.838 88.605 124.735 88.3257V88.2456L122.004 80.9349C119.932 75.3411 118.556 69.5135 117.907 63.5837L117.505 59.8082C117.404 58.8629 117.674 57.9154 118.259 57.1657C118.844 56.4161 119.697 55.9232 120.638 55.791H120.798C125.787 55.4971 130.751 54.8799 135.66 53.9433C136.218 53.8516 136.726 53.5672 137.096 53.1394C137.466 52.7117 137.674 52.1678 137.684 51.6025C137.684 51.008 137.448 50.4379 137.027 50.0175C136.607 49.5971 136.037 49.3609 135.442 49.3609C135.251 49.342 135.058 49.3694 134.88 49.441H134.872Z" fill="#420083"/>
<path d="M135.434 48.5566C136.243 48.5579 137.018 48.8798 137.59 49.4519C138.162 50.0239 138.484 50.7994 138.486 51.6083V51.6612C138.46 52.4019 138.181 53.1114 137.694 53.6701C137.207 54.2288 136.542 54.6028 135.812 54.7289C130.876 55.6719 125.884 56.2923 120.867 56.5862H120.707C119.989 56.7075 119.343 57.0961 118.9 57.6738C118.457 58.2515 118.249 58.9755 118.318 59.7004V59.7148L118.72 63.4902C119.36 69.3536 120.721 75.1157 122.771 80.6462L125.552 88.0914V88.1954C125.766 88.9257 125.709 89.7085 125.392 90.4002C125.222 90.7694 124.979 91.0996 124.676 91.3699C124.372 91.6402 124.017 91.8448 123.63 91.9709C123.29 92.09 122.934 92.158 122.574 92.1726C121.985 92.1685 121.412 91.9912 120.923 91.6629C120.435 91.3346 120.055 90.8698 119.829 90.3265L119.114 88.8167C116.76 83.762 114.699 78.9346 112.986 74.4659L112.977 74.4419C112.959 74.4157 112.937 74.3934 112.911 74.3762L112.866 74.3618L112.815 74.3362C112.806 74.3311 112.796 74.3283 112.786 74.3282C112.751 74.3282 112.68 74.3778 112.626 74.4883C110.914 78.9522 108.855 83.7748 106.507 88.8199L105.877 90.1568C105.653 90.7261 105.261 91.2137 104.753 91.5546C104.245 91.8955 103.645 92.0737 103.034 92.0653C102.679 92.0648 102.326 92.0069 101.99 91.894H101.974C101.601 91.7604 101.259 91.5516 100.97 91.2806C100.682 91.0096 100.451 90.6821 100.294 90.3185C99.9725 89.5824 99.9378 88.7526 100.197 87.9921L100.206 87.9649L102.936 80.659C104.968 75.1212 106.328 69.3598 106.988 63.4982L107.386 59.766V59.6155C107.433 58.8672 107.183 58.1304 106.691 57.5646C106.199 56.9989 105.504 56.6497 104.756 56.5926C99.691 56.2587 94.6486 55.6386 89.6532 54.7353C88.8448 54.5943 88.1243 54.1411 87.647 53.4736C87.415 53.1379 87.2529 52.7589 87.1704 52.3593C87.0879 51.9596 87.0866 51.5474 87.1667 51.1472C87.2932 50.4384 87.6634 49.796 88.2133 49.3311C88.7632 48.8663 89.4583 48.6082 90.1783 48.6014C90.3735 48.6017 90.5681 48.621 90.7595 48.6591C98.0077 50.0105 105.365 50.6912 112.738 50.6925C120.082 50.6913 127.411 50.016 134.632 48.6751C134.889 48.583 135.161 48.5428 135.434 48.5566ZM136.875 51.5827C136.869 51.2042 136.715 50.843 136.446 50.5772C136.176 50.3115 135.812 50.1625 135.434 50.1625C135.354 50.1625 135.255 50.1625 135.213 50.1625L135.131 50.2042L135.021 50.225C127.674 51.5954 120.216 52.2857 112.743 52.2872C105.269 52.2857 97.8118 51.5954 90.465 50.225H90.4553C90.3657 50.207 90.2745 50.1979 90.1831 50.1978C89.8381 50.2045 89.5062 50.3316 89.2449 50.557C88.9835 50.7823 88.8092 51.0919 88.7518 51.4322C88.7127 51.6242 88.7131 51.8221 88.7531 52.0139C88.7931 52.2056 88.8718 52.3872 88.9843 52.5476C89.0969 52.7079 89.2409 52.8436 89.4077 52.9464C89.5744 53.0492 89.7604 53.1169 89.9542 53.1454C94.8913 54.0384 99.875 54.6515 104.881 54.9819H104.894C106.057 55.0687 107.14 55.6106 107.906 56.4901C108.663 57.3659 109.057 58.4975 109.007 59.6539V59.8413L108.601 63.6599C107.926 69.6511 106.536 75.5399 104.46 81.2002L101.738 88.4948C101.602 88.8474 101.607 89.2393 101.755 89.5876C101.902 89.9358 102.179 90.2129 102.528 90.3601C102.698 90.4162 102.877 90.4449 103.056 90.445C103.344 90.4565 103.629 90.3776 103.87 90.2195C104.111 90.0613 104.297 89.8317 104.401 89.5628L104.414 89.526L105.073 88.125C107.41 83.1071 109.456 78.315 111.158 73.8751L111.169 73.8462C111.3 73.5167 111.525 73.2329 111.816 73.03C112.107 72.8271 112.451 72.714 112.805 72.7046C113.047 72.7063 113.285 72.761 113.503 72.8648C113.734 72.9568 113.942 73.0959 114.116 73.2731C114.289 73.4504 114.424 73.662 114.511 73.8943C116.209 78.323 118.252 83.1103 120.595 88.1266L121.336 89.6957C121.44 89.9468 121.615 90.1622 121.839 90.3152C122.063 90.4683 122.328 90.5523 122.599 90.5571C122.787 90.5416 122.972 90.5012 123.148 90.437C123.331 90.3737 123.498 90.2741 123.641 90.1444C123.783 90.0146 123.898 89.8573 123.978 89.682C124.059 89.5067 124.102 89.3169 124.107 89.1242C124.112 88.9314 124.078 88.7397 124.007 88.5605L123.965 88.4372V88.3716L121.285 81.197C119.188 75.5411 117.797 69.6483 117.143 63.6519L116.741 59.8813C116.615 58.7257 116.945 57.5666 117.66 56.6504C118.376 55.7343 119.421 55.1334 120.572 54.9755H120.622H120.806C125.751 54.6854 130.671 54.0736 135.536 53.1438H135.578C135.942 53.0745 136.271 52.881 136.508 52.5963C136.746 52.3116 136.877 51.9534 136.88 51.5827H136.875Z" fill="#420083"/>
</svg>
