<?xml version="1.0" encoding="utf-8"?>
<svg version="1.1" id="Layer_1" xmlns="http://www.w3.org/2000/svg" xmlns:xlink="http://www.w3.org/1999/xlink" x="100px" y="100px"
	 viewBox="0 0 100 100" width="100px" height="100px" style="enable-background:new 0 0 100 100;" xml:space="preserve">
<style type="text/css">
	.st0{fill:#231F20;}
</style>
<path class="st0" d="M77.6,83.2H50.7l26.5-46.6c0.5-0.9,0.7-1.9,0.7-2.9v-0.7c0-0.8-0.7-1.5-1.5-1.5H56c0,0-0.1,0-0.1,0H33.7V16.8
	h28.9c0.8,0,1.5-0.7,1.5-1.5V6.6c0-0.8-0.7-1.5-1.5-1.5H22.4c-0.8,0-1.5,0.7-1.5,1.5v60.5c0,0.8,0.7,1.5,1.5,1.5h9.7
	c0.8,0,1.5-0.7,1.5-1.5V43.2h22.2c0.1,0,0.2,0,0.3-0.1H59L32.9,90c-0.5,0.9-0.7,1.9-0.7,2.9v0.5c0,0.8,0.7,1.5,1.5,1.5h43.9
	c0.8,0,1.5-0.7,1.5-1.5v-8.7C79.1,83.9,78.4,83.2,77.6,83.2z"/>
</svg>
