<?xml version="1.0" encoding="UTF-8" standalone="no"?>
<!-- Created with Inkscape (http://www.inkscape.org/) -->

<svg
   xmlns:dc="http://purl.org/dc/elements/1.1/"
   xmlns:cc="http://creativecommons.org/ns#"
   xmlns:rdf="http://www.w3.org/1999/02/22-rdf-syntax-ns#"
   xmlns:svg="http://www.w3.org/2000/svg"
   xmlns="http://www.w3.org/2000/svg"
   xmlns:sodipodi="http://sodipodi.sourceforge.net/DTD/sodipodi-0.dtd"
   xmlns:inkscape="http://www.inkscape.org/namespaces/inkscape"
   version="1.1"
   id="svg2"
   xml:space="preserve"
   width="221.09399"
   height="20.203066"
   viewBox="0 0 221.09399 20.203066"
   sodipodi:docname="HUH_LO_Logo_2018_CMYK.svg"
   inkscape:version="0.92.3 (2405546, 2018-03-11)"><metadata
     id="metadata8"><rdf:RDF><cc:Work
         rdf:about=""><dc:format>image/svg+xml</dc:format><dc:type
           rdf:resource="http://purl.org/dc/dcmitype/StillImage" /><dc:title></dc:title></cc:Work></rdf:RDF></metadata><defs
     id="defs6" /><sodipodi:namedview
     pagecolor="#ffffff"
     bordercolor="#666666"
     borderopacity="1"
     objecttolerance="10"
     gridtolerance="10"
     guidetolerance="10"
     inkscape:pageopacity="0"
     inkscape:pageshadow="2"
     inkscape:window-width="1920"
     inkscape:window-height="1014"
     id="namedview4"
     showgrid="false"
     inkscape:zoom="1.178269"
     inkscape:cx="110.19267"
     inkscape:cy="9.434668"
     inkscape:window-x="1920"
     inkscape:window-y="0"
     inkscape:window-maximized="1"
     inkscape:current-layer="g10" /><g
     id="g10"
     inkscape:groupmode="layer"
     inkscape:label="ink_ext_XXXXXX"
     transform="matrix(1.3333333,0,0,-1.3333333,-31.540666,58.015065)"><g
       id="g12"
       transform="scale(0.1)"><path
         d="M 263.297,433.781 H 236.555 V 286.148 h 26.742 v 54.403 c 0,14.961 9.527,22.437 21,22.437 12.191,0 19.363,-7.886 19.363,-22.23 v -54.61 h 26.742 v 63.215 c 0,23.051 -16.086,38.727 -38.625,38.727 -10.859,0 -21.414,-3.485 -28.48,-13.32 z M 401.031,388.09 c -29.711,0 -50.203,-21.309 -50.203,-52.559 0,-31.246 21.106,-51.941 51.535,-51.941 16.7,0 31.043,4.711 42.313,15.058 L 429,315.859 c -7.172,-6.043 -16.496,-9.527 -25.102,-9.527 -12.601,0 -22.64,6.25 -25.511,20.594 h 70.386 c 0.305,2.254 0.512,5.941 0.512,9.015 -0.101,30.942 -19.672,52.149 -48.254,52.149 z m -0.207,-23.051 c 11.477,0 19.16,-7.172 21.617,-19.879 h -43.949 c 2.356,12.297 9.731,19.879 22.332,19.879 z m 96.141,20.387 h -26.742 v -99.278 h 26.742 z m -13.524,49.687 c -9.632,0 -17.007,-7.578 -17.007,-17.211 0,-9.629 7.375,-17.007 17.007,-17.007 9.629,0 17.11,7.378 17.11,17.007 0,9.633 -7.481,17.211 -17.11,17.211 z M 645.742,388.09 c -13.012,0 -26.023,-4.406 -33.707,-17.008 -6.656,10.555 -18.441,17.008 -32.785,17.008 -11.27,0 -22.129,-3.789 -29.199,-14.344 v 11.68 h -26.024 v -99.278 h 26.743 v 54.403 c 0,14.961 9.527,22.437 21.003,22.437 12.192,0 19.364,-7.886 19.364,-22.23 v -54.61 h 26.738 v 54.403 c 0,14.961 9.527,22.437 21.004,22.437 12.09,0 19.363,-7.886 19.363,-22.23 v -54.61 h 26.637 v 63.215 c 0,23.051 -15.777,38.727 -39.137,38.727 z m 119.891,0 c -12.192,0 -21.723,-4.199 -27.969,-13.524 v 10.86 h -25.922 v -99.278 h 26.738 v 54.094 c 0,14.754 8.504,22.336 20.903,22.336 5.43,0 11.781,-1.226 16.187,-3.176 l 3.996,26.536 c -3.687,1.332 -8.199,2.152 -13.933,2.152 z m 56.961,-2.664 h -26.739 v -99.278 h 26.739 z m -13.524,49.687 c -9.629,0 -17.007,-7.578 -17.007,-17.211 0,-9.629 7.378,-17.007 17.007,-17.007 9.633,0 17.11,7.378 17.11,17.007 0,9.633 -7.477,17.211 -17.11,17.211 z m 87.164,-47.023 c -31.656,0 -52.863,-22.235 -52.863,-52.25 0,-30.121 21.207,-52.25 52.863,-52.25 16.598,0 30.532,6.656 39.856,18.644 l -19.059,16.289 c -5.633,-6.144 -13.011,-10.039 -21.617,-10.039 -13.828,0 -24.793,10.758 -24.793,27.356 0,16.492 11.067,27.355 24.899,27.355 8.707,0 15.16,-3.484 21.207,-9.937 l 19.257,16.082 c -9.117,11.988 -23.152,18.75 -39.75,18.75 z m 83.93,45.691 H 953.422 V 286.148 h 26.742 v 54.403 c 0,14.961 9.527,22.437 21.006,22.437 12.19,0 19.36,-7.886 19.36,-22.23 v -54.61 h 26.74 v 63.215 c 0,23.051 -16.09,38.727 -38.63,38.727 -10.855,0 -21.41,-3.485 -28.476,-13.32 v 59.011"
         style="fill:#0581ad;fill-opacity:1;fill-rule:nonzero;stroke:none"
         id="path14"
         inkscape:connector-curvature="0" /><path
         d="M 1133.17,286.121 V 329 h 43.34 v 11.871 h -43.34 v 43.453 h -12.1 v -43.453 h -42.76 V 329 h 42.76 v -42.879 h 12.1"
         style="fill:#0581ad;fill-opacity:1;fill-rule:nonzero;stroke:none"
         id="path16"
         inkscape:connector-curvature="0" /><path
         d="m 1234.16,433.781 h -26.74 V 286.148 h 26.74 v 54.403 c 0,14.961 9.53,22.437 21,22.437 12.2,0 19.37,-7.886 19.37,-22.23 v -54.61 h 26.74 v 63.215 c 0,23.051 -16.09,38.727 -38.63,38.727 -10.86,0 -21.41,-3.485 -28.48,-13.32 z m 191.42,-48.355 h -26.12 v -10.961 c -6.56,8.094 -16.09,13.625 -29.72,13.625 -27.35,0 -48.05,-22.438 -48.05,-52.25 0,-29.817 20.7,-52.25 48.05,-52.25 13.63,0 23.26,5.531 29.72,13.523 v -10.965 h 26.12 z m -50.92,-22.231 c 15.27,0 25.62,-11.679 25.62,-27.355 0,-15.676 -10.35,-27.356 -25.62,-27.356 -15.67,0 -25.61,12.192 -25.61,27.356 0,15.164 9.94,27.355 25.61,27.355 z m 133.35,24.895 c -11.27,0 -22.13,-3.789 -29.2,-14.344 v 11.68 h -26.02 v -99.278 h 26.74 v 54.403 c 0,14.961 9.53,22.437 21,22.437 12.2,0 19.37,-7.886 19.37,-22.23 v -54.61 h 26.74 v 63.215 c 0,23.051 -16.09,38.727 -38.63,38.727 z m 120.51,0 c -11.27,0 -22.13,-3.789 -29.2,-14.344 v 11.68 h -26.03 v -99.278 h 26.74 v 54.403 c 0,14.961 9.53,22.437 21.01,22.437 12.19,0 19.36,-7.886 19.36,-22.23 v -54.61 h 26.74 v 63.215 c 0,23.051 -16.09,38.727 -38.62,38.727 z m 112.63,0 c -30.84,0 -53.58,-22.336 -53.58,-52.25 0,-29.918 22.74,-52.25 53.58,-52.25 30.94,0 53.79,22.332 53.79,52.25 0,29.914 -22.85,52.25 -53.79,52.25 z m 0,-24.895 c 15.06,0 26.43,-11.269 26.43,-27.355 0,-16.086 -11.37,-27.356 -26.43,-27.356 -15.06,0 -26.33,11.27 -26.33,27.356 0,16.086 11.27,27.355 26.33,27.355 z m 146.24,22.231 h -35.96 v 29.508 h -26.74 v -29.508 h -19.16 v -23.77 h 19.16 v -38.418 c 0,-25.715 12.6,-39.648 37.19,-39.648 14.14,0 24.18,4.508 32.88,10.449 l -9.83,20.899 c -5.43,-3.278 -12.29,-6.454 -18.65,-6.454 -8.3,0 -14.85,4.508 -14.85,16.907 v 36.265 h 35.96 v 23.77"
         style="fill:#0581ad;fill-opacity:1;fill-rule:nonzero;stroke:none"
         id="path18"
         inkscape:connector-curvature="0" /></g></g></svg>