<?xml version="1.0" encoding="UTF-8"?>
<svg id="Ebene_1" data-name="Ebene 1" xmlns="http://www.w3.org/2000/svg" viewBox="0 0 1000 1000">
  <defs>
    <style>
      .cls-1 {
        fill: #106797;
      }

      .cls-1, .cls-2, .cls-3 {
        stroke-width: 0px;
      }

      .cls-2 {
        fill: #ced13e;
      }

      .cls-3 {
        fill: #fff;
      }
    </style>
  </defs>
  <rect class="cls-1" width="1000" height="1000"/>
  <path class="cls-3" d="m186.85,490.89c4.21-5.83,9.28-9.92,15.19-12.27,5.91-2.35,12.11-3.52,18.59-3.52s12.78,1.11,18.41,3.34c5.63,2.23,10.47,5.35,14.52,9.36,4.05,4.01,7.21,8.85,9.48,14.52,2.27,5.67,3.4,11.91,3.4,18.71v74.98h-31.72v-64.77c0-8.59-2-15.13-6.01-19.62s-9.66-6.74-16.95-6.74c-3.4,0-6.62.55-9.66,1.64-3.04,1.09-5.67,2.75-7.9,4.98-2.23,2.23-4.01,5-5.35,8.32-1.34,3.32-2.01,7.21-2.01,11.67v64.53h-31.72v-175.11h31.72v70Z"/>
  <path class="cls-2" d="m353.98,596.03v-50.86h-50.72v-14.08h50.72v-51.54h14.36v51.54h51.4v14.08h-51.4v50.86h-14.36Z"/>
  <g>
    <path class="cls-3" d="m488.12,490.89c4.21-5.83,9.28-9.92,15.19-12.27,5.91-2.35,12.11-3.52,18.59-3.52s12.78,1.11,18.41,3.34c5.63,2.23,10.47,5.35,14.52,9.36,4.05,4.01,7.21,8.85,9.48,14.52,2.27,5.67,3.4,11.91,3.4,18.71v74.98h-31.72v-64.77c0-8.59-2.01-15.13-6.02-19.62s-9.66-6.74-16.95-6.74c-3.4,0-6.62.55-9.66,1.64-3.04,1.09-5.67,2.75-7.9,4.98-2.23,2.23-4.01,5-5.35,8.32-1.34,3.32-2.01,7.21-2.01,11.67v64.53h-31.72v-175.11h31.72v70Z"/>
    <path class="cls-3" d="m647.86,475.09c8.5,0,16.25,1.5,23.25,4.5,7,3,13.01,7.21,18.03,12.64,5.02,5.43,8.92,11.95,11.71,19.56,2.79,7.62,4.19,16,4.19,25.15,0,1.86-.06,3.77-.18,5.71-.12,1.94-.26,3.61-.43,4.98h-83.36c.81,4.27,2.15,7.92,4.01,10.94,1.86,3.02,4.11,5.54,6.75,7.56,2.63,2.02,5.61,3.49,8.93,4.41,3.32.93,6.84,1.39,10.57,1.39,5.1,0,10.27-.97,15.49-2.92,5.23-1.94,9.98-4.74,14.28-8.38l18.59,20.46c-6.72,6.19-14.28,10.72-22.66,13.61s-17.56,4.33-27.52,4.33c-8.99,0-17.24-1.48-24.73-4.44-7.49-2.96-13.93-7.13-19.32-12.52-5.39-5.39-9.58-11.87-12.58-19.44-3-7.57-4.5-15.98-4.5-25.21s1.46-17.68,4.37-25.34c2.91-7.66,6.98-14.22,12.2-19.69,5.22-5.47,11.47-9.72,18.76-12.76,7.28-3.04,15.33-4.56,24.16-4.56Zm-.18,27.34c-7.53,0-13.49,2.09-17.86,6.26-4.37,4.17-7.25,9.95-8.63,17.32h52.13c-1.46-7.61-4.38-13.45-8.75-17.5-4.37-4.05-10.01-6.08-16.89-6.08Z"/>
    <path class="cls-3" d="m749.87,645.09h-34.75l41.2-74.13-50.79-92.72h35.97l32.32,60.52,31.35-60.52h34.75l-90.05,166.85Z"/>
    <path class="cls-3" d="m852.92,551.89c3.16,0,6.16.63,8.99,1.88,2.83,1.26,5.33,2.96,7.47,5.1,2.15,2.15,3.85,4.64,5.1,7.47,1.25,2.84,1.88,5.83,1.88,8.99s-.63,6.18-1.88,9.05c-1.26,2.88-2.96,5.41-5.1,7.6-2.15,2.19-4.64,3.91-7.47,5.16-2.84,1.25-5.83,1.88-8.99,1.88s-6.18-.63-9.05-1.88c-2.88-1.25-5.39-2.98-7.53-5.16-2.15-2.19-3.87-4.72-5.17-7.6-1.3-2.87-1.94-5.89-1.94-9.05s.65-6.16,1.94-8.99c1.29-2.83,3.02-5.33,5.17-7.47s4.66-3.85,7.53-5.1c2.88-1.25,5.89-1.88,9.05-1.88Z"/>
  </g>
</svg>