<?xml version="1.0" standalone="no"?>
<!DOCTYPE svg PUBLIC "-//W3C//DTD SVG 20010904//EN"
 "http://www.w3.org/TR/2001/REC-SVG-20010904/DTD/svg10.dtd">
<svg version="1.0" xmlns="http://www.w3.org/2000/svg"
 width="256.000000pt" height="256.000000pt" viewBox="0 0 256.000000 256.000000"
 preserveAspectRatio="xMidYMid meet">

<g transform="translate(0.000000,256.000000) scale(0.100000,-0.100000)"
fill="#000000" stroke="none">
<path d="M167 2505 c-50 -17 -85 -50 -108 -100 -18 -38 -19 -91 -19 -1125 0
-1034 1 -1087 19 -1125 22 -48 54 -79 103 -100 33 -13 165 -15 1120 -15 1029
0 1085 1 1123 19 50 22 91 69 105 119 16 57 14 2152 -2 2206 -16 52 -72 108
-124 124 -64 19 -2164 17 -2217 -3z m2193 -292 c0 -3 -147 -424 -327 -935
l-328 -928 -152 0 -152 0 -10 38 c-6 20 -41 154 -79 297 -38 143 -84 323 -102
400 -17 77 -35 149 -39 159 -5 13 -14 -15 -29 -85 -13 -57 -65 -261 -116 -454
l-93 -350 -154 0 -153 0 -213 610 c-117 336 -213 616 -213 623 0 9 38 12 160
12 l159 0 14 -47 c8 -27 65 -223 128 -436 l113 -389 63 244 c34 133 86 329
116 433 l54 190 163 0 163 0 83 -310 c45 -170 95 -365 110 -432 16 -68 31
-123 35 -123 3 0 104 327 224 728 120 400 222 735 227 745 8 15 27 17 178 17
94 0 170 -3 170 -7z"/>
</g>
</svg>
