<svg xmlns="http://www.w3.org/2000/svg" width="341.333" height="341.333" version="1.0" viewBox="0 0 256 256"><path d="M16.7 5.5c-5 1.7-8.5 5-10.8 10C4.1 19.3 4 24.6 4 128s.1 108.7 1.9 112.5c2.2 4.8 5.4 7.9 10.3 10 3.3 1.3 16.5 1.5 112 1.5 102.9 0 108.5-.1 112.3-1.9 5-2.2 9.1-6.9 10.5-11.9 1.6-5.7 1.4-215.2-.2-220.6-1.6-5.2-7.2-10.8-12.4-12.4C232 3.3 22 3.5 16.7 5.5zM236 34.7c0 .3-14.7 42.4-32.7 93.5L170.5 221h-30.4l-1-3.8c-.6-2-4.1-15.4-7.9-29.7-3.8-14.3-8.4-32.3-10.2-40-1.7-7.7-3.5-14.9-3.9-15.9-.5-1.3-1.4 1.5-2.9 8.5-1.3 5.7-6.5 26.1-11.6 45.4l-9.3 35H62.6l-21.3-61C29.6 125.9 20 97.9 20 97.2c0-.9 3.8-1.2 16-1.2h15.9l1.4 4.7c.8 2.7 6.5 22.3 12.8 43.6l11.3 38.9 6.3-24.4c3.4-13.3 8.6-32.9 11.6-43.3l5.4-19h32.6l8.3 31c4.5 17 9.5 36.5 11 43.2 1.6 6.8 3.1 12.3 3.5 12.3.3 0 10.4-32.7 22.4-72.8 12-40 22.2-73.5 22.7-74.5.8-1.5 2.7-1.7 17.8-1.7 9.4 0 17 .3 17 .7z"/></svg>