<svg xmlns="http://www.w3.org/2000/svg" width="360" height="360" version="1.1"><defs><style>.st4{fill:#0098ac}</style></defs><g id="bg"><path d="M80 0h200c44.2 0 80 35.8 80 80v200c0 44.2-35.8 80-80 80H80c-44.2 0-80-35.8-80-80V80C0 35.8 35.8 0 80 0" style="fill:#a13609"/><path d="M95 25h170c38.7 0 70 31.3 70 70v170c0 38.7-31.3 70-70 70H95c-38.7 0-70-31.3-70-70V95c0-38.7 31.3-70 70-70" style="fill:#02848e"/><path d="M158.9 85h42.3v113.8h-42.3V85Z" class="st4"/><path d="m259 161.4-39.9 71.3h-78.2L101 161.4l-36.9 20.7 52.1 92.9h127.6l52.1-92.9z" class="st4"/></g><path id="frame" d="M270 34c14.9 0 28.9 5.8 39.5 16.5S326 75.1 326 90v180c0 14.9-5.9 28.9-16.5 39.5S284.9 326 270 326H90c-14.9 0-28.9-5.9-39.5-16.5S34 284.9 34 270V90c0-14.9 5.8-28.9 16.5-39.5S75.1 34 90 34zm0-14H90c-38.5 0-70 31.5-70 70v180c0 38.5 31.5 70 70 70h180c38.5 0 70-31.5 70-70V90c0-38.5-31.5-70-70-70" style="fill:#f2edd5"/><g id="Page-1"><g id="icon"><path id="XLS" d="M201.6 97.8h-94.9v95.1H124v-77.8h70.5l33.1 33.1v44.7h17.3V141l-43.1-43.2Zm-65.5 112.5-12.2 16.9-12.1-16.9H98.2l18.2 25.3-19.2 26.7H111l12.2-17.3 12.3 17.3h14.1l-19-26.4 18.8-25.6H136Zm54.7 28c-.9 2.7-1.9 6.2-3 10.5-1.1-4.3-2.1-7.8-3-10.5l-9-28.1h-17.3v51.9h10.8V220c1.2 4.5 2.2 8.1 3.1 10.8l10.1 31.3h10l10.4-32.1c1.1-3.3 2-6.6 2.8-9.9v42.1h11.2v-51.9h-17.1l-9.1 28.1Zm38-28v51.9h33.9V253h-22.3v-42.8h-11.7Z" style="fill-rule:evenodd;fill:#f2edd5"/></g></g></svg>
