<svg data-name="Ebene 2" xmlns="http://www.w3.org/2000/svg" viewBox="0 0 105 77"><path style="fill:#333a46" d="M85.16 77H0L19.84 0H105L85.16 77z" data-name="Ebene 2"/><path d="M57.58 34.63c.29.26.57.26 1.15.26h20.11c1.72 0 2.87-1.06 2.87-2.64 0-.53 0-.79-.29-1.06L71.36 12.7c-.86-1.32-2.59-1.85-4.02-1.06-.29.26-.86.53-1.15 1.06L56.13 31.19c-.57 1.06 0 2.64 1.44 3.43m11.21-15.05 5.46 10.04H63.32l5.46-10.04zm-31.6-8.45c-7.18 0-12.93 5.28-12.93 11.89S30 34.9 37.18 34.9s12.93-5.28 12.93-11.89-5.75-11.89-12.93-11.89m0 18.49c-4.02 0-7.18-2.91-7.18-6.6s3.16-6.6 7.18-6.6 7.18 2.91 7.18 6.6-3.16 6.6-7.18 6.6m12.06 11.36a2.938 2.938 0 0 0-4.02 0l-8.05 7.4-8.05-7.4c-1.15-1.06-2.87-1.06-4.02 0s-1.15 2.64 0 3.7l8.05 7.4-8.05 7.4c-1.15 1.06-1.15 2.64 0 3.7a2.938 2.938 0 0 0 4.02 0l8.05-7.4 8.05 7.4c1.15 1.06 2.87 1.06 4.02 0s1.15-2.64 0-3.7l-8.05-7.4 8.05-7.4c1.15-1.06 1.15-2.64 0-3.7m29.6-.8H58.73c-1.72 0-2.87 1.06-2.87 2.64V61.3c0 1.58 1.15 2.64 2.87 2.64h20.11c1.72 0 2.87-1.06 2.87-2.64V42.81c0-1.58-1.15-2.64-2.87-2.64m-2.87 18.49H61.6V45.45h14.37v13.21z" style="fill:#fff" data-name="Ebene 3"/></svg>