<?xml version="1.0" encoding="UTF-8"?><svg id="Nutshell_Framework" xmlns="http://www.w3.org/2000/svg" width="100" height="100" viewBox="0 0 100 100"><g id="Paddel"><path d="m47.974182,44.72522s-.276611-.109436-.567932-.109436c-.222229,0-.453003.06366-.57605.288147l-2.625732,4.767761c-.324219-.09314-.661804-.143982-1.010864-.143982-.716492,0-1.475891.195923-2.239502.586731-1.304688.667969-2.492188,1.848633-3.344238,3.324219-1.869141,3.236328-1.558105,6.797852.708008,8.106445.543945.313477,1.149414.470703,1.790039.470703.716797,0,1.476562-.196289,2.240723-.586914,1.304688-.667969,2.492188-1.848633,3.344238-3.324219s1.280273-3.09375,1.206055-4.557617c-.057556-1.132446-.421509-2.071777-1.017395-2.771851.692749-1.250549,2.636902-4.76239,2.787109-5.0578.182922-.359863-.303772-.793457-.694458-.992188Zm-4.108032,12.325317c-.714478,1.238586-1.711426,2.24884-2.736084,2.7724-.463623.237549-.926086.367859-1.302612.367859-.245056,0-.453247-.05188-.637207-.157959-.503967-.291809-.789978-1.027588-.785339-2.020508.004639-1.111755.380554-2.394165,1.030457-3.519714.714417-1.238586,1.711426-2.24884,2.737244-2.7724.266357-.137268.789368-.36676,1.300842-.36676.246765,0,.454956.05072.637756.15686.649292.374817.766907,1.372375.787659,1.784058.058838,1.14978-.317749,2.518677-1.032715,3.756165Z"/><path d="m53.996887,33.927429c-.153015-.083618-.31842-.123352-.481384-.123352-.352844,0-.694641.186218-.877014.516907l-4.075134,7.399658c.600342.011597,1.483215.374084,1.854797.797241l3.97229-7.232056c.266602-.483398.089844-1.091797-.393555-1.358398Z"/></g><g id="Wellen"><path d="m33.190918,59.150818c-2.528076,0-5.154724-1.031433-8.048828-3.104553-.173096-.124817-.377136-.187805-.58197-.187805-.163818,0-.328125.040283-.4776.121399-2.636902,1.431763-5.191284,2.146912-7.701721,2.146912-2.330139,0-4.622437-.616394-6.906189-1.848083-.151001-.082214-.313538-.121033-.473755-.121033-.355713,0-.699951.19165-.880737.526306-.262207.486328-.081055,1.092773.405273,1.354492,2.564697,1.383911,5.186523,2.075439,7.848877,2.075439,2.669434,0,5.379639-.695618,8.111572-2.086182,3.028503,2.064575,5.922424,3.095703,8.726013,3.095703h.003967c1.159729,0,2.303345-.185486,3.434937-.53833-.331848-.537048-.55957-1.166443-.673279-1.869507-.921204.284241-1.846924.435242-2.78656.435242Z"/><path d="m89.775391,56.026733c-.197205-.242126-.485229-.368225-.776062-.368225-.221802,0-.445251.073425-.631165.22467-2.263977,1.844116-4.487976,2.765625-6.705688,2.765625-2.177002,0-4.348083-.888733-6.542358-2.665039-.182617-.147583-.405273-.222168-.628784-.222168-.187622,0-.375793.052612-.541138.158691-2.834167,1.823608-5.312988,2.734009-7.57074,2.734009-2.19519,0-4.181396-.861023-6.080627-2.580688-.187134-.170715-.428162-.258606-.670898-.258606-.161255,0-.323303.038818-.470703.117981-3.319275,1.773682-6.122925,2.653137-8.654724,2.653137-1.430176,0-2.772583-.28772-4.072693-.846741-.100891.205444-.187988.414429-.303955.615295-.225342.390198-.473389.760986-.740295,1.108887,1.751709.790771,3.482971,1.116211,5.161072,1.116211,3.261536,0,6.322571-1.215271,8.942627-2.562805,2.349915,1.940918,4.695923,2.657898,6.915222,2.657898,3.011047,0,5.788818-1.320007,8.025208-2.694031,2.395386,1.794556,4.810547,2.691833,7.231934,2.691833,2.655579,0,5.318604-1.079529,7.970215-3.238708.427734-.348633.492188-.978516.143555-1.407227Z"/><path d="m33.055176,69.262695c-2.723145,0-5.591797-.895508-8.577148-3.251953-4.998047,3.448242-10.455078,2.128906-15.740723.853516l-.969238-.233398c-.537109-.12793-.868652-.666992-.740723-1.204102.128418-.538086.669922-.866211,1.20459-.741211l.975586.234375c5.284668,1.277344,10.278809,2.484375,14.688477-.962891.374512-.291992.902832-.28125,1.264648.027344,5.074707,4.327148,10.008789,4.342773,17.027344.052734.356445-.217773.811035-.191406,1.140625.068359,4.543457,3.580078,9.566895,3.527344,15.810059-.169922.360352-.211914.814453-.179688,1.138672.083008,4.492188,3.635742,8.735352,3.703125,13.355469.213867.298828-.227539.700195-.265625,1.037109-.102539,7.383789,3.563477,8.847656,3.53418,14.25293-.288086.450195-.319336,1.074219-.210938,1.393555.239258s.211914,1.074219-.239258,1.393555c-5.867188,4.151367-8.181641,4.305664-15.734375.71582-4.97168,3.514648-9.9375,3.449219-14.77832-.191406-6.450684,3.633789-11.99707,3.665039-16.918945.09668-2.919434,1.726562-6.137207,3.166992-9.590332,3.166992Z"/></g><path id="Boot" d="m89.520935,37.787415c.000366-.049072.012207-.11261.009338-.157532-.003601-.056396-.018555-.109924-.031311-.164001-.004211-.017761-.005005-.035706-.010132-.053101-.03186-.108093-.083374-.207092-.14856-.297913-.015015-.020935-.031067-.039185-.047668-.058899-.067932-.080872-.145569-.153076-.237671-.209839-.008179-.005066-.014282-.012085-.022583-.016907-.001465-.000854-.002563-.002197-.004028-.003052-.103149-.059326-.215271-.091492-.329285-.110901-.013245-.002258-.023438-.010864-.036926-.012634-2.733215-.354736-20.0896,1.029419-35.921997,2.616333l-1.181091,2.144653c12.606079-1.298035,25.110474-2.374817,31.928467-2.718018-8.35083,3.033203-20.336853,5.1698-32.225952,6.427063-.685181-2.006287-2.043823-3.035828-3.796692-2.836243-1.032227.118164-2.040039.659668-2.765137,1.48584-.531311.605469-.85083,1.307007-.972168,2.03595-11.042114.836304-21.264954.889709-27.492065.171936,5.715759-1.185059,18.452698-2.780212,31.689331-4.186462l.200562-.364258.985962-1.790283c-35.62439,3.696594-36.950867,5.363953-37.385742,5.912415-.215027.271362-.29834.602661-.25061.92334.00415.035583.016235.069763.024292.10498.010864.043945.014343.088806.030518.131836.003357.008911.01001.015259.013611.023987.003662.009033.003906.018799.007874.027771.382507.865601,3.276489,7.264954,6.584167,10.703613.779602-.107483,1.565796-.286987,2.360779-.537598-2.274841-1.783997-4.816467-6.256287-6.279907-9.204102,6.307922,1.011658,17.903503,1.047974,30.422668.070862l1.185852-2.153198.566956-1.02948c.193665-.35321.553894-.547791,1.014465-.547791.375732,0,.714417.1297.794617.163757.464294.236206.87323.627686.978027,1.062134.006287.013184.011963.030396.01825.043762-.002441.000244-.004944.000488-.007385.000732.034607.181946.020081.369934-.075439.557861-.063049.124023-.419983.77478-.871887,1.594666,14.444458-1.337036,29.552124-4.000488,38.847412-8.06311-1.291992,3.385254-5.18457,10.367188-9.075195,14.722656-.786316.880127-1.422913,1.470215-1.941467,1.882935.598022.438293,1.191223.812378,1.780518,1.112427.522583-.464844,1.070251-1.010986,1.652161-1.662354,4.381775-4.905884,9.925842-14.748474,10.011902-17.690369.000916-.006042.004883-.01062.005676-.016663.001709-.012756-.003662-.024109-.002502-.036804Z"/></svg>
