<svg xmlns="http://www.w3.org/2000/svg" width="100" height="100"><path d="M47.974 44.725s-.276-.11-.568-.11c-.222 0-.453.064-.576.289l-2.626 4.768a3.649 3.649 0 0 0-1.01-.144c-.717 0-1.476.196-2.24.586-1.305.668-2.492 1.85-3.344 3.325-1.87 3.236-1.558 6.798.708 8.106.544.314 1.15.47 1.79.47.717 0 1.476-.195 2.24-.586 1.305-.668 2.493-1.849 3.345-3.324s1.28-3.094 1.206-4.558c-.058-1.132-.422-2.072-1.017-2.772.692-1.25 2.636-4.762 2.787-5.058.183-.36-.304-.793-.695-.992Zm-4.108 12.326c-.714 1.238-1.711 2.248-2.736 2.772-.464.237-.926.368-1.303.368-.245 0-.453-.052-.637-.158-.504-.292-.79-1.028-.785-2.02.005-1.112.38-2.395 1.03-3.52.715-1.239 1.712-2.25 2.738-2.773.266-.137.789-.367 1.3-.367.247 0 .455.051.638.157.65.375.767 1.373.788 1.784.059 1.15-.318 2.52-1.033 3.757Zm10.131-23.124a1.002 1.002 0 0 0-1.359.394l-4.075 7.4c.6.011 1.484.374 1.855.797l3.972-7.232a1 1 0 0 0-.393-1.359ZM33.19 59.15c-2.527 0-5.154-1.03-8.048-3.104a.994.994 0 0 0-1.06-.066c-2.636 1.432-5.19 2.147-7.701 2.147-2.33 0-4.623-.617-6.906-1.848a1.001 1.001 0 0 0-.95 1.76c2.565 1.383 5.187 2.075 7.85 2.075 2.669 0 5.379-.696 8.11-2.086 3.03 2.064 5.923 3.095 8.727 3.095h.004c1.16 0 2.303-.185 3.435-.538a5.077 5.077 0 0 1-.674-1.87 9.4 9.4 0 0 1-2.786.436Zm56.585-3.123a.998.998 0 0 0-1.407-.144c-2.264 1.844-4.488 2.766-6.706 2.766-2.177 0-4.348-.889-6.542-2.665a.999.999 0 0 0-1.17-.064c-2.834 1.824-5.313 2.734-7.57 2.734-2.196 0-4.182-.86-6.081-2.58a.995.995 0 0 0-1.142-.141c-3.319 1.774-6.123 2.653-8.654 2.653a10.16 10.16 0 0 1-4.073-.847c-.101.206-.188.415-.304.616-.225.39-.474.76-.74 1.109a12.4 12.4 0 0 0 5.16 1.116c3.262 0 6.323-1.215 8.943-2.563 2.35 1.94 4.696 2.658 6.915 2.658 3.012 0 5.79-1.32 8.026-2.694 2.395 1.794 4.81 2.692 7.232 2.692 2.655 0 5.318-1.08 7.97-3.239a1 1 0 0 0 .143-1.407Zm-56.72 13.236c-2.723 0-5.592-.896-8.577-3.252-4.998 3.448-10.455 2.129-15.74.853l-.97-.233a1 1 0 1 1 .464-1.945l.976.234c5.284 1.277 10.278 2.484 14.688-.963a1 1 0 0 1 1.265.027c5.074 4.328 10.008 4.343 17.027.053a1 1 0 0 1 1.14.068c4.544 3.58 9.568 3.528 15.81-.17.361-.211.815-.18 1.14.084 4.492 3.635 8.735 3.703 13.355.213a.996.996 0 0 1 1.037-.102c7.384 3.563 8.848 3.534 14.253-.288a1 1 0 0 1 1.154 1.633c-5.867 4.151-8.181 4.305-15.734.715-4.972 3.515-9.938 3.45-14.779-.191-6.45 3.634-11.997 3.665-16.918.097-2.92 1.726-6.138 3.167-9.59 3.167Z"/><path d="M89.52 37.787c.001-.049.013-.112.01-.157-.003-.057-.018-.11-.031-.164-.004-.018-.005-.036-.01-.053a.991.991 0 0 0-.149-.298.99.99 0 0 0-.285-.269c-.008-.005-.014-.012-.023-.017l-.004-.003a.982.982 0 0 0-.329-.11c-.013-.003-.023-.012-.037-.013-2.733-.355-20.09 1.03-35.922 2.616l-1.181 2.145c12.606-1.298 25.11-2.375 31.928-2.718-8.35 3.033-20.336 5.17-32.225 6.427-.686-2.007-2.044-3.036-3.797-2.837-1.032.119-2.04.66-2.765 1.486a4.087 4.087 0 0 0-.972 2.036c-11.043.837-21.265.89-27.493.172 5.716-1.185 18.453-2.78 31.69-4.186l.2-.365.986-1.79c-35.624 3.697-36.95 5.364-37.385 5.913a1.195 1.195 0 0 0-.251.923c.004.035.016.07.024.105.011.044.015.089.03.132.004.009.01.015.014.024.004.009.004.019.008.027.383.866 3.277 7.265 6.584 10.704.78-.107 1.566-.287 2.361-.538-2.275-1.784-4.816-6.256-6.28-9.204 6.308 1.012 17.904 1.048 30.423.071l1.186-2.153.567-1.03c.193-.353.554-.547 1.014-.547.376 0 .715.13.795.164.464.236.873.627.978 1.062l.018.043-.007.001a.85.85 0 0 1-.076.558c-.063.124-.42.775-.872 1.595 14.445-1.337 29.553-4 38.848-8.063-1.292 3.385-5.185 10.367-9.075 14.722-.787.88-1.423 1.47-1.942 1.883.598.438 1.191.813 1.78 1.113a20.433 20.433 0 0 0 1.653-1.663c4.382-4.906 9.926-14.748 10.012-17.69 0-.006.005-.01.005-.017.002-.013-.003-.024-.002-.037Z"/></svg>