<svg xmlns="http://www.w3.org/2000/svg" xml:space="preserve" viewBox="0 0 364 455"><style>.st6{fill:#fff}.st7{fill:#ef7d12}</style><g id="Flipbert_x5F_01"><path id="Weißer_Hintergrund" d="M1.4.7h361.2v453.7H1.4z" class="st6"/><path d="M.7.7h362.7v453.7H.7z" class="st7"/><path d="M364 455H0V0h364v455zM1.3 453.7h361.3V1.3H1.3v452.4z" class="st7"/><path d="M4.6 346h354.9v104.4H4.6z" class="st6"/><path fill="none" stroke="#fff" stroke-linecap="round" stroke-miterlimit="10" stroke-width="3.971" d="M289.3 96.7c-45.8-23.1-106.5-52.1-106.5-52.1s-74.5 43.6-117.9 68.7c0 41.6-.8 127.9-.8 127.9S143 285.7 182 307.3c20.7-11.2 90.8-51 107-59.9"/><path d="m182 285.7 94.7-52v-17.8L182 268l-94.7-52.1v17.8z" class="st6"/><path d="m182 262.7 94.7-52v-17.8l-94.7 52-94.7-52v17.8z" class="st6"/><path d="m182 239.7 94.7-52.1v-17.7l-94.7 52-94.7-52v17.7z" class="st6"/><path d="m182 216.6 94.7-52v-17.7l-94.7 52-94.7-52v17.7z" class="st6"/><path d="m182 193.6 94.7-52v-17.8L182 175.9l-94.7-52.1v17.8z" class="st6"/><path id="open_sans_light" d="M67.5 420.3h-3.4v-48.2h26.4v3.1h-23v20.4h21.8v3.1H67.5v21.6zm34.7 0h-3.3V369h3.3v51.3zm13.2-45.8c0-2.1.7-3.2 2.1-3.2.7 0 1.2.3 1.6.8.4.5.6 1.3.6 2.3 0 1-.2 1.8-.6 2.3-.4.6-.9.9-1.6.9-1.4.1-2.1-.9-2.1-3.1zm3.7 45.8h-3.3v-35.8h3.3v35.8zm29 .7c-5.5 0-9.5-2.1-12.1-6.2h-.2l.1 2.8c.1 1.6.1 3.4.1 5.3v13.6h-3.3v-52.1h2.8l.6 5.1h.2c2.5-3.9 6.4-5.8 11.8-5.8 4.8 0 8.5 1.6 11.1 4.8 2.5 3.2 3.8 7.8 3.8 13.9 0 5.9-1.3 10.5-4 13.7-2.6 3.3-6.2 4.9-10.9 4.9zm0-2.9c3.7 0 6.5-1.4 8.5-4.1 2-2.7 3-6.5 3-11.4 0-10.5-3.8-15.8-11.4-15.8-4.2 0-7.2 1.2-9.2 3.4-2 2.3-2.9 6-2.9 11.2v1.1c0 5.6.9 9.6 2.8 12 1.9 2.4 4.9 3.6 9.2 3.6zm27-46h13.2c6 0 10.3 1 13.1 3 2.8 2 4.2 5.1 4.2 9.2 0 2.8-.9 5.1-2.6 7-1.7 1.9-4.2 3.1-7.5 3.6v.2c3.8.6 6.7 1.8 8.5 3.6 1.8 1.9 2.7 4.4 2.7 7.8 0 4.4-1.5 7.9-4.4 10.3-2.9 2.4-7.1 3.6-12.5 3.6H175v-48.3zm3.3 21.5H189c4.5 0 7.8-.8 9.9-2.3 2.1-1.5 3.1-3.9 3.1-7.1 0-3.2-1.2-5.5-3.5-7s-5.8-2.2-10.4-2.2h-9.7v18.6zm0 3v20.8h11.3c8.9 0 13.4-3.6 13.4-10.9 0-6.6-4.7-9.9-14.1-9.9h-10.6zm54.3 24.4c-5.2 0-9.3-1.6-12.2-4.8-2.9-3.2-4.4-7.7-4.4-13.5 0-5.7 1.4-10.3 4.2-13.7 2.8-3.4 6.6-5.2 11.4-5.2 4.2 0 7.5 1.5 10 4.4 2.4 2.9 3.7 6.9 3.7 12v2.6h-25.8c0 4.9 1.2 8.7 3.4 11.3 2.3 2.6 5.5 3.9 9.7 3.9 2 0 3.8-.1 5.4-.4 1.5-.3 3.5-.9 5.9-1.8v3c-2 .9-3.9 1.5-5.6 1.8-1.7.2-3.6.4-5.7.4zm-.9-34.3c-3.5 0-6.2 1.1-8.3 3.4-2.1 2.3-3.3 5.6-3.7 9.8H242c0-4.2-.9-7.4-2.7-9.7-1.8-2.3-4.3-3.5-7.5-3.5zm39.3-2.9c1.5 0 3.1.2 4.9.5l-.6 3.1c-1.5-.4-3-.6-4.6-.6-3.1 0-5.6 1.3-7.5 3.9-2 2.6-2.9 5.9-2.9 9.8v19.8H257v-35.8h2.8l.3 6.5h.2c1.5-2.6 3-4.5 4.7-5.6 1.7-1.1 3.8-1.6 6.1-1.6zm23.3 34.3c2.1 0 3.9-.2 5.4-.5v2.6c-1.6.5-3.4.8-5.5.8-3.2 0-5.5-.8-7-2.5s-2.3-4.4-2.3-8v-23.1h-5.3v-1.9l5.3-1.5 1.6-8.1h1.7v8.7H299v2.8h-10.5V410c0 2.7.5 4.8 1.5 6.1.9 1.3 2.4 2 4.4 2z" style="stroke:#ef7d12;stroke-width:1.3238;stroke-miterlimit:10;fill:#ef7d12"/></g></svg>