<svg id="Flipbert_01" xmlns="http://www.w3.org/2000/svg" viewBox="0 0 567 567"><title>filpbert_logo</title><rect id="Weißer_Hintergrund" data-name="Weißer Hintergrund" width="567" height="567" style="fill:#fff"/><rect x="146.5016" y="101.0212" width="272.835" height="342.7087" style="fill:#ef7d12;stroke:#ef7d12;stroke-miterlimit:10"/><rect x="148.7673" y="361.9975" width="268.3035" height="79.7324" style="fill:#fff"/><path d="M363.9837,173.5471C329.3705,156.09,283.5,134.22,283.5,134.22s-56.278,32.93-89.0853,51.892c0,31.4078-.602,96.616-.602,96.616s59.6056,33.6161,89.088,49.9635c15.6659-8.4609,68.56-38.51,80.8652-45.23" style="fill:none;stroke:#fff;stroke-linecap:round;stroke-miterlimit:10;stroke-width:3px"/><polygon points="282.901 316.344 354.423 277.04 354.423 263.64 282.901 302.944 211.378 263.64 211.378 277.04 282.901 316.344" style="fill:#fff"/><polygon points="282.901 298.952 354.423 259.649 354.423 246.249 282.901 285.553 211.378 246.249 211.378 259.649 282.901 298.952" style="fill:#fff"/><polygon points="282.901 281.561 354.423 242.257 354.423 228.857 282.901 268.161 211.378 228.857 211.378 242.257 282.901 281.561" style="fill:#fff"/><polygon points="282.901 264.17 354.423 224.866 354.423 211.466 282.901 250.77 211.378 211.466 211.378 224.866 282.901 264.17" style="fill:#fff"/><polygon points="282.901 246.778 354.423 207.474 354.423 194.074 282.901 233.378 211.378 194.074 211.378 207.474 282.901 246.778" style="fill:#fff"/><g id="open_sans_light" data-name="open sans light"><path d="M189.9351,418.043h-2.54V381.6348h19.9468v2.3418H189.9351V399.416h16.4355v2.3652H189.9351Z" style="fill:#ef7d12;stroke:#ef7d14;stroke-miterlimit:10"/><path d="M216.1123,418.043H213.647V379.2949h2.4653Z" style="fill:#ef7d12;stroke:#ef7d14;stroke-miterlimit:10"/><path d="M226.103,383.4531q0-2.3906,1.5689-2.3906a1.3917,1.3917,0,0,1,1.2075.623,3.0537,3.0537,0,0,1,.436,1.7676,3.1262,3.1262,0,0,1-.436,1.7676,1.3794,1.3794,0,0,1-1.2075.6484Q226.1031,385.8691,226.103,383.4531Zm2.814,34.59h-2.4653V390.9746h2.4653Z" style="fill:#ef7d12;stroke:#ef7d14;stroke-miterlimit:10"/><path d="M250.8364,418.541q-6.2512,0-9.1142-4.6816h-.1743l.0747,2.0918q.0988,1.8428.1,4.0332v10.31h-2.4654v-39.32h2.0918l.4732,3.8594h.1494q2.7883-4.3829,8.915-4.3828,5.4778,0,8.355,3.5976,2.8755,3.6006,2.876,10.4727,0,6.6738-3.0254,10.3457A10.1251,10.1251,0,0,1,250.8364,418.541Zm-.05-2.1914a7.53,7.53,0,0,0,6.437-3.0879q2.2794-3.0879,2.2788-8.6406,0-11.93-8.6162-11.93-4.7315,0-6.9477,2.6035-2.2172,2.6016-2.2163,8.4785v.7969q0,6.3516,2.1294,9.0645Q245.98,416.3506,250.7866,416.35Z" style="fill:#ef7d12;stroke:#ef7d14;stroke-miterlimit:10"/><path d="M268.6465,405.293V403.25h11.8286v2.043Z" style="fill:#ef7d12;stroke:#ef7d14;stroke-miterlimit:10"/><path d="M289.1953,381.6348h9.9863q6.7472,0,9.9112,2.291,3.1611,2.291,3.1621,6.9238a7.4952,7.4952,0,0,1-1.93,5.2656,9.4012,9.4012,0,0,1-5.6406,2.7032v.1484q4.3578.6474,6.4131,2.752a8.0436,8.0436,0,0,1,2.0537,5.8652,9.4088,9.4088,0,0,1-3.3369,7.7441q-3.337,2.7159-9.4629,2.7149H289.1953Zm2.54,16.2129h8.0185q5.13,0,7.459-1.7071a6.18,6.18,0,0,0,2.3281-5.3418,5.76,5.76,0,0,0-2.6269-5.2793q-2.628-1.6435-7.8321-1.6425h-7.3466Zm0,2.24v15.7129h8.5664q10.11,0,10.11-8.2168,0-7.4972-10.6582-7.4961Z" style="fill:#ef7d12;stroke:#ef7d14;stroke-miterlimit:10"/><path d="M332.7549,418.541q-5.9019,0-9.2022-3.6367t-3.2988-10.1836q0-6.4746,3.1875-10.373a10.5206,10.5206,0,0,1,8.5908-3.8965,9.2729,9.2729,0,0,1,7.5449,3.3359q2.7657,3.3369,2.7647,9.0645v1.9922h-19.498q.05,5.5781,2.6015,8.5175,2.5533,2.9385,7.31,2.9375a22.7764,22.7764,0,0,0,4.0713-.3222,24.9126,24.9126,0,0,0,4.4443-1.3946v2.24a19.794,19.794,0,0,1-4.2324,1.3574A23.55,23.55,0,0,1,332.7549,418.541Zm-.7227-25.8984a8.1141,8.1141,0,0,0-6.2754,2.5762q-2.3656,2.5781-2.7636,7.4335h16.7343a11.8006,11.8006,0,0,0-2.0429-7.3574A6.7312,6.7312,0,0,0,332.0322,392.6426Z" style="fill:#ef7d12;stroke:#ef7d14;stroke-miterlimit:10"/><path d="M361.7451,390.4512a21.1809,21.1809,0,0,1,3.6856.3476l-.4737,2.3672a14.3716,14.3716,0,0,0-3.5107-.4238,6.8169,6.8169,0,0,0-5.6777,2.9375,11.9805,11.9805,0,0,0-2.2159,7.4219V418.043h-2.4658V390.9746h2.0918l.249,4.8809h.1739a11.4954,11.4954,0,0,1,3.5615-4.1973A8.3451,8.3451,0,0,1,361.7451,390.4512Z" style="fill:#ef7d12;stroke:#ef7d14;stroke-miterlimit:10"/><path d="M379.3574,416.35a18.5062,18.5062,0,0,0,4.084-.3984v1.9922a13.0736,13.0736,0,0,1-4.1348.5976q-3.5859,0-5.291-1.918-1.7065-1.9159-1.706-6.0253V393.1152h-4.0088v-1.4433l4.0088-1.1211,1.2451-6.127h1.2695v6.5508h7.9444v2.1406h-7.9444V410.248a7.82,7.82,0,0,0,1.0957,4.6075A3.9777,3.9777,0,0,0,379.3574,416.35Z" style="fill:#ef7d12;stroke:#ef7d14;stroke-miterlimit:10"/></g></svg>