<?xml version="1.0" encoding="utf-8"?>
<!-- Generator: Adobe Illustrator 26.0.1, SVG Export Plug-In . SVG Version: 6.00 Build 0)  -->
<svg version="1.1" xmlns="http://www.w3.org/2000/svg" xmlns:xlink="http://www.w3.org/1999/xlink" x="0px" y="0px"
	 viewBox="0 0 364 455" style="enable-background:new 0 0 364 455;" xml:space="preserve">
<style type="text/css">
	.st0{display:none;}
	.st1{display:inline;fill:none;}
	.st2{display:inline;fill:#222221;}
	.st3{font-family:'OpenSans-Light';}
	.st4{font-size:28px;}
	.st5{display:inline;fill:#FFFFFF;}
	.st6{fill:#FFFFFF;}
	.st7{fill:#EF7D12;}
	.st8{fill:none;stroke:#FFFFFF;stroke-width:3.9714;stroke-linecap:round;stroke-miterlimit:10;}
	.st9{fill:#EF7D12;stroke:#EF7D12;stroke-width:1.3238;stroke-miterlimit:10;}
</style>
<g id="Schriften" class="st0">
	<rect x="221.4" y="265.3" class="st1" width="122.9" height="41.5"/>
	<text transform="matrix(1 0 0 1 221.3754 286.5898)" class="st2 st3 st4">Flip-Bert</text>
	<rect x="354.3" y="265.3" class="st1" width="249.8" height="72.8"/>
	<text transform="matrix(1 0 0 1 354.2883 286.5898)" class="st2 st3 st4">Open Sans Light</text>
	<rect x="-242.7" y="227.5" class="st5" width="387" height="242.8"/>
	<rect x="-225.2" y="255.6" class="st1" width="122.9" height="41.5"/>
	<text transform="matrix(1 0 0 1 -225.1894 276.8944)" class="st2 st3 st4">Flip-Bert</text>
	<rect x="-92.3" y="255.6" class="st1" width="249.8" height="72.8"/>
	<text transform="matrix(1 0 0 1 -92.2766 276.8944)" class="st2 st3 st4">Open Sans Light</text>
	<rect x="-225.2" y="313.8" class="st1" width="161.2" height="198.5"/>
	<text transform="matrix(1 0 0 1 -225.1899 323.6645)" style="display:inline;"><tspan x="0" y="0" class="st3" style="fill:#222221; font-size:13px;">RGB: 240/125/20</tspan><tspan x="0" y="19" class="st3" style="fill:#222221; font-size:13px;">CMYK: 0/60/96/0</tspan><tspan x="0" y="38" class="st3" style="fill:#222221; font-size:13px;">Hextec: #EF7D12</tspan><tspan x="0" y="57" class="st3" style="fill:#222221; font-size:13px;">Pantone Coated: 151 C</tspan><tspan x="0" y="76" class="st3" style="fill:#222221; font-size:13px;">Pantone Uncoated: 2013 U</tspan></text>
</g>
<g id="Flipbert_x5F_01">
	<g>
		<rect id="Weißer_Hintergrund" x="1.4" y="0.7" class="st6" width="361.2" height="453.7"/>
		<g>
			<rect x="0.7" y="0.7" class="st7" width="362.7" height="453.7"/>
			<path class="st7" d="M364,455H0V0h364V455z M1.3,453.7h361.3V1.3H1.3V453.7z"/>
		</g>
		<rect x="4.6" y="346" class="st6" width="354.9" height="104.4"/>
		<path class="st8" d="M289.3,96.7c-45.8-23.1-106.5-52.1-106.5-52.1s-74.5,43.6-117.9,68.7c0,41.6-0.8,127.9-0.8,127.9
			s78.9,44.5,117.9,66.1c20.7-11.2,90.8-51,107-59.9"/>
		<polygon class="st6" points="182,285.7 276.7,233.7 276.7,215.9 182,268 87.3,215.9 87.3,233.7 		"/>
		<polygon class="st6" points="182,262.7 276.7,210.7 276.7,192.9 182,244.9 87.3,192.9 87.3,210.7 		"/>
		<polygon class="st6" points="182,239.7 276.7,187.6 276.7,169.9 182,221.9 87.3,169.9 87.3,187.6 		"/>
		<polygon class="st6" points="182,216.6 276.7,164.6 276.7,146.9 182,198.9 87.3,146.9 87.3,164.6 		"/>
		<polygon class="st6" points="182,193.6 276.7,141.6 276.7,123.8 182,175.9 87.3,123.8 87.3,141.6 		"/>
		<g id="open_sans_light">
			<path class="st9" d="M67.5,420.3h-3.4v-48.2h26.4v3.1h-23v20.4h21.8v3.1H67.5V420.3z"/>
			<path class="st9" d="M102.2,420.3h-3.3V369h3.3V420.3z"/>
			<path class="st9" d="M115.4,374.5c0-2.1,0.7-3.2,2.1-3.2c0.7,0,1.2,0.3,1.6,0.8c0.4,0.5,0.6,1.3,0.6,2.3c0,1-0.2,1.8-0.6,2.3
				c-0.4,0.6-0.9,0.9-1.6,0.9C116.1,377.7,115.4,376.7,115.4,374.5z M119.1,420.3h-3.3v-35.8h3.3V420.3z"/>
			<path class="st9" d="M148.1,421c-5.5,0-9.5-2.1-12.1-6.2h-0.2l0.1,2.8c0.1,1.6,0.1,3.4,0.1,5.3v13.6h-3.3v-52.1h2.8l0.6,5.1h0.2
				c2.5-3.9,6.4-5.8,11.8-5.8c4.8,0,8.5,1.6,11.1,4.8c2.5,3.2,3.8,7.8,3.8,13.9c0,5.9-1.3,10.5-4,13.7
				C156.4,419.4,152.8,421,148.1,421z M148.1,418.1c3.7,0,6.5-1.4,8.5-4.1c2-2.7,3-6.5,3-11.4c0-10.5-3.8-15.8-11.4-15.8
				c-4.2,0-7.2,1.2-9.2,3.4c-2,2.3-2.9,6-2.9,11.2v1.1c0,5.6,0.9,9.6,2.8,12C140.8,416.9,143.8,418.1,148.1,418.1z"/>
			<path class="st9" d="M175.1,372.1h13.2c6,0,10.3,1,13.1,3c2.8,2,4.2,5.1,4.2,9.2c0,2.8-0.9,5.1-2.6,7c-1.7,1.9-4.2,3.1-7.5,3.6
				v0.2c3.8,0.6,6.7,1.8,8.5,3.6c1.8,1.9,2.7,4.4,2.7,7.8c0,4.4-1.5,7.9-4.4,10.3c-2.9,2.4-7.1,3.6-12.5,3.6h-14.8V372.1z
				 M178.4,393.6h10.6c4.5,0,7.8-0.8,9.9-2.3c2.1-1.5,3.1-3.9,3.1-7.1c0-3.2-1.2-5.5-3.5-7c-2.3-1.5-5.8-2.2-10.4-2.2h-9.7V393.6z
				 M178.4,396.6v20.8h11.3c8.9,0,13.4-3.6,13.4-10.9c0-6.6-4.7-9.9-14.1-9.9H178.4z"/>
			<path class="st9" d="M232.7,421c-5.2,0-9.3-1.6-12.2-4.8c-2.9-3.2-4.4-7.7-4.4-13.5c0-5.7,1.4-10.3,4.2-13.7
				c2.8-3.4,6.6-5.2,11.4-5.2c4.2,0,7.5,1.5,10,4.4c2.4,2.9,3.7,6.9,3.7,12v2.6h-25.8c0,4.9,1.2,8.7,3.4,11.3
				c2.3,2.6,5.5,3.9,9.7,3.9c2,0,3.8-0.1,5.4-0.4c1.5-0.3,3.5-0.9,5.9-1.8v3c-2,0.9-3.9,1.5-5.6,1.8
				C236.7,420.8,234.8,421,232.7,421z M231.8,386.7c-3.5,0-6.2,1.1-8.3,3.4c-2.1,2.3-3.3,5.6-3.7,9.8H242c0-4.2-0.9-7.4-2.7-9.7
				C237.5,387.9,235,386.7,231.8,386.7z"/>
			<path class="st9" d="M271.1,383.8c1.5,0,3.1,0.2,4.9,0.5l-0.6,3.1c-1.5-0.4-3-0.6-4.6-0.6c-3.1,0-5.6,1.3-7.5,3.9
				c-2,2.6-2.9,5.9-2.9,9.8v19.8H257v-35.8h2.8l0.3,6.5h0.2c1.5-2.6,3-4.5,4.7-5.6C266.7,384.3,268.8,383.8,271.1,383.8z"/>
			<path class="st9" d="M294.4,418.1c2.1,0,3.9-0.2,5.4-0.5v2.6c-1.6,0.5-3.4,0.8-5.5,0.8c-3.2,0-5.5-0.8-7-2.5
				c-1.5-1.7-2.3-4.4-2.3-8v-23.1h-5.3v-1.9l5.3-1.5l1.6-8.1h1.7v8.7H299v2.8h-10.5V410c0,2.7,0.5,4.8,1.5,6.1
				C290.9,417.4,292.4,418.1,294.4,418.1z"/>
		</g>
	</g>
</g>
</svg>
