<svg xmlns="http://www.w3.org/2000/svg" viewBox="0 0 100 100"><linearGradient id="a" x1="79.7" x2="20.4" y1="108.2" y2="-8.1" gradientUnits="userSpaceOnUse"><stop offset="0" stop-color="#113058"/><stop offset="1" stop-color="#0873ef"/></linearGradient><path fill="url(#a)" d="M0 5.7C0 2.6 2.6 0 5.7 0h88.6c3.1 0 5.7 2.6 5.7 5.7v88.6c0 3.1-2.6 5.7-5.7 5.7H5.7A6 6 0 0 1 0 94.2V5.7z"/><g fill="#fff" fill-rule="evenodd"><path d="M28.7 48.9v3.8l.3.4L42.5 61l5.8 3.4c.4.3.6.5.6 1.1v7.2L28.6 60.9v3.6c0 .2.4.5.6.7l19 11.1c.6.3.7.7.7 1.3v7l-.8-.4-25.6-14.9c-.5-.3-.7-.6-.7-1.2V37.3l.9.5 25.6 15c.2.2.5.5.5.8v7.1l-.1.3c-6.6-4.3-13.3-8.2-20-12.1z"/><path d="M63.6 78.4V54.7l-3.1 1.9c-.2.1-.2.6-.2.8v22c0 .7-.2 1.1-.8 1.4l-5.9 3.4-.1-.7V53.4c0-.5.1-.8.6-1.1l25.8-15 .7-.4v29.9c0 1.4-.3 1.9-1.3 2.4-1.6.8-3.1 1.8-4.7 2.7l-.8.4V48.6l-3.3 2c-.2.1-.2.5-.2.8v22.3c0 .3-.1.6-.3.7-2 1.4-4.1 2.7-6.4 4z" opacity=".8"/><path d="M52.5 49.6c-.7.7-1.1.6-2.2 0l-25.8-15-1.5-.9.8-.5 26.6-15.5c.5-.3.9-.3 1.4 0l27.4 16-.7.5-24.9 14.6-1.1.8zm-15.6-16 .8.5 12.7 7.4c.5.3.9.3 1.5 0l12.7-7.4.7-.5-.6-.4-13.1-7.6c-.5-.3-.8-.2-1.2.1l-12.6 7.4-.9.5z" opacity=".6"/></g></svg>