<svg version="1.1" id="Ebene_1" xmlns="http://www.w3.org/2000/svg" x="0" y="0" viewBox="0 0 500 500" xml:space="preserve"><style>.st3{fill:#dadada}</style><path fill="#f4b918" d="M353 129.9h138.1L422 249.5H283.9z"/><path fill="#f8cd29" d="M353 129.9L283.9 10.3H422l69.1 119.6z"/><path fill="#b2b2b2" d="M353 369.2h138.1L422 488.8H283.9z"/><path class="st3" d="M353 369.2l-69.1-119.7H422l69.1 119.7zM145.8 249.5L76.7 369.2l-69-119.7 69-119.6z"/><path fill="#e67c11" d="M214.8 129.9l-69-119.6h138.1L353 129.9z"/><path fill="#f3961d" d="M214.8 129.9l-69 119.6-69.1-119.6 69.1-119.6z"/><path fill="#459687" d="M214.8 369.2H353l-69.1 119.6H145.8z"/><path fill="#6fbfb4" d="M214.8 369.2l-69 119.6-69.1-119.6 69.1-119.7z"/><path fill="#619130" d="M283.9 249.5H422l-69 119.7H214.8z"/><path fill="#92c142" d="M283.9 249.5l-69.1-119.6H353l69 119.6z"/><path fill="#bdd250" d="M283.9 249.5l-69.1 119.7-69-119.7 69-119.6z"/></svg>