<svg xmlns="http://www.w3.org/2000/svg" viewBox="0 0 100 100"><linearGradient id="A" x1="7.3" x2="27.9" y1="43.9" y2="43.9" gradientTransform="matrix(1 0 0 -1 0 100)" gradientUnits="userSpaceOnUse"><stop offset="0" stop-color="#f7cc28"/><stop offset="1" stop-color="#f3b81c"/></linearGradient><path fill="url(#A)" d="M27.9 86.9 7.3 75.1V25.4l20.6 12.2z"/><linearGradient id="B" x1="7.3" x2="70.9" y1="80.9" y2="80.9" gradientTransform="matrix(1 0 0 -1 0 100)" gradientUnits="userSpaceOnUse"><stop offset="0" stop-color="#bcd151"/><stop offset="1" stop-color="#92c142"/></linearGradient><path fill="url(#B)" d="M49.9.6 7.3 25.4l20.6 12.2 43-24.9z" opacity=".7"/><linearGradient id="C" x1="49.9" x2="92.9" y1="24.8" y2="24.8" gradientTransform="matrix(1 0 0 -1 0 100)" gradientUnits="userSpaceOnUse"><stop offset="0" stop-color="#6fbfb3"/><stop offset="1" stop-color="#469585"/></linearGradient><path fill="url(#C)" d="m92.8 50.7.1 24.1-43 24.8.2-24.3z" opacity=".7"/><linearGradient id="D" x1="7.3" x2="50.1" y1="24.5" y2="24.5" gradientTransform="matrix(1 0 0 -1 0 100)" gradientUnits="userSpaceOnUse"><stop offset="0" stop-color="#f7cc28"/><stop offset="1" stop-color="#f3b81c"/></linearGradient><path fill="url(#D)" d="m7.3 75.1 42.6 24.5.2-24.3-42.8-24z"/><linearGradient id="E" x1="29.5" x2="92.8" y1="81" y2="81" gradientTransform="matrix(1 0 0 -1 0 100)" gradientUnits="userSpaceOnUse"><stop offset="0" stop-color="#bcd151"/><stop offset="1" stop-color="#92c142"/></linearGradient><path fill="url(#E)" d="M29.5 12.6 49.9.6l42.9 24.8-20.2 12z" opacity=".7"/><linearGradient id="F" x1="72.6" x2="92.9" y1="44.1" y2="44.1" gradientTransform="matrix(1 0 0 -1 0 100)" gradientUnits="userSpaceOnUse"><stop offset="0" stop-color="#6fbfb3"/><stop offset="1" stop-color="#469585"/></linearGradient><path fill="url(#F)" d="m92.9 74.8-.1-49.4-20.2 12v49.1z" opacity=".7"/><linearGradient id="G" x1="35.1" x2="65.2" y1="49.9" y2="49.9" gradientTransform="matrix(1 0 0 -1 0 100)" gradientUnits="userSpaceOnUse"><stop offset="0" stop-color="#f3961e"/><stop offset="1" stop-color="#e67b10"/></linearGradient><path fill="url(#G)" d="m65.2 58.8-15.1 8.6-15-8.6V41.4l15-8.6 15.1 8.6z" opacity=".7"/><g opacity=".8"><linearGradient id="H" x1="35.1" x2="65.2" y1="54.2" y2="54.2" gradientTransform="matrix(1 0 0 -1 0 100)" gradientUnits="userSpaceOnUse"><stop offset="0" stop-color="#f3961e"/><stop offset="1" stop-color="#e67b10"/></linearGradient><path fill="url(#H)" d="M35.1 58.8V41.4l15-8.6 15.1 8.6" opacity=".7"/></g></svg>
