<svg xmlns="http://www.w3.org/2000/svg" xml:space="preserve" id="Ebene_2_00000003082143268403364210000017331588248483125951_" x="0" y="0" style="enable-background:new 0 0 360 360" version="1.1" viewBox="0 0 360 360"><style>.st2{fill:#f2edd5}</style><g id="bg"><path d="M80 0h200c44.2 0 80 35.8 80 80v200c0 44.2-35.8 80-80 80H80c-44.2 0-80-35.8-80-80V80C0 35.8 35.8 0 80 0z" style="fill:#a13609"/><path d="M95 25h170c38.7 0 70 31.3 70 70v170c0 38.7-31.3 70-70 70H95c-38.7 0-70-31.3-70-70V95c0-38.7 31.3-70 70-70z" style="fill:#2d3f4b"/></g><path id="frame" d="M270 34c14.9 0 28.9 5.8 39.5 16.5S326 75.1 326 90v180c0 14.9-5.9 28.9-16.5 39.5S284.9 326 270 326H90c-14.9 0-28.9-5.9-39.5-16.5S34 284.9 34 270V90c0-14.9 5.8-28.9 16.5-39.5S75.1 34 90 34h180m0-14H90c-38.5 0-70 31.5-70 70v180c0 38.5 31.5 70 70 70h180c38.5 0 70-31.5 70-70V90c0-38.5-31.5-70-70-70z" class="st2"/><path d="M195.9 211.4H164c-2.5 0-4.8-1.3-6.2-3.3l-13.7-20.5h-43.8c-4.1 0-7.5-3.4-7.5-7.5s3.4-7.5 7.5-7.5h47.8c2.5 0 4.8 1.3 6.2 3.3l13.7 20.5h23.9l13.7-20.5c1.4-2.1 3.7-3.3 6.2-3.3h47.8c4.1 0 7.5 3.4 7.5 7.5s-3.4 7.5-7.5 7.5h-43.8L202.2 208c-1.4 2.1-3.7 3.4-6.3 3.4z" class="st2"/><path d="M243.8 251.3H116.2c-12.9 0-23.4-10.5-23.4-23.4V180c0-1.2.3-2.3.8-3.4l27.5-55c4-8 12.1-13 21.1-13H218c8.9 0 16.9 5 20.9 13l27.5 55c.5 1 .8 2.2.8 3.4v47.8c0 13-10.5 23.5-23.4 23.5zm-136-69.5v46.1c0 4.7 3.8 8.4 8.4 8.4h127.6c4.7 0 8.4-3.8 8.4-8.4v-46.1l-26.7-53.4a8.29 8.29 0 0 0-7.5-4.7h-75.9c-3.3 0-6.3 1.8-7.7 4.7l-26.6 53.4zm20-56.8z" class="st2"/></svg>