<svg xmlns="http://www.w3.org/2000/svg" viewBox="0 0 191.8 150"><g data-name="Ebene 14"><path d="M60.49 109.52c.28.08.41.19.41.45v1.13a.35.35 0 0 1-.43.37h-2.38c-1.89 0-2.38.29-2.38 1.5v10.61c0 .27-.13.4-.41.4h-1.77a.36.36 0 0 1-.41-.4v-11.23c0-3 2.73-3.13 4.31-3.13a15.72 15.72 0 0 1 3.06.3ZM75.11 116.68c0 6-1.07 7.44-6.34 7.44s-6.37-1.48-6.37-7.44 1.1-7.46 6.37-7.46 6.34 1.5 6.34 7.46Zm-10.08 0c0 4.15.41 5.19 3.74 5.19s3.71-1 3.71-5.19-.41-5.21-3.71-5.21-3.77 1.04-3.77 5.21ZM90.32 109.36a.36.36 0 0 1 .41.4v13.53c0 .32-.14.34-.41.4a32.13 32.13 0 0 1-5.68.43c-4.89 0-6.34-.62-6.34-6.29v-8.07c0-.27.19-.4.46-.4h1.75a.36.36 0 0 1 .41.4v7.89c0 4.06.82 4.22 3.44 4.22h3.74v-12.11a.36.36 0 0 1 .41-.4ZM97.39 105.32c.3-.08.46.06.46.35v3.71h2.87c.3 0 .44.14.44.41V111c0 .27-.14.4-.44.4h-2.87v9c0 1.17.33 1.44 1.78 1.44h1.31c.3 0 .44.11.44.37v1.29c0 .24-.14.37-.41.42a7.36 7.36 0 0 1-1.53.17c-2 0-4.21 0-4.21-3.05v-9.63H93.7a.36.36 0 0 1-.41-.4v-1.25a.37.37 0 0 1 .41-.41h1.53v-3.2a.38.38 0 0 1 .36-.43ZM106.75 105.08a1.42 1.42 0 0 1-1.61 1.58 1.44 1.44 0 0 1-1.61-1.58 1.42 1.42 0 0 1 1.61-1.55 1.4 1.4 0 0 1 1.61 1.55Zm-.71 4.28c.28 0 .41.13.41.4v13.82c0 .27-.13.4-.41.4h-1.8a.36.36 0 0 1-.41-.4v-13.82a.36.36 0 0 1 .41-.4ZM122.62 115.48v8.1c0 .27-.19.4-.46.4h-1.75a.36.36 0 0 1-.41-.4v-7.89c0-4.09-.82-4.22-3.44-4.22h-3.74v12.11a.36.36 0 0 1-.41.4h-1.81a.35.35 0 0 1-.4-.4v-13.5c0-.35.13-.37.4-.43a31.86 31.86 0 0 1 5.69-.43c4.88 0 6.33.59 6.33 6.26ZM137.86 109.68c.27 0 .44.16.44.45v12.51c0 5.24-1.07 6.77-6.31 6.77a33 33 0 0 1-4-.24.38.38 0 0 1-.36-.43v-1.15c0-.27.11-.4.39-.4h3.87c3.06 0 3.75-.72 3.75-3.13v-.16a21.68 21.68 0 0 1-3.61.22c-5.16 0-6.25-1.5-6.25-7.49s1.12-7.41 6.39-7.41a29.26 29.26 0 0 1 5.69.46Zm-5.68 1.79c-3.36 0-3.74 1-3.74 5.19s.41 5.21 3.8 5.21a28.78 28.78 0 0 0 3.44-.19v-10.21Z" style="fill:#003764"/><path d="M25.61 5.86S6.43 5.86 6.43 25v99.17s0 19.18 19.18 19.18H165s19.18 0 19.18-19.18V25s0-19.18-19.18-19.18Z" style="fill:none;stroke:#0b395d;stroke-width:2.4695510774625px"/><path d="M60.88 68.47a11.49 11.49 0 0 0-16.26 0 11 11 0 0 0-3.37 8.13 9.56 9.56 0 0 0 .76 4L50.2 98a2.54 2.54 0 0 0 1 1.17 2.89 2.89 0 0 0 3 0A2.63 2.63 0 0 0 55.37 98l8.14-17.41a9.26 9.26 0 0 0 .76-4 11.06 11.06 0 0 0-3.37-8.13m-8.15 13.88a5.75 5.75 0 1 1 4-9.82 5.75 5.75 0 0 1-4.07 9.81M146.69 21.2a9.17 9.17 0 0 0-15.64 6.47 7.63 7.63 0 0 0 .61 3.2l6.52 13.84a2 2 0 0 0 .83.93 2.33 2.33 0 0 0 2.44 0 2.12 2.12 0 0 0 .85-.93l6.48-13.87a7.48 7.48 0 0 0 .61-3.2 8.8 8.8 0 0 0-2.68-6.47m-6.5 11.08a4.58 4.58 0 1 1 3.23-7.83 4.58 4.58 0 0 1-3.24 7.81" style="fill:#003764"/><path d="M64.39 96.61a2.29 2.29 0 1 0-2.29 2.29 2.28 2.28 0 0 0 2.29-2.29M105.73 80.61a2.29 2.29 0 1 0-2.29 2.29 2.29 2.29 0 0 0 2.29-2.29M85.06 84.61a2.29 2.29 0 1 0-2.29 2.29 2.28 2.28 0 0 0 2.29-2.29M74.73 89.61a2.29 2.29 0 1 0-2.29 2.29 2.29 2.29 0 0 0 2.29-2.29M125.73 78.61a2.29 2.29 0 1 0-2.29 2.29 2.29 2.29 0 0 0 2.29-2.29M116.06 79.61a2.29 2.29 0 1 0-2.29 2.29 2.28 2.28 0 0 0 2.29-2.29M95.39 82.61a2.29 2.29 0 1 0-2.29 2.29 2.28 2.28 0 0 0 2.29-2.29M133.39 76.61a2.29 2.29 0 1 0-2.29 2.29 2.28 2.28 0 0 0 2.29-2.29M130.19 54.12a1.88 1.88 0 1 0-1.88 1.88 1.88 1.88 0 0 0 1.88-1.88M135.29 50.84a1.88 1.88 0 1 0-1.88 1.88 1.88 1.88 0 0 0 1.88-1.88M140.39 49.2a1.88 1.88 0 1 0-1.87 1.88 1.88 1.88 0 0 0 1.87-1.88M127.09 58.12a1.88 1.88 0 1 0-1.88 1.88 1.88 1.88 0 0 0 1.88-1.88M128.84 63.12A1.88 1.88 0 1 0 127 65a1.88 1.88 0 0 0 1.88-1.88M134.59 63.12a1.88 1.88 0 1 0-1.88 1.88 1.88 1.88 0 0 0 1.88-1.88M140.34 64.12a1.88 1.88 0 1 0-1.88 1.88 1.88 1.88 0 0 0 1.88-1.88M144.09 69.12a1.88 1.88 0 1 0-1.88 1.88 1.88 1.88 0 0 0 1.88-1.88M140.39 74.61a2.29 2.29 0 1 0-2.29 2.29 2.28 2.28 0 0 0 2.29-2.29" style="fill:#103a5d"/></g></svg>