<svg xmlns="http://www.w3.org/2000/svg" viewBox="0 0 191.8 150"><path d="M24.36 5.15s-19.53 0-19.53 19.52v101s0 19.53 19.53 19.53h141.89s19.53 0 19.53-19.53v-101s0-19.52-19.53-19.52Z" style="fill:none;stroke:#103a5d;stroke-width:2.51389524052214px"/><path d="M72.35 42.87a7.12 7.12 0 0 0 6.3 6l.72 5.9a13.4 13.4 0 0 0-6.5 4.38L61.3 53.33a4.8 4.8 0 0 0 .26-2.42 4.76 4.76 0 1 0-1.09 3.8L71 62.2a13.43 13.43 0 0 0 2.5 14.64l-5.14 7.29a5.54 5.54 0 1 0 3.7 4.41 5.42 5.42 0 0 0-.87-2.24l5.71-6.86a13.34 13.34 0 0 0 13.74-.55L96 85.26a7.91 7.91 0 1 0 14.49 3.06 7.9 7.9 0 0 0-11.39-5.89l-5.82-5.78a13.44 13.44 0 0 0-10-22.46l-1.08-5.85a7.12 7.12 0 1 0-9.85-5.47Z" style="fill:#103a5d"/><path d="M65 106.74c.28 0 .41.13.41.4v17.46h9.92a.36.36 0 0 1 .41.4v1.58a.36.36 0 0 1-.41.4H63.06a.36.36 0 0 1-.41-.4v-19.44a.36.36 0 0 1 .41-.4ZM94.8 116.85c0 7.24-2.32 10.26-8.5 10.26-2.4 0-5.57 0-7.51-.19-.32 0-.41-.08-.41-.37V107.2c0-.33.09-.38.41-.41 1.94-.13 5.11-.18 7.51-.18 6.18 0 8.5 3.05 8.5 10.24ZM81.14 109v15.74h5.16c4.18 0 5.71-2.32 5.71-7.88S90.38 109 85.92 109ZM109.08 109.74l4.67 16.81c.06.35 0 .43-.32.43h-2.14c-.21 0-.27-.08-.35-.43l-1.69-5.91H101l-1.72 5.91c-.08.35-.11.43-.35.43h-2.11c-.33 0-.38-.08-.33-.43l4.84-16.81c.79-2.76 1.25-3.13 3.79-3.13 2.81 0 3.2.39 3.96 3.13Zm-5.13.64-2.24 7.91h6.91l-2.13-7.91c-.36-1.23-.41-1.42-1.37-1.42-.79.04-.85.19-1.12 1.42ZM131.1 113.13c0 5.61-2 6.28-8.2 6.28h-3.47v7.17c0 .32-.08.4-.41.4h-1.94c-.32 0-.41-.08-.41-.4V107.2c0-.33.09-.38.41-.41 1.94-.13 4.29-.18 5.82-.18 6.15 0 8.2 1.01 8.2 6.52ZM119.43 109v8.12h3.23c4.5 0 5.65-.18 5.65-3.93s-1.15-4.19-5.65-4.19Z" style="fill:#003764"/><path d="M135.25 55.84h-13.79a2.88 2.88 0 0 0-2.88 2.88v4.77h-12.33a.6.6 0 0 0-.41.16l-2.84 2.9a.39.39 0 0 0 0 .55l2.84 2.9a.58.58 0 0 0 .41.17h1.44a.67.67 0 0 0 .48-.2l1.54-1.55a.27.27 0 0 1 .36 0l1.4 1.4a.88.88 0 0 0 1.25 0l1.38-1.38a.25.25 0 0 1 .36 0L116 70a.67.67 0 0 0 .48.2h2.09v4.77a2.88 2.88 0 0 0 2.89 2.88h13.79a2.88 2.88 0 0 0 2.88-2.88V58.72a2.88 2.88 0 0 0-2.88-2.88Zm-6.95 4.72a2.79 2.79 0 1 1-2.79 2.79 2.79 2.79 0 0 1 2.79-2.79Zm-4.78 9.37a2.27 2.27 0 0 1 2.26-2.3h5a2.28 2.28 0 0 1 2.28 2.28v2.47h-9.56Z" style="fill:#103a5d"/></svg>