<?xml version="1.0" encoding="utf-8"?>
<!-- Generator: Adobe Illustrator 24.2.0, SVG Export Plug-In . SVG Version: 6.00 Build 0)  -->
<svg version="1.1" id="Layer_1" xmlns="http://www.w3.org/2000/svg" xmlns:xlink="http://www.w3.org/1999/xlink" x="0px" y="0px"
	 width="512px" height="512px" viewBox="0 0 512 512" style="enable-background:new 0 0 512 512;" xml:space="preserve">
<style type="text/css">
	.st0{fill:#E53B25;}
	.st1{fill:#FFFFFF;}
</style>
<circle class="st0" cx="256" cy="256" r="256"/>
<g>
	<g>
		<path class="st1" d="M164.8,355.1c-44.7,0-81-35.8-81-80.5c0-41.4,31.7-75.9,72.1-80.1c5.1-39.6,39.1-69.8,80.5-69.8
			c44.7,0,81,36.3,81,80.5H296c0-32.6-27-59.6-60-59.6s-60,26.5-60,58.6v9.3l-11.6,1.4c-33,0-60,26.5-60,59.6
			c0,32.6,27,59.6,60,59.6v20.9H164.8z"/>
	</g>
	<g>
		<path class="st1" d="M301.6,382.6c-68.9,0-125.2-55.9-125.2-124.7h21.4c0,57.3,46.5,103.3,104.3,103.3s104.3-46.5,104.3-103.3
			v-0.5c0-32.6-27-59.6-60-59.6s-60,26.5-60,59.6h-21.4c0-44.2,36.3-80.5,81-80.5s81,36.3,81,80.5v0.5
			C426.8,326.7,371,382.6,301.6,382.6z"/>
	</g>
</g>
</svg>
