<svg xmlns="http://www.w3.org/2000/svg" id="Layer_1" x="0" y="0" version="1.1" xml:space="preserve" viewBox="0 0 512 512"><defs/><style>.st1{fill:#fff}</style><circle cx="256" cy="256" r="256" fill="#e53b25"/><path d="M164.8 355.1c-44.7 0-81-35.8-81-80.5 0-41.4 31.7-75.9 72.1-80.1 5.1-39.6 39.1-69.8 80.5-69.8 44.7 0 81 36.3 81 80.5H296c0-32.6-27-59.6-60-59.6s-60 26.5-60 58.6v9.3l-11.6 1.4c-33 0-60 26.5-60 59.6 0 32.6 27 59.6 60 59.6V355h.4z" class="st1"/><path d="M301.6 382.6c-68.9 0-125.2-55.9-125.2-124.7h21.4c0 57.3 46.5 103.3 104.3 103.3s104.3-46.5 104.3-103.3v-.5c0-32.6-27-59.6-60-59.6s-60 26.5-60 59.6H265c0-44.2 36.3-80.5 81-80.5s81 36.3 81 80.5v.5c-.2 68.8-56 124.7-125.4 124.7z" class="st1"/></svg>