<svg xmlns="http://www.w3.org/2000/svg" viewBox="0 0 100 100"><linearGradient id="a" x1="79.7" x2="20.4" y1="108.2" y2="-8.1" gradientUnits="userSpaceOnUse"><stop offset="0" stop-color="#14a8c3"/><stop offset="1" stop-color="#70e5e1"/></linearGradient><path fill="url(#a)" d="M0 5.8C0 2.7 2.6.1 5.7.1h88.6c3.1 0 5.7 2.6 5.7 5.7v88.6c0 3.1-2.6 5.7-5.7 5.7H5.7A6 6 0 0 1 0 94.3V5.8z"/><g fill="#fff"><g fill-rule="evenodd" opacity=".9"><path d="M84.8 88.9v.8l.1.1 1.1.6 1.7 1 1.2.7.1.2v1.5l-4.1-2.4v.7l.1.1 3.9 2.3.1.3v1.4l-.2-.1-5.2-3-.1-.2v-6.3l.2.1 4.5 2.7.7.4.1.2v1.5a34.6 34.6 0 0 0-4.2-2.6z"/><path d="M92.2 94.9v-4.8a2 2 0 0 0-.6.4v4.7c0 .1 0 .2-.2.3l-1.2.7V90l.1-.2 5.3-3.1.1-.1v6.1c0 .3-.1.4-.3.5l-1 .6-.2.1v-4.8l-.7.4v4.8l-.1.1c-.3 0-.7.2-1.2.5z" opacity=".8"/><path d="M89.8 88.6a145.6 145.6 0 0 1-5.7-3.1l-.3-.2.2-.1 5.4-3.2h.3l5.4 3.2.1.1-.1.1-5.1 3-.2.2zm-3.2-3.3.2.1 2.6 1.5h.3l2.6-1.5.1-.1-.1-.1-2.7-1.5c-.1-.1-.2 0-.2 0l-2.6 1.5-.2.1z" opacity=".6"/></g><path d="M81.8 40.4 60 24.1c-.6-.4-1.4-.4-2 0l-3.6 2.7-3.5-2.7c-.6-.4-1.4-.4-2 0l-3.5 2.7-3.5-2.7c-.6-.4-1.4-.4-2 0L18.3 40.4c-.4.3-.6.8-.6 1.3v27.6c0 .9.7 1.6 1.6 1.6h61.5c.9 0 1.6-.7 1.6-1.6V41.7c0-.5-.2-.9-.6-1.3zm-2.6 27.3h-5.9v-26c0-.5-.2-1-.6-1.3L57.2 28.9l1.9-1.4 20.1 15.2v25zm-14.8 0v-26c0-.5-.2-1-.6-1.3L48.1 28.8l1.8-1.3L70 42.6v25.2l-5.6-.1zm-20.8 0h-5.4V56h5.3l.1 11.7zm3.3 0V54.3c0-.9-.7-1.6-1.6-1.6h-8.6c-.9 0-1.6.7-1.6 1.6v13.4H21V42.6l20-15.1 20.1 15.2v25.2l-14.2-.2z"/></g></svg>