<svg xmlns="http://www.w3.org/2000/svg" viewBox="0 0 500 428.86"><defs><style>.cls-1{fill:#333a46}.cls-2{fill:#7abfbc}</style></defs><g id="Ebene_2" data-name="Ebene 2"><g id="_0.1" data-name=".1"><path d="M405.52 364.46H0L94.48 0H500l-94.48 364.46zM92.63 384.87q3.72 6.47 3.71 18.73t-3.71 18.76a12.57 12.57 0 0 1-22 0q-3.7-6.5-3.71-18.76t3.71-18.73a12.6 12.6 0 0 1 22 0zm-17.34 3.54q-2.07 4.68-2.07 15.19t2.07 15.22q2.07 4.71 6.34 4.71t6.31-4.71Q90 414.11 90 403.6t-2.1-15.15q-2.11-4.71-6.31-4.71t-6.3 4.67zm39.06 31.76a5.18 5.18 0 0 1 1.31 3.58 5.31 5.31 0 0 1-1.31 3.61 4.19 4.19 0 0 1-3.29 1.5 4.13 4.13 0 0 1-3.22-1.5 5.31 5.31 0 0 1-1.31-3.61 5.18 5.18 0 0 1 1.31-3.58 4.18 4.18 0 0 1 3.22-1.46 4.25 4.25 0 0 1 3.29 1.46zm21.28 7.83h-6v-41.7l-10.25 6.93-2.63-4.74 13.6-9.35h5.32zm50-1.77a12.39 12.39 0 0 1-7.75 2.63 8.66 8.66 0 0 1-6.87-2.81q-2.46-2.82-2.46-8.14v-23.22h-6.05v-5.18h6.05v-8.69l6-.8v9.49h8.22l-.66 5.18h-7.56v22.93a7.64 7.64 0 0 0 1 4.34 3.61 3.61 0 0 0 3.18 1.35 8.18 8.18 0 0 0 4.6-1.68zm29.93-34.46q2.66 3.15 2.66 8.62V428h-6.05v-26.66q0-4.09-1.41-5.77a5.06 5.06 0 0 0-4.11-1.68 7.26 7.26 0 0 0-4.79 1.75 18.07 18.07 0 0 0-3.94 5V428h-6v-53.89l6-.73v21.46q4.07-6.21 10.25-6.21a9.19 9.19 0 0 1 7.39 3.14zm40.83 19.28h-22.08q.41 6.34 2.89 9.34a8 8 0 0 0 6.44 3 12.66 12.66 0 0 0 4.6-.8 18 18 0 0 0 4.4-2.56l2.63 4a18 18 0 0 1-12.09 4.82q-7.23 0-11.26-5.26t-4-14.45a29.87 29.87 0 0 1 1.74-10.62 16.56 16.56 0 0 1 5-7.27 11.82 11.82 0 0 1 7.65-2.63q6.9 0 10.58 5t3.68 13.94c-.05 1.17-.09 2.32-.18 3.49zm-5.85-5.41c0-3.79-.68-6.69-2-8.68a6.88 6.88 0 0 0-6.11-3q-7.42 0-8.08 12.12h16.23zm57.55-13.83q2.57 3.18 2.57 8.58V428h-6.05v-26.66q0-7.45-4.86-7.45a6.19 6.19 0 0 0-4.34 1.64 22.81 22.81 0 0 0-3.81 5.15V428h-6v-26.66q0-7.45-4.86-7.45a6.17 6.17 0 0 0-4.41 1.68 22.59 22.59 0 0 0-3.74 5.11V428h-6v-38.49h5.19l.52 5.62q3.87-6.5 10-6.5a8.45 8.45 0 0 1 5.48 1.83 10 10 0 0 1 3.26 5.11 17.23 17.23 0 0 1 4.5-5.15 9.64 9.64 0 0 1 5.81-1.79 8.31 8.31 0 0 1 6.74 3.18zm40.74 19.24h-22.08q.4 6.34 2.89 9.34a8 8 0 0 0 6.44 3 12.66 12.66 0 0 0 4.6-.8 18 18 0 0 0 4.4-2.56l2.63 4a18 18 0 0 1-12.09 4.82 13.4 13.4 0 0 1-11.27-5.26q-4-5.25-4-14.45a30.09 30.09 0 0 1 1.74-10.62 16.57 16.57 0 0 1 5-7.27 11.82 11.82 0 0 1 7.65-2.63q6.9 0 10.58 5t3.68 13.99c0 1.12-.08 2.27-.17 3.44zm-5.83-5.41c0-3.79-.68-6.69-2-8.68a6.88 6.88 0 0 0-6.11-3q-7.43 0-8.08 12.12H343z" class="cls-1"/><path d="M135 95.71a4 4 0 1 0-2.83-1.17 4 4 0 0 0 2.83 1.17zm12.77 0A4 4 0 1 0 145 88.9a4 4 0 0 0 0 5.64 4 4 0 0 0 2.82 1.17zm12.78 0a4 4 0 1 0-2.82-1.17 4 4 0 0 0 2.82 1.17zm17.04 0h161.86a4 4 0 0 0 0-8H177.59a4 4 0 0 0 0 8zm178.9 0H365a4 4 0 1 0 0-8h-8.51a4 4 0 1 0 0 8z" class="cls-2"/><path fill="#fff" d="M365 70.69H135a21.06 21.06 0 0 0-21 21v181a21.07 21.07 0 0 0 21 21h230a21.07 21.07 0 0 0 21-21v-181a21.06 21.06 0 0 0-21-21zm-230 8h230a13.07 13.07 0 0 1 13.05 13v13H122v-13a13.07 13.07 0 0 1 13-13zm230 207.1H135a13.06 13.06 0 0 1-13-13.05v-160h256.1v160a13.06 13.06 0 0 1-13.1 13.05z"/><path d="M304.23 228.86a31.79 31.79 0 0 0-1.3-9 20.27 20.27 0 0 0-9.46-36 31.58 31.58 0 0 0-5.28-26.68 13.58 13.58 0 1 0-18-12.83c0 .35 0 .7.05 1a31.47 31.47 0 0 0-36.46 18.75 21.54 21.54 0 1 0-35.85 23.9 37.15 37.15 0 0 0-9.57 24.94c0 1 0 1.94.12 2.89a11 11 0 1 0 7.27 19.4 37.81 37.81 0 0 0 7.46 7.49H177.5v20.08h136.2v-20.09h-12.64a31.68 31.68 0 0 0 3.17-13.85z" class="cls-2"/><circle cx="309.11" cy="128.74" r="8.51" class="cls-2"/><path d="M183.36 190.55a8.51 8.51 0 0 0-13.88-9 6 6 0 0 0-1.5-.8 5.8 5.8 0 1 0-.15 11 8.5 8.5 0 0 0 15.53-1.21z" class="cls-2"/><circle cx="318.35" cy="165.13" r="4.35" class="cls-2" transform="rotate(-45 318.347 165.126)"/><circle cx="317.62" cy="228.86" r="7.97" class="cls-2" transform="rotate(-45 317.616 228.859)"/><circle cx="331.38" cy="233.93" r="4.35" class="cls-2" transform="rotate(-45 331.385 233.926)"/><path d="M229 182.88a17.77 17.77 0 0 1 6.84 1.28 13.62 13.62 0 0 1 5.28 3.91q4.74 5.56 4.74 15.93t-4.74 15.93q-4.38 5.19-12.06 5.18t-12.18-5.18q-4.68-5.43-4.69-15.93t4.69-15.93q4.4-5.19 12.12-5.19zm6.84 10.41a8.09 8.09 0 0 0-13.62 0c-1.6 2.47-2.41 6.05-2.41 10.71s.81 8.21 2.41 10.65a8.18 8.18 0 0 0 13.62 0q2.4-3.66 2.4-10.65c-.04-4.66-.84-8.24-2.44-10.71zm15.86 30.14a4.64 4.64 0 0 1-1.44-3.5 4.83 4.83 0 0 1 1.44-3.56 5 5 0 0 1 3.68-1.44 5.2 5.2 0 0 1 3.75 1.44 4.73 4.73 0 0 1 1.5 3.56 4.55 4.55 0 0 1-1.5 3.5 5.37 5.37 0 0 1-3.75 1.37 5.11 5.11 0 0 1-3.68-1.37zm13.11-36.67a18.07 18.07 0 0 0 8.25-3.31h5.56v40.79h-7.37v-32a14.41 14.41 0 0 1-6.44 1.57zm-83.32 61.14h6v1.1h-4.81v3.29h4.53v1.05h-4.53v3.34h4.81v1.08h-6zm11.79 0 4.87 7.88v-7.88h1.23v9.82H198l-4.95-8v8h-1.25v-9.82zm10.8 0h6v1.1h-4.81v3.29h4.53v1.05h-4.53v3.34h4.81v1.08h-6zm17.2 2.81a2.92 2.92 0 0 1-.65 2 3.09 3.09 0 0 1-1.91 1l2.81 4.08h-1.59l-2.55-4h-1.72v4h-1.23v-9.89h3.42a3.68 3.68 0 0 1 2.54.79 2.6 2.6 0 0 1 .88 2.02zm-3.51 2.14a2.35 2.35 0 0 0 1.67-.54 2.07 2.07 0 0 0 0-2.83 2.23 2.23 0 0 0-1.6-.52h-2.19v3.89zm13.88 3.15a2.51 2.51 0 0 1-2.55 1.86 4 4 0 0 1-3.1-1.37 5.44 5.44 0 0 1-1.21-3.7 5.11 5.11 0 0 1 1.32-3.7 4.37 4.37 0 0 1 3.29-1.38 4.21 4.21 0 0 1 2 .47 3.9 3.9 0 0 1 1.49 1.5l-1.18.4a3 3 0 0 0-2.38-1.26 2.92 2.92 0 0 0-2.3 1.11 4.29 4.29 0 0 0-1 2.88 4.63 4.63 0 0 0 .82 2.85 2.59 2.59 0 0 0 2.18 1.08 2.36 2.36 0 0 0 1.82-.75 3.22 3.22 0 0 0 .68-2.22l-2.47-.09v-.82h3.67v4.86h-1zm5.61-8.1 2.63 4.51 2.71-4.51h1.45l-3.53 5.79v4h-1.25v-4l-3.48-5.79zm20.59 2.39c-.17-1-.88-1.44-2.1-1.44a2.35 2.35 0 0 0-1.52.43 1.3 1.3 0 0 0-.53 1 1.18 1.18 0 0 0 .33.91 2.8 2.8 0 0 0 1.06.55l2 .7a4.22 4.22 0 0 1 1.66 1 2.54 2.54 0 0 1-.35 3.66 4.07 4.07 0 0 1-2.59.77 4.15 4.15 0 0 1-2.67-.82 2.84 2.84 0 0 1-1.07-2.3h1.21a1.75 1.75 0 0 0 .67 1.48 2.8 2.8 0 0 0 1.75.52 2.73 2.73 0 0 0 1.7-.48 1.4 1.4 0 0 0 .62-1.12 1.37 1.37 0 0 0-.38-1 2.91 2.91 0 0 0-1.13-.62l-1.74-.64a5.16 5.16 0 0 1-1.84-1 2.11 2.11 0 0 1-.62-1.65 2.28 2.28 0 0 1 .87-1.81 4.56 4.56 0 0 1 4.87 0 2.75 2.75 0 0 1 1 1.87zm7.98-2.39h1.5l3.3 9.82h-1.28l-.84-2.5h-3.91l-.84 2.5h-1.3zm-.9 6.35h3.26l-1.62-4.84zm8.81-6.35 2.81 8.26 2.82-8.26h1.3l-3.48 9.82h-1.28l-3.47-9.82zm10.35 0h1.24v9.82h-1.24zm7.37 0 4.88 7.88v-7.88h1.23v9.82h-1.38l-4.95-8v8H290v-9.82zm16.9 8.1a2.51 2.51 0 0 1-2.54 1.86 4 4 0 0 1-3.11-1.37 5.44 5.44 0 0 1-1.21-3.7 5.11 5.11 0 0 1 1.32-3.7 4.37 4.37 0 0 1 3.29-1.38 4.19 4.19 0 0 1 2 .47 4 4 0 0 1 1.5 1.5l-1.19.4a3 3 0 0 0-2.38-1.26 2.92 2.92 0 0 0-2.3 1.11 4.29 4.29 0 0 0-.94 2.88 4.63 4.63 0 0 0 .81 2.85 2.59 2.59 0 0 0 2.19 1.08 2.35 2.35 0 0 0 1.81-.75 3.22 3.22 0 0 0 .68-2.22l-2.46-.09v-.82h3.67v4.86h-1z" class="cls-1"/><path d="M185.13 267.66a5.3 5.3 0 0 1 1.63.23 3.7 3.7 0 0 1 1.18.63 3.74 3.74 0 0 1 1.29 2.24l-2 .36a2.87 2.87 0 0 0-.78-1.29 1.82 1.82 0 0 0-1.3-.5 2 2 0 0 0-1.72.89 4.5 4.5 0 0 0-.71 2.69 4.84 4.84 0 0 0 .63 2.67 1.92 1.92 0 0 0 1.7 1 2.28 2.28 0 0 0 1.63-.52 1.81 1.81 0 0 0 .55-1.35h2a3.26 3.26 0 0 1-1.09 2.63 4.4 4.4 0 0 1-3 .93 4 4 0 0 1-3.21-1.41 5.91 5.91 0 0 1-1.2-3.91A5.76 5.76 0 0 1 182 269a4 4 0 0 1 3.13-1.34zm11.73 0a4.89 4.89 0 0 1 1.86.34 3.83 3.83 0 0 1 1.45 1 5.55 5.55 0 0 1 1.28 3.94 5.7 5.7 0 0 1-1.28 4 4.33 4.33 0 0 1-3.33 1.31 4.25 4.25 0 0 1-3.31-1.34 6.74 6.74 0 0 1 0-7.93 4.3 4.3 0 0 1 3.33-1.32zm2.69 5.29a4.37 4.37 0 0 0-.73-2.69 2.52 2.52 0 0 0-3.93 0 4.31 4.31 0 0 0-.74 2.69 4.23 4.23 0 0 0 .74 2.68 2.54 2.54 0 0 0 3.93 0 4.3 4.3 0 0 0 .73-2.63zm7.64-5.09 4.48 7.2v-7.2h1.84V278h-1.87l-4.64-7.43V278h-1.84v-10.14zm9.43 0h8.14v1.6h-3.15V278h-1.84v-8.55h-3.15zm12.89 0h2.31l3.34 10.14h-2l-.7-2.19h-3.77L228 278h-2zm-.31 6.57h2.8l-1.4-4.36zm13.21-6.77a4.85 4.85 0 0 1 1.86.34 3.87 3.87 0 0 1 1.46 1 5.59 5.59 0 0 1 1.28 3.94 5.74 5.74 0 0 1-1.28 4 4.36 4.36 0 0 1-3.33 1.31 4.27 4.27 0 0 1-3.32-1.34 6.78 6.78 0 0 1 0-7.93 4.3 4.3 0 0 1 3.33-1.32zm2.69 5.34a4.31 4.31 0 0 0-.73-2.69 2.34 2.34 0 0 0-2-.94 2.37 2.37 0 0 0-2 .94 4.31 4.31 0 0 0-.73 2.69 4.24 4.24 0 0 0 .73 2.68 2.39 2.39 0 0 0 2 .93 2.35 2.35 0 0 0 2-.93 4.24 4.24 0 0 0 .73-2.68zm9.82-5.14h8.13v1.6h-3.14V278h-1.84v-8.55h-3.15zm13.08 0v4.24h4.43v-4.24h1.84V278h-1.84v-4.3H268v4.3h-1.84v-10.14zm10.75 0h6.54v1.6h-4.69v2.67h4.4v1.6h-4.4v2.67h4.69v1.6h-6.54zm13.39 0 2.78 6 2.79-6h2.55V278h-1.86v-7.7l-2.88 6.6h-1.21l-3-6.82V278h-1.81v-10.14zm12.57 0h6.54v1.6h-4.69v2.67H311v1.6h-4.39v2.67h4.69v1.6h-6.54z" class="cls-2"/></g></g></svg>