<svg xmlns="http://www.w3.org/2000/svg" xml:space="preserve" id="Ebene_2_00000156570788268193613470000017052364798905568165_" x="0" y="0" style="enable-background:new 0 0 360 360" version="1.1" viewBox="0 0 360 360"><style>.st2{fill:#0098ac}.st3{fill:#f2edd5}</style><g id="bg"><path d="M80 0h200c44.2 0 80 35.8 80 80v200c0 44.2-35.8 80-80 80H80c-44.2 0-80-35.8-80-80V80C0 35.8 35.8 0 80 0z" style="fill:#a13609"/><path d="M95 25h170c38.7 0 70 31.3 70 70v170c0 38.7-31.3 70-70 70H95c-38.7 0-70-31.3-70-70V95c0-38.7 31.3-70 70-70z" style="fill:#02848e"/><path d="M158.9 85h42.3v113.8h-42.3z" class="st2"/><path d="m259 161.4-39.9 71.3h-78.2L101 161.4l-36.9 20.7 52.1 92.9h127.6l52.1-92.9z" class="st2"/></g><path id="frame" d="M270 34c14.9 0 28.9 5.8 39.5 16.5S326 75.1 326 90v180c0 14.9-5.9 28.9-16.5 39.5S284.9 326 270 326H90c-14.9 0-28.9-5.9-39.5-16.5S34 284.9 34 270V90c0-14.9 5.8-28.9 16.5-39.5S75.1 34 90 34h180m0-14H90c-38.5 0-70 31.5-70 70v180c0 38.5 31.5 70 70 70h180c38.5 0 70-31.5 70-70V90c0-38.5-31.5-70-70-70z" class="st3"/><g id="icon"><g id="Ebene_3"><g id="layer2"><path id="path26" d="M246.4 154.3s9.2-42.2 9.3-42.5h-58.4c0 .2-12 55.8-12 56.2h15.1c.1 0 9.2-42.1 9.2-42.1h28.3s-9 42.2-9.2 42.4h43.2l-5.7 26h-43c0 .2-8.8 39.6-8.8 39.6h-32.3c0 .1-3 14.2-3.1 14.3h47.7c0-.1 8.6-39.7 8.6-39.7h43c0-.1 11.3-53.9 11.3-54.2h-43.2" class="st3"/><path id="path1640" d="m144.1 228.3 6-28.2h23.4l2.8-13.9H153l3.5-17.3h24.6l3.1-13.9h-40.7l-15.3 73.2h15.9v.1z" class="st3"/><path id="path1638" d="m85.7 154.3-15.5 73.2H86l4.9-22.3h6.9c22.1 0 34.3-10.8 34.3-28.9 0-13.4-9.4-22.2-25.9-22.2l-20.5.2zm13 13.4h6.6c7.2 0 10.8 3 10.8 9.9 0 8.9-5.7 14.2-15.9 14.2h-6.6l5.1-24.1z" class="st3"/></g></g></g></svg>