<svg xmlns="http://www.w3.org/2000/svg" xmlns:xlink="http://www.w3.org/1999/xlink" width="500" height="590"><defs><linearGradient id="a" x1="250" x2="250" y1="-258.13" y2="-226.4" gradientTransform="matrix(1 0 0 -1 0 291.97)" gradientUnits="userSpaceOnUse"><stop offset="0" stop-color="#fff" stop-opacity=".2"/><stop offset="1" stop-color="#fff" stop-opacity="0"/></linearGradient><linearGradient id="c" x1="250" x2="250" y1="500" gradientUnits="userSpaceOnUse"><stop offset="0" stop-color="#264f70"/><stop offset=".11" stop-color="#395e7c"/><stop offset=".26" stop-color="#4d6f89"/><stop offset=".43" stop-color="#5b7a93"/><stop offset=".65" stop-color="#638198"/><stop offset="1" stop-color="#66839a"/></linearGradient><linearGradient xlink:href="#a" id="d" y1="50.35" y2="265.47"/><clipPath id="b"><path fill="none" d="M255.75 542.34h-16.21v45H224.9v-45h-24.06v45h-14.65v-45h-24.06v45h-14.64v-45h-9.94V535h9.94v-1q0-10.25 6.38-16.11t18.2-5.86a31.74 31.74 0 0 1 8 1 36.67 36.67 0 0 1 7.17 2.61l-3.14 6.8a27.75 27.75 0 0 0-4.92-2.14 18.78 18.78 0 0 0-6.07-1 10.69 10.69 0 0 0-4.19.84 9.61 9.61 0 0 0-3.5 2.56 12.45 12.45 0 0 0-2.4 4.55 22.37 22.37 0 0 0-.89 6.69v1h24.06v-1q0-10.25 6.38-16.11t18.2-5.86a31.74 31.74 0 0 1 8 1 36.66 36.66 0 0 1 7.17 2.61l-3.14 6.8a27.67 27.67 0 0 0-4.92-2.14 18.77 18.77 0 0 0-6.07-1 10.68 10.68 0 0 0-4.18.84 9.6 9.6 0 0 0-3.5 2.56 12.44 12.44 0 0 0-2.4 4.55 22.38 22.38 0 0 0-.89 6.69v1h24.06v-1q0-10.25 6.38-16.11t18.2-5.86a31.73 31.73 0 0 1 8 1 36.6 36.6 0 0 1 7.16 2.61l-3.14 6.8a27.68 27.68 0 0 0-4.92-2.14 18.76 18.76 0 0 0-6.07-1 10.68 10.68 0 0 0-4.18.84 9.61 9.61 0 0 0-3.5 2.56 12.47 12.47 0 0 0-2.41 4.55 22.43 22.43 0 0 0-.89 6.69v1h16.22zm-205.39-4q-7.17-5.39-22.12-5.39h-13.6v-18.86H0v73.22h14.64v-47.07h13.6q7.11 0 10.88 3.3t3.77 10.83v32.95h14.64v-32.96q0-10.67-7.16-16.05zm80.12 9.31a34.5 34.5 0 0 1 0 25.05 25.67 25.67 0 0 1-6.54 9.15 28.21 28.21 0 0 1-10.09 5.65 44.27 44.27 0 0 1-25.89 0 28.23 28.23 0 0 1-10-5.65 25.67 25.67 0 0 1-6.54-9.15 34.51 34.51 0 0 1 0-25.05 25.58 25.58 0 0 1 6.54-9.21 28.28 28.28 0 0 1 10-5.65 44.26 44.26 0 0 1 25.89 0 28.26 28.26 0 0 1 10.15 5.62 25.58 25.58 0 0 1 6.49 9.21zm-13.34 12.5a35.89 35.89 0 0 0-1.31-10.36 20 20 0 0 0-3.51-7 13.48 13.48 0 0 0-5.12-3.92 16.31 16.31 0 0 0-12.55 0 13.48 13.48 0 0 0-5.13 3.92 20 20 0 0 0-3.5 7 41.64 41.64 0 0 0 0 20.71 20 20 0 0 0 3.5 7 13.47 13.47 0 0 0 5.13 3.92 16.32 16.32 0 0 0 12.55 0 13.48 13.48 0 0 0 5.12-3.92 20 20 0 0 0 3.51-7 35.89 35.89 0 0 0 1.32-10.38zm375.68-21.81q-7.17-5.39-22.12-5.39h-54.38v54.39H431v-47.1h19.87v47.07h14.65v-47.07h5.23q7.11 0 10.88 3.3t3.76 10.83v32.95H500v-32.96q0-10.67-7.16-16.05zm-90.9 9.31a34.5 34.5 0 0 1 0 25.05 25.66 25.66 0 0 1-6.54 9.15 28.21 28.21 0 0 1-10.09 5.65 44.27 44.27 0 0 1-25.89 0 28.26 28.26 0 0 1-10-5.65 25.68 25.68 0 0 1-6.54-9.15 34.5 34.5 0 0 1 0-25.05 25.59 25.59 0 0 1 6.54-9.21 28.31 28.31 0 0 1 10-5.65 44.26 44.26 0 0 1 25.89 0 28.26 28.26 0 0 1 10.09 5.65 25.57 25.57 0 0 1 6.55 9.18zm-13.34 12.5a35.89 35.89 0 0 0-1.31-10.36 20 20 0 0 0-3.5-7 13.5 13.5 0 0 0-5.12-3.92 16.32 16.32 0 0 0-12.55 0 13.5 13.5 0 0 0-5.13 3.92 20 20 0 0 0-3.5 7 41.65 41.65 0 0 0 0 20.71 20 20 0 0 0 3.5 7 13.49 13.49 0 0 0 5.13 3.92 16.32 16.32 0 0 0 12.55 0 13.5 13.5 0 0 0 5.12-3.92 20 20 0 0 0 3.5-7 35.89 35.89 0 0 0 1.33-10.38zm-127.07 12.52a7.34 7.34 0 0 0-5.7 2.35 8.1 8.1 0 0 0 0 11 8.08 8.08 0 0 0 11.4 0 7.9 7.9 0 0 0 2.14-5.49 7.8 7.8 0 0 0-2.2-5.49 7.38 7.38 0 0 0-5.64-2.37zm61.35 7.64a25.53 25.53 0 0 1-9.57 1.78 22.25 22.25 0 0 1-7.48-1.2A13.92 13.92 0 0 1 300 577a18.09 18.09 0 0 1-3.72-6.85 39.25 39.25 0 0 1 0-20.08 19 19 0 0 1 3.61-6.85 13.48 13.48 0 0 1 5.44-3.87 19.21 19.21 0 0 1 6.9-1.2 25.53 25.53 0 0 1 9.57 1.78 37.84 37.84 0 0 1 8.74 5l4.19-6.28a25 25 0 0 0-4.66-3.24 33 33 0 0 0-5.75-2.46 47.11 47.11 0 0 0-6.44-1.57 39.54 39.54 0 0 0-6.69-.58 41.18 41.18 0 0 0-13 1.94 28.31 28.31 0 0 0-10 5.65 25.58 25.58 0 0 0-6.54 9.21 34.53 34.53 0 0 0 0 25.05 25.08 25.08 0 0 0 6.64 9.15 29.06 29.06 0 0 0 10.41 5.65 44.81 44.81 0 0 0 13.55 1.93 39.53 39.53 0 0 0 6.69-.58 47 47 0 0 0 6.43-1.57 32.68 32.68 0 0 0 5.75-2.46 24.86 24.86 0 0 0 4.65-3.24l-4.18-6.28a37.78 37.78 0 0 1-8.73 5.06z"/></clipPath></defs><path fill="#003056" d="M57.53 587.78H42.89v-32.95q0-7.53-3.77-10.83t-10.88-3.3h-13.6v47.07H0v-73.21h14.64v18.83h13.6q15 0 22.12 5.39t7.17 16.06zm43.41-56.48a41.32 41.32 0 0 1 12.92 1.94 28.26 28.26 0 0 1 10.14 5.64 25.57 25.57 0 0 1 6.54 9.2 34.5 34.5 0 0 1 0 25.05 25.66 25.66 0 0 1-6.54 9.15 28.2 28.2 0 0 1-10.09 5.65 44.27 44.27 0 0 1-25.89 0 28.23 28.23 0 0 1-10-5.65 25.66 25.66 0 0 1-6.54-9.15 34.51 34.51 0 0 1 0-25.05 25.57 25.57 0 0 1 6.54-9.2 28.28 28.28 0 0 1 10-5.65 41.18 41.18 0 0 1 12.92-1.93zm0 51.78a15.75 15.75 0 0 0 6.27-1.26 13.47 13.47 0 0 0 5.12-3.92 20 20 0 0 0 3.51-7 41.7 41.7 0 0 0 0-20.71 20 20 0 0 0-3.51-7 13.48 13.48 0 0 0-5.12-3.92 16.31 16.31 0 0 0-12.55 0 13.48 13.48 0 0 0-5.13 3.92 20 20 0 0 0-3.5 7 41.64 41.64 0 0 0 0 20.71 20 20 0 0 0 3.5 7 13.47 13.47 0 0 0 5.13 3.92 15.74 15.74 0 0 0 6.28 1.26zm156.54-69.56a31.73 31.73 0 0 0-8-1q-11.82 0-18.2 5.86t-6.38 16.11v1h-24.06v-1a22.38 22.38 0 0 1 .89-6.69 12.44 12.44 0 0 1 2.4-4.55 9.59 9.59 0 0 1 3.5-2.56 10.68 10.68 0 0 1 4.18-.84 18.76 18.76 0 0 1 6.07 1 27.64 27.64 0 0 1 4.92 2.14l3.14-6.8a36.64 36.64 0 0 0-7.17-2.62 31.74 31.74 0 0 0-8-1q-11.82 0-18.2 5.86t-6.38 16.11v1h-24.06v-1a22.37 22.37 0 0 1 .89-6.69 12.45 12.45 0 0 1 2.4-4.55 9.61 9.61 0 0 1 3.5-2.56 10.69 10.69 0 0 1 4.19-.84 18.77 18.77 0 0 1 6.07 1 27.72 27.72 0 0 1 4.92 2.14l3.14-6.8a36.64 36.64 0 0 0-7.17-2.62 31.74 31.74 0 0 0-8-1q-11.82 0-18.2 5.86t-6.38 16.11v1h-9.94v7.32h9.94v45h14.64v-45h24.06v45h14.65v-45h24.06v45h14.64v-45h16.22v-7.32h-16.22v-1a22.43 22.43 0 0 1 .89-6.69 12.47 12.47 0 0 1 2.41-4.55 9.6 9.6 0 0 1 3.5-2.56 10.68 10.68 0 0 1 4.18-.84 18.75 18.75 0 0 1 6.07 1 27.65 27.65 0 0 1 4.92 2.14l3.14-6.8a36.58 36.58 0 0 0-7.17-2.77zM269.35 581a7.9 7.9 0 0 1-2.14 5.49 8.08 8.08 0 0 1-11.4 0 8.1 8.1 0 0 1 0-11 8 8 0 0 1 11.35 0 7.8 7.8 0 0 1 2.19 5.51zm41.84-49.7a39.58 39.58 0 0 1 6.69.58 47.23 47.23 0 0 1 6.44 1.57 33 33 0 0 1 5.75 2.46 25 25 0 0 1 4.66 3.24l-4.19 6.28a37.85 37.85 0 0 0-8.74-5 25.53 25.53 0 0 0-9.57-1.78 19.2 19.2 0 0 0-6.9 1.2 13.49 13.49 0 0 0-5.44 3.87 19 19 0 0 0-3.61 6.85 39.25 39.25 0 0 0 0 20.08 18.09 18.09 0 0 0 3.72 6.85 13.92 13.92 0 0 0 5.8 3.87 22.25 22.25 0 0 0 7.48 1.2 25.53 25.53 0 0 0 9.57-1.78 37.81 37.81 0 0 0 8.74-5l4.18 6.28a24.88 24.88 0 0 1-4.65 3.24 32.68 32.68 0 0 1-5.75 2.46 47 47 0 0 1-6.43 1.57 39.53 39.53 0 0 1-6.69.58 44.81 44.81 0 0 1-13.55-1.93 29.06 29.06 0 0 1-10.41-5.65 25.08 25.08 0 0 1-6.64-9.15 34.53 34.53 0 0 1 0-25.05 25.58 25.58 0 0 1 6.54-9.2 28.31 28.31 0 0 1 10-5.65 41.18 41.18 0 0 1 13-1.99zm61.2 0a41.33 41.33 0 0 1 12.92 1.94 28.26 28.26 0 0 1 10.09 5.65 25.57 25.57 0 0 1 6.54 9.2 34.5 34.5 0 0 1 0 25.05 25.66 25.66 0 0 1-6.54 9.15 28.21 28.21 0 0 1-10.09 5.65 44.27 44.27 0 0 1-25.89 0 28.25 28.25 0 0 1-10-5.65 25.68 25.68 0 0 1-6.54-9.15 34.5 34.5 0 0 1 0-25.05 25.59 25.59 0 0 1 6.54-9.2 28.3 28.3 0 0 1 10-5.65 41.18 41.18 0 0 1 12.97-1.94zm0 51.78a15.76 15.76 0 0 0 6.28-1.26 13.49 13.49 0 0 0 5.12-3.92 20 20 0 0 0 3.5-7 41.67 41.67 0 0 0 0-20.71 20 20 0 0 0-3.5-7 13.5 13.5 0 0 0-5.12-3.92 16.31 16.31 0 0 0-12.55 0 13.5 13.5 0 0 0-5.13 3.92 20 20 0 0 0-3.5 7 41.65 41.65 0 0 0 0 20.71 20 20 0 0 0 3.5 7 13.49 13.49 0 0 0 5.13 3.92 15.75 15.75 0 0 0 6.27 1.26zm43.93-49.69h54.39q15 0 22.12 5.39t7.17 16.05v32.95h-14.64v-32.95q0-7.53-3.76-10.83t-10.88-3.3h-5.23v47.07h-14.65v-47.06H431v47.07h-14.68z"/><g clip-path="url(#b)"><path fill="url(#a)" d="M0 518.37h500v31.73H0z"/></g><path fill="url(#c)" d="M0 0h500v500H0z"/><path fill="#fff" d="M320.93 470.87c-2.7-7.6-4-16.89-5.51-24.85-4.56-24.32-15.92-124.84-17.11-130.46s-2.1-9.85-2.68-12.65a70.45 70.45 0 0 0-4.47-8.09 28.34 28.34 0 0 0-8.05-7.91 50.33 50.33 0 0 0-13-6.15 60 60 0 0 0-18.34-2.46 73.48 73.48 0 0 0-29.07 6.32A149 149 0 0 0 194.1 301a228.29 228.29 0 0 0-26.38 22.32 311.65 311.65 0 0 0-22.36 24.26q-15.22 19-25 30.23T101.52 389a7.9 7.9 0 0 1-5.37-1.58 9.69 9.69 0 0 1-2.69-3.87 12.82 12.82 0 0 1-.89-4.75v-4.22q0-4.22 3.58-19.16t8.5-37.44q4.91-22.49 10.73-50.62t10.73-58.71q4.91-30.59 8.5-62.23a546.79 546.79 0 0 0 3.58-61.17q0-32-.45-52.21t-2.23-31.61c-.08-.52-.18-.94-.26-1.43H67c0 .93.07 1.77.11 2.84q.44 11.43 1.34 29.88t1.34 42.19q.44 23.72.45 49.39 0 52.39-2.68 94.58t-6.29 73.82q-3.58 31.64-6.27 52.21t-2.68 29.71a99.46 99.46 0 0 0 .9 12.12 47.35 47.35 0 0 0 4 14.07 30 30 0 0 0 9.39 11.6q6.25 4.76 17 4.75 12.51 0 24.15-7.73a129.79 129.79 0 0 0 21.47-17.94 191.1 191.1 0 0 0 17-20q7.14-9.83 10.73-14.06 4.47-5.28 12.52-14.94t17.44-19.34a152.63 152.63 0 0 1 19.23-16.88Q216 299 224.07 299q9.84 0 15.21 5.8a41.57 41.57 0 0 1 8.5 14.93c2.08 6.11 14.55 116.77 15.82 123.55A173.82 173.82 0 0 0 274.83 480a50.16 50.16 0 0 0 16.08 20h63.74a81.19 81.19 0 0 1-7.81-2.95c-13.13-5.85-21.4-13.49-25.91-26.18z"/><path fill="url(#d)" d="M0 26.5h500v215.12H0z"/></svg>