<svg xmlns="http://www.w3.org/2000/svg" id="Ebene_1" data-name="Ebene 1" viewBox="0 0 127.5 127.5"><defs><linearGradient id="linear-gradient" x1=".5" x2="82.95" y1="61.212" y2="61.212" gradientUnits="userSpaceOnUse"><stop offset="0" stop-color="#8e8d8b"/><stop offset=".616" stop-color="#4e4a49"/></linearGradient><linearGradient id="linear-gradient-2" x1="54.7" x2="127" y1="65.637" y2="65.637" gradientUnits="userSpaceOnUse"><stop offset=".376" stop-color="#2d5c8d"/><stop offset="1" stop-color="#7e9bb9"/></linearGradient><style>.cls-3{fill-rule:evenodd;fill:none;stroke-linecap:round;stroke-linejoin:round;stroke:#4e4a49}</style></defs><path fill="url(#linear-gradient)" fill-rule="evenodd" d="M76.2 1.65q-28.965 6.34-45.9 37.9H11.5V55.1h13.85a84.765 84.765 0 0 0 3.2 41.8 52.092 52.092 0 0 0 19.35-2.15q-6.737-21.1-.4-39.1h35.45q-.322 46.774-52.1 47.6l7.6 18.675A63.18 63.18 0 0 1 19 108.45 60.9 60.9 0 0 1 .5 63.75 61.065 61.065 0 0 1 19 19 61.065 61.065 0 0 1 63.75.5 75.774 75.774 0 0 1 76.2 1.65z"/><path fill="url(#linear-gradient-2)" fill-rule="evenodd" d="m91.25 17.4-5.4-13.125A62.163 62.163 0 0 1 108.45 19 60.983 60.983 0 0 1 127 63.75a60.819 60.819 0 0 1-18.55 44.7A60.819 60.819 0 0 1 63.75 127h-.4L58 116a62.385 62.385 0 0 0 13.3-5.5q38.604-21.857 29.35-69.8H54.7q10.323-19.602 36.55-23.3z"/><path d="M38.45 121.925A63.18 63.18 0 0 1 19 108.45 60.9 60.9 0 0 1 .5 63.75 61.065 61.065 0 0 1 19 19 61.065 61.065 0 0 1 63.75.5 75.774 75.774 0 0 1 76.2 1.65" class="cls-3"/><path d="M76.2 1.65q-28.965 6.34-45.9 37.9H11.5V55.1h13.85a84.765 84.765 0 0 0 3.2 41.8 52.092 52.092 0 0 0 19.35-2.15q-6.737-21.1-.4-39.1h35.45q-.322 46.774-52.1 47.6l7.6 18.675" class="cls-3"/><path fill="none" fill-rule="evenodd" stroke="#2d5c8d" stroke-linecap="round" stroke-linejoin="round" d="M91.25 17.4Q65.023 21.099 54.7 40.7h45.95q9.254 47.943-29.35 69.8A62.385 62.385 0 0 1 58 116l5.35 11h.4a60.819 60.819 0 0 0 44.7-18.55A60.819 60.819 0 0 0 127 63.75 60.983 60.983 0 0 0 108.45 19a62.163 62.163 0 0 0-22.6-14.725z"/></svg>