<svg xmlns="http://www.w3.org/2000/svg" viewBox="0 0 100 100"><linearGradient id="a" x1="79.7" x2="20.4" y1="108.2" y2="-8.1" gradientUnits="userSpaceOnUse"><stop offset="0" stop-color="#a7aa4c"/><stop offset="1" stop-color="#d3e17b"/></linearGradient><path fill="url(#a)" d="M0 5.7C0 2.6 2.6 0 5.7 0h88.6c3.1 0 5.7 2.6 5.7 5.7v88.6c0 3.1-2.6 5.7-5.7 5.7H5.7A6 6 0 0 1 0 94.2V5.7z"/><g fill="#fff"><g fill-rule="evenodd" opacity=".9"><path d="M84.8 88.8v.8l.1.1 1.1.6 1.7 1 1.2.7.1.2v1.5l-4.1-2.4v.7l.1.1 3.9 2.3.1.3v1.4l-.2-.1-5.2-3-.1-.2v-6.3l.2.1 4.5 2.7.7.4.1.2v1.5l-4.2-2.6z"/><path d="M92.2 94.8V90a2 2 0 0 0-.6.4v4.7c0 .1 0 .2-.2.3l-1.2.7v-6.2l.1-.2 5.3-3.1.1-.1v6.1c0 .3-.1.4-.3.5l-1 .6-.2.1V89l-.7.4v4.8l-.1.1c-.3 0-.7.3-1.2.5z" opacity=".8"/><path d="M89.8 88.5a145.6 145.6 0 0 1-5.7-3.1l-.3-.2.2-.1 5.4-3.2h.3l5.4 3.2.1.1-.1.1-5.1 3-.2.2zm-3.2-3.2.2.1 2.6 1.5h.3l2.6-1.5.1-.1-.1-.1-2.7-1.5c-.1-.1-.2 0-.2 0l-2.6 1.5-.2.1z" opacity=".6"/></g><path d="M73.7 27.2H30.3a5.1 5.1 0 0 0-5.1 5.1V61c0 2.8 2.3 5.1 5.1 5.1h14.3c-.1 2.8-.6 5.5-1.5 8.1h-3.5c-.6 0-1.2.5-1.2 1.2 0 .6.5 1.2 1.2 1.2h24.8c.6 0 1.2-.5 1.2-1.2 0-.6-.5-1.2-1.2-1.2h-3.5c-.9-2.6-1.4-5.3-1.5-8.1h14.3c2.8 0 5.1-2.3 5.1-5.1V32.3c0-2.8-2.3-5.1-5.1-5.1zm-46.2 5.1c0-1.5 1.2-2.8 2.8-2.8h43.4c1.5 0 2.8 1.2 2.8 2.8v26.3h-49V32.3zm18.1 41.9c.8-2.6 1.3-5.3 1.4-8.1h10.2c.1 2.8.6 5.5 1.4 8.1h-13zM76.5 61c0 1.5-1.2 2.8-2.8 2.8H30.3a2.8 2.8 0 0 1-2.8-2.8v-.2h48.9l.1.2z"/><path d="m58.3 37.7 7.4 6.3-7.4 6.3c-.5.4-.6 1.2-.1 1.8.2.3.6.4.9.4s.6-.1.8-.3l8.5-7.2c.3-.2.4-.6.4-.9 0-.4-.2-.7-.4-.9L59.9 36c-.5-.4-1.3-.4-1.8.1-.4.4-.4 1.1.2 1.6zm-22.6 7.2 8.5 7.2c.2.2.5.3.8.3.4 0 .7-.1.9-.4.4-.5.4-1.3-.1-1.8l-7.4-6.3 7.4-6.3c.5-.4.6-1.2.1-1.8-.4-.5-1.2-.6-1.8-.1l-8.5 7.2c-.3.2-.4.6-.4.9.1.5.2.9.5 1.1z" opacity=".8"/></g></svg>