<?xml version="1.0" standalone="no"?>
<!DOCTYPE svg PUBLIC "-//W3C//DTD SVG 20010904//EN"
 "http://www.w3.org/TR/2001/REC-SVG-20010904/DTD/svg10.dtd">
<svg version="1.0" xmlns="http://www.w3.org/2000/svg"
 width="450.000000pt" height="450.000000pt" viewBox="0 0 450.000000 450.000000"
 preserveAspectRatio="xMidYMid meet">
<metadata>
Created by potrace 1.16, written by Peter Selinger 2001-2019
</metadata>
<g transform="translate(0.000000,450.000000) scale(0.100000,-0.100000)"
fill="#000000" stroke="none">
<path d="M5 4488 c-3 -7 -4 -1019 -3 -2248 l3 -2235 2245 0 2245 0 0 2245 0
2245 -2243 3 c-1789 2 -2244 0 -2247 -10z m1903 -180 c10 -35 561 -1816 567
-1833 2 -5 4 100 4 234 l1 243 413 -5 c442 -5 501 -11 656 -63 300 -101 484
-386 558 -864 25 -160 25 -561 0 -705 -81 -462 -282 -772 -566 -871 -152 -53
-186 -56 -638 -61 l-423 -5 0 269 0 268 -117 377 -117 378 -598 0 -597 0 -27
-87 c-15 -49 -66 -216 -114 -373 l-87 -285 -216 -3 c-149 -2 -217 1 -217 8 0
12 1039 3390 1047 3403 2 4 107 7 233 7 l229 0 9 -32z"/>
<path d="M1632 3595 c-6 -22 -25 -96 -42 -165 -22 -89 -378 -1261 -424 -1395
-2 -7 164 -10 485 -10 269 0 489 2 489 4 0 1 -88 280 -196 620 -108 339 -220
699 -249 801 -52 183 -53 185 -63 145z"/>
<path d="M2830 1675 l0 -1008 198 6 c227 6 314 21 418 72 155 76 262 249 308
502 25 133 39 384 32 557 -13 337 -61 515 -179 671 -52 68 -92 102 -162 138
-90 45 -182 59 -407 65 l-208 4 0 -1007z"/>
</g>
</svg>
