<svg xmlns="http://www.w3.org/2000/svg" width="600" height="600" version="1.0" viewBox="0 0 450 450"><path d="M.5 1.2C.2 1.9.1 103.1.2 226l.3 223.5h449V.5L225.2.2C46.3 0 .8.2.5 1.2zm190.3 18c1 3.5 56.1 181.6 56.7 183.3.2.5.4-10 .4-23.4l.1-24.3 41.3.5c44.2.5 50.1 1.1 65.6 6.3 30 10.1 48.4 38.6 55.8 86.4 2.5 16 2.5 56.1 0 70.5-8.1 46.2-28.2 77.2-56.6 87.1-15.2 5.3-18.6 5.6-63.8 6.1l-42.3.5v-53.7l-11.7-37.7-11.7-37.8H105.1l-2.7 8.7c-1.5 4.9-6.6 21.6-11.4 37.3l-8.7 28.5-21.6.3c-14.9.2-21.7-.1-21.7-.8 0-1.2 103.9-339 104.7-340.3.2-.4 10.7-.7 23.3-.7h22.9l.9 3.2z"/><path d="M163.2 90.5c-.6 2.2-2.5 9.6-4.2 16.5-2.2 8.9-37.8 126.1-42.4 139.5-.2.7 16.4 1 48.5 1 26.9 0 48.9-.2 48.9-.4 0-.1-8.8-28-19.6-62-10.8-33.9-22-69.9-24.9-80.1-5.2-18.3-5.3-18.5-6.3-14.5zM283 282.5v100.8l19.8-.6c22.7-.6 31.4-2.1 41.8-7.2 15.5-7.6 26.2-24.9 30.8-50.2 2.5-13.3 3.9-38.4 3.2-55.7-1.3-33.7-6.1-51.5-17.9-67.1-5.2-6.8-9.2-10.2-16.2-13.8-9-4.5-18.2-5.9-40.7-6.5l-20.8-.4v100.7z"/></svg>