<?xml version="1.0" encoding="utf-8"?>
<!-- Generator: Adobe Illustrator 26.5.0, SVG Export Plug-In . SVG Version: 6.00 Build 0)  -->
<svg version="1.1" id="Ebene_1" xmlns="http://www.w3.org/2000/svg" xmlns:xlink="http://www.w3.org/1999/xlink" x="0px" y="0px"
	 viewBox="0 0 214 214" style="enable-background:new 0 0 214 214;" xml:space="preserve">
<style type="text/css">
	.st0{clip-path:url(#SVGID_00000105410480509730225380000016320683257551481773_);}
	.st1{fill:#E40428;}
	.st2{fill:#FFFFFF;}
</style>
<g>
	<defs>
		<rect id="SVGID_1_" y="0" width="214" height="214"/>
	</defs>
	<clipPath id="SVGID_00000128457939651347858350000001734849516958094259_">
		<use xlink:href="#SVGID_1_"  style="overflow:visible;"/>
	</clipPath>
	<g style="clip-path:url(#SVGID_00000128457939651347858350000001734849516958094259_);">
		<rect y="0" class="st1" width="214" height="214"/>
		<path class="st2" d="M125.1,124L60.2-18.4l-45.7,6.8l2.5,6L-10.5,1L-11,60.4l44.8-24l44.6,106.3c1.7,3.7,3.3,7.7,4.7,11.9
			c1.6,4,2.4,8.1,2.4,12.3c0.1,3.9-0.9,7.7-3.3,11.3c-2.3,3.6-6.5,6.8-12.5,9.6c-5.4,2.5-10.3,3.6-14.6,3.5c-4.1-0.2-7.8-1.4-11-3.4
			c-3.4-2.2-6.4-5.3-9.1-9.2c-2.7-3.9-5.2-8.4-7.5-13.4L9.3,133.4l-19.8,10.5v48c5.2,11.5,12.2,21.3,19.8,27.7
			c7.5,6.2,15.7,10.4,24.5,12.8c8.7,2.1,17.7,2.5,26.9,1.1c9.3-1.2,18.3-3.8,27.1-7.8c15.5-7.1,26.8-15,33.8-23.8
			c6.9-9,11.2-18.1,12.9-27.3c1.6-9.4,1.2-18.5-1.2-27.2C130.9,138.6,128.1,130.8,125.1,124z"/>
		<path class="st2" d="M147.2,192c0.7,0,1.3,0.1,1.8,0.3c0.5,0.2,0.9,0.5,1.2,0.8c0.3,0.3,0.5,0.7,0.7,1.2c0.1,0.4,0.2,0.9,0.2,1.4
			c0,0.5-0.1,0.9-0.2,1.4c-0.2,0.5-0.4,0.8-0.7,1.2c-0.3,0.3-0.7,0.6-1.2,0.8c-0.5,0.2-1.1,0.3-1.8,0.3h-2.6v4.1H142V192H147.2z
			 M146.5,197.4c0.3,0,0.6,0,0.8-0.1c0.3,0,0.5-0.1,0.7-0.3c0.2-0.1,0.4-0.3,0.5-0.5c0.1-0.2,0.2-0.5,0.2-0.9c0-0.4-0.1-0.7-0.2-0.9
			c-0.1-0.2-0.3-0.4-0.5-0.5c-0.2-0.1-0.4-0.2-0.7-0.3c-0.3,0-0.5,0-0.8,0h-2v3.4L146.5,197.4L146.5,197.4z"/>
		<path class="st2" d="M154.7,192v9.4h5.6v2.1h-8.1V192H154.7z"/>
		<path class="st2" d="M169.9,192v2.1h-6v2.5h5.5v2h-5.5v2.8h6.2v2.1h-8.7V192H169.9z"/>
		<path class="st2" d="M174,192l4.8,7.7h0V192h2.4v11.5h-2.5l-4.8-7.7h0v7.7h-2.4V192H174z"/>
		<path class="st2" d="M182.2,194.1V192h9.4v2.1h-3.4v9.4h-2.5v-9.4H182.2z"/>
		<path class="st2" d="M197,192l4.3,11.5h-2.6l-0.9-2.6h-4.3l-0.9,2.6h-2.5l4.4-11.5H197z M197.2,199.1l-1.4-4.2h0l-1.5,4.2H197.2z"
			/>
		<path class="st2" d="M205,201v2.5h-2.5V201H205z"/>
		<path class="st2" d="M92.7,73.4c-0.9-1.8-1.6-3.6-2-5.5c-0.4-1.9-0.5-3.7-0.3-5.4c0.2-1.8,0.8-3.4,1.9-4.9c1-1.5,2.5-2.8,4.6-3.8
			c2-1,3.9-1.5,5.8-1.4c1.8,0.1,3.5,0.5,5,1.4c1.5,0.9,2.9,2,4.1,3.5c1.3,1.5,2.3,3.1,3.2,4.9c0.9,1.7,1.5,3.5,1.9,5.4
			c0.4,1.8,0.5,3.6,0.3,5.3c-0.2,1.7-0.9,3.4-1.9,4.9c-1,1.5-2.6,2.7-4.6,3.7c-2,1-3.9,1.5-5.7,1.4c-1.8-0.1-3.5-0.6-5-1.4
			c-1.5-0.9-2.9-2-4.1-3.4C94.6,76.7,93.5,75.1,92.7,73.4z M83.7,77.9c1.5,3,3.3,5.5,5.5,7.7c2.2,2.1,4.6,3.7,7.3,4.7
			c2.7,1.1,5.5,1.5,8.6,1.4c3.1-0.2,6.1-1.1,9.3-2.6c3.2-1.6,5.7-3.5,7.7-5.8c1.9-2.3,3.3-4.9,4-7.7c0.8-2.8,1-5.7,0.6-8.7
			c-0.4-3.1-1.3-6.1-2.8-9c-1.5-3.1-3.4-5.7-5.6-7.8c-2.2-2.2-4.7-3.8-7.4-4.9c-2.7-1.1-5.6-1.6-8.6-1.4c-3,0.1-6.1,1-9.3,2.6
			c-3.1,1.6-5.7,3.5-7.6,5.9c-1.9,2.3-3.3,4.9-4,7.7c-0.7,2.8-0.9,5.8-0.5,8.8C81.2,71.8,82.2,74.8,83.7,77.9z M137,46.2l-4.8-9.6
			l8.4-4.2c0.8-0.4,1.6-0.7,2.4-0.9c0.8-0.3,1.6-0.4,2.3-0.3c0.7,0.1,1.4,0.3,2.1,0.7c0.6,0.4,1.2,1.1,1.7,2.1
			c0.9,1.7,1,3.2,0.3,4.5c-0.7,1.3-1.8,2.3-3.4,3.1L137,46.2z M119.8,34.2l20.4,40.9l19.8-9.9c1.8-0.9,3.5-2,5-3.3
			c1.5-1.3,2.7-2.8,3.6-4.4c0.9-1.6,1.4-3.4,1.4-5.3c0-1.9-0.5-3.9-1.5-6c-1.3-2.6-3-4.4-5.1-5.6c-2.1-1.2-4.6-1.6-7.5-1
			c1.4-1.8,2.2-3.6,2.4-5.4c0.3-1.9-0.1-3.8-1.1-5.9c-1-1.9-2.1-3.4-3.4-4.3c-1.3-1-2.6-1.6-4.2-1.8c-1.5-0.2-3.2-0.1-5,0.3
			c-1.8,0.5-3.6,1.2-5.6,2.1L119.8,34.2z M145.7,63.6l-5.6-11.2l9.8-4.9c1.9-1,3.7-1.3,5.4-1c1.6,0.3,3,1.5,4,3.6
			c0.5,1.1,0.8,2,0.7,2.9c0,0.9-0.2,1.7-0.6,2.4c-0.4,0.7-1,1.3-1.7,1.9c-0.7,0.6-1.5,1-2.4,1.5L145.7,63.6z M179.8,38.3l-8.7,4.3
			c1.2,2.5,2.8,4.5,4.6,5.8c1.9,1.4,3.9,2.2,6.1,2.6c2.2,0.4,4.5,0.3,6.9-0.2c2.4-0.5,4.8-1.3,7-2.4c2.8-1.4,5.1-2.9,6.8-4.6
			c1.8-1.7,3.1-3.5,4-5.3c0.9-1.9,1.3-3.8,1.2-5.8c-0.1-2-0.6-3.9-1.5-5.8c-1.1-2.3-2.6-3.9-4.3-4.9c-1.7-1-3.4-1.6-5.2-1.8
			c-1.8-0.2-3.4-0.2-5,0.1c-1.5,0.2-2.7,0.5-3.6,0.7c-2.9,0.6-5.2,1.1-7,1.5c-1.8,0.4-3.2,0.6-4.4,0.6c-1.1,0-1.9-0.1-2.5-0.5
			c-0.6-0.3-1-0.9-1.4-1.7c-0.4-0.9-0.6-1.7-0.5-2.5c0.1-0.8,0.3-1.5,0.7-2.1c0.4-0.7,1-1.3,1.6-1.8c0.7-0.5,1.3-1,2.1-1.3
			c1.1-0.6,2.2-1,3.2-1.2c1-0.3,2.1-0.4,3-0.3c1,0.1,1.8,0.4,2.7,1c0.9,0.6,1.6,1.5,2.3,2.6l8.7-4.3c-1.2-2.4-2.6-4.1-4.4-5.3
			c-1.7-1.2-3.6-2-5.7-2.3c-2.1-0.3-4.2-0.2-6.4,0.3c-2.2,0.5-4.4,1.2-6.5,2.3c-1.8,0.9-3.5,2.1-5.1,3.5c-1.6,1.4-2.8,3-3.8,4.7
			c-0.9,1.8-1.5,3.6-1.6,5.7c-0.1,2,0.3,4,1.4,6.1c0.9,1.9,2.1,3.3,3.4,4.3c1.4,0.9,2.9,1.6,4.4,1.9c1.6,0.3,3.2,0.4,5,0.2
			c1.7-0.2,3.4-0.5,5.2-0.9c1.7-0.3,3.4-0.7,5-1.1c1.6-0.4,3.1-0.6,4.5-0.7c1.4-0.1,2.6,0,3.6,0.3c1.1,0.3,1.9,1,2.4,2.1
			c0.5,1,0.7,2,0.5,3c-0.2,0.9-0.6,1.8-1.2,2.5c-0.6,0.8-1.3,1.5-2.2,2.1c-0.9,0.6-1.7,1.1-2.5,1.5c-1.2,0.6-2.4,1-3.6,1.3
			c-1.3,0.2-2.5,0.3-3.6,0.1c-1.1-0.2-2.1-0.7-3.1-1.4S180.5,39.7,179.8,38.3z"/>
		<path class="st1" d="M89.4,85.5c-2.2-2.2-4.1-4.7-5.6-7.7c-1.5-3.1-2.5-6.1-2.9-9.2c-0.4-3.1-0.2-6.1,0.5-8.9
			c0.7-2.8,2.1-5.4,4-7.8c2-2.4,4.5-4.3,7.6-5.9c3.2-1.6,6.3-2.4,9.3-2.6c3-0.1,5.9,0.4,8.6,1.5c2.7,1.1,5.2,2.8,7.4,4.9
			c2.2,2.2,4.1,4.8,5.6,7.8c1.5,3,2.4,6,2.8,9.1c0.4,3,0.2,5.9-0.6,8.7c-0.8,2.8-2.1,5.3-4,7.7c-1.9,2.3-4.5,4.3-7.7,5.8
			c-3.1,1.6-6.2,2.4-9.3,2.6c-3,0.1-5.9-0.3-8.6-1.4C94,89.2,91.6,87.6,89.4,85.5z"/>
		<path class="st2" d="M92.8,73.3c-0.9-1.8-1.6-3.7-2-5.5c-0.4-1.9-0.5-3.7-0.3-5.5c0.2-1.8,0.8-3.4,1.9-4.9c1-1.5,2.5-2.8,4.6-3.8
			c2-1,3.9-1.5,5.8-1.4c1.8,0.1,3.5,0.5,5,1.5c1.5,0.9,2.9,2.1,4.1,3.6c1.3,1.5,2.3,3.1,3.2,4.9c0.9,1.7,1.5,3.5,1.9,5.4
			c0.4,1.8,0.5,3.6,0.3,5.3c-0.2,1.7-0.8,3.4-1.9,4.9c-1,1.5-2.6,2.7-4.6,3.7c-2,1-3.9,1.5-5.7,1.4c-1.8-0.1-3.5-0.6-5-1.5
			c-1.5-0.9-2.9-2-4.1-3.4C94.7,76.6,93.7,75,92.8,73.3z M92.8,73.3c-0.9-1.8-1.6-3.7-2-5.5c-0.4-1.9-0.5-3.7-0.3-5.5
			c0.2-1.8,0.8-3.4,1.9-4.9c1-1.5,2.5-2.8,4.6-3.8c2-1,3.9-1.5,5.8-1.4c1.8,0.1,3.5,0.5,5,1.5c1.5,0.9,2.9,2.1,4.1,3.6
			c1.3,1.5,2.3,3.1,3.2,4.9c0.9,1.7,1.5,3.5,1.9,5.4c0.4,1.8,0.5,3.6,0.3,5.3c-0.2,1.7-0.8,3.4-1.9,4.9c-1,1.5-2.6,2.7-4.6,3.7
			c-2,1-3.9,1.5-5.7,1.4c-1.8-0.1-3.5-0.6-5-1.5c-1.5-0.9-2.9-2-4.1-3.4C94.7,76.6,93.7,75,92.8,73.3z"/>
	</g>
</g>
</svg>
