<svg xmlns="http://www.w3.org/2000/svg" width="100%" height="100%" viewBox="0 0 2336 2295" fill-rule="evenodd" stroke-linejoin="round" stroke-miterlimit="2"><g transform="matrix(12.0237 0 0 12.0434 -1188.68 -289.75506)"><clipPath id="A"><path d="M98.861 24.059h194.242v190.555H98.861z"/></clipPath><g clip-path="url(#A)"><g transform="matrix(.909715 0 0 .908232 195.801 121.24)"><g transform="translate(-107 -107)"><clipPath id="B"><path d="M0 0h214v214H0z"/></clipPath><g clip-path="url(#B)"><path d="M0 0h214v214H0z" fill="#c30c2b"/><g fill="#fff" fill-rule="nonzero"><path d="M125.052 123.98L60.161-18.411l-45.716 6.838 2.486 6L-10.498 1l-.5 59.427 44.788-24 44.617 106.348c1.681 3.689 3.256 7.66 4.725 11.913 1.576 3.971 2.383 8.058 2.422 12.26.145 3.919-.946 7.699-3.273 11.338s-6.499 6.83-12.517 9.573c-5.435 2.477-10.298 3.638-14.589 3.483-4.096-.243-7.778-1.378-11.047-3.405-3.356-2.222-6.396-5.291-9.119-9.208s-5.234-8.399-7.534-13.446L9.334 133.427l-19.832 10.5v48c5.22 11.454 12.234 21.308 19.832 27.691 7.509 6.19 15.662 10.446 24.456 12.768 8.707 2.128 17.667 2.499 26.882 1.112 9.303-1.192 18.323-3.778 27.059-7.759 15.529-7.078 26.795-15.025 33.795-23.842 6.913-9.011 11.203-18.117 12.871-27.317 1.58-9.394 1.192-18.478-1.165-27.25s-5.084-16.556-8.18-23.35zM147.166 192c.721 0 1.322.106 1.832.317.496.212.916.484 1.232.832a3.34 3.34 0 0 1 .691 1.179c.151.439.21.892.21 1.375 0 .469-.075.922-.21 1.361-.151.453-.376.846-.691 1.179-.316.347-.721.619-1.232.831-.495.211-1.111.317-1.832.317h-2.643v4.127H142V192h5.166zm-.691 5.426c.286 0 .571-.015.826-.06.271-.045.496-.121.706-.257.21-.121.361-.302.496-.529.12-.227.18-.514.18-.892 0-.363-.06-.665-.18-.892a1.4 1.4 0 0 0-.496-.529c-.21-.121-.435-.211-.706-.257l-.826-.045h-1.952v3.446h1.952v.015zm8.26-5.426v9.386h5.572v2.132h-8.095V192h2.523zm15.153 0v2.131h-6.037v2.464h5.542v1.965h-5.542v2.826h6.173v2.132h-8.681V192h8.545zm4.16 0l4.776 7.724h.03V192h2.358v11.518h-2.523l-4.761-7.709h-.03v7.709h-2.358V192h2.508zm8.155 2.131V192h9.371v2.131h-3.424v9.387h-2.523v-9.387h-3.424zM197.026 192l4.28 11.518h-2.613l-.871-2.57h-4.28l-.901 2.57h-2.538L194.458 192h2.568zm.15 7.059l-1.442-4.232h-.03l-1.487 4.232h2.959zm5.301 1.98H205v2.479h-2.523z"/><path d="M92.674 73.415c-.895-1.795-1.57-3.627-2.026-5.498-.418-1.889-.511-3.702-.28-5.438.212-1.775.834-3.396 1.866-4.864 1.013-1.506 2.531-2.764 4.555-3.773s3.942-1.464 5.754-1.367c1.794.059 3.463.538 5.007 1.437 1.526.86 2.898 2.035 4.118 3.525a23.92 23.92 0 0 1 3.229 4.898 22.68 22.68 0 0 1 1.883 5.354c.417 1.794.511 3.56.28 5.296s-.853 3.357-1.866 4.863c-1.032 1.468-2.56 2.707-4.584 3.716s-3.932 1.484-5.726 1.424c-1.812-.097-3.481-.576-5.007-1.436s-2.898-1.988-4.118-3.382c-1.2-1.452-2.229-3.037-3.085-4.755zm-8.993 4.483c1.485 2.979 3.333 5.538 5.544 7.677 2.192 2.102 4.623 3.679 7.293 4.731s5.523 1.514 8.557 1.384c3.053-.188 6.145-1.062 9.276-2.623 3.169-1.58 5.728-3.524 7.677-5.83 1.93-2.345 3.278-4.9 4.045-7.666s.97-5.657.611-8.672c-.379-3.053-1.31-6.069-2.795-9.047-1.523-3.055-3.39-5.652-5.601-7.792-2.23-2.178-4.69-3.812-7.379-4.903s-5.551-1.571-8.585-1.44-6.135.985-9.305 2.565c-3.131 1.561-5.68 3.523-7.648 5.887-1.93 2.345-3.269 4.92-4.016 7.724s-.923 5.751-.525 8.843c.378 3.054 1.328 6.108 2.851 9.162zm53.32-31.661l-4.769-9.565 8.419-4.198c.802-.4 1.604-.704 2.405-.913.821-.266 1.604-.37 2.348-.312s1.44.306 2.088.746 1.211 1.137 1.687 2.091c.856 1.719.96 3.217.309 4.494s-1.777 2.317-3.381 3.116l-9.106 4.541zm-17.246-12.07l20.39 40.895 19.817-9.88c1.833-.914 3.494-2.028 4.984-3.343 1.528-1.334 2.722-2.812 3.583-4.433.899-1.639 1.378-3.404 1.437-5.293.04-1.927-.453-3.922-1.481-5.984-1.276-2.558-2.991-4.42-5.146-5.587-2.136-1.223-4.645-1.57-7.526-1.039 1.395-1.792 2.208-3.603 2.439-5.435.269-1.85-.111-3.807-1.139-5.869-.951-1.909-2.076-3.351-3.372-4.325-1.258-.994-2.65-1.587-4.177-1.78-1.545-.23-3.205-.118-4.98.338s-3.637 1.17-5.584 2.14l-19.245 9.595zm25.898 29.424l-5.597-11.226 9.794-4.883c1.948-.971 3.742-1.293 5.382-.967 1.622.288 2.956 1.482 4.003 3.582.533 1.07.78 2.043.741 2.921-.001.858-.202 1.65-.604 2.375-.42.686-.984 1.325-1.691 1.915-.725.553-1.527 1.048-2.405 1.486l-9.623 4.797zm34.18-25.265l-8.706 4.34c1.219 2.54 2.762 4.488 4.631 5.844s3.899 2.228 6.093 2.612c2.232.365 4.531.291 6.898-.221 2.424-.494 4.762-1.302 7.015-2.425 2.788-1.39 5.07-2.933 6.846-4.629 1.815-1.715 3.143-3.498 3.984-5.348.861-1.907 1.255-3.843 1.181-5.809s-.578-3.883-1.511-5.754c-1.142-2.291-2.571-3.915-4.288-4.871-1.697-1.013-3.432-1.626-5.207-1.838s-3.444-.166-5.009.138l-3.578.711-7.043 1.509c-1.775.361-3.225.56-4.351.596-1.088.018-1.908-.145-2.461-.489s-1.029-.917-1.429-1.719c-.438-.878-.609-1.699-.512-2.462s.335-1.478.718-2.146c.42-.686.955-1.287 1.604-1.801s1.337-.953 2.063-1.314c1.107-.552 2.167-.961 3.178-1.227 1.05-.286 2.052-.38 3.006-.283s1.841.441 2.66 1.033c.858.574 1.63 1.452 2.316 2.636l8.706-4.341c-1.181-2.367-2.638-4.143-4.373-5.328-1.716-1.243-3.604-2.017-5.665-2.325s-4.198-.196-6.412.336c-2.194.475-4.361 1.245-6.499 2.311-1.833.914-3.542 2.076-5.128 3.486s-2.846 2.993-3.783 4.747-1.473 3.643-1.609 5.665c-.117 1.966.348 3.998 1.395 6.098.933 1.871 2.076 3.304 3.43 4.297 1.373.937 2.851 1.559 4.434 1.866s3.244.385 4.98.235c1.718-.189 3.435-.474 5.153-.853l4.981-1.054c1.623-.379 3.121-.626 4.495-.739s2.576.003 3.606.348c1.068.325 1.878 1.042 2.43 2.149.514 1.031.675 2.024.483 2.977-.211.916-.622 1.765-1.233 2.546s-1.338 1.478-2.178 2.087c-.859.572-1.69 1.057-2.492 1.457-1.183.59-2.395 1.028-3.636 1.313-1.26.246-2.452.293-3.578.139-1.106-.211-2.146-.671-3.118-1.378s-1.801-1.748-2.487-3.122z"/></g><path d="M89.406 85.51c-2.219-2.156-4.076-4.733-5.571-7.731-1.532-3.074-2.492-6.146-2.879-9.217-.405-3.108-.238-6.071.503-8.887s2.075-5.401 4.002-7.753c1.964-2.371 4.512-4.337 7.643-5.898 3.169-1.581 6.272-2.432 9.31-2.555s5.904.367 8.6 1.47 5.162 2.753 7.401 4.947c2.219 2.157 4.095 4.772 5.628 7.847 1.495 2.997 2.435 6.031 2.822 9.101.367 3.032.171 5.937-.59 8.715s-2.103 5.344-4.029 7.696c-1.946 2.313-4.503 4.26-7.673 5.84-3.131 1.561-6.224 2.432-9.281 2.612-3.038.123-5.895-.348-8.571-1.413s-5.115-2.656-7.315-4.774z" fill="#c30c2b" fill-rule="nonzero"/><path d="M92.828 73.296c-.901-1.806-1.582-3.65-2.043-5.531-.423-1.901-.521-3.723-.294-5.468a10.52 10.52 0 0 1 1.855-4.884c1.011-1.511 2.528-2.771 4.552-3.78s3.943-1.463 5.758-1.36a10.52 10.52 0 0 1 5.017 1.457c1.53.869 2.907 2.054 4.132 3.554 1.263 1.482 2.345 3.126 3.246 4.932a22.93 22.93 0 0 1 1.899 5.387c.423 1.804.521 3.579.294 5.323s-.845 3.373-1.856 4.884c-1.029 1.473-2.556 2.714-4.58 3.723s-3.933 1.482-5.729 1.417c-1.815-.102-3.488-.588-5.018-1.457s-2.906-2.005-4.131-3.41c-1.206-1.462-2.24-3.058-3.102-4.787zm0 0c-.901-1.806-1.582-3.65-2.043-5.531-.423-1.901-.521-3.723-.294-5.468a10.52 10.52 0 0 1 1.855-4.884c1.011-1.511 2.528-2.771 4.552-3.78s3.943-1.463 5.758-1.36a10.52 10.52 0 0 1 5.017 1.457c1.53.869 2.907 2.054 4.132 3.554 1.263 1.482 2.345 3.126 3.246 4.932a22.93 22.93 0 0 1 1.899 5.387c.423 1.804.521 3.579.294 5.323s-.845 3.373-1.856 4.884c-1.029 1.473-2.556 2.714-4.58 3.723s-3.933 1.482-5.729 1.417c-1.815-.102-3.488-.588-5.018-1.457s-2.906-2.005-4.131-3.41c-1.206-1.462-2.24-3.058-3.102-4.787z" fill="#fff" fill-rule="nonzero"/></g></g></g></g></g></svg>