<svg xmlns="http://www.w3.org/2000/svg" xmlns:xlink="http://www.w3.org/1999/xlink" xml:space="preserve" id="Ebene_1" x="0" y="0" style="enable-background:new 0 0 214 214" version="1.1" viewBox="0 0 214 214"><style>.st1{fill:#e40428}.st2{fill:#fff}</style><defs><path id="SVGID_1_" d="M0 0h214v214H0z"/></defs><clipPath id="SVGID_00000128457939651347858350000001734849516958094259_"><use xlink:href="#SVGID_1_" style="overflow:visible"/></clipPath><g style="clip-path:url(#SVGID_00000128457939651347858350000001734849516958094259_)"><path d="M0 0h214v214H0z" class="st1"/><path d="M125.1 124 60.2-18.4l-45.7 6.8 2.5 6L-10.5 1l-.5 59.4 44.8-24 44.6 106.3c1.7 3.7 3.3 7.7 4.7 11.9 1.6 4 2.4 8.1 2.4 12.3.1 3.9-.9 7.7-3.3 11.3-2.3 3.6-6.5 6.8-12.5 9.6-5.4 2.5-10.3 3.6-14.6 3.5-4.1-.2-7.8-1.4-11-3.4-3.4-2.2-6.4-5.3-9.1-9.2-2.7-3.9-5.2-8.4-7.5-13.4L9.3 133.4l-19.8 10.5v48c5.2 11.5 12.2 21.3 19.8 27.7 7.5 6.2 15.7 10.4 24.5 12.8 8.7 2.1 17.7 2.5 26.9 1.1 9.3-1.2 18.3-3.8 27.1-7.8 15.5-7.1 26.8-15 33.8-23.8 6.9-9 11.2-18.1 12.9-27.3 1.6-9.4 1.2-18.5-1.2-27.2-2.4-8.8-5.2-16.6-8.2-23.4zm22.1 68c.7 0 1.3.1 1.8.3.5.2.9.5 1.2.8.3.3.5.7.7 1.2.1.4.2.9.2 1.4 0 .5-.1.9-.2 1.4-.2.5-.4.8-.7 1.2-.3.3-.7.6-1.2.8-.5.2-1.1.3-1.8.3h-2.6v4.1H142V192h5.2zm-.7 5.4c.3 0 .6 0 .8-.1.3 0 .5-.1.7-.3.2-.1.4-.3.5-.5.1-.2.2-.5.2-.9s-.1-.7-.2-.9c-.1-.2-.3-.4-.5-.5-.2-.1-.4-.2-.7-.3h-2.8v3.4l2 .1zm8.2-5.4v9.4h5.6v2.1h-8.1V192h2.5zm15.2 0v2.1h-6v2.5h5.5v2h-5.5v2.8h6.2v2.1h-8.7V192h8.5zm4.1 0 4.8 7.7V192h2.4v11.5h-2.5l-4.8-7.7v7.7h-2.4V192h2.5zm8.2 2.1V192h9.4v2.1h-3.4v9.4h-2.5v-9.4h-3.5zM197 192l4.3 11.5h-2.6l-.9-2.6h-4.3l-.9 2.6h-2.5l4.4-11.5h2.5zm.2 7.1-1.4-4.2-1.5 4.2h2.9zm7.8 1.9v2.5h-2.5V201h2.5z" class="st2"/><path d="M92.7 73.4c-.9-1.8-1.6-3.6-2-5.5-.4-1.9-.5-3.7-.3-5.4.2-1.8.8-3.4 1.9-4.9 1-1.5 2.5-2.8 4.6-3.8 2-1 3.9-1.5 5.8-1.4 1.8.1 3.5.5 5 1.4 1.5.9 2.9 2 4.1 3.5 1.3 1.5 2.3 3.1 3.2 4.9.9 1.7 1.5 3.5 1.9 5.4.4 1.8.5 3.6.3 5.3-.2 1.7-.9 3.4-1.9 4.9-1 1.5-2.6 2.7-4.6 3.7-2 1-3.9 1.5-5.7 1.4-1.8-.1-3.5-.6-5-1.4-1.5-.9-2.9-2-4.1-3.4-1.3-1.4-2.4-3-3.2-4.7zm-9 4.5c1.5 3 3.3 5.5 5.5 7.7 2.2 2.1 4.6 3.7 7.3 4.7 2.7 1.1 5.5 1.5 8.6 1.4 3.1-.2 6.1-1.1 9.3-2.6 3.2-1.6 5.7-3.5 7.7-5.8 1.9-2.3 3.3-4.9 4-7.7.8-2.8 1-5.7.6-8.7-.4-3.1-1.3-6.1-2.8-9-1.5-3.1-3.4-5.7-5.6-7.8-2.2-2.2-4.7-3.8-7.4-4.9-2.7-1.1-5.6-1.6-8.6-1.4-3 .1-6.1 1-9.3 2.6-3.1 1.6-5.7 3.5-7.6 5.9-1.9 2.3-3.3 4.9-4 7.7-.7 2.8-.9 5.8-.5 8.8.3 3 1.3 6 2.8 9.1zM137 46.2l-4.8-9.6 8.4-4.2c.8-.4 1.6-.7 2.4-.9.8-.3 1.6-.4 2.3-.3.7.1 1.4.3 2.1.7.6.4 1.2 1.1 1.7 2.1.9 1.7 1 3.2.3 4.5-.7 1.3-1.8 2.3-3.4 3.1l-9 4.6zm-17.2-12 20.4 40.9 19.8-9.9c1.8-.9 3.5-2 5-3.3 1.5-1.3 2.7-2.8 3.6-4.4.9-1.6 1.4-3.4 1.4-5.3s-.5-3.9-1.5-6c-1.3-2.6-3-4.4-5.1-5.6-2.1-1.2-4.6-1.6-7.5-1 1.4-1.8 2.2-3.6 2.4-5.4.3-1.9-.1-3.8-1.1-5.9-1-1.9-2.1-3.4-3.4-4.3-1.3-1-2.6-1.6-4.2-1.8-1.5-.2-3.2-.1-5 .3-1.8.5-3.6 1.2-5.6 2.1l-19.2 9.6zm25.9 29.4-5.6-11.2 9.8-4.9c1.9-1 3.7-1.3 5.4-1 1.6.3 3 1.5 4 3.6.5 1.1.8 2 .7 2.9 0 .9-.2 1.7-.6 2.4-.4.7-1 1.3-1.7 1.9-.7.6-1.5 1-2.4 1.5l-9.6 4.8zm34.1-25.3-8.7 4.3c1.2 2.5 2.8 4.5 4.6 5.8 1.9 1.4 3.9 2.2 6.1 2.6 2.2.4 4.5.3 6.9-.2 2.4-.5 4.8-1.3 7-2.4 2.8-1.4 5.1-2.9 6.8-4.6 1.8-1.7 3.1-3.5 4-5.3.9-1.9 1.3-3.8 1.2-5.8-.1-2-.6-3.9-1.5-5.8-1.1-2.3-2.6-3.9-4.3-4.9-1.7-1-3.4-1.6-5.2-1.8-1.8-.2-3.4-.2-5 .1-1.5.2-2.7.5-3.6.7-2.9.6-5.2 1.1-7 1.5-1.8.4-3.2.6-4.4.6-1.1 0-1.9-.1-2.5-.5-.6-.3-1-.9-1.4-1.7-.4-.9-.6-1.7-.5-2.5.1-.8.3-1.5.7-2.1.4-.7 1-1.3 1.6-1.8.7-.5 1.3-1 2.1-1.3 1.1-.6 2.2-1 3.2-1.2 1-.3 2.1-.4 3-.3 1 .1 1.8.4 2.7 1 .9.6 1.6 1.5 2.3 2.6l8.7-4.3c-1.2-2.4-2.6-4.1-4.4-5.3-1.7-1.2-3.6-2-5.7-2.3-2.1-.3-4.2-.2-6.4.3s-4.4 1.2-6.5 2.3c-1.8.9-3.5 2.1-5.1 3.5-1.6 1.4-2.8 3-3.8 4.7-.9 1.8-1.5 3.6-1.6 5.7-.1 2 .3 4 1.4 6.1.9 1.9 2.1 3.3 3.4 4.3 1.4.9 2.9 1.6 4.4 1.9 1.6.3 3.2.4 5 .2 1.7-.2 3.4-.5 5.2-.9 1.7-.3 3.4-.7 5-1.1 1.6-.4 3.1-.6 4.5-.7 1.4-.1 2.6 0 3.6.3 1.1.3 1.9 1 2.4 2.1.5 1 .7 2 .5 3-.2.9-.6 1.8-1.2 2.5-.6.8-1.3 1.5-2.2 2.1-.9.6-1.7 1.1-2.5 1.5-1.2.6-2.4 1-3.6 1.3-1.3.2-2.5.3-3.6.1-1.1-.2-2.1-.7-3.1-1.4s-1.8-1.5-2.5-2.9z" class="st2"/><path d="M89.4 85.5c-2.2-2.2-4.1-4.7-5.6-7.7-1.5-3.1-2.5-6.1-2.9-9.2-.4-3.1-.2-6.1.5-8.9.7-2.8 2.1-5.4 4-7.8 2-2.4 4.5-4.3 7.6-5.9 3.2-1.6 6.3-2.4 9.3-2.6 3-.1 5.9.4 8.6 1.5 2.7 1.1 5.2 2.8 7.4 4.9 2.2 2.2 4.1 4.8 5.6 7.8s2.4 6 2.8 9.1c.4 3 .2 5.9-.6 8.7-.8 2.8-2.1 5.3-4 7.7-1.9 2.3-4.5 4.3-7.7 5.8-3.1 1.6-6.2 2.4-9.3 2.6-3 .1-5.9-.3-8.6-1.4-2.5-.9-4.9-2.5-7.1-4.6z" class="st1"/><path d="M92.8 73.3c-.9-1.8-1.6-3.7-2-5.5-.4-1.9-.5-3.7-.3-5.5.2-1.8.8-3.4 1.9-4.9 1-1.5 2.5-2.8 4.6-3.8 2-1 3.9-1.5 5.8-1.4 1.8.1 3.5.5 5 1.5 1.5.9 2.9 2.1 4.1 3.6 1.3 1.5 2.3 3.1 3.2 4.9.9 1.7 1.5 3.5 1.9 5.4.4 1.8.5 3.6.3 5.3-.2 1.7-.8 3.4-1.9 4.9-1 1.5-2.6 2.7-4.6 3.7-2 1-3.9 1.5-5.7 1.4-1.8-.1-3.5-.6-5-1.5s-2.9-2-4.1-3.4c-1.3-1.4-2.3-3-3.2-4.7zm0 0c-.9-1.8-1.6-3.7-2-5.5-.4-1.9-.5-3.7-.3-5.5.2-1.8.8-3.4 1.9-4.9 1-1.5 2.5-2.8 4.6-3.8 2-1 3.9-1.5 5.8-1.4 1.8.1 3.5.5 5 1.5 1.5.9 2.9 2.1 4.1 3.6 1.3 1.5 2.3 3.1 3.2 4.9.9 1.7 1.5 3.5 1.9 5.4.4 1.8.5 3.6.3 5.3-.2 1.7-.8 3.4-1.9 4.9-1 1.5-2.6 2.7-4.6 3.7-2 1-3.9 1.5-5.7 1.4-1.8-.1-3.5-.6-5-1.5s-2.9-2-4.1-3.4c-1.3-1.4-2.3-3-3.2-4.7z" class="st2"/></g></svg>