<svg xmlns="http://www.w3.org/2000/svg" id="Ebene_1" data-name="Ebene 1" viewBox="0 0 800 800"><defs><style>.cls-1{fill:#f6f6f6}</style></defs><rect width="800" height="800" rx="30" ry="30" style="fill:#34495e"/><path d="M65.53 226.66c-7.2 4.92-12.23 10.52-15.09 16.81l-.34-17.49 15.43.69Zm6.52 84.89H51.64l-.51-42.36c2.4 5.03 6.6 8.95 12.6 11.75q9 4.2 24.78 2.49c2.97-.34 5.46-.54 7.46-.6s3.66.09 4.97.43 2.37.89 3.17 1.63 1.48 1.69 2.06 2.83c.91 2.29.8 4.49-.34 6.6-1.14 2.12-3.89 4.15-8.23 6.09-2.06.92-4.32 1.71-6.77 2.4-2.46.69-4.89 1.23-7.29 1.63s-4.72.66-6.94.77c-2.23.12-4.2.06-5.92-.17l1.37 6.52Zm30.86-82.83 26.58.86 14.06 81.97h-23.32c7.09-5.6 11.52-11.75 13.29-18.43q2.655-10.035-1.8-19.98c-3.09-6.29-7.52-10.83-13.29-13.63s-13.63-3.74-23.58-2.83q-4.635.51-7.89.69c-2.17.12-4 .06-5.49-.17s-2.69-.69-3.6-1.37a8 8 0 0 1-2.23-2.57c-.92-2.17-.77-4.31.43-6.43 1.2-2.11 3.46-3.91 6.77-5.4 3.77-1.71 7.69-2.86 11.75-3.43s7.34-.74 9.86-.51l-1.54-8.75Z" class="cls-1"/><path d="M161.05 228.03c-9.15 2.74-16.58 7.49-22.29 14.23v-15.43zm-22.3 78.37c.8.92 1.57 1.74 2.31 2.49s1.46 1.52 2.14 2.31h-4.46v-4.8Zm35.84-60.36q4.8-.345 8.49 1.8c2.46 1.43 4.54 3.4 6.26 5.92 1.71 2.52 3.06 5.38 4.03 8.57.97 3.2 1.63 6.52 1.97 9.95.8 8.57-.2 15.52-3 20.83-2.8 5.32-7.12 8.26-12.95 8.83-6.17.57-11.09-1.66-14.75-6.69s-5.89-11.55-6.69-19.55c-.34-3.43-.29-6.83.17-10.2s1.34-6.46 2.66-9.26c1.31-2.8 3.09-5.11 5.32-6.94s5.06-2.92 8.49-3.26m48.53 12.52q-2.745-9.78-8.49-16.89c-3.83-4.74-8.55-8.6-14.15-11.57l22.64 1.54zm-13.54 52.64c2.97-2.74 5.66-5.86 8.06-9.35s4.23-7.4 5.49-11.75v21.09h-13.55ZM243.53 229.06l-3.94 81.63-15.95 1.2 2.4-82.14zm25.38-.85 39.96-1.54-6.17 78.2-37.55 3.43 3.77-80.08ZM391.18 226.49v88.14l-20.58-1.03 3.6-70.65-26.58-1.37-3.26 70.48-28.98-1.54-4.46-86.6 38.58 1.37c1.14 1.95 2.71 3.52 4.72 4.72 2 1.2 4.31 1.8 6.94 1.8 2.97.23 5.57-.23 7.8-1.37s3.97-2.68 5.23-4.63l16.98.69ZM430.44 238.49c-3.77-.23-7.46.2-11.06 1.29s-6.92 2.8-9.95 5.14-5.72 5.23-8.06 8.66-4.15 7.37-5.4 11.83v-34.64l55.73-4.29-.86 21.61h-.34c-1.71-2.63-4.26-4.83-7.63-6.6s-7.52-2.77-12.43-3m-34.46 56.76c.91 3.2 2.17 6.15 3.77 8.83 1.6 2.69 3.43 5 5.49 6.94l-9.26.34v-16.12Zm52.3-5.48c-.92 3.43-2.69 6.15-5.32 8.15s-5.66 2.94-9.09 2.83c-5.14-.34-9.12-2.49-11.92-6.43s-4.03-9.23-3.69-15.86c.23-6.17 1.86-11.29 4.89-15.35s7.29-5.97 12.78-5.74c3.66.23 6.69 1.54 9.09 3.94s3.88 5.2 4.46 8.4c.11.8.17 1.6.17 2.4v2.06l-.51 10.12c0 1.71-.29 3.54-.86 5.49Zm2.06 18.69h-1.2l.86-.86h.34zm29.49-84.03-5.32 82.83h-2.23c0-1.71.06-3.43.17-5.14s.17-3.43.17-5.14l3.43-72.37 3.77-.17ZM135.84 436.46l.69 6.34-84.88-5.83v-49.56l10.97 45.44 23.49 1.2 9.77-28.29c1.03-3.66 2.08-7.46 3.17-11.4s2.14-8.49 3.17-13.63h.34c.57 5.14 1.14 9.69 1.71 13.63s1.31 7.97 2.23 12.09l6.35 28.81 22.98 1.2Zm-58.99-24.18q-.855-7.2-1.71-13.89c-.57-4.46-1.14-8.75-1.71-12.86l-4.29-28.12 24.35-1.2-9.09 30.01c-1.26 4-2.52 8.2-3.77 12.6-1.26 4.4-2.46 8.89-3.6 13.46h-.17Zm37.9-57.1 15.43-.51 2.06 31.55v.86c-1.26 4.57-2.4 9.17-3.43 13.8s-2 9.23-2.92 13.8h-.34q-.69-7.2-1.89-13.98c-.8-4.51-1.66-9.17-2.57-13.98l-6.34-31.55ZM161.05 356.55c-9.15 2.74-16.58 7.49-22.29 14.23v-15.43zm-22.3 78.37c.8.92 1.57 1.74 2.31 2.49s1.46 1.52 2.14 2.31h-4.46v-4.8Zm35.84-60.36q4.8-.345 8.49 1.8c2.46 1.43 4.54 3.4 6.26 5.92 1.71 2.52 3.06 5.38 4.03 8.57.97 3.2 1.63 6.52 1.97 9.95.8 8.57-.2 15.52-3 20.83-2.8 5.32-7.12 8.26-12.95 8.83-6.17.57-11.09-1.66-14.75-6.69s-5.89-11.55-6.69-19.55c-.34-3.43-.29-6.83.17-10.2s1.34-6.46 2.66-9.26c1.31-2.8 3.09-5.11 5.32-6.94s5.06-2.92 8.49-3.26m48.53 12.52q-2.745-9.78-8.49-16.89c-3.83-4.74-8.55-8.6-14.15-11.57l22.64 1.54zm-13.54 52.64c2.97-2.74 5.66-5.86 8.06-9.35s4.23-7.4 5.49-11.75v21.09h-13.55Z" class="cls-1"/><path d="m239.93 438.01-8.4-.51-11.15-85.23 23.15 1.03c0 3.43-.03 7.2-.09 11.32q-.09 6.18-.6 14.58l-2.92 58.82Zm37.72-83.17a41 41 0 0 0-4.63 5.14c-1.49 1.95-2.69 4.23-3.6 6.86h-.86v-12.35l9.09.34Zm23.5.86h3.43l4.12 85.23-39.61-1.54 1.89-43.73c.23-1.14.37-2.26.43-3.34.06-1.09.26-2.08.6-3 1.14-4.46 3.49-7.94 7.03-10.46 3.54-2.51 8.06-3.66 13.55-3.43 2.97.34 5.49.74 7.55 1.2l1.03-20.92ZM317.61 436.29l-6.17-.34-3.43-81.28h2.4l7.2 81.63Zm22.63-80.77 52.82 2.23v3.94l-25.72 2.23-16.63 30.35c-.92 1.83-1.89 3.75-2.92 5.74-1.03 2-1.95 4.09-2.74 6.26h-.51l-4.29-50.76Zm25.9 83.86-18.86-1.2-.34-6.86 6.52-9.95 12.69 18.01Zm27.26-65.51.86 55.05-21.95-26.58zM54.92 569.96l3.6-4.18c3.6 3.53 8.5 5.83 13.83 5.83 6.48 0 10.22-3.1 10.22-7.42 0-5.04-3.67-6.48-8.42-8.5l-6.84-3.02c-4.68-1.87-10.15-5.18-10.15-12.17s6.48-12.53 15.48-12.53c5.9 0 11.09 2.38 14.54 5.83l-3.17 3.89c-3.1-2.74-6.7-4.39-11.59-4.39-5.47 0-9.14 2.59-9.14 6.84 0 4.54 4.39 6.19 8.42 7.78l6.62 2.95c5.83 2.3 10.44 5.62 10.44 12.6 0 7.49-6.34 13.47-16.71 13.47-6.91 0-12.89-2.74-17.14-6.98ZM115.98 545.91h-16.2v-4.82h22.18v35h-5.98v-30.17Zm-2.38-16.78c0-2.74 2.02-4.61 4.75-4.61s4.75 1.87 4.75 4.61-2.02 4.61-4.75 4.61-4.75-1.8-4.75-4.61M140.67 541.09h4.75l.5 4.61h.14c1.8-3.24 3.96-5.47 7.99-5.47 3.46 0 5.62 2.02 6.62 6.05 2.02-3.74 4.18-6.05 8.21-6.05 4.9 0 7.78 3.82 7.78 10.8v25.06h-5.9v-24.63c0-4.03-1.15-6.12-3.74-6.12-2.45 0-3.74 1.8-5.62 5.4v25.35h-5.47v-24.63c0-4.03-1.01-6.12-3.6-6.12-2.45 0-4.03 1.8-5.76 5.4v25.35h-5.9zM186.39 541.09h4.9l.5 4.46h.22c3.24-3.1 7.85-5.33 12.1-5.33 9.43 0 14.47 6.99 14.47 17.86 0 11.88-7.49 18.87-15.91 18.87-3.24 0-7.27-1.66-10.44-4.54h-.14l.29 6.62v11.81h-5.98v-49.76Zm26.07 16.99c0-7.7-2.88-12.82-9.86-12.82-3.1 0-6.7 1.58-10.23 5.18v17.42c3.24 2.95 6.91 4.03 9.29 4.03 6.19 0 10.8-5.18 10.8-13.83ZM240.61 564.34v-34.71h-12.38v-4.82h18.36v39.96c0 5.04 2.74 7.2 6.91 7.2 2.02 0 4.18-.5 6.55-1.58l1.51 4.46c-3.24 1.37-5.54 2.09-9.36 2.09-7.49 0-11.59-4.32-11.59-12.6M270.99 558.51c0-11.38 8.5-18.29 17.86-18.29 10.08 0 15.99 6.55 15.99 16.42 0 1.37-.14 2.66-.29 3.6h-29.59v-4.61h26.07l-1.51 1.66c0-8.28-4.1-12.38-10.51-12.38s-12.1 4.9-12.1 13.61 5.9 13.68 13.68 13.68c4.18 0 7.49-1.3 10.66-3.31l2.16 3.89c-3.46 2.3-7.92 4.18-13.54 4.18-10.51 0-18.87-6.77-18.87-18.43ZM357.32 569.96l3.6-4.18c3.6 3.53 8.5 5.83 13.83 5.83 6.48 0 10.23-3.1 10.23-7.42 0-5.04-3.67-6.48-8.42-8.5l-6.84-3.02c-4.68-1.87-10.15-5.18-10.15-12.17s6.48-12.53 15.48-12.53c5.91 0 11.09 2.38 14.55 5.83l-3.17 3.89c-3.1-2.74-6.7-4.39-11.59-4.39-5.47 0-9.14 2.59-9.14 6.84 0 4.54 4.39 6.19 8.42 7.78l6.62 2.95c5.83 2.3 10.44 5.62 10.44 12.6 0 7.49-6.34 13.47-16.71 13.47-6.91 0-12.89-2.74-17.14-6.98ZM402.39 541.09h4.9l.5 4.46h.22c3.24-3.1 7.85-5.33 12.1-5.33 9.43 0 14.47 6.99 14.47 17.86 0 11.88-7.49 18.87-15.91 18.87-3.24 0-7.27-1.66-10.44-4.54h-.14l.29 6.62v11.81h-5.98v-49.76Zm26.06 16.99c0-7.7-2.88-12.82-9.86-12.82-3.1 0-6.7 1.58-10.23 5.18v17.42c3.24 2.95 6.91 4.03 9.29 4.03 6.19 0 10.8-5.18 10.8-13.83ZM444.65 567.01c0-7.85 7.34-11.67 25.42-13.1-.22-4.75-2.52-8.79-9.29-8.79-4.54 0-9 2.16-12.24 4.18l-2.38-4.03c3.6-2.3 9.5-5.04 15.63-5.04 9.58 0 14.26 5.69 14.26 14.4v21.46h-4.97l-.5-4.75h-.22c-3.82 3.02-8.86 5.62-13.75 5.62-6.55 0-11.95-3.67-11.95-9.94Zm25.42-.07v-9.07c-14.98 1.15-19.51 4.1-19.51 8.71 0 3.96 3.6 5.54 7.63 5.54s7.85-1.87 11.88-5.18M486.27 541.09h4.75l.5 4.61h.14c1.8-3.24 3.96-5.47 7.99-5.47 3.46 0 5.62 2.02 6.62 6.05 2.02-3.74 4.18-6.05 8.21-6.05 4.9 0 7.78 3.82 7.78 10.8v25.06h-5.9v-24.63c0-4.03-1.15-6.12-3.75-6.12-2.45 0-3.74 1.8-5.62 5.4v25.35h-5.47v-24.63c0-4.03-1.01-6.12-3.6-6.12-2.45 0-4.03 1.8-5.76 5.4v25.35h-5.9v-35ZM587.07 533.96h-15.62v-5.11h37.3v5.11h-15.63v42.12h-6.05zM622.13 541.09h4.97l.58 8.28h.14c3.67-5.69 9.14-9.15 15.62-9.15 2.59 0 4.75.36 6.91 1.44l-1.37 5.11c-2.45-.79-3.74-1.15-6.48-1.15-5.26 0-10.22 2.67-14.4 10.01v20.45h-5.98v-35ZM660.65 567.01c0-7.85 7.34-11.67 25.42-13.1-.22-4.75-2.52-8.79-9.29-8.79-4.54 0-9 2.16-12.24 4.18l-2.38-4.03c3.6-2.3 9.5-5.04 15.63-5.04 9.58 0 14.26 5.69 14.26 14.4v21.46h-4.97l-.5-4.75h-.22c-3.82 3.02-8.86 5.62-13.75 5.62-6.55 0-11.95-3.67-11.95-9.94Zm25.42-.07v-9.07c-14.98 1.15-19.51 4.1-19.51 8.71 0 3.96 3.6 5.54 7.63 5.54s7.85-1.87 11.88-5.18M704.78 541.09h4.9l.5 4.46h.22c3.24-3.1 7.85-5.33 12.1-5.33 9.43 0 14.47 6.99 14.47 17.86 0 11.88-7.49 18.87-15.91 18.87-3.24 0-7.27-1.66-10.44-4.54h-.14l.29 6.62v11.81h-5.98v-49.76Zm26.07 16.99c0-7.7-2.88-12.82-9.86-12.82-3.1 0-6.7 1.58-10.23 5.18v17.42c3.24 2.95 6.91 4.03 9.29 4.03 6.19 0 10.8-5.18 10.8-13.83Z" class="cls-1"/></svg>