<svg xmlns="http://www.w3.org/2000/svg" xml:space="preserve" data-name="Ebene 1" viewBox="0 0 108 108"><rect width="108" height="108" rx="14.1" ry="14.1" style="stroke-width:0;fill:#e46956;fill-opacity:1"/><g fill="#fff"><path d="M36.458 13.3c-.086-.065-.13-.13-.13-.216s.044-.151.13-.216a.495.495 0 0 1 .302-.086h.647c.13 0 .238.021.302.086.087.065.13.13.13.216s-.043.151-.13.216a.495.495 0 0 1-.302.086h-.647c-.13 0-.237-.022-.302-.086m0 4.596c-.086-.065-.13-.13-.13-.216 0-.087.044-.151.13-.216a.495.495 0 0 1 .302-.086h.647c.13 0 .238.021.302.086.087.065.13.13.13.216s-.043.15-.13.216a.495.495 0 0 1-.302.086h-.647c-.13 0-.237-.022-.302-.086m.54-3.841c-.087-.065-.13-.13-.13-.216s.043-.15.13-.216a.495.495 0 0 1 .302-.086h.647c.13 0 .237.022.302.086.086.065.13.13.13.216s-.044.151-.13.216a.495.495 0 0 1-.302.086H37.3c-.13 0-.238-.021-.303-.086m0 3.064c-.087-.065-.13-.13-.13-.216s.043-.151.13-.216a.495.495 0 0 1 .302-.086h.647c.13 0 .237.022.302.086.086.065.13.13.13.216s-.044.151-.13.216a.495.495 0 0 1-.302.086H37.3c-.13 0-.238-.022-.303-.086m.56-2.287c-.086-.065-.129-.13-.129-.216s.043-.151.13-.216c.086-.065.215-.086.366-.086H39.5c.151 0 .28.021.367.086.086.065.13.13.13.216s-.044.15-.13.216c-.086.064-.216.086-.367.086h-1.575c-.15 0-.28-.022-.367-.086m0 1.532c-.086-.065-.129-.13-.129-.216s.043-.151.13-.216c.086-.065.215-.086.366-.086H39.5c.151 0 .28.021.367.086.086.065.13.13.13.216s-.044.15-.13.216c-.086.064-.216.086-.367.086h-1.575c-.15 0-.28-.022-.367-.086m.54-.777c-.086-.065-.13-.13-.13-.216s.044-.151.13-.216a.495.495 0 0 1 .302-.086h.647c.13 0 .238.022.302.086.087.065.13.13.13.216s-.043.151-.13.216a.495.495 0 0 1-.302.086H38.4c-.13 0-.237-.021-.302-.086m1.079-1.532c-.087-.065-.13-.13-.13-.216s.043-.15.13-.216a.495.495 0 0 1 .302-.086h.647c.13 0 .237.022.302.086.086.065.13.13.13.216s-.044.151-.13.216a.495.495 0 0 1-.302.086h-.647c-.13 0-.238-.021-.302-.086m0 3.064c-.087-.065-.13-.13-.13-.216s.043-.151.13-.216a.495.495 0 0 1 .302-.086h.647c.13 0 .237.022.302.086.086.065.13.13.13.216s-.044.151-.13.216a.495.495 0 0 1-.302.086h-.647c-.13 0-.238-.022-.302-.086m.54-3.82c-.087-.064-.13-.129-.13-.215s.043-.151.13-.216a.495.495 0 0 1 .301-.086h.647c.13 0 .238.021.303.086.064.065.129.13.129.216s-.043.151-.13.216a.495.495 0 0 1-.302.086h-.647c-.13 0-.237-.022-.302-.086m0 4.597c-.087-.065-.13-.13-.13-.216 0-.087.043-.151.13-.216a.495.495 0 0 1 .301-.086h.647c.13 0 .238.021.303.086.064.065.129.13.129.216s-.043.15-.13.216a.495.495 0 0 1-.302.086h-.647c-.13 0-.237-.022-.302-.086M41.356 14.832c-.086-.065-.13-.13-.13-.216s.044-.151.13-.216a.495.495 0 0 1 .302-.086h.647c.13 0 .238.021.302.086.087.065.13.13.13.216s-.043.15-.13.216a.495.495 0 0 1-.302.086h-.647c-.13 0-.237-.022-.302-.086m0 .755c-.086-.065-.13-.13-.13-.216s.044-.151.13-.216c.086-.064.216-.086.367-.086h2.114c.151 0 .28.022.367.086.086.065.13.13.13.216s-.044.151-.13.216c-.086.065-.216.086-.367.086h-2.114c-.151 0-.28-.021-.367-.086m0 .777c-.086-.065-.13-.13-.13-.216s.044-.151.13-.216a.495.495 0 0 1 .302-.086h.647c.13 0 .238.021.302.086.087.065.13.13.13.216s-.043.15-.13.216a.495.495 0 0 1-.302.086h-.647c-.13 0-.237-.022-.302-.086m0 .755c-.086-.065-.13-.13-.13-.216s.044-.151.13-.216a.495.495 0 0 1 .302-.086h.647c.13 0 .238.022.302.086.087.065.13.13.13.216s-.043.151-.13.216a.495.495 0 0 1-.302.086h-.647c-.13 0-.237-.022-.302-.086m.54-3.064c-.087-.065-.13-.13-.13-.216s.043-.15.13-.216a.495.495 0 0 1 .301-.086h.648c.13 0 .237.022.302.086.086.065.13.13.13.216s-.044.151-.13.216a.495.495 0 0 1-.302.086h-.648c-.13 0-.237-.021-.302-.086m0 3.84c-.087-.064-.13-.129-.13-.215 0-.087.043-.151.13-.216.086-.065.215-.086.366-.086h1.575c.151 0 .28.021.367.086.086.065.13.13.13.216s-.044.15-.13.216c-.086.064-.216.086-.367.086h-1.575c-.15 0-.28-.022-.367-.086m.539-4.595c-.087-.065-.13-.13-.13-.216s.043-.151.13-.216a.495.495 0 0 1 .302-.086h1.187c.129 0 .237.021.302.086.086.065.129.13.129.216s-.043.151-.13.216a.495.495 0 0 1-.301.086h-1.187c-.13 0-.238-.022-.302-.086m1.079 3.064c-.087-.065-.13-.13-.13-.216s.043-.151.13-.216a.495.495 0 0 1 .302-.086h.647c.13 0 .237.021.302.086.086.065.13.13.13.216s-.044.15-.13.216a.495.495 0 0 1-.302.086h-.647c-.13 0-.238-.022-.302-.086m0 .755c-.087-.065-.13-.13-.13-.216s.043-.151.13-.216a.495.495 0 0 1 .302-.086h.647c.13 0 .237.022.302.086.086.065.13.13.13.216s-.044.151-.13.216a.495.495 0 0 1-.302.086h-.647c-.13 0-.238-.022-.302-.086" style="stroke-width:.215765" transform="matrix(10.49496 0 0 10.49496 -371.094 -107.67)"/></g></svg>
