<?xml version="1.0" encoding="UTF-8" standalone="no"?>
<svg
   id="Ebene_1"
   data-name="Ebene 1"
   version="1.1"
   viewBox="0 0 108 108"
   sodipodi:docname="logo.svg"
   xml:space="preserve"
   inkscape:version="1.3.2 (091e20e, 2023-11-25)"
   xmlns:inkscape="http://www.inkscape.org/namespaces/inkscape"
   xmlns:sodipodi="http://sodipodi.sourceforge.net/DTD/sodipodi-0.dtd"
   xmlns="http://www.w3.org/2000/svg"
   xmlns:svg="http://www.w3.org/2000/svg"><sodipodi:namedview
     id="namedview1"
     pagecolor="#ffffff"
     bordercolor="#000000"
     borderopacity="0.25"
     inkscape:showpageshadow="2"
     inkscape:pageopacity="0.0"
     inkscape:pagecheckerboard="0"
     inkscape:deskcolor="#d1d1d1"
     inkscape:zoom="4.8055556"
     inkscape:cx="76.682081"
     inkscape:cy="54"
     inkscape:window-width="2256"
     inkscape:window-height="1278"
     inkscape:window-x="0"
     inkscape:window-y="25"
     inkscape:window-maximized="0"
     inkscape:current-layer="Ebene_1" /><defs
     id="defs1"><style
       id="style1">.cls-2{stroke-width:0;fill:#ef4789}</style></defs><rect
     width="108"
     height="108"
     rx="14.1"
     ry="14.1"
     style="stroke-width:0;fill:#e46956;fill-opacity:1"
     id="rect1" /><g
     id="layer1"
     transform="matrix(6.8197869,0,0,6.8197869,-663.23087,-961.58745)"><g
       id="g9"
       transform="matrix(1.538899,0,0,1.538899,42.836666,125.21188)"><path
         d="m 36.458059,13.299728 c -0.08631,-0.06473 -0.129458,-0.129458 -0.129458,-0.215765 0,-0.08631 0.04315,-0.151034 0.129458,-0.215764 0.08631,-0.06473 0.194188,-0.08631 0.302071,-0.08631 h 0.647293 c 0.129459,0 0.237341,0.02158 0.302071,0.08631 0.08631,0.06472 0.129459,0.129459 0.129459,0.215764 0,0.08631 -0.04315,0.151036 -0.129459,0.215765 -0.08631,0.06473 -0.194188,0.08631 -0.302071,0.08631 H 36.76013 c -0.129459,0 -0.237341,-0.02158 -0.302071,-0.08631 z m 0,4.595788 c -0.08631,-0.06473 -0.129458,-0.129459 -0.129458,-0.215766 0,-0.08631 0.04315,-0.151035 0.129458,-0.215765 0.08631,-0.06472 0.194188,-0.0863 0.302071,-0.0863 h 0.647293 c 0.129459,0 0.237341,0.02157 0.302071,0.0863 0.08631,0.06473 0.129459,0.129459 0.129459,0.215765 0,0.08631 -0.04315,0.151036 -0.129459,0.215766 -0.08631,0.06472 -0.194188,0.0863 -0.302071,0.0863 H 36.76013 c -0.129459,0 -0.237341,-0.02157 -0.302071,-0.0863 z m 0.539412,-3.840611 c -0.08631,-0.06473 -0.129459,-0.129459 -0.129459,-0.215765 0,-0.08631 0.04315,-0.151036 0.129459,-0.215764 0.08631,-0.06473 0.194188,-0.08631 0.30207,-0.08631 h 0.647295 c 0.129458,0 0.23734,0.02157 0.30207,0.08631 0.08631,0.06472 0.129459,0.129458 0.129459,0.215764 0,0.08631 -0.04315,0.151035 -0.129459,0.215765 -0.08631,0.06473 -0.194188,0.0863 -0.30207,0.0863 h -0.647295 c -0.129459,0 -0.237341,-0.02157 -0.30207,-0.0863 z m 0,3.063857 c -0.08631,-0.06472 -0.129459,-0.129459 -0.129459,-0.215764 0,-0.08631 0.04315,-0.151035 0.129459,-0.215765 0.08631,-0.06473 0.194188,-0.08631 0.30207,-0.08631 h 0.647295 c 0.129458,0 0.23734,0.02158 0.30207,0.08631 0.08631,0.06473 0.129459,0.129459 0.129459,0.215765 0,0.0863 -0.04315,0.151035 -0.129459,0.215764 -0.08631,0.06473 -0.194188,0.08631 -0.30207,0.08631 h -0.647295 c -0.129459,0 -0.237341,-0.02158 -0.30207,-0.08631 z m 0.560988,-2.287105 C 37.472153,14.766932 37.429,14.702198 37.429,14.615892 c 0,-0.08631 0.04315,-0.151035 0.129459,-0.215764 0.08631,-0.06473 0.215764,-0.08631 0.3668,-0.08631 h 1.575081 c 0.151036,0 0.280495,0.02158 0.366801,0.08631 0.08631,0.06473 0.129458,0.129459 0.129458,0.215764 0,0.08631 -0.04315,0.151036 -0.129458,0.215765 -0.08631,0.06473 -0.215765,0.08631 -0.366801,0.08631 h -1.575081 c -0.151036,0 -0.280495,-0.02158 -0.3668,-0.08631 z m 0,1.531929 C 37.472153,16.298852 37.429,16.234127 37.429,16.147822 c 0,-0.08631 0.04315,-0.151036 0.129459,-0.215765 0.08631,-0.06473 0.215764,-0.08631 0.3668,-0.08631 h 1.575081 c 0.151036,0 0.280495,0.02158 0.366801,0.08631 0.08631,0.06473 0.129458,0.129459 0.129458,0.215765 0,0.0863 -0.04315,0.151034 -0.129458,0.215764 -0.08631,0.06472 -0.215765,0.08631 -0.366801,0.08631 h -1.575081 c -0.151036,0 -0.280495,-0.02157 -0.3668,-0.08631 z m 0.539411,-0.776752 c -0.08631,-0.06473 -0.129459,-0.129459 -0.129459,-0.215765 0,-0.08631 0.04315,-0.151035 0.129459,-0.215765 0.08631,-0.06473 0.194189,-0.08631 0.302071,-0.08631 h 0.647294 c 0.129459,0 0.237341,0.02157 0.30207,0.08631 0.08631,0.06473 0.129459,0.129459 0.129459,0.215765 0,0.08631 -0.04315,0.151035 -0.129459,0.215765 -0.08631,0.06473 -0.194188,0.08631 -0.30207,0.08631 h -0.647294 c -0.129459,0 -0.237341,-0.02158 -0.302071,-0.08631 z m 1.078824,-1.531929 c -0.08631,-0.06473 -0.129459,-0.129459 -0.129459,-0.215765 0,-0.08631 0.04315,-0.151036 0.129459,-0.215764 0.08631,-0.06473 0.194188,-0.08631 0.30207,-0.08631 h 0.647294 c 0.129459,0 0.237341,0.02157 0.30207,0.08631 0.08631,0.06472 0.129459,0.129458 0.129459,0.215764 0,0.08631 -0.04315,0.151035 -0.129459,0.215765 -0.08631,0.06473 -0.194187,0.0863 -0.30207,0.0863 h -0.647294 c -0.129459,0 -0.237341,-0.02157 -0.30207,-0.0863 z m 0,3.063857 c -0.08631,-0.06472 -0.129459,-0.129459 -0.129459,-0.215764 0,-0.08631 0.04315,-0.151035 0.129459,-0.215765 0.08631,-0.06473 0.194188,-0.08631 0.30207,-0.08631 h 0.647294 c 0.129459,0 0.237341,0.02158 0.30207,0.08631 0.08631,0.06473 0.129459,0.129459 0.129459,0.215765 0,0.0863 -0.04315,0.151035 -0.129459,0.215764 -0.08631,0.06473 -0.194187,0.08631 -0.30207,0.08631 h -0.647294 c -0.129459,0 -0.237341,-0.02158 -0.30207,-0.08631 z m 0.539411,-3.819034 c -0.08631,-0.06473 -0.129459,-0.129458 -0.129459,-0.215765 0,-0.08631 0.04315,-0.151034 0.129459,-0.215764 0.08631,-0.06473 0.194189,-0.08631 0.302071,-0.08631 h 0.647294 c 0.129459,0 0.237341,0.02158 0.30207,0.08631 0.06473,0.06472 0.129459,0.129459 0.129459,0.215764 0,0.08631 -0.04315,0.151036 -0.129459,0.215765 -0.08631,0.06473 -0.194188,0.08631 -0.30207,0.08631 h -0.647294 c -0.129459,0 -0.237341,-0.02158 -0.302071,-0.08631 z m 0,4.595788 c -0.08631,-0.06473 -0.129459,-0.129459 -0.129459,-0.215766 0,-0.08631 0.04315,-0.151035 0.129459,-0.215765 0.08631,-0.06472 0.194189,-0.0863 0.302071,-0.0863 h 0.647294 c 0.129459,0 0.237341,0.02157 0.30207,0.0863 0.06473,0.06473 0.129459,0.129459 0.129459,0.215765 0,0.08631 -0.04315,0.151036 -0.129459,0.215766 -0.08631,0.06472 -0.194188,0.0863 -0.30207,0.0863 h -0.647294 c -0.129459,0 -0.237341,-0.02157 -0.302071,-0.0863 z"
         fill="#ffffff"
         id="path8"
         style="stroke-width:0.215765" /><path
         d="m 41.355916,14.831657 c -0.08631,-0.06472 -0.129458,-0.129459 -0.129458,-0.215765 0,-0.08631 0.04315,-0.151035 0.129458,-0.215764 0.08631,-0.06473 0.194188,-0.08631 0.302071,-0.08631 h 0.647294 c 0.129459,0 0.237341,0.02158 0.30207,0.08631 0.08631,0.06473 0.129459,0.129459 0.129459,0.215764 0,0.08631 -0.04315,0.151036 -0.129459,0.215765 -0.08631,0.06473 -0.194188,0.08631 -0.30207,0.08631 h -0.647294 c -0.129458,0 -0.237341,-0.02158 -0.302071,-0.08631 z m 0,0.755177 c -0.08631,-0.06473 -0.129458,-0.129459 -0.129458,-0.215765 0,-0.08631 0.04315,-0.151035 0.129458,-0.215765 0.08631,-0.06473 0.215765,-0.08631 0.366801,-0.08631 h 2.114493 c 0.151035,0 0.280494,0.02157 0.366799,0.08631 0.08631,0.06473 0.129459,0.129459 0.129459,0.215765 0,0.08631 -0.04315,0.151035 -0.129459,0.215765 -0.0863,0.06473 -0.215764,0.08631 -0.366799,0.08631 h -2.114493 c -0.151036,0 -0.280495,-0.02158 -0.366801,-0.08631 z m 0,0.776752 c -0.08631,-0.06473 -0.129458,-0.129459 -0.129458,-0.215764 0,-0.08631 0.04315,-0.151036 0.129458,-0.215765 0.08631,-0.06473 0.194188,-0.08631 0.302071,-0.08631 h 0.647294 c 0.129459,0 0.237341,0.02158 0.30207,0.08631 0.08631,0.06473 0.129459,0.129459 0.129459,0.215765 0,0.0863 -0.04315,0.151034 -0.129459,0.215764 -0.08631,0.06472 -0.194188,0.08631 -0.30207,0.08631 h -0.647294 c -0.129458,0 -0.237341,-0.02157 -0.302071,-0.08631 z m 0,0.755176 c -0.08631,-0.06472 -0.129458,-0.129459 -0.129458,-0.215764 0,-0.08631 0.04315,-0.151035 0.129458,-0.215765 0.08631,-0.06473 0.194188,-0.08631 0.302071,-0.08631 h 0.647294 c 0.129459,0 0.237341,0.02158 0.30207,0.08631 0.08631,0.06473 0.129459,0.129459 0.129459,0.215765 0,0.0863 -0.04315,0.151035 -0.129459,0.215764 -0.08631,0.06473 -0.194188,0.08631 -0.30207,0.08631 h -0.647294 c -0.129458,0 -0.237341,-0.02158 -0.302071,-0.08631 z m 0.539412,-3.063857 c -0.08631,-0.06473 -0.129459,-0.129459 -0.129459,-0.215765 0,-0.08631 0.04315,-0.151036 0.129459,-0.215764 0.08631,-0.06473 0.194189,-0.08631 0.302071,-0.08631 h 0.647293 c 0.129459,0 0.237342,0.02157 0.302071,0.08631 0.08631,0.06472 0.129458,0.129458 0.129458,0.215764 0,0.08631 -0.04315,0.151035 -0.129458,0.215765 -0.08631,0.06473 -0.194188,0.0863 -0.302071,0.0863 h -0.647293 c -0.129459,0 -0.237341,-0.02157 -0.302071,-0.0863 z m 0,3.840611 c -0.08631,-0.06473 -0.129459,-0.129459 -0.129459,-0.215766 0,-0.08631 0.04315,-0.151035 0.129459,-0.215765 0.08631,-0.06472 0.215765,-0.0863 0.3668,-0.0863 h 1.575082 c 0.151035,0 0.280494,0.02157 0.366799,0.0863 0.08631,0.06473 0.129459,0.129459 0.129459,0.215765 0,0.08631 -0.04315,0.151036 -0.129459,0.215766 -0.0863,0.06472 -0.215764,0.0863 -0.366799,0.0863 h -1.575082 c -0.151035,0 -0.280494,-0.02157 -0.3668,-0.0863 z m 0.539412,-4.595788 c -0.08631,-0.06473 -0.129459,-0.129458 -0.129459,-0.215765 0,-0.08631 0.04315,-0.151034 0.129459,-0.215764 0.08631,-0.06473 0.194188,-0.08631 0.30207,-0.08631 h 1.186706 c 0.129459,0 0.237341,0.02158 0.30207,0.08631 0.08631,0.06472 0.129459,0.129459 0.129459,0.215764 0,0.08631 -0.04315,0.151036 -0.129459,0.215765 -0.08631,0.06473 -0.194188,0.08631 -0.30207,0.08631 H 42.73681 c -0.129459,0 -0.237341,-0.02158 -0.30207,-0.08631 z m 1.078823,3.063858 c -0.08631,-0.06473 -0.129459,-0.129459 -0.129459,-0.215764 0,-0.08631 0.04315,-0.151036 0.129459,-0.215765 0.08631,-0.06473 0.194188,-0.08631 0.302071,-0.08631 h 0.647293 c 0.129459,0 0.237341,0.02158 0.302071,0.08631 0.08631,0.06473 0.129458,0.129459 0.129458,0.215765 0,0.0863 -0.04315,0.151034 -0.129458,0.215764 -0.08631,0.06472 -0.194188,0.08631 -0.302071,0.08631 h -0.647293 c -0.129459,0 -0.237341,-0.02157 -0.302071,-0.08631 z m 0,0.755176 c -0.08631,-0.06472 -0.129459,-0.129459 -0.129459,-0.215764 0,-0.08631 0.04315,-0.151035 0.129459,-0.215765 0.08631,-0.06473 0.194188,-0.08631 0.302071,-0.08631 h 0.647293 c 0.129459,0 0.237341,0.02158 0.302071,0.08631 0.08631,0.06473 0.129458,0.129459 0.129458,0.215765 0,0.0863 -0.04315,0.151035 -0.129458,0.215764 -0.08631,0.06473 -0.194188,0.08631 -0.302071,0.08631 h -0.647293 c -0.129459,0 -0.237341,-0.02158 -0.302071,-0.08631 z"
         fill="#ffffff"
         id="path9"
         style="stroke-width:0.215765" /></g></g></svg>
