<svg xmlns="http://www.w3.org/2000/svg" width="408" height="420" version="1"><path fill="#181715" d="M49.903 72.304h-10l-15.901-24.4-10.3 10.7v13.7h-8.5V0h8.5v47.103l24.201-25.401h11.301l-19.302 20.1 20.001 30.502zm13.397 0v-7.3h18.301V28.901H65.3v-7.2h24.902v43.303h18.401v7.3H63.3zm16.101-60.203V.1h12.101v12.001H79.401z"/><path fill="#C50F50" d="M158.202 67.704c-3.4 3.4-8.101 5.9-15.001 5.9s-11.601-2.5-15.001-5.9c-7-7.101-8.201-16.801-8.201-30.202s1.2-23.201 8.201-30.302c3.4-3.4 8.101-5.801 15.001-5.801s11.601 2.4 15.001 5.801c7 7.101 8.2 16.9 8.2 30.302s-1.2 23.102-8.2 30.202zm-6.401-55.403c-2-1.9-4.9-3.2-8.601-3.2s-6.601 1.3-8.601 3.2c-5.9 5.601-5.8 15.801-5.8 25.201 0 3.9-.1 8.001.3 11.801l26.102-32.002c-.8-1.9-1.9-3.601-3.4-5zm5.5 14.1L131.5 58.304c.8 1.699 1.8 3.199 3.1 4.4 2 1.899 4.9 3.199 8.601 3.199s6.6-1.3 8.601-3.199c5.9-5.601 5.8-15.801 5.8-25.202 0-3.7 0-7.501-.301-11.101z"/><path fill="#181715" d="M220.301 38.802c0-2.8-.9-5.4-2.7-7.4-1.7-1.9-4.3-3.3-8-3.3-5.101 0-9.601 3.9-11.601 8.601-1.6 3.801-2.2 9-2.2 13.101v22.501h-8.601V21.701h7.5l.7 7.601c3.2-6.101 9.701-8.9 16.001-8.9 6.801 0 11.601 3.4 14.401 7.4 2.4 3.5 3.2 7.4 3.2 11h-8.7z"/><path fill="#C50F50" d="M242.599 72.304v-7.8H261.5V12.501l-18.801 11.301V14.7L261.9 2.8h8.201v61.704h18.801v7.8h-46.303z"/><path fill="#181715" d="M341 67.704c-3.9 4-10.4 5.9-17.301 5.9s-12.801-1.5-17.302-5.9c-3.1-3-5-7.4-5-11.701h8.501c.101 3.5 2 6 4.4 7.801 2.399 1.801 5.8 2.5 9.8 2.5 3.501 0 7.301-.699 9.901-2.9 1.4-1.1 2.5-2.9 2.5-5.2 0-3.3-2.101-6.2-7.501-7l-12.9-1.9c-3.9-.601-7.101-2.3-9.301-4.7-2-2.301-3-5.4-3-8.701 0-4.1 1.801-7.4 4.101-9.7 3.3-3.399 9.101-5.8 15.401-5.8 6.9 0 13.2 2.3 16.7 6.801 2.101 2.699 3.301 5.6 3.5 9.6H335c-.101-2.6-1.5-4.9-3-6.2-2.101-1.899-5.301-3-8.7-3-3.101 0-6.301.7-8.602 2.5-1.8 1.5-2.8 3.3-2.8 5.3 0 3.801 2.5 5.602 6.7 6.301l13.701 2.1c6.101.9 12.7 5.301 12.7 13.802.001 4.396-1.599 7.597-3.999 10.097z"/><path fill="#C50F50" d="M361.598 72.304v-7.8h18.901V12.501l-18.801 11.301V14.7l19.201-11.9h8.2v61.704H407.9v7.8h-46.302zm-323.395 77.48c-3.4 3.4-8.101 5.9-15.001 5.9s-11.601-2.5-15.001-5.9C1.2 142.684 0 132.983 0 119.582S1.2 96.381 8.201 89.28c3.4-3.4 8.101-5.801 15.001-5.801s11.601 2.4 15.001 5.801c7 7.101 8.2 16.9 8.2 30.302s-1.2 23.102-8.2 30.202zm-6.401-55.403c-2-1.9-4.9-3.2-8.601-3.2s-6.601 1.3-8.601 3.2c-5.9 5.601-5.8 15.801-5.8 25.201 0 3.9-.1 8.001.3 11.801l26.102-32.002c-.8-1.9-1.9-3.601-3.4-5zm5.5 14.1-25.801 31.902c.8 1.699 1.8 3.199 3.1 4.4 2 1.899 4.9 3.199 8.601 3.199s6.6-1.3 8.601-3.199c5.9-5.601 5.8-15.801 5.8-25.202 0-3.699 0-7.5-.301-11.1z"/><path fill="#181715" d="M90.401 155.484c-11.4 0-16.301-7.9-16.301-16.001v-28.402H58.3v-7.3h15.801v-13.1l8.5-2.7v15.801h21.201v7.3H82.601v27.602c0 5.4 3.1 9.102 9 9.102 5 0 8.601-1.5 12.801-3.4v7.5c-3.7 2.098-8.1 3.598-14.001 3.598zm38.299-23.702c0 4.4 1.5 9.301 5.1 12.701 2.4 2.301 5.701 3.801 9.701 3.801 4.5 0 6.801-1 9.301-3 1.8-1.4 3.5-3.701 4.2-6.101h8.201c-2.4 10.501-11.101 16.501-21.702 16.501-6.5 0-12-2.7-16.001-6.601-5.4-5.3-7.5-12.601-7.5-19.802 0-7.9 2.601-15.301 7.5-20.301 3.9-3.9 9.301-6.5 16.101-6.5 6.4 0 12.001 2.4 15.601 6.1 4.8 4.9 7.3 12.301 7.3 20.201v3H128.7zm24.501-17.9c-2.5-2.6-5.7-4.1-9.701-4.1-9.701 0-14.301 9-14.5 15h28.501c-.1-4.3-1.7-8.2-4.3-10.9z"/><path fill="#C50F50" d="M218.201 149.784c-3.4 3.4-8.101 5.9-15.001 5.9s-11.601-2.5-15.001-5.9c-7-7.101-8.201-16.801-8.201-30.202s1.2-23.201 8.201-30.302c3.4-3.4 8.101-5.801 15.001-5.801s11.601 2.4 15.001 5.801c7 7.101 8.2 16.9 8.2 30.302s-1.199 23.102-8.2 30.202zm-6.4-55.403c-2-1.9-4.9-3.2-8.601-3.2s-6.601 1.3-8.601 3.2c-5.9 5.601-5.8 15.801-5.8 25.201 0 3.9-.1 8.001.3 11.801l26.102-32.002c-.8-1.9-1.9-3.601-3.4-5zm5.5 14.1L191.5 140.384c.8 1.699 1.8 3.199 3.1 4.4 2 1.899 4.9 3.199 8.601 3.199s6.601-1.3 8.601-3.199c5.9-5.601 5.8-15.801 5.8-25.202-.001-3.7-.001-7.501-.301-11.101zm60.9 41.303c-3.4 3.4-8.101 5.9-15.001 5.9s-11.601-2.5-15.001-5.9c-7-7.101-8.201-16.801-8.201-30.202s1.2-23.201 8.201-30.302c3.4-3.4 8.101-5.801 15.001-5.801s11.601 2.4 15.001 5.801c7 7.101 8.2 16.9 8.2 30.302s-1.2 23.102-8.2 30.202zM271.8 94.381c-2-1.9-4.9-3.2-8.601-3.2s-6.601 1.3-8.601 3.2c-5.9 5.601-5.8 15.801-5.8 25.201 0 3.9-.1 8.001.3 11.801L275.2 99.381c-.8-1.9-1.9-3.601-3.4-5zm5.5 14.1-25.801 31.902c.8 1.699 1.8 3.199 3.1 4.4 2 1.899 4.9 3.199 8.601 3.199s6.6-1.3 8.601-3.199c5.9-5.601 5.8-15.801 5.8-25.202 0-3.699 0-7.5-.301-11.1z"/><path fill="#181715" d="M336.2 154.384v-32.102c0-7.4-3.301-12.101-11.102-12.101-4.899 0-9.199 3.5-11.4 8.101-1.699 3.7-2.199 9.101-2.199 13v23.102h-8.602v-50.603h7.501l.7 7.601c3-5.801 9.9-8.9 15.801-8.9 11.501 0 18.001 6.9 18.001 18.601v33.302h-8.7zm42.599 19.502-3.2-5.801c6.5-2.8 8.001-6.5 8.001-13.601h-7.501v-14.501H390.8v14.501c0 9.201-2.901 15.601-12.001 19.402zm-2.7-55.604v-14.501H390.3v14.501h-14.201zm-335.796 84.68c0-2.8-.9-5.4-2.7-7.4-1.7-1.9-4.3-3.3-8-3.3-5.101 0-9.601 3.9-11.601 8.601-1.6 3.801-2.2 9-2.2 13.101v22.501H7.201v-50.603h7.5l.7 7.601c3.2-6.101 9.7-8.9 16.001-8.9 6.8 0 11.601 3.4 14.4 7.4 2.4 3.5 3.2 7.4 3.2 11h-8.699zm58.799 28.702c-3.7 3.601-9.4 6.101-15.801 6.101S71 235.265 67.3 231.664c-5.5-5.4-7.901-12.501-7.901-20.501 0-8.001 2.4-15.102 7.901-20.502 3.7-3.6 9.601-6.1 16.001-6.1s12.101 2.5 15.801 6.1c5.5 5.4 7.9 12.401 7.9 20.402 0 8-2.399 15.201-7.9 20.601zm-6.5-36.102c-2.2-2-5.4-3.6-9.4-3.6s-7.201 1.6-9.4 3.6c-4.3 3.9-5.701 10.001-5.701 15.502 0 5.5 1.4 11.8 5.701 15.7 2.2 2 5.4 3.601 9.4 3.601s7.2-1.601 9.4-3.601c4.3-3.9 5.701-10.101 5.701-15.601s-1.401-11.701-5.701-15.601z"/><path fill="#C50F50" d="M158.202 231.864c-3.4 3.4-8.101 5.9-15.001 5.9s-11.601-2.5-15.001-5.9c-7-7.101-8.201-16.801-8.201-30.202s1.2-23.201 8.201-30.302c3.4-3.4 8.101-5.801 15.001-5.801s11.601 2.4 15.001 5.801c7 7.101 8.2 16.9 8.2 30.302s-1.2 23.102-8.2 30.202zm-6.401-55.403c-2-1.9-4.9-3.2-8.601-3.2s-6.601 1.3-8.601 3.2c-5.9 5.601-5.8 15.801-5.8 25.201 0 3.9-.1 8.001.3 11.801l26.102-32.002c-.8-1.899-1.9-3.601-3.4-5zm5.5 14.101L131.5 222.464c.8 1.699 1.8 3.199 3.1 4.4 2 1.899 4.9 3.199 8.601 3.199s6.6-1.3 8.601-3.199c5.9-5.601 5.8-15.801 5.8-25.202 0-3.7 0-7.501-.301-11.1z"/><path fill="#181715" d="M221.001 231.864c-3.9 4-10.4 5.9-17.301 5.9s-12.801-1.5-17.301-5.9c-3.1-3-5-7.4-5-11.701h8.5c.1 3.5 2 6 4.4 7.801 2.4 1.801 5.8 2.5 9.8 2.5 3.5 0 7.3-.699 9.901-2.9 1.4-1.1 2.5-2.9 2.5-5.2 0-3.3-2.1-6.2-7.5-7l-12.901-1.9c-3.9-.601-7.101-2.3-9.3-4.7-2-2.301-3-5.4-3-8.701 0-4.1 1.8-7.4 4.101-9.7 3.3-3.399 9.101-5.8 15.401-5.8 6.9 0 13.201 2.3 16.701 6.801 2.1 2.699 3.3 5.6 3.5 9.6h-8.5c-.1-2.6-1.5-4.9-3-6.2-2.1-1.899-5.3-3-8.7-3-3.1 0-6.3.7-8.601 2.5-1.8 1.5-2.8 3.3-2.8 5.3 0 3.801 2.5 5.602 6.7 6.301l13.701 2.1c6.1.9 12.701 5.301 12.701 13.802-.002 4.396-1.602 7.597-4.002 10.097z"/><path fill="#C50F50" d="M242.599 236.464v-7.8H261.5v-52.003l-18.801 11.301v-9.102l19.201-11.9h8.201v61.704h18.801v7.8h-46.303zm95.601-4.6c-3.4 3.4-8.101 5.9-15.001 5.9s-11.601-2.5-15.001-5.9c-7-7.101-8.201-16.801-8.201-30.202s1.201-23.201 8.201-30.302c3.4-3.4 8.101-5.801 15.001-5.801s11.601 2.4 15.001 5.801c7 7.101 8.2 16.9 8.2 30.302s-1.2 23.102-8.2 30.202zm-6.4-55.403c-2-1.9-4.9-3.2-8.601-3.2s-6.601 1.3-8.601 3.2c-5.9 5.601-5.801 15.801-5.801 25.201 0 3.9-.1 8.001.301 11.801l26.102-32.002c-.801-1.899-1.9-3.601-3.4-5zm5.5 14.101-25.801 31.902c.799 1.699 1.799 3.199 3.1 4.4 2 1.899 4.9 3.199 8.601 3.199s6.601-1.3 8.601-3.199c5.9-5.601 5.8-15.801 5.8-25.202-.001-3.7-.001-7.501-.301-11.1z"/><path fill="#181715" d="M384.1 184.562c6 0 11.4 2.1 14.9 5.5 3.4 3.301 5.9 7.4 6.301 12.9H396.7c-.4-3.5-2.101-5.9-4-7.801-2.001-1.899-5.301-3.199-8.601-3.199-4.001 0-7.201 1.6-9.401 3.6-4.3 3.9-5.5 10.102-5.5 15.602s1.2 11.601 5.5 15.5c2.2 2.001 5.4 3.701 9.401 3.701 3.3 0 6.6-1.301 8.601-3.201 1.899-1.899 3.7-4.3 4.1-7.8h8.501c-.4 5.501-3 9.7-6.4 13.001-3.5 3.4-8.801 5.4-14.801 5.4-6.4 0-12.102-2.601-15.802-6.201-5.5-5.4-7.8-12.4-7.8-20.4 0-8.001 2.3-15.001 7.8-20.401 3.7-3.602 9.401-6.201 15.802-6.201z"/><path fill="#C50F50" d="M2.601 318.544v-7.801h18.901V258.74L2.7 270.041v-9.101l19.201-11.9h8.201v61.703h18.801v7.801H2.601z"/><path fill="#181715" d="M96.302 318.544v-32.102c0-7.601-3.5-12.102-11.5-12.102-4.9 0-9.101 3.301-11.301 7.901-1.7 3.7-2 9.101-2 13v23.302H62.9v-72.305h8.6v28.402c3-5.2 9.701-8.001 15.401-8.001 11.5 0 18.001 6.9 18.001 18.602v33.302h-8.6z"/><path fill="#C50F50" d="M122.6 318.544v-7.801h18.9V258.74l-18.801 11.301v-9.101l19.201-11.9h8.201v61.703h18.801v7.801H122.6z"/><path fill="#181715" d="M222.401 319.244c-4.5 0-7.5-3.4-7.5-7.7h-.2c-3 5.1-9.601 8.3-16.701 8.3-12.101 0-17.501-7.7-17.501-14.9 0-7.501 5.201-15.801 18.101-16.501l15.801-.9v-3.7c0-2.5-.3-5.2-2.6-7.301-1.7-1.6-4.4-2.899-8.5-2.899-4.601 0-7.5 1.399-9.201 3.1-1.6 1.601-2.5 3.301-2.7 5.9H183c.1-4.3 2-7.7 4.7-10.4 3.5-3.5 9.4-5.601 15.601-5.601 9.8 0 15.601 4.5 18.001 10.001 1 2.3 1.5 4.6 1.5 7.5v24.502c0 2.7 1.3 3.4 3 3.4.9 0 2.2-.301 2.2-.301v6.301c-1.8.899-3.501 1.199-5.601 1.199zm-8-25.101-14.001.8c-5.4.3-11.201 2.9-11.201 9.301 0 4.5 2.9 8.4 10.101 8.4 3.9 0 7.9-1.3 10.601-4.101 3-3.1 4.5-7.2 4.5-11.4v-3zm61.799 24.401v-32.102c0-7.4-3.3-12.102-11.101-12.102-4.9 0-9.2 3.501-11.4 8.101-1.7 3.7-2.2 9.101-2.2 13.001v23.102h-8.601V267.94h7.5l.7 7.601c3-5.8 9.9-8.9 15.801-8.9 11.5 0 18.001 6.9 18.001 18.602v33.302h-8.7z"/><path fill="#C50F50" d="M302.598 318.544v-7.801h18.901V258.74l-18.801 11.301v-9.101l19.201-11.9h8.2v61.703H348.9v7.801h-46.302zm95.602-4.601c-3.4 3.4-8.101 5.9-15.001 5.9s-11.601-2.5-15.001-5.9c-7-7.101-8.2-16.801-8.2-30.201 0-13.401 1.2-23.202 8.2-30.302 3.4-3.4 8.101-5.801 15.001-5.801s11.601 2.4 15.001 5.801c7 7.1 8.2 16.9 8.2 30.302 0 13.401-1.2 23.101-8.2 30.201zm-6.4-55.403c-2-1.899-4.9-3.2-8.601-3.2s-6.601 1.301-8.601 3.2c-5.9 5.601-5.801 15.801-5.801 25.202 0 3.899-.1 8 .301 11.801l26.102-32.002c-.801-1.9-1.9-3.601-3.4-5.001zm5.5 14.102-25.802 31.901c.801 1.7 1.801 3.2 3.101 4.4 2 1.9 4.9 3.2 8.601 3.2s6.601-1.3 8.601-3.2c5.9-5.601 5.8-15.801 5.8-25.201-.001-3.7-.001-7.501-.301-11.1zM2.601 400.624v-7.801h18.901V340.82L2.7 352.121v-9.101l19.201-11.9h8.201v61.703h18.801v7.801H2.601zm95.601-4.601c-3.4 3.4-8.101 5.9-15.001 5.9s-11.601-2.5-15.001-5.9c-7-7.101-8.201-16.801-8.201-30.201 0-13.401 1.2-23.202 8.201-30.302 3.4-3.4 8.101-5.801 15.001-5.801s11.601 2.4 15.001 5.801c7 7.1 8.2 16.9 8.2 30.302 0 13.401-1.199 23.101-8.2 30.201zm-6.4-55.403c-2-1.899-4.9-3.2-8.601-3.2s-6.601 1.301-8.601 3.2c-5.9 5.601-5.8 15.801-5.8 25.202 0 3.899-.1 8 .3 11.801l26.102-32.002c-.8-1.9-1.9-3.6-3.4-5.001zm5.5 14.102L71.5 386.623c.8 1.7 1.8 3.2 3.1 4.4 2 1.9 4.9 3.2 8.601 3.2s6.601-1.3 8.601-3.2c5.9-5.601 5.8-15.801 5.8-25.201 0-3.7 0-7.501-.3-11.1z"/><path fill="#181715" d="M161.002 396.023c-3.9 4.001-10.401 5.9-17.301 5.9s-12.801-1.5-17.301-5.9c-3.1-3-5-7.4-5-11.7h8.5c.1 3.5 2 6 4.4 7.8 2.4 1.801 5.8 2.501 9.8 2.501 3.5 0 7.301-.7 9.901-2.9 1.4-1.101 2.5-2.9 2.5-5.2 0-3.301-2.1-6.2-7.5-7.001l-12.901-1.899c-3.9-.601-7.1-2.301-9.3-4.701-2-2.3-3-5.399-3-8.7 0-4.101 1.8-7.4 4.101-9.7 3.3-3.4 9.1-5.801 15.401-5.801 6.9 0 13.201 2.3 16.701 6.801 2.1 2.7 3.3 5.601 3.5 9.601h-8.5c-.1-2.601-1.5-4.9-3-6.2-2.1-1.9-5.3-3.001-8.7-3.001-3.101 0-6.301.7-8.601 2.501-1.8 1.5-2.8 3.3-2.8 5.3 0 3.801 2.5 5.601 6.701 6.301l13.701 2.1c6.1.9 12.701 5.301 12.701 13.801-.003 4.397-1.603 7.597-4.003 10.097z"/><path fill="#C50F50" d="M218.201 396.023c-3.4 3.4-8.101 5.9-15.001 5.9s-11.601-2.5-15.001-5.9c-7-7.101-8.201-16.801-8.201-30.201 0-13.401 1.2-23.202 8.201-30.302 3.4-3.4 8.101-5.801 15.001-5.801s11.601 2.4 15.001 5.801c7 7.1 8.2 16.9 8.2 30.302 0 13.401-1.199 23.101-8.2 30.201zm-6.4-55.403c-2-1.899-4.9-3.2-8.601-3.2s-6.601 1.301-8.601 3.2c-5.9 5.601-5.8 15.801-5.8 25.202 0 3.899-.1 8 .3 11.801l26.102-32.002c-.8-1.9-1.9-3.6-3.4-5.001zm5.5 14.102L191.5 386.623c.8 1.7 1.8 3.2 3.1 4.4 2 1.9 4.9 3.2 8.601 3.2s6.601-1.3 8.601-3.2c5.9-5.601 5.8-15.801 5.8-25.201-.001-3.7-.001-7.501-.301-11.1z"/><path fill="#181715" d="M289.901 400.624h-10L264 376.223l-10.3 10.7v13.701h-8.5v-72.305h8.5v47.104l24.201-25.402h11.301L269.9 370.122l20.001 30.502zm13.397 0v-7.301h18.301v-36.102h-16.301v-7.201H330.2v43.303h18.4v7.301h-45.302zm16.101-60.204v-12H331.5v12h-12.101zm59.4 79.705-3.2-5.8c6.5-2.801 8.001-6.501 8.001-13.602h-7.501v-14.5H390.8v14.5c0 9.202-2.901 15.602-12.001 19.402zm-2.7-55.604V350.02H390.3v14.501h-14.201z"/></svg>