<?xml version="1.0" encoding="utf-8"?>
<svg version="1.1" id="Ebene_1" xmlns="http://www.w3.org/2000/svg" xmlns:xlink="http://www.w3.org/1999/xlink" x="0px" y="0px"
	 viewBox="0 0 500 500" style="enable-background:new 0 0 500 500;" xml:space="preserve">
<style type="text/css">
	.st0{fill:#333A46;}
	.st1{fill:none;}
	.st2{fill:#FFFFFF;}
	.st3{fill:#7ABFBC;}
</style>
<g>
	<polygon class="st0" points="405.5,432.2 0,432.2 94.5,67.8 500,67.8 	"/>
</g>
<g>
	<rect y="441" class="st1" width="402" height="60"/>
	<path class="st0" d="M51.1,468.5v28H45v-27c0-5.8-2.3-7.5-4.9-7.5c-3.8,0-5.9,2.7-8.3,6.9v27.7h-6.1v-27c0-5.8-2.3-7.5-4.9-7.5
		c-3.8,0-5.9,2.7-8.3,6.9v27.7H6.3v-39h5.3l0.5,5.7c2.3-3.9,5.5-6.6,10.1-6.6c4.3,0,7.5,2.6,8.9,7c2.5-4.2,5.7-7,10.5-7
		C47.3,456.6,51.1,461.2,51.1,468.5z"/>
	<path class="st0" d="M85.4,487.4c0,3.4,1.1,4.5,2.9,5.3l-1.4,4.7c-3.5-0.4-5.8-2-6.9-5.8c-2.5,4.1-6.2,5.8-10.5,5.8
		c-7,0-11.2-4.8-11.2-11.8c0-8.4,5.7-12.9,15.5-12.9h5.4v-2.9c0-5.6-2.5-7.7-7.3-7.7c-2.6,0-5.9,0.7-9.5,2.1l-1.5-5
		c4.3-1.8,8.2-2.7,12.1-2.7c8.5,0,12.3,4.8,12.3,13V487.4z M79.3,486.2v-9h-4.6c-6.5,0-9.7,2.7-9.7,8c0,4.6,2.1,7,6.1,7
		C74.6,492.3,77.3,490.3,79.3,486.2z"/>
	<path class="st0" d="M96.3,496.5v-54.7l6.1-0.8v55.5H96.3z M124.1,496.5h-7.3l-13.9-21.3l12.9-17.7h6.9l-12.9,17.2L124.1,496.5z"/>
	<path class="st0" d="M134.5,488.7c0,2.1,0.6,3.1,2.2,3.1c0.9,0,1.6-0.1,2.3-0.4l1.6,4.7c-1.7,0.9-3.4,1.3-5.2,1.3c-4.5,0-7-3-7-8.6
		v-47l6.1-0.8V488.7z"/>
	<path class="st0" d="M172.3,479.3h-22.4c0.6,9,4.4,12.5,9.5,12.5c3.5,0,6.1-1,9.1-3.4l2.7,4.1c-3.5,3-7.4,4.9-12.3,4.9
		c-9.8,0-15.5-7.6-15.5-20c0-12.1,5.5-20.8,14.6-20.8c9.5,0,14.5,7.3,14.5,19.2C172.4,477.2,172.4,478.4,172.3,479.3z M166.4,473.9
		c0-7.6-2.7-11.8-8.3-11.8c-4.7,0-7.7,3.6-8.2,12.3h16.5V473.9z"/>
	<path class="st0" d="M199.6,457.1l-1.1,6.7c-1.1-0.3-1.8-0.4-3.1-0.4c-4.4,0-6.9,3.5-8.4,11v22.3h-6.1v-39h5.3l0.6,7.9
		c1.9-5.8,5.1-8.8,9.4-8.8C197.3,456.6,198.5,456.8,199.6,457.1z"/>
	<path class="st0" d="M265.7,468.5v28h-6.1v-27c0-5.8-2.3-7.5-4.9-7.5c-3.8,0-5.9,2.7-8.3,6.9v27.7h-6.1v-27c0-5.8-2.3-7.5-4.9-7.5
		c-3.8,0-5.9,2.7-8.3,6.9v27.7h-6.1v-39h5.3l0.5,5.7c2.3-3.9,5.5-6.6,10.1-6.6c4.3,0,7.5,2.6,8.9,7c2.5-4.2,5.7-7,10.5-7
		C261.9,456.6,265.7,461.2,265.7,468.5z"/>
	<path class="st0" d="M305.1,477c0,12.1-5.7,20.4-15.7,20.4c-10,0-15.7-8-15.7-20.4c0-12.1,5.7-20.4,15.7-20.4
		S305.1,464.6,305.1,477z M280.4,477c0,10.1,3.2,14.9,9.1,14.9s9.1-4.7,9.1-14.9c0-10.1-3.2-14.9-9-14.9
		C283.7,462.1,280.4,466.8,280.4,477z"/>
	<path class="st0" d="M340.7,496.5h-5.4l-0.6-5.4c-2.3,3.9-5.8,6.3-10.1,6.3c-8.5,0-13.3-8.1-13.3-20.2c0-11.9,5.2-20.6,13.8-20.6
		c4.1,0,7.1,2.1,9.5,4.8V441l6.1,0.8V496.5z M334.6,486.2v-19.1c-2.2-3.1-4.7-5.1-8.1-5.1c-5.3,0-8.5,4.9-8.5,15
		c0,10.3,2.9,14.9,8,14.9C329.9,492,332.3,489.8,334.6,486.2z"/>
	<path class="st0" d="M372.6,496.5l-0.5-6.1c-2.7,4.7-5.9,7-10.9,7c-6.1,0-9.8-4.3-9.8-11.9v-28h6.1v27.2c0,5.3,1.6,7.3,5.4,7.3
		s6.7-2.8,8.8-6.7v-27.8h6.1v39H372.6z"/>
	<path class="st0" d="M394.6,488.7c0,2.1,0.6,3.1,2.2,3.1c0.9,0,1.6-0.1,2.3-0.4l1.6,4.7c-1.7,0.9-3.4,1.3-5.2,1.3c-4.5,0-7-3-7-8.6
		v-47l6.1-0.8V488.7z"/>
</g>
<g>
	<g>
		<path class="st2" d="M371.1,254.1l-117.7-119c-6-6.3-15.9-6.3-21.9,0l-117.7,119c-6,6.3-3.8,11.5,5,11.5h24.5v91.3
			c0,6.6,0.3,12,12.1,12h57.1v-91.6h59.8v91.6h60c9,0,9.2-5.3,9.2-12v-91.3h24.5C374.9,265.5,377.1,260.3,371.1,254.1z"/>
	</g>
	<rect x="212.5" y="276.5" class="st3" width="59.8" height="92.3"/>
</g>
</svg>