<?xml version="1.0" encoding="utf-8"?>
<svg version="1.1" id="Ebene_1" xmlns="http://www.w3.org/2000/svg" xmlns:xlink="http://www.w3.org/1999/xlink" x="0px" y="0px"
	 viewBox="0 0 500 512.3" style="enable-background:new 0 0 500 512.3;" xml:space="preserve">
<style type="text/css">
	.st0{fill:#333A46;}
	.st1{fill:none;}
	.st2{fill:#7ABFBC;}
	.st3{fill:#FFFFFF;}
</style>
<g>
	<polygon class="st0" points="405.5,432.2 0,432.2 94.5,67.8 500,67.8 	"/>
</g>
<g>
	<rect y="441" class="st1" width="404" height="60"/>
	<path class="st0" d="M31.1,494.7c-2.3,1.8-4.9,2.7-7.9,2.7c-5.9,0-9.5-3.8-9.5-11.1v-23.5h-6v-5.3h6.1v-8.8l6.1-0.8v9.6h8.3
		l-0.7,5.3H20V486c0,3.9,1.1,5.8,4.2,5.8c1.5,0,2.9-0.5,4.7-1.7L31.1,494.7z"/>
	<path class="st0" d="M62.5,468.5v28h-6.1v-27c0-5.8-2.3-7.5-5.6-7.5c-3.8,0-6.5,2.7-8.9,6.8v27.8h-6.1V442l6.1-0.7v21.8
		c2.5-3.8,6-6.3,10.4-6.3C58.7,456.6,62.5,461.2,62.5,468.5z"/>
	<path class="st0" d="M99.5,479.3H77.2c0.6,9,4.4,12.5,9.5,12.5c3.5,0,6.1-1,9.1-3.4l2.7,4.1c-3.5,3-7.4,4.9-12.3,4.9
		c-9.8,0-15.5-7.6-15.5-20c0-12.1,5.5-20.8,14.6-20.8c9.5,0,14.5,7.3,14.5,19.2C99.7,477.2,99.6,478.4,99.5,479.3z M93.6,473.9
		c0-7.6-2.7-11.8-8.3-11.8c-4.7,0-7.7,3.6-8.2,12.3h16.5V473.9z"/>
	<path class="st0" d="M152.9,468.5v28h-6.1v-27c0-5.8-2.3-7.5-4.9-7.5c-3.8,0-5.9,2.7-8.3,6.9v27.7h-6.1v-27c0-5.8-2.3-7.5-4.9-7.5
		c-3.8,0-5.9,2.7-8.3,6.9v27.7h-6.1v-39h5.3l0.5,5.7c2.3-3.9,5.5-6.6,10.1-6.6c4.3,0,7.5,2.6,8.9,7c2.5-4.2,5.7-7,10.5-7
		C149.1,456.6,152.9,461.2,152.9,468.5z"/>
	<path class="st0" d="M189.9,479.3h-22.4c0.6,9,4.4,12.5,9.5,12.5c3.5,0,6.1-1,9.1-3.4l2.7,4.1c-3.5,3-7.4,4.9-12.3,4.9
		c-9.8,0-15.5-7.6-15.5-20c0-12.1,5.5-20.8,14.6-20.8c9.5,0,14.5,7.3,14.5,19.2C190,477.2,190,478.4,189.9,479.3z M184,473.9
		c0-7.6-2.7-11.8-8.3-11.8c-4.7,0-7.7,3.6-8.2,12.3H184V473.9z"/>
	<path class="st0" d="M241.2,468.5v28h-6.1v-27c0-5.8-2.3-7.5-5.6-7.5c-3.8,0-6.5,2.7-8.9,6.8v27.8h-6.1V442l6.1-0.7v21.8
		c2.5-3.8,6-6.3,10.4-6.3C237.4,456.6,241.2,461.2,241.2,468.5z"/>
	<path class="st0" d="M278.2,479.3h-22.4c0.6,9,4.4,12.5,9.5,12.5c3.5,0,6.1-1,9.1-3.4l2.7,4.1c-3.5,3-7.4,4.9-12.3,4.9
		c-9.8,0-15.5-7.6-15.5-20c0-12.1,5.5-20.8,14.6-20.8c9.5,0,14.5,7.3,14.5,19.2C278.4,477.2,278.3,478.4,278.2,479.3z M272.3,473.9
		c0-7.6-2.7-11.8-8.3-11.8c-4.7,0-7.7,3.6-8.2,12.3h16.5V473.9z"/>
	<path class="st0" d="M292.6,488.7c0,2.1,0.6,3.1,2.2,3.1c0.9,0,1.6-0.1,2.3-0.4l1.6,4.7c-1.7,0.9-3.4,1.3-5.2,1.3c-4.5,0-7-3-7-8.6
		v-47l6.1-0.8V488.7z"/>
	<path class="st0" d="M333.8,477c0,11.8-4.7,20.4-13.8,20.4c-3.8,0-6.9-1.4-9.2-4.4v18.5l-6.1,0.8v-54.8h5.3l0.5,5.3
		c2.6-4,6.4-6.1,10.4-6.1C330.1,456.6,333.8,464.7,333.8,477z M327.2,477c0-10.1-2.7-14.9-7.9-14.9c-3.7,0-6.6,3-8.5,6.1v19
		c1.8,3,4.5,4.7,7.7,4.7C324.1,491.8,327.2,487.2,327.2,477z"/>
	<path class="st0" d="M368.9,479.3h-22.4c0.6,9,4.4,12.5,9.5,12.5c3.5,0,6.1-1,9.1-3.4l2.7,4.1c-3.5,3-7.4,4.9-12.3,4.9
		c-9.8,0-15.5-7.6-15.5-20c0-12.1,5.5-20.8,14.6-20.8c9.5,0,14.5,7.3,14.5,19.2C369.1,477.2,369,478.4,368.9,479.3z M363,473.9
		c0-7.6-2.7-11.8-8.3-11.8c-4.7,0-7.7,3.6-8.2,12.3H363V473.9z"/>
	<path class="st0" d="M396.2,457.1l-1.1,6.7c-1.1-0.3-1.8-0.4-3.1-0.4c-4.4,0-6.9,3.5-8.4,11v22.3h-6.1v-39h5.3l0.6,7.9
		c1.9-5.8,5.1-8.8,9.4-8.8C393.9,456.6,395.2,456.8,396.2,457.1z"/>
</g>
<g>
	<path class="st2" d="M387.3,177.2c-1-2.4-4.4-3.4-6.9-2.7c-8,2.3-16.6-0.3-21.7-6.7c-5.2-6.6-5.8-15.9-1.4-23.1
		c1.4-2.3,0.8-5.2-1.4-6.8c-5.6-4-11.7-7.4-18-10c-2.5-1-5.3,0.1-6.5,2.5c-3.5,7.3-12.3,12.2-20.5,11.3c-8.5-1-15.5-7.2-17.4-15.6
		c-0.6-2.6-3.1-4.3-5.8-3.9c-6.8,1.2-13.4,3.1-19.8,5.7c-2.5,1-3.7,3.8-2.9,6.3c2.7,8.1,0,17-6.6,22.2c-6.3,5-16.3,5.6-23.2,1.4
		c-2.3-1.4-5.2-0.8-6.8,1.4c-4.1,5.7-7.5,11.8-10.1,18.2c-1,2.5,0.1,5.3,2.5,6.5c7.7,3.8,12.3,12,11.3,20.5
		c-0.9,8.1-7.1,14.9-15.6,17.4c-2.8,0.7-4.2,3.2-3.8,5.8c1.1,6.8,3.1,13.5,5.8,20c1,2.4,4.5,3.4,7,2.6c7.6-2.4,16.3,0.2,21.6,6.8
		c5.2,6.6,5.8,15.9,1.4,23.1c-1.4,2.3-0.8,5.2,1.4,6.8c5.6,4,11.6,7.4,18,10c2.5,1,5.3,0,6.5-2.5c3.6-7.3,12.3-12.2,20.4-11.3
		c8.5,1,15.5,7.2,17.4,15.6c0.6,2.6,3.2,4.3,5.8,3.9c3.5-0.6,6.9-1.4,10.3-2.4c3.2-0.9,6.4-2,9.5-3.3c2.5-1,3.7-3.8,2.9-6.3
		c-2.7-8,0-17,6.5-22.2c6.4-5.1,16.3-5.6,23.2-1.4c2.3,1.4,5.2,0.8,6.8-1.4c4.1-5.6,7.4-11.8,10.1-18.2c1-2.5,0-5.3-2.5-6.5
		c-7.7-3.7-12.3-12-11.3-20.5c0.9-8,6.7-14.9,14.5-17.1l1.1-0.3c2.6-0.5,4.3-3.1,3.9-5.8C391.9,190.4,390,183.7,387.3,177.2
		L387.3,177.2z M311.6,241.8c-16.1,4.7-33.1-4.6-37.8-20.7c-4.7-16.1,4.6-33.1,20.7-37.8s33.1,4.6,37.8,20.7
		C337.1,220.2,327.8,237.1,311.6,241.8L311.6,241.8z"/>
	<path class="st3" d="M289.7,276.9c-0.3-2.6-3.3-4.5-5.9-4.5c-8.4,0-15.8-4.9-18.9-12.5c-3.2-7.8-1.1-16.9,5.1-22.6
		c2-1.8,2.2-4.8,0.6-6.9c-4.3-5.4-9.2-10.4-14.5-14.6c-2.1-1.7-5.1-1.4-6.9,0.6c-5.5,6-15.2,8.3-22.8,5.1
		c-7.9-3.3-12.8-11.3-12.3-19.8c0.2-2.7-1.8-5-4.5-5.3c-6.8-0.8-13.7-0.8-20.6-0.1c-2.7,0.3-4.6,2.6-4.5,5.2
		c0.3,8.5-4.7,16.3-12.5,19.5c-7.5,3.1-17.2,0.8-22.6-5.2c-1.8-2-4.8-2.2-6.9-0.6c-5.5,4.3-10.5,9.2-14.8,14.6
		c-1.7,2.1-1.4,5.1,0.5,6.9c6.4,5.8,8.4,14.9,5.1,22.8c-3.2,7.5-11,12.4-19.9,12.4c-2.9-0.1-5,1.8-5.3,4.5c-0.8,6.9-0.8,13.9,0,20.8
		c0.3,2.6,3.4,4.5,6,4.5c8-0.2,15.6,4.7,18.8,12.5s1.1,16.9-5.1,22.6c-2,1.8-2.2,4.8-0.6,6.9c4.2,5.4,9.1,10.3,14.5,14.6
		c2.1,1.7,5.1,1.5,7-0.6c5.5-6,15.3-8.3,22.8-5.1c7.9,3.3,12.9,11.3,12.4,19.8c-0.2,2.7,1.8,5,4.5,5.3c3.5,0.4,7,0.6,10.5,0.6
		c3.3,0,6.7-0.2,10-0.6c2.7-0.3,4.6-2.6,4.5-5.2c-0.3-8.5,4.7-16.3,12.5-19.5c7.5-3.1,17.2-0.8,22.6,5.1c1.8,2,4.8,2.2,6.9,0.6
		c5.5-4.3,10.4-9.2,14.8-14.6c1.7-2.1,1.4-5.1-0.5-6.9c-6.4-5.8-8.4-14.9-5.1-22.8c3.1-7.4,10.6-12.4,18.7-12.4h1.1
		c2.6,0.2,5-1.8,5.4-4.5C290.5,290.9,290.5,283.9,289.7,276.9L289.7,276.9z M199.1,317.8c-16.8,0-30.5-13.7-30.5-30.5
		s13.7-30.5,30.5-30.5s30.5,13.7,30.5,30.5C229.5,304.1,215.9,317.8,199.1,317.8L199.1,317.8z"/>
</g>
</svg>