<svg id="Ebene_1" xmlns="http://www.w3.org/2000/svg" viewBox="0 0 500 512.3"><style>.st0{fill:#333a46}</style><path class="st0" d="M405.5 432.2H0L94.5 67.8H500z"/><path fill="none" d="M0 441h404v60H0z"/><path class="st0" d="M31.1 494.7c-2.3 1.8-4.9 2.7-7.9 2.7-5.9 0-9.5-3.8-9.5-11.1v-23.5h-6v-5.3h6.1v-8.8l6.1-.8v9.6h8.3l-.7 5.3H20V486c0 3.9 1.1 5.8 4.2 5.8 1.5 0 2.9-.5 4.7-1.7l2.2 4.6zM62.5 468.5v28h-6.1v-27c0-5.8-2.3-7.5-5.6-7.5-3.8 0-6.5 2.7-8.9 6.8v27.8h-6.1V442l6.1-.7v21.8c2.5-3.8 6-6.3 10.4-6.3 6.4-.2 10.2 4.4 10.2 11.7zM99.5 479.3H77.2c.6 9 4.4 12.5 9.5 12.5 3.5 0 6.1-1 9.1-3.4l2.7 4.1c-3.5 3-7.4 4.9-12.3 4.9-9.8 0-15.5-7.6-15.5-20 0-12.1 5.5-20.8 14.6-20.8 9.5 0 14.5 7.3 14.5 19.2-.1 1.4-.2 2.6-.3 3.5zm-5.9-5.4c0-7.6-2.7-11.8-8.3-11.8-4.7 0-7.7 3.6-8.2 12.3h16.5v-.5zM152.9 468.5v28h-6.1v-27c0-5.8-2.3-7.5-4.9-7.5-3.8 0-5.9 2.7-8.3 6.9v27.7h-6.1v-27c0-5.8-2.3-7.5-4.9-7.5-3.8 0-5.9 2.7-8.3 6.9v27.7h-6.1v-39h5.3l.5 5.7c2.3-3.9 5.5-6.6 10.1-6.6 4.3 0 7.5 2.6 8.9 7 2.5-4.2 5.7-7 10.5-7 5.6-.2 9.4 4.4 9.4 11.7zM189.9 479.3h-22.4c.6 9 4.4 12.5 9.5 12.5 3.5 0 6.1-1 9.1-3.4l2.7 4.1c-3.5 3-7.4 4.9-12.3 4.9-9.8 0-15.5-7.6-15.5-20 0-12.1 5.5-20.8 14.6-20.8 9.5 0 14.5 7.3 14.5 19.2-.1 1.4-.1 2.6-.2 3.5zm-5.9-5.4c0-7.6-2.7-11.8-8.3-11.8-4.7 0-7.7 3.6-8.2 12.3H184v-.5zM241.2 468.5v28h-6.1v-27c0-5.8-2.3-7.5-5.6-7.5-3.8 0-6.5 2.7-8.9 6.8v27.8h-6.1V442l6.1-.7v21.8c2.5-3.8 6-6.3 10.4-6.3 6.4-.2 10.2 4.4 10.2 11.7zM278.2 479.3h-22.4c.6 9 4.4 12.5 9.5 12.5 3.5 0 6.1-1 9.1-3.4l2.7 4.1c-3.5 3-7.4 4.9-12.3 4.9-9.8 0-15.5-7.6-15.5-20 0-12.1 5.5-20.8 14.6-20.8 9.5 0 14.5 7.3 14.5 19.2 0 1.4-.1 2.6-.2 3.5zm-5.9-5.4c0-7.6-2.7-11.8-8.3-11.8-4.7 0-7.7 3.6-8.2 12.3h16.5v-.5zM292.6 488.7c0 2.1.6 3.1 2.2 3.1.9 0 1.6-.1 2.3-.4l1.6 4.7c-1.7.9-3.4 1.3-5.2 1.3-4.5 0-7-3-7-8.6v-47l6.1-.8v47.7zM333.8 477c0 11.8-4.7 20.4-13.8 20.4-3.8 0-6.9-1.4-9.2-4.4v18.5l-6.1.8v-54.8h5.3l.5 5.3c2.6-4 6.4-6.1 10.4-6.1 9.2-.1 12.9 8 12.9 20.3zm-6.6 0c0-10.1-2.7-14.9-7.9-14.9-3.7 0-6.6 3-8.5 6.1v19c1.8 3 4.5 4.7 7.7 4.7 5.6-.1 8.7-4.7 8.7-14.9zM368.9 479.3h-22.4c.6 9 4.4 12.5 9.5 12.5 3.5 0 6.1-1 9.1-3.4l2.7 4.1c-3.5 3-7.4 4.9-12.3 4.9-9.8 0-15.5-7.6-15.5-20 0-12.1 5.5-20.8 14.6-20.8 9.5 0 14.5 7.3 14.5 19.2 0 1.4-.1 2.6-.2 3.5zm-5.9-5.4c0-7.6-2.7-11.8-8.3-11.8-4.7 0-7.7 3.6-8.2 12.3H363v-.5zM396.2 457.1l-1.1 6.7c-1.1-.3-1.8-.4-3.1-.4-4.4 0-6.9 3.5-8.4 11v22.3h-6.1v-39h5.3l.6 7.9c1.9-5.8 5.1-8.8 9.4-8.8 1.1-.2 2.4 0 3.4.3z"/><g><path d="M387.3 177.2c-1-2.4-4.4-3.4-6.9-2.7-8 2.3-16.6-.3-21.7-6.7-5.2-6.6-5.8-15.9-1.4-23.1 1.4-2.3.8-5.2-1.4-6.8-5.6-4-11.7-7.4-18-10-2.5-1-5.3.1-6.5 2.5-3.5 7.3-12.3 12.2-20.5 11.3-8.5-1-15.5-7.2-17.4-15.6-.6-2.6-3.1-4.3-5.8-3.9-6.8 1.2-13.4 3.1-19.8 5.7-2.5 1-3.7 3.8-2.9 6.3 2.7 8.1 0 17-6.6 22.2-6.3 5-16.3 5.6-23.2 1.4-2.3-1.4-5.2-.8-6.8 1.4-4.1 5.7-7.5 11.8-10.1 18.2-1 2.5.1 5.3 2.5 6.5 7.7 3.8 12.3 12 11.3 20.5-.9 8.1-7.1 14.9-15.6 17.4-2.8.7-4.2 3.2-3.8 5.8 1.1 6.8 3.1 13.5 5.8 20 1 2.4 4.5 3.4 7 2.6 7.6-2.4 16.3.2 21.6 6.8 5.2 6.6 5.8 15.9 1.4 23.1-1.4 2.3-.8 5.2 1.4 6.8 5.6 4 11.6 7.4 18 10 2.5 1 5.3 0 6.5-2.5 3.6-7.3 12.3-12.2 20.4-11.3 8.5 1 15.5 7.2 17.4 15.6.6 2.6 3.2 4.3 5.8 3.9 3.5-.6 6.9-1.4 10.3-2.4 3.2-.9 6.4-2 9.5-3.3 2.5-1 3.7-3.8 2.9-6.3-2.7-8 0-17 6.5-22.2 6.4-5.1 16.3-5.6 23.2-1.4 2.3 1.4 5.2.8 6.8-1.4 4.1-5.6 7.4-11.8 10.1-18.2 1-2.5 0-5.3-2.5-6.5-7.7-3.7-12.3-12-11.3-20.5.9-8 6.7-14.9 14.5-17.1l1.1-.3c2.6-.5 4.3-3.1 3.9-5.8-1.1-6.8-3-13.5-5.7-20zm-75.7 64.6c-16.1 4.7-33.1-4.6-37.8-20.7-4.7-16.1 4.6-33.1 20.7-37.8s33.1 4.6 37.8 20.7c4.8 16.2-4.5 33.1-20.7 37.8z" fill="#7abfbc"/><path d="M289.7 276.9c-.3-2.6-3.3-4.5-5.9-4.5-8.4 0-15.8-4.9-18.9-12.5-3.2-7.8-1.1-16.9 5.1-22.6 2-1.8 2.2-4.8.6-6.9-4.3-5.4-9.2-10.4-14.5-14.6-2.1-1.7-5.1-1.4-6.9.6-5.5 6-15.2 8.3-22.8 5.1-7.9-3.3-12.8-11.3-12.3-19.8.2-2.7-1.8-5-4.5-5.3-6.8-.8-13.7-.8-20.6-.1-2.7.3-4.6 2.6-4.5 5.2.3 8.5-4.7 16.3-12.5 19.5-7.5 3.1-17.2.8-22.6-5.2-1.8-2-4.8-2.2-6.9-.6-5.5 4.3-10.5 9.2-14.8 14.6-1.7 2.1-1.4 5.1.5 6.9 6.4 5.8 8.4 14.9 5.1 22.8-3.2 7.5-11 12.4-19.9 12.4-2.9-.1-5 1.8-5.3 4.5-.8 6.9-.8 13.9 0 20.8.3 2.6 3.4 4.5 6 4.5 8-.2 15.6 4.7 18.8 12.5s1.1 16.9-5.1 22.6c-2 1.8-2.2 4.8-.6 6.9 4.2 5.4 9.1 10.3 14.5 14.6 2.1 1.7 5.1 1.5 7-.6 5.5-6 15.3-8.3 22.8-5.1 7.9 3.3 12.9 11.3 12.4 19.8-.2 2.7 1.8 5 4.5 5.3 3.5.4 7 .6 10.5.6 3.3 0 6.7-.2 10-.6 2.7-.3 4.6-2.6 4.5-5.2-.3-8.5 4.7-16.3 12.5-19.5 7.5-3.1 17.2-.8 22.6 5.1 1.8 2 4.8 2.2 6.9.6 5.5-4.3 10.4-9.2 14.8-14.6 1.7-2.1 1.4-5.1-.5-6.9-6.4-5.8-8.4-14.9-5.1-22.8 3.1-7.4 10.6-12.4 18.7-12.4h1.1c2.6.2 5-1.8 5.4-4.5.7-6.6.7-13.6-.1-20.6zm-90.6 40.9c-16.8 0-30.5-13.7-30.5-30.5s13.7-30.5 30.5-30.5 30.5 13.7 30.5 30.5c-.1 16.8-13.7 30.5-30.5 30.5z" fill="#fff"/></g></svg>