<?xml version="1.0" encoding="utf-8"?>
<!-- Generator: Adobe Illustrator 14.0.0, SVG Export Plug-In . SVG Version: 6.00 Build 43363)  -->
<!DOCTYPE svg PUBLIC "-//W3C//DTD SVG 1.1//EN" "http://www.w3.org/Graphics/SVG/1.1/DTD/svg11.dtd">
<svg version="1.1" id="Ebene_1" xmlns="http://www.w3.org/2000/svg" xmlns:xlink="http://www.w3.org/1999/xlink" x="0px" y="0px"
	 width="32.277px" height="37.186px" viewBox="0 0 32.277 37.186" enable-background="new 0 0 32.277 37.186" xml:space="preserve">
<g>
	
		<linearGradient id="SVGID_1_" gradientUnits="userSpaceOnUse" x1="166.7083" y1="-275.5569" x2="166.7083" y2="-257.4009" gradientTransform="matrix(1 0 0 -1 -150.5703 -257.1138)">
		<stop  offset="0" style="stop-color:#50AAD6"/>
		<stop  offset="1" style="stop-color:#40A3D7"/>
	</linearGradient>
	<polygon fill="url(#SVGID_1_)" points="16.138,0 0,9.221 16.138,18.443 32.276,9.221 	"/>
	
		<linearGradient id="SVGID_2_" gradientUnits="userSpaceOnUse" x1="166.4563" y1="-275.6189" x2="150.6063" y2="-284.8406" gradientTransform="matrix(1 0 0 -1 -150.5703 -257.1138)">
		<stop  offset="0" style="stop-color:#40A3D7"/>
		<stop  offset="1" style="stop-color:#036297"/>
	</linearGradient>
	<polygon fill="url(#SVGID_2_)" points="16.138,36.885 16.138,18.443 0,9.221 0,27.664 	"/>
	<polygon fill="#40A3D7" points="20.75,29.106 32.276,22.478 30.259,21.324 20.75,26.8 	"/>
	<polygon fill="#40A3D7" points="20.75,21.901 27.666,17.866 25.649,16.713 20.75,19.596 	"/>
	<path fill="#1E81B5" d="M27.666,15.561l-2.018,1.151l2.018,1.153V15.561z"/>
	
		<linearGradient id="SVGID_3_" gradientUnits="userSpaceOnUse" x1="166.7454" y1="-275.4929" x2="182.5968" y2="-284.7156" gradientTransform="matrix(1 0 0 -1 -150.5703 -257.1138)">
		<stop  offset="0" style="stop-color:#BADAEA"/>
		<stop  offset="1" style="stop-color:#51ACDC"/>
	</linearGradient>
	<path fill="url(#SVGID_3_)" d="M16.138,18.443v18.441l16.14-9.221v-5.188l-11.527,6.63V26.8l11.526-6.628v-7.205V9.221
		L16.138,18.443z M27.666,17.866l-6.916,4.035v-2.308l6.916-4.034V17.866z"/>
</g>
</svg>
