<svg xmlns="http://www.w3.org/2000/svg" data-name="Ebene 14" viewBox="0 0 191.8 150"><defs><clipPath id="a"><path d="M5.12 4.62h180.23v140H5.12z" style="fill:none"/></clipPath></defs><path d="M133.5 66.39a4.63 4.63 0 0 0-2.06-1.73L115.79 58V43.53A4.39 4.39 0 0 0 115 41a4.94 4.94 0 0 0-2-1.73l-16.18-6.93a4.71 4.71 0 0 0-3.61 0L77 39.26A5 5 0 0 0 75 41a4.57 4.57 0 0 0-.8 2.53v14.41l-15.62 6.73a4.82 4.82 0 0 0-2 1.72 4.39 4.39 0 0 0-.8 2.53v15a4.53 4.53 0 0 0 .69 2.4 4.38 4.38 0 0 0 1.87 1.72l16.17 8.07a4.4 4.4 0 0 0 4.11 0l16.16-8.07a.74.74 0 0 0 .22-.14 2.2 2.2 0 0 0 .26.15l16.15 8.07a4.4 4.4 0 0 0 4.11 0l16.16-8.07a4.41 4.41 0 0 0 1.88-1.7 4.56 4.56 0 0 0 .69-2.41v-15a4.56 4.56 0 0 0-.77-2.53m-54.4-23L95 36.59l15.91 6.82L95 50.23Zm18.25 10.86 13.85-5.91V58l-13.85 5.91Zm1.6 14L113.46 62 128 68.24l-14.57 6.24Zm16.86 10.28 13.86-5.9v11.28l-13.86 6.93ZM62 68.24 76.53 62l14.58 6.25-14.57 6.23Zm16.85 10.28 13.85-5.9v11.31l-13.85 6.93Z" style="fill:#003764"/><g style="clip-path:url(#a)"><path d="M25.54 5.86S6.35 5.86 6.35 25v99.17s0 19.18 19.19 19.18h139.39s19.18 0 19.18-19.18V25s0-19.18-19.18-19.18Z" style="fill:none;stroke:#103a5d;stroke-width:2.4695510774625733px"/></g><path d="M136 107.85c-3.22 0-5.53.64-5.53 3.45v.51a3.68 3.68 0 0 0 2.57 3.78l3.39 1.29c1.16.43 1.47.84 1.47 1.46v.26c0 .9-.54 1.1-2.26 1.1h-5c-.31 0-.41.13-.41.42v1.59c0 .23.07.36.38.39.85.07 2.78.23 5 .23 3.37 0 5.32-.67 5.32-3.6v-.34a3.46 3.46 0 0 0-2.62-3.75L135 113.4c-1.08-.41-1.42-.9-1.42-1.51v-.31c0-.8.62-1.13 1.7-1.13H140c.29 0 .41-.13.41-.39v-1.52c0-.23-.12-.36-.38-.41a26.51 26.51 0 0 0-4-.28m-10.51.13a.34.34 0 0 0-.39.38v13.45a.34.34 0 0 0 .39.39h2.34c.26 0 .38-.13.38-.39v-13.45a.33.33 0 0 0-.38-.38Zm1.18-5.84a1.78 1.78 0 1 0 0 3.55 1.78 1.78 0 1 0 0-3.55m-7.32 8.41v8.9a20.78 20.78 0 0 1-2.81.15c-2.88 0-3.26-.85-3.26-4.52s.28-4.53 3.11-4.53Zm-2.86-2.7c-5.17 0-6.35 1.47-6.35 7.12 0 5.81 1.16 7.36 5.92 7.36a19.54 19.54 0 0 0 3.29-.23v.12c0 2-.62 2.65-3.19 2.65h-4c-.26 0-.39.11-.39.39v1.52a.39.39 0 0 0 .36.41 30.93 30.93 0 0 0 4.22.28c5.22 0 6.09-1.62 6.12-6.09v-12.55a.49.49 0 0 0-.49-.52 30.43 30.43 0 0 0-5.48-.46" style="fill:#103a5d"/><path d="M95.52 100.56c-.31 0-.45.06-.51.28l-3.76 13.07a3.82 3.82 0 0 0-.2 1v1.53c0 .31.14.42.42.42H101v5a.37.37 0 0 0 .42.43h2.8a.38.38 0 0 0 .43-.43v-5H108c.31 0 .46-.11.46-.42v-2.35c0-.25-.15-.39-.46-.39h-3.36v-6.54c0-.37-.2-.42-.51-.31l-2.8 1a.5.5 0 0 0-.34.51v5.35H95l3.62-12.59c.09-.31 0-.51-.31-.51Z" style="fill:#6b7691"/><path d="M83.05 107.85a31.26 31.26 0 0 0-5.76.41c-.23 0-.36.08-.36.41v13.14c0 .26.1.39.36.39h2.36a.34.34 0 0 0 .39-.39v-11.26h3c2.41 0 3 .15 3 4v7.3a.34.34 0 0 0 .39.39h2.27a.37.37 0 0 0 .42-.39v-7.87c0-5.37-1.32-6.09-6.07-6.09m-14.66 2.7c2.75 0 3.13.9 3.13 4.55s-.38 4.53-3.13 4.53-3.14-.9-3.14-4.53.38-4.55 3.14-4.55m0-2.7c-5.15 0-6.25 1.44-6.25 7.25s1.1 7.23 6.25 7.23 6.27-1.44 6.27-7.23-1.13-7.25-6.27-7.25m-12.22 0c-5.22 0-6.25 1.44-6.25 7.23s1 7.25 6.25 7.25a26.63 26.63 0 0 0 4.06-.28.42.42 0 0 0 .39-.47V120c0-.25-.13-.38-.41-.38h-4c-2.75 0-3.11-.93-3.11-4.55s.36-4.53 3.11-4.53h4c.28 0 .41-.13.41-.39v-1.55a.42.42 0 0 0-.39-.47 26.63 26.63 0 0 0-4.06-.28" style="fill:#103a5d"/></svg>