<svg xmlns="http://www.w3.org/2000/svg" viewBox="0 0 171.1 59.68"><defs><style>.cls-1{fill:#666;}</style></defs><title>Element 2</title><g id="Ebene_2" data-name="Ebene 2"><g id="Ebene_1-2" data-name="Ebene 1"><polygon class="cls-1" points="4.59 54.1 2.05 54.1 2.05 50.2 0 50.2 0 59.55 2.05 59.55 2.05 55.79 4.59 55.79 4.59 59.55 6.63 59.55 6.63 50.2 4.59 50.2 4.59 54.1"/><path class="cls-1" d="M13.35,50.07A3.16,3.16,0,0,0,11,51a3.65,3.65,0,0,0-.89,2.59v2.54A3.62,3.62,0,0,0,11,58.74a3.21,3.21,0,0,0,2.4.94,3.21,3.21,0,0,0,2.4-.94,3.58,3.58,0,0,0,.91-2.59V53.61A3.62,3.62,0,0,0,15.76,51,3.22,3.22,0,0,0,13.35,50.07Zm1.28,6.08a2.39,2.39,0,0,1-.33,1.4,1.07,1.07,0,0,1-.94.44,1.09,1.09,0,0,1-.94-.43,2.45,2.45,0,0,1-.33-1.41V53.59a2.43,2.43,0,0,1,.33-1.4,1.06,1.06,0,0,1,.93-.43,1.09,1.09,0,0,1,1,.44,2.4,2.4,0,0,1,.33,1.39Z"/><polygon class="cls-1" points="24.69 55.62 22.1 50.2 20.1 50.2 20.1 59.55 22.15 59.55 22.15 54.13 24.74 59.55 26.72 59.55 26.72 50.2 24.69 50.2 24.69 55.62"/><polygon class="cls-1" points="32.43 55.56 35.48 55.56 35.48 53.88 32.43 53.88 32.43 51.89 36 51.89 36 50.2 30.39 50.2 30.39 59.55 36.02 59.55 36.02 57.86 32.43 57.86 32.43 55.56"/><path class="cls-1" d="M42.62,54a4.66,4.66,0,0,1-1.11-.62.79.79,0,0,1-.29-.64,1,1,0,0,1,.26-.71.92.92,0,0,1,.73-.28.91.91,0,0,1,.77.34,1.39,1.39,0,0,1,.28.92v.14h2l0-.1,0-.07a2.76,2.76,0,0,0-.83-2.08,3.07,3.07,0,0,0-2.2-.82,3.26,3.26,0,0,0-2.19.74,2.6,2.6,0,0,0-.12,3.77,6.64,6.64,0,0,0,2.16,1.14,2.7,2.7,0,0,1,.92.58,1.06,1.06,0,0,1,.24.74,1,1,0,0,1-.24.72.92.92,0,0,1-.73.26,1.29,1.29,0,0,1-1-.33A1.58,1.58,0,0,1,41,56.58v-.14H39l0,.09,0,.08a2.7,2.7,0,0,0,1,2.28,3.67,3.67,0,0,0,2.33.79,3.3,3.3,0,0,0,2.18-.7A2.45,2.45,0,0,0,45.29,57a2.61,2.61,0,0,0-.69-1.9A5,5,0,0,0,42.62,54Z"/><polygon class="cls-1" points="48.18 51.89 50.21 51.89 50.21 59.55 52.25 59.55 52.25 51.89 54.29 51.89 54.29 50.2 48.18 50.2 48.18 51.89"/><path class="cls-1" d="M68.69,53.44l.07-.14v0a3.46,3.46,0,0,0-.8-2.38,3,3,0,0,0-2.28-.82A3,3,0,0,0,63.4,51a3.58,3.58,0,0,0-.85,2.53v2.71a3.51,3.51,0,0,0,.88,2.54,3.16,3.16,0,0,0,2.35.91,3,3,0,0,0,2.23-.8,3.3,3.3,0,0,0,.74-2.35l-.06-.18H66.75v.14a2.11,2.11,0,0,1-.2,1.19.87.87,0,0,1-.78.31,1,1,0,0,1-.89-.41,2.4,2.4,0,0,1-.31-1.35V53.51a2.44,2.44,0,0,1,.29-1.34.9.9,0,0,1,.81-.41,1,1,0,0,1,.87.34,2,2,0,0,1,.21,1.2v.14Z"/><path class="cls-1" d="M75.18,50.07a3.14,3.14,0,0,0-2.39,1,3.61,3.61,0,0,0-.9,2.59v2.54a3.58,3.58,0,0,0,.9,2.59,3.17,3.17,0,0,0,2.39.94,3.22,3.22,0,0,0,2.41-.94,3.58,3.58,0,0,0,.9-2.59V53.61A3.62,3.62,0,0,0,77.58,51,3.18,3.18,0,0,0,75.18,50.07Zm1.28,6.08a2.38,2.38,0,0,1-.34,1.4,1.22,1.22,0,0,1-1.87,0,2.45,2.45,0,0,1-.33-1.41V53.59a2.52,2.52,0,0,1,.32-1.4,1.08,1.08,0,0,1,.94-.43,1.06,1.06,0,0,1,.94.44,2.39,2.39,0,0,1,.34,1.39Z"/><polygon class="cls-1" points="86.51 55.62 83.92 50.2 81.92 50.2 81.92 59.55 83.97 59.55 83.97 54.13 86.56 59.55 88.55 59.55 88.55 50.2 86.51 50.2 86.51 55.62"/><polygon class="cls-1" points="91.52 51.89 93.56 51.89 93.56 59.55 95.6 59.55 95.6 51.89 97.64 51.89 97.64 50.2 91.52 50.2 91.52 51.89"/><path class="cls-1" d="M102.28,50.2,99.7,59.37l0,.18h2.08l.48-1.94h2.18l.5,1.94H107l-2.63-9.35Zm.36,5.72.66-2.59.66,2.59Z"/><path class="cls-1" d="M112.9,50.07a3.16,3.16,0,0,0-2.39,1,3.66,3.66,0,0,0-.9,2.59v2.54a3.62,3.62,0,0,0,.9,2.59,3.53,3.53,0,0,0,4.8,0,3.58,3.58,0,0,0,.9-2.59V53.61A3.57,3.57,0,0,0,115.3,51,3.18,3.18,0,0,0,112.9,50.07Zm1.28,6.08a2.39,2.39,0,0,1-.33,1.4,1.23,1.23,0,0,1-1.88,0,2.45,2.45,0,0,1-.33-1.41V53.59a2.43,2.43,0,0,1,.33-1.4,1,1,0,0,1,.93-.43,1.09,1.09,0,0,1,.95.44,2.4,2.4,0,0,1,.33,1.39Z"/><polygon class="cls-1" points="124.5 51.89 126.53 51.89 126.53 59.55 128.56 59.55 128.56 51.89 130.61 51.89 130.61 50.2 124.5 50.2 124.5 51.89"/><polygon class="cls-1" points="138.34 54.1 135.79 54.1 135.79 50.2 133.75 50.2 133.75 59.55 135.79 59.55 135.79 55.79 138.34 55.79 138.34 59.55 140.38 59.55 140.38 50.2 138.34 50.2 138.34 54.1"/><polygon class="cls-1" points="146.07 55.56 149.12 55.56 149.12 53.88 146.07 53.88 146.07 51.89 149.65 51.89 149.65 50.2 144.03 50.2 144.03 59.55 149.66 59.55 149.66 57.86 146.07 57.86 146.07 55.56"/><polygon class="cls-1" points="156.91 56.51 155.37 50.2 152.83 50.2 152.83 59.55 154.86 59.55 154.86 56.77 154.75 54.3 156.22 59.55 157.6 59.55 159.09 54.24 158.99 56.78 158.99 59.55 161.02 59.55 161.02 50.2 158.47 50.2 156.91 56.51"/><polygon class="cls-1" points="166.69 57.86 166.69 55.56 169.74 55.56 169.74 53.88 166.69 53.88 166.69 51.89 170.26 51.89 170.26 50.2 164.64 50.2 164.64 59.55 170.27 59.55 170.27 57.86 166.69 57.86"/><path d="M.8,37.06H5.38V9.72H.8V8.2H6.67l.2,6.26a11.07,11.07,0,0,1,4-5A11.37,11.37,0,0,1,17.4,7.64c3.31,0,5.8,1,7.45,3.13s2.49,5.39,2.49,9.92V37.06h4.57v1.52H21.24V37.06h4.58V20.64q0-6.32-2.26-8.9a7.71,7.71,0,0,0-6.13-2.59q-4.92,0-7.42,2.94A14.24,14.24,0,0,0,6.9,19.6V37.06h4.57v1.52H.8Z"/><path d="M76.14,0V8.2h7.47V9.74H76.14v21q0,3.73,1.26,5.32a4.08,4.08,0,0,0,3.34,1.58c.6,0,1.13,0,1.6,0l1.94-.2.28,1.38a11,11,0,0,1-1.73.31c-.59,0-1.26.08-2,.08a5.59,5.59,0,0,1-4.65-2c-1.06-1.33-1.59-3.48-1.59-6.43v-21H69V8.2h5.61V0Z"/><path d="M113.12,33.13A10.49,10.49,0,0,1,109,37.6a12.42,12.42,0,0,1-6.44,1.57,8.88,8.88,0,0,1-7.35-3.33q-2.64-3.33-2.65-10.32V9.72h-4V8.2h5.53V25.58q0,6.18,2.27,9.12a7.36,7.36,0,0,0,6.15,2.95c3.16,0,5.59-.77,7.29-2.33a10.72,10.72,0,0,0,3.24-6.17V9.72h-4.58V8.2h6.12V37.06h4.58v1.52h-5.84Z"/><path d="M130,8.2l.28,5.28v1A11,11,0,0,1,134,9.45a10.16,10.16,0,0,1,6.15-1.81,6.36,6.36,0,0,1,1.19.1,7.45,7.45,0,0,1,.94.21l-.17,1.34-2-.16a8.8,8.8,0,0,0-6.62,2.62,13,13,0,0,0-3.3,6.92V37.06h4.58v1.52H124.15V37.06h4.58V9.72h-4.58V8.2H130Z"/><path d="M159.56,39.17a11.67,11.67,0,0,1-9-4.2,15,15,0,0,1-3.78-10.43v-1.8a16.1,16.1,0,0,1,3.65-10.82,11.37,11.37,0,0,1,9-4.28A11.13,11.13,0,0,1,167.86,11a12.48,12.48,0,0,1,3.24,9v2.33H148.33v2.16a13.87,13.87,0,0,0,3.23,9.31,10.07,10.07,0,0,0,8,3.8,15.35,15.35,0,0,0,5.68-.92A10.3,10.3,0,0,0,169.16,34l.82,1.18a11.54,11.54,0,0,1-4.37,3A16.13,16.13,0,0,1,159.56,39.17Zm-.09-30a9.74,9.74,0,0,0-7.52,3.3,13.45,13.45,0,0,0-3.4,8.24l.09.17h20.94v-.92a11,11,0,0,0-2.81-7.71A9.42,9.42,0,0,0,159.47,9.15Z"/><path d="M54.18,7.53a33.16,33.16,0,0,0-11.89,7.74,33.54,33.54,0,0,0-7.65,12,16.89,16.89,0,0,1-.43-3.76A16.32,16.32,0,0,1,42.36,9.31a16,16,0,0,1,8.21-2.19A16.39,16.39,0,0,1,54.18,7.53Zm5.75,2.54a16.4,16.4,0,0,1,3.5,3.31,33.58,33.58,0,0,0-22.89,23,15.27,15.27,0,0,1-3.31-3.47,33.62,33.62,0,0,1,22.7-22.87ZM44.26,38.59A33.57,33.57,0,0,1,65.62,17.08a15.7,15.7,0,0,1,1.15,4.17A33.72,33.72,0,0,0,48.41,39.7,16.59,16.59,0,0,1,44.26,38.59Zm22.79,1.24a80.27,80.27,0,0,1-7.85-2.46A16.06,16.06,0,0,1,53,39.66,33.79,33.79,0,0,1,66.75,25.85a15.8,15.8,0,0,1-2.16,6.07A77.25,77.25,0,0,1,67.05,39.83Z"/></g></g></svg>