<svg xmlns="http://www.w3.org/2000/svg" viewBox="0 0 500 428.86"><defs><style>.cls-1{fill:#333a46;}.cls-2{fill:#7abfbc;}.cls-3{fill:#fff;}</style></defs><title>Element 1</title><g id="Ebene_2" data-name="Ebene 2"><g id="Ebene_17" data-name="Ebene 17"><polygon class="cls-1" points="405.52 364.46 0 364.46 94.48 0 500 0 405.52 364.46"/><path class="cls-1" d="M40.37,428H32l-18.39-42.7c.26,3.35.47,6.46.62,9.3s.23,6.29.23,10.33V428H8.64v-50.3h8.14l18.6,42.78c-.14-1.26-.31-3.48-.53-6.64s-.33-6.06-.33-8.69V377.68h5.85Z"/><path class="cls-1" d="M70.92,415.35H53.77L50.35,428h-6.3l14.52-50.3h7.88L80.91,428H74.34Zm-1.51-5.62-7-26.28-7.1,26.28Z"/><path class="cls-1" d="M107.38,383.6H94.83V428H88.59V383.6H75.72v-5.92H108Z"/><path class="cls-1" d="M143,411.85a20,20,0,0,1-1.87,8.87,14,14,0,0,1-5.45,6,16.32,16.32,0,0,1-8.58,2.16q-7.55,0-11.66-4.64t-4.1-12.37V377.68h6.24v33.66c0,3.89.78,6.81,2.36,8.76s4,2.92,7.16,2.92,5.65-1,7.23-2.89,2.37-4.85,2.37-8.79V377.68H143Z"/><path class="cls-1" d="M165.46,406.66h-7V428h-6.24v-50.3h11.89q8.47,0,12.85,3.58t4.36,10.66a14,14,0,0,1-2.43,8.54,14.65,14.65,0,0,1-7.35,5L183.73,428H176.3Zm-.72-5.32c3.28,0,5.76-.75,7.42-2.23s2.5-3.88,2.5-7.19c0-3.11-.84-5.37-2.53-6.75s-4.39-2.08-8.11-2.08h-5.59v18.25Z"/><path class="cls-1" d="M212.44,383.23H194.89v16.43h15.25v5.55H194.89v17.22h18.79V428h-25v-50.3h24.51Z"/><path class="cls-1" d="M253.43,426.23a12.39,12.39,0,0,1-7.75,2.63,8.69,8.69,0,0,1-6.87-2.81q-2.46-2.82-2.46-8.14V394.69h-6v-5.18h6v-8.69l6.05-.8v9.49h8.21l-.66,5.18H242.4v22.93a7.65,7.65,0,0,0,.95,4.34,3.61,3.61,0,0,0,3.18,1.35,8.18,8.18,0,0,0,4.6-1.68Z"/><path class="cls-1" d="M281.72,391.77q2.65,3.15,2.66,8.62V428h-6.05V401.34q0-4.09-1.41-5.77a5.06,5.06,0,0,0-4.11-1.68,7.26,7.26,0,0,0-4.79,1.75,18.07,18.07,0,0,0-3.94,5V428H258V374.11l6.05-.73v21.46q4.07-6.21,10.24-6.21A9.19,9.19,0,0,1,281.72,391.77Z"/><path class="cls-1" d="M320.91,411.05H298.83q.39,6.34,2.89,9.34a8,8,0,0,0,6.44,3,12.7,12.7,0,0,0,4.6-.8,18,18,0,0,0,4.4-2.56l2.63,4a18,18,0,0,1-12.09,4.82,13.4,13.4,0,0,1-11.27-5.26q-4-5.25-4-14.45a30.09,30.09,0,0,1,1.74-10.62,16.57,16.57,0,0,1,5-7.27,11.8,11.8,0,0,1,7.65-2.63q6.9,0,10.58,5T321,407.61C321,408.73,321,409.88,320.91,411.05Zm-5.85-5.41c0-3.79-.68-6.69-2-8.68a6.89,6.89,0,0,0-6.11-3q-7.43,0-8.08,12.12h16.23Z"/><path class="cls-1" d="M371,391.81q2.56,3.18,2.56,8.58V428h-6V401.34q0-7.45-4.86-7.45a6.17,6.17,0,0,0-4.34,1.64,22.51,22.51,0,0,0-3.81,5.15V428h-6.05V401.34q0-7.45-4.86-7.45a6.15,6.15,0,0,0-4.4,1.68,22.59,22.59,0,0,0-3.74,5.11V428h-6.05V389.51h5.19l.53,5.62q3.87-6.5,10-6.5a8.46,8.46,0,0,1,5.49,1.83,10.09,10.09,0,0,1,3.25,5.11,17.51,17.51,0,0,1,4.5-5.15,9.65,9.65,0,0,1,5.82-1.79A8.34,8.34,0,0,1,371,391.81Z"/><path class="cls-1" d="M410.06,411.05H388q.4,6.34,2.9,9.34a8,8,0,0,0,6.43,3,12.66,12.66,0,0,0,4.6-.8,18,18,0,0,0,4.4-2.56l2.63,4a18,18,0,0,1-12.09,4.82q-7.22,0-11.26-5.26t-4-14.45a30.09,30.09,0,0,1,1.74-10.62,16.56,16.56,0,0,1,5-7.27,11.82,11.82,0,0,1,7.65-2.63q6.9,0,10.58,5t3.68,13.94C410.19,408.73,410.15,409.88,410.06,411.05Zm-5.85-5.41c0-3.79-.68-6.69-2-8.68a6.9,6.9,0,0,0-6.11-3q-7.43,0-8.09,12.12h16.23Z"/><path class="cls-2" d="M135,95.71a4,4,0,1,0-2.83-1.17A4,4,0,0,0,135,95.71Z"/><path class="cls-2" d="M147.77,95.71A4,4,0,1,0,145,88.9a4,4,0,0,0,0,5.64,4,4,0,0,0,2.82,1.17Z"/><path class="cls-2" d="M160.55,95.71a4,4,0,1,0-2.82-1.17,4,4,0,0,0,2.82,1.17Z"/><path class="cls-2" d="M177.59,95.71H339.45a4,4,0,0,0,0-8H177.59a4,4,0,0,0,0,8Z"/><path class="cls-2" d="M356.49,95.71H365a4,4,0,1,0,0-8h-8.51a4,4,0,1,0,0,8Z"/><path class="cls-3" d="M365,70.69H135a21.06,21.06,0,0,0-21,21v181a21.07,21.07,0,0,0,21,21H365a21.07,21.07,0,0,0,21-21v-181a21.06,21.06,0,0,0-21-21Zm-230,8H365a13.07,13.07,0,0,1,13.05,13v13H122v-13a13.07,13.07,0,0,1,13-13ZM365,285.79H135a13.06,13.06,0,0,1-13-13.05v-160h256.1v160A13.06,13.06,0,0,1,365,285.79Z"/><polygon class="cls-2" points="139.69 229.29 136.22 229.29 136.22 223.98 133.43 223.98 133.43 236.71 136.22 236.71 136.22 231.59 139.69 231.59 139.69 236.71 142.47 236.71 142.47 223.98 139.69 223.98 139.69 229.29"/><path class="cls-2" d="M151.63,223.8a4.29,4.29,0,0,0-3.26,1.3,4.92,4.92,0,0,0-1.22,3.52v3.47a4.91,4.91,0,0,0,1.22,3.52,4.82,4.82,0,0,0,6.54,0,4.87,4.87,0,0,0,1.23-3.52v-3.47a4.89,4.89,0,0,0-1.24-3.53A4.36,4.36,0,0,0,151.63,223.8Zm1.74,8.29a3.3,3.3,0,0,1-.45,1.91,1.49,1.49,0,0,1-1.28.59,1.47,1.47,0,0,1-1.28-.59,3.3,3.3,0,0,1-.45-1.91V228.6a3.39,3.39,0,0,1,.44-1.91,1.67,1.67,0,0,1,2.56,0,3.21,3.21,0,0,1,.46,1.9Z"/><polygon class="cls-2" points="167.07 231.36 163.54 223.98 160.82 223.98 160.82 236.71 163.61 236.71 163.61 229.33 167.14 236.71 169.84 236.71 169.84 223.98 167.07 223.98 167.07 231.36"/><polygon class="cls-2" points="177.63 231.29 181.78 231.29 181.78 228.99 177.63 228.99 177.63 226.28 182.49 226.28 182.49 223.98 174.84 223.98 174.84 236.71 182.51 236.71 182.51 234.41 177.63 234.41 177.63 231.29"/><path class="cls-2" d="M191.5,229.14a6,6,0,0,1-1.51-.85,1.09,1.09,0,0,1-.39-.86,1.42,1.42,0,0,1,.35-1,1.3,1.3,0,0,1,1-.38,1.28,1.28,0,0,1,1.06.46,1.91,1.91,0,0,1,.38,1.26V228H195l0-.13,0-.11a3.67,3.67,0,0,0-1.13-2.82,4.13,4.13,0,0,0-3-1.12,4.45,4.45,0,0,0-3,1,3.29,3.29,0,0,0-1.19,2.62,3.2,3.2,0,0,0,1,2.52,8.69,8.69,0,0,0,2.94,1.56,3.64,3.64,0,0,1,1.25.78,1.47,1.47,0,0,1,.33,1,1.37,1.37,0,0,1-.33,1,1.28,1.28,0,0,1-1,.35,1.75,1.75,0,0,1-1.33-.45,2.12,2.12,0,0,1-.43-1.52v-.18h-2.67l0,.12,0,.11a3.65,3.65,0,0,0,1.32,3.11,5,5,0,0,0,3.18,1.07,4.44,4.44,0,0,0,3-.95,3.33,3.33,0,0,0,1.13-2.66,3.54,3.54,0,0,0-.94-2.59A6.65,6.65,0,0,0,191.5,229.14Z"/><polygon class="cls-2" points="199.08 226.28 201.84 226.28 201.84 236.71 204.62 236.71 204.62 226.28 207.41 226.28 207.41 223.98 199.08 223.98 199.08 226.28"/><path class="cls-2" d="M227,228.39l.09-.19v0a4.66,4.66,0,0,0-1.09-3.24,4.14,4.14,0,0,0-3.11-1.11,4.05,4.05,0,0,0-3.1,1.25,4.86,4.86,0,0,0-1.16,3.45v3.7a4.8,4.8,0,0,0,1.2,3.46,4.33,4.33,0,0,0,3.2,1.23,4,4,0,0,0,3-1.09,4.5,4.5,0,0,0,1-3.21l-.1-.23h-2.63v.19a3,3,0,0,1-.27,1.62,1.22,1.22,0,0,1-1.07.42,1.39,1.39,0,0,1-1.21-.56,3.21,3.21,0,0,1-.42-1.84v-3.71a3.25,3.25,0,0,1,.4-1.82,1.21,1.21,0,0,1,1.09-.56,1.35,1.35,0,0,1,1.19.46,2.67,2.67,0,0,1,.29,1.64v.19Z"/><path class="cls-2" d="M235.87,223.8a4.29,4.29,0,0,0-3.26,1.3,4.92,4.92,0,0,0-1.22,3.52v3.47a4.91,4.91,0,0,0,1.22,3.52,4.82,4.82,0,0,0,6.54,0,4.87,4.87,0,0,0,1.23-3.52v-3.47a4.93,4.93,0,0,0-1.24-3.53A4.36,4.36,0,0,0,235.87,223.8Zm1.74,8.29a3.22,3.22,0,0,1-.46,1.91,1.67,1.67,0,0,1-2.55,0,3.3,3.3,0,0,1-.45-1.91V228.6a3.39,3.39,0,0,1,.44-1.91,1.67,1.67,0,0,1,2.56,0,3.21,3.21,0,0,1,.46,1.9Z"/><polygon class="cls-2" points="251.31 231.35 247.78 223.98 245.06 223.98 245.06 236.71 247.85 236.71 247.85 229.33 251.38 236.71 254.08 236.71 254.08 223.98 251.31 223.98 251.31 231.35"/><polygon class="cls-2" points="258.14 226.28 260.91 226.28 260.91 236.71 263.69 236.71 263.69 226.28 266.47 226.28 266.47 223.98 258.14 223.98 258.14 226.28"/><path class="cls-2" d="M272.8,224l-3.52,12.5-.06.23H272l.66-2.64h3l.67,2.64h2.82L275.59,224Zm.49,7.79.9-3.54.9,3.54Z"/><path class="cls-2" d="M287.27,223.8a4.29,4.29,0,0,0-3.26,1.3,4.92,4.92,0,0,0-1.22,3.52v3.47a4.91,4.91,0,0,0,1.22,3.52,4.82,4.82,0,0,0,6.54,0,4.87,4.87,0,0,0,1.23-3.52v-3.47a4.89,4.89,0,0,0-1.24-3.53A4.36,4.36,0,0,0,287.27,223.8Zm1.74,8.29a3.3,3.3,0,0,1-.45,1.91,1.49,1.49,0,0,1-1.28.59A1.47,1.47,0,0,1,286,234a3.3,3.3,0,0,1-.45-1.91V228.6a3.39,3.39,0,0,1,.44-1.91,1.45,1.45,0,0,1,1.28-.59,1.48,1.48,0,0,1,1.29.6,3.29,3.29,0,0,1,.45,1.9Z"/><polygon class="cls-2" points="303.07 226.28 305.83 226.28 305.83 236.71 308.61 236.71 308.61 226.28 311.4 226.28 311.4 223.98 303.07 223.98 303.07 226.28"/><polygon class="cls-2" points="321.93 229.29 318.46 229.29 318.46 223.98 315.67 223.98 315.67 236.71 318.46 236.71 318.46 231.59 321.93 231.59 321.93 236.71 324.71 236.71 324.71 223.98 321.93 223.98 321.93 229.29"/><polygon class="cls-2" points="332.47 231.29 336.62 231.29 336.62 228.99 332.47 228.99 332.47 226.28 337.34 226.28 337.34 223.98 329.68 223.98 329.68 236.71 337.35 236.71 337.35 234.41 332.47 234.41 332.47 231.29"/><polygon class="cls-2" points="347.24 232.57 345.14 223.98 341.68 223.98 341.68 236.71 344.45 236.71 344.45 232.93 344.3 229.57 346.3 236.71 348.18 236.71 350.21 229.48 350.06 232.94 350.06 236.71 352.83 236.71 352.83 223.98 349.36 223.98 347.24 232.57"/><polygon class="cls-2" points="360.56 234.41 360.56 231.29 364.71 231.29 364.71 228.99 360.56 228.99 360.56 226.28 365.42 226.28 365.42 223.98 357.77 223.98 357.77 236.71 365.44 236.71 365.44 234.41 360.56 234.41"/><path class="cls-2" d="M134.53,206.08h6.23V168.81h-6.23v-2.06h8l.27,8.53a15.14,15.14,0,0,1,5.47-6.87,15.51,15.51,0,0,1,8.88-2.43q6.77,0,10.16,4.27t3.38,13.52v22.31h6.24v2.06H162.38v-2.06h6.24V183.69c0-5.73-1-9.78-3.08-12.12a10.54,10.54,0,0,0-8.36-3.52q-6.7,0-10.1,4a19.33,19.33,0,0,0-4.25,10.24v23.8h6.23v2.06H134.53Z"/><path class="cls-2" d="M237.18,155.57v11.18h10.17v2.1H237.18v28.62q0,5.09,1.72,7.25a5.52,5.52,0,0,0,4.55,2.16c.82,0,1.54,0,2.18-.08s1.52-.14,2.64-.27l.38,1.88a15.2,15.2,0,0,1-2.35.42c-.8.08-1.72.12-2.74.12a7.61,7.61,0,0,1-6.33-2.72q-2.16-2.72-2.16-8.76V168.85h-7.65v-2.1h7.65V155.57Z"/><path class="cls-2" d="M287.56,200.72A14.19,14.19,0,0,1,282,206.8a16.93,16.93,0,0,1-8.78,2.15,12.11,12.11,0,0,1-10-4.54q-3.61-4.53-3.61-14.06V168.81h-5.48v-2.06h7.54v23.68q0,8.41,3.1,12.43a10,10,0,0,0,8.38,4q6.47,0,9.93-3.18a14.57,14.57,0,0,0,4.42-8.41V168.81h-6.24v-2.06h8.34v39.33h6.24v2.06h-8Z"/><path class="cls-2" d="M310.52,166.75l.38,7.19v1.41a15,15,0,0,1,5.13-6.9,13.86,13.86,0,0,1,8.38-2.47,10.23,10.23,0,0,1,1.62.13c.5.09.93.19,1.28.29l-.23,1.84-2.67-.23a12,12,0,0,0-9,3.58,17.52,17.52,0,0,0-4.5,9.43v25.06h6.24v2.06H302.6v-2.06h6.23V168.81H302.6v-2.06h7.92Z"/><path class="cls-2" d="M350.84,209a15.92,15.92,0,0,1-12.22-5.72A20.5,20.5,0,0,1,333.47,189v-2.45q0-8.91,5-14.75A15.54,15.54,0,0,1,350.73,166a15.15,15.15,0,0,1,11.42,4.59q4.41,4.59,4.42,12.32v3.18h-31V189a19,19,0,0,0,4.4,12.69,13.76,13.76,0,0,0,10.9,5.18,20.78,20.78,0,0,0,7.75-1.26,14.15,14.15,0,0,0,5.34-3.79l1.11,1.61a15.83,15.83,0,0,1-6,4.11A22.23,22.23,0,0,1,350.84,209Zm-.11-40.9a13.28,13.28,0,0,0-10.26,4.49,18.32,18.32,0,0,0-4.62,11.23l.11.23H364.5v-1.26a15,15,0,0,0-3.82-10.5A12.84,12.84,0,0,0,350.73,168.05Z"/><path class="cls-2" d="M207.25,165.83a46,46,0,0,0-26.62,26.88,23.11,23.11,0,0,1-.58-5.12,21.89,21.89,0,0,1,3-11.2,22.14,22.14,0,0,1,8.12-8.13,21.8,21.8,0,0,1,11.18-3A22.92,22.92,0,0,1,207.25,165.83Zm7.84,3.46a22.51,22.51,0,0,1,4.78,4.52,45.76,45.76,0,0,0-31.2,31.37,20.93,20.93,0,0,1-4.51-4.72,45.84,45.84,0,0,1,30.93-31.17Zm-21.35,38.86a45.77,45.77,0,0,1,29.1-29.3,21.24,21.24,0,0,1,1.57,5.68,45.91,45.91,0,0,0-25,25.14A22.31,22.31,0,0,1,193.74,208.15Zm31,1.69a108,108,0,0,1-10.69-3.35,22,22,0,0,1-8.45,3.12,46.21,46.21,0,0,1,18.73-18.82,21.38,21.38,0,0,1-2.94,8.27A108.21,108.21,0,0,1,224.79,209.84Z"/></g></g></svg>