<svg version="1.1" xmlns="http://www.w3.org/2000/svg" viewBox="0 0 459.5 123.334">
<g>
	<path style="fill:#414652;" d="M153.267,27.368c0.014,0.018,0.038,0.021,0.069,0.021c0-0.09-0.023-0.138-0.069-0.138l4.738-0.022
		l4.579,5.451h3.679v-1.219l-3.588-4.232h0.161c0.936,0,1.74-0.333,2.416-1.001c0.674-0.668,1.012-1.468,1.012-2.403v-4.278
		c0-0.935-0.337-1.738-1.012-2.404c-0.675-0.668-1.48-1-2.416-1h-13.134v16.538h3.565V27.368z M153.267,19.708h9.385v3.935h-9.385
		V19.708z"/>
	<path style="fill:#414652;" d="M185.217,19.524c0-0.936-0.333-1.739-1-2.405c-0.667-0.666-1.469-1.001-2.404-1.001h-9.754
		c-0.95,0-1.755,0.331-2.415,0.99c-0.66,0.659-0.989,1.465-0.989,2.416v9.753c0,0.95,0.33,1.756,0.989,2.415
		c0.659,0.659,1.464,0.988,2.415,0.988h9.754c0.935,0,1.737-0.333,2.404-1c0.667-0.666,1-1.469,1-2.403V19.524z M181.606,29.094
		h-9.386v-9.386h9.386V29.094z"/>
	<path style="fill:#414652;" d="M191.152,32.681h13.112v-3.587h-12.951v-9.386h12.951v-3.59h-13.112
		c-0.952,0-1.757,0.331-2.416,0.99c-0.66,0.659-0.99,1.465-0.99,2.416v9.753c0,0.95,0.33,1.756,0.99,2.415
		C189.396,32.352,190.201,32.681,191.152,32.681z"/>
	<polygon style="fill:#414652;" points="215.582,20.146 213.511,22.606 210.268,22.606 210.268,16.118 206.679,16.118
		206.679,32.681 210.268,32.681 210.268,26.194 213.511,26.194 218.939,32.681 222.667,32.681 222.667,31.438 216.754,24.4
		222.667,17.36 222.667,16.118 218.939,16.118 	"/>
	<path style="fill:#414652;" d="M228.278,32.681h9.754c0.936,0,1.737-0.333,2.404-1c0.667-0.666,1-1.469,1-2.403v-3.267
		c0-0.937-0.333-1.736-1-2.403c-0.667-0.667-1.469-1.001-2.404-1.001h-9.592v-2.898h9.386v1.356h3.611v-1.54
		c0-0.936-0.333-1.739-1-2.405c-0.667-0.666-1.469-1.001-2.404-1.001h-9.754c-0.935,0-1.736,0.331-2.403,0.99
		c-0.667,0.659-1.001,1.465-1.001,2.416v3.266c0,0.95,0.334,1.757,1.001,2.415c0.667,0.659,1.468,0.989,2.403,0.989h9.547v2.899
		h-9.386v-1.357h-3.566v1.541c0,0.95,0.334,1.756,1.001,2.415C226.542,32.352,227.343,32.681,228.278,32.681z"/>
	<path style="fill:#414652;" d="M247.257,32.681h9.753c0.935,0,1.736-0.333,2.403-1c0.667-0.666,1.001-1.469,1.001-2.403v-9.753
		c0-0.936-0.334-1.739-1.001-2.405c-0.667-0.666-1.468-1.001-2.403-1.001h-9.753c-0.952,0-1.756,0.331-2.416,0.99
		c-0.66,0.659-0.989,1.465-0.989,2.416v9.753c0,0.95,0.33,1.756,0.989,2.415C245.5,32.352,246.305,32.681,247.257,32.681z
		 M247.418,19.708h9.384v9.386h-9.384V19.708z"/>
	<polygon style="fill:#414652;" points="279.529,29.094 266.533,29.094 266.533,16.097 262.967,16.097 262.967,32.681
		279.529,32.681 	"/>
	<rect x="280.886" y="16.118" style="fill:#414652;" width="3.589" height="16.562"/>
	<path style="fill:#414652;" d="M302.452,31.681c0.667-0.666,1.001-1.469,1.001-2.403v-9.753c0-0.936-0.333-1.739-1.001-2.405
		c-0.667-0.666-1.478-1.001-2.427-1.001H286.89v16.562h13.135C300.974,32.681,301.785,32.348,302.452,31.681z M299.84,29.094h-9.384
		v-9.386h9.384V29.094z"/>
	<polygon style="fill:#414652;" points="160.941,72.556 168.118,72.556 168.118,46.608 181.092,46.608 181.092,39.432
		147.967,39.432 147.967,46.608 160.941,46.608 	"/>
	<polygon style="fill:#414652;" points="191.719,59.583 211.271,59.583 211.271,72.556 218.401,72.556 218.401,39.432
		211.271,39.432 211.271,52.406 191.719,52.406 191.719,39.432 184.588,39.432 184.588,72.556 191.719,72.556 	"/>
	<polygon style="fill:#414652;" points="254.379,65.379 231.008,65.379 231.008,59.583 249.825,59.583 249.825,52.406
		231.008,52.406 231.008,46.608 254.379,46.608 254.379,39.432 223.785,39.432 223.785,72.556 254.379,72.556 	"/>
	<polygon style="fill:#414652;" points="295.233,72.556 295.233,39.432 287.826,39.432 276.646,52.82 265.42,39.432 258.06,39.432
		258.06,72.556 265.19,72.556 265.19,50.383 276.646,63.953 288.056,50.335 288.056,72.556 	"/>
	<polygon style="fill:#414652;" points="331.439,46.608 331.439,39.432 300.846,39.432 300.846,72.556 331.439,72.556
		331.439,65.379 308.068,65.379 308.068,59.583 326.885,59.583 326.885,52.406 308.068,52.406 308.068,46.608 	"/>
	<path style="fill:#414652;" d="M175.985,78.812h-19.46c-1.903,0-3.513,0.659-4.831,1.978c-1.319,1.317-1.978,2.93-1.978,4.829
		v26.315h7.131v-10.672h18.771v10.672h7.222V85.618c0-1.869-0.667-3.471-2-4.806C179.505,79.477,177.886,78.812,175.985,78.812z
		 M175.618,94.084h-18.771v-8.097h18.771V94.084z"/>
	<path style="fill:#414652;" d="M214.17,78.812h-19.506c-1.871,0-3.473,0.659-4.807,1.978c-1.334,1.317-2.002,2.93-2.002,4.829
		v6.533c0,1.903,0.667,3.513,2.002,4.83c1.334,1.32,2.936,1.979,4.807,1.979h19.093v5.797h-18.77v-2.713h-7.132v3.082
		c0,1.903,0.667,3.512,2.002,4.829c1.334,1.319,2.936,1.979,4.807,1.979h19.506c1.871,0,3.474-0.665,4.809-1.999
		c1.333-1.336,2.001-2.937,2.001-4.809v-6.532c0-1.872-0.667-3.474-2.001-4.809c-1.334-1.333-2.938-2.002-4.809-2.002h-19.184
		v-5.796h18.77v2.714h7.223v-3.083c0-1.869-0.667-3.471-2.001-4.806C217.644,79.477,216.041,78.812,214.17,78.812z"/>
	<path style="fill:#414652;" d="M251.987,78.812H232.48c-1.871,0-3.473,0.659-4.807,1.978c-1.335,1.317-2.002,2.93-2.002,4.829
		v6.533c0,1.903,0.667,3.513,2.002,4.83c1.334,1.32,2.936,1.979,4.807,1.979h19.093v5.797h-18.771v-2.713h-7.131v3.082
		c0,1.903,0.667,3.512,2.002,4.829c1.334,1.319,2.936,1.979,4.807,1.979h19.507c1.871,0,3.473-0.665,4.808-1.999
		c1.333-1.336,2-2.937,2-4.809v-6.532c0-1.872-0.667-3.474-2-4.809c-1.335-1.333-2.938-2.002-4.808-2.002h-19.185v-5.796h18.771
		v2.714h7.223v-3.083c0-1.869-0.667-3.471-2-4.806C255.46,79.477,253.858,78.812,251.987,78.812z"/>
	<rect x="263.765" y="78.812" style="fill:#414652;" width="7.176" height="33.122"/>
	<path style="fill:#414652;" d="M299.924,78.812h-19.507c-1.872,0-3.473,0.659-4.808,1.978c-1.334,1.317-2,2.93-2,4.829v6.533
		c0,1.903,0.667,3.513,2,4.83c1.334,1.32,2.936,1.979,4.808,1.979h19.093v5.797H280.74v-2.713h-7.13v3.082
		c0,1.903,0.667,3.512,2,4.829c1.334,1.319,2.936,1.979,4.808,1.979h19.507c1.871,0,3.474-0.665,4.808-1.999
		c1.334-1.336,2.001-2.937,2.001-4.809v-6.532c0-1.872-0.667-3.474-2.001-4.809c-1.334-1.333-2.938-2.002-4.808-2.002H280.74v-5.796
		h18.771v2.714h7.223v-3.083c0-1.869-0.667-3.471-2.001-4.806C303.398,79.477,301.795,78.812,299.924,78.812z"/>
	<polygon style="fill:#414652;" points="309.999,85.987 322.972,85.987 322.972,111.934 330.151,111.934 330.151,85.987
		343.124,85.987 343.124,78.812 309.999,78.812 	"/>
	<path style="fill:#414652;" d="M372.936,78.812h-19.461c-1.902,0-3.512,0.659-4.831,1.978c-1.319,1.317-1.979,2.93-1.979,4.829
		v26.315h7.132v-10.672h18.77v10.672h7.224V85.618c0-1.869-0.667-3.471-2.002-4.806C376.456,79.477,374.837,78.812,372.936,78.812z
		 M372.567,94.084h-18.77v-8.097h18.77V94.084z"/>
	<polygon style="fill:#414652;" points="410.937,100.895 392.396,78.812 385.036,78.812 385.036,111.934 392.166,111.934
		392.166,89.761 410.799,111.934 418.159,111.934 418.159,78.812 410.937,78.812 	"/>
	<polygon style="fill:#414652;" points="421.656,78.812 421.656,85.987 434.629,85.987 434.629,111.934 441.806,111.934
		441.806,85.987 454.78,85.987 454.78,78.812 	"/>
	<path style="fill:#414652;" d="M79.831,38.99c-2.01,0.429-4.273,1.399-6.551,2.821c-2.285,1.424-4.147,3.042-5.404,4.674
		c-1.144,1.571-2.271,3.373-1.098,5.605l37.469,59.741h25.889L85.353,40.436C83.857,38.414,81.735,38.637,79.831,38.99z
		 M92.63,72.662c-2.453,1.551-4.333,3.324-5.322,4.86L70.174,50.176c0-0.015,0.007-0.039,0.015-0.06
		c0.063-0.251,0.317-0.734,0.756-1.3c0.875-1.135,2.438-2.554,4.39-3.761c1.707-1.075,3.406-1.82,4.75-2.177
		c1.086-0.332,1.857-0.311,2.105-0.249l17.126,27.368C97.508,70.203,95.078,71.126,92.63,72.662z"/>
	<polygon style="fill:#414652;" points="114.053,23.004 117.323,20.793 120.998,22.24 119.912,18.454 122.416,15.411
		118.473,15.276 116.354,11.946 115.003,15.654 111.185,16.646 114.295,19.075 	"/>
	<polygon style="fill:#414652;" points="63.036,14.913 67.489,6.989 58.494,8.267 52.329,1.569 50.767,10.528 42.49,14.315
		50.528,18.582 51.577,27.617 58.12,21.278 67.028,23.079 	"/>
	<polygon style="fill:#414652;" points="42.597,61.703 39.171,58.198 38.467,63.042 34.074,65.049 38.467,67.229 39.171,72.072
		42.597,68.598 47.413,69.445 45.135,65.17 47.413,60.87 	"/>
	<polygon style="fill:#414652;" points="95.653,28.968 99.611,33.214 100.573,27.5 105.837,25.046 100.691,22.367 99.986,16.594
		95.842,20.66 90.15,19.544 92.736,24.738 89.916,29.815 	"/>
</g>
</svg>
