<svg xmlns="http://www.w3.org/2000/svg" viewBox="0 0 459.5 123.334"><g fill="#414652"><path d="M153.267 27.368c.014.018.038.021.069.021 0-.09-.023-.138-.069-.138l4.738-.022 4.579 5.451h3.679v-1.219l-3.588-4.232h.161c.936 0 1.74-.333 2.416-1.001.674-.668 1.012-1.468 1.012-2.403v-4.278c0-.935-.337-1.738-1.012-2.404-.675-.668-1.48-1-2.416-1h-13.134v16.538h3.565v-5.313zm0-7.66h9.385v3.935h-9.385v-3.935zM185.217 19.524c0-.936-.333-1.739-1-2.405-.667-.666-1.469-1.001-2.404-1.001h-9.754c-.95 0-1.755.331-2.415.99-.66.659-.989 1.465-.989 2.416v9.753c0 .95.33 1.756.989 2.415s1.464.988 2.415.988h9.754c.935 0 1.737-.333 2.404-1 .667-.666 1-1.469 1-2.403v-9.753zm-3.611 9.57h-9.386v-9.386h9.386v9.386zM191.152 32.681h13.112v-3.587h-12.951v-9.386h12.951v-3.59h-13.112c-.952 0-1.757.331-2.416.99-.66.659-.99 1.465-.99 2.416v9.753c0 .95.33 1.756.99 2.415.66.66 1.465.989 2.416.989zM215.582 20.146l-2.071 2.46h-3.243v-6.488h-3.589v16.563h3.589v-6.487h3.243l5.428 6.487h3.728v-1.243l-5.913-7.038 5.913-7.04v-1.242h-3.728zM228.278 32.681h9.754c.936 0 1.737-.333 2.404-1 .667-.666 1-1.469 1-2.403v-3.267c0-.937-.333-1.736-1-2.403s-1.469-1.001-2.404-1.001h-9.592v-2.898h9.386v1.356h3.611v-1.54c0-.936-.333-1.739-1-2.405-.667-.666-1.469-1.001-2.404-1.001h-9.754c-.935 0-1.736.331-2.403.99s-1.001 1.465-1.001 2.416v3.266c0 .95.334 1.757 1.001 2.415a3.297 3.297 0 0 0 2.403.989h9.547v2.899h-9.386v-1.357h-3.566v1.541c0 .95.334 1.756 1.001 2.415a3.296 3.296 0 0 0 2.403.988zM247.257 32.681h9.753c.935 0 1.736-.333 2.403-1a3.277 3.277 0 0 0 1.001-2.403v-9.753c0-.936-.334-1.739-1.001-2.405-.667-.666-1.468-1.001-2.403-1.001h-9.753c-.952 0-1.756.331-2.416.99-.66.659-.989 1.465-.989 2.416v9.753c0 .95.33 1.756.989 2.415s1.464.988 2.416.988zm.161-12.973h9.384v9.386h-9.384v-9.386zM279.529 29.094h-12.996V16.097h-3.566v16.584h16.562zM280.886 16.118h3.589V32.68h-3.589zM302.452 31.681a3.277 3.277 0 0 0 1.001-2.403v-9.753c0-.936-.333-1.739-1.001-2.405a3.312 3.312 0 0 0-2.427-1.001H286.89v16.562h13.135c.949 0 1.76-.333 2.427-1zm-2.612-2.587h-9.384v-9.386h9.384v9.386zM160.941 72.556h7.177V46.608h12.974v-7.176h-33.125v7.176h12.974zM191.719 59.583h19.552v12.973h7.13V39.432h-7.13v12.974h-19.552V39.432h-7.131v33.124h7.131zM254.379 65.379h-23.371v-5.796h18.817v-7.177h-18.817v-5.798h23.371v-7.176h-30.594v33.124h30.594zM295.233 72.556V39.432h-7.407l-11.18 13.388-11.226-13.388h-7.36v33.124h7.13V50.383l11.456 13.57 11.41-13.618v22.221zM331.439 46.608v-7.176h-30.593v33.124h30.593v-7.177h-23.371v-5.796h18.817v-7.177h-18.817v-5.798zM175.985 78.812h-19.46c-1.903 0-3.513.659-4.831 1.978-1.319 1.317-1.978 2.93-1.978 4.829v26.315h7.131v-10.672h18.771v10.672h7.222V85.618c0-1.869-.667-3.471-2-4.806-1.335-1.335-2.954-2-4.855-2zm-.367 15.272h-18.771v-8.097h18.771v8.097zM214.17 78.812h-19.506c-1.871 0-3.473.659-4.807 1.978-1.334 1.317-2.002 2.93-2.002 4.829v6.533c0 1.903.667 3.513 2.002 4.83 1.334 1.32 2.936 1.979 4.807 1.979h19.093v5.797h-18.77v-2.713h-7.132v3.082c0 1.903.667 3.512 2.002 4.829 1.334 1.319 2.936 1.979 4.807 1.979h19.506c1.871 0 3.474-.665 4.809-1.999 1.333-1.336 2.001-2.937 2.001-4.809v-6.532c0-1.872-.667-3.474-2.001-4.809-1.334-1.333-2.938-2.002-4.809-2.002h-19.184v-5.796h18.77v2.714h7.223v-3.083c0-1.869-.667-3.471-2.001-4.806-1.334-1.336-2.937-2.001-4.808-2.001zM251.987 78.812H232.48c-1.871 0-3.473.659-4.807 1.978-1.335 1.317-2.002 2.93-2.002 4.829v6.533c0 1.903.667 3.513 2.002 4.83 1.334 1.32 2.936 1.979 4.807 1.979h19.093v5.797h-18.771v-2.713h-7.131v3.082c0 1.903.667 3.512 2.002 4.829 1.334 1.319 2.936 1.979 4.807 1.979h19.507c1.871 0 3.473-.665 4.808-1.999 1.333-1.336 2-2.937 2-4.809v-6.532c0-1.872-.667-3.474-2-4.809-1.335-1.333-2.938-2.002-4.808-2.002h-19.185v-5.796h18.771v2.714h7.223v-3.083c0-1.869-.667-3.471-2-4.806-1.336-1.336-2.938-2.001-4.809-2.001zM263.765 78.812h7.176v33.122h-7.176zM299.924 78.812h-19.507c-1.872 0-3.473.659-4.808 1.978-1.334 1.317-2 2.93-2 4.829v6.533c0 1.903.667 3.513 2 4.83 1.334 1.32 2.936 1.979 4.808 1.979h19.093v5.797h-18.77v-2.713h-7.13v3.082c0 1.903.667 3.512 2 4.829 1.334 1.319 2.936 1.979 4.808 1.979h19.507c1.871 0 3.474-.665 4.808-1.999 1.334-1.336 2.001-2.937 2.001-4.809v-6.532c0-1.872-.667-3.474-2.001-4.809-1.334-1.333-2.938-2.002-4.808-2.002H280.74v-5.796h18.771v2.714h7.223v-3.083c0-1.869-.667-3.471-2.001-4.806-1.335-1.336-2.938-2.001-4.809-2.001zM309.999 85.987h12.973v25.947h7.179V85.987h12.973v-7.175h-33.125zM372.936 78.812h-19.461c-1.902 0-3.512.659-4.831 1.978-1.319 1.317-1.979 2.93-1.979 4.829v26.315h7.132v-10.672h18.77v10.672h7.224V85.618c0-1.869-.667-3.471-2.002-4.806-1.333-1.335-2.952-2-4.853-2zm-.369 15.272h-18.77v-8.097h18.77v8.097zM410.937 100.895l-18.541-22.083h-7.36v33.122h7.13V89.761l18.633 22.173h7.36V78.812h-7.222zM421.656 78.812v7.175h12.973v25.947h7.177V85.987h12.974v-7.175zM79.831 38.99c-2.01.429-4.273 1.399-6.551 2.821-2.285 1.424-4.147 3.042-5.404 4.674-1.144 1.571-2.271 3.373-1.098 5.605l37.469 59.741h25.889L85.353 40.436c-1.496-2.022-3.618-1.799-5.522-1.446zM92.63 72.662c-2.453 1.551-4.333 3.324-5.322 4.86L70.174 50.176c0-.015.007-.039.015-.06.063-.251.317-.734.756-1.3.875-1.135 2.438-2.554 4.39-3.761 1.707-1.075 3.406-1.82 4.75-2.177 1.086-.332 1.857-.311 2.105-.249l17.126 27.368c-1.808.206-4.238 1.129-6.686 2.665zM114.053 23.004l3.27-2.211 3.675 1.447-1.086-3.786 2.504-3.043-3.943-.135-2.119-3.33-1.351 3.708-3.818.992 3.11 2.429zM63.036 14.913l4.453-7.924-8.995 1.278-6.165-6.698-1.562 8.959-8.277 3.787 8.038 4.267 1.049 9.035 6.543-6.339 8.908 1.801zM42.597 61.703l-3.426-3.505-.704 4.844-4.393 2.007 4.393 2.18.704 4.843 3.426-3.474 4.816.847-2.278-4.275 2.278-4.3zM95.653 28.968l3.958 4.246.962-5.714 5.264-2.454-5.146-2.679-.705-5.773-4.144 4.066-5.692-1.116 2.586 5.194-2.82 5.077z"/></g></svg>