<svg xmlns="http://www.w3.org/2000/svg" xml:space="preserve" id="Oveleon_Contao_Google_Recommendation_Bundle" x="0" y="0" version="1.1" viewBox="0 0 100 100"><style>.st2{fill-rule:evenodd;clip-rule:evenodd;fill:#fff}.st3{opacity:.3;enable-background:new}.st3,.st4{fill:#fff}.st5{fill:none}</style><g id="Hintergrund"><linearGradient id="SVGID_1_" x1="79.731" x2="20.409" y1="-6293.654" y2="-6177.227" gradientTransform="matrix(1 0 0 -1 0 -6185.4)" gradientUnits="userSpaceOnUse"><stop offset="0" stop-color="#04939d"/><stop offset="1" stop-color="#93bfac"/></linearGradient><path fill="url(#SVGID_1_)" d="M0 5.7C0 2.6 2.6 0 5.7 0h88.7c3.1 0 5.7 2.6 5.7 5.7v88.7c0 3.1-2.6 5.7-5.7 5.7H5.7C2.6 100 0 97.4 0 94.3V5.7z"/></g><g opacity=".7"><path d="M89.1 87.7c0-.3-.2-.6-.6-.6s-.8.3-.7.6c.1.4.2.7.7.7.3.1.6-.3.6-.7zm3-1c-.4-.1-.8.5-.4.7.2.2 1.1.4 1.5.7 1.1.7 1.7 1.3 2 2.3.4 1.9 0 5-2.6 5-.7 0-1.6-.3-2-1-.4-.9.2-2.3 1.2-2.5 1.2-.2 1.7.7.7 1.3-1.9 1.1 1 .9 1.5-.1.6-1.2-.6-2.3-2-2.2-1.1.1-2.1.8-2.4 1.8-.9 2.4 1.4 4.4 3.7 4 2.5-.4 3.4-3.1 3.2-5.4-.2-2.5-1.9-3.9-4.4-4.6z" class="st2"/><path d="M90.2 87.1c-.2-.2-.1-.5-.1-.8 0-.1.1-.6-.1-.6h-.4c-.5 0-1.1.2-1.6.5-1 .6-1.8 1.8-1.9 3 .6 0 4.1.1 4.4.1s.5.7-.4.7c-1 0-3.1-.1-4.2-.1-.5 0-.6-.2-.5-.6V89c.3-2.5 2.4-4.1 4.9-4 .4 0 .5.1.5.5v1.1c.1.8-.6.5-.6.5z" class="st2"/></g><circle cx="37.6" cy="21.7" r="2.5" class="st3"/><circle cx="46.9" cy="21.7" r="2.5" class="st3"/><circle cx="56.4" cy="21.7" r="2.5" class="st3"/><circle cx="65.6" cy="21.7" r="2.5" class="st3"/><circle cx="75.1" cy="21.7" r="2.5" class="st3"/><path d="M69.6 20.5c-.1-.4-.5-.7-.9-.8l-1.3-.2-.6-1.2c-.2-.4-.6-.7-1.1-.7-.5 0-.9.3-1.1.7l-.6 1.2-1.3.2c-.4.1-.8.4-.9.8-.1.4 0 .9.3 1.2l.9.9-.1 1.4c-.1.4.1.9.5 1.1.2.1.4.2.7.2.2 0 .4 0 .5-.1l1.2-.6 1.2.6c.4.2.9.2 1.2-.1.4-.3.5-.7.5-1.1l-.2-1.3.9-.9c.2-.4.4-.8.2-1.3zm-2.4 1.2c-.3.3-.4.7-.3 1l.1.9-.8-.4c-.3-.2-.8-.2-1.1 0l-.8.4.1-.9c.1-.4-.1-.8-.3-1l-.6-.6.9-.1c.4-.1.7-.3.9-.6l.4-.8.4.8c.2.3.5.6.9.6l.9.1-.7.6zM79 20.5c-.1-.4-.5-.7-.9-.8l-1.3-.2-.6-1.2c-.2-.4-.6-.7-1.1-.7-.5 0-.9.3-1.1.7l-.6 1.2-1.3.2c-.4.1-.8.4-.9.8s0 .9.3 1.2l.9.9-.2 1.4c-.1.4.1.9.5 1.1.2.1.4.2.7.2.2 0 .4 0 .5-.1l1.2-.6 1.2.6c.4.2.9.2 1.2-.1.4-.3.5-.7.5-1.1l-.2-1.3.9-.9c.3-.4.4-.8.3-1.3zm-2.4 1.2c-.3.3-.4.7-.3 1l.1.9-.8-.4c-.3-.2-.8-.2-1.1 0l-.8.4.1-.9c.1-.4-.1-.8-.3-1l-.5-.6.9-.1c.4-.1.7-.3.9-.6l.4-.8.4.8c.2.3.5.6.9.6l.9.1-.8.6zm-16.3-1.2c-.1-.4-.5-.7-.9-.8l-1.4-.1-.6-1.2c-.2-.4-.6-.7-1.1-.7-.5 0-.9.3-1.1.7l-.6 1.2-1.3.2c-.4.1-.8.4-.9.8-.1.4 0 .9.3 1.2l.9.9-.1 1.3c-.1.4.1.9.5 1.1.2.1.4.2.7.2.2 0 .4 0 .5-.1l1.2-.6 1.2.6c.4.2.9.2 1.2-.1.4-.3.5-.7.5-1.1l-.3-1.3.9-.9c.4-.4.5-.8.4-1.3zm-2.4 1.2c-.3.3-.4.7-.3 1l.1.9-.8-.4c-.3-.2-.8-.2-1.1 0l-.8.4.1-.9c.1-.4-.1-.8-.3-1l-.6-.6.9-.1c.4-.1.7-.3.9-.6l.4-.8.4.8c.2.3.5.6.9.6l.9.1-.7.6zm-7-1.2c-.1-.4-.5-.7-.9-.8l-1.3-.2-.6-1.2c-.2-.4-.6-.7-1.1-.7-.5 0-.9.3-1.1.7l-.6 1.2-1.3.2c-.4.1-.8.4-.9.8-.1.4 0 .9.3 1.2l.9.9-.2 1.4c-.1.4.1.9.5 1.1.2.1.4.2.7.2.2 0 .4 0 .5-.1l1.2-.6 1.2.6c.4.2.9.2 1.2-.1.4-.3.5-.7.5-1.1l-.2-1.3.9-.9c.3-.4.4-.8.3-1.3zm-2.4 1.2c-.3.3-.4.7-.3 1l.1.9-.8-.4c-.3-.2-.8-.2-1.1 0l-.8.4.1-.9c.1-.4-.1-.8-.3-1l-.6-.6.9-.1c.4-.1.7-.3.9-.6l.4-.8.4.8c.2.3.5.6.9.6l.9.1-.7.6zm-7-1.2c-.1-.4-.5-.7-.9-.8l-1.3-.2-.6-1.2c-.2-.4-.6-.7-1.1-.7-.5 0-.9.3-1.1.7l-.5 1.3-1.3.2c-.4.1-.8.4-.9.8-.1.4 0 .9.3 1.2l.9.9-.2 1.3c-.1.4.1.9.5 1.1.2.1.4.2.7.2.2 0 .4 0 .5-.1l1.2-.6 1.2.6c.4.2.9.2 1.2-.1.4-.3.5-.7.5-1.1l-.2-1.3.9-.9c.3-.4.4-.8.2-1.3zm-2.3 1.2c-.3.3-.4.7-.3 1l.1.9-.8-.4c-.3-.2-.8-.2-1.1 0l-.8.4.1-.9c.1-.4-.1-.8-.3-1l-.6-.6.9-.1c.4-.1.7-.3.9-.6l.4-.8.4.8c.2.3.5.6.9.6l.9.1-.7.6zm-20.3-.2c0-3 2.5-5.5 5.5-5.5 1.2 0 2.4.4 3.4 1.1l-1.3 1.7c-.6-.5-1.3-.7-2.1-.7-1.9 0-3.4 1.5-3.4 3.4s1.5 3.4 3.4 3.4c1.5 0 2.8-1 3.2-2.4h-3.2v-2.1h5.5v1c0 3-2.5 5.5-5.5 5.5s-5.5-2.3-5.5-5.4zm7.4 45.1h7.4c.2 0 .5-.1.7-.3.2-.2.3-.4.3-.7v-5.5c0-.2-.1-.5-.3-.7s-.4-.3-.7-.3h-7.4c-.2 0-.5.1-.7.3s-.3.4-.3.7v5.5c0 .2.1.5.3.7.2.2.4.3.7.3zm.9-5.5h5.5v3.7h-5.5v-3.7zm23-1.8h-11c-.5 0-.9.4-.9.9s.4.9.9.9h11c.5 0 .9-.4.9-.9s-.4-.9-.9-.9zm0 5.5h-11c-.5 0-.9.4-.9.9s.4.9.9.9h11c.5 0 .9-.4.9-.9s-.4-.9-.9-.9zm0 5.5H26.3c-.5 0-.9.4-.9.9s.4.9.9.9h23.9c.5 0 .9-.4.9-.9s-.4-.9-.9-.9zm0 4.6H26.3c-.5 0-.9.4-.9.9s.4.9.9.9h23.9c.5 0 .9-.4.9-.9s-.4-.9-.9-.9z" class="st4"/><path d="M43.1 53.7v19.4c0 1.5 1.2 2.8 2.8 2.8h9V53.7H43.1z" class="st5"/><path d="M41.2 73.2V53.7H21.7v25c0 1.5 1.2 2.8 2.8 2.8h27.6c1.5 0 2.8-1.2 2.8-2.8v-1h-9c-2.6.1-4.7-2-4.7-4.5zm-16.8-25c-1.5 0-2.8 1.2-2.8 2.8v.9h19.5v-3.7H24.4zm30.4 3.7V51c0-1.5-1.2-2.8-2.8-2.8h-9v3.7h11.8zm1.9 24h16.8c1.5 0 2.8-1.2 2.8-2.8v-25H55.6c.6.8 1 1.8 1 2.9v24.9h.1zm16.8-33.3H45.8c-1.5 0-2.8 1.2-2.8 2.8v.9h33.1v-.9c.1-1.6-1.1-2.8-2.6-2.8z" class="st5"/><path d="M71.6 53.6h-11c-.5 0-.9.4-.9.9s.4.9.9.9h11c.5 0 .9-.4.9-.9 0-.4-.4-.9-.9-.9zm0 5.6h-11c-.5 0-.9.4-.9.9s.4.9.9.9h11c.5 0 .9-.4.9-.9s-.4-.9-.9-.9z" class="st4"/><path d="M73.5 40.8H45.8c-2.5 0-4.6 2.1-4.6 4.6v1H24.5c-2.5 0-4.6 2.1-4.6 4.6v27.8c0 2.5 2.1 4.6 4.6 4.6H52c2.5 0 4.7-2.2 4.7-4.7v-1h16.8c2.5 0 4.6-2.1 4.6-4.6V45.4c0-2.6-2.1-4.6-4.6-4.6zM21.8 51c0-1.5 1.2-2.8 2.8-2.8h27.6c1.5 0 2.8 1.2 2.8 2.8v.9H41l-19.2.1v-1zm33.1 27.7c0 1.5-1.2 2.9-2.9 2.9H24.5c-1.5 0-2.8-1.2-2.8-2.8v-25l19.2-.1h14v25zm21.3-5.6c0 1.5-1.2 2.8-2.8 2.8H56.7v-4.8h15c.5 0 .9-.4.9-.9s-.5-.9-1-.9H56.7v-2.8h15c.5 0 .9-.4.9-.9-.1-.5-.5-.9-1-.9H56.7V51c0-1.1-.4-2.1-1-2.9h20.5v25zm.1-26.8H43.1v-.9c0-1.5 1.2-2.8 2.8-2.8h27.6c1.5 0 2.8 1.2 2.8 2.8v.9zm-44-8.4h-2.1c-.2 0-.4.2-.4.4 0 .1.1.2.1.3l4.3 3.8c.2.1.4.1.6 0l4.7-3.8c.2-.1.2-.4.1-.6-.1-.1-.2-.2-.3-.2H37c.1-3.4 1.6-5.5 4.4-6.4.2-.1.3-.2.3-.4v-.1c0-.2-.2-.4-.4-.4-5.1.1-8.8 3.2-9 7.4z" class="st4"/></svg>