<svg xmlns="http://www.w3.org/2000/svg" viewBox="0 0 500 432.94"><defs><style>.cls-1{fill:#333a46}.cls-3{fill:#7abfbc}</style></defs><g id="Ebene_2" data-name="Ebene 2"><g id="Fahrzeugmanager"><path d="M405.52 364.46H0L94.48 0H500l-94.48 364.46zM22.16 381.73H7.65v14.57h12.56v4.7H7.65v18.78h-5.3V377h20.43ZM45.15 415.05a3.78 3.78 0 0 0 1.85 1.46l-1.17 4a7.44 7.44 0 0 1-3.68-1.43 6.61 6.61 0 0 1-2.07-3.47 9.61 9.61 0 0 1-8.76 4.9 8.85 8.85 0 0 1-6.86-2.73 10.14 10.14 0 0 1-2.51-7.13q0-5.21 3.37-8t9.57-2.79h4.51v-2.42c0-2.31-.5-4-1.5-5a6.38 6.38 0 0 0-4.63-1.44 23.64 23.64 0 0 0-7.93 1.74l-1.28-4.15a27 27 0 0 1 10.16-2.24c3.45 0 6 .94 7.75 2.82s2.57 4.56 2.57 8v14.95a5.56 5.56 0 0 0 .61 2.93Zm-5.75-3.94v-7.5h-3.85q-8.14 0-8.14 6.7a6.55 6.55 0 0 0 1.28 4.4 4.75 4.75 0 0 0 3.8 1.49c2.93 0 5.24-1.7 6.91-5.09ZM72.41 389a11 11 0 0 1 2.26 7.32v23.43h-5.13V397.1q0-3.47-1.2-4.9a4.31 4.31 0 0 0-3.49-1.42 6.13 6.13 0 0 0-4.07 1.49 15.06 15.06 0 0 0-3.35 4.21v23.25h-5.14V374l5.14-.62v18.22q3.45-5.26 8.7-5.27a7.79 7.79 0 0 1 6.28 2.67ZM97.88 386.69l-.95 5.58a9.51 9.51 0 0 0-2.56-.38 5.24 5.24 0 0 0-4.37 2.24 17.42 17.42 0 0 0-2.62 6.94v18.66H82.2v-32.67h4.41l.5 6.63a12.58 12.58 0 0 1 3.18-5.52 6.68 6.68 0 0 1 4.71-1.86 10.71 10.71 0 0 1 2.88.38ZM118.19 391.4 102.85 415h15.51l-.61 4.77H97v-4.28l15.29-23.56h-14v-4.83h19.86ZM144.64 405.35h-18.75c.23 3.59 1 6.24 2.46 7.93a6.76 6.76 0 0 0 5.47 2.54 10.73 10.73 0 0 0 3.9-.68 14.84 14.84 0 0 0 3.74-2.17l2.23 3.41a15.26 15.26 0 0 1-10.26 4.1 11.36 11.36 0 0 1-9.57-4.47c-2.29-3-3.44-7.07-3.44-12.27a25.75 25.75 0 0 1 1.48-9 14.07 14.07 0 0 1 4.24-6.16 10 10 0 0 1 6.5-2.24 10.47 10.47 0 0 1 9 4.28q3.12 4.28 3.12 11.84c-.01.92-.04 1.9-.12 2.89Zm-5-4.59q0-4.83-1.73-7.38a5.88 5.88 0 0 0-5.19-2.54q-6.31 0-6.87 10.29h13.79ZM172.32 419.73h-4.41l-.39-5.08a12 12 0 0 1-3.85 4.43 9.62 9.62 0 0 1-5.3 1.4 7.42 7.42 0 0 1-6-2.61q-2.18-2.6-2.17-7.38v-23.43h5.13v22.81c0 2.24.35 3.82 1.06 4.75a4.06 4.06 0 0 0 3.46 1.39q4.29 0 7.36-5.64v-23.31h5.14ZM203.84 388.55a14.28 14.28 0 0 1-3.68.8c-1.34.13-3 .19-4.91.19a8.64 8.64 0 0 1 5.19 8.24 11.27 11.27 0 0 1-14.95 10.48 3.43 3.43 0 0 0-1.06 1.33 4 4 0 0 0-.39 1.71q0 2.67 3.85 2.67h4.68a11.4 11.4 0 0 1 5.25 1.17 8.8 8.8 0 0 1 3.54 3.23 8.67 8.67 0 0 1 1.26 4.65 8.55 8.55 0 0 1-3.52 7.34q-3.51 2.58-10.27 2.58a21.09 21.09 0 0 1-7.5-1.09 7.26 7.26 0 0 1-3.93-3.25 11.6 11.6 0 0 1-1.18-5.58h4.63a6.3 6.3 0 0 0 .67 3.13 4.21 4.21 0 0 0 2.4 1.73 15.73 15.73 0 0 0 4.91.59q4.63 0 6.62-1.27a4.23 4.23 0 0 0 2-3.81 4 4 0 0 0-1.57-3.47 7.05 7.05 0 0 0-4.35-1.18h-4.63a8.08 8.08 0 0 1-5.66-1.77 5.74 5.74 0 0 1-1.93-4.43 6.23 6.23 0 0 1 .84-3.1 8.84 8.84 0 0 1 2.4-2.67 9.64 9.64 0 0 1-3.77-3.69 11 11 0 0 1-1.2-5.36 11.79 11.79 0 0 1 1.48-5.89 10.52 10.52 0 0 1 4.07-4.06 11.63 11.63 0 0 1 5.78-1.46 36.47 36.47 0 0 0 5.8-.28 17.41 17.41 0 0 0 3.88-.93c1-.39 2.28-1 3.77-1.7Zm-19.44 3.87a9.65 9.65 0 0 0 0 10.66 5.5 5.5 0 0 0 4.57 2 5.59 5.59 0 0 0 4.6-2 8.43 8.43 0 0 0 1.6-5.49q0-7.26-6.31-7.25a5.4 5.4 0 0 0-4.46 2.08ZM241.68 389a11.29 11.29 0 0 1 2.17 7.29v23.43h-5.13V397.1q0-6.32-4.13-6.32a5.2 5.2 0 0 0-3.68 1.39 19 19 0 0 0-3.24 4.37v23.19h-5.13V397.1q0-6.32-4.13-6.32a5.22 5.22 0 0 0-3.74 1.42 19.18 19.18 0 0 0-3.18 4.34v23.19h-5.14v-32.67h4.41l.45 4.77q3.28-5.52 8.48-5.52a7.21 7.21 0 0 1 4.66 1.55 8.6 8.6 0 0 1 2.76 4.34 15 15 0 0 1 3.82-4.37 8.23 8.23 0 0 1 4.94-1.52 7.08 7.08 0 0 1 5.81 2.69ZM271.81 415.05a3.78 3.78 0 0 0 1.84 1.46l-1.17 4a7.44 7.44 0 0 1-3.69-1.43 6.6 6.6 0 0 1-2.06-3.47 9.61 9.61 0 0 1-8.76 4.9 8.85 8.85 0 0 1-6.86-2.73 10.1 10.1 0 0 1-2.51-7.13q0-5.21 3.37-8t9.57-2.79h4.52v-2.42c0-2.31-.5-4-1.51-5a6.34 6.34 0 0 0-4.63-1.49 23.54 23.54 0 0 0-7.92 1.75l-1.28-4.15a27 27 0 0 1 10.15-2.24q5.19 0 7.76 2.82c1.71 1.89 2.56 4.56 2.56 8v14.95a5.55 5.55 0 0 0 .62 2.97Zm-5.75-3.94v-7.5h-3.85q-8.15 0-8.15 6.7a6.55 6.55 0 0 0 1.29 4.4 4.73 4.73 0 0 0 3.79 1.49q4.41 0 6.92-5.09ZM299.07 389a11 11 0 0 1 2.26 7.32v23.43h-5.14V397.1q0-3.47-1.17-4.9a4.22 4.22 0 0 0-3.46-1.42 6.23 6.23 0 0 0-4.13 1.49 15 15 0 0 0-3.35 4.27v23.19H279v-32.67h4.41l.44 4.83a12.4 12.4 0 0 1 3.88-4.09 9.3 9.3 0 0 1 5.11-1.49 7.79 7.79 0 0 1 6.23 2.69ZM329.28 415.05a3.78 3.78 0 0 0 1.84 1.46l-1.17 4a7.4 7.4 0 0 1-3.68-1.43 6.61 6.61 0 0 1-2.07-3.47 9.61 9.61 0 0 1-8.76 4.9 8.85 8.85 0 0 1-6.86-2.73 10.14 10.14 0 0 1-2.51-7.13q0-5.21 3.37-8t9.57-2.79h4.52v-2.42c0-2.31-.5-4-1.5-5a6.38 6.38 0 0 0-4.63-1.44 23.64 23.64 0 0 0-7.93 1.74l-1.28-4.15a27 27 0 0 1 10.15-2.24q5.19 0 7.76 2.82c1.71 1.89 2.57 4.56 2.57 8v14.95a5.56 5.56 0 0 0 .61 2.93Zm-5.75-3.94v-7.5h-3.85q-8.15 0-8.14 6.7a6.55 6.55 0 0 0 1.28 4.4 4.75 4.75 0 0 0 3.79 1.49q4.39 0 6.92-5.09ZM360.14 388.55a14.46 14.46 0 0 1-3.68.8c-1.34.13-3 .19-4.92.19a8.64 8.64 0 0 1 5.19 8.24 11.27 11.27 0 0 1-15 10.48 3.43 3.43 0 0 0-1.06 1.33 4 4 0 0 0-.39 1.71q0 2.67 3.85 2.67h4.69a11.33 11.33 0 0 1 5.24 1.17 8.6 8.6 0 0 1 4.8 7.88 8.53 8.53 0 0 1-3.52 7.34q-3.51 2.58-10.26 2.58a21.11 21.11 0 0 1-7.51-1.09 7.26 7.26 0 0 1-3.93-3.25 11.72 11.72 0 0 1-1.17-5.58h4.63a6.19 6.19 0 0 0 .67 3.13 4.15 4.15 0 0 0 2.4 1.73 15.69 15.69 0 0 0 4.91.59c3.08 0 5.29-.42 6.61-1.27a4.23 4.23 0 0 0 2-3.81 4.07 4.07 0 0 0-1.56-3.47 7.05 7.05 0 0 0-4.35-1.18h-4.64a8.08 8.08 0 0 1-5.66-1.77 5.76 5.76 0 0 1-1.92-4.43 6.32 6.32 0 0 1 .83-3.1 8.84 8.84 0 0 1 2.4-2.67 9.61 9.61 0 0 1-3.76-3.69 10.92 10.92 0 0 1-1.2-5.36 11.78 11.78 0 0 1 1.47-5.89 10.54 10.54 0 0 1 4.08-4.06 11.59 11.59 0 0 1 5.77-1.46A36.67 36.67 0 0 0 351 386a17.44 17.44 0 0 0 3.87-.93c1-.39 2.28-1 3.77-1.7Zm-19.45 3.87a9.65 9.65 0 0 0 0 10.66 5.51 5.51 0 0 0 4.57 2 5.61 5.61 0 0 0 4.61-2 8.49 8.49 0 0 0 1.59-5.49q0-7.26-6.31-7.25a5.4 5.4 0 0 0-4.46 2.08ZM384.19 405.35h-18.75c.22 3.59 1 6.24 2.45 7.93a6.79 6.79 0 0 0 5.47 2.54 10.78 10.78 0 0 0 3.91-.68A15 15 0 0 0 381 413l2.23 3.41a15.3 15.3 0 0 1-10.27 4.1 11.39 11.39 0 0 1-9.56-4.51c-2.29-3-3.43-7.07-3.43-12.27a25.52 25.52 0 0 1 1.48-9 14 14 0 0 1 4.24-6.16 10 10 0 0 1 6.5-2.24 10.44 10.44 0 0 1 9 4.28q3.13 4.28 3.13 11.84c-.02.93-.06 1.91-.13 2.9Zm-5-4.59q0-4.83-1.73-7.38a5.86 5.86 0 0 0-5.19-2.54q-6.3 0-6.86 10.29h13.78ZM405.67 386.69l-.95 5.58a9.53 9.53 0 0 0-2.57-.38 5.23 5.23 0 0 0-4.4 2.24 17.41 17.41 0 0 0-2.63 6.94v18.66H390v-32.67h4.41l.5 6.63a12.58 12.58 0 0 1 3.18-5.52 6.68 6.68 0 0 1 4.69-1.86 10.71 10.71 0 0 1 2.89.38Z" class="cls-1"/><path d="M372.7 234.08a3.74 3.74 0 0 1-3.79 3.8h-3.51V253a22.73 22.73 0 1 1-45.4 0v-15.12H181.86V253a22.73 22.73 0 0 1-45.46 0v-15.12h-2.31a3.75 3.75 0 0 1-3.8-3.8v-45.45c0-14.66 3.28-22.87 17.67-26.5l24.59-49.6c3.69-8.92 13.2-24.61 33.5-24.61H297c18.95 0 30.61 16.52 33.49 24.61l26.36 49.6c15.9 6.19 15.9 11.84 15.9 26.5Zm-47.13-72-24.48-42.26a5.74 5.74 0 0 0-4.14-3.19h-90.9a5.74 5.74 0 0 0-4.15 3.19l-22.7 42.26s19.76 6.19 72.3 6.19c51.63.05 74.07-6.14 74.07-6.14Z" style="fill:#fff"/><path d="M168.17 181.07A18.93 18.93 0 1 0 187.1 200a19 19 0 0 0-18.93-18.93ZM334.83 181.07A18.93 18.93 0 1 0 353.75 200a19 19 0 0 0-18.92-18.93Z" class="cls-3"/></g></g></svg>