<?xml version="1.0" encoding="utf-8"?>
<svg version="1.1" xmlns="http://www.w3.org/2000/svg" xmlns:xlink="http://www.w3.org/1999/xlink" x="0px" y="0px"
	 viewBox="0 0 32 32" style="enable-background:new 0 0 32 32;" xml:space="preserve">
<style type="text/css">
	.st0{fill:#6AD1DD;}
	.st1{fill:none;stroke:#FFFFFF;stroke-width:2.6362;}
	.st2{fill:#333A46;}
	.st3{fill:#FFFFFF;}
	.st4{fill:#7ABFBC;}
	.st5{display:none;}
	.st6{display:inline;}
	.st7{display:inline;fill:#FFFFFF;}
	.st8{fill:#EF672F;}
</style>
<g id="bg">
	<g>
		<polygon class="st2" points="26,27.7 0,27.7 6,4.3 32,4.3 		"/>
	</g>
</g>
<g id="mobile">
	<g>
		<g>
			<path class="st3" d="M23.8,19.4c0,0.1-0.1,0.2-0.2,0.2h-0.2v1c0,0.8-0.7,1.5-1.5,1.5s-1.5-0.7-1.5-1.5v-1h-8.9v1
				c0,0.8-0.7,1.5-1.5,1.5s-1.5-0.7-1.5-1.5v-1H8.4c-0.1,0-0.2-0.1-0.2-0.2v-2.9c0-0.9,0.2-1.5,1.1-1.7l0,0l1.6-3.2
				c0.2-0.6,0.9-1.6,2.2-1.6h5.9c1.2,0,2,1.1,2.2,1.6l1.7,3.2l0,0c1,0.4,1,0.8,1,1.7V19.4z M20.8,14.7L19.2,12
				c0-0.1-0.2-0.2-0.3-0.2h-5.9c-0.1,0-0.2,0.1-0.3,0.2l-1.5,2.7c0,0,1.3,0.4,4.7,0.4C19.3,15.1,20.8,14.7,20.8,14.7z"/>
		</g>
		<circle class="st4" cx="10.6" cy="17.2" r="1.2"/>
		<circle class="st4" cx="21.4" cy="17.2" r="1.2"/>
	</g>
</g>
</svg>
