<svg xmlns="http://www.w3.org/2000/svg" viewBox="0 0 500 432.94"><defs><style>.cls-1{fill:#333a46;}.cls-2{fill:#fff;}.cls-3{fill:#7abfbc;}</style></defs><g id="Ebene_2" data-name="Ebene 2"><g id="Fahrzeugmanager"><polygon class="cls-1" points="405.52 364.46 0 364.46 94.48 0 500 0 405.52 364.46"/><path class="cls-1" d="M22.16,381.73H7.65V396.3H20.21V401H7.65v18.78H2.35V377H22.78Z"/><path class="cls-1" d="M45.15,415.05A3.78,3.78,0,0,0,47,416.51l-1.17,4a7.44,7.44,0,0,1-3.68-1.43,6.61,6.61,0,0,1-2.07-3.47,9.61,9.61,0,0,1-8.76,4.9,8.85,8.85,0,0,1-6.86-2.73,10.14,10.14,0,0,1-2.51-7.13q0-5.21,3.37-8t9.57-2.79H39.4v-2.42c0-2.31-.5-4-1.5-5A6.38,6.38,0,0,0,33.27,391a23.64,23.64,0,0,0-7.93,1.74l-1.28-4.15a27,27,0,0,1,10.16-2.24c3.45,0,6,.94,7.75,2.82s2.57,4.56,2.57,8v14.95A5.56,5.56,0,0,0,45.15,415.05Zm-5.75-3.94v-7.5H35.55q-8.14,0-8.14,6.7a6.55,6.55,0,0,0,1.28,4.4,4.75,4.75,0,0,0,3.8,1.49C35.42,416.2,37.73,414.5,39.4,411.11Z"/><path class="cls-1" d="M72.41,389a11,11,0,0,1,2.26,7.32v23.43H69.54V397.1q0-3.47-1.2-4.9a4.31,4.31,0,0,0-3.49-1.42,6.13,6.13,0,0,0-4.07,1.49,15.06,15.06,0,0,0-3.35,4.21v23.25H52.29V374l5.14-.62v18.22q3.45-5.26,8.7-5.27A7.79,7.79,0,0,1,72.41,389Z"/><path class="cls-1" d="M97.88,386.69l-.95,5.58a9.51,9.51,0,0,0-2.56-.38A5.24,5.24,0,0,0,90,394.13a17.42,17.42,0,0,0-2.62,6.94v18.66H82.2V387.06h4.41l.5,6.63a12.58,12.58,0,0,1,3.18-5.52A6.68,6.68,0,0,1,95,386.31,10.71,10.71,0,0,1,97.88,386.69Z"/><path class="cls-1" d="M118.19,391.4,102.85,415h15.51l-.61,4.77H97v-4.28l15.29-23.56h-14v-4.83h19.86Z"/><path class="cls-1" d="M144.64,405.35H125.89c.23,3.59,1,6.24,2.46,7.93a6.76,6.76,0,0,0,5.47,2.54,10.73,10.73,0,0,0,3.9-.68,14.84,14.84,0,0,0,3.74-2.17l2.23,3.41a15.26,15.26,0,0,1-10.26,4.1,11.36,11.36,0,0,1-9.57-4.47c-2.29-3-3.44-7.07-3.44-12.27a25.75,25.75,0,0,1,1.48-9,14.07,14.07,0,0,1,4.24-6.16,10,10,0,0,1,6.5-2.24,10.47,10.47,0,0,1,9,4.28q3.12,4.28,3.12,11.84C144.75,403.38,144.72,404.36,144.64,405.35Zm-5-4.59q0-4.83-1.73-7.38a5.88,5.88,0,0,0-5.19-2.54q-6.31,0-6.87,10.29h13.79Z"/><path class="cls-1" d="M172.32,419.73h-4.41l-.39-5.08a12,12,0,0,1-3.85,4.43,9.62,9.62,0,0,1-5.3,1.4,7.42,7.42,0,0,1-6-2.61q-2.18-2.6-2.17-7.38V387.06h5.13v22.81c0,2.24.35,3.82,1.06,4.75a4.06,4.06,0,0,0,3.46,1.39q4.29,0,7.36-5.64V387.06h5.14Z"/><path class="cls-1" d="M203.84,388.55a14.28,14.28,0,0,1-3.68.8c-1.34.13-3,.19-4.91.19a8.64,8.64,0,0,1,5.19,8.24,11.27,11.27,0,0,1-14.95,10.48,3.43,3.43,0,0,0-1.06,1.33,4,4,0,0,0-.39,1.71q0,2.67,3.85,2.67h4.68a11.4,11.4,0,0,1,5.25,1.17,8.8,8.8,0,0,1,3.54,3.23,8.67,8.67,0,0,1,1.26,4.65,8.55,8.55,0,0,1-3.52,7.34q-3.51,2.58-10.27,2.58a21.09,21.09,0,0,1-7.5-1.09,7.26,7.26,0,0,1-3.93-3.25,11.6,11.6,0,0,1-1.18-5.58h4.63a6.3,6.3,0,0,0,.67,3.13,4.21,4.21,0,0,0,2.4,1.73,15.73,15.73,0,0,0,4.91.59q4.63,0,6.62-1.27a4.23,4.23,0,0,0,2-3.81,4,4,0,0,0-1.57-3.47,7.05,7.05,0,0,0-4.35-1.18h-4.63a8.08,8.08,0,0,1-5.66-1.77,5.74,5.74,0,0,1-1.93-4.43,6.23,6.23,0,0,1,.84-3.1,8.84,8.84,0,0,1,2.4-2.67,9.64,9.64,0,0,1-3.77-3.69,11,11,0,0,1-1.2-5.36,11.79,11.79,0,0,1,1.48-5.89,10.52,10.52,0,0,1,4.07-4.06,11.63,11.63,0,0,1,5.78-1.46,36.47,36.47,0,0,0,5.8-.28,17.41,17.41,0,0,0,3.88-.93c1-.39,2.28-1,3.77-1.7Zm-19.44,3.87a9.65,9.65,0,0,0,0,10.66,5.5,5.5,0,0,0,4.57,2,5.59,5.59,0,0,0,4.6-2,8.43,8.43,0,0,0,1.6-5.49q0-7.26-6.31-7.25A5.4,5.4,0,0,0,184.4,392.42Z"/><path class="cls-1" d="M241.68,389a11.29,11.29,0,0,1,2.17,7.29v23.43h-5.13V397.1q0-6.32-4.13-6.32a5.2,5.2,0,0,0-3.68,1.39,19,19,0,0,0-3.24,4.37v23.19h-5.13V397.1q0-6.32-4.13-6.32a5.22,5.22,0,0,0-3.74,1.42,19.18,19.18,0,0,0-3.18,4.34v23.19h-5.14V387.06h4.41l.45,4.77q3.28-5.52,8.48-5.52a7.21,7.21,0,0,1,4.66,1.55,8.6,8.6,0,0,1,2.76,4.34,15,15,0,0,1,3.82-4.37,8.23,8.23,0,0,1,4.94-1.52A7.08,7.08,0,0,1,241.68,389Z"/><path class="cls-1" d="M271.81,415.05a3.78,3.78,0,0,0,1.84,1.46l-1.17,4a7.44,7.44,0,0,1-3.69-1.43,6.6,6.6,0,0,1-2.06-3.47,9.61,9.61,0,0,1-8.76,4.9,8.85,8.85,0,0,1-6.86-2.73,10.1,10.1,0,0,1-2.51-7.13q0-5.21,3.37-8t9.57-2.79h4.52v-2.42c0-2.31-.5-4-1.51-5a6.34,6.34,0,0,0-4.63-1.49A23.54,23.54,0,0,0,252,392.7l-1.28-4.15a27,27,0,0,1,10.15-2.24q5.19,0,7.76,2.82c1.71,1.89,2.56,4.56,2.56,8v14.95A5.55,5.55,0,0,0,271.81,415.05Zm-5.75-3.94v-7.5h-3.85q-8.15,0-8.15,6.7a6.55,6.55,0,0,0,1.29,4.4,4.73,4.73,0,0,0,3.79,1.49Q263.55,416.2,266.06,411.11Z"/><path class="cls-1" d="M299.07,389a11,11,0,0,1,2.26,7.32v23.43h-5.14V397.1q0-3.47-1.17-4.9a4.22,4.22,0,0,0-3.46-1.42,6.23,6.23,0,0,0-4.13,1.49,15,15,0,0,0-3.35,4.27v23.19H279V387.06h4.41l.44,4.83a12.4,12.4,0,0,1,3.88-4.09,9.3,9.3,0,0,1,5.11-1.49A7.79,7.79,0,0,1,299.07,389Z"/><path class="cls-1" d="M329.28,415.05a3.78,3.78,0,0,0,1.84,1.46l-1.17,4a7.4,7.4,0,0,1-3.68-1.43,6.61,6.61,0,0,1-2.07-3.47,9.61,9.61,0,0,1-8.76,4.9,8.85,8.85,0,0,1-6.86-2.73,10.14,10.14,0,0,1-2.51-7.13q0-5.21,3.37-8t9.57-2.79h4.52v-2.42c0-2.31-.5-4-1.5-5A6.38,6.38,0,0,0,317.4,391a23.64,23.64,0,0,0-7.93,1.74l-1.28-4.15a27,27,0,0,1,10.15-2.24q5.19,0,7.76,2.82c1.71,1.89,2.57,4.56,2.57,8v14.95A5.56,5.56,0,0,0,329.28,415.05Zm-5.75-3.94v-7.5h-3.85q-8.15,0-8.14,6.7a6.55,6.55,0,0,0,1.28,4.4,4.75,4.75,0,0,0,3.79,1.49Q321,416.2,323.53,411.11Z"/><path class="cls-1" d="M360.14,388.55a14.46,14.46,0,0,1-3.68.8c-1.34.13-3,.19-4.92.19a8.64,8.64,0,0,1,5.19,8.24,11.27,11.27,0,0,1-15,10.48,3.43,3.43,0,0,0-1.06,1.33,4,4,0,0,0-.39,1.71q0,2.67,3.85,2.67h4.69a11.33,11.33,0,0,1,5.24,1.17,8.6,8.6,0,0,1,4.8,7.88,8.53,8.53,0,0,1-3.52,7.34q-3.51,2.58-10.26,2.58a21.11,21.11,0,0,1-7.51-1.09,7.26,7.26,0,0,1-3.93-3.25,11.72,11.72,0,0,1-1.17-5.58h4.63a6.19,6.19,0,0,0,.67,3.13,4.15,4.15,0,0,0,2.4,1.73,15.69,15.69,0,0,0,4.91.59c3.08,0,5.29-.42,6.61-1.27a4.23,4.23,0,0,0,2-3.81,4.07,4.07,0,0,0-1.56-3.47,7.05,7.05,0,0,0-4.35-1.18h-4.64a8.08,8.08,0,0,1-5.66-1.77,5.76,5.76,0,0,1-1.92-4.43,6.32,6.32,0,0,1,.83-3.1,8.84,8.84,0,0,1,2.4-2.67,9.61,9.61,0,0,1-3.76-3.69,10.92,10.92,0,0,1-1.2-5.36,11.78,11.78,0,0,1,1.47-5.89,10.54,10.54,0,0,1,4.08-4.06,11.59,11.59,0,0,1,5.77-1.46A36.67,36.67,0,0,0,351,386a17.44,17.44,0,0,0,3.87-.93c1-.39,2.28-1,3.77-1.7Zm-19.45,3.87a9.65,9.65,0,0,0,0,10.66,5.51,5.51,0,0,0,4.57,2,5.61,5.61,0,0,0,4.61-2,8.49,8.49,0,0,0,1.59-5.49q0-7.26-6.31-7.25A5.4,5.4,0,0,0,340.69,392.42Z"/><path class="cls-1" d="M384.19,405.35H365.44c.22,3.59,1,6.24,2.45,7.93a6.79,6.79,0,0,0,5.47,2.54,10.78,10.78,0,0,0,3.91-.68A15,15,0,0,0,381,413l2.23,3.41a15.3,15.3,0,0,1-10.27,4.1A11.39,11.39,0,0,1,363.4,416c-2.29-3-3.43-7.07-3.43-12.27a25.52,25.52,0,0,1,1.48-9,14,14,0,0,1,4.24-6.16,10,10,0,0,1,6.5-2.24,10.44,10.44,0,0,1,9,4.28q3.13,4.28,3.13,11.84C384.3,403.38,384.26,404.36,384.19,405.35Zm-5-4.59q0-4.83-1.73-7.38a5.86,5.86,0,0,0-5.19-2.54q-6.3,0-6.86,10.29h13.78Z"/><path class="cls-1" d="M405.67,386.69l-.95,5.58a9.53,9.53,0,0,0-2.57-.38,5.23,5.23,0,0,0-4.4,2.24,17.41,17.41,0,0,0-2.63,6.94v18.66H390V387.06h4.41l.5,6.63a12.58,12.58,0,0,1,3.18-5.52,6.68,6.68,0,0,1,4.69-1.86A10.71,10.71,0,0,1,405.67,386.69Z"/><path class="cls-2" d="M372.7,234.08a3.74,3.74,0,0,1-3.79,3.8H365.4V253A22.73,22.73,0,1,1,320,253V237.88H181.86V253a22.73,22.73,0,0,1-45.46,0V237.88h-2.31a3.75,3.75,0,0,1-3.8-3.8V188.63c0-14.66,3.28-22.87,17.67-26.5h0l24.59-49.6c3.69-8.92,13.2-24.61,33.5-24.61H297c18.95,0,30.61,16.52,33.49,24.61l26.36,49.6h0c15.9,6.19,15.9,11.84,15.9,26.5Zm-47.13-72-24.48-42.26a5.74,5.74,0,0,0-4.14-3.19h-90.9a5.74,5.74,0,0,0-4.15,3.19l-22.7,42.26s19.76,6.19,72.3,6.19C303.13,168.32,325.57,162.13,325.57,162.13Z"/><path class="cls-3" d="M168.17,181.07A18.93,18.93,0,1,0,187.1,200,19,19,0,0,0,168.17,181.07Z"/><path class="cls-3" d="M334.83,181.07A18.93,18.93,0,1,0,353.75,200,19,19,0,0,0,334.83,181.07Z"/></g></g></svg>