<?xml version="1.0" encoding="utf-8"?>
<svg version="1.1" id="Ebene_1" xmlns="http://www.w3.org/2000/svg" xmlns:xlink="http://www.w3.org/1999/xlink" x="0px" y="0px"
	 viewBox="0 0 500 500" style="enable-background:new 0 0 500 500;" xml:space="preserve">
<style type="text/css">
	.st0{fill:#333A46;}
	.st1{fill:none;}
	.st2{fill:#FFFFFF;}
	.st3{fill:#7ABFBC;}
</style>
<g>
	<polygon class="st0" points="405.5,432.2 0,432.2 94.5,67.8 500,67.8 	"/>
</g>
<g>
	<rect y="441" class="st1" width="404" height="60"/>
	<path class="st0" d="M51.5,468.5v28h-6.1v-27c0-5.8-2.3-7.5-4.9-7.5c-3.8,0-5.9,2.7-8.3,6.9v27.7H26v-27c0-5.8-2.3-7.5-4.9-7.5
		c-3.8,0-5.9,2.7-8.3,6.9v27.7H6.7v-39H12l0.5,5.7c2.3-3.9,5.5-6.6,10.1-6.6c4.3,0,7.5,2.6,8.9,7c2.5-4.2,5.7-7,10.5-7
		C47.7,456.6,51.5,461.2,51.5,468.5z"/>
	<path class="st0" d="M90.9,477c0,12.1-5.7,20.4-15.7,20.4c-10,0-15.7-8-15.7-20.4c0-12.1,5.7-20.4,15.7-20.4S90.9,464.6,90.9,477z
		 M66.2,477c0,10.1,3.2,14.9,9.1,14.9c5.9,0,9.1-4.7,9.1-14.9c0-10.1-3.2-14.9-9-14.9C69.5,462.1,66.2,466.8,66.2,477z"/>
	<path class="st0" d="M128.5,477c0,12.2-5.3,20.4-13.8,20.4c-3.9,0-6.9-1.9-9.3-5.2l-0.6,4.3h-5.4v-54.7l6.1-0.8v21.4
		c2.4-3.6,5.7-5.8,9.9-5.8C123.3,456.6,128.5,463.9,128.5,477z M121.9,477c0-11.1-3.3-14.9-8.2-14.9c-3.9,0-6.4,3-8.2,6.1v18.6
		c1.8,3.1,4.6,5.3,7.7,5.3C118.4,492,121.9,487.6,121.9,477z"/>
	<path class="st0" d="M144.6,443.4c0,2.6-1.7,4.6-4.3,4.6c-2.5,0-4.3-2-4.3-4.6c0-2.7,1.7-4.7,4.3-4.7
		C142.9,438.8,144.6,440.8,144.6,443.4z M137.3,496.5v-39h6.1v39H137.3z"/>
	<path class="st0" d="M160.2,488.7c0,2.1,0.6,3.1,2.2,3.1c0.9,0,1.6-0.1,2.3-0.4l1.6,4.7c-1.7,0.9-3.4,1.3-5.2,1.3c-4.5,0-7-3-7-8.6
		v-47l6.1-0.8V488.7z"/>
	<path class="st0" d="M197.9,479.3h-22.4c0.6,9,4.4,12.5,9.5,12.5c3.5,0,6.1-1,9.1-3.4l2.7,4.1c-3.5,3-7.4,4.9-12.3,4.9
		c-9.8,0-15.5-7.6-15.5-20c0-12.1,5.5-20.8,14.6-20.8c9.5,0,14.5,7.3,14.5,19.2C198.1,477.2,198,478.4,197.9,479.3z M192,473.9
		c0-7.6-2.7-11.8-8.3-11.8c-4.7,0-7.7,3.6-8.2,12.3H192V473.9z"/>
	<path class="st0" d="M267.3,468.5v28h-6.1v-27c0-5.8-2.3-7.5-4.9-7.5c-3.8,0-5.9,2.7-8.3,6.9v27.7h-6.1v-27c0-5.8-2.3-7.5-4.9-7.5
		c-3.8,0-5.9,2.7-8.3,6.9v27.7h-6.1v-39h5.3l0.5,5.7c2.3-3.9,5.5-6.6,10.1-6.6c4.3,0,7.5,2.6,8.9,7c2.5-4.2,5.7-7,10.5-7
		C263.5,456.6,267.3,461.2,267.3,468.5z"/>
	<path class="st0" d="M306.7,477c0,12.1-5.7,20.4-15.7,20.4c-10,0-15.7-8-15.7-20.4c0-12.1,5.7-20.4,15.7-20.4
		S306.7,464.6,306.7,477z M282,477c0,10.1,3.2,14.9,9.1,14.9c5.9,0,9.1-4.7,9.1-14.9c0-10.1-3.2-14.9-9-14.9
		C285.3,462.1,282,466.8,282,477z"/>
	<path class="st0" d="M342.3,496.5h-5.4l-0.6-5.4c-2.3,3.9-5.8,6.3-10.1,6.3c-8.5,0-13.3-8.1-13.3-20.2c0-11.9,5.2-20.6,13.8-20.6
		c4.1,0,7.1,2.1,9.5,4.8V441l6.1,0.8V496.5z M336.2,486.2v-19.1c-2.2-3.1-4.7-5.1-8.1-5.1c-5.3,0-8.5,4.9-8.5,15
		c0,10.3,2.9,14.9,8,14.9C331.5,492,333.9,489.8,336.2,486.2z"/>
	<path class="st0" d="M374.2,496.5l-0.5-6.1c-2.7,4.7-5.9,7-10.9,7c-6.1,0-9.8-4.3-9.8-11.9v-28h6.1v27.2c0,5.3,1.6,7.3,5.4,7.3
		s6.7-2.8,8.8-6.7v-27.8h6.1v39H374.2z"/>
	<path class="st0" d="M396.2,488.7c0,2.1,0.6,3.1,2.2,3.1c0.9,0,1.6-0.1,2.3-0.4l1.6,4.7c-1.7,0.9-3.4,1.3-5.2,1.3c-4.5,0-7-3-7-8.6
		v-47l6.1-0.8V488.7z"/>
</g>
<g>
	<g>
		<path class="st2" d="M372.7,301.9c0,2.1-1.7,3.8-3.8,3.8h-3.5v15.2c0,12.5-10.2,22.7-22.7,22.7c-12.5,0-22.7-10.2-22.7-22.7v-15.2
			H181.9v15.2c0,12.5-10.2,22.7-22.7,22.7c-12.5,0-22.7-10.2-22.7-22.7v-15.2h-2.3c-2.1,0-3.8-1.7-3.8-3.8v-45.5
			c0-14.7,3.3-22.9,17.7-26.5l0,0l24.6-49.6c3.7-8.9,13.2-24.6,33.5-24.6h90.9c18.9,0,30.6,16.5,33.5,24.6l26.4,49.6l0,0
			c15.9,6.2,15.9,11.8,15.9,26.5V301.9z M325.6,229.9l-24.5-42.3c-0.3-1.3-2.7-3.2-4.1-3.2H206c-1.4,0-3.8,1.9-4.1,3.2l-22.7,42.3
			c0,0,19.8,6.2,72.3,6.2C303.1,236.1,325.6,229.9,325.6,229.9z"/>
	</g>
	<path class="st3" d="M168.2,248.8c-10.4,0-18.9,8.5-18.9,18.9c0,10.4,8.5,18.9,18.9,18.9c10.4,0,18.9-8.5,18.9-18.9
		C187.1,257.4,178.6,248.8,168.2,248.8z"/>
	<path class="st3" d="M334.8,248.8c-10.4,0-18.9,8.5-18.9,18.9c0,10.4,8.5,18.9,18.9,18.9c10.4,0,18.9-8.5,18.9-18.9
		C353.8,257.4,345.2,248.8,334.8,248.8z"/>
</g>
</svg>