<svg xmlns="http://www.w3.org/2000/svg" viewBox="0 0 32 32"><style>.st4{fill:#7abfbc}</style><path fill="#333a46" d="M26 27.7H0L6 4.3h26z" id="bg"/><g id="mobile"><path d="M23.8 19.4c0 .1-.1.2-.2.2h-.2v1c0 .8-.7 1.5-1.5 1.5s-1.5-.7-1.5-1.5v-1h-8.9v1c0 .8-.7 1.5-1.5 1.5s-1.5-.7-1.5-1.5v-1h-.1c-.1 0-.2-.1-.2-.2v-2.9c0-.9.2-1.5 1.1-1.7l1.6-3.2c.2-.6.9-1.6 2.2-1.6H19c1.2 0 2 1.1 2.2 1.6l1.7 3.2c1 .4 1 .8 1 1.7v2.9zm-3-4.7L19.2 12c0-.1-.2-.2-.3-.2H13c-.1 0-.2.1-.3.2l-1.5 2.7s1.3.4 4.7.4c3.4 0 4.9-.4 4.9-.4z" fill="#fff"/><circle class="st4" cx="10.6" cy="17.2" r="1.2"/><circle class="st4" cx="21.4" cy="17.2" r="1.2"/></g></svg>