<svg xmlns="http://www.w3.org/2000/svg" width="100%" height="100%" viewBox="0 0 2336 2295" fill-rule="evenodd" stroke-linecap="round" stroke-linejoin="round" stroke-miterlimit="10" xmlns:v="https://vecta.io/nano"><g transform="matrix(16.2135 0 0 16.2135 -10.9614 -9.37322)"><path d="M0-.261h145.4v142.7H0z" fill="#c30c2b" fill-rule="nonzero"/><g opacity=".85"><path d="M44.592 24.451a13.32 13.32 0 0 0-12.93 10.098l-11.868 47.45c-.271 1.062-.396 2.145-.396 3.227v19.176a13.34 13.34 0 0 0 13.325 13.325h79.951A13.34 13.34 0 0 0 126 104.402V85.226c0-1.083-.125-2.165-.396-3.227l-11.868-47.45a13.32 13.32 0 0 0-12.93-10.098H44.592zm0 13.325h56.215l9.994 39.975h-10.66c-2.519 0-4.83 1.416-5.955 3.685l-2.977 5.955c-1.124 2.249-3.435 3.685-5.955 3.685H60.187c-2.519 0-4.83-1.416-5.955-3.685l-2.977-5.955c-1.124-2.249-3.435-3.685-5.955-3.685H34.598l9.994-39.975z" fill-rule="nonzero"/></g><g fill-rule="nonzero"><path d="M30.155 54.763c1.242 0 2.307.177 3.194.532s1.597.799 2.129 1.42.976 1.242 1.242 2.041.355 1.508.355 2.396c0 .799-.089 1.597-.355 2.307a4.87 4.87 0 0 1-1.242 2.041c-.532.621-1.242 1.065-2.129 1.42s-1.952.532-3.194.532h-4.614v7.098h-4.348V54.763h8.962zm-1.153 9.405c.532 0 .976 0 1.42-.089s.887-.177 1.242-.444c.355-.177.621-.532.887-.887a3.43 3.43 0 0 0 .355-1.508c0-.621-.089-1.153-.355-1.508a2.13 2.13 0 0 0-.887-.887c-.355-.177-.799-.355-1.242-.444s-.976-.089-1.42-.089H25.63v5.945l3.372-.089zm14.285-9.405v16.148h9.671v3.638H38.939V54.763h4.348zm26.352 0v3.638h-10.47v4.259h9.583v3.372h-9.583v4.88h10.736v3.638H54.821V54.763h14.818zm7.187 0l8.252 13.309h.089V54.763h4.081v19.875H84.9l-8.252-13.309v13.309h-4.081V54.763h4.259zm14.108 3.727v-3.638h16.237v3.638h-5.856v16.148h-4.436V58.489h-5.945v.001zm25.82-3.727l7.453 19.875h-4.525l-1.508-4.436h-7.453l-1.597 4.436h-4.348l7.542-19.875h4.436zm.266 12.244l-2.484-7.276h-.089l-2.573 7.276h5.146zM23.944 86.882c-.089.355-.266.532-.621.532h-.266c-.355 0-.532-.089-.621-.532l-1.153-4.969v-.266c0-.089.089-.177.177-.177h.621c.089 0 .177.089.266.177l.976 4.703 1.153-4.259c.089-.355.177-.444.532-.444h.177c.355 0 .444.089.532.444l1.153 4.259c.089-.71.266-1.42.976-4.703 0-.177.089-.266.266-.266h.621c.089 0 .089.089.089.177s0 .177-.089.266l-1.153 4.969c-.089.355-.177.532-.621.532h-.177c-.444 0-.532-.177-.621-.532l-1.065-4.17c-.266.71-.444 1.331-1.153 4.259h.001zm8.252.444c-.532 0-.887-.177-.887-.887v-4.17c0-.621.266-.887.887-.887h2.484c.089 0 .177.089.177.177v.532c0 .089-.089.177-.177.177h-2.129c-.177 0-.266.089-.266.355v1.242h2.129c.089 0 .177.089.177.177v.444c0 .089-.089.177-.177.177h-2.129v1.42c0 .266.089.355.355.355h2.129c.089 0 .177.089.177.177v.444c0 .089-.089.177-.177.177l-2.573.089v.001zm6.477 0c-.532 0-.799-.266-.799-.799v-4.17c0-.532.266-.887.799-.887h.976c.266 0 .71 0 .887.089.976.089 1.331.532 1.331 1.42 0 .71-.266 1.153-.887 1.331.71.177 1.065.532 1.065 1.42 0 .71-.177 1.242-.799 1.508-.355.089-.887.177-1.597.177l-.976-.089zm.976-3.46c.355 0 .621 0 .799-.089.266-.089.444-.355.444-.799 0-.532-.266-.71-.532-.799-.089-.089-.355-.089-.621-.089h-.621c-.177 0-.266.089-.266.355v1.331c-.089.089.799.089.799.089l-.002.001zm-.887 2.307c0 .266.089.355.355.355h.71c.355 0 .71 0 .799-.089.266-.089.444-.355.444-.887 0-.444-.177-.621-.444-.799-.177-.089-.444-.089-.799-.089h-.976v1.508h-.089v.001zm12.688 1.153c-.532 0-.887-.177-.887-.887v-4.17c0-.621.266-.887.887-.887h2.484c.089 0 .177.089.177.177v.532c0 .089-.089.177-.177.177h-2.129c-.177 0-.266.089-.266.355v1.242h2.129c.089 0 .177.089.177.177v.444c0 .089-.089.177-.177.177h-2.129v1.42c0 .266.089.355.355.355h2.218c.089 0 .177.089.177.177v.444c0 .089-.089.177-.177.177l-2.662.089v.001zm6.3 0h-.532c-.089 0-.177-.089-.177-.266v-5.057c0-.444.177-.71.621-.71h.266c.355 0 .532.177.621.532l2.129 4.259v-4.436c0-.177.089-.266.266-.266h.532c.177 0 .177.089.177.266v5.146c0 .444-.266.532-.532.532h-.177c-.444 0-.532-.177-.71-.532l-2.218-4.259v4.614c0 .089-.089.177-.266.177zm9.052 0h-.534c-.089 0-.177-.089-.177-.266v-4.791h-1.508c-.089 0-.177-.089-.177-.177v-.444c0-.177.089-.177.177-.177h3.904c.089 0 .177.089.177.177v.444c0 .089-.089.177-.177.177h-1.508v4.791c0 .177-.089.266-.177.266zm6.741-.444c-.089.355-.266.532-.621.532h-.266c-.355 0-.532-.089-.621-.532l-1.153-4.969v-.266c0-.089.089-.177.177-.177h.621c.089 0 .177.089.266.177l.976 4.703 1.153-4.259c.089-.355.177-.444.532-.444h.177c.355 0 .444.089.532.444l1.153 4.259c.089-.71.266-1.42.976-4.703 0-.177.089-.266.266-.266h.621c.089 0 .089.089.089.177s0 .177-.089.266l-1.242 4.969c-.089.355-.177.532-.621.532h-.177c-.444 0-.532-.177-.621-.532l-1.065-4.17c-.089.71-.266 1.331-1.065 4.259h.002zm8.163.444h-.532c-.089 0-.177-.089-.177-.266v-5.501c0-.089.089-.266.177-.266h.532c.014-.005.029-.007.044-.007a.14.14 0 0 1 .14.14c0 .015-.002.03-.007.044v5.501c0 .266-.089.355-.177.355zm5.59-.71c.532 0 .887-.089 1.153-.177.089 0 .177-.089.266-.089s.089 0 .177.089.089.355.089.444-.089.177-.177.177c-.532.177-1.065.266-1.686.266-1.42 0-2.307-.71-2.307-2.928s.621-3.194 2.484-3.194c.532 0 1.065.089 1.42.089.089 0 .177.089.177.177s-.089.355-.089.532c0 .089-.089.089-.177.089s-.177 0-.266-.089c-.266-.089-.532-.089-.976-.089-1.331 0-1.597.799-1.597 2.218 0 1.686.266 2.484 1.508 2.484l.001.001zm4.969.71h-.532c-.089 0-.177-.089-.177-.266v-5.501c0-.089.089-.266.177-.266h.532c.014-.005.029-.007.044-.007a.14.14 0 0 1 .14.14c0 .015-.002.03-.007.044v2.218h.532c.177 0 .266-.089.355-.177l1.42-2.129c.089-.089.177-.177.266-.177h.532c.089 0 .177.089.177.177s-.089.177-.089.177l-1.686 2.484c.177.355.532.71 1.775 2.662.089.089.089.177.089.266s-.089.089-.089.177h-.71c-.089 0-.177-.089-.266-.177l-1.42-2.129c-.089-.089-.177-.089-.355-.089h-.532v2.396c.089.089 0 .177-.177.177h.001zm7.098 0c-.532 0-.799-.266-.799-.799v-4.88c0-.089.089-.266.177-.266h.532c.014-.005.029-.007.044-.007a.14.14 0 0 1 .14.14c0 .015-.002.03-.007.044v4.525c0 .177.089.355.355.355h2.129c.089 0 .177.089.177.177v.444c0 .089-.089.177-.177.177h-2.573v.089l.002.001zm9.494-2.396c0 .799-.089 1.331-.266 1.686-.355.532-.976.799-2.041.799-.887 0-1.686-.177-1.952-.887-.177-.355-.177-.976-.177-1.597v-3.372c0-.089.089-.177.177-.177h.532c.089 0 .177.089.177.177v3.638c0 .444 0 .799.177.976.177.266.532.355 1.065.355.355 0 .887-.089 1.065-.355.089-.177.177-.532.177-.976v-3.638c0-.089.089-.177.177-.177h.532c.089 0 .177.089.177.177l.177 3.372.003-.001zm3.904 2.396h-.532c-.089 0-.177-.089-.177-.266v-5.057c0-.444.177-.71.621-.71h.266c.355 0 .532.177.621.532l2.129 4.259v-4.436c0-.177.089-.266.266-.266h.532c.177 0 .177.089.177.266v5.146c0 .444-.266.532-.532.532h-.177c-.444 0-.532-.177-.71-.532l-2.218-4.259v4.614c-.089.089-.177.177-.266.177zm11.268-.355l-.177.177c-.355.089-1.065.266-1.952.266-1.508 0-2.396-.71-2.396-2.928s.71-3.194 2.662-3.194c.532 0 1.153.089 1.508.089.177.089.177.089.177.177s-.089.355-.089.532c0 .089-.089.089-.177.089h-.266c-.266-.089-.621-.089-1.153-.089-1.331 0-1.686.799-1.686 2.218s.266 2.307 1.508 2.307c.532 0 .799-.089 1.065-.089.089 0 .177-.089.177-.266v-1.241h-1.153c-.089 0-.177-.089-.177-.177v-.532c0-.089.089-.177.177-.177h1.775c.089 0 .177.089.177.177v2.662-.001z" fill="#fff"/><path d="M45.688 81.888l1.242 2.573m0 0l-1.242 2.573" stroke="#fff" stroke-width=".78"/></g></g></svg>