<?xml version="1.0" encoding="UTF-8" standalone="no"?>
<!DOCTYPE svg PUBLIC "-//W3C//DTD SVG 1.1//EN" "http://www.w3.org/Graphics/SVG/1.1/DTD/svg11.dtd">
<svg width="100%" height="100%" viewBox="0 0 2336 2295" version="1.1" xmlns="http://www.w3.org/2000/svg" xmlns:xlink="http://www.w3.org/1999/xlink" xml:space="preserve" xmlns:serif="http://www.serif.com/" style="fill-rule:evenodd;clip-rule:evenodd;stroke-linecap:round;stroke-linejoin:round;stroke-miterlimit:10;">
    <g transform="matrix(16.2135,0,0,16.2135,-10.9614,-9.37322)">
        <rect x="0" y="0" width="145.4" height="142.7" style="fill:rgb(195,12,43);fill-rule:nonzero;"/>
        <g transform="matrix(0.204467,0,0,0.204467,72.7,71.35)">
            <g opacity="0.8">
                <g transform="matrix(1,0,0,1,-256,-256)">
                    <path d="M3.9,54.9C10.5,40.9 24.5,32 40,32L472,32C487.5,32 501.5,40.9 508.1,54.9C514.7,68.9 512.7,85.4 502.9,97.4L320,320.9L320,448C320,460.1 313.2,471.2 302.3,476.6C291.4,482 278.5,480.9 268.8,473.6L204.8,425.6C196.7,419.6 192,410.1 192,400L192,320.9L9,97.3C-0.7,85.4 -2.8,68.8 3.9,54.9Z" style="fill-rule:nonzero;"/>
                </g>
            </g>
        </g>
        <path d="M30.155,55.024C31.397,55.024 32.462,55.201 33.349,55.556C34.236,55.911 34.946,56.355 35.478,56.976C36.01,57.597 36.454,58.218 36.72,59.017C36.986,59.816 37.075,60.525 37.075,61.413C37.075,62.212 36.986,63.01 36.72,63.72C36.482,64.493 36.055,65.194 35.478,65.761C34.946,66.382 34.236,66.826 33.349,67.181C32.462,67.536 31.397,67.713 30.155,67.713L25.541,67.713L25.541,74.811L21.193,74.811L21.193,55.024L30.155,55.024ZM29.002,64.429C29.534,64.429 29.978,64.429 30.422,64.34C30.866,64.251 31.309,64.163 31.664,63.896C32.019,63.719 32.285,63.364 32.551,63.009C32.783,62.54 32.904,62.024 32.906,61.501C32.906,60.88 32.817,60.348 32.551,59.993C32.351,59.615 32.042,59.306 31.664,59.106C31.309,58.929 30.865,58.751 30.422,58.662C29.979,58.573 29.446,58.573 29.002,58.573L25.63,58.573L25.63,64.518L29.002,64.429ZM43.287,55.024L43.287,71.172L52.958,71.172L52.958,74.81L38.939,74.81L38.939,55.024L43.287,55.024ZM69.639,55.024L69.639,58.662L59.169,58.662L59.169,62.921L68.752,62.921L68.752,66.293L59.169,66.293L59.169,71.173L69.905,71.173L69.905,74.811L54.821,74.811L54.821,55.024L69.639,55.024ZM76.826,55.024L85.078,68.333L85.167,68.333L85.167,55.024L89.248,55.024L89.248,74.899L84.9,74.899L76.648,61.59L76.648,74.899L72.567,74.899L72.567,55.024L76.826,55.024ZM90.934,58.751L90.934,55.113L107.171,55.113L107.171,58.751L101.315,58.751L101.315,74.899L96.879,74.899L96.879,58.75L90.934,58.75L90.934,58.751ZM116.754,55.024L124.207,74.899L119.682,74.899L118.174,70.463L110.721,70.463L109.124,74.899L104.776,74.899L112.318,55.024L116.754,55.024ZM117.02,67.268L114.536,59.992L114.447,59.992L111.874,67.268L117.02,67.268ZM23.944,87.143C23.855,87.498 23.678,87.675 23.323,87.675L23.057,87.675C22.702,87.675 22.525,87.586 22.436,87.143L21.283,82.174L21.283,81.908C21.283,81.819 21.372,81.731 21.46,81.731L22.081,81.731C22.17,81.731 22.258,81.82 22.347,81.908L23.323,86.611L24.476,82.352C24.565,81.997 24.653,81.908 25.008,81.908L25.185,81.908C25.54,81.908 25.629,81.997 25.717,82.352L26.87,86.611C26.959,85.901 27.136,85.191 27.846,81.908C27.846,81.731 27.935,81.642 28.112,81.642L28.733,81.642C28.822,81.642 28.822,81.731 28.822,81.819C28.822,81.907 28.822,81.996 28.733,82.085L27.58,87.054C27.491,87.409 27.403,87.586 26.959,87.586L26.782,87.586C26.338,87.586 26.25,87.409 26.161,87.054L25.096,82.884C24.83,83.594 24.652,84.215 23.943,87.143L23.944,87.143ZM32.196,87.587C31.664,87.587 31.309,87.41 31.309,86.7L31.309,82.53C31.309,81.909 31.575,81.643 32.196,81.643L34.68,81.643C34.769,81.643 34.857,81.732 34.857,81.82L34.857,82.352C34.857,82.441 34.768,82.529 34.68,82.529L32.551,82.529C32.374,82.529 32.285,82.618 32.285,82.884L32.285,84.126L34.414,84.126C34.503,84.126 34.591,84.215 34.591,84.303L34.591,84.747C34.591,84.836 34.502,84.924 34.414,84.924L32.285,84.924L32.285,86.344C32.285,86.61 32.374,86.699 32.64,86.699L34.769,86.699C34.858,86.699 34.946,86.788 34.946,86.876L34.946,87.32C34.946,87.409 34.857,87.497 34.769,87.497L32.196,87.586L32.196,87.587ZM38.673,87.587C38.141,87.587 37.874,87.321 37.874,86.788L37.874,82.618C37.874,82.086 38.14,81.731 38.673,81.731L39.649,81.731C39.915,81.731 40.359,81.731 40.536,81.82C41.512,81.909 41.867,82.352 41.867,83.24C41.867,83.95 41.601,84.393 40.98,84.571C41.69,84.748 42.045,85.103 42.045,85.991C42.045,86.701 41.868,87.233 41.246,87.499C40.891,87.588 40.359,87.676 39.649,87.676L38.673,87.587ZM39.649,84.127C40.004,84.127 40.27,84.127 40.448,84.038C40.714,83.949 40.892,83.683 40.892,83.239C40.892,82.707 40.626,82.529 40.36,82.44C40.271,82.351 40.005,82.351 39.739,82.351L39.118,82.351C38.941,82.351 38.852,82.44 38.852,82.706L38.852,84.037C38.763,84.126 39.651,84.126 39.651,84.126L39.649,84.127ZM38.762,86.434C38.762,86.7 38.851,86.789 39.117,86.789L39.827,86.789C40.182,86.789 40.537,86.789 40.626,86.7C40.892,86.611 41.07,86.345 41.07,85.813C41.07,85.369 40.893,85.192 40.626,85.014C40.449,84.925 40.182,84.925 39.827,84.925L38.851,84.925L38.851,86.433L38.762,86.433L38.762,86.434ZM51.45,87.587C50.918,87.587 50.563,87.41 50.563,86.7L50.563,82.53C50.563,81.909 50.829,81.643 51.45,81.643L53.934,81.643C54.023,81.643 54.111,81.732 54.111,81.82L54.111,82.352C54.111,82.441 54.022,82.529 53.934,82.529L51.805,82.529C51.628,82.529 51.539,82.618 51.539,82.884L51.539,84.126L53.668,84.126C53.757,84.126 53.845,84.215 53.845,84.303L53.845,84.747C53.845,84.836 53.756,84.924 53.668,84.924L51.539,84.924L51.539,86.344C51.539,86.61 51.628,86.699 51.894,86.699L54.112,86.699C54.201,86.699 54.289,86.788 54.289,86.876L54.289,87.32C54.289,87.409 54.2,87.497 54.112,87.497L51.45,87.586L51.45,87.587ZM57.75,87.587L57.218,87.587C57.129,87.587 57.041,87.498 57.041,87.321L57.041,82.264C57.041,81.82 57.218,81.554 57.662,81.554L57.928,81.554C58.283,81.554 58.46,81.731 58.549,82.086L60.678,86.345L60.678,81.909C60.678,81.732 60.767,81.643 60.944,81.643L61.476,81.643C61.653,81.643 61.653,81.732 61.653,81.909L61.653,87.055C61.653,87.499 61.387,87.587 61.121,87.587L60.944,87.587C60.5,87.587 60.412,87.41 60.234,87.055L58.016,82.796L58.016,87.41C58.016,87.499 57.927,87.587 57.75,87.587ZM66.802,87.587L66.268,87.587C66.179,87.587 66.091,87.498 66.091,87.321L66.091,82.53L64.583,82.53C64.494,82.53 64.406,82.441 64.406,82.353L64.406,81.909C64.406,81.732 64.495,81.732 64.583,81.732L68.487,81.732C68.576,81.732 68.664,81.821 68.664,81.909L68.664,82.353C68.664,82.442 68.575,82.53 68.487,82.53L66.979,82.53L66.979,87.321C66.979,87.498 66.89,87.587 66.802,87.587ZM73.543,87.143C73.454,87.498 73.277,87.675 72.922,87.675L72.656,87.675C72.301,87.675 72.124,87.586 72.035,87.143L70.882,82.174L70.882,81.908C70.882,81.819 70.971,81.731 71.059,81.731L71.68,81.731C71.769,81.731 71.857,81.82 71.946,81.908L72.922,86.611L74.075,82.352C74.164,81.997 74.252,81.908 74.607,81.908L74.784,81.908C75.139,81.908 75.228,81.997 75.316,82.352L76.469,86.611C76.558,85.901 76.735,85.191 77.445,81.908C77.445,81.731 77.534,81.642 77.711,81.642L78.332,81.642C78.421,81.642 78.421,81.731 78.421,81.819C78.421,81.907 78.421,81.996 78.332,82.085L77.09,87.054C77.001,87.409 76.913,87.586 76.469,87.586L76.292,87.586C75.848,87.586 75.76,87.409 75.671,87.054L74.606,82.884C74.517,83.594 74.34,84.215 73.541,87.143L73.543,87.143ZM81.706,87.587L81.174,87.587C81.085,87.587 80.997,87.498 80.997,87.321L80.997,81.82C80.997,81.731 81.086,81.554 81.174,81.554L81.706,81.554C81.72,81.549 81.735,81.547 81.75,81.547C81.827,81.547 81.89,81.61 81.89,81.687C81.89,81.702 81.888,81.717 81.883,81.731L81.883,87.232C81.883,87.498 81.794,87.587 81.706,87.587ZM87.296,86.877C87.828,86.877 88.183,86.788 88.449,86.7C88.538,86.7 88.626,86.611 88.715,86.611C88.804,86.611 88.804,86.611 88.892,86.7C88.98,86.789 88.981,87.055 88.981,87.144C88.981,87.233 88.892,87.321 88.804,87.321C88.272,87.498 87.739,87.587 87.118,87.587C85.698,87.587 84.811,86.877 84.811,84.659C84.811,82.441 85.432,81.465 87.295,81.465C87.827,81.465 88.36,81.554 88.715,81.554C88.804,81.554 88.892,81.643 88.892,81.731C88.892,81.819 88.803,82.086 88.803,82.263C88.803,82.352 88.714,82.352 88.626,82.352C88.538,82.352 88.449,82.352 88.36,82.263C88.094,82.174 87.828,82.174 87.384,82.174C86.053,82.174 85.787,82.973 85.787,84.392C85.787,86.078 86.053,86.876 87.295,86.876L87.296,86.877ZM92.265,87.587L91.733,87.587C91.644,87.587 91.556,87.498 91.556,87.321L91.556,81.82C91.556,81.731 91.645,81.554 91.733,81.554L92.265,81.554C92.279,81.549 92.294,81.547 92.309,81.547C92.386,81.547 92.449,81.61 92.449,81.687C92.449,81.702 92.447,81.717 92.442,81.731L92.442,83.949L92.974,83.949C93.151,83.949 93.24,83.86 93.329,83.772L94.749,81.643C94.838,81.554 94.926,81.466 95.015,81.466L95.547,81.466C95.636,81.466 95.724,81.555 95.724,81.643C95.724,81.731 95.635,81.82 95.635,81.82L93.949,84.304C94.126,84.659 94.481,85.014 95.724,86.966C95.813,87.055 95.813,87.143 95.813,87.232C95.813,87.321 95.724,87.321 95.724,87.409L95.014,87.409C94.925,87.409 94.837,87.32 94.748,87.232L93.328,85.103C93.239,85.014 93.151,85.014 92.973,85.014L92.441,85.014L92.441,87.41C92.53,87.499 92.441,87.587 92.264,87.587L92.265,87.587ZM99.363,87.587C98.831,87.587 98.564,87.321 98.564,86.788L98.564,81.908C98.564,81.819 98.653,81.642 98.741,81.642L99.273,81.642C99.287,81.637 99.302,81.635 99.317,81.635C99.394,81.635 99.457,81.698 99.457,81.775C99.457,81.79 99.455,81.805 99.45,81.819L99.45,86.344C99.45,86.521 99.539,86.699 99.805,86.699L101.934,86.699C102.023,86.699 102.111,86.788 102.111,86.876L102.111,87.32C102.111,87.409 102.022,87.497 101.934,87.497L99.361,87.497L99.361,87.586L99.363,87.587ZM108.857,85.191C108.857,85.99 108.768,86.522 108.591,86.877C108.236,87.409 107.615,87.676 106.55,87.676C105.663,87.676 104.864,87.499 104.598,86.789C104.421,86.434 104.421,85.813 104.421,85.192L104.421,81.82C104.421,81.731 104.51,81.643 104.598,81.643L105.13,81.643C105.219,81.643 105.307,81.732 105.307,81.82L105.307,85.458C105.307,85.902 105.307,86.257 105.484,86.434C105.661,86.7 106.016,86.789 106.549,86.789C106.904,86.789 107.436,86.7 107.614,86.434C107.703,86.257 107.791,85.902 107.791,85.458L107.791,81.82C107.791,81.731 107.88,81.643 107.968,81.643L108.5,81.643C108.589,81.643 108.677,81.732 108.677,81.82L108.854,85.192L108.857,85.191ZM112.761,87.587L112.229,87.587C112.14,87.587 112.052,87.498 112.052,87.321L112.052,82.264C112.052,81.82 112.229,81.554 112.673,81.554L112.939,81.554C113.294,81.554 113.471,81.731 113.56,82.086L115.689,86.345L115.689,81.909C115.689,81.732 115.778,81.643 115.955,81.643L116.487,81.643C116.664,81.643 116.664,81.732 116.664,81.909L116.664,87.055C116.664,87.499 116.398,87.587 116.132,87.587L115.955,87.587C115.511,87.587 115.423,87.41 115.245,87.055L113.027,82.796L113.027,87.41C112.938,87.499 112.85,87.587 112.761,87.587ZM124.029,87.232L123.852,87.409C123.497,87.498 122.787,87.675 121.9,87.675C120.392,87.675 119.504,86.965 119.504,84.747C119.504,82.529 120.214,81.553 122.166,81.553C122.698,81.553 123.319,81.642 123.674,81.642C123.851,81.731 123.851,81.731 123.851,81.819C123.851,81.907 123.762,82.174 123.762,82.351C123.762,82.44 123.673,82.44 123.585,82.44L123.319,82.44C123.053,82.351 122.698,82.351 122.166,82.351C120.835,82.351 120.48,83.15 120.48,84.569C120.48,85.988 120.746,86.876 121.988,86.876C122.52,86.876 122.787,86.787 123.053,86.787C123.142,86.787 123.23,86.698 123.23,86.521L123.23,85.28L122.077,85.28C121.988,85.28 121.9,85.191 121.9,85.103L121.9,84.571C121.9,84.482 121.989,84.394 122.077,84.394L123.852,84.394C123.941,84.394 124.029,84.483 124.029,84.571L124.029,87.233L124.029,87.232Z" style="fill:white;fill-rule:nonzero;"/>
        <g transform="matrix(1,0,0,1,-0.124109,0.0749085)">
            <path d="M45.682,82.086L46.924,84.659M46.924,84.659L45.682,87.232" style="fill-rule:nonzero;stroke:white;stroke-width:0.78px;"/>
        </g>
    </g>
</svg>
