<?xml version="1.0" encoding="utf-8"?>
<!-- Generator: Adobe Illustrator 23.1.0, SVG Export Plug-In . SVG Version: 6.00 Build 0)  -->
<svg version="1.1" id="travel_x5F_costs" xmlns="http://www.w3.org/2000/svg" xmlns:xlink="http://www.w3.org/1999/xlink" x="0px"
	 y="0px" viewBox="0 0 191.8 150" style="enable-background:new 0 0 191.8 150;" xml:space="preserve">
<style type="text/css">
	.st0{fill:none;stroke:#3C3C3C;stroke-width:2.4696;}
	.st1{fill:#3C3C3C;}
	.st2{fill:#4A7628;}
</style>
<path class="st0" d="M26.8,6.6c0,0-19.2,0-19.2,19.2V125c0,0,0,19.2,19.2,19.2h139.4c0,0,19.2,0,19.2-19.2V25.8
	c0,0,0-19.2-19.2-19.2H26.8z"/>
<g>
	<path class="st1" d="M22.5,107.2c0,1-0.5,1.5-1.5,1.5c-1,0-1.5-0.5-1.5-1.5c0-0.9,0.5-1.4,1.5-1.4C22,105.7,22.5,106.2,22.5,107.2z
		 M21.8,111.2c0.3,0,0.4,0.1,0.4,0.4v12.9c0,0.3-0.1,0.4-0.4,0.4h-1.7c-0.3,0-0.4-0.1-0.4-0.4v-12.9c0-0.3,0.1-0.4,0.4-0.4H21.8z"/>
	<path class="st1" d="M37.2,118c0,5.6-1,6.9-5.9,6.9c-4.9,0-6-1.4-6-6.9c0-5.6,1-7,6-7C36.2,111,37.2,112.4,37.2,118z M27.8,118
		c0,3.9,0.4,4.8,3.5,4.8c3.1,0,3.5-1,3.5-4.8c0-3.9-0.4-4.9-3.5-4.9C28.1,113.1,27.8,114.1,27.8,118z"/>
	<path class="st1" d="M48.7,107.4c0.3-0.1,0.4,0,0.4,0.3v3.5h2.7c0.3,0,0.4,0.1,0.4,0.4v1.2c0,0.3-0.1,0.4-0.4,0.4h-2.7v8.4
		c0,1.1,0.3,1.3,1.7,1.3h1.2c0.3,0,0.4,0.1,0.4,0.3v1.2c0,0.2-0.1,0.3-0.4,0.4c-0.5,0.1-1.2,0.2-1.4,0.2c-1.8,0-3.9,0-3.9-2.8v-9
		h-1.4c-0.3,0-0.4-0.1-0.4-0.4v-1.2c0-0.2,0.1-0.4,0.4-0.4h1.4v-3c0-0.3,0.1-0.3,0.3-0.4L48.7,107.4z"/>
	<path class="st1" d="M61.6,111.3c0.3,0.1,0.4,0.2,0.4,0.4v1.1c0,0.2-0.2,0.4-0.4,0.3h-2.2c-1.8,0-2.2,0.3-2.2,1.4v9.9
		c0,0.3-0.1,0.4-0.4,0.4h-1.7c-0.3,0-0.4-0.1-0.4-0.4V114c0-2.8,2.6-2.9,4-2.9C59.4,111,61.1,111.1,61.6,111.3z"/>
	<path class="st1" d="M74,115v8.7c0,0.2,0,0.5-0.5,0.7c-0.9,0.3-3.1,0.6-5.7,0.6c-3.4,0-4.9-0.7-4.9-4c0-3,1.6-3.8,4.5-3.8l4.1,0
		v-1.7c0-1.5-0.9-2.2-3.3-2.2h-3.8c-0.3,0-0.4-0.1-0.4-0.4v-1c0-0.3,0.1-0.3,0.4-0.4c1.5-0.3,2.8-0.3,3.9-0.3
		C72.2,111,74,112.2,74,115z M67.5,119c-1.4,0-2.1,0.5-2.1,1.9c0,1.6,0.8,2,2.9,2c0.8,0,2.3,0,3.3-0.3V119H67.5z"/>
	<path class="st1" d="M88.4,111.2c0.3,0,0.4,0.1,0.3,0.4L85.9,122c-0.7,2.6-0.8,2.9-3.4,2.9c-2.4,0-2.5-0.4-3.2-2.9l-3-10.5
		c-0.1-0.3,0-0.4,0.3-0.4h1.9c0.2,0,0.2,0.1,0.3,0.4l2.8,9.9c0.3,1.1,0.4,1.3,0.9,1.3c0.7,0,0.8-0.2,1.1-1.3l2.7-9.9
		c0.1-0.3,0.1-0.4,0.3-0.4H88.4z"/>
	<path class="st1" d="M102.3,117.6v0.7c0,0.5-0.1,0.7-0.9,0.7h-8.1c0.1,3,0.7,3.8,3.4,3.8h4.2c0.3,0,0.4,0.1,0.4,0.4v1.1
		c0,0.2-0.1,0.4-0.4,0.4c-1.3,0.2-2.7,0.2-4.3,0.2c-4.8,0-5.8-1.4-5.8-6.9c0-5.6,1-7,5.8-7C101.2,111,102.3,112.4,102.3,117.6z
		 M93.2,117.1h6.6c-0.1-3.2-0.6-4-3.2-4C93.9,113.1,93.3,113.9,93.2,117.1z"/>
	<path class="st1" d="M107.2,105.9c0.3,0,0.4,0.1,0.4,0.4v18.2c0,0.3-0.1,0.4-0.4,0.4h-1.7c-0.3,0-0.4-0.1-0.4-0.4v-18.2
		c0-0.3,0.1-0.4,0.4-0.4H107.2z"/>
	<path class="st1" d="M126.3,111.3c0.2,0,0.4,0.2,0.4,0.4v1.1c0,0.3-0.1,0.4-0.4,0.4h-3.9c-3.1,0-3.5,1-3.5,4.9
		c0,3.9,0.4,4.8,3.5,4.8h3.9c0.3,0,0.4,0.1,0.4,0.4v1.1c0,0.3-0.1,0.4-0.4,0.4c-1.3,0.2-2.8,0.2-3.9,0.2c-5,0-5.9-1.4-5.9-6.9
		c0-5.6,1-7,5.9-7C123.5,111,125,111.1,126.3,111.3z"/>
	<path class="st1" d="M140.6,118c0,5.6-1,6.9-5.9,6.9c-4.9,0-6-1.4-6-6.9c0-5.6,1-7,6-7C139.6,111,140.6,112.4,140.6,118z
		 M131.2,118c0,3.9,0.4,4.8,3.5,4.8c3.1,0,3.5-1,3.5-4.8c0-3.9-0.4-4.9-3.5-4.9C131.6,113.1,131.2,114.1,131.2,118z"/>
	<path class="st1" d="M152.3,111.3c0.2,0,0.4,0.2,0.4,0.4v1.1c0,0.3-0.1,0.4-0.4,0.4h-4.8c-1.2,0-1.9,0.4-1.9,1.3v0.3
		c0,0.7,0.3,1.3,1.6,1.7l3.4,1.3c2.4,0.9,2.6,2.1,2.6,3.5v0.3c0,2.8-1.7,3.3-5.2,3.3c-2.2,0-4.2-0.2-4.7-0.2c-0.3,0-0.4-0.2-0.4-0.4
		v-1.1c0-0.3,0.1-0.4,0.4-0.4h4.7c2,0,2.7-0.2,2.7-1.3v-0.3c0-0.7-0.3-1.2-1.5-1.7l-3.6-1.3c-2-0.8-2.5-2.2-2.5-3.6v-0.5
		c0-2.7,2.5-3.1,5.2-3.1C149.5,111,150.8,111.1,152.3,111.3z"/>
	<path class="st1" d="M158.7,107.4c0.3-0.1,0.4,0,0.4,0.3v3.5h2.7c0.3,0,0.4,0.1,0.4,0.4v1.2c0,0.3-0.1,0.4-0.4,0.4h-2.7v8.4
		c0,1.1,0.3,1.3,1.7,1.3h1.2c0.3,0,0.4,0.1,0.4,0.3v1.2c0,0.2-0.1,0.3-0.4,0.4c-0.5,0.1-1.2,0.2-1.4,0.2c-1.8,0-3.9,0-3.9-2.8v-9
		h-1.4c-0.3,0-0.4-0.1-0.4-0.4v-1.2c0-0.2,0.1-0.4,0.4-0.4h1.4v-3c0-0.3,0.1-0.3,0.3-0.4L158.7,107.4z"/>
	<path class="st1" d="M173.4,111.3c0.2,0,0.4,0.2,0.4,0.4v1.1c0,0.3-0.1,0.4-0.4,0.4h-4.8c-1.2,0-1.9,0.4-1.9,1.3v0.3
		c0,0.7,0.3,1.3,1.6,1.7l3.4,1.3c2.4,0.9,2.6,2.1,2.6,3.5v0.3c0,2.8-1.7,3.3-5.2,3.3c-2.2,0-4.2-0.2-4.7-0.2c-0.3,0-0.4-0.2-0.4-0.4
		v-1.1c0-0.3,0.1-0.4,0.4-0.4h4.7c2,0,2.7-0.2,2.7-1.3v-0.3c0-0.7-0.3-1.2-1.5-1.7l-3.6-1.3c-2-0.8-2.5-2.2-2.5-3.6v-0.5
		c0-2.7,2.5-3.1,5.2-3.1C170.6,111,171.9,111.1,173.4,111.3z"/>
</g>
<g>
	<g>
		<path class="st2" d="M105.2,64.5c-0.3,0-0.6,0-0.9,0.1l-3,0.8l-3.2-7.8c-1-2.3-3.8-4.2-6.3-4.2h-2.1V47c0-1.1-0.9-2.1-2.1-2.1
			H65.9c-1.1,0-2.1,0.9-2.1,2.1v6.4h-2.2c-2.5,0-5.3,1.9-6.3,4.2l-3.2,7.8l-3-0.8c-0.3-0.1-0.6-0.1-0.9-0.1c-1.5,0-2.7,1.2-2.7,2.8
			V69c0,1.9,1.5,3.4,3.4,3.4h0.2l-0.5,1.1c-0.9,2.2-1.6,5.8-1.6,8.2v15.5c0,1.9,1.5,3.4,3.4,3.4h4.1c1.9,0,3.4-1.5,3.4-3.4v-3.8h37
			v3.8c0,1.9,1.5,3.4,3.4,3.4h4.1c1.9,0,3.4-1.5,3.4-3.4V81.7c0-2.3-0.7-6-1.6-8.2l-0.5-1.1h0.3c1.9,0,3.4-1.5,3.4-3.4v-1.7
			C107.8,65.7,106.7,64.5,105.2,64.5z M54.7,70.7l4.9-11.9c0.6-1.4,2.3-2.6,3.8-2.6h27.3c1.5,0,3.2,1.2,3.8,2.6l4.9,11.9
			c0.6,1.4-0.2,2.6-1.7,2.6H56.4C54.9,73.3,54.1,72.1,54.7,70.7z M65.7,86.1c0,0.8-0.6,1.4-1.4,1.4H55c-0.8,0-1.4-0.6-1.4-1.4v-4.4
			c0-0.8,0.6-1.4,1.4-1.4h9.3c0.8,0,1.4,0.6,1.4,1.4C65.7,81.6,65.7,86.1,65.7,86.1z M100.3,86.1c0,0.8-0.6,1.4-1.4,1.4h-9.3
			c-0.8,0-1.4-0.6-1.4-1.4v-4.4c0-0.8,0.6-1.4,1.4-1.4h9.3c0.8,0,1.4,0.6,1.4,1.4V86.1z"/>
	</g>
	<g>
		<g>
			<g>
				<path class="st2" d="M120.3,44.2c-0.8-3.7-3.5-6.6-7-7.8c-1-0.3-2-0.5-3.1-0.5c-2.6,0-5,1-6.9,2.7c-4.2,3.8-4.5,10.3-0.7,14.5
					s10.3,4.5,14.5,0.7c2.1-1.9,3.4-4.7,3.4-7.6C120.5,45.6,120.4,44.9,120.3,44.2z M114.7,53.1c-2.7,1-5.8,0.4-7.8-1.7
					c-0.7-0.7-1.2-1.5-1.6-2.4h-1.6c-0.6,0-1-0.5-1-1c0-0.6,0.5-1,1-1h1.1c0-0.4,0-0.8,0-1.1h-1c-0.6,0-1-0.5-1-1s0.5-1,1-1h1.5
					c0.4-1,0.9-1.9,1.7-2.7c2.1-2.1,5.1-2.7,7.8-1.7c0.5,0.2,0.8,0.8,0.6,1.3c-0.2,0.5-0.8,0.8-1.3,0.6c-1.9-0.8-4.1-0.3-5.6,1.2
					c-0.4,0.4-0.7,0.8-0.9,1.2h6c0.6,0,1,0.5,1,1s-0.5,1-1,1h-6.6c0,0.4,0,0.8,0,1.1h6.1c0.6,0,1,0.5,1,1s-0.5,1-1,1h-5.3
					c0.2,0.4,0.4,0.7,0.7,0.9c1.5,1.5,3.7,2,5.6,1.2c0,0,0,0,0,0c0.5-0.2,1.1,0.1,1.3,0.6C115.5,52.3,115.3,52.9,114.7,53.1z"/>
			</g>
		</g>
		<g>
			<g>
				<path class="st2" d="M132.9,27.6c-2.1-0.6-5-1-7.9-1c-3,0-5.8,0.4-7.8,1c-2.2,0.7-2.7,1.4-2.7,1.5c0,0,0,0,0,0
					c0.1,0.2,0.7,0.9,2.9,1.6c2.1,0.6,4.8,0.9,7.6,0.9c3,0,5.8-0.4,7.9-1c2.2-0.7,2.7-1.4,2.7-1.5C135.6,29,135.1,28.3,132.9,27.6z"
					/>
			</g>
		</g>
		<g>
			<g>
				<path class="st2" d="M124.5,51v-0.2c-0.9,0-1.9-0.1-2.8-0.1c-0.5,1.2-1.1,2.4-2,3.4c1.6,0.3,3.2,0.4,4.8,0.4L124.5,51z"/>
			</g>
		</g>
		<g>
			<g>
				<path class="st2" d="M133.5,32.6c-2.3,0.7-5.3,1.1-8.5,1.1c-3,0-5.9-0.4-8.2-1c-0.8-0.2-1.5-0.5-2.2-0.9l0.1,2.9
					c1.2,0.4,2.2,1.1,3.2,1.8c0,0,0.1,0,0.1,0c2,0.5,4.5,0.8,7,0.8c3,0,5.9-0.4,7.9-1c2.2-0.7,2.7-1.4,2.7-1.5c0-0.2,0-0.4,0.1-0.5
					v-2.6C135,32.1,134.3,32.4,133.5,32.6z"/>
			</g>
		</g>
		<g>
			<g>
				<path class="st2" d="M133.5,38.4c-2.3,0.7-5.4,1.1-8.5,1.1c-1.6,0-3.1-0.1-4.7-0.3c0.8,1.2,1.5,2.5,1.8,3.8
					c0.9,0.1,1.8,0.1,2.8,0.1c0,0,0.1,0,0.1,0c1.7-1.9,6.3-2.8,10.7-2.9v-2.7C135,37.8,134.3,38.1,133.5,38.4z"/>
			</g>
		</g>
		<g>
			<g>
				<path class="st2" d="M122.3,48.7c0.7,0.1,1.4,0.1,2.1,0.1l-0.1-3.6c0,0,0-0.1,0-0.1c-0.6,0-1.3,0-1.9-0.1c0,0.4,0.1,0.8,0.1,1.2
					C122.5,47.1,122.5,47.9,122.3,48.7z"/>
			</g>
		</g>
		<g>
			<g>
				<path class="st2" d="M147.6,50v-2.6c-0.7,0.4-1.5,0.7-2.3,0.9c-2.3,0.7-5.3,1.1-8.4,1.1c-3,0-5.8-0.4-8.1-1
					c-0.8-0.2-1.6-0.5-2.4-0.9l0,2.4l0,0.9c0.8,1,4.7,2.3,10.4,2.3c3,0,5.8-0.4,7.9-1c2.2-0.7,2.7-1.4,2.7-1.5
					C147.5,50.3,147.6,50.1,147.6,50L147.6,50z"/>
			</g>
		</g>
		<g>
			<g>
				<path class="st2" d="M145.4,53.9c-2.3,0.7-5.3,1.1-8.5,1.1c-3.8,0-7.9-0.6-10.3-1.8l0.1,3c0,0,0,0,0,0c0,0.2,0.4,0.8,2.6,1.5
					c2.1,0.6,4.9,1,7.8,1c3,0,5.8-0.4,7.9-1c2.2-0.7,2.7-1.4,2.7-1.5V53C146.9,53.4,146.2,53.7,145.4,53.9z"/>
			</g>
		</g>
		<g>
			<g>
				<path class="st2" d="M144.9,43.2c-2.1-0.7-5-1-7.9-1h-0.1c-2.8,0-5.4,0.3-7.4,0.9c-2.1,0.6-2.9,1.3-3,1.6c0,0.1,0,0.1,0,0.2
					c0.2,0.3,1,0.9,3,1.5c2,0.6,4.7,0.9,7.5,0.9c3,0,5.7-0.3,7.9-1c2.3-0.7,2.8-1.4,2.8-1.5C147.5,44.5,147,43.9,144.9,43.2z"/>
			</g>
		</g>
	</g>
</g>
</svg>
