<svg version="1.1" id="travel_x5F_costs" xmlns="http://www.w3.org/2000/svg" x="0" y="0" viewBox="0 0 191.8 150" xml:space="preserve"><style>.st2{fill:#4a7628}</style><path d="M26.8 6.6S7.6 6.6 7.6 25.8V125s0 19.2 19.2 19.2h139.4s19.2 0 19.2-19.2V25.8s0-19.2-19.2-19.2H26.8z" fill="none" stroke="#3c3c3c" stroke-width="2.47"/><path d="M22.5 107.2c0 1-.5 1.5-1.5 1.5s-1.5-.5-1.5-1.5c0-.9.5-1.4 1.5-1.4 1-.1 1.5.4 1.5 1.4zm-.7 4c.3 0 .4.1.4.4v12.9c0 .3-.1.4-.4.4h-1.7c-.3 0-.4-.1-.4-.4v-12.9c0-.3.1-.4.4-.4h1.7zm15.4 6.8c0 5.6-1 6.9-5.9 6.9s-6-1.4-6-6.9c0-5.6 1-7 6-7 4.9 0 5.9 1.4 5.9 7zm-9.4 0c0 3.9.4 4.8 3.5 4.8s3.5-1 3.5-4.8c0-3.9-.4-4.9-3.5-4.9-3.2 0-3.5 1-3.5 4.9zm20.9-10.6c.3-.1.4 0 .4.3v3.5h2.7c.3 0 .4.1.4.4v1.2c0 .3-.1.4-.4.4h-2.7v8.4c0 1.1.3 1.3 1.7 1.3H52c.3 0 .4.1.4.3v1.2c0 .2-.1.3-.4.4-.5.1-1.2.2-1.4.2-1.8 0-3.9 0-3.9-2.8v-9h-1.4c-.3 0-.4-.1-.4-.4v-1.2c0-.2.1-.4.4-.4h1.4v-3c0-.3.1-.3.3-.4l1.7-.4zm12.9 3.9c.3.1.4.2.4.4v1.1c0 .2-.2.4-.4.3h-2.2c-1.8 0-2.2.3-2.2 1.4v9.9c0 .3-.1.4-.4.4h-1.7c-.3 0-.4-.1-.4-.4V114c0-2.8 2.6-2.9 4-2.9.7-.1 2.4 0 2.9.2zM74 115v8.7c0 .2 0 .5-.5.7-.9.3-3.1.6-5.7.6-3.4 0-4.9-.7-4.9-4 0-3 1.6-3.8 4.5-3.8h4.1v-1.7c0-1.5-.9-2.2-3.3-2.2h-3.8c-.3 0-.4-.1-.4-.4v-1c0-.3.1-.3.4-.4 1.5-.3 2.8-.3 3.9-.3 3.9-.2 5.7 1 5.7 3.8zm-6.5 4c-1.4 0-2.1.5-2.1 1.9 0 1.6.8 2 2.9 2 .8 0 2.3 0 3.3-.3V119h-4.1zm20.9-7.8c.3 0 .4.1.3.4L85.9 122c-.7 2.6-.8 2.9-3.4 2.9-2.4 0-2.5-.4-3.2-2.9l-3-10.5c-.1-.3 0-.4.3-.4h1.9c.2 0 .2.1.3.4l2.8 9.9c.3 1.1.4 1.3.9 1.3.7 0 .8-.2 1.1-1.3l2.7-9.9c.1-.3.1-.4.3-.4h1.8zm13.9 6.4v.7c0 .5-.1.7-.9.7h-8.1c.1 3 .7 3.8 3.4 3.8h4.2c.3 0 .4.1.4.4v1.1c0 .2-.1.4-.4.4-1.3.2-2.7.2-4.3.2-4.8 0-5.8-1.4-5.8-6.9 0-5.6 1-7 5.8-7 4.6 0 5.7 1.4 5.7 6.6zm-9.1-.5h6.6c-.1-3.2-.6-4-3.2-4-2.7 0-3.3.8-3.4 4zm14-11.2c.3 0 .4.1.4.4v18.2c0 .3-.1.4-.4.4h-1.7c-.3 0-.4-.1-.4-.4v-18.2c0-.3.1-.4.4-.4h1.7zm19.1 5.4c.2 0 .4.2.4.4v1.1c0 .3-.1.4-.4.4h-3.9c-3.1 0-3.5 1-3.5 4.9 0 3.9.4 4.8 3.5 4.8h3.9c.3 0 .4.1.4.4v1.1c0 .3-.1.4-.4.4-1.3.2-2.8.2-3.9.2-5 0-5.9-1.4-5.9-6.9 0-5.6 1-7 5.9-7 1.1-.1 2.6 0 3.9.2zm14.3 6.7c0 5.6-1 6.9-5.9 6.9s-6-1.4-6-6.9c0-5.6 1-7 6-7 4.9 0 5.9 1.4 5.9 7zm-9.4 0c0 3.9.4 4.8 3.5 4.8s3.5-1 3.5-4.8c0-3.9-.4-4.9-3.5-4.9s-3.5 1-3.5 4.9zm21.1-6.7c.2 0 .4.2.4.4v1.1c0 .3-.1.4-.4.4h-4.8c-1.2 0-1.9.4-1.9 1.3v.3c0 .7.3 1.3 1.6 1.7l3.4 1.3c2.4.9 2.6 2.1 2.6 3.5v.3c0 2.8-1.7 3.3-5.2 3.3-2.2 0-4.2-.2-4.7-.2-.3 0-.4-.2-.4-.4v-1.1c0-.3.1-.4.4-.4h4.7c2 0 2.7-.2 2.7-1.3v-.3c0-.7-.3-1.2-1.5-1.7l-3.6-1.3c-2-.8-2.5-2.2-2.5-3.6v-.5c0-2.7 2.5-3.1 5.2-3.1 1.2 0 2.5.1 4 .3zm6.4-3.9c.3-.1.4 0 .4.3v3.5h2.7c.3 0 .4.1.4.4v1.2c0 .3-.1.4-.4.4h-2.7v8.4c0 1.1.3 1.3 1.7 1.3h1.2c.3 0 .4.1.4.3v1.2c0 .2-.1.3-.4.4-.5.1-1.2.2-1.4.2-1.8 0-3.9 0-3.9-2.8v-9h-1.4c-.3 0-.4-.1-.4-.4v-1.2c0-.2.1-.4.4-.4h1.4v-3c0-.3.1-.3.3-.4l1.7-.4zm14.7 3.9c.2 0 .4.2.4.4v1.1c0 .3-.1.4-.4.4h-4.8c-1.2 0-1.9.4-1.9 1.3v.3c0 .7.3 1.3 1.6 1.7l3.4 1.3c2.4.9 2.6 2.1 2.6 3.5v.3c0 2.8-1.7 3.3-5.2 3.3-2.2 0-4.2-.2-4.7-.2-.3 0-.4-.2-.4-.4v-1.1c0-.3.1-.4.4-.4h4.7c2 0 2.7-.2 2.7-1.3v-.3c0-.7-.3-1.2-1.5-1.7l-3.6-1.3c-2-.8-2.5-2.2-2.5-3.6v-.5c0-2.7 2.5-3.1 5.2-3.1 1.2 0 2.5.1 4 .3z" fill="#3c3c3c"/><path class="st2" d="M105.2 64.5c-.3 0-.6 0-.9.1l-3 .8-3.2-7.8c-1-2.3-3.8-4.2-6.3-4.2h-2.1V47c0-1.1-.9-2.1-2.1-2.1H65.9c-1.1 0-2.1.9-2.1 2.1v6.4h-2.2c-2.5 0-5.3 1.9-6.3 4.2l-3.2 7.8-3-.8c-.3-.1-.6-.1-.9-.1-1.5 0-2.7 1.2-2.7 2.8V69c0 1.9 1.5 3.4 3.4 3.4h.2l-.5 1.1c-.9 2.2-1.6 5.8-1.6 8.2v15.5c0 1.9 1.5 3.4 3.4 3.4h4.1c1.9 0 3.4-1.5 3.4-3.4v-3.8h37v3.8c0 1.9 1.5 3.4 3.4 3.4h4.1c1.9 0 3.4-1.5 3.4-3.4V81.7c0-2.3-.7-6-1.6-8.2l-.5-1.1h.3c1.9 0 3.4-1.5 3.4-3.4v-1.7c.4-1.6-.7-2.8-2.2-2.8zm-50.5 6.2l4.9-11.9c.6-1.4 2.3-2.6 3.8-2.6h27.3c1.5 0 3.2 1.2 3.8 2.6l4.9 11.9c.6 1.4-.2 2.6-1.7 2.6H56.4c-1.5 0-2.3-1.2-1.7-2.6zm11 15.4c0 .8-.6 1.4-1.4 1.4H55c-.8 0-1.4-.6-1.4-1.4v-4.4c0-.8.6-1.4 1.4-1.4h9.3c.8 0 1.4.6 1.4 1.4v4.4zm34.6 0c0 .8-.6 1.4-1.4 1.4h-9.3c-.8 0-1.4-.6-1.4-1.4v-4.4c0-.8.6-1.4 1.4-1.4h9.3c.8 0 1.4.6 1.4 1.4v4.4zm20-41.9c-.8-3.7-3.5-6.6-7-7.8-1-.3-2-.5-3.1-.5-2.6 0-5 1-6.9 2.7-4.2 3.8-4.5 10.3-.7 14.5s10.3 4.5 14.5.7c2.1-1.9 3.4-4.7 3.4-7.6 0-.6-.1-1.3-.2-2zm-5.6 8.9c-2.7 1-5.8.4-7.8-1.7-.7-.7-1.2-1.5-1.6-2.4h-1.6c-.6 0-1-.5-1-1 0-.6.5-1 1-1h1.1v-1.1h-1c-.6 0-1-.5-1-1s.5-1 1-1h1.5c.4-1 .9-1.9 1.7-2.7 2.1-2.1 5.1-2.7 7.8-1.7.5.2.8.8.6 1.3-.2.5-.8.8-1.3.6-1.9-.8-4.1-.3-5.6 1.2-.4.4-.7.8-.9 1.2h6c.6 0 1 .5 1 1s-.5 1-1 1H107v1.1h6.1c.6 0 1 .5 1 1s-.5 1-1 1h-5.3c.2.4.4.7.7.9 1.5 1.5 3.7 2 5.6 1.2.5-.2 1.1.1 1.3.6.1.7-.1 1.3-.7 1.5zm18.2-25.5c-2.1-.6-5-1-7.9-1-3 0-5.8.4-7.8 1-2.2.7-2.7 1.4-2.7 1.5.1.2.7.9 2.9 1.6 2.1.6 4.8.9 7.6.9 3 0 5.8-.4 7.9-1 2.2-.7 2.7-1.4 2.7-1.5 0-.1-.5-.8-2.7-1.5zM124.5 51v-.2c-.9 0-1.9-.1-2.8-.1-.5 1.2-1.1 2.4-2 3.4 1.6.3 3.2.4 4.8.4V51zm9-18.4c-2.3.7-5.3 1.1-8.5 1.1-3 0-5.9-.4-8.2-1-.8-.2-1.5-.5-2.2-.9l.1 2.9c1.2.4 2.2 1.1 3.2 1.8h.1c2 .5 4.5.8 7 .8 3 0 5.9-.4 7.9-1 2.2-.7 2.7-1.4 2.7-1.5 0-.2 0-.4.1-.5v-2.6c-.7.4-1.4.7-2.2.9zm0 5.8c-2.3.7-5.4 1.1-8.5 1.1-1.6 0-3.1-.1-4.7-.3.8 1.2 1.5 2.5 1.8 3.8.9.1 1.8.1 2.8.1h.1c1.7-1.9 6.3-2.8 10.7-2.9v-2.7c-.7.3-1.4.6-2.2.9zm-11.2 10.3c.7.1 1.4.1 2.1.1l-.1-3.6v-.1c-.6 0-1.3 0-1.9-.1 0 .4.1.8.1 1.2 0 .9 0 1.7-.2 2.5zm25.3 1.3v-2.6c-.7.4-1.5.7-2.3.9-2.3.7-5.3 1.1-8.4 1.1-3 0-5.8-.4-8.1-1-.8-.2-1.6-.5-2.4-.9v3.3c.8 1 4.7 2.3 10.4 2.3 3 0 5.8-.4 7.9-1 2.2-.7 2.7-1.4 2.7-1.5.1-.3.2-.5.2-.6z"/><path class="st2" d="M145.4 53.9c-2.3.7-5.3 1.1-8.5 1.1-3.8 0-7.9-.6-10.3-1.8l.1 3c0 .2.4.8 2.6 1.5 2.1.6 4.9 1 7.8 1 3 0 5.8-.4 7.9-1 2.2-.7 2.7-1.4 2.7-1.5V53c-.8.4-1.5.7-2.3.9zm-.5-10.7c-2.1-.7-5-1-7.9-1h-.1c-2.8 0-5.4.3-7.4.9-2.1.6-2.9 1.3-3 1.6v.2c.2.3 1 .9 3 1.5s4.7.9 7.5.9c3 0 5.7-.3 7.9-1 2.3-.7 2.8-1.4 2.8-1.5-.2-.3-.7-.9-2.8-1.6z"/></svg>