<svg xmlns="http://www.w3.org/2000/svg" viewBox="0 0 191.8 150"><title>pwa_c4g</title><path d="M95.49,86.43a4.94,4.94,0,1,0,4.93,4.94A5,5,0,0,0,95.49,86.43Zm0,7.4A2.47,2.47,0,1,1,98,91.37,2.47,2.47,0,0,1,95.49,93.83Z" style="fill:#003764"/><path d="M91.79,32.17h4.93a1.24,1.24,0,0,0,0-2.47H91.79a1.24,1.24,0,1,0,0,2.47Z" style="fill:#003764"/><path d="M100.42,32.17h1.23a1.24,1.24,0,1,0,0-2.47h-1.23a1.24,1.24,0,0,0,0,2.47Z" style="fill:#003764"/><path d="M139.89,40.8h-22.2V31.43A5.44,5.44,0,0,0,112.25,26H81.19a5.44,5.44,0,0,0-5.44,5.43V94.57A5.44,5.44,0,0,0,81.19,100h31.06a5.44,5.44,0,0,0,5.44-5.43V66.7h22.2ZM81.19,28.47h31.06a3,3,0,0,1,3,3v2h-37v-2A3,3,0,0,1,81.19,28.47Zm31.06,69.06H81.19a3,3,0,0,1-3-3V85.2h37v9.37A3,3,0,0,1,112.25,97.53Zm3-14.8h-37V35.87h37V40.8H93V66.7H98v8.63l11.51-8.63h5.76Zm22.2-18.5H108.64l-8.22,6.17V64.23H95.49v-21h41.93Z" style="fill:#003764"/><path d="M105,49.62h23.38c3.22,0,5.84-.52,5.84-1.18s-2.62-1.18-5.84-1.18H105c-3.23,0-5.84.53-5.84,1.18S101.8,49.62,105,49.62Z" style="fill:#003764"/><path d="M105,55.17h23.38c3.22,0,5.84-.52,5.84-1.18s-2.62-1.18-5.84-1.18H105c-3.23,0-5.84.53-5.84,1.18S101.8,55.17,105,55.17Z" style="fill:#003764"/><path d="M105,60.72h23.38c3.22,0,5.84-.52,5.84-1.18s-2.62-1.18-5.84-1.18H105c-3.23,0-5.84.53-5.84,1.18S101.8,60.72,105,60.72Z" style="fill:#003764"/><path d="M25.61,5.86S6.43,5.86,6.43,25v99.17s0,19.18,19.18,19.18H165s19.18,0,19.18-19.18V25s0-19.18-19.18-19.18Z" style="fill:none;stroke:#0b395d;stroke-width:2.4695510774625px"/><path d="M83.73,116.73c0,6-1.09,7.46-6.25,7.46a29.34,29.34,0,0,1-3.61-.16V129c0,.27-.13.4-.41.4h-1.8a.36.36,0,0,1-.41-.4V110.21c0-.29.16-.4.44-.45a30.56,30.56,0,0,1,5.65-.46C82.64,109.3,83.73,110.83,83.73,116.73Zm-9.86-5.18v10.18a28.77,28.77,0,0,0,3.44.22c3.39,0,3.8-1,3.8-5.19s-.38-5.21-3.74-5.21Z" style="fill:#003764"/><path d="M106.78,109.44c.3,0,.38.08.33.42l-2.4,11.31c-.58,2.65-1,3-3.2,3-2.4,0-2.54-.35-3.17-3l-1.77-7.48-1.78,7.48c-.63,2.67-.76,3-3.17,3-2.18,0-2.62-.37-3.19-3L86,109.86c0-.34,0-.42.33-.42h2c.19,0,.24.08.32.42l2.24,11c.22.94.39,1,.74,1s.52-.08.74-1L95,110.29c.08-.32.19-.43.38-.43h2.29c.22,0,.3.11.39.43l2.65,10.56c.21.94.27,1,.73,1s.52-.08.74-1l2.24-11c.08-.34.14-.42.36-.42Z" style="fill:#003764"/><path d="M120.46,113.5v9.36a.66.66,0,0,1-.52.74,22.75,22.75,0,0,1-6.06.59c-3.6,0-5.27-.72-5.27-4.3,0-3.21,1.72-4.12,4.83-4.12l4.4,0V114c0-1.66-1-2.4-3.55-2.4h-4.1c-.32,0-.41-.08-.41-.4v-1.1c0-.32.11-.37.39-.43a24.23,24.23,0,0,1,4.12-.32C118.55,109.3,120.46,110.58,120.46,113.5Zm-7,4.33c-1.5,0-2.3.48-2.3,2,0,1.77.91,2.17,3.14,2.17a16.38,16.38,0,0,0,3.5-.32v-3.85Z" style="fill:#003764"/></svg>