<svg xmlns="http://www.w3.org/2000/svg" xml:space="preserve" id="Ebene_2_00000003082143268403364210000017331588248483125951_" x="0" y="0" style="enable-background:new 0 0 360 360" version="1.1" viewBox="0 0 360 360"><style>.st2{fill:#f2edd5}</style><g id="bg"><path d="M80 0h200c44.2 0 80 35.8 80 80v200c0 44.2-35.8 80-80 80H80c-44.2 0-80-35.8-80-80V80C0 35.8 35.8 0 80 0z" style="fill:#a13609"/><path d="M95 25h170c38.7 0 70 31.3 70 70v170c0 38.7-31.3 70-70 70H95c-38.7 0-70-31.3-70-70V95c0-38.7 31.3-70 70-70z" style="fill:#2d3f4b"/></g><path id="frame" d="M270 34c14.9 0 28.9 5.8 39.5 16.5S326 75.1 326 90v180c0 14.9-5.9 28.9-16.5 39.5S284.9 326 270 326H90c-14.9 0-28.9-5.9-39.5-16.5S34 284.9 34 270V90c0-14.9 5.8-28.9 16.5-39.5S75.1 34 90 34h180m0-14H90c-38.5 0-70 31.5-70 70v180c0 38.5 31.5 70 70 70h180c38.5 0 70-31.5 70-70V90c0-38.5-31.5-70-70-70z" class="st2"/><path d="M233.9 250.7h46.9v20.5h-46.9v-20.5z" style="fill:none"/><path d="M195.6 123.6c-3.3 0-6-2.7-6-6 0-11.9 9.7-21.6 21.6-21.6 3.3 0 6 2.7 6 6s-2.7 6-6 6c-5.3 0-9.6 4.3-9.6 9.6 0 3.4-2.7 6-6 6zM258 123.6c-3.3 0-6-2.7-6-6 0-5.3-4.3-9.6-9.6-9.6-3.3 0-6-2.7-6-6s2.7-6 6-6c11.9 0 21.6 9.7 21.6 21.6 0 3.4-2.7 6-6 6zM242.4 170.4c-3.3 0-6-2.7-6-6s2.7-6 6-6c5.3 0 9.6-4.3 9.6-9.6 0-3.3 2.7-6 6-6s6 2.7 6 6c0 11.9-9.7 21.6-21.6 21.6zM211.2 170.4c-11.9 0-21.6-9.7-21.6-21.6 0-3.3 2.7-6 6-6s6 2.7 6 6c0 5.3 4.3 9.6 9.6 9.6 3.3 0 6 2.7 6 6s-2.7 6-6 6zM133.2 170.4c-1.5 0-3.1-.6-4.2-1.8l-23.4-23.4c-2.3-2.3-2.3-6.1 0-8.5 2.3-2.3 6.1-2.3 8.5 0l19.1 19.1 19.1-19.1c2.3-2.3 6.1-2.3 8.5 0 2.3 2.3 2.3 6.1 0 8.5l-23.4 23.4c-1.1 1.2-2.6 1.8-4.2 1.8z" class="st2"/><path d="M133.2 170.4c-3.3 0-6-2.7-6-6v-39c0-16.5 12.9-29.4 29.4-29.4h7.8c3.3 0 6 2.7 6 6s-2.7 6-6 6h-7.8c-9.9 0-17.4 7.5-17.4 17.4v39c0 3.3-2.7 6-6 6zM148.8 264h-31.2c-11.9 0-21.6-9.7-21.6-21.6v-31.2c0-11.9 9.7-21.6 21.6-21.6h31.2c11.9 0 21.6 9.7 21.6 21.6v31.2c0 11.9-9.7 21.6-21.6 21.6zm-31.2-62.4c-5.3 0-9.6 4.3-9.6 9.6v31.2c0 5.3 4.3 9.6 9.6 9.6h31.2c5.3 0 9.6-4.3 9.6-9.6v-31.2c0-5.3-4.3-9.6-9.6-9.6h-31.2zM195.6 264c-3.3 0-6-2.7-6-6s2.7-6 6-6c5.3 0 9.6-4.3 9.6-9.6v-31.2c0-5.3-4.3-9.6-9.6-9.6-3.3 0-6-2.7-6-6s2.7-6 6-6c11.9 0 21.6 9.7 21.6 21.6v31.2c0 11.9-9.7 21.6-21.6 21.6zM242.4 264c-3.3 0-6-2.7-6-6s2.7-6 6-6c5.3 0 9.6-4.3 9.6-9.6v-31.2c0-5.3-4.3-9.6-9.6-9.6-3.3 0-6-2.7-6-6s2.7-6 6-6c11.9 0 21.6 9.7 21.6 21.6v31.2c0 11.9-9.7 21.6-21.6 21.6z" class="st2"/></svg>