<svg xmlns="http://www.w3.org/2000/svg" viewBox="0 0 365 365"><path fill="url(#a)" d="M365 14.6C365 6.542 358.458 0 350.4 0H14.6C6.542 0 0 6.542 0 14.6v335.8c0 8.058 6.542 14.6 14.6 14.6h335.8c8.058 0 14.6-6.542 14.6-14.6V14.6Z"/><path fill="#fff" d="M-1.641 20.339s52.946 3.568 108.691 28.342c55.744 24.773 82.43 52.411 92.977 82.135 10.548 29.725 6.461 70.518-10.143 105.908-16.605 35.39-73.595 101.961-121.005 128.55 48.629 0 97.301-.021 97.301-.021s43.849-44.315 64.067-81.036c20.215-36.718 28.482-79.439 28.482-108.29 0-28.85-7.924-41.53-7.924-41.53s25.024 11.348 55.105 17.332c24.743 4.922 60.072 7.338 60.072 7.338l-.036-22.658s-30.063-1.974-52.859-8.273c-29.789-8.23-59.795-22.253-72.561-32.276-22.536-17.696-29.422-20.708-49.587-47.841C170.778 20.887 180.626-.33 180.626-.33s-12.354-.066-45.564-.066c-.614 1.337-2.118 11.318 2.279 33.732C126.665 19.18 1.992 7.386.827 7.613c-.776.152-1.737 2.514-2.107 5.113-.507 3.56-.361 7.613-.361 7.613Z"/><defs><linearGradient id="a" x1="0" x2="1" y1="0" y2="0" gradientTransform="rotate(-45 437.1198962 179.86360215) scale(510.424)" gradientUnits="userSpaceOnUse"><stop offset="0" stop-color="#2e526c"/><stop offset="1" stop-color="#3885a6"/></linearGradient></defs></svg>
