<svg viewBox="0 0 400 400" xmlns="http://www.w3.org/2000/svg" fill-rule="evenodd" clip-rule="evenodd" stroke-linejoin="round" stroke-miterlimit="2"><path d="M32.84 139.3V153h8.46v7.48h-8.46v35.1c0 2.14.33 3.85 1.07 5.03.75 1.18 2.04 1.71 3.75 1.71 1.28 0 2.46-.21 3.74-.64l-.1 7.81a19.25 19.25 0 01-6.42 1.07c-3.64 0-6.42-1.28-8.35-3.96-1.92-2.57-2.89-6.31-2.89-11.02v-35.1h-8.66V153h8.66v-13.7h9.2zM75.47 209.49c-.53-1.18-.96-3.32-1.17-6.2-3.21 4.8-7.39 7.27-12.52 7.27-5.14 0-9.1-1.5-11.99-4.39-2.89-2.78-4.28-6.84-4.28-12.09 0-5.78 1.93-10.27 5.78-13.7 3.96-3.42 9.31-5.13 16.05-5.13h6.85v-6c0-3.42-.75-5.88-2.25-7.27-1.5-1.39-3.85-2.14-6.85-2.14-2.78 0-5.02.86-6.84 2.46a8.47 8.47 0 00-2.57 6.32h-9.31c0-2.9.86-5.67 2.57-8.24a17.74 17.74 0 016.95-6.2 20.6 20.6 0 019.63-2.25c5.78 0 10.17 1.39 13.16 4.27 3.1 2.9 4.6 7.07 4.71 12.63v28.46c0 4.39.64 8.13 1.71 11.34v.86h-9.63zm-12.3-7.38a12.54 12.54 0 0011.02-6.53V182.1h-5.24c-4.39 0-7.92.96-10.38 2.89-2.57 1.92-3.85 4.6-3.85 8.02 0 3.21.64 5.46 1.92 6.96 1.29 1.39 3.53 2.14 6.53 2.14zM119.24 195.05c0-2.04-.75-3.75-2.25-5.14-1.5-1.4-4.39-3.1-8.67-5.03-4.92-2.03-8.45-3.85-10.48-5.24a16.84 16.84 0 01-4.6-5.03 14.12 14.12 0 01-1.5-6.64c0-4.6 1.7-8.45 5.03-11.44 3.31-3.1 7.7-4.6 12.84-4.6 5.56 0 9.95 1.6 13.26 4.81 3.43 3.21 5.03 7.28 5.03 12.3h-9.2c0-2.56-.86-4.7-2.57-6.52a8.7 8.7 0 00-6.52-2.68c-2.68 0-4.82.75-6.32 2.14-1.6 1.4-2.35 3.32-2.35 5.67 0 1.82.53 3.32 1.71 4.5 1.07 1.17 3.85 2.67 8.13 4.5 6.85 2.67 11.56 5.34 14.02 7.9a13.49 13.49 0 013.74 9.75c0 4.92-1.7 8.88-5.13 11.77-3.32 3-7.92 4.49-13.59 4.49-5.88 0-10.6-1.71-14.23-5.14-3.75-3.31-5.56-7.6-5.56-12.84h9.3c.11 3.21 1.07 5.68 2.9 7.39 1.81 1.82 4.38 2.67 7.59 2.67 3.1 0 5.46-.64 7.06-2.03 1.6-1.4 2.36-3.21 2.36-5.56zM146.8 139.3V153h8.45v7.48h-8.46v35.1c0 2.14.33 3.85 1.07 5.03.75 1.18 2.04 1.71 3.75 1.71 1.28 0 2.46-.21 3.74-.64l-.1 7.81a19.25 19.25 0 01-6.42 1.07c-3.64 0-6.42-1.28-8.35-3.96-1.92-2.57-2.89-6.31-2.89-11.02v-35.1h-8.66V153h8.66v-13.7h9.2zM189.42 209.49c-.53-1.18-.96-3.32-1.17-6.2-3.21 4.8-7.39 7.27-12.52 7.27-5.14 0-9.1-1.5-11.99-4.39-2.88-2.78-4.28-6.84-4.28-12.09 0-5.78 1.93-10.27 5.78-13.7 3.96-3.42 9.31-5.13 16.05-5.13h6.85v-6c0-3.42-.75-5.88-2.25-7.27-1.5-1.39-3.85-2.14-6.85-2.14-2.78 0-5.02.86-6.84 2.46a8.47 8.47 0 00-2.57 6.32h-9.31c0-2.9.86-5.67 2.57-8.24a17.74 17.74 0 016.95-6.2 20.6 20.6 0 019.63-2.25c5.78 0 10.17 1.39 13.16 4.27 3.1 2.9 4.6 7.07 4.71 12.63v28.46c0 4.39.64 8.13 1.71 11.34v.86h-9.63zm-12.3-7.38a12.54 12.54 0 0011.02-6.53V182.1h-5.24c-4.39 0-7.92.96-10.38 2.89-2.57 1.92-3.85 4.6-3.85 8.02 0 3.21.64 5.46 1.92 6.96 1.29 1.39 3.53 2.14 6.53 2.14zM217.89 139.3V153h8.45v7.48h-8.45v35.1c0 2.14.32 3.85 1.07 5.03.74 1.18 2.03 1.71 3.74 1.71 1.28 0 2.46-.21 3.75-.64l-.11 7.81a19.25 19.25 0 01-6.42 1.07c-3.64 0-6.42-1.28-8.35-3.96-1.92-2.57-2.89-6.31-2.89-11.02v-35.1h-8.66V153h8.66v-13.7h9.2zM260.3 204.57c-3.1 3.96-7.49 5.99-13.48 5.99-5.03 0-8.88-1.82-11.56-5.35-2.56-3.53-3.96-8.67-3.96-15.4V153h9.2v36.16c0 8.77 2.68 13.16 7.92 13.16 5.67 0 9.53-2.46 11.67-7.49V153h9.2v56.49h-8.78l-.21-4.92zM300.68 161.66a17.24 17.24 0 00-4.17-.43c-4.82 0-8.13 2.68-9.95 7.81v40.45h-9.31v-56.5h8.99l.21 5.68c2.46-4.5 6-6.74 10.49-6.74 1.5 0 2.67.2 3.63.74l.11 9z" fill="#666" fill-rule="nonzero"/><g><path d="M134.56 270.09c0 9.2-1.39 16.05-4.38 20.65-2.9 4.5-7.5 6.84-13.8 6.84a12.7 12.7 0 01-6.75-1.81 15.35 15.35 0 01-5.03-4.82l-.42 5.56h-13.7v-80.24h14.77v28.35a14.43 14.43 0 014.7-4.17c1.82-.97 3.96-1.5 6.42-1.5 6.32 0 10.92 2.35 13.8 6.95 3 4.71 4.4 11.45 4.4 20.44v3.75zm-14.76-3.75c0-2.57-.11-4.7-.22-6.63a17.8 17.8 0 00-1.17-4.71 6.01 6.01 0 00-2.36-2.78c-.96-.64-2.35-.86-3.96-.86-1.7 0-3.1.32-4.17 1.07a9.54 9.54 0 00-2.67 3.1v25.8a6.39 6.39 0 002.67 2.88c1.07.75 2.57 1.07 4.28 1.07 1.6 0 2.89-.32 3.96-.86a5.16 5.16 0 002.25-2.67c.53-1.18.96-2.78 1.17-4.7.11-1.93.22-4.18.22-6.96v-3.75zM163.68 297.58a28.5 28.5 0 01-10.38-1.81c-3-1.18-5.46-2.9-7.49-5.14a21.15 21.15 0 01-4.7-8.13 34.65 34.65 0 01-1.61-11.02v-4.6c0-4.6.53-8.67 1.5-12.1a25.13 25.13 0 014.5-8.77 18 18 0 017.05-5.24c2.9-1.29 6-1.82 9.63-1.82 7.17 0 12.52 2.35 16.05 6.95 3.64 4.6 5.46 11.45 5.46 20.55v6.74h-29.43c.11 2.25.43 4.17.86 5.67a9.08 9.08 0 002.14 3.74c.86.97 1.93 1.61 3.1 2.04 1.29.43 2.68.64 4.18.64 2.67 0 5.03-.43 7.06-1.28a17.23 17.23 0 005.35-3.75l5.78 8.88a12.04 12.04 0 01-2.79 3 19.27 19.27 0 01-4.28 2.67 24.2 24.2 0 01-5.35 2.04c-2.03.42-4.28.74-6.63.74zm-1.6-46.33c-2.68 0-4.5.86-5.68 2.79-1.17 1.82-1.81 4.7-2.03 8.88h14.77v-1.4c-.11-3.42-.64-5.99-1.71-7.7-.97-1.7-2.79-2.57-5.35-2.57zM217.23 254.25c-.64-.1-1.5-.1-2.46-.21-.96-.11-1.71-.22-2.46-.22-2.14 0-3.85.43-5.14 1.4-1.39.85-2.35 2.24-3.1 3.95v37.34h-14.76v-56.49h13.9l.43 6.1a15.08 15.08 0 014.07-5.35 9.6 9.6 0 015.56-1.82c.75 0 1.4 0 2.25.21.75.11 1.4.22 1.93.43l-.22 14.66zM249.92 291.38a16.46 16.46 0 01-5.24 4.6 14.94 14.94 0 01-7.06 1.6c-2.35 0-4.5-.42-6.42-1.17a12.45 12.45 0 01-5.03-3.75 17.74 17.74 0 01-3.21-6.52c-.86-2.68-1.18-5.89-1.18-9.63v-36.49h14.77v36.6c0 3.1.53 5.34 1.5 6.63a5.02 5.02 0 003.96 2.03c1.81 0 3.31-.43 4.49-1.18a10.4 10.4 0 002.89-3.2v-40.88h14.87v56.5h-13.9l-.44-5.14zM275.52 296.51v-45.36h-6.85v-11.13h6.85v-4.92c0-3.21.43-6.1 1.28-8.56a17 17 0 013.64-6.2c1.6-1.72 3.64-3 5.88-3.86a21.35 21.35 0 017.6-1.28c1.29 0 2.46.1 3.53.32 1.07.21 2.14.43 3.21.75l-.1 11.77a12.4 12.4 0 00-3.64-.54c-2.14 0-3.75.64-4.82 2.03-1.17 1.29-1.71 3.1-1.71 5.57v4.92h8.77v11.13h-8.77v45.36h-14.87z" fill="#4c4c4c" fill-rule="nonzero"/></g><g><path d="M306.39 174.1c4.53-.77 7.8-2.18 9.99-4.2 2.18-2.19 3.28-6.1 3.28-12.02v-33.71c0-7.65 2.02-13.11 6.08-16.7 4.06-3.43 11.7-5.15 22.79-5l.15 4.06a39.73 39.73 0 00-8.27 2.66 11.38 11.38 0 00-4.21 3.9c-.78 1.4-1.4 3.28-1.56 5.3-.16 2.19-.16 4.69-.16 7.5v24.65c0 7.8-1.1 13.42-3.43 17.01-2.19 3.75-6.24 6.4-12.17 7.96v.47c5.93 1.56 9.98 4.22 12.17 7.96 2.34 3.6 3.43 9.2 3.43 17.01v24.66c0 2.8 0 5.3.16 7.5.15 2.02.78 3.9 1.56 5.3.93 1.56 2.34 2.8 4.21 3.9 2.03.94 4.68 1.87 8.12 2.65l.15 4.06c-11.23.16-18.88-1.56-22.94-5-4.06-3.58-6.08-9.05-6.08-16.7v-33.7c0-5.93-1.1-9.84-3.28-12.02-2.19-2.03-5.46-3.43-9.83-4.21l-.16-3.28z" fill="#0095da" fill-rule="nonzero"/><path d="M384.98 225.9c-4.53.77-7.8 2.18-9.99 4.2-2.03 2.19-3.12 6.1-3.12 12.02v33.71c0 7.65-2.03 13.11-6.24 16.7-4.06 3.43-11.7 5.15-22.79 5l-.15-4.06a36.8 36.8 0 008.27-2.66 11.38 11.38 0 004.21-3.9c.94-1.4 1.4-3.28 1.56-5.3.16-2.19.16-4.69.16-7.5v-24.65c0-7.8 1.25-13.42 3.43-17.01 2.34-3.75 6.4-6.4 12.17-7.96v-.47c-5.77-1.56-9.83-4.22-12.17-7.96-2.18-3.6-3.43-9.2-3.43-17.01v-24.66c0-2.8 0-5.3-.16-7.5-.15-2.02-.62-3.9-1.56-5.3a11.38 11.38 0 00-4.21-3.9 37.88 37.88 0 00-8.12-2.65l-.15-4.06c11.23-.16 18.88 1.56 22.94 5 4.21 3.58 6.24 9.05 6.24 16.7v33.7c0 5.93 1.1 9.84 3.12 12.02 2.19 2.03 5.46 3.43 9.83 4.21l.16 3.28z" fill="#0095da" fill-rule="nonzero"/></g></svg>