<svg id="Ebene_2" version="1.1" width="2200" height="2200" xmlns="http://www.w3.org/2000/svg"><defs id="defs4"><style id="style2">.cls-1{fill:#1d1d1b}</style></defs><path style="fill:#000;stroke:#c52e39" id="rect933" d="M0 0h2200v2200H0z"/><g id="Ebene_1-2" transform="translate(527.245 310.9)" style="fill:#fff"><g id="g58" style="fill:#fff"><g id="g18" style="fill:#fff"><path class="cls-1" d="M99.1 1194.76V793.27h59.77v153.94h33.27V793.27h59.77v401.49h-59.77V999.65h-33.27v195.11z" id="path6" style="fill:#fff"/><path class="cls-1" d="M286.88 1194.76V793.27h133.07v52.44h-73.3V948.9h70.49v52.44h-70.49v140.97h74.44v52.44H286.88Z" id="path8" style="fill:#fff"/><path class="cls-1" d="M445.09 1194.76V793.27h59.77v349.04h57.99v52.44H445.09Z" id="path10" style="fill:#fff"/><path class="cls-1" d="M580.47 793.28h72.18c59.21 0 84.01 20.3 84.01 90.78v237.96c0 38.35-24.8 72.74-71.05 72.74h-85.14V793.27Zm59.78 353.55h14.09c15.23 0 22.56-3.95 22.56-29.88V871.1c0-25.94-7.33-29.89-22.56-29.89h-14.09v305.63z" id="path12" style="fill:#fff"/><path class="cls-1" d="M763.18 1194.76V793.27h133.08v52.44h-73.3V948.9h70.48v52.44h-70.48v140.97h74.43v52.44H763.18Z" id="path14" style="fill:#fff"/><path class="cls-1" d="m1010.54 793.28 16.91 115.6c13.53 74.43 23.13 151.69 28.2 227.25h2.25v-21.43c.57-38.91-1.69-78.38-1.69-117.28V793.29h49.05v401.49h-88.53l-28.19-200.74c-9.58-49.63-12.97-94.73-18.04-142.1h-2.26c0 17.48 1.13 34.96 1.69 51.88v290.97h-49.06V793.3h89.66z" id="path16" style="fill:#fff"/></g><g id="g38" style="fill:#fff"><path class="cls-1" d="M294.76 1354.79v114.88H277.6l-.97-14.56h-.65c-6.15 12.62-17.48 19.09-31.07 19.09-16.18 0-39.81-8.73-39.81-38.83v-161.81c0-30.09 23.63-38.83 44.66-38.83 21.03 0 44.98 8.74 44.98 38.83v48.87h-34.3v-45.95c0-11.65-3.56-14.24-10.35-14.24-6.79 0-10.68 2.59-10.68 14.24v155.98c0 11.65 3.56 14.24 10.68 14.24 7.12 0 10.35-2.59 10.35-14.24v-50.16h-13.59v-27.51h47.9z" id="path20" style="fill:#fff"/><path class="cls-1" d="M318.89 1469.67v-230.41h76.37v30.09h-42.07v59.22h40.45v30.1h-40.45v80.9h42.71v30.1h-77.02z" id="path22" style="fill:#fff"/><path class="cls-1" d="M447.87 1432.46c0 11.65 3.55 14.24 10.67 14.24s10.36-2.59 10.36-14.24v-24.28c0-32.35-55.34-64.07-55.34-101.61v-33.01c0-30.09 23.63-38.83 44.66-38.83 21.03 0 44.98 8.74 44.98 38.83v48.55h-34.3v-45.63c0-11.65-3.56-14.24-10.36-14.24-6.8 0-10.67 2.59-10.67 14.24v28.47c0 16.51 55.33 66.34 55.33 89.64v40.77c0 30.09-23.62 38.83-44.98 38.83-21.36 0-44.66-8.73-44.66-38.83v-53.07h34.31v50.16z" id="path24" style="fill:#fff"/><path class="cls-1" d="M605.87 1239.26v30.09H576.1v200.32h-34.3v-200.32h-30.1v-30.09z" id="path26" style="fill:#fff"/><path class="cls-1" d="M628.1 1239.26h51.45l26.22 230.41h-34.63l-6.47-62.46h-24.28l-7.44 62.46h-31.06l26.22-230.41zm33.33 137.86-7.12-95.78h-2.27l-8.41 95.78z" id="path28" style="fill:#fff"/><path class="cls-1" d="M726.83 1469.67v-230.41h34.31v200.32h40.74v30.1h-75.04z" id="path30" style="fill:#fff"/><path class="cls-1" d="M882.9 1239.26v30.09h-29.78v200.32h-34.3v-200.32h-30.1v-30.09z" id="path32" style="fill:#fff"/><path class="cls-1" d="M897.29 1469.67v-230.41h76.37v30.09h-42.07v59.22h40.45v30.1h-40.45v80.9h42.71v30.1h-77.02z" id="path34" style="fill:#fff"/><path class="cls-1" d="m1051.15 1239.26 9.71 66.34c7.76 42.72 13.26 87.05 16.17 130.41h1.3v-12.3c.32-22.33-.97-44.98-.97-67.31v-117.15h28.15v230.41h-50.8l-16.18-115.21c-5.5-28.48-7.44-54.37-10.35-81.55h-1.3c0 10.02.65 20.06.98 29.77v166.98h-28.15v-230.41h51.45z" id="path36" style="fill:#fff"/></g><g id="g46" style="fill:#fff"><path class="cls-1" d="M144.96 1401.59c22.65 0 33.93 10.4 33.93 34.04s-11.27 34.04-33.93 34.04H99.1v-20.36h47.06c10.07 0 15.21-3.61 15.21-13.68s-5.14-13.68-15.21-13.68H99.1v-20.36z" id="path40" style="fill:#fff"/><path class="cls-1" d="M99.1 1388.19v-20.9l48.16-27.15v-.22H99.1v-19.15h78.15v20.9l-48.7 27.15v.22h48.7v19.15z" id="path42" style="fill:#fff"/><path class="cls-1" d="M99.1 1306.83v-33.6c0-23.97 14.56-38.31 38.75-38.31 25.61 0 39.4 14.56 39.4 38.31v33.6zm60.64-20.36v-9.63c-.33-15.43-6.35-21.56-22-21.56-14.33 0-21.12 7.55-21.12 21.56v9.63z" id="path44" style="fill:#fff"/></g><g id="g54" style="fill:#fff"><path class="cls-1" d="M911.71 754.31H887l-25.97-82.42h22.39l16.16 61.3h.23l16.16-61.3h22.39l-26.67 82.42z" id="path48" style="fill:#fff"/><path class="cls-1" d="M982.05 670.16c25.86 0 40.63 19.04 40.63 42.95 0 23.91-14.78 42.94-40.63 42.94s-40.63-19.04-40.63-42.94 14.78-42.95 40.63-42.95zm0 67.41c13.85 0 19.16-12.12 19.16-24.47s-5.31-24.48-19.16-24.48c-13.85 0-19.17 12.13-19.17 24.48s5.31 24.47 19.17 24.47z" id="path50" style="fill:#fff"/><path class="cls-1" d="M1034.16 671.89h22.05l28.63 50.79h.23v-50.79h20.2v82.42h-22.05l-28.63-51.37h-.23v51.37h-20.2z" id="path52" style="fill:#fff"/></g><path class="cls-1" d="M476.91 0h-.86v120.6l-3.85-13.75v.12L442.65 1.54l-.08-.31C336.2 8.81 239.47 51.33 163.76 117.4l77.07 126.01-125.58-77.09c-63.69 74.13-105 168.06-113.56 271.32l97 39.43H0c.16 109.27 36.94 211.21 98.69 291.6l205.3-204.77c-13.2-26.09-20.63-55.59-20.63-86.83 0-106.41 86.27-192.7 192.7-192.7 31.23 0 60.7 7.43 86.77 20.61L768.09 99.8C687.65 37.8 586.26 0 476.91 0m86.46 653.92c0 10.38-1.34 20.47-3.89 30.06l41.39 18.28 136.1 60.12 7.89-7.74-66.94-249.65-65.66-34.3-6.03-22.44 84.27 44.04 11.57 43.49 32.59 17.01-27.2-101.36-90.12-150.57-10.85 10.85.02.02-197.95 198.14 27.04 27.14c3.44-.29 6.9-.47 10.4-.47 64.82 0 117.36 52.53 117.36 117.36M296.74 761.5l40.36-149.79 13.05-13.24c-30.35-31.46-49.02-74.25-49.02-121.4 0-96.61 78.32-174.91 174.91-174.91 32.9 0 63.66 9.08 89.94 24.87L386.56 506.45l-3.19 3.19 2.68 2.66 28.48 28.5 14.89 14.91c5.39-.89 10.93-1.38 16.57-1.38 49.62 0 90.76 36.3 98.3 83.8.72 4.51 1.15 9.1 1.22 13.78L296.72 761.49Z" id="path56" style="fill:#fff"/></g></g></svg>