<svg xmlns="http://www.w3.org/2000/svg" viewBox="0 0 500 429.52"><defs><style>.cls-1{fill:#333a46}.cls-2{fill:#fff}.cls-3{fill:#7bc0bc}</style></defs><g id="Ebene_2" data-name="Ebene 2"><g id="newsticker"><path d="M405.52 364.46H0L94.48 0H500l-94.48 364.46zM92.65 396c1.61 1.9 2.41 4.49 2.41 7.79v25h-5.47v-24.15q0-3.69-1.24-5.21a4.51 4.51 0 0 0-3.69-1.52 6.67 6.67 0 0 0-4.39 1.58 16.16 16.16 0 0 0-3.57 4.56v24.68h-5.46V394h4.69l.48 5.15a13 13 0 0 1 4.12-4.36 9.93 9.93 0 0 1 5.47-1.63 8.28 8.28 0 0 1 6.65 2.84ZM129.57 413.42h-20c.24 3.83 1.11 6.64 2.61 8.45a7.26 7.26 0 0 0 5.83 2.7 11.59 11.59 0 0 0 4.15-.72 16.47 16.47 0 0 0 4-2.31l2.38 3.63a16.29 16.29 0 0 1-10.93 4.35 12.12 12.12 0 0 1-10.19-4.75q-3.64-4.75-3.65-13.07a27.22 27.22 0 0 1 1.57-9.6 15.07 15.07 0 0 1 4.52-6.57 10.68 10.68 0 0 1 6.92-2.37q6.24 0 9.56 4.55t3.33 12.61c.02 1.01-.02 2.04-.1 3.1Zm-5.29-4.88c0-3.44-.61-6.05-1.84-7.86a6.24 6.24 0 0 0-5.52-2.7q-6.72 0-7.31 10.95h14.67ZM167.35 428.73h-7.43l-5.46-29.3-5.65 29.3h-7.24L134.26 394h5.47l5.64 30.56 6.18-30.56h6.12l5.88 30.56 5.7-30.56h5.23ZM195.56 394.15a16.88 16.88 0 0 1 4.87 3l-2.31 3.85a18.43 18.43 0 0 0-4.07-2.25A11.59 11.59 0 0 0 190 398a6.6 6.6 0 0 0-4.22 1.22 4.42 4.42 0 0 0-.09 6.63 16 16 0 0 0 5.26 2.31 18.06 18.06 0 0 1 7.81 4 9.12 9.12 0 0 1 2.58 6.86 9.22 9.22 0 0 1-3.59 7.86 14.18 14.18 0 0 1-8.76 2.7 16.31 16.31 0 0 1-11.84-4.58l2.91-3.7a13.26 13.26 0 0 0 8.79 3.37 7.72 7.72 0 0 0 4.9-1.42 4.64 4.64 0 0 0 1.81-3.86 5.57 5.57 0 0 0-.65-2.87 5.44 5.44 0 0 0-2.26-1.92 29.23 29.23 0 0 0-4.69-1.75c-3.33-1-5.73-2.26-7.22-3.89a8.87 8.87 0 0 1-2.23-6.2 8.74 8.74 0 0 1 1.46-4.92 9.65 9.65 0 0 1 4-3.43 13.43 13.43 0 0 1 5.79-1.22 15.81 15.81 0 0 1 5.8.96ZM224.85 427.15a11.22 11.22 0 0 1-7 2.37 7.79 7.79 0 0 1-6.21-2.54q-2.24-2.53-2.23-7.36v-21h-5.46V394h5.46v-7.86l5.47-.72V394h7.42l-.59 4.69h-6.83v20.72a6.94 6.94 0 0 0 .86 3.93 3.28 3.28 0 0 0 2.88 1.22 7.43 7.43 0 0 0 4.16-1.52ZM236 378.44a4.23 4.23 0 0 1 1.07 3 4.13 4.13 0 0 1-1.07 2.94 3.61 3.61 0 0 1-2.79 1.15 3.54 3.54 0 0 1-2.73-1.15 4.17 4.17 0 0 1-1.07-2.94 4.28 4.28 0 0 1 1.07-3 3.51 3.51 0 0 1 2.73-1.19 3.58 3.58 0 0 1 2.79 1.19Zm0 50.29h-5.46V394H236ZM263.75 394.05a13.92 13.92 0 0 1 4.46 2.87l-2.62 3.83a13.29 13.29 0 0 0-3.23-1.95 9.29 9.29 0 0 0-3.48-.63 6.64 6.64 0 0 0-5.91 3.37c-1.41 2.24-2.11 5.57-2.11 10s.69 7.65 2.08 9.74a6.72 6.72 0 0 0 5.94 3.14 8.9 8.9 0 0 0 3.39-.63 17 17 0 0 0 3.44-2l2.5 4a14 14 0 0 1-9.57 3.82 12 12 0 0 1-10-4.75Q245 420 245 411.64a26.16 26.16 0 0 1 1.66-9.7 14.69 14.69 0 0 1 4.73-6.47 11.72 11.72 0 0 1 7.27-2.31 14 14 0 0 1 5.09.89ZM281.1 428.73h-5.47V380l5.47-.73Zm6.47-19.4 12.83 19.4h-6.53l-12.42-19L293 394h6.11ZM329 413.42h-20c.24 3.83 1.11 6.64 2.62 8.45a7.22 7.22 0 0 0 5.82 2.7 11.69 11.69 0 0 0 4.16-.72 16.85 16.85 0 0 0 4-2.31l2.37 3.63a16.27 16.27 0 0 1-10.97 4.35 12.1 12.1 0 0 1-10.18-4.75q-3.66-4.75-3.66-13.07a27.22 27.22 0 0 1 1.58-9.6 15 15 0 0 1 4.51-6.57 10.7 10.7 0 0 1 6.92-2.37q6.24 0 9.57 4.55t3.32 12.61c.03 1.01-.01 2.04-.06 3.1Zm-5.28-4.88c0-3.44-.62-6.05-1.85-7.86a6.22 6.22 0 0 0-5.52-2.7q-6.72 0-7.31 10.95h14.68ZM354.81 393.55l-1 5.94a10.34 10.34 0 0 0-2.73-.39 5.58 5.58 0 0 0-4.69 2.37 18.82 18.82 0 0 0-2.8 7.4v19.86h-5.46V394h4.69l.54 7.06a13.47 13.47 0 0 1 3.38-5.87 7.12 7.12 0 0 1 5-2 11.67 11.67 0 0 1 3.07.36Z" class="cls-1"/><path d="M125.44 66.93v-7.85h-7.55v-3.75h7.55v-7.9h4v7.9h7.5v3.75h-7.5v7.85ZM152.44 66.93v-7.85h-7.55v-3.75h7.55v-7.9h4v7.9h7.5v3.75h-7.5v7.85ZM179.44 66.93v-7.85h-7.55v-3.75h7.55v-7.9h4v7.9h7.5v3.75h-7.5v7.85ZM363.44 103.93v-7.85h-7.55v-3.75h7.55v-7.9h4v7.9h7.5v3.75h-7.5v7.85ZM390.44 103.93v-7.85h-7.55v-3.75h7.55v-7.9h4v7.9h7.5v3.75h-7.5v7.85ZM417.44 103.93v-7.85h-7.55v-3.75h7.55v-7.9h4v7.9h7.5v3.75h-7.5v7.85Z" class="cls-2"/><path d="M390 53.26H215.49a6.17 6.17 0 0 0 0 12.34H390a6.17 6.17 0 1 0 0-12.34ZM332.08 88.6H135.49a6.18 6.18 0 0 0 0 12.35h196.59a6.18 6.18 0 0 0 0-12.35Z" class="cls-3"/><path d="M102.44 173.93v-7.85h-7.55v-3.75h7.55v-7.9h4v7.9h7.5v3.75h-7.5v7.85ZM129.44 173.93v-7.85h-7.55v-3.75h7.55v-7.9h4v7.9h7.5v3.75h-7.5v7.85ZM156.44 173.93v-7.85h-7.55v-3.75h7.55v-7.9h4v7.9h7.5v3.75h-7.5v7.85ZM340.44 210.93v-7.85h-7.55v-3.75h7.55v-7.9h4v7.9h7.5v3.75h-7.5v7.85ZM367.44 210.93v-7.85h-7.55v-3.75h7.55v-7.9h4v7.9h7.5v3.75h-7.5v7.85ZM394.44 210.93v-7.85h-7.55v-3.75h7.55v-7.9h4v7.9h7.5v3.75h-7.5v7.85Z" class="cls-2"/><path d="M367 160.26H192.49a6.17 6.17 0 0 0 0 12.34H367a6.17 6.17 0 1 0 0-12.34ZM309.08 195.6H112.49a6.18 6.18 0 0 0 0 12.35h196.59a6.18 6.18 0 0 0 0-12.35Z" class="cls-3"/><path d="M78.44 280.93v-7.85h-7.55v-3.75h7.55v-7.9h4v7.9h7.5v3.75h-7.5v7.85ZM105.44 280.93v-7.85h-7.55v-3.75h7.55v-7.9h4v7.9h7.5v3.75h-7.5v7.85ZM132.44 280.93v-7.85h-7.55v-3.75h7.55v-7.9h4v7.9h7.5v3.75h-7.5v7.85ZM316.44 317.93v-7.85h-7.55v-3.75h7.55v-7.9h4v7.9h7.5v3.75h-7.5v7.85ZM343.44 317.93v-7.85h-7.55v-3.75h7.55v-7.9h4v7.9h7.5v3.75h-7.5v7.85ZM370.44 317.93v-7.85h-7.55v-3.75h7.55v-7.9h4v7.9h7.5v3.75h-7.5v7.85Z" class="cls-2"/><path d="M343 267.26H168.49a6.17 6.17 0 1 0 0 12.34H343a6.17 6.17 0 1 0 0-12.34ZM285.08 302.6H88.49a6.18 6.18 0 0 0 0 12.35h196.59a6.18 6.18 0 0 0 0-12.35Z" class="cls-3"/></g></g></svg>