<svg xmlns="http://www.w3.org/2000/svg" viewBox="0 0 500 429.52"><defs><style>.cls-1{fill:#333a46;}.cls-2{fill:#fff;}.cls-3{fill:#7bc0bc;}</style></defs><title>Element 4</title><g id="Ebene_2" data-name="Ebene 2"><g id="newsticker"><polygon class="cls-1" points="405.52 364.46 0 364.46 94.48 0 500 0 405.52 364.46"/><path class="cls-1" d="M96.65,396c1.61,1.9,2.41,4.49,2.41,7.79v25H93.59V404.64q0-3.69-1.24-5.21a4.51,4.51,0,0,0-3.69-1.52,6.67,6.67,0,0,0-4.39,1.58,16.16,16.16,0,0,0-3.57,4.56v24.68H75.24V394h4.69l.48,5.15a13,13,0,0,1,4.12-4.36A9.93,9.93,0,0,1,90,393.16,8.28,8.28,0,0,1,96.65,396Z" transform="translate(-4)"/><path class="cls-1" d="M133.57,413.42h-20c.24,3.83,1.11,6.64,2.61,8.45a7.26,7.26,0,0,0,5.83,2.7,11.59,11.59,0,0,0,4.15-.72,16.47,16.47,0,0,0,4-2.31l2.38,3.63a16.29,16.29,0,0,1-10.93,4.35,12.12,12.12,0,0,1-10.19-4.75q-3.64-4.75-3.65-13.07a27.22,27.22,0,0,1,1.57-9.6,15.07,15.07,0,0,1,4.52-6.57,10.68,10.68,0,0,1,6.92-2.37q6.24,0,9.56,4.55t3.33,12.61C133.69,411.33,133.65,412.36,133.57,413.42Zm-5.29-4.88c0-3.44-.61-6.05-1.84-7.86a6.24,6.24,0,0,0-5.52-2.7q-6.72,0-7.31,10.95h14.67Z" transform="translate(-4)"/><path class="cls-1" d="M171.35,428.73h-7.43l-5.46-29.3-5.65,29.3h-7.24L138.26,394h5.47l5.64,30.56L155.55,394h6.12l5.88,30.56,5.7-30.56h5.23Z" transform="translate(-4)"/><path class="cls-1" d="M199.56,394.15a16.88,16.88,0,0,1,4.87,3L202.12,401a18.43,18.43,0,0,0-4.07-2.25A11.59,11.59,0,0,0,194,398a6.6,6.6,0,0,0-4.22,1.22,4.42,4.42,0,0,0-.09,6.63,16,16,0,0,0,5.26,2.31,18.06,18.06,0,0,1,7.81,4,9.12,9.12,0,0,1,2.58,6.86,9.22,9.22,0,0,1-3.59,7.86,14.18,14.18,0,0,1-8.76,2.7A16.31,16.31,0,0,1,181.15,425l2.91-3.7a13.26,13.26,0,0,0,8.79,3.37,7.72,7.72,0,0,0,4.9-1.42,4.64,4.64,0,0,0,1.81-3.86,5.57,5.57,0,0,0-.65-2.87,5.44,5.44,0,0,0-2.26-1.92,29.23,29.23,0,0,0-4.69-1.75c-3.33-1-5.73-2.26-7.22-3.89a8.87,8.87,0,0,1-2.23-6.2,8.74,8.74,0,0,1,1.46-4.92,9.65,9.65,0,0,1,4-3.43,13.43,13.43,0,0,1,5.79-1.22A15.81,15.81,0,0,1,199.56,394.15Z" transform="translate(-4)"/><path class="cls-1" d="M228.85,427.15a11.22,11.22,0,0,1-7,2.37,7.79,7.79,0,0,1-6.21-2.54q-2.24-2.53-2.23-7.36v-21h-5.46V394h5.46v-7.86l5.47-.72V394h7.42l-.59,4.69h-6.83v20.72a6.94,6.94,0,0,0,.86,3.93,3.28,3.28,0,0,0,2.88,1.22,7.43,7.43,0,0,0,4.16-1.52Z" transform="translate(-4)"/><path class="cls-1" d="M240,378.44a4.23,4.23,0,0,1,1.07,3,4.13,4.13,0,0,1-1.07,2.94,3.61,3.61,0,0,1-2.79,1.15,3.54,3.54,0,0,1-2.73-1.15,4.17,4.17,0,0,1-1.07-2.94,4.28,4.28,0,0,1,1.07-3,3.51,3.51,0,0,1,2.73-1.19A3.58,3.58,0,0,1,240,378.44Zm0,50.29h-5.46V394H240Z" transform="translate(-4)"/><path class="cls-1" d="M267.75,394.05a13.92,13.92,0,0,1,4.46,2.87l-2.62,3.83a13.29,13.29,0,0,0-3.23-1.95,9.29,9.29,0,0,0-3.48-.63,6.64,6.64,0,0,0-5.91,3.37c-1.41,2.24-2.11,5.57-2.11,10s.69,7.65,2.08,9.74a6.72,6.72,0,0,0,5.94,3.14,8.9,8.9,0,0,0,3.39-.63,17,17,0,0,0,3.44-2l2.5,4a14,14,0,0,1-9.57,3.82,12,12,0,0,1-10-4.75Q249,420,249,411.64a26.16,26.16,0,0,1,1.66-9.7,14.69,14.69,0,0,1,4.73-6.47,11.72,11.72,0,0,1,7.27-2.31A14,14,0,0,1,267.75,394.05Z" transform="translate(-4)"/><path class="cls-1" d="M285.1,428.73h-5.47V380l5.47-.73Zm6.47-19.4,12.83,19.4h-6.53l-12.42-19L297,394h6.11Z" transform="translate(-4)"/><path class="cls-1" d="M333,413.42H313c.24,3.83,1.11,6.64,2.62,8.45a7.22,7.22,0,0,0,5.82,2.7,11.69,11.69,0,0,0,4.16-.72,16.85,16.85,0,0,0,4-2.31l2.37,3.63A16.27,16.27,0,0,1,321,429.52a12.1,12.1,0,0,1-10.18-4.75q-3.66-4.75-3.66-13.07a27.22,27.22,0,0,1,1.58-9.6,15,15,0,0,1,4.51-6.57,10.7,10.7,0,0,1,6.92-2.37q6.24,0,9.57,4.55t3.32,12.61C333.09,411.33,333.05,412.36,333,413.42Zm-5.28-4.88c0-3.44-.62-6.05-1.85-7.86a6.22,6.22,0,0,0-5.52-2.7q-6.72,0-7.31,10.95h14.68Z" transform="translate(-4)"/><path class="cls-1" d="M358.81,393.55l-1,5.94a10.34,10.34,0,0,0-2.73-.39,5.58,5.58,0,0,0-4.69,2.37,18.82,18.82,0,0,0-2.8,7.4v19.86h-5.46V394h4.69l.54,7.06a13.47,13.47,0,0,1,3.38-5.87,7.12,7.12,0,0,1,5-2A11.67,11.67,0,0,1,358.81,393.55Z" transform="translate(-4)"/><path class="cls-2" d="M129.44,66.93V59.08h-7.55V55.33h7.55v-7.9h4v7.9h7.5v3.75h-7.5v7.85Z" transform="translate(-4)"/><path class="cls-2" d="M156.44,66.93V59.08h-7.55V55.33h7.55v-7.9h4v7.9h7.5v3.75h-7.5v7.85Z" transform="translate(-4)"/><path class="cls-2" d="M183.44,66.93V59.08h-7.55V55.33h7.55v-7.9h4v7.9h7.5v3.75h-7.5v7.85Z" transform="translate(-4)"/><path class="cls-2" d="M367.44,103.93V96.08h-7.55V92.33h7.55v-7.9h4v7.9h7.5v3.75h-7.5v7.85Z" transform="translate(-4)"/><path class="cls-2" d="M394.44,103.93V96.08h-7.55V92.33h7.55v-7.9h4v7.9h7.5v3.75h-7.5v7.85Z" transform="translate(-4)"/><path class="cls-2" d="M421.44,103.93V96.08h-7.55V92.33h7.55v-7.9h4v7.9h7.5v3.75h-7.5v7.85Z" transform="translate(-4)"/><path class="cls-3" d="M394,53.26H219.49a6.17,6.17,0,0,0,0,12.34H394a6.17,6.17,0,1,0,0-12.34Z" transform="translate(-4)"/><path class="cls-3" d="M336.08,88.6H139.49a6.18,6.18,0,0,0,0,12.35H336.08a6.18,6.18,0,0,0,0-12.35Z" transform="translate(-4)"/><path class="cls-2" d="M106.44,173.93v-7.85H98.89v-3.75h7.55v-7.9h4v7.9h7.5v3.75h-7.5v7.85Z" transform="translate(-4)"/><path class="cls-2" d="M133.44,173.93v-7.85h-7.55v-3.75h7.55v-7.9h4v7.9h7.5v3.75h-7.5v7.85Z" transform="translate(-4)"/><path class="cls-2" d="M160.44,173.93v-7.85h-7.55v-3.75h7.55v-7.9h4v7.9h7.5v3.75h-7.5v7.85Z" transform="translate(-4)"/><path class="cls-2" d="M344.44,210.93v-7.85h-7.55v-3.75h7.55v-7.9h4v7.9h7.5v3.75h-7.5v7.85Z" transform="translate(-4)"/><path class="cls-2" d="M371.44,210.93v-7.85h-7.55v-3.75h7.55v-7.9h4v7.9h7.5v3.75h-7.5v7.85Z" transform="translate(-4)"/><path class="cls-2" d="M398.44,210.93v-7.85h-7.55v-3.75h7.55v-7.9h4v7.9h7.5v3.75h-7.5v7.85Z" transform="translate(-4)"/><path class="cls-3" d="M371,160.26H196.49a6.17,6.17,0,0,0,0,12.34H371a6.17,6.17,0,1,0,0-12.34Z" transform="translate(-4)"/><path class="cls-3" d="M313.08,195.6H116.49a6.18,6.18,0,0,0,0,12.35H313.08a6.18,6.18,0,0,0,0-12.35Z" transform="translate(-4)"/><path class="cls-2" d="M82.44,280.93v-7.85H74.89v-3.75h7.55v-7.9h4v7.9h7.5v3.75h-7.5v7.85Z" transform="translate(-4)"/><path class="cls-2" d="M109.44,280.93v-7.85h-7.55v-3.75h7.55v-7.9h4v7.9h7.5v3.75h-7.5v7.85Z" transform="translate(-4)"/><path class="cls-2" d="M136.44,280.93v-7.85h-7.55v-3.75h7.55v-7.9h4v7.9h7.5v3.75h-7.5v7.85Z" transform="translate(-4)"/><path class="cls-2" d="M320.44,317.93v-7.85h-7.55v-3.75h7.55v-7.9h4v7.9h7.5v3.75h-7.5v7.85Z" transform="translate(-4)"/><path class="cls-2" d="M347.44,317.93v-7.85h-7.55v-3.75h7.55v-7.9h4v7.9h7.5v3.75h-7.5v7.85Z" transform="translate(-4)"/><path class="cls-2" d="M374.44,317.93v-7.85h-7.55v-3.75h7.55v-7.9h4v7.9h7.5v3.75h-7.5v7.85Z" transform="translate(-4)"/><path class="cls-3" d="M347,267.26H172.49a6.17,6.17,0,1,0,0,12.34H347a6.17,6.17,0,1,0,0-12.34Z" transform="translate(-4)"/><path class="cls-3" d="M289.08,302.6H92.49a6.18,6.18,0,0,0,0,12.35H289.08a6.18,6.18,0,0,0,0-12.35Z" transform="translate(-4)"/></g></g></svg>