<svg xmlns="http://www.w3.org/2000/svg" xml:space="preserve" id="erdmannfreunde" x="0" y="0" version="1.1" viewBox="0 0 250 250"><style>.ef{fill:#fff}</style><path fill="#fff" stroke="#000" stroke-miterlimit="10" d="M.5.5h249v249H.5z"/><path d="M0 0h250v250H0z"/><path d="M151.2 129c-.1-9.8-3.1-17.6-9.1-23.2-5.9-5.5-13.1-8.3-21.7-8.4-3.6 0-7.1.6-10.8 1.9-3.7 1.3-7 3.4-10 6.3-2.9 2.9-5.3 6.8-7.2 11.8-1.9 4.9-2.8 11-2.8 18.4 0 7.7 1.1 13.9 3.2 18.7 2 5 4.5 8.9 7.7 11.7 1.6 1.3 3.4 2.5 5.3 3.4 1.8 1.1 3.6 1.9 5.5 2.5 3.7 1.2 7.6 1.7 11.5 1.7 10.3.1 19.3-3.9 26.9-12.1l-10.9-9.3c-4.8 4.8-10.2 7.3-16.3 7.3-5.2 0-9.5-1.6-12.7-4.7-3.5-3.1-5.2-7.7-5.2-13.7h46.6V129zm-46.6 0c.3-5.8 1.8-10.2 4.7-13.2 2.9-2.8 6.6-4.2 11.1-4.2s8.2 1.4 11.1 4.2c2.9 3 4.5 7.4 4.7 13.2h-31.6z" class="ef"/><path d="M177.5 191.3H63.3V77.2h87.9V68H54.1v132.5h132.6v-59.1h-9.2zm13.1-133.1h5.2v-8.7h-5.9c-3.6 0-6.5 1-8.9 2.9-2.4 2.1-3.6 5.3-3.6 9.6v6h-4.6v9.2h4.6v36.6h9.2V77.2h9.2V68h-9.2v-6c-.1-2.7 1.3-3.9 4-3.8z" class="ef"/></svg>