<?xml version="1.0" encoding="utf-8"?>
<!-- Generator: Adobe Illustrator 23.1.1, SVG Export Plug-In . SVG Version: 6.00 Build 0)  -->
<svg version="1.1" xmlns="http://www.w3.org/2000/svg" xmlns:xlink="http://www.w3.org/1999/xlink" x="0px" y="0px"
	 viewBox="0 0 595.3 711" style="enable-background:new 0 0 595.3 711;" xml:space="preserve">
<style type="text/css">
	.st0{fill:#3C3C43;}
	.st1{fill:#BBCB46;}
	.st2{fill:#3C3D44;}
	.st3{display:none;fill:#3C3C43;}
	.st4{font-family:'AmerikaSans';}
	.st5{font-size:71.0405px;}
	.st6{display:none;}
</style>
<g id="duncrow_logo">
	<path id="outline_4" class="st0" d="M130,286.5l2.8,7.1c0,0-4.6,12.7-6,14.9c-1.4,2.1-29.4,37.5-33.6,50.9c-4.2,13.4-6.4,32.9,0,46
		c0,0,1.8,7.1,5-3.2c0,0-3.5-8.1,21.9,19.8c0,0,3.2,5,5.7-7.1c0,0-2.8-6.7,29.4,21.9c0,0,3.5,2.8,5.7-14.1l56.2,42.1l-1.4,18
		l-48.8-24.8l-4.2,12.4l-38.2-23.3l-3.9,11L101,436.8l-6.4,14.5c0,0-36.1-27.2-12.7-89.9C105.2,298.9,118.3,296.7,130,286.5z"/>
	<g>
		<path id="outline_1" class="st0" d="M209.8,41.6c-2.8,0-71.8,8.5-99.8,21.9C82.1,77,70,77.7,56.9,92.6
			c-13.1,14.9-16.6,27.2-15.6,29.4l52-19.5c0,0,64.4-13.1,98.7-5c0,0,17.7,2.1,30.4,1.1c0,0-6.4,4.2-55.2,9.9
			c0,0-46.3,9.2-67.6,21.9l-31.5,13.4l-7.4,7.8c0,0,12,5.3,44.6,1.1c32.5-4.2,58.4-5.3,58.4-5.3s48.8,7.4,56.6,31.5
			c0,0-5.3,13.1-27.6,16.3c-22.3,3.2-53.8,10.3-60.1,22.3L99,257.8c0,0-19.1,24.4-21.9,29.4c-2.8,5-29,43.5-33.3,62.6
			c0,0-14.1,15.9-18.7,30.1c-4.6,14.2,0.4,34.7,0.4,34.7l3.9,17.3c0,0,0.4,60.8,3.2,75.7c2.8,14.9,3.9,43.2,18.7,49.2
			c14.9,6,16.6,3.9,17.3-8.1c0.7-12,8.1,7.1,8.1,8.5c0,1.4,8.1-1.8,8.1-1.8l7.4-20.5l-7.1-13.4c0,0-10.3-5-13.1-1.4
			c-2.8,3.5-2.1,6.4-4.6,6.4c-2.5,0-14.9-0.7-14.5-77.8c0,0,6.7-40-4.2-49.5c-11-9.6,1.8-41,9.6-48.5c7.8-7.4,52.4-78.5,52.4-78.5
			l30.4-38.6c0,0,14.9-9.9,30.8-8.8c0,0-29,33.6-33.6,62.3c-4.6,28.7-0.7,40,1.4,42.5c0,0,1.4,2.5,6-9.6c0,0,19.5-45.3,21.6-48.1
			c2.1-2.8,5.3-9.9,7.1,6.4c0,0,1.8,43.5,2.5,54.1c0.7,10.6,9.2,26.2,13.8,21.9c4.6-4.2,5.7-13.1,9.2-34.7c0,0-1.4-12,23.3,39.3
			c0,0,2.8,14.2,9.6-13.4c0,0,2.5-13.1,12,6c9.6,19.1,11.3,21.6,15.6,23.7c0,0,3.9,3.2,6-10.6c2.1-13.8,1.4-33.3,9.9-9.9
			c8.5,23.3,11.7,32.5,11.7,32.5s5.3,6.4,5-3.5c-0.4-9.9,3.2-27.6,3.9-30.8c0.7-3.2,2.1-14.2,15.9-1.1
			c13.8,13.1,14.9,14.9,14.9,14.9l-0.4-14.5c0,0-25.8-34.3-26.2-38.6c0,0-1.8-3.5-8.8,30.1c0,0-1.8,14.5-9.2-6
			c-7.4-20.5-9.6-45.6-18-2.8c0,0-1.1,12.4-13.4-1.8c-12.4-14.2-14.9-29-16.6-14.5c-1.8,14.5-6.4,13.4-13.1-1.8
			c-6.7-15.2-19.8-44.6-22.6-21.2l-5.3,12c0,0-1.1,4.2-1.8-4.6c-0.7-8.8-5.7-51.6-5.7-51.6s-0.4-13.8-9.9-1.8
			c-9.6,12-9.9,10.3-9.9,10.3s-1.1-9.6,12.4-23c13.4-13.4,20.5-16.6,20.5-16.6s22.6-8.5,26.2-14.2c0,0,28.3,32.5,64,38.9l26.9,3.2
			V238c0,0-47.4-14.9-69.7-45.3l-9.2-21.2c0,0,1.8-45.6-63.7-44.6c0,0,108.6-17.7,113.6-22.3c5-4.6,7.8-6.7,7.8-6.7v-6.4
			c0,0-90.2-18-101.5-16.6c0,0-52-2.8-73.2,3.2l80.3-21.9c0,0,17.7-1.4,56.2-16.3c0,0,23-8.1,87-5.3c0,0,19.5-2.5,55.2,27.2
			c35.7,29.7,52.7,39.3,52.7,39.3s13.8,12,18.7,27.6s22.6,71.1,22.6,71.1s11.7,58.7,54.5,119.9c0,0,9.9,20.5-5.7,46.7
			c-15.6,26.2-38.6,64.4-38.6,64.4s-22.3,42.5-82.8,97.3l3.5,20.5l11,5.7c0,0,9.6-4.6,14.9-13.4c0,0,0.7,19.8,18.8,12.7
			c0,0,11-6.4,14.5-20.2c3.5-13.8-2.1-17.3,11.3-33.3c13.4-15.9,69-111.4,69-111.4s20.9-20.9,0.7-72.2c0,0-42.1-76.4-45.6-87.7
			c-3.5-11.3,0.4-19.1-5.3-33.6c-5.7-14.5-10.6-61.9-53.4-101.9c-42.8-40-73.6-64-99.1-70.4c-25.5-6.4-70.4-4.2-87.7-1.4
			c-17.3,2.8-48.1,8.5-53.8,12.4C214,37.7,209.8,41.6,209.8,41.6z"/>
		<path id="outline_2" class="st0" d="M426.3,92.6c0,0,29.7,33.6,35,60.1c5.3,26.5,17.7,76.8,27.9,104.7
			c10.3,27.9,17.3,51.3,27.6,70.8c10.3,19.5,2.8,43.9-2.5,60.5c-5.3,16.6-22.3,58-49.2,78.9c-26.9,20.9-25.5,20.9-25.5,20.9
			l-3.9-18.7c0,0,58.4-81,60.5-134.1c0,0,1.4-18-5-30.8c-6.4-12.7-23.3-65.4-27.6-75.7c-4.2-10.3-12.7-29.4-19.1-58
			c-6.4-28.7-16.3-54.5-17-67.6C427,90.5,426.3,92.6,426.3,92.6z"/>
		<path id="outline_3" class="st0" d="M464.5,307.3l9.9,27.6c0,0,14.5,76.1-57.3,154.9c0,0-26.9,17.7-41,30.1
			c-14.1,12.4-2.5-20.2-2.5-20.2S460.6,400.4,464.5,307.3z"/>
		<path id="auge" class="st0" d="M329.3,61.8c0,9-11.4,16.3-25.5,16.3c-14.1,0-25.5-7.3-25.5-16.3c0-9,11.4-16.3,25.5-16.3
			C317.9,45.5,329.3,52.8,329.3,61.8z"/>
		<g>
			<g>
				<path class="st1" d="M76.5,668.1c-1.6,4.7-3.8,8.7-6.6,12.1c-2.8,3.4-6,6-9.7,8c-3.7,1.9-7.6,2.8-11.8,2.7c-0.5,0-1.2,0-2,0
					c-0.7,0-2,0-3.8,0s-4.3,0-7.6,0c-3.2,0-7.6,0-13.2,0v-73.9h20.4c5.9,0,11.1,0.8,15.6,2.5c4.5,1.7,8.4,4.1,11.5,7.2
					c3.1,3.1,5.5,6.9,7.1,11.4c1.6,4.5,2.5,9.5,2.5,15.1C78.9,658.4,78.1,663.4,76.5,668.1z M36.2,623.9c-0.8,0.2-1.4,0.5-1.8,1
					c-0.7,1.7-1.1,4.4-1.1,8.1v37.6c0,3.8,0.1,6.8,0.2,9.1c0.2,2.2,0.8,3.9,1.9,4.9c5.1,0.9,9.4,1,13,0.5c3.6-0.5,6.5-1.5,8.9-3
					c2.3-1.5,4.2-3.3,5.5-5.6c1.3-2.2,2.3-4.6,3-7.1c0.7-2.5,1.1-5.1,1.2-7.7c0.1-2.6,0.2-5,0.2-7.3c0-10-2.4-17.6-7.1-22.9
					c-4.7-5.3-11.7-7.9-20.9-7.9C37.9,623.6,36.9,623.7,36.2,623.9z"/>
				<path class="st1" d="M133.4,617h11.5v47.9c0,8-2.5,14.3-7.6,19c-5,4.6-12.3,6.9-21.9,6.9c-4.5,0-8.6-0.6-12.1-1.8
					c-3.5-1.2-6.5-2.9-9-5.2c-2.5-2.2-4.3-4.9-5.6-8.1c-1.3-3.2-1.9-6.8-1.9-10.8V617h11.5V668c0,3.3,0.5,6,1.6,8.3
					c1,2.2,2.4,4,4.1,5.3c1.7,1.3,3.6,2.2,5.7,2.8c2.1,0.5,4.2,0.8,6.3,0.7c2.1,0.1,4.1-0.2,6.2-0.7c2.1-0.6,3.9-1.5,5.6-2.8
					c1.7-1.3,3-3.1,4.1-5.3c1-2.2,1.6-4.9,1.6-8.2V617z"/>
				<path class="st1" d="M164.9,690.7h-11.5v-47.9c0-8,2.5-14.3,7.6-19c5-4.6,12.3-6.9,21.9-6.9c4.5,0,8.5,0.6,12,1.8
					c3.5,1.2,6.5,2.9,9,5.2c2.5,2.2,4.3,4.9,5.6,8.1c1.3,3.2,1.9,6.8,1.9,10.8v47.9h-11.5v-50.9c0-3.3-0.5-6-1.6-8.3
					c-1-2.2-2.4-4-4.1-5.3c-1.7-1.3-3.6-2.2-5.7-2.8c-2.1-0.5-4.2-0.8-6.3-0.7c-2.1-0.1-4.1,0.2-6.2,0.7c-2.1,0.6-3.9,1.5-5.6,2.8
					c-1.7,1.3-3,3.1-4.1,5.3c-1,2.2-1.6,4.9-1.6,8.2V690.7z"/>
			</g>
			<g>
				<path class="st2" d="M246.5,630.4c-2.9,1.3-5.4,3.1-7.6,5.5c-2.2,2.4-3.7,5.5-4.8,9.3c-1,3.8-1.2,8.5-0.5,13.9
					c0.4,3.3,1.9,6.8,4.5,10.3c2.6,3.6,6.1,6.6,10.6,9.1c4.5,2.5,9.8,4.1,16.1,4.7c6.3,0.6,13.3-0.4,21.1-3l0.3,4.7
					c-2.1,0.9-4,1.7-5.9,2.6c-1.9,0.8-4,1.6-6.3,2.3c-2.3,0.7-5.1,1.2-8.3,1.7c-3.2,0.4-7.1,0.7-11.7,0.8
					c-5.3,0.1-10.1-0.8-14.5-2.6c-4.4-1.8-8.2-4.3-11.5-7.6c-3.2-3.2-5.7-7.1-7.5-11.6c-1.8-4.5-2.6-9.4-2.6-14.7
					c0-6.3,1.2-12,3.7-17.2c2.5-5.2,5.9-9.5,10.4-12.8s9.6-5.7,15.6-7c6-1.3,12.5-1.1,19.5,0.6c5.5,1.8,9.6,4,12.5,6.6
					c2.8,2.6,4.8,5.1,5.9,7.3c0.2,0.4,0.3,0.6,0.4,0.5c0,0-0.2,0-0.9,0.3c-0.6,0.2-1.7,0.8-3.1,1.8c-1.4,0.9-3.5,2.6-6.2,4.9
					c-1.4-2.2-2.6-4.2-3.8-5.9c-1.2-1.7-2.5-3-4-4.1c-1.5-1.1-3.2-1.9-5.1-2.3c-2-0.5-4.4-0.7-7.2-0.7
					C252.4,628.3,249.4,629.1,246.5,630.4z"/>
				<path class="st2" d="M343.7,617.3c1.2,0,2.3,0.1,3.4,0.1v7.6c-1.2-0.2-2.4-0.3-3.7-0.4c-1.3,0-2.5-0.1-3.7-0.1
					c-3-0.1-6.1,0.3-9.1,1.1c-3,0.8-5.8,2.2-8.2,4.2c-2.4,2-4.4,4.6-5.9,7.8c-1.5,3.3-2.3,7.4-2.3,12.2v40.6h-16.9v-34.8
					c0-11.9,3.7-21.3,11.1-28.2c7.4-6.9,18.1-10.3,32.1-10.3C341.5,617.3,342.6,617.3,343.7,617.3z"/>
				<path class="st2" d="M409.7,620.6c4.5,2.1,8.2,4.8,11.2,8.1c2.9,3.4,5.1,7.3,6.6,11.7s2.3,9,2.5,13.8c-0.2,5-1,9.7-2.4,14.2
					c-1.4,4.5-3.6,8.3-6.5,11.6c-2.9,3.3-6.7,5.9-11.2,7.8c-4.6,2-10.1,2.9-16.5,2.9c-6.8,0-12.5-1-17.3-2.9c-4.8-2-8.6-4.6-11.7-8
					c-3-3.4-5.3-7.3-6.8-11.7s-2.3-9-2.5-13.9c0.1-4.8,0.9-9.4,2.3-13.8s3.7-8.3,6.8-11.7c3-3.4,7-6.1,11.7-8.1
					c4.8-2.1,10.6-3.1,17.3-3.1C399.8,617.5,405.2,618.5,409.7,620.6z M373.5,668.9c1,3.3,2.4,5.9,4.2,7.8c1.8,2,4,3.3,6.5,4.2
					c2.5,0.8,5.3,1.2,8.4,1.1c3,0.1,5.8-0.2,8.4-1c2.5-0.8,4.7-2.1,6.5-4.1c1.8-2,3.2-4.6,4.2-7.9c1-3.3,1.5-7.4,1.5-12.3v-5.1
					c0-4.9-0.5-9-1.5-12.3c-1-3.3-2.4-6-4.2-7.9c-1.8-2-4-3.3-6.5-4.1c-2.5-0.8-5.3-1.1-8.4-1c-3-0.1-5.8,0.3-8.4,1.1
					c-2.5,0.8-4.7,2.2-6.5,4.2c-1.8,2-3.2,4.6-4.2,7.8c-1,3.3-1.5,7.4-1.5,12.2v5.1C372,661.5,372.5,665.6,373.5,668.9z"/>
				<path class="st2" d="M460.6,668.9c0.8,3.3,2,5.9,3.5,7.8c1.6,2,3.5,3.3,5.9,4.2c2.3,0.8,5,1.2,8.1,1.1c3,0.1,5.8-0.2,8.4-1
					c2.5-0.8,4.7-2.1,6.5-4.1c1.8-2,3.2-4.6,4.2-7.9c1-3.3,1.5-7.4,1.5-12.3c0-0.4,0-1-0.1-1.8c-0.1-0.8-0.1-2.6-0.1-5.2
					s0-6.5,0-11.6c0-5.1,0-12.1,0-21.1h16.9v39.4c0.1,9.6,1.7,16.2,4.8,19.9c3.1,3.7,7.7,5.4,13.8,5.2c3,0.1,5.8-0.2,8.4-1
					c2.5-0.8,4.7-2.1,6.5-4.1c1.8-2,3.2-4.6,4.2-7.9c1-3.3,1.5-7.4,1.5-12.3v-39.2h16.9v34.6c0,11.9-3.2,21.3-9.5,28.2
					c-6.3,6.9-15.4,10.3-27.2,10.3c-6.7,0-12.3-0.9-16.9-2.7c-4.6-1.8-8.3-4.4-11.2-7.8c-3.1,3.6-7,6.4-11.7,8.3
					c-4.7,1.9-10.1,2.9-16.2,2.9c-6.6,0-12.1-0.9-16.7-2.7c-4.6-1.8-8.3-4.4-11.2-7.7c-2.9-3.3-5-7.4-6.3-12.1
					c-1.3-4.7-2-10.1-2-16.1v-35.2h16.9v39.7C459.4,661.5,459.8,665.6,460.6,668.9z"/>
			</g>
			<text transform="matrix(0.939 0 0 1 368.2723 605.3397)" class="st3 st4 st5">media</text>
		</g>
	</g>
</g>
<g id="hilfslinien" class="st6">
</g>
</svg>
