<svg xmlns="http://www.w3.org/2000/svg" viewBox="0 0 595.3 711"><style>.st0{fill:#3c3c43}</style><g id="duncrow_logo"><path id="outline_4" d="m130 286.5 2.8 7.1s-4.6 12.7-6 14.9c-1.4 2.1-29.4 37.5-33.6 50.9-4.2 13.4-6.4 32.9 0 46 0 0 1.8 7.1 5-3.2 0 0-3.5-8.1 21.9 19.8 0 0 3.2 5 5.7-7.1 0 0-2.8-6.7 29.4 21.9 0 0 3.5 2.8 5.7-14.1l56.2 42.1-1.4 18-48.8-24.8-4.2 12.4-38.2-23.3-3.9 11-19.6-21.3-6.4 14.5s-36.1-27.2-12.7-89.9c23.3-62.5 36.4-64.7 48.1-74.9z" class="st0"/><path id="outline_1" d="M209.8 41.6c-2.8 0-71.8 8.5-99.8 21.9C82.1 77 70 77.7 56.9 92.6c-13.1 14.9-16.6 27.2-15.6 29.4l52-19.5s64.4-13.1 98.7-5c0 0 17.7 2.1 30.4 1.1 0 0-6.4 4.2-55.2 9.9 0 0-46.3 9.2-67.6 21.9l-31.5 13.4-7.4 7.8s12 5.3 44.6 1.1c32.5-4.2 58.4-5.3 58.4-5.3s48.8 7.4 56.6 31.5c0 0-5.3 13.1-27.6 16.3-22.3 3.2-53.8 10.3-60.1 22.3L99 257.8s-19.1 24.4-21.9 29.4c-2.8 5-29 43.5-33.3 62.6 0 0-14.1 15.9-18.7 30.1-4.6 14.2.4 34.7.4 34.7l3.9 17.3s.4 60.8 3.2 75.7c2.8 14.9 3.9 43.2 18.7 49.2 14.9 6 16.6 3.9 17.3-8.1.7-12 8.1 7.1 8.1 8.5 0 1.4 8.1-1.8 8.1-1.8l7.4-20.5-7.1-13.4s-10.3-5-13.1-1.4c-2.8 3.5-2.1 6.4-4.6 6.4-2.5 0-14.9-.7-14.5-77.8 0 0 6.7-40-4.2-49.5-11-9.6 1.8-41 9.6-48.5 7.8-7.4 52.4-78.5 52.4-78.5l30.4-38.6s14.9-9.9 30.8-8.8c0 0-29 33.6-33.6 62.3-4.6 28.7-.7 40 1.4 42.5 0 0 1.4 2.5 6-9.6 0 0 19.5-45.3 21.6-48.1 2.1-2.8 5.3-9.9 7.1 6.4 0 0 1.8 43.5 2.5 54.1.7 10.6 9.2 26.2 13.8 21.9 4.6-4.2 5.7-13.1 9.2-34.7 0 0-1.4-12 23.3 39.3 0 0 2.8 14.2 9.6-13.4 0 0 2.5-13.1 12 6 9.6 19.1 11.3 21.6 15.6 23.7 0 0 3.9 3.2 6-10.6s1.4-33.3 9.9-9.9c8.5 23.3 11.7 32.5 11.7 32.5s5.3 6.4 5-3.5c-.4-9.9 3.2-27.6 3.9-30.8.7-3.2 2.1-14.2 15.9-1.1s14.9 14.9 14.9 14.9l-.4-14.5s-25.8-34.3-26.2-38.6c0 0-1.8-3.5-8.8 30.1 0 0-1.8 14.5-9.2-6-7.4-20.5-9.6-45.6-18-2.8 0 0-1.1 12.4-13.4-1.8-12.4-14.2-14.9-29-16.6-14.5-1.8 14.5-6.4 13.4-13.1-1.8-6.7-15.2-19.8-44.6-22.6-21.2l-5.3 12s-1.1 4.2-1.8-4.6-5.7-51.6-5.7-51.6-.4-13.8-9.9-1.8c-9.6 12-9.9 10.3-9.9 10.3s-1.1-9.6 12.4-23c13.4-13.4 20.5-16.6 20.5-16.6s22.6-8.5 26.2-14.2c0 0 28.3 32.5 64 38.9l26.9 3.2V238s-47.4-14.9-69.7-45.3l-9.2-21.2s1.8-45.6-63.7-44.6c0 0 108.6-17.7 113.6-22.3 5-4.6 7.8-6.7 7.8-6.7v-6.4s-90.2-18-101.5-16.6c0 0-52-2.8-73.2 3.2l80.3-21.9s17.7-1.4 56.2-16.3c0 0 23-8.1 87-5.3 0 0 19.5-2.5 55.2 27.2s52.7 39.3 52.7 39.3 13.8 12 18.7 27.6 22.6 71.1 22.6 71.1 11.7 58.7 54.5 119.9c0 0 9.9 20.5-5.7 46.7-15.6 26.2-38.6 64.4-38.6 64.4s-22.3 42.5-82.8 97.3l3.5 20.5 11 5.7s9.6-4.6 14.9-13.4c0 0 .7 19.8 18.8 12.7 0 0 11-6.4 14.5-20.2 3.5-13.8-2.1-17.3 11.3-33.3 13.4-15.9 69-111.4 69-111.4s20.9-20.9.7-72.2c0 0-42.1-76.4-45.6-87.7-3.5-11.3.4-19.1-5.3-33.6s-10.6-61.9-53.4-101.9c-42.8-40-73.6-64-99.1-70.4-25.5-6.4-70.4-4.2-87.7-1.4-17.3 2.8-48.1 8.5-53.8 12.4-5.8 3.8-10 7.7-10 7.7z" class="st0"/><path id="outline_2" d="M426.3 92.6s29.7 33.6 35 60.1c5.3 26.5 17.7 76.8 27.9 104.7 10.3 27.9 17.3 51.3 27.6 70.8s2.8 43.9-2.5 60.5-22.3 58-49.2 78.9c-26.9 20.9-25.5 20.9-25.5 20.9l-3.9-18.7s58.4-81 60.5-134.1c0 0 1.4-18-5-30.8-6.4-12.7-23.3-65.4-27.6-75.7-4.2-10.3-12.7-29.4-19.1-58-6.4-28.7-16.3-54.5-17-67.6-.5-13.1-1.2-11-1.2-11z" class="st0"/><path id="outline_3" d="m464.5 307.3 9.9 27.6s14.5 76.1-57.3 154.9c0 0-26.9 17.7-41 30.1-14.1 12.4-2.5-20.2-2.5-20.2s87-99.3 90.9-192.4z" class="st0"/><path id="auge" d="M329.3 61.8c0 9-11.4 16.3-25.5 16.3s-25.5-7.3-25.5-16.3 11.4-16.3 25.5-16.3 25.5 7.3 25.5 16.3z" class="st0"/><path d="M76.5 668.1c-1.6 4.7-3.8 8.7-6.6 12.1-2.8 3.4-6 6-9.7 8-3.7 1.9-7.6 2.8-11.8 2.7H21.8V617h20.4c5.9 0 11.1.8 15.6 2.5s8.4 4.1 11.5 7.2c3.1 3.1 5.5 6.9 7.1 11.4 1.6 4.5 2.5 9.5 2.5 15.1 0 5.2-.8 10.2-2.4 14.9zm-40.3-44.2c-.8.2-1.4.5-1.8 1-.7 1.7-1.1 4.4-1.1 8.1v37.6c0 3.8.1 6.8.2 9.1.2 2.2.8 3.9 1.9 4.9 5.1.9 9.4 1 13 .5 3.6-.5 6.5-1.5 8.9-3 2.3-1.5 4.2-3.3 5.5-5.6 1.3-2.2 2.3-4.6 3-7.1.7-2.5 1.1-5.1 1.2-7.7.1-2.6.2-5 .2-7.3 0-10-2.4-17.6-7.1-22.9-4.7-5.3-11.7-7.9-20.9-7.9-1.3 0-2.3.1-3 .3zm97.2-6.9h11.5v47.9c0 8-2.5 14.3-7.6 19-5 4.6-12.3 6.9-21.9 6.9-4.5 0-8.6-.6-12.1-1.8-3.5-1.2-6.5-2.9-9-5.2-2.5-2.2-4.3-4.9-5.6-8.1-1.3-3.2-1.9-6.8-1.9-10.8V617h11.5v51c0 3.3.5 6 1.6 8.3 1 2.2 2.4 4 4.1 5.3 1.7 1.3 3.6 2.2 5.7 2.8 2.1.5 4.2.8 6.3.7 2.1.1 4.1-.2 6.2-.7 2.1-.6 3.9-1.5 5.6-2.8 1.7-1.3 3-3.1 4.1-5.3 1-2.2 1.6-4.9 1.6-8.2V617zm31.5 73.7h-11.5v-47.9c0-8 2.5-14.3 7.6-19 5-4.6 12.3-6.9 21.9-6.9 4.5 0 8.5.6 12 1.8 3.5 1.2 6.5 2.9 9 5.2 2.5 2.2 4.3 4.9 5.6 8.1 1.3 3.2 1.9 6.8 1.9 10.8v47.9h-11.5v-50.9c0-3.3-.5-6-1.6-8.3-1-2.2-2.4-4-4.1-5.3-1.7-1.3-3.6-2.2-5.7-2.8-2.1-.5-4.2-.8-6.3-.7-2.1-.1-4.1.2-6.2.7-2.1.6-3.9 1.5-5.6 2.8-1.7 1.3-3 3.1-4.1 5.3-1 2.2-1.6 4.9-1.6 8.2v51z" style="fill:#bbcb46"/><path d="M246.5 630.4c-2.9 1.3-5.4 3.1-7.6 5.5-2.2 2.4-3.7 5.5-4.8 9.3-1 3.8-1.2 8.5-.5 13.9.4 3.3 1.9 6.8 4.5 10.3 2.6 3.6 6.1 6.6 10.6 9.1s9.8 4.1 16.1 4.7c6.3.6 13.3-.4 21.1-3l.3 4.7c-2.1.9-4 1.7-5.9 2.6-1.9.8-4 1.6-6.3 2.3-2.3.7-5.1 1.2-8.3 1.7-3.2.4-7.1.7-11.7.8-5.3.1-10.1-.8-14.5-2.6s-8.2-4.3-11.5-7.6c-3.2-3.2-5.7-7.1-7.5-11.6-1.8-4.5-2.6-9.4-2.6-14.7 0-6.3 1.2-12 3.7-17.2 2.5-5.2 5.9-9.5 10.4-12.8s9.6-5.7 15.6-7c6-1.3 12.5-1.1 19.5.6 5.5 1.8 9.6 4 12.5 6.6 2.8 2.6 4.8 5.1 5.9 7.3.2.4.3.6.4.5 0 0-.2 0-.9.3-.6.2-1.7.8-3.1 1.8-1.4.9-3.5 2.6-6.2 4.9-1.4-2.2-2.6-4.2-3.8-5.9-1.2-1.7-2.5-3-4-4.1-1.5-1.1-3.2-1.9-5.1-2.3-2-.5-4.4-.7-7.2-.7-3.2.5-6.2 1.3-9.1 2.6zm97.2-13.1c1.2 0 2.3.1 3.4.1v7.6c-1.2-.2-2.4-.3-3.7-.4-1.3 0-2.5-.1-3.7-.1-3-.1-6.1.3-9.1 1.1s-5.8 2.2-8.2 4.2c-2.4 2-4.4 4.6-5.9 7.8-1.5 3.3-2.3 7.4-2.3 12.2v40.6h-16.9v-34.8c0-11.9 3.7-21.3 11.1-28.2 7.4-6.9 18.1-10.3 32.1-10.3 1 .2 2.1.2 3.2.2zm66 3.3c4.5 2.1 8.2 4.8 11.2 8.1 2.9 3.4 5.1 7.3 6.6 11.7s2.3 9 2.5 13.8c-.2 5-1 9.7-2.4 14.2s-3.6 8.3-6.5 11.6c-2.9 3.3-6.7 5.9-11.2 7.8-4.6 2-10.1 2.9-16.5 2.9-6.8 0-12.5-1-17.3-2.9-4.8-2-8.6-4.6-11.7-8-3-3.4-5.3-7.3-6.8-11.7s-2.3-9-2.5-13.9c.1-4.8.9-9.4 2.3-13.8s3.7-8.3 6.8-11.7c3-3.4 7-6.1 11.7-8.1 4.8-2.1 10.6-3.1 17.3-3.1 6.6 0 12 1 16.5 3.1zm-36.2 48.3c1 3.3 2.4 5.9 4.2 7.8 1.8 2 4 3.3 6.5 4.2 2.5.8 5.3 1.2 8.4 1.1 3 .1 5.8-.2 8.4-1 2.5-.8 4.7-2.1 6.5-4.1 1.8-2 3.2-4.6 4.2-7.9 1-3.3 1.5-7.4 1.5-12.3v-5.1c0-4.9-.5-9-1.5-12.3-1-3.3-2.4-6-4.2-7.9-1.8-2-4-3.3-6.5-4.1-2.5-.8-5.3-1.1-8.4-1-3-.1-5.8.3-8.4 1.1-2.5.8-4.7 2.2-6.5 4.2-1.8 2-3.2 4.6-4.2 7.8-1 3.3-1.5 7.4-1.5 12.2v5.1c0 4.8.5 8.9 1.5 12.2zm87.1 0c.8 3.3 2 5.9 3.5 7.8 1.6 2 3.5 3.3 5.9 4.2 2.3.8 5 1.2 8.1 1.1 3 .1 5.8-.2 8.4-1 2.5-.8 4.7-2.1 6.5-4.1 1.8-2 3.2-4.6 4.2-7.9 1-3.3 1.5-7.4 1.5-12.3 0-.4 0-1-.1-1.8s-.1-2.6-.1-5.2V617h16.9v39.4c.1 9.6 1.7 16.2 4.8 19.9 3.1 3.7 7.7 5.4 13.8 5.2 3 .1 5.8-.2 8.4-1 2.5-.8 4.7-2.1 6.5-4.1 1.8-2 3.2-4.6 4.2-7.9 1-3.3 1.5-7.4 1.5-12.3V617h16.9v34.6c0 11.9-3.2 21.3-9.5 28.2-6.3 6.9-15.4 10.3-27.2 10.3-6.7 0-12.3-.9-16.9-2.7-4.6-1.8-8.3-4.4-11.2-7.8-3.1 3.6-7 6.4-11.7 8.3-4.7 1.9-10.1 2.9-16.2 2.9-6.6 0-12.1-.9-16.7-2.7-4.6-1.8-8.3-4.4-11.2-7.7-2.9-3.3-5-7.4-6.3-12.1-1.3-4.7-2-10.1-2-16.1V617h16.9v39.7c-.1 4.8.3 8.9 1.1 12.2z" style="fill:#3c3d44"/></g></svg>