<svg xmlns="http://www.w3.org/2000/svg" xml:space="preserve" id="Ebene_2_00000003082143268403364210000017331588248483125951_" x="0" y="0" style="enable-background:new 0 0 360 360" version="1.1" viewBox="0 0 360 360"><style>.st2{fill:#f2edd5}</style><g id="bg"><path d="M80 0h200c44.2 0 80 35.8 80 80v200c0 44.2-35.8 80-80 80H80c-44.2 0-80-35.8-80-80V80C0 35.8 35.8 0 80 0z" style="fill:#a13609"/><path d="M95 25h170c38.7 0 70 31.3 70 70v170c0 38.7-31.3 70-70 70H95c-38.7 0-70-31.3-70-70V95c0-38.7 31.3-70 70-70z" style="fill:#2d3f4b"/></g><path id="frame" d="M270 34c14.9 0 28.9 5.8 39.5 16.5S326 75.1 326 90v180c0 14.9-5.9 28.9-16.5 39.5S284.9 326 270 326H90c-14.9 0-28.9-5.9-39.5-16.5S34 284.9 34 270V90c0-14.9 5.8-28.9 16.5-39.5S75.1 34 90 34h180m0-14H90c-38.5 0-70 31.5-70 70v180c0 38.5 31.5 70 70 70h180c38.5 0 70-31.5 70-70V90c0-38.5-31.5-70-70-70z" class="st2"/><path d="M233.9 250.7h46.9v20.5h-46.9v-20.5z" style="fill:none"/><path d="M180 195.4c-9.2 0-16.8-7.5-16.8-16.8 0-9.2 7.5-16.8 16.8-16.8 9.2 0 16.8 7.5 16.8 16.8s-7.6 16.8-16.8 16.8zm0-25.5c-4.8 0-8.8 3.9-8.8 8.8s3.9 8.8 8.8 8.8 8.8-3.9 8.8-8.8-4-8.8-8.8-8.8z" class="st2"/><path d="M189.2 173.4c-1 0-2-.4-2.8-1.2-1.6-1.6-1.6-4.1 0-5.7l19.9-19.9c1.6-1.6 4.1-1.6 5.7 0 1.6 1.6 1.6 4.1 0 5.7l-20 20c-.8.7-1.8 1.1-2.8 1.1z" class="st2"/><path d="M218.3 157.1c-9.2 0-16.8-7.5-16.8-16.8s7.5-16.8 16.8-16.8c9.2 0 16.8 7.5 16.8 16.8s-7.6 16.8-16.8 16.8zm0-25.5c-4.8 0-8.8 3.9-8.8 8.8 0 4.8 3.9 8.8 8.8 8.8 4.8 0 8.8-3.9 8.8-8.8-.1-4.9-4-8.8-8.8-8.8z" class="st2"/><path d="M205.5 144.3h-51c-2.2 0-4-1.8-4-4s1.8-4 4-4h51c2.2 0 4 1.8 4 4s-1.8 4-4 4z" class="st2"/><path d="M141.7 157.1c-9.2 0-16.8-7.5-16.8-16.8s7.5-16.8 16.8-16.8 16.8 7.5 16.8 16.8-7.5 16.8-16.8 16.8zm0-25.5c-4.8 0-8.8 3.9-8.8 8.8 0 4.8 3.9 8.8 8.8 8.8s8.8-3.9 8.8-8.8-4-8.8-8.8-8.8z" class="st2"/><path d="M150.9 135.1c-1 0-2-.4-2.8-1.2-1.6-1.6-1.6-4.1 0-5.7l19.9-19.9c1.6-1.6 4.1-1.6 5.7 0 1.6 1.6 1.6 4.1 0 5.7l-20 20c-.7.8-1.8 1.1-2.8 1.1z" class="st2"/><path d="M180 118.8c-9.2 0-16.8-7.5-16.8-16.8s7.5-16.8 16.8-16.8c9.2 0 16.8 7.5 16.8 16.8s-7.6 16.8-16.8 16.8zm0-25.5c-4.8 0-8.8 3.9-8.8 8.8 0 4.8 3.9 8.8 8.8 8.8s8.8-3.9 8.8-8.8-4-8.8-8.8-8.8zM230.4 271H129.6c-9.2 0-16.6-7.4-16.6-16.6V204c0-9.2 7.4-16.6 16.6-16.6h100.8c9.2 0 16.6 7.4 16.6 16.6v50.4c0 9.1-7.4 16.6-16.6 16.6zm-100.8-75.6c-4.7 0-8.6 3.9-8.6 8.6v50.4c0 4.7 3.9 8.6 8.6 8.6h100.8c4.7 0 8.6-3.9 8.6-8.6V204c0-4.7-3.9-8.6-8.6-8.6H129.6z" class="st2"/><path d="M180.1 233.2c-2.2 0-4-1.8-4-4s1.8-4 4-4h.1c2.2 0 4 1.8 4 4s-1.9 4-4.1 4zM211.6 233.2c-2.2 0-4-1.8-4-4s1.8-4 4-4h.1c2.2 0 4 1.8 4 4s-1.9 4-4.1 4zM148.6 233.2c-2.2 0-4-1.8-4-4s1.8-4 4-4h.1c2.2 0 4 1.8 4 4s-1.9 4-4.1 4z" class="st2"/></svg>