<svg xmlns="http://www.w3.org/2000/svg" viewBox="0 0 191.8 150"><title>export_c4g</title><g id="Ebene_9" data-name="Ebene 9"><path d="M131.91,62.34l-28-28a3.27,3.27,0,0,0-5.61,2.31v14.8h-23a3.33,3.33,0,0,0-3.26,3.27V74.52a3.32,3.32,0,0,0,3.26,3.26h23V92.61A3.27,3.27,0,0,0,104,94.93l28-28a3.23,3.23,0,0,0,.08-4.55l-.08-.08M90.79,91.92a1,1,0,0,0-.35-.46L90,91.17a1.56,1.56,0,0,0-.59-.15,5.9,5.9,0,0,0-.59-.06h-16a8.37,8.37,0,0,1-8.26-8.25V46.55a8.37,8.37,0,0,1,8.26-8.25H89.25A1.55,1.55,0,0,0,90.33,38a1.67,1.67,0,0,0,.51-1A8.18,8.18,0,0,0,91,35.76c0-.45,0-.91,0-1.36s-.06-.89-.06-1a1.63,1.63,0,0,0-1.63-1.63H72.81A14.85,14.85,0,0,0,58,46.55V82.74a14.83,14.83,0,0,0,14.8,14.81H89.25a1.52,1.52,0,0,0,1-.33,1.63,1.63,0,0,0,.52-1A8.17,8.17,0,0,0,91,95a10.29,10.29,0,0,0,0-1.36c0-.55,0-.89,0-1a2.37,2.37,0,0,0-.1-.7" style="fill:#003764"/><path d="M68.91,116.86v.79c0,.55-.13.77-1,.77H59.19c.08,3.34.71,4.16,3.65,4.16h4.49a.37.37,0,0,1,.42.31v1.3a.41.41,0,0,1-.38.44h0a31.88,31.88,0,0,1-4.58.24c-5.14,0-6.24-1.5-6.24-7.61s1.1-7.64,6.24-7.64C67.72,109.63,68.86,111.08,68.91,116.86Zm-9.72-.58H66.3c0-3.48-.63-4.35-3.48-4.35s-3.57.88-3.63,4.36Z" style="fill:#003764"/><path d="M82.84,109.76c.32,0,.41.23.22.5l-4.71,6.55,5.32,7.45c.16.27.08.49-.22.49H81.2a.44.44,0,0,1-.41-.24l-4-5.61-4,5.61a.4.4,0,0,1-.41.24H70.18c-.32,0-.4-.22-.24-.49l5.32-7.45-4.69-6.55c-.22-.27-.13-.5.19-.5H73a.5.5,0,0,1,.44.25l3.37,4.71L80.15,110a.55.55,0,0,1,.47-.25Z" style="fill:#003764"/><path d="M98.49,117.24c0,6.09-1.1,7.64-6.27,7.64a29.15,29.15,0,0,1-3.62-.16v5.08a.35.35,0,0,1-.3.41H86.38a.36.36,0,0,1-.42-.3V110.56c0-.31.17-.41.44-.47a30.78,30.78,0,0,1,5.67-.47C97.39,109.63,98.49,111.19,98.49,117.24Zm-9.9-5.35v10.48a30.73,30.73,0,0,0,3.45.22c3.4,0,3.81-1,3.81-5.32s-.39-5.33-3.76-5.33Z" style="fill:#003764"/><path d="M114.12,117.27c0,6.09-1.07,7.61-6.36,7.61s-6.38-1.5-6.38-7.61,1.1-7.64,6.38-7.64S114.12,111.16,114.12,117.27Zm-10.15,0c0,4.25.4,5.32,3.75,5.32s3.73-1.06,3.73-5.32-.38-5.38-3.73-5.38S104,113,104,117.27Z" style="fill:#003764"/><path d="M124.73,109.93c.27.08.42.19.42.46v1.15a.36.36,0,0,1-.32.39h-2.5c-1.89,0-2.39.3-2.39,1.53v10.88a.35.35,0,0,1-.32.4.17.17,0,0,1-.1,0h-1.77a.37.37,0,0,1-.42-.31v-11.6c0-3.1,2.74-3.21,4.33-3.21A15.08,15.08,0,0,1,124.73,109.93Z" style="fill:#003764"/><path d="M130.35,105.63c.31-.08.47.05.47.36v3.8h2.87c.31,0,.44.15.44.42v1.28c0,.27-.13.4-.44.4h-2.87v9.21c0,1.21.32,1.48,1.78,1.48h1.31c.31,0,.44.11.44.39v1.32c0,.24-.13.38-.41.43a7.26,7.26,0,0,1-1.54.16c-2,0-4.22,0-4.22-3.12v-9.87h-1.53a.36.36,0,0,1-.42-.3V110.2a.37.37,0,0,1,.31-.42h1.64v-3.27a.39.39,0,0,1,.33-.44h0Z" style="fill:#003764"/><path d="M24.72,5.15S5.2,5.15,5.2,24.67v101s0,19.53,19.52,19.53h141.9s19.53,0,19.53-19.53V24.67s0-19.52-19.53-19.52Z" style="fill:none;stroke:#103a5d;stroke-width:2.51389524052214px"/></g></svg>