<svg xmlns="http://www.w3.org/2000/svg" xmlns:xlink="http://www.w3.org/1999/xlink" width="595.279" height="595.28" viewBox="0 123.305 595.279 595.28"><defs><path id="a" d="M0 123.305h595.279v595.28H0z"/></defs><clipPath id="b"><use xlink:href="#a" overflow="visible"/></clipPath><path clip-path="url(#b)" fill="#FFF" d="M-32.86 84.445h718v688h-718z"/><g clip-path="url(#b)"><path fill="#2C3E50" d="M114.746 381.146c4.949 0 9.199.7 12.699 2.15s6.3 3.35 8.5 5.75 3.8 5.1 4.8 8.1c1 3.05 1.5 6.2 1.5 9.45 0 3.2-.5 6.35-1.5 9.399-1 3.1-2.6 5.8-4.8 8.2-2.2 2.399-5.05 4.3-8.5 5.749-3.5 1.45-7.699 2.15-12.699 2.15h-18.35v28.499H78.948v-79.447h35.798zm-4.799 37.399c2 0 3.949-.15 5.8-.45 1.85-.3 3.5-.85 4.899-1.75 1.4-.85 2.55-2.05 3.4-3.6.85-1.55 1.3-3.6 1.3-6.1s-.45-4.55-1.3-6.1c-.851-1.55-2-2.75-3.4-3.6-1.399-.85-3.05-1.45-4.899-1.75-1.851-.3-3.8-.45-5.8-.45h-13.6v23.799h13.6v.001zM167.294 381.146v64.748h38.749v14.699h-56.198v-79.447h17.449zM272.591 381.146v14.699h-41.948v17.05h38.498v13.6h-38.498v19.499h42.848v14.699h-60.348v-79.547h59.448zM301.39 381.146l33.148 53.298h.2v-53.298h16.35v79.447h-17.449l-32.999-53.198h-.2v53.198h-16.35v-79.447h17.3zM358.038 395.846v-14.699h65.098v14.699h-23.8v64.748h-17.449v-64.748h-23.849zM461.034 381.146l29.699 79.447h-18.149l-6-17.699h-29.699l-6.25 17.699h-17.599l30.049-79.447h17.949zm1 48.749l-10-29.149h-.199l-10.4 29.149h20.599z"/><path fill="#C30C2B" d="M516.332 443.444v17.149h-17.449v-17.149h17.449z"/></g></svg>
