<svg xmlns="http://www.w3.org/2000/svg" viewBox="0 0 1190.6 1190.6"><path d="M0 0h1190.6v1190.6H0z" fill="#fff" stroke="#000" stroke-miterlimit="10"/><path d="M229.5 515.7c9.9 0 18.4 1.4 25.4 4.3s12.6 6.7 17 11.5 7.6 10.2 9.6 16.2c2 6.1 3 12.4 3 18.9a60.12 60.12 0 0 1-3 18.8c-2 6.2-5.2 11.6-9.6 16.4s-10.1 8.6-17 11.5c-7 2.9-15.4 4.3-25.4 4.3h-36.7v57h-34.9V515.7h71.6zm-9.6 74.8c4 0 7.9-.3 11.6-.9s7-1.7 9.8-3.5c2.8-1.7 5.1-4.1 6.8-7.2s2.6-7.2 2.6-12.2-.9-9.1-2.6-12.2-4-5.5-6.8-7.2-6.1-2.9-9.8-3.5-7.6-.9-11.6-.9h-27.2v47.6h27.2zm114.7-74.8v129.5h77.5v29.4H299.7V515.7h34.9zm210.6 0v29.4h-83.9v34.1h77v27.2h-77v39H547v29.4H426.3V515.7h118.9zm57.6 0l66.3 106.6h.4V515.7h32.7v158.9h-34.9l-66-106.4h-.4v106.4h-32.7V515.7h34.6zm113.3 29.4v-29.4h130.2v29.4h-47.6v129.5h-34.9V545.1h-47.7zm206-29.4l59.4 158.9h-36.3l-12-35.4h-59.4l-12.5 35.4h-35.2l60.1-158.9h35.9zm2 97.5l-20-58.3h-.4l-20.8 58.3h41.2z" fill="#2c3e50"/><path d="M1032.7 640.3v34.3h-34.9v-34.3h34.9z" fill="#c30c2b"/></svg>