<?xml version="1.0" encoding="UTF-8"?>
<svg enable-background="new 0 0 1190.6 1190.6" version="1.1" viewBox="0 0 1190.6 1190.6" xml:space="preserve" xmlns="http://www.w3.org/2000/svg">
<style type="text/css">
	.st0{fill:#2C3E50;}
	.st1{fill:#C30C2B;}
</style>

	<path class="st0" d="m229.5 515.7c9.9 0 18.4 1.4 25.4 4.3s12.6 6.7 17 11.5 7.6 10.2 9.6 16.2c2 6.1 3 12.4 3 18.9 0 6.4-1 12.7-3 18.8-2 6.2-5.2 11.6-9.6 16.4s-10.1 8.6-17 11.5c-7 2.9-15.4 4.3-25.4 4.3h-36.7v57h-34.9v-158.9h71.6zm-9.6 74.8c4 0 7.9-0.3 11.6-0.9s7-1.7 9.8-3.5c2.8-1.7 5.1-4.1 6.8-7.2s2.6-7.2 2.6-12.2-0.9-9.1-2.6-12.2-4-5.5-6.8-7.2-6.1-2.9-9.8-3.5-7.6-0.9-11.6-0.9h-27.2v47.6h27.2z"/>
	<path class="st0" d="M334.6,515.7v129.5h77.5v29.4H299.7V515.7H334.6z"/>
	<path class="st0" d="M545.2,515.7v29.4h-83.9v34.1h77v27.2h-77v39H547v29.4H426.3V515.7H545.2z"/>
	<path class="st0" d="M602.8,515.7l66.3,106.6h0.4V515.7h32.7v158.9h-34.9l-66-106.4h-0.4v106.4h-32.7V515.7H602.8z"/>
	<path class="st0" d="M716.1,545.1v-29.4h130.2v29.4h-47.6v129.5h-34.9V545.1H716.1z"/>
	<path class="st0" d="m922.1 515.7 59.4 158.9h-36.3l-12-35.4h-59.4l-12.5 35.4h-35.2l60.1-158.9h35.9zm2 97.5-20-58.3h-0.4l-20.8 58.3h41.2z"/>
	<path class="st1" d="m1032.7 640.3v34.3h-34.9v-34.3h34.9z"/>

</svg>
