<svg xmlns="http://www.w3.org/2000/svg" viewBox="0 0 191.8 150"><title>editor_c4g</title><path d="M136,38l-6.26-6.39a2,2,0,0,0-1.45-.62,2,2,0,0,0-1.44.62L90.26,69a1.72,1.72,0,0,0-.45.71L85.73,80.15a2.12,2.12,0,0,0,.45,2.23,2,2,0,0,0,1.45.62,2.21,2.21,0,0,0,.75-.14l10.3-4.12a2,2,0,0,0,.7-.48L136,41A2.11,2.11,0,0,0,136,38ZM96.79,75,91.28,77.2l2.16-5.6,34.82-35.54,3.37,3.43Z" style="fill:#103a5d"/><path d="M25.61,5.86S6.43,5.86,6.43,25v99.17s0,19.18,19.18,19.18H165s19.18,0,19.18-19.18V25s0-19.18-19.18-19.18Z" style="fill:none;stroke:#0b395d;stroke-width:2.4695510774625px"/><path d="M73.93,116.36v.77c0,.54-.13.75-1,.75H64.26c.09,3.26.72,4.07,3.64,4.07h4.48a.36.36,0,0,1,.41.4v1.17a.41.41,0,0,1-.39.43,34,34,0,0,1-4.56.24c-5.13,0-6.22-1.47-6.22-7.43s1.09-7.46,6.22-7.46C72.73,109.3,73.88,110.72,73.93,116.36Zm-9.69-.56h7.07c0-3.4-.63-4.25-3.47-4.25S64.29,112.4,64.24,115.8Z" style="fill:#003764"/><path d="M88.57,103.85c.28,0,.41.13.41.4v19.06c0,.29-.16.4-.43.43a31.88,31.88,0,0,1-5.69.45c-5.3,0-6.36-1.47-6.36-7.4s1.06-7.49,6.23-7.49a29.12,29.12,0,0,1,3.63.19v-5.24a.36.36,0,0,1,.41-.4Zm-5.68,7.7c-3.39,0-3.77,1-3.77,5.21s.36,5.19,3.74,5.19a29.63,29.63,0,0,0,3.5-.22V111.55Z" style="fill:#003764"/><path d="M95.67,105.16a1.61,1.61,0,1,1-1.61-1.55A1.41,1.41,0,0,1,95.67,105.16ZM95,109.44a.36.36,0,0,1,.41.4v13.82a.36.36,0,0,1-.41.4h-1.8a.36.36,0,0,1-.41-.4V109.84a.36.36,0,0,1,.41-.4Z" style="fill:#003764"/><path d="M102,105.4c.3-.08.47,0,.47.35v3.71h2.87c.3,0,.43.14.43.4v1.26c0,.27-.13.4-.43.4H102.5v9c0,1.18.33,1.45,1.77,1.45h1.31c.31,0,.44.1.44.37v1.28c0,.24-.13.38-.41.43a7.1,7.1,0,0,1-1.53.16c-2,0-4.2,0-4.2-3v-9.62H98.35c-.28,0-.41-.13-.41-.4v-1.26a.36.36,0,0,1,.41-.4h1.53v-3.21a.37.37,0,0,1,.35-.42Z" style="fill:#003764"/><path d="M120.72,116.76c0,6-1.07,7.43-6.34,7.43s-6.37-1.47-6.37-7.43,1.1-7.46,6.37-7.46S120.72,110.8,120.72,116.76Zm-10.08,0c0,4.14.41,5.19,3.74,5.19s3.71-1,3.71-5.19-.41-5.21-3.71-5.21S110.64,112.59,110.64,116.76Z" style="fill:#003764"/><path d="M131.34,109.6c.27.08.41.18.41.45v1.12c0,.27-.17.4-.44.38h-2.38c-1.88,0-2.37.29-2.37,1.49v10.62a.36.36,0,0,1-.41.4h-1.78a.36.36,0,0,1-.41-.4V112.43c0-3,2.73-3.13,4.32-3.13A15.88,15.88,0,0,1,131.34,109.6Z" style="fill:#003764"/><path d="M122.31,69.22a1.47,1.47,0,0,0-.93-1.39,1.18,1.18,0,0,0-.56-.13,1.47,1.47,0,0,0-1.07.47l-3,3a1.45,1.45,0,0,0-.42,1V84.08a7.49,7.49,0,0,1-7.48,7.48H70a7.5,7.5,0,0,1-7.49-7.48V45.2A7.5,7.5,0,0,1,70,37.72h38.89A8.3,8.3,0,0,1,111,38a1.58,1.58,0,0,0,.42.09,1.62,1.62,0,0,0,1.08-.47l2.29-2.28a1.49,1.49,0,0,0,.42-1.36,1.53,1.53,0,0,0-.81-1.07,13.09,13.09,0,0,0-5.47-1.17H70A13.47,13.47,0,0,0,56.5,45.2h0V84.08A13.46,13.46,0,0,0,70,97.55h38.9a13.46,13.46,0,0,0,13.45-13.47h0Z" style="fill:#103a5d"/></svg>