<svg xmlns="http://www.w3.org/2000/svg" viewBox="0 0 16383 16383"><path fill="#cf0c11" fill-rule="evenodd" d="M8191.5 233.5c4395.1 0 7958 3562.9 7958 7958 0 1163-249.6 2267.7-697.9 3263.6H9866.6l4811.9-5314.6H9999.8v-1659c0-188.1-47.8-359.8-144-516-197.2-319.9-481.6-480.5-852.5-480.5H3693.2c-284.6 0-499.4 47.6-645.5 141.7-237 149.5-355.4 435.2-355.4 854.8v1660.8H500.4C1404.3 2740.3 4505 233.5 8191.5 233.5Zm6509.6 12536.1-7489.6 14.1 4652.5-5314.6H9999.8v1223.2l-1328.7 1513.9V7470.9H4020.9v2657.3H2692.2V7470.9H266.4c-21.3 237.4-32.9 477.7-32.9 720.6 0 4395.1 3562.9 7958 7958 7958 2690.8 0 5069.4-1335.7 6509.6-3379.9ZM7211.6 6142.3v-1.8h1459.6v-996.9c0-96.3-32.1-175-95.2-237-63.2-62-142.9-93.1-239.1-93.1H4350.9c-220.4 0-330 109.6-330 330v998.7h3190.7Z"/></svg>
