<svg xmlns="http://www.w3.org/2000/svg" xml:space="preserve" width="239.704" height="239.703"><defs><clipPath id="a" clipPathUnits="userSpaceOnUse"><path d="M0 283.465h283.465V0H0Z"/></clipPath></defs><path d="m175.478 9.97-167.9 95.317 1.196 122.037 218.948-1.197L228.92 9.173Z" style="fill:#fff;stroke:none;stroke-width:1px;stroke-linecap:butt;stroke-linejoin:miter;stroke-opacity:1;fill-opacity:1"/><g clip-path="url(#a)" transform="matrix(1.33333 0 0 -1.33333 -71.126 328.663)"><path d="M0 0h-5.616v-14.76h-2.321V0h-5.617v1.996H0Zm-21.824-14.76c-.209.998-.488 2.088-.604 3.086-.185 1.51-.185 2.879-.951 3.713-.673.768-1.601.697-2.53.768h-3.249v-7.567h-2.321V1.996h5.988c2.808 0 5.709-.881 5.709-4.201 0-2.018-1.206-3.574-3.156-4.037v-.047c2.019-.486 2.297-1.555 2.552-3.436.256-1.67.442-3.457 1.045-5.035zm-10.834 31.01h-.003v.018a32.054 32.054 0 0 0-22.742 9.406 32.052 32.052 0 0 0-9.405 22.742h-.019v53.621l17.366 10.025V53.076h.009v-4.66h-.019c0-4.073 1.663-7.77 4.352-10.459 2.687-2.687 6.386-4.35 10.457-4.35v.018h.003v-.018c4.072 0 7.77 1.664 10.458 4.351 2.688 2.688 4.35 6.385 4.35 10.458h-.017v.001h.017c0 4.073-1.662 7.772-4.35 10.459a14.892 14.892 0 0 1-5.682 3.557l16.893 9.752A32.06 32.06 0 0 0-.513 48.417h.02v-.001h-.02a32.051 32.051 0 0 0-9.404-22.742 32.06 32.06 0 0 0-22.741-9.406zm-14.657-31.361c-5.223 0-7.66 3.832-7.66 8.73 0 4.897 2.437 8.727 7.66 8.727 5.221 0 7.658-3.83 7.658-8.727 0-4.898-2.437-8.73-7.658-8.73m-20.502 7.732h-3.157v-7.381h-2.32V1.996h5.616c3.111.141 5.802-1.021 5.802-4.687 0-3.504-2.854-4.62-5.941-4.688m-6.028 55.795h-.019a32.06 32.06 0 0 0-9.405-22.742 32.06 32.06 0 0 0-22.742-9.406v-.018h-.002v.018a32.06 32.06 0 0 0-22.743 9.406 32.087 32.087 0 0 0-8.241 14.134l16.193 9.35v-.742h-.018c0-4.073 1.662-7.772 4.35-10.459 2.688-2.687 6.387-4.35 10.457-4.35v.018h.003v-.018c4.073 0 7.772 1.664 10.459 4.351 2.689 2.688 4.351 6.385 4.351 10.458h-.018v.001h.018v19.45h-.018v12.716h.008v6.219l17.367 10.028ZM-86.81-7.379h-3.157v-7.381h-2.32V1.996h5.616c3.11.141 5.802-1.021 5.802-4.687 0-3.504-2.854-4.62-5.941-4.688m-14.607-.744c.07-4.316-2.204-6.988-6.753-6.988-4.549 0-6.824 2.672-6.754 6.988V1.996h2.321V-8.68c.07-2.877 1.787-4.431 4.433-4.431s4.363 1.554 4.433 4.431V1.996h2.32zm-28.81-6.988c-3.504 0-6.057 1.488-5.964 5.248h2.437c.046-2.367 1.415-3.248 3.667-3.248 1.902 0 4.224.556 4.224 2.9 0 1.625-1.346 2.297-2.739 2.576-2.762.604-7.357 1.231-7.357 4.99 0 3.643 3.318 4.991 6.452 4.991 2.855 0 5.662-1.278 5.662-4.528h-2.436c-.093 1.881-1.671 2.53-3.342 2.53-1.648 0-3.899-.602-3.899-2.598 0-1.904 1.346-2.02 2.808-2.484 3.087-.998 7.287-.998 7.287-5.221 0-3.807-3.411-5.156-6.8-5.156M16.649 143.474h-60.251L-158.634 77.06V-31.809a4.507 4.507 0 0 1 4.494-4.494H16.649a4.508 4.508 0 0 1 4.495 4.494V138.98a4.507 4.507 0 0 1-4.495 4.494M-67.329 0h-3.645v-5.385h3.645c.277 0 3.016-.138 3.016 2.694S-67.052 0-67.329 0m20.014.348c-4.248 0-5.223-3.157-5.223-6.729 0-3.482.975-6.73 5.223-6.73 4.247 0 5.221 3.248 5.221 6.73 0 3.572-.974 6.729-5.221 6.729M-86.322 0h-3.645v-5.385h3.645c.278 0 3.016-.138 3.016 2.694S-86.044 0-86.322 0m64.103-2.6c0 1.325-.58 2.485-3.156 2.6h-3.829v-5.197h3.829c2.576.115 3.156 1.275 3.156 2.597" style="fill:#bf1b2c;fill-opacity:1;fill-rule:evenodd;stroke:none" transform="translate(211.978 103.023)"/></g></svg>