<svg xmlns="http://www.w3.org/2000/svg" width="497.154595" height="496.920038" viewBox="0 0 131.53882 131.47676">
  <defs/>
  <path fill="navy" d="M59.221143 126.384189c-2.03729-.10552-4.35901-.28412-5.15938-.39688l-1.45521-.20501-.0729-4.16719c-.0401-2.29195.0195-4.16615.1323-4.16489.11283.001 1.69343.17882 3.51244.39458 8.36278.9919 16.980513-.0378 25.267713-3.01921 4.08008-1.46784 9.43027-4.47161 15.21354-8.54139 2.08762-1.46909 8.55331-8.17518 10.59971-10.99382 2.55069-3.51325 2.90708-4.08633 4.89587-7.87267 2.7092-5.15788 4.65686-11.03662 5.58113-16.84582.66771-4.1967.66752-12.49039-.00026-16.46776-1.70778-10.16916-6.22992-19.225879-13.1737-26.383349-9.15567-9.43744-22.0595-14.78328-35.684-14.78328-10.608233 0-21.372123 3.36831-30.810083 9.64129-11.65521 7.74669-20.46139 20.525769-23.69248 34.381289-2.03458 8.72466-1.63395 18.97473 1.07184 27.42298 1.65575 5.16969 4.5777 10.78767 7.81778 15.03108l.89836 1.17654v11.94716l-1.74908-1.71215c-8.99975-8.80974-14.62612-19.4525-16.85077-31.87465-.48693-2.71897-.56791-4.16306-.56382-10.05416.004-5.89958.0878-7.35013.5878-10.18646 1.03861-5.89181 2.75004-11.34743 5.16694-16.47096 9.10383-19.299019 26.7471-32.915609 47.4012-36.582929C61.479133 5.06649 62.567493 5 68.903576 5c5.87146 0 7.57548.0897 10.19316.53636 12.31301 2.10113 23.29624 7.88876 31.74843 16.72991 7.76431 8.12162 12.82998 18.225839 14.95481 29.829559.87832 4.7965.9915 13.49753.24291 18.67496-1.86442 12.89476-6.912 23.76524-15.77689 33.97713-2.34359 2.69968-6.50784 6.60368-8.90489 8.34836-5.00044 3.63955-9.28149 6.19-13.43271 8.00259-9.43931 4.12159-18.60279 5.80868-28.707293 5.28532zm-16.46706-3.11436c-3.64502-1.26218-7.24899-2.84211-9.79284-4.29302l-1.91823-1.09409v-74.24135l.59531-.37443c.86173-.54198 11.29391-1.90075 13.16303-1.71445l.92603.0923.1323 19.31459c.1223 17.85665.16822 19.39447.60823 20.37291.67555 1.50219 2.17829 2.95857 4.02197 3.89787 3.27794 1.67 11.01595 2.31634 16.933343 1.41439 4.60437-.70181 12.76669-2.91063 16.07344-4.34966l1.25677-.54692v-18.87654c0-14.81422.0721-18.97516.33508-19.33479.3691-.50478 2.63433-.93001 8.61978-1.61817 4.25344-.48904 5.391-.50636 5.80889-.0885.24116.24114.3185 5.0288.32164 19.90989.003 15.53878.0782 19.90736.36237 21.11474.34332 1.45897.9368 2.5227 2.42295 4.34282l.6843.83808-.71155 1.1463c-1.46636 2.36226-5.40415 6.58311-6.87702 7.37136-.55454.29679-.8212.20384-2.60513-.90803-2.30719-1.43801-4.29526-3.56863-5.51587-5.91138-.47358-.90896-1.00884-1.6531-1.18946-1.65364-.18062-.00053-1.13312.34213-2.11667.76149-8.05949 3.43637-12.84579 4.72649-19.734253 5.31923-5.48162.47169-12.46662-.44477-16.79509-2.20359-1.18783-.48265-1.70002-.58574-1.78503-.35927-.0656.17469-.14886 7.60397-.1851 16.50951l-.0659 16.1919z"/>
</svg>
