<svg xmlns="http://www.w3.org/2000/svg" width="497.15" height="496.92" viewBox="0 0 131.54 131.48"><path fill="navy" d="M59.22 126.38c-2.04-.1-4.36-.28-5.16-.4l-1.45-.2-.08-4.16c-.04-2.3.02-4.17.14-4.17.1 0 1.69.18 3.5.4 8.37.99 16.99-.04 25.28-3.02 4.08-1.47 9.43-4.48 15.21-8.55 2.09-1.46 8.55-8.17 10.6-10.99a46.22 46.22 0 0 0 4.9-7.87 55.63 55.63 0 0 0 5.58-16.85c.66-4.2.66-12.49 0-16.47a49.2 49.2 0 0 0-13.18-26.38c-9.15-9.44-22.06-14.78-35.68-14.78-10.61 0-21.37 3.37-30.81 9.64C26.4 30.33 17.6 43.1 14.37 56.96a53.77 53.77 0 0 0 1.08 27.42 52.54 52.54 0 0 0 7.82 15.03l.9 1.18v11.95l-1.76-1.71A57.88 57.88 0 0 1 5.56 78.95C5.08 76.23 5 74.8 5 68.9s.09-7.35.59-10.19a64.57 64.57 0 0 1 5.16-16.47c9.1-19.3 26.75-32.92 47.4-36.58C61.49 5.06 62.58 5 68.9 5c5.88 0 7.58.09 10.2.54a56.75 56.75 0 0 1 31.75 16.73c7.76 8.12 12.83 18.22 14.95 29.83.88 4.8 1 13.5.24 18.67-1.86 12.9-6.9 23.77-15.77 33.98-2.35 2.7-6.51 6.6-8.9 8.35-5 3.64-9.29 6.19-13.44 8a61.45 61.45 0 0 1-28.7 5.28zm-16.47-3.11a61.82 61.82 0 0 1-9.79-4.3l-1.92-1.09V43.64l.6-.37c.86-.55 11.3-1.9 13.16-1.72l.93.1.13 19.3c.12 17.87.17 19.4.6 20.38a8.79 8.79 0 0 0 4.03 3.9c3.28 1.67 11.02 2.32 16.93 1.41 4.6-.7 12.77-2.9 16.08-4.35l1.25-.54V62.87c0-14.81.08-18.97.34-19.33.37-.5 2.63-.93 8.62-1.62 4.25-.5 5.39-.5 5.8-.09.25.24.33 5.03.33 19.91 0 15.54.08 19.9.36 21.11.34 1.46.94 2.53 2.42 4.35l.69.84-.71 1.14c-1.47 2.36-5.4 6.58-6.88 7.37-.55.3-.82.2-2.6-.9a15.7 15.7 0 0 1-5.52-5.92c-.47-.9-1.01-1.65-1.2-1.65-.17 0-1.12.34-2.1.76-8.07 3.44-12.85 4.73-19.74 5.32-5.48.47-12.47-.44-16.8-2.2-1.18-.49-1.7-.59-1.78-.36-.07.17-.15 7.6-.19 16.5l-.06 16.2z"/></svg>