<?xml version="1.0" encoding="UTF-8" standalone="no"?>
<svg
   xmlns:dc="http://purl.org/dc/elements/1.1/"
   xmlns:cc="http://creativecommons.org/ns#"
   xmlns:rdf="http://www.w3.org/1999/02/22-rdf-syntax-ns#"
   xmlns:svg="http://www.w3.org/2000/svg"
   xmlns="http://www.w3.org/2000/svg"
   xmlns:sodipodi="http://sodipodi.sourceforge.net/DTD/sodipodi-0.dtd"
   xmlns:inkscape="http://www.inkscape.org/namespaces/inkscape"
   width="131.53882mm"
   height="131.47676mm"
   viewBox="0 0 131.53882 131.47676"
   version="1.1"
   id="svg1041"
   sodipodi:docname="logo.svg"
   inkscape:version="1.0.1 (3bc2e813f5, 2020-09-07)">
  <defs
     id="defs1035" />
  <sodipodi:namedview
     id="base"
     pagecolor="#ffffff"
     bordercolor="#666666"
     borderopacity="1.0"
     inkscape:pageopacity="0.0"
     inkscape:pageshadow="2"
     inkscape:zoom="0.35"
     inkscape:cx="400"
     inkscape:cy="560"
     inkscape:document-units="mm"
     inkscape:current-layer="layer1"
     inkscape:document-rotation="0"
     showgrid="false"
     fit-margin-top="5"
     fit-margin-left="5"
     fit-margin-right="5"
     fit-margin-bottom="5" />
  <metadata
     id="metadata1038">
    <rdf:RDF>
      <cc:Work
         rdf:about="">
        <dc:format>image/svg+xml</dc:format>
        <dc:type
           rdf:resource="http://purl.org/dc/dcmitype/StillImage" />
        <dc:title></dc:title>
      </cc:Work>
    </rdf:RDF>
  </metadata>
  <g
     inkscape:label="Ebene 1"
     inkscape:groupmode="layer"
     id="layer1"
     transform="translate(-34.053744,-63.204691)">
    <path
       style="fill:#000080;stroke-width:0.264583"
       d="m 93.274887,189.58888 c -2.03729,-0.10552 -4.35901,-0.28412 -5.15938,-0.39688 l -1.45521,-0.20501 -0.0729,-4.16719 c -0.0401,-2.29195 0.0195,-4.16615 0.1323,-4.16489 0.11283,0.001 1.69343,0.17882 3.51244,0.39458 8.36278,0.9919 16.980513,-0.0378 25.267713,-3.01921 4.08008,-1.46784 9.43027,-4.47161 15.21354,-8.54139 2.08762,-1.46909 8.55331,-8.17518 10.59971,-10.99382 2.55069,-3.51325 2.90708,-4.08633 4.89587,-7.87267 2.7092,-5.15788 4.65686,-11.03662 5.58113,-16.84582 0.66771,-4.1967 0.66752,-12.49039 -2.6e-4,-16.46776 -1.70778,-10.16916 -6.22992,-19.225879 -13.1737,-26.383349 -9.15567,-9.43744 -22.0595,-14.78328 -35.684,-14.78328 -10.608233,0 -21.372123,3.36831 -30.810083,9.64129 -11.65521,7.74669 -20.46139,20.525769 -23.69248,34.381289 -2.03458,8.72466 -1.63395,18.97473 1.07184,27.42298 1.65575,5.16969 4.5777,10.78767 7.81778,15.03108 l 0.89836,1.17654 v 5.97358 5.97358 l -1.74908,-1.71215 c -8.99975,-8.80974 -14.62612,-19.4525 -16.85077,-31.87465 -0.48693,-2.71897 -0.56791,-4.16306 -0.56382,-10.05416 0.004,-5.89958 0.0878,-7.35013 0.5878,-10.18646 1.03861,-5.89181 2.75004,-11.34743 5.16694,-16.47096 9.10383,-19.299019 26.7471,-32.915609 47.4012,-36.582929 3.32305,-0.59004 4.41141,-0.65653 10.747493,-0.65653 5.87146,0 7.57548,0.0897 10.19316,0.53636 12.31301,2.10113 23.29624,7.88876 31.74843,16.72991 7.76431,8.12162 12.82998,18.225839 14.95481,29.829559 0.87832,4.7965 0.9915,13.49753 0.24291,18.67496 -1.86442,12.89476 -6.912,23.76524 -15.77689,33.97713 -2.34359,2.69968 -6.50784,6.60368 -8.90489,8.34836 -5.00044,3.63955 -9.28149,6.19 -13.43271,8.00259 -9.43931,4.12159 -18.60279,5.80868 -28.707293,5.28532 z m -16.46706,-3.11436 c -3.64502,-1.26218 -7.24899,-2.84211 -9.79284,-4.29302 l -1.91823,-1.09409 v -37.12068 -37.12067 l 0.59531,-0.37443 c 0.86173,-0.54198 11.29391,-1.90075 13.16303,-1.71445 l 0.92603,0.0923 0.1323,19.31459 c 0.1223,17.85665 0.16822,19.39447 0.60823,20.37291 0.67555,1.50219 2.17829,2.95857 4.02197,3.89787 3.27794,1.67 11.01595,2.31634 16.933343,1.41439 4.60437,-0.70181 12.76669,-2.91063 16.07344,-4.34966 l 1.25677,-0.54692 v -18.87654 c 0,-14.81422 0.0721,-18.97516 0.33508,-19.33479 0.3691,-0.50478 2.63433,-0.93001 8.61978,-1.61817 4.25344,-0.48904 5.391,-0.50636 5.80889,-0.0885 0.24116,0.24114 0.3185,5.0288 0.32164,19.90989 0.003,15.53878 0.0782,19.90736 0.36237,21.11474 0.34332,1.45897 0.9368,2.5227 2.42295,4.34282 l 0.6843,0.83808 -0.71155,1.1463 c -1.46636,2.36226 -5.40415,6.58311 -6.87702,7.37136 -0.55454,0.29679 -0.8212,0.20384 -2.60513,-0.90803 -2.30719,-1.43801 -4.29526,-3.56863 -5.51587,-5.91138 -0.47358,-0.90896 -1.00884,-1.6531 -1.18946,-1.65364 -0.18062,-5.3e-4 -1.13312,0.34213 -2.11667,0.76149 -8.05949,3.43637 -12.84579,4.72649 -19.734253,5.31923 -5.48162,0.47169 -12.46662,-0.44477 -16.79509,-2.20359 -1.18783,-0.48265 -1.70002,-0.58574 -1.78503,-0.35927 -0.0656,0.17469 -0.14886,7.60397 -0.1851,16.50951 l -0.0659,16.1919 z"
       id="path1618" />
  </g>
</svg>
