<svg xmlns="http://www.w3.org/2000/svg" width="97.130842" height="93.079843" viewBox="0 0 25.699202 24.627375">
  <defs/>
  <defs>
    <clipPath id="a" transform="translate(-7.52 -22.83)">
      <path fill="none" d="M0 0h360v99H0z"/>
    </clipPath>
  </defs>
  <g clip-path="url(#clip-path)" data-name="Layer 1" transform="matrix(.26458 0 0 .26458 1.160062 .76268)">
    <g clip-path="url(#a)">
      <path fill="#fff" stroke="#f38334" stroke-width=".666667" d="M83.000745 33.29l-.21-.33a.71.71 0 01-.1-.14l-14.59-22.2-18.85 14 13.85 21.26.17.27.08.11a11.8 11.8 0 0019.69-13"/>
      <path fill="#f38334" d="M26.83 39.47a11.8 11.8 0 10-11.8 11.8 11.8 11.8 0 0011.8-11.8"/>
    </g>
    <g clip-path="url(#a)">
      <path fill="#f38334" d="M70.25 16.8a11.8 11.8 0 10-11.77 11.8 11.8 11.8 0 0011.8-11.8"/>
      <path fill="#fff" stroke="#f38334" stroke-width=".666667" d="M58.48 28.6c-3.973571.0031-7.680945-1.9972-9.86-5.32l-9-12.66c-4.592274-7.492339-15.477726-7.492339-20.07 0L5.696429 32.770714C10.516559 25.629499 20.67256 25.990916 25.12 33.37l9.36 13.09c4.702035 6.428547 14.297965 6.428547 19 0l.09-.15.68-1 13.910714-22.286429C65.955877 26.247497 62.385735 28.615406 58.48 28.6"/>
    </g>
  </g>
  <g fill="#fff">
    <path d="M5.120368 13.834455c.008274-.0034.018079-.0034.021865.000906.00374.0034-.002947.006801-.014974.005668-.013296-.000544-.015993-.0034-.006914-.006801zm-.034232-.365102c.008274-.0034.01808-.0034.021865.000896.00374.0034-.002947.0068-.014974.005667-.013296-.000544-.015993-.0034-.006914-.0068zm-1.875807-.348756l-.02174-.025617.025673.021763c.024121.020403.030866.029584.021741.029584-.002154 0-.013715-.011561-.025674-.025617zm3.281315-.195416c0-.002267.008954-.011335.01996-.01995.018092-.014169.0185-.013829.004308.004534-.014905.019043-.024268.02505-.024268.015642zm.616112-.102696c0-.002267.008955-.011335.019973-.01995.01809-.014168.018498-.013828.004307.004535-.014906.019043-.02428.02505-.02428.015642zm-4.25484-1.588265c.000547-.013262.003286-.015982.006913-.0068.003288.007934.002834.018022-.0009.021876-.00374.0034-.00646-.0034-.006007-.014962zm.64944-1.51512c0-.002267.008955-.011335.019972-.01995.018091-.014168.018499-.013828.004308.004534-.014906.019043-.02428.02505-.02428.015643zm.108386-.109836c.011357-.012582.023214-.022784.026353-.022784.003174 0-.003627.010202-.01495.022784-.011358.012582-.023215.022783-.026354.022783-.003174 0 .003627-.010201.01495-.022783zm.108385-.095555c0-.002267.008955-.011335.019961-.01995.018102-.014168.018499-.013828.004307.004535-.014905.019043-.02428.02505-.02428.015642zm3.313375-.21532l-.02174-.025617.025673.021763c.024121.020403.030865.029585.02174.029585-.002153 0-.013715-.011562-.025673-.025618zM6.684152 12.099446c-.014191-.018136-.013783-.018476.004308-.004534.019009.014849.02505.024257.015653.024257-.00238 0-.011357-.009068-.01996-.01995zM3.388264 9.844624c0-.002267.008955-.011335.019961-.01995.018102-.014168.018499-.013828.004308.004535-.014906.019043-.02428.02505-.02428.015642zm-.171143-.353698c0-.002267.008955-.011335.019972-.01995.018091-.014169.0185-.013829.004308.004534-.014906.019043-.02428.02505-.02428.015643zm3.421394-.061323c-.014191-.018136-.013794-.018476.004308-.004534.019008.01485.02505.024257.015665.024257-.00238 0-.011358-.009068-.019961-.01995zM4.880769 13.834455c.008274-.0034.01808-.0034.021865.000906.00374.0034-.002947.006801-.014974.005668-.013296-.000544-.015993-.0034-.006914-.006801zm-.608609-.807984c-.000001-.389064.001474-.549874.003174-.357371.0017.192514.0017.510836.000002.707385-.0017.196561-.003174.038993-.003174-.350014zm2.596-.48921c0-.002266.008954-.011334.01996-.019949.018103-.014169.0185-.013829.004308.004534-.014906.019043-.02428.02505-.02428.015643zm-2.595961-1.535976c0-.442406.00136-.623381.003173-.402178.0017.221192.0017.583165 0 .804368-.0017.221192-.003173.04024-.003173-.40219zM4.920206 13.834341c.011108-.0034.0265-.002267.034231.000431.007708.0034-.00136.005668-.020187.005668-.018828-.000239-.025141-.002267-.014044-.005668zm.102684 0c.011108-.0034.026501-.002267.034231.000431.007708.0034-.00136.005668-.020187.005668-.018828-.000239-.025141-.002267-.014044-.005668zm-1.400892-1.965937c0-.875393.00136-1.233501.00306-.79581.001701.437702.001701 1.15393 0 1.591632-.0017.43769-.00306.079572-.00306-.795822zm1.332434.26592c.011108-.0034.026501-.002267.034232.00043.007707.003401-.00136.005668-.020188.005668-.018828-.000238-.025141-.002267-.014044-.005667zM4.971331 13.834693c.007821-.0034.020675-.0034.02853 0 .007822.0034.001474.005667-.01426.005667-.015687 0-.022102-.002267-.014259-.005667zm1.908239-.772596c0-.002267.008954-.011335.01996-.01995.018103-.014169.0185-.013829.004308.004534-.014906.019043-.024268.02505-.024268.015642zm.074165-.075605c.011357-.012582.023214-.022783.026354-.022783.003173 0-.003628.010201-.014951.022783-.011358.012582-.023214.022783-.026354.022783-.003174 0 .003627-.010201.01495-.022783zm-2.085086-.543798c.007821-.0034.020675-.0034.02852 0 .00782.0034.001473.005667-.01426.005667-.015688 0-.022104-.002267-.01426-.005667zm.034232-.308064c.007821-.0034.020675-.0034.028519 0 .007821.0034.001474.005668-.01426.005668-.015687 0-.022103-.002267-.014259-.005668zM3.331223 9.913031c0-.002267.008955-.011335.019972-.01995.018091-.014168.0185-.013828.004308.004535-.014906.019042-.02428.02505-.02428.015642zm-.068452-.467785c0-.002267.008954-.011335.019972-.01995.01809-.014169.018499-.013829.004307.004534-.014905.019043-.02428.02505-.02428.015642zm.057049-.057016c0-.002267.008955-.011335.019972-.01995.018091-.014168.018499-.013828.004308.004535-.014906.019043-.02428.02505-.02428.015642zm3.467031-.3009c-.014191-.018135-.013795-.018475.004308-.004533.019008.014849.02505.024257.015665.024257-.00238 0-.011358-.009068-.019961-.01995zM4.556651 13.61977c.000012-.10043.001814-.139955.003854-.087847.002154.052027.002154.134206-.000022.18255-.002154.048288-.003854.005668-.003854-.094647zm-1.255042-.419307l-.02174-.025617.025673.021764c.024121.020403.030866.029584.02173.029584-.002154 0-.013716-.011562-.025674-.025617zm3.851789-.446419c0-.002267.008955-.011335.01996-.01995.018092-.014168.0185-.013828.004308.004535-.014905.019043-.024268.02505-.024268.015642zm-2.233409-.311622c.010995-.0034.02895-.0034.039933 0 .010995.0034.00204.005667-.019972.005667-.021967 0-.030945-.002267-.01996-.005667zm1.617295-.007935c0-.002267.008955-.011335.019961-.01995.018102-.014168.0185-.013828.004308.004534-.014906.019043-.02428.02505-.02428.015643zm-1.667925-.30014c.008274-.0034.01808-.0034.021865.000907.00374.0034-.002947.0068-.014973.005667-.013296-.000544-.015994-.0034-.006915-.006801zm1.08004-1.053286c0-.448674.00136-.632223.003173-.407891.0017.224343.0017.59144 0 .815783-.0017.224343-.003174.040806-.003174-.407892zm.985763-1.868308c-.014191-.018136-.013795-.018476.004308-.004534.019008.014962.02505.024257.015665.024257-.00238 0-.011358-.009068-.019961-.01995z"/>
    <path d="M4.971331 13.480994c.007821-.0034.020675-.0034.02853 0 .007822.0034.001474.005668-.01426.005668-.015687 0-.022102-.002267-.014259-.005668zm-1.646646-.517274c0-.14119.001587-.198953.003627-.128358.00204.070617.00204.186121 0 .256716-.00204.070617-.003627.012808-.003627-.128358zm3.46361.178243c0-.002267.008954-.011335.01996-.01995.01809-.014168.018499-.013828.004307.004535-.014905.019043-.024268.02505-.024268.015642zm-3.572628-.02709c-.014192-.018136-.013784-.018477.004307-.004534.010995.009068.019972.017569.019972.01995 0 .009067-.009408.0034-.02428-.015643zm-.05705-.057016c-.01419-.018136-.013783-.018476.004308-.004534.010995.009068.01996.01757.01996.01995 0 .009068-.009407.0034-.024267-.015642zm-.096608-.108363l-.02174-.025617.025673.021764c.024121.020403.030866.029584.02174.029584-.002153 0-.013714-.011562-.025673-.025617zm3.606485-.179705c.011358-.012582.023214-.022784.026354-.022784.003174 0-.003627.010202-.01495.022784-.011359.012582-.023215.022783-.026355.022783-.003174 0 .003627-.010201.014951-.022783zm.051337-.049988c0-.002267.008954-.011335.01996-.01995.018103-.014168.0185-.013828.004308.004535-.014906.019042-.02428.02505-.02428.015642zm-.53711-.312303l-.027657-.031398.031375.027658c.017263.015189.031375.029358.031375.031398 0 .009068-.009294.001133-.035093-.027658zM2.84371 11.354972c0-.028224.002267-.039786.004987-.025617.00272.014169.00272.03718 0 .051348-.00272.014169-.004987.002267-.004987-.025617zm4.552544-.290947c.000092-.031398.002267-.042847.004874-.025504.002608.017342.002608.04296-.000155.057015-.00272.014056-.004874-.000159-.00476-.031511zm-3.842558-1.40907c.037258-.037632.07031-.068463.07345-.068463.003175 0-.024778.03083-.062036.068463-.037258.037632-.070311.068464-.073451.068464-.003174 0 .024778-.030832.062037-.068464zm-.370809-.118406c0-.002267.008955-.011335.019972-.01995.018091-.014168.0185-.013828.004308.004535-.014906.019043-.02428.02505-.02428.015642zm3.822182-.252408c-.027714-.028224-.047823-.051348-.044683-.051348.003174 0 .028383.023124.056097.051348.027714.028224.047823.051348.044683.051348-.003174 0-.028383-.023124-.056097-.051348zm-1.759202-.355784c.008274-.0034.01808-.0034.021865.000907.00374.0034-.002947.0068-.014974.005667-.013296-.000555-.015993-.0034-.006914-.0068z"/>
    <path d="M4.723175 13.819039c-.047063-.005668-.102253-.013262-.122653-.01689l-.037076-.0068v-.353098l.025673.005668c.152257.033778.48528.040012.698831.013148.433356-.054635.847898-.238602 1.237734-.54916.047176-.037519.331073-.32569.331073-.335981 0-.005668.017943-.031058.039888-.057356.100723-.120548.26353-.402779.327992-.568565.269685-.69358.22019-1.41859-.13722-2.01003-.095645-.158271-.23878-.334135-.36187-.444594-.037655-.033779-.071026-.064383-.074165-.06801-.015235-.017457-.110676-.086147-.226793-.163202-.204733-.135828-.49442-.247637-.765833-.295596-.532783-.09408-1.079076.002267-1.568973.278174-.065857.037065-.24467.155924-.286294.190371-.019496.016096-.047732.03922-.06275.051121-.133484.106663-.345207.33189-.4354.463082-.134403.195484-.219309.352146-.29776.549364-.029085.07311-.052934.139851-.053014.14833-.000079.007935-.012468.053955-.027521.101109-.044705.139953-.076942.390333-.077101.598863-.000363.477625.142963.921323.414509 1.283183l.05536.073791v.501065l-.030979-.027657c-.050497-.045113-.127299-.125286-.197025-.205742-.068487-.079005-.194143-.244826-.194143-.256172 0-.0034-.01613-.030038-.03583-.058716-.044354-.064496-.158833-.293464-.192754-.385583-.055247-.150042-.115624-.372742-.139195-.513432-.03608-.215355-.035774-.607853.00065-.825667.039129-.234023.103784-.456722.187584-.646153.055746-.126023.121377-.257317.14569-.291458.012264-.01723.026206-.040806.030978-.052481.007481-.01825.068305-.11165.136351-.209415.048775-.07005.197962-.24231.287609-.332037.412658-.413015.937308-.685033 1.506529-.781098.142474-.02403.201385-.02777.434158-.02777.2336 0 .291178.0034.434158.027997.17717.030151.378242.08388.477168.127485.033722.01485.065914.02709.071536.02709.010768 0 .204103.094875.272186.133505.03668.020856.159604.100655.22819.148206.11966.082972.348038.301375.464737.444503.138818.170252.287532.430437.372437.651594.055156.143683.115113.369126.1403.527578.03142.19765.028598.591315-.005668.797148-.05672.340244-.189117.711818-.337266.946498-.01638.025957-.029789.049534-.029789.052368 0 .009068-.149087.226338-.181252.264707-.016401.01961-.045226.055542-.064054.079912-.042075.054408-.316476.32782-.3776.376187-.071751.056789-.225334.168722-.255942.18654-.015518.009069-.060575.03616-.100122.060417-.283394.173267-.656345.30702-.99487.356792-.151624.02233-.523863.031852-.65034.016663zm-.541951-.11233c-.031376-.011335-.09042-.032418-.13121-.046927-.09951-.035252-.300337-.129718-.367668-.172928l-.054487-.034911v-1.59475c0-1.30601.00272-1.597004.015041-1.607228.017252-.014282.164894-.037519.41565-.065176.139372-.015416.177388-.016436.19111-.004534.01494.012355.017127.118065.017127.826562 0 .917095-.003514.878204.086963.971265.104588.10757.283963.156333.580494.157636.188943.00084.318339-.016776.539485-.073564.156882-.04024.400194-.117522.448104-.1423l.033563-.017343v-.819795c0-.670682.00272-.822096.015268-.832456.01537-.012809.22297-.044774.46132-.071184.101664-.011335.131533-.011335.142619-.000238.010768.010201.015359.220954.019723.900534.005554.871041.00612.88742.029697.937872.013194.028225.036307.064157.051337.079912.07531.078552.075026.066537.003854.16667-.070776.099522-.16968.20639-.237032.256252-.04313.031965-.04432.032191-.079866.012922-.123244-.066763-.237357-.179343-.2935-.289497-.018158-.035592-.037065-.06733-.042007-.070277-.004988-.0034-.044853.010201-.088686.02845-.28627.12243-.54581.19756-.781062.226078-.268164.032532-.598526-.0034-.803438-.086146-.03736-.01519-.07217-.027544-.077362-.027544-.005214 0-.009408.318321-.009408.707385 0 .558523-.002947.707295-.01426.706978-.00782-.000227-.039933-.010202-.071308-.02097z"/>
  </g>
  <path fill="#fff" d="M16.632895 7.3297c-.43476.009-.854051-.16139-1.15912-.47128-.434099-.43461-.42305-.97171-.42305-1.7133 0-.7416-.01157-1.2792.42305-1.71431.305234-.30964.724415-.48008 1.15912-.47129.803897 0 1.430434.45873 1.581668 1.35658h-.854144c-.08441-.34416-.301456-.60895-.72401-.60895-.202618-.008-.398594.073-.536599.22157-.163287.18289-.212027.38688-.212027 1.21439 0 .82751.05026 1.03049.212027 1.21288.137784.14898.333815.2303.536599.22257.422554 0 .6396-.26528.72401-.60895h.854144c-.151234.90087-.784805 1.36009-1.581668 1.36009z"/>
  <text x="-50.974968" y="390.34311" fill="#f38334" stroke-width=".105648" font-family="sans-serif" font-size="3.69214" font-weight="400" letter-spacing="0" style="line-height:1.25" transform="matrix(1.33768 0 0 .74756 70.24182 -273.5868)" word-spacing="0">
    <tspan x="-50.974968" y="390.34311" font-family="Bahnschrift" style="-inkscape-font-specification:Bahnschrift">BACKEND</tspan>
  </text>
  <path fill="#f38334" stroke="#f38334" stroke-linecap="round" stroke-linejoin="round" stroke-width=".315397" d="M2.157698 19.34121H23.39687v3.128467H2.157698z"/>
  <text x="-49.610615" y="395.29166" fill="#fff" stroke-width=".075164" font-family="sans-serif" font-size="3.69214" font-weight="400" letter-spacing="0" style="line-height:1.25" transform="matrix(1.33768 0 0 .74756 70.24182 -273.5868)" word-spacing="0">
    <tspan x="-49.610615" y="395.29166" font-family="Bahnschrift" style="-inkscape-font-specification:Bahnschrift">CHARTS</tspan>
  </text>
</svg>
