<svg xmlns="http://www.w3.org/2000/svg" width="97.13" height="93.08" viewBox="0 0 25.7 24.63"><defs><clipPath id="a" transform="translate(-7.52 -22.83)"><path fill="none" d="M0 0h360v99H0z"/></clipPath></defs><g clip-path="url(#clip-path)" data-name="Layer 1" transform="translate(1.16 .76) scale(.26458)"><g clip-path="url(#a)"><path fill="#fff" stroke="#f38334" stroke-width=".67" d="m83 33.29-.2-.33a.71.71 0 0 1-.1-.14l-14.6-22.2-18.85 14L63.1 45.88l.17.27.08.11a11.8 11.8 0 0 0 19.7-13"/><path fill="#f38334" d="M26.83 39.47a11.8 11.8 0 1 0-11.8 11.8 11.8 11.8 0 0 0 11.8-11.8"/></g><g clip-path="url(#a)"><path fill="#f38334" d="M70.25 16.8a11.8 11.8 0 1 0-11.77 11.8 11.8 11.8 0 0 0 11.8-11.8"/><path fill="#fff" stroke="#f38334" stroke-width=".67" d="M58.48 28.6c-3.97 0-7.68-2-9.86-5.32l-9-12.66a11.77 11.77 0 0 0-20.07 0L5.7 32.77c4.82-7.14 14.97-6.78 19.42.6l9.36 13.09a11.77 11.77 0 0 0 19 0l.09-.15.68-1 13.91-22.29c-2.2 3.23-5.77 5.6-9.68 5.58"/></g></g><g fill="#fff"><path d="M5.12 13.83h.02l-.01.01h-.01zm-.03-.36c-.01 0-.01 0 0 0zm-1.88-.35-.02-.03.02.03.03.03-.03-.03zm3.28-.2.02-.01c.02-.02.02-.02 0 0 0 .02-.02.02-.02.02zm.62-.1.02-.02c.02-.01.02-.01 0 0-.01.03-.02.03-.02.02zm-4.26-1.59h.01zm.65-1.51.02-.02c.02-.02.02-.01 0 0 0 .02-.02.03-.02.02zm.11-.11a.09.09 0 0 1 .03-.02l-.02.02a.09.09 0 0 1-.02.02l.01-.02zm.1-.1s.02 0 .03-.02c.02-.01.02-.01 0 0-.01.03-.02.03-.02.02zm3.32-.21-.02-.03.03.02.02.03s-.02 0-.03-.02zm-.35 2.8c-.01-.02-.01-.02 0 0 .03.01.03.02.02.02l-.02-.02zm-3.3-2.26s.02 0 .03-.02c.02 0 .02 0 0 0-.01.03-.02.03-.02.02zm-.16-.35.02-.02c.02-.01.02-.01 0 0l-.02.02zm3.42-.06c-.02-.02-.02-.02 0 0l.02.02-.02-.02zm-1.76 4.4h.02l-.01.01c-.02 0-.02 0 0 0zm-.6-.8v-.36a49.09 49.09 0 0 1 0 .36zm2.59-.5.02-.01c.02-.02.02-.02 0 0l-.02.02zM4.27 11v-.4a63.43 63.43 0 0 1 0 .4zm.65 2.83h.03l-.02.01h-.01zm.1 0h.04l-.02.01h-.02zm-1.4-1.96v-.8a248.22 248.22 0 0 1 0 .8zm1.33.26H5l-.02.01h-.02zm.02 1.7H5l-.01.01h-.02zm1.91-.77.02-.02c.02-.01.02-.01 0 0-.01.03-.02.03-.02.02zm.07-.07a.09.09 0 0 1 .03-.03l-.01.03a.09.09 0 0 1-.03.02l.01-.02zm-2.08-.55h.01-.01zm.03-.3h.02-.02zM3.33 9.9l.02-.02c.02-.01.02-.01 0 0 0 .03-.02.03-.02.02zm-.07-.46.02-.02c.02-.02.02-.02 0 0 0 .02-.02.02-.02.02zm.06-.06.02-.02c.02-.02.02-.02 0 0l-.02.02zm3.47-.3c-.02-.02-.02-.02 0 0 .02 0 .03.02.02.02l-.02-.02zm-2.23 4.53v-.09a2.57 2.57 0 0 1 0 .09zM3.3 13.2l-.02-.03.03.03.02.03-.03-.03zm3.85-.45.02-.02c.02-.01.02-.01 0 0 0 .03-.02.03-.02.02zm-2.23-.3h.02-.02zm1.62-.02.02-.02c.02-.01.02 0 0 0-.01.03-.02.03-.02.02zm-1.67-.3h.02l-.01.01h-.01zm1.08-1.05v-.4a65.25 65.25 0 0 1 0 .4zm.99-1.87c-.02-.02-.02-.02 0 0l.02.02s-.02 0-.02-.02z"/><path d="M4.97 13.48H5h-.02zm-1.65-.52v-.12a5.39 5.39 0 0 1 0 .12zm3.47.18.02-.02c.02-.01.02-.01 0 0-.01.03-.02.03-.02.02zm-3.57-.03c-.02-.01-.02-.01 0 0l.02.02-.02-.02zm-.06-.05c-.02-.02-.02-.02 0 0l.02.01-.02-.01zm-.1-.11-.02-.03.03.03.02.03-.03-.03zm3.6-.18a.09.09 0 0 1 .03-.02l-.01.02a.09.09 0 0 1-.03.02l.02-.02zm.06-.05.02-.02c.02-.01.02-.01 0 0l-.02.02zm-.54-.31-.02-.03.03.02a.2.2 0 0 1 .03.04l-.04-.03zm-3.34-1.06v-.02.03zm4.56-.29v-.02a.2.2 0 0 1 0 .06v-.04zm-3.85-1.4a.68.68 0 0 1 .08-.07l-.06.06a.68.68 0 0 1-.08.07l.06-.07zm-.37-.12.02-.02c.02-.02.02-.02 0 0 0 .02-.02.03-.02.02zm3.83-.26a.26.26 0 0 1-.05-.05l.06.05.04.06a.4.4 0 0 1-.05-.06zm-1.76-.35c-.01 0-.01 0 0 0z"/><path d="m4.72 13.82-.12-.02h-.04v-.36h.03c.15.04.48.05.7.02a2.47 2.47 0 0 0 1.93-1.51c.27-.7.22-1.42-.13-2.01a2.14 2.14 0 0 0-.67-.68c-.2-.13-.49-.24-.76-.3a2.35 2.35 0 0 0-1.92.53 2.6 2.6 0 0 0-.81 1.26 2.3 2.3 0 0 0-.08.6c0 .48.14.92.41 1.28l.06.08v.5l-.03-.03a2.54 2.54 0 0 1-.76-1.42 2.73 2.73 0 0 1 .79-2.36 2.78 2.78 0 0 1 2.37-.78 2.43 2.43 0 0 1 2.03 2.06 2.78 2.78 0 0 1-1.35 2.76 2.79 2.79 0 0 1-1.65.38zm-.54-.11-.13-.05-.37-.17-.05-.04v-1.6l.01-1.6a2.13 2.13 0 0 1 .61-.07c.01.01.02.12.02.83 0 .91 0 .88.08.97.1.1.29.15.58.16a3.92 3.92 0 0 0 .99-.22l.04-.02v-.82l.01-.83a3.09 3.09 0 0 1 .6-.07c.02 0 .02.22.02.9.01.87.01.89.03.94l.06.08c.07.08.07.06 0 .16s-.17.21-.24.26c-.04.03-.04.03-.08.01a.74.74 0 0 1-.3-.29.37.37 0 0 0-.03-.07l-.1.03c-.28.12-.54.2-.77.23a1.81 1.81 0 0 1-.88-.12l-.01.71c0 .56 0 .7-.02.7a.5.5 0 0 1-.07-.01z"/></g><path fill="#fff" d="M16.63 7.33c-.43 0-.85-.16-1.16-.47-.43-.44-.42-.97-.42-1.71 0-.75-.01-1.28.42-1.72.3-.3.73-.48 1.16-.47.8 0 1.43.46 1.58 1.36h-.85c-.08-.35-.3-.61-.72-.61a.7.7 0 0 0-.54.22c-.16.18-.21.39-.21 1.21 0 .83.05 1.03.21 1.22a.7.7 0 0 0 .54.22c.42 0 .64-.27.72-.61h.85c-.15.9-.78 1.36-1.58 1.36z"/><text x="-50.97" y="390.34" fill="#f38334" stroke-width=".11" font-family="sans-serif" font-size="3.69" font-weight="400" letter-spacing="0" style="line-height:1.25" transform="matrix(1.33768 0 0 .74756 70.24 -273.59)" word-spacing="0">
    <tspan x="-50.97" y="390.34" font-family="Bahnschrift" style="-inkscape-font-specification:Bahnschrift">BACKEND</tspan>
  </text><path fill="#f38334" stroke="#f38334" stroke-linecap="round" stroke-linejoin="round" stroke-width=".32" d="M2.16 19.34H23.4v3.13H2.16z"/><text x="-49.61" y="395.29" fill="#fff" stroke-width=".08" font-family="sans-serif" font-size="3.69" font-weight="400" letter-spacing="0" style="line-height:1.25" transform="matrix(1.33768 0 0 .74756 70.24 -273.59)" word-spacing="0">
    <tspan x="-49.61" y="395.29" font-family="Bahnschrift" style="-inkscape-font-specification:Bahnschrift">CHARTS</tspan>
  </text></svg>