<?xml version="1.0" encoding="UTF-8" standalone="no"?>
<svg
   xmlns:dc="http://purl.org/dc/elements/1.1/"
   xmlns:cc="http://creativecommons.org/ns#"
   xmlns:rdf="http://www.w3.org/1999/02/22-rdf-syntax-ns#"
   xmlns:svg="http://www.w3.org/2000/svg"
   xmlns="http://www.w3.org/2000/svg"
   xmlns:sodipodi="http://sodipodi.sourceforge.net/DTD/sodipodi-0.dtd"
   xmlns:inkscape="http://www.inkscape.org/namespaces/inkscape"
   width="25.699202mm"
   height="24.627375mm"
   viewBox="0 0 25.699202 24.627375"
   version="1.1"
   id="svg8"
   inkscape:version="1.0.1 (3bc2e813f5, 2020-09-07)"
   sodipodi:docname="backend_charts.svg">
  <defs
     id="defs2">
    <clipPath
       id="a"
       transform="translate(-7.52 -22.83)">
      <path
         fill="none"
         d="M 0,0 H 360 V 99 H 0 Z"
         id="path866" />
    </clipPath>
    <clipPath
       id="b"
       transform="translate(-7.52 -22.83)">
      <path
         d="m 54.17,39.63 a 11.74,11.74 0 0 0 3,7.86 L 71,68.71 l 0.17,0.27 0.08,0.11 a 11.797204,11.797204 0 0 0 19.69,-13 l -0.21,-0.33 a 0.71,0.71 0 0 1 -0.1,-0.14 L 76,33.45 a 11.79,11.79 0 0 0 -21.84,6.18"
         fill="none"
         id="path869" />
    </clipPath>
    <clipPath
       id="c"
       transform="translate(-7.52 -22.83)">
      <path
         fill="none"
         d="M 7.52,22.83 H 85.04 V 81.15 H 7.52 Z"
         id="path872" />
    </clipPath>
  </defs>
  <sodipodi:namedview
     id="base"
     pagecolor="#ffffff"
     bordercolor="#666666"
     borderopacity="1.0"
     inkscape:pageopacity="0.0"
     inkscape:pageshadow="2"
     inkscape:zoom="0.35"
     inkscape:cx="400"
     inkscape:cy="560"
     inkscape:document-units="mm"
     inkscape:current-layer="layer1"
     inkscape:document-rotation="0"
     showgrid="false"
     fit-margin-top="2"
     fit-margin-left="2"
     fit-margin-right="2"
     fit-margin-bottom="2" />
  <metadata
     id="metadata5">
    <rdf:RDF>
      <cc:Work
         rdf:about="">
        <dc:format>image/svg+xml</dc:format>
        <dc:type
           rdf:resource="http://purl.org/dc/dcmitype/StillImage" />
        <dc:title />
      </cc:Work>
    </rdf:RDF>
  </metadata>
  <g
     inkscape:label="Ebene 1"
     inkscape:groupmode="layer"
     id="layer1"
     transform="translate(70.24182,-273.5868)">
    <g
       clip-path="url(#clip-path)"
       data-name="Layer 1"
       id="g901"
       transform="matrix(0.26458333,0,0,0.26458333,-69.081758,274.34948)">
      <g
         clip-path="url(#a)"
         fill="#3f4445"
         id="g879" />
      <g
         clip-path="url(#a)"
         id="g885">
        <path
           d="m 83.000745,33.29 -0.21,-0.33 a 0.71,0.71 0 0 1 -0.1,-0.14 l -14.59,-22.2 -18.85,14 13.85,21.26 0.17,0.27 0.08,0.11 a 11.8,11.8 0 0 0 19.69,-13"
           fill="#95c748"
           id="path881"
           style="fill:#ffffff;fill-opacity:1;stroke:#f38334;stroke-width:0.666667;stroke-opacity:1" />
        <path
           d="m 26.83,39.47 a 11.8,11.8 0 1 0 -11.8,11.8 11.8,11.8 0 0 0 11.8,-11.8"
           fill="#35bfc0"
           id="path883"
           style="fill:#f38334;fill-opacity:1" />
      </g>
      <g
         clip-path="url(#a)"
         id="g899">
        <path
           d="M 70.25,16.8 A 11.8,11.8 0 1 0 58.48,28.6 11.8,11.8 0 0 0 70.28,16.8"
           fill="#f38334"
           id="path895" />
        <path
           d="m 58.48,28.6 c -3.973571,0.0031 -7.680945,-1.9972 -9.86,-5.32 l -9,-12.66 C 35.027726,3.1276612 24.142274,3.1276612 19.55,10.62 L 5.6964286,32.770714 C 10.516559,25.629499 20.67256,25.990916 25.12,33.37 l 9.36,13.09 c 4.702035,6.428547 14.297965,6.428547 19,0 l 0.09,-0.15 0.68,-1 13.910714,-22.286429 C 65.955877,26.247497 62.385735,28.615406 58.48,28.6"
           fill="#3152a0"
           id="path897"
           style="fill:#ffffff;stroke:#f38334;stroke-width:0.666667;stroke-opacity:1"
           sodipodi:nodetypes="cccccccccccc" />
      </g>
    </g>
    <g
       id="g957"
       transform="matrix(1.1335035,0,0,1.1335035,7.6882596,-46.323628)"
       style="fill:#ffffff">
      <path
         style="fill:#ffffff;fill-opacity:1;stroke-width:0.0100657"
         d="m -64.234219,294.43657 c 0.0073,-0.003 0.01595,-0.003 0.01929,8e-4 0.0033,0.003 -0.0026,0.006 -0.01321,0.005 -0.01173,-4.8e-4 -0.01411,-0.003 -0.0061,-0.006 z m -0.0302,-0.3221 c 0.0073,-0.003 0.01595,-0.003 0.01929,7.9e-4 0.0033,0.003 -0.0026,0.006 -0.01321,0.005 -0.01173,-4.8e-4 -0.01411,-0.003 -0.0061,-0.006 z m -1.654875,-0.30768 -0.01918,-0.0226 0.02265,0.0192 c 0.02128,0.018 0.02723,0.0261 0.01918,0.0261 -0.0019,0 -0.0121,-0.0102 -0.02265,-0.0226 z m 2.894843,-0.1724 c 0,-0.002 0.0079,-0.01 0.01761,-0.0176 0.01596,-0.0125 0.01632,-0.0122 0.0038,0.004 -0.01315,0.0168 -0.02141,0.0221 -0.02141,0.0138 z m 0.543547,-0.0906 c 0,-0.002 0.0079,-0.01 0.01762,-0.0176 0.01596,-0.0125 0.01632,-0.0122 0.0038,0.004 -0.01315,0.0168 -0.02142,0.0221 -0.02142,0.0138 z m -3.753708,-1.4012 c 4.83e-4,-0.0117 0.0029,-0.0141 0.0061,-0.006 0.0029,0.007 0.0025,0.0159 -7.94e-4,0.0193 -0.0033,0.003 -0.0057,-0.003 -0.0053,-0.0132 z m 0.57295,-1.33667 c 0,-0.002 0.0079,-0.01 0.01762,-0.0176 0.01596,-0.0125 0.01632,-0.0122 0.0038,0.004 -0.01315,0.0168 -0.02142,0.0221 -0.02142,0.0138 z m 0.09562,-0.0969 c 0.01002,-0.0111 0.02048,-0.0201 0.02325,-0.0201 0.0028,0 -0.0032,0.009 -0.01319,0.0201 -0.01002,0.0111 -0.02048,0.0201 -0.02325,0.0201 -0.0028,0 0.0032,-0.009 0.01319,-0.0201 z m 0.09562,-0.0843 c 0,-0.002 0.0079,-0.01 0.01761,-0.0176 0.01597,-0.0125 0.01632,-0.0122 0.0038,0.004 -0.01315,0.0168 -0.02142,0.0221 -0.02142,0.0138 z m 2.923127,-0.18996 -0.01918,-0.0226 0.02265,0.0192 c 0.02128,0.018 0.02723,0.0261 0.01918,0.0261 -0.0019,0 -0.0121,-0.0102 -0.02265,-0.0226 z"
         id="path973" />
      <path
         style="fill:#ffffff;fill-opacity:1;stroke-width:0.0100657"
         d="m -62.854616,292.90591 c -0.01252,-0.016 -0.01216,-0.0163 0.0038,-0.004 0.01677,0.0131 0.0221,0.0214 0.01381,0.0214 -0.0021,0 -0.01002,-0.008 -0.01761,-0.0176 z m -2.9077,-1.98925 c 0,-0.002 0.0079,-0.01 0.01761,-0.0176 0.01597,-0.0125 0.01632,-0.0122 0.0038,0.004 -0.01315,0.0168 -0.02142,0.0221 -0.02142,0.0138 z m -0.150986,-0.31204 c 0,-0.002 0.0079,-0.01 0.01762,-0.0176 0.01596,-0.0125 0.01632,-0.0122 0.0038,0.004 -0.01315,0.0168 -0.02142,0.0221 -0.02142,0.0138 z m 3.018424,-0.0541 c -0.01252,-0.016 -0.01217,-0.0163 0.0038,-0.004 0.01677,0.0131 0.0221,0.0214 0.01382,0.0214 -0.0021,0 -0.01002,-0.008 -0.01761,-0.0176 z"
         id="path971" />
      <path
         style="fill:#ffffff;fill-opacity:1;stroke-width:0.0100657"
         d="m -64.445598,294.43657 c 0.0073,-0.003 0.01595,-0.003 0.01929,8e-4 0.0033,0.003 -0.0026,0.006 -0.01321,0.005 -0.01173,-4.8e-4 -0.01411,-0.003 -0.0061,-0.006 z m -0.536927,-0.71282 c -10e-7,-0.34324 0.0013,-0.48511 0.0028,-0.31528 0.0015,0.16984 0.0015,0.45067 2e-6,0.62407 -0.0015,0.17341 -0.0028,0.0344 -0.0028,-0.30879 z m 2.290244,-0.43159 c 0,-0.002 0.0079,-0.01 0.01761,-0.0176 0.01597,-0.0125 0.01632,-0.0122 0.0038,0.004 -0.01315,0.0168 -0.02142,0.0221 -0.02142,0.0138 z m -2.29021,-1.35507 c 0,-0.3903 0.0012,-0.54996 0.0028,-0.35481 0.0015,0.19514 0.0015,0.51448 0,0.70963 -0.0015,0.19514 -0.0028,0.0355 -0.0028,-0.35482 z"
         id="path969" />
      <path
         style="fill:#ffffff;fill-opacity:1;stroke-width:0.0100657"
         d="m -64.410806,294.43647 c 0.0098,-0.003 0.02338,-0.002 0.0302,3.8e-4 0.0068,0.003 -0.0012,0.005 -0.01781,0.005 -0.01661,-2.1e-4 -0.02218,-0.002 -0.01239,-0.005 z m 0.09059,0 c 0.0098,-0.003 0.02338,-0.002 0.0302,3.8e-4 0.0068,0.003 -0.0012,0.005 -0.01781,0.005 -0.01661,-2.1e-4 -0.02218,-0.002 -0.01239,-0.005 z m -1.235895,-1.73439 c 0,-0.77229 0.0012,-1.08822 0.0027,-0.70208 0.0015,0.38615 0.0015,1.01802 0,1.40417 -0.0015,0.38614 -0.0027,0.0702 -0.0027,-0.70209 z m 1.1755,0.2346 c 0.0098,-0.003 0.02338,-0.002 0.0302,3.8e-4 0.0068,0.003 -0.0012,0.005 -0.01781,0.005 -0.01661,-2.1e-4 -0.02218,-0.002 -0.01239,-0.005 z"
         id="path967" />
      <path
         style="fill:#ffffff;fill-opacity:1;stroke-width:0.0100657"
         d="m -64.365702,294.43678 c 0.0069,-0.003 0.01824,-0.003 0.02517,0 0.0069,0.003 0.0013,0.005 -0.01258,0.005 -0.01384,0 -0.0195,-0.002 -0.01258,-0.005 z m 1.683487,-0.6816 c 0,-0.002 0.0079,-0.01 0.01761,-0.0176 0.01597,-0.0125 0.01632,-0.0122 0.0038,0.004 -0.01315,0.0168 -0.02141,0.0221 -0.02141,0.0138 z m 0.06543,-0.0667 c 0.01002,-0.0111 0.02048,-0.0201 0.02325,-0.0201 0.0028,0 -0.0032,0.009 -0.01319,0.0201 -0.01002,0.0111 -0.02048,0.0201 -0.02325,0.0201 -0.0028,0 0.0032,-0.009 0.01319,-0.0201 z m -1.839505,-0.47975 c 0.0069,-0.003 0.01824,-0.003 0.02516,0 0.0069,0.003 0.0013,0.005 -0.01258,0.005 -0.01384,0 -0.0195,-0.002 -0.01258,-0.005 z m 0.0302,-0.27178 c 0.0069,-0.003 0.01824,-0.003 0.02516,0 0.0069,0.003 0.0013,0.005 -0.01258,0.005 -0.01384,0 -0.0195,-0.002 -0.01258,-0.005 z m -1.386549,-1.95994 c 0,-0.002 0.0079,-0.01 0.01762,-0.0176 0.01596,-0.0125 0.01632,-0.0122 0.0038,0.004 -0.01315,0.0168 -0.02142,0.0221 -0.02142,0.0138 z m -0.06039,-0.41269 c 0,-0.002 0.0079,-0.01 0.01762,-0.0176 0.01596,-0.0125 0.01632,-0.0122 0.0038,0.004 -0.01315,0.0168 -0.02142,0.0221 -0.02142,0.0138 z m 0.05033,-0.0503 c 0,-0.002 0.0079,-0.01 0.01762,-0.0176 0.01596,-0.0125 0.01632,-0.0122 0.0038,0.004 -0.01315,0.0168 -0.02142,0.0221 -0.02142,0.0138 z m 3.058686,-0.26546 c -0.01252,-0.016 -0.01217,-0.0163 0.0038,-0.004 0.01677,0.0131 0.0221,0.0214 0.01382,0.0214 -0.0021,0 -0.01002,-0.008 -0.01761,-0.0176 z"
         id="path965" />
      <path
         style="fill:#ffffff;fill-opacity:1;stroke-width:0.0100657"
         d="m -64.731541,294.24717 c 1e-5,-0.0886 0.0016,-0.12347 0.0034,-0.0775 0.0019,0.0459 0.0019,0.1184 -2e-5,0.16105 -0.0019,0.0426 -0.0034,0.005 -0.0034,-0.0835 z m -1.107224,-0.36992 -0.01918,-0.0226 0.02265,0.0192 c 0.02128,0.018 0.02723,0.0261 0.01917,0.0261 -0.0019,0 -0.0121,-0.0102 -0.02265,-0.0226 z m 3.398127,-0.39384 c 0,-0.002 0.0079,-0.01 0.01761,-0.0176 0.01596,-0.0125 0.01632,-0.0122 0.0038,0.004 -0.01315,0.0168 -0.02141,0.0221 -0.02141,0.0138 z m -1.970359,-0.27492 c 0.0097,-0.003 0.02554,-0.003 0.03523,0 0.0097,0.003 0.0018,0.005 -0.01762,0.005 -0.01938,0 -0.0273,-0.002 -0.01761,-0.005 z m 1.426811,-0.007 c 0,-0.002 0.0079,-0.01 0.01761,-0.0176 0.01597,-0.0125 0.01632,-0.0122 0.0038,0.004 -0.01315,0.0168 -0.02142,0.0221 -0.02142,0.0138 z m -1.471478,-0.26479 c 0.0073,-0.003 0.01595,-0.003 0.01929,8e-4 0.0033,0.003 -0.0026,0.006 -0.01321,0.005 -0.01173,-4.8e-4 -0.01411,-0.003 -0.0061,-0.006 z m 0.952833,-0.92923 c 0,-0.39583 0.0012,-0.55776 0.0028,-0.35985 0.0015,0.19792 0.0015,0.52178 0,0.7197 -0.0015,0.19792 -0.0028,0.036 -0.0028,-0.35985 z m 0.869661,-1.64826 c -0.01252,-0.016 -0.01217,-0.0163 0.0038,-0.004 0.01677,0.0132 0.0221,0.0214 0.01382,0.0214 -0.0021,0 -0.01002,-0.008 -0.01761,-0.0176 z"
         id="path963" />
      <path
         style="fill:#ffffff;fill-opacity:1;stroke-width:0.0100657"
         d="m -64.365702,294.12474 c 0.0069,-0.003 0.01824,-0.003 0.02517,0 0.0069,0.003 0.0013,0.005 -0.01258,0.005 -0.01384,0 -0.0195,-0.002 -0.01258,-0.005 z m -1.452705,-0.45635 c 0,-0.12456 0.0014,-0.17552 0.0032,-0.11324 0.0018,0.0623 0.0018,0.1642 0,0.22648 -0.0018,0.0623 -0.0032,0.0113 -0.0032,-0.11324 z m 3.055667,0.15725 c 0,-0.002 0.0079,-0.01 0.01761,-0.0176 0.01596,-0.0125 0.01632,-0.0122 0.0038,0.004 -0.01315,0.0168 -0.02141,0.0221 -0.02141,0.0138 z m -3.151845,-0.0239 c -0.01252,-0.016 -0.01216,-0.0163 0.0038,-0.004 0.0097,0.008 0.01762,0.0155 0.01762,0.0176 0,0.008 -0.0083,0.003 -0.02142,-0.0138 z m -0.05033,-0.0503 c -0.01252,-0.016 -0.01216,-0.0163 0.0038,-0.004 0.0097,0.008 0.01761,0.0155 0.01761,0.0176 0,0.008 -0.0083,0.003 -0.02141,-0.0138 z m -0.08523,-0.0956 -0.01918,-0.0226 0.02265,0.0192 c 0.02128,0.018 0.02723,0.0261 0.01918,0.0261 -0.0019,0 -0.0121,-0.0102 -0.02265,-0.0226 z m 3.181715,-0.15854 c 0.01002,-0.0111 0.02048,-0.0201 0.02325,-0.0201 0.0028,0 -0.0032,0.009 -0.01319,0.0201 -0.01002,0.0111 -0.02048,0.0201 -0.02325,0.0201 -0.0028,0 0.0032,-0.009 0.01319,-0.0201 z m 0.04529,-0.0441 c 0,-0.002 0.0079,-0.01 0.01761,-0.0176 0.01597,-0.0125 0.01632,-0.0122 0.0038,0.004 -0.01315,0.0168 -0.02142,0.0221 -0.02142,0.0138 z m -0.473849,-0.27552 -0.0244,-0.0277 0.02768,0.0244 c 0.01523,0.0134 0.02768,0.0259 0.02768,0.0277 0,0.008 -0.0082,10e-4 -0.03096,-0.0244 z m -2.945744,-0.92856 c 0,-0.0249 0.002,-0.0351 0.0044,-0.0226 0.0024,0.0125 0.0024,0.0328 0,0.0453 -0.0024,0.0125 -0.0044,0.002 -0.0044,-0.0226 z m 4.016348,-0.25668 c 8.1e-5,-0.0277 0.002,-0.0378 0.0043,-0.0225 0.0023,0.0153 0.0023,0.0379 -1.37e-4,0.0503 -0.0024,0.0124 -0.0043,-1.4e-4 -0.0042,-0.0278 z m -3.389984,-1.24311 c 0.03287,-0.0332 0.06203,-0.0604 0.0648,-0.0604 0.0028,0 -0.02186,0.0272 -0.05473,0.0604 -0.03287,0.0332 -0.06203,0.0604 -0.0648,0.0604 -0.0028,0 0.02186,-0.0272 0.05473,-0.0604 z m -0.327135,-0.10446 c 0,-0.002 0.0079,-0.01 0.01762,-0.0176 0.01596,-0.0125 0.01632,-0.0122 0.0038,0.004 -0.01315,0.0168 -0.02142,0.0221 -0.02142,0.0138 z m 3.372007,-0.22268 c -0.02445,-0.0249 -0.04219,-0.0453 -0.03942,-0.0453 0.0028,0 0.02504,0.0204 0.04949,0.0453 0.02445,0.0249 0.04219,0.0453 0.03942,0.0453 -0.0028,0 -0.02504,-0.0204 -0.04949,-0.0453 z m -1.552004,-0.31388 c 0.0073,-0.003 0.01595,-0.003 0.01929,8e-4 0.0033,0.003 -0.0026,0.006 -0.01321,0.005 -0.01173,-4.9e-4 -0.01411,-0.003 -0.0061,-0.006 z"
         id="path961" />
      <path
         style="fill:#ffffff;fill-opacity:1;stroke-width:0.0100657"
         d="m -64.58463,294.42297 c -0.04152,-0.005 -0.09021,-0.0117 -0.108207,-0.0149 l -0.03271,-0.006 v -0.15575 -0.15576 l 0.02265,0.005 c 0.134324,0.0298 0.428123,0.0353 0.616523,0.0116 0.382315,-0.0482 0.748033,-0.2105 1.091954,-0.48448 0.04162,-0.0331 0.292079,-0.28733 0.292079,-0.29641 0,-0.005 0.01583,-0.0274 0.03519,-0.0506 0.08886,-0.10635 0.232492,-0.35534 0.289362,-0.5016 0.237921,-0.61189 0.194255,-1.25151 -0.121059,-1.77329 -0.08438,-0.13963 -0.210657,-0.29478 -0.319249,-0.39223 -0.03322,-0.0298 -0.06266,-0.0568 -0.06543,-0.06 -0.01344,-0.0154 -0.09764,-0.076 -0.200081,-0.14398 -0.18062,-0.11983 -0.436188,-0.21847 -0.675634,-0.26078 -0.470032,-0.083 -0.951983,0.002 -1.38418,0.24541 -0.0581,0.0327 -0.215852,0.13756 -0.252574,0.16795 -0.0172,0.0142 -0.04211,0.0346 -0.05536,0.0451 -0.117762,0.0941 -0.304548,0.2928 -0.384118,0.40854 -0.118573,0.17246 -0.193479,0.31067 -0.26269,0.48466 -0.02566,0.0645 -0.0467,0.12338 -0.04677,0.13086 -7e-5,0.007 -0.011,0.0476 -0.02428,0.0892 -0.03944,0.12347 -0.06788,0.34436 -0.06802,0.52833 -3.2e-4,0.42137 0.126125,0.81281 0.365688,1.13205 l 0.04884,0.0651 v 0.22102 0.22103 l -0.02733,-0.0244 c -0.04455,-0.0398 -0.112306,-0.11053 -0.17382,-0.18151 -0.06042,-0.0697 -0.171277,-0.21599 -0.171277,-0.226 0,-0.003 -0.01423,-0.0265 -0.03161,-0.0518 -0.03913,-0.0569 -0.140125,-0.2589 -0.170051,-0.34017 -0.04874,-0.13237 -0.102006,-0.32884 -0.122801,-0.45296 -0.03183,-0.18999 -0.03156,-0.53626 5.74e-4,-0.72842 0.03452,-0.20646 0.09156,-0.40293 0.16549,-0.57005 0.04918,-0.11118 0.107081,-0.22701 0.12853,-0.25713 0.01082,-0.0152 0.02312,-0.036 0.02733,-0.0463 0.0066,-0.0161 0.06026,-0.0985 0.120292,-0.18475 0.04303,-0.0618 0.174646,-0.21377 0.253734,-0.29293 0.364056,-0.36437 0.826913,-0.60435 1.329091,-0.6891 0.125694,-0.0212 0.177666,-0.0245 0.383023,-0.0245 0.206087,0 0.256883,0.003 0.383023,0.0247 0.156303,0.0266 0.333693,0.074 0.420968,0.11247 0.02975,0.0131 0.05815,0.0239 0.06311,0.0239 0.0095,0 0.180064,0.0837 0.240128,0.11778 0.03236,0.0184 0.140806,0.0888 0.201314,0.13075 0.105566,0.0732 0.307046,0.26588 0.410001,0.39215 0.122468,0.1502 0.253666,0.37974 0.328571,0.57485 0.04866,0.12676 0.101555,0.32565 0.123775,0.46544 0.02772,0.17437 0.02523,0.52167 -0.005,0.70326 -0.05004,0.30017 -0.166843,0.62798 -0.297543,0.83502 -0.01445,0.0229 -0.02628,0.0437 -0.02628,0.0462 0,0.008 -0.131528,0.19968 -0.159904,0.23353 -0.01447,0.0173 -0.0399,0.049 -0.05651,0.0705 -0.03712,0.048 -0.279202,0.28921 -0.333127,0.33188 -0.0633,0.0501 -0.198794,0.14885 -0.225797,0.16457 -0.01369,0.008 -0.05344,0.0319 -0.08833,0.0533 -0.250016,0.15286 -0.579041,0.27086 -0.877694,0.31477 -0.133766,0.0197 -0.462163,0.0281 -0.573744,0.0147 z m -0.478121,-0.0991 c -0.02768,-0.01 -0.07977,-0.0286 -0.115755,-0.0414 -0.08779,-0.0311 -0.264964,-0.11444 -0.324365,-0.15256 l -0.04807,-0.0308 v -1.40692 c 0,-1.15219 0.0024,-1.40891 0.01327,-1.41793 0.01522,-0.0126 0.145473,-0.0331 0.366695,-0.0575 0.122957,-0.0136 0.156495,-0.0145 0.168601,-0.004 0.01318,0.0109 0.01511,0.10416 0.01511,0.72921 0,0.80908 -0.0031,0.77477 0.07672,0.85687 0.09227,0.0949 0.250518,0.13792 0.512124,0.13907 0.166689,7.4e-4 0.280845,-0.0148 0.475945,-0.0649 0.138404,-0.0355 0.353059,-0.10368 0.395326,-0.12554 l 0.02961,-0.0153 v -0.72324 c 0,-0.59169 0.0024,-0.72527 0.01347,-0.73441 0.01356,-0.0113 0.196708,-0.0395 0.406986,-0.0628 0.08969,-0.01 0.116041,-0.01 0.125821,-2.1e-4 0.0095,0.009 0.01355,0.19493 0.0174,0.79447 0.0049,0.76845 0.0054,0.7829 0.0262,0.82741 0.01164,0.0249 0.03203,0.0566 0.04529,0.0705 0.06644,0.0693 0.06619,0.0587 0.0034,0.14704 -0.06244,0.0878 -0.149695,0.18208 -0.209114,0.22607 -0.03805,0.0282 -0.0391,0.0284 -0.07046,0.0114 -0.108728,-0.0589 -0.209401,-0.15822 -0.258931,-0.2554 -0.01602,-0.0314 -0.0327,-0.0594 -0.03706,-0.062 -0.0044,-0.003 -0.03957,0.009 -0.07824,0.0251 -0.252553,0.10801 -0.481525,0.17429 -0.689069,0.19945 -0.23658,0.0287 -0.528032,-0.003 -0.70881,-0.076 -0.03296,-0.0134 -0.06367,-0.0243 -0.06825,-0.0243 -0.0046,0 -0.0083,0.28083 -0.0083,0.62407 0,0.49274 -0.0026,0.62399 -0.01258,0.62371 -0.0069,-2e-4 -0.03523,-0.009 -0.06291,-0.0185 z"
         id="path959" />
    </g>
    <path
       d="m -53.608925,280.9165 c -0.43476,0.009 -0.854051,-0.16139 -1.15912,-0.47128 -0.434099,-0.43461 -0.42305,-0.97171 -0.42305,-1.7133 0,-0.7416 -0.01157,-1.2792 0.42305,-1.71431 0.305234,-0.30964 0.724415,-0.48008 1.15912,-0.47129 0.803897,0 1.430434,0.45873 1.581668,1.35658 h -0.854144 c -0.08441,-0.34416 -0.301456,-0.60895 -0.72401,-0.60895 -0.202618,-0.008 -0.398594,0.073 -0.536599,0.22157 -0.163287,0.18289 -0.212027,0.38688 -0.212027,1.21439 0,0.82751 0.05026,1.03049 0.212027,1.21288 0.137784,0.14898 0.333815,0.2303 0.536599,0.22257 0.422554,0 0.6396,-0.26528 0.72401,-0.60895 h 0.854144 c -0.151234,0.90087 -0.784805,1.36009 -1.581668,1.36009 z"
       fill="#f47c00"
       id="path975"
       sodipodi:nodetypes="ccsccccccsccccc"
       style="fill:#ffffff;stroke-width:0.0502434" />
    <text
       xml:space="preserve"
       style="font-style:normal;font-weight:normal;font-size:3.69214px;line-height:1.25;font-family:sans-serif;letter-spacing:0px;word-spacing:0px;fill:#f38334;fill-opacity:1;stroke:none;stroke-width:0.105648"
       x="-50.974968"
       y="390.34311"
       id="text1011"
       transform="scale(1.3376784,0.74756387)"><tspan
         sodipodi:role="line"
         id="tspan1009"
         x="-50.974968"
         y="390.34311"
         style="font-style:normal;font-variant:normal;font-weight:normal;font-stretch:normal;font-size:3.69214px;font-family:Bahnschrift;-inkscape-font-specification:Bahnschrift;fill:#f38334;fill-opacity:1;stroke-width:0.105648">BACKEND</tspan></text>
    <rect
       style="fill:#f38334;fill-opacity:1;stroke:#f38334;stroke-width:0.315397;stroke-linecap:round;stroke-linejoin:round;stroke-opacity:1"
       id="rect1031"
       width="21.239172"
       height="3.1284671"
       x="-68.084122"
       y="292.92801" />
    <text
       xml:space="preserve"
       style="font-style:normal;font-weight:normal;font-size:3.69214px;line-height:1.25;font-family:sans-serif;letter-spacing:0px;word-spacing:0px;fill:#ffffff;fill-opacity:1;stroke:none;stroke-width:0.0751638"
       x="-49.610615"
       y="395.29166"
       id="text1011-6"
       transform="scale(1.3376782,0.74756395)"><tspan
         sodipodi:role="line"
         id="tspan1009-7"
         x="-49.610615"
         y="395.29166"
         style="font-style:normal;font-variant:normal;font-weight:normal;font-stretch:normal;font-size:3.69214px;font-family:Bahnschrift;-inkscape-font-specification:Bahnschrift;fill:#ffffff;fill-opacity:1;stroke-width:0.0751638">CHARTS</tspan></text>
  </g>
</svg>
