<svg xmlns="http://www.w3.org/2000/svg" width="256" height="256" role="img" viewBox="0 0 256 256"><title>Autolink logo</title><desc>A document with highlighted text, a search loupe, and an automatically generated chain link.</desc><rect width="256" height="256" fill="#f4f7fb" rx="48"/><path fill="#fff" d="M66 33h78l45 45v68c0 39.2-31.8 71-71 71H66z"/><path fill="none" stroke="#2f3a45" stroke-linejoin="round" stroke-width="10" d="M66 33h78l45 45v68c0 39.2-31.8 71-71 71H66z"/><path fill="#e8eef5" d="M144 33v45h45"/><path fill="none" stroke="#2f3a45" stroke-linecap="round" stroke-linejoin="round" stroke-width="10" d="M144 33v45h45"/><rect width="67" height="14" x="87" y="94" fill="#aab5c2" rx="7"/><rect width="66" height="14" x="87" y="124" fill="#f6c84c" rx="7"/><rect width="48" height="14" x="87" y="154" fill="#aab5c2" rx="7"/><circle cx="184" cy="70" r="25" fill="#fff" stroke="#1473e6" stroke-width="10"/><path fill="none" stroke="#1473e6" stroke-linecap="round" stroke-width="11" d="m202 88 26 26"/><path fill="none" stroke="#f6c84c" stroke-linecap="round" stroke-width="7" d="M215 39v9m0 14v9m-16-16h9m14 0h9"/><path fill="none" stroke="#1473e6" stroke-linecap="round" stroke-linejoin="round" stroke-width="10" d="M179 188h-10a18 18 0 0 1 0-36h10m22 0h10a18 18 0 0 1 0 36h-10m-27-18h32"/></svg>