<?xml version="1.0" encoding="utf-8"?><svg version="1.1" id="Ebene_1" xmlns="http://www.w3.org/2000/svg" xmlns:xlink="http://www.w3.org/1999/xlink" x="0px" y="0px" viewBox="0 0 1471 283.9" style="enable-background:new 0 0 1471 283.9;" xml:space="preserve"><style type="text/css">	.st0{fill:#E30613;}	.st1{fill:#3C3C3B;}	.st2{fill:#A51008;}</style><g><g><rect x="183.6" y="18.6" class="st0" width="35.8" height="247.5"/></g><g><path class="st1" d="M384.6,166c0-49.4,31.6-82.3,78.5-82.3c22.2,0,45.3,12,57.6,30.1V28H546v217.1h-25.3v-26.9			c-12.3,18-35.4,30.1-57.6,30.1C416.3,248.3,384.6,215.4,384.6,166z M520.7,166c0-36.1-22.2-60.1-55.1-60.1			c-33.2,0-55.7,24.1-55.7,60.1c0,36.1,22.5,60.1,55.7,60.1C498.6,226.1,520.7,202.1,520.7,166z"/><path class="st1" d="M576.1,86.9h25.3v21.8c11.4-14.9,29.4-25,45.3-25c4.7,0,9.8,1.3,13,3.2v19h-10.8c-28.5,0-47.5,18.7-47.5,46.8			v92.4h-25.3V86.9z"/><path class="st1" d="M656.8,166c0-49.4,32-82.3,79.4-82.3c47.5,0,79.4,34.2,79.4,84.8l-2.5,2.5H682.4			c1.3,32.9,22.8,55.1,53.8,55.1c23.4,0,43.7-13.9,50.6-34.8h25.3c-10.1,34.2-40.5,57-76,57C688.7,248.3,656.8,215.4,656.8,166z			 M788.7,148.9c-5.7-25.6-26.9-43-52.5-43s-46.8,17.4-52.5,43H788.7z"/><path class="st1" d="M838.1,28h25.3v34.8h-25.3V28z M838.1,86.9h25.3v158.2h-25.3V86.9z"/><path class="st1" d="M922,218.2v26.9h-25.3V28H922v85.8c12.3-18,35.4-30.1,57.6-30.1c46.8,0,78.5,32.9,78.5,82.3			c0,49.4-31.6,82.3-78.5,82.3C957.4,248.3,934.3,236.2,922,218.2z M1032.7,166c0-36.1-22.5-60.1-55.7-60.1			c-32.9,0-55.1,24.1-55.1,60.1c0,36.1,22.1,60.1,55.1,60.1C1010.3,226.1,1032.7,202.1,1032.7,166z"/><path class="st1" d="M1072.9,166c0-49.4,32-82.3,79.4-82.3c47.5,0,79.4,34.2,79.4,84.8l-2.5,2.5h-130.7			c1.3,32.9,22.8,55.1,53.8,55.1c23.4,0,43.7-13.9,50.6-34.8h25.3c-10.1,34.2-40.5,57-76,57C1104.9,248.3,1072.9,215.4,1072.9,166z			 M1204.9,148.9c-5.7-25.6-26.9-43-52.5-43c-25.6,0-46.8,17.4-52.5,43H1204.9z"/><path class="st1" d="M1254.2,28h25.3v34.8h-25.3V28z M1254.2,86.9h25.3v158.2h-25.3V86.9z"/><path class="st1" d="M1309.6,86.9h25.3v20.3c11.1-13.9,31-23.4,49.4-23.4c39.6,0,65.8,25.3,65.8,63.3v98.1h-25.3v-93.7			c0-27.2-18-45.6-44.9-45.6s-44.9,18.4-44.9,45.6v93.7h-25.3V86.9z"/></g><g><polygon class="st0" points="26.4,18.6 26.4,72.8 103.2,142.4 26.4,212 26.4,266.1 162.6,142.4 		"/></g><g><polygon class="st2" points="26.4,93 26.4,191.8 80.8,142.4 		"/></g></g></svg>