<svg xmlns="http://www.w3.org/2000/svg" viewBox="0 0 1200 1200"><defs><style>.a{fill:#323237;}.b{fill:#f01937;}</style></defs><path class="a" d="M453.6,624c-2.62-19.94-17.32-31.49-37-31.49S382,602.71,378.29,624Zm26.51,21.52H378C381.7,666.22,396.92,677,417.39,677c15,0,29.13-6.82,36.21-18.63l21.26,10.76c-11.28,21.25-34.38,32.8-58.78,32.8-37,0-66.13-27-66.13-67.71s29.65-66.91,66.13-66.91,64.29,26.24,64.29,66.65a86.62,86.62,0,0,1-.26,11.55"/><rect class="a" x="499.53" y="570.7" width="26.77" height="128.06"/><path class="b" d="M531.28,524c0,10-8.14,17.32-18.37,17.32-10,0-18.37-7.35-18.37-17.32s8.4-17.32,18.37-17.32,18.37,7.61,18.37,17.32"/><path class="a" d="M668,634.2c0-24.14-17.58-41.72-39.89-41.72-19.68,0-40.94,16-40.94,41.72s19.42,42.52,40.94,42.52c22.31,0,39.89-18.64,39.89-42.52m27,.27c0,40.67-29.13,67.44-63.51,67.44-17.32,0-35.95-7.87-44.35-22.57V698.5H560.41V501.16h26.76v88.43c8.4-14.43,26.25-22.3,44.35-22.3,34.9,0,63.51,26.5,63.51,67.18"/><path class="a" d="M817.32,624c-2.63-19.94-17.32-31.49-37-31.49S745.68,602.71,742,624Zm26.24,21.52H741.48c3.67,20.73,18.89,31.49,39.36,31.49,15,0,29.13-6.82,36.21-18.63l21.26,10.76c-11.29,21.25-34.38,32.8-58.78,32.8-37,0-66.13-27-66.13-67.71s29.65-66.91,66.13-66.91,64.29,26.24,64.29,66.65a86.62,86.62,0,0,1-.26,11.55"/><path class="a" d="M1061.89,683.54c0-10.5,8.66-18.11,18.89-18.11,10.5,0,19.16,7.61,19.16,18.11s-8.66,18.11-19.16,18.11c-10,0-18.89-7.61-18.89-18.11"/><path class="a" d="M858.25,524c0-10,8.4-17.32,18.37-17.32C886.86,506.67,895,514,895,524s-8.13,17.32-18.37,17.32C866.91,541.31,858.25,534,858.25,524Zm5,174.77V570.7H890V698.76Z"/><path class="a" d="M1044,625.54v73.22h-26.76V627.12c0-20.73-12.6-33.59-29.13-33.59-16.8,0-37,9.71-37,36.21V698.5H924.38V570.7h26.77v19.68c7.35-16,28.08-23.09,41.72-23.09C1025.15,567.55,1044.31,589.07,1044,625.54Z"/><path class="a" d="M292.48,599.57V570.7H265.71V698.76h26.77V652.57c0-34.64,11-59.57,34.38-59.57a43.4,43.4,0,0,1,18.89,4.47L350.47,572c-4.2-2.36-13.12-4.72-22-4.72C311.9,567.29,299,577,292.48,599.57Z"/><path class="a" d="M247.87,669.63c-9.71-4.46-16.27-15-16.8-29.39V497.75H204.31v88.69h0c-8.4-14.43-26.25-22-44.35-22-34.64-.26-63.51,26-63.51,66.92,0,40.67,28.87,67.44,63.51,67.44,17.32,0,39.89-8.14,49.6-28.34a44.11,44.11,0,0,0,21.51,23.09,54.41,54.41,0,0,0,16.8,4.72Zm-84.76,3.94c-22.05,0-39.89-18.63-39.89-42.51,0-24.15,17.84-41.73,39.89-41.73,19.68,0,40.93,16,40.93,41.73S184.63,673.57,163.11,673.57Z"/></svg>