<svg xmlns="http://www.w3.org/2000/svg" viewBox="0 0 1200 1200"><defs><style>.a{fill:#323237}</style></defs><path d="M453.6 624c-2.62-19.94-17.32-31.49-37-31.49S382 602.71 378.29 624Zm26.51 21.52H378c3.7 20.7 18.92 31.48 39.39 31.48 15 0 29.13-6.82 36.21-18.63l21.26 10.76c-11.28 21.25-34.38 32.8-58.78 32.8-37 0-66.13-27-66.13-67.71s29.65-66.91 66.13-66.91 64.29 26.24 64.29 66.65a86.62 86.62 0 0 1-.26 11.55M499.53 570.7h26.77v128.06h-26.77z" class="a"/><path d="M531.28 524c0 10-8.14 17.32-18.37 17.32-10 0-18.37-7.35-18.37-17.32s8.4-17.32 18.37-17.32 18.37 7.61 18.37 17.32" style="fill:#f01937"/><path d="M668 634.2c0-24.14-17.58-41.72-39.89-41.72-19.68 0-40.94 16-40.94 41.72s19.42 42.52 40.94 42.52c22.31 0 39.89-18.64 39.89-42.52m27 .27c0 40.67-29.13 67.44-63.51 67.44-17.32 0-35.95-7.87-44.35-22.57v19.16h-26.73V501.16h26.76v88.43c8.4-14.43 26.25-22.3 44.35-22.3 34.9 0 63.51 26.5 63.51 67.18M817.32 624c-2.63-19.94-17.32-31.49-37-31.49S745.68 602.71 742 624Zm26.24 21.52H741.48c3.67 20.73 18.89 31.49 39.36 31.49 15 0 29.13-6.82 36.21-18.63l21.26 10.76c-11.29 21.25-34.38 32.8-58.78 32.8-37 0-66.13-27-66.13-67.71s29.65-66.91 66.13-66.91 64.29 26.24 64.29 66.65a86.62 86.62 0 0 1-.26 11.55M1061.89 683.54c0-10.5 8.66-18.11 18.89-18.11 10.5 0 19.16 7.61 19.16 18.11s-8.66 18.11-19.16 18.11c-10 0-18.89-7.61-18.89-18.11M858.25 524c0-10 8.4-17.32 18.37-17.32C886.86 506.67 895 514 895 524s-8.13 17.32-18.37 17.32c-9.72-.01-18.38-7.32-18.38-17.32Zm5 174.77V570.7H890v128.06ZM1044 625.54v73.22h-26.76v-71.64c0-20.73-12.6-33.59-29.13-33.59-16.8 0-37 9.71-37 36.21v68.76h-26.73V570.7h26.77v19.68c7.35-16 28.08-23.09 41.72-23.09 32.28.26 51.44 21.78 51.13 58.25ZM292.48 599.57V570.7h-26.77v128.06h26.77v-46.19c0-34.64 11-59.57 34.38-59.57a43.4 43.4 0 0 1 18.89 4.47l4.72-25.47c-4.2-2.36-13.12-4.72-22-4.72-16.57.01-29.47 9.72-35.99 32.29ZM247.87 669.63c-9.71-4.46-16.27-15-16.8-29.39V497.75h-26.76v88.69c-8.4-14.43-26.25-22-44.35-22-34.64-.26-63.51 26-63.51 66.92 0 40.67 28.87 67.44 63.51 67.44 17.32 0 39.89-8.14 49.6-28.34a44.11 44.11 0 0 0 21.51 23.09 54.41 54.41 0 0 0 16.8 4.72Zm-84.76 3.94c-22.05 0-39.89-18.63-39.89-42.51 0-24.15 17.84-41.73 39.89-41.73 19.68 0 40.93 16 40.93 41.73s-19.41 42.51-40.93 42.51Z" class="a"/></svg>