<svg xmlns="http://www.w3.org/2000/svg" xmlns:xlink="http://www.w3.org/1999/xlink" width="100%" height="100%" viewBox="0 0 994 994" fill-rule="evenodd" stroke-linecap="round" stroke-linejoin="round" stroke-miterlimit="10"><g transform="matrix(3.77255 0 0 3.77255 394.577 99.1326)"><clipPath id="A"><path d="M-104.591-26.277h263.453v263.453h-263.453z"/></clipPath><g clip-path="url(#A)"><g fill-rule="nonzero"><path d="M-111.743-31.378h276.664v272.937h-276.664z" fill="#c30c2b"/><path d="M-64.554 69.802c2.664 0 4.947.383 6.85 1.148s3.425 1.721 4.567 3.06 2.093 2.678 2.664 4.399.761 3.252.761 5.164c0 1.721-.19 3.443-.761 4.973-.571 1.721-1.332 3.06-2.664 4.399-1.142 1.339-2.664 2.295-4.567 3.06s-4.186 1.148-6.85 1.148h-9.894v15.301h-9.324V69.802h19.218zm-2.474 20.274c1.142 0 2.093 0 3.044-.191s1.903-.383 2.664-.956c.761-.383 1.332-1.148 1.903-1.913a7.43 7.43 0 0 0 .761-3.252c0-1.339-.19-2.486-.761-3.252a4.6 4.6 0 0 0-1.903-1.913c-.761-.383-1.713-.765-2.664-.956s-2.093-.191-3.044-.191h-7.231v12.815l7.231-.191zm30.635-20.274v34.81h20.74v7.842h-30.064V69.802h9.324zm56.513 0v7.842H-2.333v9.181h20.55v7.268h-20.55v10.52H20.69v7.842h-32.347V69.802H20.12zm15.413 0l17.696 28.69h.19v-28.69h8.753v42.844h-9.324l-17.696-28.69v28.69h-8.753V69.802h9.133zm30.254 8.033v-7.842h34.821v7.842H88.049v34.81h-9.514v-34.81H65.786zm55.371-8.033l15.983 42.844h-9.704l-3.235-9.563h-15.983l-3.425 9.563H95.47l16.174-42.844h9.514zm.571 26.395L116.4 80.513h-.19l-5.518 15.684h11.036z" fill="#fff"/></g><g transform="matrix(1.90278 0 0 1.91266 -111.743 -31.3778)" fill-rule="nonzero"><path d="M17.8 89.1c-.1.4-.3.6-.7.6h-.3c-.4 0-.6-.1-.7-.6l-1.3-5.6v-.3c0-.1.1-.2.2-.2h.7c.1 0 .2.1.3.2l1.1 5.3 1.3-4.8c.1-.4.2-.5.6-.5h.2c.4 0 .5.1.6.5l1.3 4.8c.1-.8.3-1.6 1.1-5.3 0-.2.1-.3.3-.3h.7c.1 0 .1.1.1.2s0 .2-.1.3L21.9 89c-.1.4-.2.6-.7.6H21c-.5 0-.6-.2-.7-.6l-1.2-4.7c-.3.8-.5 1.5-1.3 4.8zm9.3.5c-.6 0-1-.2-1-1v-4.7c0-.7.3-1 1-1h2.8c.1 0 .2.1.2.2v.6c0 .1-.1.2-.2.2h-2.4c-.2 0-.3.1-.3.4v1.4h2.4c.1 0 .2.1.2.2v.5c0 .1-.1.2-.2.2h-2.4v1.6c0 .3.1.4.4.4H30c.1 0 .2.1.2.2v.5c0 .1-.1.2-.2.2l-2.9.1zm7.3 0c-.6 0-.9-.3-.9-.9V84c0-.6.3-1 .9-1h1.1c.3 0 .8 0 1 .1 1.1.1 1.5.6 1.5 1.6 0 .8-.3 1.3-1 1.5.8.2 1.2.6 1.2 1.6 0 .8-.2 1.4-.9 1.7-.4.1-1 .2-1.8.2l-1.1-.1zm1.1-3.9c.4 0 .7 0 .9-.1.3-.1.5-.4.5-.9 0-.6-.3-.8-.6-.9-.1-.1-.4-.1-.7-.1h-.7c-.2 0-.3.1-.3.4v1.5c-.1.1.9.1.9.1zm-1 2.6c0 .3.1.4.4.4h.8c.4 0 .8 0 .9-.1.3-.1.5-.4.5-1 0-.5-.2-.7-.5-.9-.2-.1-.5-.1-.9-.1h-1.1v1.7h-.1zm14.3 1.3c-.6 0-1-.2-1-1v-4.7c0-.7.3-1 1-1h2.8c.1 0 .2.1.2.2v.6c0 .1-.1.2-.2.2h-2.4c-.2 0-.3.1-.3.4v1.4h2.4c.1 0 .2.1.2.2v.5c0 .1-.1.2-.2.2h-2.4v1.6c0 .3.1.4.4.4h2.5c.1 0 .2.1.2.2v.5c0 .1-.1.2-.2.2l-3 .1zm7.1 0h-.6c-.1 0-.2-.1-.2-.3v-5.7c0-.5.2-.8.7-.8h.3c.4 0 .6.2.7.6l2.4 4.8v-5c0-.2.1-.3.3-.3h.6c.2 0 .2.1.2.3V89c0 .5-.3.6-.6.6h-.2c-.5 0-.6-.2-.8-.6l-2.5-4.8v5.2c0 .1-.1.2-.3.2zm10.2 0h-.6c-.1 0-.2-.1-.2-.3v-5.4h-1.7c-.1 0-.2-.1-.2-.2v-.5c0-.2.1-.2.2-.2H68c.1 0 .2.1.2.2v.5c0 .1-.1.2-.2.2h-1.7v5.4c0 .2-.1.3-.2.3zm7.6-.5c-.1.4-.3.6-.7.6h-.3c-.4 0-.6-.1-.7-.6l-1.3-5.6v-.3c0-.1.1-.2.2-.2h.7c.1 0 .2.1.3.2l1.1 5.3 1.3-4.8c.1-.4.2-.5.6-.5h.2c.4 0 .5.1.6.5l1.3 4.8c.1-.8.3-1.6 1.1-5.3 0-.2.1-.3.3-.3h.7c.1 0 .1.1.1.2s0 .2-.1.3L77.7 89c-.1.4-.2.6-.7.6h-.2c-.5 0-.6-.2-.7-.6l-1.2-4.7c-.1.8-.3 1.5-1.2 4.8zm9.2.5h-.6c-.1 0-.2-.1-.2-.3v-6.2c0-.1.1-.3.2-.3h.6c.2 0 .2.1.2.2v6.2c0 .3-.1.4-.2.4zm6.3-.8c.6 0 1-.1 1.3-.2.1 0 .2-.1.3-.1s.1 0 .2.1.1.4.1.5-.1.2-.2.2c-.6.2-1.2.3-1.9.3-1.6 0-2.6-.8-2.6-3.3s.7-3.6 2.8-3.6c.6 0 1.2.1 1.6.1.1 0 .2.1.2.2s-.1.4-.1.6c0 .1-.1.1-.2.1s-.2 0-.3-.1c-.3-.1-.6-.1-1.1-.1-1.5 0-1.8.9-1.8 2.5 0 1.9.3 2.8 1.7 2.8zm5.6.8h-.6c-.1 0-.2-.1-.2-.3v-6.2c0-.1.1-.3.2-.3h.6c.2 0 .2.1.2.2v2.5h.6c.2 0 .3-.1.4-.2l1.6-2.4c.1-.1.2-.2.3-.2h.6c.1 0 .2.1.2.2s-.1.2-.1.2l-1.9 2.8c.2.4.6.8 2 3 .1.1.1.2.1.3s-.1.1-.1.2h-.8c-.1 0-.2-.1-.3-.2L96 86.8c-.1-.1-.2-.1-.4-.1H95v2.7c.1.1 0 .2-.2.2zm8 0c-.6 0-.9-.3-.9-.9v-5.5c0-.1.1-.3.2-.3h.6c.2 0 .2.1.2.2v5.1c0 .2.1.4.4.4h2.4c.1 0 .2.1.2.2v.5c0 .1-.1.2-.2.2h-2.9v.1zm10.7-2.7c0 .9-.1 1.5-.3 1.9-.4.6-1.1.9-2.3.9-1 0-1.9-.2-2.2-1-.2-.4-.2-1.1-.2-1.8v-3.8c0-.1.1-.2.2-.2h.6c.1 0 .2.1.2.2v4.1c0 .5 0 .9.2 1.1.2.3.6.4 1.2.4.4 0 1-.1 1.2-.4.1-.2.2-.6.2-1.1v-4.1c0-.1.1-.2.2-.2h.6c.1 0 .2.1.2.2l.2 3.8zm4.4 2.7h-.6c-.1 0-.2-.1-.2-.3v-5.7c0-.5.2-.8.7-.8h.3c.4 0 .6.2.7.6l2.4 4.8v-5c0-.2.1-.3.3-.3h.6c.2 0 .2.1.2.3V89c0 .5-.3.6-.6.6h-.2c-.5 0-.6-.2-.8-.6l-2.5-4.8v5.2c-.1.1-.2.2-.3.2zm12.7-.4l-.2.2c-.4.1-1.2.3-2.2.3-1.7 0-2.7-.8-2.7-3.3s.8-3.6 3-3.6c.6 0 1.3.1 1.7.1.2.1.2.1.2.2s-.1.4-.1.6c0 .1-.1.1-.2.1h-.3c-.3-.1-.7-.1-1.3-.1-1.5 0-1.9.9-1.9 2.5s.3 2.6 1.7 2.6c.6 0 .9-.1 1.2-.1.1 0 .2-.1.2-.3V87h-1.3c-.1 0-.2-.1-.2-.2v-.6c0-.1.1-.2.2-.2h2c.1 0 .2.1.2.2v3z" fill="#fff"/><path d="M42.3 83.4l1.4 2.9m0 0l-1.4 2.9" stroke="#fff" stroke-width=".88"/></g><g fill="#fff"><use xlink:href="#C"/><use xlink:href="#D"/><use xlink:href="#E"/><use xlink:href="#F"/><path d="M26.131 20.984c.197-.372.584-.604 1.005-.604s.807.232 1.004.604l4.129 7.782 8.678 1.523c.414.073.755.368.885.768a1.14 1.14 0 0 1-.264 1.142l-6.126 6.332 1.234 8.724c.059.417-.117.832-.458 1.079s-.789.286-1.168.102l-7.915-3.869-7.915 3.869a1.14 1.14 0 0 1-1.168-.102c-.34-.247-.516-.662-.457-1.079l1.234-8.724-6.126-6.332c-.293-.302-.394-.742-.264-1.142s.471-.696.885-.768l8.678-1.523 4.129-7.782z"/><path d="M26.131 20.984c.197-.372.584-.604 1.005-.604s.807.232 1.004.604l4.129 7.782 8.678 1.523a1.14 1.14 0 0 1 .621 1.91l-6.126 6.332 1.234 8.724c.059.417-.117.832-.458 1.079a1.14 1.14 0 0 1-1.168.102l-7.915-3.869-7.915 3.869a1.14 1.14 0 0 1-1.168-.102c-.34-.247-.516-.662-.457-1.079l1.234-8.724-6.126-6.332c-.293-.302-.394-.742-.264-1.142s.471-.696.885-.768l8.678-1.523 4.129-7.782zm.586.311c.082-.155.243-.252.419-.252s.337.097.419.252l4.129 7.782a.66.66 0 0 0 .471.342l8.678 1.523c.173.03.315.154.369.32s.012.35-.11.476l-6.126 6.332a.66.66 0 0 0-.18.554l1.234 8.723c.024.174-.049.347-.191.45s-.33.12-.487.042l-7.915-3.869a.66.66 0 0 0-.582 0l-7.915 3.869c-.158.077-.345.061-.487-.042s-.216-.276-.191-.45l1.234-8.723a.66.66 0 0 0-.18-.554l-6.126-6.332c-.122-.126-.164-.31-.11-.476s.196-.29.369-.32l8.678-1.523a.66.66 0 0 0 .471-.342l4.129-7.782zm29.552 4.832a.98.98 0 0 1 .864-.519c.362 0 .694.2.863.519l3.55 6.691 7.461 1.309a.98.98 0 0 1 .534 1.643l-5.267 5.444 1.061 7.5a.98.98 0 0 1-1.397 1.016l-6.805-3.326-6.805 3.326a.98.98 0 0 1-1.004-.088c-.292-.212-.444-.569-.393-.928l1.061-7.5-5.267-5.444a.98.98 0 0 1 .534-1.643l7.461-1.309 3.55-6.691z"/><path d="M56.269 26.127a.98.98 0 0 1 .864-.519c.362 0 .694.2.863.519l3.55 6.691 7.461 1.309a.98.98 0 0 1 .534 1.643l-5.267 5.444 1.061 7.5a.98.98 0 0 1-1.397 1.016l-6.805-3.326-6.805 3.326a.98.98 0 0 1-1.004-.088c-.292-.212-.444-.569-.393-.928l1.061-7.5-5.267-5.444a.98.98 0 0 1 .534-1.643l7.461-1.309 3.55-6.691zm.585.31c.055-.103.162-.167.278-.167s.224.065.278.167l3.55 6.691a.66.66 0 0 0 .471.342l7.461 1.309c.115.02.209.102.245.213s.008.233-.073.316l-5.267 5.444c-.142.147-.208.351-.18.554l1.061 7.5c.016.115-.032.23-.127.299s-.219.079-.323.028l-6.805-3.326a.66.66 0 0 0-.582 0l-6.805 3.326c-.105.051-.229.04-.323-.028s-.143-.184-.127-.299l1.061-7.5c.028-.203-.038-.407-.18-.554l-5.266-5.444c-.081-.084-.109-.206-.073-.316s.13-.193.245-.213l7.461-1.309a.66.66 0 0 0 .471-.342l3.55-6.691zm24.212 5.9a.72.72 0 0 1 1.269 0l2.61 4.918 5.484.962a.72.72 0 0 1 .392 1.207l-3.871 4.002.78 5.513a.72.72 0 0 1-1.027.746l-5.002-2.445-5.002 2.445a.72.72 0 0 1-1.027-.746l.78-5.513-3.871-4.002a.72.72 0 0 1 .392-1.207l5.484-.962 2.61-4.918z"/><path d="M81.066 32.337a.72.72 0 0 1 1.269 0l2.61 4.918 5.484.962a.72.72 0 0 1 .392 1.207l-3.871 4.002.78 5.513a.72.72 0 0 1-1.027.746l-5.002-2.445-5.002 2.445a.72.72 0 0 1-1.027-.746l.78-5.513-3.871-4.002a.72.72 0 0 1 .392-1.207l5.484-.962 2.61-4.918zm.585.311c.01-.018.029-.03.05-.03s.039.011.049.03l2.61 4.918c.096.181.27.307.471.342l5.484.962c.02.004.037.018.043.038s.001.041-.013.056l-3.871 4.002c-.142.147-.208.351-.18.553l.78 5.513c.003.02-.006.041-.023.053s-.039.014-.058.005l-5.002-2.445a.66.66 0 0 0-.582 0l-5.002 2.445c-.019.009-.041.007-.057-.005s-.025-.033-.023-.053l.78-5.513a.66.66 0 0 0-.18-.553l-3.871-4.002c-.015-.015-.019-.036-.013-.056s.023-.034.043-.038l5.484-.962c.201-.036.375-.162.471-.342l2.61-4.918z"/></g></g></g><defs ><path id="C" d="M-28.065 32.275a.72.72 0 0 1 1.269 0l2.61 4.918 5.484.962a.72.72 0 0 1 .392 1.207l-3.871 4.002.78 5.513a.72.72 0 0 1-1.027.746l-5.002-2.445-5.002 2.445a.72.72 0 0 1-1.027-.746l.78-5.513-3.871-4.002a.72.72 0 0 1 .392-1.207l5.484-.962 2.61-4.918z"/><path id="D" d="M-28.065 32.275a.72.72 0 0 1 1.269 0l2.61 4.918 5.484.962a.72.72 0 0 1 .392 1.207l-3.871 4.002.78 5.513a.72.72 0 0 1-1.027.746l-5.002-2.445-5.002 2.445a.72.72 0 0 1-1.027-.746l.78-5.513-3.871-4.002a.72.72 0 0 1 .392-1.207l5.484-.962 2.61-4.918zm.585.311c.01-.018.029-.03.05-.03s.039.011.049.03l2.61 4.918c.096.181.27.307.471.342l5.484.962c.02.004.037.018.043.038s.001.041-.013.056l-3.871 4.002c-.142.147-.208.351-.18.553l.78 5.513c.003.02-.006.041-.023.053s-.039.014-.058.005l-5.002-2.445a.66.66 0 0 0-.582 0l-5.002 2.445c-.019.009-.041.007-.057-.005s-.025-.033-.023-.053l.78-5.513a.66.66 0 0 0-.18-.553l-3.871-4.002c-.015-.015-.019-.036-.013-.056s.023-.034.043-.038l5.484-.962c.201-.036.375-.162.471-.342l2.61-4.918z"/><path id="E" d="M-3.726 25.855a.98.98 0 0 1 .864-.519c.362 0 .694.2.863.519l3.55 6.691 7.461 1.309c.356.062.649.317.761.661a.98.98 0 0 1-.227.982l-5.267 5.444 1.061 7.5c.051.358-.101.715-.393.928a.98.98 0 0 1-1.004.088l-6.805-3.326-6.805 3.326a.98.98 0 0 1-1.004-.088c-.292-.212-.444-.569-.393-.928l1.061-7.5-5.267-5.444a.98.98 0 0 1 .534-1.643l7.461-1.309 3.55-6.691z"/><path id="F" d="M-3.726 25.855a.98.98 0 0 1 .864-.519c.362 0 .694.2.863.519l3.55 6.691 7.461 1.309c.356.062.649.317.761.661a.98.98 0 0 1-.227.982l-5.267 5.444 1.061 7.5c.051.358-.101.715-.393.928a.98.98 0 0 1-1.004.088l-6.805-3.326-6.805 3.326a.98.98 0 0 1-1.004-.088c-.292-.212-.444-.569-.393-.928l1.061-7.5-5.267-5.444a.98.98 0 0 1 .534-1.643l7.461-1.309 3.55-6.691zm.585.31c.055-.103.162-.167.278-.167s.224.065.278.167l3.55 6.691c.096.181.27.307.471.342l7.461 1.309c.115.02.209.102.245.213s.008.233-.073.316l-5.267 5.444c-.142.147-.208.351-.18.554l1.061 7.5c.016.115-.032.23-.127.299s-.219.079-.323.028l-6.805-3.326a.66.66 0 0 0-.582 0l-6.805 3.326c-.105.051-.229.04-.323-.028s-.143-.184-.127-.299l1.061-7.5c.028-.203-.038-.407-.18-.554l-5.266-5.444c-.081-.084-.109-.206-.073-.316s.13-.193.245-.213l7.461-1.309a.66.66 0 0 0 .471-.342l3.55-6.691z"/></defs></svg>
