<svg version="1.1" xmlns="http://www.w3.org/2000/svg" style="display: block;" viewBox="0 0 2048 2048" width="1024" height="1024" preserveAspectRatio="none">
<defs>
	<linearGradient id="Gradient1" gradientUnits="userSpaceOnUse" x1="1682.6" y1="1023.73" x2="1703.6" y2="1026.75">
		<stop class="stop0" offset="0" stop-opacity="1" stop-color="rgb(30,76,83)"/>
		<stop class="stop1" offset="1" stop-opacity="1" stop-color="rgb(37,102,109)"/>
	</linearGradient>
	<linearGradient id="Gradient2" gradientUnits="userSpaceOnUse" x1="366.251" y1="1023.75" x2="342.454" y2="1027.16">
		<stop class="stop0" offset="0" stop-opacity="1" stop-color="rgb(29,78,85)"/>
		<stop class="stop1" offset="1" stop-opacity="1" stop-color="rgb(37,108,113)"/>
	</linearGradient>
</defs>
<path transform="translate(0,0)" fill="rgb(23,25,29)" d="M 0 0 L 2048 0 L 2048 2048 L 0 2048 L 0 0 z"/>
<path transform="translate(0,0)" fill="rgb(145,251,249)" d="M 718.511 817.976 C 722.335 816.014 790.43 817.031 799.214 817.062 C 816.266 862.793 837.658 912.348 856.104 957.893 L 965.722 1230.65 C 955.395 1230.74 885.945 1232.25 881.888 1229.55 L 879.744 1225.96 C 871.443 1219.1 849.349 1147.44 841.207 1135.51 C 840.621 1134.65 813.664 1129.67 809.629 1129.6 C 791.709 1129.31 773.001 1129.3 754.965 1129.37 C 731.781 1129.46 708.424 1129.49 685.227 1129.3 C 683.911 1129.28 676.737 1129.27 676.118 1130.24 C 672.096 1136.56 670.636 1143.35 667.589 1150.43 C 657.484 1173.89 646.225 1210.37 635.073 1231.46 C 633.9 1233.68 570.303 1231.98 562.558 1232.64 C 558.835 1232.95 555.426 1232.55 552.53 1229.71 C 550.161 1222.53 559.309 1211.96 561.376 1205.09 C 565.679 1190.77 572.035 1176.66 577.58 1162.78 L 611.086 1079.52 L 679.199 910.851 C 684.452 897.816 712.628 823.968 718.511 817.976 z"/>
<path transform="translate(0,0)" fill="rgb(26,67,73)" d="M 879.744 1225.96 C 871.443 1219.1 849.349 1147.44 841.207 1135.51 C 840.621 1134.65 813.664 1129.67 809.629 1129.6 C 791.709 1129.31 773.001 1129.3 754.965 1129.37 C 731.781 1129.46 708.424 1129.49 685.227 1129.3 C 683.911 1129.28 676.737 1129.27 676.118 1130.24 C 672.096 1136.56 670.636 1143.35 667.589 1150.43 C 657.484 1173.89 646.225 1210.37 635.073 1231.46 C 633.9 1233.68 570.303 1231.98 562.558 1232.64 C 558.835 1232.95 555.426 1232.55 552.53 1229.71 C 550.161 1222.53 559.309 1211.96 561.376 1205.09 C 565.679 1190.77 572.035 1176.66 577.58 1162.78 L 611.086 1079.52 L 679.199 910.851 C 684.452 897.816 712.628 823.968 718.511 817.976 C 710.667 843.26 690.896 888.017 680.438 913.635 L 593.956 1127.63 L 567.646 1193.41 C 563.569 1203.59 556.252 1220.43 553.104 1230.49 L 634.268 1230.63 C 646.266 1199.44 661.2 1158.01 674.477 1127.88 L 841.311 1127.87 L 866.706 1192.59 C 870.554 1202.39 876.529 1216.32 879.744 1225.96 z"/>
<path transform="translate(0,0)" fill="rgb(32,184,199)" d="M 725.735 826.472 C 747.382 827.09 771.268 826.756 792.842 826.337 C 803.62 854.751 816.424 884.723 827.901 913.076 L 906.902 1109 C 921.869 1146.2 937.892 1184.17 951.865 1221.68 C 930.528 1221.54 909.19 1221.58 887.854 1221.8 C 885.495 1213.61 877.656 1195.22 874.263 1186.62 L 847.336 1118.4 L 796.931 1118.57 L 668.009 1118.62 C 657.125 1150.77 640.024 1188.47 627.968 1221.63 L 566.278 1221.8 C 573.051 1206.76 579.708 1188.64 585.847 1173.16 L 615.894 1098.6 L 725.735 826.472 z"/>
<path transform="translate(0,0)" fill="rgb(145,251,249)" d="M 757.433 884.598 C 761.158 888.05 821.41 1050.21 826.016 1063.7 C 803.845 1063.98 781.673 1064.07 759.5 1063.99 L 689.488 1064.02 L 757.433 884.598 z"/>
<path transform="translate(0,0)" fill="rgb(26,67,73)" d="M 757.682 910.68 C 760.833 913.729 807.84 1040.65 813.233 1054.93 L 760.5 1054.94 L 703.021 1054.86 C 721.521 1007.65 739.713 958.203 757.682 910.68 z"/>
<path transform="translate(0,0)" fill="rgb(145,251,249)" d="M 1390.51 964.5 C 1390.5 947.467 1389.21 824.118 1392.66 817.047 C 1417.84 817.056 1445.88 816.465 1470.82 817.263 L 1470.71 1230.73 L 1392.68 1230.82 L 1392.31 1229.43 C 1386.68 1208.03 1393.37 1067.31 1389.64 1062.31 C 1378.64 1061.61 1358.67 1061.97 1347.7 1062.44 C 1335.51 1062.97 1288.25 1060.21 1279.77 1062.69 C 1278.75 1069.87 1268.27 1078.31 1267.72 1084.98 C 1266.77 1096.4 1267.38 1110.64 1267.44 1122.3 L 1267.58 1201.51 C 1267.58 1207.94 1268.82 1227.69 1264.52 1231.08 C 1259.45 1231.91 1251.09 1231.57 1245.89 1230.91 C 1231.89 1229.95 1202.54 1230.74 1187.15 1230.61 C 1186.49 1182.03 1186.62 1130.05 1187.65 1081.35 C 1187.8 1074.36 1202.45 1040.46 1205.87 1031.33 C 1224.91 980.337 1244.4 929.509 1264.34 878.856 L 1265.46 878.064 C 1268.99 886.453 1263.36 954.551 1270.94 962.369 C 1271.53 960.864 1272.45 949.636 1273.14 946.139 L 1273.82 947.016 C 1274.43 950.638 1275.01 961.408 1273.74 964.572 L 1271.79 964.085 L 1271.43 964.693 C 1274.81 975.385 1281.18 984.615 1293.62 985.294 C 1315.88 986.51 1338.38 984.407 1360.73 986.122 C 1371.81 986.972 1383.34 971.913 1390.51 964.5 z"/>
<path transform="translate(0,0)" fill="rgb(26,67,73)" d="M 1390.51 964.5 C 1390.5 947.467 1389.21 824.118 1392.66 817.047 C 1393.89 830.562 1393.06 859.408 1393.04 873.925 L 1392.95 987.304 L 1265.03 987.296 L 1265.05 913.274 C 1265.04 907.006 1265.37 883.643 1264.34 878.856 L 1265.46 878.064 C 1268.99 886.453 1263.36 954.551 1270.94 962.369 C 1271.53 960.864 1272.45 949.636 1273.14 946.139 L 1273.82 947.016 C 1274.43 950.638 1275.01 961.408 1273.74 964.572 L 1271.79 964.085 L 1271.43 964.693 C 1274.81 975.385 1281.18 984.615 1293.62 985.294 C 1315.88 986.51 1338.38 984.407 1360.73 986.122 C 1371.81 986.972 1383.34 971.913 1390.51 964.5 z"/>
<path transform="translate(0,0)" fill="rgb(26,67,73)" d="M 1265.15 1060.46 C 1303.88 1062.21 1353.51 1060.7 1392.99 1060.64 L 1393.04 1168.65 C 1393.05 1187.73 1393.7 1212.18 1392.68 1230.82 L 1392.31 1229.43 C 1386.68 1208.03 1393.37 1067.31 1389.64 1062.31 C 1378.64 1061.61 1358.67 1061.97 1347.7 1062.44 C 1335.51 1062.97 1288.25 1060.21 1279.77 1062.69 C 1278.75 1069.87 1268.27 1078.31 1267.72 1084.98 C 1266.77 1096.4 1267.38 1110.64 1267.44 1122.3 L 1267.58 1201.51 C 1267.58 1207.94 1268.82 1227.69 1264.52 1231.08 C 1259.45 1231.91 1251.09 1231.57 1245.89 1230.91 C 1249.55 1230.33 1260.78 1230.32 1265.03 1230.23 L 1265.15 1060.46 z"/>
<path transform="translate(0,0)" fill="rgb(32,184,199)" d="M 1402.14 826.604 L 1461.28 826.658 L 1461.25 1221.64 L 1402.19 1221.8 C 1403.45 1167.43 1402.53 1106.37 1402.23 1051.76 C 1385.27 1050.73 1363.71 1051.23 1346.54 1051.24 L 1255.87 1051.14 C 1255.62 1073.86 1255.83 1096.99 1255.82 1119.75 L 1255.62 1221.67 L 1196.74 1221.83 L 1196.61 1128.24 C 1196.59 1118.98 1196.05 1088.86 1197.51 1081.19 C 1199.42 1071.15 1210.71 1044.25 1215.09 1032.81 L 1255.57 927.022 L 1255.98 996.377 C 1304.15 997.304 1354.17 996.559 1402.47 996.525 C 1403.14 940.526 1402.28 882.702 1402.14 826.604 z"/>
<path transform="translate(0,0)" fill="rgb(145,251,249)" d="M 984.463 962.086 C 984.56 962.105 984.656 962.125 984.753 962.145 C 985.382 962.446 986.011 962.748 986.64 963.049 C 999.495 998.613 1012.1 1034.74 1025.03 1070.25 C 1028.15 1078.79 1031.02 1087.92 1034.46 1095.1 C 1036.37 1099.09 1049.21 1098.98 1053.38 1098.93 C 1057.91 1083.04 1065.22 1084.31 1069.36 1071.83 C 1088.06 1015.48 1109.21 959.356 1129.1 903.299 L 1151.83 840.104 C 1154.43 832.974 1157.23 825.899 1159.12 818.499 C 1159.48 817.071 1160.17 817.288 1161.93 816.713 C 1172.3 817.27 1238.29 815.822 1242.27 818.334 C 1241.87 820.002 1241.59 820.962 1241.38 822.666 C 1242.05 832.95 1225.41 865.848 1221.78 877.745 C 1220.1 883.267 1219.82 891.877 1218.48 894.998 L 1218.88 896.752 C 1220.25 892.964 1223.44 882.865 1226.26 880.979 L 1227.46 882.068 C 1227.25 886.911 1219.1 908.161 1215.52 911.013 C 1215.01 907.816 1215.27 907.775 1215.69 904.557 C 1212.8 908.895 1204.95 920.083 1203.47 924.32 C 1201.13 930.992 1200.14 936.29 1197.2 943.817 L 1128.89 1120.37 C 1119.24 1145.77 1109.45 1171.11 1099.52 1196.4 C 1097.1 1202.62 1089.11 1227.52 1084.9 1229.8 C 1079.64 1231.89 1018.47 1230.82 1008.83 1230.78 C 973.488 1136.43 933.961 1042 899.604 947.55 C 925.322 946.585 953.391 947.079 979.305 947.126 C 980.805 952.315 982.602 957.031 984.463 962.086 z"/>
<path transform="translate(0,0)" fill="rgb(26,67,73)" d="M 984.463 962.086 C 984.56 962.105 984.656 962.125 984.753 962.145 C 985.382 962.446 986.011 962.748 986.64 963.049 C 999.495 998.613 1012.1 1034.74 1025.03 1070.25 C 1028.15 1078.79 1031.02 1087.92 1034.46 1095.1 C 1036.37 1099.09 1049.21 1098.98 1053.38 1098.93 C 1057.91 1083.04 1065.22 1084.31 1069.36 1071.83 C 1088.06 1015.48 1109.21 959.356 1129.1 903.299 L 1151.83 840.104 C 1154.43 832.974 1157.23 825.899 1159.12 818.499 C 1159.48 817.071 1160.17 817.288 1161.93 816.713 C 1159.92 825.918 1151.74 846.834 1148.23 856.596 L 1120.66 932.992 L 1075.21 1060.2 C 1066.44 1084.79 1056.96 1113.27 1047.05 1137.05 L 1002.41 1013.68 C 999.867 1006.58 985.442 967.69 984.463 962.086 z"/>
<path transform="translate(0,0)" fill="rgb(26,67,73)" d="M 1084.9 1229.8 C 1086.94 1221.38 1100.1 1189.43 1103.97 1179.44 L 1145.2 1072.5 L 1209.98 904.214 C 1219.78 878.713 1230.38 847.338 1241.38 822.666 C 1242.05 832.95 1225.41 865.848 1221.78 877.745 C 1220.1 883.267 1219.82 891.877 1218.48 894.998 L 1218.88 896.752 C 1220.25 892.964 1223.44 882.865 1226.26 880.979 L 1227.46 882.068 C 1227.25 886.911 1219.1 908.161 1215.52 911.013 C 1215.01 907.816 1215.27 907.775 1215.69 904.557 C 1212.8 908.895 1204.95 920.083 1203.47 924.32 C 1201.13 930.992 1200.14 936.29 1197.2 943.817 L 1128.89 1120.37 C 1119.24 1145.77 1109.45 1171.11 1099.52 1196.4 C 1097.1 1202.62 1089.11 1227.52 1084.9 1229.8 z"/>
<path transform="translate(0,0)" fill="rgb(32,184,199)" d="M 1169.17 826.487 C 1188.64 826.141 1209.44 826.638 1229.01 826.762 C 1214.06 870.685 1194.73 916.342 1178.48 959.989 C 1146.01 1047.26 1110.22 1134.49 1077.93 1221.71 L 1015.18 1221.79 C 1006.17 1195.46 991.551 1159.49 981.296 1133.49 L 945.576 1041.24 C 936.437 1018.08 920.407 979.435 913.843 956.588 C 932.936 956.682 953.168 957.101 972.158 956.379 C 982.316 982.705 992.093 1011.74 1001.63 1038.48 C 1016.62 1080.26 1031.93 1121.93 1047.54 1163.49 C 1057.39 1139.01 1067.49 1108.65 1076.6 1083.52 L 1137.52 913.629 C 1147.48 885.6 1158.03 853.956 1169.17 826.487 z"/>
<path transform="translate(0,0)" fill="rgb(145,251,249)" d="M 187.7 1023.79 C 217.014 1007.39 248.411 987.953 277.391 970.706 L 452.229 866.464 C 479.047 850.519 508.463 831.984 535.523 817.188 C 535.851 847.742 535.88 878.299 535.61 908.853 C 528.874 912.36 521.366 916.316 514.977 920.392 C 479.548 942.995 439.463 962.111 404.758 985.486 C 402.258 992.559 368.9 1004.94 366.198 1011.46 C 365.826 1012.36 368.133 1037.56 369.045 1039.47 C 378.673 1046.95 414.078 1063.72 418.276 1070.56 C 423.091 1075.61 523.803 1133 535.749 1140.09 L 535.683 1231.1 L 187.7 1023.79 z"/>
<path transform="translate(0,0)" fill="url(#Gradient2)" d="M 338.093 1024.14 C 357.094 1013.27 386.162 994.171 404.758 985.486 C 402.258 992.559 368.9 1004.94 366.198 1011.46 C 365.826 1012.36 368.133 1037.56 369.045 1039.47 C 378.673 1046.95 414.078 1063.72 418.276 1070.56 C 410.322 1066.82 397.331 1058.72 389.419 1054.05 C 372.397 1043.93 355.288 1033.96 338.093 1024.14 z"/>
<path transform="translate(0,0)" fill="rgb(32,184,199)" d="M 523.853 834.82 L 525.306 835.174 C 527.226 840.544 526.002 893.547 525.931 903.29 L 319.936 1023.81 C 333.075 1032.27 349.443 1041.05 363.086 1049.36 C 416.697 1082.01 472.469 1112.31 525.988 1145.06 L 526.002 1214.69 L 455.528 1172.79 C 405.406 1141.94 353.809 1112.86 303.623 1082.05 C 271.312 1062.22 238.087 1043.88 206.013 1023.67 C 216.495 1018.25 230.804 1009.2 241.157 1003.08 L 313.865 959.734 L 523.853 834.82 z"/>
<path transform="translate(0,0)" fill="rgb(145,251,249)" d="M 1512.57 817.181 C 1558.83 843.07 1610.04 874.762 1655.93 902.206 L 1860.98 1024.28 C 1828.22 1041.38 1791.99 1065.36 1759.63 1084.07 C 1677.12 1131.76 1595.41 1183.89 1512.65 1230.85 C 1512.54 1200.37 1512.62 1169.88 1512.87 1139.4 L 1604.75 1085.89 C 1610.68 1082.42 1633.28 1070.09 1636.81 1066.61 C 1640.29 1059.28 1672.46 1045.81 1680.13 1039.09 C 1684.54 1035.22 1683.46 1017.42 1683.51 1010.93 C 1676.02 1006.01 1646.53 991.026 1643.93 985.568 C 1633.36 978.387 1619.17 970.393 1607.87 964.123 C 1576.2 946.553 1544.66 925.714 1512.82 908.819 L 1512.57 817.181 z"/>
<path transform="translate(0,0)" fill="url(#Gradient1)" d="M 1643.93 985.568 C 1663.43 996.152 1691.17 1012.18 1709.71 1024.13 C 1692.28 1034.41 1653.53 1058.69 1636.81 1066.61 C 1640.29 1059.28 1672.46 1045.81 1680.13 1039.09 C 1684.54 1035.22 1683.46 1017.42 1683.51 1010.93 C 1676.02 1006.01 1646.53 991.026 1643.93 985.568 z"/>
<path transform="translate(0,0)" fill="rgb(32,184,199)" d="M 1521.96 834.315 C 1532.36 839.133 1547.71 848.756 1557.87 854.797 L 1620.65 892.317 L 1841.68 1023.87 C 1815.53 1040.57 1785.64 1057.65 1758.86 1073.61 L 1595.5 1171.15 C 1571.24 1184.94 1546.39 1201.65 1521.94 1214.56 L 1522.1 1144.59 C 1542.51 1134.05 1569.81 1116.97 1590.3 1104.99 L 1728.11 1023.88 C 1708.7 1013.26 1687.28 999.91 1667.92 988.583 L 1522.04 903.463 L 1521.96 834.315 z"/>
</svg>