<svg viewBox="0 0 42 37" xmlns="http://www.w3.org/2000/svg" fill-rule="evenodd" clip-rule="evenodd" stroke-linejoin="round" stroke-miterlimit="1.4"><g fill-rule="nonzero"><path d="M28.4 24.2l-8.9-10.9v16.3h-4.2v-22h4.9l8.2 10.1 8.2-10.1h5v22h-4.2V13.2l-9 11z" fill="url(#_Linear1)"/><path d="M29.8 7.6S24.2-3.4 11 1c0 0-11.4 3.7-11 17.6.2 13.9 12.7 17 12.7 17s11.4 3.2 17.7-7.2l-3.6-2s-4.5 8.1-14.3 4.9c-7.2-3.6-8.3-10-8.3-12.4 0-2.4.2-10.5 9-14.1C22.7 2 26 9.7 26 9.7l3.8-2.1z" fill="url(#_Linear2)"/></g><defs><linearGradient id="_Linear1" x2="1" gradientUnits="userSpaceOnUse" gradientTransform="rotate(40.3 -.3 .8) scale(44.7558)"><stop offset="0" stop-color="#38fcf7"/><stop offset=".4" stop-color="#2bc2ff"/><stop offset=".7" stop-color="#008afe"/><stop offset="1" stop-color="#004aff"/></linearGradient><linearGradient id="_Linear2" x2="1" gradientUnits="userSpaceOnUse" gradientTransform="rotate(40.3 -.3 .8) scale(44.7558)"><stop offset="0" stop-color="#38fcf7"/><stop offset=".4" stop-color="#2bc2ff"/><stop offset=".7" stop-color="#008afe"/><stop offset="1" stop-color="#004aff"/></linearGradient></defs></svg>