<svg xmlns="http://www.w3.org/2000/svg" viewBox="0 0 141 141"><rect width="141" height="141" rx="20.324" ry="20.324" style="fill:#036"/><path d="M55.483 122.433c-1.558 0-3.068-.275-4.49-.817-13.079-4.984-10.628-26.391-7.774-39.411-14.445-9.326-20.972-19.893-17.562-28.818 1.517-3.977 6.378-10.655 21.88-10.655 3.254 0 6.743.29 10.418.863 5.649-9.976 16.079-25.028 27.562-25.028 1.559 0 3.069.275 4.491.817 13.078 4.984 10.626 26.39 7.773 39.406 14.439 9.341 20.968 19.911 17.563 28.823-1.517 3.977-6.378 10.654-21.882 10.654-3.256 0-6.747-.29-10.426-.863-5.648 9.975-16.075 25.027-27.552 25.029h-.002Z" style="fill:#bb9351"/><path d="M85.516 25.567c.7 0 1.367.117 1.999.358 6.56 2.5 7.18 17.57 2.26 36.2 13.39 7.59 21.41 16.76 19.03 22.99-1.563 4.099-7.316 6.152-15.343 6.152-4.193 0-9.006-.56-14.167-1.682-7.907 15.516-17.245 25.848-23.811 25.848-.7 0-1.367-.117-1.999-.358-6.56-2.5-7.18-17.58-2.26-36.21-13.39-7.57-21.41-16.75-19.03-22.98 1.563-4.099 7.316-6.152 15.34-6.152 4.192 0 9.003.56 14.16 1.682 7.907-15.516 17.253-25.847 23.821-25.848m0-14h-.002c-12.835.002-23.534 11.884-31.276 24.503a69.581 69.581 0 0 0-6.703-.337c-19.697 0-26.261 9.5-28.421 15.164-1.754 4.59-3.315 13.952 5.968 24.988 2.719 3.232 6.228 6.428 10.371 9.463-1.21 6.787-1.685 13.048-1.381 18.457.404 7.196 2.816 19.928 14.427 24.353a19.535 19.535 0 0 0 6.985 1.276c12.83 0 23.527-11.882 31.269-24.503 2.313.225 4.553.338 6.709.338 19.699 0 26.264-9.5 28.424-15.164 1.754-4.59 3.314-13.95-5.968-24.985-2.717-3.23-6.228-6.428-10.372-9.467 1.211-6.789 1.686-13.052 1.382-18.46-.404-7.194-2.816-19.923-14.427-24.348a19.547 19.547 0 0 0-6.984-1.276Z" style="fill:#fff"/></svg>