<svg xmlns="http://www.w3.org/2000/svg" xml:space="preserve" id="Ebene_2_00000003082143268403364210000017331588248483125951_" x="0" y="0" style="enable-background:new 0 0 360 360" version="1.1" viewBox="0 0 360 360"><style>.st2{fill:#f2edd5}</style><g id="bg"><path d="M80 0h200c44.2 0 80 35.8 80 80v200c0 44.2-35.8 80-80 80H80c-44.2 0-80-35.8-80-80V80C0 35.8 35.8 0 80 0z" style="fill:#a13609"/><path d="M95 25h170c38.7 0 70 31.3 70 70v170c0 38.7-31.3 70-70 70H95c-38.7 0-70-31.3-70-70V95c0-38.7 31.3-70 70-70z" style="fill:#2d3f4b"/></g><path id="frame" d="M270 34c14.9 0 28.9 5.8 39.5 16.5S326 75.1 326 90v180c0 14.9-5.9 28.9-16.5 39.5S284.9 326 270 326H90c-14.9 0-28.9-5.9-39.5-16.5S34 284.9 34 270V90c0-14.9 5.8-28.9 16.5-39.5S75.1 34 90 34h180m0-14H90c-38.5 0-70 31.5-70 70v180c0 38.5 31.5 70 70 70h180c38.5 0 70-31.5 70-70V90c0-38.5-31.5-70-70-70z" class="st2"/><path d="M154 178.8h-34.6c-13.7 0-24.8-11.1-24.8-24.8v-34.6c0-13.7 11.1-24.8 24.8-24.8H154c13.7 0 24.8 11.1 24.8 24.8V154c0 13.7-11.1 24.8-24.8 24.8zm-34.6-69.3c-5.4 0-9.8 4.4-9.8 9.8V154c0 5.4 4.4 9.8 9.8 9.8H154c5.4 0 9.8-4.4 9.8-9.8v-34.6c0-5.4-4.4-9.8-9.8-9.8h-34.6z" class="st2"/><path d="M188.7 230.8H154c-13.7 0-24.8-11.1-24.8-24.8v-34.6c0-4.1 3.4-7.5 7.5-7.5s7.5 3.4 7.5 7.5V206c0 5.4 4.4 9.8 9.8 9.8h34.6c4.1 0 7.5 3.4 7.5 7.5s-3.3 7.5-7.4 7.5z" class="st2"/><path d="M240.6 265.5H206c-13.7 0-24.8-11.1-24.8-24.8V206c0-13.7 11.1-24.8 24.8-24.8h34.6c13.7 0 24.8 11.1 24.8 24.8v34.6c.1 13.7-11.1 24.9-24.8 24.9zM206 196.2c-5.4 0-9.8 4.4-9.8 9.8v34.6c0 5.4 4.4 9.8 9.8 9.8h34.6c5.4 0 9.8-4.4 9.8-9.8V206c0-5.4-4.4-9.8-9.8-9.8H206z" class="st2"/></svg>