<svg xmlns="http://www.w3.org/2000/svg" width="200" height="200"><g transform="matrix(2.67337 0 0 2.67337 -180.704 -296.995)"><circle cx="105" cy="148.5" r="37.406" fill="#fff"/><circle cx="105" cy="148.5" r="36.655"/><path fill="#fff" d="M82.4 170.28c-.37.029-1.573-1.158-1.873-2.061-.027-.087-1.48-8.54-3.232-18.784-3.472-20.313-3.26-18.986-3.128-19.57.148-.657.554-1.147 1.074-1.3.103-.03.374-.062.602-.072.274-.013 6.434.255 18.171.788l19.747.895c8.122.363 15.19.689 15.347.707 1.005.12 1.935.964 2.242 2.034.039.134.408 2.235.822 4.668.414 2.433 1.619 9.488 2.678 15.677 2.132 12.452 2.02 11.708 1.849 12.218-.178.533-.5.926-.929 1.136-.315.154-.474.188-1.081.232-2.03.15-51.292 3.511-51.384 3.507a8.888 8.888 0 0 1-.905-.075Z"/><path d="M83.1 169.6c-.359.028-1.526-1.123-1.816-1.999-.025-.084-1.436-8.28-3.134-18.213-3.367-19.695-3.16-18.409-3.033-18.976.144-.636.537-1.112 1.042-1.26.1-.028.362-.06.583-.07.266-.012 6.239.247 17.62.764 9.469.43 18.084.821 19.146.868 7.875.352 14.728.668 14.88.686.974.117 1.876.935 2.174 1.972.037.13.396 2.167.797 4.526.401 2.36 1.57 9.2 2.597 15.2 2.067 12.073 1.957 11.352 1.792 11.847-.172.517-.483.898-.9 1.101-.306.15-.46.183-1.049.226-1.968.145-49.733 3.404-49.823 3.4a8.607 8.607 0 0 1-.877-.073z"/><g stroke-width=".011"><path fill-opacity=".992" d="M84.413 136.096a9.034 9.034 0 0 1 2 .053c.355.045.728.103 1.263.196.423.073.518.089.676.108a6.32 6.32 0 0 0 2.311-.13c.111-.028.28-.078.364-.109l.062-.022-.072-.29a16.84 16.84 0 0 0-.087-.342l-.014-.05.011.05c.009.034.008.05-.001.047a14.242 14.242 0 0 0-2.492-.37 11.13 11.13 0 0 0-1.085-.016c-.592.043-1.389.237-2.298.56-.212.075-.631.24-.73.287l-.083.04zm9.482.196a66.64 66.64 0 0 0 3.16.261c.954.056 1.797.084 2.642.088.414.003.588.001 1.047-.008 1.004-.02 2.166-.026 7.08-.042 7.73-.024 11.166-.05 13.95-.107 2.38-.048 3.634-.119 3.61-.205-.011-.041-.339-.089-.946-.136-1.044-.082-2.912-.168-5.785-.266a1369.13 1369.13 0 0 0-11.193-.318c-5.07-.132-6.088-.162-7.122-.205a36.149 36.149 0 0 0-1.22-.035 53.24 53.24 0 0 0-3.934.104 51.11 51.11 0 0 0-1.578.122c-.093.01-.109.01-.106.003.002-.007-.012-.01-.02-.006-.004.001.071.165.168.363.146.298.174.361.161.368l-.014.008z"/><path fill="#fff" d="M84.077 135.85a9.034 9.034 0 0 1 2 .053c.355.045.727.103 1.262.196.424.073.519.089.676.108a6.32 6.32 0 0 0 2.312-.13c.11-.028.279-.078.363-.108l.062-.023-.071-.29a16.84 16.84 0 0 0-.087-.342l-.015-.05.012.05c.008.034.007.05-.002.047a14.242 14.242 0 0 0-2.492-.37 11.13 11.13 0 0 0-1.084-.016c-.593.043-1.39.237-2.299.56-.211.075-.63.24-.729.287l-.083.04zm9.482.196c.978.106 2.126.201 3.16.261.954.056 1.796.084 2.642.089.414.002.588 0 1.046-.009 1.005-.02 2.167-.026 7.081-.042 7.73-.024 11.166-.05 13.95-.107 2.38-.048 3.634-.119 3.61-.205-.012-.041-.339-.089-.947-.136-1.043-.082-2.912-.168-5.785-.266a1369.13 1369.13 0 0 0-11.193-.318c-5.069-.132-6.087-.161-7.121-.205a36.149 36.149 0 0 0-1.22-.035 53.28 53.28 0 0 0-3.935.104 51.09 51.09 0 0 0-1.578.122c-.092.01-.108.01-.106.003.003-.006-.011-.01-.02-.006a5.02 5.02 0 0 0 .169.363c.145.298.173.361.16.368l-.014.008z"/></g><path fill="#fff" d="M93.1 141.427q0 .132-.075.234-.067.092-.161.184-.086.092-.17.204-.086.102-.115.255h-.028q-.076-.01-.161-.01-.076-.01-.152-.01-.398 0-.777.061t-.777.102q-.076.215-.161.286-.085.061-.161.133-.067.071-.114.235-.047.153-.047.56 0 .43.038.838t.038.826q0 .337-.057.674-.048.337-.048.684 0 .439.057.878.057.428.057.877 0 .541.066 1.072.067.52.067 1.061 0 .154-.038.45-.038.295-.104.622-.057.316-.133.602-.066.276-.133.388-.095.163-.256.235-.16.071-.284.204-.076.071-.17.214-.095.143-.2.296-.094.143-.199.266-.104.112-.19.132-.066.082-.132.174-.057.081-.133.163-.094.092-.123.153-.028.051-.057.092-.028.03-.085.051-.047.01-.19.02-.208.02-.407.082-.19.061-.389.133-.189.061-.388.112-.19.061-.398.061-.398 0-.749-.122-.35-.133-.701-.337-.123-.071-.209-.102-.075-.04-.142-.071-.066-.041-.142-.103-.066-.071-.161-.193-.199-.266-.436-.45-.237-.183-.493-.387-.132-.102-.208-.266-.076-.173-.123-.367-.038-.194-.057-.388-.01-.204-.01-.367 0-.194.01-.419.019-.235.057-.46.037-.234.094-.448.067-.215.161-.388l.2-.337q.094-.153.208-.245.114-.092.265-.132.152-.052.389-.052.341 0 .578.041.246.041.426.164.18.122.304.347.123.224.227.592.048.173.076.357.028.173.028.347 0 .194-.066.398-.057.204-.246.275l-.161.215q-.086.102-.162.224-.066.113-.123.245-.047.123-.047.255 0 .276.16.44.172.152.399.234.237.071.474.092.246.01.388.01.2 0 .37-.102.17-.102.35-.173.162-.062.342-.103.18-.05.35-.102.171-.06.332-.142.161-.082.294-.225.218-.796.246-1.633.038-.847.038-1.674-.01-.184-.038-.235-.019-.06-.047-.081-.028-.03-.047-.062-.02-.03-.02-.153 0-.173.039-.347.047-.183.047-.367 0-.296-.057-.572-.047-.285-.047-.581 0-.582.075-1.143.086-.572.086-1.154 0-.122-.067-.224-.056-.113-.056-.235 0-.092.047-.163.047-.082.047-.174 0-.092-.057-.235-.056-.143-.132-.306-.067-.163-.142-.326-.067-.174-.086-.307-.028-.214-.075-.326-.048-.123-.124-.174-.075-.061-.199-.071-.123-.02-.312-.041-.285-.03-.569-.03-.275-.01-.56-.01-.141 0-.217-.021-.066-.02-.114-.061-.038-.041-.076-.113-.038-.071-.113-.183-.105-.143-.2-.307-.094-.163-.094-.367 0-.163.076-.265.085-.113.208-.174.123-.071.265-.092.143-.03.266-.03.227 0 .455.03.227.03.464.03.209 0 .332-.05.132-.051.218-.102.095-.062.19-.113.094-.05.236-.05.247 0 .484.06.246.062.492.062.133 0 .256.04.133.031.256.082.133.041.256.082.123.03.256.03.218 0 .417-.081.208-.092.426-.092.17 0 .332.03t.322.062q.19.04.341.061.162.02.285.082.132.051.227.173.104.113.18.347.029.092.029.205zm-6.188-.296q0-.051-.047-.102-.038-.051-.095-.051-.095 0-.114.112-.019.112-.019.194.067 0 .17-.02.103-.02.105-.133zm17.846.032q0 .123-.085.214-.085.082-.208.143-.114.062-.237.113-.123.051-.209.092-.076.04-.133.091l-.104.113q-.047.05-.114.091-.056.041-.151.072-.123.03-.218.03t-.18.021q-.085.01-.152.071-.066.062-.132.215-.057.132-.086.316-.019.174-.066.337-.047.163-.142.276-.086.112-.275.112 0 .112.066.235l.152.224q.085.112.152.235.066.112.066.224 0 .123-.048.235-.048.112-.047.235l-.01.622q-.009.205.067.409.085.194.085.408 0 .122-.047.245-.048.112-.048.245 0 .428.076.857.086.419.086.868 0 .296-.048.643-.047.337-.227.571.01.143.057.245.047.092.094.204.048.102.086.235.047.123.047.327 0 .183-.038.49-.028.296-.114.581-.085.276-.237.49-.142.204-.37.204h-.037q-.01-.01-.028-.01l-.01.061v.031q0 .143.076.255.085.112.085.255 0 .072-.085.184-.076.112-.19.235-.113.122-.237.235-.113.112-.19.193-.084.092-.132.184-.038.082-.085.153-.038.062-.114.113-.066.04-.208.071-.247.051-.436.153-.19.102-.37.214-.18.102-.388.174-.209.082-.503.082-.16 0-.312-.041t-.304-.092q-.151-.061-.312-.102-.152-.041-.304-.041-.123 0-.246.02-.114.01-.237.01-.095 0-.152-.01-.047-.01-.113-.081-.048-.062-.152-.113-.095-.05-.209-.091-.113-.051-.227-.082-.114-.04-.19-.061-.17-.051-.331-.204-.152-.154-.285-.347-.123-.205-.227-.419-.095-.214-.152-.388-.113-.347-.16-.704-.048-.367-.077-.725-.028-.367-.066-.724-.028-.368-.114-.725-.038-.143-.085-.286-.038-.153-.038-.306 0-.112.02-.214l.037-.225q.076-.428.114-.867.047-.44.047-.878 0-.582-.057-1.153-.047-.572-.047-1.154v-.214q0-.102.01-.214.018-.204.075-.398.067-.194.067-.398 0-.072-.02-.133l-.037-.133q-.114-.265-.133-.48-.019-.224-.038-.51-.038-.439-.17-.622-.124-.184-.323-.266-.19-.081-.426-.132-.228-.062-.483-.266-.076-.05-.133-.122-.048-.082-.048-.174 0-.163.162-.296.17-.132.398-.214.228-.082.454-.122.228-.051.351-.051.152 0 .284.04.143.041.294.041.304 0 .588-.071.284-.082.587-.082.124 0 .38.051.255.051.511.153.256.092.446.235.199.133.199.306 0 .225-.133.429-.123.194-.313.377t-.417.378q-.218.194-.407.419-.19.224-.322.51-.124.275-.124.622 0 .205.01.419.019.204.019.408 0 .408-.076.806-.066.399-.066.817 0 .337.085.612.095.266.095.419 0 .163-.038.306-.029.133-.029.286v.132q.01.062.01.133 0 .163-.048.265-.037.103-.085.184-.047.082-.095.153-.047.072-.047.164.047-.041.095-.072.047-.03.104-.03.066 0 .104.05.038.05.057.123.029.061.038.143.01.071.01.122 0 .266.066.52.076.256.076.521 0 .235-.038.48-.038.235-.038.48 0 .235.028.439.038.194.256.316.038.02.085.123.048.102.095.224.057.112.114.235.057.112.114.163.113.112.246.184l.265.143q.143.061.266.143.132.071.237.204.085.112.218.204.132.082.256.184.132.091.227.204.095.112.095.275 0-.132.038-.214.01.03.01.092 0 .081-.039.122.029-.03.067-.102l.075-.143q.038-.072.076-.122.038-.051.085-.051.067 0 .124.05.057.052.057.134 0 .102-.038.193-.038.091-.048.194.095 0 .19-.04.104-.052.19-.123.085-.071.132-.163.057-.102.057-.215 0-.132-.076-.163-.066-.04-.17-.04-.076 0-.152.01-.066.01-.142.01h-.029q.048-.153.142-.256.095-.102.218-.163.124-.071.256-.112.133-.051.256-.102.2-.082.322-.214.124-.143.228-.296l.208-.307q.105-.163.256-.296.01-.071.01-.132v-.123q0-.214-.02-.418-.009-.215-.009-.429 0-.235.057-.47.066-.234.066-.469 0-.204-.047-.388-.047-.194-.047-.398 0-.183.047-.357.047-.184.047-.367 0-.296-.047-.572-.047-.286-.047-.571 0-.388.057-.756.066-.367.066-.745 0-.49-.085-.96-.076-.469-.076-.959v-.183q.01-.123.028-.235.029-.122.076-.204.047-.092.142-.092-.085-.01-.218-.122-.123-.123-.246-.266-.114-.153-.209-.296-.085-.153-.085-.235l-.095.02h-.085q-.133 0-.256-.05l-.227-.102q-.114-.062-.237-.113-.124-.05-.266-.05h-.047q-.038-.256-.123-.49-.076-.235-.076-.5 0-.205.095-.327.104-.123.256-.184.151-.071.322-.092.18-.02.322-.02.265 0 .521.03t.521.031q.2 0 .37-.092.17-.102.36-.102.104 0 .218.051.114.041.228.102l.246.123q.123.05.237.071.18.03.379.03.208 0 .408.021.2.021.379.082.18.051.331.194.076.071.133.163.066.092.066.204zm12.011 13.225q0 .153-.142.255-.133.102-.35.163-.21.062-.465.102-.256.031-.512.051-.246.01-.455.01h-.303q-.247 0-.446.062-.199.061-.379.132-.17.072-.322.133-.152.061-.303.061-.133 0-.228-.091-.085-.092-.218-.092-.151 0-.284-.072-.133-.071-.237-.183-.104-.123-.17-.276-.057-.153-.057-.306 0-.194.085-.327.095-.133.237-.214.142-.092.303-.123.17-.04.322-.04.133 0 .256.04.124.031.228.123.01-.153.076-.255.066-.113.142-.204.076-.103.132-.215.067-.112.067-.275 0-.266-.029-.531-.028-.276-.028-.541 0-.174.028-.347.038-.174.038-.357 0-.204-.028-.419-.02-.214-.02-.428 0-.204.058-.337.058-.133.057-.245 0-.214-.067-.429-.066-.224-.18-.398-.113-.184-.265-.306-.152-.133-.313-.163-.474-.092-.948-.092-.132 0-.246.05-.114.042-.18.042-.057 0-.133-.041-.075-.051-.104-.051-.123 0-.256.05-.123.042-.256.093l-.265.102q-.133.04-.256.04-.208 0-.436.01-.218 0-.436.042-.208.03-.407.132-.19.092-.341.276v.071q0 .205.009.398.01.184.01.388 0 .235-.029.44-.029.205-.133.418-.028.081-.028.142 0 .164.057.317.057.143.057.306 0 .072-.048.153t-.047.174q0 .143.038.275.047.133.104.276.057.132.104.265.048.133.067.276.028.296.19.449.17.143.388.235.218.081.455.153.246.071.426.204-.019.102-.019.153 0 .173.057.326.057.154.057.327 0 .173-.123.276-.114.102-.285.143-.17.05-.35.06-.17.01-.285.01-.019 0-.075-.02-.057-.01-.124-.04l-.113-.041-.086-.03q-.53.111-1.08.142-.55.03-1.09.03-.142 0-.37-.03-.227-.02-.454-.102-.218-.071-.38-.204-.151-.143-.151-.368 0-.102.028-.234.029-.143.086-.276.056-.133.132-.245.076-.112.17-.163.21-.102.465-.153.266-.061.493-.184.237-.133.398-.398.161-.265.161-.796 0-.265-.019-.52-.019-.256-.019-.521 0-.143.01-.286.01-.153.01-.296 0-.439-.048-.867-.038-.44-.038-.878 0-.184.028-.368.029-.193.029-.367 0-.255-.067-.5t-.066-.49q0-.051.01-.071.038-.051.066-.205.028-.163.047-.347.029-.183.038-.347.02-.163.02-.245 0-.244-.048-.48-.038-.244-.038-.49 0-.142.019-.285.028-.153.028-.296 0-.061-.019-.071-.019-.02-.047-.031-.028-.01-.047-.03-.02-.031-.02-.123 0-.082.086-.204.085-.133.085-.245 0-.092-.057-.255-.057-.174-.151-.347-.086-.174-.19-.317-.095-.143-.18-.194-.18-.091-.417-.132-.227-.051-.436-.123-.208-.081-.35-.235-.143-.153-.143-.459 0-.275.143-.449.142-.184.35-.296.218-.112.465-.153.246-.051.445-.051.142 0 .313.02.18.01.35.051.18.041.342.102.17.052.293.123.228-.082.465-.133.237-.05.483-.05.142 0 .303.03.17.03.304.122.142.092.227.256.095.153.095.408 0 .112-.029.183-.028.062-.094.062-.256 0-.522.132-.256.123-.473.337-.218.215-.36.49-.133.265-.133.541 0 .133.028.255.085.317.142.623.057.306.057.633 0 .275-.038.55-.038.266-.038.542 0 .357.152.581.161.215.407.337.246.122.531.163.294.041.569.041.275 0 .55-.02.274-.03.559-.03.284 0 .559.08.275.072.559.072.104 0 .208-.01.105-.02.18-.071.029-.02.086-.072.066-.05.132-.092.076-.05.133-.091.066-.041.095-.041.161-.03.246-.204.086-.174.124-.388.047-.225.056-.45.01-.234.01-.377 0-.163-.048-.316t-.113-.296q-.057-.153-.105-.306-.047-.154-.047-.327 0-.204.029-.408.037-.215.037-.419 0-.428-.151-.643-.142-.214-.36-.316-.218-.102-.484-.133-.255-.03-.473-.092-.218-.071-.37-.214-.142-.143-.142-.47 0-.214.085-.336.085-.123.218-.184.142-.071.303-.092.161-.02.313-.02.303 0 .588.04.293.041.597.041.284 0 .625-.06.341-.062.692-.062.19 0 .445.03.256.021.493.103.237.081.398.245.161.163.161.449 0 .194-.094.316-.095.112-.237.204-.142.082-.323.143-.18.061-.35.133-.17.061-.313.153-.142.081-.208.224-.067.123-.086.276-.01.153-.01.296 0 .265.02.52.028.256.028.521 0 .919-.057 1.827-.057.898-.057 1.806v.633q.01.306.038.623.02.296.105.582.085.275.085.571 0 .143-.029.225-.029.082-.066.142-.028.062-.057.113-.028.05-.028.112 0 .174.076.337.076.163.075.337 0 .224-.047.449-.038.224-.038.449 0 .02.029.163.038.133.075.296.048.163.095.306.048.143.076.174.114.122.275.183.16.062.341.113.18.04.35.092.18.05.313.153.095.071.209.194.123.112.123.255zm11.732-9.612q0 .041-.047.163-.047.123-.114.266-.057.143-.123.265-.066.123-.104.164l.019.01q-.02 0-.038.01h-.048q-.038.01-.085.01h-.085l.038-.01q-.218-.01-.398-.082-.17-.081-.285-.296-.019-.04-.056-.143-.038-.112-.076-.234-.038-.123-.067-.225-.019-.112-.019-.163 0-.082.01-.174.019-.092.019-.173 0-.317-.057-.623t-.057-.622q0-.204.048-.398.047-.194.17-.358h-.047q-.114 0-.18-.071-.067-.082-.218-.082-.36 0-.702.092-.342.092-.72.092h-.303q-.152-.01-.313-.01-.294 0-.578.071t-.55.072q-.028 0-.028-.01 0-.02.066-.052.067-.04.067-.06 0-.042-.067-.042h-.076q-.075 0-.132.082-.048.082-.152.112-.142.041-.303.041h-.313q-.095 0-.275-.01-.18-.01-.36-.04-.18-.042-.332-.113-.142-.082-.16-.225-.105.03-.143.113-.028.071-.057.153-.019.081-.066.153-.047.061-.19.071-.265.02-.34.184-.077.163-.077.367 0 .113.01.225t.01.224q0 .409-.02.817-.009.398-.009.806v.47q.01.285.038.571.038.276.104.5.067.215.19.245.076.02.16.031h.171q.332 0 .645-.082.322-.081.654-.081.132 0 .246.04.123.041.247.041.18 0 .274-.183.105-.194.143-.44.047-.254.056-.51.01-.255.01-.377 0-.255-.02-.5-.009-.255-.009-.51h.057q.237 0 .446.081.208.082.436.082.094 0 .142-.01 0 .204.066.408t.067.418q0 .266-.266.337.076.143.123.286.048.143.048.296 0 .112-.02.224-.018.102-.018.215 0 .102.057.163.066.051.066.122 0 .123-.095.307-.085.183-.085.377 0 .225.038.47.038.245.085.51.048.265.086.541.037.265.037.54 0 .164-.018.338-.01.173-.067.337-.047.153-.142.285-.085.133-.227.225-.18-.02-.304-.112-.123-.102-.208-.235-.076-.143-.123-.306-.038-.174-.057-.347-.038-.266-.038-.49 0-.225-.095-.378-.085-.163-.341-.255-.246-.092-.777-.092-.152 0-.436.03-.275.031-.55.113-.275.071-.483.214-.2.143-.2.358 0 .122.02.245.028.112.028.234 0 .102-.01.204-.009.102-.009.215 0 .275.029.55.028.266.028.542 0 .296-.076.582-.066.285-.066.581 0 .327.142.52.152.185.38.287.227.091.492.122.265.03.493.03.455 0 .91-.06.455-.062.91-.062.284 0 .568.03.284.032.569.032.218 0 .483-.01.265-.021.502-.103.247-.081.417-.234.18-.164.228-.46.01-.081.047-.112.048-.04.095-.061.057-.03.095-.061t.038-.103q0-.081-.057-.183-.057-.113-.076-.204-.038-.194-.047-.388v-.398q0-.306.085-.531.095-.235.095-.51 0-.082-.01-.153v-.153q0-.062.085-.123.086-.061.2-.102.113-.051.227-.082.114-.03.17-.03.237 0 .39.183.15.174.227.43.085.254.113.53.029.275.029.47 0 .316-.048.714-.048.398-.132.816-.076.419-.18.817-.105.388-.209.684-.057.142-.114.214-.047.071-.113.122-.057.041-.133.092-.066.041-.152.143-.075.092-.293.123-.209.03-.446.03-.18 0-.341-.01-.161-.01-.246-.01-.313 0-.512.081-.19.082-.36.082-.124 0-.161-.05-.038-.062-.114-.062-.067 0-.123.061-.056.061-.171.061h-.237q-.114-.01-.237-.01-.71 0-1.412.041-.701.051-1.412.071-.483.02-.957.123-.474.102-.957.102-.171 0-.389-.04-.218-.032-.417-.123-.19-.092-.322-.245-.133-.164-.133-.398 0-.225.152-.429t.36-.378q.218-.173.445-.316.228-.153.37-.286-.01-.081-.01-.153v-.449q.01-.153.057-.306.02-.092.095-.215.085-.132.085-.224 0-.072-.028-.133-.019-.061-.038-.132-.104-.276-.152-.49-.038-.215-.038-.52v-.317l.02-.266q.018-.132.047-.265.038-.143.095-.316-.038-.072-.086-.215-.047-.143-.047-.224l.133-1.45q-.01-.03-.01-.102 0-.091.029-.183.028-.092.028-.194 0-.235-.076-.46-.076-.234-.076-.469 0-.082.038-.194t.076-.245q.047-.133.085-.286.038-.163.038-.347 0-.143-.066-.245-.057-.102-.057-.234 0-.123.057-.245t.057-.266q0-.204-.076-.388-.066-.193-.142-.367-.114-.255-.18-.408-.057-.163-.142-.255-.086-.102-.237-.143-.142-.051-.417-.072-.133-.01-.256-.081-.114-.082-.209-.204-.085-.123-.142-.266-.057-.143-.057-.275 0-.184.152-.307.152-.132.389-.204.236-.081.53-.122.294-.051.569-.072.284-.03.512-.04.237-.01.36-.031.19-.03.37-.041.18-.011.369-.01.37 0 .74.03.378.02.748.02.398 0 .777-.08.389-.082.787-.082.36 0 .71.091.351.082.692.082.332 0 .654-.082.322-.091.654-.091.142 0 .284.03.209.245.38.408.18.164.303.337.132.164.208.388.085.225.114.592.01.133.01.327 0 .183.009.367.01.174.047.317.048.142.142.173 0 .143-.132.143.01.143.057.296.047.143.094.296.048.143.086.296.038.143.038.275zm-8.207 2.51q-.056 0-.104.021-.047.02-.066.092.36.225.568.429.218.194.332.316.123.123.18.143.057.01.114-.133.076-.183-.028-.347-.095-.163-.275-.275-.17-.112-.38-.174-.198-.071-.34-.071z" aria-label="JUHE"/><path fill="#fff" d="M89.826 158.75q0 .032-.023.057-.02.026-.05.051-.03.023-.06.043-.032.02-.052.037-.048.04-.116.04-.046 0-.088-.012-.04-.011-.086-.011-.02 0-.03.008-.038.023-.072.026-.034.003-.074.003-.023 0-.062-.02-.037-.023-.04-.045l.02-.02q-.032.011-.043.025-.011.014-.017.032l-.006.036q-.003.02-.014.04-.014.029-.045.034-.029.006-.06.026-.029.02-.051.074-.023.051-.023.173 0 .054.006.106.005.05.005.102 0 .102-.017.205-.017.1-.017.204 0 .063-.02.12-.017.057-.017.12 0 .087.074.121-.02.009-.031.046-.012.034-.02.08-.006.042-.009.085v.088q0 .02.003.043l.006.04q.003.016.011.025.023.023.023.057t-.011.068q-.012.031-.012.066 0 .139.017.278.02.137.02.276 0 .09-.02.182-.017.09-.017.182 0 .082.029.13t.077.075q.048.025.11.034.063.008.131.008.108 0 .213-.017.108-.02.214-.02.105 0 .162.066.06.065.06.167 0 .077-.026.145-.023.066-.068.114-.043.051-.106.08-.062.028-.142.028-.057 0-.128-.014-.113-.023-.227-.034-.114-.009-.233-.009-.1 0-.2.003-.099.006-.198.006-.12 0-.236-.003-.117-.003-.236-.003-.043 0-.083-.014-.04-.014-.08-.014-.028 0-.065.008-.037.012-.08.023-.04.011-.085.02-.045.011-.09.011-.106 0-.183-.048-.076-.045-.076-.162 0-.037.008-.071.003-.026.026-.071.025-.046.057-.088.034-.046.068-.077.037-.031.065-.031.023 0 .043.011.023.011.048.028.029.015.066.026.037.011.088.011.102 0 .213-.02.11-.02.202-.068.094-.05.153-.13.06-.083.06-.205 0-.046-.006-.088l-.011-.091q-.017-.148-.02-.299-.003-.15-.003-.301 0-.1.026-.19.025-.095.025-.194 0-.057-.02-.108t-.02-.105q0-.026.006-.051.009-.026.009-.055 0-.062-.014-.119-.012-.06-.012-.12 0-.099.02-.198.023-.1.023-.2 0-.06-.014-.119-.015-.06-.032-.116l-.028-.117q-.014-.06-.014-.12 0-.036.008-.076-.017-.04-.048-.063-.031-.022-.068-.042l-.074-.04q-.034-.02-.054-.057-.023.003-.029.023-.005.017-.008.04-.003.02-.012.04-.005.016-.03.02-.08.008-.163.013-.08.006-.16.006-.045 0-.113-.006-.065-.005-.128-.025-.06-.02-.102-.057-.043-.037-.043-.102 0-.04.017-.083.02-.045.046-.088.028-.043.06-.08l.06-.068q.02-.02.059-.034.04-.014.088-.02.051-.005.108-.008t.114-.003q.07 0 .13.003h.103q.071 0 .173-.003.106-.006.2-.014l.164-.017q.071-.012.074-.023.017.008.04.028l.051.034.054.032q.026.014.04.014.017 0 .026-.012.011-.014.017-.03.008-.018.011-.035.003-.02.003-.031h.02q.062 0 .082.037.023.037.023.088 0 .011-.003.02v.017q.029-.006.04-.026.014-.023.023-.045.008-.023.02-.04.014-.017.045-.017.011 0 .034.006h.02q.063.05.097.08l.057.042.025.014.009.003.02.003q.017.003.017 0 0-.012-.014-.02-.012-.011-.029-.023-.014-.011-.028-.025-.012-.015-.012-.032.034 0 .054-.008.02-.012.034-.023l.029-.026q.017-.011.043-.011.036 0 .056.011.02.012.034.026.015.011.026.023.011.011.031.011.015 0 .023-.003.011-.003.026-.003.02 0 .025.017l.009.032q.008.042.014.065t.014.04q.008.017.02.037.014.017.037.051.017.023.017.048zm-1.424.188q.017-.023-.009-.051-.025-.029-.057-.029-.034 0-.045.034-.009.032-.009.057.006.02.017.032.009.011.02.02.012.008.026.008.023 0 .034-.009.011-.01.017-.025.006-.014.006-.037zm4.868.609q0 .051-.004.105 0 .052-.011.1-.006.025-.026.057-.02.028-.048.057-.026.025-.057.045-.031.017-.057.017-.042 0-.054-.034-.011-.034-.017-.074-.003-.04-.017-.074-.011-.034-.057-.034-.014 0-.025.006-.009.005-.023.005-.006 0-.011-.034l-.015-.082q-.008-.048-.02-.097-.01-.051-.025-.085l-.054-.111q-.026-.06-.026-.125 0-.046.017-.077.017-.034.037-.062l.037-.057q.017-.029.017-.068 0-.057-.037-.1-.037-.043-.093-.068-.054-.029-.117-.04-.06-.014-.105-.014-.077 0-.15.02-.072.017-.146.042l-.142.054q-.071.029-.142.049.014.04.017.082.006.043.006.085 0 .097-.009.194-.009.094-.009.19 0 .105.012.21l.023.205q.014.103.025.208.012.102.012.205 0 .125-.043.244-.009.023-.009.037 0 .031.015.063l.03.062q.02.031.035.066.014.034.014.07 0 .035-.011.066t-.012.063q0 .045.012.088.014.042.014.088 0 .025-.014.031-.012.006-.029.006t-.03.003q-.012 0-.012.014 0 .043.017.082.02.037.02.08 0 .037-.017.071-.015.031-.015.068 0 .037.032.066.034.028.048.068.014.048.023.11.011.063.04.12.03.057.093.097.063.037.185.037h.083q.034 0 .082.006.051.005.097.022.048.015.08.046.034.028.034.074 0 .045-.018.088t-.017.088q0 .014.006.043-.043 0-.077.02-.031.017-.045.06-.057-.012-.117-.015-.057-.006-.113-.006-.145 0-.288.023-.142.02-.287.046l-.287.045q-.142.02-.287.02-.048 0-.12-.003-.07-.003-.136-.02-.065-.017-.114-.051-.045-.037-.045-.105 0-.08.014-.117.017-.04.04-.054.023-.017.051-.02.031-.003.06-.011.008-.009.008-.017 0-.014-.014-.023-.011-.011-.026-.017.049-.043.108-.06.063-.017.126-.022l.13-.012q.066-.005.123-.028.022-.009.048-.049.026-.04.045-.088.023-.048.035-.096.014-.049.014-.074v-.006q-.02-.136-.032-.267-.01-.131-.01-.267 0-.012.008-.037.008-.029.022-.057.012-.032.032-.071-.023-.037-.04-.069l-.026-.054q-.011-.025-.011-.04 0-.034.011-.065t.017-.062q.017-.12.017-.242 0-.051-.008-.1-.006-.05-.017-.1-.037-.172-.037-.357 0-.216.028-.43.029-.213.029-.429 0-.074-.026-.114-.025-.042-.1-.065-.099-.029-.207-.046-.105-.017-.21-.017-.08 0-.168.02-.085.017-.16.06-.07.04-.119.108-.045.065-.045.16 0 .048.005.093.006.046.006.094 0 .045-.02.08-.017.03-.017.062 0 .043.023.08.023.037.023.08 0 .028-.015.062-.01.034-.028.07l-.034.07q-.014.033-.023.062-.014.042-.037.074-.023.03-.07.03-.04 0-.075-.025-.034-.028-.034-.068 0-.031.014-.048.017-.02.017-.046 0-.028-.011-.057-.011-.03-.028-.06-.015-.03-.026-.062-.011-.031-.011-.062 0-.04.011-.077.014-.037.014-.077 0-.085-.028-.168-.026-.082-.026-.167 0-.077.017-.182.017-.106.057-.202.043-.097.108-.162.068-.069.17-.069.072 0 .14.017.071.015.145.015.082 0 .165-.015.082-.014.165-.014.057 0 .105.02.051.017.108.017.034 0 .057-.014.026-.017.057-.017.034 0 .065.017.034.014.068.014.032 0 .057-.008.029-.009.057-.009.043 0 .083.012.042.01.082.01l.344-.042.154-.011q.076-.006.156-.006.136 0 .27.023.137.02.273.051v.003q.094.023.134.097.04.074.05.17.015.094.012.194-.003.1.003.17l.02.22q.014.107.014.215zm3.368 1.15q-.022.056-.065.093-.043.037-.074.08-.034.006-.091.011-.054.003-.088.037-.074-.025-.16-.03-.082-.01-.167-.015-.085-.009-.168-.023-.08-.017-.148-.06-.076.043-.165.043-.054 0-.105-.011-.05-.015-.096-.032-.069.006-.134.009-.063.003-.122.003-.077 0-.148-.003t-.142-.003q-.108 0-.216.009-.106.008-.234.037-.008-.003-.008-.018 0-.008.003-.017.003-.011.003-.02 0-.028-.057-.028-.034 0-.046.023-.008.023-.022.042-.049-.008-.089-.008-.042 0-.088.008-.042.006-.096.018-.074-.029-.12-.083-.045-.054-.074-.122-.025-.068-.037-.142-.008-.077-.008-.151v-.048q.022-.017.054-.026.031-.009.062-.014.034-.009.063-.02.031-.011.048-.034.043.045.105.06.063.01.131.017.071.002.142.01.071.007.134.04.063-.03.122-.04.06-.008.117-.008.048 0 .094.003.045.003.09.003.055 0 .106-.008.028.025.07.037.046.008.1.008.074 0 .151-.014.08-.014.14-.031.04.025.082.037.042.008.085.008.088 0 .18-.023.093-.025.19-.025.09 0 .173.037.014-.037.037-.06.026-.023.057-.04.054.026.117.046.065.017.122.042.057.023.1.06.045.034.062.097-.009.028-.023.028t-.028-.008q-.014-.009-.037-.009h-.012q0 .023.015.031.014.006.03.009l.035.006q.017.003.02.02-.003.01-.003.022v.017q0 .074.031.123zm-2.595-.339h-.009q-.003-.003-.009-.003-.03 0-.054.029-.022.028-.022.057 0 .017.011.031.011.011.037.014.02-.003.026-.017.005-.017.005-.034.003-.02.003-.04.003-.023.012-.037zm5.768 1.285q0 .037-.014.074-.011.034-.028.071l-.034.068q-.015.035-.02.072-.015.076-.06.139-.043.06-.1.114-.056.054-.119.105-.062.048-.11.1-.043.042-.092.042-.028 0-.054-.006-.025-.006-.054-.006-.04 0-.065.015-.023.014-.046.031-.02.014-.05.028-.03.015-.08.015-.037 0-.072.02-.034.02-.068.02-.048 0-.114-.029-.062-.028-.139-.028-.048 0-.097.005-.048.003-.096.003-.043 0-.085-.011l-.08-.029q-.037-.017-.077-.028-.04-.014-.082-.014-.086 0-.145.042-.06.043-.108.094-.046.054-.094.097-.046.042-.105.042-.054 0-.074-.02-.017-.016-.023-.042l-.006-.057q-.003-.028-.025-.051-.043-.046-.057-.083-.014-.04-.014-.102 0-.136.022-.264.026-.131.026-.268 0-.048-.011-.093-.012-.046-.029-.083l-.025-.062q-.012-.026-.012-.037 0-.026.014-.054.015-.029.032-.052.02-.025.04-.04.022-.016.036-.016.029 0 .049.014.023.014.042.031.023.014.043.029.023.014.054.014h.009q.002-.003.008-.003.04.065.063.142l.045.148q.026.07.06.14.037.065.102.116l.04.031.046.034q.025.017.048.029.025.011.045.011.032 0 .06-.006.031-.005.063-.005.042 0 .042.028 0 .006-.005.023h.054q.108 0 .216-.026.108-.025.219-.025.05 0 .102.011.054.009.097.04.054-.026.09-.066.038-.04.075-.076.036-.04.082-.069.045-.03.117-.034.014-.017.014-.04.003-.022.003-.042 0-.023.002-.043.006-.02.023-.037.029-.025.043-.05.017-.03.017-.07 0-.076-.043-.141-.042-.069-.11-.123-.066-.056-.154-.1-.085-.045-.176-.076-.089-.031-.171-.045-.082-.017-.145-.017-.071 0-.142.014-.068.011-.134.042 0-.062-.028-.082-.029-.02-.068-.028-.04-.009-.083-.023-.04-.017-.062-.071-.049.062-.123.09-.07.03-.145.03-.074 0-.136-.03-.063-.028-.114-.076-.048-.048-.08-.111-.028-.063-.03-.134-.004-.048-.02-.085-.018-.037-.038-.071-.02-.034-.037-.071-.014-.037-.014-.088 0-.128.011-.2.015-.073.035-.11.02-.04.042-.054.026-.017.051-.031.026-.017.049-.046.023-.028.037-.09.008-.044.025-.058.017-.014.06-.02.037-.005.048-.017.012-.011.015-.025l.011-.029q.006-.017.028-.031.06-.04.117-.048.06-.012.122-.012.037 0 .071.003h.074q.12 0 .233-.011.114-.012.233-.012.091 0 .165.02.077.017.134.04.057.023.097.043.042.017.068.017.048 0 .09-.017.046-.02.095-.023.022.02.05.037.032.014.063.014.023 0 .035-.014.011-.014.014-.037.04.011.077.04.037.028.065.068.031.037.048.083.017.042.017.082 0 .105-.017.21-.014.103-.014.208 0 .108.029.202-.04.031-.089.057-.045.022-.076.065l-.003-.003-.051-.043q-.029-.028-.063-.054-.031-.025-.063-.042-.03-.02-.056-.02h-.006q-.014-.009-.026-.02-.008-.011-.008-.028 0-.029.017-.052.017-.022.017-.05 0-.01-.026-.04-.025-.032-.06-.063-.03-.034-.062-.06-.031-.028-.045-.031-.029-.006-.06-.02l-.063-.028q-.03-.015-.06-.026-.025-.011-.042-.011-.037 0-.074.01t-.077.012h.003l-.128-.014q-.094-.011-.185-.045-.09-.034-.187-.034-.086 0-.125.04-.04.04-.066.09-.025.049-.05.088-.027.04-.086.04-.017 0-.026-.003.029.091.051.154.026.062.06.114.034.048.085.093.052.043.131.094.009.006.023.02.017.014.034.031l.031.026q.017.011.026.011.048 0 .09-.022.046-.023.095-.023.034 0 .062.017.032.014.066.014t.065-.011q.031-.014.068-.014.014 0 .029.003l.031.005q.085.023.17.023.086-.003.174 0 .063 0 .125.023.066.022.125.06.06.034.111.079.051.046.088.094.029.04.063.07.034.032.065.066.034.032.06.069.025.036.037.085.014.057.037.125.025.068.025.122zm3.389-.372q0 .04-.014.077-.011.034-.028.06-.015.025-.029.042-.011.017-.011.02 0 .029.017.06.02.031.02.068 0 .017-.014.023-.012.006-.026.006-.026 0-.043-.006.003.054.009.105.008.051.008.105 0 .083-.017.108-.014.023-.03.029l-.035.014q-.014.006-.014.051 0 .026-.037.066-.034.04-.086.08-.048.04-.102.068-.051.028-.082.028-.009 0-.02-.006 0 .023.003.049l.002.048q0 .037-.022.051l-.051.023q-.043.02-.089.06l-.093.076q-.049.04-.1.069-.048.03-.102.03-.046 0-.086-.022-.037-.023-.088-.023-.045 0-.076.012l-.06.028q-.026.017-.054.029-.029.014-.066.014-.074 0-.147-.04-.074-.037-.143-.06-.04-.014-.085-.022-.045-.006-.088-.015-.043-.008-.082-.028-.037-.017-.066-.051-.06-.074-.14-.122-.079-.049-.161-.091-.083-.043-.16-.089-.076-.048-.133-.125-.043-.06-.097-.128-.054-.07-.102-.148-.046-.076-.077-.156t-.031-.156q0-.057.011-.111l.023-.108.026-.111q.01-.054.01-.11v-.032q0-.012-.008-.026-.008-.014-.02-.025-.008-.015-.02-.023-.008-.012-.01-.012-.006 0-.006.003.002-.025.014-.076.014-.054.031-.108.017-.057.034-.103.017-.048.031-.062l.032-.029q.017-.017.017-.042t-.003-.049q-.003-.025-.003-.051 0-.034.009-.04.008-.008.022-.008.014 0 .029-.003.014-.006.028-.032l.049-.093q.025-.046.054-.083.028-.037.065-.068.037-.031.09-.06.046-.025.09-.062l.09-.074q.046-.037.091-.063.048-.025.102-.025.077 0 .148-.026.074-.028.148-.043.117-.017.23-.03.117-.018.236-.018.066 0 .16.023.093.02.19.054.1.034.185.077.088.042.14.085v.008q0 .04-.015.083-.014.04-.014.08v.01q0 .006.005.007.049 0 .091-.012.046-.014.094-.014.006.048.043.065l.074.032q.034.017.062.062.032.043.057.1.026.054.049.108.025.054.048.088.023.034.04.082.02.046.031.097.014.051.02.102.006.049.006.091 0 .057-.023.097-.02.037-.046.068l-.048.057q-.02.026-.02.06 0 .02.009.037.009.017.022.031.006-.003.023-.006.02-.002.02-.017v-.003q0-.022-.02-.042-.017-.02-.017-.048 0-.006.006-.018.005-.014.014-.014.017 0 .034.023.017.02.031.045.017.023.026.04.009.017.008.012l-.002-.003.002.025q.003.009.003.02zm-.284.023q0-.045-.034-.054-.034-.011-.077-.014-.043-.003-.085-.009-.04-.005-.054-.042v-.029q0-.062-.017-.145-.014-.085-.037-.17-.023-.089-.049-.171-.025-.085-.048-.15l-.037-.106-.014-.04q-.023.006-.037.006-.048 0-.085-.02-.034-.02-.08-.043-.043-.022-.108-.042-.063-.02-.168-.02-.116 0-.23-.014-.114-.017-.23-.017-.16 0-.299.074-.14.07-.244.19-.106.117-.165.265-.06.147-.06.298 0 .063.003.148.003.082.014.168.011.082.037.156.026.071.071.108v.08q.012.011.029.014h.037q.02 0 .034.006.014.002.022.022.037.106.097.162.06.054.128.094.068.037.136.077.069.037.126.11.022-.002.048-.002.025-.003.048-.003.091 0 .177.014.088.012.176.012.094 0 .168-.049.076-.048.13-.122.034-.048.063-.082.028-.035.057-.063.031-.031.065-.057l.085-.062.04-.029q.026-.017.049-.037.025-.023.042-.042.017-.023.017-.043 0-.026-.008-.051-.006-.026-.006-.051 0-.029.009-.069.008-.04.025-.076.02-.037.046-.06.028-.026.068-.026.031 0 .062.014.032.015.057.035.006-.029.006-.043zm3.654 1.074q0 .1-.069.156-.065.06-.159.088-.094.031-.196.04-.1.008-.17.008-.095 0-.157-.017-.06-.017-.105-.037-.046-.017-.08-.034t-.071-.017q-.048 0-.097.017-.045.017-.094.017-.034 0-.056-.011-.02-.011-.035-.028-.014-.015-.028-.026-.011-.011-.028-.011-.02 0-.032.014l-.025.037q-.014.02-.043.034-.025.017-.077.017-.06 0-.116-.014-.057-.012-.117-.012-.06 0-.12.02-.056.023-.107.023-.023 0-.034-.017-.012-.014-.026-.014-.048 0-.102.022-.052.023-.106.023-.028 0-.056-.008-.026-.006-.054-.006-.049 0-.097.023t-.12.022q-.025 0-.113-.008-.086-.006-.176-.02-.091-.014-.165-.037-.071-.02-.071-.045 0-.074.025-.148.029-.074.029-.142v-.006q-.037 0-.043-.04.006-.011.017-.017.014-.009.028-.011.015-.006.026-.015.011-.008.011-.025v-.011q.114.01.222.014.111.003.23.003.111 0 .245-.006.136-.009.25-.043.117-.034.193-.102.08-.071.08-.196v-.066q-.014-.312-.031-.614-.014-.304-.014-.617 0-.082-.015-.159-.011-.08-.011-.16 0-.099.034-.198.037-.1.114-.168-.003-.017-.014-.023-.012-.008-.029-.011l-.034-.006q-.014-.003-.026-.008-.017-.009-.022-.04l-.012-.068q-.002-.037-.008-.071-.003-.037-.017-.057.008-.083.028-.162.02-.08.02-.162 0-.06-.017-.094-.014-.034-.034-.057l-.037-.04q-.014-.02-.014-.048 0-.023.014-.043l-.023-.003q-.028 0-.042.014-.015.015-.029.032-.011.017-.025.03-.015.015-.04.015-.02 0-.046-.008-.048.014-.09.014-.1 0-.2-.026-.096-.028-.196-.028-.054 0-.105.005-.051.003-.102.003-.074 0-.148-.017t-.131-.074v-.034q0-.15.1-.227.102-.077.247-.077.1 0 .196.026.097.025.196.025.054 0 .114-.011.06-.011.122-.026.063-.014.125-.025.066-.012.128-.012.097 0 .182.043.085.04.17.077l-.002.022q0 .026.011.049l.032.042q.017.02.028.043.014.02.014.046t-.008.05q-.006.024-.006.05 0 .062.023.119.025.056.025.122 0 .068-.017.133-.014.066-.014.134 0 .082.02.165.02.082.02.165 0 .068-.023.133-.02.066-.02.131 0 .049.012.097l.03.09q.018.046.03.095.013.045.013.096v.057q0 .046-.008.088-.006.04-.037.077.014.054.028.117.017.062.017.12 0 .028-.005.062-.003.031-.014.065-.009.031-.026.06-.017.025-.04.042.037.108.049.22.01.11.017.221.002.034.01.088l.018.108q.009.051.014.097.009.043.009.06 0 .048-.017.094-.017.045-.017.093 0 .037.017.08.017.04.062.04.034 0 .057-.014l.054-.035q.029-.02.066-.034.04-.017.105-.017.074 0 .139.02.065.02.14.02.053 0 .107-.009.057-.01.108-.022l.108-.026q.054-.011.111-.011.114 0 .19.065.08.066.08.194zm-1.633-3.54q-.01-.012-.028-.023-.014-.011-.034-.011-.014 0-.026.014-.008.011-.008.026l.014.034q.011.005.017.005.023 0 .037-.014.017-.017.028-.031zm.171.79q0-.022-.014-.045-.012-.026-.04-.026-.009 0-.02.003l-.014.006v.122q.023.011.034.011.028 0 .04-.022.014-.026.014-.049zm4.951 2.716q0 .051-.034.108-.032.057-.083.102-.048.049-.105.08-.057.031-.108.031-.088 0-.173-.014-.085-.014-.177-.014-.042 0-.1-.006-.053-.006-.076-.028-.065-.012-.097-.052-.03-.037-.056-.082-.023-.046-.052-.088-.025-.043-.08-.06-.161.071-.286.137-.123.065-.245.113-.12.051-.259.08-.136.031-.327.031-.082 0-.12-.008-.033-.009-.053-.029-.017-.017-.034-.048-.014-.031-.057-.077-.023-.023-.046-.025-.02-.006-.04-.006h-.014q-.025 0-.048-.009-.02-.011-.031-.057-.009-.034-.034-.076-.026-.046-.06-.091-.031-.046-.065-.083-.035-.037-.063-.057l-.003-.281q-.003-.284.017-.563.02-.279.02-.563 0-.043-.003-.117-.003-.076-.014-.153-.008-.077-.034-.137-.023-.062-.065-.074-.066-.014-.134-.01-.065 0-.13-.004-.066-.003-.129-.02-.06-.017-.113-.074-.032-.03-.06-.076-.026-.046-.026-.094 0-.071.06-.12.062-.05.148-.082.085-.031.173-.046.088-.014.142-.014.157 0 .296.049.142.045.259.15.005.006.005.012 0 .003-.002.005.005.083.022.165.017.08.017.162 0 .046-.014.086-.011.04-.011.088 0 .048.011.096t.012.097q0 .031-.006.063-.006.03-.006.062 0 .088.02.174.02.082.02.17 0 .077-.017.15-.017.072-.04.146-.02.074-.037.148-.017.07-.017.148 0 .105.043.196.042.09.114.159.07.065.162.105.093.037.196.037.088 0 .142-.017.057-.02.09-.043.035-.022.055-.04.023-.02.045-.02.023 0 .04.006.02.003.04.003.04 0 .065-.017.026-.017.046-.04l.043-.042q.022-.023.056-.031.066-.015.114-.037.048-.026.048-.103 0-.014.003-.025.006-.012.029-.012.014 0 .02.009l.022.011q.015-.011.02-.031.005-.02.012-.034.014-.051.05-.091.04-.04.046-.091.006-.057.029-.105.023-.048.023-.103 0-.048-.026-.085-.026-.037-.026-.088 0-.057.02-.114.023-.057.023-.114-.017-.022-.034-.05-.014-.03-.014-.058 0-.048.017-.062.017-.017.017-.034 0-.026-.014-.052-.012-.028-.029-.054-.017-.025-.031-.05-.012-.026-.012-.055 0-.028.009-.054.011-.028.011-.06 0-.045-.022-.08-.02-.036-.054-.059-.032-.025-.074-.037-.04-.014-.08-.02-.071-.008-.122-.008-.051 0-.091-.012-.037-.014-.071-.048-.031-.034-.066-.11-.02-.046-.02-.078 0-.068.06-.108.063-.042.145-.062.083-.023.165-.029.085-.008.134-.008.045 0 .088.008.045.006.09.006.05 0 .095-.017.048-.02.096-.02.069 0 .111.04.043.037.066.1.025.06.034.139.008.077.008.156 0 .105-.008.2-.006.093-.006.15 0 .122.023.23.025.105.025.196 0 .029-.014.057-.011.029-.025.057l-.029.057q-.011.028-.011.057 0 .023.008.04l.02.165q-.014.01-.017.028-.003.017-.003.031 0 .046.009.091.011.043.011.091 0 .054-.011.108-.012.051-.012.105 0 .131.089.202.09.069.213.069.068 0 .136-.023.02.043.054.077.037.03.071.062.034.031.057.071.026.04.026.097zm2.931-.831q0 .091-.02.174-.02.08-.045.159l-.054.159q-.026.08-.04.165-.025.142-.102.236-.077.094-.185.148-.108.057-.242.082-.13.029-.27.043-.14.014-.276.02-.133.005-.247.02-.043-.032-.071-.069l-.054-.07q-.026-.032-.057-.055-.031-.02-.082-.02-.017 0-.029-.045l-.017-.105q-.008-.06-.02-.106-.008-.048-.025-.048-.066 0-.106-.028-.036-.029-.06-.071-.02-.046-.028-.1-.005-.054-.005-.105 0-.04-.017-.074-.017-.034-.037-.065-.02-.035-.037-.069-.017-.034-.017-.07 0-.043.003-.106.005-.065.008-.134.006-.068.009-.133.005-.066.005-.108 0-.051.012-.086.014-.034.031-.06.017-.025.028-.045.015-.02.015-.045 0-.034-.017-.057-.015-.023-.015-.046 0-.03.02-.06t.029-.062q.031-.125.031-.247 0-.026-.003-.049 0-.025-.003-.048-.065-.054-.145-.068-.08-.017-.159-.023-.08-.008-.154-.02-.073-.011-.125-.06-.042-.04-.076-.088-.034-.05-.091-.068-.04-.014-.069-.037-.025-.025-.025-.07 0-.07.04-.103.042-.037.1-.057.056-.023.116-.037.062-.017.105-.048.043-.032.102-.032.026 0 .049.003h.05q.072 0 .117-.022.049-.026.074-.066.029-.043.037-.097.012-.054.012-.116 0-.091-.012-.176-.012-.085-.011-.177 0-.105.028-.193.029-.088.108-.162.017-.014.037-.037.02-.023.043-.043.023-.022.045-.037.026-.014.052-.014.017 0 .028.009.014.005.028.017.063.062.08.094.02.028.02.068 0 .023-.003.051v.068q0 .091.023.18.023.088.023.15 0 .054-.023.105-.02.049-.02.103 0 .04.017.074l.043.062q.025.031.045.066.02.03.02.073.028.02.128.037.1.015.222.026.122.009.247.014.125.006.208.006.074 0 .113.011.04.012.066.026.028.011.05.025.024.015.06.018.046.005.077.025.034.017.034.071 0 .068-.036.108-.035.04-.089.06-.05.02-.11.026l-.111.002q-.083 0-.165-.005-.083-.006-.165-.006-.137 0-.248.026-.11.025-.193.085-.08.06-.125.16-.043.096-.043.244 0 .145.017.284.02.14.02.284 0 .137.003.22.006.082.034.139.037.082.06.187t.057.2q.037.093.1.158.065.063.19.063.043 0 .114-.011.07-.012.142-.035.07-.025.122-.062.051-.04.051-.097 0-.048-.028-.096-.029-.052-.029-.108 0-.04.017-.069.02-.031.049-.054.031-.025.062-.042.034-.02.066-.034.05-.066.122-.108.074-.046.156-.046.057 0 .108.02.054.02.1.051.008.051.008.105zm2.053-2.555q0 .083-.028.17-.026.086-.077.16-.051.071-.125.12-.071.045-.16.045-.06 0-.147-.017-.089-.02-.171-.054-.08-.037-.14-.094-.056-.057-.056-.134 0-.068.014-.139.017-.074.02-.148.028-.014.057-.05l.054-.075q.028-.04.054-.07.028-.032.057-.035l-.015.006q.04-.017.083-.029.045-.011.09-.011.06 0 .143.031.085.029.162.077t.13.114q.053.066.055.133zm1.376 3.46q0 .049-.02.091-.017.043-.051.074-.031.034-.074.054-.043.02-.094.02-.02 0-.025-.005l-.02-.02q-.04-.043-.097-.052-.057-.005-.12-.014-.059-.005-.116-.031-.054-.023-.088-.097-.023-.048-.048-.062-.026-.014-.08-.014-.125 0-.239.04-.114.04-.224.09-.111.049-.228.088-.114.04-.236.04-.068 0-.136-.014-.066-.011-.128-.04-.014.014-.034.02-.017.006-.04.006-.02 0-.04-.003-.017-.003-.031-.003l-.032.009-.034.014.017.028q-.017.026-.076.049-.06.025-.131.042-.068.017-.134.029t-.1.011q-.09 0-.15-.031-.057-.029-.114-.103-.02-.028-.05-.056l-.058-.057q-.025-.032-.045-.066-.017-.034-.017-.07 0-.043.045-.072.046-.028.108-.045.063-.02.125-.026.063-.008.097-.008.068 0 .136.02.069.016.137.016.062 0 .12-.017.058-.017.119-.017.054 0 .105.009.054.006.108.006.068 0 .13-.023.066-.026.123-.066.023-.139.031-.278.012-.14.012-.282 0-.139-.023-.278t-.023-.276q0-.011.006-.011.006-.003.011-.003l.014-.006q.006-.006.006-.023 0-.06-.017-.116-.017-.056-.017-.117 0-.074.02-.145t.02-.145q0-.051-.023-.102t-.06-.091q-.037-.04-.085-.063-.048-.025-.102-.025-.06 0-.12.014-.057.014-.12.034-.062.017-.127.031-.063.014-.134.014-.082 0-.162-.01-.08-.012-.162-.027l-.09-.01q-.05-.007-.095-.02-.045-.015-.076-.043-.032-.029-.032-.083 0-.1.035-.15.036-.055.088-.08.054-.026.12-.031.066-.005.124-.012l.213-.014q.108-.009.216-.009.134 0 .262.017.13.015.264.015.094 0 .18.028t.147.088q.066.057.103.145.037.088.037.205 0 .077-.034.15-.032.072-.083.129.02.036.04.05l.037.023q.017.009.028.026.012.014.012.057 0 .023.005.054.009.028.04.031 0 .154-.003.304-.003.148-.003.299v.256q.003.128.023.256.012.08.046.122.034.042.122.043.128 0 .253-.026.125-.028.253-.028.074 0 .14.037.068.037.127.08l.12.079q.057.037.108.037.023 0 .037.017.014.014.02.037.008.02.008.042.003.023.003.04zm3.169-1.137q0 .04-.015.077-.01.034-.028.06-.014.025-.028.042-.012.017-.012.02 0 .029.017.06.02.031.02.068 0 .017-.014.023-.011.006-.026.006-.025 0-.042-.006.003.054.008.105.009.051.009.105 0 .083-.017.108-.014.023-.032.029l-.034.014q-.014.006-.014.051 0 .026-.037.066-.034.04-.085.08-.048.04-.103.068-.05.028-.082.028-.009 0-.02-.006 0 .023.003.049.003.025.003.048 0 .037-.023.051l-.051.023q-.043.02-.088.06l-.094.076q-.048.04-.1.069-.048.03-.102.03-.045 0-.085-.022-.037-.023-.088-.023-.046 0-.077.012l-.06.028q-.025.017-.054.029-.028.014-.065.014-.074 0-.148-.04-.074-.037-.142-.06-.04-.014-.085-.022-.046-.006-.089-.015-.042-.008-.082-.028-.037-.017-.065-.051-.06-.074-.14-.122-.08-.049-.162-.091-.082-.043-.159-.089-.077-.048-.134-.125-.042-.06-.096-.128-.054-.07-.103-.148-.045-.076-.076-.156-.032-.08-.032-.156 0-.057.012-.111l.022-.108q.015-.057.026-.111t.011-.11v-.032q0-.012-.008-.026-.009-.014-.02-.025-.009-.015-.02-.023-.009-.012-.011-.012-.006 0-.006.003.003-.025.014-.076.014-.054.031-.108.017-.057.035-.103.017-.048.03-.062l.032-.029q.017-.017.017-.042t-.003-.049q-.003-.025-.003-.051 0-.034.009-.04.008-.008.023-.008t.028-.003q.014-.006.029-.032l.048-.093q.025-.046.054-.083.028-.037.065-.068.037-.031.091-.06.046-.025.088-.062l.091-.074q.046-.037.091-.063.049-.025.103-.025.077 0 .148-.026.074-.028.147-.043.117-.017.23-.03.117-.018.237-.018.065 0 .159.023.094.02.19.054.1.034.185.077.088.042.14.085v.008q0 .04-.015.083-.014.04-.014.08v.01q0 .006.006.007.048 0 .09-.012.046-.014.095-.014.005.048.042.065l.074.032q.034.017.063.062.031.043.057.1l.048.108q.026.054.048.088.023.034.04.082.02.046.031.097.015.051.02.102.006.049.006.091 0 .057-.023.097-.02.037-.045.068l-.049.057q-.02.026-.02.06 0 .02.01.037.01.017.022.031.006-.003.023-.006.02-.002.02-.017v-.003q0-.022-.02-.042-.017-.02-.017-.048 0-.006.005-.018.006-.014.014-.014.017 0 .035.023.017.02.03.045.018.023.026.04t.009.012l-.003-.003q.003.014.003.025.003.009.003.02zm-.285.023q0-.045-.034-.054-.034-.011-.077-.014-.042-.003-.085-.009-.04-.005-.054-.042v-.029q0-.062-.017-.145-.014-.085-.037-.17-.023-.089-.048-.171-.026-.085-.049-.15l-.036-.106-.015-.04q-.022.006-.037.006-.048 0-.085-.02-.034-.02-.08-.043-.042-.022-.108-.042-.062-.02-.167-.02-.117 0-.23-.014-.114-.017-.23-.017-.16 0-.3.074-.139.07-.244.19-.105.117-.165.265-.06.147-.06.298 0 .063.003.148.003.082.015.168.01.082.036.156.026.071.072.108v.08q.01.011.028.014h.037q.02 0 .034.006.014.002.023.022.037.106.096.162.06.054.128.094.069.037.137.077.068.037.125.11.023-.002.048-.002.026-.003.049-.003.09 0 .176.014.088.012.176.012.094 0 .168-.049.077-.048.13-.122.035-.048.063-.082.029-.035.057-.063.031-.031.066-.057.036-.028.085-.062l.04-.029q.025-.017.048-.037.026-.023.043-.042.017-.023.017-.043 0-.026-.009-.051-.006-.026-.006-.051 0-.029.009-.069.008-.04.026-.076.02-.037.045-.06.028-.026.068-.026.032 0 .063.014.031.015.057.035.005-.029.005-.043zm4.086 1.146q0 .04-.02.065t-.052.04q-.028.014-.065.017-.034.006-.065.006-.043 0-.086-.006l-.085-.011q-.057.02-.136.04-.077.022-.14.022-.017 0-.034-.005-.014-.006-.028-.006-.049 0-.1.017-.048.02-.096.02-.083 0-.16-.023-.074-.02-.156-.025-.134-.012-.208-.103-.07-.093-.076-.221.088-.054.184-.074.1-.02.2-.02.056 0 .11.003l.114.008q-.009-.213-.037-.426-.028-.214-.028-.43 0-.074.003-.147.005-.074.02-.148t.036-.145q.023-.074.023-.148 0-.048-.014-.088-.014-.043-.037-.086-.02-.034-.026-.076-.005-.043-.014-.086-.008-.045-.025-.088-.017-.042-.057-.077-.037-.034-.105-.054-.069-.02-.18-.02-.034 0-.102.012-.065.008-.136.026-.069.014-.131.036-.06.02-.083.043l-.037.04-.045.054q-.023.026-.046.048-.022.02-.04.023l-.065.014q-.02.006-.034.017-.011.012-.02.034-.008.02-.028.06l-.023.046q-.017.03-.034.03-.014 0-.02-.01-.006-.012-.02-.012-.006 0-.017.009-.009.005-.014.011v.08q-.02.022-.037.025-.014 0-.026.003-.008.003-.014.014-.003.012-.003.054 0 .032-.014.057-.014.026-.031.051l-.029.054q-.014.026-.014.06 0 .057.014.111.017.051.017.108 0 .037-.011.063-.011.025-.029.048-.014.02-.025.04-.011.02-.011.048 0 .04.014.074l.034.065q.017.035.031.071.017.037.017.08 0 .048-.011.1-.012.048-.012.1 0 .059.018.093.02.031.048.048.031.017.07.026.04.008.08.025.043.015.086.043.042.026.08.08l.016-.003q.049 0 .072.04.023.04.022.082 0 .04-.017.071-.017.029-.017.077 0 .034-.074.057t-.167.034q-.094.014-.182.017-.086.006-.114.006l-.105-.003q-.069 0-.157-.006-.085-.003-.179-.011-.094-.009-.173-.026-.08-.014-.137-.04-.054-.022-.068-.057-.014-.034-.028-.074-.015-.042-.015-.082 0-.043.02-.077.023-.034.054-.062.043-.04.094-.046.051-.008.1-.008.05-.003.096-.009.049-.008.083-.045.037-.037.057-.117.022-.08.022-.225 0-.037-.005-.073-.006-.04-.015-.074l-.014-.066q-.005-.028-.005-.042 0-.017.008-.037l.023-.04q.014-.023.023-.049.011-.025.011-.056 0-.049-.02-.094-.017-.046-.017-.094 0-.04.014-.077t.014-.077q0-.03-.017-.06-.017-.028-.017-.062 0-.031.012-.062.011-.035.011-.069 0-.074-.017-.15l-.031-.154q-.017-.088-.066-.13-.045-.046-.105-.069-.06-.023-.125-.037-.065-.014-.12-.042-.053-.032-.09-.086-.034-.057-.034-.165 0-.074.042-.113.046-.04.108-.057.063-.02.131-.023.071-.003.122-.003.083 0 .162.026.083.022.165.028.037.003.071.026.034.02.063.05.028.03.045.066.017.036.02.074 0 .017.012.063l.025.088q.017.045.034.082.02.034.04.034.017-.014.023-.03.009-.02.014-.038.003-.017.037-.045.037-.029.08-.06l.085-.06q.043-.028.06-.045.017-.02.025-.04l.02-.04q.012-.02.026-.031.017-.011.051-.011h.014q.031 0 .06-.026.028-.028.074-.063.045-.034.12-.06.073-.028.195-.028.106 0 .21.006.106.003.2.028.097.026.179.08.085.054.148.15.048.078.08.114.03.037.05.072.02.034.026.082.009.048.009.145 0 .04.014.074l.031.071q.02.034.034.074.015.04.015.09 0 .1-.012.2-.011.097-.011.196 0 .071-.029.14-.025.068-.025.139 0 .034.017.065t.017.071q0 .049-.012.1-.011.048-.011.096 0 .046.02.08.023.034.023.077 0 .023-.012.037-.008.014-.022.028-.012.014-.023.031-.009.015-.009.037 0 .043.02.089.023.042.057.08.034.033.077.056.042.02.085.02.037 0 .063-.014.028-.017.06-.017.04 0 .07.034.035.031.057.077.026.045.037.093.014.049.014.08zm-.615-1.072q0-.028-.02-.054-.017-.028-.048-.028t-.042.031q-.012.028-.012.054 0 .031.012.06.01.028.045.028.028 0 .043-.017.017-.02.022-.068zm.049.546q0-.02-.017-.031-.015-.014-.032-.023-.005.017-.02.034t-.028.037l-.028.04q-.012.02-.012.04 0 .022.014.034.015.011.034.02.003-.017.018-.034.017-.017.03-.037l.026-.037q.015-.02.015-.043zm-1.891-.611q0-.02-.009-.049-.005-.028-.02-.054-.01-.028-.03-.045-.018-.02-.043-.02-.032 0-.054.02-.023.017-.057.017h-.012q-.008.031-.008.06l.003.017.003-.009q.008.031.034.049.025.017.054.03l.062.024q.032.011.054.03.023-.025.023-.07zm5.378.34q0 .037-.014.074-.011.034-.028.071l-.034.068q-.015.035-.02.072-.014.076-.06.139-.043.06-.1.114-.056.054-.119.105-.062.048-.11.1-.043.042-.092.042-.028 0-.054-.006-.025-.006-.054-.006-.04 0-.065.015-.023.014-.046.031-.02.014-.05.028-.03.015-.08.015-.037 0-.072.02-.034.02-.068.02-.048 0-.114-.029-.062-.028-.139-.028-.048 0-.097.005-.048.003-.096.003-.043 0-.085-.011l-.08-.029q-.037-.017-.077-.028-.04-.014-.082-.014-.086 0-.145.042-.06.043-.108.094-.046.054-.094.097-.046.042-.105.042-.054 0-.074-.02-.017-.016-.023-.042l-.006-.057q-.003-.028-.025-.051-.043-.046-.057-.083-.014-.04-.014-.102 0-.136.022-.264.026-.131.026-.268 0-.048-.011-.093-.012-.046-.029-.083l-.025-.062q-.012-.026-.012-.037 0-.026.014-.054.015-.029.032-.052.02-.025.04-.04.022-.016.036-.016.029 0 .049.014.022.014.042.031.023.014.043.029.023.014.054.014h.009q.002-.003.008-.003.04.065.063.142l.045.148q.026.07.06.14.037.065.102.116l.04.031.046.034q.025.017.048.029.025.011.045.011.032 0 .06-.006.031-.005.063-.005.042 0 .042.028 0 .006-.005.023h.054q.108 0 .216-.026.108-.025.219-.025.05 0 .102.011.054.009.097.04.054-.026.09-.066.037-.04.074-.076.037-.04.083-.069.045-.03.116-.034.015-.017.015-.04.003-.022.003-.042 0-.023.002-.043.006-.02.023-.037.029-.025.043-.05.017-.03.017-.07 0-.076-.043-.141-.042-.069-.11-.123-.066-.056-.154-.1-.085-.045-.176-.076-.089-.031-.171-.045-.082-.017-.145-.017-.071 0-.142.014-.068.011-.134.042 0-.062-.028-.082-.029-.02-.068-.028-.04-.009-.083-.023-.04-.017-.062-.071-.049.062-.123.09-.07.03-.145.03-.075 0-.136-.03-.063-.028-.114-.076-.048-.048-.08-.111-.028-.063-.03-.134-.004-.048-.02-.085-.018-.037-.038-.071-.02-.034-.037-.071-.014-.037-.014-.088 0-.128.012-.2.014-.073.034-.11.02-.04.042-.054.026-.017.051-.031.026-.017.049-.046.023-.028.037-.09.008-.044.025-.058.017-.014.06-.02.037-.005.048-.017.012-.011.015-.025l.01-.029q.007-.017.03-.031.06-.04.116-.048.06-.012.122-.012.037 0 .071.003h.074q.12 0 .233-.011.114-.012.233-.012.091 0 .165.02.077.017.134.04.057.023.097.043.042.017.068.017.048 0 .09-.017.046-.02.095-.023.022.02.05.037.032.014.063.014.023 0 .035-.014.011-.014.014-.037.04.011.077.04.037.028.065.068.031.037.048.083.017.042.017.082 0 .105-.017.21-.014.103-.014.208 0 .108.029.202-.04.031-.089.057-.045.022-.076.065l-.003-.003-.051-.043q-.029-.028-.063-.054-.031-.025-.063-.042-.03-.02-.056-.02h-.006q-.014-.009-.026-.02-.008-.011-.008-.028 0-.029.017-.052.017-.022.017-.05 0-.01-.026-.04-.025-.032-.06-.063-.03-.034-.062-.06-.031-.028-.045-.031-.029-.006-.06-.02l-.063-.028q-.031-.015-.06-.026-.025-.011-.042-.011-.037 0-.074.01t-.077.012h.003l-.128-.014q-.094-.011-.185-.045-.09-.034-.187-.034-.086 0-.125.04-.04.04-.066.09-.025.049-.051.088-.026.04-.085.04-.017 0-.026-.003.029.091.051.154.026.062.06.114.034.048.085.093.052.043.131.094.009.006.023.02.017.014.034.031l.031.026q.017.011.026.011.048 0 .09-.022.046-.023.095-.023.034 0 .062.017.032.014.066.014t.065-.011q.031-.014.068-.014.014 0 .029.003l.031.005q.085.023.17.023.086-.003.174 0 .063 0 .125.023.065.022.125.06.06.034.111.079.051.046.088.094.029.04.063.07.034.032.065.066.034.032.06.069.025.036.037.085.014.057.037.125.025.068.025.122zm1.961.174q0 .102-.05.156-.05.054-.112.086-.06.031-.11.054-.052.02-.052.06l.017.022q.012 0 .043.006.034.003.065.011.034.009.06.02.026.012.026.026-.003.011-.012.02l-.017.011q-.023.017-.043.02-.02.003-.034.009-.014.002-.025.017-.012.011-.02.05-.009.035-.031.052-.023.014-.049.026-.023.008-.042.02-.02.01-.02.036v.006q-.066-.048-.145-.048-.083 0-.162.028-.08.026-.162.026-.069 0-.148-.04-.08-.04-.148-.1-.068-.062-.114-.136-.045-.077-.045-.15 0-.02.008-.035.012-.017.026-.031-.014-.037-.034-.048-.02-.012-.04-.017-.017-.006-.031-.018-.012-.014-.012-.054 0-.056-.008-.108-.006-.054-.006-.108 0-.03.003-.062.006-.031.017-.054.014-.026.037-.04.023-.017.06-.017h.014q-.023-.031-.037-.068-.014-.04-.014-.08v-.011q.003-.009.011-.009.014 0 .026.009l.028.008.026-.011q.014-.014.014-.029 0-.014-.009-.022-.009-.008-.011-.023.011-.014.031-.017l.037-.009q.037-.008.048-.02.015-.011.018-.025l.005-.031q.006-.015.029-.026.017-.009.065-.017l.102-.017q.057-.009.108-.014l.077-.009q.017.031.068.048.054.015.123.023l.145.017q.076.009.139.029.065.02.105.057.043.036.043.1l-.003.025-.011.003q-.032 0-.057-.02-.026-.02-.057-.02-.014-.02-.051.008-.037.026-.069.063-.03.034-.042.065-.012.029.028.014.02-.005.037-.017.02-.014.043-.014.011 0 .028.017l.04.032.054.034q.029.014.068.014.037 0 .071-.017l.026.13q.014.066.014.134zm-.435.15q-.017-.033-.05-.048l.002.006q0 .011-.014.023l-.029.017q-.017.008-.031.017-.011.008-.011.014 0 .009.017.012l.022.002q.02 0 .057-.008.037-.012.037-.034zm-.213-.13q-.046.003-.091.014-.043.009-.091.009t-.102-.023v.122q.025-.014.05-.017.026-.006.055-.006h.06q.1 0 .119-.1zm-.404.338v-.008q0-.034-.02-.051-.017-.017-.042-.029t-.054-.02q-.029-.011-.049-.028.009.159.162.162z" aria-label="IT-solutions."/></g></svg>