<svg xmlns="http://www.w3.org/2000/svg" xml:space="preserve" id="Ebene_2_00000003082143268403364210000017331588248483125951_" x="0" y="0" style="enable-background:new 0 0 360 360" version="1.1" viewBox="0 0 360 360"><style>.st2{fill:#f2edd5}</style><g id="bg"><path d="M80 0h200c44.2 0 80 35.8 80 80v200c0 44.2-35.8 80-80 80H80c-44.2 0-80-35.8-80-80V80C0 35.8 35.8 0 80 0z" style="fill:#a13609"/><path d="M95 25h170c38.7 0 70 31.3 70 70v170c0 38.7-31.3 70-70 70H95c-38.7 0-70-31.3-70-70V95c0-38.7 31.3-70 70-70z" style="fill:#2d3f4b"/></g><path id="frame" d="M270 34c14.9 0 28.9 5.8 39.5 16.5S326 75.1 326 90v180c0 14.9-5.9 28.9-16.5 39.5S284.9 326 270 326H90c-14.9 0-28.9-5.9-39.5-16.5S34 284.9 34 270V90c0-14.9 5.8-28.9 16.5-39.5S75.1 34 90 34h180m0-14H90c-38.5 0-70 31.5-70 70v180c0 38.5 31.5 70 70 70h180c38.5 0 70-31.5 70-70V90c0-38.5-31.5-70-70-70z" class="st2"/><path d="M180 272.5c-51 0-92.5-41.5-92.5-92.5S129 87.5 180 87.5s92.5 41.5 92.5 92.5-41.5 92.5-92.5 92.5zm0-170c-42.8 0-77.5 34.8-77.5 77.5 0 42.8 34.8 77.5 77.5 77.5 42.8 0 77.5-34.8 77.5-77.5 0-42.8-34.7-77.5-77.5-77.5z" class="st2"/><path d="M180 272.5c-2.1 0-4-.8-5.4-2.3-48.2-50.6-48.2-129.8 0-180.4 1.4-1.5 3.4-2.3 5.4-2.3s4 .8 5.4 2.3c48.2 50.6 48.2 129.8 0 180.4-1.4 1.5-3.3 2.3-5.4 2.3zm0-166.3c-35.4 42.8-35.4 104.7 0 147.5 35.4-42.7 35.4-104.7 0-147.5z" class="st2"/><path d="M265 187.5H95c-4.1 0-7.5-3.4-7.5-7.5s3.4-7.5 7.5-7.5h170c4.1 0 7.5 3.4 7.5 7.5s-3.3 7.5-7.5 7.5z" class="st2"/></svg>