<svg xmlns="http://www.w3.org/2000/svg" width="726" height="726" fill-rule="evenodd" viewBox="0 0 544.5 544.5"><path fill="#ce3921" d="M105.84 349.5V195.18l89.155-89.15h131.59V.19h-163.29c-12.096 0-16.631 4.536-21.167 9.072L9.078 142.312c-4.535 4.54-9.071 9.08-9.071 21.17l-.001 217.72c.001 12.1 4.537 16.63 9.072 21.17l133.05 133.05c4.536 4.54 9.071 9.07 21.167 9.07h163.29v-105.83h-131.59z"/><path fill="#a6301f" d="M338.68.2v105.84h99.788v332.63H338.68V544.5h193.53c6.046 0 12.095-6.05 12.095-12.09V12.3c0-7.562-6.049-12.098-12.22-12.098z"/><path fill="#7a2416" d="M240.89 332.8h91.738V211.85H240.89l-29.218 29.21v62.52z"/></svg>