<svg version="1.1" xmlns="http://www.w3.org/2000/svg" viewBox="0 0 459.5 123.334">
<g>
	<g>
		<path style="fill:#414652;" d="M196.289,21.686v6.362c0,1.393-0.5,2.582-1.504,3.575c-1.003,0.991-2.202,1.488-3.592,1.488h-0.238
			l5.334,6.294v1.812h-5.472l-6.807-8.105l-7.045,0.032c0.067,0,0.101,0.069,0.101,0.207c-0.044,0-0.079-0.012-0.101-0.036v7.902
			h-5.302V16.622h19.53c1.39,0,2.589,0.496,3.592,1.489C195.788,19.104,196.289,20.295,196.289,21.686z M176.964,21.925v5.852
			h13.955v-5.852H176.964z"/>
		<path style="fill:#414652;" d="M204.91,16.592h14.502c1.39,0,2.582,0.494,3.574,1.486c0.992,0.991,1.488,2.183,1.488,3.573v14.505
			c0,1.391-0.496,2.582-1.488,3.574c-0.992,0.991-2.184,1.486-3.574,1.486H204.91c-1.415,0-2.613-0.49-3.592-1.471
			c-0.981-0.981-1.472-2.177-1.472-3.59V21.651c0-1.413,0.49-2.61,1.472-3.592C202.296,17.081,203.495,16.592,204.91,16.592z
			 M205.148,21.925v13.956h13.955V21.925H205.148z"/>
		<path style="fill:#414652;" d="M252.794,21.925h-19.257v13.956h19.257v5.336h-19.497c-1.414,0-2.611-0.49-3.59-1.471
			c-0.981-0.981-1.472-2.177-1.472-3.59V21.651c0-1.413,0.491-2.61,1.472-3.592c0.979-0.979,2.176-1.468,3.59-1.468h19.497V21.925z"
			/>
		<path style="fill:#414652;" d="M274.617,16.592h5.541v1.845l-8.791,10.467l8.791,10.466v1.848h-5.541l-8.072-9.646h-4.824v9.646
			h-5.334V16.592h5.334v9.643h4.824l3.078-3.658L274.617,16.592z"/>
		<path style="fill:#414652;" d="M308.069,21.651v2.292h-5.37v-2.019h-13.956v4.31h14.263c1.391,0,2.583,0.497,3.575,1.49
			c0.992,0.991,1.488,2.183,1.488,3.574v4.857c0,1.391-0.496,2.582-1.488,3.574c-0.992,0.991-2.184,1.486-3.575,1.486h-14.503
			c-1.391,0-2.582-0.49-3.574-1.471c-0.992-0.981-1.489-2.177-1.489-3.59v-2.292h5.302v2.017h13.956v-4.31h-14.195
			c-1.391,0-2.582-0.489-3.574-1.471c-0.992-0.979-1.489-2.176-1.489-3.592v-4.857c0-1.413,0.497-2.61,1.489-3.592
			c0.992-0.979,2.183-1.468,3.574-1.468h14.503c1.391,0,2.583,0.494,3.575,1.486C307.573,19.069,308.069,20.261,308.069,21.651z"/>
		<path style="fill:#414652;" d="M316.722,16.592h14.504c1.39,0,2.582,0.494,3.573,1.486c0.993,0.991,1.489,2.183,1.489,3.573
			v14.505c0,1.391-0.496,2.582-1.489,3.574c-0.992,0.991-2.183,1.486-3.573,1.486h-14.504c-1.414,0-2.611-0.49-3.591-1.471
			c-0.981-0.981-1.47-2.177-1.47-3.59V21.651c0-1.413,0.489-2.61,1.47-3.592C314.111,17.081,315.308,16.592,316.722,16.592z
			 M316.961,21.925v13.956h13.957V21.925H316.961z"/>
		<path style="fill:#414652;" d="M340.083,41.217V16.556h5.301v19.325h19.327v5.336H340.083z"/>
		<path style="fill:#414652;" d="M366.729,41.217V16.592h5.335v24.625H366.729z"/>
		<path style="fill:#414652;" d="M375.656,16.592h19.531c1.413,0,2.615,0.494,3.609,1.486c0.991,0.991,1.487,2.183,1.487,3.573
			v14.505c0,1.391-0.496,2.582-1.487,3.574c-0.994,0.991-2.196,1.486-3.609,1.486h-19.531V16.592z M380.958,21.925v13.956h13.955
			V21.925H380.958z"/>
	</g>
	<g>
		<path style="fill:#414652;" d="M220.459,61.382v4.582h-10.74v-4.036h-27.911v8.619h28.527c2.781,0,5.164,0.991,7.149,2.975
			c1.983,1.985,2.975,4.368,2.975,7.148v9.715c0,2.783-0.992,5.165-2.975,7.149c-1.985,1.984-4.368,2.975-7.149,2.975h-29.006
			c-2.782,0-5.165-0.979-7.148-2.94c-1.984-1.961-2.976-4.355-2.976-7.184v-4.582h10.603v4.034h27.911v-8.619h-28.39
			c-2.782,0-5.165-0.98-7.148-2.94c-1.984-1.962-2.976-4.356-2.976-7.185v-9.711c0-2.83,0.991-5.223,2.976-7.184
			c1.983-1.962,4.366-2.943,7.148-2.943h29.006c2.781,0,5.164,0.994,7.149,2.976C219.467,56.215,220.459,58.6,220.459,61.382z"/>
		<path style="fill:#414652;" d="M227.847,100.509V51.187h10.603v38.65h38.651v10.672H227.847z"/>
		<path style="fill:#414652;" d="M281.138,100.509V51.255h10.67v49.254H281.138z"/>
		<path style="fill:#414652;" d="M296.255,51.255h39.062c2.827,0,5.233,0.994,7.217,2.976c1.984,1.984,2.976,4.369,2.976,7.151
			v29.003c0,2.783-0.992,5.165-2.976,7.149s-4.39,2.975-7.217,2.975h-39.062V51.255z M306.859,61.928v27.909h27.911V61.928H306.859z
			"/>
		<path style="fill:#414652;" d="M398.8,51.255v10.673h-34.751v8.619h27.979v10.671h-27.979v8.619H398.8v10.672h-45.492V51.255
			H398.8z"/>
		<path style="fill:#414652;" d="M454.758,61.449v12.722c0,2.783-1.004,5.166-3.011,7.15c-2.006,1.984-4.401,2.978-7.182,2.978
			h-0.48l10.672,12.585v3.625h-10.946l-13.613-16.21l-14.091,0.066c0.136,0,0.205,0.136,0.205,0.41
			c-0.092,0-0.161-0.022-0.205-0.066v15.8h-10.604V51.324h39.062c2.781,0,5.176,0.991,7.182,2.974
			C453.754,56.282,454.758,58.667,454.758,61.449z M416.108,61.928v11.698h27.91V61.928H416.108z"/>
	</g>
	<g>
		<polygon style="fill:#737982;" points="24.715,45.505 26.731,45.534 26.731,39.775 26.731,39.732 24.498,39.689 		"/>
		<polygon style="fill:#737982;" points="60.158,77.692 58.652,40.322 42.385,40.021 42.385,45.75 53.925,45.909 55.025,73.375
			42.385,77.384 42.385,81.854 45.155,82.524 		"/>
		<polygon style="fill:#737982;" points="3.979,39.312 5.457,78.349 17.767,81.77 17.541,75.696 10.648,73.749 9.563,45.295
			16.411,45.389 16.28,41.879 16.194,39.54 		"/>
		<polygon style="fill:#646A76;" points="98.029,83.464 95.836,29.717 42.385,28.283 42.385,35.285 90.277,36.306 91.982,78.357
			59.423,87.773 42.385,83.646 42.385,91.384 44.432,92.021 59.705,96.142 		"/>
		<polygon style="fill:#646A76;" points="26.731,79.85 24.241,79.244 22.576,34.862 26.731,34.952 26.731,27.926 26.731,27.863
			15.747,27.567 16.194,39.54 16.28,41.879 17.883,84.858 26.731,87.244 26.731,80.41 		"/>
		<path style="fill:#414652;" d="M30.209,13.871H29.05v1.161v12.894v7.075v1.74v3.034v5.789v33.057v1.789v7.461v1.801v10.524v0.835
			l0.791,0.264l56.141,18.853l0.37,0.126l0.37-0.126l56.141-18.853l0.791-0.264v-0.835V15.032v-1.161h-1.159H30.209z M132.638,93.09
			l-46.286,14.413L40.065,93.09v-0.445v-1.801v-7.763v-1.789v-3.173V45.717v-5.737v-4.745v-7.014v-3.334h92.573V93.09z"/>
	</g>
</g>
</svg>
