<svg xmlns="http://www.w3.org/2000/svg" viewBox="0 0 459.5 123.334"><path fill="#414652" d="M196.289 21.686v6.362c0 1.393-.5 2.582-1.504 3.575-1.003.991-2.202 1.488-3.592 1.488h-.238l5.334 6.294v1.812h-5.472l-6.807-8.105-7.045.032c.067 0 .101.069.101.207-.044 0-.079-.012-.101-.036v7.902h-5.302V16.622h19.53c1.39 0 2.589.496 3.592 1.489 1.003.993 1.504 2.184 1.504 3.575zm-19.325.239v5.852h13.955v-5.852h-13.955zm27.946-5.333h14.502c1.39 0 2.582.494 3.574 1.486.992.991 1.488 2.183 1.488 3.573v14.505c0 1.391-.496 2.582-1.488 3.574-.992.991-2.184 1.486-3.574 1.486H204.91c-1.415 0-2.613-.49-3.592-1.471-.981-.981-1.472-2.177-1.472-3.59V21.651c0-1.413.49-2.61 1.472-3.592.978-.978 2.177-1.467 3.592-1.467zm.238 5.333v13.956h13.955V21.925h-13.955zm47.646 0h-19.257v13.956h19.257v5.336h-19.497c-1.414 0-2.611-.49-3.59-1.471-.981-.981-1.472-2.177-1.472-3.59V21.651c0-1.413.491-2.61 1.472-3.592.979-.979 2.176-1.468 3.59-1.468h19.497v5.334zm21.823-5.333h5.541v1.845l-8.791 10.467 8.791 10.466v1.848h-5.541l-8.072-9.646h-4.824v9.646h-5.334V16.592h5.334v9.643h4.824l3.078-3.658 4.994-5.985zm33.452 5.059v2.292h-5.37v-2.019h-13.956v4.31h14.263c1.391 0 2.583.497 3.575 1.49.992.991 1.488 2.183 1.488 3.574v4.857c0 1.391-.496 2.582-1.488 3.574-.992.991-2.184 1.486-3.575 1.486h-14.503c-1.391 0-2.582-.49-3.574-1.471-.992-.981-1.489-2.177-1.489-3.59v-2.292h5.302v2.017h13.956v-4.31h-14.195c-1.391 0-2.582-.489-3.574-1.471-.992-.979-1.489-2.176-1.489-3.592v-4.857c0-1.413.497-2.61 1.489-3.592.992-.979 2.183-1.468 3.574-1.468h14.503c1.391 0 2.583.494 3.575 1.486.992.994 1.488 2.186 1.488 3.576zm8.653-5.059h14.504c1.39 0 2.582.494 3.573 1.486.993.991 1.489 2.183 1.489 3.573v14.505c0 1.391-.496 2.582-1.489 3.574-.992.991-2.183 1.486-3.573 1.486h-14.504c-1.414 0-2.611-.49-3.591-1.471-.981-.981-1.47-2.177-1.47-3.59V21.651c0-1.413.489-2.61 1.47-3.592.98-.978 2.177-1.467 3.591-1.467zm.239 5.333v13.956h13.957V21.925h-13.957zm23.122 19.292V16.556h5.301v19.325h19.327v5.336h-24.628zm26.646 0V16.592h5.335v24.625h-5.335zm8.927-24.625h19.531c1.413 0 2.615.494 3.609 1.486.991.991 1.487 2.183 1.487 3.573v14.505c0 1.391-.496 2.582-1.487 3.574-.994.991-2.196 1.486-3.609 1.486h-19.531V16.592zm5.302 5.333v13.956h13.955V21.925h-13.955zM220.459 61.382v4.582h-10.74v-4.036h-27.911v8.619h28.527c2.781 0 5.164.991 7.149 2.975 1.983 1.985 2.975 4.368 2.975 7.148v9.715c0 2.783-.992 5.165-2.975 7.149-1.985 1.984-4.368 2.975-7.149 2.975h-29.006c-2.782 0-5.165-.979-7.148-2.94-1.984-1.961-2.976-4.355-2.976-7.184v-4.582h10.603v4.034h27.911v-8.619h-28.39c-2.782 0-5.165-.98-7.148-2.94-1.984-1.962-2.976-4.356-2.976-7.185v-9.711c0-2.83.991-5.223 2.976-7.184 1.983-1.962 4.366-2.943 7.148-2.943h29.006c2.781 0 5.164.994 7.149 2.976 1.983 1.984 2.975 4.369 2.975 7.151zm7.388 39.127V51.187h10.603v38.65h38.651v10.672h-49.254zm53.291 0V51.255h10.67v49.254h-10.67zm15.117-49.254h39.062c2.827 0 5.233.994 7.217 2.976 1.984 1.984 2.976 4.369 2.976 7.151v29.003c0 2.783-.992 5.165-2.976 7.149s-4.39 2.975-7.217 2.975h-39.062V51.255zm10.604 10.673v27.909h27.911V61.928h-27.911zM398.8 51.255v10.673h-34.751v8.619h27.979v10.671h-27.979v8.619H398.8v10.672h-45.492V51.255H398.8zm55.958 10.194v12.722c0 2.783-1.004 5.166-3.011 7.15-2.006 1.984-4.401 2.978-7.182 2.978h-.48l10.672 12.585v3.625h-10.946l-13.613-16.21-14.091.066c.136 0 .205.136.205.41-.092 0-.161-.022-.205-.066v15.8h-10.604V51.324h39.062c2.781 0 5.176.991 7.182 2.974 2.007 1.984 3.011 4.369 3.011 7.151zm-38.65.479v11.698h27.91V61.928h-27.91z"/><path fill="#737982" d="m24.715 45.505 2.016.029v-5.802l-2.233-.043zm35.443 32.187-1.506-37.37-16.267-.301v5.729l11.54.159 1.1 27.466-12.64 4.009v4.47l2.77.67zM3.979 39.312l1.478 39.037 12.31 3.421-.226-6.074-6.893-1.947-1.085-28.454 6.848.094-.131-3.51-.086-2.339z"/><path fill="#646a76" d="m98.029 83.464-2.193-53.747-53.451-1.434v7.002l47.892 1.021 1.705 42.051-32.559 9.416-17.038-4.127v7.738l2.047.637 15.273 4.121zM26.731 79.85l-2.49-.606-1.665-44.382 4.155.09v-7.089l-10.984-.296.447 11.973.086 2.339 1.603 42.979 8.848 2.386V80.41z"/><path fill="#414652" d="M30.209 13.871H29.05v87.16l.791.264 56.141 18.853.37.126.37-.126 56.141-18.853.791-.264v-87.16H30.209zM132.638 93.09l-46.286 14.413L40.065 93.09V24.887h92.573V93.09z"/></svg>