<svg xmlns="http://www.w3.org/2000/svg" xml:space="preserve" viewBox="0 0 171 171"><path d="M0 0h150v150H0z" style="fill:none" transform="scale(1.139)"/><path d="M170.9 23.2A23.2 23.2 0 0 0 147.7 0H23.2A23.2 23.2 0 0 0 0 23.2v124.5a23.2 23.2 0 0 0 23.2 23.2h124.5a23.2 23.2 0 0 0 23.2-23.2V23.2Z" style="fill:#6489a8" transform="rotate(.2)"/><path d="M76.7 116.5c-6 1.8-11.5 5-17.2 7.8a202 202 0 0 1-22 9.4 38.6 38.6 0 0 1-17.7 2.6c-5.8-1.4-6.7-5.6-6.4-11.4.4-8 3.7-17.4 6.7-25.7 3.9-10.9 8.4-21.6 13.3-32.1 8.8-19 18.4-37.9 28.5-56.1 1.5-2.7 3.3-7.2.8-10-2.4-2.6-6.1.4-7.4 2.6a1081.2 1081.2 0 0 0-31.2 58.1c-9.9 20-19.9 41.7-23.4 63.9-1.3 8.1-1.2 17.2 4.1 23.9 4.1 5.2 11.5 6 17.6 5.5 15.8-1.4 31.1-9.4 45-16.5l10.1-5.5c5-3 8.7-19.4-.8-16.5Z" style="fill:#fff" transform="matrix(1.21 0 0 .967 35.4 10.4)"/></svg>