<svg xmlns="http://www.w3.org/2000/svg" viewBox="0 0 128 128"><style>.st2{fill:#fff}</style><path fill="#00144a" d="M0 0h128v128H0z" id="Ebene_3"/><g id="Ebene_2"><path class="st2" d="M108 64L88.6 52.8v8.4H71.1v5.6h17.5v8.4zM45.6 52.8c-5.1 0-9.5 3.5-10.8 8.4H20v5.6h14.7c1.5 5.6 7 9.2 12.7 8.2 5.7-1 9.7-6.2 9.3-12-.5-5.7-5.3-10.1-11.1-10.2"/><path d="M74.3 64c0-15.9-12.9-28.8-28.7-28.8H40v5.6h5.6c12.8 0 23.1 10.4 23.1 23.2S58.3 87.2 45.6 87.2H43v11.9h5.2v-6.5C63 91.3 74.3 78.9 74.3 64" fill="#fa6d6f"/></g></svg>