<svg xmlns="http://www.w3.org/2000/svg" viewBox="0 0 500 432.94"><defs><style>.cls-1{fill:#333a46}.cls-3{fill:#7abfbc}</style></defs><g id="Ebene_2" data-name="Ebene 2"><g id="syscara_import" data-name="syscara import"><path d="M405.52 364.46H0L94.48 0H500l-94.48 364.46zM47.2 387.24a16 16 0 0 1 4.57 2.76l-2.18 3.6a17.13 17.13 0 0 0-3.82-2.11 10.86 10.86 0 0 0-3.82-.68A6.2 6.2 0 0 0 38 392a3.75 3.75 0 0 0-1.45 3.13 3.79 3.79 0 0 0 1.36 3.1 15.38 15.38 0 0 0 4.94 2.17 16.92 16.92 0 0 1 7.34 3.72 8.56 8.56 0 0 1 2.43 6.45 8.66 8.66 0 0 1-3.38 7.37 13.25 13.25 0 0 1-8.24 2.54 15.31 15.31 0 0 1-11.1-4.28l2.73-3.47a12.54 12.54 0 0 0 8.26 3.16 7.25 7.25 0 0 0 4.6-1.34 4.33 4.33 0 0 0 1.71-3.62 5.19 5.19 0 0 0-.62-2.7 5.1 5.1 0 0 0-2.12-1.8 27.63 27.63 0 0 0-4.41-1.64q-4.68-1.37-6.78-3.66a8.86 8.86 0 0 1-.72-10.45 9.09 9.09 0 0 1 3.79-3.22 12.65 12.65 0 0 1 5.44-1.15 14.92 14.92 0 0 1 5.42.93ZM69.68 419.92a22.64 22.64 0 0 1-4.82 9q-3.11 3.31-8.85 4l-.56-4.47a14 14 0 0 0 4.63-1.61 8.23 8.23 0 0 0 2.77-2.7 19.39 19.39 0 0 0 1.92-4.43H63l-9.87-32.67h5.46l7.87 28.52 7.7-28.52h5.3ZM97.36 387.24a15.84 15.84 0 0 1 4.57 2.79l-2.17 3.6a17.58 17.58 0 0 0-3.82-2.11 10.91 10.91 0 0 0-3.83-.68 6.2 6.2 0 0 0-4 1.15 3.75 3.75 0 0 0-1.45 3.13 3.8 3.8 0 0 0 1.37 3.1 15.27 15.27 0 0 0 4.97 2.17 16.87 16.87 0 0 1 7.33 3.72 8.56 8.56 0 0 1 2.43 6.45 8.65 8.65 0 0 1-3.37 7.37 13.29 13.29 0 0 1-8.23 2.55 15.32 15.32 0 0 1-11.11-4.28l2.74-3.47a12.51 12.51 0 0 0 8.25 3.16 7.28 7.28 0 0 0 4.61-1.34 4.35 4.35 0 0 0 1.7-3.62 5.29 5.29 0 0 0-.61-2.7 5.17 5.17 0 0 0-2.12-1.8 28.4 28.4 0 0 0-4.41-1.64q-4.69-1.37-6.78-3.66a8.84 8.84 0 0 1-.73-10.45 9.11 9.11 0 0 1 3.8-3.22 12.61 12.61 0 0 1 5.5-1.15 14.86 14.86 0 0 1 5.36.93ZM124.14 387.15a13.22 13.22 0 0 1 4.19 2.7l-2.46 3.59a12.59 12.59 0 0 0-3-1.83 8.76 8.76 0 0 0-3.26-.58 6.22 6.22 0 0 0-5.56 3.16q-2 3.17-2 9.36t2 9.14a6.29 6.29 0 0 0 5.58 2.95 8.45 8.45 0 0 0 3.18-.59 15.59 15.59 0 0 0 3.23-1.89l2.35 3.72a13.15 13.15 0 0 1-9 3.6 11.21 11.21 0 0 1-9.4-4.47q-3.43-4.45-3.43-12.34a24.44 24.44 0 0 1 1.56-9.11 13.84 13.84 0 0 1 4.44-6.08 11 11 0 0 1 6.83-2.17 13.22 13.22 0 0 1 4.75.84ZM154.33 415.05a3.78 3.78 0 0 0 1.84 1.46l-1.17 4a7.4 7.4 0 0 1-3.68-1.43 6.61 6.61 0 0 1-2.07-3.47 9.61 9.61 0 0 1-8.76 4.9 8.85 8.85 0 0 1-6.86-2.73 10.1 10.1 0 0 1-2.51-7.13q0-5.21 3.37-8t9.57-2.79h4.52v-2.42c0-2.31-.5-4-1.5-5a6.39 6.39 0 0 0-4.64-1.49 23.64 23.64 0 0 0-7.92 1.74l-1.28-4.15a27 27 0 0 1 10.15-2.24q5.19 0 7.76 2.82c1.71 1.89 2.57 4.56 2.57 8v14.95a5.56 5.56 0 0 0 .61 2.98Zm-5.75-3.94v-7.5h-3.85q-8.14 0-8.14 6.7a6.55 6.55 0 0 0 1.28 4.4 4.73 4.73 0 0 0 3.79 1.49q4.41 0 6.92-5.09ZM178.55 386.69l-1 5.58a9.53 9.53 0 0 0-2.57-.38 5.26 5.26 0 0 0-4.41 2.24 17.57 17.57 0 0 0-2.62 6.94v18.66h-5.13v-32.67h4.4l.51 6.63a12.58 12.58 0 0 1 3.18-5.52 6.68 6.68 0 0 1 4.69-1.86 10.76 10.76 0 0 1 2.95.38ZM202.32 415.05a3.78 3.78 0 0 0 1.84 1.46l-1.17 4a7.44 7.44 0 0 1-3.69-1.43 6.6 6.6 0 0 1-2.06-3.47 9.61 9.61 0 0 1-8.76 4.9 8.85 8.85 0 0 1-6.86-2.73 10.1 10.1 0 0 1-2.52-7.13q0-5.21 3.38-8t9.57-2.79h4.52v-2.42c0-2.31-.5-4-1.51-5a6.34 6.34 0 0 0-4.63-1.49 23.54 23.54 0 0 0-7.92 1.74l-1.28-4.15a27 27 0 0 1 10.15-2.24q5.19 0 7.76 2.82c1.71 1.89 2.56 4.56 2.56 8v14.95a5.55 5.55 0 0 0 .62 2.98Zm-5.75-3.94v-7.5h-3.85q-8.15 0-8.15 6.7a6.55 6.55 0 0 0 1.29 4.4 4.73 4.73 0 0 0 3.79 1.49q4.41 0 6.92-5.09ZM229.38 372.49a4 4 0 0 1 1 2.79 3.92 3.92 0 0 1-1 2.76 3.41 3.41 0 0 1-2.62 1.08 3.36 3.36 0 0 1-2.57-1.08 3.92 3.92 0 0 1-1-2.76 4 4 0 0 1 1-2.79 3.29 3.29 0 0 1 2.57-1.12 3.34 3.34 0 0 1 2.62 1.12Zm0 47.24h-5.13v-32.67h5.13ZM273.91 389a11.29 11.29 0 0 1 2.17 7.29v23.43H271V397.1q0-6.32-4.13-6.32a5.2 5.2 0 0 0-3.68 1.39 19 19 0 0 0-3.24 4.37v23.19h-5.13V397.1q0-6.32-4.13-6.32a5.24 5.24 0 0 0-3.74 1.42 19.81 19.81 0 0 0-3.18 4.34v23.19h-5.13v-32.67H243l.45 4.77q3.3-5.52 8.48-5.52a7.19 7.19 0 0 1 4.66 1.55 8.47 8.47 0 0 1 2.76 4.34 14.88 14.88 0 0 1 3.83-4.37 8.19 8.19 0 0 1 4.94-1.52 7.08 7.08 0 0 1 5.79 2.69ZM306.77 390.78q2.63 4.46 2.63 12.58 0 7.69-3 12.4a9.54 9.54 0 0 1-8.53 4.72 9.07 9.07 0 0 1-7.7-3.73v15.5l-5.14.69v-45.88h4.41l.39 4.4a11.73 11.73 0 0 1 3.91-3.81 9.36 9.36 0 0 1 4.8-1.34c3.73 0 6.46 1.49 8.23 4.47Zm-2.9 12.58q0-12.53-6.64-12.52a6.2 6.2 0 0 0-4 1.43 13.52 13.52 0 0 0-3.12 3.65v15.94a8.07 8.07 0 0 0 2.79 2.94 6.92 6.92 0 0 0 3.68 1q7.29.02 7.29-12.44ZM337.44 390.9q3.42 4.59 3.43 12.46a23.65 23.65 0 0 1-1.57 9 13.35 13.35 0 0 1-4.51 6 11.75 11.75 0 0 1-7 2.14 11.41 11.41 0 0 1-9.65-4.59q-3.47-4.59-3.46-12.47a23.84 23.84 0 0 1 1.56-8.95 13.44 13.44 0 0 1 4.52-6 11.84 11.84 0 0 1 7.09-2.14 11.33 11.33 0 0 1 9.59 4.55Zm-17.27 12.52q0 12.46 7.58 12.47t7.59-12.53q0-12.45-7.53-12.46t-7.64 12.52ZM363.63 386.69l-.94 5.58a9.58 9.58 0 0 0-2.57-.38 5.25 5.25 0 0 0-4.41 2.24 17.42 17.42 0 0 0-2.62 6.94v18.66H348v-32.67h4.41l.51 6.63a12.67 12.67 0 0 1 3.17-5.52 6.7 6.7 0 0 1 4.69-1.86 10.71 10.71 0 0 1 2.85.38ZM383.5 418.24a10.53 10.53 0 0 1-6.59 2.24 7.36 7.36 0 0 1-5.83-2.39q-2.08-2.38-2.09-6.92v-19.71h-5.13v-4.4H369v-7.38l5.13-.68v8.06h7l-.56 4.4h-6.42v19.47a6.55 6.55 0 0 0 .81 3.69 3.09 3.09 0 0 0 2.71 1.14 6.91 6.91 0 0 0 3.9-1.42Z" class="cls-1"/><path d="M372.7 234.08a3.74 3.74 0 0 1-3.79 3.8h-3.51V253a22.73 22.73 0 1 1-45.4 0v-15.12H181.86V253a22.73 22.73 0 0 1-45.46 0v-15.12h-2.31a3.75 3.75 0 0 1-3.8-3.8v-45.45c0-14.66 3.28-22.87 17.67-26.5l24.59-49.6c3.69-8.92 13.2-24.61 33.5-24.61H297c18.95 0 30.61 16.52 33.49 24.61l26.36 49.6c15.9 6.19 15.9 11.84 15.9 26.5Zm-47.13-72-24.48-42.26a5.74 5.74 0 0 0-4.14-3.19h-90.9a5.74 5.74 0 0 0-4.15 3.19l-22.7 42.26s19.76 6.19 72.3 6.19c51.63.05 74.07-6.14 74.07-6.14Z" style="fill:#fff"/><path d="M168.17 181.07A18.93 18.93 0 1 0 187.1 200a19 19 0 0 0-18.93-18.93ZM334.83 181.07A18.93 18.93 0 1 0 353.75 200a19 19 0 0 0-18.92-18.93Z" class="cls-3"/></g></g></svg>