<svg xmlns="http://www.w3.org/2000/svg" viewBox="0 0 191.8 150"><path d="M24.92 5.15s-19.53 0-19.53 19.52v101s0 19.53 19.53 19.53h141.9s19.52 0 19.52-19.53v-101s0-19.52-19.52-19.52z" fill="none" stroke="#103a5d" stroke-width="2.514"/><path d="M82.73 105.47a.36.36 0 01.41.4v19.06c0 .3-.17.4-.44.43a31.7 31.7 0 01-5.68.45c-5.3 0-6.37-1.47-6.37-7.4s1.07-7.49 6.23-7.49a29.19 29.19 0 013.64.19v-5.24c0-.27.13-.4.41-.4zm-5.68 7.7c-3.39 0-3.77 1-3.77 5.21s.35 5.19 3.74 5.19a29.9 29.9 0 003.5-.22v-10.18zM97.83 115.12v9.36a.67.67 0 01-.52.75 23.3 23.3 0 01-6.06.58c-3.61 0-5.27-.72-5.27-4.3 0-3.21 1.72-4.12 4.83-4.12h4.4v-1.79c0-1.66-1-2.41-3.55-2.41h-4.1c-.33 0-.41-.08-.41-.4v-1.1c0-.32.11-.37.38-.42a24.47 24.47 0 014.13-.33c4.26-.02 6.17 1.27 6.17 4.18zm-7 4.33c-1.5 0-2.29.48-2.29 2 0 1.76.9 2.16 3.14 2.16a16.38 16.38 0 003.5-.32v-3.85zM104.38 107c.3-.08.47 0 .47.35v3.71h2.87c.3 0 .43.14.43.41v1.25c0 .27-.13.4-.43.4h-2.87v9c0 1.17.33 1.44 1.77 1.44h1.31c.3 0 .44.11.44.37v1.29c0 .24-.14.37-.41.42a7.15 7.15 0 01-1.53.16c-2 0-4.2 0-4.2-3v-9.63h-1.53c-.28 0-.41-.13-.41-.4v-1.25a.36.36 0 01.41-.41h1.53v-3.2a.37.37 0 01.35-.43zM121.75 115.12v9.36a.67.67 0 01-.52.75 23.3 23.3 0 01-6.06.58c-3.6 0-5.27-.72-5.27-4.3 0-3.21 1.72-4.12 4.83-4.12h4.4v-1.79c0-1.66-1-2.41-3.55-2.41h-4.1c-.33 0-.41-.08-.41-.4v-1.1c0-.32.11-.37.39-.42a24.36 24.36 0 014.12-.33c4.26-.02 6.17 1.27 6.17 4.18zm-7 4.33c-1.5 0-2.3.48-2.3 2 0 1.76.91 2.16 3.14 2.16a16.38 16.38 0 003.5-.32v-3.85z" fill="#003764"/><path d="M126.09 93.91H66.18a8.54 8.54 0 01-8.53-8.53V34.53A8.54 8.54 0 0166.18 26h59.91a8.54 8.54 0 018.53 8.53v50.85a8.54 8.54 0 01-8.53 8.53zM66.18 28.54a6 6 0 00-6 6v50.84a6 6 0 006 6h59.91a6 6 0 006-6V34.53a6 6 0 00-6-6z" fill="#103a5d"/><path d="M133.35 46.35H58.92a1.27 1.27 0 010-2.54h74.43a1.27 1.27 0 110 2.54zM79.36 40.27a4 4 0 114-4 4 4 0 01-4 4zm0-5.5a1.48 1.48 0 101.48 1.48 1.48 1.48 0 00-1.48-1.48zM67 40.23a4 4 0 114-4 4 4 0 01-4 4zm0-5.5a1.48 1.48 0 101.48 1.48A1.48 1.48 0 0067 34.73zM91.72 40.31a4 4 0 114-4 4 4 0 01-4 4zm0-5.51a1.48 1.48 0 101.48 1.48 1.48 1.48 0 00-1.48-1.48zM127.87 72h-24.33a1.27 1.27 0 01-1.27-1.27V56.36a1.27 1.27 0 011.27-1.27h24.33a1.27 1.27 0 011.27 1.27V70.7a1.27 1.27 0 01-1.27 1.3zm-23.06-2.54h21.79V57.63h-21.79z" fill="#103a5d"/><path fill="none" stroke="#103a5d" stroke-miterlimit="10" stroke-width="2" d="M71.18 82.26h56.79M71.18 70.55h22.48M71.18 59.09h22.48"/><path d="M117.59 34.52a9.69 9.69 0 00-9.79 9.6c0 3.5 1.52 8.14 4.6 13.79a75.82 75.82 0 004.6 7.43.35.35 0 00.28.14.32.32 0 00.28-.15s2.41-3.56 4.77-7.87c3.18-5.83 4.81-10.25 4.84-13.15a9.69 9.69 0 00-9.58-9.79zm4.38 10a4.5 4.5 0 11-4.46-4.52 4.52 4.52 0 014.49 4.49z" fill="#103a5d"/><circle cx="117.48" cy="44.51" r="4.76" fill="#fff"/><path d="M48.53 55l20.93 21.31a1.18 1.18 0 00.4.27l5.9 2.36a1.26 1.26 0 00.43.08 1.18 1.18 0 00.82-.35 1.21 1.21 0 00.26-1.28l-2.33-6a1 1 0 00-.26-.41L53.77 49.63a1.14 1.14 0 00-.83-.35 1.16 1.16 0 00-.83.35l-3.58 3.65a1.22 1.22 0 000 1.72zm2.47-.86l1.93-2L72.86 72.5l1.24 3.2-3.1-1.25z" fill="#103a5d"/><path fill="#103a5d" d="M50.146 54.164l2.56-2.56 20.336 20.337-2.56 2.56z"/></svg>