<svg xmlns="http://www.w3.org/2000/svg" viewBox="0 0 640 640">
  <g transform="translate(0 -412.36)">
    <g>
      <g transform="translate(11.429 2.8571)">
        <g transform="translate(4.5714 8.5714)">
          <path d="m75.26 837.55c-7.9e-5 31.295 22.217 55.644 52.774 55.644h136.94l0.55873 53.886h-137.5c-71.298 0-106.95-36.51-106.95-109.53v-219.06c-1.6e-5 -73.02 35.649-109.53 106.95-109.53h137.5l0.55874 52.344h-138.62c-30.556 3.7e-4 -53.213 27.584-52.215 58.862" fill="#f47c00"/>
          <path transform="translate(0 412.36)" d="m289.62 96.438v53.188h59.469 1.6562 54.656c48.186 0 86.969 4.3993 86.969 59.469 0 51.17-20.898 64.735-46.688 68.25v0.0937l-96.594 1.125v-107.28h-59.469v288.31h59.469v-127.22h96.594v0.0625c44.647 0.8078 83.594 15.559 83.594 77.531 0 63.205-46.909 70.688-118.88 70.688h-31.75v0.15625h-89.031v53.688h150.19c71.966 0 151.44-18.14 151.44-130.16 0-46.934-16.241-81.347-73.188-103.25 33.793-35.044 35.625-59.485 35.625-96.406 0-92.617-62.558-108.25-165.19-108.25h-98.875z" fill="#563d7c"/>
          <path transform="translate(0 412.36)" d="m289.66 171.28v107.28h-123.47l-0.0625 53.438 123.53 0.375v127.22h59.438v-288.31h-59.438zm-71 309.34v0.1875h41.406v-0.15625h-31.719c-3.2984 0-6.4964 5e-3 -9.6875-0.0312z" fill="#563d7c"/>
        </g>
      </g>
      <rect transform="translate(0 412.36)" x="204.29" y="160" width="166.43" height="0" fill="#fff"/>
    </g>
  </g>
</svg>
