<svg xmlns="http://www.w3.org/2000/svg" viewBox="0 0 640 640"><path fill="#f47c00" d="M91.26 436.618c0 31.295 22.217 55.644 52.774 55.644h136.94l.56 53.886h-137.5c-71.299 0-106.95-36.51-106.95-109.53v-219.06c0-73.02 35.648-109.53 106.95-109.53h137.5l.558 52.344h-138.62c-30.556 0-53.213 27.584-52.215 58.862"/><path fill="#563d7c" d="M305.62 107.866v53.188h115.782c48.186 0 86.969 4.4 86.969 59.47 0 51.17-20.898 64.734-46.688 68.25v.093l-96.594 1.125v-107.28h-59.47v288.31h59.47v-127.22h96.594v.063c44.647.807 83.594 15.559 83.594 77.53 0 63.206-46.91 70.689-118.88 70.689h-31.75v.156h-89.031v53.688h150.19c71.966 0 151.44-18.14 151.44-130.16 0-46.934-16.241-81.347-73.188-103.25 33.793-35.044 35.625-59.485 35.625-96.406 0-92.617-62.558-108.25-165.19-108.25h-98.875z"/><path fill="#563d7c" d="M305.66 182.708v107.28H182.19l-.062 53.438 123.53.375v127.22h59.438v-288.31h-59.438zm-71 309.34v.188h41.406v-.156h-31.719c-3.298 0-6.496.005-9.687-.031z"/></svg>