<?xml version="1.0" encoding="utf-8"?>
<svg version="1.1" id="Ebene_1" xmlns="http://www.w3.org/2000/svg" xmlns:xlink="http://www.w3.org/1999/xlink" x="0px" y="0px"
	 viewBox="0 0 500 500" style="enable-background:new 0 0 500 500;" xml:space="preserve">
<style type="text/css">
	.st0{fill:#FFFFFF;}
	.st1{fill:#5DC4E5;}
	.st2{fill:#232936;}
	.st3{opacity:0.1;}
	.st4{opacity:0.2;fill:#5DC4E5;}
	.st5{opacity:0.2;}
</style>
<path class="st2" d="M444.4,500H55.6C24.9,500,0,475.1,0,444.4V55.6C0,24.9,24.9,0,55.6,0h388.9C475.1,0,500,24.9,500,55.6v388.9
	C500,475.1,475.1,500,444.4,500z"/>
<g>
	<path class="st0" d="M188.7,246.3v35h-12.3v-63.7l38.3,36.1v-35H227v63.7L188.7,246.3z"/>
	<g>
		<path class="st0" d="M108.2,279.9c-3.4-1.7-6.1-4-8-6.9c-1.9-2.9-2.8-6.2-2.8-9.9h12.4c0.1,1.5,0.5,2.9,1.5,4.1
			c0.9,1.2,2.1,2.3,3.7,3c1.6,0.8,3.4,1.2,5.4,1.2c1.8,0,3.4-0.3,4.9-1c1.4-0.7,2.5-1.6,3.3-2.7c0.8-1.1,1.2-2.5,1.2-4.1
			c0-1.8-0.7-3.3-2-4.5c-1.3-1.2-3.4-2.3-6.1-3L114,254c-6.1-1.6-10.3-4-12.7-7.2c-2.3-3.2-3.5-6.7-3.5-10.4c0-3.6,1-6.9,2.9-9.7
			c1.9-2.8,4.5-5.1,7.8-6.7c3.3-1.6,6.9-2.4,10.9-2.4c3.9,0,7.4,0.8,10.6,2.3c3.2,1.5,5.7,3.8,7.5,6.6c1.8,2.9,2.7,6.3,2.6,10.1
			h-12.4c0-2.3-0.8-4.2-2.3-5.8s-3.6-2.3-6.3-2.3c-1.6,0-3.1,0.3-4.4,1c-1.3,0.7-2.3,1.6-3.1,2.8c-0.8,1.2-1.2,2.5-1.2,3.9
			c0,1.2,0.5,2.4,1.4,3.6c0.9,1.2,2.8,2.2,5.7,3l7,2.1c5.5,1.6,9.8,3.8,12.9,6.6c3.1,2.8,4.7,6.7,4.7,11.6c0,3.9-1,7.4-3,10.3
			c-2,2.9-4.7,5.1-8.1,6.6c-3.4,1.5-7.1,2.3-11.1,2.3C115.5,282.4,111.6,281.5,108.2,279.9z"/>
	</g>
	<path class="st0" d="M150.9,218.7h12.3v62.6h-12.3V218.7z"/>
	<polygon class="st0" points="252.5,269 252.5,256.2 272.6,256.2 272.6,243.8 252.5,243.8 252.5,231 279.8,231 283.3,218.7
		240.1,218.7 240.1,281.3 283.3,281.3 279.8,269 	"/>
	<path class="st0" d="M318.3,217.6c-17.9,0-32.4,14.5-32.4,32.4s14.5,32.4,32.4,32.4c17.9,0,32.4-14.5,32.4-32.4
		S336.1,217.6,318.3,217.6z M318.3,270.8c-11.5,0-20.8-9.3-20.8-20.8s9.3-20.8,20.8-20.8s20.8,9.3,20.8,20.8
		S329.8,270.8,318.3,270.8z"/>
	<path class="st0" d="M368.6,279.9c-3.4-1.7-6.1-4-8-6.9c-1.9-2.9-2.8-6.2-2.8-9.9h12.4c0.1,1.5,0.5,2.9,1.5,4.1
		c0.9,1.2,2.1,2.3,3.7,3c1.6,0.8,3.4,1.2,5.4,1.2c1.8,0,3.4-0.3,4.9-1c1.4-0.7,2.5-1.6,3.3-2.7c0.8-1.1,1.2-2.5,1.2-4.1
		c0-1.8-0.7-3.3-2-4.5c-1.3-1.2-3.4-2.3-6.1-3l-7.5-2.2c-6.1-1.6-10.3-4-12.7-7.2c-2.3-3.2-3.5-6.7-3.5-10.4c0-3.6,1-6.9,2.9-9.7
		c1.9-2.8,4.5-5.1,7.8-6.7c3.3-1.6,6.9-2.4,10.9-2.4c3.9,0,7.4,0.8,10.6,2.3c3.2,1.5,5.7,3.8,7.5,6.6c1.8,2.9,2.7,6.3,2.6,10.1
		h-12.4c0-2.3-0.8-4.2-2.3-5.8c-1.5-1.5-3.6-2.3-6.3-2.3c-1.6,0-3.1,0.3-4.4,1c-1.3,0.7-2.3,1.6-3.1,2.8c-0.8,1.2-1.2,2.5-1.2,3.9
		c0,1.2,0.5,2.4,1.4,3.6c0.9,1.2,2.8,2.2,5.7,3l7,2.1c5.5,1.6,9.8,3.8,12.9,6.6c3.1,2.8,4.7,6.7,4.7,11.6c0,3.9-1,7.4-3,10.3
		c-2,2.9-4.7,5.1-8.1,6.6c-3.4,1.5-7.1,2.3-11.1,2.3C375.9,282.4,372,281.5,368.6,279.9z"/>
</g>
</svg>
