<svg xmlns="http://www.w3.org/2000/svg" viewBox="0 0 500 500"><style>.st0{display:none}.st1{display:inline}.st2{fill:#333a46}.st3{fill:none}.st4{fill:#fff}.st5{fill:#7abfbc}.st7{fill:#ef672f}.st10{display:inline;fill:#7abfbc}</style><g id="default"><path d="M405.5 421.2H0L94.5 56.8H500z" class="st2"/><path d="M-7 430h414v60H-7z" class="st3"/><path d="M31.4 485.5H26l-.6-5.4c-2.3 3.9-5.8 6.3-10.1 6.3-8.5 0-13.3-8.1-13.3-20.2 0-11.9 5.2-20.6 13.8-20.6 4.1 0 7.1 2.1 9.5 4.8V430l6.1.8v54.7zm-6.1-10.3v-19.1c-2.2-3.1-4.7-5.1-8.1-5.1-5.3 0-8.5 4.9-8.5 15 0 10.3 2.9 14.9 8 14.9 3.9.1 6.2-2.1 8.6-5.7zm24.4-42.8c0 2.6-1.7 4.6-4.3 4.6-2.5 0-4.3-2-4.3-4.6 0-2.7 1.7-4.7 4.3-4.7 2.6.1 4.3 2.1 4.3 4.7zm-7.3 53.1v-39h6.1v39h-6.1zm45.4-37.2c-2.9 1-6.3 1.2-10.3 1.2 4.1 2.1 6.2 5.3 6.2 9.8 0 7.7-5 13.2-13.4 13.2-1.6 0-3-.2-4.5-.7-1 .8-1.7 2.2-1.7 3.6 0 1.8 1 3.2 4.6 3.2h5.6c7.2 0 12 4.6 12 10.8 0 7.5-5.6 11.8-16.5 11.8-11.5 0-15.1-3.9-15.1-11.8h5.5c0 4.4 1.8 6.5 9.5 6.5 7.6 0 10.3-2.1 10.3-6.1 0-3.7-2.7-5.5-7.1-5.5h-5.5c-6.3 0-9.1-3.5-9.1-7.4 0-2.5 1.3-5 3.9-6.9-4.1-2.4-5.9-5.8-5.9-10.8 0-8 5.8-13.6 13.5-13.6 8.7.2 11.9-1.4 16.1-3.5l1.9 6.2zm-25.1 10.9c0 5.2 2.6 8.8 7.4 8.8s7.4-3.3 7.4-8.9c0-5.7-2.5-8.7-7.5-8.7-4.8.1-7.3 3.7-7.3 8.8zm37.1-26.8c0 2.6-1.7 4.6-4.3 4.6-2.5 0-4.3-2-4.3-4.6 0-2.7 1.7-4.7 4.3-4.7 2.6.1 4.3 2.1 4.3 4.7zm-7.3 53.1v-39h6.1v39h-6.1zm34.8-1.8c-2.3 1.8-4.9 2.7-7.9 2.7-5.9 0-9.5-3.8-9.5-11.1v-23.5h-6.1v-5.3h6.1v-8.8l6.1-.8v9.6h8.3l-.7 5.3h-7.7V475c0 3.9 1.1 5.8 4.2 5.8 1.5 0 2.9-.5 4.7-1.7l2.5 4.6zm28.3-7.3c0 3.4 1.1 4.5 2.9 5.3l-1.4 4.7c-3.5-.4-5.8-2-6.9-5.8-2.5 4.1-6.2 5.8-10.5 5.8-7 0-11.2-4.8-11.2-11.8 0-8.4 5.7-12.9 15.5-12.9h5.4v-2.9c0-5.6-2.5-7.7-7.3-7.7-2.6 0-5.9.7-9.5 2.1l-1.5-5c4.3-1.8 8.2-2.7 12.1-2.7 8.5 0 12.3 4.8 12.3 13v17.9zm-6.1-1.2v-9h-4.6c-6.5 0-9.7 2.7-9.7 8 0 4.6 2.1 7 6.1 7 3.5.1 6.2-1.9 8.2-6zm22.8 2.5c0 2.1.6 3.1 2.2 3.1.9 0 1.6-.1 2.3-.4l1.6 4.7c-1.7.9-3.4 1.3-5.2 1.3-4.5 0-7-3-7-8.6v-47l6.1-.8v47.7zm35.7-1.3c0 3.4 1.1 4.5 2.9 5.3l-1.4 4.7c-3.5-.4-5.8-2-6.9-5.8-2.5 4.1-6.2 5.8-10.5 5.8-7 0-11.2-4.8-11.2-11.8 0-8.4 5.7-12.9 15.5-12.9h5.4v-2.9c0-5.6-2.5-7.7-7.3-7.7-2.6 0-5.9.7-9.5 2.1l-1.5-5c4.3-1.8 8.2-2.7 12.1-2.7 8.5 0 12.3 4.8 12.3 13v17.9zm-6.1-1.2v-9h-4.6c-6.5 0-9.7 2.7-9.7 8 0 4.6 2.1 7 6.1 7 3.5.1 6.2-1.9 8.2-6zm45.4-26.9c-2.9 1-6.3 1.2-10.3 1.2 4.1 2.1 6.2 5.3 6.2 9.8 0 7.7-5 13.2-13.4 13.2-1.6 0-3-.2-4.5-.7-1 .8-1.7 2.2-1.7 3.6 0 1.8 1 3.2 4.6 3.2h5.6c7.2 0 12 4.6 12 10.8 0 7.5-5.6 11.8-16.5 11.8-11.5 0-15.1-3.9-15.1-11.8h5.5c0 4.4 1.8 6.5 9.5 6.5 7.6 0 10.3-2.1 10.3-6.1 0-3.7-2.7-5.5-7.1-5.5H227c-6.3 0-9.1-3.5-9.1-7.4 0-2.5 1.3-5 3.9-6.9-4.1-2.4-5.9-5.8-5.9-10.8 0-8 5.8-13.6 13.5-13.6 8.7.2 11.9-1.4 16.1-3.5l1.8 6.2zm-25.2 10.9c0 5.2 2.6 8.8 7.4 8.8s7.4-3.3 7.4-8.9c0-5.7-2.5-8.7-7.5-8.7-4.7.1-7.3 3.7-7.3 8.8zm55.2 9.1h-22.4c.6 9 4.4 12.5 9.5 12.5 3.5 0 6.1-1 9.1-3.4l2.7 4.1c-3.5 3-7.4 4.9-12.3 4.9-9.8 0-15.5-7.6-15.5-20 0-12.1 5.5-20.8 14.6-20.8 9.5 0 14.5 7.3 14.5 19.2-.1 1.4-.1 2.6-.2 3.5zm-5.9-5.4c0-7.6-2.7-11.8-8.3-11.8-4.7 0-7.7 3.6-8.2 12.3h16.5v-.5zm41.2-5.4v28h-6.1v-27c0-5.8-2.1-7.5-5.5-7.5-3.9 0-6.6 2.7-8.9 6.9v27.7H286v-39h5.3l.5 5.8c2.4-4 6.1-6.7 10.7-6.7 6.4-.1 10.1 4.4 10.1 11.8zm28.4 26.2c-2.3 1.8-4.9 2.7-7.9 2.7-5.9 0-9.5-3.8-9.5-11.1v-23.5h-6.1v-5.3h6.1v-8.8l6.1-.8v9.6h8.3l-.7 5.3h-7.7V475c0 3.9 1.1 5.8 4.2 5.8 1.5 0 2.9-.5 4.7-1.7l2.5 4.6zm25.5 1.8-.5-6.1c-2.7 4.7-5.9 7-10.9 7-6.1 0-9.8-4.3-9.8-11.9v-28h6.1v27.2c0 5.3 1.6 7.3 5.4 7.3s6.7-2.8 8.8-6.7v-27.8h6.1v39h-5.2zm34.9-39.4-1.1 6.7c-1.1-.3-1.8-.4-3.1-.4-4.4 0-6.9 3.5-8.4 11v22.3h-6.1v-39h5.3l.6 7.9c1.9-5.8 5.1-8.8 9.4-8.8 1.1-.2 2.4 0 3.4.3z" class="st2"/><path d="M135.3 321.4H100V192.1h29l2.1 6.3h1c4.4-6.5 12.4-8.6 21.6-8.6 25.8 0 32.8 16.8 32.8 50.6 0 34.4-6.7 54.6-34.9 54.6-6.7 0-10.7-1.1-15.5-4.6h-.8v31zm7.7-101.8c-3.1 0-5.7 1.1-8.2 2.5v43.5c3.2 1.5 5.7 1.9 8.4 1.9 7.8 0 8-8.4 8-24.6 0-14.5-.6-23.3-8.2-23.3zm103.9 64.5h-1.1c-4.2 6.5-11.1 10.7-21.2 10.7-26.2 0-34.2-19.5-34.2-53.3s11.8-51.9 33.4-51.9c7.6 0 12.8 1.5 17.2 5.2V158h35.1v103.7c0 5.3 1.9 6.7 7.8 6.7l-3.1 25.4c-3.8.2-8.8.8-14.1.8-8.2.2-16.8-1.9-19.8-10.5zM233.7 267c2.7 0 5.3-.4 8.4-1.9v-43.5c-2.5-1.5-5-2.5-8.2-2.5-7.6 0-8.2 8.8-8.2 23.3 0 16.2.2 24.6 8 24.6zm76.4-110.4c13.5 0 18.7 5.3 18.7 16.4 0 10.7-5.2 16-18.7 16-13.9 0-19.1-5-19.1-16 0-11.2 5.2-16.4 19.1-16.4zm-17.4 136.1v-99.6h34.7v99.6h-34.7zm82.7 0h-34.8V192.1h30.7l2.1 6.1h.8c6.5-7.3 11.3-8.6 25.8-8.6l-1.5 33.6h-9.7c-10.9 0-13.5 2.3-13.5 13v56.5z" class="st4"/></g></svg>