<?xml version="1.0" encoding="UTF-8"?>
<svg version="1.1" xmlns="http://www.w3.org/2000/svg" width="310" height="310">
<path d="M0 0 C102.3 0 204.6 0 310 0 C310 102.3 310 204.6 310 310 C207.7 310 105.4 310 0 310 C0 207.7 0 105.4 0 0 Z " fill="#15485A" transform="translate(0,0)"/>
<path d="M0 0 C6.94170022 -0.05058729 13.88335315 -0.08568579 20.82519531 -0.10986328 C23.18816911 -0.11993924 25.55113039 -0.13360029 27.9140625 -0.15087891 C31.30471888 -0.17505724 34.69521084 -0.18646699 38.0859375 -0.1953125 C39.14743011 -0.20563507 40.20892273 -0.21595764 41.30258179 -0.22659302 C42.77388046 -0.22681961 42.77388046 -0.22681961 44.27490234 -0.22705078 C45.14094086 -0.231492 46.00697937 -0.23593323 46.89926147 -0.24050903 C49 0 49 0 51 2 C52.5159375 2.2475 52.5159375 2.2475 54.0625 2.5 C59.84483673 3.98514754 63.6328051 9.36107484 67 14 C69.75290374 20.90387901 68.88800055 32.72335188 67.02734375 39.8671875 C64.20342803 45.72976539 59.0575984 51.4690856 53 54 C53.495 57.465 53.495 57.465 54 61 C54.99 61.33 55.98 61.66 57 62 C57.50385052 63.64591169 57.99522283 65.29723952 58.40625 66.96875 C59.44990547 70.53915029 61.27549409 73.71939695 63 77 C63.474375 77.99 63.94875 78.98 64.4375 80 C65.73465127 82.49053044 67.12351662 84.68038421 68.6875 87 C70.89312515 90.45084296 71.60962846 92.83420552 71 97 C69.19728218 98.80271782 66.55591251 98.21502284 64.125 98.25 C63.05507812 98.27578125 61.98515625 98.3015625 60.8828125 98.328125 C58 98 58 98 56.1953125 96.72265625 C54.90119415 94.85760333 54.33590162 93.37626105 53.75 91.1875 C52.24441431 86.30623272 50.03175538 81.9258747 47.70166016 77.39013672 C44.3379561 70.79656298 41.34235615 64.02706846 39 57 C34.85387186 57.13813025 30.70818838 57.28678859 26.5625 57.4375 C25.37849609 57.47681641 24.19449219 57.51613281 22.97460938 57.55664062 C21.84990234 57.59853516 20.72519531 57.64042969 19.56640625 57.68359375 C18.00321655 57.73858032 18.00321655 57.73858032 16.40844727 57.79467773 C14.0500174 57.73515341 14.0500174 57.73515341 13 59 C12.85223034 61.72536005 12.76497632 64.42862291 12.71875 67.15625 C12.70034058 67.97371704 12.68193115 68.79118408 12.66296387 69.63342285 C12.60402723 72.25553991 12.55128563 74.87772277 12.5 77.5 C12.43256395 80.9480619 12.35889576 84.39590462 12.28125 87.84375 C12.26767456 88.64478149 12.25409912 89.44581299 12.2401123 90.27111816 C12.11280181 95.88719819 12.11280181 95.88719819 11 97 C9.00390625 97.16796875 9.00390625 97.16796875 6.5625 97.1875 C5.75941406 97.20167969 4.95632812 97.21585937 4.12890625 97.23046875 C2 97 2 97 0 95 C-0.18838354 91.98669994 -0.25164443 89.06594957 -0.22705078 86.05224609 C-0.22734283 85.12536484 -0.22763489 84.19848358 -0.22793579 83.24351501 C-0.22653889 80.17006166 -0.21096075 77.09684867 -0.1953125 74.0234375 C-0.19158365 71.89637382 -0.18873608 69.76930844 -0.18673706 67.64224243 C-0.17909052 62.03620688 -0.15943327 56.4302745 -0.1373291 50.82427979 C-0.11689264 45.10682572 -0.10774006 39.38935504 -0.09765625 33.671875 C-0.07618834 22.44787127 -0.0420401 11.2239442 0 0 Z " fill="#FAFBFB" transform="translate(155,106)"/>
<path d="M0 0 C0.91265625 -0.02900391 1.8253125 -0.05800781 2.765625 -0.08789062 C9.21392077 -0.14759707 14.32499432 0.91879452 19.875 4.3125 C22.1875 6.8125 22.1875 6.8125 23.875 9.3125 C24.89787109 10.14007813 24.89787109 10.14007813 25.94140625 10.984375 C28.5957233 14.18027997 28.56254933 17.07911977 28.5 21.0625 C28.48743164 22.13721558 28.48743164 22.13721558 28.47460938 23.23364258 C28.24851815 28.51732238 27.32240641 31.90953767 23.7265625 35.76953125 C20.63750838 38.34374302 17.43654359 40.45242258 13.875 42.3125 C12.91207031 42.85390625 12.91207031 42.85390625 11.9296875 43.40625 C3.57323869 47.09198408 -8.11259009 45.41427125 -17.125 45.3125 C-16.86953475 52.37611407 -16.34267028 57.52826647 -12.125 63.3125 C-9.00088192 66.20647344 -6.95041672 66.68258214 -2.73046875 66.640625 C-1.69212891 66.63546875 -0.65378906 66.6303125 0.41601562 66.625 C1.49560547 66.604375 2.57519531 66.58375 3.6875 66.5625 C4.75548828 66.55734375 5.82347656 66.5521875 6.92382812 66.546875 C11.34760063 66.50310236 15.64788728 66.43591283 20.01171875 65.671875 C20.95660156 65.55328125 21.90148437 65.4346875 22.875 65.3125 C24.875 67.3125 24.875 67.3125 25.0703125 69.2578125 C25.00520833 71.27604167 24.94010417 73.29427083 24.875 75.3125 C17.07809026 77.83336317 9.99049459 78.80755466 1.8125 78.75 C0.2955957 78.7799707 0.2955957 78.7799707 -1.25195312 78.81054688 C-9.23110165 78.80540898 -16.14182425 77.39914101 -22.5546875 72.4296875 C-24.44810432 69.87687179 -25.86040453 67.29672 -27.25 64.4375 C-27.74757813 63.42945313 -28.24515625 62.42140625 -28.7578125 61.3828125 C-32.01088239 54.07734698 -32.43201813 48.12252286 -32.375 40.1875 C-32.38660156 38.56134766 -32.38660156 38.56134766 -32.3984375 36.90234375 C-32.39585938 35.85949219 -32.39328125 34.81664062 -32.390625 33.7421875 C-32.38836914 32.79585449 -32.38611328 31.84952148 -32.38378906 30.87451172 C-32.11303167 28.19401354 -31.36998899 26.66488669 -30.125 24.3125 C-30.021875 23.075 -29.91875 21.8375 -29.8125 20.5625 C-29.16089368 14.43511423 -25.89232473 10.07982473 -21.625 5.8125 C-18.83921653 4.14102992 -17.31590849 3.94782474 -14.125 4.3125 C-13.795 3.3225 -13.465 2.3325 -13.125 1.3125 C-8.77277299 -0.13824234 -4.56031238 0.04711067 0 0 Z " fill="#F5F7F8" transform="translate(113.125,125.6875)"/>
<path d="M0 0 C3.95831733 -0.02940464 7.91660597 -0.04693328 11.875 -0.0625 C12.98359375 -0.07087891 14.0921875 -0.07925781 15.234375 -0.08789062 C32.98025658 -0.14008439 32.98025658 -0.14008439 37.7265625 2.5390625 C42.17185576 7.42339707 43.53556816 10.96642183 43.6875 17.625 C43.28264115 24.59834463 42.66972969 29.25811546 37.6875 34.375 C31.15748109 38.32338353 22.63058437 37.18362771 15.25 37.1875 C14.00605469 37.19974609 12.76210937 37.21199219 11.48046875 37.22460938 C9.70349609 37.22750977 9.70349609 37.22750977 7.890625 37.23046875 C6.26688965 37.23663208 6.26688965 37.23663208 4.61035156 37.24291992 C2 37 2 37 0 35 C-0.17510386 32.34708243 -0.23155483 29.80013826 -0.1953125 27.1484375 C-0.1924826 26.37440582 -0.18965271 25.60037415 -0.18673706 24.80288696 C-0.17552754 22.32676843 -0.15042203 19.8510095 -0.125 17.375 C-0.11497118 15.69792188 -0.10584516 14.02083811 -0.09765625 12.34375 C-0.07558574 8.22902777 -0.04105102 4.11457489 0 0 Z " fill="#174A5C" transform="translate(167,116)"/>
<path d="M0 0 C1.010625 -0.01675781 2.02125 -0.03351563 3.0625 -0.05078125 C7.1612331 0.45610995 9.58324733 2.20954562 12.78125 4.69921875 C14.91667889 7.5259243 14.52603171 10.38201154 14.40625 13.80078125 C13.71399451 18.08078394 12.34916048 19.52153293 9 22.3125 C3.08733346 24.19351118 -2.2640004 24.59606592 -8.4375 24.5 C-9.25154297 24.49935547 -10.06558594 24.49871094 -10.90429688 24.49804688 C-16.85915179 24.45334821 -16.85915179 24.45334821 -18 23.3125 C-19.07591586 12.56871162 -19.07591586 12.56871162 -16.953125 8.1171875 C-15.625 6.5 -15.625 6.5 -13 4.3125 C-12.34 4.3125 -11.68 4.3125 -11 4.3125 C-11 3.6525 -11 2.9925 -11 2.3125 C-7.20947276 0.56356188 -4.16690915 0.01594481 0 0 Z " fill="#06364B" transform="translate(113,135.6875)"/>
<path d="M0 0 C0.89505753 -0.00315216 1.79011505 -0.00630432 2.71229553 -0.009552 C3.68823166 -0.00752777 4.66416779 -0.00550354 5.66967773 -0.00341797 C6.67030746 -0.00437469 7.67093719 -0.00533142 8.70188904 -0.00631714 C10.8279527 -0.00699952 12.95401843 -0.00514122 15.08007812 -0.00097656 C18.31507143 0.00433185 21.54992339 -0.00089922 24.78491211 -0.00732422 C26.85066762 -0.00666268 28.91642305 -0.00537996 30.98217773 -0.00341797 C31.94394424 -0.0054422 32.90571075 -0.00746643 33.8966217 -0.009552 C39.28700819 0.00897482 44.45705068 0.34051932 49.79077148 1.12939453 C49.79077148 2.11939453 49.79077148 3.10939453 49.79077148 4.12939453 C50.51264648 4.00564453 51.23452148 3.88189453 51.97827148 3.75439453 C55.24090884 4.18941285 55.59497108 4.68500604 57.60327148 7.12939453 C58.68608398 8.61439453 58.68608398 8.61439453 59.79077148 10.12939453 C59.46077148 10.78939453 59.13077148 11.44939453 58.79077148 12.12939453 C57.52233398 10.70626953 57.52233398 10.70626953 56.22827148 9.25439453 C52.94684753 5.933906 50.29880745 5.10171601 45.79077148 4.12939453 C45.29577148 3.63439453 45.29577148 3.63439453 44.79077148 3.12939453 C43.2569447 3.00685903 41.71766629 2.95161515 40.17919922 2.92407227 C39.1982579 2.90412704 38.21731659 2.88418182 37.20664978 2.8636322 C35.60666893 2.83856346 35.60666893 2.83856346 33.97436523 2.81298828 C32.88817398 2.79220718 31.80198273 2.77142609 30.68287659 2.75001526 C27.19807522 2.68440011 23.7131958 2.62557942 20.22827148 2.56689453 C17.87214348 2.52372068 15.51602349 2.48010678 13.15991211 2.43603516 C7.37028211 2.32870661 1.58057373 2.22696288 -4.20922852 2.12939453 C-4.10190418 14.4986427 -3.98930743 26.86783037 -3.86988926 39.23696804 C-3.81461239 44.97981743 -3.76118491 50.72267186 -3.71191406 56.46557617 C-3.66434061 62.00283973 -3.61200062 67.5400392 -3.55628777 73.07722664 C-3.5358323 75.1948189 -3.51712463 77.31242875 -3.5001545 79.4300518 C-3.47618089 82.38515492 -3.44611709 85.34013567 -3.41455078 88.29516602 C-3.40879532 89.1798909 -3.40303986 90.06461578 -3.39710999 90.97615051 C-3.73119699 94.86639332 -3.73119699 94.86639332 -2.20922852 98.12939453 C-0.68994814 98.20119417 0.8324463 98.2133146 2.35327148 98.19189453 C3.17956055 98.18287109 4.00584961 98.17384766 4.85717773 98.16455078 C5.49526367 98.15294922 6.13334961 98.14134766 6.79077148 98.12939453 C6.81059082 97.01902832 6.83041016 95.90866211 6.85083008 94.76464844 C6.92678229 90.65324852 7.01551508 86.54220735 7.1081543 82.43115234 C7.14648713 80.6502998 7.18133238 78.86936869 7.21264648 77.08837891 C7.2582042 74.53145219 7.31621255 71.97506843 7.37670898 69.41845703 C7.3940358 68.21994614 7.3940358 68.21994614 7.41171265 66.9972229 C7.56302807 61.35713794 7.56302807 61.35713794 9.79077148 59.12939453 C12.31274414 58.90234375 12.31274414 58.90234375 15.45483398 58.93408203 C16.57631836 58.94052734 17.69780273 58.94697266 18.85327148 58.95361328 C20.02889648 58.97037109 21.20452148 58.98712891 22.41577148 59.00439453 C23.59913086 59.01341797 24.78249023 59.02244141 26.00170898 59.03173828 C28.93159671 59.05536641 31.86108489 59.08830939 34.79077148 59.12939453 C37.57649571 63.84587477 39.48895897 67.8136601 40.79077148 73.12939453 C38.41577148 72.25439453 38.41577148 72.25439453 35.79077148 70.12939453 C34.80077148 65.17939453 34.80077148 65.17939453 33.79077148 60.12939453 C26.20077148 60.12939453 18.61077148 60.12939453 10.79077148 60.12939453 C10.74178711 62.76552734 10.69280273 65.40166016 10.64233398 68.11767578 C10.58833149 70.66941021 10.53102116 73.22105036 10.47338867 75.77270508 C10.43509469 77.54672224 10.40024253 79.32081717 10.36889648 81.0949707 C10.32325477 83.64448852 10.26525963 86.19347083 10.20483398 88.74267578 C10.18750717 89.93344475 10.18750717 89.93344475 10.16983032 91.14826965 C10.06721763 94.97263362 9.96013083 96.87535552 7.79077148 100.12939453 C5.00561523 100.45751953 5.00561523 100.45751953 1.72827148 100.37939453 C0.64416992 100.36392578 -0.43993164 100.34845703 -1.55688477 100.33251953 C-4.20922852 100.12939453 -4.20922852 100.12939453 -5.20922852 99.12939453 C-5.3098705 96.09073692 -5.34537441 93.07476723 -5.33862305 90.03564453 C-5.34037537 89.08125488 -5.34212769 88.12686523 -5.34393311 87.14355469 C-5.34835338 83.97214976 -5.34541301 80.80080008 -5.34204102 77.62939453 C-5.342714 75.43603505 -5.34368399 73.24267563 -5.34494019 71.04931641 C-5.3464174 66.44579358 -5.34426185 61.84229011 -5.33959961 57.23876953 C-5.33390231 51.32334858 -5.33718119 45.407973 -5.34317207 39.49255371 C-5.34677706 34.96142227 -5.34563939 30.43030168 -5.34304428 25.89916992 C-5.34237484 23.71736648 -5.34320403 21.53556207 -5.34552383 19.35375977 C-5.34804933 16.31019464 -5.34421121 13.26670407 -5.33862305 10.22314453 C-5.34064728 9.31193848 -5.34267151 8.40073242 -5.34475708 7.46191406 C-5.31925584 0.00535126 -5.31925584 0.00535126 0 0 Z " fill="#708B96" transform="translate(159.209228515625,103.87060546875)"/>
<path d="M0 0 C0.66627411 -0.00191345 1.33254822 -0.0038269 2.01901245 -0.00579834 C3.43292619 -0.00716071 4.84685241 -0.00346061 6.26074219 0.00488281 C8.40068628 0.01548136 10.53977136 0.00504282 12.6796875 -0.0078125 C26.12431917 -0.02425125 26.12431917 -0.02425125 32.3046875 2.265625 C34.6171875 5.203125 34.6171875 5.203125 36.3046875 8.265625 C36.8615625 8.760625 37.4184375 9.255625 37.9921875 9.765625 C41.79033366 14.10636346 40.23518465 21.30935267 39.94921875 26.65625 C39.3046875 29.265625 39.3046875 29.265625 37.25390625 30.625 C36.28904297 30.94210938 36.28904297 30.94210938 35.3046875 31.265625 C35.7996875 29.780625 35.7996875 29.780625 36.3046875 28.265625 C37.46882975 17.76006186 37.46882975 17.76006186 33.4296875 8.390625 C30.23247933 4.82272603 26.74965905 4.74114238 22.21142578 4.4140625 C21.25220215 4.36507812 20.29297852 4.31609375 19.3046875 4.265625 C17.74403564 4.18441406 17.74403564 4.18441406 16.15185547 4.1015625 C12.82827319 3.94777966 9.50472465 3.82104783 6.1796875 3.703125 C5.03242188 3.65994141 3.88515625 3.61675781 2.703125 3.57226562 C-0.09626393 3.46728854 -2.89572465 3.36513035 -5.6953125 3.265625 C-5.57736288 8.23202457 -5.45313732 13.19821151 -5.32299805 18.16430664 C-5.27958811 19.85501799 -5.23791761 21.54577491 -5.19799805 23.23657227 C-5.14044156 25.66176106 -5.07670601 28.08671915 -5.01171875 30.51171875 C-4.99500626 31.27213974 -4.97829376 32.03256073 -4.96107483 32.81602478 C-5.17439982 36.33644531 -5.17439982 36.33644531 -3.6953125 39.265625 C-1.69749124 39.42387758 0.30557584 39.51681671 2.30859375 39.58203125 C4.13100586 39.64487305 4.13100586 39.64487305 5.99023438 39.70898438 C7.90932617 39.76795898 7.90932617 39.76795898 9.8671875 39.828125 C11.15044922 39.87130859 12.43371094 39.91449219 13.75585938 39.95898438 C16.93868603 40.065473 20.12159424 40.16748462 23.3046875 40.265625 C23.3046875 40.925625 23.3046875 41.585625 23.3046875 42.265625 C19.06886423 42.31501128 14.83319285 42.35133763 10.59716797 42.37548828 C9.15573203 42.38555463 7.71431655 42.3992088 6.27294922 42.41650391 C4.20274816 42.44072512 2.13281674 42.45210141 0.0625 42.4609375 C-1.80704346 42.47664795 -1.80704346 42.47664795 -3.71435547 42.49267578 C-6.6953125 42.265625 -6.6953125 42.265625 -8.6953125 40.265625 C-8.89521477 37.42022358 -8.97508226 34.67424716 -8.9609375 31.828125 C-8.96285095 30.99224854 -8.9647644 30.15637207 -8.96673584 29.29516602 C-8.96809786 27.52652689 -8.96440026 25.75787777 -8.95605469 23.98925781 C-8.94535525 21.27646506 -8.95594926 18.56433456 -8.96875 15.8515625 C-8.96742841 14.1354152 -8.96486602 12.41926831 -8.9609375 10.703125 C-8.96498596 9.88851807 -8.96903442 9.07391113 -8.97320557 8.23461914 C-8.91008296 0.68329961 -7.26784824 0.01325041 0 0 Z " fill="#B4C4CA" transform="translate(172.6953125,112.734375)"/>
<path d="M0 0 C1.46484375 1.01953125 1.46484375 1.01953125 3 3 C3.97544578 9.79787409 4.61360555 17.85895808 0.5 23.6875 C-2.80954185 27.24015985 -6.7171902 29.76322889 -11 32 C-11.96292969 32.54140625 -11.96292969 32.54140625 -12.9453125 33.09375 C-21.30176131 36.77948408 -32.98759009 35.10177125 -42 35 C-41.74453475 42.06361407 -41.21767028 47.21576647 -37 53 C-33.87588192 55.89397344 -31.82541672 56.37008214 -27.60546875 56.328125 C-26.56712891 56.32296875 -25.52878906 56.3178125 -24.45898438 56.3125 C-23.37939453 56.291875 -22.29980469 56.27125 -21.1875 56.25 C-20.11951172 56.24484375 -19.05152344 56.2396875 -17.95117188 56.234375 C-13.52739937 56.19060236 -9.22711272 56.12341283 -4.86328125 55.359375 C-3.91839844 55.24078125 -2.97351563 55.1221875 -2 55 C0 57 0 57 0.1953125 58.9453125 C0.13020833 60.96354167 0.06510417 62.98177083 0 65 C-7.94031933 67.6021406 -15.10598745 68.44227434 -23.4375 68.3125 C-24.49904297 68.31572266 -25.56058594 68.31894531 -26.65429688 68.32226562 C-35.14416112 68.26327099 -35.14416112 68.26327099 -39 66 C-37.0625 65.4375 -37.0625 65.4375 -35 65 C-34.67 65.33 -34.34 65.66 -34 66 C-31.4248055 66.12772014 -28.88826801 66.18521854 -26.3125 66.1875 C-25.60416016 66.19974609 -24.89582031 66.21199219 -24.16601562 66.22460938 C-19.68558991 66.23702053 -16.24615315 65.56625285 -12 64 C-10.38280371 63.73788562 -8.75657211 63.52332474 -7.125 63.375 C-6.34382813 63.30023438 -5.56265625 63.22546875 -4.7578125 63.1484375 C-4.17773438 63.09945312 -3.59765625 63.05046875 -3 63 C-2.67 61.35 -2.34 59.7 -2 58 C-2.92748047 58.0314209 -3.85496094 58.0628418 -4.81054688 58.09521484 C-8.28473676 58.19808628 -11.75728638 58.27297925 -15.23242188 58.32958984 C-16.73007906 58.35958169 -18.22756329 58.40039126 -19.72460938 58.45263672 C-34.75204024 58.96356937 -34.75204024 58.96356937 -40.63476562 53.49462891 C-41.08529297 53.00140137 -41.53582031 52.50817383 -42 52 C-42.66 51.34 -43.32 50.68 -44 50 C-44.14517744 47.0906442 -44.18630796 44.280054 -44.125 41.375 C-44.11597656 40.57320312 -44.10695313 39.77140625 -44.09765625 38.9453125 C-44.07406223 36.96341477 -44.03819065 34.98167019 -44 33 C-40.82979812 31.41489906 -37.36389925 31.75058305 -33.875 31.625 C-27.60563387 31.3242928 -21.43920471 30.81113232 -15.25 29.75 C-13.99703125 29.53859375 -12.7440625 29.3271875 -11.453125 29.109375 C-7.26451145 27.76371182 -5.01987881 26.19647991 -2 23 C0.14245126 17.85199568 0.25523461 13.0373627 0.125 7.5625 C0.11597656 6.83095703 0.10695312 6.09941406 0.09765625 5.34570312 C0.07436153 3.56365702 0.0385019 1.78178241 0 0 Z " fill="#9FB1B8" transform="translate(138,136)"/>
<path d="M0 0 C6.94170022 -0.05058729 13.88335315 -0.08568579 20.82519531 -0.10986328 C23.18816911 -0.11993924 25.55113039 -0.13360029 27.9140625 -0.15087891 C31.30471888 -0.17505724 34.69521084 -0.18646699 38.0859375 -0.1953125 C39.14743011 -0.20563507 40.20892273 -0.21595764 41.30258179 -0.22659302 C42.77388046 -0.22681961 42.77388046 -0.22681961 44.27490234 -0.22705078 C45.14094086 -0.231492 46.00697937 -0.23593323 46.89926147 -0.24050903 C49 0 49 0 51 2 C52.5159375 2.2475 52.5159375 2.2475 54.0625 2.5 C59.84483673 3.98514754 63.6328051 9.36107484 67 14 C70.14222453 21.88023849 68.53141604 34.13928704 66 42 C65.01 42.66 64.02 43.32 63 44 C63.48533203 43.06994141 63.48533203 43.06994141 63.98046875 42.12109375 C65.41016442 37.74436255 65.3291604 33.63744504 65.3125 29.0625 C65.32861328 28.18142578 65.34472656 27.30035156 65.36132812 26.39257812 C65.36530819 21.07919245 64.71613097 17.69410498 62 13 C62 12.01 62 11.02 62 10 C61.34 10 60.68 10 60 10 C59.443125 9.21625 58.88625 8.4325 58.3125 7.625 C55.44476111 4.36972882 53.15905327 3.94167244 49 3 C48.505 2.505 48.505 2.505 48 2 C46.52749355 1.87767356 45.04934289 1.8222544 43.57202148 1.79467773 C42.14085999 1.76440491 42.14085999 1.76440491 40.68078613 1.73352051 C39.67108765 1.71704468 38.66138916 1.70056885 37.62109375 1.68359375 C36.69816528 1.66494263 35.77523682 1.6462915 34.82434082 1.6270752 C31.36216201 1.55854951 27.89981876 1.49854672 24.4375 1.4375 C16.703125 1.293125 8.96875 1.14875 1 1 C1.33 31.69 1.66 62.38 2 94 C4.97 94.33 7.94 94.66 11 95 C10.98952637 93.88963379 10.97905273 92.77926758 10.96826172 91.63525391 C10.93212051 87.52412121 10.90912104 83.41300261 10.89013672 79.30175781 C10.88006569 77.52080933 10.86640815 75.73987743 10.84912109 73.95898438 C10.82492087 71.40230217 10.81352816 68.84583815 10.8046875 66.2890625 C10.79436493 65.49005524 10.78404236 64.69104797 10.77340698 63.86782837 C10.77300774 61.9104278 10.87758931 59.95356923 11 58 C14.78507778 54.21492222 21.26719318 55.54203956 26.375 55.5 C27.62023437 55.45875 28.86546875 55.4175 30.1484375 55.375 C33.53745911 55.3457843 36.66514461 55.39167071 40 56 C42.76953125 58.8359375 42.76953125 58.8359375 44 62 C44.433125 63.03125 44.86625 64.0625 45.3125 65.125 C46.01393425 68.05827051 45.83369253 69.20503079 45 72 C44.18618205 70.06305322 43.37399084 68.12542289 42.5625 66.1875 C42.11003906 65.10855469 41.65757812 64.02960938 41.19140625 62.91796875 C40.39624987 60.9704874 39.66520352 58.99561057 39 57 C34.85387186 57.13813025 30.70818838 57.28678859 26.5625 57.4375 C25.37849609 57.47681641 24.19449219 57.51613281 22.97460938 57.55664062 C21.84990234 57.59853516 20.72519531 57.64042969 19.56640625 57.68359375 C18.00321655 57.73858032 18.00321655 57.73858032 16.40844727 57.79467773 C14.0500174 57.73515341 14.0500174 57.73515341 13 59 C12.85223034 61.72536005 12.76497632 64.42862291 12.71875 67.15625 C12.70034058 67.97371704 12.68193115 68.79118408 12.66296387 69.63342285 C12.60402723 72.25553991 12.55128563 74.87772277 12.5 77.5 C12.43256395 80.9480619 12.35889576 84.39590462 12.28125 87.84375 C12.26767456 88.64478149 12.25409912 89.44581299 12.2401123 90.27111816 C12.11280181 95.88719819 12.11280181 95.88719819 11 97 C9.00390625 97.16796875 9.00390625 97.16796875 6.5625 97.1875 C5.75941406 97.20167969 4.95632812 97.21585937 4.12890625 97.23046875 C2 97 2 97 0 95 C-0.18838354 91.98669994 -0.25164443 89.06594957 -0.22705078 86.05224609 C-0.22734283 85.12536484 -0.22763489 84.19848358 -0.22793579 83.24351501 C-0.22653889 80.17006166 -0.21096075 77.09684867 -0.1953125 74.0234375 C-0.19158365 71.89637382 -0.18873608 69.76930844 -0.18673706 67.64224243 C-0.17909052 62.03620688 -0.15943327 56.4302745 -0.1373291 50.82427979 C-0.11689264 45.10682572 -0.10774006 39.38935504 -0.09765625 33.671875 C-0.07618834 22.44787127 -0.0420401 11.2239442 0 0 Z " fill="#BCC8CD" transform="translate(155,106)"/>
<path d="M0 0 C2.5892321 3.88384815 2.26601301 7.1006846 2.22705078 11.60229492 C2.22734283 12.48055435 2.22763489 13.35881378 2.22793579 14.26368713 C2.2265414 17.16938118 2.210975 20.07481945 2.1953125 22.98046875 C2.19158276 24.99400187 2.1887356 27.0075368 2.18673706 29.02107239 C2.17909753 34.32295739 2.15944626 39.62473297 2.1373291 44.92657471 C2.11687758 50.33580037 2.10773683 55.7450437 2.09765625 61.15429688 C2.07620071 71.76957935 2.04206087 82.38478058 2 93 C3.98 93 5.96 93 8 93 C7.98428955 91.85934082 7.9685791 90.71868164 7.95239258 89.54345703 C7.89818476 85.3205468 7.86368347 81.09766744 7.83520508 76.87451172 C7.82009749 75.04503207 7.79961032 73.21558875 7.77368164 71.38623047 C7.73738415 68.76000008 7.72029385 66.13424751 7.70703125 63.5078125 C7.69154739 62.68693146 7.67606354 61.86605042 7.66011047 61.02029419 C7.65942383 58.71533203 7.65942383 58.71533203 8 55 C11.54013225 52.63991183 13.01121955 52.76536356 17.19921875 52.8046875 C18.40771484 52.81113281 19.61621094 52.81757813 20.86132812 52.82421875 C22.12396484 52.84097656 23.38660156 52.85773438 24.6875 52.875 C25.96173828 52.88402344 27.23597656 52.89304688 28.54882812 52.90234375 C31.69940627 52.92594359 34.84960983 52.95886806 38 53 C38.33 53.66 38.66 54.32 39 55 C38.18732666 55.02505615 37.37465332 55.0501123 36.53735352 55.07592773 C32.87889248 55.19149118 29.22071472 55.31439584 25.5625 55.4375 C24.28310547 55.47681641 23.00371094 55.51613281 21.68554688 55.55664062 C20.47060547 55.59853516 19.25566406 55.64042969 18.00390625 55.68359375 C16.31503296 55.73858032 16.31503296 55.73858032 14.59204102 55.79467773 C12.07146559 55.71218045 12.07146559 55.71218045 11 57 C10.83989519 59.73701178 10.74053172 62.4516759 10.68359375 65.19140625 C10.66281265 66.01124496 10.64203156 66.83108368 10.62062073 67.67576599 C10.55503506 70.30458901 10.49619874 72.93351504 10.4375 75.5625 C10.39432333 77.34050561 10.35070933 79.11850065 10.30664062 80.89648438 C10.19934457 85.26421634 10.09810296 89.63205227 10 94 C8.52093108 94.02689216 7.04172517 94.04634621 5.5625 94.0625 C4.32693359 94.07990234 4.32693359 94.07990234 3.06640625 94.09765625 C1 94 1 94 0 93 C-0.09523905 90.10856849 -0.12553027 87.24107936 -0.11352539 84.34936523 C-0.11367142 83.44213715 -0.11381744 82.53490906 -0.1139679 81.60018921 C-0.11326841 78.58630015 -0.10547434 75.57247207 -0.09765625 72.55859375 C-0.0957922 70.47494033 -0.09436824 68.39128646 -0.09336853 66.30763245 C-0.08954234 60.81176554 -0.0797112 55.31592487 -0.06866455 49.82006836 C-0.0584526 44.21663773 -0.05387137 38.61320287 -0.04882812 33.00976562 C-0.03808902 22.00649886 -0.02101139 11.00325161 0 0 Z " fill="#E5EBEE" transform="translate(156,107)"/>
<path d="M0 0 C1.010625 -0.01675781 2.02125 -0.03351563 3.0625 -0.05078125 C7.16248948 0.45626532 9.57509088 2.22286361 12.79296875 4.68359375 C14.47600864 6.95488059 14.36604605 8.57824846 14.3125 11.375 C14.30863281 12.25285156 14.30476563 13.13070312 14.30078125 14.03515625 C14 16.3125 14 16.3125 12 18.3125 C12 14.3525 12 10.3925 12 6.3125 C11.01 6.8075 11.01 6.8075 10 7.3125 C9.80703407 9.30648127 9.62031022 11.30303919 9.5390625 13.3046875 C9 15.3125 9 15.3125 7.5390625 17.05859375 C3.66872621 18.96994444 0.00005774 18.62949395 -4.25 18.5 C-5.09046875 18.48646484 -5.9309375 18.47292969 -6.796875 18.45898438 C-8.86485938 18.42373464 -10.93251271 18.3699302 -13 18.3125 C-12.76023437 17.14074219 -12.76023437 17.14074219 -12.515625 15.9453125 C-11.98370584 13.40661462 -11.98370584 13.40661462 -11.75 11.1875 C-10.58019889 8.26299722 -8.80001233 7.66974369 -6 6.3125 C-3.33146704 5.95024319 -0.85958571 5.71449569 1.8125 5.625 C2.50537109 5.59083984 3.19824219 5.55667969 3.91210938 5.52148438 C5.60752849 5.43963656 7.30373458 5.37437635 9 5.3125 C9 4.6525 9 3.9925 9 3.3125 C2.4 3.6425 -4.2 3.9725 -11 4.3125 C-11 3.6525 -11 2.9925 -11 2.3125 C-7.20947276 0.56356188 -4.16690915 0.01594481 0 0 Z " fill="#174A5C" transform="translate(113,135.6875)"/>
<path d="M0 0 C0.91265625 -0.02900391 1.8253125 -0.05800781 2.765625 -0.08789062 C9.33811122 -0.14874698 14.10751077 1.17135744 19.875 4.3125 C19.875 4.6425 19.875 4.9725 19.875 5.3125 C17.235 5.3125 14.595 5.3125 11.875 5.3125 C11.875 4.6525 11.875 3.9925 11.875 3.3125 C8.70851345 3.22429073 5.54234908 3.1717095 2.375 3.125 C1.0446875 3.08729492 1.0446875 3.08729492 -0.3125 3.04882812 C-7.58404027 2.96862731 -13.5039699 4.16475242 -19.5 8.5625 C-22.56170458 11.77000003 -23.13418197 14.04436078 -24.125 18.3125 C-25.11914593 19.98266516 -26.1185725 21.64970673 -27.125 23.3125 C-27.98697561 26.75606001 -28.25327279 29.9733517 -28.2578125 33.515625 C-28.25910156 34.49660156 -28.26039062 35.47757813 -28.26171875 36.48828125 C-28.25785156 37.50277344 -28.25398438 38.51726562 -28.25 39.5625 C-28.25386719 40.56152344 -28.25773437 41.56054688 -28.26171875 42.58984375 C-28.83447917 53.22838205 -28.83447917 53.22838205 -25.1875 62.5 C-24.506875 63.098125 -23.82625 63.69625 -23.125 64.3125 C-22.44560826 66.30821323 -21.77938441 68.30844773 -21.125 70.3125 C-19.1134805 73.12054265 -19.1134805 73.12054265 -17.125 75.3125 C-22.55263842 72.87942071 -24.58135277 69.79894385 -27.1875 64.5 C-27.69410156 63.48292969 -28.20070313 62.46585938 -28.72265625 61.41796875 C-32.02398779 54.10722062 -32.43215844 48.14204971 -32.375 40.1875 C-32.38660156 38.56134766 -32.38660156 38.56134766 -32.3984375 36.90234375 C-32.39585938 35.85949219 -32.39328125 34.81664062 -32.390625 33.7421875 C-32.38836914 32.79585449 -32.38611328 31.84952148 -32.38378906 30.87451172 C-32.11303167 28.19401354 -31.36998899 26.66488669 -30.125 24.3125 C-30.021875 23.075 -29.91875 21.8375 -29.8125 20.5625 C-29.16089368 14.43511423 -25.89232473 10.07982473 -21.625 5.8125 C-18.83921653 4.14102992 -17.31590849 3.94782474 -14.125 4.3125 C-13.795 3.3225 -13.465 2.3325 -13.125 1.3125 C-8.77277299 -0.13824234 -4.56031238 0.04711067 0 0 Z " fill="#91A7B0" transform="translate(113.125,125.6875)"/>
<path d="M0 0 C10.23 0 20.46 0 31 0 C30.67 1.32 30.34 2.64 30 4 C17.13 3.505 17.13 3.505 4 3 C4 11.91 4 20.82 4 30 C12.91 30 21.82 30 31 30 C30.67 30.66 30.34 31.32 30 32 C20.1 32 10.2 32 0 32 C0 21.44 0 10.88 0 0 Z " fill="#0B3A4E" transform="translate(169,118)"/>
<path d="M0 0 C9.9 0 19.8 0 30 0 C29.67 0.66 29.34 1.32 29 2 C20.75 2 12.5 2 4 2 C4.13068296 11.20427594 4.13068296 11.20427594 7 15 C10.57489926 17.51753469 14.11095392 17.26702214 18.375 17.25 C19.66148438 17.25515625 20.94796875 17.2603125 22.2734375 17.265625 C25.89237393 17.00767146 28.60166003 16.19223529 32 15 C34.5546875 14.8046875 34.5546875 14.8046875 36.875 14.875 C37.65617187 14.89304688 38.43734375 14.91109375 39.2421875 14.9296875 C39.82226562 14.95289063 40.40234375 14.97609375 41 15 C40.67 15.99 40.34 16.98 40 18 C36.7 18.33 33.4 18.66 30 19 C30 19.66 30 20.32 30 21 C26.4377769 21.11654436 22.87604658 21.1873639 19.3125 21.25 C18.30509766 21.28351563 17.29769531 21.31703125 16.25976562 21.3515625 C8.75145316 21.45068214 8.75145316 21.45068214 4.90625 19.14453125 C-0.84890549 12.66998133 0 9.45874126 0 0 Z " fill="#043A4F" transform="translate(96,171)"/>
<path d="M0 0 C0 3 0 3 -2.25 5.5625 C-4.51797524 7.57275078 -6.23189141 8.87225206 -9 10 C-8.67 12.31 -8.34 14.62 -8 17 C-7.01 17.33 -6.02 17.66 -5 18 C-4.49614948 19.64591169 -4.00477717 21.29723952 -3.59375 22.96875 C-2.55009453 26.53915029 -0.72450591 29.71939695 1 33 C1.474375 33.99 1.94875 34.98 2.4375 36 C3.73465127 38.49053044 5.12351662 40.68038421 6.6875 43 C8.89312515 46.45084296 9.60962846 48.83420552 9 53 C7.19728218 54.80271782 4.55591251 54.21502284 2.125 54.25 C0.52011719 54.28867188 0.52011719 54.28867188 -1.1171875 54.328125 C-4 54 -4 54 -5.80078125 52.734375 C-7.12461734 50.81977166 -7.70612321 49.24400662 -8.3125 47 C-9.82862515 42.0090799 -12.2459805 37.76216158 -14.890625 33.28515625 C-15.25671875 32.53105469 -15.6228125 31.77695313 -16 31 C-15.67 30.34 -15.34 29.68 -15 29 C-12.11958224 30.44020888 -10.33544389 31.396201 -8.75 34.25 C-8 37 -8 37 -7.5625 40.375 C-6.93549777 44.41568107 -5.72837589 47.31780788 -4 51 C-0.37 51.33 3.26 51.66 7 52 C6.38125 50.906875 5.7625 49.81375 5.125 48.6875 C4.77695313 48.07261719 4.42890625 47.45773438 4.0703125 46.82421875 C3.10571419 45.18017711 2.05732941 43.58599412 1 42 C0.7525 40.700625 0.7525 40.700625 0.5 39.375 C0.2525 38.199375 0.2525 38.199375 0 37 C-0.66 36.67 -1.32 36.34 -2 36 C-2.309375 34.865625 -2.61875 33.73125 -2.9375 32.5625 C-3.65621357 28.76783002 -3.65621357 28.76783002 -7 27 C-7.68025637 25.00458132 -8.34490497 23.00382009 -9 21 C-9.70125 20.01 -10.4025 19.02 -11.125 18 C-13.23900952 14.61758477 -13.53354547 12.91266681 -13 9 C-11 7 -11 7 -8.1875 6.1875 C-4.46598692 4.80105395 -2.62235423 2.9308665 0 0 Z " fill="#89A1A9" transform="translate(217,150)"/>
<path d="M0 0 C4.92856612 -0.19180545 9.17159025 0.24285485 13.80859375 2.09765625 C17.63643435 6.23536966 17.9557036 10.62863134 17.80859375 16.09765625 C16.32723632 20.30782999 14.37797844 23.39650027 10.80859375 26.09765625 C4.56827236 28.05909955 -1.11806213 28.37551859 -7.62890625 28.28515625 C-8.53833984 28.28451172 -9.44777344 28.28386719 -10.38476562 28.28320312 C-17.05066377 28.23839873 -17.05066377 28.23839873 -18.19140625 27.09765625 C-18.58747238 19.07007209 -18.56076259 11.80641769 -13.56640625 5.16015625 C-10.88058395 2.31213509 -9.51875433 1.20478835 -5.75390625 -0.02734375 C-3.83709542 0.03991277 -1.91608878 0.0853872 0 0 Z M-9.19140625 4.09765625 C-9.19140625 4.75765625 -9.19140625 5.41765625 -9.19140625 6.09765625 C-10.08859375 6.46890625 -10.08859375 6.46890625 -11.00390625 6.84765625 C-13.62882829 8.3476117 -14.65383913 9.48858342 -16.19140625 12.09765625 C-16.59086516 15.33950037 -16.59086516 15.33950037 -16.44140625 18.78515625 C-16.4259375 19.94402344 -16.41046875 21.10289062 -16.39453125 22.296875 C-16.50529902 25.00179891 -16.50529902 25.00179891 -15.19140625 26.09765625 C-12.32586508 26.22587505 -9.49503753 26.28288695 -6.62890625 26.28515625 C-5.84193359 26.29740234 -5.05496094 26.30964844 -4.24414062 26.32226562 C2.42306061 26.33875499 8.5090677 26.01392795 13.80859375 21.59765625 C16.3335555 18.10221601 16.51440759 14.66122869 16.3046875 10.44140625 C15.5379542 6.81904418 13.74703126 5.21606469 10.80859375 3.09765625 C7.63313472 2.03916991 5.26850579 1.93094747 1.93359375 1.91015625 C0.90492187 1.89597656 -0.12375 1.88179687 -1.18359375 1.8671875 C-4.24604113 2.10184256 -6.42389486 2.80581053 -9.19140625 4.09765625 Z " fill="#AEBEC5" transform="translate(111.19140625,133.90234375)"/>
<path d="M0 0 C8.25 0 16.5 0 25 0 C25 0.33 25 0.66 25 1 C14.11 1.495 14.11 1.495 3 2 C3 12.56 3 23.12 3 34 C8.07375 34.061875 13.1475 34.12375 18.375 34.1875 C19.97520996 34.21481201 21.57541992 34.24212402 23.22412109 34.27026367 C24.47789551 34.27775635 25.73166992 34.28524902 27.0234375 34.29296875 C28.31169434 34.3086792 29.59995117 34.32438965 30.92724609 34.34057617 C31.94125488 34.22818604 32.95526367 34.1157959 34 34 C34.66 33.01 35.32 32.02 36 31 C36.99 30.67 37.98 30.34 39 30 C39.66 29.34 40.32 28.68 41 28 C40.67777813 31.0074041 39.99223238 32.00776762 37.8125 34.1875 C31.31248954 38.37639563 22.71333435 37.18358429 15.25 37.1875 C14.00605469 37.19974609 12.76210937 37.21199219 11.48046875 37.22460938 C9.70349609 37.22750977 9.70349609 37.22750977 7.890625 37.23046875 C6.26688965 37.23663208 6.26688965 37.23663208 4.61035156 37.24291992 C2 37 2 37 0 35 C-0.17510386 32.34708243 -0.23155483 29.80013826 -0.1953125 27.1484375 C-0.1924826 26.37440582 -0.18965271 25.60037415 -0.18673706 24.80288696 C-0.17552754 22.32676843 -0.15042203 19.8510095 -0.125 17.375 C-0.11497118 15.69792188 -0.10584516 14.02083811 -0.09765625 12.34375 C-0.07728579 8.22891613 -0.03813981 4.11486134 0 0 Z " fill="#66848F" transform="translate(167,116)"/>
<path d="M0 0 C0.33 0 0.66 0 1 0 C1.05447047 1.41623216 1.09300508 2.83308191 1.125 4.25 C1.14820312 5.03890625 1.17140625 5.8278125 1.1953125 6.640625 C1 9 1 9 0.00439453 10.76489258 C-1.29652624 13.65986819 -1.25899565 15.95202711 -1.265625 19.12109375 C-1.26820312 20.30380859 -1.27078125 21.48652344 -1.2734375 22.70507812 C-1.26570313 23.93677734 -1.25796875 25.16847656 -1.25 26.4375 C-1.25773437 27.66533203 -1.26546875 28.89316406 -1.2734375 30.15820312 C-1.27085938 31.34220703 -1.26828125 32.52621094 -1.265625 33.74609375 C-1.26336914 34.82560303 -1.26111328 35.9051123 -1.25878906 37.01733398 C-0.99440958 40.06443219 -0.22972198 42.22211896 1 45 C1.23608151 47.70549407 1.09234983 50.27567998 1 53 C0.01 52.67 -0.98 52.34 -2 52 C-2.33 49.36 -2.66 46.72 -3 44 C-3.66 44 -4.32 44 -5 44 C-5.12435639 39.01962213 -5.21469131 34.04016383 -5.2746582 29.05859375 C-5.2996766 27.36702719 -5.3337029 25.67556736 -5.37719727 23.984375 C-5.81526021 6.50308669 -5.81526021 6.50308669 0 0 Z " fill="#003146" transform="translate(82,140)"/>
<path d="M0 0 C0.66627411 -0.00191345 1.33254822 -0.0038269 2.01901245 -0.00579834 C3.43292619 -0.00716071 4.84685241 -0.00346061 6.26074219 0.00488281 C8.40068628 0.01548136 10.53977136 0.00504282 12.6796875 -0.0078125 C26.12431917 -0.02425125 26.12431917 -0.02425125 32.3046875 2.265625 C34.6171875 5.203125 34.6171875 5.203125 36.3046875 8.265625 C36.8615625 8.760625 37.4184375 9.255625 37.9921875 9.765625 C41.79033366 14.10636346 40.23518465 21.30935267 39.94921875 26.65625 C39.3046875 29.265625 39.3046875 29.265625 37.25390625 30.625 C36.28904297 30.94210938 36.28904297 30.94210938 35.3046875 31.265625 C35.7996875 29.780625 35.7996875 29.780625 36.3046875 28.265625 C37.37545282 19.10976435 37.37545282 19.10976435 34.7421875 10.5703125 C32.86258125 8.44739805 32.86258125 8.44739805 30.8359375 6.68359375 C30.330625 6.21566406 29.8253125 5.74773437 29.3046875 5.265625 C29.3046875 4.605625 29.3046875 3.945625 29.3046875 3.265625 C24.67018709 2.52495814 20.22297224 2.13749553 15.53125 2.1328125 C13.67693359 2.13087891 13.67693359 2.13087891 11.78515625 2.12890625 C9.87669922 2.13470703 9.87669922 2.13470703 7.9296875 2.140625 C5.98642578 2.13482422 5.98642578 2.13482422 4.00390625 2.12890625 C2.77542969 2.13019531 1.54695312 2.13148437 0.28125 2.1328125 C-1.40363525 2.13450439 -1.40363525 2.13450439 -3.12255859 2.13623047 C-5.62713203 1.9738793 -5.62713203 1.9738793 -6.6953125 3.265625 C-6.80869621 5.81247078 -6.85949025 8.33116239 -6.86328125 10.87890625 C-6.86660965 11.64486618 -6.86993805 12.41082611 -6.87336731 13.19999695 C-6.87844081 14.82497557 -6.88077551 16.44996464 -6.88061523 18.07495117 C-6.88279422 20.55730518 -6.90092424 23.03920954 -6.91992188 25.52148438 C-6.92285724 27.09895681 -6.92484108 28.67643136 -6.92578125 30.25390625 C-6.93296677 30.99570633 -6.94015228 31.73750641 -6.94755554 32.50178528 C-6.93102292 36.24825089 -6.78541125 39.08621047 -4.6953125 42.265625 C-6.0153125 41.605625 -7.3353125 40.945625 -8.6953125 40.265625 C-8.74466759 34.89047595 -8.78101052 29.51545815 -8.80517578 24.14013672 C-8.81524734 22.31068627 -8.82890526 20.48125197 -8.84619141 18.65185547 C-8.87038927 16.02567566 -8.88178382 13.39970825 -8.890625 10.7734375 C-8.90094757 9.95255646 -8.91127014 9.13167542 -8.92190552 8.28591919 C-8.92230434 6.27773358 -8.8178079 4.27007118 -8.6953125 2.265625 C-5.8605679 -0.5691196 -3.96481731 0.00722847 0 0 Z " fill="#E3E9EC" transform="translate(172.6953125,112.734375)"/>
<path d="M0 0 C6.86848153 -0.02539701 13.73695091 -0.04288668 20.60546875 -0.05493164 C22.94108533 -0.05995412 25.27669878 -0.06677332 27.61230469 -0.07543945 C30.97331517 -0.0875963 34.33428401 -0.09324924 37.6953125 -0.09765625 C38.73615997 -0.10281754 39.77700745 -0.10797882 40.84939575 -0.11329651 C45.68118799 -0.11366869 50.25080774 -0.02273961 55 1 C55 1.66 55 2.32 55 3 C55.763125 3.103125 56.52625 3.20625 57.3125 3.3125 C60.17059424 4.04364039 61.15742885 4.76951913 63 7 C62.67 7.99 62.34 8.98 62 10 C61.01 9.67 60.02 9.34 59 9 C59 8.34 59 7.68 59 7 C57.35 7 55.7 7 54 7 C54 6.01 54 5.02 54 4 C52.046875 4.03255208 50.09375 4.06510417 48.140625 4.09765625 C46 4 46 4 44.13555908 3.50672913 C41.92489992 2.98218012 39.95952534 2.84252011 37.69042969 2.79467773 C36.4295755 2.7647599 36.4295755 2.7647599 35.14324951 2.73423767 C34.24519592 2.71752518 33.34714233 2.70081268 32.421875 2.68359375 C31.4953009 2.66281265 30.56872681 2.64203156 29.61407471 2.62062073 C26.65945728 2.55533039 23.70475232 2.49633569 20.75 2.4375 C18.74478268 2.39429527 16.73957415 2.35068035 14.734375 2.30664062 C9.82300596 2.19967001 4.91154903 2.09834482 0 2 C0 1.34 0 0.68 0 0 Z " fill="#023C51" transform="translate(155,101)"/>
<path d="M0 0 C0 2 0 2 -1.75 4.0625 C-6.6932746 7.00945216 -11.32601153 6.86349191 -17 7 C-17.76376953 7.02046387 -18.52753906 7.04092773 -19.31445312 7.06201172 C-21.83469938 7.12199398 -24.35420545 7.15938885 -26.875 7.1875 C-27.68340332 7.20071289 -28.49180664 7.21392578 -29.32470703 7.22753906 C-33.95374869 7.23329777 -37.64348717 6.7720221 -42 5 C-42 4.34 -42 3.68 -42 3 C-41.05157227 2.98018066 -40.10314453 2.96036133 -39.12597656 2.93994141 C-35.59967636 2.86174239 -32.07379639 2.77504634 -28.54785156 2.68261719 C-27.02319342 2.64438734 -25.49844693 2.609524 -23.97363281 2.578125 C-21.77897619 2.53234338 -19.5849246 2.47437234 -17.390625 2.4140625 C-16.7113092 2.40251129 -16.03199341 2.39096008 -15.33209229 2.37905884 C-9.70955454 2.204598 -5.66960769 -0.25770944 0 0 Z " fill="#084053" transform="translate(138,202)"/>
<path d="M0 0 C1.90318884 2.85478326 2.4619099 4.41941308 3.125 7.6875 C3.29257813 8.49574219 3.46015625 9.30398437 3.6328125 10.13671875 C3.75398438 10.75160156 3.87515625 11.36648437 4 12 C4.66 12 5.32 12 6 12 C5.67 13.32 5.34 14.64 5 16 C4.15204049 14.9491359 3.32219744 13.88364055 2.5 12.8125 C2.0359375 12.22082031 1.571875 11.62914062 1.09375 11.01953125 C0 9 0 9 0 4 C-6.93 4 -13.86 4 -21 4 C-21 14.23 -21 24.46 -21 35 C-21.33 35 -21.66 35 -22 35 C-22 23.45 -22 11.9 -22 0 C-19.1125 -0.185625 -16.225 -0.37125 -13.25 -0.5625 C-12.34668945 -0.62381104 -11.44337891 -0.68512207 -10.51269531 -0.74829102 C-9.79178711 -0.79139404 -9.07087891 -0.83449707 -8.328125 -0.87890625 C-7.5949707 -0.9260376 -6.86181641 -0.97316895 -6.10644531 -1.02172852 C-3.84647486 -0.99841635 -2.11939849 -0.79435591 0 0 Z " fill="#02354A" transform="translate(193,166)"/>
<path d="M0 0 C1.46484375 1.01953125 1.46484375 1.01953125 3 3 C3.97544578 9.79787409 4.61360555 17.85895808 0.5 23.6875 C-2.80954185 27.24015985 -6.7171902 29.76322889 -11 32 C-11.96292969 32.54140625 -11.96292969 32.54140625 -12.9453125 33.09375 C-21.30176131 36.77948408 -32.98759009 35.10177125 -42 35 C-41.42697721 43.68036954 -41.42697721 43.68036954 -39 52 C-40.984375 50.98046875 -40.984375 50.98046875 -43 49 C-43.29642569 46.28770497 -43.38061189 44.00260268 -43.25 41.3125 C-43.23195313 40.61060547 -43.21390625 39.90871094 -43.1953125 39.18554688 C-43.14826213 37.45644564 -43.07651873 35.72804795 -43 34 C-42.34104736 33.96559814 -41.68209473 33.93119629 -41.00317383 33.89575195 C-20.25706244 33.60231779 -20.25706244 33.60231779 -2.75 24 C0.31599135 18.74401482 0.13176726 13.64981299 0.0625 7.6875 C0.05798828 6.94693359 0.05347656 6.20636719 0.04882812 5.44335938 C0.03712175 3.62887101 0.01918898 1.81442466 0 0 Z " fill="#77919B" transform="translate(138,136)"/>
<path d="M0 0 C0.625 1.75 0.625 1.75 1 4 C0.68393799 4.59659424 0.36787598 5.19318848 0.04223633 5.80786133 C-1.99200826 10.08649384 -1.32651407 15.03202435 -1.3125 19.6875 C-1.32861328 20.73873047 -1.34472656 21.78996094 -1.36132812 22.87304688 C-1.36685939 31.76178995 0.28414753 38.78542493 5 46.375 C5.7425 47.59316406 5.7425 47.59316406 6.5 48.8359375 C10.09895951 54.02818637 13.90768122 55.67441855 20 57 C24.09437553 57.35567303 28.14349323 57.33091639 32.25 57.25 C33.84328125 57.24226563 33.84328125 57.24226563 35.46875 57.234375 C40.12802458 57.18754812 44.44073789 57.02804871 49 56 C48.505 56.99 48.505 56.99 48 58 C42.9598504 59.68004987 37.71479867 59.26888596 32.4375 59.3125 C30.72336914 59.35600586 30.72336914 59.35600586 28.97460938 59.40039062 C20.82059603 59.46099793 13.39823795 58.64177409 6.921875 53.27929688 C-1.46859118 44.9738692 -3.25558378 35.10650647 -3.48266602 23.78833008 C-3.48838623 22.57943115 -3.49410645 21.37053223 -3.5 20.125 C-3.50636475 18.94768311 -3.51272949 17.77036621 -3.51928711 16.55737305 C-3.42695414 10.30058744 -3.02588159 5.52062439 0 0 Z " fill="#527784" transform="translate(83,146)"/>
<path d="M0 0 C10.89 0 21.78 0 33 0 C33.495 0.99 33.495 0.99 34 2 C36.02463255 2.65213292 36.02463255 2.65213292 38 3 C38 3.99 38 4.98 38 6 C36.02 6 34.04 6 32 6 C32 5.34 32 4.68 32 4 C26.60581723 2.39756083 21.01554715 2.7751122 15.4375 2.75 C14.28830078 2.729375 13.13910156 2.70875 11.95507812 2.6875 C10.30475586 2.67976563 10.30475586 2.67976563 8.62109375 2.671875 C7.6148999 2.6625293 6.60870605 2.65318359 5.57202148 2.64355469 C2.58103556 3.05806247 1.94046546 3.80226905 0 6 C-2.6875 6.1875 -2.6875 6.1875 -5 6 C-4.34 4.68 -3.68 3.36 -3 2 C-2.01 2 -1.02 2 0 2 C0 1.34 0 0.68 0 0 Z " fill="#02394E" transform="translate(98,123)"/>
<path d="M0 0 C3.51414502 1.17138167 4.17375749 1.84558112 6 5 C6.41434251 7.32031805 6.74889902 9.65639085 7 12 C7.17144531 12.63421875 7.34289062 13.2684375 7.51953125 13.921875 C8.36608861 17.58340764 8.05505429 21.25630823 8 25 C8.33 21.7 8.66 18.4 9 15 C9.33 15 9.66 15 10 15 C10 18.63 10 22.26 10 26 C9.01 26.33 8.02 26.66 7 27 C6.93941406 27.62648437 6.87882813 28.25296875 6.81640625 28.8984375 C6.73261719 29.71570313 6.64882812 30.53296875 6.5625 31.375 C6.48128906 32.18710938 6.40007812 32.99921875 6.31640625 33.8359375 C6 36 6 36 5 38 C4.34 38 3.68 38 3 38 C2.67 39.32 2.34 40.64 2 42 C1.34 42 0.68 42 0 42 C-0.35519851 37.73761788 0.4647773 36.31529123 3 33 C6.174518 24.81308517 6.37350439 14.20825934 3 6 C2.01 5.34 1.02 4.68 0 4 C0 2.68 0 1.36 0 0 Z " fill="#073E52" transform="translate(220,113)"/>
<path d="M0 0 C1.20849609 0.00644531 2.41699219 0.01289063 3.66210938 0.01953125 C5.55606445 0.04466797 5.55606445 0.04466797 7.48828125 0.0703125 C8.76251953 0.07933594 10.03675781 0.08835938 11.34960938 0.09765625 C14.50018752 0.12125609 17.65039108 0.15418056 20.80078125 0.1953125 C21.13078125 0.8553125 21.46078125 1.5153125 21.80078125 2.1953125 C20.58177124 2.23289673 20.58177124 2.23289673 19.33813477 2.27124023 C15.67967373 2.38680368 12.02149597 2.50970834 8.36328125 2.6328125 C7.08388672 2.67212891 5.80449219 2.71144531 4.48632812 2.75195312 C2.66391602 2.81479492 2.66391602 2.81479492 0.8046875 2.87890625 C-0.32122803 2.91556396 -1.44714355 2.95222168 -2.60717773 2.98999023 C-5.12775316 2.90749295 -5.12775316 2.90749295 -6.19921875 4.1953125 C-6.35932356 6.93232428 -6.45868703 9.6469884 -6.515625 12.38671875 C-6.5364061 13.20655746 -6.55718719 14.02639618 -6.57859802 14.87107849 C-6.64418369 17.49990151 -6.70302001 20.12882754 -6.76171875 22.7578125 C-6.80489542 24.53581811 -6.84850942 26.31381315 -6.89257812 28.09179688 C-6.99987418 32.45952884 -7.10111579 36.82736477 -7.19921875 41.1953125 C-7.52921875 41.1953125 -7.85921875 41.1953125 -8.19921875 41.1953125 C-8.41596812 35.67826297 -8.61288744 30.16100201 -8.79125977 24.64257812 C-8.85478452 22.76445487 -8.92377576 20.88650838 -8.99829102 19.00878906 C-9.10431242 16.31342615 -9.19081373 13.61804376 -9.2734375 10.921875 C-9.31079514 10.07912018 -9.34815277 9.23636536 -9.38664246 8.36807251 C-9.44799805 6.00244141 -9.44799805 6.00244141 -9.19921875 2.1953125 C-5.6590865 -0.16477567 -4.1879992 -0.03932394 0 0 Z " fill="#D8E0E3" transform="translate(173.19921875,159.8046875)"/>
<path d="M0 0 C1.24523437 -0.04125 2.49046875 -0.0825 3.7734375 -0.125 C7.16245911 -0.1542157 10.29014461 -0.10832929 13.625 0.5 C16.39453125 3.3359375 16.39453125 3.3359375 17.625 6.5 C18.058125 7.53125 18.49125 8.5625 18.9375 9.625 C19.63893425 12.55827051 19.45869253 13.70503079 18.625 16.5 C17.81118205 14.56305322 16.99899084 12.62542289 16.1875 10.6875 C15.73503906 9.60855469 15.28257812 8.52960938 14.81640625 7.41796875 C14.02124987 5.4704874 13.29020352 3.49561057 12.625 1.5 C8.47887186 1.63813025 4.33318838 1.78678859 0.1875 1.9375 C-0.99650391 1.97681641 -2.18050781 2.01613281 -3.40039062 2.05664062 C-4.52509766 2.09853516 -5.64980469 2.14042969 -6.80859375 2.18359375 C-7.85072021 2.22025146 -8.89284668 2.25690918 -9.96655273 2.29467773 C-12.3249826 2.23515341 -12.3249826 2.23515341 -13.375 3.5 C-13.52276966 6.22536005 -13.61002368 8.92862291 -13.65625 11.65625 C-13.67465942 12.47371704 -13.69306885 13.29118408 -13.71203613 14.13342285 C-13.77097277 16.75553991 -13.82371437 19.37772277 -13.875 22 C-13.94243605 25.4480619 -14.01610424 28.89590462 -14.09375 32.34375 C-14.10732544 33.14478149 -14.12090088 33.94581299 -14.1348877 34.77111816 C-14.26219819 40.38719819 -14.26219819 40.38719819 -15.375 41.5 C-16.89428038 41.57179964 -18.41667482 41.58392007 -19.9375 41.5625 C-20.76378906 41.55347656 -21.59007812 41.54445312 -22.44140625 41.53515625 C-23.07949219 41.52355469 -23.71757812 41.51195312 -24.375 41.5 C-24.375 41.17 -24.375 40.84 -24.375 40.5 C-21.735 40.17 -19.095 39.84 -16.375 39.5 C-16.35518066 38.38963379 -16.33536133 37.27926758 -16.31494141 36.13525391 C-16.23898919 32.02385398 -16.1502564 27.91281282 -16.05761719 23.80175781 C-16.01928435 22.02090527 -15.98443911 20.23997416 -15.953125 18.45898438 C-15.90756729 15.90205766 -15.84955893 13.3456739 -15.7890625 10.7890625 C-15.77173569 9.59055161 -15.77173569 9.59055161 -15.75405884 8.36782837 C-15.47463065 -2.04749277 -8.62146711 0.07095858 0 0 Z " fill="#A1B4BB" transform="translate(181.375,161.5)"/>
<path d="M0 0 C0.99 0.33 1.98 0.66 3 1 C3 2.98 3 4.96 3 7 C2.071875 7.12375 2.071875 7.12375 1.125 7.25 C-1.53489979 7.91214206 -1.53489979 7.91214206 -3 12 C-13.23 12 -23.46 12 -34 12 C-34 11.67 -34 11.34 -34 11 C-24.43 10.67 -14.86 10.34 -5 10 C-17.87 9.505 -17.87 9.505 -31 9 C-31 8.67 -31 8.34 -31 8 C-22.09 8 -13.18 8 -4 8 C-3.67 7.01 -3.34 6.02 -3 5 C-2.34 4.67 -1.68 4.34 -1 4 C-0.34786708 1.97536745 -0.34786708 1.97536745 0 0 Z " fill="#114658" transform="translate(204,139)"/>
<path d="M0 0 C1.5631897 0.00785522 1.5631897 0.00785522 3.15795898 0.01586914 C4.28266602 0.0190918 5.40737305 0.02231445 6.56616211 0.02563477 C7.75016602 0.03401367 8.93416992 0.04239258 10.15405273 0.05102539 C11.34192383 0.05553711 12.52979492 0.06004883 13.75366211 0.06469727 C16.69967499 0.07652864 19.64558954 0.09301252 22.59155273 0.11352539 C25.37727696 4.83000563 27.28974022 8.79779096 28.59155273 14.11352539 C26.21655273 13.23852539 26.21655273 13.23852539 23.59155273 11.11352539 C22.93155273 7.81352539 22.27155273 4.51352539 21.59155273 1.11352539 C14.00155273 1.11352539 6.41155273 1.11352539 -1.40844727 1.11352539 C-1.73844727 13.32352539 -2.06844727 25.53352539 -2.40844727 38.11352539 C-2.73844727 38.11352539 -3.06844727 38.11352539 -3.40844727 38.11352539 C-3.43309654 32.86247097 -3.45128295 27.61144994 -3.46337891 22.36035156 C-3.46841945 20.57258518 -3.47525181 18.78482295 -3.48388672 16.99707031 C-3.49596457 14.43301371 -3.50167821 11.86901142 -3.50610352 9.30493164 C-3.5112648 8.50076309 -3.51642609 7.69659454 -3.52174377 6.86805725 C-3.52193942 4.94950824 -3.47046709 3.03107171 -3.40844727 1.11352539 C-2.40844727 0.11352539 -2.40844727 0.11352539 0 0 Z " fill="#577B88" transform="translate(171.408447265625,162.886474609375)"/>
<path d="M0 0 C0.33 0 0.66 0 1 0 C1.02505615 0.64960693 1.0501123 1.29921387 1.07592773 1.96850586 C1.19313851 4.95831088 1.31528919 7.94789535 1.4375 10.9375 C1.47681641 11.95908203 1.51613281 12.98066406 1.55664062 14.03320312 C1.28179191 24.81171942 1.28179191 24.81171942 4.9375 34.1875 C5.618125 34.785625 6.29875 35.38375 7 36 C7.67939174 37.99571323 8.34561559 39.99594773 9 42 C11.0115195 44.80804265 11.0115195 44.80804265 13 47 C6.64985431 44.15338297 3.71671057 39.23354824 1 33 C-1.9728205 23.08048671 -1.84950738 11.28689188 -1 1 C-0.67 0.67 -0.34 0.34 0 0 Z " fill="#BBC9CE" transform="translate(83,154)"/>
<path d="M0 0 C0.66 0.33 1.32 0.66 2 1 C1.319375 2.0828125 1.319375 2.0828125 0.625 3.1875 C-2.2324542 8.13309381 -3.24485604 12.34304441 -4 18 C-0.62472444 17.86015045 2.75014131 17.71204731 6.125 17.5625 C7.55199219 17.50352539 7.55199219 17.50352539 9.0078125 17.44335938 C13.74628987 17.22946977 18.33594301 16.93438179 23 16 C21.26898904 18.21184734 20.23362594 18.94564327 17.46484375 19.58984375 C13.1859218 20.09636777 8.99174298 20.14571007 4.6875 20.125 C3.45290039 20.13080078 3.45290039 20.13080078 2.19335938 20.13671875 C-3.87328396 20.12671604 -3.87328396 20.12671604 -5 19 C-6.08779791 8.13756092 -6.08779791 8.13756092 -3.8828125 3.8046875 C-2.5 2.1875 -2.5 2.1875 0 0 Z " fill="#496F7D" transform="translate(100,140)"/>
<path d="M0 0 C1.010625 -0.01675781 2.02125 -0.03351563 3.0625 -0.05078125 C7.16248948 0.45626532 9.57509088 2.22286361 12.79296875 4.68359375 C14.47600864 6.95488059 14.36604605 8.57824846 14.3125 11.375 C14.30863281 12.25285156 14.30476563 13.13070312 14.30078125 14.03515625 C14 16.3125 14 16.3125 12 18.3125 C12 14.3525 12 10.3925 12 6.3125 C11.01 6.6425 10.02 6.9725 9 7.3125 C6.8125 6.375 6.8125 6.375 5 5.3125 C6.32 5.3125 7.64 5.3125 9 5.3125 C9 4.6525 9 3.9925 9 3.3125 C2.4 3.6425 -4.2 3.9725 -11 4.3125 C-11 3.6525 -11 2.9925 -11 2.3125 C-7.20947276 0.56356188 -4.16690915 0.01594481 0 0 Z " fill="#2D5565" transform="translate(113,135.6875)"/>
<path d="M0 0 C2.375 0.9375 2.375 0.9375 5 3 C8.52107157 11.22762956 8.0756871 21.86606538 5 30.1171875 C3.54558446 32.85557926 1.60161147 34.38278206 -1 36 C-0.53980469 35.12794922 -0.53980469 35.12794922 -0.0703125 34.23828125 C3.7664116 26.21476697 4.96289693 13.69561896 2.046875 5.234375 C1.70140625 4.49703125 1.3559375 3.7596875 1 3 C0.67 2.01 0.34 1.02 0 0 Z " fill="#547885" transform="translate(219,116)"/>
<path d="M0 0 C3.5610865 1.48845413 5.6420874 3.5000687 8.1875 6.375 C8.88230469 7.14585938 9.57710937 7.91671875 10.29296875 8.7109375 C15.01984631 15.04949643 13.54299734 25.39686349 12.65625 32.9140625 C12.1875 35.3125 12.1875 35.3125 11 39 C10.01 39.66 9.02 40.32 8 41 C8.48533203 40.06994141 8.48533203 40.06994141 8.98046875 39.12109375 C10.41016442 34.74436255 10.3291604 30.63744504 10.3125 26.0625 C10.32861328 25.18142578 10.34472656 24.30035156 10.36132812 23.39257812 C10.36530819 18.07919245 9.71613097 14.69410498 7 10 C7 9.01 7 8.02 7 7 C6.34 7 5.68 7 5 7 C3.7109375 5.46875 3.7109375 5.46875 2.375 3.5 C1.70597656 2.52546875 1.70597656 2.52546875 1.0234375 1.53125 C0.68570313 1.0259375 0.34796875 0.520625 0 0 Z " fill="#B7C6CB" transform="translate(210,109)"/>
<path d="M0 0 C0.495 1.485 0.495 1.485 1 3 C-4.92450402 8.50132516 -9.37003542 9.13633316 -17.4921875 9.09765625 C-18.69101563 9.09443359 -19.88984375 9.09121094 -21.125 9.08789062 C-22.98125 9.07532227 -22.98125 9.07532227 -24.875 9.0625 C-26.13570312 9.05798828 -27.39640625 9.05347656 -28.6953125 9.04882812 C-31.79692386 9.0370796 -34.89843725 9.02065167 -38 9 C-38.33 8.34 -38.66 7.68 -39 7 C-37.5162085 6.97812622 -37.5162085 6.97812622 -36.00244141 6.95581055 C-32.33817081 6.8979103 -28.67452015 6.82067848 -25.01074219 6.73754883 C-23.42393035 6.7042602 -21.83699897 6.67624053 -20.25 6.65356445 C-17.97083516 6.62008922 -15.69276959 6.5677814 -13.4140625 6.51171875 C-12.70255035 6.50532883 -11.99103821 6.4989389 -11.25796509 6.49235535 C-9.0399544 6.45990352 -9.0399544 6.45990352 -6 6 C-5.34 5.01 -4.68 4.02 -4 3 C-3.01 2.67 -2.02 2.34 -1 2 C-0.67 1.34 -0.34 0.68 0 0 Z " fill="#688591" transform="translate(207,144)"/>
<path d="M0 0 C9.9 0 19.8 0 30 0 C29.67 0.66 29.34 1.32 29 2 C20.75 2 12.5 2 4 2 C3.67 3.98 3.34 5.96 3 8 C2.67 7.34 2.34 6.68 2 6 C1.34 6 0.68 6 0 6 C0 4.02 0 2.04 0 0 Z " fill="#00344B" transform="translate(96,171)"/>
<path d="M0 0 C0.66 0 1.32 0 2 0 C2.33 0.99 2.66 1.98 3 3 C3.66 3.33 4.32 3.66 5 4 C5.81640625 5.8125 5.81640625 5.8125 6.5625 8 C7.39037842 10.73933017 7.39037842 10.73933017 9 13 C9.04080783 14.99958364 9.04254356 17.00045254 9 19 C8.01 19 7.02 19 6 19 C5 17 4 15 3 13 C2.443125 12.030625 1.88625 11.06125 1.3125 10.0625 C-0.21295161 6.50311291 -0.23002439 3.83373982 0 0 Z " fill="#114357" transform="translate(217,176)"/>
<path d="M0 0 C0.33 0 0.66 0 1 0 C1.01981934 0.73114014 1.03963867 1.46228027 1.06005859 2.21557617 C1.15552914 5.53990269 1.26511966 8.86361986 1.375 12.1875 C1.4059375 13.33798828 1.436875 14.48847656 1.46875 15.67382812 C1.50742188 16.78564453 1.54609375 17.89746094 1.5859375 19.04296875 C1.6173584 20.06414795 1.6487793 21.08532715 1.68115234 22.13745117 C2.00982271 25.08818626 2.8221236 27.2920505 4 30 C4.23608151 32.70549407 4.09234983 35.27567998 4 38 C3.01 37.67 2.02 37.34 1 37 C0.67 34.36 0.34 31.72 0 29 C-0.66 29 -1.32 29 -2 29 C-2 26.69 -2 24.38 -2 22 C-1.67 22 -1.34 22 -1 22 C-0.67 14.74 -0.34 7.48 0 0 Z " fill="#0B3F52" transform="translate(79,155)"/>
<path d="M0 0 C0 3 0 3 -2.25 5.5625 C-4.51797524 7.57275078 -6.23189141 8.87225206 -9 10 C-8.67039784 15.01535052 -8.67039784 15.01535052 -6 19 C-5.5859375 21.1640625 -5.5859375 21.1640625 -5.375 23.625 C-5.30023438 24.44226563 -5.22546875 25.25953125 -5.1484375 26.1015625 C-5.07496094 27.04128906 -5.07496094 27.04128906 -5 28 C-5.66 27.67 -6.32 27.34 -7 27 C-7.28875 26.113125 -7.5775 25.22625 -7.875 24.3125 C-8.86002668 20.8956069 -8.86002668 20.8956069 -11.125 18 C-13.23900952 14.61758477 -13.53354547 12.91266681 -13 9 C-11 7 -11 7 -8.1875 6.1875 C-4.46598692 4.80105395 -2.62235423 2.9308665 0 0 Z " fill="#C4D0D4" transform="translate(217,150)"/>
<path d="M0 0 C2.72518616 2.91290682 3.46575015 5.18733227 3.8125 9.125 C3.90144531 9.99382812 3.99039063 10.86265625 4.08203125 11.7578125 C4 14 4 14 2 16 C1.97421875 15.32453125 1.9484375 14.6490625 1.921875 13.953125 C1.64673589 8.32628228 1.64673589 8.32628228 -0.875 3.4375 C-4.93325461 0.69221012 -8.411843 0.89368663 -13.1875 0.9375 C-14.45980469 0.94652344 -15.73210937 0.95554688 -17.04296875 0.96484375 C-18.01878906 0.97644531 -18.99460937 0.98804688 -20 1 C-17.0002402 -4.99951959 -4.82285186 -1.92914075 0 0 Z " fill="#A3B6BD" transform="translate(125,136)"/>
<path d="M0 0 C9.4375 4.54398148 9.4375 4.54398148 11 9 C11.08514349 11.77567763 11.05249585 14.36888383 10.875 17.125 C10.84019531 18.21748047 10.84019531 18.21748047 10.8046875 19.33203125 C10.6796875 21.4453125 10.6796875 21.4453125 10 25 C7.9453125 26.4921875 7.9453125 26.4921875 6 27 C6.33 26.01 6.66 25.02 7 24 C8.06328928 14.83143252 8.06328928 14.83143252 5.4375 6.26953125 C3.71552237 4.36355198 1.94266443 2.67505249 0 1 C0 0.67 0 0.34 0 0 Z " fill="#A7B8BF" transform="translate(202,117)"/>
<path d="M0 0 C4.79720547 3.44414751 4.79720547 3.44414751 5.6484375 5.77734375 C6.73913506 12.67297609 6.88115874 20.58287371 4 27 C2.11644281 28.96370856 0.22839199 30.40137096 -2 32 C-0.84826645 29.53199953 0.04783565 27.95216435 2 26 C3.99269589 18.6765253 4.04545021 9.98662108 1 3 C0.67 2.01 0.34 1.02 0 0 Z " fill="#C6D2D6" transform="translate(133,132)"/>
<path d="M0 0 C2.10409639 -0.02701408 4.20829178 -0.04640223 6.3125 -0.0625 C7.48425781 -0.07410156 8.65601563 -0.08570313 9.86328125 -0.09765625 C13 0 13 0 16 1 C15.67 1.99 15.34 2.98 15 4 C10.05 4 5.1 4 0 4 C0 2.68 0 1.36 0 0 Z " fill="#053C50" transform="translate(211,205)"/>
<path d="M0 0 C0 3.75081172 -0.74290961 5.01481593 -3 8 C-5.25485997 9.55654636 -7.5544981 10.73357937 -10 12 C-10.99 12.66 -11.98 13.32 -13 14 C-16.00268555 14.22705078 -16.00268555 14.22705078 -19.63671875 14.1953125 C-21.58481445 14.18564453 -21.58481445 14.18564453 -23.57226562 14.17578125 C-24.94401307 14.1590706 -26.31575786 14.14214071 -27.6875 14.125 C-29.07095718 14.11496674 -30.45442127 14.10584149 -31.83789062 14.09765625 C-35.22543452 14.07404967 -38.61263072 14.04112037 -42 14 C-42 13.67 -42 13.34 -42 13 C-32.76 13 -23.52 13 -14 13 C-14 12.01 -14 11.02 -14 10 C-12.9275 9.731875 -11.855 9.46375 -10.75 9.1875 C-5.02993764 7.37614692 -2.83531458 5.24533196 0 0 Z " fill="#DCE3E6" transform="translate(210,142)"/>
<path d="M0 0 C-0.33 1.32 -0.66 2.64 -1 4 C-13.87 3.505 -13.87 3.505 -27 3 C-27 2.34 -27 1.68 -27 1 C-22.87502594 0.83268714 -18.75001667 0.66625884 -14.625 0.5 C-13.449375 0.45230469 -12.27375 0.40460938 -11.0625 0.35546875 C-9.94101563 0.31035156 -8.81953125 0.26523438 -7.6640625 0.21875 C-6.62717285 0.17685547 -5.5902832 0.13496094 -4.52197266 0.09179688 C-3.01533561 0.03695704 -1.50763477 0 0 0 Z " fill="#03394E" transform="translate(200,118)"/>
<path d="M0 0 C0.89267578 0.00644531 1.78535156 0.01289063 2.70507812 0.01953125 C4.09823242 0.04466797 4.09823242 0.04466797 5.51953125 0.0703125 C6.45990234 0.07933594 7.40027344 0.08835938 8.36914062 0.09765625 C10.69036093 0.12122194 13.01106769 0.15412134 15.33203125 0.1953125 C15.33203125 0.5253125 15.33203125 0.8553125 15.33203125 1.1953125 C8.73203125 1.5253125 2.13203125 1.8553125 -4.66796875 2.1953125 C-4.66796875 6.1553125 -4.66796875 10.1153125 -4.66796875 14.1953125 C-8.34616447 9.29105154 -8.23538372 8.05860057 -7.66796875 2.1953125 C-4.46390413 0.05926942 -3.67196128 -0.04677658 0 0 Z " fill="#D8E1E4" transform="translate(98.66796875,166.8046875)"/>
<path d="M0 0 C3.96 0 7.92 0 12 0 C12 1.32 12 2.64 12 4 C8.37 4 4.74 4 1 4 C0.67 2.68 0.34 1.36 0 0 Z " fill="#043B4F" transform="translate(155,205)"/>
<path d="M0 0 C3.96 0 7.92 0 12 0 C11.67 0.99 11.34 1.98 11 3 C10.67 2.67 10.34 2.34 10 2 C8.43438956 2.24373458 6.86896016 2.48866287 5.30419922 2.73779297 C0.41562519 3.2940897 -4.5243037 3.10040597 -9.4375 3.0625 C-10.55060547 3.05798828 -11.66371094 3.05347656 -12.81054688 3.04882812 C-15.54042101 3.03711193 -18.27018174 3.02070699 -21 3 C-21 2.67 -21 2.34 -21 2 C-14.07 2 -7.14 2 0 2 C0 1.34 0 0.68 0 0 Z " fill="#28596A" transform="translate(126,190)"/>
<path d="M0 0 C3.2910253 1.09700843 3.96023288 1.87619858 6.0625 4.5 C8.17721767 7.18106401 8.17721767 7.18106401 11 9 C11 9.66 11 10.32 11 11 C9.68 11 8.36 11 7 11 C7 10.34 7 9.68 7 9 C6.401875 8.9175 5.80375 8.835 5.1875 8.75 C2.32587525 7.76887152 1.48679185 6.60188573 0 4 C0 2.68 0 1.36 0 0 Z " fill="#073C50" transform="translate(84,193)"/>
<path d="M0 0 C5.61 0 11.22 0 17 0 C17 0.33 17 0.66 17 1 C11.72 1 6.44 1 1 1 C1.581973 9.68735503 1.581973 9.68735503 4 18 C2.015625 16.98046875 2.015625 16.98046875 0 15 C-0.29983839 12.25647876 -0.38086892 10.0286091 -0.25 7.3125 C-0.1675 4.899375 -0.085 2.48625 0 0 Z " fill="#3E6270" transform="translate(95,170)"/>
<path d="M0 0 C0.33 0 0.66 0 1 0 C1.4726477 8.19256018 1.4726477 8.19256018 -0.5 11.5625 C-0.995 12.036875 -1.49 12.51125 -2 13 C-2.33 12.01 -2.66 11.02 -3 10 C-3.66 10.66 -4.32 11.32 -5 12 C-4.42365861 7.24518354 -2.44931479 4.02951788 0 0 Z " fill="#094356" transform="translate(82,140)"/>
<path d="M0 0 C5.58878505 2.30841121 5.58878505 2.30841121 7.375 5.3125 C8.06805192 8.29262326 8.14184543 10.95032327 8 14 C5.09106923 12.54553462 4.40221655 10.3992863 2.875 7.5625 C2.33617187 6.57378906 1.79734375 5.58507812 1.2421875 4.56640625 C0 2 0 2 0 0 Z " fill="#B9C7CD" transform="translate(201,179)"/>
<path d="M0 0 C2.31 0 4.62 0 7 0 C7 0.99 7 1.98 7 3 C7.721875 2.87625 8.44375 2.7525 9.1875 2.625 C12.45013736 3.06001831 12.8041996 3.55561151 14.8125 6 C15.534375 6.99 16.25625 7.98 17 9 C16.67 9.66 16.34 10.32 16 11 C15.154375 10.05125 14.30875 9.1025 13.4375 8.125 C10.26033565 4.91019152 7.39476983 4.07796241 3 3 C1.0625 1.375 1.0625 1.375 0 0 Z " fill="#5A7B87" transform="translate(202,105)"/>
<path d="M0 0 C0.66 0 1.32 0 2 0 C2.33 0.99 2.66 1.98 3 3 C3.66 3.33 4.32 3.66 5 4 C5.59355614 6.64860427 5.74209269 9.29197322 6 12 C5.01 11.67 4.02 11.34 3 11 C2.6278958 9.67696283 2.29369827 8.34262065 2 7 C1.34 6.67 0.68 6.34 0 6 C0 4.02 0 2.04 0 0 Z " fill="#02384D" transform="translate(217,176)"/>
<path d="M0 0 C0.66 0 1.32 0 2 0 C1.48183208 4.45624412 0.32956478 7.21445723 -2 11 C-2.70670728 13.69254991 -2.70670728 13.69254991 -3 16 C-3.33 16 -3.66 16 -4 16 C-4.46450943 9.49686791 -3.32575612 5.5825192 0 0 Z " fill="#BFCBD0" transform="translate(88,138)"/>
<path d="M0 0 C9.24 0 18.48 0 28 0 C28 0.33 28 0.66 28 1 C19.75 1 11.5 1 3 1 C3 1.66 3 2.32 3 3 C2.01 3 1.02 3 0 3 C0 2.01 0 1.02 0 0 Z " fill="#002340" transform="translate(170,118)"/>
<path d="M0 0 C1.32 0 2.64 0 4 0 C3.60856977 2.27029534 3.11258722 3.83408198 1.8125 5.75 C-0.78687216 7.54267046 -2.92339216 7.20510719 -6 7 C-4.36587557 5.29159719 -3.13093906 4.06546953 -1 3 C-0.67 2.01 -0.34 1.02 0 0 Z " fill="#053C4F" transform="translate(134,163)"/>
<path d="M0 0 C0.99 0.33 1.98 0.66 3 1 C3 4 3 4 1.0625 6.0625 C0.381875 6.701875 -0.29875 7.34125 -1 8 C-1.33 8.66 -1.66 9.32 -2 10 C-2.66 10 -3.32 10 -4 10 C-4 8.02 -4 6.04 -4 4 C-3.01 4 -2.02 4 -1 4 C-0.67 2.68 -0.34 1.36 0 0 Z " fill="#063C50" transform="translate(88,130)"/>
<path d="M0 0 C3 1 3 1 5 4 C5.28875 4.94875 5.5775 5.8975 5.875 6.875 C7.08290897 10.23030271 8.65555153 12.3429584 11 15 C5.14011913 12.37315685 2.88655111 8.57402974 0 3 C0 2.01 0 1.02 0 0 Z " fill="#C2CFD3" transform="translate(85,186)"/>
<path d="M0 0 C0.66 0.33 1.32 0.66 2 1 C1.04578192 2.14926266 0.08647955 3.29430541 -0.875 4.4375 C-1.40867187 5.07558594 -1.94234375 5.71367187 -2.4921875 6.37109375 C-4 8 -4 8 -6 9 C-7.05352843 11.30965848 -8.05719096 13.6429774 -9 16 C-9.87794585 13.57210036 -10.17648254 12.43028124 -9.1796875 10 C-6.52119355 5.92470389 -4.08163611 2.79883619 0 0 Z " fill="#64828E" transform="translate(94,130)"/>
<path d="M0 0 C3.56236008 1.49570875 5.72604957 3.52848599 8.3125 6.375 C9.03050781 7.14585938 9.74851563 7.91671875 10.48828125 8.7109375 C12 11 12 11 11.73046875 13.2890625 C11.36888672 14.13597656 11.36888672 14.13597656 11 15 C10.67 14.01 10.34 13.02 10 12 C9.01 11.34 8.02 10.68 7 10 C7 9.01 7 8.02 7 7 C6.34 7 5.68 7 5 7 C3.7109375 5.46875 3.7109375 5.46875 2.375 3.5 C1.70597656 2.52546875 1.70597656 2.52546875 1.0234375 1.53125 C0.68570313 1.0259375 0.34796875 0.520625 0 0 Z " fill="#ABBCC2" transform="translate(210,109)"/>
<path d="M0 0 C0.33 0.66 0.66 1.32 1 2 C3.02463255 2.65213292 3.02463255 2.65213292 5 3 C5 3.99 5 4.98 5 6 C3.02 6 1.04 6 -1 6 C-1 5.34 -1 4.68 -1 4 C-2.32 3.34 -3.64 2.68 -5 2 C-2 0 -2 0 0 0 Z " fill="#0A4154" transform="translate(131,123)"/>
<path d="M0 0 C3.47691793 1.15897264 4.22015595 1.8640843 6 5 C6.1875 8.25 6.1875 8.25 6 11 C5.34 11 4.68 11 4 11 C3.896875 10.21625 3.79375 9.4325 3.6875 8.625 C3.22404978 5.66954819 3.22404978 5.66954819 0 4 C0 2.68 0 1.36 0 0 Z " fill="#04394D" transform="translate(220,113)"/>
<path d="M0 0 C0.66 0.33 1.32 0.66 2 1 C3.87056791 1.2275015 5.74685958 1.40962811 7.625 1.5625 C8.62789062 1.64628906 9.63078125 1.73007813 10.6640625 1.81640625 C11.43492188 1.87699219 12.20578125 1.93757812 13 2 C13 2.33 13 2.66 13 3 C12.39671875 3.04898438 11.7934375 3.09796875 11.171875 3.1484375 C9.97304687 3.26058594 9.97304687 3.26058594 8.75 3.375 C7.56664063 3.47941406 7.56664063 3.47941406 6.359375 3.5859375 C3.914123 4.01507113 2.15163097 4.78600638 0 6 C0 5.01 0 4.02 0 3 C-0.66 2.67 -1.32 2.34 -2 2 C-1.34 1.34 -0.68 0.68 0 0 Z " fill="#0B4255" transform="translate(103,139)"/>
<path d="M0 0 C1.55074219 -0.00773438 1.55074219 -0.00773438 3.1328125 -0.015625 C5.875 0.25 5.875 0.25 8.875 2.25 C7.58916016 2.21519531 7.58916016 2.21519531 6.27734375 2.1796875 C0.07126131 2.08173355 -5.2821222 2.07590593 -11.125 4.25 C-11.125 3.59 -11.125 2.93 -11.125 2.25 C-7.28161402 0.46303825 -4.22770285 -0.02119149 0 0 Z " fill="#688590" transform="translate(113.125,135.75)"/>
<path d="M0 0 C0.66 0 1.32 0 2 0 C4.88782351 3.79026836 6.88918066 7.3547555 8 12 C7.54296875 14.1796875 7.54296875 14.1796875 7 16 C6.66226563 15.18015625 6.32453125 14.3603125 5.9765625 13.515625 C5.53054687 12.43796875 5.08453125 11.3603125 4.625 10.25 C4.18414062 9.18265625 3.74328125 8.1153125 3.2890625 7.015625 C2.26692415 4.62444074 1.19786405 2.30616817 0 0 Z " fill="#B4C4C9" transform="translate(193,162)"/>
<path d="M0 0 C0.66 0.33 1.32 0.66 2 1 C1 3 1 3 -1.125 3.75 C-5.05773347 5.45988412 -7.86131793 8.12362853 -11 11 C-10.17938701 6.35315535 -7.73717128 4.78455899 -4 2 C-1.75 0.625 -1.75 0.625 0 0 Z " fill="#EAEFF0" transform="translate(101,129)"/>
<path d="M0 0 C0.33 0.99 0.66 1.98 1 3 C-0.8125 5.6875 -0.8125 5.6875 -3 8 C-3.66 8 -4.32 8 -5 8 C-5 6.02 -5 4.04 -5 2 C-3.35 2 -1.7 2 0 2 C0 1.34 0 0.68 0 0 Z " fill="#063E51" transform="translate(144,154)"/>
<path d="M0 0 C2.77398263 3.46747828 4.95912413 7.06402511 7 11 C6.67 11.66 6.34 12.32 6 13 C3.12785459 11.27671275 2.08251692 10.19391477 0.75 7.0625 C0 4 0 4 0 0 Z " fill="#476A79" transform="translate(200,178)"/>
<path d="M0 0 C3.34243648 1.89404734 3.97997149 2.94091591 5.25 6.6875 C5.4975 7.780625 5.745 8.87375 6 10 C3.5625 8.9375 3.5625 8.9375 1 7 C0.1875 3.3125 0.1875 3.3125 0 0 Z " fill="#446B79" transform="translate(194,167)"/>
<path d="M0 0 C1.5 1.3125 1.5 1.3125 3 3 C3 3.99 3 4.98 3 6 C0.03 6 -2.94 6 -6 6 C-3 4 -3 4 0 4 C0 2.68 0 1.36 0 0 Z " fill="#E7EDEE" transform="translate(220,195)"/>
<path d="M0 0 C2.46313739 1.82748903 3.83428618 3.22976216 4.48828125 6.26953125 C4.72518293 8.51479346 4.90361349 10.74455578 5 13 C3 12 3 12 1.9375 9.3125 C1.05914887 6.20899268 0.45573685 3.19015795 0 0 Z " fill="#BAC8CD" transform="translate(207,165)"/>
<path d="M0 0 C9.41002278 -0.3690205 9.41002278 -0.3690205 14 2 C14 2.33 14 2.66 14 3 C11.36 3 8.72 3 6 3 C6 2.34 6 1.68 6 1 C4.02 1 2.04 1 0 1 C0 0.67 0 0.34 0 0 Z " fill="#C5D0D4" transform="translate(119,128)"/>
<path d="M0 0 C0.66 0 1.32 0 2 0 C2.66 2.31 3.32 4.62 4 7 C3.01 7.495 3.01 7.495 2 8 C1.34 7.67 0.68 7.34 0 7 C0 4.69 0 2.38 0 0 Z " fill="#033B4F" transform="translate(227,195)"/>
<path d="M0 0 C0.66 0 1.32 0 2 0 C3.07525194 2.65228812 4.09456151 5.28368454 5 8 C3.68 7.67 2.36 7.34 1 7 C0.67 4.69 0.34 2.38 0 0 Z " fill="#03374C" transform="translate(200,184)"/>
<path d="M0 0 C1.32 0.33 2.64 0.66 4 1 C3.67 2.65 3.34 4.3 3 6 C2.01 5.67 1.02 5.34 0 5 C0 3.35 0 1.7 0 0 Z " fill="#023A4F" transform="translate(212,167)"/>
<path d="M0 0 C2.97 0.495 2.97 0.495 6 1 C5.67 2.65 5.34 4.3 5 6 C4.34 6 3.68 6 3 6 C2.67 5.01 2.34 4.02 2 3 C1.34 2.67 0.68 2.34 0 2 C0 1.34 0 0.68 0 0 Z " fill="#033348" transform="translate(201,121)"/>
<path d="M0 0 C0.99 0 1.98 0 3 0 C3 2.64 3 5.28 3 8 C2.67 7.34 2.34 6.68 2 6 C1.34 6 0.68 6 0 6 C0 4.02 0 2.04 0 0 Z " fill="#002A43" transform="translate(96,171)"/>
<path d="M0 0 C0 0.66 0 1.32 0 2 C-0.66 2 -1.32 2 -2 2 C-2 3.32 -2 4.64 -2 6 C-2.99 6 -3.98 6 -5 6 C-5 4.35 -5 2.7 -5 1 C-3 0 -3 0 0 0 Z " fill="#022D45" transform="translate(214,160)"/>
<path d="M0 0 C0.33 0.99 0.66 1.98 1 3 C-2.87564767 6.61139896 -2.87564767 6.61139896 -5 8 C-7.375 7.8125 -7.375 7.8125 -9 7 C-8.360625 6.71125 -7.72125 6.4225 -7.0625 6.125 C-4.84793921 5.17176549 -4.84793921 5.17176549 -4 3 C-3.01 2.67 -2.02 2.34 -1 2 C-0.67 1.34 -0.34 0.68 0 0 Z " fill="#7E97A1" transform="translate(207,144)"/>
<path d="M0 0 C0.66 0.33 1.32 0.66 2 1 C-0.75 5.875 -0.75 5.875 -3 7 C-3.66 7.99 -4.32 8.98 -5 10 C-4.49701212 5.59885603 -2.91227269 3.28804981 0 0 Z " fill="#75909A" transform="translate(100,140)"/>
<path d="M0 0 C2.5 1 2.5 1 5 3 C5.46837899 5.79374292 5.23424505 8.14221036 5 11 C2.64580098 7.46870146 1.33678429 4.01035287 0 0 Z " fill="#486C7A" transform="translate(219,116)"/>
<path d="M0 0 C3 3 3 3 3.1875 6.6875 C3.125625 7.780625 3.06375 8.87375 3 10 C2.34 10 1.68 10 1 10 C0.67 6.7 0.34 3.4 0 0 Z " fill="#D9E1E4" transform="translate(128,140)"/>
<path d="M0 0 C3.71599191 -0.20086443 4.77208445 -0.1519437 8 2 C7.67 2.99 7.34 3.98 7 5 C6.01 4.67 5.02 4.34 4 4 C4 3.34 4 2.68 4 2 C2.68 1.67 1.36 1.34 0 1 C0 0.67 0 0.34 0 0 Z " fill="#03384D" transform="translate(210,106)"/>
<path d="M0 0 C1.32 0 2.64 0 4 0 C4 0.66 4 1.32 4 2 C1.5 3.625 1.5 3.625 -1 5 C-1.33 4.01 -1.66 3.02 -2 2 C-1.34 1.34 -0.68 0.68 0 0 Z M-3 5 C-1 6 -1 6 -1 6 Z " fill="#053E52" transform="translate(134,202)"/>
<path d="M0 0 C0.99 0.33 1.98 0.66 3 1 C3 2.32 3 3.64 3 5 C2.34 5 1.68 5 1 5 C1 5.66 1 6.32 1 7 C0.34 7 -0.32 7 -1 7 C-0.67 4.69 -0.34 2.38 0 0 Z " fill="#013047" transform="translate(204,139)"/>
<path d="M0 0 C0.33 0 0.66 0 1 0 C1.99 3.63 2.98 7.26 4 11 C0 8 0 8 -0.390625 5.95703125 C-0.26041667 3.97135417 -0.13020833 1.98567708 0 0 Z " fill="#628490" transform="translate(95,177)"/>
<path d="M0 0 C0.33 0 0.66 0 1 0 C1 2.31 1 4.62 1 7 C0.01 7 -0.98 7 -2 7 C-1.125 1.125 -1.125 1.125 0 0 Z " fill="#00354C" transform="translate(82,140)"/>
</svg>
