<svg xmlns="http://www.w3.org/2000/svg" height="30mm" width="50mm"><path fill="none" d="M-7.249-81.923h215.352v204.691H-7.249z"/><path fill="none" d="M-15.778-92.584h214.072v214.499H-15.778z"/><path fill="none" d="M-1.706-76.806h200v198.721h-200z"/><g transform="translate(0 -75.59)" fill="none"><path d="M-1.706-1.216H205.97v203.412H-1.706z"/><path d="M-1.706-1.216h200v198.721h-200z"/><path d="M8.955 10.725h81.876v49.041H8.955z"/><path d="M37.1 21.386h79.318V70H37.1z"/><ellipse ry="38.166" rx="50.533" cy="-6.972" cx="68.443"/><path opacity=".13" d="M68.23-13.582h103.625v60.128H68.23z"/></g><ellipse ry="128.571" rx="123.881" cy="13.812" cx="96.588" opacity=".062" fill="none"/><path opacity=".062" fill="none" d="M109.168-55.911h54.158v52.026h-54.158z"/><path d="M72.922-40.132v52.877h75.906v-33.144c-1.32 1.01-2.553.524-3.03-2.08-.47-3.731-.086-.519-.312-3.322-.423.052-.852.094-1.287.126-2.114.974-2.45.61-2.539-.425-.007-.005-.016-.007-.023-.012-.435-.28-.262-.865-.07-1.459-.021-.25-.036-.499-.053-.748-.3-.047-.704-.24-1.248-.635-2.413 1.62-2.227-.207-2.033-1.78-.028-.026-.045-.038-.073-.066-.617-.602.014-1.725.018-2.587.002-.446.002-.893.002-1.338-.122-1.588-.308-3.173-.428-4.76l-.367.998c-.834 2.276-1.736 4.544-2.166 6.943-.018.004-.035.009-.053.012.015.107.056.347.043.348-.483.007-.964-.023-1.445-.063-.862.181-1.724.357-2.596.473a42.371 42.371 0 0 0-.767 2.367c-.159.383-.264.642-.364.85-.167 1.205-.93 1.798-3.963.115-.1-.01-.169-.02-.275-.03-.078-.006-.08-.085-.06-.181-.223-.196-.125-.528.06-.897V-37.147c0-1.623.63-2.612 1.404-2.985h-1.851c-.026 1.486.036 2.971.027 4.457-.005.38-.002.22-.008.477-.054 2.339-1.39 3.344-2.553 3.063.008.388-.127.503-.72 1.734-.067.138-.387.464-.325.324.08-.177.267-.284.377-.443a.713.713 0 0 0 .118-.608c-1.089.781-2.397 1.21-3.592 1.819-.443-1.072-.83-1.428-.63-2.326-.297-.203.238-.974.354-1.417.02-.075.047-.149.069-.224-.007-.682.086-1.387.494-1.871.05-.059-.04.301-.016.228.068-.207.1-.424.149-.636.05-.158.08-.323.148-.473.008-.018.03-.028.049-.04.02-.075.039-.153.055-.218-.003-.323-.044-.645-.051-.969a21.03 21.03 0 0 1 .148-2.877zm55.724 0c.44.213.836.621 1.094 1.235.161-.411.322-.822.479-1.235zm15.704 0l.117.594c.022-.002.044 0 .066-.002.258-.2.802-.277 1.668-.29.308-.06.615-.099.918-.12v-.182zm-.194.153c.056-.134-.235.344-.17.437.058-.145.11-.293.17-.437z" opacity=".062" fill="none"/><path opacity=".062" fill="none" d="M83.582-39.279h51.173V31.51H83.582z"/><path opacity=".062" fill="none" d="M109.168-3.885h8.529V8.482h-8.529z"/><path fill="none" d="M0 0h188.727v113.386H0z"/><path d="M31.756 53.664l-1.773 1.88q-.354.375-.815.375-.46 0-.815-.376L11.836 38.03q-.355-.375-.355-.864t.355-.864l16.517-17.514q.354-.376.815-.376.46 0 .815.376l1.773 1.879q.354.376.354.864 0 .489-.354.865l-13.93 14.77 13.93 14.77q.354.376.354.865 0 .488-.354.864zm20.947-40.101l-13.22 48.52q-.142.488-.55.733-.408.244-.833.094l-2.197-.64q-.461-.15-.692-.582-.23-.432-.088-.92l13.22-48.521q.142-.488.55-.733.408-.244.833-.094l2.197.64q.461.15.692.582.23.432.088.92zM75.99 38.029L59.473 55.543q-.354.376-.815.376-.46 0-.815-.376l-1.773-1.879q-.354-.376-.354-.864 0-.489.354-.865L70 37.165l-13.93-14.77q-.354-.376-.354-.865 0-.488.354-.864l1.773-1.88q.354-.375.815-.375.46 0 .815.376L75.99 36.3q.355.375.355.864t-.355.864z" fill="#f60"/><path d="M56.893 54.403c-.607-.722-1.104-1.447-1.104-1.611 0-.164 3.159-3.652 7.02-7.75 3.86-4.098 7.018-7.643 7.018-7.877 0-.235-3.158-3.78-7.019-7.878-3.86-4.098-7.019-7.585-7.019-7.75 0-.585 2.218-2.922 2.774-2.922.71 0 17.482 17.796 17.482 18.55 0 .754-16.772 18.55-17.482 18.55-.311 0-1.063-.59-1.67-1.312zM37.112 62.463c-.773-.212-1.508-.655-1.634-.983-.237-.616 12.861-49.232 13.412-49.783.171-.171 1.026-.091 1.9.177 1.152.354 1.588.725 1.588 1.354 0 1.38-12.87 48.619-13.39 49.146-.318.322-.924.351-1.876.09z" fill="#f60"/><path d="M20.275 46.784c-4.625-4.912-8.409-9.24-8.409-9.62 0-.776 16.561-18.55 17.285-18.55.63 0 2.758 2.26 2.758 2.927 0 .294-3.167 3.862-7.037 7.929s-7.036 7.53-7.036 7.695c0 .165 3.166 3.628 7.036 7.695 3.87 4.066 7.037 7.657 7.037 7.978 0 .658-2.167 2.877-2.808 2.877-.23 0-4.2-4.019-8.826-8.93z" fill="none"/><path d="M.352 56.781V.278h188.06v113.006H.352zm154.371 44.35v-2.772h2.109c1.613 0 2.39-.242 3.304-1.028 1.186-1.02 1.198-1.08 1.336-6.791.131-5.449.088-5.813-.79-6.692-.709-.708-1.237-.868-2.219-.672-.708.141-2.32.257-3.58.257h-2.292v20.469h1.066c1.028 0 1.066-.099 1.066-2.771zm-90.5-9.275l.118-6.29h3.815v12.793h2.132V85.566H74.553v12.793h2.132v-7.235c0-8.476.038-8.404-4.145-7.744-1.356.214-2.753.242-3.105.063-.352-.18-2.223-.23-4.157-.113l-3.519.213v14.872l1.173-.135 1.173-.134zm24.307-.223c.073-4.08-.055-6.83-.344-7.37-.417-.78-.816-.85-4.169-.74l-3.708.124-.13 2.025c-.123 1.922-.074 2.026.96 2.026.926 0 1.09-.192 1.09-1.28 0-1.231.07-1.279 1.918-1.279h1.92V89.404H83.38c-1.521 0-2.909.222-3.198.511-.628.628-.692 6.458-.084 7.595.378.705.9.79 4.371.716l3.943-.084zm5.212.33v-6.397h1.706c1.665 0 1.706.035 1.706 1.492 0 1.308.132 1.493 1.066 1.493 1.007 0 1.066-.13 1.066-2.33 0-2.93-.42-3.184-4.797-2.894l-3.305.219v7.122c0 3.917.128 7.25.284 7.406.156.157.732.285 1.28.285h.994zm10.235 2.984l.213-3.198 1.706 3.198c1.419 2.66 1.903 3.221 2.878 3.333.645.075 1.173-.011 1.173-.19 0-.18-.96-2.014-2.132-4.077-1.173-2.062-2.132-3.862-2.132-3.998 0-.137.863-1.584 1.919-3.215 1.055-1.632 1.919-3.057 1.919-3.167 0-.11-.528-.195-1.173-.19-.98.007-1.436.447-2.769 2.665l-1.596 2.656-.003-7.143-.003-7.143h-2.559v11.656c0 6.411.137 11.792.303 11.958.166.167.694.247 1.173.178.765-.11.896-.511 1.083-3.323zm15.806 2.97c.759-.406.825-.95.825-6.788 0-3.49-.116-6.65-.259-7.021-.21-.545-.987-.675-4.062-.675-3.756 0-3.808.015-4.249 1.173-.258.678-.388 3.57-.31 6.858.123 5.045.231 5.754.966 6.29.976.713 5.852.825 7.09.163zm17.639-.228c.43-.43.67-1.433.67-2.8 0-2.073-.032-2.127-1.173-1.996-1.018.117-1.19.346-1.305 1.734-.131 1.588-.145 1.6-2.025 1.6h-1.894V85.139h1.92c1.908 0 1.918.008 1.918 1.493 0 1.374.102 1.492 1.28 1.492 1.226 0 1.279-.077 1.279-1.867 0-2.578-.53-2.883-4.756-2.735l-3.56.125-.118 6.82c-.104 6.04-.034 6.882.615 7.356 1.094.8 6.312.702 7.149-.134zm12.184-6.885v-7.37h-2.132v6.137c0 6.767.047 6.656-2.807 6.656h-1.458V83.433h-2.132v7.214c0 5.387.135 7.262.533 7.402.293.104 2.212.175 4.265.158l3.73-.031v-7.372zm17.057.092v-7.463h-2.559v7.179c0 3.948.129 7.306.285 7.462.156.157.732.285 1.28.285h.994zm10.844 6.793c.428-.428.67-1.43.67-2.772 0-1.958-.073-2.102-1.066-2.102-.96 0-1.066.17-1.066 1.706v1.706h-3.838V85.09l1.813.131c1.7.123 1.82.216 1.946 1.517.11 1.148.312 1.386 1.172 1.386.925 0 1.04-.184 1.04-1.67 0-2.955-.094-3.02-4.265-3.02-3.023 0-3.797.13-4.006.674-.142.37-.258 3.428-.258 6.793 0 7.42.022 7.458 4.264 7.458 2.09 0 3.115-.191 3.594-.67zm-10.844-18.762c0-1.406-.087-1.51-1.169-1.385-1.969.227-1.886 2.906.09 2.906.953 0 1.08-.178 1.08-1.52zM39.585 62.005c.622-1.46 13.22-48.166 13.22-49.013 0-.798-2.888-1.922-3.913-1.523-.678.264-14.187 49.566-13.767 50.244.369.598 1.862 1.19 3.083 1.224.615.017 1.118-.323 1.377-.932zm-8.573-7.371c.728-.83 1.323-1.701 1.323-1.939 0-.237-3.166-3.757-7.036-7.823-3.87-4.065-7.036-7.534-7.036-7.707 0-.174 3.166-3.642 7.036-7.708 3.87-4.065 7.036-7.586 7.036-7.823 0-.635-2.565-3.446-3.145-3.446-.74 0-17.75 18.185-17.75 18.977 0 .791 17.01 18.976 17.75 18.976.274 0 1.094-.678 1.822-1.507zm34.015-4.783c11.266-11.93 11.715-12.447 11.357-13.078-.722-1.272-17.284-18.585-17.78-18.585-.591 0-2.815 2.19-2.815 2.772 0 .21.642-.242 1.427-1.002l1.427-1.383 5.663 5.864c5.677 5.88 11.526 12.337 11.526 12.726 0 .389-5.848 6.846-11.525 12.724l-5.661 5.862-1.215-1.164c-.669-.64-1.215-1.39-1.215-1.668s2.618-3.36 5.819-6.85c6.6-7.198 8.283-9.146 6.033-6.985-4.835 4.643-12.279 13.082-12.279 13.92 0 .85 2.16 3.137 2.961 3.137.185 0 3.01-2.83 6.277-6.29zm3.505-14.499c-2.974-3.281-11.672-12.768-12.218-13.326-.41-.418-.571-.452-.467-.099.177.596 13.14 14.598 13.514 14.598.129 0-.244-.528-.829-1.173z" fill="none"/><path d="M.352 56.781V.278h188.06v113.006H.352zm154.371 44.35v-2.772h2.109c1.613 0 2.39-.242 3.304-1.028 1.186-1.02 1.198-1.08 1.336-6.791.131-5.449.088-5.813-.79-6.692-.709-.708-1.237-.868-2.219-.672-.708.141-2.32.257-3.58.257h-2.292v20.469h1.066c1.028 0 1.066-.099 1.066-2.771zm-90.5-9.275l.118-6.29h3.815v12.793h2.132V85.566H74.553v12.793h2.132v-7.235c0-8.476.038-8.404-4.145-7.744-1.356.214-2.753.242-3.105.063-.352-.18-2.223-.23-4.157-.113l-3.519.213v14.872l1.173-.135 1.173-.134zm24.307-.223c.073-4.08-.055-6.83-.344-7.37-.417-.78-.816-.85-4.169-.74l-3.708.124-.13 2.025c-.123 1.922-.074 2.026.96 2.026.926 0 1.09-.192 1.09-1.28 0-1.231.07-1.279 1.918-1.279h1.92V89.404H83.38c-1.521 0-2.909.222-3.198.511-.628.628-.692 6.458-.084 7.595.378.705.9.79 4.371.716l3.943-.084zm5.212.33v-6.397h1.706c1.665 0 1.706.035 1.706 1.492 0 1.308.132 1.493 1.066 1.493 1.007 0 1.066-.13 1.066-2.33 0-2.93-.42-3.184-4.797-2.894l-3.305.219v7.122c0 3.917.128 7.25.284 7.406.156.157.732.285 1.28.285h.994zm10.235 2.984l.213-3.198 1.706 3.198c1.419 2.66 1.903 3.221 2.878 3.333.645.075 1.173-.011 1.173-.19 0-.18-.96-2.014-2.132-4.077-1.173-2.062-2.132-3.862-2.132-3.998 0-.137.863-1.584 1.919-3.215 1.055-1.632 1.919-3.057 1.919-3.167 0-.11-.528-.195-1.173-.19-.98.007-1.436.447-2.769 2.665l-1.596 2.656-.003-7.143-.003-7.143h-2.559v11.656c0 6.411.137 11.792.303 11.958.166.167.694.247 1.173.178.765-.11.896-.511 1.083-3.323zm15.806 2.97c.759-.406.825-.95.825-6.788 0-3.49-.116-6.65-.259-7.021-.21-.545-.987-.675-4.062-.675-3.756 0-3.808.015-4.249 1.173-.258.678-.388 3.57-.31 6.858.123 5.045.231 5.754.966 6.29.976.713 5.852.825 7.09.163zm17.639-.228c.43-.43.67-1.433.67-2.8 0-2.073-.032-2.127-1.173-1.996-1.018.117-1.19.346-1.305 1.734-.131 1.588-.145 1.6-2.025 1.6h-1.894V85.139h1.92c1.908 0 1.918.008 1.918 1.493 0 1.374.102 1.492 1.28 1.492 1.226 0 1.279-.077 1.279-1.867 0-2.578-.53-2.883-4.756-2.735l-3.56.125-.118 6.82c-.104 6.04-.034 6.882.615 7.356 1.094.8 6.312.702 7.149-.134zm12.184-6.885v-7.37h-2.132v6.137c0 6.767.047 6.656-2.807 6.656h-1.458V83.433h-2.132v7.214c0 5.387.135 7.262.533 7.402.293.104 2.212.175 4.265.158l3.73-.031v-7.372zm17.057.092v-7.463h-2.559v7.179c0 3.948.129 7.306.285 7.462.156.157.732.285 1.28.285h.994zm10.844 6.793c.428-.428.67-1.43.67-2.772 0-1.958-.073-2.102-1.066-2.102-.96 0-1.066.17-1.066 1.706v1.706h-3.838V85.09l1.813.131c1.7.123 1.82.216 1.946 1.517.11 1.148.312 1.386 1.172 1.386.925 0 1.04-.184 1.04-1.67 0-2.955-.094-3.02-4.265-3.02-3.023 0-3.797.13-4.006.674-.142.37-.258 3.428-.258 6.793 0 7.42.022 7.458 4.264 7.458 2.09 0 3.115-.191 3.594-.67zm-10.844-18.762c0-1.406-.087-1.51-1.169-1.385-1.969.227-1.886 2.906.09 2.906.953 0 1.08-.178 1.08-1.52zM39.585 62.005c.622-1.46 13.22-48.166 13.22-49.013 0-.798-2.888-1.922-3.913-1.523-.678.264-14.187 49.566-13.767 50.244.369.598 1.862 1.19 3.083 1.224.615.017 1.118-.323 1.377-.932zm-8.573-7.371c.728-.83 1.323-1.701 1.323-1.939 0-.237-3.166-3.757-7.036-7.823-3.87-4.065-7.036-7.534-7.036-7.707 0-.174 3.166-3.642 7.036-7.708 3.87-4.065 7.036-7.586 7.036-7.823 0-.635-2.565-3.446-3.145-3.446-.74 0-17.75 18.185-17.75 18.977 0 .791 17.01 18.976 17.75 18.976.274 0 1.094-.678 1.822-1.507zm34.015-4.783c11.266-11.93 11.715-12.447 11.357-13.078-.722-1.272-17.284-18.585-17.78-18.585-.591 0-2.815 2.19-2.815 2.772 0 .21.642-.242 1.427-1.002l1.427-1.383 5.663 5.864c5.677 5.88 11.526 12.337 11.526 12.726 0 .389-5.848 6.846-11.525 12.724l-5.661 5.862-1.215-1.164c-.669-.64-1.215-1.39-1.215-1.668s2.618-3.36 5.819-6.85c6.6-7.198 8.283-9.146 6.033-6.985-4.835 4.643-12.279 13.082-12.279 13.92 0 .85 2.16 3.137 2.961 3.137.185 0 3.01-2.83 6.277-6.29zm3.505-14.499c-2.974-3.281-11.672-12.768-12.218-13.326-.41-.418-.571-.452-.467-.099.177.596 13.14 14.598 13.514 14.598.129 0-.244-.528-.829-1.173z" fill="none"/><path d="M.352 56.781V.278h188.06v113.006H.352zm154.371 44.35v-2.772h2.109c1.613 0 2.39-.242 3.304-1.028 1.186-1.02 1.198-1.08 1.336-6.791.131-5.449.088-5.813-.79-6.692-.709-.708-1.237-.868-2.219-.672-.708.141-2.32.257-3.58.257h-2.292v20.469h1.066c1.028 0 1.066-.099 1.066-2.771zm-90.5-9.275l.118-6.29h3.815v12.793h2.132V85.566H74.553v12.793h2.132v-7.235c0-8.476.038-8.404-4.145-7.744-1.356.214-2.753.242-3.105.063-.352-.18-2.223-.23-4.157-.113l-3.519.213v14.872l1.173-.135 1.173-.134zm24.307-.223c.073-4.08-.055-6.83-.344-7.37-.417-.78-.816-.85-4.169-.74l-3.708.124-.13 2.025c-.123 1.922-.074 2.026.96 2.026.926 0 1.09-.192 1.09-1.28 0-1.231.07-1.279 1.918-1.279h1.92V89.404H83.38c-1.521 0-2.909.222-3.198.511-.628.628-.692 6.458-.084 7.595.378.705.9.79 4.371.716l3.943-.084zm5.212.33v-6.397h1.706c1.665 0 1.706.035 1.706 1.492 0 1.308.132 1.493 1.066 1.493 1.007 0 1.066-.13 1.066-2.33 0-2.93-.42-3.184-4.797-2.894l-3.305.219v7.122c0 3.917.128 7.25.284 7.406.156.157.732.285 1.28.285h.994zm10.235 2.984l.213-3.198 1.706 3.198c1.419 2.66 1.903 3.221 2.878 3.333.645.075 1.173-.011 1.173-.19 0-.18-.96-2.014-2.132-4.077-1.173-2.062-2.132-3.862-2.132-3.998 0-.137.863-1.584 1.919-3.215 1.055-1.632 1.919-3.057 1.919-3.167 0-.11-.528-.195-1.173-.19-.98.007-1.436.447-2.769 2.665l-1.596 2.656-.003-7.143-.003-7.143h-2.559v11.656c0 6.411.137 11.792.303 11.958.166.167.694.247 1.173.178.765-.11.896-.511 1.083-3.323zm15.806 2.97c.759-.406.825-.95.825-6.788 0-3.49-.116-6.65-.259-7.021-.21-.545-.987-.675-4.062-.675-3.756 0-3.808.015-4.249 1.173-.258.678-.388 3.57-.31 6.858.123 5.045.231 5.754.966 6.29.976.713 5.852.825 7.09.163zm17.639-.228c.43-.43.67-1.433.67-2.8 0-2.073-.032-2.127-1.173-1.996-1.018.117-1.19.346-1.305 1.734-.131 1.588-.145 1.6-2.025 1.6h-1.894V85.139h1.92c1.908 0 1.918.008 1.918 1.493 0 1.374.102 1.492 1.28 1.492 1.226 0 1.279-.077 1.279-1.867 0-2.578-.53-2.883-4.756-2.735l-3.56.125-.118 6.82c-.104 6.04-.034 6.882.615 7.356 1.094.8 6.312.702 7.149-.134zm12.184-6.885v-7.37h-2.132v6.137c0 6.767.047 6.656-2.807 6.656h-1.458V83.433h-2.132v7.214c0 5.387.135 7.262.533 7.402.293.104 2.212.175 4.265.158l3.73-.031v-7.372zm17.057.092v-7.463h-2.559v7.179c0 3.948.129 7.306.285 7.462.156.157.732.285 1.28.285h.994zm10.844 6.793c.428-.428.67-1.43.67-2.772 0-1.958-.073-2.102-1.066-2.102-.96 0-1.066.17-1.066 1.706v1.706h-3.838V85.09l1.813.131c1.7.123 1.82.216 1.946 1.517.11 1.148.312 1.386 1.172 1.386.925 0 1.04-.184 1.04-1.67 0-2.955-.094-3.02-4.265-3.02-3.023 0-3.797.13-4.006.674-.142.37-.258 3.428-.258 6.793 0 7.42.022 7.458 4.264 7.458 2.09 0 3.115-.191 3.594-.67zm-10.844-18.762c0-1.406-.087-1.51-1.169-1.385-1.969.227-1.886 2.906.09 2.906.953 0 1.08-.178 1.08-1.52zM39.585 62.005c.622-1.46 13.22-48.166 13.22-49.013 0-.798-2.888-1.922-3.913-1.523-.678.264-14.187 49.566-13.767 50.244.369.598 1.862 1.19 3.083 1.224.615.017 1.118-.323 1.377-.932zm-8.573-7.371c.728-.83 1.323-1.701 1.323-1.939 0-.237-3.166-3.757-7.036-7.823-3.87-4.065-7.036-7.534-7.036-7.707 0-.174 3.166-3.642 7.036-7.708 3.87-4.065 7.036-7.586 7.036-7.823 0-.635-2.565-3.446-3.145-3.446-.74 0-17.75 18.185-17.75 18.977 0 .791 17.01 18.976 17.75 18.976.274 0 1.094-.678 1.822-1.507zm34.015-4.783c11.266-11.93 11.715-12.447 11.357-13.078-.722-1.272-17.284-18.585-17.78-18.585-.591 0-2.815 2.19-2.815 2.772 0 .21.642-.242 1.427-1.002l1.427-1.383 5.663 5.864c5.677 5.88 11.526 12.337 11.526 12.726 0 .389-5.848 6.846-11.525 12.724l-5.661 5.862-1.215-1.164c-.669-.64-1.215-1.39-1.215-1.668s2.618-3.36 5.819-6.85c6.6-7.198 8.283-9.146 6.033-6.985-4.835 4.643-12.279 13.082-12.279 13.92 0 .85 2.16 3.137 2.961 3.137.185 0 3.01-2.83 6.277-6.29zm3.505-14.499c-2.974-3.281-11.672-12.768-12.218-13.326-.41-.418-.571-.452-.467-.099.177.596 13.14 14.598 13.514 14.598.129 0-.244-.528-.829-1.173z" fill="none"/><path d="M.352 56.781V.278h188.06v113.006H.352zm154.371 44.35v-2.772h2.109c1.613 0 2.39-.242 3.304-1.028 1.186-1.02 1.198-1.08 1.336-6.791.131-5.449.088-5.813-.79-6.692-.709-.708-1.237-.868-2.219-.672-.708.141-2.32.257-3.58.257h-2.292v20.469h1.066c1.028 0 1.066-.099 1.066-2.771zm-90.5-9.275l.118-6.29h3.815v12.793h2.132V85.566H74.553v12.793h2.132v-7.235c0-8.476.038-8.404-4.145-7.744-1.356.214-2.753.242-3.105.063-.352-.18-2.223-.23-4.157-.113l-3.519.213v14.872l1.173-.135 1.173-.134zm24.307-.223c.073-4.08-.055-6.83-.344-7.37-.417-.78-.816-.85-4.169-.74l-3.708.124-.13 2.025c-.123 1.922-.074 2.026.96 2.026.926 0 1.09-.192 1.09-1.28 0-1.231.07-1.279 1.918-1.279h1.92V89.404H83.38c-1.521 0-2.909.222-3.198.511-.628.628-.692 6.458-.084 7.595.378.705.9.79 4.371.716l3.943-.084zm5.212.33v-6.397h1.706c1.665 0 1.706.035 1.706 1.492 0 1.308.132 1.493 1.066 1.493 1.007 0 1.066-.13 1.066-2.33 0-2.93-.42-3.184-4.797-2.894l-3.305.219v7.122c0 3.917.128 7.25.284 7.406.156.157.732.285 1.28.285h.994zm10.235 2.984l.213-3.198 1.706 3.198c1.419 2.66 1.903 3.221 2.878 3.333.645.075 1.173-.011 1.173-.19 0-.18-.96-2.014-2.132-4.077-1.173-2.062-2.132-3.862-2.132-3.998 0-.137.863-1.584 1.919-3.215 1.055-1.632 1.919-3.057 1.919-3.167 0-.11-.528-.195-1.173-.19-.98.007-1.436.447-2.769 2.665l-1.596 2.656-.003-7.143-.003-7.143h-2.559v11.656c0 6.411.137 11.792.303 11.958.166.167.694.247 1.173.178.765-.11.896-.511 1.083-3.323zm15.806 2.97c.759-.406.825-.95.825-6.788 0-3.49-.116-6.65-.259-7.021-.21-.545-.987-.675-4.062-.675-3.756 0-3.808.015-4.249 1.173-.258.678-.388 3.57-.31 6.858.123 5.045.231 5.754.966 6.29.976.713 5.852.825 7.09.163zm17.639-.228c.43-.43.67-1.433.67-2.8 0-2.073-.032-2.127-1.173-1.996-1.018.117-1.19.346-1.305 1.734-.131 1.588-.145 1.6-2.025 1.6h-1.894V85.139h1.92c1.908 0 1.918.008 1.918 1.493 0 1.374.102 1.492 1.28 1.492 1.226 0 1.279-.077 1.279-1.867 0-2.578-.53-2.883-4.756-2.735l-3.56.125-.118 6.82c-.104 6.04-.034 6.882.615 7.356 1.094.8 6.312.702 7.149-.134zm12.184-6.885v-7.37h-2.132v6.137c0 6.767.047 6.656-2.807 6.656h-1.458V83.433h-2.132v7.214c0 5.387.135 7.262.533 7.402.293.104 2.212.175 4.265.158l3.73-.031v-7.372zm17.057.092v-7.463h-2.559v7.179c0 3.948.129 7.306.285 7.462.156.157.732.285 1.28.285h.994zm10.844 6.793c.428-.428.67-1.43.67-2.772 0-1.958-.073-2.102-1.066-2.102-.96 0-1.066.17-1.066 1.706v1.706h-3.838V85.09l1.813.131c1.7.123 1.82.216 1.946 1.517.11 1.148.312 1.386 1.172 1.386.925 0 1.04-.184 1.04-1.67 0-2.955-.094-3.02-4.265-3.02-3.023 0-3.797.13-4.006.674-.142.37-.258 3.428-.258 6.793 0 7.42.022 7.458 4.264 7.458 2.09 0 3.115-.191 3.594-.67zm-10.844-18.762c0-1.406-.087-1.51-1.169-1.385-1.969.227-1.886 2.906.09 2.906.953 0 1.08-.178 1.08-1.52zM39.585 62.005c.622-1.46 13.22-48.166 13.22-49.013 0-.798-2.888-1.922-3.913-1.523-.678.264-14.187 49.566-13.767 50.244.369.598 1.862 1.19 3.083 1.224.615.017 1.118-.323 1.377-.932zm-8.573-7.371c.728-.83 1.323-1.701 1.323-1.939 0-.237-3.166-3.757-7.036-7.823-3.87-4.065-7.036-7.534-7.036-7.707 0-.174 3.166-3.642 7.036-7.708 3.87-4.065 7.036-7.586 7.036-7.823 0-.635-2.565-3.446-3.145-3.446-.74 0-17.75 18.185-17.75 18.977 0 .791 17.01 18.976 17.75 18.976.274 0 1.094-.678 1.822-1.507zm34.015-4.783c11.266-11.93 11.715-12.447 11.357-13.078-.722-1.272-17.284-18.585-17.78-18.585-.591 0-2.815 2.19-2.815 2.772 0 .21.642-.242 1.427-1.002l1.427-1.383 5.663 5.864c5.677 5.88 11.526 12.337 11.526 12.726 0 .389-5.848 6.846-11.525 12.724l-5.661 5.862-1.215-1.164c-.669-.64-1.215-1.39-1.215-1.668s2.618-3.36 5.819-6.85c6.6-7.198 8.283-9.146 6.033-6.985-4.835 4.643-12.279 13.082-12.279 13.92 0 .85 2.16 3.137 2.961 3.137.185 0 3.01-2.83 6.277-6.29zm3.505-14.499c-2.974-3.281-11.672-12.768-12.218-13.326-.41-.418-.571-.452-.467-.099.177.596 13.14 14.598 13.514 14.598.129 0-.244-.528-.829-1.173z" fill="none"/></svg>
