<svg xmlns="http://www.w3.org/2000/svg" viewBox="0 0 264.583 264.583" height="1000" width="1000"><path d="M83.528 205.887l-7.113 8.343q-1.42 1.664-3.27 1.664-1.845 0-3.269-1.67l-66.26-77.716q-1.425-1.664-1.425-3.834t1.424-3.834l66.261-77.722q1.42-1.67 3.27-1.67 1.845 0 3.27 1.67l7.112 8.338q1.42 1.67 1.42 3.834 0 2.17-1.42 3.84l-55.883 65.544 55.883 65.545q1.42 1.669 1.42 3.838 0 2.166-1.42 3.835zM167.56 27.931l-53.034 215.317q-.57 2.166-2.206 3.253-1.637 1.084-3.342.418l-8.814-2.84q-1.849-.666-2.776-2.583-.922-1.917-.353-4.083L150.07 22.091q.57-2.166 2.206-3.253 1.637-1.084 3.342-.418l8.813 2.84q1.85.666 2.777 2.583.922 1.917.352 4.083zm93.42 108.573l-66.26 77.722q-1.42 1.668-3.27 1.668-1.845 0-3.27-1.668l-7.112-8.339q-1.42-1.669-1.42-3.834 0-2.17 1.42-3.839l55.882-65.544-55.882-65.545q-1.42-1.67-1.42-3.839 0-2.166 1.42-3.834l7.112-8.343q1.42-1.664 3.27-1.664 1.845 0 3.27 1.669l66.26 77.718q1.424 1.663 1.424 3.834 0 2.17-1.424 3.834z" fill="#f60"/></svg>