<svg xmlns="http://www.w3.org/2000/svg" viewBox="0 0 23.813 23.813" height="90" width="90"><path d="M7.627 18.033l-.624.714q-.125.143-.287.143-.162 0-.287-.143L.615 12.093q-.125-.142-.125-.328 0-.186.125-.328L6.43 4.782q.125-.143.287-.143.162 0 .287.143l.624.714q.125.143.125.328 0 .186-.125.33l-4.903 5.61 4.903 5.613q.125.143.125.328 0 .186-.125.329zM15 2.797l-4.653 18.435q-.05.185-.194.278-.143.093-.293.036l-.773-.243q-.162-.057-.244-.221-.08-.164-.03-.35l4.653-18.435q.05-.185.193-.278.144-.093.293-.036l.774.243q.162.057.243.221.081.164.031.35zm8.197 9.296l-5.814 6.654q-.124.143-.287.143-.162 0-.287-.143l-.624-.714q-.124-.143-.124-.328 0-.186.124-.329l4.904-5.612-4.904-5.611q-.124-.143-.124-.329 0-.185.124-.328l.624-.715q.125-.142.287-.142.162 0 .287.143l5.814 6.654q.125.142.125.328 0 .186-.125.328z" fill="#f60"/></svg>