<svg xmlns="http://www.w3.org/2000/svg" viewBox="0 0 500 427.24"><defs><style>.cls-1{fill:#333a46;}.cls-2{fill:#fff;}.cls-3{fill:#7bc0bc;}</style></defs><g id="Ebene_2" data-name="Ebene 2"><g id="business_reviews" data-name="business reviews"><polygon class="cls-1" points="405.52 364.46 0 364.46 94.48 0 500 0 405.52 364.46"/><path class="cls-1" d="M23.16,397.09q3,4.57,3,12.76a26.93,26.93,0,0,1-1.41,9.1,13.6,13.6,0,0,1-4.09,6.11,9.54,9.54,0,0,1-6.23,2.18q-4.71,0-7.94-4.41L6,426.48H1.39V379.92l5.21-.69v18.21q3.24-4.92,8.45-4.92A9.28,9.28,0,0,1,23.16,397.09Zm-4.57,22.43q2-3.12,2-9.67c0-4.49-.6-7.74-1.81-9.73a5.72,5.72,0,0,0-5.16-3q-4,0-7,5.17v15.87a9.94,9.94,0,0,0,2.92,3.28,6.32,6.32,0,0,0,3.66,1.2A6.07,6.07,0,0,0,18.59,419.52Z"/><path class="cls-1" d="M55.88,426.48H51.4l-.4-5.16a12.32,12.32,0,0,1-3.91,4.5,9.84,9.84,0,0,1-5.39,1.42,7.52,7.52,0,0,1-6.12-2.65c-1.48-1.76-2.21-4.26-2.21-7.5V393.28h5.21v23.18c0,2.27.36,3.88,1.08,4.82a4.12,4.12,0,0,0,3.51,1.42q4.36,0,7.49-5.73V393.28h5.22Z"/><path class="cls-1" d="M78.84,393.47a16.27,16.27,0,0,1,4.65,2.83L81.28,400a17.11,17.11,0,0,0-3.89-2.14,10.76,10.76,0,0,0-3.88-.7,6.32,6.32,0,0,0-4,1.17,4.22,4.22,0,0,0-.08,6.33,15.06,15.06,0,0,0,5,2.2,17.2,17.2,0,0,1,7.45,3.79,8.68,8.68,0,0,1,2.47,6.55,8.82,8.82,0,0,1-3.43,7.49,13.48,13.48,0,0,1-8.37,2.59,15.55,15.55,0,0,1-11.28-4.35L64,419.36a12.7,12.7,0,0,0,8.39,3.21,7.4,7.4,0,0,0,4.68-1.35,4.43,4.43,0,0,0,1.73-3.68,5.28,5.28,0,0,0-.63-2.75A5.1,5.1,0,0,0,76.06,413a27.14,27.14,0,0,0-4.48-1.67c-3.18-.93-5.47-2.16-6.89-3.72A9,9,0,0,1,64,397a9.27,9.27,0,0,1,3.86-3.28,12.74,12.74,0,0,1,5.53-1.17A15.14,15.14,0,0,1,78.84,393.47Z"/><path class="cls-1" d="M95.51,378.48a4.07,4.07,0,0,1,1,2.83,4,4,0,0,1-1,2.8,3.46,3.46,0,0,1-2.67,1.11,3.39,3.39,0,0,1-2.61-1.11,4,4,0,0,1-1-2.8,4.07,4.07,0,0,1,1-2.83,3.35,3.35,0,0,1,2.61-1.14A3.41,3.41,0,0,1,95.51,378.48Zm0,48H90.29v-33.2h5.22Z"/><path class="cls-1" d="M125.3,395.23a11.17,11.17,0,0,1,2.3,7.44v23.81h-5.22v-23c0-2.36-.39-4-1.19-5a4.26,4.26,0,0,0-3.51-1.45,6.36,6.36,0,0,0-4.2,1.51,15.42,15.42,0,0,0-3.4,4.35v23.56h-5.22v-33.2h4.48l.46,4.91a12.28,12.28,0,0,1,3.94-4.15,9.35,9.35,0,0,1,5.18-1.52A7.92,7.92,0,0,1,125.3,395.23Z"/><path class="cls-1" d="M159.12,411.87H140.07q.35,5.47,2.5,8.06a6.9,6.9,0,0,0,5.55,2.58,11.07,11.07,0,0,0,4-.69,15.35,15.35,0,0,0,3.8-2.21l2.27,3.47a15.53,15.53,0,0,1-10.43,4.16A11.57,11.57,0,0,1,138,422.7q-3.48-4.53-3.48-12.47a26,26,0,0,1,1.5-9.17,14.27,14.27,0,0,1,4.31-6.27,10.19,10.19,0,0,1,6.6-2.27,10.61,10.61,0,0,1,9.13,4.35q3.18,4.35,3.18,12Q159.24,410.36,159.12,411.87Zm-5-4.67q0-4.9-1.76-7.49a6,6,0,0,0-5.27-2.59q-6.41,0-7,10.46h14Z"/><path class="cls-1" d="M180.05,393.47a16.27,16.27,0,0,1,4.65,2.83L182.48,400a17.06,17.06,0,0,0-3.88-2.14,10.76,10.76,0,0,0-3.88-.7,6.32,6.32,0,0,0-4,1.17,4.23,4.23,0,0,0-.09,6.33,15.15,15.15,0,0,0,5,2.2,17.19,17.19,0,0,1,7.46,3.79,8.71,8.71,0,0,1,2.47,6.55,8.82,8.82,0,0,1-3.43,7.49,13.48,13.48,0,0,1-8.37,2.59,15.53,15.53,0,0,1-11.28-4.35l2.78-3.53a12.7,12.7,0,0,0,8.39,3.21,7.44,7.44,0,0,0,4.68-1.35,4.43,4.43,0,0,0,1.73-3.68,5.28,5.28,0,0,0-.63-2.75,5.1,5.1,0,0,0-2.15-1.82,27.5,27.5,0,0,0-4.48-1.67c-3.18-.93-5.47-2.16-6.89-3.72a9,9,0,0,1-.74-10.61,9.21,9.21,0,0,1,3.86-3.28,12.71,12.71,0,0,1,5.53-1.17A15.14,15.14,0,0,1,180.05,393.47Z"/><path class="cls-1" d="M205.11,393.47a16.27,16.27,0,0,1,4.65,2.83L207.54,400a17.06,17.06,0,0,0-3.88-2.14,10.76,10.76,0,0,0-3.88-.7,6.32,6.32,0,0,0-4,1.17,4.22,4.22,0,0,0-.08,6.33,15,15,0,0,0,5,2.2,17.19,17.19,0,0,1,7.46,3.79,8.71,8.71,0,0,1,2.47,6.55,8.82,8.82,0,0,1-3.43,7.49,13.48,13.48,0,0,1-8.37,2.59,15.55,15.55,0,0,1-11.28-4.35l2.78-3.53a12.7,12.7,0,0,0,8.39,3.21,7.44,7.44,0,0,0,4.68-1.35,4.43,4.43,0,0,0,1.73-3.68,5.28,5.28,0,0,0-.63-2.75,5.1,5.1,0,0,0-2.15-1.82,27.5,27.5,0,0,0-4.48-1.67c-3.18-.93-5.47-2.16-6.89-3.72a9,9,0,0,1-.74-10.61,9.21,9.21,0,0,1,3.86-3.28,12.74,12.74,0,0,1,5.53-1.17A15.14,15.14,0,0,1,205.11,393.47Z"/><path class="cls-1" d="M246.1,392.9l-1,5.67a9.86,9.86,0,0,0-2.61-.38,5.34,5.34,0,0,0-4.48,2.27,18.05,18.05,0,0,0-2.67,7.06v19h-5.21v-33.2h4.48l.51,6.74a12.78,12.78,0,0,1,3.23-5.61,6.79,6.79,0,0,1,4.76-1.89A11.08,11.08,0,0,1,246.1,392.9Z"/><path class="cls-1" d="M272.52,411.87h-19q.34,5.47,2.49,8.06a6.92,6.92,0,0,0,5.56,2.58,11.07,11.07,0,0,0,4-.69,15.35,15.35,0,0,0,3.8-2.21l2.27,3.47a15.57,15.57,0,0,1-10.43,4.16,11.57,11.57,0,0,1-9.73-4.54q-3.48-4.53-3.49-12.47a25.78,25.78,0,0,1,1.51-9.17,14.19,14.19,0,0,1,4.31-6.27,10.19,10.19,0,0,1,6.6-2.27,10.62,10.62,0,0,1,9.13,4.35q3.18,4.35,3.17,12C272.63,409.87,272.6,410.86,272.52,411.87Zm-5-4.67q0-4.9-1.76-7.49a6,6,0,0,0-5.27-2.59q-6.42,0-7,10.46h14Z"/><path class="cls-1" d="M291.06,426.48h-6.29l-10.32-33.2h5.67l7.82,28,7.77-28h5.5Z"/><path class="cls-1" d="M311,378.48a4.07,4.07,0,0,1,1,2.83,4,4,0,0,1-1,2.8,3.45,3.45,0,0,1-2.66,1.11,3.39,3.39,0,0,1-2.61-1.11,4,4,0,0,1-1-2.8,4.07,4.07,0,0,1,1-2.83,3.35,3.35,0,0,1,2.61-1.14A3.41,3.41,0,0,1,311,378.48Zm0,48h-5.21v-33.2H311Z"/><path class="cls-1" d="M342.77,411.87h-19q.34,5.47,2.49,8.06a6.92,6.92,0,0,0,5.56,2.58,11.07,11.07,0,0,0,4-.69,15.35,15.35,0,0,0,3.8-2.21l2.27,3.47a15.57,15.57,0,0,1-10.43,4.16,11.57,11.57,0,0,1-9.73-4.54q-3.48-4.53-3.49-12.47a25.78,25.78,0,0,1,1.51-9.17,14.19,14.19,0,0,1,4.31-6.27,10.19,10.19,0,0,1,6.6-2.27,10.62,10.62,0,0,1,9.13,4.35q3.18,4.35,3.17,12C342.88,409.87,342.85,410.86,342.77,411.87Zm-5-4.67q0-4.9-1.76-7.49a6,6,0,0,0-5.27-2.59q-6.42,0-7,10.46h14Z"/><path class="cls-1" d="M377.41,426.48h-7.08l-5.22-28-5.39,28h-6.91l-7-33.2h5.22l5.39,29.17,5.89-29.17h5.84l5.62,29.17,5.44-29.17h5Z"/><path class="cls-1" d="M402.93,393.47a16.13,16.13,0,0,1,4.65,2.83L405.37,400a17.11,17.11,0,0,0-3.89-2.14,10.76,10.76,0,0,0-3.88-.7,6.34,6.34,0,0,0-4,1.17,4.22,4.22,0,0,0-.08,6.33,15.15,15.15,0,0,0,5,2.2,17.2,17.2,0,0,1,7.45,3.79,8.68,8.68,0,0,1,2.47,6.55,8.79,8.79,0,0,1-3.43,7.49,13.47,13.47,0,0,1-8.36,2.59,15.56,15.56,0,0,1-11.29-4.35l2.78-3.53a12.7,12.7,0,0,0,8.39,3.21,7.4,7.4,0,0,0,4.68-1.35,4.43,4.43,0,0,0,1.73-3.68,5.38,5.38,0,0,0-.62-2.75,5.2,5.2,0,0,0-2.16-1.82,27.14,27.14,0,0,0-4.48-1.67c-3.17-.93-5.47-2.16-6.89-3.72a8.47,8.47,0,0,1-2.12-5.92,8.3,8.3,0,0,1,1.39-4.69,9.18,9.18,0,0,1,3.85-3.28,12.77,12.77,0,0,1,5.53-1.17A15.14,15.14,0,0,1,402.93,393.47Z"/><path class="cls-2" d="M369.08,82.73H146.92a21.69,21.69,0,0,0-21.66,21.66V239.9a21.68,21.68,0,0,0,21.66,21.65h12.66v34a6.15,6.15,0,0,0,3.81,5.7,6.06,6.06,0,0,0,2.36.47,6.2,6.2,0,0,0,4.37-1.81l57.81-38.37H369.08a21.68,21.68,0,0,0,21.66-21.65V104.39a21.69,21.69,0,0,0-21.66-21.66Zm0,166.48H225.37a6.14,6.14,0,0,0-4.14,1.6l0,0-.22.21-49.05,29.6V255.38a4.67,4.67,0,0,0,0-.57,6.17,6.17,0,0,0-6.14-5.6H146.92a9.33,9.33,0,0,1-9.31-9.31V104.39a9.32,9.32,0,0,1,9.31-9.31H369.08a9.31,9.31,0,0,1,9.31,9.31V239.9a9.32,9.32,0,0,1-9.31,9.31Z"/><path class="cls-3" d="M336,175.26H179.49a6.17,6.17,0,0,0,0,12.34H336a6.17,6.17,0,1,0,0-12.34Z"/><path class="cls-3" d="M293.08,210.6H179.49a6.18,6.18,0,0,0,0,12.35H293.08a6.18,6.18,0,0,0,0-12.35Z"/><path class="cls-2" d="M184.31,119.35h0c1.19,4,3,9.28,4.2,13.34h12.74c-2.53,1.8-4.08,2.86-5.58,4s-3,2.3-4.91,3.83L195,153.67l-10.64-7.83-10.78,7.72c1.67-5.11,3-9.1,4.29-13.06L167.66,133H180C181.21,129,182.92,123.76,184.31,119.35Z"/><path class="cls-2" d="M222,119.35h0c1.19,4,3,9.28,4.2,13.34h12.74c-2.52,1.8-4.07,2.86-5.58,4s-2.95,2.3-4.9,3.83l4.24,13.17L222,145.84l-10.78,7.72,4.29-13.06L205.35,133h12.28C218.89,129,220.61,123.76,222,119.35Z"/><path class="cls-2" d="M259.68,119.35h0c1.19,4,3,9.28,4.2,13.34h12.74c-2.53,1.8-4.08,2.86-5.58,4s-3,2.3-4.91,3.83l4.24,13.17-10.64-7.83L249,153.56c1.67-5.11,3-9.1,4.29-13.06L243,133h12.29C256.58,129,258.29,123.76,259.68,119.35Z"/><path class="cls-2" d="M297.37,119.35h0c1.19,4,3,9.28,4.19,13.34H314.3c-2.52,1.8-4.07,2.86-5.57,4s-3,2.3-4.91,3.83l4.24,13.17-10.65-7.83-10.78,7.72,4.29-13.06L280.72,133H293C294.26,129,296,123.76,297.37,119.35Z"/><path class="cls-2" d="M335.05,119.35h0c1.19,4,3,9.28,4.2,13.34H352c-2.53,1.8-4.08,2.86-5.58,4s-3,2.3-4.91,3.83c1.2,3.73,2.54,7.88,4.25,13.17l-10.65-7.83-10.78,7.72,4.29-13.06L318.4,133h12.29C332,129,333.66,123.76,335.05,119.35Z"/></g></g></svg>