<?xml version="1.0" encoding="utf-8"?>
<!-- Generator: Adobe Illustrator 24.3.0, SVG Export Plug-In . SVG Version: 6.00 Build 0)  -->
<svg version="1.1" id="Ebene_1" xmlns="http://www.w3.org/2000/svg" xmlns:xlink="http://www.w3.org/1999/xlink" x="0px" y="0px"
	 viewBox="0 0 43 43.1" style="enable-background:new 0 0 43 43.1;" xml:space="preserve">
<style type="text/css">
	.st0{fill:#8B2939;}
	.st1{fill:#003056;}
</style>
<g>
	<g>
		<path class="st0" d="M8.7,41.5c-1.4-0.7-2.5-1.6-3.3-2.8c-0.8-1.2-1.2-2.5-1.2-3.9c0-2.2,0.9-4,2.8-5.4c1.9-1.4,4.4-2.4,7.6-2.9
			l6.1-0.9V25c0-1.2-0.2-2.1-0.7-2.7c-0.5-0.6-1.3-0.8-2.5-0.8c-0.7,0-1.2,0.1-1.6,0.3c-0.4,0.2-0.9,0.6-1.5,1
			c-0.4,0.4-0.8,0.6-1.1,0.8C13,23.9,12.9,24,12.7,24H7c-0.3,0-0.6-0.1-0.8-0.3c-0.2-0.2-0.3-0.5-0.3-0.8c0-0.9,0.5-1.9,1.3-3
			c0.9-1.1,2.1-2,3.9-2.8c1.7-0.8,3.9-1.2,6.4-1.2c4.1,0,7.1,0.9,9,2.7c2,1.8,3,4.2,3,7.3v14.9c0,0.3-0.1,0.6-0.3,0.9
			c-0.2,0.2-0.5,0.4-0.9,0.4h-6c-0.3,0-0.6-0.1-0.9-0.4c-0.2-0.2-0.4-0.5-0.4-0.9v-1.7c-0.7,1-1.7,1.8-3,2.5c-1.3,0.6-2.8,1-4.6,1
			C11.7,42.5,10.1,42.2,8.7,41.5z M19.4,35.3c0.9-1,1.4-2.3,1.4-4.1v-0.6l-4.1,0.7c-2.8,0.5-4.1,1.5-4.1,3c0,0.8,0.3,1.4,1,1.8
			c0.6,0.5,1.4,0.7,2.4,0.7C17.3,36.7,18.5,36.2,19.4,35.3z"/>
	</g>
	<g>
		<path class="st1" d="M23,41.6c-0.3-0.3-0.4-0.6-0.4-1V18.9h-4.5c-0.4,0-0.7-0.1-1-0.4c-0.3-0.3-0.4-0.6-0.4-0.9v-3.3
			c0-0.4,0.1-0.7,0.4-0.9c0.3-0.3,0.6-0.4,1-0.4h4.5v-2.2c0-3.4,0.9-5.9,2.7-7.6c1.8-1.7,4.6-2.5,8.3-2.5h3.9c0.4,0,0.7,0.1,1,0.4
			c0.3,0.3,0.4,0.6,0.4,1v3.3c0,0.4-0.1,0.7-0.4,1c-0.3,0.3-0.6,0.4-1,0.4h-3.6c-1.5,0-2.5,0.4-3.1,1.1C30.3,8.4,30,9.5,30,10.9v2h7
			c0.4,0,0.7,0.1,1,0.4c0.3,0.3,0.4,0.6,0.4,0.9v3.3c0,0.4-0.1,0.7-0.4,0.9c-0.3,0.3-0.6,0.4-1,0.4h-7v21.7c0,0.4-0.1,0.7-0.4,1
			c-0.2,0.3-0.6,0.4-1,0.4H24C23.6,42,23.3,41.8,23,41.6z"/>
	</g>
</g>
</svg>
