<svg xmlns="http://www.w3.org/2000/svg" viewBox="0 0 43 43.1"><path fill="#8b2939" d="M8.7 41.5c-1.4-.7-2.5-1.6-3.3-2.8-.8-1.2-1.2-2.5-1.2-3.9 0-2.2.9-4 2.8-5.4 1.9-1.4 4.4-2.4 7.6-2.9l6.1-.9V25c0-1.2-.2-2.1-.7-2.7-.5-.6-1.3-.8-2.5-.8-.7 0-1.2.1-1.6.3-.4.2-.9.6-1.5 1-.4.4-.8.6-1.1.8-.3.3-.4.4-.6.4H7c-.3 0-.6-.1-.8-.3-.2-.2-.3-.5-.3-.8 0-.9.5-1.9 1.3-3 .9-1.1 2.1-2 3.9-2.8 1.7-.8 3.9-1.2 6.4-1.2 4.1 0 7.1.9 9 2.7 2 1.8 3 4.2 3 7.3v14.9c0 .3-.1.6-.3.9-.2.2-.5.4-.9.4h-6c-.3 0-.6-.1-.9-.4-.2-.2-.4-.5-.4-.9v-1.7c-.7 1-1.7 1.8-3 2.5-1.3.6-2.8 1-4.6 1-1.7-.1-3.3-.4-4.7-1.1zm10.7-6.2c.9-1 1.4-2.3 1.4-4.1v-.6l-4.1.7c-2.8.5-4.1 1.5-4.1 3 0 .8.3 1.4 1 1.8.6.5 1.4.7 2.4.7 1.3-.1 2.5-.6 3.4-1.5z"/><path fill="#003056" d="M23 41.6c-.3-.3-.4-.6-.4-1V18.9h-4.5c-.4 0-.7-.1-1-.4-.3-.3-.4-.6-.4-.9v-3.3c0-.4.1-.7.4-.9.3-.3.6-.4 1-.4h4.5v-2.2c0-3.4.9-5.9 2.7-7.6C27.1 1.5 29.9.7 33.6.7h3.9c.4 0 .7.1 1 .4.3.3.4.6.4 1v3.3c0 .4-.1.7-.4 1-.3.3-.6.4-1 .4h-3.6c-1.5 0-2.5.4-3.1 1.1-.5.5-.8 1.6-.8 3v2h7c.4 0 .7.1 1 .4.3.3.4.6.4.9v3.3c0 .4-.1.7-.4.9-.3.3-.6.4-1 .4h-7v21.7c0 .4-.1.7-.4 1-.2.3-.6.4-1 .4H24c-.4.1-.7-.1-1-.3z"/></svg>