<svg xmlns="http://www.w3.org/2000/svg" viewBox="0 0 100 100"><linearGradient id="A" x1="79.7" x2="20.4" y1="108.2" y2="-8.1" gradientUnits="userSpaceOnUse"><stop offset="0" stop-color="#157e79"/><stop offset="1" stop-color="#8ec8a5"/></linearGradient><path fill="url(#A)" d="M0 5.7C0 2.6 2.6 0 5.7 0h88.6c3.1 0 5.7 2.6 5.7 5.7v88.6c0 3.1-2.6 5.7-5.7 5.7H5.7A6 6 0 010 94.2V5.7z"/><g fill="#fff"><g fill-rule="evenodd" opacity=".9"><path d="M84.8 88.8v.8l.1.1 1.1.6 1.7 1 1.2.7.1.2v1.5l-4.1-2.4v.7l.1.1 3.9 2.3.1.3v1.4l-.2-.1-5.2-3-.1-.2v-6.3l.2.1 4.5 2.7.7.4.1.2v1.5l-4.2-2.6z"/><path d="M92.2 94.8V90a2 2 0 0 0-.6.4v4.7c0 .1 0 .2-.2.3l-1.2.7v-6.2l.1-.2 5.3-3.1.1-.1v6.1c0 .3-.1.4-.3.5l-1 .6-.2.1V89l-.7.4v4.8l-.1.1c-.3 0-.7.3-1.2.5z" opacity=".8"/><path d="M89.8 88.5a145.6 145.6 0 01-5.7-3.1l-.3-.2.2-.1 5.4-3.2h.3l5.4 3.2.1.1-.1.1-5.1 3-.2.2zm-3.2-3.2l.2.1 2.6 1.5h.3l2.6-1.5.1-.1-.1-.1-2.7-1.5c-.1-.1-.2 0-.2 0l-2.6 1.5-.2.1z" opacity=".6"/></g><path d="M35 25.3H24c-.8 0-1.4.6-1.4 1.4s.6 1.4 1.4 1.4h11c.8 0 1.4-.6 1.4-1.4s-.6-1.4-1.4-1.4zm24.9 16.4H34c-.5 0-.9.4-.9.9s.4.9.9.9h25.9c.5 0 .9-.4.9-.9 0-.4-.4-.9-.9-.9zM72 54.9H34c-.5 0-.9.4-.9.9s.4.9.9.9h37.9c.5 0 .9-.4.9-.9s-.3-.9-.8-.9zM45.9 67.5H34c-.5 0-.9.4-.9.9s.4.9.9.9h11.9c.5 0 .9-.4.9-.9s-.4-.9-.9-.9zM24.2 46.6l.3-.1c.1-.1 2.6-2.9 2.6-4.9a2.9 2.9 0 0 0-5.8 0c0 1.9 2.5 4.8 2.6 4.9l.3.1zm-1.3-5c0-.7.6-1.3 1.3-1.3s1.3.6 1.3 1.3-.6 1.3-1.3 1.3-1.3-.6-1.3-1.3zm1.3 10a2.9 2.9 0 0 0-2.9 2.9c0 1.9 2.5 4.8 2.6 4.9l.3.1.3-.1c.1-.1 2.6-2.9 2.6-4.9-.1-1.6-1.3-2.9-2.9-2.9zm1.2 2.9c0 .7-.6 1.3-1.3 1.3s-1.3-.6-1.3-1.3.6-1.3 1.3-1.3 1.3.6 1.3 1.3zm-1.2 10a2.9 2.9 0 0 0-2.9 2.9c0 1.9 2.5 4.8 2.6 4.9l.3.1.3-.1c.1-.1 2.6-2.9 2.6-4.9-.1-1.6-1.3-2.9-2.9-2.9zm1.2 2.8c0 .7-.6 1.3-1.3 1.3s-1.3-.6-1.3-1.3.6-1.3 1.3-1.3 1.3.7 1.3 1.3zM85 33.1V19.6a1.54 1.54 0 0 0-1.5-1.5H18a1.54 1.54 0 0 0-1.5 1.5v13.7L16.4 76c0 .5.4.9.9.9h67c.5 0 .9-.4.9-.9L85 33.1zm-65.5-12h62.6v11.3H19.5V21.1zm64 53.9H18.2V35.3h65.2V75z"/></g></svg>