<svg xmlns="http://www.w3.org/2000/svg" viewBox="0 0 100 100"><linearGradient id="A" x1="80.5" x2="19.5" y1="109.9" y2="-9.9" gradientUnits="userSpaceOnUse"><stop offset="0" stop-color="#157e79"/><stop offset="1" stop-color="#8ec8a5"/></linearGradient><path fill="url(#A)" d="M0 0h100v100H0V0z"/><path d="M35.8 28.8h-11c-.8 0-1.4.6-1.4 1.4s.6 1.4 1.4 1.4h11c.8 0 1.4-.6 1.4-1.4s-.6-1.4-1.4-1.4zm24.9 16.4H34.8c-.5 0-.9.4-.9.9s.4.9.9.9h25.9c.5 0 .9-.4.9-.9 0-.4-.4-.9-.9-.9zm12.1 13.2h-38c-.5 0-.9.4-.9.9s.4.9.9.9h37.9c.5 0 .9-.4.9-.9s-.3-.9-.8-.9zM46.7 71H34.8c-.5 0-.9.4-.9.9s.4.9.9.9h11.9c.5 0 .9-.4.9-.9s-.4-.9-.9-.9zM25 50.1l.3-.1c.1-.1 2.6-2.9 2.6-4.9a2.9 2.9 0 0 0-5.8 0c0 1.9 2.5 4.8 2.6 4.9l.3.1zm-1.3-5c0-.7.6-1.3 1.3-1.3s1.3.6 1.3 1.3-.6 1.3-1.3 1.3-1.3-.6-1.3-1.3zm1.3 10a2.9 2.9 0 0 0-2.9 2.9c0 1.9 2.5 4.8 2.6 4.9l.3.1.3-.1c.1-.1 2.6-2.9 2.6-4.9-.1-1.6-1.3-2.9-2.9-2.9zm1.2 2.9c0 .7-.6 1.3-1.3 1.3s-1.3-.6-1.3-1.3.6-1.3 1.3-1.3 1.3.6 1.3 1.3zM25 68a2.9 2.9 0 0 0-2.9 2.9c0 1.9 2.5 4.8 2.6 4.9l.3.1.3-.1c.1-.1 2.6-2.9 2.6-4.9-.1-1.6-1.3-2.9-2.9-2.9zm1.2 2.8c0 .7-.6 1.3-1.3 1.3s-1.3-.6-1.3-1.3.6-1.3 1.3-1.3 1.3.7 1.3 1.3zm59.7-34.2V23.1a1.54 1.54 0 0 0-1.5-1.5H18.8a1.54 1.54 0 0 0-1.5 1.5v13.7l-.1 42.7c0 .5.4.9.9.9h67.1c.5 0 .9-.4.9-.9l-.2-42.9zm-65.6-12H83v11.3H20.3V24.6zm64 53.9H19V38.8h65.3v39.7z" fill="#fff"/></svg>
