<svg xmlns="http://www.w3.org/2000/svg" viewBox="0 0 100 100"><linearGradient id="A" x1="80.5" x2="19.5" y1="109.9" y2="-9.9" gradientUnits="userSpaceOnUse"><stop offset="0" stop-color="#299e16"/><stop offset="1" stop-color="#a0dc2d"/></linearGradient><path fill="url(#A)" d="M0 0h100v100H0z"/><g fill="#fff"><path d="M33.8 53.9c.2-3.1.8-6.2 1.2-9.3h4.3L36 60.7h-4.2l-1.6-9.3-1.3 9.3h-4.3L21 44.5h4.4l1.4 9.2c.3-3.1 1-6.1 1.5-9.2h3.8l1.5 9.3.1.5.1-.4zm12.1 6.9h-4.3V44.6h4.3v16.2z"/><path d="M33.8 53.9l-.1.4-.1-.4h.2zm25.5 1.8l.1-.3c-.1-1.4-.9-2.4-2.3-3 .5-.3.9-.4 1.1-.7.3-.4.7-.7.5-1.2h-1.5c-.2-1.5.5-2.6 1.1-3.8-.7-1.3-1.9-1.8-3.3-2-1.9-.3-3.7-.1-5.6-.2-.4 0-.8-.1-1.2.1v16.1h6.9l3.7-4.5.5-.5zm-6.6-7.6c1.2-.1 1.8.3 1.9 1.2s-.6 1.5-1.9 1.4v-2.6zm1.8 8.3c-.4.7-1 .8-1.8.7v-2.9c.7-.1 1.3-.1 1.8.6.3.5.3 1.1 0 1.6z"/><path d="M78.6 53.8l1.1-9.3h-5.4l-5.1 8c-1 1.5-1.1 3.2-1.3 4.9h5.7l-.3 3.2h4.3l.4-3.2 1.3-.1c.1-1.2.4-2.3.4-3.4-.3-.1-.8.2-1.1-.1zm-4.3.1H72l2.9-4.1-.6 4.1zm-5.6-16.3L64.8 35v-7.5a1.54 1.54 0 0 0-1.5-1.5h-6a1.54 1.54 0 0 0-1.5 1.5v1.2l-4.7-3.4c-.5-.4-1.2-.4-1.7 0L31.8 37.6c-.7.5-.8 1.4-.4 2.1.5.7 1.4.8 2.1.4l16.7-11.7 6.2 4.5c.5.3 1.1.4 1.6.1s.8-.8.8-1.3V29h3v6.8c0 .5.2 1 .7 1.2l4.5 3.1c.3.2.5.3.8.3.5 0 1-.2 1.2-.7.6-.7.4-1.6-.3-2.1zm-17.7 0a.68.68 0 0 0 .7-.7v-1.5a.68.68 0 0 0-.7-.7h-1.5a.68.68 0 0 0-.7.7v1.5a.68.68 0 0 0 .7.7H51zm14.3 34.2H36.1V66h-2.7v7.2c0 .7.6 1.3 1.3 1.3h31.9c.7 0 1.3-.6 1.3-1.3V66h-2.7v5.8zM67.6 50c.7-3.6-1.5-6.1-5.2-5.8-1.7.2-3 1.1-4.1 2.4-.5 1.2-1.3 2.3-1.1 3.8H61c.3-.2.5-.6.7-1.1s.2-1.2 1-1.1c.5 0 .6.8.3 1.6a9.4 9.4 0 0 1-2.2 3.7c-.5.6-1.1 1.1-1.5 1.9l-.1.3-.4.6-3.7 4.5H66l.5-3.7-3.7.1 1.8-1.9c1.4-1.6 2.6-3.2 3-5.3z" opacity=".7"/></g></svg>
