<svg xmlns="http://www.w3.org/2000/svg" id="Ebene_1" x="0" y="0" version="1.1" viewBox="0 0 100 100" xml:space="preserve">
  <defs/>
  <style>
    .st1{fill:#fff}.st2{fill:none}.st3{opacity:.7}
  </style>
  <linearGradient id="SVGID_1_" x1="80.5" x2="19.5" y1="-9.9" y2="109.9" gradientTransform="matrix(1 0 0 -1 0 100)" gradientUnits="userSpaceOnUse">
    <stop offset="0" stop-color="#299e16"/>
    <stop offset="1" stop-color="#a0dc2d"/>
  </linearGradient>
  <path fill="url(#SVGID_1_)" d="M0 0h100v100H0z"/>
  <path d="M33.8 53.9c.2-3.1.8-6.2 1.2-9.3h4.3L36 60.7h-4.2c-.6-3.1-1.2-6.2-1.6-9.3l-1.3 9.3h-4.3L21 44.5h4.4l1.4 9.2c.3-3.1 1-6.1 1.5-9.2h3.8c.6 3.1 1.2 6.2 1.5 9.3l.1.5.1-.4zM45.9 60.8h-4.3V44.6h4.3v16.2z" class="st1"/>
  <path d="M33.8 53.9l-.1.4-.1-.4h.2z" class="st1"/>
  <path d="M52.7 54.2v2.9c.8.1 1.4 0 1.8-.7.3-.5.3-1.1-.1-1.6-.3-.6-1-.7-1.7-.6zM54.6 49.3c-.1-.9-.7-1.3-1.9-1.2v2.6c1.3.1 2-.5 1.9-1.4zM58.3 51.7c-.2.3-.6.5-1.1.7 1.4.6 2.2 1.6 2.3 3 .3-.8 1-1.3 1.5-1.9.9-1.1 1.7-2.3 2.2-3.7.3-.8.1-1.5-.3-1.6-.8-.1-.9.6-1 1.1-.4 1.3-1.3 1.7-2.9 1.1 0 .6-.5.9-.7 1.3z" class="st2"/>
  <path d="M59.3 55.7l.1-.3c-.1-1.4-.9-2.4-2.3-3 .5-.3.9-.4 1.1-.7.3-.4.7-.7.5-1.2h-1.5c-.2-1.5.5-2.6 1.1-3.8-.7-1.3-1.9-1.8-3.3-2-1.9-.3-3.7-.1-5.6-.2-.4 0-.8-.1-1.2.1v16.1h6.9l3.7-4.5.5-.5zm-6.6-7.6c1.2-.1 1.8.3 1.9 1.2.1.9-.6 1.5-1.9 1.4v-2.6zm1.8 8.3c-.4.7-1 .8-1.8.7v-2.9c.7-.1 1.3-.1 1.8.6.3.5.3 1.1 0 1.6z" class="st1"/>
  <g class="st3">
    <path d="M78.6 53.8l1.1-9.3h-5.4c-1.7 2.7-3.3 5.4-5.1 8-1 1.5-1.1 3.2-1.3 4.9h5.7l-.3 3.2h4.3l.4-3.2 1.3-.1c.1-1.2.4-2.3.4-3.4-.3-.1-.8.2-1.1-.1zm-4.3.1H72l2.9-4.1-.6 4.1z" class="st1"/>
  </g>
  <g class="st3">
    <path d="M68.7 37.6L64.8 35v-7.5c0-.8-.7-1.5-1.5-1.5h-6c-.8 0-1.5.7-1.5 1.5v1.2l-4.7-3.4c-.5-.4-1.2-.4-1.7 0L31.8 37.6c-.7.5-.8 1.4-.4 2.1.5.7 1.4.8 2.1.4l16.7-11.7 6.2 4.5c.5.3 1.1.4 1.6.1.5-.3.8-.8.8-1.3V29h3v6.8c0 .5.2 1 .7 1.2l4.5 3.1c.3.2.5.3.8.3.5 0 1-.2 1.2-.7.6-.7.4-1.6-.3-2.1zm-17.7 0c.4 0 .7-.3.7-.7v-1.5c0-.4-.3-.7-.7-.7h-1.5c-.4 0-.7.3-.7.7v1.5c0 .4.3.7.7.7H51z" class="st1"/>
  </g>
  <g class="st3">
    <path d="M44.7 71.8h20.6V66H36.1v5.8z" class="st2"/>
    <path d="M65.3 71.8H36.1V66h-2.7v7.2c0 .7.6 1.3 1.3 1.3H66.6c.7 0 1.3-.6 1.3-1.3V66h-2.7v5.8z" class="st1"/>
  </g>
  <g>
    <path fill="#fff" d="M67.6 50c.7-3.6-1.5-6.1-5.2-5.8-1.7.2-3 1.1-4.1 2.4-.5 1.2-1.3 2.3-1.1 3.8H61c.3-.2.5-.6.7-1.1.2-.5.2-1.2 1-1.1.5 0 .6.8.3 1.6a9.4 9.4 0 01-2.2 3.7c-.5.6-1.1 1.1-1.5 1.9l-.1.3-.4.6c-1.2 1.5-2.6 2.9-3.7 4.5H66l.5-3.7-3.7.1 1.8-1.9c1.4-1.6 2.6-3.2 3-5.3z" opacity=".7"/>
  </g>
</svg>
