<svg xmlns="http://www.w3.org/2000/svg" viewBox="0 0 100 100"><linearGradient id="a" x1="79.7" x2="20.4" y1="108.2" y2="-8.1" gradientUnits="userSpaceOnUse"><stop offset="0" stop-color="#299e16"/><stop offset="1" stop-color="#a0dc2d"/></linearGradient><path fill="url(#a)" d="M0 5.7C0 2.6 2.6 0 5.7 0h88.6c3.1 0 5.7 2.6 5.7 5.7v88.6c0 3.1-2.6 5.7-5.7 5.7H5.7A6 6 0 0 1 0 94.2V5.7z"/><g fill="#fff"><g fill-rule="evenodd" opacity=".9"><path d="M84.8 88.8v.8l.1.1 1.1.6 1.7 1 1.2.7.1.2v1.5l-4.1-2.4v.7l.1.1 3.9 2.3.1.3v1.4l-.2-.1-5.2-3-.1-.2v-6.3l.2.1 4.5 2.7.7.4.1.2v1.5l-4.2-2.6z"/><path d="M92.2 94.8V90a2 2 0 0 0-.6.4v4.7c0 .1 0 .2-.2.3l-1.2.7v-6.2l.1-.2 5.3-3.1.1-.1v6.1c0 .3-.1.4-.3.5l-1 .6-.2.1V89l-.7.4v4.8l-.1.1c-.3 0-.7.3-1.2.5z" opacity=".8"/><path d="M89.8 88.5a145.6 145.6 0 0 1-5.7-3.1l-.3-.2.2-.1 5.4-3.2h.3l5.4 3.2.1.1-.1.1-5.1 3-.2.2zm-3.2-3.2.2.1 2.6 1.5h.3l2.6-1.5.1-.1-.1-.1-2.7-1.5c-.1-.1-.2 0-.2 0l-2.6 1.5-.2.1z" opacity=".6"/></g><path d="M33.5 53.4c.2-3.1.8-6.2 1.2-9.3H39l-3.3 16.1h-4.2L30 50.9l-1.3 9.3h-4.3L20.8 44h4.4l1.4 9.2c.3-3.1 1-6.1 1.5-9.2h3.8l1.5 9.3.1.5c0-.1-.1-.3 0-.4zm12.1 6.9h-4.3V44.1h4.3v16.2z"/><path d="m33.5 53.4-.1.4-.1-.4h.2zM59 55.2l.1-.3c-.1-1.4-.9-2.4-2.3-3 .5-.3.9-.4 1.1-.7.3-.4.7-.7.5-1.2h-1.5c-.2-1.5.5-2.6 1.1-3.8-.7-1.3-1.9-1.8-3.3-2-1.9-.3-3.7-.1-5.6-.2-.4 0-.8-.1-1.2.1v16.1h6.9l3.7-4.5.5-.5zm-6.6-7.6c1.2-.1 1.8.3 1.9 1.2s-.6 1.5-1.9 1.4v-2.6zm1.8 8.3c-.4.7-1 .8-1.8.7v-2.9c.7-.1 1.3-.1 1.8.6.3.5.3 1.1 0 1.6z"/><path d="m78.3 53.3 1.1-9.3H74l-5.1 8c-1 1.5-1.1 3.2-1.3 4.9h5.7l-.3 3.2h4.3l.4-3.2 1.3-.1c.1-1.2.4-2.3.4-3.4-.3-.1-.8.2-1.1-.1zm-4.3.1h-2.3l2.9-4.1-.6 4.1zm-5.6-16.2-3.9-2.6v-7.5a1.54 1.54 0 0 0-1.5-1.5h-6a1.54 1.54 0 0 0-1.5 1.5v1.2l-4.7-3.4c-.5-.4-1.2-.4-1.7 0L31.6 37.2c-.7.5-.8 1.4-.4 2.1.5.7 1.4.8 2.1.4L49.9 28l6.2 4.5c.5.3 1.1.4 1.6.1s.8-.8.8-1.3v-2.7h3v6.8c0 .5.2 1 .7 1.2l4.5 3.1c.3.2.5.3.8.3.5 0 1-.2 1.2-.7.6-.7.4-1.6-.3-2.1zm-17.7 0a.68.68 0 0 0 .7-.7V35a.68.68 0 0 0-.7-.7h-1.5a.68.68 0 0 0-.7.7v1.5a.68.68 0 0 0 .7.7h1.5zM65 71.3H35.8v-5.8h-2.7v7.2c0 .7.6 1.3 1.3 1.3h31.9c.7 0 1.3-.6 1.3-1.3v-7.2h-2.7l.1 5.8zm2.3-21.8c.7-3.6-1.5-6.1-5.2-5.8-1.7.2-3 1.1-4.1 2.4-.5 1.2-1.3 2.3-1.1 3.8h3.8c.3-.2.5-.6.7-1.1s.2-1.2 1-1.1c.5 0 .6.8.3 1.6a9.4 9.4 0 0 1-2.2 3.7c-.5.6-1.1 1.1-1.5 1.9l-.1.3-.4.6-3.7 4.5h10.9l.5-3.7-3.7.1 1.8-1.9c1.4-1.6 2.6-3.2 3-5.3z" opacity=".7"/></g></svg>