<svg xmlns="http://www.w3.org/2000/svg" viewBox="0 0 500 429.62"><defs><style>.cls-1{fill:#333a46;}.cls-2{fill:#7abfbc;}.cls-3{fill:#fff;}</style></defs><title>Element 3</title><g id="Ebene_2" data-name="Ebene 2"><g id="MATE"><polygon class="cls-1" points="405.52 364.46 0 364.46 94.48 0 500 0 405.52 364.46"/><path class="cls-1" d="M78.7,428.73H72.57l-1.6-23q-1-13.55-1.13-20.8l-9.92,38H54L43.53,384.85q0,9.25-.86,21.39l-1.53,22.49h-6l3.8-51h8.52l9.66,37.08,9.19-37.08H74.9Z"/><path class="cls-1" d="M110,415.93H92.62l-3.47,12.8H82.76l14.72-51h8l14.65,51h-6.66Zm-1.53-5.7-7.13-26.64-7.19,26.64Z"/><path class="cls-1" d="M148.63,383.74H135.91v45h-6.33v-45H116.53v-6h32.76Z"/><path class="cls-1" d="M179.06,383.37H161.28V400h15.45v5.62H161.28v17.47h19.05v5.62H155v-51H179.8Z"/><path class="cls-1" d="M222.29,427a12.59,12.59,0,0,1-7.86,2.66,8.75,8.75,0,0,1-7-2.85q-2.5-2.85-2.5-8.25V395h-6.13v-5.26H205v-8.8l6.13-.82v9.62h8.32l-.66,5.26H211.1v23.23a7.86,7.86,0,0,0,1,4.41,3.68,3.68,0,0,0,3.23,1.36,8.29,8.29,0,0,0,4.67-1.7Z"/><path class="cls-1" d="M251,392q2.68,3.18,2.69,8.73v28h-6.12v-27q0-4.14-1.43-5.84a5.15,5.15,0,0,0-4.17-1.71,7.4,7.4,0,0,0-4.86,1.78,18.4,18.4,0,0,0-4,5v27.75H227V374.12l6.12-.74v21.76q4.14-6.3,10.39-6.3A9.32,9.32,0,0,1,251,392Z"/><path class="cls-1" d="M290.68,411.56H268.31c.26,4.3,1.24,7.45,2.93,9.48a8.1,8.1,0,0,0,6.52,3,12.88,12.88,0,0,0,4.67-.82,18,18,0,0,0,4.46-2.59l2.66,4.08a18.26,18.26,0,0,1-12.25,4.88q-7.33,0-11.42-5.33t-4.1-14.65a30.67,30.67,0,0,1,1.76-10.77,16.85,16.85,0,0,1,5.07-7.36,11.93,11.93,0,0,1,7.76-2.67q7,0,10.72,5.11t3.73,14.13C290.82,409.22,290.77,410.38,290.68,411.56Zm-5.92-5.47q0-5.77-2.07-8.81a7,7,0,0,0-6.19-3q-7.53,0-8.19,12.28h16.45Z"/><path class="cls-1" d="M341.43,392.06q2.6,3.22,2.6,8.7v28H337.9v-27q0-7.55-4.93-7.55a6.23,6.23,0,0,0-4.39,1.67,22.68,22.68,0,0,0-3.86,5.22v27.67h-6.13v-27q0-7.55-4.93-7.55a6.21,6.21,0,0,0-4.46,1.71,22.74,22.74,0,0,0-3.8,5.18v27.67h-6.12v-39h5.26l.53,5.7q3.93-6.58,10.12-6.59a8.54,8.54,0,0,1,5.56,1.86,10.15,10.15,0,0,1,3.3,5.18,17.73,17.73,0,0,1,4.56-5.22,9.78,9.78,0,0,1,5.9-1.82A8.46,8.46,0,0,1,341.43,392.06Z"/><path class="cls-1" d="M381.06,411.56H358.68c.27,4.3,1.24,7.45,2.93,9.48a8.12,8.12,0,0,0,6.53,3,12.78,12.78,0,0,0,4.66-.82,17.87,17.87,0,0,0,4.46-2.59l2.67,4.08a18.28,18.28,0,0,1-12.26,4.88q-7.32,0-11.42-5.33t-4.1-14.65a30.44,30.44,0,0,1,1.77-10.77,16.83,16.83,0,0,1,5.06-7.36,12,12,0,0,1,7.76-2.67q7,0,10.72,5.11t3.73,14.13C381.19,409.22,381.15,410.38,381.06,411.56Zm-5.93-5.47q0-5.77-2.06-8.81a7,7,0,0,0-6.2-3q-7.51,0-8.19,12.28h16.45Z"/><path class="cls-2" d="M150.49,239.66v-.54h1.23a.41.41,0,0,0,.46-.47V228.48a.41.41,0,0,0-.46-.47h-1.23v-.55h9.56l.06,3.88h-.42l0-.35a4.7,4.7,0,0,0-.21-.94,3.42,3.42,0,0,0-.48-1,2.21,2.21,0,0,0-2-1h-2.76a.41.41,0,0,0-.46.47v4.67h1.51a1.36,1.36,0,0,0,.77-.21,1.08,1.08,0,0,0,.42-.61,4.57,4.57,0,0,0,.17-.74,6.17,6.17,0,0,0,0-.8h.45v5.36h-.45q0-.48,0-.81a3.88,3.88,0,0,0-.17-.74A1.17,1.17,0,0,0,156,234a1.36,1.36,0,0,0-.77-.21h-1.51v4.88a.41.41,0,0,0,.46.47H157a2.79,2.79,0,0,0,1-.22,2,2,0,0,0,.89-.66,4.57,4.57,0,0,0,.59-1.27,7.43,7.43,0,0,0,.31-1.35l.07-.55h.43l-.2,4.59Z"/><path class="cls-2" d="M161.67,239.66v-.41h.45a1,1,0,0,0,.43-.09,1.94,1.94,0,0,0,.33-.23,2.39,2.39,0,0,0,.23-.26l.26-.36,1.55-2.32-2.08-3.35a1.35,1.35,0,0,1-.13-.21.32.32,0,0,0-.15-.13,1.21,1.21,0,0,0-.3,0h-.52v-.41h3.38v.41h-.42a.31.31,0,0,0-.34.35.82.82,0,0,0,.1.37l1.2,1.91,1.14-1.69a1,1,0,0,0,.14-.54.38.38,0,0,0-.12-.3.48.48,0,0,0-.28-.1h-.41v-.41h3v.41h-.43a1.43,1.43,0,0,0-1.18.74l-1.55,2.3,2.18,3.51a2,2,0,0,0,.17.25.66.66,0,0,0,.24.13,1.35,1.35,0,0,0,.43.06h.4v.41h-3.55v-.41h.51c.26,0,.39-.09.39-.29a.76.76,0,0,0-.12-.36l-1.38-2.21L164,238.12a1.53,1.53,0,0,0-.25.61c0,.35.14.52.43.52h.3v.41Z"/><path class="cls-2" d="M170.33,239.66v-.41h.95a.33.33,0,0,0,.38-.38V228.25a.33.33,0,0,0-.38-.38h-.95v-.41h2.57v6H173a3.9,3.9,0,0,1,1.07-1.32,2.15,2.15,0,0,1,1.32-.48,2,2,0,0,1,1.38.45,2.54,2.54,0,0,1,.79,2.11v4.67a.33.33,0,0,0,.38.38h.72v.41h-3.43v-.41h.72a.33.33,0,0,0,.38-.38v-5c0-1.19-.37-1.79-1.1-1.79a2,2,0,0,0-1.53,1,3.59,3.59,0,0,0-.76,2.27v3.56c0,.26.12.38.37.38H174v.41Z"/><path class="cls-2" d="M179.66,239.66v-.41h.72a.33.33,0,0,0,.38-.38v-6.23a.34.34,0,0,0-.38-.38h-.72v-.41H182v7a.33.33,0,0,0,.38.38h.72v.41Zm1.63-9.93a.91.91,0,0,1-.65-.26.91.91,0,0,1,0-1.27.94.94,0,0,1,1.3,0,.91.91,0,0,1,0,1.27A.91.91,0,0,1,181.29,229.73Z"/><path class="cls-2" d="M184,239.66v-.41h.89a.33.33,0,0,0,.38-.38V228.25a.33.33,0,0,0-.38-.38H184v-.41h2.5v11.41a.33.33,0,0,0,.38.38h.89v.41Z"/><path class="cls-2" d="M188.74,237.85a2.08,2.08,0,0,1,.21-.95,2.15,2.15,0,0,1,.47-.66,2.39,2.39,0,0,1,.73-.43,4.32,4.32,0,0,1,.75-.25l.76-.16,1.62-.29v-1.46a1.4,1.4,0,0,0-1.58-1.59,2,2,0,0,0-1.06.3.81.81,0,0,0-.47.67.46.46,0,0,0,.05.26.31.31,0,0,0,.25.17c.43.11.64.34.64.67s-.25.67-.76.67a1,1,0,0,1-.68-.29,1.1,1.1,0,0,1-.31-.84,1.75,1.75,0,0,1,.73-1.49,2.75,2.75,0,0,1,1.66-.54,3.23,3.23,0,0,1,1.95.6,2.12,2.12,0,0,1,.82,1.84v4.21c0,.57.17.86.52.86.53,0,.8-.57.8-1.71h.3q0,2.43-1.35,2.43c-1,0-1.47-.55-1.51-1.65l-.08,0a3.46,3.46,0,0,1-.83,1.14,1.87,1.87,0,0,1-1.33.54,2.85,2.85,0,0,1-1.62-.45A1.73,1.73,0,0,1,188.74,237.85Zm1.51.07c0,.89.35,1.33,1.06,1.33a1.43,1.43,0,0,0,.74-.19,1.78,1.78,0,0,0,.58-.58,5.3,5.3,0,0,0,.37-.65c.09-.19.18-.42.28-.7v-1.61l-1.53.33a1.83,1.83,0,0,0-1.14.67A2.36,2.36,0,0,0,190.25,237.92Z"/><path class="cls-2" d="M197,239.66v-.41h.72a.33.33,0,0,0,.38-.38v-6.23a.34.34,0,0,0-.38-.38H197v-.41h2.33V234l.07,0a5.24,5.24,0,0,1,.71-1.4,2.5,2.5,0,0,1,.76-.75,1.75,1.75,0,0,1,.86-.24,1.14,1.14,0,0,1,1,.42,1.55,1.55,0,0,1,.33,1,1.46,1.46,0,0,1-.24.79.79.79,0,0,1-.72.37.9.9,0,0,1-.55-.16.56.56,0,0,1-.22-.49.81.81,0,0,1,.46-.75c.25-.14.38-.29.38-.46s-.16-.29-.48-.29a1.29,1.29,0,0,0-.59.15,1.93,1.93,0,0,0-.65.66,5.77,5.77,0,0,0-.65,1.34,7.46,7.46,0,0,0-.44,2.4v2.26a.33.33,0,0,0,.38.38h.72v.41Z"/><path class="cls-2" d="M204,237.85a2.07,2.07,0,0,1,.2-.95,2.33,2.33,0,0,1,.47-.66,2.39,2.39,0,0,1,.73-.43,4.32,4.32,0,0,1,.75-.25l.76-.16,1.63-.29v-1.46a1.41,1.41,0,0,0-1.59-1.59,2,2,0,0,0-1.06.3.83.83,0,0,0-.47.67.57.57,0,0,0,.05.26.32.32,0,0,0,.26.17c.42.11.63.34.63.67s-.25.67-.75.67a1,1,0,0,1-.69-.29,1.14,1.14,0,0,1-.31-.84,1.76,1.76,0,0,1,.74-1.49,2.72,2.72,0,0,1,1.65-.54,3.23,3.23,0,0,1,1.95.6,2.09,2.09,0,0,1,.82,1.84v4.21c0,.57.17.86.52.86.53,0,.8-.57.8-1.71h.31c0,1.62-.46,2.43-1.36,2.43s-1.47-.55-1.5-1.65l-.09,0a3.32,3.32,0,0,1-.83,1.14,1.87,1.87,0,0,1-1.33.54,2.88,2.88,0,0,1-1.62-.45A1.73,1.73,0,0,1,204,237.85Zm1.5.07c0,.89.36,1.33,1.06,1.33a1.43,1.43,0,0,0,.74-.19,1.69,1.69,0,0,0,.58-.58,5.55,5.55,0,0,0,.38-.65c.08-.19.17-.42.28-.7v-1.61l-1.53.33a1.85,1.85,0,0,0-1.15.67A2.36,2.36,0,0,0,205.53,237.92Z"/><path class="cls-2" d="M215.18,239.87a1.67,1.67,0,0,1-1.28-.55,2.15,2.15,0,0,1-.5-1.49v-5.5h-1.27v-.48h.38a1.33,1.33,0,0,0,1.2-.83,3.79,3.79,0,0,0,.44-1.84v-.62h.48v3.29h2.13v.48h-2.13V238c0,.81.3,1.21.91,1.21.81,0,1.22-.7,1.22-2.12h.3c0,.26,0,.48,0,.65a5.72,5.72,0,0,1-.11.71,2.06,2.06,0,0,1-.29.73,1.73,1.73,0,0,1-.56.5A1.86,1.86,0,0,1,215.18,239.87Z"/><path class="cls-2" d="M218.14,239.66v-.41h.72a.33.33,0,0,0,.38-.38v-6.23a.34.34,0,0,0-.38-.38h-.72v-.41h2.33v7a.33.33,0,0,0,.38.38h.72v.41Zm1.63-9.93a.92.92,0,0,1-.65-.26.91.91,0,0,1,0-1.27.92.92,0,0,1,.65-.26.91.91,0,0,1,.65.26.91.91,0,0,1,0,1.27A.91.91,0,0,1,219.77,229.73Z"/><path class="cls-2" d="M222.62,239.66v-.41h.71a.33.33,0,0,0,.38-.38v-6.23a.33.33,0,0,0-.38-.38h-.71v-.41H225v1.58H225a3.9,3.9,0,0,1,1.07-1.32,2.15,2.15,0,0,1,1.32-.48,2,2,0,0,1,1.38.45,2.54,2.54,0,0,1,.79,2.11v4.67a.33.33,0,0,0,.38.38h.72v.41h-3.43v-.41H228a.33.33,0,0,0,.38-.38v-5c0-1.19-.37-1.79-1.1-1.79a2,2,0,0,0-1.53,1,3.59,3.59,0,0,0-.76,2.27v3.56c0,.26.12.38.37.38H226v.41Z"/><path class="cls-2" d="M232,241.75a1.51,1.51,0,0,1,.5-1.11,2.1,2.1,0,0,1,1.18-.58V240c-1-.22-1.51-.64-1.51-1.27a1.31,1.31,0,0,1,.54-1.11,3.06,3.06,0,0,1,1.33-.54V237a2.61,2.61,0,0,1-1.73-2.59,2.54,2.54,0,0,1,.9-2,3.32,3.32,0,0,1,3.56-.43,2.34,2.34,0,0,1,.87.57,1.24,1.24,0,0,1,.5-.67,1.21,1.21,0,0,1,.68-.23,1.37,1.37,0,0,1,1,.35,1.15,1.15,0,0,1,.38.89,1.11,1.11,0,0,1-.2.67.61.61,0,0,1-.52.25.87.87,0,0,1-.48-.14.54.54,0,0,1-.21-.47.6.6,0,0,1,.29-.55.35.35,0,0,0,.19-.31c0-.18-.15-.27-.46-.27a.81.81,0,0,0-.56.24,1,1,0,0,0-.28.58,2.61,2.61,0,0,1,.48,1.57,2.56,2.56,0,0,1-.88,2.05,3.19,3.19,0,0,1-2.17.76,5.21,5.21,0,0,0-1.74.27c-.51.18-.76.47-.76.88s.36.57,1.1.57l.58,0,.53,0h1.76a2.86,2.86,0,0,1,1.84.59,2.11,2.11,0,0,1,.73,1.74,2.05,2.05,0,0,1-1,1.84,5,5,0,0,1-2.68.63,6.45,6.45,0,0,1-2.6-.48A1.59,1.59,0,0,1,232,241.75Zm.76,0a1.3,1.3,0,0,0,.9,1.21,5,5,0,0,0,2,.4,6.25,6.25,0,0,0,1.42-.15,2.41,2.41,0,0,0,1.15-.6,1.46,1.46,0,0,0,.52-1.17,1.43,1.43,0,0,0-.32-.92,1.38,1.38,0,0,0-1.1-.38h-1.91a5.45,5.45,0,0,0-1.25.13,2.34,2.34,0,0,0-1,.5A1.21,1.21,0,0,0,232.71,241.72Zm.92-7.27a3,3,0,0,0,.45,1.77,1.52,1.52,0,0,0,2.46,0,3.69,3.69,0,0,0,0-3.53,1.52,1.52,0,0,0-2.46,0A3,3,0,0,0,233.63,234.45Z"/><path class="cls-2" d="M246,233.46a8.41,8.41,0,0,1,.57-3.15,5.34,5.34,0,0,1,1.66-2.29,4,4,0,0,1,2.57-.86,3.61,3.61,0,0,1,2.12.78,3.3,3.3,0,0,1,.45.33.77.77,0,0,0,.48.24.25.25,0,0,0,.2-.08,1.06,1.06,0,0,0,.14-.3l.29-.84h.43v4.77h-.43a7.74,7.74,0,0,0-1.58-3.23,2.89,2.89,0,0,0-2.1-1.13,2.71,2.71,0,0,0-1.25.28,2.36,2.36,0,0,0-.86.73,4.21,4.21,0,0,0-.53,1.22,8,8,0,0,0-.27,1.59c0,.55-.07,1.2-.07,1.94s0,1.4.08,2a9.52,9.52,0,0,0,.31,1.64,4.05,4.05,0,0,0,.59,1.27,2.55,2.55,0,0,0,.93.79,2.85,2.85,0,0,0,1.34.29,3.2,3.2,0,0,0,1.53-.36,2.94,2.94,0,0,0,1.07-1,5.31,5.31,0,0,0,.63-1.34,7.43,7.43,0,0,0,.27-1.52h.62c0,.25,0,.5-.08.77a6.94,6.94,0,0,1-.2.86,5.08,5.08,0,0,1-.34.9,4.72,4.72,0,0,1-.53.84,4.08,4.08,0,0,1-.73.71,3.2,3.2,0,0,1-1,.48,4.17,4.17,0,0,1-1.26.18,4.37,4.37,0,0,1-2.18-.56,4.7,4.7,0,0,1-1.6-1.5,7.26,7.26,0,0,1-.95-2.07A8.2,8.2,0,0,1,246,233.46Z"/><path class="cls-2" d="M260.38,239.87a3.05,3.05,0,0,1-2.44-1.21,4.42,4.42,0,0,1-1-2.9,4.46,4.46,0,0,1,1-2.91,3.08,3.08,0,0,1,2.44-1.21,3,3,0,0,1,2.43,1.21,4.46,4.46,0,0,1,1,2.91,4.42,4.42,0,0,1-1,2.9A3,3,0,0,1,260.38,239.87Zm0-.41c1.28,0,1.92-1.24,1.92-3.7s-.64-3.7-1.92-3.7-1.92,1.23-1.92,3.7S259.1,239.46,260.38,239.46Z"/><path class="cls-2" d="M265.12,239.66v-.41h.72a.33.33,0,0,0,.38-.38v-6.23a.34.34,0,0,0-.38-.38h-.72v-.41h2.33v1.58h.07a3.9,3.9,0,0,1,1.07-1.32,2.14,2.14,0,0,1,1.31-.48,2.07,2.07,0,0,1,1.39.45,2.54,2.54,0,0,1,.79,2.11v4.67a.33.33,0,0,0,.38.38h.72v.41h-3.43v-.41h.72a.33.33,0,0,0,.38-.38v-5c0-1.19-.37-1.79-1.1-1.79a2,2,0,0,0-1.53,1,3.6,3.6,0,0,0-.77,2.27v3.56a.33.33,0,0,0,.38.38h.72v.41Z"/><path class="cls-2" d="M277.1,239.87a1.67,1.67,0,0,1-1.28-.55,2.15,2.15,0,0,1-.5-1.49v-5.5h-1.27v-.48h.38a1.33,1.33,0,0,0,1.2-.83,3.79,3.79,0,0,0,.44-1.84v-.62h.48v3.29h2.13v.48h-2.13V238c0,.81.3,1.21.91,1.21.81,0,1.22-.7,1.22-2.12h.3c0,.26,0,.48,0,.65a4.52,4.52,0,0,1-.12.71,1.89,1.89,0,0,1-.28.73,1.73,1.73,0,0,1-.56.5A1.86,1.86,0,0,1,277.1,239.87Z"/><path class="cls-2" d="M280.2,237.85a2.08,2.08,0,0,1,.21-.95,2,2,0,0,1,.47-.66,2.32,2.32,0,0,1,.72-.43,4.32,4.32,0,0,1,.75-.25l.76-.16,1.63-.29v-1.46a1.4,1.4,0,0,0-1.58-1.59,2,2,0,0,0-1.06.3.83.83,0,0,0-.48.67.57.57,0,0,0,.05.26.33.33,0,0,0,.26.17c.42.11.63.34.63.67s-.25.67-.75.67a1,1,0,0,1-.69-.29,1.14,1.14,0,0,1-.3-.84,1.75,1.75,0,0,1,.73-1.49,2.73,2.73,0,0,1,1.66-.54,3.18,3.18,0,0,1,1.94.6,2.09,2.09,0,0,1,.82,1.84v4.21c0,.57.18.86.53.86.53,0,.79-.57.79-1.71h.31c0,1.62-.45,2.43-1.36,2.43s-1.47-.55-1.5-1.65l-.09,0a3.42,3.42,0,0,1-.82,1.14,1.89,1.89,0,0,1-1.34.54,2.84,2.84,0,0,1-1.61-.45A1.73,1.73,0,0,1,280.2,237.85Zm1.51.07c0,.89.35,1.33,1.05,1.33a1.41,1.41,0,0,0,.74-.19,1.61,1.61,0,0,0,.58-.58,5.55,5.55,0,0,0,.38-.65c.08-.19.18-.42.28-.7v-1.61l-1.53.33a1.85,1.85,0,0,0-1.15.67A2.43,2.43,0,0,0,281.71,237.92Z"/><path class="cls-2" d="M292.07,239.87a3,3,0,0,1-2.43-1.21,4.42,4.42,0,0,1-1-2.9,4.46,4.46,0,0,1,1-2.91,3,3,0,0,1,2.43-1.21,3.08,3.08,0,0,1,2.44,1.21,4.46,4.46,0,0,1,1,2.91,4.42,4.42,0,0,1-1,2.9A3.05,3.05,0,0,1,292.07,239.87Zm0-.41c1.28,0,1.92-1.24,1.92-3.7s-.64-3.7-1.92-3.7-1.92,1.23-1.92,3.7S290.79,239.46,292.07,239.46Z"/><path class="cls-2" d="M302,232.06l.14-4.6H312l.13,4.6h-.43q0-.19,0-.6a7.51,7.51,0,0,0-.26-1.25,3.71,3.71,0,0,0-.6-1.31,2.1,2.1,0,0,0-1.69-.89h-.79a.41.41,0,0,0-.46.47v10.17a.41.41,0,0,0,.46.47H310v.54H304.2v-.54h1.65a.41.41,0,0,0,.46-.47V228.48a.41.41,0,0,0-.46-.47h-.79a2.05,2.05,0,0,0-1.7.89,3.71,3.71,0,0,0-.6,1.31,7.25,7.25,0,0,0-.25,1.25,5.67,5.67,0,0,0,0,.6Z"/><path class="cls-2" d="M313.37,239.66v-.41h1a.33.33,0,0,0,.38-.38V228.25a.34.34,0,0,0-.38-.38h-1v-.41h2.57v6H316a3.68,3.68,0,0,1,1.07-1.32,2.19,2.19,0,0,1,2.7,0,2.57,2.57,0,0,1,.78,2.11v4.67a.33.33,0,0,0,.38.38h.72v.41h-3.43v-.41H319a.33.33,0,0,0,.38-.38v-5c0-1.19-.36-1.79-1.1-1.79a2,2,0,0,0-1.53,1,3.59,3.59,0,0,0-.76,2.27v3.56a.33.33,0,0,0,.38.38H317v.41Z"/><path class="cls-2" d="M322.88,235.76a5.08,5.08,0,0,1,.39-2,3.81,3.81,0,0,1,1.14-1.53,2.63,2.63,0,0,1,1.69-.6,2.55,2.55,0,0,1,1.14.26,2.47,2.47,0,0,1,.87.69,4.26,4.26,0,0,1,.59,1,5.15,5.15,0,0,1,.34,1.12,6.2,6.2,0,0,1,.11,1.14h-4.76a10.66,10.66,0,0,0,.08,1.47,5.18,5.18,0,0,0,.29,1.13,1.58,1.58,0,0,0,1.58,1,2.19,2.19,0,0,0,.67-.11,2,2,0,0,0,.66-.36,1.81,1.81,0,0,0,.57-.77,4.08,4.08,0,0,0,.33-1.23H329a3.56,3.56,0,0,1-.78,2.07,2.35,2.35,0,0,1-1.9.81,3,3,0,0,1-2.48-1.15A4.49,4.49,0,0,1,322.88,235.76Zm1.51-.41h3.25a8.6,8.6,0,0,0-.08-1.17,6.88,6.88,0,0,0-.26-1,1.79,1.79,0,0,0-.5-.79,1.17,1.17,0,0,0-1.54,0,1.91,1.91,0,0,0-.52.79,5.77,5.77,0,0,0-.27,1.05A7.29,7.29,0,0,0,324.39,235.35Z"/><path class="cls-2" d="M330.43,239.66v-.41h.72a.33.33,0,0,0,.38-.38v-6.23a.34.34,0,0,0-.38-.38h-.72v-.41h2.33v1.51h.07c.62-1.15,1.35-1.73,2.21-1.73a2.1,2.1,0,0,1,1.42.45,2.28,2.28,0,0,1,.72,1.44l.07,0a4.21,4.21,0,0,1,.24-.47,5.82,5.82,0,0,1,.44-.61,2.23,2.23,0,0,1,.7-.59,1.78,1.78,0,0,1,.9-.24,2.12,2.12,0,0,1,1.42.45,2.54,2.54,0,0,1,.79,2.11v4.67a.33.33,0,0,0,.38.38h.72v.41h-3.43v-.41h.72a.33.33,0,0,0,.38-.38v-5a2.73,2.73,0,0,0-.27-1.26.89.89,0,0,0-.86-.53,1.83,1.83,0,0,0-1.44,1,3.85,3.85,0,0,0-.69,2.28v3.56a.33.33,0,0,0,.38.38h.72v.41h-3.43v-.41h.72a.33.33,0,0,0,.38-.38v-5a2.73,2.73,0,0,0-.27-1.26.88.88,0,0,0-.86-.53,1.83,1.83,0,0,0-1.44,1,3.85,3.85,0,0,0-.69,2.28v3.56a.33.33,0,0,0,.38.38h.72v.41Z"/><path class="cls-2" d="M344.05,235.76a4.91,4.91,0,0,1,.4-2,3.81,3.81,0,0,1,1.14-1.53,2.66,2.66,0,0,1,2.83-.34,2.53,2.53,0,0,1,.86.69,3.93,3.93,0,0,1,.59,1,4.68,4.68,0,0,1,.35,1.12,6.2,6.2,0,0,1,.1,1.14h-4.76a10.53,10.53,0,0,0,.09,1.47,4.25,4.25,0,0,0,.29,1.13,1.56,1.56,0,0,0,.6.77,1.68,1.68,0,0,0,1,.27,2.09,2.09,0,0,0,.67-.11,1.92,1.92,0,0,0,.67-.36,2,2,0,0,0,.57-.77,4.09,4.09,0,0,0,.32-1.23h.41a3.56,3.56,0,0,1-.78,2.07,2.32,2.32,0,0,1-1.89.81,3,3,0,0,1-2.48-1.15A4.49,4.49,0,0,1,344.05,235.76Zm1.51-.41h3.26a7.22,7.22,0,0,0-.09-1.17,5.86,5.86,0,0,0-.26-1,1.78,1.78,0,0,0-.49-.79,1.18,1.18,0,0,0-1.55,0,2,2,0,0,0-.51.79,5.05,5.05,0,0,0-.27,1.05A7.27,7.27,0,0,0,345.56,235.35Z"/><rect class="cls-2" x="152" y="210.93" width="198.09" height="6.04"/><path class="cls-2" d="M175.5,187.61l.42-1.06a9.12,9.12,0,0,1,.49-1l18.71-33.08a1.25,1.25,0,0,1,.54-.54,2.4,2.4,0,0,1,.74-.1h2.39v47.62h-3V158.88a17.48,17.48,0,0,1,.1-1.86L177.12,190.3a1.46,1.46,0,0,1-1.35.88h-.53a1.51,1.51,0,0,1-1.35-.88L154.64,157a17.62,17.62,0,0,1,.1,1.89v40.58h-3V151.84h2.35a2.54,2.54,0,0,1,.76.1,1.23,1.23,0,0,1,.56.54l19.21,33.11A12.67,12.67,0,0,1,175.5,187.61Z"/><path class="cls-2" d="M258.85,199.46h-2.66a1.16,1.16,0,0,1-.77-.26,1.65,1.65,0,0,1-.47-.65l-5.62-13.83H225.94l-5.58,13.83a1.52,1.52,0,0,1-.47.64,1.28,1.28,0,0,1-.81.27h-2.63l19.49-47.62h3.43ZM227,182.16h21.33L238.6,158.1q-.24-.57-.48-1.29l-.47-1.53c-.15.53-.31,1-.47,1.53s-.31.92-.47,1.33Z"/><path class="cls-2" d="M303.7,151.84v2.93H287v44.69h-3.43V154.77H266.72v-2.93Z"/><path class="cls-2" d="M350.58,151.84v2.86H325.51V174h20.86v2.79H325.51V196.6h25.07v2.86H322V151.84Z"/><path class="cls-2" d="M135,95.71a4,4,0,1,0-2.83-1.17A4,4,0,0,0,135,95.71Z"/><path class="cls-2" d="M147.77,95.71A4,4,0,1,0,145,88.9a4,4,0,0,0,0,5.64,4,4,0,0,0,2.82,1.17Z"/><path class="cls-2" d="M160.55,95.71a4,4,0,1,0-2.82-1.17,4,4,0,0,0,2.82,1.17Z"/><path class="cls-2" d="M177.59,95.71H339.45a4,4,0,0,0,0-8H177.59a4,4,0,0,0,0,8Z"/><path class="cls-2" d="M356.49,95.71H365a4,4,0,1,0,0-8h-8.51a4,4,0,1,0,0,8Z"/><path class="cls-3" d="M365,70.69H135a21.06,21.06,0,0,0-21,21v181a21.07,21.07,0,0,0,21,21H365a21.07,21.07,0,0,0,21-21v-181a21.06,21.06,0,0,0-21-21Zm-230,8H365a13.07,13.07,0,0,1,13.05,13v13H122v-13a13.07,13.07,0,0,1,13-13ZM365,285.79H135a13.06,13.06,0,0,1-13-13.05v-160h256.1v160A13.06,13.06,0,0,1,365,285.79Z"/></g></g></svg>