<?xml version="1.0" encoding="utf-8"?>
<svg version="1.1" id="Ebene_1" xmlns="http://www.w3.org/2000/svg" xmlns:xlink="http://www.w3.org/1999/xlink" x="0px" y="0px"
	 viewBox="0 0 500 500" style="enable-background:new 0 0 500 500;" xml:space="preserve">
<style type="text/css">
	.st0{fill:#333A46;}
	.st1{fill:none;}
	.st2{fill:#FFFFFF;}
	.st3{fill:#7ABFBC;}
</style>
<g>
	<polygon class="st0" points="405.5,432.2 0,432.2 94.5,67.8 500,67.8 	"/>
</g>
<g>
	<rect y="441" class="st1" width="404" height="60"/>
	<path class="st0" d="M66.6,496.5l-1.6-23c-0.6-8-1.1-16.6-1.1-20.8l-9.9,38H48l-10.5-38.1c0,6-0.3,13.9-0.9,21.4l-1.5,22.5h-6
		l3.8-51h8.5l9.7,37.1l9.2-37.1h8.6l3.8,51H66.6z"/>
	<path class="st0" d="M86.6,483.7l-3.5,12.8h-6.4l14.7-51h8l14.7,51h-6.7l-3.5-12.8H86.6z M95.3,451.4L88.1,478h14.3L95.3,451.4z"/>
	<path class="st0" d="M129.9,451.5v45h-6.3v-45h-13.1v-6h32.8l-0.7,6H129.9z"/>
	<path class="st0" d="M155.3,451.1v16.7h15.5v5.6h-15.5v17.5h19v5.6H149v-51h24.8l-0.7,5.6H155.3z"/>
	<path class="st0" d="M216.3,494.7c-2.3,1.8-4.9,2.7-7.9,2.7c-5.9,0-9.5-3.8-9.5-11.1v-23.5h-6.1v-5.3h6.1v-8.8l6.1-0.8v9.6h8.3
		l-0.7,5.3h-7.7V486c0,3.9,1.1,5.8,4.2,5.8c1.5,0,2.9-0.5,4.7-1.7L216.3,494.7z"/>
	<path class="st0" d="M247.7,468.5v28h-6.1v-27c0-5.8-2.3-7.5-5.6-7.5c-3.8,0-6.5,2.7-8.9,6.8v27.8h-6.1v-54.6l6.1-0.7v21.8
		c2.5-3.8,6-6.3,10.4-6.3C243.9,456.6,247.7,461.2,247.7,468.5z"/>
	<path class="st0" d="M284.7,479.3h-22.4c0.6,9,4.4,12.5,9.5,12.5c3.5,0,6.1-1,9.1-3.4l2.7,4.1c-3.5,3-7.4,4.9-12.3,4.9
		c-9.8,0-15.5-7.6-15.5-20c0-12.1,5.5-20.8,14.6-20.8c9.5,0,14.5,7.3,14.5,19.2C284.8,477.2,284.8,478.4,284.7,479.3z M278.8,473.9
		c0-7.6-2.7-11.8-8.3-11.8c-4.7,0-7.7,3.6-8.2,12.3h16.5V473.9z"/>
	<path class="st0" d="M338,468.5v28h-6.1v-27c0-5.8-2.3-7.5-4.9-7.5c-3.8,0-5.9,2.7-8.3,6.9v27.7h-6.1v-27c0-5.8-2.3-7.5-4.9-7.5
		c-3.8,0-5.9,2.7-8.3,6.9v27.7h-6.1v-39h5.3l0.5,5.7c2.3-3.9,5.5-6.6,10.1-6.6c4.3,0,7.5,2.6,8.9,7c2.5-4.2,5.7-7,10.5-7
		C334.2,456.6,338,461.2,338,468.5z"/>
	<path class="st0" d="M375.1,479.3h-22.4c0.6,9,4.4,12.5,9.5,12.5c3.5,0,6.1-1,9.1-3.4l2.7,4.1c-3.5,3-7.4,4.9-12.3,4.9
		c-9.8,0-15.5-7.6-15.5-20c0-12.1,5.5-20.8,14.6-20.8c9.5,0,14.5,7.3,14.5,19.2C375.2,477.2,375.1,478.4,375.1,479.3z M369.1,473.9
		c0-7.6-2.7-11.8-8.3-11.8c-4.7,0-7.7,3.6-8.2,12.3h16.5V473.9z"/>
</g>
<g>
	<g>
		<path class="st2" d="M135,163.5c1,0,2.1-0.4,2.8-1.2c0.7-0.7,1.2-1.8,1.2-2.8c0-1-0.4-2.1-1.2-2.8c-0.7-0.7-1.8-1.2-2.8-1.2
			c-1.1,0-2.1,0.4-2.8,1.2c-0.7,0.7-1.2,1.8-1.2,2.8c0,1.1,0.4,2.1,1.2,2.8C132.9,163.1,133.9,163.5,135,163.5L135,163.5z
			 M135,163.5"/>
		<path class="st2" d="M147.8,163.5c1,0,2.1-0.4,2.8-1.2c0.7-0.7,1.2-1.8,1.2-2.8c0-1-0.4-2.1-1.2-2.8c-0.7-0.7-1.8-1.2-2.8-1.2
			c-1.1,0-2.1,0.4-2.8,1.2c-0.7,0.7-1.2,1.8-1.2,2.8c0,1.1,0.4,2.1,1.2,2.8C145.7,163.1,146.7,163.5,147.8,163.5L147.8,163.5z
			 M147.8,163.5"/>
		<path class="st2" d="M160.6,163.5c1,0,2.1-0.4,2.8-1.2c0.7-0.7,1.2-1.8,1.2-2.8c0-1-0.4-2.1-1.2-2.8c-0.7-0.7-1.8-1.2-2.8-1.2
			c-1,0-2.1,0.4-2.8,1.2c-0.7,0.7-1.2,1.8-1.2,2.8c0,1.1,0.4,2.1,1.2,2.8C158.5,163.1,159.5,163.5,160.6,163.5L160.6,163.5z
			 M160.6,163.5"/>
		<path class="st2" d="M177.6,163.5h161.9c2.2,0,4-1.8,4-4c0-2.2-1.8-4-4-4H177.6c-2.2,0-4,1.8-4,4
			C173.6,161.7,175.4,163.5,177.6,163.5L177.6,163.5z M177.6,163.5"/>
		<path class="st2" d="M356.5,163.5h8.5c2.2,0,4-1.8,4-4c0-2.2-1.8-4-4-4h-8.5c-2.2,0-4,1.8-4,4
			C352.5,161.7,354.3,163.5,356.5,163.5L356.5,163.5z M356.5,163.5"/>
		<path class="st2" d="M365,138.5H135c-11.6,0-21,9.4-21,21v181c0,11.6,9.4,21,21,21h230c11.6,0,21-9.4,21-21v-181
			C386,147.9,376.6,138.5,365,138.5L365,138.5z M135,146.4h230c7.2,0,13,5.9,13,13v13H121.9v-13C121.9,152.3,127.8,146.4,135,146.4
			L135,146.4z M365,353.6H135c-7.2,0-13-5.9-13-13v-160h256.1v160C378.1,347.7,372.2,353.6,365,353.6L365,353.6z M365,353.6"/>
	</g>
	<g>
		<rect x="132" y="189.1" class="st3" width="236" height="18.9"/>
		<rect x="132" y="213" class="st3" width="156" height="62.7"/>
		<rect x="293.6" y="213" class="st2" width="74.4" height="62.7"/>
		<g>
			<rect x="132" y="280.2" class="st2" width="236" height="16"/>
		</g>
		<g>
			<rect x="174.4" y="301" class="st3" width="71.3" height="25.2"/>
		</g>
		<g>
			<rect x="251.8" y="301" class="st3" width="71.3" height="25.2"/>
		</g>
		<g>
			<rect x="174.4" y="326.2" class="st2" width="71.3" height="20"/>
		</g>
		<g>
			<rect x="251.8" y="326.2" class="st2" width="71.3" height="20"/>
		</g>
	</g>
</g>
</svg>