<svg id="Ebene_1" xmlns="http://www.w3.org/2000/svg" viewBox="0 0 500 500"><style>.st0{fill:#333a46}.st2{fill:#fff}.st3{fill:#7abfbc}</style><path class="st0" d="M405.5 432.2H0L94.5 67.8H500z"/><path fill="none" d="M0 441h404v60H0z"/><path class="st0" d="M66.6 496.5l-1.6-23c-.6-8-1.1-16.6-1.1-20.8l-9.9 38h-6l-10.5-38.1c0 6-.3 13.9-.9 21.4l-1.5 22.5h-6l3.8-51h8.5l9.7 37.1 9.2-37.1h8.6l3.8 51h-6.1zM86.6 483.7l-3.5 12.8h-6.4l14.7-51h8l14.7 51h-6.7l-3.5-12.8H86.6zm8.7-32.3L88.1 478h14.3l-7.1-26.6zM129.9 451.5v45h-6.3v-45h-13.1v-6h32.8l-.7 6h-12.7zM155.3 451.1v16.7h15.5v5.6h-15.5v17.5h19v5.6H149v-51h24.8l-.7 5.6h-17.8zM216.3 494.7c-2.3 1.8-4.9 2.7-7.9 2.7-5.9 0-9.5-3.8-9.5-11.1v-23.5h-6.1v-5.3h6.1v-8.8l6.1-.8v9.6h8.3l-.7 5.3h-7.7V486c0 3.9 1.1 5.8 4.2 5.8 1.5 0 2.9-.5 4.7-1.7l2.5 4.6zM247.7 468.5v28h-6.1v-27c0-5.8-2.3-7.5-5.6-7.5-3.8 0-6.5 2.7-8.9 6.8v27.8H221V442l6.1-.7v21.8c2.5-3.8 6-6.3 10.4-6.3 6.4-.2 10.2 4.4 10.2 11.7zM284.7 479.3h-22.4c.6 9 4.4 12.5 9.5 12.5 3.5 0 6.1-1 9.1-3.4l2.7 4.1c-3.5 3-7.4 4.9-12.3 4.9-9.8 0-15.5-7.6-15.5-20 0-12.1 5.5-20.8 14.6-20.8 9.5 0 14.5 7.3 14.5 19.2-.1 1.4-.1 2.6-.2 3.5zm-5.9-5.4c0-7.6-2.7-11.8-8.3-11.8-4.7 0-7.7 3.6-8.2 12.3h16.5v-.5zM338 468.5v28h-6.1v-27c0-5.8-2.3-7.5-4.9-7.5-3.8 0-5.9 2.7-8.3 6.9v27.7h-6.1v-27c0-5.8-2.3-7.5-4.9-7.5-3.8 0-5.9 2.7-8.3 6.9v27.7h-6.1v-39h5.3l.5 5.7c2.3-3.9 5.5-6.6 10.1-6.6 4.3 0 7.5 2.6 8.9 7 2.5-4.2 5.7-7 10.5-7 5.6-.2 9.4 4.4 9.4 11.7zM375.1 479.3h-22.4c.6 9 4.4 12.5 9.5 12.5 3.5 0 6.1-1 9.1-3.4l2.7 4.1c-3.5 3-7.4 4.9-12.3 4.9-9.8 0-15.5-7.6-15.5-20 0-12.1 5.5-20.8 14.6-20.8 9.5 0 14.5 7.3 14.5 19.2-.1 1.4-.2 2.6-.2 3.5zm-6-5.4c0-7.6-2.7-11.8-8.3-11.8-4.7 0-7.7 3.6-8.2 12.3h16.5v-.5z"/><g><path class="st2" d="M135 163.5c1 0 2.1-.4 2.8-1.2.7-.7 1.2-1.8 1.2-2.8 0-1-.4-2.1-1.2-2.8-.7-.7-1.8-1.2-2.8-1.2-1.1 0-2.1.4-2.8 1.2-.7.7-1.2 1.8-1.2 2.8 0 1.1.4 2.1 1.2 2.8.7.8 1.7 1.2 2.8 1.2zm0 0M147.8 163.5c1 0 2.1-.4 2.8-1.2.7-.7 1.2-1.8 1.2-2.8 0-1-.4-2.1-1.2-2.8-.7-.7-1.8-1.2-2.8-1.2-1.1 0-2.1.4-2.8 1.2-.7.7-1.2 1.8-1.2 2.8 0 1.1.4 2.1 1.2 2.8.7.8 1.7 1.2 2.8 1.2zm0 0M160.6 163.5c1 0 2.1-.4 2.8-1.2.7-.7 1.2-1.8 1.2-2.8 0-1-.4-2.1-1.2-2.8-.7-.7-1.8-1.2-2.8-1.2-1 0-2.1.4-2.8 1.2-.7.7-1.2 1.8-1.2 2.8 0 1.1.4 2.1 1.2 2.8.7.8 1.7 1.2 2.8 1.2zm0 0M177.6 163.5h161.9c2.2 0 4-1.8 4-4s-1.8-4-4-4H177.6c-2.2 0-4 1.8-4 4s1.8 4 4 4zm0 0M356.5 163.5h8.5c2.2 0 4-1.8 4-4s-1.8-4-4-4h-8.5c-2.2 0-4 1.8-4 4s1.8 4 4 4zm0 0"/><path class="st2" d="M365 138.5H135c-11.6 0-21 9.4-21 21v181c0 11.6 9.4 21 21 21h230c11.6 0 21-9.4 21-21v-181c0-11.6-9.4-21-21-21zm-230 7.9h230c7.2 0 13 5.9 13 13v13H121.9v-13c0-7.1 5.9-13 13.1-13zm230 207.2H135c-7.2 0-13-5.9-13-13v-160h256.1v160c0 7.1-5.9 13-13.1 13zm0 0"/><g><path class="st3" d="M132 189.1h236V208H132zM132 213h156v62.7H132z"/><path class="st2" d="M293.6 213H368v62.7h-74.4zM132 280.2h236v16H132z"/><path class="st3" d="M174.4 301h71.3v25.2h-71.3zM251.8 301h71.3v25.2h-71.3z"/><path class="st2" d="M174.4 326.2h71.3v20h-71.3zM251.8 326.2h71.3v20h-71.3z"/></g></g></svg>