<svg xmlns="http://www.w3.org/2000/svg" fill-rule="evenodd" clip-rule="evenodd" image-rendering="optimizeQuality" shape-rendering="geometricPrecision" text-rendering="geometricPrecision" viewBox="0 0 210 297"><path d="M28.186 226.515H24.7v-19.486h3.485v19.486zm-1.762-23.008c-.624 0-1.155-.206-1.592-.619-.437-.412-.656-.968-.656-1.667 0-.7.219-1.255.656-1.668.437-.412.968-.618 1.592-.618.625 0 1.156.206 1.593.618.437.413.656.968.656 1.668s-.219 1.255-.656 1.667c-.437.413-.968.619-1.593.619zM33.575 207.591c.8-.2 1.861-.412 3.185-.637 1.325-.225 2.848-.337 4.572-.337 1.549 0 2.836.218 3.86.656 1.024.437 1.842 1.049 2.454 1.836.612.787 1.043 1.73 1.293 2.829.25 1.099.375 2.31.375 3.635v10.942h-3.485v-10.193c0-1.199-.081-2.223-.244-3.073-.162-.849-.43-1.536-.805-2.06a3.189 3.189 0 0 0-1.5-1.144c-.624-.237-1.398-.356-2.323-.356-.374 0-.762.013-1.161.038-.4.025-.78.056-1.143.094-.362.037-.687.08-.974.13-.288.05-.494.088-.619.113v16.45h-3.485v-18.923zM59.013 224.004c1.424 0 2.48-.187 3.167-.562.686-.375 1.03-.974 1.03-1.799 0-.85-.337-1.524-1.012-2.023-.674-.5-1.786-1.062-3.335-1.687-.75-.3-1.468-.605-2.155-.918a7.556 7.556 0 0 1-1.78-1.105c-.5-.425-.899-.937-1.199-1.537-.3-.599-.45-1.336-.45-2.21 0-1.724.638-3.092 1.912-4.104 1.274-1.011 3.01-1.517 5.208-1.517.55 0 1.1.031 1.65.093.549.063 1.061.138 1.536.225.474.088.893.181 1.255.281.362.1.643.188.843.263l-.637 2.997c-.375-.2-.962-.405-1.761-.618-.8-.212-1.761-.318-2.886-.318-.974 0-1.823.193-2.548.58-.724.388-1.086.994-1.086 1.818 0 .425.08.8.243 1.124.163.325.412.618.75.88.337.263.755.507 1.255.731.5.225 1.1.463 1.799.712.924.35 1.748.694 2.473 1.03.724.338 1.343.732 1.855 1.181.512.45.905.993 1.18 1.63.275.637.412 1.418.412 2.342 0 1.799-.668 3.16-2.004 4.085-1.337.924-3.242 1.386-5.715 1.386-1.724 0-3.073-.143-4.047-.43-.974-.288-1.636-.506-1.986-.656l.637-2.998c.4.15 1.037.375 1.911.674.874.3 2.036.45 3.485.45zM83.514 209.652a64.879 64.879 0 0 0-2.08 2.436c-.862 1.049-1.786 2.21-2.773 3.485a111.596 111.596 0 0 0-2.96 4.01 58.148 58.148 0 0 0-2.605 4.009h10.718v2.923H68.937v-2.324c.6-1.099 1.336-2.31 2.21-3.634a98.141 98.141 0 0 1 2.755-3.954 142.053 142.053 0 0 1 2.81-3.71 109.255 109.255 0 0 1 2.38-2.941h-9.63v-2.923h14.052v2.623zM86.543 216.809c0-1.724.25-3.229.75-4.516.499-1.286 1.16-2.354 1.985-3.203a8.064 8.064 0 0 1 2.848-1.912 8.897 8.897 0 0 1 3.298-.637c2.623 0 4.634.819 6.033 2.455 1.399 1.636 2.098 4.128 2.098 7.476v.58c0 .238-.012.456-.037.656h-13.34c.15 2.024.737 3.56 1.76 4.61 1.025 1.049 2.624 1.573 4.797 1.573 1.225 0 2.255-.106 3.092-.318.837-.213 1.468-.419 1.892-.619l.487 2.923c-.424.225-1.168.462-2.23.712-1.061.25-2.266.375-3.615.375-1.7 0-3.167-.256-4.403-.768-1.237-.512-2.255-1.218-3.054-2.117-.8-.9-1.393-1.968-1.78-3.204-.388-1.237-.581-2.592-.581-4.066zm13.378-1.911c.025-1.574-.369-2.867-1.18-3.879-.813-1.011-1.93-1.517-3.355-1.517-.8 0-1.505.156-2.117.468a4.992 4.992 0 0 0-1.555 1.218 5.606 5.606 0 0 0-.993 1.724 8.51 8.51 0 0 0-.468 1.986h9.668zM107.971 207.591c.8-.2 1.861-.412 3.185-.637 1.324-.225 2.848-.337 4.572-.337 1.549 0 2.835.218 3.86.656 1.024.437 1.842 1.049 2.454 1.836.612.787 1.043 1.73 1.293 2.829.25 1.099.375 2.31.375 3.635v10.942h-3.485v-10.193c0-1.199-.082-2.223-.244-3.073-.162-.849-.43-1.536-.806-2.06a3.188 3.188 0 0 0-1.499-1.144c-.624-.237-1.398-.356-2.323-.356-.375 0-.762.013-1.161.038-.4.025-.781.056-1.143.094-.363.037-.687.08-.975.13-.287.05-.493.088-.618.113v16.45h-3.485v-18.923zM132.359 226.515h-3.485v-19.486h3.485v19.486zm-1.761-23.008c-.625 0-1.156-.206-1.593-.619-.437-.412-.656-.968-.656-1.667 0-.7.219-1.255.656-1.668.437-.412.968-.618 1.593-.618.624 0 1.155.206 1.592.618.438.413.656.968.656 1.668s-.219 1.255-.656 1.667c-.437.413-.968.619-1.592.619zM153.263 225.953c-.8.2-1.855.412-3.167.637-1.311.225-2.829.337-4.553.337-1.498 0-2.76-.218-3.784-.655-1.024-.438-1.849-1.056-2.473-1.855-.625-.8-1.075-1.743-1.35-2.83-.274-1.086-.412-2.292-.412-3.616V207.03h3.485v10.193c0 2.373.375 4.072 1.125 5.096.749 1.024 2.01 1.537 3.784 1.537.375 0 .762-.013 1.162-.038.4-.025.774-.056 1.124-.094.35-.037.668-.075.956-.112.287-.037.493-.081.618-.131v-16.45h3.485v18.923zM158.652 207.591c.8-.2 1.855-.412 3.166-.637 1.312-.225 2.83-.337 4.553-.337 1.25 0 2.299.168 3.148.506.85.337 1.561.83 2.136 1.48.175-.125.45-.3.824-.525a9.08 9.08 0 0 1 1.387-.656c.55-.212 1.161-.4 1.836-.562a9.267 9.267 0 0 1 2.173-.243c1.5 0 2.723.218 3.673.656.95.437 1.692 1.055 2.23 1.854.537.8.899 1.75 1.086 2.848.188 1.1.281 2.299.281 3.598v10.942h-3.485v-10.193c0-1.149-.056-2.136-.168-2.96-.113-.825-.325-1.512-.637-2.061a2.92 2.92 0 0 0-1.275-1.218c-.537-.262-1.23-.393-2.08-.393-1.173 0-2.142.156-2.903.468-.762.312-1.28.593-1.556.843.2.65.35 1.362.45 2.136.1.774.15 1.586.15 2.436v10.942h-3.485v-10.193c0-1.149-.062-2.136-.187-2.96-.125-.825-.344-1.512-.656-2.061a2.92 2.92 0 0 0-1.274-1.218c-.537-.262-1.218-.393-2.042-.393-.35 0-.725.012-1.125.037-.4.025-.78.056-1.143.094-.362.037-.693.08-.993.13-.3.05-.5.088-.6.113v16.45h-3.484v-18.923zM24 70h41v4H28v36h-4zM24 191h41v-4H28v-36h-4zM186 70h-41v4h37v36h4zM186 191h-41v-4h37v-36h4zM105.087 95.7c19.266 0 34.89 15.623 34.89 34.89 0 19.266-15.624 34.89-34.89 34.89s-34.89-15.624-34.89-34.89c0-19.267 15.624-34.89 34.89-34.89z" class="fil0"/><path fill="#cfd0ce" d="M105.087 98.97c17.46 0 31.62 14.16 31.62 31.62s-14.16 31.618-31.62 31.618-31.619-14.159-31.619-31.618c0-17.46 14.16-31.62 31.619-31.62z"/><path fill="#bbbcb9" d="M106.495 107.555c12.764.78 22.482 11.765 21.701 24.529-.78 12.764-11.765 22.481-24.528 21.7-12.764-.78-22.482-11.764-21.702-24.528.781-12.764 11.765-22.481 24.529-21.701z"/><path d="M107.739 86.136c10.317.607 19.691 4.722 26.949 11.168l-1.58 1.58c-6.85-6.045-15.667-9.912-25.369-10.513v-2.234zm30.708 14.927c6.446 7.258 10.561 16.632 11.168 26.949h-2.235c-.6-9.701-4.468-18.52-10.512-25.37l1.58-1.579zm-36.024-12.692c-9.701.601-18.52 4.468-25.37 10.513l-1.579-1.58c7.258-6.445 16.632-10.56 26.949-11.167v2.234zm-29.128 14.272c-6.045 6.85-9.911 15.668-10.512 25.369h-2.235c.606-10.317 4.722-19.69 11.167-26.948l1.58 1.58zm76.32 30.685c-.606 10.317-4.722 19.691-11.168 26.949l-1.58-1.58c6.046-6.85 9.912-15.667 10.513-25.369h2.235zm-14.927 30.708c-7.258 6.445-16.632 10.56-26.949 11.168v-2.235c9.702-.601 18.52-4.468 25.37-10.513l1.58 1.58zm-32.265 11.167c-10.317-.606-19.69-4.722-26.949-11.167l1.58-1.58c6.85 6.045 15.668 9.912 25.369 10.513v2.234zm-30.708-14.926c-6.446-7.258-10.56-16.632-11.167-26.949h2.235c.6 9.701 4.467 18.52 10.512 25.369l-1.58 1.58z" class="fil0"/><path fill="#fff" d="M106.464 107.513a23.1 23.1 0 0 1 14.013 5.807l-.821.822a21.946 21.946 0 0 0-13.192-5.467v-1.162zm15.968 7.762a23.103 23.103 0 0 1 5.807 14.013h-1.162a21.948 21.948 0 0 0-5.466-13.192l.821-.821zm-18.733-6.6a21.947 21.947 0 0 0-13.191 5.467l-.822-.822a23.1 23.1 0 0 1 14.013-5.807v1.162zm-15.146 7.421a21.948 21.948 0 0 0-5.466 13.192h-1.163a23.103 23.103 0 0 1 5.807-14.013l.822.821zm39.686 15.956a23.101 23.101 0 0 1-5.807 14.014l-.821-.821a21.946 21.946 0 0 0 5.466-13.192h1.162zm-7.762 15.969a23.103 23.103 0 0 1-14.013 5.807v-1.162a21.947 21.947 0 0 0 13.192-5.467l.822.822zm-16.778 5.807a23.104 23.104 0 0 1-14.013-5.808l.822-.82a21.948 21.948 0 0 0 13.192 5.466v1.162zm-15.967-7.762a23.101 23.101 0 0 1-5.808-14.013h1.163a21.947 21.947 0 0 0 5.466 13.191l-.822.822z"/></svg>