<svg xmlns="http://www.w3.org/2000/svg" viewBox="0 0 210 297" shape-rendering="geometricPrecision" text-rendering="geometricPrecision" image-rendering="optimizeQuality" fill-rule="evenodd" clip-rule="evenodd"><defs/><g id="Ebene_x0020_1"><g id="_139290888"><path id="_31579512" class="fil0" d="M28.1856 226.515l-3.485 0 0 -19.4858 3.485 0 0 19.4858zm-1.7612 -23.0082c-0.6246,0 -1.1554,-0.2061 -1.5926,-0.6183 -0.4372,-0.4122 -0.6558,-0.9681 -0.6558,-1.6676 0,-0.6995 0.2186,-1.2553 0.6558,-1.6675 0.4372,-0.4122 0.968,-0.6183 1.5926,-0.6183 0.6245,0 1.1554,0.2061 1.5926,0.6183 0.4371,0.4122 0.6557,0.968 0.6557,1.6675 0,0.6995 -0.2186,1.2554 -0.6557,1.6676 -0.4372,0.4122 -0.9681,0.6183 -1.5926,0.6183z"/><path id="_137972144" class="fil0" d="M33.5753 207.591c0.7994,-0.1999 1.8612,-0.4122 3.1852,-0.6371 1.324,-0.2248 2.8479,-0.3372 4.5717,-0.3372 1.5488,0 2.8354,0.2186 3.8597,0.6558 1.0242,0.4371 1.8424,1.0492 2.4544,1.8361 0.6121,0.787 1.043,1.73 1.2928,2.8292 0.2498,1.0992 0.3748,2.3108 0.3748,3.6349l0 10.942 -3.485 0 0 -10.1926c0,-1.1991 -0.0812,-2.2234 -0.2436,-3.0727 -0.1624,-0.8494 -0.4309,-1.5364 -0.8056,-2.061 -0.3748,-0.5247 -0.8744,-0.9056 -1.499,-1.143 -0.6245,-0.2373 -1.3989,-0.3559 -2.3233,-0.3559 -0.3747,0 -0.7619,0.0124 -1.1616,0.0374 -0.3997,0.025 -0.7807,0.0562 -1.1429,0.0937 -0.3623,0.0375 -0.687,0.0812 -0.9743,0.1312 -0.2873,0.0499 -0.4934,0.0874 -0.6183,0.1124l0 16.4505 -3.485 0 0 -18.9237z"/><path id="_171759776" class="fil0" d="M59.013 224.004c1.424,0 2.4795,-0.1873 3.1665,-0.5621 0.687,-0.3747 1.0305,-0.9743 1.0305,-1.7987 0,-0.8493 -0.3373,-1.5238 -1.0118,-2.0235 -0.6745,-0.4996 -1.7862,-1.0617 -3.3351,-1.6862 -0.7494,-0.2998 -1.4677,-0.6059 -2.1547,-0.9181 -0.687,-0.3123 -1.2803,-0.6808 -1.7799,-1.1055 -0.4996,-0.4247 -0.8994,-0.9368 -1.1991,-1.5364 -0.2998,-0.5995 -0.4497,-1.3365 -0.4497,-2.2108 0,-1.7238 0.637,-3.0915 1.9111,-4.1033 1.2741,-1.0118 3.0103,-1.5177 5.2087,-1.5177 0.5496,0 1.0992,0.0313 1.6488,0.0937 0.5496,0.0625 1.0617,0.1374 1.5364,0.2249 0.4746,0.0874 0.8931,0.1811 1.2553,0.281 0.3623,0.0999 0.6433,0.1874 0.8432,0.2623l-0.6371 2.9978c-0.3747,-0.1998 -0.9618,-0.4059 -1.7612,-0.6183 -0.7994,-0.2123 -1.7612,-0.3185 -2.8854,-0.3185 -0.9743,0 -1.8237,0.1936 -2.5481,0.5808 -0.7245,0.3873 -1.0867,0.9931 -1.0867,1.8175 0,0.4247 0.0811,0.7994 0.2435,1.1242 0.1624,0.3247 0.4122,0.6183 0.7495,0.8806 0.3372,0.2623 0.7557,0.5058 1.2553,0.7307 0.4996,0.2248 1.0992,0.4621 1.7987,0.712 0.9243,0.3497 1.7487,0.6932 2.4732,1.0305 0.7245,0.3372 1.3428,0.7307 1.8549,1.1804 0.5121,0.4496 0.9056,0.993 1.1804,1.63 0.2748,0.637 0.4122,1.4177 0.4122,2.3421 0,1.7986 -0.6683,3.1602 -2.0048,4.0845 -1.3365,0.9243 -3.2414,1.3865 -5.7146,1.3865 -1.7237,0 -3.0727,-0.1437 -4.047,-0.431 -0.9743,-0.2873 -1.6363,-0.5058 -1.9861,-0.6557l0.637 -2.9979c0.3998,0.1499 1.0368,0.3748 1.9112,0.6746 0.8743,0.2996 2.036,0.4496 3.4849,0.4496z"/><path id="_171759848" class="fil0" d="M83.5138 209.652c-0.5246,0.5746 -1.2179,1.3865 -2.0797,2.4357 -0.8619,1.0492 -1.7862,2.2109 -2.773,3.485 -0.9868,1.274 -1.9736,2.6106 -2.9604,4.0095 -0.9867,1.399 -1.8549,2.7356 -2.6043,4.0096l10.7172 0 0 2.9229 -14.8767 0 0 -2.3233c0.5996,-1.0992 1.3365,-2.3108 2.2109,-3.6349 0.8744,-1.324 1.7925,-2.6418 2.7543,-3.9533 0.9617,-1.3116 1.8986,-2.5482 2.8104,-3.7098 0.9118,-1.1617 1.705,-2.1422 2.3795,-2.9416l-9.6305 0 0 -2.9229 14.0523 0 0 2.6231z"/><path id="_171759920" class="fil0" d="M86.5428 216.809c0,-1.7238 0.2498,-3.2289 0.7495,-4.5155 0.4996,-1.2866 1.1616,-2.3545 1.986,-3.2039 0.8244,-0.8494 1.7737,-1.4864 2.8479,-1.9111 1.0743,-0.4247 2.1735,-0.6371 3.2976,-0.6371 2.6231,0 4.6342,0.8182 6.033,2.4545 1.399,1.6363 2.0985,4.1283 2.0985,7.4758 0,0.1499 0,0.3435 0,0.5808 0,0.2374 -0.0125,0.456 -0.0375,0.6558l-13.3401 0c0.1499,2.0235 0.7369,3.5599 1.7612,4.6092 1.0242,1.0492 2.6231,1.5738 4.7965,1.5738 1.2241,0 2.2546,-0.1062 3.0915,-0.3185 0.8368,-0.2124 1.4676,-0.4185 1.8923,-0.6183l0.4871 2.9229c-0.4246,0.2248 -1.1679,0.4621 -2.2295,0.7119 -1.0618,0.2499 -2.2671,0.3748 -3.6161,0.3748 -1.6988,0 -3.1665,-0.2561 -4.4031,-0.7682 -1.2366,-0.5121 -2.2546,-1.2179 -3.054,-2.1172 -0.7994,-0.8994 -1.3927,-1.9673 -1.78,-3.2039 -0.3872,-1.2366 -0.5808,-2.5919 -0.5808,-4.0658zm13.3778 -1.9111c0.0249,-1.5739 -0.3685,-2.8667 -1.1804,-3.8785 -0.8119,-1.0117 -1.9299,-1.5176 -3.3538,-1.5176 -0.7995,0 -1.5052,0.1561 -2.1172,0.4684 -0.6121,0.3123 -1.1305,0.7182 -1.5552,1.2179 -0.4246,0.4996 -0.7557,1.0742 -0.993,1.7237 -0.2373,0.6495 -0.3934,1.3116 -0.4684,1.9861l9.668 0z"/><path id="_171759992" class="fil0" d="M107.971 207.591c0.7994,-0.1999 1.8612,-0.4122 3.1852,-0.6371 1.324,-0.2248 2.8479,-0.3372 4.5717,-0.3372 1.5489,0 2.8354,0.2186 3.8597,0.6558 1.0243,0.4371 1.8424,1.0492 2.4544,1.8361 0.6121,0.787 1.043,1.73 1.2928,2.8292 0.2499,1.0992 0.3748,2.3108 0.3748,3.6349l0 10.942 -3.485 0 0 -10.1926c0,-1.1991 -0.0812,-2.2234 -0.2436,-3.0727 -0.1624,-0.8494 -0.4309,-1.5364 -0.8056,-2.061 -0.3747,-0.5247 -0.8744,-0.9056 -1.499,-1.143 -0.6245,-0.2373 -1.3989,-0.3559 -2.3233,-0.3559 -0.3747,0 -0.7619,0.0124 -1.1616,0.0374 -0.3996,0.025 -0.7807,0.0562 -1.1429,0.0937 -0.3622,0.0375 -0.687,0.0812 -0.9743,0.1312 -0.2872,0.0499 -0.4934,0.0874 -0.6183,0.1124l0.0001 16.4505 -3.4851 0 0 -18.9237z"/><path id="_171760064" class="fil0" d="M132.359 226.515l-3.4851 0 0 -19.4858 3.4851 0 0 19.4858zm-1.7612 -23.0082c-0.6246,0 -1.1555,-0.2061 -1.5927,-0.6183 -0.4372,-0.4122 -0.6558,-0.9681 -0.6558,-1.6676 0.0001,-0.6995 0.2186,-1.2553 0.6558,-1.6675 0.4373,-0.4122 0.968,-0.6183 1.5926,-0.6183 0.6245,0 1.1554,0.2061 1.5926,0.6183 0.4372,0.4122 0.6557,0.968 0.6557,1.6675 0.0001,0.6995 -0.2186,1.2554 -0.6557,1.6676 -0.4371,0.4122 -0.9681,0.6183 -1.5925,0.6183z"/><path id="_171760136" class="fil0" d="M153.263 225.953c-0.7994,0.1998 -1.855,0.4122 -3.1665,0.637 -1.3115,0.2249 -2.8292,0.3373 -4.553,0.3373 -1.4988,0 -2.7605,-0.2186 -3.7847,-0.6558 -1.0243,-0.4372 -1.8487,-1.0555 -2.4732,-1.8549 -0.6244,-0.7994 -1.0742,-1.7425 -1.349,-2.8292 -0.2748,-1.0867 -0.4122,-2.292 -0.4122,-3.6161l0 -10.942 3.485 0 0 10.1926c0,2.3732 0.3747,4.072 1.1241,5.0963 0.7495,1.0242 2.0111,1.5363 3.7848,1.5363 0.3748,-0.0001 0.7619,-0.0125 1.1616,-0.0374 0.3997,-0.025 0.7745,-0.0562 1.1242,-0.0937 0.3498,-0.0375 0.6683,-0.075 0.9556,-0.1124 0.2872,-0.0375 0.4933,-0.0812 0.6183,-0.1312l0 -16.4505 3.485 0 0 18.9237z"/><path id="_171760208" class="fil0" d="M158.652 207.591c0.7994,-0.1999 1.8548,-0.4122 3.1664,-0.6371 1.3115,-0.2248 2.8291,-0.3372 4.5529,-0.3372 1.2491,0 2.2983,0.1686 3.1477,0.5059 0.8494,0.3372 1.5614,0.8306 2.1359,1.4801 0.175,-0.1249 0.4497,-0.2997 0.8244,-0.5246 0.3748,-0.2248 0.8369,-0.4434 1.3865,-0.6557 0.5496,-0.2124 1.1617,-0.3998 1.8363,-0.5621 0.6746,-0.1624 1.399,-0.2436 2.1734,-0.2436 1.499,0 2.723,0.2186 3.6723,0.6558 0.9494,0.4371 1.6926,1.0554 2.2297,1.8549 0.5371,0.7994 0.8993,1.7487 1.0867,2.8479 0.1874,1.0992 0.281,2.2983 0.281,3.5974l0 10.942 -3.4848 0 0 -10.1926c0,-1.1491 -0.0564,-2.1359 -0.1688,-2.9603 -0.1124,-0.8244 -0.3247,-1.5114 -0.637,-2.061 -0.3122,-0.5496 -0.737,-0.9556 -1.2741,-1.2179 -0.537,-0.2624 -1.2303,-0.3934 -2.0797,-0.3934 -1.1741,0 -2.1423,0.1561 -2.9042,0.4684 -0.762,0.3122 -1.2804,0.5933 -1.5552,0.8431 0.2,0.6495 0.3498,1.3615 0.4497,2.1359 0.0999,0.7745 0.1499,1.5864 0.1499,2.4358l0 10.942 -3.4849 0 0 -10.1926c0,-1.1491 -0.0625,-2.1359 -0.1874,-2.9603 -0.1249,-0.8244 -0.3435,-1.5114 -0.6558,-2.061 -0.3122,-0.5496 -0.737,-0.9556 -1.2741,-1.2179 -0.537,-0.2624 -1.2178,-0.3934 -2.0422,-0.3934 -0.3497,0 -0.7245,0.0124 -1.1242,0.0374 -0.3997,0.025 -0.7807,0.0562 -1.1429,0.0937 -0.3623,0.0375 -0.6933,0.0812 -0.9931,0.1312 -0.2996,0.0499 -0.4996,0.0874 -0.5995,0.1124l0 16.4505 -3.4849 0 0 -18.9237z"/><path id="_171760280" class="fil0" d="M24 70L65 70 65 74 28 74 28 110 24 110z"/><path id="_171760352" class="fil0" d="M24 191L65 191 65 187 28 187 28 151 24 151z"/><path id="_171760424" class="fil0" d="M186 70L145 70 145 74 182 74 182 110 186 110z"/><path id="_171760520" class="fil0" d="M186 191L145 191 145 187 182 187 182 151 186 151z"/><path id="_171760616" class="fil0" d="M105.087 95.6993c19.2662,0 34.8906,15.6242 34.8906,34.8904 0,19.2662 -15.6244,34.8903 -34.8906,34.8903 -19.2661,-0.0001 -34.8904,-15.6241 -34.8904,-34.8903 0,-19.2662 15.6243,-34.8904 34.8904,-34.8904z"/><path id="_171760688" d="M105.087 98.9708c17.4598,0 31.6191,14.1592 31.6191,31.619 0.0001,17.4596 -14.1594,31.6187 -31.6191,31.6187 -17.4596,0 -31.619,-14.1591 -31.619,-31.6187 0,-17.4599 14.1594,-31.6189 31.619,-31.619z" fill="#cfd0ce"/><path id="_171760592" d="M106.495 107.555c12.7639,0.7808 22.4819,11.7649 21.7013,24.5287 -0.7807,12.7638 -11.7649,22.4817 -24.5288,21.7011 -12.7638,-0.7808 -22.4818,-11.7648 -21.7011,-24.5286 0.7807,-12.7638 11.7648,-22.4817 24.5286,-21.7012z" fill="#bbbcb9"/><path id="_171760496" class="fil0" d="M107.739 86.1365c10.3169,0.6068 19.6911,4.7218 26.949,11.1677l-1.5794 1.5794c-6.8501,-6.0451 -15.6681,-9.9115 -25.3696,-10.5123l0 -2.2348zm30.7084 14.9267c6.4454,7.2582 10.561,16.6319 11.1677,26.9488l-2.2351 0c-0.6009,-9.7015 -4.4677,-18.5191 -10.5125,-25.3691l1.5799 -1.5797zm-36.0246 -12.6918c-9.7013,0.601 -18.5193,4.4674 -25.369,10.5126l-1.5795 -1.5796c7.2579,-6.4458 16.6318,-10.5609 26.9485,-11.1677l0 2.2347zm-29.1281 14.2717c-6.0447,6.8502 -9.9112,15.6675 -10.5121,25.3689l-2.2351 0c0.6066,-10.3168 4.7222,-19.6903 11.1676,-26.9485l1.5796 1.5796zm76.3204 30.6851c-0.6066,10.3169 -4.722,19.6909 -11.1679,26.9488l-1.5796 -1.5797c6.0451,-6.8499 9.9115,-15.6676 10.5124,-25.3691l2.2351 0zm-14.927 30.708c-7.2583,6.4453 -16.6322,10.5607 -26.9491,11.1674l0 -2.2348c9.7016,-0.6009 18.5192,-4.4674 25.3694,-10.5123l1.5797 1.5797zm-32.2653 11.1673c-10.3166,-0.6069 -19.6903,-4.7223 -26.9485,-11.1677l1.5796 -1.5797c6.85,6.0448 15.6676,9.9117 25.3689,10.5126l0 2.2348zm-30.7076 -14.9268c-6.4459,-7.2578 -10.5611,-16.6316 -11.1677,-26.9485l2.2351 0c0.6009,9.7012 4.4673,18.519 10.5122,25.3688l-1.5796 1.5797z"/><path id="_31578792" d="M106.464 107.513c5.3648,0.3153 10.2392,2.4553 14.0134,5.8071l-0.8214 0.8214c-3.5619,-3.1436 -8.1473,-5.154 -13.1921,-5.4665l0.0001 -1.162zm15.9683 7.7618c3.3517,3.7742 5.4917,8.6486 5.8072,14.0134l-1.1622 -0.0001c-0.3126,-5.0448 -2.3233,-9.6298 -5.4666,-13.1919l0.8216 -0.8214zm-18.7328 -6.5998c-5.0447,0.3126 -9.63,2.3231 -13.1919,5.4666l-0.8212 -0.8214c3.774,-3.3518 8.6484,-5.4917 14.0131,-5.8072l0 1.162zm-15.1466 7.4214c-3.1432,3.5619 -5.1538,8.1471 -5.4663,13.1918l-1.1623 -0.0001c0.3155,-5.3646 2.4556,-10.2389 5.8072,-14.0131l0.8214 0.8214zm39.6866 15.9561c-0.3155,5.3649 -2.4555,10.2394 -5.8074,14.0135l-0.8214 -0.8214c3.1436,-3.562 5.154,-8.1472 5.4665,-13.192l1.1623 -0.0001zm-7.762 15.9681c-3.7743,3.3516 -8.6488,5.4917 -14.0136,5.8071l0.0001 -1.1621c5.0448,-0.3124 9.6299,-2.323 13.192,-5.4663l0.8215 0.8213zm-16.778 5.8071c-5.3645,-0.3156 -10.239,-2.4556 -14.0132,-5.8072l0.8214 -0.8214c3.562,3.1432 8.1471,5.154 13.1918,5.4665l0 1.1621zm-15.968 -7.7619c-3.3518,-3.7741 -5.4917,-8.6484 -5.8072,-14.0132l1.1623 -0.0001c0.3125,5.0447 2.323,9.63 5.4664,13.192l-0.8215 0.8213z" fill="#fff"/></g></g></svg>