<?xml version="1.0" encoding="UTF-8" standalone="no"?>
<!-- Created with Inkscape (http://www.inkscape.org/) -->

<svg
   xmlns:dc="http://purl.org/dc/elements/1.1/"
   xmlns:cc="http://creativecommons.org/ns#"
   xmlns:rdf="http://www.w3.org/1999/02/22-rdf-syntax-ns#"
   xmlns:svg="http://www.w3.org/2000/svg"
   xmlns="http://www.w3.org/2000/svg"
   xmlns:sodipodi="http://sodipodi.sourceforge.net/DTD/sodipodi-0.dtd"
   xmlns:inkscape="http://www.inkscape.org/namespaces/inkscape"
   width="210mm"
   height="210mm"
   viewBox="0 0 210 210"
   version="1.1"
   id="svg3862"
   inkscape:version="0.92.3 (2405546, 2018-03-11)"
   sodipodi:docname="inszenium_logo.svg">
  <defs
     id="defs3856" />
  <sodipodi:namedview
     id="base"
     pagecolor="#ffffff"
     bordercolor="#666666"
     borderopacity="1.0"
     inkscape:pageopacity="0.0"
     inkscape:pageshadow="2"
     inkscape:zoom="0.98994949"
     inkscape:cx="356.39858"
     inkscape:cy="315.45089"
     inkscape:document-units="mm"
     inkscape:current-layer="layer1"
     showgrid="false"
     inkscape:window-width="1920"
     inkscape:window-height="1151"
     inkscape:window-x="1920"
     inkscape:window-y="25"
     inkscape:window-maximized="1" />
  <metadata
     id="metadata3859">
    <rdf:RDF>
      <cc:Work
         rdf:about="">
        <dc:format>image/svg+xml</dc:format>
        <dc:type
           rdf:resource="http://purl.org/dc/dcmitype/StillImage" />
        <dc:title></dc:title>
      </cc:Work>
    </rdf:RDF>
  </metadata>
  <g
     inkscape:label="Ebene 1"
     inkscape:groupmode="layer"
     id="layer1"
     transform="translate(0,-87)">
    <g
       style="clip-rule:evenodd;fill-rule:evenodd;image-rendering:optimizeQuality;shape-rendering:geometricPrecision;text-rendering:geometricPrecision"
       id="Ebene_x0020_1"
       transform="translate(-0.84766479,41.890507)">
      <metadata
         id="CorelCorpID_0Corel-Layer" />
      <g
         id="_139290888">
        <path
           inkscape:connector-curvature="0"
           id="_31579512"
           class="fil0"
           d="m 28.1856,226.515 h -3.485 v -19.4858 h 3.485 z m -1.7612,-23.0082 c -0.6246,0 -1.1554,-0.2061 -1.5926,-0.6183 -0.4372,-0.4122 -0.6558,-0.9681 -0.6558,-1.6676 0,-0.6995 0.2186,-1.2553 0.6558,-1.6675 0.4372,-0.4122 0.968,-0.6183 1.5926,-0.6183 0.6245,0 1.1554,0.2061 1.5926,0.6183 0.4371,0.4122 0.6557,0.968 0.6557,1.6675 0,0.6995 -0.2186,1.2554 -0.6557,1.6676 -0.4372,0.4122 -0.9681,0.6183 -1.5926,0.6183 z" />
        <path
           inkscape:connector-curvature="0"
           id="_137972144"
           class="fil0"
           d="m 33.5753,207.591 c 0.7994,-0.1999 1.8612,-0.4122 3.1852,-0.6371 1.324,-0.2248 2.8479,-0.3372 4.5717,-0.3372 1.5488,0 2.8354,0.2186 3.8597,0.6558 1.0242,0.4371 1.8424,1.0492 2.4544,1.8361 0.6121,0.787 1.043,1.73 1.2928,2.8292 0.2498,1.0992 0.3748,2.3108 0.3748,3.6349 v 10.942 h -3.485 v -10.1926 c 0,-1.1991 -0.0812,-2.2234 -0.2436,-3.0727 -0.1624,-0.8494 -0.4309,-1.5364 -0.8056,-2.061 -0.3748,-0.5247 -0.8744,-0.9056 -1.499,-1.143 -0.6245,-0.2373 -1.3989,-0.3559 -2.3233,-0.3559 -0.3747,0 -0.7619,0.0124 -1.1616,0.0374 -0.3997,0.025 -0.7807,0.0562 -1.1429,0.0937 -0.3623,0.0375 -0.687,0.0812 -0.9743,0.1312 -0.2873,0.0499 -0.4934,0.0874 -0.6183,0.1124 v 16.4505 h -3.485 z" />
        <path
           inkscape:connector-curvature="0"
           id="_171759776"
           class="fil0"
           d="m 59.013,224.004 c 1.424,0 2.4795,-0.1873 3.1665,-0.5621 0.687,-0.3747 1.0305,-0.9743 1.0305,-1.7987 0,-0.8493 -0.3373,-1.5238 -1.0118,-2.0235 -0.6745,-0.4996 -1.7862,-1.0617 -3.3351,-1.6862 -0.7494,-0.2998 -1.4677,-0.6059 -2.1547,-0.9181 -0.687,-0.3123 -1.2803,-0.6808 -1.7799,-1.1055 -0.4996,-0.4247 -0.8994,-0.9368 -1.1991,-1.5364 -0.2998,-0.5995 -0.4497,-1.3365 -0.4497,-2.2108 0,-1.7238 0.637,-3.0915 1.9111,-4.1033 1.2741,-1.0118 3.0103,-1.5177 5.2087,-1.5177 0.5496,0 1.0992,0.0313 1.6488,0.0937 0.5496,0.0625 1.0617,0.1374 1.5364,0.2249 0.4746,0.0874 0.8931,0.1811 1.2553,0.281 0.3623,0.0999 0.6433,0.1874 0.8432,0.2623 l -0.6371,2.9978 c -0.3747,-0.1998 -0.9618,-0.4059 -1.7612,-0.6183 -0.7994,-0.2123 -1.7612,-0.3185 -2.8854,-0.3185 -0.9743,0 -1.8237,0.1936 -2.5481,0.5808 -0.7245,0.3873 -1.0867,0.9931 -1.0867,1.8175 0,0.4247 0.0811,0.7994 0.2435,1.1242 0.1624,0.3247 0.4122,0.6183 0.7495,0.8806 0.3372,0.2623 0.7557,0.5058 1.2553,0.7307 0.4996,0.2248 1.0992,0.4621 1.7987,0.712 0.9243,0.3497 1.7487,0.6932 2.4732,1.0305 0.7245,0.3372 1.3428,0.7307 1.8549,1.1804 0.5121,0.4496 0.9056,0.993 1.1804,1.63 0.2748,0.637 0.4122,1.4177 0.4122,2.3421 0,1.7986 -0.6683,3.1602 -2.0048,4.0845 -1.3365,0.9243 -3.2414,1.3865 -5.7146,1.3865 -1.7237,0 -3.0727,-0.1437 -4.047,-0.431 -0.9743,-0.2873 -1.6363,-0.5058 -1.9861,-0.6557 l 0.637,-2.9979 c 0.3998,0.1499 1.0368,0.3748 1.9112,0.6746 0.8743,0.2996 2.036,0.4496 3.4849,0.4496 z" />
        <path
           inkscape:connector-curvature="0"
           id="_171759848"
           class="fil0"
           d="m 83.5138,209.652 c -0.5246,0.5746 -1.2179,1.3865 -2.0797,2.4357 -0.8619,1.0492 -1.7862,2.2109 -2.773,3.485 -0.9868,1.274 -1.9736,2.6106 -2.9604,4.0095 -0.9867,1.399 -1.8549,2.7356 -2.6043,4.0096 h 10.7172 v 2.9229 H 68.9369 v -2.3233 c 0.5996,-1.0992 1.3365,-2.3108 2.2109,-3.6349 0.8744,-1.324 1.7925,-2.6418 2.7543,-3.9533 0.9617,-1.3116 1.8986,-2.5482 2.8104,-3.7098 0.9118,-1.1617 1.705,-2.1422 2.3795,-2.9416 h -9.6305 v -2.9229 h 14.0523 z" />
        <path
           inkscape:connector-curvature="0"
           id="_171759920"
           class="fil0"
           d="m 86.5428,216.809 c 0,-1.7238 0.2498,-3.2289 0.7495,-4.5155 0.4996,-1.2866 1.1616,-2.3545 1.986,-3.2039 0.8244,-0.8494 1.7737,-1.4864 2.8479,-1.9111 1.0743,-0.4247 2.1735,-0.6371 3.2976,-0.6371 2.6231,0 4.6342,0.8182 6.033,2.4545 1.399,1.6363 2.0985,4.1283 2.0985,7.4758 0,0.1499 0,0.3435 0,0.5808 0,0.2374 -0.0125,0.456 -0.0375,0.6558 H 90.1777 c 0.1499,2.0235 0.7369,3.5599 1.7612,4.6092 1.0242,1.0492 2.6231,1.5738 4.7965,1.5738 1.2241,0 2.2546,-0.1062 3.0915,-0.3185 0.8368,-0.2124 1.4676,-0.4185 1.8923,-0.6183 l 0.4871,2.9229 c -0.4246,0.2248 -1.1679,0.4621 -2.2295,0.7119 -1.0618,0.2499 -2.2671,0.3748 -3.6161,0.3748 -1.6988,0 -3.1665,-0.2561 -4.4031,-0.7682 -1.2366,-0.5121 -2.2546,-1.2179 -3.054,-2.1172 -0.7994,-0.8994 -1.3927,-1.9673 -1.78,-3.2039 -0.3872,-1.2366 -0.5808,-2.5919 -0.5808,-4.0658 z m 13.3778,-1.9111 c 0.0249,-1.5739 -0.3685,-2.8667 -1.1804,-3.8785 -0.8119,-1.0117 -1.9299,-1.5176 -3.3538,-1.5176 -0.7995,0 -1.5052,0.1561 -2.1172,0.4684 -0.6121,0.3123 -1.1305,0.7182 -1.5552,1.2179 -0.4246,0.4996 -0.7557,1.0742 -0.993,1.7237 -0.2373,0.6495 -0.3934,1.3116 -0.4684,1.9861 z" />
        <path
           inkscape:connector-curvature="0"
           id="_171759992"
           class="fil0"
           d="m 107.971,207.591 c 0.7994,-0.1999 1.8612,-0.4122 3.1852,-0.6371 1.324,-0.2248 2.8479,-0.3372 4.5717,-0.3372 1.5489,0 2.8354,0.2186 3.8597,0.6558 1.0243,0.4371 1.8424,1.0492 2.4544,1.8361 0.6121,0.787 1.043,1.73 1.2928,2.8292 0.2499,1.0992 0.3748,2.3108 0.3748,3.6349 v 10.942 h -3.485 v -10.1926 c 0,-1.1991 -0.0812,-2.2234 -0.2436,-3.0727 -0.1624,-0.8494 -0.4309,-1.5364 -0.8056,-2.061 -0.3747,-0.5247 -0.8744,-0.9056 -1.499,-1.143 -0.6245,-0.2373 -1.3989,-0.3559 -2.3233,-0.3559 -0.3747,0 -0.7619,0.0124 -1.1616,0.0374 -0.3996,0.025 -0.7807,0.0562 -1.1429,0.0937 -0.3622,0.0375 -0.687,0.0812 -0.9743,0.1312 -0.2872,0.0499 -0.4934,0.0874 -0.6183,0.1124 l 1e-4,16.4505 h -3.4851 z" />
        <path
           inkscape:connector-curvature="0"
           id="_171760064"
           class="fil0"
           d="m 132.359,226.515 h -3.4851 v -19.4858 h 3.4851 z m -1.7612,-23.0082 c -0.6246,0 -1.1555,-0.2061 -1.5927,-0.6183 -0.4372,-0.4122 -0.6558,-0.9681 -0.6558,-1.6676 1e-4,-0.6995 0.2186,-1.2553 0.6558,-1.6675 0.4373,-0.4122 0.968,-0.6183 1.5926,-0.6183 0.6245,0 1.1554,0.2061 1.5926,0.6183 0.4372,0.4122 0.6557,0.968 0.6557,1.6675 1e-4,0.6995 -0.2186,1.2554 -0.6557,1.6676 -0.4371,0.4122 -0.9681,0.6183 -1.5925,0.6183 z" />
        <path
           inkscape:connector-curvature="0"
           id="_171760136"
           class="fil0"
           d="m 153.263,225.953 c -0.7994,0.1998 -1.855,0.4122 -3.1665,0.637 -1.3115,0.2249 -2.8292,0.3373 -4.553,0.3373 -1.4988,0 -2.7605,-0.2186 -3.7847,-0.6558 -1.0243,-0.4372 -1.8487,-1.0555 -2.4732,-1.8549 -0.6244,-0.7994 -1.0742,-1.7425 -1.349,-2.8292 -0.2748,-1.0867 -0.4122,-2.292 -0.4122,-3.6161 v -10.942 h 3.485 v 10.1926 c 0,2.3732 0.3747,4.072 1.1241,5.0963 0.7495,1.0242 2.0111,1.5363 3.7848,1.5363 0.3748,-1e-4 0.7619,-0.0125 1.1616,-0.0374 0.3997,-0.025 0.7745,-0.0562 1.1242,-0.0937 0.3498,-0.0375 0.6683,-0.075 0.9556,-0.1124 0.2872,-0.0375 0.4933,-0.0812 0.6183,-0.1312 v -16.4505 h 3.485 z" />
        <path
           inkscape:connector-curvature="0"
           id="_171760208"
           class="fil0"
           d="m 158.652,207.591 c 0.7994,-0.1999 1.8548,-0.4122 3.1664,-0.6371 1.3115,-0.2248 2.8291,-0.3372 4.5529,-0.3372 1.2491,0 2.2983,0.1686 3.1477,0.5059 0.8494,0.3372 1.5614,0.8306 2.1359,1.4801 0.175,-0.1249 0.4497,-0.2997 0.8244,-0.5246 0.3748,-0.2248 0.8369,-0.4434 1.3865,-0.6557 0.5496,-0.2124 1.1617,-0.3998 1.8363,-0.5621 0.6746,-0.1624 1.399,-0.2436 2.1734,-0.2436 1.499,0 2.723,0.2186 3.6723,0.6558 0.9494,0.4371 1.6926,1.0554 2.2297,1.8549 0.5371,0.7994 0.8993,1.7487 1.0867,2.8479 0.1874,1.0992 0.281,2.2983 0.281,3.5974 v 10.942 h -3.4848 v -10.1926 c 0,-1.1491 -0.0564,-2.1359 -0.1688,-2.9603 -0.1124,-0.8244 -0.3247,-1.5114 -0.637,-2.061 -0.3122,-0.5496 -0.737,-0.9556 -1.2741,-1.2179 -0.537,-0.2624 -1.2303,-0.3934 -2.0797,-0.3934 -1.1741,0 -2.1423,0.1561 -2.9042,0.4684 -0.762,0.3122 -1.2804,0.5933 -1.5552,0.8431 0.2,0.6495 0.3498,1.3615 0.4497,2.1359 0.0999,0.7745 0.1499,1.5864 0.1499,2.4358 v 10.942 h -3.4849 v -10.1926 c 0,-1.1491 -0.0625,-2.1359 -0.1874,-2.9603 -0.1249,-0.8244 -0.3435,-1.5114 -0.6558,-2.061 -0.3122,-0.5496 -0.737,-0.9556 -1.2741,-1.2179 -0.537,-0.2624 -1.2178,-0.3934 -2.0422,-0.3934 -0.3497,0 -0.7245,0.0124 -1.1242,0.0374 -0.3997,0.025 -0.7807,0.0562 -1.1429,0.0937 -0.3623,0.0375 -0.6933,0.0812 -0.9931,0.1312 -0.2996,0.0499 -0.4996,0.0874 -0.5995,0.1124 v 16.4505 h -3.4849 z" />
        <polygon
           id="_171760280"
           class="fil0"
           points="64.719,74.0723 28.3874,74.0723 28.3874,110.407 24.3505,110.404 24.3505,70.0355 64.719,70.0355 " />
        <polygon
           id="_171760352"
           class="fil0"
           points="64.719,187.107 28.3874,187.107 28.3874,150.772 24.3505,150.775 24.3505,191.144 64.719,191.144 " />
        <polygon
           id="_171760424"
           class="fil0"
           points="145.456,74.0723 181.787,74.0723 181.787,110.407 185.824,110.404 185.824,70.0355 145.456,70.0355 " />
        <polygon
           id="_171760520"
           class="fil0"
           points="145.456,187.107 181.787,187.107 181.787,150.772 185.824,150.775 185.824,191.144 145.456,191.144 " />
        <path
           inkscape:connector-curvature="0"
           id="_171760616"
           class="fil0"
           d="m 105.087,95.6993 c 19.2662,0 34.8906,15.6242 34.8906,34.8904 0,19.2662 -15.6244,34.8903 -34.8906,34.8903 -19.2661,-1e-4 -34.8904,-15.6241 -34.8904,-34.8903 0,-19.2662 15.6243,-34.8904 34.8904,-34.8904 z" />
        <path
           inkscape:connector-curvature="0"
           id="_171760688"
           class="fil1"
           d="m 105.087,98.9708 c 17.4598,0 31.6191,14.1592 31.6191,31.619 1e-4,17.4596 -14.1594,31.6187 -31.6191,31.6187 -17.4596,0 -31.619,-14.1591 -31.619,-31.6187 0,-17.4599 14.1594,-31.6189 31.619,-31.619 z" />
        <path
           inkscape:connector-curvature="0"
           id="_171760592"
           class="fil2"
           d="m 106.495,107.555 c 12.7639,0.7808 22.4819,11.7649 21.7013,24.5287 -0.7807,12.7638 -11.7649,22.4817 -24.5288,21.7011 C 90.9037,153.004 81.1857,142.02 81.9664,129.2562 82.7471,116.4924 93.7312,106.7745 106.495,107.555 Z" />
        <path
           inkscape:connector-curvature="0"
           id="_171760496"
           class="fil0"
           d="m 107.739,86.1365 c 10.3169,0.6068 19.6911,4.7218 26.949,11.1677 l -1.5794,1.5794 C 126.2585,92.8385 117.4405,88.9721 107.739,88.3713 Z m 30.7084,14.9267 c 6.4454,7.2582 10.561,16.6319 11.1677,26.9488 H 147.38 c -0.6009,-9.7015 -4.4677,-18.5191 -10.5125,-25.3691 z M 102.4228,88.3714 c -9.7013,0.601 -18.5193,4.4674 -25.369,10.5126 l -1.5795,-1.5796 c 7.2579,-6.4458 16.6318,-10.5609 26.9485,-11.1677 z m -29.1281,14.2717 c -6.0447,6.8502 -9.9112,15.6675 -10.5121,25.3689 h -2.2351 c 0.6066,-10.3168 4.7222,-19.6903 11.1676,-26.9485 z m 76.3204,30.6851 c -0.6066,10.3169 -4.722,19.6909 -11.1679,26.9488 l -1.5796,-1.5797 c 6.0451,-6.8499 9.9115,-15.6676 10.5124,-25.3691 z m -14.927,30.708 c -7.2583,6.4453 -16.6322,10.5607 -26.9491,11.1674 v -2.2348 c 9.7016,-0.6009 18.5192,-4.4674 25.3694,-10.5123 z m -32.2653,11.1673 C 92.1062,174.5966 82.7325,170.4812 75.4743,164.0358 l 1.5796,-1.5797 c 6.85,6.0448 15.6676,9.9117 25.3689,10.5126 z M 71.7152,160.2767 C 65.2693,153.0189 61.1541,143.6451 60.5475,133.3282 h 2.2351 c 0.6009,9.7012 4.4673,18.519 10.5122,25.3688 z" />
        <path
           inkscape:connector-curvature="0"
           id="_31578792"
           class="fil3"
           d="m 106.464,107.513 c 5.3648,0.3153 10.2392,2.4553 14.0134,5.8071 l -0.8214,0.8214 c -3.5619,-3.1436 -8.1473,-5.154 -13.1921,-5.4665 z m 15.9683,7.7618 c 3.3517,3.7742 5.4917,8.6486 5.8072,14.0134 l -1.1622,-1e-4 c -0.3126,-5.0448 -2.3233,-9.6298 -5.4666,-13.1919 z m -18.7328,-6.5998 c -5.0447,0.3126 -9.63,2.3231 -13.1919,5.4666 l -0.8212,-0.8214 c 3.774,-3.3518 8.6484,-5.4917 14.0131,-5.8072 z m -15.1466,7.4214 c -3.1432,3.5619 -5.1538,8.1471 -5.4663,13.1918 l -1.1623,-1e-4 c 0.3155,-5.3646 2.4556,-10.2389 5.8072,-14.0131 z m 39.6866,15.9561 c -0.3155,5.3649 -2.4555,10.2394 -5.8074,14.0135 l -0.8214,-0.8214 c 3.1436,-3.562 5.154,-8.1472 5.4665,-13.192 z m -7.762,15.9681 c -3.7743,3.3516 -8.6488,5.4917 -14.0136,5.8071 l 1e-4,-1.1621 c 5.0448,-0.3124 9.6299,-2.323 13.192,-5.4663 z m -16.778,5.8071 c -5.3645,-0.3156 -10.239,-2.4556 -14.0132,-5.8072 l 0.8214,-0.8214 c 3.562,3.1432 8.1471,5.154 13.1918,5.4665 z m -15.968,-7.7619 c -3.3518,-3.7741 -5.4917,-8.6484 -5.8072,-14.0132 l 1.1623,-1e-4 c 0.3125,5.0447 2.323,9.63 5.4664,13.192 z" />
      </g>
    </g>
  </g>
</svg>
