<svg xmlns="http://www.w3.org/2000/svg" xml:space="preserve" width="114.272" height="35.175" style="shape-rendering:geometricPrecision;text-rendering:geometricPrecision;image-rendering:optimizeQuality;fill-rule:evenodd;clip-rule:evenodd" viewBox="0 0 7.954 2.448"><defs><style>.fil0{fill:#eb6e1d}</style></defs><g id="Ebene_x0020_1"><g id="Vordergrund"><path id="_148152752" d="m4.253.937.013-.062C4.334.55 3.994.549 3.754.549c-.366 0-.646.007-.736.43-.057.269.015.392.561.392.15 0 .226 0 .198.13-.022.103-.054.115-.25.115-.105 0-.213 0-.182-.147h-.43c-.093.433.212.426.553.426.346 0 .656-.058.738-.444.078-.368-.114-.393-.558-.403-.22-.005-.215-.05-.201-.116.016-.077.022-.105.248-.105.067 0 .16 0 .152.11h.406z" class="fil0"/><path id="_148153376" d="M4.162 2.448h.43l.163-.766h.02c.032.18.163.213.321.213.361 0 .533-.16.618-.562l.064-.3C5.852.683 5.7.548 5.382.548c-.188 0-.335.045-.423.223h-.02l.054-.208h-.431l-.4 1.884zM5.142.88c.227 0 .219.087.164.343-.063.298-.132.34-.31.34-.2 0-.19-.12-.143-.34.059-.278.105-.343.288-.343z" class="fil0"/><path id="_148153616" d="M6.51.564h-.43L5.8 1.879h.431l.28-1.315zM6.63 0H6.2l-.07.33h.43L6.63 0z" class="fil0"/><path id="_148154168" d="M6.758.564 6.48 1.879h.431l.154-.724c.034-.16.09-.275.284-.275.14 0 .162.062.137.19l-.172.81h.431l.194-.91c.06-.283-.044-.421-.335-.421-.202 0-.341.052-.448.26h-.018L7.19.564h-.43z" class="fil0"/><path id="_148155416" d="M1.317 1.456c-.06.192-.236.19-.488.19-.406 0-.39-.09-.303-.367h1.3C2 .715 1.943.56 1.165.56.404.56.234.762.09 1.225c-.155.499-.057.656.667.656.54 0 .888-.02 1.014-.425h-.453zm-.73-.374C.657.853.7.797 1.093.797c.37 0 .422.02.34.285H.587z" style="fill:#1e2454;stroke:#1e2454;stroke-width:.0521945"/><path id="_148154672" d="m2.166 1.08-.07.227h.655l.051-.23z" style="fill:#eb6d1d"/></g></g></svg>