<?xml version="1.0" encoding="UTF-8"?>
<!DOCTYPE svg PUBLIC "-//W3C//DTD SVG 1.1//EN" "http://www.w3.org/Graphics/SVG/1.1/DTD/svg11.dtd">
<!-- Creator: CorelDRAW -->
<svg xmlns="http://www.w3.org/2000/svg" xml:space="preserve" width="30.2345mm" height="9.3067mm" style="shape-rendering:geometricPrecision; text-rendering:geometricPrecision; image-rendering:optimizeQuality; fill-rule:evenodd; clip-rule:evenodd"
viewBox="0 0 7.954 2.44838"
 xmlns:xlink="http://www.w3.org/1999/xlink">
 <defs>
  <style type="text/css">
   <![CDATA[
    .str0 {stroke:#1E2454;stroke-width:0.0521945}
    .fil1 {fill:#1E2454}
    .fil2 {fill:#EB6D1D}
    .fil0 {fill:#EB6E1D}
   ]]>
  </style>
 </defs>
 <g id="Ebene_x0020_1">
  <metadata id="CorelCorpID_0Corel-Layer"/>
  <g id="Vordergrund">
   <g>
    <path id="_148152752" class="fil0" d="M4.25259 0.937238l0.0132328 -0.0626386c0.0686368,-0.323243 -0.271601,-0.325768 -0.512158,-0.325768 -0.365914,0 -0.645591,0.007524 -0.735537,0.430999 -0.0569299,0.268181 0.0146797,0.390906 0.561091,0.390906 0.150349,0 0.225536,0 0.197808,0.130381 -0.0217828,0.102732 -0.0545096,0.11528 -0.250028,0.11528 -0.105257,0 -0.213066,0 -0.181602,-0.147849l-0.430973 0c-0.0920244,0.433577 0.212856,0.426053 0.553567,0.426053 0.345867,0 0.656325,-0.0576402 0.738247,-0.443601 0.0781602,-0.368361 -0.114491,-0.393405 -0.558381,-0.403429 -0.219459,-0.00502477 -0.214881,-0.0501162 -0.201096,-0.11528 0.0164949,-0.0776867 0.0223352,-0.105257 0.247924,-0.105257 0.067716,0 0.160451,0 0.152032,0.110256l0.405875 2.63077e-005 0 -7.89231e-005z"/>
    <path id="_148153376" class="fil0" d="M4.16162 2.44838l0.430999 0 0.162818 -0.766843 0.0200202 0c0.0318849,0.180418 0.162818,0.212987 0.320665,0.212987 0.360837,0 0.532705,-0.160372 0.617889,-0.56138l0.0638225 -0.300697c0.0740036,-0.348314 -0.0777393,-0.483615 -0.395984,-0.483615 -0.187942,0 -0.335292,0.0451177 -0.423265,0.22301l-0.0199675 2.63077e-005 0.0540886 -0.207989 -0.43092 0 -0.400167 1.8845zm0.97962 -1.56878c0.228035,0 0.219406,0.0877625 0.165186,0.343368 -0.063349,0.298198 -0.132538,0.34079 -0.310431,0.34079 -0.200544,0 -0.189942,-0.120279 -0.143167,-0.34079 0.0590608,-0.278204 0.105494,-0.343368 0.288411,-0.343368z"/>
    <path id="_148153616" class="fil0" d="M6.51082 0.563879l-0.430999 0 -0.279388 1.31562 0.430973 0 0.279414 -1.31562zm0.1197 -0.563879l-0.430999 0 -0.0702416 0.330767 0.431025 0 0.0702153 -0.330767z"/>
    <path id="_148154168" class="fil0" d="M6.75832 0.563879l-0.279335 1.31562 0.430999 0 0.153769 -0.724172c0.0340422,-0.160451 0.0911825,-0.275705 0.284123,-0.275705 0.140325,0 0.162055,0.0626386 0.137484,0.190441l-0.171868 0.809436 0.430999 0 0.193099 -0.909668c0.0601394,-0.28315 -0.0433551,-0.420976 -0.334108,-0.420976 -0.202964,0 -0.341974,0.0526154 -0.448757,0.260604l-0.0175999 -2.63077e-005 0.0521945 -0.245582 -0.430999 2.63077e-005z"/>
    <path id="_148155416" class="fil1 str0" d="M1.31667 1.45582c-0.0596396,0.191836 -0.23527,0.189389 -0.487298,0.189389 -0.406849,0 -0.390064,-0.0885517 -0.303696,-0.366545l1.29968 0c0.175051,-0.563327 0.118753,-0.718253 -0.658824,-0.718253 -0.763239,0 -0.933897,0.201727 -1.07756,0.664191 -0.155163,0.499347 -0.0565879,0.656719 0.667111,0.656719 0.539992,0 0.888174,-0.0197045 1.01421,-0.425501l-0.453624 0zm-0.729802 -0.373938c0.0710571,-0.228719 0.113886,-0.285307 0.506239,-0.285307 0.370781,0 0.422291,0.0197045 0.339738,0.285307l-0.845977 0z"/>
    <polygon id="_148154672" class="fil2" points="2.16607,1.07938 2.09586,1.3067 2.75076,1.3067 2.80248,1.07756 "/>
   </g>
  </g>
 </g>
</svg>
