<?xml version="1.0" encoding="UTF-8" standalone="no"?><!DOCTYPE svg PUBLIC "-//W3C//DTD SVG 1.1//EN" "http://www.w3.org/Graphics/SVG/1.1/DTD/svg11.dtd"><svg width="100%" height="100%" viewBox="0 0 400 400" version="1.1" xmlns="http://www.w3.org/2000/svg" xmlns:xlink="http://www.w3.org/1999/xlink" xml:space="preserve" xmlns:serif="http://www.serif.com/" style="fill-rule:evenodd;clip-rule:evenodd;stroke-linejoin:round;stroke-miterlimit:2;"><path d="M400,0l-400,0l0,400l400,-400Z" style="fill:#6aae00;"/><path d="M0,400l400,0l0,-400l-400,400Z" style="fill:#599600;"/><path d="M87.628,312.24l0,-256.521c0,-5.812 3.403,-9.41 8.976,-9.41l118.545,0l184.851,185.411l0,168.28l-219.25,0l-93.122,-87.76Z" style="fill:#4c7613;"/><path d="M294.525,347.051l-165.874,0c-5.572,0 -10.096,-4.718 -10.096,-10.53l0,-250.215c0,-5.812 4.524,-10.53 10.096,-10.53l117.425,0l-1.636,0.021l-0.017,38.816c0,11.89 9.255,21.543 20.655,21.543l39.544,0.004l0,200.361c0,5.811 -4.523,10.529 -10.097,10.53Zm-182.248,-11.689l-8.964,-8.414l0,-256.664c0,-5.812 3.404,-9.41 8.977,-9.41l117.438,0l8.979,8.963l-116.334,0c-7.987,0 -10.096,2.543 -10.096,10.531l0,254.994Zm-24.649,-23.122l0,-256.521c0,-5.812 3.403,-9.41 8.976,-9.41l118.545,0l9.113,8.963l-117.575,0c-8.224,0 -10.096,2.306 -10.096,10.53c0,254.971 0,254.833 0,254.833l-8.963,-8.395Zm146.737,-58.426c-21.907,14.451 -51.707,10.931 -69.556,-9.312c-19.531,-22.151 -17.403,-55.991 4.748,-75.522c22.15,-19.53 55.99,-17.403 75.521,4.748c17.849,20.243 17.609,50.249 0.529,70.174l27.872,31.612c2.736,3.102 2.438,7.841 -0.664,10.577c-3.103,2.735 -7.842,2.437 -10.577,-0.665l-27.873,-31.612Zm-29.421,-84.18c21.79,0 39.48,17.691 39.48,39.481c0,21.79 -17.69,39.48 -39.48,39.48c-21.79,0 -39.481,-17.69 -39.481,-39.48c0,-21.79 17.691,-39.481 39.481,-39.481Z" style="fill:#fff;"/></svg>