<svg id="Ebene_1" xmlns="http://www.w3.org/2000/svg" width="35.28mm" height="35.28mm" viewBox="0 0 100 100"><defs><style>.cls-1,.cls-2{isolation:isolate;}.cls-3,.cls-2{fill:#fff;}.cls-4{fill:#cf0;}.cls-2{opacity:.1;}</style></defs><rect width="100" height="100"/><polygon class="cls-2" points="0 0 26.61 0 26.61 40.73 26.81 40.73 56.85 0 88.91 0 52.02 46.57 91.73 100 57.86 100 26.81 54.44 26.61 54.44 26.61 99.8 0 99.8 0 0"/><g class="cls-1"><g class="cls-1"><path class="cls-4" d="M22.19,57.42c-.06-.06-.09-.13-.09-.21v-16.9c0-.08.03-.15.09-.21.06-.06.13-.09.21-.09h3.55c.08,0,.15.03.21.09.06.06.09.13.09.21v6.5s.02.08.05.09.07,0,.1-.04l5.05-6.67c.1-.12.22-.17.35-.17h4.05c.17,0,.25.06.25.17,0,.05-.02.12-.08.2l-5.4,7.22c-.03.07-.04.12-.02.18l5.65,9.38c.03.1.05.16.05.17,0,.12-.08.17-.25.17h-3.97c-.18,0-.31-.07-.38-.2l-3.93-6.67c-.05-.1-.11-.1-.17,0l-1.3,1.78c-.03.07-.05.12-.05.15v4.65c0,.08-.03.15-.09.21-.06.06-.13.09-.21.09h-3.55c-.08,0-.15-.03-.21-.09Z"/><path class="cls-4" d="M37.96,57.42c-.06-.06-.09-.13-.09-.21v-16.9c0-.08.03-.15.09-.21.06-.06.13-.09.21-.09h3.55c.08,0,.15.03.21.09.06.06.09.13.09.21v16.9c0,.08-.03.15-.09.21-.06.06-.13.09-.21.09h-3.55c-.08,0-.15-.03-.21-.09Z"/><path class="cls-4" d="M48.5,57.26l-4.65-16.92-.03-.1c0-.15.09-.22.28-.22h3.8c.17,0,.27.08.33.25l2.17,9.1c.02.07.04.1.08.1s.06-.03.07-.1l1.95-9.07c.03-.18.14-.28.33-.28h3.47c.17,0,.28.08.33.25l2.17,9.1c.02.07.04.1.08.1s.06-.03.08-.1l2.03-9.07c.03-.18.14-.28.32-.28h3.7c.23,0,.33.11.28.33l-4.23,16.92c-.05.17-.17.25-.35.25h-3.58c-.18,0-.29-.09-.33-.28l-2.17-9.65c-.02-.07-.04-.1-.08-.1s-.06.03-.07.1l-1.95,9.65c-.03.18-.14.28-.33.28h-3.35c-.18,0-.3-.08-.35-.25Z"/><path class="cls-4" d="M67.14,57.42c-.06-.06-.09-.13-.09-.21v-16.9c0-.08.03-.15.09-.21.06-.06.13-.09.21-.09h3.55c.08,0,.15.03.21.09s.09.13.09.21v16.9c0,.08-.03.15-.09.21-.06.06-.13.09-.21.09h-3.55c-.08,0-.15-.03-.21-.09Z"/><path class="cls-4" d="M74.09,57.05c-.41-.41-.61-.93-.61-1.56s.2-1.17.61-1.57c.41-.4.93-.6,1.56-.6s1.15.2,1.55.6.6.92.6,1.57-.2,1.15-.61,1.56c-.41.41-.92.61-1.54.61s-1.15-.2-1.56-.61Z"/></g></g><path class="cls-3" d="M44.81,91.65l-.96-2.06v2.06h-1.25v-4.52h1.25v1.94l.98-1.94h1.51l-1.29,2.18,1.37,2.34h-1.61Z"/><path class="cls-3" d="M46.56,91.65v-4.52h1.25v4.52h-1.25Z"/><path class="cls-3" d="M53.15,91.65h-1.51l-.38-1.69c-.07-.33-.13-.72-.17-1.15h0c-.03.4-.09.75-.17,1.11l-.4,1.74h-1.41l-1.09-4.52h1.32l.42,1.85c.07.29.11.64.14.98h0c.04-.33.09-.64.17-.96l.48-1.87h1.25l.46,1.8c.07.26.14.62.18.99h0c.05-.39.11-.74.18-1.05l.38-1.74h1.25l-1.1,4.52h0Z"/><path class="cls-3" d="M54.42,91.65v-4.52h1.25v4.52h-1.25Z"/><rect class="cls-3" x="56.15" y="90.4" width="1.25" height="1.25"/></svg>
