<svg xmlns="http://www.w3.org/2000/svg" xml:space="preserve" id="Ebene_2_00000003082143268403364210000017331588248483125951_" x="0" y="0" style="enable-background:new 0 0 360 360" version="1.1" viewBox="0 0 360 360"><style>.st2{fill:#f2edd5}</style><g id="bg"><path d="M80 0h200c44.2 0 80 35.8 80 80v200c0 44.2-35.8 80-80 80H80c-44.2 0-80-35.8-80-80V80C0 35.8 35.8 0 80 0z" style="fill:#a13609"/><path d="M95 25h170c38.7 0 70 31.3 70 70v170c0 38.7-31.3 70-70 70H95c-38.7 0-70-31.3-70-70V95c0-38.7 31.3-70 70-70z" style="fill:#2d3f4b"/></g><path id="frame" d="M270 34c14.9 0 28.9 5.8 39.5 16.5S326 75.1 326 90v180c0 14.9-5.9 28.9-16.5 39.5S284.9 326 270 326H90c-14.9 0-28.9-5.9-39.5-16.5S34 284.9 34 270V90c0-14.9 5.8-28.9 16.5-39.5S75.1 34 90 34h180m0-14H90c-38.5 0-70 31.5-70 70v180c0 38.5 31.5 70 70 70h180c38.5 0 70-31.5 70-70V90c0-38.5-31.5-70-70-70z" class="st2"/><path d="M195.8 211.1c-2.2 0-4.5-.2-6.8-.5-12.3-1.8-23.3-8.3-30.7-18.2-2.5-3.3-1.8-8 1.5-10.5s8-1.8 10.5 1.5c5.1 6.8 12.5 11.2 20.9 12.4 8.4 1.2 16.7-.9 23.5-6 1.2-.9 2.4-1.9 3.4-3l23.5-23.5c5.9-6.1 9-14.1 8.9-22.5-.1-8.5-3.6-16.4-9.7-22.2a31.577 31.577 0 0 0-44 0L183.4 132c-2.9 2.9-7.7 2.9-10.6 0-2.9-2.9-2.9-7.7 0-10.6l13.5-13.4.1-.1c18.2-17.6 46.7-17.6 64.9 0 9 8.7 14 20.3 14.2 32.8s-4.4 24.3-13.1 33.3l-.1.1-23.5 23.5c-1.6 1.6-3.3 3-5.1 4.4-8.2 5.9-17.9 9.1-27.9 9.1z" class="st2"/><path d="M141.2 265.4c-11.7 0-23.3-4.4-32.4-13.2-18.5-17.9-19-47.5-1.1-66l.1-.1 23.5-23.5c1.6-1.6 3.3-3 5.1-4.4 20.6-15.4 49.9-11.2 65.4 9.4 2.5 3.3 1.8 8-1.5 10.5s-8 1.8-10.5-1.5c-5.1-6.8-12.5-11.2-20.9-12.4-8.4-1.2-16.7.9-23.5 6-1.2.9-2.4 1.9-3.4 3l-23.5 23.5c-12.1 12.6-11.7 32.6.8 44.8 12.3 11.9 31.6 11.9 44 0l13.4-13.4c2.9-2.9 7.7-2.9 10.6 0 2.9 2.9 2.9 7.7 0 10.6l-13.4 13.4-.1.1c-9.2 8.9-20.9 13.2-32.6 13.2z" class="st2"/></svg>