<svg xmlns="http://www.w3.org/2000/svg" viewBox="0 0 100 100"><linearGradient id="a" gradientUnits="userSpaceOnUse" x1="79.748" y1="106.384" x2="20.252" y2="-10.384" gradientTransform="translate(0 2)"><stop offset="0" stop-color="#30302f"/><stop offset="1" stop-color="#4d4d4d"/></linearGradient><path fill="url(#a)" d="M95 100H5c-2.76 0-5-2.24-5-5V5c0-2.76 2.24-5 5-5h90c2.76 0 5 2.24 5 5v90c0 2.76-2.24 5-5 5z"/><path fill-rule="evenodd" clip-rule="evenodd" fill="#FFF" d="M36.67 30.01c-.24-2.18-1.35-3.87-4.04-4.01-2.45-.13-4.86 1.92-4.57 4.12.32 2.44 1.57 4.41 4.3 4.68 2.22.22 4.27-2.03 4.31-4.79zM55.9 23.54c-2.57-.71-5.1 2.99-2.51 4.59 1.6.98 6.8 2.86 9.94 4.69 7.33 4.28 11.15 8.33 12.65 14.78 2.83 12.19-.25 32.3-16.68 32.15-4.77-.04-10.54-2.03-12.74-6.61-2.75-5.74 1.21-14.77 7.59-16.03 7.67-1.52 11.18 4.31 4.42 8.06-12.42 6.9 6.76 5.65 9.58-.4 3.64-7.8-3.83-14.82-12.79-14.38-7.05.35-13.35 4.94-15.77 11.44-5.79 15.61 9.16 28.23 23.92 25.94 16.28-2.52 22.03-20.28 20.85-34.8C83.07 37.3 71.83 27.94 55.9 23.54z"/><path fill-rule="evenodd" clip-rule="evenodd" fill="#FFF" d="M43.71 26.48c-1.4-1.34-.84-3.51-.84-5.22 0-.81.34-3.55-.52-3.63-.77-.07-1.55-.09-2.32-.05-3.53.16-7.27 1.36-10.32 3.11-6.72 3.86-11.86 11.38-12.22 19.22 3.91 0 26.5.59 28.34.9 1.84.32 3.36 4.45-2.69 4.42-6.74-.03-20.26-.62-26.99-.94-2.94-.14-3.71-1.04-3.4-4 .08-.74.17-1.47.26-2.2 1.96-15.98 15.36-26.16 31.4-25.46 2.29.1 3.37.83 3.29 3.2-.08 2.3-.04.43-.02 6.88.03 5.38-3.97 3.77-3.97 3.77z"/></svg>