<svg xmlns="http://www.w3.org/2000/svg" viewBox="0 0 100 100"><style><![CDATA[.S{fill:#3d79b9}.T{fill:#de5123}.U{fill:#3d8ec3}.V{fill:#5380b0}.W{fill:#e3761b}.X{fill:#aac970}.Y{fill:#9f9886}.Z{fill:#b8c49b}.a{fill:#aa6d5c}.b{fill:#d4d280}.c{fill:#d34626}.d{fill:#2b80c0}.e{fill:#9ac456}.f{fill:#aa633d}.g{fill:#3562ac}.h{fill:#965a48}.i{fill:#b5c587}]]></style><defs><linearGradient id="A" x1="79.7" x2="20.4" y1="108.1" y2="-8.2" gradientUnits="userSpaceOnUse"><stop offset="0" stop-color="#1f1f1e"/><stop offset="1" stop-color="#403f3f"/></linearGradient></defs><path fill="url(#A)" d="M0 5.7A5.8 5.8 0 015.7 0h88.6a5.8 5.8 0 015.7 5.7v88.6a5.8 5.8 0 01-5.7 5.7H5.7A6 6 0 010 94.2z"/><path fill="#ab1b35" d="M29.2 21.2a26.2 26.2 0 018.9-3.7 30.1 30.1 0 018.2-.7 6.4 6.4 0 011 .1 2 2 0 011.8 2c0 2.8.2 5.5-.1 8.2a2.4 2.4 0 01-3.1 2.3 1.3 1.3 0 01-.9-.7 4 4 0 01-.4-2.2l.2-3.4v-.3c0-1.4-.2-1.6-1.6-1.6a20.8 20.8 0 00-10 2.7l-.4.2-.5-.2a23.1 23.1 0 00-3-2.4c0-.1-.2-.2-.1-.3z"/><path d="M22.6 36.7a27.4 27.4 0 00-.7 4c-.1.7-.1.7.6.7 1.9 0 3.7 0 5.6.2l.3.1a.3.3 0 01.2.4.3.3 0 01-.3.2c-.1 0 0 0 0 0-.1 1 .6.7 1 .9a.4.4 0 01.2 0 1 1 0 010 .7c.1.3-.3.7.3 1h1l.3-.1c.1-.6.6-1.2.3-1.9a2 2 0 010-.6c0-.3-.2-.5 0-.7l8.5.3h1.8c.8.3 1.1 1 1.7 1.6.3.2.4.7.5 1a1 1 0 00.4.7.9.9 0 01.4 1L36 46l-16-.7a3.5 3.5 0 01-1.6-.4 1.4 1.4 0 01-.8-1c.3-.2.6 0 .9 0 .7 0 1 0 1-.8.3-1.6.8-3.1 1.2-4.7 0-.5.5-.8.5-1.3 0-.1 0 0 0 0 .3-.4.6-.2.9-.3.1 0 .2-.3.4-.1z" class="W"/><path fill="#4d9f6e" d="M60.5 84.9a20.7 20.7 0 01-11.8-3.4 24.5 24.5 0 01-.3-5.9 2 2 0 010-.7.5.5 0 01.5-.3.8.8 0 01.3 0h0a2.4 2.4 0 01-.2-.7 3.2 3.2 0 00.7-.2 14.5 14.5 0 005.4 3 .4.4 0 000 .1c.3.6 1 .6 1.5 1l.6.3a.5.5 0 01.2 0 1.3 1.3 0 00.7 1 .6.6 0 01.1.2c.1.3.3.6.1 1h.1c.6 0 .3.6.6.8a2.3 2.3 0 01.2.8.8.8 0 00.3.5c.4.3.8.7.7 1.4 0 .2.1.2.3.3a3.4 3.4 0 01.4 0c.2 0 .6 0 .2.4l-.1.3a.8.8 0 01-.4 0z"/><path d="M79.1 42.3a9.4 9.4 0 00.7 1.6 22.6 22.6 0 011.5 4c-.2.2-.3 0-.3-.1-.1-.1-.1-.3-.3-.3-.4.2-.6 0-.8-.3 0-.3-.4-.2-.6-.4 0-.1-.2-.4-.1-.5.3-.5 0-.5-.3-.7a.8.8 0 01-.6-.5 1.1 1.1 0 00-.8-.9c-.6-.2-.7-.4-.3-1h.1a.6.6 0 01-.7-.1c-.1 0 0 .1 0 .2a2.4 2.4 0 010 1.2c-.1.3 0 .5.3.7a.4.4 0 01.1.4c0 .2-.2.1-.4.2-.4 0-.7 0-.9-.5a.7.7 0 00-1-.3 11.1 11.1 0 01-1 .6A17.5 17.5 0 0070 40l-1.8-1.7a5 5 0 012.4-1.2L72 37c.4 0 .4-.4.5-.6a.4.4 0 01.2-.2c.4 0 .7-.3 1-.4a1.1 1.1 0 01.2 0 15.6 15.6 0 012.4 2.6 24.3 24.3 0 012.5 3.6l.3.4z" class="a"/><path d="M72.8 36.2l-.3.1c-.1.2-.1.5-.3.7a2.7 2.7 0 01-1.1.2c-1.2 0-2 .7-3 1a44.7 44.7 0 00-7.6-4.6c.4-.5.4-1 .7-1.6l.4-.5 1.6-1.7a.5.5 0 01.7-.1c.1.1 0 .3.2.5.3.5.3.5.8 0a.8.8 0 01.7-.1 30.3 30.3 0 016.5 4 .9.9 0 00-.2 1.1c0 .3.7.4 1.1.2.1 0 .3-.2.4 0a1 1 0 01.5.3h-.2c-.4.2-.6.5-1 .5z" fill="#c15923"/><path d="M50.4 59.6a16.9 16.9 0 00-2 2.9c-.4-.3-.7.3-1 .3a1.2 1.2 0 01-.6 0 1.3 1.3 0 01-.6-.7 1 1 0 00-1.6-.5l-.1.1c0 .5-.3.4-.6.5a1.4 1.4 0 01-1-.3 1.9 1.9 0 00-.6-.3c-.2-.1-.5-.2-.5-.5a13.6 13.6 0 012.8-4.7 14.4 14.4 0 014.6-3.6c.4 0 .6.3 1 .3v.3a1.2 1.2 0 000 .3c0 .8 0 .9.8.8a.5.5 0 01.3.1l-.1.4a.1.1 0 000 .2 2.7 2.7 0 010 1.2c0 .4-.5.5-.8.7-.7.3-.7.4-.5 1v.1a1.7 1.7 0 00.5 1.4z" class="b"/><path d="M79.4 71.5c0 .5-.4.8-.5 1.2L77 75.8a18 18 0 01-2.2 2.8s-.2 0-.2-.2c-.2-.5-.7-.8-1-1.2a1.3 1.3 0 01-.2-.1.4.4 0 00-.3-.1.4.4 0 01-.3-.4c0-.2-.1 0-.2 0a2 2 0 01-1.1-.7c0-.5.2-.7.8-.4.2 0 .4.4.7 0 0-.2.4 0 .6.2l.1.2c.4-.6.3-.8 0-.7a2.5 2.5 0 01-1.2 0l-.3-.2c0-.2.2-.2.3-.3h.2l-.2-.2a1.4 1.4 0 01-1.4-.7c-.1-.5-.7-.4-1-.7a20.4 20.4 0 003.1-5 .2.2 0 01.4 0 10.6 10.6 0 002.4.9 1.2 1.2 0 01.6.3 6 6 0 002 1.5l.7.3a.4.4 0 010 .4z" class="g"/><path d="M29.2 21.2a22 22 0 013.6 2.9 28 28 0 00-4.6 3.5.1.1 0 01-.2-.1c0-.7-.6-.5-1-.6h-.2c0 .2 0 .3.2.3a.5.5 0 00.1 0c.2 0 .5-.2.7 0a.7.7 0 01-.2 1l-.2.3-.2.2-.5.6c-.4-.2-.8-.3-.6-1 0 0 0-.2-.2-.1a1.1 1.1 0 01-1-.4s0-.3-.1 0a4 4 0 01-.7 2 1 1 0 00-.1.5.5.5 0 01-.3.5 1.1 1.1 0 00-.7.8c0 .2-.1.5-.4.4a.5.5 0 01-.4-.5 2.3 2.3 0 00-.1-.6c-.1-.2-.3-.1-.5-.2l.4.1a.2.2 0 010 .1 1 1 0 00-.2 1.3 1.2 1.2 0 01-1.2 1.7c-.5 0-1 .2-1.4 0a23 23 0 013.5-6.7 17 17 0 012.4-2.7.4.4 0 00.2-.2 9.1 9.1 0 011.4-1.3 1.3 1.3 0 00.2-.2 13.5 13.5 0 012.3-1.6z" class="c"/><path d="M31.4 32.5a3.6 3.6 0 012.5-3.4 3.7 3.7 0 015 2.2c.7 2.3-.6 4.9-2.7 5.4a3.6 3.6 0 01-3.7-1.3 5 5 0 01-1.1-3z" class="W"/><path d="M22 30.9c.4 0 .4.4.3.5 0 .3 0 .5.3.6.2 0 .2-.3.3-.4 0-.5.3-.9.8-1l.1-.1c0-.6.4-.9.5-1.3a5.4 5.4 0 00.4-1.6v-.3c.2 0 .2.1.2.2a.8.8 0 001 .5c.4 0 .4.3.3.5 0 .3 0 .5.3.4.3 0 0 .3.2.4a24.5 24.5 0 00-4 7.4c-.5 0-.8.4-1.2.3v.1c0 .6-.5 1-.6 1.5l-1.2 5a.9.9 0 01-1 .5l-1-.1v-.2a7 7 0 010-2.8 29 29 0 011.4-7 2.6 2.6 0 01.1-.2 8 8 0 011.8 0 .4.4 0 00.4-.3c.2-.4 0-.8.3-1.1a.1.1 0 000-.1c-.5-.3 0-.6-.2-1-.1-.3.4-.2.5-.4z" class="T"/><path d="M71.5 76l1.2.6a.2.2 0 01.2 0c0 .1.1.3.3.3a.3.3 0 01.2.1c.2.2.2.5 0 .5-.4 0-.2.2-.1.4a.9.9 0 01.2.7c-.1.4.4.4.4.7a.2.2 0 010 .2 18.2 18.2 0 01-9 4.8c-.6 0-.4-.7-.8-.9a.4.4 0 01.4-.1 1 1 0 00.9-.3c.3-.3.2-.2 0-.3-.3-.2 0-.4 0-.6 0-.1.3-.2 0-.3 0 0-.2 0-.1-.2s.1-.1.2-.1a1.8 1.8 0 011 .2l.4.3v-.2a.4.4 0 01-.4 0c-.5-.3-.5-.6-.3-1a6.7 6.7 0 00.4-.8c0-.3.3-.2.5 0a.3.3 0 00.3 0L67 80a1.4 1.4 0 01.3-.9c.1-.1.3-.2 0-.3s0-.4 0-.5c.2-.2-.1 0 0-.1-.4-.2-.3-.5-.2-.8s0-.5.4-.4a1.6 1.6 0 00.7 0 .5.5 0 00.2 0 .4.4 0 01-.2 0c-.1 0 0-.3-.2-.1-.3 0-.4-.3-.2-.5.5-.3.1-.6 0-.7-.3-.3-.2-.4 0-.6l1.4-1.2c.2 0 .2.1.2.2a2.4 2.4 0 001.5 1.5 1.3 1.3 0 01.5.4z" class="d"/><path d="M46.7 62.7h.7a2.2 2.2 0 01.7.6l-.8 3a.3.3 0 01-.4 0c0 .3 0 .5-.3.4-.1 0-.1-.2-.3-.1h.2c0 .2 0 .3-.2.3a9.3 9.3 0 01-1.8.2c-.2 0-.2 0-.1.2.1.4 0 .5-.4.6-.3 0-.5.1-.5.5 0 .2-.2.2-.3.3a.5.5 0 00-.2.5.5.5 0 01-.2.5.1.1 0 01-.1 0 1.7 1.7 0 01.8 1.2c0 .4-.1.7-.5.7a4.4 4.4 0 00-1.8 0 13.9 13.9 0 01-.6-5.4 12.9 12.9 0 01.7-3.6c.5-.5.5-.4 1.1 0a14.7 14.7 0 001.8.6l.3-.1a.4.4 0 01.6 0c0 .1.1.3.2.2v-.2c0-.2 0-.4.3-.5a1.5 1.5 0 011.1.1z" class="X"/><path d="M61.6 31.6l-.8 1.8c0 .2-.1.2-.3.2L54.7 31c-1.3-.6-1.7-1.5-1.3-2.6a2.7 2.7 0 013-1.8 14.8 14.8 0 012.3.7v.3c.4 0 .4.6.8.8l.2.2c.2.3.1.9.8.7.2 0 .1.2.1.4a1.4 1.4 0 00.4.8.6.6 0 01.2.7c0 .2 0 .2.2.2a.3.3 0 01.2.2z" class="W"/><path d="M82.2 59.3a5.8 5.8 0 01-.1 1.6c0 .6-.5.5-.9.5a7.7 7.7 0 01-.7 0H80c-.2.5-.3.3-.5 0a.4.4 0 00-.2-.1c-.2 0-.2 0-.1.1v.6c0 .3 0 .5-.4.4-.2 0-.5.1-.6.3a.6.6 0 01-.7.1l-.1-.2c-.2 0-.5 0-.6-.3-.1-.2-.4 0-.5 0-.3.1-.5.2-.8 0-.2-.1-.5.2-.7 0l.6-4.5a.8.8 0 01.6-.1c.6 0 .6 0 .6-.7 0-.3 0-.5-.3-.7-.3-.2.1-.3.2-.4a3.6 3.6 0 01.7-.4.6.6 0 01.2 0 2.1 2.1 0 001.6.6 1 1 0 011.1.6.5.5 0 00.4.2c.2 0 .3.1.3.4 0 0 0 .2.2.2.3 0 .5.2.7.4a1.3 1.3 0 01.4 1.4z" class="U"/><path fill="#6eb4cb" d="M57.3 68.4a3 3 0 01-1.4-.2c-.8-.3-1-.7-.5-1.3a7 7 0 012.1-1.8c.9-.6 1.9-1 2.7-1.7a5.4 5.4 0 001.7-2 2.9 2.9 0 00-1.2-3.8l-.5-.2c0-.4.3-.5.6-.7a1.2 1.2 0 01.2 0 1 1 0 00.5-.2 11 11 0 011.9-.9c.3-.1.6-.3 1 0a6.9 6.9 0 01-.3 2.1 1 1 0 000 .8 1.5 1.5 0 01.2 1.3 2.5 2.5 0 00-.1 1 6.6 6.6 0 000 1.3c0 .3-.2.5-.5.5 0 0 0-.1-.1 0-.4.3-.6.8-1.2 1-.2 0-.2.2-.3.4a.8.8 0 01-1 .5s-.3-.1-.4.1a.4.4 0 01-.6.3.2.2 0 00-.3.1 1.6 1.6 0 01-1.4 1.1c.3.3.5.5 0 .7-.3.1-.3.5-.4.7 0 .4.1.7-.2 1h-.2a1.8 1.8 0 01-.3 0z"/><path d="M81.3 48.1a20.9 20.9 0 01.9 5.4 3 3 0 01-1.6 1.2c-.3 0-.5.5-1 .4h-.4a6.9 6.9 0 00-1.1 0 1.6 1.6 0 01-.2.1.6.6 0 00-.3.1.5.5 0 01-.2.1c-.3 0-.6.3-.3-.3.2-.5.1-.6-.5-.6s-.7-.2-.6-.8l-.3-.6V53c0 .2 0 .3-.3.3a17.5 17.5 0 01-.2-2.2c.2-.2.4-.1.7-.1.6 0 .7-.2.4-.8a1.5 1.5 0 00-.1-.3c-.1-.1-.3-.3-.2-.5a.5.5 0 01.6 0c.3 0 .5.4 1 .4 0 .4.3.3.5.3.3 0 .5-.1.4-.4a6.7 6.7 0 000-1 .6.6 0 01.3-.8c.3-.1.5.1.6.4a4 4 0 01.3.6v.2a.1.1 0 01.1-.1c.3 0 .5-.4.9-.4.2.3 0 .7.2 1 .1-.1 0 0 0 0a1.3 1.3 0 01.4-1.5z" class="a"/><path fill="#bc9466" d="M52.5 51.5a14.2 14.2 0 017-.4v.5c-.2.4-.6.7-.5 1.2l-.3.2c-.1 0-.3 0-.3.2a.3.3 0 00.3.2 1.3 1.3 0 011 .8 2.1 2.1 0 01.1 1.6c0 .4-.5.2-.8.2a1.8 1.8 0 00-2.2-.4c-.6.3-1.2-.2-1.7-.4l-.9-.4a1.8 1.8 0 00-.7-.7.5.5 0 01-.4-.4 3.8 3.8 0 00-.3-1.1c0-.4-.4-.7-.3-1.1z"/><path d="M59.6 77.4a18.2 18.2 0 004.9-.7c.3.4.2.7-.2 1-.2 0-.2.2 0 .3.5.1.5.4.3.8v.4c-.1.4.2.2.3.2.1 0 .3 0 .3.2s-.2.2-.3.2c-.4 0 0 .1 0 .2a2.5 2.5 0 000 1.3c0 .3-.2.4-.4.5-.4.2-.4.5-.3.8 0 .5 0 .8-.6.8-.4 0-.7 0-1 .4a.4.4 0 01-.5.1c-.3-.4 0-.9-.2-1.3-.3-.8-.3-.8-1-.8-.4 0-.7-.3-1.1-.3a4.1 4.1 0 00-.4-1.2c-.2-.6.1-.8.5-1 .2-.1.4-.1.3-.4a.3.3 0 00-.4-.2c-.2 0-.5 0-.5-.2a.6.6 0 01.4-.6.6.6 0 01.1 0 .5.5 0 00-.1 0 .5.5 0 01-.2 0l-.3-.1a.2.2 0 01.2-.2c.2 0 .2 0 .2-.2z" class="d"/><path d="M45 78.4a13.3 13.3 0 01-2.6-3.7.3.3 0 01.3-.2.4.4 0 00.4-.1 7.5 7.5 0 011.5-1.5c.1-.1 0-1.1-.3-1.4-.1 0-.3-.2-.3-.4 0-.3 0-.6-.4-.8l-.1-.2a.4.4 0 01.2-.4v-.1c-.1-.2 0-.3.1-.4a2.3 2.3 0 00.5-1 .2.2 0 010-.2c.4 0 .5.2.6.3 0 .1 0 .4.2.3a.3.3 0 00.3-.4c-.1-.5.3-.6.5-.5.4.2 1 .2 1.3.4l.2 1.2a3.5 3.5 0 00-.7.4 1 1 0 01-.3.2c-.3.2-.5.3-.6 0v-.2a1.6 1.6 0 01-1-.3l-.1.3a11.7 11.7 0 00.5 1.7.4.4 0 00.2.3 5.8 5.8 0 011.4.9A3 3 0 0147 74c0 .4.4.4.6.5.2 0 .5 0 .5.3a.5.5 0 01-.3.4 7.2 7.2 0 00-2 2.3c-.2.3-.2.8-.8.8z" class="X"/><path d="M59 55.9h.5c.1 0 .3 0 .3-.2-.2-.4 0-1-.2-1.4-.2-.3-.5-.8-1-.7-.4 0-.3-.2-.4-.5 0-.3.2-.1.3-.2.3 0 .6-.1.3-.5V52c.5-.1.5-.6.7-1a11.8 11.8 0 015.3 2.4 3.8 3.8 0 01-.4 2 6.9 6.9 0 00-2.6 1 .9.9 0 01-.4 0l-.3.3h-.8a.5.5 0 01-.2 0c-.2-.2.1-.3 0-.4l-.4.2c-.4 0-.6-.3-.8-.6 0 0 0-.2.1-.1z" class="Y"/><path d="M77.5 62.7c.2-.1.6.3.6-.3 0-.1.4.2.5 0 0-.2.3-.5.4 0 0 0 .3-.1.2-.2-.2-.2.2-.7-.2-.9-.2 0 0-.1 0-.1.4 0 .7-.3.8.3 0 0 0 .2.1.1v-.2c0-.2.2-.3.4-.2a1.2 1.2 0 00.4 0c.5 0 1 .2 1.4-.3a25.3 25.3 0 01-.7 4.7 13.3 13.3 0 01-.8 2.5c-.4.3-.9.2-1.3.2-.3 0-.5-.2-.6-.4-.1-.3.2-.2.3-.3h.2a.5.5 0 00-.1 0c-.3 0-.5 0-.6-.2s.2-.4.4-.5a5.6 5.6 0 001-.7.7.7 0 00-.1-.2 5.3 5.3 0 00-1.2-.8 11 11 0 00-2.3-1.2 1 1 0 01-.7-.7.4.4 0 00-.2-.3c-.3 0-.4-.3-.5-.6v-.1c.4 0 .7-.5 1 0 0 .2.2 0 .4-.1.4-.2.5-.2.7.2.1.2.3 0 .4 0 .2.1.4.1.1.3z" class="S"/><path d="M62 83.9c.3 0 .6 0 .6-.4 0-.3.5-.2.8-.3.7 0 .8 0 .6-.7a.6.6 0 01.4-.8c.2 0 .3-.2.2-.5a2 2 0 010-1c0-.1.1-.4-.2-.3a.1.1 0 01-.2-.1l.2-.1h.7c-.2-.2-.5-.1-.7-.2h-.2l.1-.2c.3-.2.4-.3 0-.4 0 0-.2 0-.2-.2h.2c.2 0 0-.1.1-.2.3-.5 0-.4-.3-.5 0-.1-.3-.3 0-.4a.6.6 0 00.4-.9h.2a2.4 2.4 0 00.2-.1 21.1 21.1 0 003-1.6c-.2.4.2.5.3.8 0 .3.2.4-.1.5-.2.2-.3.4.1.4.3.2.3-.1.4-.2 0 0 .1-.1.2 0a.2.2 0 010 .2c-.4.2-.7.6-1.1.3h-.3c0 .3-.3.6-.1.9h.3c0-.2.1-.1.2 0v.2c0 .1 0 0-.1 0-.4 0-.4.1 0 .2l-.1.2-.3.1h.6c0 .2-.2.1-.2.2 0 .4-.4.5-.4.9v.3h.3c-.1 0-.3.2-.5 0-.3 0-.5-.3-.4.3l-.1.2c-.5.5-.5.7 0 1.2a2.4 2.4 0 01-.7 0 3 3 0 00-.5 0h.3c.2.2 0 .2 0 .3l-.2.4c0 .1-.3.2 0 .2a.3.3 0 01.4.4c0 .3-.2 0-.3 0l-.2.1c-.1.6-.5.3-.8.3h-.3c0 .2.1.1.2.2l.1.2c-.3.3.1.4.2.5a10.7 10.7 0 01-2.8.5c-.3-.3-.3-.7 0-1zM74.5 64.3l.4-2c.3.5.8.7 1 1.3.2.4.8.4 1.3.6.9.4 1.6 1 2.5 1.5a.4.4 0 01.2.4c.2 0 .2.2.1.2-.5.2-.7.6-1.1.7-.2 0-.3.2-.3.3s.2.3.4.3a.8.8 0 01.6 0c-.1.2-.4.1-.6.1 0 0-.3 0-.2.2.2 0 .3.5.6.3a6.7 6.7 0 011.2-.1 13 13 0 01-.9 2.6h-.2c.2.3.1.3-.3.5-.2 0-.4 0-.5-.3-.2-.2 0-.4 0-.6a.9.9 0 01-.6 0 1.1 1.1 0 01-.5-1.3 1 1 0 00-.5-.2s-.2 0-.2-.2c0-.1 0-.2.2-.2.1 0 .4-.1.3-.4 0-.2-.2-.2-.3-.3-.2-.1-.3 0-.5.1-.3.4-.5.4-.7 0a.8.8 0 00-.7-.5c-.2 0-.4 0-.4-.2s0-.3.2-.4c.3-.1.1-.1 0-.2a3.6 3.6 0 00-.6-.3c-.1 0-.2 0-.2-.2a.2.2 0 01.2-.2c.3 0 .5 0 .5-.4h.1a.2.2 0 01.1-.2.6.6 0 01-.8-.2 1.2 1.2 0 01.2-.6z" class="U"/><path d="M59 55.9c-.1.3.4.1.3.5.2 0 .5.1.7-.1.2-.2.3-.2.4 0 .2.2 0 .2-.1.3a.6.6 0 01-.2 0 1.7 1.7 0 00.2.1l.5.1a2.4 2.4 0 00-.6.6 9 9 0 00-7.7.5 11.4 11.4 0 00-2.1 1.7 1 1 0 01-.7-1 1 1 0 000-.6.7.7 0 01.5-1c.4 0 .6-.5 1-.5a.2.2 0 000-.2 1 1 0 010-.9c0-.1-.1-.2-.3-.2a.2.2 0 010-.2c.3 0 .3-.2.4-.4 0-.3.3-.2.6-.2a.6.6 0 01.4.5c0 .5.3.6.7.4l.4-.2c.4.2.6-.1.8-.4.6 0 1 .4 1.5.6a1.5 1.5 0 001.6 0 1 1 0 011.3.3 2.4 2.4 0 00.4.3z" class="Z"/><path d="M64.4 55.6a14.3 14.3 0 01.4-2.1 8.5 8.5 0 013.5 5.6c-.2 0-.4 0-.5.2a.6.6 0 01-.1.1 1.3 1.3 0 01-1 .3c.2.5-.3.4-.5.7l-.5.2a.6.6 0 00-.4.2.8.8 0 01-1.3 0 2.4 2.4 0 01.2-1.3.4.4 0 000-.4c-.6-1.2 0-2.4.2-3.5z" class="V"/><path d="M63.6 62.5c.2 0 .4-.2.5-.4.3.2.3.2.3.7l-.1.1c.1.1.2.2.1.3-.4.5-.2 1.1-.3 1.7-.1.4-.3.3-.6.3-.1 0-.5.1-.3-.3a.1.1 0 00-.1 0c-.2.5-.4.8-1 .6l-.2.5c0 .2.2 0 .2.1a1.7 1.7 0 001.7.1 1 1 0 011.2.2 13.5 13.5 0 01-4.3 1.7 11.2 11.2 0 01-2.6.3.8.8 0 01-.5 0c.3-.5.2-1 .5-1.4 0-.2 0-.6.4-.3l.1-.1c0-.2 0-.3-.3-.4h-.2a1.4 1.4 0 01.3-.1 1.6 1.6 0 001.3-1.1c0-.2.2-.5.5-.2.2.2.4 0 .4-.2.1-.3.4-.3.6-.3.6.2.8-.2.9-.6 0-.2.1-.3.4-.3a.4.4 0 00.2 0l.9-.9z" class="U"/><path d="M65 66.4a2 2 0 00-1.6 0 .8.8 0 01-1 0c-.6-.1-1-.2-.4-.8v-.2c-.1 0-.2-.2 0-.2h.2c.3.3.5.2.7-.3 0-.2.1-.4.4-.2l.1.1c0 .2-.4.1 0 .3.2 0 .5.1.5-.3a2 2 0 01.1-.6s.3 0 0-.1c-.6 0-.2-.3 0-.4 0-.3.5-.4.2-.8 0-.3.3-.6-.1-.8a3.4 3.4 0 01-.1-1.3c.5.3 1 .2 1.2-.3 0-.2.1 0 .2 0 .4 0 .8 0 .9-.5h.3c.1 0 .2-.1 0-.3h-.2c0-.2.2-.2.3-.2.4.1.7-.1 1-.2 0-.5.3-.3.6-.2a4.7 4.7 0 010 1.1v.7a.1.1 0 010 .1 7 7 0 01-.8 2.9.4.4 0 01-.2-.4c0-.2-.1-.2-.2-.1a.6.6 0 01-.2 0 .8.8 0 01-.4-.4.8.8 0 00-1-.4.5.5 0 00-.4.8c.2.4 0 .8.1 1.1a6.7 6.7 0 01.3 1.5 1.3 1.3 0 01-.6.4z" class="S"/><path d="M47.2 68a4 4 0 01-.8.1c-.2 0-.4-.4-.7-.3-.6.2.2.6-.2.7l-.5.4c-.2 0-.1-.3-.2-.5a.5.5 0 00-.5-.3 1.7 1.7 0 01-.4 1.3c-.4 0 .3.3-.2.5-.4.2 0 .4.3.5.3 0 .1.2.1.3 0 .3 0 .6.3.7.2.1.3.4.3.6a2.5 2.5 0 000 .4c0 .2.5.3 0 .5-.2.1-.2.5-.6.5l-.2.2a1.4 1.4 0 01-1.5 1 11.3 11.3 0 01-1.2-3 2 2 0 011.7-.2c.4.1.6 0 .4-.5a1.2 1.2 0 00-.5-.9c-.2 0-.2-.2-.2-.3.3-.3.3-.5 0-.6 0 0-.1-.1 0-.1.4 0 .3-.6.7-.6l.1-.1c-.2-.4.2-.5.4-.5.4-.1.7-.1.4-.6-.2-.2.2-.3.2-.3a1.4 1.4 0 001.3-.2h.4c.2.1.3.2.4-.1.4.1.4-.1.3-.4h.5v1a.2.2 0 000 .3v.6z" class="e"/><path d="M80.6 48.6c-.3.2-.5.5-.9.5l-.5-.8c-.1-.2-.2-.4-.4-.3-.1.1-.4.3-.2.6v1.1c0 .3 0 .7-.5.5a2 2 0 00-.4 0h-.2c0-.7-.8-.2-.8-.7H76s0 .3.2.4c.3.2.2.6.5.8a1.5 1.5 0 01-.9.4h-.7l-.6-2.7c.5-.2.8-.6 1.2-.9a1.3 1.3 0 011-.2c.4 0 .3-.2.1-.4 0-.2 0 0-.1 0a.4.4 0 01-.4-.2c0-.5.4-.4.7-.3a7 7 0 01.8.4 1.5 1.5 0 001.5 0c.4 0 .7 0 .8.5a.2.2 0 00.3.2c.7-.6.4.1.6.4a.1.1 0 01-.1 0 .1.1 0 010 .1.4.4 0 01-.1.2.3.3 0 000 .1.6.6 0 01-.1.2.3.3 0 01-.1.1z" class="h"/><path d="M62 83.9v.9h-1.1c0-.1-.2-.4.2-.5H61a3.8 3.8 0 0 0-.6 0c-.3 0-.5-.3-.4-.5s-.5-.5 0-.7c.1 0 0-.1 0-.1a2 2 0 0 1-1.1-1.9 4.4 4.4 0 0 0-.8-1.9c-.3-.3-.7-.5-.8-1-.4-.5-.4-.6 0-1l2.4.2c-.1.1.3.2 0 .3h-.3c0 .2.2.1.3.1h.4c0 .2-.2.2-.3.2-.3 0-.3.3-.4.5h.3l.5.1c.3.4.3.6-.2.7-.5.2-.6.6-.4 1.3.1.2.5.4.2.6l.1.2c.5 0 1 .5 1.5.1.1 0 .3 0 .3.2.1.6.6 1.2.4 1.9a1.2 1.2 0 0 0 0 .3z" class="g"/><path d="M45 78.4a2 2 0 00.8-.9 12.8 12.8 0 011.5-2c.2-.2.7-.2.8-.6a.4.4 0 01.2-.1.3.3 0 01.2.1v4a5 5 0 00.3 2 .6.6 0 010 .6 14.9 14.9 0 01-3.7-3z" class="e"/><path d="M79.4 46.8a1 1 0 01-1.5.2 4.4 4.4 0 00-1.2-.5c-.2 0-.3 0-.3.2a.2.2 0 01-.2 0H76a.3.3 0 01-.2 0v.1a1 1 0 01-1.5.4v-.3l-.5-1.3c.2-.6.8-.7 1.2-.9.3 0 .8.2 1 .7 0 .1.8.3.9.2 0-.2 0-.3-.2-.4a.8.8 0 01-.2-1c.1-.4-.2-.7-.1-1l.1-.4c.1 0 .2 0 .2.2.2.3.3 0 .5 0s.3-.1.4 0c.2.2-.1.2-.2.3-.2.1-.3.2-.3.5s.3.3.5.3a1 1 0 01.8 1c.1.5.8.3 1 .7 0 0 .2 0 0 .2s0 .5 0 .8z" class="f"/><path d="M75 65.4c0 .5-.3.5-.7.6l.2.1.4.2c.4.2.4.2 0 .6a.7.7 0 000 .2h.2c.5 0 .9.1.9.7l.2.1a.3.3 0 00.3-.2c.1-.2.2-.4.4-.3.3.2.7.2.8.6 0 .3-.2.4-.5.5H77c0 .2.2.1.2.1a.4.4 0 01.5.3s.4.1 0 .2c-.1 0 0 0 0 .2.2.5.3 1 1 1 .2-.1.3 0 .2 0a.7.7 0 00-.2.6 4.3 4.3 0 01-1.9-1.1 2.2 2.2 0 00-1.2-.8 8.6 8.6 0 01-2.4-1l1.1-3c.3 0 .5.2.8 0l.3.1c0 .2-.2 0-.3.2a.9.9 0 000 .2z" class="S"/><path d="M44.7 46.2c-.2-.4-.3-.8-.8-1l-.1-.4c-.2-.6-.3-1.3-1-1.7a.5.5 0 01-.3-.3.5.5 0 00-.5-.4c-.2 0-.2-.3-.3-.5 1.3 0 2.6 0 3.9.2.3.5 0 .9-.3 1.3 0 .1-.4.3 0 .4a.2.2 0 01.2.1c0 .6.6 1 .8 1.4 0 .3.2.5 0 .8a4.4 4.4 0 01-1.6.1z" class="c"/><path d="M61.6 31.6h-.2c-.2 0-.7.1-.4-.4.3-.5-.3-.7-.5-1 0-.2-.4-.2 0-.3 0 0 .1-.1 0-.1-.3 0 .3-.5-.1-.4a2 2 0 01-.5 0c-.1 0-.3 0-.2-.2a.5.5 0 00-.4-.7c-.2 0-.2-.3-.3-.4s0-.3-.2-.3l-.4-.1.3-.4c.2 0 .3 0 .5.2H59c.3.5.1-.2.2 0a4.2 4.2 0 011 .3 2.2 2.2 0 00.6.2 23.3 23.3 0 013.4 1.4c.2.2 0 .3-.2.4a.2.2 0 01-.1 0 .7.7 0 00-.7.2l-1.6 1.6z" class="T"/><path d="M46.7 72.6l-.4-.1a.7.7 0 00-.3-.3 2.1 2.1 0 01-1.3-2.2l-.2-.3c0-.1-.1-.3 0-.4a.3.3 0 01.4 0c.3.3.8.1 1.1.3.1.1.1.1 0 .2h-.2a.9.9 0 00.3 0c.2 0 .6 0 .6-.2.1-.5.5-.2.7-.3a9.5 9.5 0 001.2 3 1 1 0 01-.9.2 1.5 1.5 0 00-1 .1z" class="b"/><path d="M52 54.5c-.3 0-.5 0-.7.2-.5 0-1 .2-1.1 0a2 2 0 01-.1-1.3c0-.2 0-.3-.2-.2-.3 0-.4-.4-.7-.4a12 12 0 013.3-1.3c.1.4.4.7.4 1a1.9 1.9 0 01-1 2z" class="i"/><path d="M46.3 46.1a1.6 1.6 0 00-.7-1.4.7.7 0 01-.2-.6c0-.3 0-.3-.3-.2 0 0-.2.2-.2 0v-.2a1.5 1.5 0 01.4-.6c.4-.2.2-.6.3-1h1.1c.3 0 .3.4.4.5.3.2.1.7.7.7v.2a6.4 6.4 0 000 1c-.1.4-.3.6 0 1l-.3.3a2.3 2.3 0 01-1.2.3z" class="T"/><path d="M71.5 76a3.5 3.5 0 01-2-1.6c-.1-.2 0-.4-.2-.6l.8-.7c.6 0 1.2.2 1.4 1 0 .2.4.3.7.3h.3c.1.1.4 0 .4.2a.3.3 0 01-.4.3h-.2a.7.7 0 00.2.1c.4 0 .8.2 1.2 0 .4-.1.5.1.5.5 0 .2-.6.2-.2.5a1 1 0 01-.1 0c-.2 0-.3 0-.4-.2-.2-.3-.2-.3-.5 0a.4.4 0 01-.6 0c-.5-.5-.8-.4-.9.1z" class="S"/><path d="M65.5 66a6.2 6.2 0 01-.4-2v-.3c-.4-.3-.2-.5-.1-.9 0-.3.1-.3.3-.3a1.1 1.1 0 011.4.5.4.4 0 00.4.3c.1-.3.3-.3.3 0a1.5 1.5 0 00.1.5 4.7 4.7 0 01-2 2.2z" class="g"/><path d="M46.7 72.6c.4-.7 1-.1 1.5-.3a1 1 0 01.4 0l1 1.4a.6.6 0 00-.2.6s-.1.1 0 .2l.2.1-.3.1a1.4 1.4 0 01-.3 0c-.3-.3-.5.2-.7.2h-.2a5.3 5.3 0 00-.9-.3c-.2 0-.3-.2-.2-.4a1.5 1.5 0 00-.3-1.2v-.4z" class="Z"/><path d="M45.5 62.7a.4.4 0 010 .1c-.1.3.2.7-.1.9-.2 0-.3-.4-.4-.5a.2.2 0 00-.3 0c-.3.5-.7.2-1 0l-1-.3h-.3c-.2-.6-.6-.5-1-.3v-.4l.1-.1a2.8 2.8 0 01.3-1c.7.4 1.3 1 2.2 1 .2.4.5.4.8.4 0 .1.1.1.2 0a.5.5 0 01.5 0 .1.1 0 010 .2z" class="e"/><path d="M47.5 45.8c.2-.3-.2-.7 0-1 .3-.4 0-1 .2-1.3v-.1c-.5.3-.3-.2-.5-.4-.2-.3-.2-.6-.5-.8a1.9 1.9 0 012 1 1.7 1.7 0 01-1.2 2.6z" class="c"/><path d="M75.7 53c.1.1.1.4.3.5.3 0 .2.2.1.3a2.7 2.7 0 00-.1.4c.2-.1.3.3.6.1.3-.1.5.2.8.2.1 0 .1.1 0 .1-.4 0-.2.5-.3.7s.2 0 .3 0v.2a2.1 2.1 0 01-.8.4c-.3.2-.7.4-1.1.1l-.1-2.7c.2 0 .2-.3.3-.4z" class="Y"/><path d="M31.4 41.6v.7a1.7 1.7 0 01-1 0c-.4 0-.5 0-.5.3a.8.8 0 01-.5.7 1.7 1.7 0 01-1.2-.3c0-.1-.3-.3 0-.4v-.2a1 1 0 00-.2 0l-.2-.1c0-.1.1 0 .2 0 .2 0 .4 0 .5-.2s-.2-.3-.3-.3l-.1-.2h3.3z" class="T"/><path d="M75.5 56a5.7 5.7 0 001.1-.1c0 .1-.4.4.2.3a7.5 7.5 0 010 1.4c0 .3-.3.2-.5.2h-.8a3.8 3.8 0 000-.4V56z" class="S"/><path d="M74.3 47.2c.4 0 .8.3 1-.3h.1c.3 0 .3 0 .3-.2h.7a.7.7 0 00.5 0c.2.3.5.3.4.6s-.4.2-.6.1c-.3 0-.6 0-.7.2a.3.3 0 01-.3.2c-.2 0-.3 0-.3.2 0 .4-.5.3-.8.4l-.3-1.2z" class="a"/><path d="M74 79.3c-.1 0-.6.3-.3-.2-.7-.2-.2-.9-.5-1.1l-.1-.2c-.1 0-.4 0-.3-.3.2-.3.3 0 .4 0 .4 0 .2-.3.2-.4.5.3 1.1.5 1.2 1.3 0 0 .2 0 .2.2a4.8 4.8 0 01-1 1s.2-.2.1-.3z" class="S"/><path d="M73.4 35.3a1.6 1.6 0 01-1.2.4.5.5 0 01-.5-.4 4.5 4.5 0 010-.9c-.1-.3.2-.2.4-.2a7.2 7.2 0 011.3 1.1z" class="f"/><path d="M57.3 77.3c-.3.3-.2.6 0 .9-.7-.2-1.2-.7-1.8-.8-.3 0-.3-.4-.3-.6z" class="S"/><path d="M63.9 29.7h.1l.6-.1a4.9 4.9 0 011 .5 1.5 1.5 0 00-.8.5c-.1.2-.5.5-.6 0l-.2-.4c-.5 0 0-.3-.1-.5z" class="f"/><path d="M27.5 28.3c-.3-.3.2-.5.2-.7 0-.4-.1-.4-.3-.3a1 1 0 01-.7 0c-.1 0-.3-.2-.2-.4 0-.1.2-.3.4-.2.3.1.5.3.8 0 .1-.2.2 0 .3.1 0 .3 0 .6.2.8a3.4 3.4 0 01-.7.7z" class="T"/><path d="M48 63.3a1 1 0 01-.6-.6.5.5 0 00.1 0c.3-.3.5-.6 1-.2a2.8 2.8 0 01-.4.8z" class="Z"/><path d="M64.6 29.6c-.1.3-.4.1-.6.1 0 0 .2-.1.2-.3z" fill="#c15923"/><path d="M47.2 67.5l-.3-.1c0-.2.2-.1.4-.1v.2z" class="X"/><path d="M59.2 27.5v.3l-.3-.3h.3z" class="W"/><path d="M25.3 24.3a.2.2 0 01-.2.2zM27 22.8c0 .2-.2.2-.3.2z" class="T"/><path d="M17.6 43.8l.1.2v-.2z" class="W"/><path d="M41.5 62v.1z" class="i"/><path d="M55.2 76.8H55h.2zM77.4 55.4l.2-.2h.2l.2-.1 1.2-.1h.5c.6.5 1.3.2 2 .4.2 0 .4 0 .6.2a23 23 0 010 3.7c.1-.7-.5-1.1-.8-1.6-.2-.2-.5 0-.7-.1-.1 0-.3 0-.2-.2.6-.5-.1-.3-.3-.4 0 0-.2 0-.2-.2a.8.8 0 00-1-.5c-.9.2-1.2-.4-1.7-.8z" class="S"/><path d="M82.3 55.6l-2-.1a.6.6 0 01-.6-.5c.2 0 .4 0 .5-.3h.1c.9 0 1.2-.9 1.9-1.2a7.4 7.4 0 010 2z" class="V"/><path d="M80.7 48.5v-.2a.2.2 0 01.2-.2.2.2 0 000-.3h.2c0 .1 0 0 .2 0v.3c-.1.3-.1.6-.3.8a.4.4 0 000 .6l.3.1H81c-.2.1-.2 0-.2-.1l-.3-.9.1-.1z" class="Y"/><path d="M79.2 71.1c.2 0 .3 0 .3-.2s-.2 0-.3 0H79c0-.2.1-.2.2-.3a.5.5 0 01.5 0 1.7 1.7 0 01-.3.9l-.2-.4z" class="S"/><path d="M29.4 43.3c.3-.4.2-1 .5-1.2.3-.1.8.3 1.3 0l.3.2a3.6 3.6 0 00.1 1c.2.7-.3 1.2-.5 1.7v.1a2 2 0 00-1.3 0v-.2c-.3-.3-.2-.7-.4-1z" class="c"/><path d="M29.4 44c.4.2.3.6.4.9-.3.1-.4 0-.5-.3a2.2 2.2 0 01.1-.6z" class="T"/><path d="M58.1 79.2a2 2 0 01.8 2c-.4-.1-.2-.4-.3-.6-.5-.4-.3-1-.5-1.4zM57.3 78.2a8.5 8.5 0 01.8 1c-.5-.1-.8-.4-.8-1z" class="S"/><path d="M48.3 74.9l.4-.4h.3v.3l-.5.1h-.2z" class="X"/><path d="M72.8 36.2c.3 0 .5-.5.9-.4-.3.3-.5.5-1 .4zm-.6.8c0-.2 0-.5.3-.7a.6.6 0 0 1-.3.7z" class="f"/><path d="M45.5 62.7c0-.3-.2-.2-.2-.3h-.1c0 .2-.2.1-.3.2 0 .1 0 0-.1 0-.2-.3-.6-.2-.8-.4V62c.3 0 .3 0 .2-.3s.1-.2.2-.3a8.6 8.6 0 00.8-.2c.5-.2.7.5 1.2.5-.3.4.2.6.3 1zM51 55v.2c-.2 0-.2-.1 0-.2z" class="i"/><path d="M72.9 76.6h-.2c0-.2 0-.4.2-.3v.3zm.5.4a.2.2 0 0 1-.2 0c.2-.2.2-.1.2 0z" class="S"/><path d="M26.4 26c.3-.2.6-.7.6.2l.1.2a1.7 1.7 0 0 1-.5 0c-.2 0-.2-.2-.2-.4zm-4.7 4.6c.1 0 .3 0 .4.2 0 .1-.2.1-.2 0-.2 0-.6.2-.6 0-.1-.2.2-.1.4-.2zm6.5-5z" class="T"/><path d="M66.5 81.7h.3l.3.1c0 .2.2.1 0 .2H67c-.2 0-.4 0-.4-.3zm1.7-5z" class="U"/><path d="M46.5 66.6h-.2v-.1a.2.2 0 01.2 0zM42.6 69.7z" class="e"/><path d="M77.4 55.4v.1z" class="V"/><path d="M61 56.8c0-.2.2-.2.4-.2 0 .2-.2.2-.3.2z" class="Z"/><path d="M63.6 62.5h-.1z" class="U"/><path d="M80.7 50.5c-.2.7-.9 1.1-1.1 1.8a1.7 1.7 0 01-2 .7c-.2 0-.2-.2-.2-.4s0-.3.2-.4.2 0 .3.2c.1.3.4.1.6.1v-.3a.7.7 0 01.2-.7 2.3 2.3 0 00.7-1c.1-.5.4-.7.9-.4l.4.1a.2.2 0 010 .3z" class="h"/><path d="M79.2 55a2.7 2.7 0 01-1.2.1c.4-.2.8 0 1.2-.1z" class="V"/><path d="M80.7 50.5v-.3c.2 0 .4-.2.4 0s-.2.3-.4.3z" class="Y"/><path d="M77.8 55.1a.2.2 0 01-.2.1s0-.1.2 0z" class="V"/><path d="M75.7 53v-.1z" class="Y"/><path d="M79.7 49v.1z" class="h"/><path d="M52 54.5c-.2-.4.3-.3.4-.6l.5-1.3a1 1 0 01.3.6c0 .5.2.9.7 1 .3 0 .3.3.3.5-.1.4 0 1-.7.5l-.4.2c-.2 0-.3.4-.5.2s-.5-.3-.4-.7l-.2-.4z" class="b"/><path d="M80 68l-.2-.1c0-.2.2-.2.3-.2h.1c0 .2-.1.2-.2.2zm-2.5-5.3c0 .2 0 .4-.2.3H77c0-.3.3-.1.4-.2z" class="U"/><path d="M76 66.3c-.4 0-.1-.5-.4-.6v-.2c.2-.1.4 0 .5.1.3.1-.1.5.2.6H76zm3.7 2.5c-.2.1-.3 0-.3-.2-.1-.1.1-.2.2-.2s.4 0 .4.3c0 .2-.2 0-.3 0zM76 66.5s.3 0 .2.1l-.4.2-.1-.2c0-.2.2 0 .3-.1zm2.5 1.3a.6.6 0 0 1-.4.1v-.1a.3.3 0 0 1 .3-.2l.1.2z" class="S"/><path d="M75.4 66.2s0 .1-.2 0l-.2-.1a1.2 1.2 0 01.2-.1c.2 0 .2 0 .2.2z" class="d"/><path d="M75.9 67c.1 0 .2 0 .3.2H76s-.2.1-.2 0V67zm-.9-1.6zm-7.9-6z" class="S"/><path d="M64.2 62.8v.1l-.1.2.1-.3z" class="d"/><path d="M66.8 60.1l.4.1c0 .2-.3 0-.4.1h-.3c0-.3.2-.2.3-.2z" class="V"/><path d="M67.7 59.9v-.1z" class="U"/><path d="M67.8 59.3z" class="V"/><path d="M44.3 68z" class="X"/><path d="M80.8 48a.2.2 0 0 1 0 .3c-.2-.2-.1-.2 0-.2zm-.1.5h0zm.3-.7z" class="a"/><path d="M60.8 29.3h-.2l.5-.2h.1c0 .3-.3.1-.4.2zM59.5 28.2a.4.4 0 01-.1 0s-.1 0 0 0a.1.1 0 010-.1h.1z" class="W"/><path d="M51.3 54.2h.2a1 1 0 01-.2.1.5.5 0 01-.1 0z" class="Z"/><path d="M67 63.3h.1z" class="S"/><path d="M44 62.1c.3 0 .8 0 .8.5-.3 0-.8.2-.8-.5zm.9.5c.2 0 .1-.3.3-.3a1.8 1.8 0 0 1 .3.2c.2.1 0 0 0 .1zm.3-.3l.2-.1c0 .1-.1 0-.2 0z" class="b"/></svg>