<svg xmlns="http://www.w3.org/2000/svg" id="Ebene_1" data-name="Ebene 1" viewBox="0 0 300 300" width="180" height="180"><defs><style>.cls-2{fill:#fff}</style></defs><g id="logo"><path id="background" fill="#6e992e" d="M0 0h300v299.99H0z"/><g id="media"><path class="cls-2" d="M122 278.4v-14.56l-4.1 14.56h-1.12l-4.12-14.59v14.59h-1.38v-19.24h1.35l4.74 16.19 4.6-16.19h1.36v19.24zM157.57 278.4v-19.24h5.65v1.4h-4.38v7.21h3.89v1.44h-3.89V277h4.38v1.41zM197.27 278.4v-19.24h2.38a1.78 1.78 0 011.25.57 6.74 6.74 0 011 1.29 13.63 13.63 0 01.77 3.25 35 35 0 01.26 4.45v.49a23.17 23.17 0 01-.16 2.78 19.46 19.46 0 01-.38 2.18 13.34 13.34 0 01-.49 1.62 11.3 11.3 0 01-.46 1.07 3.28 3.28 0 01-.88 1.11 1.68 1.68 0 01-1.09.43zm1.27-17.84V277h.7a1.37 1.37 0 00.93-.61 4 4 0 00.64-1.24 10.3 10.3 0 00.38-1.45 11.82 11.82 0 00.19-1.26 1.11 1.11 0 010-.19 1.48 1.48 0 000-.22c0-.46.08-1 .13-1.73s.08-1.43.08-2.21v-1.42c0-.49-.07-.94-.12-1.38s-.11-.83-.16-1.18-.12-.62-.17-.8a3.87 3.87 0 00-1-2.33 1.81 1.81 0 00-.4-.32.84.84 0 00-.45-.12zM237 278.4v-19.24h1.28v19.24zM278.11 278.4l-1-6.38h-2.59l-.84 6.38h-1.38l2.81-19.24h1.49l2.92 19.24zm-3.33-7.88h2.15l-1.07-7.45z"/></g><g id="eikona"><path class="cls-2" d="M180.47 193.64h-3.22l-10.43 28.17.16-28.17h-2.61v54.6h2.61l-.16-19.75 3.43-8.42 7.4 28.17h3.23l-8.85-32.56 8.44-22.04zM114.19 245.58V221.6h11.85v-2.86h-11.85v-22.55h12.82v-2.44h-15.64v54.49h16.2l-.15-2.66h-13.23zM144.59 220.89l.1 27.35h2.82v-54.7h-2.92v27.35zM275.06 220.94l-4.51-27.29h-3.07l-4.13 27.29-4.15 27.36h2.98l5.92-43.63.77-5.61 7.3 49.24h3.33l-4.44-27.36zM242.89 235.02l-10.44-41.38-2.97.11v54.49h2.82v-43.48l10.98 43.48h2.26v-54.6h-2.65v41.38zM213.08 197l-.11-.41-.2-.46-.16-.4-.25-.47-.21-.35-.31-.31-.35-.36-.49-.24-.4-.2h-.26l-.26-.11h-.61l-.61-.05h-6.95l-.62.05h-.61l-.5.21-.47.2-.41.3-.41.26-.31.31-.3.4-.26.46-.2.46-.21.51-.09.46-.16.52-.15.55v.51l-.06.56v43.12l.06.51v.51l.15.51.05.51.15.46.21.46.21.51.24.46.26.41.36.31.31.35.41.26.46.2.56.2.62.06.55.05h6.09l.6-.05.57-.06.46-.15.25-.11.2-.09.47-.26.26-.16.2-.1.41-.4.4-.36.34-.55.36-.41.21-.46.25-.51.15-.56.11-.51.1-.57v-45.51zm-2.3 44l-.1.57-.05.52v.45l-.11.45-.2.83-.26.66-.1.26-.21.3-.15.05-.15.15-.31.11-.36.15-.36.1h-.2l-.3.11h-4.6l-.52-.11-.46-.1-.51-.15-.31-.21-.35-.2-.26-.26-.2-.25-.31-.76-.14-.37-.06-.4-.15-.46V242l-.06-.51v-40.76l.06-.46v-.55l.05-.46.1-.41.1-.46.1-.31.11-.41.2-.35.2-.26.21-.25.2-.21.2-.2.26-.16.26-.1.35-.06H208l.45.06.42.1.36.16.3.15.25.2.21.26.15.26.11.35.15.31.21.86.05.47v.46l.1 1.06z"/></g><path id="e" class="cls-2" d="M96.49 212.54L61.38 237.3l-17-11.94 21.28-14.14v-1.87l-5.66-3.9-22.63 14.68-4.41-3L60 199.43l16.11 10.93-20.66 14.19v1.8l5.9 4.07 28.84-19.84v-2L67.4 193.56a16.08 16.08 0 00-7.4-2.19 15.54 15.54 0 00-8.64 2.54l-26.9 17.17s-4 2.38-4 6.51a7.06 7.06 0 002.9 6.24l29.42 21.7a15.7 15.7 0 008.33 2.31 13.42 13.42 0 008.16-2.84L97 224.62s3.23-1.84 2.9-7.24c-.17-2.98-3.41-4.84-3.41-4.84z"/></g></svg>