<?xml version="1.0" encoding="iso-8859-1"?>
<!-- Uploaded to: SVG Repo, www.svgrepo.com, Generator: SVG Repo Mixer Tools -->
<svg height="800px" width="800px" version="1.1" id="Layer_1" xmlns="http://www.w3.org/2000/svg" xmlns:xlink="http://www.w3.org/1999/xlink" 
	 viewBox="0 0 334.978 334.978" xml:space="preserve">
<g>
	<g>
		<path style="fill:#E0605C;" d="M311.68,269.531c-11.151-37.754-67.121-33.566-91.279-44.408
			c-24.157-10.842-20.386-47.219-23.449-53.548H138.02c-3.058,6.329,0.714,42.711-23.449,53.548
			c-24.157,10.842-80.133,6.655-91.279,44.408c-6.149,20.824-5.857,27.193-7.554,50.26c0,0,76.8,15.187,150.014,15.187
			S319.24,319.79,319.24,319.79C317.537,296.718,317.829,290.355,311.68,269.531z"/>
		<path style="fill:#606060;" d="M311.68,269.531c-11.151-37.754-67.121-33.566-91.279-44.408
			c-24.157-10.842-20.386-47.219-23.449-53.548h-31.206c0,0-0.719,51.024,23.438,61.866s80.133,6.655,91.279,44.408
			c5.857,19.83,5.868,26.552,7.324,47.073c19.234-2.816,31.442-5.126,31.442-5.126C317.537,296.718,317.829,290.355,311.68,269.531z
			"/>
		<path style="fill:#D15852;" d="M311.68,269.531c-10.955-37.102-65.205-33.696-90.003-43.858l0,0c0,0-3.254,5.947-8.723,14.141
			c26.316,5.104,59.241,10.033,67.509,38.029c5.857,19.83,5.868,26.552,7.324,47.073c19.234-2.816,31.442-5.126,31.442-5.126
			C317.537,296.718,317.829,290.355,311.68,269.531z"/>
		<path style="fill:#EAE5DC;" d="M221.683,225.668c-0.433-0.18-0.86-0.36-1.276-0.545c-24.157-10.842-20.386-47.219-23.449-53.548
			H138.02c-3.058,6.329,0.714,42.711-23.449,53.548c-0.416,0.185-0.843,0.371-1.276,0.545c0,0,7.29,13.332,18.408,27.608
			c12.804,16.44,30.003,34.134,35.786,34.134c5.778,0,22.977-17.688,35.786-34.134C214.387,239,221.683,225.668,221.683,225.668z"/>
		<path style="fill:#E0DBD3;" d="M221.683,225.668c-0.208-0.084-0.416-0.174-0.624-0.259c-0.011-0.006-0.017-0.006-0.028-0.011
			c-0.214-0.09-0.422-0.18-0.63-0.275c-4.345-1.95-7.779-4.727-10.516-8.004l0,0c-2.074,4.867-6.734,11.927-12.247,19.267
			c4.631,1.293,9.83,2.361,15.322,3.429C218.428,231.614,221.683,225.668,221.683,225.668L221.683,225.668z"/>
		<path style="fill:#DBB491;" d="M209.885,217.119c-12.5-14.951-10.421-40.356-12.927-45.549H138.02
			c-2.512,5.193-0.427,30.599-12.927,45.549c5.963,14.029,37.99,51.575,42.396,51.575
			C171.89,268.693,203.427,232.289,209.885,217.119z"/>
		<path style="fill:#CCA483;" d="M189.19,233.435c2.501,1.124,5.345,2.085,8.448,2.951c5.514-7.341,10.173-14.4,12.247-19.267l0,0
			c-10.584-12.658-10.713-32.813-12.028-41.845c-0.006-0.034-0.011-0.062-0.011-0.09c-0.022-0.157-0.045-0.309-0.067-0.455
			c-0.006-0.051-0.017-0.096-0.022-0.146c-0.022-0.135-0.045-0.264-0.067-0.388c-0.006-0.045-0.017-0.096-0.022-0.141
			c-0.028-0.141-0.051-0.275-0.079-0.41c-0.006-0.022-0.011-0.051-0.017-0.079c-0.034-0.157-0.067-0.304-0.101-0.45
			c-0.006-0.034-0.017-0.062-0.022-0.096c-0.028-0.107-0.051-0.214-0.079-0.315c-0.011-0.045-0.022-0.09-0.039-0.129
			c-0.022-0.084-0.051-0.169-0.073-0.247c-0.011-0.045-0.028-0.084-0.039-0.129c-0.028-0.079-0.056-0.157-0.084-0.23
			c-0.011-0.034-0.028-0.067-0.039-0.101c-0.039-0.101-0.084-0.202-0.129-0.292h-31.206
			C165.752,171.575,165.032,222.599,189.19,233.435z"/>
		<path style="fill:#E0DBD3;" d="M304.098,314.029c-0.006-0.337-0.422-34.241-12.725-49.984
			c-7.931-10.151-33.094-15.395-49.748-18.863l-1.371-0.287c-7.391-1.54-13.366-2.417-13.428-2.422l4.845-9.757
			c2.563,0.427,6.379,1.102,10.702,2.007l1.371,0.287c19.222,4.002,45.544,9.488,55.818,22.64
			c13.107,16.778,14.709,48.056,14.9,54.975L304.098,314.029z"/>
		<path style="fill:#EAE5DC;" d="M30.75,314.029c0.006-0.337,0.422-34.241,12.725-49.984c7.931-10.151,33.094-15.395,49.748-18.863
			l1.371-0.287c7.391-1.54,13.366-2.417,13.428-2.422l-4.845-9.757c-2.563,0.427-6.379,1.102-10.702,2.007l-1.371,0.287
			c-19.223,4.002-45.544,9.488-55.818,22.64c-13.107,16.778-14.709,48.056-14.9,54.975L30.75,314.029z"/>
		<path style="fill:#C69E7F;" d="M130.089,209.171c9.78,7.959,21.24,15.85,37.338,18.132c16.137-2.288,27.569-10.342,37.36-18.334
			c-8.144-14.973-5.626-32.83-7.83-37.4H138.02C135.805,176.144,138.273,194.192,130.089,209.171z"/>
		
			<ellipse transform="matrix(-0.177 0.9842 -0.9842 -0.177 410.8397 -74.4047)" style="fill:#CCA483;" cx="236.529" cy="134.57" rx="21.386" ry="11.629"/>
		
			<ellipse transform="matrix(-0.9842 0.177 -0.177 -0.9842 218.8098 249.6365)" style="fill:#DBB491;" cx="98.27" cy="134.578" rx="11.629" ry="21.386"/>
		<path style="fill:#DBB491;" d="M231.648,63.378l-64.221-30.16l-64.187,30.16c0,0-35.989,146.614,64.187,160.806
			C267.642,209.992,231.648,63.378,231.648,63.378z"/>
		<path style="fill:#CCA483;" d="M167.427,224.184c100.216-14.192,64.221-160.806,64.221-160.806h-15.024
			c4.114,61.242,9.808,93.774-13.815,129.24C184.092,220.722,167.427,224.184,167.427,224.184z"/>
		<path style="fill:#CCA483;" d="M109.49,95.848c2.743,1.31,4.749,1.546,4.749,1.546s35.045,7.256,53.643,7.256
			s52.867-7.256,52.867-7.256s2.007-0.304,4.749-1.681V71.781H109.49V95.848z"/>
		<path style="fill:#575959;" d="M236.622,39.344c-6.385-3.58-14.31-2.434-14.31-2.434c-7.363-14.344-17.486-18.289-17.486-18.289
			l-7.335,9.639L167.494,0l-29.997,28.26l-7.335-9.639c0,0-9.37,3.462-17.486,18.289c0,0-7.925-1.147-14.31,2.434
			c0,0-4.305,37.984-4.305,69.6s7.161,51.721,7.161,51.721l6.166,1.248c0,0-1.647-27.4,0.444-44.734
			c2.035-16.862,6.413-24.157,6.413-24.157s35.045,7.256,53.643,7.256s52.868-7.256,52.868-7.256s4.48,8.358,6.413,24.281
			c2.063,17.002,0.444,44.611,0.444,44.611l5.834-1.203c0,0,7.487-20.824,7.487-51.771S236.622,39.344,236.622,39.344z"/>
		<path style="fill:#3F3E3E;" d="M108.809,36.748c-0.135,0.096-0.214,0.163-0.214,0.163c-2.788,10.348,2.546,18.604,2.546,18.604
			c-2.181-11.022,1.534-18.604,1.534-18.604S111.108,36.686,108.809,36.748z"/>
		<path style="fill:#3F3E3E;" d="M137.497,28.26c0,0-8.307,9.566-6.733,21.802c0,0-5.935-13.051,4.3-25L137.497,28.26z"/>
		<path style="fill:#3F3E3E;" d="M226.174,36.748c0.135,0.096,0.214,0.163,0.214,0.163c2.788,10.348-2.546,18.604-2.546,18.604
			c2.181-11.022-1.534-18.604-1.534-18.604S223.875,36.686,226.174,36.748z"/>
		<path style="fill:#3F3E3E;" d="M197.486,28.26c0,0,8.307,9.566,6.734,21.802c0,0,5.935-13.051-4.3-25L197.486,28.26z"/>
	</g>
</g>
</svg>