<svg xmlns="http://www.w3.org/2000/svg" width="100%" height="100%" viewBox="0 0 194 191" fill-rule="evenodd" stroke-linecap="round" stroke-linejoin="round" stroke-miterlimit="10"><g transform="matrix(.996358 0 0 .997985 -98.5014 -24.0108)"><clipPath id="A"><path d="M98.861 24.059h194.242v190.555H98.861z"/></clipPath><g clip-path="url(#A)"><g transform="matrix(1.00366 0 0 1.00202 -33.7674 -32.5143)"><g transform="matrix(1.33333 0 0 1.33333 131.750909 56.334905)" fill-rule="nonzero"><path d="M0 0h145.4v142.7H0z" fill="#c30c2b"/><path d="M24.8 52.9c1.4 0 2.6.2 3.6.6s1.8.9 2.4 1.6 1.1 1.4 1.4 2.3.4 1.7.4 2.7c0 .9-.1 1.8-.4 2.6-.3.9-.7 1.6-1.4 2.3-.6.7-1.4 1.2-2.4 1.6s-2.2.6-3.6.6h-5.2v8h-4.9V52.9h10.1zm-1.3 10.6c.6 0 1.1 0 1.6-.1s1-.2 1.4-.5c.4-.2.7-.6 1-1 .2-.4.4-1 .4-1.7s-.1-1.3-.4-1.7a2.41 2.41 0 0 0-1-1c-.4-.2-.9-.4-1.4-.5s-1.1-.1-1.6-.1h-3.8v6.7l3.8-.1zm16.1-10.6v18.2h10.9v4.1H34.7V52.9h4.9zm29.7 0V57H57.5v4.8h10.8v3.8H57.5v5.5h12.1v4.1h-17V52.9h16.7zm8.1 0l9.3 15h.1v-15h4.6v22.4h-4.9l-9.3-15v15h-4.6V52.9h4.8zm15.9 4.2V53h18.3v4.1H105v18.2h-5V57.1h-6.7zm29.1-4.2l8.4 22.4h-5.1l-1.7-5h-8.4l-1.8 5h-4.9l8.5-22.4h5zm.3 13.8l-2.8-8.2h-.1l-2.9 8.2h5.8zM17.8 89.1c-.1.4-.3.6-.7.6h-.3c-.4 0-.6-.1-.7-.6l-1.3-5.6v-.3c0-.1.1-.2.2-.2h.7c.1 0 .2.1.3.2l1.1 5.3 1.3-4.8c.1-.4.2-.5.6-.5h.2c.4 0 .5.1.6.5l1.3 4.8c.1-.8.3-1.6 1.1-5.3 0-.2.1-.3.3-.3h.7c.1 0 .1.1.1.2s0 .2-.1.3L21.9 89c-.1.4-.2.6-.7.6H21c-.5 0-.6-.2-.7-.6l-1.2-4.7c-.3.8-.5 1.5-1.3 4.8zm9.3.5c-.6 0-1-.2-1-1v-4.7c0-.7.3-1 1-1h2.8c.1 0 .2.1.2.2v.6c0 .1-.1.2-.2.2h-2.4c-.2 0-.3.1-.3.4v1.4h2.4c.1 0 .2.1.2.2v.5c0 .1-.1.2-.2.2h-2.4v1.6c0 .3.1.4.4.4H30c.1 0 .2.1.2.2v.5c0 .1-.1.2-.2.2l-2.9.1zm7.3 0c-.6 0-.9-.3-.9-.9V84c0-.6.3-1 .9-1h1.1c.3 0 .8 0 1 .1 1.1.1 1.5.6 1.5 1.6 0 .8-.3 1.3-1 1.5.8.2 1.2.6 1.2 1.6 0 .8-.2 1.4-.9 1.7-.4.1-1 .2-1.8.2l-1.1-.1zm1.1-3.9c.4 0 .7 0 .9-.1.3-.1.5-.4.5-.9 0-.6-.3-.8-.6-.9-.1-.1-.4-.1-.7-.1h-.7c-.2 0-.3.1-.3.4v1.5c-.1.1.9.1.9.1zm-1 2.6c0 .3.1.4.4.4h.8c.4 0 .8 0 .9-.1.3-.1.5-.4.5-1 0-.5-.2-.7-.5-.9-.2-.1-.5-.1-.9-.1h-1.1v1.7h-.1zm14.3 1.3c-.6 0-1-.2-1-1v-4.7c0-.7.3-1 1-1h2.8c.1 0 .2.1.2.2v.6c0 .1-.1.2-.2.2h-2.4c-.2 0-.3.1-.3.4v1.4h2.4c.1 0 .2.1.2.2v.5c0 .1-.1.2-.2.2h-2.4v1.6c0 .3.1.4.4.4h2.5c.1 0 .2.1.2.2v.5c0 .1-.1.2-.2.2l-3 .1zm7.1 0h-.6c-.1 0-.2-.1-.2-.3v-5.7c0-.5.2-.8.7-.8h.3c.4 0 .6.2.7.6l2.4 4.8v-5c0-.2.1-.3.3-.3h.6c.2 0 .2.1.2.3V89c0 .5-.3.6-.6.6h-.2c-.5 0-.6-.2-.8-.6l-2.5-4.8v5.2c0 .1-.1.2-.3.2zm10.2 0h-.6c-.1 0-.2-.1-.2-.3v-5.4h-1.7c-.1 0-.2-.1-.2-.2v-.5c0-.2.1-.2.2-.2H68c.1 0 .2.1.2.2v.5c0 .1-.1.2-.2.2h-1.7v5.4c0 .2-.1.3-.2.3zm7.6-.5c-.1.4-.3.6-.7.6h-.3c-.4 0-.6-.1-.7-.6l-1.3-5.6v-.3c0-.1.1-.2.2-.2h.7c.1 0 .2.1.3.2l1.1 5.3 1.3-4.8c.1-.4.2-.5.6-.5h.2c.4 0 .5.1.6.5l1.3 4.8c.1-.8.3-1.6 1.1-5.3 0-.2.1-.3.3-.3h.7c.1 0 .1.1.1.2s0 .2-.1.3L77.7 89c-.1.4-.2.6-.7.6h-.2c-.5 0-.6-.2-.7-.6l-1.2-4.7c-.1.8-.3 1.5-1.2 4.8zm9.2.5h-.6c-.1 0-.2-.1-.2-.3v-6.2c0-.1.1-.3.2-.3h.6c.2 0 .2.1.2.2v6.2c0 .3-.1.4-.2.4zm6.3-.8c.6 0 1-.1 1.3-.2.1 0 .2-.1.3-.1s.1 0 .2.1.1.4.1.5-.1.2-.2.2c-.6.2-1.2.3-1.9.3-1.6 0-2.6-.8-2.6-3.3s.7-3.6 2.8-3.6c.6 0 1.2.1 1.6.1.1 0 .2.1.2.2s-.1.4-.1.6c0 .1-.1.1-.2.1s-.2 0-.3-.1c-.3-.1-.6-.1-1.1-.1-1.5 0-1.8.9-1.8 2.5 0 1.9.3 2.8 1.7 2.8zm5.6.8h-.6c-.1 0-.2-.1-.2-.3v-6.2c0-.1.1-.3.2-.3h.6c.2 0 .2.1.2.2v2.5h.6c.2 0 .3-.1.4-.2l1.6-2.4c.1-.1.2-.2.3-.2h.6c.1 0 .2.1.2.2s-.1.2-.1.2l-1.9 2.8c.2.4.6.8 2 3 .1.1.1.2.1.3s-.1.1-.1.2h-.8c-.1 0-.2-.1-.3-.2L96 86.8c-.1-.1-.2-.1-.4-.1H95v2.7c.1.1 0 .2-.2.2zm8 0c-.6 0-.9-.3-.9-.9v-5.5c0-.1.1-.3.2-.3h.6c.2 0 .2.1.2.2v5.1c0 .2.1.4.4.4h2.4c.1 0 .2.1.2.2v.5c0 .1-.1.2-.2.2h-2.9v.1zm10.7-2.7c0 .9-.1 1.5-.3 1.9-.4.6-1.1.9-2.3.9-1 0-1.9-.2-2.2-1-.2-.4-.2-1.1-.2-1.8v-3.8c0-.1.1-.2.2-.2h.6c.1 0 .2.1.2.2v4.1c0 .5 0 .9.2 1.1.2.3.6.4 1.2.4.4 0 1-.1 1.2-.4.1-.2.2-.6.2-1.1v-4.1c0-.1.1-.2.2-.2h.6c.1 0 .2.1.2.2l.2 3.8zm4.4 2.7h-.6c-.1 0-.2-.1-.2-.3v-5.7c0-.5.2-.8.7-.8h.3c.4 0 .6.2.7.6l2.4 4.8v-5c0-.2.1-.3.3-.3h.6c.2 0 .2.1.2.3V89c0 .5-.3.6-.6.6h-.2c-.5 0-.6-.2-.8-.6l-2.5-4.8v5.2c-.1.1-.2.2-.3.2zm12.7-.4l-.2.2c-.4.1-1.2.3-2.2.3-1.7 0-2.7-.8-2.7-3.3s.8-3.6 3-3.6c.6 0 1.3.1 1.7.1.2.1.2.1.2.2s-.1.4-.1.6c0 .1-.1.1-.2.1h-.3c-.3-.1-.7-.1-1.3-.1-1.5 0-1.9.9-1.9 2.5s.3 2.6 1.7 2.6c.6 0 .9-.1 1.2-.1.1 0 .2-.1.2-.3V87h-1.3c-.1 0-.2-.1-.2-.2v-.6c0-.1.1-.2.2-.2h2c.1 0 .2.1.2.2v3z"/><path d="M42.3 83.4l1.4 2.9m0 0l-1.4 2.9" stroke="#fff" stroke-width=".88"/></g><path d="M196.555 133.578s-.859-1.454-3.404-1.052c0 0-5.018-3.074-5.166 4.72-.996-.227-7.46 6.966-8.06 8.946-.161.532 1.53.015 1.53.015s-4.954 5.436-4.207 6.262 5.685-3.259 5.685-3.259-1.16 1.719-.645 1.591c.54-.134 2.91-2.418 3.887-2.396.775.017 1.722 1.391 1.955 1.85.162.319-.604.78-.558.907s.551-.14.832-.148c.631-.018 2.954.042 2.954.042s-1.687-.099-2.321-.629c-.684-.572-2.351-2.118-1.785-2.802s.958-.705 1.143-.695-.17.553-.031.751c.381.541 2.015 1.936 2.315 2.494.158.294-.515.854-.515.854s.796.035 1.193.027c.583-.012 2.295.067 2.303-.097s-1.594-.401-2.254-.891-1.461-1.396-1.707-2.047c-.218-.578.025-1.277.23-1.86.57-1.62 4.943-1.846 3.191-7.857-1.019-2.979.605-4.94 3.433-4.725z" fill="#fff"/><g transform="matrix(-.237002 .011009 .011009 .237002 385.893 84.7785)"><path d="M438.897 69.201s-4.916-7.571-19.474-5.474c0 0-28.706-16.004-29.553 24.569-5.696-1.18-42.673 36.262-46.109 46.571-.922 2.768 8.751.08 8.751.08s-28.342 28.299-24.068 32.598 32.524-16.967 32.524-16.967-6.637 8.947-3.69 8.28c3.091-.698 16.647-12.586 22.235-12.471 4.431.091 9.851 7.239 11.182 9.63.924 1.66-3.455 4.061-3.194 4.719s3.153-.73 4.76-.771c3.61-.092 16.9.219 16.9.219s-9.648-.516-13.276-3.275c-3.915-2.977-13.448-11.025-10.213-14.586s5.48-3.668 6.541-3.62-.975 2.878-.177 3.909c2.178 2.816 11.527 10.079 13.244 12.985.904 1.531-2.946 4.448-2.946 4.448s4.551.181 6.827.139c3.334-.061 13.129.351 13.177-.506s-9.116-2.088-12.892-4.637-8.355-7.266-9.763-10.657c-1.249-3.009.141-6.646 1.317-9.684 3.263-8.431 28.277-9.609 18.257-40.902-5.832-15.508 3.459-25.717 19.64-24.597z" fill="#fff"/></g></g></g></g></svg>