<svg xmlns="http://www.w3.org/2000/svg" xml:space="preserve" width="360" height="360" baseProfile="tiny" overflow="visible" version="1.2"><path fill="#A13609" d="M80 0h200c44.2 0 80 35.8 80 80v200c0 44.2-35.8 80-80 80H80c-44.2 0-80-35.8-80-80V80C0 35.8 35.8 0 80 0"/><path fill="#02848E" d="M95 25h170c38.7 0 70 31.3 70 70v170c0 38.7-31.3 70-70 70H95c-38.7 0-70-31.3-70-70V95c0-38.7 31.3-70 70-70"/><path fill="#0098AC" d="M158.9 85h42.3v113.8h-42.3V85z"/><path fill="#0098AC" d="m259 161.4-39.9 71.3h-78.2L101 161.4l-36.9 20.7 52.1 92.9h127.6l52.1-92.9z"/><path fill="#F2EDD5" d="M270 34c14.9 0 28.9 5.8 39.5 16.5S326 75.1 326 90v180c0 14.9-5.9 28.9-16.5 39.5S284.9 326 270 326H90c-14.9 0-28.9-5.9-39.5-16.5S34 284.9 34 270V90c0-14.9 5.8-28.9 16.5-39.5S75.1 34 90 34zm0-14H90c-38.5 0-70 31.5-70 70v180c0 38.5 31.5 70 70 70h180c38.5 0 70-31.5 70-70V90c0-38.5-31.5-70-70-70"/><path fill="#FD0" d="M88.7 161.5c1.5-12.6 7.3-23.7 13.8-31.1H70.7c-1.1 0-1.6.9-1 1.9zm201.5-29.3c-68 88.6-91.8 100.8-123.2 100.4-30.6-.4-52.8-22-53.1-51.6-.4-30.7 22-53.5 52.7-53.5 12.7 0 22.8 3.9 30.6 10.1l-12.8 19.7c-4.2-3.4-11.1-5.9-18-5.9-15.8 0-28 11.9-28 28.7 0 16.8 12.5 28 28.7 28 15.4 0 24.6-10 35.2-26.3l33.5-51.4h53.7c.9 0 1.3.9.7 1.8"/><path fill="#1D1D1B" d="M289.3 130.4h-53.7l-33.5 51.4c-10.6 16.3-19.7 26.3-35.2 26.3-16.2 0-28.7-11.2-28.7-28s12.1-28.7 28-28.7c6.9 0 13.9 2.5 18 5.9l12.8-19.7c-7.8-6.2-18-10.1-30.6-10.1-30.7 0-53 22.8-52.7 53.5.4 29.6 22.6 51.3 53.1 51.6 31.5.4 55.3-11.8 123.2-100.4.8-.9.4-1.8-.7-1.8m.9-7.5c5 0 8.3 3.4 8.3 7.7 0 2.3-.6 3.9-2.8 6.6-67.9 88.3-93.5 103.2-128.9 102.9-34.7-.4-60.3-25.4-60.7-59.1-.4-34.7 25.3-61.1 60.1-61.1 17.5 0 31.5 6.8 40.7 16.5l-21.3 32.1c-4.4-5-10.6-9.6-19.2-9.6-12 0-20.7 8.5-20.7 21.2 0 12.6 9.2 20.4 21.2 20.4 11.2 0 18.6-6.9 29.4-23.6l35.2-54.1h58.7zm-219.5 7.5c-1.1 0-1.6.9-1 1.9l19 29.2c1.5-12.6 7.3-23.7 13.8-31.1zm22.6 51-29.9-44.8c-1.5-2.3-2-3.7-2-6 0-4.4 3.3-7.7 8.3-7.7h49.9c-15.5 12.3-27.2 33.8-26.3 58.5"/></svg>