<svg version="1.1" id="Referenzen" xmlns="http://www.w3.org/2000/svg" x="0" y="0" viewBox="0 0 100 100" xml:space="preserve"><style>.st2{fill:#fff}</style><linearGradient id="SVGID_1_" gradientUnits="userSpaceOnUse" x1="80.531" y1="109.92" x2="19.469" y2="-9.92"><stop offset="0" stop-color="#5d4b41"/><stop offset="1" stop-color="#9e8a78"/></linearGradient><path fill="url(#SVGID_1_)" d="M0 0h100v100H0z"/><path d="M81.9 66.5c-.1-.3-.3-.4-.6-.5l-5.9-2.2c-.5-.2-1.1.1-1.3.6l-.4 1-6.9-2.5c-.2-.1-.4-.1-.5 0L52 65.4c-1.3.2-2.4 1.1-3 2.2l-6.5-2.4c-1-.4-2.2-.3-3.2.1-1.3.6-2.2 1.8-2.4 3.2-.3 2 .9 3.9 2.9 4.6l18.6 6.8 3 1.1c.2.1.5.1.7 0l6-2 .6.2-.4 1c-.2.5.1 1.1.6 1.3l5.9 2.2c.5.2 1.1-.1 1.3-.6l5.7-15.8c.2-.3.2-.6.1-.8zM67.7 76.9l-6 2-21.2-7.7c-1-.3-1.6-1.3-1.5-2.3.1-.6.5-1.2 1-1.5.5-.3 1.2-.4 1.8-.2l6.8 2.5v.6c.4 2.3 2.6 3.8 4.9 3.4l11.8-2.1-.4-2.1-11.8 2.1c-1.1.2-2.2-.6-2.4-1.7v-.7-.1c0-.1 0-.2.1-.3.3-.7.9-1.2 1.6-1.4l14-2.5 6.6 2.4-3.6 9.9-1-.4c-.2 0-.5 0-.7.1zm6.9 4.5L70.7 80l5-13.8 3.9 1.4-5 13.8z" opacity=".7" fill="#fff"/><path class="st2" d="M39.7 47.2l2-1.5V59c0 1.2.9 2.1 2.1 2.1h18.9c1.2 0 2.1-.9 2.1-2.1V45.7l2 1.5c.5.4 1.1.6 1.7.6 1 0 1.9-.5 2.5-1.3.9-1.3.5-3.1-.8-4l-8-5.6c.3-.2.5-.5.7-.8 1-1.7.7-3.8-.7-5.1l-8.5-8.5c-1.4-1.4-3.2-2.2-5.2-2.2h-11c-.1 0-.3 0-.4.1L30 23.3h-.8v-2.1c0-.6-.5-1-1-1h-8.4c-.6 0-1.1.5-1.1 1V38c0 .6.5 1 1.1 1h8.4c.6 0 1-.5 1-1v-2.1h.2c.8 2.5 4.1 4.2 7.2 4.2 3.1 0 6.4-1.7 7.2-4.2h1.8l-9.2 6.5c-1.3.9-1.6 2.7-.7 4 .8 1.4 2.7 1.7 4 .8zM27 37h-6.3V22.3H27V37zm21 22v-6.3h4.2V59H48zm14.7 0h-8.4v-7.3c0-.6-.5-1-1.1-1H47c-.6 0-1.1.5-1.1 1V59h-2.1V44.2l9.4-6.9 9.4 6.9V59zM42.8 33.8c-.6 0-1 .5-1 1 0 1.6-2.6 3.1-5.2 3.1s-5.2-1.6-5.2-3.1c0-.6-.5-1-1.1-1h-1v-8.4h1c.1 0 .3 0 .4-.1l7.1-3.1h10.8c1.4 0 2.7.5 3.7 1.5l8.5 8.5c.7.6.8 1.7.4 2.5-.3.5-.8.8-1.4.8-.6.1-1.1-.1-1.6-.5l-3.9-3.9c-.2-2.1-2-3.7-4.2-3.7h-9.4v2.1h9.4c1.2 0 2.1.9 2.1 2.1 0 1.2-.9 2.1-2.1 2.1h-7.3zm-5.5 11.5c-.2-.4-.2-.9.2-1.1L49.1 36h1c1.5 0 3-.8 3.7-2.2l2.9 2.9c.9.9 2.1 1.3 3.3 1.1l9 6.3c.3.2.4.5.3.9-.1.3-.3.6-.7.6-.2 0-.4 0-.6-.1L53.9 35.1c-.4-.3-.9-.3-1.2 0L38.5 45.5c-.1.1-.3.2-.5.2-.3-.1-.5-.2-.7-.4z"/><path class="st2" d="M55.8 52.2v4.1c0 .6.5 1 1 1H61c.6 0 1-.5 1-1v-4.1c0-.6-.5-1-1-1h-4.1c-.6 0-1.1.4-1.1 1zm2.1 1H60v2.1h-2.1v-2.1zM50.6 43.9c0 1.7 1.4 3.1 3.1 3.1 1.7 0 3.1-1.4 3.1-3.1 0-1.7-1.4-3.1-3.1-3.1-1.7 0-3.1 1.4-3.1 3.1zm4.2 0c0 .6-.5 1-1 1-.6 0-1-.5-1-1 0-.6.5-1 1-1s1 .5 1 1z"/></svg>