<svg xmlns="http://www.w3.org/2000/svg" width="100%" x="0" y="0" viewBox="0 0 1000 1000" height="150" xmlns:v="https://vecta.io/nano"><path fill="#c30c2b" d="M630 1001H1V1h1000v1000H630M325.999 395.5l.013 50.495c.018 7.69 2.177 14.509 8.788 19.145l24.661 16.967 130.506 90.372c6.473 4.486 15.144 4.572 21.998-.15l84.24-58.156 67.933-46.62c7.781-5.137 11.736-11.233 11.728-20.385l-.064-187.47c-.014-12.589-8.173-20.57-20.751-20.616l-306.43-1.074c-14.479-.048-22.617 8.092-22.62 22.509l-.003 134.984m143.393 306.345c1.253-9.959.073-19.593-3.965-28.814-10.515-24.008-41.375-31.425-59.871-14.388-1.861 1.715-3.587 3.576-6.319 6.314v-13.456h-19.219v113.221h19.746v-39.241c5.972 6.944 12.026 11.603 19.905 13.646 23.675 6.139 46.203-10.362 49.722-37.282M110.066 658.5v79.626h20.491v-36.821c4.083 0 7.57.125 11.045-.025 8.461-.364 17.089.073 25.342-1.462 30.241-5.627 43.283-39.366 24.432-62.587-8.121-10.003-19.443-13.791-31.811-14.128-15.808-.43-31.635-.147-47.454-.146-.606 0-1.212.26-2.046.45V658.5m746.908 63.076l9.578 14.007c.808 1.138 2.077 2.714 3.181 2.753 7.071.25 14.156.128 22.188.128l-35.754-51.606 34.733-35.57c-7.62 0-13.776-.336-19.865.156-2.649.214-5.804 1.501-7.629 3.374-10.104 10.37-19.864 21.075-29.761 31.647-.809.864-1.765 1.592-3.436 3.082v-71.17h-19.64v119.791h19.742l.047-20.753c.026-1.581.156-3.571 1.08-4.653 3.506-4.103 7.357-7.91 11.345-12.106l14.189 20.922m-499.58-49.426c-8.549-14.264-21.322-21.706-37.743-22.51-17.803-.872-32.435 5.788-42.073 20.975-9.586 15.105-10.038 31.241-1.378 46.921 12.054 21.826 40.76 29.575 63.051 17.568 22.545-12.144 30.389-38.484 18.143-62.954m315.645 14.261c-12.132-2.077-24.211-2.686-35.809 2.413-9.904 4.354-15.051 12.036-15.485 22.971-.429 10.814 3.581 19.09 13.134 24.441 12.076 6.764 30.291 5.143 40.976-3.613l5.233-4.349v10.123h18.762c0-20.089.704-39.907-.255-59.643-.61-12.543-7.883-21.944-20.226-25.917-17.135-5.516-33.744-2.839-50.175 4.393l5.246 15.62c9.924-3.997 19.901-6.178 30.381-4.904 11.073 1.346 17.237 9.16 15.779 20.245l-7.561-1.779m-125.593 18.905c-1.982-5.676-6.009-9.702-11.201-12.212-5.662-2.738-11.7-4.695-17.557-7.034-4.305-1.72-8.914-2.995-12.737-5.473-2.041-1.323-3.809-4.843-3.661-7.247.135-2.196 2.626-4.929 4.796-6.13 2.293-1.269 5.621-1.838 8.169-1.262 7.959 1.801 15.763 4.288 24.068 6.634l7.182-12.887c-14.745-8.713-29.859-13.205-46.313-7.186-10.649 3.896-16.584 12.041-16.853 23.628-.258 11.09 5.833 17.994 15.568 22.117 3.506 1.485 7.165 2.613 10.77 3.856 4.392 1.515 8.906 2.731 13.177 4.527 6.006 2.527 8.032 5.55 7.008 10.008-1.205 5.247-5.427 7.549-10.064 7.242-6.689-.444-13.439-1.652-19.883-3.508-4.289-1.235-8.09-4.166-12.255-6.417l-8.709 13.161c13.319 9.725 27.605 14.473 43.532 12.637 19.213-2.215 28.678-15.174 24.964-34.455m196.114-31.24c12.544-10.406 21.751-9.643 39.849 3.509l11.963-12.881c-17.122-19.693-49.21-20.364-67.148-1.785-18.557 19.22-16.982 50.79 3.37 67.566 19.137 15.774 50.788 12.585 63.73-5.992L784.308 712.8c-2.993 2.164-5.788 4.542-8.904 6.377-15.91 9.368-35.234 1.186-39.172-16.611-2.293-10.365-.32-19.831 7.328-28.49m-167.009-46.784h-8.959v24.197h-10.685v16.805l10.782.528.004 15.118c.06 11.821-.174 23.655.309 35.459.41 10.029 5.913 17.009 14.519 19.332 7.377 1.991 14.75 1.683 22.169-.399 4.765-1.337 6.92-3.72 6.226-8.814-.42-3.081-.077-6.267-.077-9.862-2.308.682-4.15 1.39-6.057 1.763-12.997 2.546-17.619-1.238-17.335-12.942.283-11.651.053-23.314.072-34.971.003-1.583.142-3.166.236-5.133h22.957v-17.245h-23.391v-23.836h-10.77M234.104 668.25v-16.684h-19.96v86.648h19.79v-5.711c.036-10.651-.247-21.316.188-31.951.648-15.804 9.343-26.579 23.005-29.213 2.393-.461 4.863-.519 7.356-.77v-21.063c-3.511.488-6.672.644-9.684 1.397-9.615 2.404-15.429 9.279-20.697 17.347z"/><path fill="#fffefe" d="M325.999 395l.003-134.484c.002-14.417 8.141-22.557 22.62-22.509l306.43 1.074c12.577.046 20.736 8.027 20.751 20.616l.064 187.47c.008 9.152-3.948 15.248-11.728 20.385-22.915 15.13-45.33 31.017-67.933 46.62l-84.24 58.156c-6.854 4.722-15.525 4.636-21.998.15l-130.506-90.372-24.661-16.967c-6.611-4.635-8.77-11.455-8.788-19.145L325.999 395m190.253 125.76l97.138-68.271c-1.075-.602-1.63-.982-2.235-1.242l-106.123-45.754c-3.047-1.324-5.412-1.353-8.414-.044l-76.379 32.983-32.362 14.06 5.442 3.862 93.436 64.921c4.76 3.303 9.657 8.97 14.457 8.935 4.829-.034 9.617-5.819 15.039-9.449M400.941 403.393l79.7-34.522v-90.333H366.489v139.708l34.452-14.853m123.786-124.465c-4.124-.719-3.569 2.127-3.568 4.626l-.087 80.913c-.021 3.424 1.129 4.895 4.147 6.187l105.622 45.482 4.671 1.996V279.54c-.808-.191-1.128-.333-1.449-.334l-109.337-.278z"/><path fill="#fefdfd" d="M469.313 702.283c-3.441 26.483-25.969 42.983-49.644 36.844-7.88-2.043-13.934-6.702-19.905-13.646v39.241h-19.746V651.502h19.219v13.456c2.732-2.738 4.457-4.6 6.319-6.314 18.496-17.036 49.356-9.62 59.871 14.388 4.038 9.221 5.219 18.855 3.887 29.252M449.12 689.43c-1.136-8.388-4.965-15.105-12.399-19.424-15.727-9.137-33.974.772-37.264 20.177-3.456 20.387 13.727 37.234 32.402 31.766 12.127-3.55 19.231-16.492 17.261-32.52z"/><path fill="#fffdfd" d="M110.066 658v-34.592c.834-.191 1.44-.45 2.046-.45l47.454.146c12.368.336 23.69 4.124 31.811 14.128 18.852 23.221 5.809 56.96-24.432 62.587-8.254 1.536-16.882 1.098-25.342 1.462-3.475.15-6.962.025-11.045.025v36.821h-20.491V658m47.137 25.048c2.123-.37 4.298-.556 6.36-1.141 9.784-2.773 15.532-10.355 15.372-20.09-.166-10.068-5.602-17.827-16.077-19.123-10.562-1.306-21.412-.288-32.264-.288v40.683l26.609-.041z"/><path fill="#fefbfb" d="M856.772 721.277l-13.988-20.622c-3.987 4.196-7.839 8.004-11.345 12.106-.924 1.082-1.055 3.072-1.08 4.653l-.047 20.753H810.57V618.375h19.64v71.17c1.671-1.49 2.626-2.217 3.436-3.082l29.761-31.647c1.825-1.872 4.98-3.16 7.629-3.374 6.089-.492 12.246-.156 19.865-.156l-34.733 35.57 35.754 51.606c-8.032 0-15.116.122-22.188-.128-1.104-.039-2.373-1.615-3.181-2.753-3.274-4.611-6.398-9.328-9.779-14.306z"/><path fill="#fefcfd" d="M357.607 672.452c12.034 24.167 4.19 50.508-18.355 62.652-22.291 12.007-50.996 4.258-63.051-17.568-8.66-15.68-8.207-31.816 1.378-46.921 9.637-15.187 24.27-21.847 42.073-20.975 16.42.804 29.194 8.246 37.955 22.812m-60.322 41.707c4.781 5.298 10.732 8.311 17.845 8.764 11.351.724 20.847-4.824 25.502-14.711 4.952-10.516 3.005-24.454-4.566-32.694-12.409-13.506-34.445-11.002-42.432 5.262-5.545 11.29-4.616 22.529 3.651 33.379z"/><path fill="#fefcfc" d="M673.451 686.544l7.15 1.646c1.458-11.085-4.706-18.899-15.779-20.245-10.481-1.274-20.458.908-30.381 4.904l-5.246-15.62c16.431-7.232 33.041-9.909 50.175-4.393 12.343 3.973 19.617 13.375 20.226 25.917.959 19.737.255 39.554.255 59.643h-18.762v-10.123l-5.233 4.349c-10.686 8.756-28.9 10.377-40.976 3.613-9.554-5.351-13.563-13.627-13.134-24.441.434-10.935 5.582-18.617 15.485-22.971 11.598-5.099 23.677-4.49 36.22-2.28m7.544 15.549c-11.099-5.396-22.427-6.304-33.711-.923-5.225 2.491-6.841 7.428-6.285 13.016.521 5.227 3.804 8.246 8.426 10.107 16.385 6.595 31.692-3.721 31.57-22.199z"/><path fill="#fefbfc" d="M547.607 705.681c3.553 18.916-5.912 31.874-25.125 34.089-15.927 1.836-30.213-2.912-43.532-12.637l8.709-13.161c4.166 2.251 7.966 5.182 12.255 6.417 6.444 1.855 13.194 3.064 19.883 3.508 4.637.308 8.859-1.994 10.064-7.242 1.024-4.458-1.002-7.481-7.008-10.008-4.271-1.797-8.785-3.012-13.177-4.527-3.605-1.244-7.264-2.372-10.77-3.856-9.734-4.123-15.826-11.027-15.568-22.117.27-11.587 6.205-19.732 16.853-23.628 16.453-6.019 31.568-1.527 46.313 7.186l-7.182 12.887c-8.305-2.346-16.109-4.833-24.068-6.634-2.548-.577-5.876-.008-8.169 1.262-2.17 1.201-4.661 3.935-4.796 6.13-.148 2.403 1.62 5.923 3.661 7.247 3.823 2.478 8.432 3.753 12.737 5.473 5.857 2.34 11.894 4.297 17.557 7.034 5.192 2.51 9.219 6.536 11.362 12.577z"/><path fill="#fefdfd" d="M743.319 674.346c-7.407 8.39-9.38 17.856-7.087 28.221 3.937 17.796 23.262 25.979 39.172 16.611 3.116-1.835 5.911-4.213 8.904-6.377l11.017 11.694c-12.942 18.577-44.594 21.766-63.73 5.992-20.352-16.776-21.927-48.346-3.37-67.566 17.938-18.579 50.026-17.908 67.148 1.785l-11.963 12.881c-18.098-13.151-27.305-13.915-40.091-3.24z"/><path fill="#fefcfd" d="M577.028 627.292h10.294v23.836h23.391v17.245h-22.957l-.236 5.133-.072 34.971c-.284 11.704 4.337 15.488 17.335 12.942 1.907-.373 3.748-1.081 6.057-1.763 0 3.595-.343 6.781.077 9.862.694 5.094-1.461 7.477-6.226 8.814-7.42 2.082-14.792 2.39-22.169.399-8.606-2.323-14.108-9.304-14.519-19.332-.483-11.804-.249-23.638-.309-35.459l-.004-15.118-10.782-.528v-16.805h10.685v-24.197h9.435z"/><path fill="#fefcfc" d="M234.47 668.348c4.902-8.165 10.716-15.04 20.332-17.444 3.012-.753 6.173-.91 9.684-1.397v21.063c-2.493.25-4.963.308-7.356.77-13.663 2.633-22.358 13.408-23.005 29.213-.436 10.635-.152 21.3-.188 31.951v5.711h-19.79v-86.648h19.96c0 5.556 0 11.12.366 16.781z"/><path fill="#c30d2c" d="M515.943 520.942c-5.114 3.448-9.902 9.232-14.731 9.267-4.801.034-9.697-5.633-14.457-8.935l-93.436-64.921-5.442-3.862 32.362-14.06 76.379-32.983c3.002-1.309 5.367-1.28 8.414.044l106.123 45.754c.605.261 1.16.64 2.235 1.242l-97.446 68.454z"/><path fill="#c30e2c" d="M400.597 403.561l-34.109 14.685V278.538h114.152v90.333l-80.044 34.69z"/><path fill="#c30d2c" d="M525.205 278.928l108.859.279c.321.001.641.142 1.449.334v138.592l-4.671-1.996-105.622-45.482c-3.018-1.291-4.168-2.763-4.147-6.187l.087-80.913c-.001-2.499-.556-5.345 4.046-4.626z"/><path fill="#c40e2d" d="M449.187 689.847c1.904 15.611-5.201 28.553-17.328 32.103-18.674 5.467-35.858-11.379-32.402-31.766 3.29-19.405 21.537-29.314 37.264-20.177 7.433 4.318 11.262 11.036 12.465 19.841z"/><path fill="#c4112f" d="M156.734 683.068l-26.14.02v-40.683c10.852 0 21.702-1.019 32.264.288 10.476 1.296 15.912 9.055 16.077 19.123.16 9.735-5.588 17.317-15.372 20.09-2.062.585-4.237.771-6.829 1.161z"/><path fill="#c40e2d" d="M297.071 713.868c-8.054-10.558-8.982-21.797-3.437-33.087 7.987-16.264 30.024-18.767 42.432-5.262 7.571 8.24 9.517 22.178 4.566 32.694-4.655 9.886-14.151 15.434-25.502 14.711-7.113-.453-13.064-3.466-18.059-9.056z"/><path fill="#c4102e" d="M681.028 702.531c.088 18.04-15.219 28.356-31.604 21.761-4.622-1.86-7.905-4.88-8.426-10.107-.556-5.588 1.06-10.524 6.285-13.016 11.284-5.38 22.612-4.472 33.745 1.361z"/></svg>