<svg xmlns="http://www.w3.org/2000/svg" viewBox="0 0 100 100"><linearGradient id="A" gradientUnits="userSpaceOnUse" x1="7.313" y1="56.131" x2="27.928" y2="56.131"><stop offset="0" stop-color="#f7cc28"/><stop offset="1" stop-color="#f3b81c"/></linearGradient><path fill="url(#A)" d="M27.928 86.881 7.313 75.121v-49.74l20.615 12.204z"/><linearGradient id="B" gradientUnits="userSpaceOnUse" x1="7.313" y1="19.088" x2="70.909" y2="19.088"><stop offset="0" stop-color="#bcd151"/><stop offset="1" stop-color="#92c142"/></linearGradient><path opacity=".7" fill="url(#B)" d="M49.872.59 7.313 25.381l20.615 12.204L70.909 12.72z"/><linearGradient id="C" gradientUnits="userSpaceOnUse" x1="49.917" y1="75.157" x2="92.873" y2="75.157"><stop offset="0" stop-color="#6fbfb3"/><stop offset="1" stop-color="#469585"/></linearGradient><path opacity=".7" fill="url(#C)" d="m92.834 50.724.039 24.057L49.917 99.59l.135-24.311z"/><linearGradient id="D" gradientUnits="userSpaceOnUse" x1="7.288" y1="75.458" x2="50.052" y2="75.458"><stop offset="0" stop-color="#f7cc28"/><stop offset="1" stop-color="#f3b81c"/></linearGradient><path fill="url(#D)" d="M7.288 75.092 49.917 99.59l.135-24.311L7.339 51.326z"/><linearGradient id="E" gradientUnits="userSpaceOnUse" x1="29.497" y1="19.006" x2="92.793" y2="19.006"><stop offset="0" stop-color="#bcd151"/><stop offset="1" stop-color="#92c142"/></linearGradient><path opacity=".7" fill="url(#E)" d="M29.497 12.641 49.944.59l42.849 24.791-20.215 12.041z"/><linearGradient id="F" gradientUnits="userSpaceOnUse" x1="72.578" y1="55.926" x2="92.873" y2="55.926"><stop offset="0" stop-color="#6fbfb3"/><stop offset="1" stop-color="#469585"/></linearGradient><path opacity=".7" fill="url(#F)" d="m92.873 74.781-.08-49.4-20.215 12.041.013 49.049z"/><linearGradient id="G" gradientUnits="userSpaceOnUse" x1="35.144" y1="50.09" x2="65.151" y2="50.09"><stop offset="0" stop-color="#f3961e"/><stop offset="1" stop-color="#e67b10"/></linearGradient><path opacity=".7" fill="url(#G)" d="m65.151 58.752-15.004 8.662-15.003-8.662V41.428l15.003-8.662 15.004 8.662z"/><g opacity=".75"><linearGradient id="H" gradientUnits="userSpaceOnUse" x1="35.144" y1="45.759" x2="65.151" y2="45.759"><stop offset="0" stop-color="#f3961e"/><stop offset="1" stop-color="#e67b10"/></linearGradient><path opacity=".7" fill="url(#H)" d="M35.144 58.752V41.428l15.003-8.662 15.004 8.662"/></g><path d="M92.688 93.184l-.802-1.071-.955-1.275a.492.492 0 0 0-.423-.216h-9.656a.474.474 0 0 0-.403.198l-.84 1.123-.944 1.258c-.104.14-.13.297-.072.433s.193.231.37.254l.627.08 4.083.506c.332.046.427-.003.593-.28l1.417-2.362.466.775.983 1.642c.099.164.232.244.404.244a.58.58 0 0 0 .08-.005l4.5-.563.265-.033c.192-.024.336-.117.395-.256s.026-.301-.088-.452zm-7.73-1.74l-.415.694-.88 1.47c-.023.038-.021.038-.067.033l-3.488-.438-.383-.046.57-.76.669-.888a.188.188 0 0 1 .083-.062l3.226-.004.685.001zm2.061-.002l3.277.003c.03 0 .074.02.083.031l1.093 1.453.169.227-2.382.297-1.496.182a.157.157 0 0 1-.043-.011l-1.137-1.889-.173-.293h.61zm3.729 2.912a.402.402 0 0 0-.387.022c-.135.083-.2.218-.199.409l.001.979.003 1.567c0 .084-.006.085-.07.101l-2.86.71-1.144.286v-3.8l-.002-1.33a.44.44 0 0 0-.124-.316.398.398 0 0 0-.282-.113h-.004c-.233.002-.4.18-.408.431v5.123l-.899-.224-3.08-.767c-.079-.02-.083-.025-.082-.104l.004-1.655v-.891c0-.197-.072-.334-.22-.417a.394.394 0 0 0-.391.008.462.462 0 0 0-.214.417l.005 2.058-.001.802c0 .3.1.427.395.5l1.43.358 3.334.833a.58.58 0 0 0 .262.004l4.526-1.133.252-.063c.294-.074.388-.196.388-.506v-2.86l-.005-.115a.404.404 0 0 0-.228-.314zm-6.17-5.171l.8.802c.092.093.2.14.306.14a.44.44 0 0 0 .31-.141l.442-.447a796.35 796.35 0 0 1 1.527-1.526c.066-.067.202-.203.169-.405a.397.397 0 0 0-.281-.33c-.158-.05-.304-.01-.442.125l-1.318 1.317v-3.554l-.007-.168a.4.4 0 0 0-.357-.35.41.41 0 0 0-.424.268.712.712 0 0 0-.03.23l-.001 2.724v.847l-1.306-1.306c-.053-.053-.215-.218-.418-.136a.587.587 0 0 0-.286.254c-.072.145-.03.311.115.455l1.2 1.201z" fill="#b3b3b3"/></svg>
