<svg xmlns="http://www.w3.org/2000/svg" xmlns:xlink="http://www.w3.org/1999/xlink" width="100%" height="100%" viewBox="0 0 2336 2295" fill-rule="evenodd" stroke-linecap="round" stroke-linejoin="round" stroke-miterlimit="10"><g transform="matrix(12.0237 0 0 12.0434 -1188.68 -289.75)"><clipPath id="A"><path d="M98.861 24.059h194.242v190.555H98.861z"/></clipPath><g clip-path="url(#A)"><g transform="matrix(1.34846 0 0 1.34626 97.949958 23.281349)"><path d="M0 0h145.4v142.7H0z" fill="#c30c2b" fill-rule="nonzero"/><g transform="matrix(1.16504 0 0 1.16504 4.06724 -50.661)"><g fill="#fff" fill-rule="nonzero"><path d="M22.392 90.713c1.066 0 1.98.152 2.742.457s1.371.685 1.828 1.219.838 1.066 1.066 1.752.305 1.295.305 2.056c0 .685-.076 1.371-.305 1.98a4.19 4.19 0 0 1-1.066 1.752c-.457.533-1.066.914-1.828 1.219s-1.675.457-2.742.457h-3.96v6.093H14.7V90.713h7.692zm-.99 8.073c.457 0 .838 0 1.219-.076s.762-.152 1.066-.381c.305-.152.533-.457.762-.762.152-.305.305-.762.305-1.295s-.076-.99-.305-1.295c-.152-.305-.457-.609-.762-.762a4.37 4.37 0 0 0-1.066-.381c-.381-.076-.838-.076-1.219-.076h-2.894v5.103l2.894-.076zm12.262-8.073v13.861h8.301v3.123H29.932V90.713h3.732zm22.619 0v3.123h-8.987v3.656h8.225v2.894h-8.225v4.189h9.215v3.123H43.564V90.713h12.719zm6.169 0l7.083 11.424h.076V90.713h3.503v17.06h-3.732l-7.083-11.424v11.424h-3.503v-17.06h3.656zm12.109 3.199V90.79h13.937v3.123h-5.026v13.861h-3.808V93.912h-5.103zm22.162-3.199l6.397 17.06h-3.884l-1.295-3.808h-6.397l-1.371 3.808h-3.732l6.473-17.06h3.808zm.228 10.51l-2.132-6.245h-.076l-2.209 6.245h4.417zm-79.89 17.06c-.076.305-.228.457-.533.457H16.3c-.305 0-.457-.076-.533-.457l-.99-4.265v-.228c0-.076.076-.152.152-.152h.533c.076 0 .152.076.228.152l.838 4.036.99-3.656c.076-.305.152-.381.457-.381h.152c.305 0 .381.076.457.381l.99 3.656c.076-.609.228-1.219.838-4.036 0-.152.076-.228.228-.228h.533c.076 0 .076.076.076.152s0 .152-.076.228l-.99 4.265c-.076.305-.152.457-.533.457h-.152c-.381 0-.457-.152-.533-.457l-.914-3.579c-.228.609-.381 1.142-.99 3.656zm7.083.381c-.457 0-.762-.152-.762-.762v-3.579c0-.533.228-.762.762-.762h2.132c.076 0 .152.076.152.152v.457c0 .076-.076.152-.152.152h-1.828c-.152 0-.228.076-.228.305v1.066h1.828c.076 0 .152.076.152.152v.381c0 .076-.076.152-.152.152H24.22v1.219c0 .228.076.305.305.305h1.828c.076 0 .152.076.152.152v.381c0 .076-.076.152-.152.152l-2.209.076zm5.56 0c-.457 0-.685-.228-.685-.685V114.4c0-.457.228-.762.685-.762h.838c.228 0 .609 0 .762.076.838.076 1.142.457 1.142 1.219 0 .609-.228.99-.762 1.142.609.152.914.457.914 1.219 0 .609-.152 1.066-.685 1.295a5.69 5.69 0 0 1-1.371.152l-.838-.076zm.838-2.97c.305 0 .533 0 .685-.076.228-.076.381-.305.381-.685 0-.457-.228-.609-.457-.685-.076-.076-.305-.076-.533-.076h-.533c-.152 0-.228.076-.228.305v1.142c-.076.076.685.076.685.076zm-.762 1.98c0 .228.076.305.305.305h.609c.305 0 .609 0 .685-.076.228-.076.381-.305.381-.762a.71.71 0 0 0-.381-.685c-.152-.076-.381-.076-.685-.076h-.838v1.295h-.076zm10.891.99c-.457 0-.762-.152-.762-.762v-3.579c0-.533.228-.762.762-.762h2.132c.076 0 .152.076.152.152v.457c0 .076-.076.152-.152.152h-1.828c-.152 0-.228.076-.228.305v1.066h1.828c.076 0 .152.076.152.152v.381c0 .076-.076.152-.152.152h-1.828v1.219c0 .228.076.305.305.305h1.904c.076 0 .152.076.152.152v.381c0 .076-.076.152-.152.152l-2.285.076zm5.407 0h-.457c-.076 0-.152-.076-.152-.228v-4.341c0-.381.152-.609.533-.609h.228c.305 0 .457.152.533.457l1.828 3.656v-3.808c0-.152.076-.228.228-.228h.457c.152 0 .152.076.152.228v4.417c0 .381-.228.457-.457.457h-.152c-.381 0-.457-.152-.609-.457l-1.904-3.656v3.96c0 .076-.076.152-.228.152zm7.768 0h-.457c-.076 0-.152-.076-.152-.228v-4.113h-1.295c-.076 0-.152-.076-.152-.152v-.381c0-.152.076-.152.152-.152h3.351c.076 0 .152.076.152.152v.381c0 .076-.076.152-.152.152h-1.295v4.113c0 .152-.076.228-.152.228zm5.788-.381c-.076.305-.228.457-.533.457h-.228c-.305 0-.457-.076-.533-.457l-.99-4.265v-.228c0-.076.076-.152.152-.152h.533c.076 0 .152.076.228.152l.838 4.036.99-3.656c.076-.305.152-.381.457-.381h.152c.305 0 .381.076.457.381l.99 3.656c.076-.609.228-1.219.838-4.036 0-.152.076-.228.228-.228h.533c.076 0 .076.076.076.152s0 .152-.076.228l-1.066 4.265c-.076.305-.152.457-.533.457h-.152c-.381 0-.457-.152-.533-.457l-.914-3.579c-.076.609-.228 1.142-.914 3.656zm7.007.381h-.457c-.076 0-.152-.076-.152-.228v-4.722c0-.076.076-.228.152-.228h.457a.12.12 0 0 1 .152.152v4.722c0 .228-.076.305-.152.305zm4.798-.609c.457 0 .762-.076.99-.152.076 0 .152-.076.228-.076s.076 0 .152.076.076.305.076.381-.076.152-.152.152c-.457.152-.914.228-1.447.228-1.219 0-1.98-.609-1.98-2.513s.533-2.742 2.132-2.742c.457 0 .914.076 1.219.076.076 0 .152.076.152.152s-.076.305-.076.457c0 .076-.076.076-.152.076s-.152 0-.228-.076c-.228-.076-.457-.076-.838-.076-1.142 0-1.371.685-1.371 1.904 0 1.447.228 2.132 1.295 2.132zm4.265.609h-.457c-.076 0-.152-.076-.152-.228v-4.722c0-.076.076-.228.152-.228h.457a.12.12 0 0 1 .152.152v1.904h.457c.152 0 .228-.076.305-.152l1.219-1.828c.076-.076.152-.152.228-.152h.457c.076 0 .152.076.152.152s-.076.152-.076.152l-1.447 2.132c.152.305.457.609 1.523 2.285.076.076.076.152.076.228s-.076.076-.076.152h-.609c-.076 0-.152-.076-.228-.152l-1.219-1.828c-.076-.076-.152-.076-.305-.076h-.457v2.056c.076.076 0 .152-.152.152zm6.093 0c-.457 0-.685-.228-.685-.685v-4.189c0-.076.076-.228.152-.228h.457a.12.12 0 0 1 .152.152v3.884c0 .152.076.305.305.305h1.828c.076 0 .152.076.152.152v.381c0 .076-.076.152-.152.152h-2.209v.076zm8.149-2.056c0 .685-.076 1.142-.228 1.447-.305.457-.838.685-1.752.685-.762 0-1.447-.152-1.675-.762-.152-.305-.152-.838-.152-1.371v-2.894c0-.076.076-.152.152-.152h.457c.076 0 .152.076.152.152v3.123c0 .381 0 .685.152.838.152.228.457.305.914.305.305 0 .762-.076.914-.305.076-.152.152-.457.152-.838v-3.123c0-.076.076-.152.152-.152h.457c.076 0 .152.076.152.152l.152 2.894zm3.351 2.056h-.457c-.076 0-.152-.076-.152-.228v-4.341c0-.381.152-.609.533-.609h.228c.305 0 .457.152.533.457l1.828 3.656v-3.808c0-.152.076-.228.228-.228h.457c.152 0 .152.076.152.228v4.417c0 .381-.228.457-.457.457h-.152c-.381 0-.457-.152-.609-.457l-1.904-3.656v3.96c-.076.076-.152.152-.228.152zm9.672-.305l-.152.152c-.305.076-.914.228-1.675.228-1.295 0-2.056-.609-2.056-2.513s.609-2.742 2.285-2.742c.457 0 .99.076 1.295.076.152.076.152.076.152.152s-.076.305-.076.457c0 .076-.076.076-.152.076h-.228c-.228-.076-.533-.076-.99-.076-1.142 0-1.447.685-1.447 1.904s.228 1.98 1.295 1.98c.457 0 .685-.076.914-.076.076 0 .152-.076.152-.228v-1.066h-.99c-.076 0-.152-.076-.152-.152v-.457c0-.076.076-.152.152-.152h1.523c.076 0 .152.076.152.152v2.285z"/></g><path d="M35.72 113.942l1.066 2.209m0 0l-1.066 2.209" fill-rule="nonzero" stroke="#fff" stroke-width=".67"/></g></g><g transform="matrix(.80843 0 0 .80843 49.785 23.7482)" fill="#fff"><use xlink:href="#C"/><use xlink:href="#D"/></g><g transform="matrix(.80843 0 0 .80843 80.8137 8.48302)"><g fill="#fff"><use xlink:href="#C"/><use xlink:href="#D"/></g><g fill="#fff"><path d="M154.67 52.564a2.74 2.74 0 0 0-2.744-2.739h-11.082c-.711 0-1.394.275-1.905.769l-6.231 6.005a2.74 2.74 0 0 0-.838 1.97v18.283a2.74 2.74 0 0 0 2.744 2.738h17.312a2.74 2.74 0 0 0 2.744-2.738V52.564zm-2.744 0h-11.082l-6.23 6.005v18.283h17.312V52.564z" fill-opacity=".38"/><use xlink:href="#D"/></g></g><path d="M188.742 54.799s4.374.885 5.248 0 0-5.312 0-5.312l-5.248 5.312z" fill="#fff"/><g transform="matrix(.80843 0 0 .80843 111.842 23.7482)" fill="#fff"><use xlink:href="#C"/><use xlink:href="#D"/></g><path d="M182.088 65.228l3.628.225-1.233 3.415-2.395-3.64z" fill="#fff"/><path d="M176.573 71.453l7.199-4.724" fill="none" stroke="#fff" stroke-miterlimit="1.5" stroke-width="1.108"/><path d="M208.349 68.868l-1.233-3.415 3.629-.225-2.396 3.64z" fill="#fff"/><path d="M216.261 71.453l-7.2-4.724" fill="none" stroke="#fff" stroke-miterlimit="1.5" stroke-width="1.108"/></g></g><defs ><path id="C" d="M153.203 51.433a1.92 1.92 0 0 0-1.921-1.917h-11.208c-.498 0-.976.193-1.334.538l-6.301 6.074c-.375.361-.587.859-.587 1.379v18.49a1.92 1.92 0 0 0 1.921 1.917h17.509a1.92 1.92 0 0 0 1.921-1.917V51.433zm-1.921 0h-11.208l-6.301 6.074v18.49h17.509V51.433z"/><path id="D" d="M133.638 57.503s5.268 1.027 6.321 0 0-6.166 0-6.166l-6.321 6.166z"/></defs></svg>