<svg xmlns="http://www.w3.org/2000/svg" viewBox="0 0 100 100"><style>.st0{display:none}.st2{display:inline}.st4{fill:#fff}</style><g id="Referenzen" class="st0"><linearGradient id="SVGID_1_" gradientUnits="userSpaceOnUse" x1="80.531" y1="109.92" x2="19.469" y2="-9.92"><stop offset="0" stop-color="#5d4b41"/><stop offset="1" stop-color="#9e8a78"/></linearGradient><path fill="url(#SVGID_1_)" d="M0 0h100v100H0z"/><g class="st2"><path d="M81.9 66.5c-.1-.3-.3-.4-.6-.5l-5.9-2.2c-.5-.2-1.1.1-1.3.6l-.4 1-6.9-2.5c-.2-.1-.4-.1-.5 0L52 65.4c-1.3.2-2.4 1.1-3 2.2l-6.5-2.4c-1-.4-2.2-.3-3.2.1-1.3.6-2.2 1.8-2.4 3.2-.3 2 .9 3.9 2.9 4.6l18.6 6.8 3 1.1c.2.1.5.1.7 0l6-2 .6.2-.4 1c-.2.5.1 1.1.6 1.3l5.9 2.2c.5.2 1.1-.1 1.3-.6l5.7-15.8c.2-.3.2-.6.1-.8zM67.7 76.9l-6 2-21.2-7.7c-1-.3-1.6-1.3-1.5-2.3.1-.6.5-1.2 1-1.5.5-.3 1.2-.4 1.8-.2l6.8 2.5v.6c.4 2.3 2.6 3.8 4.9 3.4l11.8-2.1-.4-2.1-11.8 2.1c-1.1.2-2.2-.6-2.4-1.7v-.7-.1c0-.1 0-.2.1-.3.3-.7.9-1.2 1.6-1.4l14-2.5 6.6 2.4-3.6 9.9-1-.4c-.2 0-.5 0-.7.1zm6.9 4.5L70.7 80l5-13.8 3.9 1.4-5 13.8z" opacity=".7" fill="#fff"/><path class="st4" d="M39.7 47.2l2-1.5V59c0 1.2.9 2.1 2.1 2.1h18.9c1.2 0 2.1-.9 2.1-2.1V45.7l2 1.5c.5.4 1.1.6 1.7.6 1 0 1.9-.5 2.5-1.3.9-1.3.5-3.1-.8-4l-8-5.6c.3-.2.5-.5.7-.8 1-1.7.7-3.8-.7-5.1l-8.5-8.5c-1.4-1.4-3.2-2.2-5.2-2.2h-11c-.1 0-.3 0-.4.1L30 23.3h-.8v-2.1c0-.6-.5-1-1-1h-8.4c-.6 0-1.1.5-1.1 1V38c0 .6.5 1 1.1 1h8.4c.6 0 1-.5 1-1v-2.1h.2c.8 2.5 4.1 4.2 7.2 4.2 3.1 0 6.4-1.7 7.2-4.2h1.8l-9.2 6.5c-1.3.9-1.6 2.7-.7 4 .8 1.4 2.7 1.7 4 .8zM27 37h-6.3V22.3H27V37zm21 22v-6.3h4.2V59H48zm14.7 0h-8.4v-7.3c0-.6-.5-1-1.1-1H47c-.6 0-1.1.5-1.1 1V59h-2.1V44.2l9.4-6.9 9.4 6.9V59zM42.8 33.8c-.6 0-1 .5-1 1 0 1.6-2.6 3.1-5.2 3.1s-5.2-1.6-5.2-3.1c0-.6-.5-1-1.1-1h-1v-8.4h1c.1 0 .3 0 .4-.1l7.1-3.1h10.8c1.4 0 2.7.5 3.7 1.5l8.5 8.5c.7.6.8 1.7.4 2.5-.3.5-.8.8-1.4.8-.6.1-1.1-.1-1.6-.5l-3.9-3.9c-.2-2.1-2-3.7-4.2-3.7h-9.4v2.1h9.4c1.2 0 2.1.9 2.1 2.1 0 1.2-.9 2.1-2.1 2.1h-7.3zm-5.5 11.5c-.2-.4-.2-.9.2-1.1L49.1 36h1c1.5 0 3-.8 3.7-2.2l2.9 2.9c.9.9 2.1 1.3 3.3 1.1l9 6.3c.3.2.4.5.3.9-.1.3-.3.6-.7.6-.2 0-.4 0-.6-.1L53.9 35.1c-.4-.3-.9-.3-1.2 0L38.5 45.5c-.1.1-.3.2-.5.2-.3-.1-.5-.2-.7-.4z"/><path class="st4" d="M55.8 52.2v4.1c0 .6.5 1 1 1H61c.6 0 1-.5 1-1v-4.1c0-.6-.5-1-1-1h-4.1c-.6 0-1.1.4-1.1 1zm2.1 1H60v2.1h-2.1v-2.1zM50.6 43.9c0 1.7 1.4 3.1 3.1 3.1 1.7 0 3.1-1.4 3.1-3.1 0-1.7-1.4-3.1-3.1-3.1-1.7 0-3.1 1.4-3.1 3.1zm4.2 0c0 .6-.5 1-1 1-.6 0-1-.5-1-1 0-.6.5-1 1-1s1 .5 1 1z"/></g></g><g id="Estate_Manager_Core" class="st0"><linearGradient id="SVGID_2_" gradientUnits="userSpaceOnUse" x1="80.531" y1="109.92" x2="19.469" y2="-9.92"><stop offset="0" stop-color="#113058"/><stop offset="1" stop-color="#0873ef"/></linearGradient><path fill="url(#SVGID_2_)" d="M0 0h100v100H0z"/><g class="st2" fill-rule="evenodd" clip-rule="evenodd" fill="#fff"><path d="M28.1 49.5v3.8c0 .1.2.3.3.4 1.8 1 3.5 2.1 5.3 3.1 2.7 1.6 5.5 3.2 8.2 4.8 1.9 1.1 3.9 2.3 5.8 3.4.4.3.6.5.6 1.1v7.2c-6.8-4-13.5-7.9-20.3-11.8v3.6c0 .2.4.5.6.7 6.3 3.7 12.6 7.4 19 11.1.6.3.7.7.7 1.3v7l-.8-.4c-8.5-5-17.1-10-25.6-14.9-.5-.3-.7-.6-.7-1.2V38.8v-.9c.4.2.6.3.9.5 7.4 4.3 14.8 8.6 22.2 13 1.1.7 2.3 1.3 3.4 2 .2.2.5.5.5.8v7.1c0 .1 0 .1-.1.3-6.6-4.3-13.3-8.2-20-12.1z"/><path d="M63 79.1V55.4c-1.1.7-2.2 1.2-3.1 1.9-.2.1-.2.6-.2.8v22c0 .7-.2 1.1-.8 1.4-2 1.1-3.9 2.2-5.9 3.4 0-.3-.1-.5-.1-.7V54.1c0-.5.1-.8.6-1.1l25.8-15c.2-.1.4-.2.7-.4v29.9c0 1.4-.3 1.9-1.3 2.4-1.6.8-3.1 1.8-4.7 2.7-.2.1-.5.2-.8.4V49.3c-1.2.7-2.3 1.3-3.3 2-.2.1-.2.5-.2.8v22.3c0 .3-.1.6-.3.7-2 1.4-4.1 2.7-6.4 4z" opacity=".75"/><path d="M51.9 50.2c-.7.7-1.1.6-2.2 0l-25.8-15c-.5-.3-.9-.5-1.5-.9.3-.2.5-.4.8-.5 8.9-5.2 17.7-10.3 26.6-15.5.5-.3.9-.3 1.4 0l26.7 15.6c.2.1.4.2.7.4-.3.2-.5.3-.7.5-8.4 4.9-16.4 9.7-24.9 14.6-.7.4-.6.4-1.1.8zm-15.6-16c.4.2.6.4.8.5 4.2 2.5 8.5 4.9 12.7 7.4.5.3.9.3 1.5 0 4.2-2.5 8.5-5 12.7-7.4.2-.1.4-.3.7-.5-.2-.2-.4-.3-.6-.4-4.4-2.5-8.7-5.1-13.1-7.6-.5-.3-.8-.2-1.2.1-4.2 2.5-8.4 4.9-12.6 7.4-.3.1-.5.3-.9.5z" opacity=".55"/></g></g><g id="Neubauprojekte" class="st0"><linearGradient id="SVGID_3_" gradientUnits="userSpaceOnUse" x1="80.531" y1="109.92" x2="19.469" y2="-9.92"><stop offset="0" stop-color="#455761"/><stop offset="1" stop-color="#81979c"/></linearGradient><path fill="url(#SVGID_3_)" d="M0 0h100v100H0z"/><g class="st2"><path class="st4" d="M84.6 59.1c-.1-.9-.5-1.7-1.1-2.3L80.2 54v-8c0-.6-.5-1.1-1.1-1.1h-4.4c-.6 0-1.1.5-1.1 1.1v2.3L68 43.6c-1.3-1.1-3.1-1.1-4.3 0L48 56.9c-1.4 1.2-1.6 3.3-.4 4.7.9 1.1 2.4 1.4 3.6 1v16.9c0 .6.5 1.1 1.1 1.1H79c.6 0 1.1-.5 1.1-1.1v-17c1.3.5 2.7.1 3.6-1 .7-.6 1-1.5.9-2.4zm-8.8-11.9H78v5l-2.2-1.9v-3.1zm-5.6 31.1h-9v-8.9h9v8.9zm7.8 0h-5.6v-10c0-.6-.5-1.1-1.1-1.1H60.1c-.6 0-1.1.5-1.1 1.1v10h-5.5V60.9l12.3-10.4L78 60.9v17.4zm4.1-18.2c-.4.5-1.1.5-1.6.1l-14.1-12c-.4-.4-1-.4-1.4 0-.3.3-14.1 12-14.2 12.1-.5.4-1.2.3-1.6-.1-.4-.5-.3-1.2.1-1.6l15.6-13.3c.4-.4 1-.4 1.4 0L82 58.5c.5.4.5 1.1.1 1.6z" opacity=".75"/><path class="st4" d="M64.5 37.4h7.7c.5 0 1-.4 1-1v-3.8-.1-.2s0-.1-.1-.1c-.1-.2-.2-.3-.4-.4 0 0-.1 0-.2-.1h-.1L35.9 23h-4c-.1 0-.2 0-.3.1h-.1-.1l-15.3 8.6-.1.1s-.1 0-.1.1c-.1.1-.1.2-.2.3 0 .1-.1.2-.1.3v3.8c0 .5.4 1 1 1H30v17.8l-3.6 3.6c-.2.2-.3.4-.3.7v15.3h-1.9v5.8h19.2v-5.8h-1.9V59.5c0-.3-.1-.5-.3-.7l-3.6-3.6V37.4h19.2m7.7-3.8h6.7v1.9h-6.7v-1.9zm-5.8 3.8h3.8m.1-1.9h-3.8v-1.9h3.8v1.9zM32.8 24.9h1.9v6.7h-1.9v-6.7zm-.9 8.7h3.8v1.5l-.4.4h-3.4v-1.9zm3.8 4.2v6.9l-3.4-3.4 3.4-3.5zm-3.8-.4h1.5l-1.5 1.5v-1.5zm0 6.1l3.4 3.4-3.4 3.4v-6.8zm3.8 5.8V56.2l-3.4-3.4 3.4-3.5zm-3.8 6.3V55l3.4 3.4-3.4 3.4v-6.2zm3.8 5.2v6.9l-3.4-3.4 3.4-3.5zm-3.8 5.8l3.4 3.4-3.4 3.4v-6.8zm3.8 5.7v2.5h-2.5l2.5-2.5zm-4.8-46.7v6H20.2l10.7-6zm-13.4 9.9v-1.9H30v1.9H17.5zM28 59.9l1.9-1.9v16.9H28v-15zm13.5 16.8v1.9H26.1v-1.9h15.4zm-1.9-16.8v15h-1.9v-17l1.9 2zm17.2-24.4H37.6v-1.9h19.2v1.9zm-20.1-3.9v-6.5L64 31.6H36.7z"/></g></g><g id="Virtual_Tour"><linearGradient id="SVGID_4_" gradientUnits="userSpaceOnUse" x1="80.531" y1="109.92" x2="19.469" y2="-9.92"><stop offset="0" stop-color="#852c92"/><stop offset="1" stop-color="#de49cb"/></linearGradient><path fill="url(#SVGID_4_)" d="M0 0h100v100H0z"/><g fill="#fff"><path d="M82 52.4c0-6-6.7-11.1-16.6-13.5C63 29 58 22.3 52 22.3S41 29 38.5 38.9c-1.4.3-2.8.8-4 1.2-.6.2-.8.8-.6 1.4.2.5.8.8 1.4.6.9-.3 1.8-.6 2.8-.9-1.4 7.3-1.4 14.8 0 22.2-8.2-2.3-13.9-6.4-13.9-11.1 0-2.4 1.6-4.9 4.6-7l-.3 1.8c-.1.6.3 1.1.8 1.3h.2c.5 0 1-.4 1.1-.9l.9-4.5c.1-.6-.3-1.1-.8-1.3h0L26 41c-.6-.1-1.1.2-1.3.8-.1.6.2 1.1.8 1.3 0 0 0 0 0 0l2.1.4c-3.7 2.5-5.7 5.7-5.7 8.9 0 6 6.7 11 16.6 13.5C40.9 75.7 46 82.4 52 82.4c3.3 0 6.5-2.2 9.1-6.1l.3 2.1c.1.6.6 1 1.2.9.6-.1 1-.6.9-1.2l-.5-4.5c-.1-.6-.6-1-1.2-.9h0l-4.5.5c-.6.1-1 .6-.9 1.2.1.6.6 1 1.2.9l1.8-.2c-2.2 3.2-4.7 5-7.3 5-4.6 0-8.8-5.7-11.1-13.9 3.6.7 7.4 1 11.1 1 3.7 0 7.4-.3 11.1-1-.3 1-.5 1.9-.9 2.8-.2.6.1 1.2.7 1.4.6.2 1.2-.1 1.4-.6.5-1.3.9-2.6 1.2-4C75.3 63.4 82 58.4 82 52.4zM52 24.5c4.6 0 8.8 5.7 11.1 13.9-3.6-.7-7.4-1-11.1-1-3.7 0-7.4.3-11.1 1 2.3-8.3 6.4-13.9 11.1-13.9zm0 40.7c-3.9 0-7.8-.4-11.6-1.2-1.6-7.7-1.6-15.6 0-23.3 7.7-1.6 15.6-1.6 23.3 0 .8 3.8 1.2 7.7 1.2 11.6 0 3.9-.4 7.8-1.2 11.6-3.9.9-7.8 1.3-11.7 1.3zm13.9-1.8c.7-3.6 1-7.4 1-11.1 0-3.7-.3-7.4-1-11.1 8.2 2.3 13.9 6.4 13.9 11.1.1 4.7-5.6 8.9-13.9 11.1z" stroke="#fff" stroke-width=".581" stroke-miterlimit="10"/><path d="M61.5 45.6c-.2-.4-.6-.7-1-.7H46.7c-.3 0-.6.2-.8.4l-3.2 4.3s0 .1-.1.1c0 .1-.1.1-.1.2v6.7c0 .6.5 1.1 1.1 1.1h4.3c.3 0 .6-.1.8-.3l1.4-1.4 1.4 1.4c.2.2.5.3.8.3h4.3c.3 0 .6-.1.8-.3l4.3-4.3c.2-.2.3-.5.3-.7V46c-.5-.2-.5-.3-.5-.4zm-14.3 1.5h10.7l-2.1 2.1H45.6l1.6-2.1zm3.4 6.6c-.4-.4-1.1-.4-1.5 0l-1.8 1.8h-2.7v-4.3h10.6v4.3h-2.7l-1.9-1.8zm6.7.3v-3.4l2.1-2.1v3.4L57.3 54z" opacity=".55"/></g></g></svg>