<svg xmlns="http://www.w3.org/2000/svg" viewBox="0 0 100 100"><linearGradient id="A" x1="79.7" x2="20.5" y1="108.2" y2="-8.1" gradientUnits="userSpaceOnUse"><stop offset="0" stop-color="#852c92"/><stop offset="1" stop-color="#de49cb"/></linearGradient><path fill="url(#A)" d="M.1 5.7C.1 2.6 2.7 0 5.8 0h88.6c3.1 0 5.7 2.6 5.7 5.7v88.6c0 3.1-2.6 5.7-5.7 5.7H5.8a6 6 0 01-5.7-5.8V5.7z"/><g fill="#fff"><g fill-rule="evenodd" opacity=".9"><path d="M84.9 88.8v.8l.1.1 1.1.6 1.7 1 1.2.7.1.2v1.5L85 91.3v.7l.1.1 3.9 2.3.1.3v1.4l-.2-.1-5.2-3-.1-.2v-6.3l.2.1 4.5 2.7.7.4.1.2v1.5l-4.2-2.6z"/><path d="M92.3 94.8V90a2 2 0 0 0-.6.4v4.7c0 .1 0 .2-.2.3l-1.2.7v-6.2l.1-.2 5.3-3.1.1-.1v6.1c0 .3-.1.4-.3.5l-1 .6-.2.1V89l-.7.4v4.8l-.1.1c-.3 0-.8.3-1.2.5z" opacity=".8"/><path d="M89.9 88.5a145.6 145.6 0 01-5.7-3.1l-.3-.2.2-.1 5.4-3.2h.3l5.4 3.2.1.1-.1.1-5.1 3-.2.2zm-3.2-3.2l.2.1 2.6 1.5h.3l2.6-1.5.1-.1-.1-.1-2.7-1.5c-.1-.1-.2 0-.2 0l-2.6 1.5-.2.1z" opacity=".6"/></g><path stroke="#fff" stroke-miterlimit="10" stroke-width=".6" d="M80.6 52.8c0-6-6.7-11.1-16.6-13.5-2.4-9.9-7.4-16.6-13.4-16.6s-11 6.7-13.5 16.6c-1.4.3-2.8.8-4 1.2-.6.2-.8.8-.6 1.4.2.5.8.8 1.4.6l2.8-.9a59.2 59.2 0 000 22.2c-8.2-2.3-13.9-6.4-13.9-11.1 0-2.4 1.6-4.9 4.6-7l-.3 1.8c-.1.6.3 1.1.8 1.3h.2c.5 0 1-.4 1.1-.9l.9-4.5c.1-.6-.3-1.1-.8-1.3h0l-4.7-.7c-.6-.1-1.1.2-1.3.8-.1.6.2 1.1.8 1.3h0l2.1.4c-3.7 2.5-5.7 5.7-5.7 8.9 0 6 6.7 11 16.6 13.5 2.4 9.8 7.5 16.5 13.5 16.5 3.3 0 6.5-2.2 9.1-6.1l.3 2.1c.1.6.6 1 1.2.9.6-.1 1-.6.9-1.2l-.5-4.5c-.1-.6-.6-1-1.2-.9h0l-4.5.5c-.6.1-1 .6-.9 1.2s.6 1 1.2.9l1.8-.2c-2.2 3.2-4.7 5-7.3 5-4.6 0-8.8-5.7-11.1-13.9a58.8 58.8 0 0022.2 0c-.3 1-.5 1.9-.9 2.8a1 1 0 00.7 1.4c.6.2 1.2-.1 1.4-.6.5-1.3.9-2.6 1.2-4 9.7-2.4 16.4-7.4 16.4-13.4zm-30-27.9c4.6 0 8.8 5.7 11.1 13.9a58.8 58.8 0 00-22.2 0c2.3-8.3 6.4-13.9 11.1-13.9zm0 40.7c-3.9 0-7.8-.4-11.6-1.2a57.2 57.2 0 010-23.3 57.2 57.2 0 0123.3 0 56.4 56.4 0 010 23.2c-3.9.9-7.8 1.3-11.7 1.3zm13.9-1.8a58.8 58.8 0 000-22.2c8.2 2.3 13.9 6.4 13.9 11.1.1 4.7-5.6 8.9-13.9 11.1z"/><path d="M60.1 46c-.2-.4-.6-.7-1-.7H45.3c-.3 0-.6.2-.8.4L41.3 50l-.1.1-.1.2V57c0 .6.5 1.1 1.1 1.1h4.3c.3 0 .6-.1.8-.3l1.4-1.4 1.4 1.4c.2.2.5.3.8.3h4.3c.3 0 .6-.1.8-.3l4.3-4.3c.2-.2.3-.5.3-.7v-6.4c-.5-.2-.5-.3-.5-.4zm-14.3 1.5h10.7l-2.1 2.1H44.2l1.6-2.1zm3.4 6.6a1 1 0 00-1.5 0l-1.8 1.8h-2.7v-4.3h10.6v4.3h-2.7l-1.9-1.8zm6.7.3V51l2.1-2.1v3.4l-2.1 2.1z" opacity=".6"/></g></svg>