<svg viewBox="0 0 400 400" xmlns="http://www.w3.org/2000/svg" fill-rule="evenodd" clip-rule="evenodd" stroke-linejoin="round" stroke-miterlimit="2"><path d="M400 0H0v400L400 0z" fill="#6aae00"/><path d="M0 400h400V0L0 400z" fill="#599600"/><path d="M326.664 110.907L400 184.049V400l-196.654.175-121.02-115.482.001-.01a18.402 18.402 0 0011.778 4.243h88.13l25.885 31.202 26.193-31.202h78.275c10.201 0 18.482-8.282 18.482-18.483V122.879c0-4.565-1.658-8.746-4.406-11.972zm-123.433 58.372c12.582-17.763 33.298-16.119 44.397-6.953 11.1 9.166 13.025 28.811 0 45.829-9.975 13.034-27.748 27.498-44.397 36.664-16.648-9.166-34.604-22.915-44.396-36.664-12.432-17.455-11.1-36.663 0-45.829 11.099-9.166 30.439-12.056 44.396 6.953z" fill="#4c7613"/><path d="M331.07 122.879c0-10.201-8.281-18.483-18.482-18.483H94.105c-10.201 0-18.483 8.282-18.483 18.483v147.564c0 10.201 8.282 18.483 18.483 18.483h88.13l25.885 31.202 26.193-31.202h78.275c10.201 0 18.482-8.282 18.482-18.483V122.879zm-127.839 46.4c12.582-17.763 33.298-16.119 44.397-6.953 11.1 9.166 13.025 28.811 0 45.829-9.975 13.034-27.748 27.498-44.397 36.664-16.648-9.166-34.604-22.915-44.396-36.664-12.432-17.455-11.1-36.663 0-45.829 11.099-9.166 30.439-12.056 44.396 6.953z" fill="#fff"/></svg>