<svg xmlns="http://www.w3.org/2000/svg" viewBox="0 0 191.8 150"><path d="M35.09,111c.27.08.4.2.4.47v1.15a.34.34,0,0,1-.31.39H32.69c-1.88,0-2.37.3-2.37,1.52v10.81a.35.35,0,0,1-.32.4.14.14,0,0,1-.09,0H28.14a.35.35,0,0,1-.4-.31V113.88c0-3.08,2.72-3.19,4.29-3.19A16.52,16.52,0,0,1,35.09,111Z" style="fill:#003764"/><path d="M49.57,117.88v.79c0,.54-.13.76-1,.76H39.93c.08,3.32.71,4.14,3.62,4.14H48a.36.36,0,0,1,.41.3v1.3a.4.4,0,0,1-.37.43h0a31.46,31.46,0,0,1-4.55.24c-5.11,0-6.2-1.49-6.2-7.56s1.09-7.59,6.2-7.59C48.4,110.69,49.52,112.14,49.57,117.88Zm-9.66-.58H47c0-3.45-.63-4.32-3.46-4.32S40,113.86,39.91,117.3Z" style="fill:#003764"/><path d="M61.77,111a.4.4,0,0,1,.38.43h0v1.17a.36.36,0,0,1-.32.4H56.7c-1.25,0-2,.43-2,1.41v.35c0,.77.35,1.42,1.68,1.91L60,118c2.5.95,2.73,2.34,2.73,3.84v.3c0,3-1.83,3.65-5.5,3.65-2.37,0-4.52-.19-5-.24s-.41-.19-.41-.4V124a.35.35,0,0,1,.31-.4h5.14c2.18,0,2.85-.25,2.85-1.42v-.32c0-.78-.32-1.31-1.58-1.82l-3.86-1.47a3.84,3.84,0,0,1-2.61-3.9v-.57c0-3,2.61-3.4,5.52-3.4A36.2,36.2,0,0,1,61.77,111Z" style="fill:#003764"/><path d="M77.53,117.88v.79c0,.54-.14.76-1,.76H67.87c.08,3.32.7,4.14,3.62,4.14H76a.36.36,0,0,1,.42.3v1.3a.41.41,0,0,1-.37.43h0a31.33,31.33,0,0,1-4.54.24c-5.12,0-6.2-1.49-6.2-7.56s1.08-7.59,6.2-7.59C76.33,110.69,77.47,112.14,77.53,117.88Zm-9.66-.58h7c0-3.45-.62-4.32-3.45-4.32S67.92,113.86,67.87,117.3Z" style="fill:#003764"/><path d="M87.81,111c.27.08.41.2.41.47v1.15a.34.34,0,0,1-.31.39H85.42c-1.87,0-2.37.3-2.37,1.52v10.81a.35.35,0,0,1-.32.4.14.14,0,0,1-.09,0H80.87a.35.35,0,0,1-.41-.3V113.88c0-3.08,2.72-3.19,4.29-3.19A16.52,16.52,0,0,1,87.81,111Z" style="fill:#003764"/><path d="M102.3,110.83c.32,0,.38.08.32.44l-3,11.4c-.74,2.8-.82,3.18-3.62,3.18-2.53,0-2.68-.38-3.46-3.18l-3.19-11.4c0-.36,0-.44.32-.44h2c.22,0,.24.08.35.44L95,122.07c.35,1.22.43,1.45,1,1.45.73,0,.84-.23,1.17-1.45l2.83-10.8c.08-.36.14-.44.35-.44Z" style="fill:#003764"/><path d="M115.83,115v9.47a.69.69,0,0,1-.52.77,22.37,22.37,0,0,1-6,.59c-3.58,0-5.25-.73-5.25-4.38,0-3.27,1.72-4.2,4.82-4.2h4.39v-1.84c0-1.68-1-2.45-3.54-2.45h-4c-.33,0-.41-.08-.41-.4v-1.12c0-.33.11-.39.39-.44a24.5,24.5,0,0,1,4.11-.32C113.93,110.69,115.83,112,115.83,115Zm-6.94,4.36c-1.49,0-2.29.5-2.29,2,0,1.79.9,2.21,3.13,2.21a15.76,15.76,0,0,0,3.49-.33v-3.9Z" style="fill:#003764"/><path d="M122.36,106.72c.3-.08.47,0,.47.35v3.78h2.85c.3,0,.43.14.43.42v1.28c0,.27-.13.4-.43.4h-2.85v9.12c0,1.2.32,1.48,1.76,1.48h1.31c.3,0,.43.11.43.38v1.31c0,.24-.13.38-.4.43a7.07,7.07,0,0,1-1.52.16c-2,0-4.2,0-4.2-3.1V113h-1.52a.36.36,0,0,1-.4-.32v-1.41a.37.37,0,0,1,.3-.42h1.62V107.6a.4.4,0,0,1,.33-.44h0Z" style="fill:#003764"/><path d="M131.7,106.48a1.61,1.61,0,1,1-1.66-1.55h0a1.43,1.43,0,0,1,1.63,1.19A1.45,1.45,0,0,1,131.7,106.48Zm-.71,4.35a.36.36,0,0,1,.41.31.31.31,0,0,1,0,.1v14.11a.38.38,0,0,1-.32.41H129.2a.35.35,0,0,1-.41-.3.34.34,0,0,1,0-.1V111.24a.38.38,0,0,1,.32-.41H131Z" style="fill:#003764"/><path d="M147.35,118.29c0,6-1.06,7.56-6.32,7.56s-6.34-1.49-6.34-7.56,1.09-7.59,6.34-7.59S147.35,112.22,147.35,118.29Zm-10.09,0c0,4.22.41,5.29,3.73,5.29s3.7-1.06,3.7-5.29-.4-5.3-3.7-5.3-3.69,1-3.69,5.3Z" style="fill:#003764"/><path d="M163,117v8.25c0,.27-.19.4-.46.4H160.8a.37.37,0,0,1-.41-.31v-8.16c0-4.16-.81-4.3-3.43-4.3h-3.71v12.4a.35.35,0,0,1-.31.4.14.14,0,0,1-.09,0h-1.79a.36.36,0,0,1-.41-.31V111.57c0-.35.13-.38.41-.44a31.53,31.53,0,0,1,5.66-.43C161.56,110.69,163,111.3,163,117Z" style="fill:#003764"/><path d="M124.53,43.53a4.53,4.53,0,0,0-3.27-1.39h-4.74V38.61a5.89,5.89,0,0,0-5.89-5.87h-2.34a5.89,5.89,0,0,0-5.89,5.87v3.53H88.3V38.61a5.89,5.89,0,0,0-5.88-5.87H80.07a5.87,5.87,0,0,0-5.89,5.87h0v3.53H69.49a4.77,4.77,0,0,0-4.67,4.67V93.88a4.78,4.78,0,0,0,4.67,4.67h51.73a4.76,4.76,0,0,0,4.7-4.7v-47a4.53,4.53,0,0,0-1.39-3.27m-13.09,6.36a1.12,1.12,0,0,1-.82.33h-2.38a1.1,1.1,0,0,1-.82-.33,1.16,1.16,0,0,1-.33-.81V38.48a1.12,1.12,0,0,1,1.08-1.18h2.46a1.13,1.13,0,0,1,1.18,1.08V49.12a1.12,1.12,0,0,1-.33.81m-28.3,0a1.18,1.18,0,0,1-.82.33H79.91a1.14,1.14,0,0,1-.82-.33,1.18,1.18,0,0,1-.33-.82V38.44a1.13,1.13,0,0,1,1.08-1.17h2.43a1.14,1.14,0,0,1,1.18,1.08V49.08a1.18,1.18,0,0,1-.33.82M69.29,56.12h51.92V93.85H69.33ZM113,67.22a1.1,1.1,0,0,0-.33-.82l-1.69-1.68a1.06,1.06,0,0,0-.82-.34,1.26,1.26,0,0,0-.82.34L92.92,81.09,84.82,73a1.24,1.24,0,0,0-.82-.34,1.07,1.07,0,0,0-.82.34l-1.69,1.69a1.09,1.09,0,0,0-.34.82,1.26,1.26,0,0,0,.34.82L92.13,86.94a1.25,1.25,0,0,0,1.69,0l18.83-18.88a1.28,1.28,0,0,0,.33-.81" style="fill:#003764"/><path d="M24.65,6.15S5.12,6.15,5.12,25.67v101s0,19.53,19.53,19.53H166.54s19.53,0,19.53-19.53V25.67s0-19.52-19.53-19.52Z" style="fill:none;stroke:#103a5d;stroke-width:2.51389524052214px"/></svg>
