<?xml version="1.0" encoding="utf-8"?>
<!-- Generator: Adobe Illustrator 23.1.0, SVG Export Plug-In . SVG Version: 6.00 Build 0)  -->
<svg version="1.1" id="Ebene_2" xmlns="http://www.w3.org/2000/svg" xmlns:xlink="http://www.w3.org/1999/xlink" x="0px" y="0px"
	 viewBox="0 0 191.8 150" style="enable-background:new 0 0 191.8 150;" xml:space="preserve">
<style type="text/css">
	.st0{fill:#0B395D;}
	.st1{fill:none;stroke:#0B395D;stroke-width:2.4696;}
</style>
<g>
	<path class="st0" d="M44.2,104.4c0.2,0.1,0.4,0.2,0.4,0.4v1.2c0,0.3-0.1,0.4-0.4,0.4h-1.2c-1.6,0-2.3,0.1-2.3,1.5v2.1h8.6
		c0.3,0,0.4,0.1,0.4,0.4v13.9c0,0.3-0.1,0.4-0.4,0.4h-1.8c-0.3,0-0.4-0.1-0.4-0.4v-12.2h-6.4v12.2c0,0.3-0.1,0.4-0.4,0.4h-1.8
		c-0.3,0-0.4-0.1-0.4-0.4v-12.2h-2c-0.3,0-0.4-0.1-0.4-0.4v-1.3c0-0.3,0.1-0.4,0.4-0.4h2v-2.7c0-3,2.5-3.1,4.1-3.1
		C42.8,104.2,43.6,104.3,44.2,104.4z M50,105.7c0,1-0.5,1.6-1.6,1.6c-1,0-1.6-0.6-1.6-1.6c0-1,0.6-1.6,1.6-1.6
		C49.4,104.1,50,104.7,50,105.7z"/>
	<path class="st0" d="M60.8,110.2c0.3,0.1,0.4,0.2,0.4,0.5v1.1c0,0.3-0.2,0.4-0.4,0.4h-2.4c-1.9,0-2.4,0.3-2.4,1.5v10.7
		c0,0.3-0.1,0.4-0.4,0.4h-1.8c-0.3,0-0.4-0.1-0.4-0.4V113c0-3,2.7-3.1,4.3-3.1C58.4,109.9,60.3,110,60.8,110.2z"/>
	<path class="st0" d="M75.4,117v0.8c0,0.5-0.1,0.8-1,0.8h-8.7c0.1,3.3,0.7,4.1,3.7,4.1h4.5c0.3,0,0.4,0.1,0.4,0.4v1.2
		c0,0.2-0.1,0.4-0.4,0.4c-1.4,0.2-2.9,0.2-4.6,0.2c-5.2,0-6.3-1.5-6.3-7.5s1.1-7.5,6.3-7.5C74.2,109.9,75.4,111.3,75.4,117z
		 M65.7,116.4h7.1c-0.1-3.4-0.6-4.3-3.5-4.3C66.3,112.1,65.7,113,65.7,116.4z"/>
	<path class="st0" d="M85.7,104.4c0.2,0.1,0.4,0.2,0.4,0.4v1.2c0,0.3-0.1,0.4-0.4,0.4h-1.2c-1.6,0-2.3,0.1-2.3,1.5v2.1h8.6
		c0.3,0,0.4,0.1,0.4,0.4v13.9c0,0.3-0.1,0.4-0.4,0.4H89c-0.3,0-0.4-0.1-0.4-0.4v-12.2h-6.4v12.2c0,0.3-0.1,0.4-0.4,0.4h-1.8
		c-0.3,0-0.4-0.1-0.4-0.4v-12.2h-2c-0.3,0-0.4-0.1-0.4-0.4v-1.3c0-0.3,0.1-0.4,0.4-0.4h2v-2.7c0-3,2.5-3.1,4.1-3.1
		C84.3,104.2,85.1,104.3,85.7,104.4z M91.5,105.7c0,1-0.5,1.6-1.6,1.6c-1,0-1.6-0.6-1.6-1.6c0-1,0.6-1.6,1.6-1.6
		C90.9,104.1,91.5,104.7,91.5,105.7z"/>
	<path class="st0" d="M106.6,110.3c0.3,0,0.4,0.2,0.4,0.5v12.6c0,5.3-1.1,6.8-6.3,6.8c-1.1,0-2.6-0.1-4-0.2c-0.2,0-0.4-0.2-0.4-0.4
		v-1.2c0-0.3,0.1-0.4,0.4-0.4h3.9c3.1,0,3.8-0.7,3.8-3.1v-0.2c-1.2,0.2-2.3,0.2-3.6,0.2c-5.2,0-6.3-1.5-6.3-7.5
		c0-5.9,1.1-7.5,6.4-7.5C103.6,109.9,105.4,110.1,106.6,110.3z M100.9,112.1c-3.4,0-3.8,1-3.8,5.2c0,4.2,0.4,5.2,3.8,5.2
		c1.1,0,2.4-0.1,3.5-0.2v-10.3H100.9z"/>
	<path class="st0" d="M113.1,104.4c0.3,0,0.4,0.1,0.4,0.4v5.2c1.3-0.1,2.7-0.1,3.5-0.1c4.9,0,6.4,0.6,6.4,6.3v8.2
		c0,0.3-0.1,0.4-0.4,0.4h-1.8c-0.3,0-0.4-0.1-0.4-0.4v-7.9c0-4.1-0.8-4.3-3.5-4.3h-3.8v12.2c0,0.3-0.1,0.4-0.4,0.4h-1.8
		c-0.3,0-0.4-0.1-0.4-0.4v-19.5c0-0.3,0.1-0.4,0.4-0.4H113.1z"/>
	<path class="st0" d="M129.9,105.9c0.3-0.1,0.5,0.1,0.5,0.3v3.7h2.9c0.3,0,0.4,0.1,0.4,0.4v1.3c0,0.3-0.1,0.4-0.4,0.4h-2.9v9
		c0,1.2,0.3,1.5,1.8,1.5h1.3c0.3,0,0.4,0.1,0.4,0.4v1.3c0,0.2-0.1,0.4-0.4,0.4c-0.5,0.1-1.3,0.2-1.5,0.2c-2,0-4.2,0-4.2-3.1v-9.7
		h-1.5c-0.3,0-0.4-0.1-0.4-0.4v-1.3c0-0.3,0.1-0.4,0.4-0.4h1.5v-3.2c0-0.3,0.1-0.4,0.4-0.4L129.9,105.9z"/>
	<path class="st0" d="M148.4,117v0.8c0,0.5-0.1,0.8-1,0.8h-8.7c0.1,3.3,0.7,4.1,3.7,4.1h4.5c0.3,0,0.4,0.1,0.4,0.4v1.2
		c0,0.2-0.1,0.4-0.4,0.4c-1.4,0.2-2.9,0.2-4.6,0.2c-5.2,0-6.3-1.5-6.3-7.5s1.1-7.5,6.3-7.5C147.1,109.9,148.3,111.3,148.4,117z
		 M138.6,116.4h7.1c-0.1-3.4-0.6-4.3-3.5-4.3C139.3,112.1,138.7,113,138.6,116.4z"/>
	<path class="st0" d="M158.7,110.2c0.3,0.1,0.4,0.2,0.4,0.5v1.1c0,0.3-0.2,0.4-0.4,0.4h-2.4c-1.9,0-2.4,0.3-2.4,1.5v10.7
		c0,0.3-0.1,0.4-0.4,0.4h-1.8c-0.3,0-0.4-0.1-0.4-0.4V113c0-3,2.7-3.1,4.3-3.1C156.3,109.9,158.2,110,158.7,110.2z"/>
</g>
<g>
	<path class="st0" d="M134.4,41.1c-0.9-0.2-1.9-0.4-2.9-0.4c-1.2,0-2.6,0.2-3.9,0.5c-1,0.3-2,0.6-3,1.1c-3.6,1.8-7.9,1.9-7.9,1.9
		s-4.2-0.1-7.9-1.9c-1-0.5-2-0.9-3-1.1c-1.3-0.4-2.7-0.5-3.9-0.5c-1.1,0-2.1,0.1-3,0.4c-0.5,0.1-0.8,0.6-0.7,1.1
		c0.1,1.7,0.4,5.6,5.7,9.6v-5.5c0,0,1.2,0.4,2,1V51c0,5.9,4.8,10.8,10.8,10.8h0c5.9,0,10.8-4.8,10.8-10.8v-3.9c0.9-0.6,1.9-1,1.9-1
		v5.5c5.3-4,5.6-7.9,5.7-9.6C135.2,41.6,134.9,41.2,134.4,41.1z"/>
	<path class="st0" d="M119.1,27.1h-4.9c-0.6,0-1,0.5-1,1v1c-4.2,1.1-7.4,4.9-7.4,9.5v0.4c1.2,0.3,2.4,0.7,3.6,1.3
		c3.2,1.6,6.9,1.8,7.3,1.8c0.4,0,4.1-0.2,7.3-1.8c1.1-0.6,2.3-1,3.6-1.3v-0.4c0-4.6-3.2-8.4-7.4-9.5v-1
		C120.1,27.6,119.7,27.1,119.1,27.1z M116.7,37.8c-1.3,0-2.4-1.1-2.4-2.4c0-0.3,0.1-0.6,0.2-0.9c0.4-0.9,1.2-1.5,2.2-1.5
		c1,0,1.9,0.6,2.2,1.5c0.1,0.3,0.2,0.6,0.2,0.9C119.1,36.7,118,37.8,116.7,37.8z"/>
	<path class="st0" d="M119.5,63.8h-5.7c-7.4,0-13.3,6-13.3,13.3l0,0h32.4l0,0C132.9,69.8,126.9,63.8,119.5,63.8z"/>
</g>
<path class="st0" d="M93.8,65.3c-0.4-0.1-0.8-0.2-1.3-0.2c-3.4,0-7,4.2-9.6,8.2c-0.4-3-1.7-6.2-3.2-9.9l-0.7-1.7
	c-2.2-5.5-0.4-11.7,1.7-15.3c0.2-0.4,0.2-0.8,0-1.2c-0.2-0.3-0.7-0.5-1.1-0.4c-8.1,1.8-14.9,12.7-15.3,23.7c-1-0.9-2-1.5-2.9-2.1
	c-2-1.2-3.3-1.9-2.9-5.6c0-0.5-0.2-0.9-0.7-1.1c-0.5-0.2-1,0-1.2,0.4c-7.9,12.5-3,32.2,6.5,38.3c0.4,0.3,1,0.2,1.4-0.2
	c0.2-0.2,0.3-0.7,0.2-1c-0.3-1.9-1.1-7.3-0.4-11.3c0.5,0.5,1,0.8,1.5,1.1c0.9,0.5,1.7,0.9,2.1,2.3c0.1,0.4,0.5,0.6,0.8,0.7
	c0.4,0,0.8-0.1,1-0.4c1-1.4,1.5-3.6,2-5.9c0.6-3.1,1.3-6.2,3.2-7.7c-0.8,2.3-1,5,0,7.6l0.4,1c1.2,3,2.1,5.1,1.6,7.1
	c-0.1,0.5,0.2,1.1,0.7,1.2c0.5,0.2,1.1,0,1.3-0.5c0.9-1.9,2.2-3.6,3.3-4.7c-0.4,1.5-0.6,3.2-0.8,5c-0.2,1.9-0.4,3.9-0.9,5.6
	c-0.1,0.4,0,0.9,0.4,1.1c0.2,0.1,0.4,0.2,0.6,0.2c0.2,0,0.4-0.1,0.6-0.2c1.6-1,2.9-2.4,4-4c3.2-4.7,3.8-10.8,4.3-16.3
	c0.5-5.1,0.9-9.9,3.5-12.3c0.3-0.3,0.4-0.6,0.3-1C94.4,65.7,94.1,65.4,93.8,65.3z"/>
<path class="st1" d="M26.8,6.6c0,0-19.2,0-19.2,19.2V125c0,0,0,19.2,19.2,19.2h139.4c0,0,19.2,0,19.2-19.2V25.8
	c0,0,0-19.2-19.2-19.2H26.8z"/>
</svg>
