<svg version="1.1" id="Ebene_2" xmlns="http://www.w3.org/2000/svg" x="0" y="0" viewBox="0 0 191.8 150" xml:space="preserve"><style>.st0{fill:#0b395d}</style><path class="st0" d="M44.2 104.4c.2.1.4.2.4.4v1.2c0 .3-.1.4-.4.4H43c-1.6 0-2.3.1-2.3 1.5v2.1h8.6c.3 0 .4.1.4.4v13.9c0 .3-.1.4-.4.4h-1.8c-.3 0-.4-.1-.4-.4v-12.2h-6.4v12.2c0 .3-.1.4-.4.4h-1.8c-.3 0-.4-.1-.4-.4v-12.2h-2c-.3 0-.4-.1-.4-.4v-1.3c0-.3.1-.4.4-.4h2v-2.7c0-3 2.5-3.1 4.1-3.1.6 0 1.4.1 2 .2zm5.8 1.3c0 1-.5 1.6-1.6 1.6-1 0-1.6-.6-1.6-1.6s.6-1.6 1.6-1.6 1.6.6 1.6 1.6zM60.8 110.2c.3.1.4.2.4.5v1.1c0 .3-.2.4-.4.4h-2.4c-1.9 0-2.4.3-2.4 1.5v10.7c0 .3-.1.4-.4.4h-1.8c-.3 0-.4-.1-.4-.4V113c0-3 2.7-3.1 4.3-3.1.7 0 2.6.1 3.1.3zM75.4 117v.8c0 .5-.1.8-1 .8h-8.7c.1 3.3.7 4.1 3.7 4.1h4.5c.3 0 .4.1.4.4v1.2c0 .2-.1.4-.4.4-1.4.2-2.9.2-4.6.2-5.2 0-6.3-1.5-6.3-7.5s1.1-7.5 6.3-7.5c4.9 0 6.1 1.4 6.1 7.1zm-9.7-.6h7.1c-.1-3.4-.6-4.3-3.5-4.3-3 0-3.6.9-3.6 4.3zM85.7 104.4c.2.1.4.2.4.4v1.2c0 .3-.1.4-.4.4h-1.2c-1.6 0-2.3.1-2.3 1.5v2.1h8.6c.3 0 .4.1.4.4v13.9c0 .3-.1.4-.4.4H89c-.3 0-.4-.1-.4-.4v-12.2h-6.4v12.2c0 .3-.1.4-.4.4H80c-.3 0-.4-.1-.4-.4v-12.2h-2c-.3 0-.4-.1-.4-.4v-1.3c0-.3.1-.4.4-.4h2v-2.7c0-3 2.5-3.1 4.1-3.1.6 0 1.4.1 2 .2zm5.8 1.3c0 1-.5 1.6-1.6 1.6-1 0-1.6-.6-1.6-1.6s.6-1.6 1.6-1.6 1.6.6 1.6 1.6zM106.6 110.3c.3 0 .4.2.4.5v12.6c0 5.3-1.1 6.8-6.3 6.8-1.1 0-2.6-.1-4-.2-.2 0-.4-.2-.4-.4v-1.2c0-.3.1-.4.4-.4h3.9c3.1 0 3.8-.7 3.8-3.1v-.2c-1.2.2-2.3.2-3.6.2-5.2 0-6.3-1.5-6.3-7.5 0-5.9 1.1-7.5 6.4-7.5 2.7 0 4.5.2 5.7.4zm-5.7 1.8c-3.4 0-3.8 1-3.8 5.2s.4 5.2 3.8 5.2c1.1 0 2.4-.1 3.5-.2V112h-3.5zM113.1 104.4c.3 0 .4.1.4.4v5.2c1.3-.1 2.7-.1 3.5-.1 4.9 0 6.4.6 6.4 6.3v8.2c0 .3-.1.4-.4.4h-1.8c-.3 0-.4-.1-.4-.4v-7.9c0-4.1-.8-4.3-3.5-4.3h-3.8v12.2c0 .3-.1.4-.4.4h-1.8c-.3 0-.4-.1-.4-.4v-19.5c0-.3.1-.4.4-.4h1.8zM129.9 105.9c.3-.1.5.1.5.3v3.7h2.9c.3 0 .4.1.4.4v1.3c0 .3-.1.4-.4.4h-2.9v9c0 1.2.3 1.5 1.8 1.5h1.3c.3 0 .4.1.4.4v1.3c0 .2-.1.4-.4.4-.5.1-1.3.2-1.5.2-2 0-4.2 0-4.2-3.1V112h-1.5c-.3 0-.4-.1-.4-.4v-1.3c0-.3.1-.4.4-.4h1.5v-3.2c0-.3.1-.4.4-.4l1.7-.4zM148.4 117v.8c0 .5-.1.8-1 .8h-8.7c.1 3.3.7 4.1 3.7 4.1h4.5c.3 0 .4.1.4.4v1.2c0 .2-.1.4-.4.4-1.4.2-2.9.2-4.6.2-5.2 0-6.3-1.5-6.3-7.5s1.1-7.5 6.3-7.5c4.8 0 6 1.4 6.1 7.1zm-9.8-.6h7.1c-.1-3.4-.6-4.3-3.5-4.3s-3.5.9-3.6 4.3zM158.7 110.2c.3.1.4.2.4.5v1.1c0 .3-.2.4-.4.4h-2.4c-1.9 0-2.4.3-2.4 1.5v10.7c0 .3-.1.4-.4.4h-1.8c-.3 0-.4-.1-.4-.4V113c0-3 2.7-3.1 4.3-3.1.7 0 2.6.1 3.1.3z"/><g><path class="st0" d="M134.4 41.1c-.9-.2-1.9-.4-2.9-.4-1.2 0-2.6.2-3.9.5-1 .3-2 .6-3 1.1-3.6 1.8-7.9 1.9-7.9 1.9s-4.2-.1-7.9-1.9c-1-.5-2-.9-3-1.1-1.3-.4-2.7-.5-3.9-.5-1.1 0-2.1.1-3 .4-.5.1-.8.6-.7 1.1.1 1.7.4 5.6 5.7 9.6v-5.5s1.2.4 2 1V51c0 5.9 4.8 10.8 10.8 10.8 5.9 0 10.8-4.8 10.8-10.8v-3.9c.9-.6 1.9-1 1.9-1v5.5c5.3-4 5.6-7.9 5.7-9.6.1-.4-.2-.8-.7-.9z"/><path class="st0" d="M119.1 27.1h-4.9c-.6 0-1 .5-1 1v1c-4.2 1.1-7.4 4.9-7.4 9.5v.4c1.2.3 2.4.7 3.6 1.3 3.2 1.6 6.9 1.8 7.3 1.8.4 0 4.1-.2 7.3-1.8 1.1-.6 2.3-1 3.6-1.3v-.4c0-4.6-3.2-8.4-7.4-9.5v-1c-.1-.5-.5-1-1.1-1zm-2.4 10.7c-1.3 0-2.4-1.1-2.4-2.4 0-.3.1-.6.2-.9.4-.9 1.2-1.5 2.2-1.5 1 0 1.9.6 2.2 1.5.1.3.2.6.2.9 0 1.3-1.1 2.4-2.4 2.4zM119.5 63.8h-5.7c-7.4 0-13.3 6-13.3 13.3h32.4c0-7.3-6-13.3-13.4-13.3z"/></g><path class="st0" d="M93.8 65.3c-.4-.1-.8-.2-1.3-.2-3.4 0-7 4.2-9.6 8.2-.4-3-1.7-6.2-3.2-9.9l-.7-1.7c-2.2-5.5-.4-11.7 1.7-15.3.2-.4.2-.8 0-1.2-.2-.3-.7-.5-1.1-.4-8.1 1.8-14.9 12.7-15.3 23.7-1-.9-2-1.5-2.9-2.1-2-1.2-3.3-1.9-2.9-5.6 0-.5-.2-.9-.7-1.1-.5-.2-1 0-1.2.4-7.9 12.5-3 32.2 6.5 38.3.4.3 1 .2 1.4-.2.2-.2.3-.7.2-1-.3-1.9-1.1-7.3-.4-11.3.5.5 1 .8 1.5 1.1.9.5 1.7.9 2.1 2.3.1.4.5.6.8.7.4 0 .8-.1 1-.4 1-1.4 1.5-3.6 2-5.9.6-3.1 1.3-6.2 3.2-7.7-.8 2.3-1 5 0 7.6l.4 1c1.2 3 2.1 5.1 1.6 7.1-.1.5.2 1.1.7 1.2.5.2 1.1 0 1.3-.5.9-1.9 2.2-3.6 3.3-4.7-.4 1.5-.6 3.2-.8 5-.2 1.9-.4 3.9-.9 5.6-.1.4 0 .9.4 1.1.2.1.4.2.6.2.2 0 .4-.1.6-.2 1.6-1 2.9-2.4 4-4 3.2-4.7 3.8-10.8 4.3-16.3.5-5.1.9-9.9 3.5-12.3.3-.3.4-.6.3-1 .2-.1-.1-.4-.4-.5z"/><path d="M26.8 6.6S7.6 6.6 7.6 25.8V125s0 19.2 19.2 19.2h139.4s19.2 0 19.2-19.2V25.8s0-19.2-19.2-19.2H26.8z" fill="none" stroke="#0b395d" stroke-width="2.47"/></svg>