<svg id="Ebene_1" data-name="Ebene 1" xmlns="http://www.w3.org/2000/svg" viewBox="0 0 512 512"><defs><style>.cls-1{fill:#101820;}.cls-2{fill:#1d1d1b;}</style></defs><path class="cls-1" d="M180.09,155.54l-27.3,36H107.48s-42.6,9-31.8,47.4c0,0,10.2,22.8,36,22.8H216.09l-28.2,35.41H98.48s-69-15-67.2-74.41c0,0-3.6-58.2,75-67.2Z"/><path class="cls-1" d="M161.49,192.14l28.2-36.6H475.3l-27.6,36.6H340.9s-19.8,13.8,1.8,21h99.6s37.81-1.2,36.61,48.6c0,0-3,34.81-52.81,35.41H320.21l-32.72-34.81,141.61-.6s21.6-15,.6-21.6H328.9s-44.41-10.2-37.21-47.4l-21-.6v105h-43.2l.6-105Z"/><path class="cls-2" d="M65,339.22l-2.28,2.65a8.29,8.29,0,0,0-5.77-2.49c-4.36,0-7.94,3.32-7.94,14.79C49,365.23,52.42,369,57,369a8.23,8.23,0,0,0,5.86-2.7l2.39,2.55a11.16,11.16,0,0,1-8.36,3.89c-7.26,0-12.51-5.81-12.51-18.53S50,335.79,56.83,335.79A11.17,11.17,0,0,1,65,339.22Z"/><path class="cls-2" d="M92.39,354.22c0,12.56-4.88,18.48-12.46,18.48S67.47,367,67.47,354.27c0-12.51,5-18.48,12.46-18.48S92.39,341.45,92.39,354.22Zm-20.35,0c0,11,3.17,14.8,7.89,14.8,4.93,0,7.89-3.79,7.89-14.85s-3-14.84-7.89-14.84S72,343.32,72,354.27Z"/><path class="cls-2" d="M119.59,372.08h-5.77l-11.47-30.84a129.4,129.4,0,0,1,.63,13.29v17.55h-4V336.36h5.76l11.47,30.89a88.52,88.52,0,0,1-.62-10.69v-20.2h4Z"/><path class="cls-2" d="M144.87,340h-8.05v32.08h-4.31V340h-8.25v-3.64h21.12Z"/><path class="cls-2" d="M161.11,362.84h-11l-2.18,9.24h-4.31L153,336.36h5.4l9.35,35.72h-4.42Zm-.83-3.48L155.61,340,151,359.36Z"/><path class="cls-2" d="M195.11,354.22c0,12.56-4.88,18.48-12.46,18.48s-12.46-5.71-12.46-18.43c0-12.51,5-18.48,12.46-18.48S195.11,341.45,195.11,354.22Zm-20.35,0c0,11,3.17,14.8,7.89,14.8,4.93,0,7.89-3.79,7.89-14.85s-3-14.84-7.89-14.84S174.76,343.32,174.76,354.27Z"/><path class="cls-2" d="M229.89,340h-8v32.08h-4.31V340h-8.25v-3.64h21.13Z"/><path class="cls-2" d="M251.07,355.1H239.13v17h-4.31V336.36h4.31v15.16h11.94V336.36h4.36v35.72h-4.36Z"/><path class="cls-2" d="M279.25,339.89H267.93v12.2h9.82v3.48h-9.82v13h12v3.53h-16.3V336.36h16.1Z"/><path class="cls-2" d="M313.15,372.08h-4.1l-1-16.46c-.37-5.6-.68-11.78-.68-14.84L301.05,368H297l-6.59-27.26c.1,4-.16,9.87-.47,15.16l-.93,16.2h-4.1l2.49-35.72H293l6.08,26.53,5.76-26.53h5.81Z"/><path class="cls-2" d="M335.78,339.89H324.46v12.2h9.81v3.48h-9.81v13h12v3.53h-16.3V336.36h16.09Z"/><path class="cls-2" d="M358.62,339.84l-2.29,2.49a9.1,9.1,0,0,0-6.64-2.95,5,5,0,0,0-5.19,5.34c0,3.06,1.29,4.83,6.43,6.75s8.57,4.57,8.57,10.74A10.19,10.19,0,0,1,349,372.7a12.73,12.73,0,0,1-10.07-4.62l2.34-2.44c2.18,2,4.46,3.43,7.63,3.43,3.68,0,6.12-2.6,6.12-6.75,0-3.48-1.35-5.4-6.28-7.27-6-2.23-8.62-5.24-8.62-10.12,0-5.09,3.95-9.14,9.55-9.14A11.5,11.5,0,0,1,358.62,339.84Z"/><path class="cls-2" d="M393.08,339.84l-2.28,2.49a9.11,9.11,0,0,0-6.65-2.95,5,5,0,0,0-5.19,5.34c0,3.06,1.3,4.83,6.44,6.75S394,356,394,362.21a10.18,10.18,0,0,1-10.53,10.49,12.71,12.71,0,0,1-10.07-4.62l2.33-2.44c2.18,2,4.47,3.43,7.63,3.43,3.69,0,6.13-2.6,6.13-6.75,0-3.48-1.35-5.4-6.28-7.27-6-2.23-8.62-5.24-8.62-10.12,0-5.09,3.94-9.14,9.55-9.14A11.49,11.49,0,0,1,393.08,339.84Z"/><path class="cls-2" d="M416.08,355.1H404.14v17h-4.31V336.36h4.31v15.16h11.94V336.36h4.36v35.72h-4.36Z"/><path class="cls-2" d="M451.89,354.22c0,12.56-4.88,18.48-12.46,18.48S427,367,427,354.27c0-12.51,5-18.48,12.46-18.48S451.89,341.45,451.89,354.22Zm-20.35,0c0,11,3.17,14.8,7.89,14.8,4.94,0,7.89-3.79,7.89-14.85s-2.95-14.84-7.89-14.84S431.54,343.32,431.54,354.27Z"/><path class="cls-2" d="M477.79,347.32c0,7.94-4.77,11.37-12.61,11.37h-2.44v13.39h-4.31V336.36h6.64C473.48,336.36,477.79,340.1,477.79,347.32Zm-4.57.05c0-5.4-2.59-7.53-8-7.53h-2.44v15.37h2.44C470.47,355.21,473.22,353.44,473.22,347.37Z"/></svg>