<svg xmlns="http://www.w3.org/2000/svg" viewBox="0 0 459.5 123.334"><path fill="#414652" d="M139.947 35.331c.017.018.044.026.08.026 0-.106-.025-.162-.08-.162l5.529-.025 5.341 6.362h4.295v-1.423l-4.188-4.939h.188c1.091 0 2.032-.39 2.819-1.168.787-.779 1.181-1.712 1.181-2.805v-4.993c0-1.091-.394-2.028-1.181-2.803-.787-.779-1.728-1.168-2.819-1.168h-15.327v19.299h4.162v-6.201zm0-8.938h10.951v4.591h-10.951v-4.591zm33.311-4.187h-11.381c-1.11 0-2.05.385-2.818 1.153-.77.771-1.155 1.71-1.155 2.818V37.56c0 1.108.385 2.049 1.155 2.816.769.771 1.708 1.156 2.818 1.156h11.381c1.091 0 2.027-.39 2.805-1.168.778-.778 1.167-1.715 1.167-2.805V26.178c0-1.092-.388-2.027-1.167-2.805-.778-.779-1.713-1.167-2.805-1.167zm-.241 15.139h-10.952V26.393h10.952v10.952zm8.32 3.031c-.769-.768-1.155-1.708-1.155-2.816V26.178c0-1.108.386-2.048 1.155-2.818.77-.769 1.708-1.153 2.818-1.153h15.3v4.187h-15.112v10.952h15.112v4.188h-15.3c-1.11-.002-2.049-.388-2.818-1.158zm35.244-18.17h4.349v1.448l-6.9 8.214 6.9 8.217v1.447h-4.349l-6.335-7.57h-3.785v7.57h-4.187V22.206h4.187v7.568h3.785l2.416-2.872 3.919-4.696zm8.092 18.17c-.778-.768-1.167-1.708-1.167-2.816v-1.799h4.16v1.584h10.952v-3.383H227.48a3.845 3.845 0 0 1-2.806-1.155c-.778-.768-1.167-1.707-1.167-2.818v-3.811c0-1.108.389-2.048 1.167-2.818a3.847 3.847 0 0 1 2.806-1.153h11.38c1.091 0 2.026.388 2.804 1.167.778.777 1.168 1.713 1.168 2.805v1.799h-4.214v-1.584h-10.952v3.382h11.194c1.091 0 2.026.389 2.804 1.168.778.777 1.168 1.713 1.168 2.805v3.812c0 1.09-.39 2.026-1.168 2.805-.777.778-1.713 1.168-2.804 1.168h-11.38c-1.094-.002-2.028-.388-2.807-1.158zm36.331-18.17h-11.381c-1.11 0-2.049.385-2.819 1.153-.769.771-1.154 1.71-1.154 2.818V37.56c0 1.108.385 2.049 1.154 2.816.77.771 1.709 1.156 2.819 1.156h11.381c1.091 0 2.026-.39 2.806-1.168.778-.778 1.167-1.715 1.167-2.805V26.178c0-1.092-.389-2.027-1.167-2.805-.78-.779-1.715-1.167-2.806-1.167zm-.242 15.139h-10.951V26.393h10.951v10.952zm26.52 4.187h-19.327V22.178h4.162v15.167h15.165v4.187zm5.771 0h-4.188V22.206h4.188v19.326zm20.977-1.168c.778-.778 1.167-1.715 1.167-2.805V26.178c0-1.092-.389-2.027-1.167-2.805-.779-.779-1.722-1.167-2.833-1.167h-15.326v19.326h15.326c1.111 0 2.054-.389 2.833-1.168zm-3.047-3.019h-10.951V26.393h10.951v10.952zM166.457 49.41H143.75c-2.22 0-4.099.768-5.638 2.306-1.539 1.541-2.308 3.418-2.308 5.639V88.06h8.321V75.607h21.903V88.06h8.429V57.354c0-2.184-.778-4.052-2.335-5.612-1.559-1.555-3.447-2.332-5.665-2.332zm-.43 17.822h-21.903v-9.448h21.903v9.448zM210.8 49.41h8.428v38.65h-8.588l-21.743-25.874V88.06h-8.32V49.41h8.589L210.8 75.178V49.41zm12.507 0h38.653v8.374h-15.139V88.06h-8.375V57.784h-15.14V49.41zm42.733 0h8.375v38.65h-8.375V49.41zm49.953 2.332c1.556 1.561 2.334 3.429 2.334 5.612v3.596H309.9v-3.166h-21.904v6.763h22.386c2.183 0 4.054.778 5.611 2.336 1.556 1.558 2.334 3.427 2.334 5.61v7.623c0 2.185-.778 4.053-2.334 5.61-1.558 1.557-3.428 2.333-5.611 2.333H287.62c-2.183 0-4.053-.769-5.609-2.307-1.557-1.538-2.335-3.418-2.335-5.637v-3.598h8.32v3.168H309.9V72.92h-22.28c-2.183 0-4.053-.77-5.609-2.308-1.557-1.538-2.335-3.418-2.335-5.638v-7.622c0-2.221.778-4.098 2.335-5.639 1.556-1.538 3.426-2.306 5.609-2.306h22.761c2.183.003 4.054.78 5.612 2.335zm38.733-2.278h-30.654V88.06h8.321v-12.4c.035.036.088.056.161.056 0-.217-.055-.324-.161-.324l22.333-.054c2.182 0 4.06-.776 5.636-2.336 1.574-1.557 2.363-3.425 2.363-5.609v-9.985c0-2.183-.789-4.053-2.363-5.61-1.576-1.56-3.455-2.334-5.636-2.334zm-.431 17.5h-21.903v-9.18h21.903v9.18zm43-17.554h-22.708c-2.218 0-4.098.768-5.636 2.306-1.54 1.541-2.309 3.418-2.309 5.639V88.06h8.32V75.607h21.904V88.06h8.429V57.354c0-2.184-.78-4.052-2.336-5.612-1.557-1.555-3.444-2.332-5.664-2.332zm-.429 17.822h-21.904v-9.448h21.904v9.448zm57.926-17.822v38.65h-8.376V62.133l-13.312 15.888-13.368-15.835V88.06h-8.321V49.41h8.588l13.1 15.619 13.045-15.619h8.644zM112.99 39.573V18.139l-4.707-.735c-6.149-.965-13.118-2.061-20.766-2.584l-3.402-.231v13.805h-9.838v-13.8l-3.1-.083a439.68 439.68 0 0 0-22.595-.022l-3.107.076v13.829H35.49V14.55l-3.396.223c-8.103.539-15.438 1.686-21.909 2.696l-4.297.67V87.65l53.551 27.525 53.55-27.525V39.581l.001-.008zm-6.368 38.716L79.367 62.803l27.254-17.472.001 32.958zM29.121 21.395v13.37h22.723V20.791c5.36-.093 10.764-.088 16.062.016v13.958h22.578V21.451c5.806.535 11.23 1.369 16.138 2.139v14.175L72.175 59.848c-3.626 2.241-9.967 5.397-12.735 5.397-2.769 0-9.113-3.156-12.737-5.398L12.259 37.763V23.59c5.126-.798 10.783-1.656 16.862-2.195zM12.259 45.331l27.253 17.473-27.253 15.485V45.331zm.261 38.566 31.782-18.059c2.915 1.725 10.276 5.774 15.139 5.774 4.863 0 12.225-4.05 15.139-5.775l31.782 18.06-46.92 24.115L12.52 83.897z"/></svg>