<svg version="1.1" xmlns="http://www.w3.org/2000/svg" viewBox="0 0 459.5 123.334">
<path style="fill:#414652;" d="M139.947,35.331c0.017,0.018,0.044,0.026,0.08,0.026c0-0.106-0.025-0.162-0.08-0.162l5.529-0.025
	l5.341,6.362h4.295v-1.423l-4.188-4.939h0.188c1.091,0,2.032-0.39,2.819-1.168c0.787-0.779,1.181-1.712,1.181-2.805v-4.993
	c0-1.091-0.394-2.028-1.181-2.803c-0.787-0.779-1.728-1.168-2.819-1.168h-15.327v19.299h4.162V35.331z M139.947,26.393h10.951v4.591
	h-10.951V26.393z M173.258,22.206h-11.381c-1.11,0-2.05,0.385-2.818,1.153c-0.77,0.771-1.155,1.71-1.155,2.818V37.56
	c0,1.108,0.385,2.049,1.155,2.816c0.769,0.771,1.708,1.156,2.818,1.156h11.381c1.091,0,2.027-0.39,2.805-1.168
	c0.778-0.778,1.167-1.715,1.167-2.805V26.178c0-1.092-0.388-2.027-1.167-2.805C175.285,22.594,174.35,22.206,173.258,22.206z
	 M173.017,37.345h-10.952V26.393h10.952V37.345z M181.337,40.376c-0.769-0.768-1.155-1.708-1.155-2.816V26.178
	c0-1.108,0.386-2.048,1.155-2.818c0.77-0.769,1.708-1.153,2.818-1.153h15.3v4.187h-15.112v10.952h15.112v4.188h-15.3
	C183.045,41.532,182.106,41.146,181.337,40.376z M216.581,22.206h4.349v1.448l-6.9,8.214l6.9,8.217v1.447h-4.349l-6.335-7.57h-3.785
	v7.57h-4.187V22.206h4.187v7.568h3.785l2.416-2.872L216.581,22.206z M224.673,40.376c-0.778-0.768-1.167-1.708-1.167-2.816v-1.799
	h4.16v1.584h10.952v-3.383h-11.138c-1.093,0-2.028-0.385-2.806-1.155c-0.778-0.768-1.167-1.707-1.167-2.818v-3.811
	c0-1.108,0.389-2.048,1.167-2.818c0.778-0.769,1.713-1.153,2.806-1.153h11.38c1.091,0,2.026,0.388,2.804,1.167
	c0.778,0.777,1.168,1.713,1.168,2.805v1.799h-4.214v-1.584h-10.952v3.382h11.194c1.091,0,2.026,0.389,2.804,1.168
	c0.778,0.777,1.168,1.713,1.168,2.805v3.812c0,1.09-0.39,2.026-1.168,2.805c-0.777,0.778-1.713,1.168-2.804,1.168h-11.38
	C226.386,41.532,225.452,41.146,224.673,40.376z M261.004,22.206h-11.381c-1.11,0-2.049,0.385-2.819,1.153
	c-0.769,0.771-1.154,1.71-1.154,2.818V37.56c0,1.108,0.385,2.049,1.154,2.816c0.77,0.771,1.709,1.156,2.819,1.156h11.381
	c1.091,0,2.026-0.39,2.806-1.168c0.778-0.778,1.167-1.715,1.167-2.805V26.178c0-1.092-0.389-2.027-1.167-2.805
	C263.03,22.594,262.095,22.206,261.004,22.206z M260.762,37.345h-10.951V26.393h10.951V37.345z M287.282,41.532h-19.327V22.178
	h4.162v15.167h15.165V41.532z M293.053,41.532h-4.188V22.206h4.188V41.532z M314.03,40.364c0.778-0.778,1.167-1.715,1.167-2.805
	V26.178c0-1.092-0.389-2.027-1.167-2.805c-0.779-0.779-1.722-1.167-2.833-1.167h-15.326v19.326h15.326
	C312.308,41.532,313.251,41.143,314.03,40.364z M310.983,37.345h-10.951V26.393h10.951V37.345z M166.457,49.41H143.75
	c-2.22,0-4.099,0.768-5.638,2.306c-1.539,1.541-2.308,3.418-2.308,5.639V88.06h8.321V75.607h21.903V88.06h8.429V57.354
	c0-2.184-0.778-4.052-2.335-5.612C170.563,50.187,168.675,49.41,166.457,49.41z M166.027,67.232h-21.903v-9.448h21.903V67.232z
	 M210.8,49.41h8.428V88.06h-8.588l-21.743-25.874V88.06h-8.32V49.41h8.589L210.8,75.178V49.41z M223.307,49.41h38.653v8.374h-15.139
	V88.06h-8.375V57.784h-15.14V49.41z M266.04,49.41h8.375V88.06h-8.375V49.41z M315.993,51.742c1.556,1.561,2.334,3.429,2.334,5.612
	v3.596h-8.427v-3.166h-21.904v6.763h22.386c2.183,0,4.054,0.778,5.611,2.336c1.556,1.558,2.334,3.427,2.334,5.61v7.623
	c0,2.185-0.778,4.053-2.334,5.61c-1.558,1.557-3.428,2.333-5.611,2.333H287.62c-2.183,0-4.053-0.769-5.609-2.307
	c-1.557-1.538-2.335-3.418-2.335-5.637v-3.598h8.32v3.168h21.904v-6.765H287.62c-2.183,0-4.053-0.77-5.609-2.308
	c-1.557-1.538-2.335-3.418-2.335-5.638v-7.622c0-2.221,0.778-4.098,2.335-5.639c1.556-1.538,3.426-2.306,5.609-2.306h22.761
	C312.564,49.41,314.435,50.187,315.993,51.742z M354.726,49.464h-30.654V88.06h8.321V75.66c0.035,0.036,0.088,0.056,0.161,0.056
	c0-0.217-0.055-0.324-0.161-0.324l22.333-0.054c2.182,0,4.06-0.776,5.636-2.336c1.574-1.557,2.363-3.425,2.363-5.609v-9.985
	c0-2.183-0.789-4.053-2.363-5.61C358.786,50.238,356.907,49.464,354.726,49.464z M354.295,66.964h-21.903v-9.18h21.903V66.964z
	 M397.295,49.41h-22.708c-2.218,0-4.098,0.768-5.636,2.306c-1.54,1.541-2.309,3.418-2.309,5.639V88.06h8.32V75.607h21.904V88.06
	h8.429V57.354c0-2.184-0.78-4.052-2.336-5.612C401.402,50.187,399.515,49.41,397.295,49.41z M396.866,67.232h-21.904v-9.448h21.904
	V67.232z M454.792,49.41V88.06h-8.376V62.133l-13.312,15.888l-13.368-15.835V88.06h-8.321V49.41h8.588l13.1,15.619l13.045-15.619
	H454.792z M112.99,39.573l0-21.434l-4.707-0.735c-6.149-0.965-13.118-2.061-20.766-2.584l-3.402-0.231v13.805h-9.838v-13.8
	l-3.1-0.083c-7.388-0.2-15.095-0.209-22.595-0.022l-3.107,0.076v13.829H35.49V14.55l-3.396,0.223
	c-8.103,0.539-15.438,1.686-21.909,2.696l-4.297,0.67v69.511l53.551,27.525l53.55-27.525l0-48.069
	C112.99,39.578,112.99,39.576,112.99,39.573z M106.622,78.289L79.367,62.803l27.254-17.472L106.622,78.289z M29.121,21.395v13.37
	h22.723V20.791c5.36-0.093,10.764-0.088,16.062,0.016v13.958h22.578V21.451c5.806,0.535,11.23,1.369,16.138,2.139v14.175
	L72.175,59.848c-3.626,2.241-9.967,5.397-12.735,5.397c-2.769,0-9.113-3.156-12.737-5.398L12.259,37.763V23.59
	C17.385,22.792,23.042,21.934,29.121,21.395z M12.259,45.331l27.253,17.473L12.259,78.289V45.331z M12.52,83.897l31.782-18.059
	c2.915,1.725,10.276,5.774,15.139,5.774c4.863,0,12.225-4.05,15.139-5.775l31.782,18.06l-46.92,24.115L12.52,83.897z"/>
</svg>
