<svg xmlns="http://www.w3.org/2000/svg" viewBox="0 0 267.82201 103.41504"><defs><style>.cls-1{fill:#424242}.cls-1,.cls-3{fill-rule:evenodd}.cls-5{fill:#f90}.cls-3{fill:#d68000}.cls-6{fill:#fff}</style></defs><path class="cls-1" d="M.14717 114.74415h67.1963l-.042-.0137c-.1982-.0673-.4033-.124-.6054-.1787-.3106-.0771-.6241-.1474-.9375-.207l-.6397-.124c-.7353-.1221-1.4541-.21-1.9971-.2823-4.0517-.541-9.5468-1.0488-11.1875-5.5429l-3.4189-9.2901h.0024l-1.2949-3.5175a36.4205 36.4205 0 0 0-8.7959-12.9454c-3.0937-2.9296-6.6225-5.32032-9.7529-8.1894H.03347l.1137 40.291zm72.4287 0h195.21589v-40.291H74.58467a37.77915 37.77915 0 0 0 1.875 10.334c1.6973 4.6152 6.9629 16.1699 3.2735 20.78808-1.335 1.67572-3.7725 3.76362-5.0537 5.34082-.0372.0459-.0743.0928-.1094.1367a11.76485 11.76485 0 0 0-1.083 1.5391c-.0127.02338-.0254.0439-.0371.0673-.0274.0489-.0528.0977-.0782.1475-.0166.0332-.0322.0674-.0302.0615-.0118.0264-.0225.0498-.0342.0733-.0156.0332-.0293.0693-.043.1035l-.6885 1.6992z" transform="translate(0 -11.3291)" id="Balken"/><path d="M51.45627 95.461l11.041-4.0615 11.042-4.0606 1.9053 5.1826a70.69977 70.69977 0 0 1-23.8301 3.3721l-.1582-.4326zm24.4893-1.5801l1.0537 2.8623a70.714 70.714 0 0 1-23.8301 3.375l-.6943-1.8857a72.4541 72.4541 0 0 0 23.4707-4.3516zm1.5547 4.2217l.1953.5361a3.35809 3.35809 0 0 1-.3545 2.7022 70.4892 70.4892 0 0 1-22.6182 2.999l-.6943-1.8857a72.30788 72.30788 0 0 0 23.4717-4.3516zm-1.5332 5.3018c-2.0323 2.5615-5.1153 5.3232-6.1514 7.8847-4.0928-2.1396-12.9014-.9922-14.2022-4.5254l-.0302-.0879a74.9725 74.9725 0 0 0 20.3838-3.2714z" transform="translate(0 -11.3291)" fill="#f90" fill-rule="evenodd" id="Fassung"/><g id="Schatten_Fassung" data-name="Schatten Fassung"><path class="cls-3" d="M73.513 87.33885l-6.3663 2.3409q.1554 2.4447.2051 4.9189a73.34415 73.34415 0 0 0 8.0664-2.0772l-1.9052-5.1826zM75.91917 93.88085a60.989 60.989 0 0 1-8.5479 2.5459c.001.1114.001.2227.001.3321q0 1.18065-.0244 2.35438a73.00032 73.00032 0 0 0 9.625-2.37008l-1.0537-2.8623zM77.47387 98.10255a62.36949 62.36949 0 0 1-10.1836 2.8906c-.0322.876-.0732 1.751-.1279 2.62108a72.00675 72.00675 0 0 0 10.1523-2.27338 3.36587 3.36587 0 0 0 .3555-2.7022l-.1963-.5361zM75.94067 103.40435a67.579 67.579 0 0 1-8.9141 2.1504c-.0713.8876-.1504 1.7744-.2422 2.6601-.0107.0899-.0195.1836-.0283.27438-.0342.31552-.0703.63192-.1055.94532-.0322.2793-.0644.5596-.0996.8389.4004.0781.7901.1631 1.1631.25878.2949.07812.5821.15822.8565.25192.0654.0206.1308.044.1943.0665.0957.0341.1904.0683.2822.1044.0498.0206.0967.0381.1436.0567.208.0879.4092.1787.5986.2773.0381-.0937.0791-.1894.124-.2851.0079-.0186.0157-.0342.0245-.0518.0156-.0332.0322-.0703.0498-.1035.0107-.02642.0224-.0488.0341-.0723.0469-.0908.0938-.1816.1426-.2724.0205-.0362.042-.0752.0625-.1114a15.27234 15.27234 0 0 1 1.4326-2.0537c.0176-.0234.0371-.0439.0537-.0674 1.3262-1.6367 2.9747-3.289 4.2276-4.8671z" transform="translate(0 -11.3291)"/></g><path class="cls-1" d="M31.03637 64.45315a23.04592 23.04592 0 0 0 2.8052 3.1103c3.2114 3.00978 6.8984 5.4776 10.1347 8.542a43.51391 43.51391 0 0 1 8.9922 12.0049l6.4551-2.375-1.6826-4.5742a2.52718 2.52718 0 1 1 1.7431-.6426l1.6827 4.5742 6.4541-2.375-1.1348.42c.0156.1347.7578-.083.7725.0517.1543 1.3281.8662 3.4961-.3331 4.3613l5.8936-2.1679-11.041 4.06438-11.0415 4.06062c-7.6592-18.4072-20.0708-18.4151-25.6094-30.7002a20.29126 20.29126 0 0 0 5.9092 1.6455z" transform="translate(0 -11.3291)" id="Birne"/><path d="M68.87087 54.67485c-.4932 4.372-1.7032 8.6435-2.1827 13.0752a43.54814 43.54814 0 0 0 .9327 14.9677l-1.1348.42c.1738 1.4629.3232 2.93448.4394 4.413l5.8936-2.1679c-6.2344-19.4121 3.7871-27.39262-.668-40.8662a16.64238 16.64238 0 0 1-3.1972 5.5029 22.49774 22.49774 0 0 1-.083 4.6553z" transform="translate(0 -11.3291)" fill="#3c3c3b" fill-rule="evenodd" id="Schatten_Birne" data-name="Schatten Birne"/><g id="Hut"><path class="cls-5" d="M47.33667 44.249a3.88669 3.88669 0 0 1-3.7481 1.3896l-34.6508-.79-7.2881-.167-.022-.0107-.0225-.0098-.0205-.0098v-.0009l-.0219-.0108-.022-.0098-.0205-.0117h-.0015l-.0195-.0117-.0205-.0107-.022-.0118-.0015-.0009-.0195-.01082-.0195-.01068-.022-.0117-.001-.002-.0185-.0117-.0205-.0117-.0205-.0117-.003-.001-.0166-.0117-.0195-.0127-.0195-.0127-.0039-.002-.0157-.0117-.0205-.01272-.018-.01268-.004-.0029-.0156-.0117-.0195-.01272-.0191-.01268-.0039-.0039-.0146-.0108-.0191-.01362-.017-.01368-.0049-.0039-.0147-.0098-.018-.01462-.0181-.01368-.0054-.0039-.0127-.0117-.018-.01572-.0171-.01458-.0049-.0039-.0117-.0108-.0181-.0146-.0171-.0156-.0049-.0059-.0132-.0098-.0166-.0156-.0156-.0156L.888 44.169l-.0127-.01072-.0157-.01568-.0171-.0166-.0048-.0048-.0108-.0108-.0166-.0166-.0156-.0156-.0064-.0068-.0092-.0098-.0157-.0156-.0151-.0176-.0063-.0078-.0093-.0088-.0156-.0166-.0157-.0186-.0049-.0058-.00923-.0108-.0142-.0166-.0142-.0185-.0078-.0078-.0078-.00882-.0141-.01858-.0142-.0166-.0068-.00882-.0078-.00878-.0269-.0351-.0068-.0108-.0064-.0078-.0141-.0176-.0132-.0185-.0078-.0098-.0049-.0097a2.82891 2.82891 0 0 1-.2627-2.8125L31.407 12.834a3.48 3.48 0 0 1 3.7461-1.3906l41.9375.9556a2.83107 2.83107 0 0 1 1.6367 2.2974l.001.0141v.0093l.0019.022.002.0219.0019.01658v.00692l.001.0219.001.023v.0225l.0019.0229.001.022v.1543l-.001.0049-.0019.0234v.0225l-.001.0175v.0288l-.0029.022-.001.0181-.001.0054-.0019.0234-.001.0229-.0029.0181v.0039l-.0039.0235-.001.0234-.0029.0166v.0054l-.0039.0219-.0039.0235-.002.0195v.0039l-.0039.023-.0039.02188-.0098.04542v.0015l-.0039.022-.0019.0195-.002.0025-.0059.0234-.0048.0234-.003.0191-.0009.0024-.0069.0234-.0049.0235-.0039.0195-.0019.0025-.0059.0234-.0068.022-.0049.02048v.00142l-.0078.0235-.0049.022-.0078.0205v.0029l-.0068.022-.0157.0439v.0015l-.0156.0449-.0078.021-.001.0015-.0078.0214-.0078.02248-.0088.022-.0019.00092-.0079.022-.0097.0225-.0098.0215-.0088.0224-.0097.022-.0108.022-2.9131 2.6289-10.0332 9.0537L47.33667 44.249z" transform="translate(0 -11.3291)"/><path class="cls-5" d="M19.15457 47.58005l4.1298 11.1231c1.5035 4.043 15.9444 5.6904 27.6021 1.3623 11.6523-4.3311 21.1064-14.8496 19.6045-18.8945l-4.0196-10.8233-18.1982 16.4199a3.87853 3.87853 0 0 1-3.748 1.39068l-25.3706-.57818z" transform="translate(0 -11.3291)"/></g><path class="cls-6" d="M9.56077 40.46585l.0015 4.3965-2.6612-.0606.001-5.4844 2.4204-.8896 24.9292-9.1729a4.45683 4.45683 0 0 1 1.1875-2.7392 6.38844 6.38844 0 0 1 2.5557-1.7139 6.32269 6.32269 0 0 1 3.0488-.3476 4.37577 4.37577 0 0 1 2.7305 1.3935 3.41236 3.41236 0 0 1 .6172 3.39158 6.13318 6.13318 0 0 1-8.4434 3.10742 3.679 3.679 0 0 1-1.1846-1.14942l-25.2026 9.26862z" transform="translate(0 -11.3291)" id="Kordel_Hut" data-name="Kordel Hut"/><path d="M11.07977 62.77935c0 3.7041-1.6132 8.6435-2.7866 8.6435-1.0063 0-2.7666-5.0224-2.7666-8.7285V62.588l.0015-.1065.0039-.1055.0024-.1015v-.003l.003-.1005.0048-.09872.0064-.10058.0068-.0957.0078-.09572v-.00288l.0079-.0937.0087-.0928.0093-.0908.0103-.0909.0127-.0878.0107-.0879.0127-.083.0132-.085.0142-.083.0156-.0811.0141-.08v-.002l.0166-.07812.0171-.07808.0181-.0743.0181-.0761.0195-.0723.0195-.0723.0196-.0703.0219-.0693.0205-.0674.021-.0674.023-.0674.0234-.0625.0235-.0615.0244-.0625.0249-.0625.0254-.0596.0249-.05952.0273-.05668.0259-.0547.0268-.0537.0274-.0547.0283-.0517v-.0029l.0288-.0489.0298-.0498.0298-.0488v-.0029l.0283-.0459.0313-.0469.0297-.044v-.0029l.0298-.041.0323-.0439.0322-.045.0312-.0381.0337-.0419.0322-.0391.0328-.0361.0332-.0381.0341-.0342.0333-.03612.0351-.03618.0337-.0312.0337-.0342.0351-.0283.0347-.0303.0366-.0312V44.80175l2.6612.0606-.0181 13.455.0415.0254.041.0254h.0015l.04.0264h.0025l.0405.0312.04.0284.0015.0029.04.0303.0386.0312.0391.0342h.0024l.0361.0332.0015.0029.0376.0332.0015.003.0361.0361.0015.0029.0361.03618h.0015l.0346.041h.003l.0332.042h.0029l.0337.041h.0024a2.89668 2.89668 0 0 1 .2954.44632c.0415.0742.0787.1523.1167.2353h.001c.0454.1006.0908.2119.1309.3262h.0014l.023.0703a6.17758 6.17758 0 0 1 .2515 1.0537v.0029l.0273.1866.0127.09268v.00492l.022.1944v.0029l.0092.0986v.003l.0103.1005.0063.1036v.0048l.0093.1036.0064.1093v.002l.0063.1113.0054.1094v.0019l.0024.1143.003.1172.0024.1162.0024.12208v.12112z" transform="translate(0 -11.3291)" fill="#424242" id="Kordel"/><g id="Schatten_Hut" data-name="Schatten Hut"><path class="cls-3" d="M77.09057 12.39895l-41.9375-.9556A3.48 3.48 0 0 0 31.407 12.834l-1.0532.94928A114.27105 114.27105 0 0 1 40.6624 24.4141c.1294.0088.2563.0235.3818.0401a4.37579 4.37579 0 0 1 2.73 1.3935 3.3079 3.3079 0 0 1 .8159 2.1045 3.84524 3.84524 0 0 1-.1528 1.1397 112.51266 112.51266 0 0 1 7.4492 11.0468l13.6406-12.3271 12.9834-11.7324.0625-.1563c.5205-1.4375-.2871-3.248-1.4824-3.5239zM66.47137 30.34765l-13.2158 11.9248a111.05214 111.05214 0 0 1 6.2354 13.3037c7.2754-4.9414 12.1054-11.4267 11-14.4052l-4.0196-10.8233z" transform="translate(0 -11.3291)"/></g><g id="Academy"><path class="cls-6" d="M109.23021 103.8457h-4.28027l-.7295-5.28027h-1.917l-.7373 5.28027h-4.28027l3.23047-19.666h5.47754zm-5.35742-8.00879l-.62207-5.87011-.58789 5.87011zM131.91966 91.05078h-3.92187v-3.89551q0-.479-.59668-.47949-.624 0-.624.47949v13.64551q0 .48046.624.48047.59619 0 .59668-.48047v-4.85449h3.92187v4.99219a2.54469 2.54469 0 0 1-1.37109 2.24218 5.794 5.794 0 0 1-3.09961.84375q-4.9922 0-4.99219-3.53906v-12.6582q0-3.82617 4.99219-3.82617 4.47071 0 4.4707 3.4834zM157.09154 103.8457h-4.28028l-.72949-5.28027h-1.917l-.73731 5.28027h-4.28026l3.23047-19.666h5.47754zm-5.35743-8.00879l-.62211-5.87011-.58789 5.87011zM170.26341 103.8457v-19.666h5.3916a5.3688 5.3688 0 0 1 3.13477.95312 3.3186 3.3186 0 0 1 1.376 2.92774v11.90428a3.44908 3.44908 0 0 1-1.28614 2.85938 4.981 4.981 0 0 1-3.19726 1.02148zm5.55469-3.5664V87.73242q0-1.02978-1.23438-1.0293v14.61915q1.23488 0 1.23438-1.04297zM202.05931 103.8457H193.612v-19.666h8.39258v2.52343h-4.07324v5.32129h3.67578v2.38575h-3.67578v6.91211h4.12793zM230.37181 103.8457h-3.85352v-11.04l-2.249 11.04h-2.97656l-2.57813-11.04v11.04h-3.373v-19.666h5.55371l1.97461 10.20312 1.71484-10.20312h5.78711zM255.6804 84.17969l-2.82519 7.92676-1.41309 3.96289v7.77636h-4.31933v-7.625a27.04731 27.04731 0 0 0-1.11133-4.07324q-.84961-2.56347-2.4961-7.96777h4.12305l1.94629 6.97265 2.208-6.97265z" transform="translate(0 -11.3291)"/></g><g id="Contao"><path class="cls-5" d="M111.489 31.15039h-11.02832V20.19824q0-1.34911-1.67676-1.34961-1.75635 0-1.75586 1.34961v38.37012q0 1.34912 1.75586 1.34961 1.67579 0 1.67676-1.34961V44.917H111.489v14.0371q0 3.9331-3.85645 6.30469a16.29617 16.29617 0 0 1-8.71484 2.37109q-14.03613 0-14.03613-9.94922V22.08789q0-10.75854 14.03613-10.75879 12.57129 0 12.57129 9.79492zM114.0349 57.68066V22.08789q0-10.75854 13.93945-10.75879 13.74756 0 13.748 10.68164v35.59278a8.44193 8.44193 0 0 1-3.832 7.42382q-3.832 2.603-9.99218 2.60254-13.86474 0-13.86327-9.94922zm15.84863.57911V20.584q0-1.65747-1.9668-1.6582-2.04345 0-2.04394 1.6582v37.67577q0 1.65819 2.04394 1.6582 1.96727.00003 1.9668-1.6582zM175.19505 67.12891h-12.49414L154.448 37.667v29.46191h-10.1416V11.83057h13.8056l6.94141 25.21923V11.83057h10.1416zM203.19115 19.0415H196.404v48.08741h-12.14742V19.0415h-6.78711v-7.21093h25.72168zM238.321 67.12891h-12.0361l-2.05079-14.84668h-5.38964l-2.0752 14.84668h-12.03613l9.085-55.29834h15.40234zM223.2556 44.6084l-1.74707-16.50488-1.65527 16.50488zM240.13451 57.68066V22.08789q0-10.75854 13.93945-10.75879 13.74756 0 13.748 10.68164v35.59278a8.44193 8.44193 0 0 1-3.832 7.42382q-3.832 2.603-9.99218 2.60254-13.86478 0-13.86327-9.94922zm15.84863.57911V20.584q0-1.65747-1.9668-1.6582-2.04345 0-2.04394 1.6582v37.67577q0 1.65819 2.04394 1.6582 1.96728.00003 1.9668-1.6582z" transform="translate(0 -11.3291)"/></g></svg>