<svg xmlns="http://www.w3.org/2000/svg" width="269.08" height="114.74"><defs><style>.a{fill:#424242}.a,.c{fill-rule:evenodd}.e{fill:#f90}.c{fill:#d68000}</style></defs><path class="a" d="M.14 114.74h67.15l-.61-.18-.94-.21-.64-.12c-.74-.12-1.45-.21-2-.28-4.05-.54-9.55-1-11.19-5.54l-3.44-9.3-1.29-3.52a36.42 36.42 0 0 0-8.8-12.95c-3.09-2.93-6.62-5.32-9.75-8.19H.03l.11 40.29zm72.43 0h195.22V74.45H74.58a37.78 37.78 0 0 0 1.89 10.34c1.7 4.62 7 16.17 3.27 20.79-1.34 1.68-3.77 3.76-5.05 5.34l-.11.14a11.77 11.77 0 0 0-1.11 1.53v.07l-.08.15v.23l-.69 1.7z"/><path d="M51.47 95.46l11-4.06 11-4.06 1.91 5.18a70.7 70.7 0 0 1-23.83 3.37l-.16-.43zm24.49-1.58l1.05 2.86a70.71 70.71 0 0 1-23.83 3.37l-.69-1.89a72.45 72.45 0 0 0 23.47-4.35zm1.55 4.22l.2.54a3.36 3.36 0 0 1-.35 2.7 70.49 70.49 0 0 1-22.62 3l-.69-1.89a72.31 72.31 0 0 0 23.42-4.35zm-1.53 5.3c-2 2.56-5.12 5.32-6.15 7.88-4.09-2.14-12.9-1-14.2-4.53v-.09a75 75 0 0 0 20.38-3.27z" fill="#f90" fill-rule="evenodd"/><path class="c" d="M73.47 87.34l-6.37 2.34q.16 2.44.21 4.92a73.34 73.34 0 0 0 8.07-2.08l-1.91-5.18zM75.92 93.88a61 61 0 0 1-8.55 2.55v2.68a73 73 0 0 0 9.62-2.37l-1.05-2.86zM77.47 98.1a62.37 62.37 0 0 1-10.18 2.89c0 .88-.07 1.75-.13 2.62a72 72 0 0 0 10.15-2.27 3.37 3.37 0 0 0 .36-2.7l-.2-.54zM75.94 103.4a67.58 67.58 0 0 1-8.91 2.15c-.07.89-.15 1.77-.24 2.66v.27l-.11.95c0 .28-.06.56-.1.84.4.08.79.16 1.16.26s.58.16.86.25l.19.07.28.1.14.06c.21.09.41.18.6.28l.12-.29V110.78l.14-.27.06-.11a15.27 15.27 0 0 1 1.43-2.05l.05-.07c1.33-1.64 3-3.29 4.23-4.87z"/><path class="a" d="M31.03 64.45a23 23 0 0 0 2.81 3.11c3.21 3 6.9 5.48 10.13 8.54a43.51 43.51 0 0 1 9 12l6.46-2.37-1.68-4.57a2.53 2.53 0 1 1 1.74-.64l1.68 4.57 6.45-2.37-1.13.42c0 .13.76-.08.77.05.15 1.33.87 3.5-.33 4.36l5.89-2.17-11 4.06-11 4.06c-7.66-18.41-20.07-18.42-25.61-30.7a20.29 20.29 0 0 0 5.91 1.65z"/><path d="M68.87 54.67c-.49 4.37-1.7 8.64-2.18 13.08a43.55 43.55 0 0 0 .93 15l-1.13.42c.17 1.46.32 2.93.44 4.41l5.89-2.17c-6.23-19.41 3.79-27.39-.67-40.87a16.64 16.64 0 0 1-3.2 5.5 22.5 22.5 0 0 1-.08 4.66z" fill="#3c3c3b" fill-rule="evenodd"/><path class="e" d="M47.33 44.25a3.89 3.89 0 0 1-3.75 1.39l-34.65-.79-7.29-.17H.97a2.83 2.83 0 0 1-.26-2.81l31.15-28.1a3.48 3.48 0 0 1 3.75-1.39l41.94 1a2.83 2.83 0 0 1 1.64 2.3v.18-.87V16.13l-2.91 2.63-10 9.05-18.2 16.42z"/><path class="e" d="M19.15 47.58l4.13 11.12c1.5 4 15.94 5.69 27.6 1.36s21.11-14.85 19.6-18.89l-4-10.82-18.2 16.42a3.88 3.88 0 0 1-3.75 1.39l-25.37-.58z"/><path d="M9.56 40.47v4.4l-2.66-.06v-5.48l2.42-.89 24.93-9.17a4.46 4.46 0 0 1 1.19-2.74A6.39 6.39 0 0 1 38 24.82a6.32 6.32 0 0 1 3-.35 4.38 4.38 0 0 1 2.73 1.39 3.41 3.41 0 0 1 .62 3.39 6.13 6.13 0 0 1-8.44 3.11 3.68 3.68 0 0 1-1.18-1.15l-25.2 9.27z" fill="#fff"/><path d="M11.08 62.78c0 3.7-1.61 8.64-2.79 8.64-1 0-2.77-5-2.77-8.73V44.8l2.66.06v13.45a2.9 2.9 0 0 1 .3.45l.12.24c0 .1.09.21.13.33v.07a6.18 6.18 0 0 1 .25 1.05v2.35z" fill="#424242"/><path class="c" d="M77.09 12.4l-41.94-1a3.48 3.48 0 0 0-3.75 1.39l-1.05.95a114.27 114.27 0 0 1 10.31 10.63h.38a4.38 4.38 0 0 1 2.73 1.39 3.31 3.31 0 0 1 .82 2.1 3.85 3.85 0 0 1-.15 1.14 112.51 112.51 0 0 1 7.45 11l13.64-12.33 13-11.73.06-.16c.52-1.44-.29-3.25-1.48-3.52zM66.47 30.35L53.25 42.27a111.05 111.05 0 0 1 6.24 13.3c7.28-4.94 12.11-11.43 11-14.41l-4-10.82z"/><text transform="translate(97.08 103.85)" font-family="Haettenschweiler,Haettenschweiler" font-size="28.09" letter-spacing=".45em" fill="#fff">ACADEMY</text><text transform="translate(83.57 67.13)" font-size="78.98" font-family="Haettenschweiler,Haettenschweiler" fill="#f90">CONTAO</text></svg>