<svg xmlns="http://www.w3.org/2000/svg" xml:space="preserve" id="Ebene_1" x="0" y="0" style="enable-background:new 0 0 2592 1989.3" version="1.1" viewBox="0 0 2592 1989.3"><style>.st0{fill:#f39200}</style><path d="M441.9 1385.7c-10.9.6-21 1-30.4 1.4-9.4.4-17.1.6-23.1.6-16.9 0-30.2-2.3-40-6.8s-16.8-12.6-21.1-24.2c-4.3-11.6-6.5-27.8-6.5-48.5 0-20.3 2.2-36.2 6.5-47.6 4.3-11.5 11.4-19.4 21.1-24 9.8-4.5 23.1-6.8 40-6.8 10.9 0 23.2.2 36.9.6 13.7.4 28.1.8 43.1 1.1l9-52.4c-10.1-4.5-21.3-8-33.5-10.4-12.2-2.4-24.3-4.1-36.3-5.1-12-.9-23.1-1.4-33.2-1.4-34.2 0-61.6 4.7-82.3 14.1-20.7 9.4-35.6 24.8-44.8 46.2-9.2 21.4-13.8 50-13.8 85.7s4.5 64.2 13.5 85.7c9 21.4 23.8 36.9 44.2 46.5 20.5 9.6 48 14.4 82.6 14.4 18.8 0 37.8-1.5 56.9-4.5 19.2-3 36.3-7.9 51.3-14.7l-7.9-53c-10.6 1.5-21.3 2.5-32.2 3.1zm302.6-209.1c-21-9.6-49-14.4-84-14.4-34.6 0-62.5 4.8-83.7 14.4-21.2 9.6-36.5 25.1-45.9 46.5-9.4 21.4-14.1 50.2-14.1 86.2 0 35.3 4.7 63.7 14.1 85.1 9.4 21.4 24.7 36.8 45.9 46.2 21.2 9.4 49.1 14.1 83.7 14.1 34.9 0 62.9-4.7 84-14.1 21-9.4 36.2-24.8 45.4-46.2 9.2-21.4 13.8-49.8 13.8-85.1 0-36.1-4.6-64.8-13.8-86.2-9.2-21.4-24.3-36.9-45.4-46.5zm-32.6 185.1c-3.4 12.4-9.2 21-17.5 25.6-8.3 4.7-19.5 7-33.8 7-14.3 0-25.6-2.3-33.8-7-8.3-4.7-14.1-13.2-17.5-25.6-3.4-12.4-5.1-29.9-5.1-52.4 0-22.9 1.7-40.6 5.1-53 3.4-12.4 9.2-21 17.5-25.9 8.3-4.9 19.5-7.3 33.8-7.3 14.3 0 25.5 2.4 33.8 7.3 8.3 4.9 14.1 13.5 17.5 25.9 3.4 12.4 5.1 30.1 5.1 53-.1 22.5-1.8 40-5.1 52.4zm342.6-199.5c-20.3 0-40.9 4.5-61.7 13.5-19.7 8.5-38.9 20.6-57.8 36.1l-7.3-42.3h-67.1v278.4H944v-190.8c15.1-7.6 28.1-13.4 38.9-17.4 12.8-4.7 25.2-7 37.2-7 10.9 0 18.6 2.4 23.1 7 4.5 4.7 6.8 13.2 6.8 25.6v182.6h83.4v-208.5c0-51.5-26.3-77.2-78.9-77.2zm253.6-69.9h-84l.2 77.5-48.6 2.5v51.8h48.7l.3 153.3c0 24.4 7 43.4 21.1 56.9 14.1 13.5 33.7 20.3 58.9 20.3 6.8 0 15-.5 24.8-1.4 9.8-.9 19.5-2.3 29.3-3.9 9.8-1.7 18-3.7 24.8-5.9l-9-56.4h-36.1c-10.9 0-18.7-2.2-23.4-6.5-4.7-4.3-7-11.6-7-21.7v-134.7h77.8v-54.7h-77.8v-77.1zm328.6 79.2c-16.2-6.2-35.9-9.3-59.2-9.3-13.9 0-29.7.7-47.3 2-17.7 1.3-35.3 2.9-53 4.8-17.7 1.9-33.3 4.1-46.8 6.8l7.9 55.2c22.5-1.5 44.5-2.7 65.9-3.7 21.4-.9 39.3-1.4 53.5-1.4 17.3 0 29 3 35.2 9 6.2 6 9.3 15.6 9.3 28.7v13h-100.9c-26.3 0-47 6.2-62 18.6-15 12.4-22.5 29.7-22.5 51.8v28.7c0 17.3 3.9 31.8 11.8 43.4 7.9 11.6 18.6 20.5 32.1 26.5s28.7 9 45.6 9c17.3 0 32.7-2.8 46.2-8.5 13.5-5.6 25.4-12.5 35.5-20.6 9.1-7.2 16.6-14.6 22.8-22.1l8.7 44.4h66.5v-183.7c0-25.9-4.2-46.3-12.7-61.1-8.2-14.8-20.5-25.3-36.6-31.5zm-38.4 198.7c-11.3 7.5-22.6 13.3-34.1 17.5-11.5 4.1-22.1 6.2-31.8 6.2-11.7 0-20.1-2.5-25.4-7.6-5.3-5.1-7.9-12.3-7.9-21.7V1351c0-8.3 2.2-14.8 6.5-19.7 4.3-4.9 11.6-7.3 21.7-7.3l75-.3v43.7c-1.3.9-2.6 1.9-4 2.8zm415.1-147.1c-9.2-21.4-24.3-36.9-45.4-46.5-21-9.6-49-14.4-84-14.4-34.6 0-62.5 4.8-83.7 14.4-21.2 9.6-36.5 25.1-45.9 46.5-9.4 21.4-14.1 50.2-14.1 86.2 0 35.3 4.7 63.7 14.1 85.1 9.4 21.4 24.7 36.8 45.9 46.2 21.2 9.4 49.1 14.1 83.7 14.1 34.9 0 62.9-4.7 84-14.1 21-9.4 36.2-24.8 45.4-46.2 9.2-21.4 13.8-49.8 13.8-85.1 0-36.1-4.6-64.8-13.8-86.2zm-78.1 138.6c-3.4 12.4-9.2 21-17.5 25.6-8.3 4.7-19.5 7-33.8 7-14.3 0-25.6-2.3-33.8-7-8.3-4.7-14.1-13.2-17.5-25.6-3.4-12.4-5.1-29.9-5.1-52.4 0-22.9 1.7-40.6 5.1-53 3.4-12.4 9.2-21 17.5-25.9 8.3-4.9 19.5-7.3 33.8-7.3 14.3 0 25.5 2.4 33.8 7.3 8.3 4.9 14.1 13.5 17.5 25.9 3.4 12.4 5.1 30.1 5.1 53 0 22.5-1.7 40-5.1 52.4z" class="st0"/><path d="M450.9 1598c-16.2-6.2-35.9-9.3-59.2-9.3-13.9 0-29.7.7-47.3 2-17.7 1.3-35.3 2.9-53 4.8-17.7 1.9-33.3 4.1-46.8 6.8l7.9 55.2c22.5-1.5 44.5-2.7 65.9-3.7 21.4-.9 39.3-1.4 53.5-1.4 17.3 0 29 3 35.2 9 6.2 6 9.3 15.6 9.3 28.7v13H315.7c-26.3 0-47 6.2-62 18.6-15 12.4-22.5 29.7-22.5 51.8v28.7c0 17.3 3.9 31.8 11.8 43.4 7.9 11.7 18.6 20.5 32.1 26.5s28.7 9 45.6 9c17.3 0 32.7-2.8 46.2-8.5 13.5-5.6 25.4-12.5 35.5-20.6 9.1-7.2 16.6-14.6 22.8-22.1l8.7 44.4h66.5v-183.7c0-25.9-4.2-46.3-12.7-61.1-8.3-14.7-20.6-25.3-36.8-31.5zm-38.3 198.7c-11.3 7.5-22.6 13.3-34.1 17.5-11.5 4.1-22.1 6.2-31.8 6.2-11.7 0-20.1-2.5-25.4-7.6-5.3-5.1-7.9-12.3-7.9-21.7v-13.5c0-8.3 2.2-14.8 6.5-19.7 4.3-4.9 11.6-7.3 21.7-7.3l75-.3v43.7c-1.4.8-2.6 1.8-4 2.7zm343.4 15.5c-10.9.6-21 1-30.4 1.4-9.4.4-17.1.6-23.1.6-16.9 0-30.2-2.3-40-6.8s-16.8-12.6-21.1-24.2c-4.3-11.6-6.5-27.8-6.5-48.5 0-20.3 2.2-36.2 6.5-47.6 4.3-11.5 11.4-19.4 21.1-24 9.8-4.5 23.1-6.8 40-6.8 10.9 0 23.2.2 36.9.6 13.7.4 28.1.8 43.1 1.1l9-52.4c-10.1-4.5-21.3-8-33.5-10.4-12.2-2.4-24.3-4.1-36.3-5.1-12-.9-23.1-1.4-33.2-1.4-34.2 0-61.6 4.7-82.3 14.1-20.7 9.4-35.6 24.8-44.8 46.2-9.2 21.4-13.8 50-13.8 85.7s4.5 64.2 13.5 85.7c9 21.4 23.8 36.9 44.2 46.5 20.5 9.6 48 14.4 82.6 14.4 18.8 0 37.8-1.5 56.9-4.5 19.2-3 36.3-7.9 51.3-14.7l-7.9-53c-10.6 1.5-21.3 2.5-32.2 3.1zm295.9-214.2c-16.2-6.2-35.9-9.3-59.2-9.3-13.9 0-29.7.7-47.3 2-17.7 1.3-35.3 2.9-53 4.8-17.7 1.9-33.3 4.1-46.8 6.8l7.9 55.2c22.5-1.5 44.5-2.7 65.9-3.7 21.4-.9 39.3-1.4 53.5-1.4 17.3 0 29 3 35.2 9 6.2 6 9.3 15.6 9.3 28.7v13H916.6c-26.3 0-47 6.2-62 18.6-15 12.4-22.5 29.7-22.5 51.8v28.7c0 17.3 3.9 31.8 11.8 43.4 7.9 11.7 18.6 20.5 32.1 26.5s28.7 9 45.6 9c17.3 0 32.7-2.8 46.2-8.5 13.5-5.6 25.4-12.5 35.5-20.6 9.1-7.2 16.6-14.6 22.8-22.1l8.7 44.4h66.5v-183.7c0-25.9-4.2-46.3-12.7-61.1-8.3-14.7-20.6-25.3-36.7-31.5zm-38.3 198.7c-11.3 7.5-22.6 13.3-34.1 17.5-11.5 4.1-22.1 6.2-31.8 6.2-11.7 0-20.1-2.5-25.4-7.6-5.3-5.1-7.9-12.3-7.9-21.7v-13.5c0-8.3 2.2-14.8 6.5-19.7 4.3-4.9 11.6-7.3 21.7-7.3l75-.3v43.7c-1.4.8-2.7 1.8-4 2.7zm335.2-241.2c0 12.4.3 24.5.8 36.3.4 7.6.9 15.2 1.5 22.7-10.7-7.5-22.4-13.4-35.3-17.4-18.2-5.6-37.1-8.5-56.6-8.5-23.3 0-42.8 4.3-58.6 13-15.8 8.6-27.5 23.4-35.2 44.2-7.7 20.9-11.6 49.9-11.6 87.1 0 47.7 7.6 84.3 22.8 109.9 15.2 25.6 40.7 38.3 76.4 38.3 26.3 0 48.5-5.4 66.5-16.1 15.9-9.4 29-20.9 39.6-34.3l7.2 43.6h65.9v-356.1h-83.4v37.3zm-15.7 244.9c-7.1 4.3-14.3 7.5-21.4 9.6-7.1 2.1-15.6 3.1-25.4 3.1-10.9 0-19.8-2.2-26.8-6.5s-12-12.2-15.2-23.7c-3.2-11.5-4.8-28.3-4.8-50.4 0-23.7 1.7-41.5 5.1-53.5 3.4-12 8.6-20.1 15.8-24.2 7.1-4.1 16.5-6.2 28.2-6.2 13.5 0 25.4 1.5 35.5 4.5 7.5 2.2 15.8 4.7 24.8 7.3v129.8c-5.7 3.8-11 7.2-15.8 10.2zm409.1-59.2c13.1-12.6 19.5-31.6 19.2-57.2 0-31.6-10.2-55.3-30.7-71.3s-54.2-24-101.2-24c-34.2 0-61.8 4.7-82.8 14.1-21 9.4-36.4 24.8-46.2 46.2-9.8 21.4-14.7 50.3-14.7 86.8 0 33.4 4.8 60.9 14.4 82.3 9.6 21.4 25.2 37.3 46.8 47.6 21.6 10.3 50.1 15.5 85.4 15.5 13.5 0 27.6-.7 42.3-2 14.7-1.3 28.9-3.5 42.8-6.5 13.9-3 26.3-7.1 37.2-12.4l-7.9-51.3c-19.2 2.3-38.2 3.9-57.2 4.8-19 .9-34.9 1.4-47.6 1.4-17.7 0-31.5-2.4-41.4-7.3-10-4.9-17-13.6-21.1-26.2-2-6-3.5-13.3-4.5-21.7h99.2c32.1.1 54.8-6.2 68-18.8zm-91.3-27.9h-77.5c.6-15.1 2.2-27.1 4.8-36.1 3.4-11.6 9.4-19.5 18-23.7 8.6-4.1 20.7-6.2 36.1-6.2 17.3 0 29.6 2.5 36.9 7.6 7.3 5.1 11.2 14.2 11.6 27.3 0 9.8-1.8 17.4-5.4 22.8-3.6 5.6-11.8 8.3-24.5 8.3zm517.3-124.6c-19.9 0-38.6 4.4-56.1 13.2-15 7.6-30.2 18.5-45.7 32.6-3.2-10.6-8.2-19.4-15.2-26.4-13-13-31.8-19.4-56.6-19.4-20.3 0-39.1 4.4-56.4 13.2-16.1 8.2-32.8 20.4-49.9 36.3l-6.5-42.2h-66.5v278.4h83.4v-192.2c7.8-4.8 14.7-8.8 20.6-11.8 8.1-4.1 15.2-7 21.4-8.7 6.2-1.7 12.5-2.5 18.9-2.5 10.5 0 18.3 2.4 23.4 7.3 5.1 4.9 7.6 13.3 7.6 25.4v182.6h80v-191.1c8.1-5 15.3-9.1 21.4-12.3 7.9-4.1 14.8-7.1 20.9-9 6-1.9 12.4-2.8 19.2-2.8 11.3 0 19.2 2.5 23.7 7.6s6.8 13.4 6.8 25.1v182.6h82.8v-208.5c0-25.2-6.6-44.3-19.7-57.5-13.1-13.3-32.3-19.9-57.5-19.9zm334.8 7.4-51.8 180.3c-2.3 8.6-5 18.9-8.2 30.7-1.2 4.3-2.3 8.3-3.5 12.1h-6.9c-1.1-7.1-2.4-14.3-3.9-21.4-1.5-7.1-3-14.3-4.5-21.4l-53-180.3h-89l91.9 258.1c1.9 6 5.3 10.9 10.1 14.7 4.9 3.8 10.5 5.6 16.9 5.6h15.4l-.8 1.7c-7.1 16.5-17.1 29.9-29.9 40-12.8 10.1-30.6 18.2-53.5 24.2l6.2 47.3c23.3 3 43.5 1.6 60.6-4.2 17.1-5.8 31.7-14.4 44-25.6 12.2-11.3 22.4-24 30.4-38 8.1-14.1 14.4-28.1 18.9-42l99.8-281.8H2503z"/><path d="m891 425.1-99.3 41.7c.5 7 .9 14 .9 21.1 0 150.6-122.5 273.2-273.2 273.2S246.2 638.5 246.2 487.9c0-6.8.3-13.4.8-20.1l-99.4-42.1c-3.4 20.2-5.2 41-5.2 62.2 0 208.2 168.8 376.9 376.9 376.9S896.2 696 896.2 487.9c.1-21.4-1.8-42.4-5.2-62.8z" class="st0"/><path d="M0 305.4v-107L481 0v101.5L103.3 253.1 481 397.4v101.4zm551 93.1 385.6-147.2L551 100.8V.4L1038.8 199v106.4L551 499.4zm86.6 447.3 88.8 21.2v-64.2c-27.3 18-57.1 32.5-88.8 43z"/><path d="M316.4 1003.1c15.1 59.2 146.1 93.1 197.4 149.7 25.5-28.1 79.7-50.7 122.4-73.5l-319.8-76.2z" style="fill-rule:evenodd;clip-rule:evenodd"/><path d="M314.2 895.9v75.9l360.3 85.9c26.1-16.4 46.2-33.7 51.9-54.1v-9.5l-412.2-98.2zm205.2-31.1c-75.7 0-146.1-22.4-205.2-60.8v66.3l412.2 98.2v-75.9L585.2 859c-21.4 3.7-43.4 5.8-65.8 5.8z"/></svg>