<svg id="Ebene_2" data-name="Ebene 2" xmlns="http://www.w3.org/2000/svg" viewBox="0 0 500 454.85"><defs><style>.cls-2,.cls-3{stroke-width:0}.cls-2{fill:#7abfbc}.cls-3{fill:#fff}</style></defs><g id="seo_plugin" data-name="seo plugin"><path style="fill:#333a46;stroke-width:0" d="M405.52 364.46H0L94.48 0H500l-94.48 364.46z"/><text transform="matrix(.9 0 0 1 59.32 428.73)" style="font-family:FiraSans-Regular,'Fira Sans';font-size:74px;letter-spacing:-.03em;fill:#333a46"><tspan x="0" y="0">seo plugin</tspan></text><path class="cls-3" d="M169.77 101.07c6.06 2.36 11.72 5.95 16.99 10.77l-10.93 12.62c-4.15-3.47-8.33-6-12.53-7.57-4.21-1.57-8.72-2.36-13.54-2.36-5.38 0-9.73 1.21-13.04 3.62-3.31 2.41-4.96 5.8-4.96 10.18 0 2.92.64 5.33 1.93 7.23 1.29 1.91 3.62 3.7 6.98 5.38 3.36 1.68 8.35 3.53 14.97 5.55 11.44 3.59 20.04 8.05 25.82 13.37 5.77 5.33 8.66 13.1 8.66 23.3 0 6.95-1.77 13.12-5.3 18.5-3.53 5.38-8.61 9.59-15.22 12.62-6.62 3.03-14.47 4.54-23.55 4.54s-16.8-1.43-23.8-4.29c-7.01-2.86-13.04-6.76-18.08-11.69l11.61-12.78c4.37 3.81 8.97 6.7 13.79 8.66 4.82 1.96 10.15 2.94 15.98 2.94 6.39 0 11.55-1.51 15.48-4.54 3.92-3.03 5.89-7.29 5.89-12.78 0-3.36-.67-6.14-2.02-8.33-1.35-2.19-3.65-4.15-6.9-5.89-3.25-1.74-7.96-3.56-14.13-5.47-12.34-3.81-21.25-8.41-26.75-13.79-5.5-5.38-8.24-12.45-8.24-21.2 0-6.39 1.68-12 5.05-16.82 3.36-4.82 8.05-8.58 14.05-11.27 6-2.69 12.81-4.04 20.44-4.04 8.18 0 15.31 1.18 21.36 3.53zM274.23 116.55h-42.89v32.47h37.34v16.49h-37.34v34.15h45.92v16.65h-68.13V100.07h67.46l-2.36 16.49z"/><g><path class="cls-2" d="M415.95 154.4c-.09-2.57-.38-5.11-.67-7.58-.13-1.11-.26-2.22-.37-3.33l-2.18-8.09-.15-.42c-.44-.95-.87-1.9-1.31-2.85-.96-2.12-1.96-4.32-3.07-6.45-3.79-7.25-9.18-13.74-16.04-19.28-7.56-6.11-16.26-10.34-25.87-12.58-8.21-1.91-16.85-2.1-25.69-.55-.19.03-.39.04-.59.05-.17 0-.33.02-.5.03l-8.46 2.27-.28.16c-.11.07-.23.14-.34.21-.05.03-.11.07-.08.06-9.39 3.56-17.47 8.8-24.02 15.59-8.01 8.3-13.46 18.13-16.21 29.23-3.38 13.65-2.26 27.26 3.33 40.46 5.98 14.11 16.04 24.84 29.9 31.91 8.92 4.55 18.44 6.84 28.36 6.84 2.08 0 4.19-.1 6.3-.3 9.4-.9 18.33-3.77 26.53-8.54a62.366 62.366 0 0 0 16.04-13.36c3.48-4.06 6.48-8.65 8.92-13.64 4.63-9.48 6.8-19.51 6.45-29.83zm-25.92 22.9c-5.67 10.14-15.02 17.48-26.35 20.66-22.91 6.31-46.8-7.21-53.27-30.15-6.45-22.9 6.98-46.84 29.94-53.37a44.39 44.39 0 0 1 12.16-1.71c18.86 0 35.83 12.33 41.35 31.64 3.18 11.12 1.82 22.82-3.83 32.94zM259.59 298.61c16.95-27.72 33.9-55.44 50.83-83.14 4.6 2.6 9.05 5.12 13.69 7.74-15.04 29.1-30.06 58.18-45.19 87.47-1.13-.69-2.16-1.31-3.17-1.94-4.86-3.05-9.72-6.11-14.59-9.15-.46-.29-.99-.46-1.49-.69-.03-.1-.05-.2-.08-.29z"/></g></g></svg>