<svg xmlns="http://www.w3.org/2000/svg" viewBox="0 0 459.5 123.334"><path fill="#414652" d="M76.65 27.546l-27.199 9.065-29.464-9.821v59.174l29.464 9.822 27.199-9.064 29.466 9.822v-59.177l-29.466-9.821zm-24.931 13.088l22.666-7.556v49.618l-22.666 7.555v-49.617zm-27.198-7.555l22.665 7.556v49.617l-22.665-7.555v-49.618zm77.062 57.176l-22.666-7.559v-49.617l22.666 7.555v49.621z"/><g fill="#414652"><path d="M150.657 36.141v5.197c0 1.137-.409 2.111-1.229 2.922s-1.798 1.216-2.934 1.216h-.196l4.36 5.143v1.48h-4.471l-5.562-6.623-5.757.028c.056 0 .084.055.084.166l-.084-.027v6.456h-4.332v-20.095h15.958c1.136 0 2.114.405 2.934 1.217.82.811 1.229 1.783 1.229 2.92zm-15.79.195v4.779h11.402v-4.779h-11.402zM157.701 31.977h11.85c1.135 0 2.11.404 2.919 1.215.811.811 1.216 1.785 1.216 2.922v11.85c0 1.137-.405 2.11-1.216 2.92-.809.811-1.784 1.216-2.919 1.216h-11.85c-1.156 0-2.134-.4-2.935-1.202-.802-.801-1.202-1.778-1.202-2.934v-11.85c0-1.156.4-2.134 1.202-2.936.8-.801 1.779-1.201 2.935-1.201zm.195 4.359v11.404h11.402v-11.404h-11.402zM196.828 36.336h-15.734v11.404h15.734v4.359h-15.931c-1.156 0-2.134-.4-2.936-1.202-.801-.801-1.201-1.778-1.201-2.934v-11.85c0-1.156.4-2.134 1.201-2.936.802-.801 1.78-1.201 2.936-1.201h15.931v4.36zM214.658 31.977h4.527v1.509l-7.181 8.552 7.181 8.554v1.508h-4.527l-6.596-7.882h-3.94v7.882h-4.359v-20.123h4.359v7.881h3.94l2.515-2.989 4.081-4.892zM241.989 36.114v1.871h-4.386v-1.648h-11.403v3.521h11.653c1.138 0 2.11.406 2.922 1.216.81.811 1.214 1.784 1.214 2.921v3.969c0 1.137-.404 2.11-1.214 2.92-.812.811-1.784 1.216-2.922 1.216h-11.849c-1.136 0-2.11-.4-2.921-1.202-.81-.801-1.215-1.778-1.215-2.934v-1.872h4.332v1.648h11.403v-3.522h-11.599c-1.136 0-2.11-.4-2.921-1.201-.81-.801-1.215-1.779-1.215-2.935v-3.968c0-1.156.405-2.134 1.215-2.936.811-.801 1.785-1.201 2.921-1.201h11.849c1.138 0 2.11.404 2.922 1.215.81.81 1.214 1.785 1.214 2.922zM249.062 31.977h11.85c1.136 0 2.11.404 2.92 1.215.812.811 1.216 1.785 1.216 2.922v11.85c0 1.137-.404 2.11-1.216 2.92-.81.811-1.784 1.216-2.92 1.216h-11.85c-1.157 0-2.133-.4-2.936-1.202-.8-.801-1.201-1.778-1.201-2.934v-11.85c0-1.156.401-2.134 1.201-2.936.803-.801 1.778-1.201 2.936-1.201zm.195 4.359v11.404h11.403v-11.404h-11.403zM268.15 52.099v-20.15h4.331v15.791h15.789v4.359h-20.12zM289.92 52.099v-20.122h4.36v20.122h-4.36zM297.215 31.977h15.959c1.155 0 2.137.404 2.947 1.215s1.217 1.785 1.217 2.922v11.85c0 1.137-.406 2.11-1.217 2.92-.811.811-1.792 1.216-2.947 1.216h-15.959v-20.123zm4.333 4.359v11.404h11.403v-11.404h-11.403z"/></g><g fill="#414652"><path d="M149.139 73.339l11.281-13.51h7.474v33.422h-7.242v-22.422l-11.513 13.744-11.559-13.697v22.375h-7.195v-33.422h7.427l11.327 13.51zM204.427 59.829v7.243h-23.583v5.848h18.986v7.24h-18.986v5.85h23.583v7.242h-30.871v-33.423h30.871zM242.446 66.698v3.156h-7.289v-2.783h-18.939v18.938h18.939v-5.014h-7.241v-7.238h14.53v12.625c0 1.887-.673 3.504-2.021 4.85-1.346 1.348-2.978 2.02-4.896 2.02h-19.637c-1.918 0-3.543-.664-4.873-1.994-1.332-1.332-1.997-2.955-1.997-4.875v-19.685c0-1.918.665-3.543 1.997-4.874 1.33-1.332 2.955-1.996 4.873-1.996h19.637c1.919 0 3.551.673 4.896 2.018 1.348 1.346 2.021 2.964 2.021 4.852zM254.517 59.829h19.636c1.918 0 3.551.673 4.896 2.018 1.347 1.346 2.021 2.963 2.021 4.852v26.553h-7.289v-10.77h-18.941v10.77h-7.194v-26.554c0-1.918.665-3.543 1.995-4.874 1.331-1.331 2.956-1.995 4.876-1.995zm.323 15.412h18.941v-8.17h-18.941v8.17zM320.063 73.339l11.28-13.51h7.475v33.422h-7.242v-22.422l-11.513 13.744-11.559-13.697v22.375h-7.196v-33.422h7.428l11.327 13.51zM375.352 59.829v7.243h-23.582v5.848h18.987v7.24h-18.987v5.85h23.582v7.242h-30.872v-33.423h30.872zM406.082 82.11v-22.281h7.289v33.422h-7.428l-18.802-22.375v22.375h-7.194v-33.422h7.428l18.707 22.281zM425.673 59.829v26.18h18.938v-26.18h7.29v26.553c0 1.887-.674 3.504-2.02 4.85-1.346 1.348-2.964 2.02-4.852 2.02h-19.684c-1.918 0-3.544-.664-4.872-1.994-1.334-1.332-1.998-2.955-1.998-4.875v-26.554h7.198z"/></g></svg>
