<svg xmlns="http://www.w3.org/2000/svg" xml:space="preserve" id="Ebene_2_00000003082143268403364210000017331588248483125951_" x="0" y="0" style="enable-background:new 0 0 360 360" version="1.1" viewBox="0 0 360 360"><style>.st2{fill:#f2edd5}</style><g id="bg"><path d="M80 0h200c44.2 0 80 35.8 80 80v200c0 44.2-35.8 80-80 80H80c-44.2 0-80-35.8-80-80V80C0 35.8 35.8 0 80 0z" style="fill:#a13609"/><path d="M95 25h170c38.7 0 70 31.3 70 70v170c0 38.7-31.3 70-70 70H95c-38.7 0-70-31.3-70-70V95c0-38.7 31.3-70 70-70z" style="fill:#2d3f4b"/></g><path id="frame" d="M270 34c14.9 0 28.9 5.8 39.5 16.5S326 75.1 326 90v180c0 14.9-5.9 28.9-16.5 39.5S284.9 326 270 326H90c-14.9 0-28.9-5.9-39.5-16.5S34 284.9 34 270V90c0-14.9 5.8-28.9 16.5-39.5S75.1 34 90 34h180m0-14H90c-38.5 0-70 31.5-70 70v180c0 38.5 31.5 70 70 70h180c38.5 0 70-31.5 70-70V90c0-38.5-31.5-70-70-70z" class="st2"/><path d="M230.5 253.3H117.3c-12.4 0-22.4-10-22.4-22.4V129.1c0-12.4 10-22.4 22.4-22.4h30.6c7.6-.1 14.6 3.7 18.9 10.1l6.3 9.3c1.7 2.5 4.4 4.1 7.4 4.1h46.4c12.4 0 22.4 10 22.4 22.4v9.9c9 2.9 15.6 11.4 15.6 21.3 0 1.9-.3 3.8-.7 5.6l-11.9 47c-2.6 10-11.5 16.9-21.8 16.9zm-82.4-133.1c-.1 0-.1 0 0 0h-30.7c-4.9 0-8.9 4-8.9 8.9v101.7c0 4.9 4 8.9 8.9 8.9H230.6c4.1 0 7.6-2.7 8.6-6.7l12-46.9c.2-.7.3-1.4.3-2.3 0-4.9-4-8.9-8.9-8.9h-84.1c-3.3.1-6.1 2-7.7 4.9L139 202.6c-1.7 3.3-5.8 4.6-9.1 2.9-3.3-1.7-4.6-5.8-2.9-9.1l11.8-22.7c3.7-7.3 11.2-12.1 19.4-12.3H235.8v-8.9c0-4.9-4-8.9-8.9-8.9h-46.4c-7.6 0-14.6-3.8-18.7-10.1l-6.3-9.3c-1.7-2.4-4.4-4-7.4-4z" class="st2"/></svg>