<svg xmlns="http://www.w3.org/2000/svg" viewBox="0 0 191.8 150"><g data-name="Ebene 7"><path d="M123.91 77.39a6.22 6.22 0 0 0-6.21-6.23h-.79L114 59.52a8.3 8.3 0 0 0-7.87-6.15H84.77a8.28 8.28 0 0 0-7.86 6.15L74 71.16h-.78A6.24 6.24 0 0 0 67 77.38v10.67a.88.88 0 0 0 .86.89h2.71v3.56a5.33 5.33 0 0 0 10.65 0V89h28.48v3.55a5.33 5.33 0 0 0 10.65 0V89H123a.89.89 0 0 0 .9-.86V77.39Zm-4.45 2.67a4.45 4.45 0 1 1-4.46-4.45 4.45 4.45 0 0 1 4.45 4.45m-38.14-8.9 2.46-9.92a1.37 1.37 0 0 1 1-.75h21.36a1.37 1.37 0 0 1 1 .75l2.46 9.92Zm-1 8.9a4.45 4.45 0 1 1-4.46-4.45 4.45 4.45 0 0 1 4.46 4.45M105.81 51.49a20.91 20.91 0 0 0-19.75-19.75.9.9 0 0 0-.64.26.88.88 0 0 0-.3.68v2.11a.92.92 0 0 0 .89.92 16.86 16.86 0 0 1 15.85 15.88.94.94 0 0 0 .93.89h2.11a1 1 0 0 0 .94-1m-7.54 0a13.33 13.33 0 0 0-12.2-12.2H86a1 1 0 0 0-.94.94v2a.94.94 0 0 0 .82.93 9.4 9.4 0 0 1 8.51 8.48.94.94 0 0 0 .93.82h2a.9.9 0 0 0 .69-.31.93.93 0 0 0 .25-.71m-7.53-1.81a2.83 2.83 0 1 0-2.83 2.83 2.83 2.83 0 0 0 2.83-2.83" style="fill:#103a5d"/><path d="M51.1 105.4c.31-.08.47.06.47.36v3.87h2.93c.31 0 .44.14.44.42v1.29c0 .27-.13.41-.44.41h-2.88v9.18c0 1.21.33 1.49 1.78 1.49h1.33c.3 0 .44.11.44.38v1.33c0 .24-.14.38-.41.44a8 8 0 0 1-1.54.16c-2 0-4.23 0-4.23-3.14v-9.92h-1.61a.37.37 0 0 1-.41-.32V110a.36.36 0 0 1 .36-.37h1.58v-3.35a.4.4 0 0 1 .34-.44ZM65 109.72c.27.08.41.19.41.47v1.15a.35.35 0 0 1-.32.39h-2.55c-1.9 0-2.4.3-2.4 1.53v10.91a.36.36 0 0 1-.31.41H58a.36.36 0 0 1-.41-.32.14.14 0 0 1 0-.09v-11.54c0-3.1 2.75-3.21 4.34-3.21a16 16 0 0 1 3.07.3ZM78.32 113.7v9.62a.7.7 0 0 1-.52.78 22.85 22.85 0 0 1-6.11.6c-3.62 0-5.3-.75-5.3-4.43 0-3.3 1.73-4.24 4.86-4.24h4.43v-1.83c0-1.7-1-2.47-3.57-2.47H68c-.32 0-.4-.08-.4-.41v-1.13c0-.33.11-.39.38-.44a24.22 24.22 0 0 1 4.16-.32c4.25-.01 6.18 1.3 6.18 4.27Zm-7 4.45c-1.5 0-2.31.5-2.31 2 0 1.81.91 2.23 3.16 2.23a16 16 0 0 0 3.52-.33v-3.91ZM92.11 109.63a.41.41 0 0 1 .39.44v1.21a.38.38 0 0 1-.32.41h-4.24c-3.33 0-3.74 1.07-3.74 5.35s.41 5.34 3.74 5.34h4.15a.36.36 0 0 1 .41.32v1.3a.42.42 0 0 1-.36.47 34.19 34.19 0 0 1-4.17.25c-5.34 0-6.37-1.51-6.37-7.64s1-7.66 6.37-7.66a32.3 32.3 0 0 1 4.14.21ZM97.59 103.81a.38.38 0 0 1 .41.36v10.71l4.51-5.09a.75.75 0 0 1 .58-.27h2.32c.5 0 .52.24.24.52l-4.86 5.38 6.41 8.46c.25.33.28.75-.47.75h-1.92a.78.78 0 0 1-.6-.31L98 116.18v8c0 .3-.13.44-.41.44h-1.81c-.28 0-.42-.14-.42-.44v-20a.38.38 0 0 1 .33-.43.14.14 0 0 1 .09 0ZM112.18 105.16a1.62 1.62 0 1 1-1.62-1.64 1.43 1.43 0 0 1 1.62 1.22 1.48 1.48 0 0 1 0 .42Zm-.71 4.4a.37.37 0 0 1 .41.32v14.34a.38.38 0 0 1-.33.41h-1.89a.37.37 0 0 1-.42-.31.17.17 0 0 1 0-.1V110a.36.36 0 0 1 .32-.41.17.17 0 0 1 .1 0ZM128.15 115.85v8.33a.4.4 0 0 1-.46.41h-1.76a.36.36 0 0 1-.41-.32.14.14 0 0 1 0-.09V116c0-4.2-.83-4.34-3.46-4.34h-3.77v12.48a.38.38 0 0 1-.32.41h-1.9a.38.38 0 0 1-.41-.32v-14c0-.35.15-.39.41-.44a31.25 31.25 0 0 1 5.71-.43c4.92.06 6.37.64 6.37 6.49ZM143.49 109.88a.44.44 0 0 1 .44.42v12.91c0 5.39-1.07 7-6.36 7a31.16 31.16 0 0 1-4-.25.39.39 0 0 1-.36-.41v-1.22c0-.27.11-.41.38-.41h3.9c3.06 0 3.77-.74 3.77-3.21v-.17a21 21 0 0 1-3.63.23c-5.19 0-6.29-1.54-6.29-7.7s1.13-7.61 6.44-7.61a28.53 28.53 0 0 1 5.71.42Zm-5.71 1.85c-3.38 0-3.77 1.07-3.77 5.33s.41 5.36 3.82 5.36a28.67 28.67 0 0 0 3.46-.2v-10.49Z" style="fill:#003764"/><path d="M24.72 5.15S5.2 5.15 5.2 24.67v101s0 19.53 19.52 19.53h141.9s19.53 0 19.53-19.53v-101s0-19.52-19.53-19.52Z" style="fill:none;stroke:#103a5d;stroke-width:2.51389524052214px"/></g></svg>