<svg id="Ebene_1" xmlns="http://www.w3.org/2000/svg" width="35.28mm" height="35.28mm" viewBox="0 0 100 100"><defs><style>.cls-1,.cls-2{isolation:isolate;}.cls-3,.cls-2{fill:#fff;}.cls-4{fill:#cf0;}.cls-2{opacity:.1;}</style></defs><rect width="100" height="100"/><polygon class="cls-2" points="0 0 26.61 0 26.61 40.73 26.81 40.73 56.85 0 88.91 0 52.02 46.57 91.73 100 57.86 100 26.81 54.44 26.61 54.44 26.61 99.8 0 99.8 0 0"/><g class="cls-1"><g class="cls-1"><path class="cls-4" d="M9.75,57.42c-.06-.06-.09-.13-.09-.21v-16.9c0-.08.03-.15.09-.21.06-.06.13-.09.21-.09h6.38c1.3,0,2.45.22,3.45.67s1.77,1.09,2.32,1.92c.55.83.83,1.79.83,2.88v6.55c0,1.08-.27,2.04-.83,2.88-.55.83-1.32,1.47-2.32,1.92s-2.15.67-3.45.67h-6.38c-.08,0-.15-.03-.21-.09ZM13.94,53.96h2.58c.67,0,1.21-.24,1.62-.71.42-.47.63-1.11.65-1.91v-5.15c0-.8-.21-1.44-.64-1.91-.42-.48-.98-.71-1.66-.71h-2.55c-.08,0-.12.04-.12.12v10.15c0,.08.04.12.12.12Z"/><path class="cls-4" d="M37.45,43.47c-.06.06-.13.09-.21.09h-7.85c-.08,0-.12.04-.12.12v3.08c0,.08.04.12.12.12h5.02c.08,0,.15.03.21.09s.09.13.09.21v2.92c0,.08-.03.15-.09.21s-.13.09-.21.09h-5.02c-.08,0-.12.04-.12.12v3.3c0,.08.04.12.12.12h7.85c.08,0,.15.03.21.09.06.06.09.13.09.21v2.95c0,.08-.03.15-.09.21-.06.06-.13.09-.21.09h-11.83c-.08,0-.15-.03-.21-.09-.06-.06-.09-.13-.09-.21v-16.9c0-.08.03-.15.09-.21.06-.06.13-.09.21-.09h11.83c.08,0,.15.03.21.09.06.06.09.13.09.21v2.95c0,.08-.03.15-.09.21Z"/><path class="cls-4" d="M42.28,57.05c-1.02-.44-1.82-1.07-2.38-1.9-.56-.83-.84-1.78-.84-2.86v-.48c0-.08.03-.15.09-.21.06-.06.13-.09.21-.09h3.48c.08,0,.15.03.21.09s.09.13.09.21v.3c0,.55.27,1.03.82,1.44.55.41,1.29.61,2.23.61.73,0,1.27-.16,1.62-.48.35-.32.52-.68.52-1.1,0-.33-.1-.6-.31-.81s-.49-.38-.84-.53-.89-.34-1.62-.59c-.1-.05-.2-.09-.3-.11-.1-.02-.19-.05-.28-.09-1.08-.35-2.02-.73-2.82-1.14-.8-.41-1.48-.97-2.05-1.7-.57-.72-.85-1.62-.85-2.69s.27-1.94.81-2.71c.54-.78,1.3-1.37,2.26-1.79.97-.42,2.06-.62,3.27-.62,1.28,0,2.44.23,3.46.7,1.02.47,1.83,1.12,2.41,1.97.58.85.88,1.83.88,2.93v.35c0,.08-.03.15-.09.21s-.13.09-.21.09h-3.48c-.08,0-.15-.03-.21-.09-.06-.06-.09-.13-.09-.21v-.17c0-.58-.26-1.1-.77-1.55-.52-.45-1.21-.68-2.08-.68-.65,0-1.16.13-1.52.4-.37.27-.55.64-.55,1.12,0,.37.12.67.35.91.23.24.6.47,1.09.68.49.21,1.25.48,2.26.81,1.17.4,2.08.75,2.73,1.05s1.26.79,1.84,1.46c.58.68.86,1.56.86,2.66s-.28,2.02-.83,2.8-1.32,1.39-2.31,1.81c-.99.42-2.15.64-3.46.64-1.38,0-2.59-.22-3.61-.66Z"/><path class="cls-4" d="M54.6,57.42c-.06-.06-.09-.13-.09-.21v-16.9c0-.08.03-.15.09-.21.06-.06.13-.09.21-.09h3.55c.08,0,.15.03.21.09s.09.13.09.21v16.9c0,.08-.03.15-.09.21-.06.06-.13.09-.21.09h-3.55c-.08,0-.15-.03-.21-.09Z"/><path class="cls-4" d="M64.05,56.91c-1.01-.53-1.79-1.28-2.35-2.25s-.84-2.08-.84-3.35v-5.12c0-1.27.28-2.38.84-3.34.56-.96,1.34-1.7,2.35-2.24,1.01-.53,2.18-.8,3.51-.8s2.48.25,3.5.76c1.02.51,1.8,1.2,2.36,2.09.56.88.84,1.86.84,2.92v.12c0,.08-.03.15-.09.21s-.13.09-.21.09h-3.55c-.08,0-.15-.03-.21-.09-.06-.06-.09-.13-.09-.21,0-.65-.23-1.2-.69-1.66-.46-.46-1.08-.69-1.86-.69s-1.38.25-1.85.75-.7,1.15-.7,1.95v5.38c0,.8.26,1.45.78,1.95s1.17.75,1.95.75c.73,0,1.32-.2,1.77-.59.45-.39.67-.94.67-1.64v-.7c0-.08-.04-.12-.12-.12h-2.5c-.08,0-.15-.03-.21-.09-.06-.06-.09-.13-.09-.21v-2.75c0-.08.03-.15.09-.21.06-.06.13-.09.21-.09h6.4c.08,0,.15.03.21.09.06.06.09.13.09.21v3.4c0,1.25-.28,2.35-.84,3.3-.56.95-1.34,1.68-2.35,2.2s-2.18.78-3.51.78-2.5-.27-3.51-.8Z"/><path class="cls-4" d="M86.45,40.1c.06-.06.13-.09.21-.09h3.55c.08,0,.15.03.21.09.06.06.09.13.09.21v16.9c0,.08-.03.15-.09.21s-.13.09-.21.09h-3.4c-.17,0-.28-.07-.35-.2l-5.75-9.55s-.07-.07-.1-.06c-.03,0-.05.05-.05.11l.02,9.4c0,.08-.03.15-.09.21s-.13.09-.21.09h-3.55c-.08,0-.15-.03-.21-.09-.06-.06-.09-.13-.09-.21v-16.9c0-.08.03-.15.09-.21s.13-.09.21-.09h3.42c.17,0,.28.07.35.2l5.73,9.52c.03.05.07.07.1.06.03,0,.05-.04.05-.11l-.02-9.38c0-.08.03-.15.09-.21Z"/></g></g><path class="cls-3" d="M44.81,91.65l-.96-2.06v2.06h-1.25v-4.52h1.25v1.94l.98-1.94h1.51l-1.29,2.18,1.37,2.34h-1.61Z"/><path class="cls-3" d="M46.56,91.65v-4.52h1.25v4.52h-1.25Z"/><path class="cls-3" d="M53.15,91.65h-1.51l-.38-1.69c-.07-.33-.13-.72-.17-1.15h0c-.03.4-.09.75-.17,1.11l-.4,1.74h-1.41l-1.09-4.52h1.32l.42,1.85c.07.29.11.64.14.98h0c.04-.33.09-.64.17-.96l.48-1.87h1.25l.46,1.8c.07.26.14.62.18.99h0c.05-.39.11-.74.18-1.05l.38-1.74h1.25l-1.1,4.52h0Z"/><path class="cls-3" d="M54.42,91.65v-4.52h1.25v4.52h-1.25Z"/><rect class="cls-3" x="56.15" y="90.4" width="1.25" height="1.25"/></svg>
