<?xml version="1.0" encoding="UTF-8"?>
<svg id="uuid-7edd3056-e34f-4146-878d-a4b8edbeb314" data-name="Ebene 1" xmlns="http://www.w3.org/2000/svg" viewBox="0 0 800 800">
  <rect width="800" height="800" rx="30" ry="30" fill="#34495e"/>
  <g id="uuid-a0c4eb3d-3340-4eda-829c-bd006ef25009" data-name="solidwork">
    <path d="M109.37,250.44c-10.92,7.46-18.55,15.95-22.89,25.49l-.52-26.53,23.41,1.04ZM119.26,379.18h-30.95l-.78-64.24c3.64,7.63,10.01,13.57,19.12,17.81,9.1,4.25,21.63,5.51,37.58,3.77,4.51-.52,8.28-.82,11.31-.91,3.03-.09,5.55.13,7.54.65,1.99.52,3.6,1.34,4.81,2.47,1.21,1.13,2.25,2.56,3.12,4.29,1.39,3.47,1.21,6.81-.52,10.01-1.74,3.21-5.9,6.29-12.48,9.23-3.12,1.39-6.55,2.6-10.27,3.64-3.73,1.04-7.41,1.86-11.05,2.47-3.64.61-7.15,1-10.53,1.17-3.38.18-6.37.09-8.97-.26l2.08,9.88ZM166.07,253.57l40.31,1.3,21.33,124.31h-35.37c10.75-8.49,17.47-17.81,20.16-27.96,2.69-10.14,1.78-20.24-2.73-30.3-4.68-9.53-11.4-16.43-20.16-20.68-8.76-4.25-20.68-5.68-35.76-4.29-4.68.52-8.67.87-11.96,1.04-3.3.18-6.07.09-8.32-.26-2.26-.35-4.08-1.04-5.46-2.08-1.39-1.04-2.52-2.34-3.38-3.9-1.39-3.29-1.17-6.54.65-9.75,1.82-3.21,5.24-5.94,10.27-8.19,5.72-2.6,11.66-4.33,17.81-5.2,6.15-.86,11.14-1.13,14.95-.78l-2.34-13.26Z" fill="#ecf0f1"/>
    <path d="M254.23,252.53c-13.87,4.16-25.14,11.36-33.81,21.59v-23.41l33.81,1.82ZM220.43,371.38c1.21,1.39,2.38,2.65,3.51,3.77,1.13,1.13,2.21,2.3,3.25,3.51h-6.76v-7.28ZM274.78,279.83c4.85-.34,9.14.57,12.87,2.73,3.73,2.17,6.89,5.16,9.49,8.97,2.6,3.82,4.64,8.15,6.11,13,1.47,4.86,2.47,9.88,2.99,15.08,1.21,13-.3,23.54-4.55,31.6-4.25,8.06-10.79,12.53-19.64,13.39-9.36.87-16.82-2.51-22.37-10.14-5.55-7.63-8.93-17.51-10.14-29.65-.52-5.2-.44-10.36.26-15.47.69-5.11,2.04-9.79,4.03-14.04,1.99-4.25,4.68-7.76,8.06-10.53,3.38-2.77,7.67-4.42,12.87-4.94ZM348.38,298.82c-2.78-9.88-7.07-18.42-12.87-25.62-5.81-7.19-12.96-13.04-21.46-17.55l34.33,2.34v40.83ZM327.84,378.66c4.51-4.16,8.58-8.88,12.22-14.17,3.64-5.29,6.41-11.22,8.32-17.81v31.99h-20.55Z" fill="#ecf0f1"/>
    <path d="M379.33,254.09l-5.98,123.8-24.19,1.82,3.64-124.58,26.53-1.04ZM417.82,252.79l60.6-2.34-9.36,118.59-56.96,5.2,5.72-121.46Z" fill="#ecf0f1"/>
    <path d="M603.26,250.19v133.68l-31.21-1.56,5.46-107.15-40.31-2.08-4.94,106.89-43.95-2.34-6.76-131.34,58.52,2.08c1.73,2.95,4.12,5.33,7.15,7.15,3.03,1.82,6.54,2.73,10.53,2.73,4.51.35,8.45-.34,11.83-2.08,3.38-1.73,6.02-4.07,7.93-7.02l25.75,1.04Z" fill="#ecf0f1"/>
    <path d="M662.81,268.39c-5.72-.34-11.31.3-16.77,1.95-5.46,1.65-10.49,4.25-15.08,7.8-4.6,3.56-8.67,7.93-12.22,13.13-3.56,5.2-6.29,11.18-8.19,17.95v-52.53l84.52-6.5-1.3,32.77h-.52c-2.6-3.99-6.46-7.32-11.57-10.01-5.12-2.69-11.4-4.2-18.86-4.55ZM610.54,354.47c1.39,4.86,3.29,9.32,5.72,13.39,2.43,4.08,5.2,7.59,8.32,10.53l-14.04.52v-24.45ZM689.86,346.15c-1.39,5.2-4.08,9.32-8.06,12.35-3.99,3.04-8.58,4.47-13.78,4.29-7.8-.52-13.83-3.77-18.08-9.75-4.25-5.98-6.11-14-5.59-24.06.35-9.36,2.82-17.12,7.41-23.28,4.59-6.15,11.05-9.06,19.38-8.71,5.55.35,10.14,2.34,13.78,5.98,3.64,3.64,5.89,7.89,6.76,12.74.17,1.22.26,2.43.26,3.64v3.12l-.78,15.34c0,2.6-.43,5.38-1.3,8.32ZM692.98,374.5h-1.82l1.3-1.3h.52v1.3ZM737.71,247.06l-8.06,125.62h-3.38c0-2.6.09-5.2.26-7.8.17-2.6.26-5.2.26-7.8l5.2-109.75,5.72-.26Z" fill="#ecf0f1"/>
    <path d="M216,562.82l1.04,9.62-128.74-8.84v-75.16l16.64,68.92,35.63,1.82,14.82-42.91c1.56-5.55,3.16-11.31,4.81-17.3,1.65-5.98,3.25-12.87,4.81-20.68h.52c.87,7.8,1.73,14.69,2.6,20.68.87,5.98,1.99,12.09,3.38,18.34l9.62,43.69,34.85,1.82ZM126.54,526.15c-.87-7.28-1.74-14.3-2.6-21.07-.87-6.76-1.74-13.26-2.6-19.51l-6.5-42.65,36.93-1.82-13.78,45.51c-1.91,6.07-3.82,12.44-5.72,19.11-1.91,6.68-3.73,13.48-5.46,20.42h-.26ZM184.02,439.55l23.41-.78,3.12,47.85v1.3c-1.91,6.94-3.64,13.91-5.2,20.94-1.56,7.02-3.04,14-4.42,20.94h-.52c-.7-7.28-1.65-14.34-2.86-21.2-1.21-6.85-2.52-13.91-3.9-21.2l-9.62-47.85Z" fill="#ecf0f1"/>
    <path d="M254.23,441.63c-13.87,4.16-25.14,11.36-33.81,21.59v-23.41l33.81,1.82ZM220.43,560.48c1.21,1.39,2.38,2.65,3.51,3.77,1.13,1.13,2.21,2.3,3.25,3.51h-6.76v-7.28ZM274.78,468.93c4.85-.34,9.14.57,12.87,2.73,3.73,2.17,6.89,5.16,9.49,8.97,2.6,3.82,4.64,8.15,6.11,13,1.47,4.86,2.47,9.88,2.99,15.08,1.21,13-.3,23.54-4.55,31.6-4.25,8.06-10.79,12.53-19.64,13.39-9.36.87-16.82-2.51-22.37-10.14-5.55-7.63-8.93-17.51-10.14-29.65-.52-5.2-.44-10.36.26-15.47.69-5.11,2.04-9.79,4.03-14.04,1.99-4.25,4.68-7.76,8.06-10.53,3.38-2.77,7.67-4.42,12.87-4.94ZM348.38,487.92c-2.78-9.88-7.07-18.42-12.87-25.62-5.81-7.19-12.96-13.04-21.46-17.56l34.33,2.34v40.83ZM327.84,567.76c4.51-4.16,8.58-8.88,12.22-14.17,3.64-5.29,6.41-11.22,8.32-17.81v31.99h-20.55Z" fill="#ecf0f1"/>
    <path d="M373.87,565.16l-12.74-.78-16.9-129.26,35.11,1.56c0,5.2-.04,10.92-.13,17.16-.09,6.24-.39,13.61-.91,22.11l-4.42,89.21ZM431.09,439.03c-2.43,2.26-4.77,4.86-7.02,7.8-2.26,2.95-4.08,6.42-5.46,10.4h-1.3v-18.73l13.78.52ZM466.72,440.33h5.2l6.24,129.26-60.08-2.34,2.86-66.32c.34-1.73.56-3.42.65-5.07.09-1.65.39-3.16.91-4.55,1.73-6.76,5.29-12.05,10.66-15.86,5.37-3.81,12.22-5.55,20.55-5.2,4.51.52,8.32,1.13,11.44,1.82l1.56-31.73Z" fill="#ecf0f1"/>
    <path d="M491.68,562.56l-9.36-.52-5.2-123.28h3.64l10.92,123.8ZM526.01,440.07l80.1,3.38v5.98l-39.01,3.38-25.23,46.03c-1.39,2.78-2.86,5.68-4.42,8.71-1.56,3.04-2.95,6.2-4.16,9.49h-.78l-6.5-76.98ZM565.28,567.24l-28.61-1.82-.52-10.4,9.88-15.08,19.25,27.31ZM606.64,467.89l1.3,83.48-33.29-40.31,31.99-43.17Z" fill="#ecf0f1"/>
  </g>
</svg>