<svg xmlns="http://www.w3.org/2000/svg" viewBox="0 0 100 100"><linearGradient id="a" x1="79.7" x2="20.5" y1="108.2" y2="-8.1" gradientUnits="userSpaceOnUse"><stop offset="0" stop-color="#5d4b41"/><stop offset="1" stop-color="#9e8a78"/></linearGradient><path fill="url(#a)" d="M.1 5.7C.1 2.6 2.7 0 5.8 0h88.6c3.1 0 5.7 2.6 5.7 5.7v88.6c0 3.1-2.6 5.7-5.7 5.7H5.8a6 6 0 0 1-5.7-5.8V5.7z"/><g fill="#fff"><g fill-rule="evenodd" opacity=".9"><path d="M84.9 88.8v.8l.1.1 1.1.6 1.7 1 1.2.7.1.2v1.5L85 91.3v.7l.1.1 3.9 2.3.1.3v1.4l-.2-.1-5.2-3-.1-.2v-6.3l.2.1 4.5 2.7.7.4.1.2v1.5l-4.2-2.6z"/><path d="M92.3 94.8V90a2 2 0 0 0-.6.4v4.7c0 .1 0 .2-.2.3l-1.2.7v-6.2l.1-.2 5.3-3.1.1-.1v6.1c0 .3-.1.4-.3.5l-1 .6-.2.1V89l-.7.4v4.8l-.1.1c-.3 0-.8.3-1.2.5z" opacity=".8"/><path d="M89.9 88.5a145.6 145.6 0 0 1-5.7-3.1l-.3-.2.2-.1 5.4-3.2h.3l5.4 3.2.1.1-.1.1-5.1 3-.2.2zm-3.2-3.2.2.1 2.6 1.5h.3l2.6-1.5.1-.1-.1-.1-2.7-1.5c-.1-.1-.2 0-.2 0l-2.6 1.5-.2.1z" opacity=".6"/></g><path d="M80.8 66.2c-.1-.3-.3-.4-.6-.5l-5.9-2.2c-.5-.2-1.1.1-1.3.6l-.4 1-6.9-2.5h-.5l-14.3 2.5a4.3 4.3 0 0 0-3 2.2l-6.5-2.4c-1-.4-2.2-.3-3.2.1a4.2 4.2 0 0 0 .5 7.8l18.6 6.8 3 1.1h.7l6-2 .6.2-.4 1c-.2.5.1 1.1.6 1.3l5.9 2.2c.5.2 1.1-.1 1.3-.6L80.7 67c.2-.3.2-.6.1-.8zM66.6 76.6l-6 2-21.2-7.7c-1-.3-1.6-1.3-1.5-2.3.1-.6.5-1.2 1-1.5.5-.3 1.2-.4 1.8-.2l6.8 2.5v.6a4.2 4.2 0 0 0 4.9 3.4l11.8-2.1-.4-2.1L52 71.3c-1.1.2-2.2-.6-2.4-1.7v-.8l.1-.3c.3-.7.9-1.2 1.6-1.4l14-2.5 6.6 2.4-3.6 9.9-1-.4-.7.1zm6.9 4.5-3.9-1.4 5-13.8 3.9 1.4-5 13.8z" opacity=".7"/><path d="m38.6 46.9 2-1.5v13.3a2 2 0 0 0 2.1 2.1h18.9a2 2 0 0 0 2.1-2.1V45.4l2 1.5c.5.4 1.1.6 1.7.6 1 0 1.9-.5 2.5-1.3.9-1.3.5-3.1-.8-4l-8-5.6.7-.8a4 4 0 0 0-.7-5.1l-8.5-8.5a7.3 7.3 0 0 0-5.2-2.2h-11l-.4.1-7.1 2.9h-.8v-2.1c0-.6-.5-1-1-1h-8.4c-.6 0-1.1.5-1.1 1v16.8c0 .6.5 1 1.1 1h8.4c.6 0 1-.5 1-1v-2.1h.2c.8 2.5 4.1 4.2 7.2 4.2s6.4-1.7 7.2-4.2h1.8l-9.2 6.5a2.9 2.9 0 0 0-.7 4c.8 1.4 2.7 1.7 4 .8zM26 36.7h-6.3V22H26v14.7zm20.9 22v-6.3h4.2v6.3h-4.2zm14.7 0h-8.4v-7.3c0-.6-.5-1-1.1-1h-6.2c-.6 0-1.1.5-1.1 1v7.3h-2.1V43.9l9.4-6.9 9.4 6.9.1 14.8zM41.7 33.5a1 1 0 0 0-1 1c0 1.6-2.6 3.1-5.2 3.1s-5.2-1.6-5.2-3.1c0-.6-.5-1-1.1-1h-1v-8.4h1l.4-.1 7.1-3.1h10.8c1.4 0 2.7.5 3.7 1.5l8.5 8.5c.7.6.8 1.7.4 2.5-.3.5-.8.8-1.4.8-.6.1-1.1-.1-1.6-.5l-3.9-3.9c-.2-2.1-2-3.7-4.2-3.7h-9.4v2.1H49a2 2 0 0 1 2.1 2.1 2 2 0 0 1-2.1 2.1l-7.3.1zM36.2 45c-.2-.4-.2-.9.2-1.1L48 35.7h1c1.5 0 3-.8 3.7-2.2l2.9 2.9c.9.9 2.1 1.3 3.3 1.1l9 6.3c.3.2.4.5.3.9-.1.3-.3.6-.7.6l-.6-.1-14.1-10.4c-.4-.3-.9-.3-1.2 0L37.4 45.2l-.5.2-.7-.4zm18.5 6.9V56c0 .6.5 1 1 1h4.2c.6 0 1-.5 1-1v-4.1c0-.6-.5-1-1-1h-4.1c-.6 0-1.1.4-1.1 1zm2.1 1h2.1V55h-2.1v-2.1zm-7.3-9.3a3.12 3.12 0 0 0 3.1 3.1 3.12 3.12 0 0 0 3.1-3.1 3.12 3.12 0 0 0-3.1-3.1 3.1 3.1 0 0 0-3.1 3.1zm4.2 0a1 1 0 0 1-2 0c0-.6.5-1 1-1a1.08 1.08 0 0 1 1 1z"/></g></svg>