<svg xmlns="http://www.w3.org/2000/svg" viewBox="0 0 100 100"><style>.st1{opacity:.9;fill:#fff;enable-background:new}.st3{fill-rule:evenodd;clip-rule:evenodd;fill:#fff}</style><linearGradient id="A" x1="79.755" x2="20.245" y1="-204.034" y2="-87.241" gradientTransform="matrix(1 0 0 -1 0 -95.638)" gradientUnits="userSpaceOnUse"><stop offset="0" stop-color="#30302f"/><stop offset="1" stop-color="#4d4d4d"/></linearGradient><path fill="url(#A)" d="M95 100H5c-2.8 0-5-2.2-5-5V5c0-2.8 2.2-5 5-5h90c2.8 0 5 2.2 5 5v90c0 2.8-2.2 5-5 5z"/><path d="M67.03 48.63c-2.34 0-4.65.49-6.79 1.44V34.58c0-.66-.54-1.2-1.2-1.2h-1.52v-3.66c0-.66-.54-1.2-1.2-1.2h-2.68V27.1c0-.66-.54-1.2-1.2-1.2s-1.2.54-1.2 1.2v1.43H48.5c-.66 0-1.2.54-1.2 1.2v3.66h-1.6v-4.74c0-.66-.54-1.2-1.2-1.2h-3.08v-3.72c0-.66-.54-1.2-1.2-1.2h-6.88v-2.19c0-.66-.54-1.2-1.2-1.2s-1.2.54-1.2 1.2v2.19h-6.6c-.66 0-1.2.54-1.2 1.2v3.72h-3.08c-.66 0-1.2.54-1.2 1.2V72.6c0 .66.54 1.2 1.2 1.2h32.41c4.07 7.06 12.62 10.17 20.27 7.39s12.2-10.66 10.79-18.68c-1.39-8.03-8.36-13.88-16.5-13.88zM25.55 24.92h13.48v2.52H25.55v-2.52zM35.98 71.4h-2.63v-7.33h2.63v7.33zm-5.03 0H28.6v-7.33h2.35v7.33zm12.36 0h-4.93v-8.53c0-.66-.54-1.2-1.2-1.2h-9.77c-.66 0-1.2.54-1.2 1.2v8.53h-4.93V29.84h22.03V71.4zm6.39-40.47h5.42v2.46H49.7v-2.46zM45.71 71.4V35.78h12.14v15.59c-.87.57-1.68 1.21-2.43 1.93-.12-.04-.24-.06-.36-.06h-6.5c-.66 0-1.2.54-1.2 1.2s.54 1.2 1.2 1.2h4.84c-.7.97-1.29 2.02-1.77 3.12h-3.07c-.66 0-1.2.54-1.2 1.2s.54 1.2 1.2 1.2h2.24c-.3 1.16-.48 2.36-.53 3.56h-1.71c-.66 0-1.2.54-1.2 1.2 0 .66.54 1.2 1.2 1.2h1.78c.15 1.47.49 2.91 1.02 4.29h-5.65v-.01zm21.32 8.4c-7.95 0-14.39-6.44-14.39-14.39s6.44-14.39 14.39-14.39 14.39 6.44 14.39 14.39c-.01 7.95-6.45 14.38-14.39 14.39z" class="st1"/><path d="M25.04 42.44h14.52c.66 0 1.2-.54 1.2-1.2s-.54-1.2-1.2-1.2H25.04c-.66 0-1.2.54-1.2 1.2 0 .66.54 1.2 1.2 1.2zm0 6.67h14.52c.66 0 1.2-.54 1.2-1.2s-.54-1.2-1.2-1.2H25.04c-.66 0-1.2.54-1.2 1.2 0 .67.54 1.2 1.2 1.2zm0 6.68h14.52c.66 0 1.2-.54 1.2-1.2s-.54-1.2-1.2-1.2H25.04c-.66 0-1.2.54-1.2 1.2s.54 1.2 1.2 1.2zm0-20.03h14.52c.66 0 1.2-.54 1.2-1.2s-.54-1.2-1.2-1.2H25.04c-.66 0-1.2.54-1.2 1.2 0 .66.54 1.2 1.2 1.2zm23.51 13.93h6.24c.66 0 1.2-.54 1.2-1.2s-.54-1.2-1.2-1.2h-6.24c-.66 0-1.2.54-1.2 1.2.01.67.54 1.2 1.2 1.2zm0-5.8h6.24c.66 0 1.2-.54 1.2-1.2s-.54-1.2-1.2-1.2h-6.24c-.66 0-1.2.54-1.2 1.2.01.66.54 1.2 1.2 1.2zm24.88 13.07c-1.7-1.7-4-2.66-6.4-2.66s-4.7.96-6.4 2.66a9.55 9.55 0 0 0-2.76 6.11c-.08 1.27.1 2.54.54 3.73a9.67 9.67 0 0 0 2.08 3.3l5.67 6.03c.23.24.54.38.87.38s.65-.14.87-.38l5.67-6.03a9.67 9.67 0 0 0 2.08-3.3c.44-1.19.63-2.46.55-3.73a9.612 9.612 0 0 0-2.77-6.11zm-.04 9.02c-.35.93-.89 1.77-1.57 2.48l-4.79 5.11-4.79-5.11a7.262 7.262 0 0 1-1.57-2.48 6.77 6.77 0 0 1-.41-2.75c.11-1.73.85-3.36 2.07-4.58 1.25-1.25 2.94-1.95 4.7-1.95s3.46.7 4.7 1.95a7.218 7.218 0 0 1 2.07 4.58c.06.94-.08 1.88-.41 2.75z" class="st1"/><path d="M67.03 58.38c-2.53 0-4.59 2.1-4.59 4.68 0 2.58 2.06 4.68 4.59 4.68s4.59-2.1 4.59-4.68c0-2.58-2.06-4.68-4.59-4.68zm0 6.97c-1.21 0-2.19-1.02-2.19-2.29 0-1.26.98-2.29 2.19-2.29s2.19 1.03 2.19 2.29-.98 2.29-2.19 2.29z" class="st1"/><g opacity=".7"><path d="M89.1 87.7c0-.3-.2-.6-.6-.6s-.8.3-.7.6c.1.4.2.7.7.7.3.1.6-.3.6-.7zm3-1c-.4-.1-.8.5-.4.7.2.2 1.1.4 1.5.7 1.1.7 1.7 1.3 2 2.3.4 1.9 0 5-2.6 5-.7 0-1.6-.3-2-1-.4-.9.2-2.3 1.2-2.5 1.2-.2 1.7.7.7 1.3-1.9 1.1 1 .9 1.5-.1.6-1.2-.6-2.3-2-2.2-1.1.1-2.1.8-2.4 1.8-.9 2.4 1.4 4.4 3.7 4 2.5-.4 3.4-3.1 3.2-5.4-.2-2.5-1.9-3.9-4.4-4.6z" class="st3"/><path d="M90.2 87.1c-.2-.2-.1-.5-.1-.8 0-.1.1-.6-.1-.6h-.4c-.5 0-1.1.2-1.6.5-1 .6-1.8 1.8-1.9 3 .6 0 4.1.1 4.4.1s.5.7-.4.7c-1 0-3.1-.1-4.2-.1-.5 0-.6-.2-.5-.6V89c.3-2.5 2.4-4.1 4.9-4 .4 0 .5.1.5.5v1.1c.1.8-.6.5-.6.5z" class="st3"/></g></svg>
