<svg id="Hirschkopf" xmlns="http://www.w3.org/2000/svg" viewBox="0 0 237.41 306.99"><defs><style>.cls-1{fill:#f07f24}.cls-2{fill:#f59d23}.cls-3{fill:#5bb5cb}.cls-4{fill:#c2c600}.cls-5{fill:#214176}.cls-6{fill:#14284d}</style></defs><path class="cls-1" d="M196.47 0h4.09v4.09h-4.09zM200.57 4.09h4.09v4.09h-4.09z"/><path class="cls-2" d="M45.03 12.28h4.09v4.09h-4.09zM49.12 8.19h4.09v4.09h-4.09z"/><path class="cls-3" d="M49.12 4.09h4.09v4.09h-4.09zM53.21 0h4.09v4.09h-4.09z"/><path class="cls-2" d="M200.57 8.19h4.09v4.09h-4.09z"/><path class="cls-1" d="M45.03 16.37h4.09v4.09h-4.09zM200.57 12.28h4.09v4.09h-4.09z"/><path class="cls-3" d="M4.09 20.47h4.09v4.09H4.09z"/><path class="cls-4" d="M28.65 20.47h4.09v4.09h-4.09z"/><path class="cls-1" d="M40.93 20.47h4.09v4.09h-4.09z"/><path class="cls-2" d="M45.03 20.47h4.09v4.09h-4.09zM200.57 16.37h4.09v4.09h-4.09z"/><path class="cls-1" d="M204.66 16.37h4.09v4.09h-4.09zM4.09 24.56h4.09v4.09H4.09zM28.65 24.56h4.09v4.09h-4.09z"/><path class="cls-2" d="M40.93 24.56h4.09v4.09h-4.09zM204.66 20.47h4.09v4.09h-4.09z"/><path class="cls-3" d="M4.09 28.65h4.09v4.09H4.09z"/><path class="cls-4" d="M28.65 28.65h4.09v4.09h-4.09z"/><path class="cls-1" d="M40.93 28.65h4.09v4.09h-4.09zM204.66 24.56h4.09v4.09h-4.09z"/><path class="cls-2" d="M208.75 24.56h4.09v4.09h-4.09z"/><path class="cls-1" d="M4.09 32.75h4.09v4.09H4.09zM28.65 32.75h4.09v4.09h-4.09z"/><path class="cls-2" d="M40.93 32.75h4.09v4.09h-4.09z"/><path class="cls-4" d="M208.75 32.75h4.09v4.09h-4.09z"/><path class="cls-1" d="M208.75 28.65h4.09v4.09h-4.09zM0 36.84h4.09v4.09H0z"/><path class="cls-4" d="M28.65 36.84h4.09v4.09h-4.09z"/><path class="cls-1" d="M32.75 36.84h4.09v4.09h-4.09z"/><path class="cls-4" d="M36.84 36.84h4.09v4.09h-4.09z"/><path class="cls-1" transform="rotate(180 218.99 14.325)" d="M216.94 12.28h4.09v4.09h-4.09z"/><path class="cls-4" transform="rotate(180 218.99 18.42)" d="M216.94 16.37h4.09v4.09h-4.09z"/><path class="cls-1" transform="rotate(180 218.99 22.515)" d="M216.94 20.47h4.09v4.09h-4.09z"/><path class="cls-4" transform="rotate(180 218.99 26.605)" d="M216.94 24.56h4.09v4.09h-4.09z"/><path class="cls-1" transform="rotate(180 218.99 30.7)" d="M216.94 28.65h4.09v4.09h-4.09z"/><path class="cls-4" transform="rotate(180 214.895 30.7)" d="M212.85 28.65h4.09v4.09h-4.09z"/><path class="cls-1" d="M40.93 36.84h4.09v4.09h-4.09zM212.85 32.75h4.09v4.09h-4.09zM233.31 32.75h4.09v4.09h-4.09z"/><path class="cls-3" d="M0 40.93h4.09v4.09H0z"/><path class="cls-4" d="M32.75 40.93h4.09v4.09h-4.09z"/><path class="cls-1" d="M36.84 40.93h4.09v4.09h-4.09z"/><path class="cls-4" d="M40.93 40.93h4.09v4.09h-4.09zM212.85 36.84h4.09v4.09h-4.09z"/><path class="cls-3" d="M233.31 36.84h4.09v4.09h-4.09z"/><path class="cls-1" d="M0 45.03h4.09v4.09H0zM16.37 45.03h4.09v4.09h-4.09zM32.75 45.03h4.09v4.09h-4.09z"/><path class="cls-4" d="M36.84 45.03h4.09v4.09h-4.09z"/><path class="cls-1" d="M40.93 45.03h4.09v4.09h-4.09z"/><path class="cls-4" d="M208.75 40.93h4.09v4.09h-4.09z"/><path class="cls-1" d="M212.85 40.93h4.09v4.09h-4.09zM208.75 36.84h4.09v4.09h-4.09zM233.31 40.93h4.09v4.09h-4.09z"/><path class="cls-3" d="M0 49.12h4.09v4.09H0zM16.37 49.12h4.09v4.09h-4.09z"/><path class="cls-4" d="M32.75 49.12h4.09v4.09h-4.09z"/><path class="cls-1" d="M36.84 49.12h4.09v4.09h-4.09zM208.75 45.03h4.09v4.09h-4.09z"/><path class="cls-4" d="M212.85 45.03h4.09v4.09h-4.09z"/><path class="cls-2" d="M212.85 53.21h4.09v4.09h-4.09z"/><path class="cls-3" d="M233.31 45.03h4.09v4.09h-4.09z"/><path class="cls-1" d="M0 53.21h4.09v4.09H0z"/><path class="cls-3" d="M4.09 53.21h4.09v4.09H4.09z"/><path class="cls-1" d="M16.37 53.21h4.09v4.09h-4.09zM32.75 53.21h4.09v4.09h-4.09z"/><path class="cls-4" d="M36.84 53.21h4.09v4.09h-4.09z"/><path class="cls-1" d="M57.31 53.21h4.09v4.09h-4.09z"/><path class="cls-4" d="M208.75 49.12h4.09v4.09h-4.09z"/><path class="cls-1" d="M233.31 49.12h4.09v4.09h-4.09zM4.09 57.31h4.09v4.09H4.09zM12.28 57.31h4.09v4.09h-4.09z"/><path class="cls-3" d="M16.37 57.31h4.09v4.09h-4.09z"/><path class="cls-4" d="M32.75 57.31h4.09v4.09h-4.09z"/><path class="cls-1" d="M36.84 57.31h4.09v4.09h-4.09zM53.21 57.31h4.09v4.09h-4.09zM208.75 53.21h4.09v4.09h-4.09z"/><path class="cls-3" d="M233.31 53.21h4.09v4.09h-4.09z"/><path class="cls-4" d="M4.09 61.4h4.09v4.09H4.09z"/><path class="cls-3" d="M12.28 61.4h4.09v4.09h-4.09z"/><path class="cls-1" d="M32.75 61.4h4.09v4.09h-4.09z"/><path class="cls-4" d="M36.84 61.4h4.09v4.09h-4.09z"/><path class="cls-1" d="M49.12 61.4h4.09v4.09h-4.09z"/><path class="cls-2" d="M53.21 61.4h4.09v4.09h-4.09z"/><path class="cls-1" d="M212.85 49.12h4.09v4.09h-4.09z"/><path class="cls-2" d="M212.85 61.4h4.09v4.09h-4.09z"/><path class="cls-1" d="M212.85 57.31h4.09v4.09h-4.09z"/><path class="cls-2" d="M212.85 69.58h4.09v4.09h-4.09z"/><path class="cls-1" d="M212.85 65.49h4.09v4.09h-4.09zM212.85 73.68h4.09v4.09h-4.09z"/><path class="cls-2" d="M208.75 57.31h4.09v4.09h-4.09z"/><path class="cls-1" d="M229.22 57.31h4.09v4.09h-4.09zM4.09 65.49h4.09v4.09H4.09zM12.28 65.49h4.09v4.09h-4.09z"/><path class="cls-2" d="M32.75 65.49h4.09v4.09h-4.09z"/><path class="cls-1" d="M36.84 65.49h4.09v4.09h-4.09zM45.03 65.49h4.09v4.09h-4.09z"/><path class="cls-2" d="M49.12 65.49h4.09v4.09h-4.09z"/><path class="cls-1" d="M208.75 61.4h4.09v4.09h-4.09z"/><path class="cls-4" d="M229.22 61.4h4.09v4.09h-4.09zM4.09 69.58h4.09v4.09H4.09z"/><path class="cls-1" d="M8.19 69.58h4.09v4.09H8.19z"/><path class="cls-4" d="M12.28 69.58h4.09v4.09h-4.09z"/><path class="cls-1" d="M32.75 69.58h4.09v4.09h-4.09z"/><path class="cls-2" d="M36.84 69.58h4.09v4.09h-4.09z"/><path class="cls-1" d="M40.93 69.58h4.09v4.09h-4.09z"/><path class="cls-2" d="M45.03 69.58h4.09v4.09h-4.09z"/><path class="cls-3" d="M208.75 65.49h4.09v4.09h-4.09z"/><path class="cls-1" d="M229.22 65.49h4.09v4.09h-4.09z"/><path class="cls-4" d="M8.19 73.68h4.09v4.09H8.19z"/><path class="cls-1" d="M12.28 73.68h4.09v4.09h-4.09z"/><path class="cls-4" d="M16.37 73.68h4.09v4.09h-4.09z"/><path class="cls-2" d="M32.75 73.68h4.09v4.09h-4.09z"/><path class="cls-1" d="M36.84 73.68h4.09v4.09h-4.09z"/><path class="cls-2" d="M40.93 73.68h4.09v4.09h-4.09z"/><path class="cls-1" d="M45.03 73.68h4.09v4.09h-4.09z"/><path class="cls-2" transform="rotate(180 182.15 55.26)" d="M180.1 53.21h4.09v4.09h-4.09z"/><path class="cls-2" transform="rotate(180 186.24 59.35)" d="M184.2 57.31h4.09v4.09h-4.09z"/><path class="cls-2" transform="rotate(180 190.335 63.445)" d="M188.29 61.4h4.09v4.09h-4.09z"/><path class="cls-1" transform="rotate(180 186.24 63.445)" d="M184.2 61.4h4.09v4.09h-4.09z"/><path class="cls-2" transform="rotate(180 194.43 67.54)" d="M192.38 65.49h4.09v4.09h-4.09z"/><path class="cls-2" transform="rotate(180 198.52 71.63)" d="M196.47 69.58h4.09v4.09h-4.09z"/><path class="cls-1" transform="rotate(180 190.335 67.54)" d="M188.29 65.49h4.09v4.09h-4.09z"/><path class="cls-1" transform="rotate(180 194.43 71.63)" d="M192.38 69.58h4.09v4.09h-4.09z"/><path class="cls-1" transform="rotate(180 202.615 71.63)" d="M200.57 69.58h4.09v4.09h-4.09z"/><path class="cls-2" transform="rotate(180 194.43 75.725)" d="M192.38 73.68h4.09v4.09h-4.09z"/><path class="cls-3" d="M204.66 69.58h4.09v4.09h-4.09z"/><path class="cls-1" d="M208.75 69.58h4.09v4.09h-4.09zM225.13 69.58h4.09v4.09h-4.09z"/><path class="cls-3" d="M229.22 69.58h4.09v4.09h-4.09z"/><path class="cls-1" d="M8.19 77.77h4.09v4.09H8.19z"/><path class="cls-4" d="M12.28 77.77h4.09v4.09h-4.09z"/><path class="cls-1" d="M16.37 77.77h4.09v4.09h-4.09zM32.75 77.77h4.09v4.09h-4.09z"/><path class="cls-2" d="M36.84 77.77h4.09v4.09h-4.09z"/><path class="cls-1" d="M40.93 77.77h4.09v4.09h-4.09zM196.47 73.68h4.09v4.09h-4.09z"/><path class="cls-3" d="M200.57 73.68h4.09v4.09h-4.09z"/><path class="cls-1" d="M204.66 73.68h4.09v4.09h-4.09z"/><path class="cls-3" d="M208.75 73.68h4.09v4.09h-4.09zM225.13 73.68h4.09v4.09h-4.09z"/><path class="cls-1" d="M12.28 81.86h4.09v4.09h-4.09z"/><path class="cls-3" d="M16.37 81.86h4.09v4.09h-4.09z"/><path class="cls-4" d="M32.75 81.86h4.09v4.09h-4.09z"/><path class="cls-1" d="M36.84 81.86h4.09v4.09h-4.09z"/><path class="cls-3" d="M204.66 77.77h4.09v4.09h-4.09zM212.85 77.77h4.09v4.09h-4.09z"/><path class="cls-1" d="M212.85 81.86h4.09v4.09h-4.09zM208.75 77.77h4.09v4.09h-4.09zM225.13 77.77h4.09v4.09h-4.09z"/><path class="cls-3" d="M12.28 85.96h4.09v4.09h-4.09z"/><path class="cls-1" d="M16.37 85.96h4.09v4.09h-4.09z"/><path class="cls-3" d="M20.47 85.96h4.09v4.09h-4.09z"/><path class="cls-1" d="M32.75 85.96h4.09v4.09h-4.09z"/><path class="cls-4" d="M36.84 85.96h4.09v4.09h-4.09zM77.77 85.96h4.09v4.09h-4.09z"/><path class="cls-1" d="M204.66 81.86h4.09v4.09h-4.09z"/><path class="cls-3" d="M216.94 81.86h4.09v4.09h-4.09z"/><path class="cls-1" d="M221.03 81.86h4.09v4.09h-4.09zM216.94 77.77h4.09v4.09h-4.09z"/><path class="cls-3" d="M221.03 77.77h4.09v4.09h-4.09zM16.37 90.05h4.09v4.09h-4.09z"/><path class="cls-1" d="M20.47 90.05h4.09v4.09h-4.09z"/><path class="cls-4" d="M24.56 90.05h4.09v4.09h-4.09zM32.75 90.05h4.09v4.09h-4.09z"/><path class="cls-1" d="M36.84 90.05h4.09v4.09h-4.09zM73.68 90.05h4.09v4.09h-4.09z"/><path class="cls-4" d="M204.66 85.96h4.09v4.09h-4.09z"/><path class="cls-1" d="M208.75 85.96h4.09v4.09h-4.09z"/><path class="cls-4" d="M212.85 85.96h4.09v4.09h-4.09zM208.75 81.86h4.09v4.09h-4.09z"/><path class="cls-3" d="M20.47 94.14h4.09v4.09h-4.09z"/><path class="cls-1" d="M24.56 94.14h4.09v4.09h-4.09z"/><path class="cls-4" d="M28.65 94.14h4.09v4.09h-4.09z"/><path class="cls-1" d="M32.75 94.14h4.09v4.09h-4.09z"/><path class="cls-4" d="M36.84 94.14h4.09v4.09h-4.09zM69.58 94.14h4.09v4.09h-4.09z"/><path class="cls-1" d="M147.36 90.05h4.09v4.09h-4.09zM143.26 85.96h4.09v4.09h-4.09z"/><path class="cls-4" d="M200.57 90.05h4.09v4.09h-4.09z"/><path class="cls-1" d="M204.66 90.05h4.09v4.09h-4.09z"/><path class="cls-4" d="M208.75 90.05h4.09v4.09h-4.09z"/><path class="cls-1" d="M20.47 98.24h4.09v4.09h-4.09z"/><path class="cls-4" d="M24.56 98.24h4.09v4.09h-4.09z"/><path class="cls-1" d="M28.65 98.24h4.09v4.09h-4.09z"/><path class="cls-4" d="M32.75 98.24h4.09v4.09h-4.09z"/><path class="cls-1" d="M36.84 98.24h4.09v4.09h-4.09z"/><path class="cls-2" d="M40.93 98.24h4.09v4.09h-4.09z"/><path class="cls-1" d="M69.58 98.24h4.09v4.09h-4.09z"/><path class="cls-2" d="M147.36 94.14h4.09v4.09h-4.09z"/><path class="cls-4" d="M196.47 94.14h4.09v4.09h-4.09z"/><path class="cls-1" d="M200.57 94.14h4.09v4.09h-4.09z"/><path class="cls-4" d="M204.66 94.14h4.09v4.09h-4.09z"/><path class="cls-1" d="M208.75 94.14h4.09v4.09h-4.09zM24.56 102.33h4.09v4.09h-4.09z"/><path class="cls-4" d="M28.65 102.33h4.09v4.09h-4.09z"/><path class="cls-1" d="M32.75 102.33h4.09v4.09h-4.09z"/><path class="cls-2" d="M36.84 102.33h4.09v4.09h-4.09z"/><path class="cls-1" d="M40.93 102.33h4.09v4.09h-4.09z"/><path class="cls-4" d="M69.58 102.33h4.09v4.09h-4.09z"/><path class="cls-1" d="M147.36 98.24h4.09v4.09h-4.09zM196.47 98.24h4.09v4.09h-4.09z"/><path class="cls-4" d="M200.57 98.24h4.09v4.09h-4.09z"/><path class="cls-1" d="M204.66 98.24h4.09v4.09h-4.09zM28.65 106.42h4.09v4.09h-4.09z"/><path class="cls-4" d="M32.75 106.42h4.09v4.09h-4.09z"/><path class="cls-1" d="M36.84 106.42h4.09v4.09h-4.09z"/><path class="cls-2" d="M40.93 106.42h4.09v4.09h-4.09z"/><path class="cls-4" d="M65.49 106.42h4.09v4.09h-4.09z"/><path class="cls-1" d="M69.58 106.42h4.09v4.09h-4.09z"/><path class="cls-2" d="M147.36 102.33h4.09v4.09h-4.09z"/><path class="cls-1" d="M151.45 102.33h4.09v4.09h-4.09zM192.38 102.33h4.09v4.09h-4.09z"/><path class="cls-4" d="M196.47 102.33h4.09v4.09h-4.09z"/><path class="cls-1" d="M200.57 102.33h4.09v4.09h-4.09zM32.75 110.52h4.09v4.09h-4.09z"/><path class="cls-2" d="M36.84 110.52h4.09v4.09h-4.09z"/><path class="cls-1" d="M40.93 110.52h4.09v4.09h-4.09z"/><path class="cls-2" d="M45.03 110.52h4.09v4.09h-4.09z"/><path class="cls-1" d="M65.49 110.52h4.09v4.09h-4.09z"/><path class="cls-4" d="M69.58 110.52h4.09v4.09h-4.09z"/><path class="cls-1" d="M147.36 106.42h4.09v4.09h-4.09z"/><path class="cls-2" d="M151.45 106.42h4.09v4.09h-4.09z"/><path class="cls-4" d="M184.2 106.42h4.09v4.09h-4.09z"/><path class="cls-1" d="M188.29 106.42h4.09v4.09h-4.09z"/><path class="cls-4" d="M192.38 106.42h4.09v4.09h-4.09z"/><path class="cls-1" d="M196.47 106.42h4.09v4.09h-4.09zM36.84 114.61h4.09v4.09h-4.09z"/><path class="cls-2" d="M40.93 114.61h4.09v4.09h-4.09z"/><path class="cls-1" d="M45.03 114.61h4.09v4.09h-4.09z"/><path class="cls-2" d="M49.12 114.61h4.09v4.09h-4.09z"/><path class="cls-4" d="M65.49 114.61h4.09v4.09h-4.09z"/><path class="cls-1" d="M69.58 114.61h4.09v4.09h-4.09z"/><path class="cls-2" d="M147.36 110.52h4.09v4.09h-4.09z"/><path class="cls-1" d="M151.45 110.52h4.09v4.09h-4.09zM184.2 110.52h4.09v4.09h-4.09z"/><path class="cls-4" d="M188.29 110.52h4.09v4.09h-4.09z"/><path class="cls-1" d="M192.38 110.52h4.09v4.09h-4.09z"/><path class="cls-2" d="M45.03 118.7h4.09v4.09h-4.09z"/><path class="cls-1" d="M49.12 118.7h4.09v4.09h-4.09z"/><path class="cls-3" d="M53.21 118.7h4.09v4.09h-4.09z"/><path class="cls-1" d="M57.31 118.7h4.09v4.09h-4.09zM65.49 118.7h4.09v4.09h-4.09z"/><path class="cls-4" d="M69.58 118.7h4.09v4.09h-4.09z"/><path class="cls-1" d="M147.36 114.61h4.09v4.09h-4.09z"/><path class="cls-2" d="M151.45 114.61h4.09v4.09h-4.09z"/><path class="cls-1" d="M180.1 114.61h4.09v4.09h-4.09z"/><path class="cls-4" d="M184.2 114.61h4.09v4.09h-4.09z"/><path class="cls-3" d="M49.12 122.8h4.09v4.09h-4.09z"/><path class="cls-1" d="M53.21 122.8h4.09v4.09h-4.09z"/><path class="cls-3" d="M57.31 122.8h4.09v4.09h-4.09z"/><path class="cls-1" d="M61.4 122.8h4.09v4.09H61.4z"/><path class="cls-4" d="M65.49 122.8h4.09v4.09h-4.09z"/><path class="cls-1" d="M69.58 122.8h4.09v4.09h-4.09z"/><path class="cls-2" d="M147.36 118.7h4.09v4.09h-4.09z"/><path class="cls-1" d="M151.45 118.7h4.09v4.09h-4.09zM167.82 118.7h4.09v4.09h-4.09z"/><path class="cls-3" d="M171.92 118.7h4.09v4.09h-4.09z"/><path class="cls-1" d="M176.01 118.7h4.09v4.09h-4.09z"/><path class="cls-3" d="M180.1 118.7h4.09v4.09h-4.09zM53.21 126.89h4.09v4.09h-4.09z"/><path class="cls-1" d="M57.31 126.89h4.09v4.09h-4.09z"/><path class="cls-3" d="M61.4 126.89h4.09v4.09H61.4z"/><path class="cls-1" d="M65.49 126.89h4.09v4.09h-4.09z"/><path class="cls-2" d="M69.58 126.89h4.09v4.09h-4.09z"/><path class="cls-1" d="M73.68 126.89h4.09v4.09h-4.09z"/><path class="cls-2" d="M73.68 130.98h4.09v4.09h-4.09z"/><path class="cls-1" d="M77.77 130.98h4.09v4.09h-4.09z"/><path class="cls-2" d="M77.77 126.89h4.09v4.09h-4.09zM81.86 130.98h4.09v4.09h-4.09z"/><path class="cls-1" d="M69.58 130.98h4.09v4.09h-4.09z"/><path class="cls-2" d="M143.26 122.8h4.09v4.09h-4.09z"/><path class="cls-1" d="M147.36 122.8h4.09v4.09h-4.09z"/><path class="cls-2" d="M147.36 126.89h4.09v4.09h-4.09z"/><path class="cls-1" d="M151.45 130.98h4.09v4.09h-4.09z"/><path class="cls-2" d="M151.45 122.8h4.09v4.09h-4.09z"/><path class="cls-1" d="M151.45 126.89h4.09v4.09h-4.09zM143.26 126.89h4.09v4.09h-4.09z"/><path class="cls-2" d="M151.45 130.98h4.09v4.09h-4.09z"/><path class="cls-1" d="M147.36 130.98h4.09v4.09h-4.09zM155.54 122.8h4.09v4.09h-4.09z"/><path class="cls-2" d="M155.54 126.89h4.09v4.09h-4.09z"/><path class="cls-1" d="M159.64 126.89h4.09v4.09h-4.09z"/><path class="cls-3" d="M159.64 122.8h4.09v4.09h-4.09z"/><path class="cls-1" d="M163.73 122.8h4.09v4.09h-4.09z"/><path class="cls-2" d="M163.73 126.89h4.09v4.09h-4.09z"/><path class="cls-3" d="M167.82 122.8h4.09v4.09h-4.09z"/><path class="cls-1" d="M171.92 122.8h4.09v4.09h-4.09zM167.82 126.89h4.09v4.09h-4.09z"/><path class="cls-3" d="M176.01 122.8h4.09v4.09h-4.09z"/><path class="cls-1" d="M180.1 122.8h4.09v4.09h-4.09z"/><path class="cls-5" d="M40.93 135.08h4.09v4.09h-4.09z"/><path class="cls-2" d="M40.93 135.08h4.09v4.09h-4.09z"/><path class="cls-1" d="M45.03 135.08h4.09v4.09h-4.09z"/><path class="cls-4" d="M49.12 135.08h4.09v4.09h-4.09z"/><path class="cls-5" d="M53.21 135.08h4.09v4.09h-4.09z"/><path class="cls-6" d="M73.68 135.08h4.09v4.09h-4.09z"/><path class="cls-5" d="M77.77 135.08h4.09v4.09h-4.09z"/><path class="cls-1" d="M81.86 135.08h4.09v4.09h-4.09z"/><path class="cls-4" d="M85.96 135.08h4.09v4.09h-4.09z"/><path class="cls-1" d="M90.05 135.08h4.09v4.09h-4.09z"/><path class="cls-6" d="M126.89 135.08h4.09v4.09h-4.09z"/><path class="cls-5" d="M130.98 135.08h4.09v4.09h-4.09z"/><path class="cls-6" d="M135.08 135.08h4.09v4.09h-4.09z"/><path class="cls-5" d="M139.17 135.08h4.09v4.09h-4.09z"/><path class="cls-6" d="M139.17 130.98h4.09v4.09h-4.09zM143.26 135.08h4.09v4.09h-4.09z"/><path class="cls-2" d="M143.26 130.98h4.09v4.09h-4.09zM147.36 135.08h4.09v4.09h-4.09z"/><path class="cls-6" d="M167.82 135.08h4.09v4.09h-4.09z"/><path class="cls-5" d="M171.92 135.08h4.09v4.09h-4.09z"/><path class="cls-6" d="M176.01 135.08h4.09v4.09h-4.09z"/><path class="cls-1" d="M180.1 135.08h4.09v4.09h-4.09z"/><path class="cls-3" d="M184.2 135.08h4.09v4.09h-4.09z"/><path class="cls-1" d="M40.93 139.17h4.09v4.09h-4.09z"/><path class="cls-4" d="M45.03 139.17h4.09v4.09h-4.09z"/><path class="cls-1" d="M49.12 139.17h4.09v4.09h-4.09z"/><path class="cls-4" d="M53.21 139.17h4.09v4.09h-4.09z"/><path class="cls-5" d="M57.31 139.17h4.09v4.09h-4.09z"/><path class="cls-6" d="M61.4 139.17h4.09v4.09H61.4z"/><path class="cls-5" d="M65.49 139.17h4.09v4.09h-4.09zM81.86 139.17h4.09v4.09h-4.09z"/><path class="cls-1" d="M85.96 139.17h4.09v4.09h-4.09z"/><path class="cls-4" d="M90.05 139.17h4.09v4.09h-4.09z"/><path class="cls-6" d="M122.8 139.17h4.09v4.09h-4.09z"/><path class="cls-5" d="M126.89 139.17h4.09v4.09h-4.09z"/><path class="cls-6" d="M130.98 139.17h4.09v4.09h-4.09z"/><path class="cls-5" d="M135.08 139.17h4.09v4.09h-4.09z"/><path class="cls-6" d="M139.17 139.17h4.09v4.09h-4.09zM155.54 139.17h4.09v4.09h-4.09z"/><path class="cls-5" d="M159.64 139.17h4.09v4.09h-4.09z"/><path class="cls-6" d="M163.73 139.17h4.09v4.09h-4.09z"/><path class="cls-1" d="M167.82 139.17h4.09v4.09h-4.09z"/><path class="cls-3" d="M171.92 139.17h4.09v4.09h-4.09z"/><path class="cls-1" d="M176.01 139.17h4.09v4.09h-4.09z"/><path class="cls-3" d="M180.1 139.17h4.09v4.09h-4.09z"/><path class="cls-1" d="M184.2 139.17h4.09v4.09h-4.09z"/><path class="cls-2" d="M40.93 143.26h4.09v4.09h-4.09z"/><path class="cls-1" d="M45.03 143.26h4.09v4.09h-4.09z"/><path class="cls-4" d="M49.12 143.26h4.09v4.09h-4.09z"/><path class="cls-1" d="M53.21 143.26h4.09v4.09h-4.09z"/><path class="cls-2" d="M57.31 143.26h4.09v4.09h-4.09z"/><path class="cls-5" d="M61.4 143.26h4.09v4.09H61.4z"/><path class="cls-6" d="M65.49 143.26h4.09v4.09h-4.09z"/><path class="cls-5" d="M69.58 143.26h4.09v4.09h-4.09z"/><path class="cls-6" d="M73.68 143.26h4.09v4.09h-4.09zM81.86 143.26h4.09v4.09h-4.09z"/><path class="cls-4" d="M85.96 143.26h4.09v4.09h-4.09z"/><path class="cls-1" d="M90.05 143.26h4.09v4.09h-4.09z"/><path class="cls-3" d="M94.14 143.26h4.09v4.09h-4.09z"/><path class="cls-6" d="M118.7 143.26h4.09v4.09h-4.09z"/><path class="cls-5" d="M122.8 143.26h4.09v4.09h-4.09z"/><path class="cls-6" d="M126.89 143.26h4.09v4.09h-4.09z"/><path class="cls-5" d="M130.98 143.26h4.09v4.09h-4.09z"/><path class="cls-6" d="M130.98 147.36h4.09v4.09h-4.09z"/><path class="cls-5" d="M147.36 143.26h4.09v4.09h-4.09z"/><path class="cls-6" d="M151.45 143.26h4.09v4.09h-4.09z"/><path class="cls-5" d="M155.54 143.26h4.09v4.09h-4.09z"/><path class="cls-6" d="M159.64 143.26h4.09v4.09h-4.09z"/><path class="cls-1" d="M163.73 143.26h4.09v4.09h-4.09z"/><path class="cls-4" d="M167.82 143.26h4.09v4.09h-4.09z"/><path class="cls-1" d="M171.92 143.26h4.09v4.09h-4.09z"/><path class="cls-3" d="M176.01 143.26h4.09v4.09h-4.09z"/><path class="cls-1" d="M180.1 143.26h4.09v4.09h-4.09z"/><path class="cls-2" d="M45.03 147.36h4.09v4.09h-4.09z"/><path class="cls-1" d="M49.12 147.36h4.09v4.09h-4.09z"/><path class="cls-3" d="M53.21 147.36h4.09v4.09h-4.09z"/><path class="cls-1" d="M57.31 147.36h4.09v4.09h-4.09z"/><path class="cls-2" d="M61.4 147.36h4.09v4.09H61.4z"/><path class="cls-1" d="M65.49 147.36h4.09v4.09h-4.09z"/><path class="cls-6" d="M69.58 147.36h4.09v4.09h-4.09z"/><path class="cls-5" d="M73.68 147.36h4.09v4.09h-4.09z"/><path class="cls-6" d="M77.77 147.36h4.09v4.09h-4.09zM85.96 147.36h4.09v4.09h-4.09z"/><path class="cls-5" d="M81.86 147.36h4.09v4.09h-4.09z"/><path class="cls-3" d="M90.05 147.36h4.09v4.09h-4.09z"/><path class="cls-1" d="M94.14 147.36h4.09v4.09h-4.09z"/><path class="cls-2" d="M98.24 147.36h4.09v4.09h-4.09z"/><path class="cls-1" d="M102.33 147.36h4.09v4.09h-4.09z"/><path class="cls-4" d="M106.42 147.36h4.09v4.09h-4.09z"/><path class="cls-1" d="M110.52 147.36h4.09v4.09h-4.09z"/><path class="cls-4" d="M114.61 147.36h4.09v4.09h-4.09z"/><path class="cls-1" d="M118.7 147.36h4.09v4.09h-4.09z"/><path class="cls-4" d="M122.8 147.36h4.09v4.09h-4.09z"/><path class="cls-1" d="M126.89 147.36h4.09v4.09h-4.09z"/><path class="cls-5" d="M143.26 147.36h4.09v4.09h-4.09z"/><path class="cls-6" d="M147.36 147.36h4.09v4.09h-4.09z"/><path class="cls-5" d="M151.45 147.36h4.09v4.09h-4.09z"/><path class="cls-6" d="M155.54 147.36h4.09v4.09h-4.09z"/><path class="cls-1" d="M159.64 147.36h4.09v4.09h-4.09z"/><path class="cls-4" d="M163.73 147.36h4.09v4.09h-4.09z"/><path class="cls-1" d="M167.82 147.36h4.09v4.09h-4.09z"/><path class="cls-3" d="M171.92 147.36h4.09v4.09h-4.09z"/><path class="cls-1" d="M176.01 147.36h4.09v4.09h-4.09z"/><path class="cls-3" d="M180.1 147.36h4.09v4.09h-4.09z"/><path class="cls-2" d="M49.12 151.45h4.09v4.09h-4.09z"/><path class="cls-1" d="M53.21 151.45h4.09v4.09h-4.09z"/><path class="cls-3" d="M57.31 151.45h4.09v4.09h-4.09z"/><path class="cls-1" d="M61.4 151.45h4.09v4.09H61.4z"/><path class="cls-2" d="M65.49 151.45h4.09v4.09h-4.09z"/><path class="cls-1" d="M69.58 151.45h4.09v4.09h-4.09z"/><path class="cls-6" d="M73.68 151.45h4.09v4.09h-4.09z"/><path class="cls-5" d="M77.77 151.45h4.09v4.09h-4.09z"/><path class="cls-6" d="M81.86 151.45h4.09v4.09h-4.09z"/><path class="cls-3" d="M85.96 151.45h4.09v4.09h-4.09z"/><path class="cls-1" d="M90.05 151.45h4.09v4.09h-4.09z"/><path class="cls-3" d="M94.14 151.45h4.09v4.09h-4.09z"/><path class="cls-1" d="M98.24 151.45h4.09v4.09h-4.09z"/><path class="cls-2" d="M102.33 151.45h4.09v4.09h-4.09z"/><path class="cls-1" d="M106.42 151.45h4.09v4.09h-4.09z"/><path class="cls-4" d="M110.52 151.45h4.09v4.09h-4.09z"/><path class="cls-1" d="M114.61 151.45h4.09v4.09h-4.09z"/><path class="cls-4" d="M118.7 151.45h4.09v4.09h-4.09z"/><path class="cls-1" d="M122.8 151.45h4.09v4.09h-4.09z"/><path class="cls-4" d="M126.89 151.45h4.09v4.09h-4.09z"/><path class="cls-1" d="M130.98 151.45h4.09v4.09h-4.09z"/><path class="cls-3" d="M135.08 151.45h4.09v4.09h-4.09z"/><path class="cls-5" d="M139.17 151.45h4.09v4.09h-4.09z"/><path class="cls-6" d="M143.26 151.45h4.09v4.09h-4.09z"/><path class="cls-5" d="M147.36 151.45h4.09v4.09h-4.09z"/><path class="cls-6" d="M151.45 151.45h4.09v4.09h-4.09z"/><path class="cls-1" d="M155.54 151.45h4.09v4.09h-4.09z"/><path class="cls-2" d="M159.64 151.45h4.09v4.09h-4.09z"/><path class="cls-1" d="M163.73 151.45h4.09v4.09h-4.09z"/><path class="cls-4" d="M167.82 151.45h4.09v4.09h-4.09z"/><path class="cls-1" d="M171.92 151.45h4.09v4.09h-4.09z"/><path class="cls-2" d="M176.01 151.45h4.09v4.09h-4.09z"/><path class="cls-3" d="M53.21 155.54h4.09v4.09h-4.09z"/><path class="cls-1" d="M57.31 155.54h4.09v4.09h-4.09z"/><path class="cls-3" d="M61.4 155.54h4.09v4.09H61.4z"/><path class="cls-1" d="M65.49 155.54h4.09v4.09h-4.09z"/><path class="cls-3" d="M69.58 155.54h4.09v4.09h-4.09z"/><path class="cls-1" d="M73.68 155.54h4.09v4.09h-4.09z"/><path class="cls-6" d="M77.77 155.54h4.09v4.09h-4.09z"/><path class="cls-4" d="M81.86 155.54h4.09v4.09h-4.09z"/><path class="cls-1" d="M85.96 155.54h4.09v4.09h-4.09z"/><path class="cls-3" d="M90.05 155.54h4.09v4.09h-4.09z"/><path class="cls-1" d="M94.14 155.54h4.09v4.09h-4.09z"/><path class="cls-3" d="M98.24 155.54h4.09v4.09h-4.09z"/><path class="cls-1" d="M102.33 155.54h4.09v4.09h-4.09z"/><path class="cls-4" d="M106.42 155.54h4.09v4.09h-4.09z"/><path class="cls-1" d="M110.52 155.54h4.09v4.09h-4.09z"/><path class="cls-4" d="M114.61 155.54h4.09v4.09h-4.09z"/><path class="cls-1" d="M118.7 155.54h4.09v4.09h-4.09z"/><path class="cls-4" d="M122.8 155.54h4.09v4.09h-4.09z"/><path class="cls-1" d="M126.89 155.54h4.09v4.09h-4.09z"/><path class="cls-3" d="M130.98 155.54h4.09v4.09h-4.09z"/><path class="cls-1" d="M135.08 155.54h4.09v4.09h-4.09z"/><path class="cls-6" d="M139.17 155.54h4.09v4.09h-4.09z"/><path class="cls-5" d="M143.26 155.54h4.09v4.09h-4.09z"/><path class="cls-6" d="M147.36 155.54h4.09v4.09h-4.09z"/><path class="cls-1" d="M151.45 155.54h4.09v4.09h-4.09z"/><path class="cls-2" d="M155.54 155.54h4.09v4.09h-4.09z"/><path class="cls-1" d="M159.64 155.54h4.09v4.09h-4.09z"/><path class="cls-2" d="M163.73 155.54h4.09v4.09h-4.09z"/><path class="cls-1" d="M167.82 155.54h4.09v4.09h-4.09z"/><path class="cls-4" d="M171.92 155.54h4.09v4.09h-4.09z"/><path class="cls-1" d="M176.01 155.54h4.09v4.09h-4.09zM53.21 159.64h4.09v4.09h-4.09z"/><path class="cls-6" d="M57.31 159.64h4.09v4.09h-4.09z"/><path class="cls-1" d="M61.4 159.64h4.09v4.09H61.4z"/><path class="cls-3" d="M65.49 159.64h4.09v4.09h-4.09z"/><path class="cls-1" d="M69.58 159.64h4.09v4.09h-4.09z"/><path class="cls-6" d="M73.68 159.64h4.09v4.09h-4.09z"/><path class="cls-4" d="M77.77 159.64h4.09v4.09h-4.09z"/><path class="cls-1" d="M81.86 159.64h4.09v4.09h-4.09z"/><path class="cls-3" d="M85.96 159.64h4.09v4.09h-4.09z"/><path class="cls-1" d="M90.05 159.64h4.09v4.09h-4.09z"/><path class="cls-4" d="M94.14 159.64h4.09v4.09h-4.09z"/><path class="cls-1" d="M98.24 159.64h4.09v4.09h-4.09z"/><path class="cls-3" d="M102.33 159.64h4.09v4.09h-4.09z"/><path class="cls-1" d="M106.42 159.64h4.09v4.09h-4.09z"/><path class="cls-4" d="M110.52 159.64h4.09v4.09h-4.09z"/><path class="cls-1" d="M114.61 159.64h4.09v4.09h-4.09z"/><path class="cls-3" d="M118.7 159.64h4.09v4.09h-4.09z"/><path class="cls-1" d="M122.8 159.64h4.09v4.09h-4.09z"/><path class="cls-3" d="M126.89 159.64h4.09v4.09h-4.09z"/><path class="cls-1" d="M130.98 159.64h4.09v4.09h-4.09z"/><path class="cls-3" d="M135.08 159.64h4.09v4.09h-4.09z"/><path class="cls-1" d="M139.17 159.64h4.09v4.09h-4.09z"/><path class="cls-6" d="M143.26 159.64h4.09v4.09h-4.09z"/><path class="cls-5" d="M147.36 159.64h4.09v4.09h-4.09z"/><path class="cls-2" d="M151.45 159.64h4.09v4.09h-4.09z"/><path class="cls-1" d="M155.54 159.64h4.09v4.09h-4.09z"/><path class="cls-2" d="M159.64 159.64h4.09v4.09h-4.09z"/><path class="cls-1" d="M163.73 159.64h4.09v4.09h-4.09z"/><path class="cls-2" d="M167.82 159.64h4.09v4.09h-4.09z"/><path class="cls-5" d="M61.4 163.73h4.09v4.09H61.4z"/><path class="cls-6" d="M61.4 163.73h4.09v4.09H61.4z"/><path class="cls-5" d="M65.49 163.73h4.09v4.09h-4.09z"/><path class="cls-6" d="M69.58 163.73h4.09v4.09h-4.09z"/><path class="cls-4" d="M73.68 163.73h4.09v4.09h-4.09z"/><path class="cls-1" d="M77.77 163.73h4.09v4.09h-4.09z"/><path class="cls-4" d="M81.86 163.73h4.09v4.09h-4.09z"/><path class="cls-1" d="M85.96 163.73h4.09v4.09h-4.09z"/><path class="cls-3" d="M90.05 163.73h4.09v4.09h-4.09z"/><path class="cls-1" d="M94.14 163.73h4.09v4.09h-4.09z"/><path class="cls-3" d="M98.24 163.73h4.09v4.09h-4.09z"/><path class="cls-1" d="M102.33 163.73h4.09v4.09h-4.09z"/><path class="cls-4" d="M106.42 163.73h4.09v4.09h-4.09z"/><path class="cls-1" d="M110.52 163.73h4.09v4.09h-4.09z"/><path class="cls-4" d="M114.61 163.73h4.09v4.09h-4.09z"/><path class="cls-1" d="M118.7 163.73h4.09v4.09h-4.09z"/><path class="cls-3" d="M122.8 163.73h4.09v4.09h-4.09z"/><path class="cls-1" d="M126.89 163.73h4.09v4.09h-4.09z"/><path class="cls-3" d="M130.98 163.73h4.09v4.09h-4.09z"/><path class="cls-1" d="M135.08 163.73h4.09v4.09h-4.09z"/><path class="cls-6" d="M139.17 163.73h4.09v4.09h-4.09z"/><path class="cls-5" d="M143.26 163.73h4.09v4.09h-4.09z"/><path class="cls-6" d="M147.36 163.73h4.09v4.09h-4.09z"/><path class="cls-5" d="M151.45 163.73h4.09v4.09h-4.09z"/><path class="cls-6" d="M155.54 163.73h4.09v4.09h-4.09z"/><path class="cls-5" d="M159.64 163.73h4.09v4.09h-4.09z"/><path class="cls-4" d="M69.58 167.82h4.09v4.09h-4.09zM57.31 163.73h4.09v4.09h-4.09z"/><path class="cls-1" d="M73.68 167.82h4.09v4.09h-4.09z"/><path class="cls-4" d="M77.77 167.82h4.09v4.09h-4.09z"/><path class="cls-1" d="M81.86 167.82h4.09v4.09h-4.09z"/><path class="cls-3" d="M85.96 167.82h4.09v4.09h-4.09z"/><path class="cls-1" d="M90.05 167.82h4.09v4.09h-4.09z"/><path class="cls-4" d="M94.14 167.82h4.09v4.09h-4.09z"/><path class="cls-1" d="M98.24 167.82h4.09v4.09h-4.09z"/><path class="cls-2" d="M102.33 167.82h4.09v4.09h-4.09z"/><path class="cls-1" d="M106.42 167.82h4.09v4.09h-4.09z"/><path class="cls-4" d="M110.52 167.82h4.09v4.09h-4.09z"/><path class="cls-1" d="M114.61 167.82h4.09v4.09h-4.09z"/><path class="cls-4" d="M118.7 167.82h4.09v4.09h-4.09z"/><path class="cls-1" d="M122.8 167.82h4.09v4.09h-4.09z"/><path class="cls-3" d="M126.89 167.82h4.09v4.09h-4.09z"/><path class="cls-1" d="M130.98 167.82h4.09v4.09h-4.09z"/><path class="cls-3" d="M135.08 167.82h4.09v4.09h-4.09z"/><path class="cls-1" d="M139.17 167.82h4.09v4.09h-4.09z"/><path class="cls-6" d="M143.26 167.82h4.09v4.09h-4.09z"/><path class="cls-5" d="M69.58 171.92h4.09v4.09h-4.09z"/><path class="cls-2" d="M73.68 171.92h4.09v4.09h-4.09z"/><path class="cls-5" d="M77.77 171.92h4.09v4.09h-4.09z"/><path class="cls-3" d="M81.86 171.92h4.09v4.09h-4.09z"/><path class="cls-1" d="M85.96 171.92h4.09v4.09h-4.09z"/><path class="cls-4" d="M90.05 171.92h4.09v4.09h-4.09z"/><path class="cls-1" d="M94.14 171.92h4.09v4.09h-4.09z"/><path class="cls-4" d="M98.24 171.92h4.09v4.09h-4.09z"/><path class="cls-1" d="M102.33 171.92h4.09v4.09h-4.09z"/><path class="cls-4" d="M106.42 171.92h4.09v4.09h-4.09z"/><path class="cls-1" d="M110.52 171.92h4.09v4.09h-4.09z"/><path class="cls-4" d="M114.61 171.92h4.09v4.09h-4.09z"/><path class="cls-1" d="M118.7 171.92h4.09v4.09h-4.09z"/><path class="cls-5" d="M122.8 171.92h4.09v4.09h-4.09z"/><path class="cls-1" d="M126.89 171.92h4.09v4.09h-4.09z"/><path class="cls-3" d="M130.98 171.92h4.09v4.09h-4.09z"/><path class="cls-1" d="M135.08 171.92h4.09v4.09h-4.09z"/><path class="cls-6" d="M139.17 171.92h4.09v4.09h-4.09z"/><path class="cls-5" d="M69.58 176.01h4.09v4.09h-4.09z"/><path class="cls-6" d="M73.68 176.01h4.09v4.09h-4.09z"/><path class="cls-5" d="M77.77 176.01h4.09v4.09h-4.09z"/><path class="cls-1" d="M81.86 176.01h4.09v4.09h-4.09z"/><path class="cls-4" d="M85.96 176.01h4.09v4.09h-4.09z"/><path class="cls-1" d="M90.05 176.01h4.09v4.09h-4.09z"/><path class="cls-4" d="M94.14 176.01h4.09v4.09h-4.09z"/><path class="cls-1" d="M98.24 176.01h4.09v4.09h-4.09z"/><path class="cls-4" d="M102.33 176.01h4.09v4.09h-4.09z"/><path class="cls-1" d="M106.42 176.01h4.09v4.09h-4.09z"/><path class="cls-5" d="M110.52 176.01h4.09v4.09h-4.09z"/><path class="cls-6" d="M114.61 176.01h4.09v4.09h-4.09z"/><path class="cls-5" d="M118.7 176.01h4.09v4.09h-4.09z"/><path class="cls-6" d="M122.8 176.01h4.09v4.09h-4.09z"/><path class="cls-4" d="M126.89 176.01h4.09v4.09h-4.09z"/><path class="cls-1" d="M130.98 176.01h4.09v4.09h-4.09z"/><path class="cls-4" d="M135.08 176.01h4.09v4.09h-4.09z"/><path class="cls-1" d="M139.17 176.01h4.09v4.09h-4.09z"/><path class="cls-4" d="M73.68 180.1h4.09v4.09h-4.09z"/><path class="cls-1" d="M77.77 180.1h4.09v4.09h-4.09z"/><path class="cls-4" d="M81.86 180.1h4.09v4.09h-4.09z"/><path class="cls-1" d="M85.96 180.1h4.09v4.09h-4.09z"/><path class="cls-4" d="M90.05 180.1h4.09v4.09h-4.09z"/><path class="cls-1" d="M94.14 180.1h4.09v4.09h-4.09z"/><path class="cls-4" d="M98.24 180.1h4.09v4.09h-4.09z"/><path class="cls-1" d="M102.33 180.1h4.09v4.09h-4.09z"/><path class="cls-4" d="M106.42 180.1h4.09v4.09h-4.09z"/><path class="cls-6" d="M110.52 180.1h4.09v4.09h-4.09z"/><path class="cls-5" d="M114.61 180.1h4.09v4.09h-4.09z"/><path class="cls-1" d="M118.7 180.1h4.09v4.09h-4.09z"/><path class="cls-2" d="M122.8 180.1h4.09v4.09h-4.09z"/><path class="cls-1" d="M126.89 180.1h4.09v4.09h-4.09z"/><path class="cls-4" d="M130.98 180.1h4.09v4.09h-4.09z"/><path class="cls-1" d="M135.08 180.1h4.09v4.09h-4.09z"/><path class="cls-4" d="M139.17 180.1h4.09v4.09h-4.09z"/><path class="cls-1" d="M73.68 184.2h4.09v4.09h-4.09z"/><path class="cls-4" d="M77.77 184.2h4.09v4.09h-4.09z"/><path class="cls-1" d="M81.86 184.2h4.09v4.09h-4.09z"/><path class="cls-4" d="M85.96 184.2h4.09v4.09h-4.09z"/><path class="cls-1" d="M90.05 184.2h4.09v4.09h-4.09z"/><path class="cls-3" d="M94.14 184.2h4.09v4.09h-4.09z"/><path class="cls-1" d="M98.24 184.2h4.09v4.09h-4.09z"/><path class="cls-3" d="M102.33 184.2h4.09v4.09h-4.09z"/><path class="cls-1" d="M106.42 184.2h4.09v4.09h-4.09z"/><path class="cls-2" d="M110.52 184.2h4.09v4.09h-4.09z"/><path class="cls-1" d="M114.61 184.2h4.09v4.09h-4.09z"/><path class="cls-2" d="M118.7 184.2h4.09v4.09h-4.09z"/><path class="cls-1" d="M122.8 184.2h4.09v4.09h-4.09z"/><path class="cls-4" d="M126.89 184.2h4.09v4.09h-4.09z"/><path class="cls-1" d="M130.98 184.2h4.09v4.09h-4.09z"/><path class="cls-4" d="M135.08 184.2h4.09v4.09h-4.09z"/><path class="cls-1" d="M139.17 184.2h4.09v4.09h-4.09zM69.58 188.29h4.09v4.09h-4.09z"/><path class="cls-2" d="M73.68 188.29h4.09v4.09h-4.09z"/><path class="cls-1" d="M77.77 188.29h4.09v4.09h-4.09z"/><path class="cls-4" d="M81.86 188.29h4.09v4.09h-4.09z"/><path class="cls-1" d="M85.96 188.29h4.09v4.09h-4.09z"/><path class="cls-3" d="M90.05 188.29h4.09v4.09h-4.09z"/><path class="cls-1" d="M94.14 188.29h4.09v4.09h-4.09z"/><path class="cls-3" d="M98.24 188.29h4.09v4.09h-4.09z"/><path class="cls-1" d="M102.33 188.29h4.09v4.09h-4.09z"/><path class="cls-2" d="M106.42 188.29h4.09v4.09h-4.09z"/><path class="cls-1" d="M110.52 188.29h4.09v4.09h-4.09z"/><path class="cls-2" d="M114.61 188.29h4.09v4.09h-4.09z"/><path class="cls-1" d="M118.7 188.29h4.09v4.09h-4.09z"/><path class="cls-2" d="M122.8 188.29h4.09v4.09h-4.09z"/><path class="cls-1" d="M126.89 188.29h4.09v4.09h-4.09z"/><path class="cls-4" d="M130.98 188.29h4.09v4.09h-4.09z"/><path class="cls-1" d="M135.08 188.29h4.09v4.09h-4.09z"/><path class="cls-2" d="M139.17 188.29h4.09v4.09h-4.09z"/><path class="cls-1" d="M143.26 188.29h4.09v4.09h-4.09z"/><path class="cls-4" d="M69.58 192.38h4.09v4.09h-4.09z"/><path class="cls-1" d="M73.68 192.38h4.09v4.09h-4.09z"/><path class="cls-4" d="M77.77 192.38h4.09v4.09h-4.09z"/><path class="cls-1" d="M81.86 192.38h4.09v4.09h-4.09z"/><path class="cls-4" d="M85.96 192.38h4.09v4.09h-4.09z"/><path class="cls-1" d="M90.05 192.38h4.09v4.09h-4.09z"/><path class="cls-3" d="M94.14 192.38h4.09v4.09h-4.09z"/><path class="cls-1" d="M98.24 192.38h4.09v4.09h-4.09z"/><path class="cls-3" d="M102.33 192.38h4.09v4.09h-4.09z"/><path class="cls-1" d="M106.42 192.38h4.09v4.09h-4.09z"/><path class="cls-2" d="M110.52 192.38h4.09v4.09h-4.09z"/><path class="cls-1" d="M114.61 192.38h4.09v4.09h-4.09z"/><path class="cls-2" d="M118.7 192.38h4.09v4.09h-4.09z"/><path class="cls-1" d="M122.8 192.38h4.09v4.09h-4.09z"/><path class="cls-3" d="M126.89 192.38h4.09v4.09h-4.09z"/><path class="cls-1" d="M130.98 192.38h4.09v4.09h-4.09z"/><path class="cls-3" d="M135.08 192.38h4.09v4.09h-4.09z"/><path class="cls-1" d="M139.17 192.38h4.09v4.09h-4.09z"/><path class="cls-2" d="M143.26 192.38h4.09v4.09h-4.09z"/><path class="cls-3" d="M65.49 196.47h4.09v4.09h-4.09z"/><path class="cls-1" d="M69.58 196.47h4.09v4.09h-4.09z"/><path class="cls-4" d="M73.68 196.47h4.09v4.09h-4.09z"/><path class="cls-1" d="M77.77 196.47h4.09v4.09h-4.09z"/><path class="cls-4" d="M81.86 196.47h4.09v4.09h-4.09z"/><path class="cls-1" d="M85.96 196.47h4.09v4.09h-4.09z"/><path class="cls-4" d="M90.05 196.47h4.09v4.09h-4.09z"/><path class="cls-1" d="M94.14 196.47h4.09v4.09h-4.09z"/><path class="cls-3" d="M98.24 196.47h4.09v4.09h-4.09z"/><path class="cls-1" d="M102.33 196.47h4.09v4.09h-4.09z"/><path class="cls-3" d="M106.42 196.47h4.09v4.09h-4.09z"/><path class="cls-1" d="M110.52 196.47h4.09v4.09h-4.09z"/><path class="cls-4" d="M114.61 196.47h4.09v4.09h-4.09z"/><path class="cls-1" d="M118.7 196.47h4.09v4.09h-4.09z"/><path class="cls-4" d="M122.8 196.47h4.09v4.09h-4.09z"/><path class="cls-1" d="M126.89 196.47h4.09v4.09h-4.09z"/><path class="cls-3" d="M130.98 196.47h4.09v4.09h-4.09z"/><path class="cls-1" d="M135.08 196.47h4.09v4.09h-4.09z"/><path class="cls-2" d="M139.17 196.47h4.09v4.09h-4.09z"/><path class="cls-1" d="M143.26 196.47h4.09v4.09h-4.09z"/><path class="cls-3" d="M61.4 200.57h4.09v4.09H61.4z"/><path class="cls-1" d="M65.49 200.57h4.09v4.09h-4.09z"/><path class="cls-3" d="M69.58 200.57h4.09v4.09h-4.09z"/><path class="cls-1" d="M73.68 200.57h4.09v4.09h-4.09z"/><path class="cls-3" d="M77.77 200.57h4.09v4.09h-4.09z"/><path class="cls-1" d="M81.86 200.57h4.09v4.09h-4.09z"/><path class="cls-3" d="M85.96 200.57h4.09v4.09h-4.09z"/><path class="cls-1" d="M90.05 200.57h4.09v4.09h-4.09z"/><path class="cls-4" d="M94.14 200.57h4.09v4.09h-4.09z"/><path class="cls-1" d="M98.24 200.57h4.09v4.09h-4.09z"/><path class="cls-4" d="M102.33 200.57h4.09v4.09h-4.09z"/><path class="cls-1" d="M106.42 200.57h4.09v4.09h-4.09z"/><path class="cls-4" d="M110.52 200.57h4.09v4.09h-4.09z"/><path class="cls-1" d="M114.61 200.57h4.09v4.09h-4.09z"/><path class="cls-2" d="M118.7 200.57h4.09v4.09h-4.09z"/><path class="cls-1" d="M122.8 200.57h4.09v4.09h-4.09z"/><path class="cls-3" d="M126.89 200.57h4.09v4.09h-4.09z"/><path class="cls-1" d="M130.98 200.57h4.09v4.09h-4.09z"/><path class="cls-2" d="M135.08 200.57h4.09v4.09h-4.09z"/><path class="cls-1" d="M139.17 200.57h4.09v4.09h-4.09z"/><path class="cls-2" d="M143.26 200.57h4.09v4.09h-4.09z"/><path class="cls-6" d="M57.31 204.66h4.09v4.09h-4.09z"/><path class="cls-5" d="M61.4 204.66h4.09v4.09H61.4z"/><path class="cls-6" d="M65.49 204.66h4.09v4.09h-4.09z"/><path class="cls-5" d="M69.58 204.66h4.09v4.09h-4.09z"/><path class="cls-6" d="M73.68 204.66h4.09v4.09h-4.09z"/><path class="cls-1" d="M77.77 204.66h4.09v4.09h-4.09z"/><path class="cls-3" d="M81.86 204.66h4.09v4.09h-4.09z"/><path class="cls-1" d="M85.96 204.66h4.09v4.09h-4.09z"/><path class="cls-4" d="M90.05 204.66h4.09v4.09h-4.09z"/><path class="cls-1" d="M94.14 204.66h4.09v4.09h-4.09z"/><path class="cls-2" d="M98.24 204.66h4.09v4.09h-4.09z"/><path class="cls-1" d="M102.33 204.66h4.09v4.09h-4.09z"/><path class="cls-4" d="M106.42 204.66h4.09v4.09h-4.09z"/><path class="cls-1" d="M110.52 204.66h4.09v4.09h-4.09z"/><path class="cls-2" d="M114.61 204.66h4.09v4.09h-4.09z"/><path class="cls-1" d="M118.7 204.66h4.09v4.09h-4.09z"/><path class="cls-3" d="M122.8 204.66h4.09v4.09h-4.09z"/><path class="cls-1" d="M126.89 204.66h4.09v4.09h-4.09z"/><path class="cls-4" d="M130.98 204.66h4.09v4.09h-4.09z"/><path class="cls-1" d="M135.08 204.66h4.09v4.09h-4.09z"/><path class="cls-4" d="M139.17 204.66h4.09v4.09h-4.09z"/><path class="cls-1" d="M143.26 204.66h4.09v4.09h-4.09z"/><path class="cls-5" d="M57.31 208.75h4.09v4.09h-4.09z"/><path class="cls-6" d="M61.4 208.75h4.09v4.09H61.4z"/><path class="cls-5" d="M65.49 208.75h4.09v4.09h-4.09z"/><path class="cls-6" d="M69.58 208.75h4.09v4.09h-4.09z"/><path class="cls-5" d="M73.68 208.75h4.09v4.09h-4.09z"/><path class="cls-3" d="M77.77 208.75h4.09v4.09h-4.09z"/><path class="cls-1" d="M81.86 208.75h4.09v4.09h-4.09z"/><path class="cls-3" d="M85.96 208.75h4.09v4.09h-4.09z"/><path class="cls-1" d="M90.05 208.75h4.09v4.09h-4.09z"/><path class="cls-2" d="M94.14 208.75h4.09v4.09h-4.09z"/><path class="cls-1" d="M98.24 208.75h4.09v4.09h-4.09z"/><path class="cls-2" d="M102.33 208.75h4.09v4.09h-4.09z"/><path class="cls-1" d="M106.42 208.75h4.09v4.09h-4.09z"/><path class="cls-4" d="M110.52 208.75h4.09v4.09h-4.09z"/><path class="cls-1" d="M114.61 208.75h4.09v4.09h-4.09z"/><path class="cls-2" d="M118.7 208.75h4.09v4.09h-4.09z"/><path class="cls-1" d="M122.8 208.75h4.09v4.09h-4.09z"/><path class="cls-4" d="M126.89 208.75h4.09v4.09h-4.09z"/><path class="cls-1" d="M130.98 208.75h4.09v4.09h-4.09z"/><path class="cls-3" d="M135.08 208.75h4.09v4.09h-4.09z"/><path class="cls-1" d="M139.17 208.75h4.09v4.09h-4.09z"/><path class="cls-3" d="M143.26 208.75h4.09v4.09h-4.09z"/><path class="cls-6" d="M57.31 212.85h4.09v4.09h-4.09z"/><path class="cls-5" d="M61.4 212.85h4.09v4.09H61.4z"/><path class="cls-6" d="M65.49 212.85h4.09v4.09h-4.09z"/><path class="cls-5" d="M69.58 212.85h4.09v4.09h-4.09z"/><path class="cls-2" d="M73.68 212.85h4.09v4.09h-4.09z"/><path class="cls-1" d="M77.77 212.85h4.09v4.09h-4.09z"/><path class="cls-2" d="M81.86 212.85h4.09v4.09h-4.09z"/><path class="cls-1" d="M85.96 212.85h4.09v4.09h-4.09z"/><path class="cls-2" d="M90.05 212.85h4.09v4.09h-4.09z"/><path class="cls-1" d="M94.14 212.85h4.09v4.09h-4.09z"/><path class="cls-2" d="M98.24 212.85h4.09v4.09h-4.09z"/><path class="cls-1" d="M102.33 212.85h4.09v4.09h-4.09z"/><path class="cls-2" d="M106.42 212.85h4.09v4.09h-4.09z"/><path class="cls-1" d="M110.52 212.85h4.09v4.09h-4.09z"/><path class="cls-4" d="M114.61 212.85h4.09v4.09h-4.09z"/><path class="cls-1" d="M118.7 212.85h4.09v4.09h-4.09z"/><path class="cls-2" d="M122.8 212.85h4.09v4.09h-4.09z"/><path class="cls-1" d="M126.89 212.85h4.09v4.09h-4.09z"/><path class="cls-2" d="M130.98 212.85h4.09v4.09h-4.09z"/><path class="cls-1" d="M135.08 212.85h4.09v4.09h-4.09z"/><path class="cls-3" d="M139.17 212.85h4.09v4.09h-4.09z"/><path class="cls-1" d="M143.26 212.85h4.09v4.09h-4.09z"/><path class="cls-3" d="M147.36 212.85h4.09v4.09h-4.09z"/><path class="cls-5" d="M57.31 216.94h4.09v4.09h-4.09z"/><path class="cls-6" d="M61.4 216.94h4.09v4.09H61.4z"/><path class="cls-1" d="M65.49 216.94h4.09v4.09h-4.09z"/><path class="cls-2" d="M69.58 216.94h4.09v4.09h-4.09z"/><path class="cls-1" d="M73.68 216.94h4.09v4.09h-4.09z"/><path class="cls-4" d="M77.77 216.94h4.09v4.09h-4.09z"/><path class="cls-1" d="M81.86 216.94h4.09v4.09h-4.09z"/><path class="cls-4" d="M85.96 216.94h4.09v4.09h-4.09z"/><path class="cls-1" d="M90.05 216.94h4.09v4.09h-4.09z"/><path class="cls-2" d="M94.14 216.94h4.09v4.09h-4.09z"/><path class="cls-1" d="M98.24 216.94h4.09v4.09h-4.09z"/><path class="cls-2" d="M102.33 216.94h4.09v4.09h-4.09z"/><path class="cls-1" d="M106.42 216.94h4.09v4.09h-4.09z"/><path class="cls-4" d="M110.52 216.94h4.09v4.09h-4.09z"/><path class="cls-1" d="M114.61 216.94h4.09v4.09h-4.09z"/><path class="cls-2" d="M118.7 216.94h4.09v4.09h-4.09z"/><path class="cls-1" d="M122.8 216.94h4.09v4.09h-4.09z"/><path class="cls-2" d="M126.89 216.94h4.09v4.09h-4.09z"/><path class="cls-1" d="M130.98 216.94h4.09v4.09h-4.09z"/><path class="cls-4" d="M135.08 216.94h4.09v4.09h-4.09z"/><path class="cls-1" d="M139.17 216.94h4.09v4.09h-4.09z"/><path class="cls-3" d="M143.26 216.94h4.09v4.09h-4.09z"/><path class="cls-1" d="M147.36 216.94h4.09v4.09h-4.09z"/><path class="cls-6" d="M57.31 221.03h4.09v4.09h-4.09z"/><path class="cls-5" d="M61.4 221.03h4.09v4.09H61.4z"/><path class="cls-2" d="M65.49 221.03h4.09v4.09h-4.09z"/><path class="cls-1" d="M69.58 221.03h4.09v4.09h-4.09z"/><path class="cls-2" d="M73.68 221.03h4.09v4.09h-4.09z"/><path class="cls-1" d="M77.77 221.03h4.09v4.09h-4.09z"/><path class="cls-4" d="M81.86 221.03h4.09v4.09h-4.09z"/><path class="cls-1" d="M85.96 221.03h4.09v4.09h-4.09z"/><path class="cls-5" d="M90.05 221.03h4.09v4.09h-4.09z"/><path class="cls-1" d="M94.14 221.03h4.09v4.09h-4.09z"/><path class="cls-4" d="M98.24 221.03h4.09v4.09h-4.09z"/><path class="cls-1" d="M102.33 221.03h4.09v4.09h-4.09z"/><path class="cls-4" d="M106.42 221.03h4.09v4.09h-4.09z"/><path class="cls-1" d="M110.52 221.03h4.09v4.09h-4.09z"/><path class="cls-4" d="M114.61 221.03h4.09v4.09h-4.09z"/><path class="cls-1" d="M118.7 221.03h4.09v4.09h-4.09z"/><path class="cls-2" d="M122.8 221.03h4.09v4.09h-4.09z"/><path class="cls-1" d="M126.89 221.03h4.09v4.09h-4.09z"/><path class="cls-2" d="M130.98 221.03h4.09v4.09h-4.09z"/><path class="cls-1" d="M135.08 221.03h4.09v4.09h-4.09z"/><path class="cls-4" d="M139.17 221.03h4.09v4.09h-4.09z"/><path class="cls-1" d="M143.26 221.03h4.09v4.09h-4.09z"/><path class="cls-3" d="M147.36 221.03h4.09v4.09h-4.09z"/><path class="cls-5" d="M57.31 225.13h4.09v4.09h-4.09z"/><path class="cls-6" d="M61.4 225.13h4.09v4.09H61.4z"/><path class="cls-5" d="M65.49 225.13h4.09v4.09h-4.09z"/><path class="cls-6" d="M69.58 225.13h4.09v4.09h-4.09z"/><path class="cls-5" d="M73.68 225.13h4.09v4.09h-4.09z"/><path class="cls-4" d="M77.77 225.13h4.09v4.09h-4.09z"/><path class="cls-1" d="M81.86 225.13h4.09v4.09h-4.09z"/><path class="cls-5" d="M85.96 225.13h4.09v4.09h-4.09z"/><path class="cls-6" d="M90.05 225.13h4.09v4.09h-4.09z"/><path class="cls-4" d="M94.14 225.13h4.09v4.09h-4.09z"/><path class="cls-1" d="M98.24 225.13h4.09v4.09h-4.09z"/><path class="cls-5" d="M102.33 225.13h4.09v4.09h-4.09z"/><path class="cls-6" d="M106.42 225.13h4.09v4.09h-4.09z"/><path class="cls-4" d="M110.52 225.13h4.09v4.09h-4.09z"/><path class="cls-6" d="M114.61 225.13h4.09v4.09h-4.09z"/><path class="cls-4" d="M118.7 225.13h4.09v4.09h-4.09z"/><path class="cls-1" d="M122.8 225.13h4.09v4.09h-4.09z"/><path class="cls-2" d="M126.89 225.13h4.09v4.09h-4.09z"/><path class="cls-1" d="M130.98 225.13h4.09v4.09h-4.09z"/><path class="cls-4" d="M135.08 225.13h4.09v4.09h-4.09z"/><path class="cls-1" d="M139.17 225.13h4.09v4.09h-4.09z"/><path class="cls-4" d="M143.26 225.13h4.09v4.09h-4.09z"/><path class="cls-1" d="M147.36 225.13h4.09v4.09h-4.09z"/><path class="cls-5" d="M61.4 229.22h4.09v4.09H61.4z"/><path class="cls-1" d="M65.49 229.22h4.09v4.09h-4.09z"/><path class="cls-5" d="M69.58 229.22h4.09v4.09h-4.09z"/><path class="cls-6" d="M73.68 229.22h4.09v4.09h-4.09z"/><path class="cls-1" d="M77.77 229.22h4.09v4.09h-4.09z"/><path class="cls-4" d="M81.86 229.22h4.09v4.09h-4.09z"/><path class="cls-1" d="M85.96 229.22h4.09v4.09h-4.09z"/><path class="cls-4" d="M90.05 229.22h4.09v4.09h-4.09z"/><path class="cls-1" d="M94.14 229.22h4.09v4.09h-4.09z"/><path class="cls-6" d="M98.24 229.22h4.09v4.09h-4.09z"/><path class="cls-1" d="M102.33 229.22h4.09v4.09h-4.09z"/><path class="cls-4" d="M106.42 229.22h4.09v4.09h-4.09z"/><path class="cls-1" d="M110.52 229.22h4.09v4.09h-4.09z"/><path class="cls-2" d="M114.61 229.22h4.09v4.09h-4.09z"/><path class="cls-1" d="M118.7 229.22h4.09v4.09h-4.09z"/><path class="cls-2" d="M122.8 229.22h4.09v4.09h-4.09z"/><path class="cls-1" d="M126.89 229.22h4.09v4.09h-4.09z"/><path class="cls-2" d="M130.98 229.22h4.09v4.09h-4.09z"/><path class="cls-1" d="M135.08 229.22h4.09v4.09h-4.09z"/><path class="cls-3" d="M139.17 229.22h4.09v4.09h-4.09z"/><path class="cls-1" d="M143.26 229.22h4.09v4.09h-4.09z"/><path class="cls-4" d="M147.36 229.22h4.09v4.09h-4.09z"/><path class="cls-1" d="M69.58 233.31h4.09v4.09h-4.09zM73.68 233.31h4.09v4.09h-4.09zM81.86 233.31h4.09v4.09h-4.09z"/><path class="cls-4" d="M85.96 233.31h4.09v4.09h-4.09z"/><path class="cls-1" d="M90.05 233.31h4.09v4.09h-4.09z"/><path class="cls-6" d="M94.14 233.31h4.09v4.09h-4.09z"/><path class="cls-1" d="M98.24 233.31h4.09v4.09h-4.09z"/><path class="cls-4" d="M102.33 233.31h4.09v4.09h-4.09z"/><path class="cls-1" d="M106.42 233.31h4.09v4.09h-4.09z"/><path class="cls-2" d="M110.52 233.31h4.09v4.09h-4.09z"/><path class="cls-1" d="M114.61 233.31h4.09v4.09h-4.09z"/><path class="cls-2" d="M118.7 233.31h4.09v4.09h-4.09z"/><path class="cls-1" d="M122.8 233.31h4.09v4.09h-4.09z"/><path class="cls-3" d="M126.89 233.31h4.09v4.09h-4.09z"/><path class="cls-1" d="M130.98 233.31h4.09v4.09h-4.09z"/><path class="cls-3" d="M135.08 233.31h4.09v4.09h-4.09z"/><path class="cls-1" d="M139.17 233.31h4.09v4.09h-4.09z"/><path class="cls-3" d="M143.26 233.31h4.09v4.09h-4.09z"/><path class="cls-1" d="M147.36 233.31h4.09v4.09h-4.09z"/><path class="cls-4" d="M151.45 233.31h4.09v4.09h-4.09zM81.86 237.41h4.09v4.09h-4.09z"/><path class="cls-1" d="M85.96 237.41h4.09v4.09h-4.09z"/><path class="cls-6" d="M90.05 237.41h4.09v4.09h-4.09z"/><path class="cls-1" d="M94.14 237.41h4.09v4.09h-4.09z"/><path class="cls-4" d="M98.24 237.41h4.09v4.09h-4.09z"/><path class="cls-1" d="M102.33 237.41h4.09v4.09h-4.09z"/><path class="cls-4" d="M106.42 237.41h4.09v4.09h-4.09z"/><path class="cls-1" d="M110.52 237.41h4.09v4.09h-4.09z"/><path class="cls-2" d="M114.61 237.41h4.09v4.09h-4.09z"/><path class="cls-1" d="M118.7 237.41h4.09v4.09h-4.09z"/><path class="cls-3" d="M122.8 237.41h4.09v4.09h-4.09z"/><path class="cls-1" d="M126.89 237.41h4.09v4.09h-4.09z"/><path class="cls-3" d="M130.98 237.41h4.09v4.09h-4.09z"/><path class="cls-1" d="M135.08 237.41h4.09v4.09h-4.09z"/><path class="cls-3" d="M139.17 237.41h4.09v4.09h-4.09z"/><path class="cls-1" d="M143.26 237.41h4.09v4.09h-4.09z"/><path class="cls-4" d="M147.36 237.41h4.09v4.09h-4.09z"/><path class="cls-1" d="M151.45 237.41h4.09v4.09h-4.09z"/><path class="cls-6" d="M81.86 241.5h4.09v4.09h-4.09z"/><path class="cls-5" d="M85.96 241.5h4.09v4.09h-4.09z"/><path class="cls-1" d="M90.05 241.5h4.09v4.09h-4.09z"/><path class="cls-4" d="M94.14 241.5h4.09v4.09h-4.09z"/><path class="cls-1" d="M98.24 241.5h4.09v4.09h-4.09z"/><path class="cls-2" d="M102.33 241.5h4.09v4.09h-4.09z"/><path class="cls-1" d="M106.42 241.5h4.09v4.09h-4.09z"/><path class="cls-2" d="M110.52 241.5h4.09v4.09h-4.09z"/><path class="cls-1" d="M114.61 241.5h4.09v4.09h-4.09z"/><path class="cls-2" d="M118.7 241.5h4.09v4.09h-4.09z"/><path class="cls-1" d="M122.8 241.5h4.09v4.09h-4.09z"/><path class="cls-4" d="M126.89 241.5h4.09v4.09h-4.09z"/><path class="cls-1" d="M130.98 241.5h4.09v4.09h-4.09z"/><path class="cls-4" d="M135.08 241.5h4.09v4.09h-4.09z"/><path class="cls-1" d="M139.17 241.5h4.09v4.09h-4.09z"/><path class="cls-2" d="M143.26 241.5h4.09v4.09h-4.09z"/><path class="cls-1" d="M147.36 241.5h4.09v4.09h-4.09z"/><path class="cls-4" d="M151.45 241.5h4.09v4.09h-4.09z"/><path class="cls-6" d="M77.77 245.59h4.09v4.09h-4.09z"/><path class="cls-5" d="M81.86 245.59h4.09v4.09h-4.09z"/><path class="cls-1" d="M85.96 245.59h4.09v4.09h-4.09z"/><path class="cls-4" d="M90.05 245.59h4.09v4.09h-4.09z"/><path class="cls-1" d="M94.14 245.59h4.09v4.09h-4.09z"/><path class="cls-3" d="M98.24 245.59h4.09v4.09h-4.09z"/><path class="cls-1" d="M102.33 245.59h4.09v4.09h-4.09z"/><path class="cls-2" d="M106.42 245.59h4.09v4.09h-4.09z"/><path class="cls-1" d="M110.52 245.59h4.09v4.09h-4.09z"/><path class="cls-4" d="M114.61 245.59h4.09v4.09h-4.09z"/><path class="cls-1" d="M118.7 245.59h4.09v4.09h-4.09z"/><path class="cls-2" d="M122.8 245.59h4.09v4.09h-4.09z"/><path class="cls-1" d="M126.89 245.59h4.09v4.09h-4.09z"/><path class="cls-3" d="M130.98 245.59h4.09v4.09h-4.09z"/><path class="cls-1" d="M135.08 245.59h4.09v4.09h-4.09z"/><path class="cls-2" d="M139.17 245.59h4.09v4.09h-4.09z"/><path class="cls-1" d="M143.26 245.59h4.09v4.09h-4.09z"/><path class="cls-4" d="M147.36 245.59h4.09v4.09h-4.09z"/><path class="cls-1" d="M151.45 245.59h4.09v4.09h-4.09z"/><path class="cls-4" d="M155.54 245.59h4.09v4.09h-4.09z"/><path class="cls-5" d="M77.77 249.69h4.09v4.09h-4.09z"/><path class="cls-1" d="M81.86 249.69h4.09v4.09h-4.09z"/><path class="cls-4" d="M85.96 249.69h4.09v4.09h-4.09z"/><path class="cls-1" d="M90.05 249.69h4.09v4.09h-4.09z"/><path class="cls-4" d="M94.14 249.69h4.09v4.09h-4.09z"/><path class="cls-1" d="M98.24 249.69h4.09v4.09h-4.09z"/><path class="cls-3" d="M102.33 249.69h4.09v4.09h-4.09z"/><path class="cls-1" d="M106.42 249.69h4.09v4.09h-4.09z"/><path class="cls-4" d="M110.52 249.69h4.09v4.09h-4.09z"/><path class="cls-1" d="M114.61 249.69h4.09v4.09h-4.09z"/><path class="cls-4" d="M118.7 249.69h4.09v4.09h-4.09z"/><path class="cls-1" d="M122.8 249.69h4.09v4.09h-4.09z"/><path class="cls-3" d="M126.89 249.69h4.09v4.09h-4.09z"/><path class="cls-1" d="M130.98 249.69h4.09v4.09h-4.09z"/><path class="cls-4" d="M135.08 249.69h4.09v4.09h-4.09z"/><path class="cls-1" d="M139.17 249.69h4.09v4.09h-4.09z"/><path class="cls-4" d="M143.26 249.69h4.09v4.09h-4.09z"/><path class="cls-1" d="M147.36 249.69h4.09v4.09h-4.09z"/><path class="cls-4" d="M151.45 249.69h4.09v4.09h-4.09z"/><path class="cls-1" d="M155.54 249.69h4.09v4.09h-4.09zM77.77 253.78h4.09v4.09h-4.09z"/><path class="cls-4" d="M81.86 253.78h4.09v4.09h-4.09z"/><path class="cls-1" d="M85.96 253.78h4.09v4.09h-4.09z"/><path class="cls-4" d="M90.05 253.78h4.09v4.09h-4.09z"/><path class="cls-1" d="M94.14 253.78h4.09v4.09h-4.09z"/><path class="cls-3" d="M98.24 253.78h4.09v4.09h-4.09z"/><path class="cls-1" d="M102.33 253.78h4.09v4.09h-4.09z"/><path class="cls-3" d="M106.42 253.78h4.09v4.09h-4.09z"/><path class="cls-1" d="M110.52 253.78h4.09v4.09h-4.09z"/><path class="cls-4" d="M114.61 253.78h4.09v4.09h-4.09z"/><path class="cls-1" d="M118.7 253.78h4.09v4.09h-4.09z"/><path class="cls-4" d="M122.8 253.78h4.09v4.09h-4.09z"/><path class="cls-1" d="M126.89 253.78h4.09v4.09h-4.09z"/><path class="cls-3" d="M130.98 253.78h4.09v4.09h-4.09z"/><path class="cls-1" d="M135.08 253.78h4.09v4.09h-4.09z"/><path class="cls-2" d="M139.17 253.78h4.09v4.09h-4.09z"/><path class="cls-1" d="M143.26 253.78h4.09v4.09h-4.09z"/><path class="cls-4" d="M147.36 253.78h4.09v4.09h-4.09z"/><path class="cls-1" d="M151.45 253.78h4.09v4.09h-4.09z"/><path class="cls-4" d="M155.54 253.78h4.09v4.09h-4.09zM77.77 257.87h4.09v4.09h-4.09z"/><path class="cls-1" d="M81.86 257.87h4.09v4.09h-4.09z"/><path class="cls-4" d="M85.96 257.87h4.09v4.09h-4.09z"/><path class="cls-1" d="M90.05 257.87h4.09v4.09h-4.09z"/><path class="cls-4" d="M94.14 257.87h4.09v4.09h-4.09z"/><path class="cls-1" d="M98.24 257.87h4.09v4.09h-4.09z"/><path class="cls-3" d="M102.33 257.87h4.09v4.09h-4.09z"/><path class="cls-1" d="M106.42 257.87h4.09v4.09h-4.09z"/><path class="cls-4" d="M110.52 257.87h4.09v4.09h-4.09z"/><path class="cls-1" d="M114.61 257.87h4.09v4.09h-4.09z"/><path class="cls-4" d="M118.7 257.87h4.09v4.09h-4.09z"/><path class="cls-1" d="M122.8 257.87h4.09v4.09h-4.09z"/><path class="cls-2" d="M126.89 257.87h4.09v4.09h-4.09z"/><path class="cls-1" d="M130.98 257.87h4.09v4.09h-4.09z"/><path class="cls-4" d="M135.08 257.87h4.09v4.09h-4.09z"/><path class="cls-1" d="M139.17 257.87h4.09v4.09h-4.09z"/><path class="cls-4" d="M143.26 257.87h4.09v4.09h-4.09z"/><path class="cls-1" d="M147.36 257.87h4.09v4.09h-4.09z"/><path class="cls-2" d="M151.45 257.87h4.09v4.09h-4.09z"/><path class="cls-1" d="M77.77 261.97h4.09v4.09h-4.09z"/><path class="cls-4" d="M81.86 261.97h4.09v4.09h-4.09z"/><path class="cls-1" d="M85.96 261.97h4.09v4.09h-4.09z"/><path class="cls-4" d="M90.05 261.97h4.09v4.09h-4.09z"/><path class="cls-1" d="M94.14 261.97h4.09v4.09h-4.09z"/><path class="cls-4" d="M98.24 261.97h4.09v4.09h-4.09z"/><path class="cls-1" d="M102.33 261.97h4.09v4.09h-4.09z"/><path class="cls-3" d="M106.42 261.97h4.09v4.09h-4.09z"/><path class="cls-1" d="M110.52 261.97h4.09v4.09h-4.09z"/><path class="cls-4" d="M114.61 261.97h4.09v4.09h-4.09z"/><path class="cls-1" d="M118.7 261.97h4.09v4.09h-4.09z"/><path class="cls-4" d="M122.8 261.97h4.09v4.09h-4.09z"/><path class="cls-1" d="M126.89 261.97h4.09v4.09h-4.09z"/><path class="cls-3" d="M130.98 261.97h4.09v4.09h-4.09z"/><path class="cls-1" d="M135.08 261.97h4.09v4.09h-4.09z"/><path class="cls-2" d="M139.17 261.97h4.09v4.09h-4.09z"/><path class="cls-1" d="M143.26 261.97h4.09v4.09h-4.09z"/><path class="cls-4" d="M77.77 266.06h4.09v4.09h-4.09z"/><path class="cls-1" d="M81.86 266.06h4.09v4.09h-4.09z"/><path class="cls-4" d="M85.96 266.06h4.09v4.09h-4.09z"/><path class="cls-1" d="M90.05 266.06h4.09v4.09h-4.09z"/><path class="cls-2" d="M94.14 266.06h4.09v4.09h-4.09z"/><path class="cls-1" d="M98.24 266.06h4.09v4.09h-4.09z"/><path class="cls-4" d="M102.33 266.06h4.09v4.09h-4.09z"/><path class="cls-1" d="M106.42 266.06h4.09v4.09h-4.09z"/><path class="cls-4" d="M110.52 266.06h4.09v4.09h-4.09z"/><path class="cls-1" d="M114.61 266.06h4.09v4.09h-4.09z"/><path class="cls-4" d="M118.7 266.06h4.09v4.09h-4.09z"/><path class="cls-1" d="M122.8 266.06h4.09v4.09h-4.09z"/><path class="cls-4" d="M126.89 266.06h4.09v4.09h-4.09z"/><path class="cls-1" d="M130.98 266.06h4.09v4.09h-4.09z"/><path class="cls-2" d="M135.08 266.06h4.09v4.09h-4.09z"/><path class="cls-1" d="M139.17 266.06h4.09v4.09h-4.09zM77.77 270.15h4.09v4.09h-4.09z"/><path class="cls-4" d="M81.86 270.15h4.09v4.09h-4.09z"/><path class="cls-1" d="M85.96 270.15h4.09v4.09h-4.09z"/><path class="cls-4" d="M90.05 270.15h4.09v4.09h-4.09z"/><path class="cls-1" d="M94.14 270.15h4.09v4.09h-4.09z"/><path class="cls-2" d="M98.24 270.15h4.09v4.09h-4.09z"/><path class="cls-1" d="M102.33 270.15h4.09v4.09h-4.09z"/><path class="cls-3" d="M106.42 270.15h4.09v4.09h-4.09z"/><path class="cls-1" d="M110.52 270.15h4.09v4.09h-4.09z"/><path class="cls-4" d="M114.61 270.15h4.09v4.09h-4.09z"/><path class="cls-1" d="M118.7 270.15h4.09v4.09h-4.09z"/><path class="cls-4" d="M122.8 270.15h4.09v4.09h-4.09z"/><path class="cls-1" d="M126.89 270.15h4.09v4.09h-4.09z"/><path class="cls-2" d="M130.98 270.15h4.09v4.09h-4.09z"/><path class="cls-3" d="M77.77 274.25h4.09v4.09h-4.09z"/><path class="cls-1" d="M81.86 274.25h4.09v4.09h-4.09z"/><path class="cls-3" d="M85.96 274.25h4.09v4.09h-4.09z"/><path class="cls-1" d="M90.05 274.25h4.09v4.09h-4.09z"/><path class="cls-3" d="M94.14 274.25h4.09v4.09h-4.09z"/><path class="cls-1" d="M98.24 274.25h4.09v4.09h-4.09z"/><path class="cls-2" d="M102.33 274.25h4.09v4.09h-4.09z"/><path class="cls-1" d="M106.42 274.25h4.09v4.09h-4.09z"/><path class="cls-2" d="M110.52 274.25h4.09v4.09h-4.09z"/><path class="cls-1" d="M114.61 274.25h4.09v4.09h-4.09z"/><path class="cls-4" d="M118.7 274.25h4.09v4.09h-4.09z"/><path class="cls-1" d="M122.8 274.25h4.09v4.09h-4.09z"/><path class="cls-4" d="M126.89 274.25h4.09v4.09h-4.09z"/><path class="cls-1" d="M77.77 278.34h4.09v4.09h-4.09z"/><path class="cls-3" d="M81.86 278.34h4.09v4.09h-4.09z"/><path class="cls-1" d="M85.96 278.34h4.09v4.09h-4.09z"/><path class="cls-3" d="M90.05 278.34h4.09v4.09h-4.09z"/><path class="cls-1" d="M94.14 278.34h4.09v4.09h-4.09z"/><path class="cls-2" d="M98.24 278.34h4.09v4.09h-4.09z"/><path class="cls-1" d="M102.33 278.34h4.09v4.09h-4.09z"/><path class="cls-2" d="M106.42 278.34h4.09v4.09h-4.09z"/><path class="cls-1" d="M110.52 278.34h4.09v4.09h-4.09z"/><path class="cls-4" d="M114.61 278.34h4.09v4.09h-4.09z"/><path class="cls-1" d="M118.7 278.34h4.09v4.09h-4.09z"/><path class="cls-4" d="M122.8 278.34h4.09v4.09h-4.09z"/><path class="cls-3" d="M77.77 282.43h4.09v4.09h-4.09z"/><path class="cls-1" d="M81.86 282.43h4.09v4.09h-4.09z"/><path class="cls-3" d="M85.96 282.43h4.09v4.09h-4.09z"/><path class="cls-1" d="M90.05 282.43h4.09v4.09h-4.09z"/><path class="cls-3" d="M94.14 282.43h4.09v4.09h-4.09z"/><path class="cls-1" d="M98.24 282.43h4.09v4.09h-4.09z"/><path class="cls-4" d="M102.33 282.43h4.09v4.09h-4.09z"/><path class="cls-1" d="M106.42 282.43h4.09v4.09h-4.09z"/><path class="cls-4" d="M110.52 282.43h4.09v4.09h-4.09z"/><path class="cls-1" d="M114.61 282.43h4.09v4.09h-4.09z"/><path class="cls-4" d="M118.7 282.43h4.09v4.09h-4.09z"/><path class="cls-1" d="M77.77 286.53h4.09v4.09h-4.09zM73.68 290.62h4.09v4.09h-4.09z"/><path class="cls-6" d="M73.68 294.71h4.09v4.09h-4.09z"/><path class="cls-1" d="M73.68 298.81h4.09v4.09h-4.09zM73.68 266.06h4.09v4.09h-4.09z"/><path class="cls-4" d="M73.68 270.15h4.09v4.09h-4.09z"/><path class="cls-1" d="M73.68 274.25h4.09v4.09h-4.09z"/><path class="cls-3" d="M73.68 278.34h4.09v4.09h-4.09z"/><path class="cls-1" d="M73.68 282.43h4.09v4.09h-4.09z"/><path class="cls-2" d="M73.68 286.53h4.09v4.09h-4.09z"/><path class="cls-4" d="M81.86 286.53h4.09v4.09h-4.09z"/><path class="cls-1" d="M85.96 286.53h4.09v4.09h-4.09z"/><path class="cls-4" d="M90.05 286.53h4.09v4.09h-4.09z"/><path class="cls-1" d="M94.14 286.53h4.09v4.09h-4.09z"/><path class="cls-4" d="M98.24 286.53h4.09v4.09h-4.09z"/><path class="cls-1" d="M102.33 286.53h4.09v4.09h-4.09z"/><path class="cls-4" d="M106.42 286.53h4.09v4.09h-4.09z"/><path class="cls-1" d="M110.52 286.53h4.09v4.09h-4.09z"/><path class="cls-4" d="M114.61 286.53h4.09v4.09h-4.09z"/><path class="cls-1" d="M81.86 290.62h4.09v4.09h-4.09z"/><path class="cls-4" d="M85.96 290.62h4.09v4.09h-4.09z"/><path class="cls-1" d="M90.05 290.62h4.09v4.09h-4.09z"/><path class="cls-4" d="M94.14 290.62h4.09v4.09h-4.09z"/><path class="cls-1" d="M98.24 290.62h4.09v4.09h-4.09z"/><path class="cls-2" d="M102.33 290.62h4.09v4.09h-4.09z"/><path class="cls-1" d="M106.42 290.62h4.09v4.09h-4.09z"/><path class="cls-2" d="M110.52 290.62h4.09v4.09h-4.09z"/><path class="cls-6" d="M81.86 294.71h4.09v4.09h-4.09z"/><path class="cls-1" d="M85.96 294.71h4.09v4.09h-4.09z"/><path class="cls-4" d="M90.05 294.71h4.09v4.09h-4.09z"/><path class="cls-1" d="M94.14 294.71h4.09v4.09h-4.09z"/><path class="cls-2" d="M98.24 294.71h4.09v4.09h-4.09z"/><path class="cls-1" d="M102.33 294.71h4.09v4.09h-4.09z"/><path class="cls-2" d="M106.42 294.71h4.09v4.09h-4.09z"/><path class="cls-1" d="M81.86 298.81h4.09v4.09h-4.09z"/><path class="cls-6" d="M85.96 298.81h4.09v4.09h-4.09z"/><path class="cls-1" d="M90.05 298.81h4.09v4.09h-4.09z"/><path class="cls-2" d="M94.14 298.81h4.09v4.09h-4.09z"/><path class="cls-1" d="M98.24 298.81h4.09v4.09h-4.09zM85.96 302.9h4.09v4.09h-4.09z"/><path class="cls-6" d="M90.05 302.9h4.09v4.09h-4.09z"/><path class="cls-1" transform="rotate(180 223.08 42.98)" d="M221.03 40.93h4.09v4.09h-4.09z"/><path class="cls-3" transform="rotate(180 223.08 47.07)" d="M221.03 45.03h4.09v4.09h-4.09z"/><path class="cls-1" transform="rotate(180 223.08 51.165)" d="M221.03 49.12h4.09v4.09h-4.09z"/><path class="cls-1" transform="rotate(180 227.175 55.26)" d="M225.13 53.21h4.09v4.09h-4.09z"/><path class="cls-3" transform="rotate(180 223.08 55.26)" d="M221.03 53.21h4.09v4.09h-4.09z"/><path class="cls-3" transform="rotate(180 227.175 59.35)" d="M225.13 57.31h4.09v4.09h-4.09z"/><path class="cls-1" transform="rotate(180 227.175 63.445)" d="M225.13 61.4h4.09v4.09h-4.09z"/><path class="cls-2" d="M77.77 290.62h4.09v4.09h-4.09z"/><path class="cls-1" d="M77.77 294.71h4.09v4.09h-4.09z"/><path class="cls-6" d="M77.77 298.81h4.09v4.09h-4.09zM81.86 302.9h4.09v4.09h-4.09z"/><path class="cls-1" d="M77.77 302.9h4.09v4.09h-4.09z"/></svg>
