<svg xmlns="http://www.w3.org/2000/svg" xml:space="preserve" width="450" height="450"><linearGradient id="a" x1="225" x2="225" y1="0" y2="450" gradientUnits="userSpaceOnUse"><stop offset="0" style="stop-color:#03b0e5"/><stop offset="1" style="stop-color:#038eb7"/></linearGradient><path fill="url(#a)" d="M0 0h450v450H0z"/><path fill="#FFF" d="M171 56.8a97.7 97.7 0 0 1 65.6 13.4 94.6 94.6 0 0 1 44.1 70.2c1.6 18.3.8 36.7 1.6 55 .1 15-.7 30-.4 45.1-.8 10 .2 20.2-1.3 30.2a55.2 55.2 0 0 1-106.2 10.7c-3.8-9.5-3.7-19.9-4-30v-93.1c.2-6.7.6-14 5.1-19.3 5.5-5.3 14.3-5.5 21-2.7 7 3.3 8.8 11.7 9 18.7v88.7c.6 9.6-.8 20 4.4 28.5 5 8.6 17.2 10 25.6 6 7.6-4.4 9.5-14 9.9-22.2V153.5a62.2 62.2 0 0 0-17.2-44.2c-19.8-20.6-54.8-22.6-77.8-6.2a59.3 59.3 0 0 0-24.6 47.3c-1 31.2-1.1 62.3-.7 93.4.7 13.7 0 27.6 3.6 41a98.2 98.2 0 0 0 56.6 66.5 96 96 0 0 0 119.2-38.6c10.7-17 15.1-37.2 14.8-57 1.4-11-1.9-22.7 2.4-33.2 5-12.7 26-12.8 31.4-.5 3 6.3 2 13.4 2.2 20 .8 20 .3 40.3-6 59.4a131.7 131.7 0 0 1-139 92.1A130.5 130.5 0 0 1 90.6 268.3c-.9-40.1-.7-80.4 0-120.6a96.4 96.4 0 0 1 31-67.4A93 93 0 0 1 171 56.8z"/><path fill="#FFF" d="M331.8 134.6c14.7 9.1 27.7 24.2 28.2 42.2a27.9 27.9 0 0 1-18.4 26.5c3-5.8 6.3-12 6-18.7 0-8-4.7-14.7-9.3-20.7-4.2 5.4-9.7 10-12 16.6-2.3 8.2 2.6 15.7 5.5 23-9.8-4.5-18.8-13.7-18.1-25.1-.1-16.9 17.1-27.2 18.1-43.8z"/></svg>