<svg xmlns="http://www.w3.org/2000/svg" xml:space="preserve" id="Oveleon_Contao_Glossary_Bundle" x="0" y="0" version="1.1" viewBox="0 0 100 100"><style>.st2{fill-rule:evenodd;clip-rule:evenodd}.st2,.st4,.st7{fill:#fff}.st7{opacity:.7}</style><g id="glossary1829_"><linearGradient id="SVGID_1_" x1="79.681" x2="20.359" y1="-6281.605" y2="-6165.178" gradientTransform="matrix(1 0 0 -1 0 -6173.401)" gradientUnits="userSpaceOnUse"><stop offset="0" stop-color="#5d4b41"/><stop offset="1" stop-color="#9e8a78"/></linearGradient><path fill="url(#SVGID_1_)" d="M0 5.7C0 2.6 2.6 0 5.7 0h88.7c3.1 0 5.7 2.6 5.7 5.7v88.7c0 3.1-2.6 5.7-5.7 5.7H5.7C2.6 100 0 97.4 0 94.3V5.7z"/></g><g opacity=".7"><path d="M89.1 87.7c0-.3-.2-.6-.6-.6-.4 0-.8.3-.7.6.1.4.2.7.7.7.3.1.6-.3.6-.7zm3-1c-.4-.1-.8.5-.4.7.2.2 1.1.4 1.5.7 1.1.7 1.7 1.3 2 2.3.4 1.9 0 5-2.6 5-.7 0-1.6-.3-2-1-.4-.9.2-2.3 1.2-2.5 1.2-.2 1.7.7.7 1.3-1.9 1.1 1 .9 1.5-.1.6-1.2-.6-2.3-2-2.2-1.1.1-2.1.8-2.4 1.8-.9 2.4 1.4 4.4 3.7 4 2.5-.4 3.4-3.1 3.2-5.4-.2-2.5-1.9-3.9-4.4-4.6z" class="st2"/><path d="M90.2 87.1c-.2-.2-.1-.5-.1-.8 0-.1.1-.6-.1-.6h-.4c-.5 0-1.1.2-1.6.5-1 .6-1.8 1.8-1.9 3 .6 0 4.1.1 4.4.1.3 0 .5.7-.4.7-1 0-3.1-.1-4.2-.1-.5 0-.6-.2-.5-.6V89c.3-2.5 2.4-4.1 4.9-4 .4 0 .5.1.5.5v1.1c.1.8-.6.5-.6.5z" class="st2"/></g><path fill="none" stroke="#fff" stroke-miterlimit="10" stroke-width="2.645" d="M73.7 75.6H30.3c-4.8 0-8.6-3.9-8.6-8.6V30.3c0-4.8 3.9-8.6 8.6-8.6h43.4c4.8 0 8.6 3.9 8.6 8.6V67c0 4.8-3.9 8.6-8.6 8.6z"/><path d="M30.1 28h1.1l2 5.4H32l-.4-1.2h-1.7l-.4 1.2h-1.3l1.9-5.4zm1.2 3.3-.6-1.9-.6 1.9h1.2zm9.2.7c0 .2 0 .4-.1.6s-.2.3-.4.4l-.6.3c-.2.1-.5.1-.7.1h-2.6V28h3c.2 0 .4 0 .5.1.2.1.3.2.4.3.1.1.2.3.2.4.1.2.1.3.1.5 0 .3-.1.5-.2.7-.1.2-.3.4-.6.5.3.1.5.3.7.5.3.4.3.6.3 1zm-3.1-2.9v1.1h1.2c.1 0 .3 0 .4-.1.1-.1.2-.2.2-.4s0-.3-.1-.4c-.1-.1-.2-.1-.3-.1h-1.4zm1.9 2.7c0-.2 0-.3-.1-.4s-.2-.2-.4-.2h-1.4v1.2h1.4c.2 0 .3-.1.4-.2s.1-.3.1-.4zm4.3-1.1c0-.3.1-.6.2-1 .1-.3.3-.6.5-.9.2-.3.5-.5.8-.6s.7-.2 1.1-.2c.5 0 .9.1 1.3.3s.6.5.8.8l-.9.7c-.1-.1-.1-.3-.2-.4-.1-.1-.2-.2-.3-.2-.1-.1-.2-.1-.3-.1h-.3c-.2 0-.4 0-.6.1s-.3.2-.4.4c-.1.2-.2.3-.3.5-.1.2-.1.4-.1.6 0 .2 0 .4.1.6.1.2.2.4.3.5l.4.4c.2.1.4.1.6.1h.3c.1 0 .2-.1.3-.1.1-.1.2-.1.3-.2.1-.1.2-.2.2-.3l1 .6c-.1.2-.2.4-.4.5-.2.2-.3.3-.5.4-.2.1-.4.2-.7.2s-.5.1-.7.1c-.4 0-.7-.1-1.1-.2-.3-.2-.6-.4-.8-.6-.2-.3-.4-.6-.5-.9-.1-.5-.1-.8-.1-1.1zm8.1 2.7V28h2c.4 0 .8.1 1.2.2.3.1.6.3.8.6.2.2.4.5.5.8s.2.7.2 1c0 .4-.1.8-.2 1.1-.1.3-.3.6-.5.8-.2.2-.5.4-.8.5-.3.1-.7.2-1.1.2h-2.1zm3.4-2.7c0-.2 0-.5-.1-.6-.1-.2-.2-.4-.3-.5-.1-.1-.3-.2-.4-.3s-.4-.1-.6-.1h-.8v3.2h.8c.2 0 .4 0 .6-.1.2-.1.3-.2.4-.3s.2-.3.3-.5c.1-.4.1-.6.1-.8zm8.4 1.6v1.1h-3.8V28h3.7v1.1h-2.5v1H63v1h-2.1v1.1h2.6zm3.3 1.1V28h3.6v1.1H68v1.2h2v1h-2v2.1h-1.2zm5.2 0v-1.2h1v1.2h-1zm1.5 0v-1.2h1v1.2h-1zm1.5 0v-1.2h1v1.2h-1z" class="st4"/><path fill="#fff" stroke="#fff" stroke-miterlimit="10" stroke-width="1.5" d="M21.7 37.7h59.4"/><path fill="#fff" stroke="#fff" stroke-miterlimit="10" stroke-width=".875" d="M55.1 50h20.2"/><path d="M75.8 67.8H28.6c-.5 0-.9.4-.9.9s.4.9.9.9h47.2c.5 0 .9-.4.9-.9 0-.4-.4-.9-.9-.9zm-21-20.6H28.6c-.5 0-.9.4-.9.9s.4.9.9.9h26.2c.5 0 .9-.4.9-.9 0-.4-.4-.9-.9-.9zm-3 15.4H28.6c-.5 0-.9.4-.9.9s.4.9.9.9h23.1c.5 0 .9-.4.9-.9.1-.4-.3-.9-.8-.9zM50.9 42H28.6c-.5 0-.9.4-.9.9s.4.9.9.9h22.3c.5 0 .9-.4.9-.9 0-.4-.4-.9-.9-.9z" class="st7"/><path d="M71.9 52.9H59.5c-.2 0-.5.2-.5.5s.2.5.5.5h12.4c.2 0 .5-.2.5-.5s-.2-.5-.5-.5zm0 4.7H59.5c-.2 0-.5.2-.5.5s.2.5.5.5h12.4c.2 0 .5-.2.5-.5s-.2-.5-.5-.5zm-7.5-2.4h-4.8c-.2 0-.5.2-.5.5s.2.5.5.5h4.8c.2 0 .5-.2.5-.5-.1-.2-.3-.5-.5-.5zm7.5 0h-6c-.2 0-.4.2-.4.5s.2.5.4.5h6c.2 0 .5-.2.5-.5 0-.2-.2-.5-.5-.5z" class="st4"/><path d="M54.8 52.3H28.6c-.5 0-.9.4-.9.9s.4.9.9.9h26.2c.5 0 .9-.4.9-.9 0-.4-.4-.9-.9-.9zm-9.6 5.2H28.6c-.5 0-.9.4-.9.9s.4.9.9.9h16.5c.5 0 .9-.4.9-.9.1-.4-.3-.9-.8-.9zm9.6 0h-6.2c-.5 0-.9.4-.9.9s.4.9.9.9h6.2c.5 0 .9-.4.9-.9 0-.4-.4-.9-.9-.9z" class="st7"/><path fill="none" stroke="#fff" stroke-miterlimit="10" stroke-width="1.975" d="M72.8 62.7H58.4c-1.8 0-3.2-1.4-3.2-3.2V45.2c0-1.8 1.4-3.2 3.2-3.2h14.4c1.8 0 3.2 1.4 3.2 3.2v14.3c0 1.8-1.4 3.2-3.2 3.2z"/><path fill="#fff" stroke="#fff" stroke-miterlimit="10" stroke-width="1.06" d="m63.8 62.7 2 2.3 2-2.3z"/><path fill="#fff" stroke="#fff" stroke-miterlimit="10" stroke-width=".867" d="M55.7 42.8h19.2V50H55.7z" opacity=".3"/></svg>