<svg xmlns="http://www.w3.org/2000/svg" width="1000" height="1000"><linearGradient id="a" x1="0" x2="1000" y1="0" y2="1000" gradientUnits="userSpaceOnUse"><stop offset="0" stop-color="#2699c2"/><stop offset=".487" stop-color="#1e81b5"/><stop offset="1" stop-color="#1e81b5"/></linearGradient><path fill="url(#a)" d="M0 0h1000v1000H0z"/><path fill="#FFF" d="M266.843 348.269v-92.04h-74.93v92.04h-31.565V139.706h31.565v91.154h74.93v-91.154h31.564v208.563h-31.564zm78.762 0V139.706h121.539v25.37h-89.679v66.08h84.664v24.78h-84.664v66.669h93.514v25.665H345.605zm263.727 0-60.18-150.449-8.26-26.845h-.885l2.36 28.615v148.679h-29.205V139.706h41.595l60.475 150.154 10.03 29.795h.885l-2.065-30.385V139.706h29.5v208.563h-44.25zm88.203 0V139.706H729.1v208.563h-31.565zm102.069 0-64.31-108.264v-4.72l61.654-95.579h36.285l-66.08 96.759 70.21 111.804h-37.759zM160.608 604.27V395.706h121.539v25.37h-89.679v66.08h84.664v24.78h-84.664v66.669h93.514v25.666H160.608zm269.857 0-60.18-150.45-8.26-26.845h-.885l2.36 28.615v148.68h-29.205V395.706h41.595l60.475 150.154 10.03 29.795h.885l-2.065-30.385V395.706h29.5V604.27h-44.25zm101.823 7.08-2.36-27.436c37.17-2.064 79.944-7.08 79.944-46.02V421.075h-80.239v-25.37h112.1v141.599c-.001 56.935-50.446 73.751-109.445 74.046zm238.112-3.541c-58.41 0-68.145-43.659-68.145-108.264 0-67.555 14.455-106.79 73.454-106.79 56.05 0 67.555 44.84 67.555 107.379.001 65.786-11.799 107.675-72.864 107.675zm2.951-189.389c-33.335 0-39.53 31.859-39.53 80.829 0 48.674 3.835 82.895 37.17 82.895 37.76 0 40.71-32.745 40.71-82.305-.001-48.379-4.426-81.419-38.35-81.419zM266.843 860.269V768.23h-74.93v92.039h-31.565V651.705h31.565v91.154h74.93v-91.154h31.564v208.563h-31.564zm182.307 0-12.98-58.409h-60.475l-15.34 58.409h-31.86l56.049-208.563h49.265l48.675 208.563H449.15zm-33.925-156.94-6.49-35.694h-1.18l-7.08 35.399-19.47 74.34h50.74l-16.52-74.045zm194.107 156.94-60.18-150.449-8.26-26.845h-.885l2.36 28.615v148.679h-29.205V651.705h41.595l60.475 150.154 10.03 29.794h.885l-2.065-30.385V651.705h29.5v208.563h-44.25zm176.997 0-60.18-150.449-8.26-26.845h-.885l2.36 28.615v148.679H690.16V651.705h41.595l60.475 150.154 10.03 29.794h.885l-2.065-30.385V651.705h29.5v208.563h-44.251z"/></svg>