<svg xmlns="http://www.w3.org/2000/svg" viewBox="0 0 100 100"><linearGradient id="A" x1="79.7" x2="20.4" y1="108.2" y2="-8.1" gradientUnits="userSpaceOnUse"><stop offset="0" stop-color="#641a2a"/><stop offset="1" stop-color="#cf1f5d"/></linearGradient><path fill="url(#A)" d="M0 5.7C0 2.6 2.6 0 5.7 0h88.6c3.1 0 5.7 2.6 5.7 5.7v88.6c0 3.1-2.6 5.7-5.7 5.7H5.7A6 6 0 010 94.2V5.7z"/><g fill="#fff" fill-rule="evenodd" opacity=".9"><path d="M84.8 88.8v.8l.1.1 1.1.6 1.7 1 1.2.7.1.2v1.5l-4.1-2.4v.7l.1.1 3.9 2.3.1.3v1.4l-.2-.1-5.2-3-.1-.2v-6.3l.2.1 4.5 2.7.7.4.1.2v1.5l-4.2-2.6z"/><path d="M92.2 94.8V90a2 2 0 0 0-.6.4v4.7c0 .1 0 .2-.2.3l-1.2.7v-6.2l.1-.2 5.3-3.1.1-.1v6.1c0 .3-.1.4-.3.5l-1 .6-.2.1V89l-.7.4v4.8l-.1.1c-.3 0-.7.3-1.2.5z" opacity=".8"/><path d="M89.8 88.5a145.6 145.6 0 01-5.7-3.1l-.3-.2.2-.1 5.4-3.2h.3l5.4 3.2.1.1-.1.1-5.1 3-.2.2zm-3.2-3.2l.2.1 2.6 1.5h.3l2.6-1.5.1-.1-.1-.1-2.7-1.5c-.1-.1-.2 0-.2 0l-2.6 1.5-.2.1z" opacity=".6"/></g><g stroke="#fff" stroke-miterlimit="10" stroke-width=".4"><path fill="none" d="M50.2 44.9c0 7.4-5.5 13.5-12.6 14.5v10.3L53.9 54l16.3 15.7V29.9H37.6v.5c7.1 1 12.6 7.1 12.6 14.5z"/><path fill="#fff" d="M73.8 27.4c-.4-.6-1-1-1.7-1.3-.4-.2-.9-.3-1.4-.3H37.2c-.5 0-1 .1-1.4.3-.7.3-1.3.7-1.7 1.3s-.6 1.3-.6 2v1a14.7 14.7 0 0 0 0 29v11.3c0 .7.2 1.4.6 2s1 1 1.7 1.3c.4.2.9.3 1.4.3a4 4 0 0 0 2.7-1.1L54 59.6l14.1 13.6c.7.7 1.6 1 2.7 1 .5 0 1-.1 1.4-.3.7-.3 1.3-.7 1.7-1.3s.6-1.3.6-2V29.4c-.1-.7-.3-1.4-.7-2zM24.3 44.9a11.2 11.2 0 1 1 22.4 0 11.2 11.2 0 0 1-22.4 0zm46 24.7L54 53.9l-2.8 2.7-13.5 13V59.4a14.7 14.7 0 0 0 0-29v-.5h32.8v39.7h-.2z"/></g><path fill="#fff" d="M43.6 42.2c-.2-.7-.8-1.2-1.5-1.3l-3.4-.5-1.5-3.1a2 2 0 00-1.7-1 2 2 0 00-1.7 1l-1.5 3.1-3.4.5c-.7.1-1.3.6-1.5 1.3-.2.7 0 1.4.5 1.9l2.4 2.4-.6 3.4a2 2 0 00.7 1.8c.3.2.7.4 1.1.4l.9-.2 3-1.6 3 1.6a2 2 0 002-.1c.6-.4.9-1.1.7-1.8l-.6-3.4 2.4-2.4c.7-.6.9-1.4.7-2zM39 45c-.4.4-.6 1-.5 1.6l.5 2.8-2.6-1.3c-.5-.3-1.2-.3-1.7 0l-2.6 1.3.5-2.8c.1-.6-.1-1.2-.5-1.6L30 43l2.9-.4a2 2 0 001.4-1l1.3-2.6 1.3 2.6c.3.5.8.9 1.4 1l2.9.4-2.2 2z" opacity=".6"/></svg>