<svg xmlns="http://www.w3.org/2000/svg" viewBox="0 0 391.63 83.88"><defs><linearGradient id="a" x1="20.95" y1="-14.67" x2="96.52" y2="60.9" gradientUnits="userSpaceOnUse"><stop offset="0" stop-color="#9bd8c3"/><stop offset=".5" stop-color="#6c92be"/><stop offset="1" stop-color="#9bd8c3"/></linearGradient><linearGradient id="b" x1="23.09" y1="82.58" x2="7.27" y2="2.66" gradientUnits="userSpaceOnUse"><stop offset="0" stop-color="#9bd8c3"/><stop offset=".46" stop-color="#6c92be"/><stop offset="1" stop-color="#9bd8c3"/></linearGradient></defs><g data-name="Layer 1"><path d="M122.89 1.48a1 1 0 0 1 .28-.69.94.94 0 0 1 .69-.28H130a1 1 0 0 1 1 1V35.2a.94.94 0 0 1-.28.69 1 1 0 0 1-.69.28h-6.11a1 1 0 0 1-1-1zm22.87-.56a.88.88 0 0 1 .24-.67 1 1 0 0 1 .69-.25H148l20.33 19.56V1.48a.94.94 0 0 1 .28-.69.9.9 0 0 1 .69-.28h6.11a.94.94 0 0 1 .69.28 1 1 0 0 1 .28.69v34.28a.87.87 0 0 1-.28.66 1 1 0 0 1-.69.25h-.82a1.13 1.13 0 0 1-.33-.07.84.84 0 0 1-.33-.18L153.86 16.2h-.05v19a.94.94 0 0 1-.28.69 1 1 0 0 1-.69.28h-6.06a1 1 0 0 1-1-1zm43.76 31.83a1.89 1.89 0 0 1-.49-.63 1.21 1.21 0 0 1 .23-.79l2.4-4.23a1 1 0 0 1 .89-.51 1.4 1.4 0 0 1 .84.2 7.48 7.48 0 0 0 .74.49 18.5 18.5 0 0 0 1.7.94 19.42 19.42 0 0 0 2.27.94 7.59 7.59 0 0 0 2.52.43 3.67 3.67 0 0 0 2.52-.86 2.8 2.8 0 0 0 1-2.19 3.86 3.86 0 0 0-1.33-2.88 12.27 12.27 0 0 0-3.92-2.27 30.51 30.51 0 0 1-3.39-1.63 15.35 15.35 0 0 1-3.21-2.34 12 12 0 0 1-2.37-3.18 9 9 0 0 1-.91-4.1 9.72 9.72 0 0 1 .74-3.72A9.38 9.38 0 0 1 192 3.16a11 11 0 0 1 3.63-2.29 13.87 13.87 0 0 1 5.14-.87 15.69 15.69 0 0 1 3.72.43 19.44 19.44 0 0 1 3.13 1.05 18.49 18.49 0 0 1 2.45 1.27c.7.44 1.23.8 1.6 1.07a.86.86 0 0 1 .46.82 1.66 1.66 0 0 1-.15.81l-2.6 3.92a1.77 1.77 0 0 1-.81.67.88.88 0 0 1-.92 0l-.89-.59c-.49-.32-1.08-.67-1.76-1a15.91 15.91 0 0 0-2.24-1 7.07 7.07 0 0 0-2.39-.45 3.4 3.4 0 0 0-2.3.79 2.34 2.34 0 0 0-.91 1.81 3.4 3.4 0 0 0 1.25 2.57 14.81 14.81 0 0 0 4.3 2.37c1 .41 2.08.91 3.28 1.53a15.79 15.79 0 0 1 3.37 2.29 12.12 12.12 0 0 1 2.64 3.26 9.25 9.25 0 0 1 1 4.51 9.54 9.54 0 0 1-.82 3.87 10 10 0 0 1-2.37 3.36 11.92 11.92 0 0 1-3.79 2.4 13.27 13.27 0 0 1-5 .91 19.62 19.62 0 0 1-4.43-.45 20.91 20.91 0 0 1-3.34-1.07 12.9 12.9 0 0 1-2.32-1.28 10.74 10.74 0 0 1-1.41-1.12zm35.81-31.27a.94.94 0 0 1 .28-.69.9.9 0 0 1 .68-.28h12.28a11.24 11.24 0 0 1 4.43.89 11.7 11.7 0 0 1 3.64 2.42 11.33 11.33 0 0 1 2.45 3.59 11 11 0 0 1 .89 4.36 11.16 11.16 0 0 1-.89 4.45 12 12 0 0 1-2.45 3.65 11.43 11.43 0 0 1-3.64 2.47 11.1 11.1 0 0 1-4.41.89h-5.35v12a.94.94 0 0 1-.28.69 1 1 0 0 1-.69.28h-6a1 1 0 0 1-1-1zm12.78 14.31a4 4 0 0 0 2.83-1.14 3.86 3.86 0 0 0 1.19-2.88 3.48 3.48 0 0 0-1.19-2.7A4.08 4.08 0 0 0 238.11 8h-4.84v7.79zm23.18-14.31a.94.94 0 0 1 .28-.69.9.9 0 0 1 .68-.28h6.12a.9.9 0 0 1 .68.28.94.94 0 0 1 .28.69V35.2a1 1 0 0 1-1 1h-6.12a1 1 0 0 1-1-1zm22.92 0a.94.94 0 0 1 .28-.69.9.9 0 0 1 .68-.28h15.23a10.74 10.74 0 0 1 4.31.87 11.37 11.37 0 0 1 3.54 2.36 11.18 11.18 0 0 1 2.39 3.49 10.57 10.57 0 0 1 .87 4.28 9.89 9.89 0 0 1-2.09 6.22 12.51 12.51 0 0 1-5.45 4l7 12.94a1.05 1.05 0 0 1 0 1 .89.89 0 0 1-.89.49h-6.77a.82.82 0 0 1-.51-.16 1.27 1.27 0 0 1-.31-.3l-6.77-13.5h-3.52v13a1 1 0 0 1-1 1h-6.07a1 1 0 0 1-1-1zm15.53 14.26a3.65 3.65 0 0 0 2.73-1.22 4.07 4.07 0 0 0 1.14-2.86 3.72 3.72 0 0 0-1.14-2.75 3.82 3.82 0 0 0-2.73-1.12h-7.54v8zm24.71-14.26a.94.94 0 0 1 .28-.69.9.9 0 0 1 .68-.28h21.09a1 1 0 0 1 1 1V7a.94.94 0 0 1-.28.69 1 1 0 0 1-.69.28h-14.14v6.31H344a1 1 0 0 1 1 1v5.55a1 1 0 0 1-1 1h-11.61v6.88h14.11a.94.94 0 0 1 .69.28.92.92 0 0 1 .28.69v5.52a.94.94 0 0 1-.28.69 1 1 0 0 1-.69.28h-21.09a1 1 0 0 1-1-1zm35.96 0a1 1 0 0 1 .25-.69.84.84 0 0 1 .66-.28h12.43a17.41 17.41 0 0 1 6.93 1.4 18.47 18.47 0 0 1 5.7 3.82 17.75 17.75 0 0 1 3.85 5.66 17.2 17.2 0 0 1 1.4 6.9 17.58 17.58 0 0 1-1.4 7 17.84 17.84 0 0 1-3.85 5.71 18.47 18.47 0 0 1-5.7 3.82 17.41 17.41 0 0 1-6.93 1.4h-12.43a.87.87 0 0 1-.66-.28 1 1 0 0 1-.25-.69zm12.83 27.15a10.1 10.1 0 0 0 4-.79 9.49 9.49 0 0 0 3.15-2.19 10.15 10.15 0 0 0 2.07-3.29 11.45 11.45 0 0 0 0-8.1 10.11 10.11 0 0 0-2.09-3.26 9.2 9.2 0 0 0-3.15-2.19 9.92 9.92 0 0 0-4-.79h-4.89v20.61zM126 48a.86.86 0 0 1 .33-.59.91.91 0 0 1 .58-.23h.82a1.33 1.33 0 0 1 .48.13.67.67 0 0 1 .38.38l11.82 22h.1l11.82-22a.71.71 0 0 1 .38-.38 1.33 1.33 0 0 1 .49-.13h.81a1 1 0 0 1 .99.82l5.75 34.23a.84.84 0 0 1-.2.81 1 1 0 0 1-.76.31h-6a1 1 0 0 1-1-.82l-2.29-15.74h-.11l-8.55 16.51a.8.8 0 0 1-.39.4 1 1 0 0 1-.48.16H140a.93.93 0 0 1-.51-.16.75.75 0 0 1-.35-.4l-8.61-16.51h-.1l-2.24 15.74a1 1 0 0 1-.31.56.9.9 0 0 1-.66.26h-6a1.07 1.07 0 0 1-.77-.31.84.84 0 0 1-.2-.81zm47.35.68a1 1 0 0 1 1-1h6.11a1 1 0 0 1 1 1V82.4a1 1 0 0 1-1 1h-6.11a1 1 0 0 1-1-1zm22.88-.56a.84.84 0 0 1 .28-.66 1 1 0 0 1 .68-.26h1.28l20.32 19.56h.05V48.68a.94.94 0 0 1 .28-.69 1 1 0 0 1 .69-.28h6.11a1 1 0 0 1 1 1V83a.87.87 0 0 1-.28.66 1 1 0 0 1-.69.26h-.81a1.25 1.25 0 0 1-.33-.08.82.82 0 0 1-.34-.18L204.32 63.4v19a1 1 0 0 1-1 1h-6.07a1 1 0 0 1-1-1zm45.53.56A1 1 0 0 1 242 48a.87.87 0 0 1 .66-.28h12.43a17.4 17.4 0 0 1 6.92 1.4 18.4 18.4 0 0 1 5.71 3.82 17.84 17.84 0 0 1 3.84 5.66 17 17 0 0 1 1.41 6.9 17.42 17.42 0 0 1-1.41 7 17.81 17.81 0 0 1-3.84 5.68A18.4 18.4 0 0 1 262 82a17.4 17.4 0 0 1-6.92 1.4h-12.4a.87.87 0 0 1-.66-.28 1 1 0 0 1-.26-.69zm12.84 27.15a9.88 9.88 0 0 0 4-.79 9.63 9.63 0 0 0 3.16-2.19 10 10 0 0 0 2.06-3.29 11.45 11.45 0 0 0 0-8.1 10.08 10.08 0 0 0-2.06-3.28 9.63 9.63 0 0 0-3.19-2.18 9.88 9.88 0 0 0-4-.79h-4.89v20.62zM283.53 80a2 2 0 0 1-.49-.63 1.22 1.22 0 0 1 .23-.79l2.4-4.23a1 1 0 0 1 .89-.51 1.33 1.33 0 0 1 .84.21s.28.19.74.48 1 .6 1.7.94a17.83 17.83 0 0 0 2.27.94 7.6 7.6 0 0 0 2.52.44 3.68 3.68 0 0 0 2.52-.87 2.77 2.77 0 0 0 1-2.19 3.83 3.83 0 0 0-1.33-2.88 12.27 12.27 0 0 0-3.92-2.26 35.65 35.65 0 0 1-3.39-1.65 15.76 15.76 0 0 1-3.21-2.35 11.45 11.45 0 0 1-2.36-3.18 9 9 0 0 1-.92-4.1 9.91 9.91 0 0 1 .74-3.72 9.38 9.38 0 0 1 2.24-3.29 11.18 11.18 0 0 1 3.67-2.29 13.9 13.9 0 0 1 5.14-.87 15.18 15.18 0 0 1 3.72.44 18.95 18.95 0 0 1 5.55 2.36c.7.44 1.23.8 1.61 1.07a.87.87 0 0 1 .45.82 1.66 1.66 0 0 1-.15.81l-2.6 3.92a1.77 1.77 0 0 1-.81.67.88.88 0 0 1-.92 0l-.89-.59c-.49-.32-1.08-.67-1.76-1a14.42 14.42 0 0 0-2.24-1 7.32 7.32 0 0 0-2.39-.43 3.36 3.36 0 0 0-2.29.79 2.32 2.32 0 0 0-.92 1.81 3.4 3.4 0 0 0 1.25 2.57 14.57 14.57 0 0 0 4.3 2.37c1 .41 2.08.92 3.29 1.53a16 16 0 0 1 3.36 2.29 12.35 12.35 0 0 1 2.6 3.28 9.36 9.36 0 0 1 1 4.51 9.66 9.66 0 0 1-.81 3.87 10.43 10.43 0 0 1-2.37 3.37A12.13 12.13 0 0 1 300 83a13.2 13.2 0 0 1-5 .92 19.58 19.58 0 0 1-4.43-.46 19.94 19.94 0 0 1-3.34-1.07 12.92 12.92 0 0 1-2.32-1.27 11.57 11.57 0 0 1-1.38-1.12z" fill="#9bd8c3"/><path d="M93 1.58a15 15 0 0 0-15.79 1.5L50.59 23.3 24 3A15 15 0 0 0 .16 17.27a15 15 0 0 0 5.91 9.88l35.64 27a15.12 15.12 0 0 0 18.07-.09l11.49-8.73v23.5a15 15 0 1 0 30.09 0V15.06A15 15 0 0 0 93 1.58zm-6.68 75.48a8.24 8.24 0 0 1-8.23-8.23v-37.2l-22.43 17a8.27 8.27 0 0 1-9.88 0l-35.64-27A8.23 8.23 0 0 1 20 8.47l30.63 23.36L81.34 8.51a8.22 8.22 0 0 1 13.2 6.55v53.77a8.23 8.23 0 0 1-8.22 8.23z" fill="url(#a)"/><path d="M15.05 0A15.06 15.06 0 0 0 0 15v53.83a15 15 0 1 0 30.09 0V15A15.06 15.06 0 0 0 15.05 0zm0 77.06a8.24 8.24 0 0 1-8.23-8.23V15a8.23 8.23 0 0 1 16.45 0v53.83a8.23 8.23 0 0 1-8.22 8.23z" style="mix-blend-mode:multiply" fill="url(#b)"/></g></svg>