<svg xmlns="http://www.w3.org/2000/svg" viewBox="0 0 191.8 150"><title>dokuments_c4g</title><g id="Ebene_5" data-name="Ebene 5"><path d="M82.51,79.72a1.15,1.15,0,0,0-1.18,1.1v2.42a1.15,1.15,0,0,0,1.11,1.17h25.93a1.13,1.13,0,0,0,1.17-1.08V80.88a1.14,1.14,0,0,0-1.1-1.16H82.51Zm0-9.4a1.15,1.15,0,0,0-1.18,1.1v2.42A1.16,1.16,0,0,0,82.44,75h25.93a1.13,1.13,0,0,0,1.17-1.08V71.49a1.13,1.13,0,0,0-1.09-1.17H82.51Zm-1.18-5.87a1.14,1.14,0,0,0,1.12,1.17h25.92a1.14,1.14,0,0,0,1.17-1.1V62.09a1.18,1.18,0,0,0-.33-.82,1.15,1.15,0,0,0-.82-.34H82.51a1.17,1.17,0,0,0-.82.34,1.09,1.09,0,0,0-.33.82ZM71.94,93.82V37.4h28.2V52.71a3.51,3.51,0,0,0,3.49,3.52h15.31V93.82Zm34.38-55.31L117.78,50a4,4,0,0,1,.82,1.51H104.85V37.69a4,4,0,0,1,1.5.82m3.34-3.27a8.15,8.15,0,0,0-2.79-1.76,8.42,8.42,0,0,0-3.23-.74H70.76a3.49,3.49,0,0,0-3.52,3.48V95a3.51,3.51,0,0,0,3.46,3.56h49.43A3.53,3.53,0,0,0,123.66,95V52.71a9.75,9.75,0,0,0-2.51-6.07Z" style="fill:#003764"/><path d="M40.37,105a.36.36,0,0,1,.4.31.17.17,0,0,1,0,.1v19.29c0,.3-.16.4-.43.43a31.19,31.19,0,0,1-5.62.46c-5.25,0-6.31-1.49-6.31-7.5s1.06-7.58,6.17-7.58a31.09,31.09,0,0,1,3.6.24V105.4a.35.35,0,0,1,.3-.41h1.89Zm-5.63,7.76c-3.36,0-3.74,1-3.74,5.27s.35,5.25,3.71,5.25a31.08,31.08,0,0,0,3.47-.22v-10.3Z" style="fill:#003764"/><path d="M56.63,118.06c0,6-1.05,7.52-6.28,7.52s-6.3-1.49-6.3-7.52,1.08-7.55,6.3-7.55S56.63,112,56.63,118.06Zm-10,0c0,4.19.4,5.25,3.7,5.25s3.68-1,3.68-5.25-.4-5.27-3.68-5.27-3.66,1-3.66,5.27Z" style="fill:#003764"/><path d="M69.87,110.74a.41.41,0,0,1,.38.44v1.19a.37.37,0,0,1-.32.4H65.76c-3.28,0-3.68,1-3.68,5.27s.4,5.25,3.68,5.25h4.09a.36.36,0,0,1,.4.32v1.27a.4.4,0,0,1-.36.45h0a35.27,35.27,0,0,1-4.11.24c-5.25,0-6.28-1.49-6.28-7.52s1-7.55,6.28-7.55A33.2,33.2,0,0,1,69.87,110.74Z" style="fill:#003764"/><path d="M84.85,110.65a.36.36,0,0,1,.41.31.14.14,0,0,1,0,.09v13.73c0,.32-.13.35-.41.4a32,32,0,0,1-5.62.43c-4.84,0-6.27-.62-6.27-6.36v-8.2c0-.27.19-.4.46-.4h1.73a.36.36,0,0,1,.41.31.14.14,0,0,1,0,.09v8c0,4.11.81,4.28,3.41,4.28h3.71v-12.3a.36.36,0,0,1,.31-.4h1.86Z" style="fill:#003764"/><path d="M108.91,116.76l0,8.31a.37.37,0,0,1-.32.4h-1.83a.37.37,0,0,1-.41-.31v-8.11c0-4.14-.81-4.3-3.36-4.3a18.53,18.53,0,0,0-3.16.24,11.85,11.85,0,0,1,.43,3.84l0,8.2c0,.32-.11.4-.35.4H98a.37.37,0,0,1-.4-.32V116.9c0-4-.81-4.11-3.36-4.11h-2.7v12.26a.37.37,0,0,1-.32.4H89.37a.37.37,0,0,1-.4-.32V111.37c0-.32.13-.38.4-.43a27.55,27.55,0,0,1,4.52-.43,12.06,12.06,0,0,1,4.49.81,14.84,14.84,0,0,1,4.36-.84C107.43,110.48,108.91,111.13,108.91,116.76Z" style="fill:#003764"/><path d="M124.25,117.66v.78c0,.54-.13.76-1,.76h-8.6c.08,3.3.7,4.11,3.6,4.11h4.44a.36.36,0,0,1,.41.31.27.27,0,0,1,0,.09v1.2a.4.4,0,0,1-.37.43h0a34.14,34.14,0,0,1-4.52.24c-5.09,0-6.16-1.49-6.16-7.52s1.08-7.55,6.16-7.55C123.07,110.51,124.2,112,124.25,117.66Zm-9.6-.57h7c0-3.44-.62-4.3-3.44-4.3S114.71,113.65,114.65,117.09Z" style="fill:#003764"/><path d="M139.52,116.85v8.2c0,.27-.19.4-.46.4h-1.74a.37.37,0,0,1-.41-.31V117c0-4.14-.81-4.28-3.4-4.28H129.8v12.3a.37.37,0,0,1-.32.4H127.6a.36.36,0,0,1-.41-.31V111.37c0-.35.14-.38.41-.43a31.16,31.16,0,0,1,5.62-.43C138.09,110.51,139.52,111.1,139.52,116.85Z" style="fill:#003764"/><path d="M146,106.56c.3-.08.46,0,.46.35v3.76h2.84c.3,0,.43.14.43.41v1.28c0,.27-.13.4-.43.4h-2.84v9.09c0,1.19.33,1.46,1.76,1.46h1.3c.3,0,.43.11.43.38V125c0,.24-.13.38-.4.43a7.67,7.67,0,0,1-1.51.16c-1.95,0-4.17,0-4.17-3.09v-9.75h-1.47a.38.38,0,0,1-.41-.32v-1.35a.37.37,0,0,1,.31-.41h1.61v-3.24a.38.38,0,0,1,.33-.43h0Z" style="fill:#003764"/><path d="M161.55,110.74a.4.4,0,0,1,.38.42h0v1.17a.37.37,0,0,1-.31.4h-5.11c-1.24,0-2,.43-2,1.4v.35c0,.76.35,1.4,1.68,1.9l3.6,1.43c2.48.94,2.7,2.32,2.7,3.82v.3c0,3-1.81,3.63-5.46,3.63-2.36,0-4.49-.19-5-.24s-.41-.19-.41-.4v-1.16a.36.36,0,0,1,.31-.4h5.11c2.16,0,2.84-.24,2.84-1.4v-.32c0-.78-.32-1.3-1.58-1.82l-3.84-1.46a3.81,3.81,0,0,1-2.59-3.87v-.57c0-3,2.59-3.38,5.49-3.38A35.92,35.92,0,0,1,161.55,110.74Z" style="fill:#003764"/><path d="M24.72,6.15S5.2,6.15,5.2,25.67v101s0,19.53,19.52,19.53h141.9s19.53,0,19.53-19.53V25.67s0-19.52-19.53-19.52Z" style="fill:none;stroke:#103a5d;stroke-width:2.51389524052214px"/></g></svg>