<?xml version="1.0" encoding="utf-8"?>
<!-- Generator: Adobe Illustrator 23.0.0, SVG Export Plug-In . SVG Version: 6.00 Build 0)  -->
<svg version="1.1" id="Ebene_1" xmlns="http://www.w3.org/2000/svg" xmlns:xlink="http://www.w3.org/1999/xlink" x="0px" y="0px"
	 viewBox="0 0 564.67 190.58" style="enable-background:new 0 0 564.67 190.58;" xml:space="preserve">
<style type="text/css">
	.st0{fill:#F08102;}
	.st1{fill:#333333;}
	.st2{fill:#F08102;stroke:#FFFFFF;stroke-width:7;stroke-miterlimit:10;}
</style>
<g>
	<path class="st0" d="M61.9,93.98c-0.72,7.64-3.54,13.6-8.46,17.87s-11.46,6.42-19.62,6.42c-5.7,0-10.73-1.35-15.07-4.06
		c-4.34-2.7-7.69-6.55-10.06-11.53C6.34,97.7,5.11,91.92,5.02,85.33v-6.69c0-6.75,1.2-12.7,3.59-17.85
		c2.39-5.15,5.83-9.11,10.3-11.9c4.47-2.79,9.65-4.18,15.51-4.18c7.9,0,14.26,2.14,19.08,6.42c4.82,4.28,7.62,10.33,8.41,18.17
		H49.51c-0.59-5.15-2.09-8.86-4.5-11.14c-2.41-2.28-5.94-3.42-10.6-3.42c-5.41,0-9.56,1.98-12.46,5.93
		c-2.9,3.95-4.38,9.75-4.45,17.4v6.35c0,7.74,1.38,13.65,4.15,17.72s6.83,6.1,12.17,6.1c4.88,0,8.56-1.1,11.01-3.29
		c2.46-2.2,4.02-5.85,4.67-10.96H61.9z"/>
	<path class="st0" d="M69.62,90.2c0-5.21,1.03-9.91,3.1-14.09c2.07-4.18,4.97-7.39,8.7-9.64c3.74-2.25,8.03-3.37,12.88-3.37
		c7.18,0,13.01,2.31,17.48,6.93c4.47,4.62,6.89,10.75,7.25,18.39l0.05,2.8c0,5.25-1.01,9.93-3.02,14.06
		c-2.02,4.13-4.9,7.33-8.65,9.59c-3.75,2.26-8.09,3.39-13.01,3.39c-7.51,0-13.51-2.5-18.02-7.5c-4.51-5-6.76-11.66-6.76-19.99V90.2z
		 M81.57,91.23c0,5.47,1.13,9.76,3.39,12.86s5.41,4.65,9.44,4.65c4.03,0,7.17-1.57,9.42-4.72c2.25-3.15,3.37-7.75,3.37-13.82
		c0-5.38-1.16-9.64-3.47-12.78s-5.45-4.72-9.42-4.72c-3.9,0-7,1.55-9.29,4.65S81.57,85.07,81.57,91.23z"/>
	<path class="st0" d="M140.28,64.09l0.34,6.15c3.93-4.75,9.1-7.13,15.49-7.13c11.08,0,16.72,6.34,16.91,19.03v35.16h-11.95V82.82
		c0-3.38-0.73-5.88-2.19-7.5c-1.46-1.62-3.84-2.43-7.15-2.43c-4.82,0-8.41,2.18-10.77,6.54v37.86h-11.95v-53.2H140.28z"/>
	<path class="st0" d="M200.17,51.16v12.93h9.39v8.85h-9.39v29.7c0,2.03,0.4,3.5,1.2,4.4c0.8,0.9,2.24,1.35,4.3,1.35
		c1.38,0,2.77-0.16,4.18-0.49v9.24c-2.72,0.75-5.34,1.13-7.87,1.13c-9.18,0-13.77-5.06-13.77-15.19V72.94h-8.75v-8.85h8.75V51.16
		H200.17z"/>
	<path class="st0" d="M250.47,117.29c-0.52-1.02-0.98-2.67-1.38-4.97c-3.8,3.97-8.46,5.95-13.96,5.95c-5.34,0-9.7-1.52-13.08-4.57
		c-3.38-3.05-5.06-6.82-5.06-11.31c0-5.67,2.11-10.02,6.32-13.05c4.21-3.03,10.23-4.55,18.07-4.55h7.33V81.3
		c0-2.75-0.77-4.96-2.31-6.61c-1.54-1.65-3.88-2.48-7.03-2.48c-2.72,0-4.95,0.68-6.69,2.04c-1.74,1.36-2.61,3.09-2.61,5.19h-11.95
		c0-2.92,0.97-5.65,2.9-8.19c1.93-2.54,4.56-4.53,7.89-5.97c3.33-1.44,7.04-2.16,11.14-2.16c6.23,0,11.19,1.57,14.9,4.7
		c3.7,3.13,5.61,7.53,5.7,13.2v24c0,4.79,0.67,8.6,2.02,11.46v0.84H250.47z M237.34,108.68c2.36,0,4.58-0.57,6.66-1.72
		c2.08-1.15,3.65-2.69,4.7-4.62V92.31h-6.44c-4.43,0-7.75,0.77-9.98,2.31c-2.23,1.54-3.34,3.72-3.34,6.54
		c0,2.29,0.76,4.12,2.29,5.48C232.75,108,234.79,108.68,237.34,108.68z"/>
	<path class="st0" d="M270.93,90.2c0-5.21,1.03-9.91,3.1-14.09c2.06-4.18,4.97-7.39,8.7-9.64c3.74-2.25,8.03-3.37,12.88-3.37
		c7.18,0,13.01,2.31,17.48,6.93s6.89,10.75,7.25,18.39l0.05,2.8c0,5.25-1.01,9.93-3.02,14.06c-2.02,4.13-4.9,7.33-8.65,9.59
		c-3.75,2.26-8.09,3.39-13.01,3.39c-7.51,0-13.51-2.5-18.02-7.5c-4.51-5-6.76-11.66-6.76-19.99V90.2z M282.88,91.23
		c0,5.47,1.13,9.76,3.39,12.86s5.41,4.65,9.44,4.65s7.17-1.57,9.42-4.72c2.25-3.15,3.37-7.75,3.37-13.82
		c0-5.38-1.16-9.64-3.47-12.78c-2.31-3.15-5.45-4.72-9.42-4.72c-3.9,0-7,1.55-9.29,4.65C284.02,80.44,282.88,85.07,282.88,91.23z"/>
</g>
<g>
	<path class="st1" d="M394.88,144.73H314v-13.8l40.07-43.7c5.78-6.44,9.9-11.83,12.35-16.15c2.45-4.32,3.68-8.66,3.68-13.01
		c0-5.73-1.61-10.35-4.83-13.88c-3.22-3.52-7.56-5.29-13.01-5.29c-6.5,0-11.54,1.98-15.12,5.95c-3.58,3.97-5.37,9.39-5.37,16.27
		h-20.07c0-7.32,1.67-13.92,5-19.78c3.33-5.87,8.1-10.42,14.29-13.67c6.2-3.25,13.34-4.87,21.44-4.87c11.67,0,20.89,2.93,27.63,8.8
		c6.75,5.87,10.12,13.98,10.12,24.33c0,6-1.69,12.3-5.08,18.88c-3.39,6.58-8.94,14.06-16.65,22.43l-29.41,31.47h55.84V144.73z"/>
</g>
<g>
	<path class="st2" d="M406.22,82.59l10.13-17.5h13.28l-16.27,26.21l16.82,26.99h-13.18l-10.62-18.19l-10.57,18.19h-13.28
		l16.82-26.99l-16.23-26.21h13.18L406.22,82.59z"/>
	<path class="st2" d="M450.48,118.29h-11.95V42.76h11.95V118.29z"/>
	<path class="st2" d="M463.51,51.27c0-1.84,0.58-3.36,1.75-4.57c1.16-1.21,2.83-1.82,4.99-1.82c2.16,0,3.84,0.61,5.02,1.82
		c1.18,1.21,1.77,2.74,1.77,4.57c0,1.8-0.59,3.3-1.77,4.5c-1.18,1.2-2.85,1.79-5.02,1.79c-2.16,0-3.83-0.6-4.99-1.79
		C464.09,54.57,463.51,53.07,463.51,51.27z M476.19,118.29h-11.95v-53.2h11.95V118.29z"/>
	<path class="st2" d="M493.4,118.29V73.94h-8.11v-8.85h8.11v-4.87c0-5.9,1.64-10.46,4.92-13.67c3.28-3.21,7.87-4.82,13.77-4.82
		c2.1,0,4.33,0.29,6.69,0.89l-0.29,9.34c-1.31-0.26-2.84-0.39-4.57-0.39c-5.7,0-8.56,2.93-8.56,8.8v4.72h10.82v8.85h-10.82v44.35
		H493.4z"/>
	<path class="st2" d="M529.1,118.29V73.94h-8.11v-8.85h8.11v-4.87c0-5.9,1.64-10.46,4.92-13.67c3.28-3.21,7.87-4.82,13.77-4.82
		c2.1,0,4.33,0.29,6.69,0.89l-0.29,9.34c-1.31-0.26-2.84-0.39-4.57-0.39c-5.7,0-8.56,2.93-8.56,8.8v4.72h10.82v8.85h-10.82v44.35
		H529.1z"/>
</g>
<g>
	<path class="st0" d="M406.22,82.59l10.13-17.5h13.28l-16.27,26.21l16.82,26.99h-13.18l-10.62-18.19l-10.57,18.19h-13.28
		l16.82-26.99l-16.23-26.21h13.18L406.22,82.59z"/>
	<path class="st0" d="M450.48,118.29h-11.95V42.76h11.95V118.29z"/>
	<path class="st0" d="M463.51,51.27c0-1.84,0.58-3.36,1.75-4.57c1.16-1.21,2.83-1.82,4.99-1.82c2.16,0,3.84,0.61,5.02,1.82
		c1.18,1.21,1.77,2.74,1.77,4.57c0,1.8-0.59,3.3-1.77,4.5c-1.18,1.2-2.85,1.79-5.02,1.79c-2.16,0-3.83-0.6-4.99-1.79
		C464.09,54.57,463.51,53.07,463.51,51.27z M476.19,118.29h-11.95v-53.2h11.95V118.29z"/>
	<path class="st0" d="M493.4,118.29V73.94h-8.11v-8.85h8.11v-4.87c0-5.9,1.64-10.46,4.92-13.67c3.28-3.21,7.87-4.82,13.77-4.82
		c2.1,0,4.33,0.29,6.69,0.89l-0.29,9.34c-1.31-0.26-2.84-0.39-4.57-0.39c-5.7,0-8.56,2.93-8.56,8.8v4.72h10.82v8.85h-10.82v44.35
		H493.4z"/>
	<path class="st0" d="M529.1,118.29V73.94h-8.11v-8.85h8.11v-4.87c0-5.9,1.64-10.46,4.92-13.67c3.28-3.21,7.87-4.82,13.77-4.82
		c2.1,0,4.33,0.29,6.69,0.89l-0.29,9.34c-1.31-0.26-2.84-0.39-4.57-0.39c-5.7,0-8.56,2.93-8.56,8.8v4.72h10.82v8.85h-10.82v44.35
		H529.1z"/>
</g>
<rect x="401.17" y="129" class="st0" width="150" height="15"/>
<polygon class="st0" points="551.17,123 564.67,136.5 551.17,150 "/>
<g>
	<g>
		<path class="st1" d="M16.95,143.43c-1.6,0-2.9-0.5-3.9-1.51c-1-1.01-1.49-2.35-1.49-4.03v-0.31c0-1.12,0.22-2.13,0.65-3.01
			c0.43-0.88,1.04-1.57,1.83-2.06c0.78-0.49,1.66-0.74,2.62-0.74c1.53,0,2.72,0.49,3.55,1.47c0.84,0.98,1.25,2.36,1.25,4.15v1.02
			h-7.35c0.08,0.93,0.39,1.66,0.93,2.21s1.23,0.81,2.05,0.81c1.16,0,2.1-0.47,2.83-1.4l1.36,1.3c-0.45,0.67-1.05,1.19-1.81,1.57
			C18.73,143.25,17.88,143.43,16.95,143.43z M16.65,133.79c-0.69,0-1.25,0.24-1.68,0.73c-0.43,0.49-0.7,1.16-0.82,2.03h4.82v-0.19
			c-0.06-0.85-0.28-1.49-0.68-1.92C17.89,134.01,17.35,133.79,16.65,133.79z"/>
		<path class="st1" d="M27.47,135.67l2.14-3.7h2.81l-3.44,5.54l3.56,5.71h-2.79l-2.25-3.85l-2.24,3.85h-2.81l3.56-5.71l-3.43-5.54
			h2.79L27.47,135.67z"/>
		<path class="st1" d="M44,137.71c0,1.74-0.4,3.13-1.19,4.17c-0.79,1.04-1.85,1.56-3.18,1.56c-1.23,0-2.22-0.41-2.96-1.22v5.34
			h-2.53v-15.58h2.33l0.1,1.14c0.74-0.9,1.75-1.35,3.03-1.35c1.37,0,2.45,0.51,3.23,1.53c0.78,1.02,1.17,2.44,1.17,4.26V137.71z
			 M41.48,137.49c0-1.12-0.22-2.01-0.67-2.67c-0.45-0.66-1.09-0.99-1.92-0.99c-1.03,0-1.78,0.43-2.23,1.28v4.99
			c0.46,0.87,1.21,1.31,2.25,1.31c0.8,0,1.43-0.32,1.89-0.97S41.48,138.81,41.48,137.49z"/>
		<path class="st1" d="M45.66,137.49c0-1.1,0.22-2.1,0.66-2.98c0.44-0.88,1.05-1.56,1.84-2.04c0.79-0.48,1.7-0.71,2.73-0.71
			c1.52,0,2.75,0.49,3.7,1.47c0.95,0.98,1.46,2.27,1.53,3.89l0.01,0.59c0,1.11-0.21,2.1-0.64,2.98c-0.43,0.87-1.04,1.55-1.83,2.03
			c-0.79,0.48-1.71,0.72-2.75,0.72c-1.59,0-2.86-0.53-3.81-1.59c-0.95-1.06-1.43-2.47-1.43-4.23V137.49z M48.19,137.71
			c0,1.16,0.24,2.06,0.72,2.72c0.48,0.66,1.14,0.98,2,0.98s1.52-0.33,1.99-1c0.48-0.67,0.71-1.64,0.71-2.92
			c0-1.14-0.24-2.04-0.73-2.71c-0.49-0.67-1.15-1-1.99-1c-0.83,0-1.48,0.33-1.97,0.98C48.43,135.43,48.19,136.41,48.19,137.71z"/>
		<path class="st1" d="M64.16,134.28c-0.33-0.06-0.68-0.08-1.03-0.08c-1.16,0-1.94,0.44-2.34,1.33v7.7h-2.53v-11.26h2.41l0.06,1.26
			c0.61-0.98,1.46-1.47,2.54-1.47c0.36,0,0.66,0.05,0.89,0.15L64.16,134.28z"/>
		<path class="st1" d="M69.44,129.23v2.74h1.99v1.87h-1.99v6.28c0,0.43,0.08,0.74,0.25,0.93s0.47,0.29,0.91,0.29
			c0.29,0,0.59-0.03,0.88-0.1v1.96c-0.58,0.16-1.13,0.24-1.66,0.24c-1.94,0-2.91-1.07-2.91-3.21v-6.38h-1.85v-1.87h1.85v-2.74H69.44
			z"/>
		<path class="st1" d="M92.02,136.57l-6.66,6.66v-13.32L92.02,136.57z"/>
		<path class="st1" d="M108.44,129.23v2.74h1.99v1.87h-1.99v6.28c0,0.43,0.08,0.74,0.25,0.93s0.47,0.29,0.91,0.29
			c0.29,0,0.59-0.03,0.88-0.1v1.96c-0.58,0.16-1.13,0.24-1.66,0.24c-1.94,0-2.91-1.07-2.91-3.21v-6.38h-1.85v-1.87h1.85v-2.74
			H108.44z"/>
		<path class="st1" d="M118.25,134.28c-0.33-0.06-0.68-0.08-1.03-0.08c-1.16,0-1.94,0.44-2.34,1.33v7.7h-2.53v-11.26h2.41l0.06,1.26
			c0.61-0.98,1.46-1.47,2.54-1.47c0.36,0,0.66,0.05,0.89,0.15L118.25,134.28z"/>
		<path class="st1" d="M126.26,143.23c-0.11-0.21-0.21-0.56-0.29-1.05c-0.8,0.84-1.79,1.26-2.95,1.26c-1.13,0-2.05-0.32-2.77-0.97
			s-1.07-1.44-1.07-2.39c0-1.2,0.45-2.12,1.34-2.76s2.17-0.96,3.82-0.96h1.55v-0.74c0-0.58-0.16-1.05-0.49-1.4s-0.82-0.53-1.49-0.53
			c-0.58,0-1.05,0.14-1.41,0.43c-0.37,0.29-0.55,0.65-0.55,1.1h-2.53c0-0.62,0.2-1.19,0.61-1.73c0.41-0.54,0.97-0.96,1.67-1.26
			c0.7-0.31,1.49-0.46,2.36-0.46c1.32,0,2.37,0.33,3.15,0.99c0.78,0.66,1.19,1.59,1.21,2.79v5.08c0,1.01,0.14,1.82,0.43,2.42v0.18
			H126.26z M123.49,141.41c0.5,0,0.97-0.12,1.41-0.36s0.77-0.57,0.99-0.98v-2.12h-1.36c-0.94,0-1.64,0.16-2.11,0.49
			c-0.47,0.33-0.71,0.79-0.71,1.38c0,0.49,0.16,0.87,0.48,1.16C122.51,141.26,122.94,141.41,123.49,141.41z"/>
		<path class="st1" d="M133.41,131.97l0.07,1.3c0.83-1.01,1.92-1.51,3.28-1.51c2.34,0,3.54,1.34,3.58,4.03v7.44h-2.53v-7.29
			c0-0.71-0.15-1.24-0.46-1.59s-0.81-0.52-1.51-0.52c-1.02,0-1.78,0.46-2.28,1.38v8.01h-2.53v-11.26H133.41z"/>
		<path class="st1" d="M149.22,140.17c0-0.45-0.19-0.79-0.56-1.03s-0.99-0.44-1.85-0.62c-0.86-0.18-1.58-0.41-2.15-0.69
			c-1.26-0.61-1.89-1.49-1.89-2.65c0-0.97,0.41-1.78,1.23-2.43s1.86-0.98,3.12-0.98c1.35,0,2.43,0.33,3.26,1
			c0.83,0.67,1.24,1.53,1.24,2.59h-2.53c0-0.49-0.18-0.89-0.54-1.21c-0.36-0.32-0.84-0.48-1.44-0.48c-0.56,0-1.01,0.13-1.36,0.38
			c-0.35,0.26-0.53,0.6-0.53,1.03c0,0.39,0.16,0.69,0.49,0.9c0.33,0.22,0.98,0.43,1.98,0.65c0.99,0.22,1.77,0.48,2.34,0.78
			c0.56,0.3,0.98,0.66,1.26,1.09c0.27,0.42,0.41,0.94,0.41,1.54c0,1.01-0.42,1.83-1.26,2.46c-0.84,0.63-1.94,0.94-3.3,0.94
			c-0.92,0-1.74-0.17-2.47-0.5c-0.72-0.33-1.28-0.79-1.69-1.37c-0.4-0.58-0.6-1.21-0.6-1.88h2.46c0.03,0.6,0.26,1.06,0.68,1.38
			c0.42,0.32,0.97,0.48,1.65,0.48c0.67,0,1.17-0.13,1.52-0.38C149.05,140.91,149.22,140.58,149.22,140.17z"/>
		<path class="st1" d="M156.6,143.23h-2.53v-15.98h2.53V143.23z"/>
		<path class="st1" d="M166.08,143.23c-0.11-0.21-0.21-0.56-0.29-1.05c-0.8,0.84-1.79,1.26-2.95,1.26c-1.13,0-2.05-0.32-2.77-0.97
			s-1.07-1.44-1.07-2.39c0-1.2,0.45-2.12,1.34-2.76s2.17-0.96,3.82-0.96h1.55v-0.74c0-0.58-0.16-1.05-0.49-1.4s-0.82-0.53-1.49-0.53
			c-0.58,0-1.05,0.14-1.41,0.43c-0.37,0.29-0.55,0.65-0.55,1.1h-2.53c0-0.62,0.2-1.19,0.61-1.73c0.41-0.54,0.97-0.96,1.67-1.26
			c0.7-0.31,1.49-0.46,2.36-0.46c1.32,0,2.37,0.33,3.15,0.99c0.78,0.66,1.19,1.59,1.21,2.79v5.08c0,1.01,0.14,1.82,0.43,2.42v0.18
			H166.08z M163.3,141.41c0.5,0,0.97-0.12,1.41-0.36s0.77-0.57,0.99-0.98v-2.12h-1.36c-0.94,0-1.64,0.16-2.11,0.49
			c-0.47,0.33-0.71,0.79-0.71,1.38c0,0.49,0.16,0.87,0.48,1.16C162.33,141.26,162.76,141.41,163.3,141.41z"/>
		<path class="st1" d="M174.04,129.23v2.74h1.99v1.87h-1.99v6.28c0,0.43,0.08,0.74,0.25,0.93s0.47,0.29,0.91,0.29
			c0.29,0,0.59-0.03,0.88-0.1v1.96c-0.58,0.16-1.13,0.24-1.66,0.24c-1.94,0-2.91-1.07-2.91-3.21v-6.38h-1.85v-1.87h1.85v-2.74
			H174.04z"/>
		<path class="st1" d="M182.92,143.43c-1.6,0-2.9-0.5-3.9-1.51c-1-1.01-1.49-2.35-1.49-4.03v-0.31c0-1.12,0.22-2.13,0.65-3.01
			c0.43-0.88,1.04-1.57,1.83-2.06c0.78-0.49,1.66-0.74,2.62-0.74c1.53,0,2.72,0.49,3.55,1.47c0.84,0.98,1.25,2.36,1.25,4.15v1.02
			h-7.35c0.08,0.93,0.39,1.66,0.93,2.21s1.23,0.81,2.05,0.81c1.16,0,2.1-0.47,2.83-1.4l1.36,1.3c-0.45,0.67-1.05,1.19-1.81,1.57
			C184.7,143.25,183.85,143.43,182.92,143.43z M182.62,133.79c-0.69,0-1.25,0.24-1.68,0.73c-0.43,0.49-0.7,1.16-0.82,2.03h4.82
			v-0.19c-0.06-0.85-0.28-1.49-0.68-1.92C183.86,134.01,183.32,133.79,182.62,133.79z"/>
		<path class="st1" d="M208.05,136.57l-6.66,6.66v-13.32L208.05,136.57z"/>
		<path class="st1" d="M227.2,134.28c-0.33-0.06-0.68-0.08-1.03-0.08c-1.16,0-1.94,0.44-2.34,1.33v7.7h-2.53v-11.26h2.41l0.06,1.26
			c0.61-0.98,1.46-1.47,2.54-1.47c0.36,0,0.66,0.05,0.89,0.15L227.2,134.28z"/>
		<path class="st1" d="M233.56,143.43c-1.6,0-2.9-0.5-3.9-1.51c-1-1.01-1.49-2.35-1.49-4.03v-0.31c0-1.12,0.22-2.13,0.65-3.01
			c0.43-0.88,1.04-1.57,1.83-2.06c0.78-0.49,1.66-0.74,2.62-0.74c1.53,0,2.72,0.49,3.55,1.47c0.84,0.98,1.25,2.36,1.25,4.15v1.02
			h-7.35c0.08,0.93,0.39,1.66,0.93,2.21s1.23,0.81,2.05,0.81c1.16,0,2.1-0.47,2.83-1.4l1.36,1.3c-0.45,0.67-1.05,1.19-1.81,1.57
			C235.34,143.25,234.5,143.43,233.56,143.43z M233.26,133.79c-0.69,0-1.25,0.24-1.68,0.73c-0.43,0.49-0.7,1.16-0.82,2.03h4.82
			v-0.19c-0.06-0.85-0.28-1.49-0.68-1.92C234.51,134.01,233.96,133.79,233.26,133.79z"/>
		<path class="st1" d="M240.04,129.05c0-0.39,0.12-0.71,0.37-0.97c0.25-0.26,0.6-0.38,1.06-0.38s0.81,0.13,1.06,0.38
			c0.25,0.26,0.37,0.58,0.37,0.97c0,0.38-0.12,0.7-0.37,0.95c-0.25,0.25-0.6,0.38-1.06,0.38s-0.81-0.13-1.06-0.38
			C240.16,129.75,240.04,129.43,240.04,129.05z M242.72,143.23h-2.53v-11.26h2.53V143.23z"/>
		<path class="st1" d="M247.85,131.97l0.07,1.18c0.79-0.92,1.87-1.38,3.25-1.38c1.5,0,2.53,0.58,3.09,1.73
			c0.82-1.15,1.97-1.73,3.45-1.73c1.24,0,2.17,0.34,2.77,1.03s0.92,1.7,0.93,3.04v7.4h-2.53v-7.32c0-0.71-0.16-1.24-0.47-1.57
			s-0.83-0.5-1.55-0.5c-0.58,0-1.05,0.15-1.41,0.46c-0.36,0.31-0.62,0.71-0.76,1.21l0.01,7.72h-2.53v-7.41
			c-0.03-1.32-0.71-1.99-2.03-1.99c-1.01,0-1.73,0.41-2.15,1.24v8.16h-2.53v-11.26H247.85z"/>
		<path class="st1" d="M273.87,137.71c0,1.74-0.4,3.13-1.19,4.17c-0.79,1.04-1.85,1.56-3.18,1.56c-1.23,0-2.22-0.41-2.96-1.22v5.34
			h-2.53v-15.58h2.33l0.1,1.14c0.74-0.9,1.75-1.35,3.03-1.35c1.37,0,2.45,0.51,3.23,1.53c0.78,1.02,1.17,2.44,1.17,4.26V137.71z
			 M271.35,137.49c0-1.12-0.22-2.01-0.67-2.67c-0.45-0.66-1.09-0.99-1.92-0.99c-1.03,0-1.78,0.43-2.23,1.28v4.99
			c0.46,0.87,1.21,1.31,2.25,1.31c0.8,0,1.43-0.32,1.89-0.97S271.35,138.81,271.35,137.49z"/>
		<path class="st1" d="M275.54,137.49c0-1.1,0.22-2.1,0.66-2.98c0.44-0.88,1.05-1.56,1.84-2.04c0.79-0.48,1.7-0.71,2.73-0.71
			c1.52,0,2.75,0.49,3.7,1.47c0.95,0.98,1.46,2.27,1.53,3.89l0.01,0.59c0,1.11-0.21,2.1-0.64,2.98c-0.43,0.87-1.04,1.55-1.83,2.03
			c-0.79,0.48-1.71,0.72-2.75,0.72c-1.59,0-2.86-0.53-3.81-1.59c-0.95-1.06-1.43-2.47-1.43-4.23V137.49z M278.06,137.71
			c0,1.16,0.24,2.06,0.72,2.72c0.48,0.66,1.14,0.98,2,0.98s1.52-0.33,1.99-1c0.48-0.67,0.71-1.64,0.71-2.92
			c0-1.14-0.24-2.04-0.73-2.71c-0.49-0.67-1.15-1-1.99-1c-0.83,0-1.48,0.33-1.97,0.98C278.31,135.43,278.06,136.41,278.06,137.71z"
			/>
		<path class="st1" d="M294.03,134.28c-0.33-0.06-0.68-0.08-1.03-0.08c-1.16,0-1.94,0.44-2.34,1.33v7.7h-2.53v-11.26h2.41l0.06,1.26
			c0.61-0.98,1.46-1.47,2.54-1.47c0.36,0,0.66,0.05,0.89,0.15L294.03,134.28z"/>
		<path class="st1" d="M299.32,129.23v2.74h1.99v1.87h-1.99v6.28c0,0.43,0.08,0.74,0.25,0.93s0.47,0.29,0.91,0.29
			c0.29,0,0.59-0.03,0.88-0.1v1.96c-0.58,0.16-1.13,0.24-1.66,0.24c-1.94,0-2.91-1.07-2.91-3.21v-6.38h-1.85v-1.87h1.85v-2.74
			H299.32z"/>
	</g>
	<polygon class="st0" points="201.1,127.46 209.42,135.78 201.1,144.1 	"/>
	<polygon class="st0" points="84.59,127.46 92.91,135.78 84.59,144.1 	"/>
</g>
<g>
</g>
<g>
</g>
<g>
</g>
<g>
</g>
<g>
</g>
<g>
</g>
<g>
</g>
<g>
</g>
<g>
</g>
<g>
</g>
<g>
</g>
<g>
</g>
<g>
</g>
<g>
</g>
<g>
</g>
</svg>
