<svg id="Ebene_1" xmlns="http://www.w3.org/2000/svg" viewBox="0 0 564.67 190.58"><style>.st0{fill:#f08102}.st1{fill:#333}.st2{fill:#f08102;stroke:#fff;stroke-width:7;stroke-miterlimit:10}</style><path class="st0" d="M61.9 93.98c-.72 7.64-3.54 13.6-8.46 17.87s-11.46 6.42-19.62 6.42c-5.7 0-10.73-1.35-15.07-4.06-4.34-2.7-7.69-6.55-10.06-11.53-2.35-4.98-3.58-10.76-3.67-17.35v-6.69c0-6.75 1.2-12.7 3.59-17.85 2.39-5.15 5.83-9.11 10.3-11.9 4.47-2.79 9.65-4.18 15.51-4.18 7.9 0 14.26 2.14 19.08 6.42 4.82 4.28 7.62 10.33 8.41 18.17h-12.4c-.59-5.15-2.09-8.86-4.5-11.14-2.41-2.28-5.94-3.42-10.6-3.42-5.41 0-9.56 1.98-12.46 5.93-2.9 3.95-4.38 9.75-4.45 17.4v6.35c0 7.74 1.38 13.65 4.15 17.72s6.83 6.1 12.17 6.1c4.88 0 8.56-1.1 11.01-3.29 2.46-2.2 4.02-5.85 4.67-10.96h12.4zM69.62 90.2c0-5.21 1.03-9.91 3.1-14.09 2.07-4.18 4.97-7.39 8.7-9.64 3.74-2.25 8.03-3.37 12.88-3.37 7.18 0 13.01 2.31 17.48 6.93 4.47 4.62 6.89 10.75 7.25 18.39l.05 2.8c0 5.25-1.01 9.93-3.02 14.06-2.02 4.13-4.9 7.33-8.65 9.59s-8.09 3.39-13.01 3.39c-7.51 0-13.51-2.5-18.02-7.5s-6.76-11.66-6.76-19.99v-.57zm11.95 1.03c0 5.47 1.13 9.76 3.39 12.86s5.41 4.65 9.44 4.65c4.03 0 7.17-1.57 9.42-4.72 2.25-3.15 3.37-7.75 3.37-13.82 0-5.38-1.16-9.64-3.47-12.78s-5.45-4.72-9.42-4.72c-3.9 0-7 1.55-9.29 4.65s-3.44 7.72-3.44 13.88zM140.28 64.09l.34 6.15c3.93-4.75 9.1-7.13 15.49-7.13 11.08 0 16.72 6.34 16.91 19.03v35.16h-11.95V82.82c0-3.38-.73-5.88-2.19-7.5s-3.84-2.43-7.15-2.43c-4.82 0-8.41 2.18-10.77 6.54v37.86h-11.95v-53.2h11.27zM200.17 51.16v12.93h9.39v8.85h-9.39v29.7c0 2.03.4 3.5 1.2 4.4.8.9 2.24 1.35 4.3 1.35 1.38 0 2.77-.16 4.18-.49v9.24c-2.72.75-5.34 1.13-7.87 1.13-9.18 0-13.77-5.06-13.77-15.19V72.94h-8.75v-8.85h8.75V51.16h11.96zM250.47 117.29c-.52-1.02-.98-2.67-1.38-4.97-3.8 3.97-8.46 5.95-13.96 5.95-5.34 0-9.7-1.52-13.08-4.57-3.38-3.05-5.06-6.82-5.06-11.31 0-5.67 2.11-10.02 6.32-13.05 4.21-3.03 10.23-4.55 18.07-4.55h7.33V81.3c0-2.75-.77-4.96-2.31-6.61-1.54-1.65-3.88-2.48-7.03-2.48-2.72 0-4.95.68-6.69 2.04-1.74 1.36-2.61 3.09-2.61 5.19h-11.95c0-2.92.97-5.65 2.9-8.19 1.93-2.54 4.56-4.53 7.89-5.97 3.33-1.44 7.04-2.16 11.14-2.16 6.23 0 11.19 1.57 14.9 4.7 3.7 3.13 5.61 7.53 5.7 13.2v24c0 4.79.67 8.6 2.02 11.46v.84h-12.2zm-13.13-8.61c2.36 0 4.58-.57 6.66-1.72s3.65-2.69 4.7-4.62V92.31h-6.44c-4.43 0-7.75.77-9.98 2.31-2.23 1.54-3.34 3.72-3.34 6.54 0 2.29.76 4.12 2.29 5.48 1.52 1.36 3.56 2.04 6.11 2.04zM270.93 90.2c0-5.21 1.03-9.91 3.1-14.09 2.06-4.18 4.97-7.39 8.7-9.64 3.74-2.25 8.03-3.37 12.88-3.37 7.18 0 13.01 2.31 17.48 6.93s6.89 10.75 7.25 18.39l.05 2.8c0 5.25-1.01 9.93-3.02 14.06-2.02 4.13-4.9 7.33-8.65 9.59s-8.09 3.39-13.01 3.39c-7.51 0-13.51-2.5-18.02-7.5s-6.76-11.66-6.76-19.99v-.57zm11.95 1.03c0 5.47 1.13 9.76 3.39 12.86s5.41 4.65 9.44 4.65 7.17-1.57 9.42-4.72c2.25-3.15 3.37-7.75 3.37-13.82 0-5.38-1.16-9.64-3.47-12.78-2.31-3.15-5.45-4.72-9.42-4.72-3.9 0-7 1.55-9.29 4.65-2.3 3.09-3.44 7.72-3.44 13.88z"/><path class="st1" d="M394.88 144.73H314v-13.8l40.07-43.7c5.78-6.44 9.9-11.83 12.35-16.15 2.45-4.32 3.68-8.66 3.68-13.01 0-5.73-1.61-10.35-4.83-13.88-3.22-3.52-7.56-5.29-13.01-5.29-6.5 0-11.54 1.98-15.12 5.95s-5.37 9.39-5.37 16.27H311.7c0-7.32 1.67-13.92 5-19.78 3.33-5.87 8.1-10.42 14.29-13.67 6.2-3.25 13.34-4.87 21.44-4.87 11.67 0 20.89 2.93 27.63 8.8 6.75 5.87 10.12 13.98 10.12 24.33 0 6-1.69 12.3-5.08 18.88-3.39 6.58-8.94 14.06-16.65 22.43l-29.41 31.47h55.84v16.02z"/><path class="st2" d="M406.22 82.59l10.13-17.5h13.28L413.36 91.3l16.82 26.99H417l-10.62-18.19-10.57 18.19h-13.28l16.82-26.99-16.23-26.21h13.18l9.92 17.5zM450.48 118.29h-11.95V42.76h11.95v75.53zM463.51 51.27c0-1.84.58-3.36 1.75-4.57 1.16-1.21 2.83-1.82 4.99-1.82s3.84.61 5.02 1.82c1.18 1.21 1.77 2.74 1.77 4.57 0 1.8-.59 3.3-1.77 4.5-1.18 1.2-2.85 1.79-5.02 1.79-2.16 0-3.83-.6-4.99-1.79-1.17-1.2-1.75-2.7-1.75-4.5zm12.68 67.02h-11.95v-53.2h11.95v53.2zM493.4 118.29V73.94h-8.11v-8.85h8.11v-4.87c0-5.9 1.64-10.46 4.92-13.67 3.28-3.21 7.87-4.82 13.77-4.82 2.1 0 4.33.29 6.69.89l-.29 9.34c-1.31-.26-2.84-.39-4.57-.39-5.7 0-8.56 2.93-8.56 8.8v4.72h10.82v8.85h-10.82v44.35H493.4zM529.1 118.29V73.94h-8.11v-8.85h8.11v-4.87c0-5.9 1.64-10.46 4.92-13.67 3.28-3.21 7.87-4.82 13.77-4.82 2.1 0 4.33.29 6.69.89l-.29 9.34c-1.31-.26-2.84-.39-4.57-.39-5.7 0-8.56 2.93-8.56 8.8v4.72h10.82v8.85h-10.82v44.35H529.1z"/><path class="st0" d="M406.22 82.59l10.13-17.5h13.28L413.36 91.3l16.82 26.99H417l-10.62-18.19-10.57 18.19h-13.28l16.82-26.99-16.23-26.21h13.18l9.92 17.5zM450.48 118.29h-11.95V42.76h11.95v75.53zM463.51 51.27c0-1.84.58-3.36 1.75-4.57 1.16-1.21 2.83-1.82 4.99-1.82s3.84.61 5.02 1.82c1.18 1.21 1.77 2.74 1.77 4.57 0 1.8-.59 3.3-1.77 4.5-1.18 1.2-2.85 1.79-5.02 1.79-2.16 0-3.83-.6-4.99-1.79-1.17-1.2-1.75-2.7-1.75-4.5zm12.68 67.02h-11.95v-53.2h11.95v53.2zM493.4 118.29V73.94h-8.11v-8.85h8.11v-4.87c0-5.9 1.64-10.46 4.92-13.67 3.28-3.21 7.87-4.82 13.77-4.82 2.1 0 4.33.29 6.69.89l-.29 9.34c-1.31-.26-2.84-.39-4.57-.39-5.7 0-8.56 2.93-8.56 8.8v4.72h10.82v8.85h-10.82v44.35H493.4zM529.1 118.29V73.94h-8.11v-8.85h8.11v-4.87c0-5.9 1.64-10.46 4.92-13.67 3.28-3.21 7.87-4.82 13.77-4.82 2.1 0 4.33.29 6.69.89l-.29 9.34c-1.31-.26-2.84-.39-4.57-.39-5.7 0-8.56 2.93-8.56 8.8v4.72h10.82v8.85h-10.82v44.35H529.1zM401.17 129h150v15h-150z"/><path class="st0" d="M551.17 123l13.5 13.5-13.5 13.5z"/><path class="st1" d="M16.95 143.43c-1.6 0-2.9-.5-3.9-1.51s-1.49-2.35-1.49-4.03v-.31c0-1.12.22-2.13.65-3.01.43-.88 1.04-1.57 1.83-2.06.78-.49 1.66-.74 2.62-.74 1.53 0 2.72.49 3.55 1.47.84.98 1.25 2.36 1.25 4.15v1.02h-7.35c.08.93.39 1.66.93 2.21s1.23.81 2.05.81c1.16 0 2.1-.47 2.83-1.4l1.36 1.3c-.45.67-1.05 1.19-1.81 1.57-.74.35-1.59.53-2.52.53zm-.3-9.64c-.69 0-1.25.24-1.68.73-.43.49-.7 1.16-.82 2.03h4.82v-.19c-.06-.85-.28-1.49-.68-1.92-.4-.43-.94-.65-1.64-.65zM27.47 135.67l2.14-3.7h2.81l-3.44 5.54 3.56 5.71h-2.79l-2.25-3.85-2.24 3.85h-2.81l3.56-5.71-3.43-5.54h2.79l2.1 3.7zM44 137.71c0 1.74-.4 3.13-1.19 4.17-.79 1.04-1.85 1.56-3.18 1.56-1.23 0-2.22-.41-2.96-1.22v5.34h-2.53v-15.58h2.33l.1 1.14c.74-.9 1.75-1.35 3.03-1.35 1.37 0 2.45.51 3.23 1.53.78 1.02 1.17 2.44 1.17 4.26v.15zm-2.52-.22c0-1.12-.22-2.01-.67-2.67-.45-.66-1.09-.99-1.92-.99-1.03 0-1.78.43-2.23 1.28v4.99c.46.87 1.21 1.31 2.25 1.31.8 0 1.43-.32 1.89-.97s.68-1.63.68-2.95zM45.66 137.49c0-1.1.22-2.1.66-2.98.44-.88 1.05-1.56 1.84-2.04s1.7-.71 2.73-.71c1.52 0 2.75.49 3.7 1.47.95.98 1.46 2.27 1.53 3.89l.01.59c0 1.11-.21 2.1-.64 2.98-.43.87-1.04 1.55-1.83 2.03-.79.48-1.71.72-2.75.72-1.59 0-2.86-.53-3.81-1.59-.95-1.06-1.43-2.47-1.43-4.23v-.13zm2.53.22c0 1.16.24 2.06.72 2.72.48.66 1.14.98 2 .98s1.52-.33 1.99-1c.48-.67.71-1.64.71-2.92 0-1.14-.24-2.04-.73-2.71-.49-.67-1.15-1-1.99-1-.83 0-1.48.33-1.97.98-.49.67-.73 1.65-.73 2.95zM64.16 134.28c-.33-.06-.68-.08-1.03-.08-1.16 0-1.94.44-2.34 1.33v7.7h-2.53v-11.26h2.41l.06 1.26c.61-.98 1.46-1.47 2.54-1.47.36 0 .66.05.89.15v2.37zM69.44 129.23v2.74h1.99v1.87h-1.99v6.28c0 .43.08.74.25.93s.47.29.91.29c.29 0 .59-.03.88-.1v1.96c-.58.16-1.13.24-1.66.24-1.94 0-2.91-1.07-2.91-3.21v-6.38h-1.85v-1.87h1.85v-2.74h2.53zM92.02 136.57l-6.66 6.66v-13.32l6.66 6.66zM108.44 129.23v2.74h1.99v1.87h-1.99v6.28c0 .43.08.74.25.93s.47.29.91.29c.29 0 .59-.03.88-.1v1.96c-.58.16-1.13.24-1.66.24-1.94 0-2.91-1.07-2.91-3.21v-6.38h-1.85v-1.87h1.85v-2.74h2.53zM118.25 134.28c-.33-.06-.68-.08-1.03-.08-1.16 0-1.94.44-2.34 1.33v7.7h-2.53v-11.26h2.41l.06 1.26c.61-.98 1.46-1.47 2.54-1.47.36 0 .66.05.89.15v2.37zM126.26 143.23c-.11-.21-.21-.56-.29-1.05-.8.84-1.79 1.26-2.95 1.26-1.13 0-2.05-.32-2.77-.97s-1.07-1.44-1.07-2.39c0-1.2.45-2.12 1.34-2.76s2.17-.96 3.82-.96h1.55v-.74c0-.58-.16-1.05-.49-1.4s-.82-.53-1.49-.53c-.58 0-1.05.14-1.41.43-.37.29-.55.65-.55 1.1h-2.53c0-.62.2-1.19.61-1.73s.97-.96 1.67-1.26c.7-.31 1.49-.46 2.36-.46 1.32 0 2.37.33 3.15.99.78.66 1.19 1.59 1.21 2.79v5.08c0 1.01.14 1.82.43 2.42v.18h-2.59zm-2.77-1.82c.5 0 .97-.12 1.41-.36s.77-.57.99-.98v-2.12h-1.36c-.94 0-1.64.16-2.11.49-.47.33-.71.79-.71 1.38 0 .49.16.87.48 1.16.32.28.75.43 1.3.43zM133.41 131.97l.07 1.3c.83-1.01 1.92-1.51 3.28-1.51 2.34 0 3.54 1.34 3.58 4.03v7.44h-2.53v-7.29c0-.71-.15-1.24-.46-1.59s-.81-.52-1.51-.52c-1.02 0-1.78.46-2.28 1.38v8.01h-2.53v-11.26h2.38zM149.22 140.17c0-.45-.19-.79-.56-1.03s-.99-.44-1.85-.62c-.86-.18-1.58-.41-2.15-.69-1.26-.61-1.89-1.49-1.89-2.65 0-.97.41-1.78 1.23-2.43s1.86-.98 3.12-.98c1.35 0 2.43.33 3.26 1 .83.67 1.24 1.53 1.24 2.59h-2.53c0-.49-.18-.89-.54-1.21-.36-.32-.84-.48-1.44-.48-.56 0-1.01.13-1.36.38-.35.26-.53.6-.53 1.03 0 .39.16.69.49.9.33.22.98.43 1.98.65.99.22 1.77.48 2.34.78.56.3.98.66 1.26 1.09.27.42.41.94.41 1.54 0 1.01-.42 1.83-1.26 2.46-.84.63-1.94.94-3.3.94-.92 0-1.74-.17-2.47-.5-.72-.33-1.28-.79-1.69-1.37-.4-.58-.6-1.21-.6-1.88h2.46c.03.6.26 1.06.68 1.38.42.32.97.48 1.65.48.67 0 1.17-.13 1.52-.38.36-.26.53-.59.53-1zM156.6 143.23h-2.53v-15.98h2.53v15.98zM166.08 143.23c-.11-.21-.21-.56-.29-1.05-.8.84-1.79 1.26-2.95 1.26-1.13 0-2.05-.32-2.77-.97s-1.07-1.44-1.07-2.39c0-1.2.45-2.12 1.34-2.76s2.17-.96 3.82-.96h1.55v-.74c0-.58-.16-1.05-.49-1.4s-.82-.53-1.49-.53c-.58 0-1.05.14-1.41.43-.37.29-.55.65-.55 1.1h-2.53c0-.62.2-1.19.61-1.73s.97-.96 1.67-1.26c.7-.31 1.49-.46 2.36-.46 1.32 0 2.37.33 3.15.99.78.66 1.19 1.59 1.21 2.79v5.08c0 1.01.14 1.82.43 2.42v.18h-2.59zm-2.78-1.82c.5 0 .97-.12 1.41-.36s.77-.57.99-.98v-2.12h-1.36c-.94 0-1.64.16-2.11.49-.47.33-.71.79-.71 1.38 0 .49.16.87.48 1.16.33.28.76.43 1.3.43zM174.04 129.23v2.74h1.99v1.87h-1.99v6.28c0 .43.08.74.25.93s.47.29.91.29c.29 0 .59-.03.88-.1v1.96c-.58.16-1.13.24-1.66.24-1.94 0-2.91-1.07-2.91-3.21v-6.38h-1.85v-1.87h1.85v-2.74h2.53zM182.92 143.43c-1.6 0-2.9-.5-3.9-1.51s-1.49-2.35-1.49-4.03v-.31c0-1.12.22-2.13.65-3.01.43-.88 1.04-1.57 1.83-2.06.78-.49 1.66-.74 2.62-.74 1.53 0 2.72.49 3.55 1.47.84.98 1.25 2.36 1.25 4.15v1.02h-7.35c.08.93.39 1.66.93 2.21s1.23.81 2.05.81c1.16 0 2.1-.47 2.83-1.4l1.36 1.3c-.45.67-1.05 1.19-1.81 1.57-.74.35-1.59.53-2.52.53zm-.3-9.64c-.69 0-1.25.24-1.68.73-.43.49-.7 1.16-.82 2.03h4.82v-.19c-.06-.85-.28-1.49-.68-1.92-.4-.43-.94-.65-1.64-.65zM208.05 136.57l-6.66 6.66v-13.32l6.66 6.66zM227.2 134.28c-.33-.06-.68-.08-1.03-.08-1.16 0-1.94.44-2.34 1.33v7.7h-2.53v-11.26h2.41l.06 1.26c.61-.98 1.46-1.47 2.54-1.47.36 0 .66.05.89.15v2.37zM233.56 143.43c-1.6 0-2.9-.5-3.9-1.51s-1.49-2.35-1.49-4.03v-.31c0-1.12.22-2.13.65-3.01.43-.88 1.04-1.57 1.83-2.06.78-.49 1.66-.74 2.62-.74 1.53 0 2.72.49 3.55 1.47.84.98 1.25 2.36 1.25 4.15v1.02h-7.35c.08.93.39 1.66.93 2.21s1.23.81 2.05.81c1.16 0 2.1-.47 2.83-1.4l1.36 1.3c-.45.67-1.05 1.19-1.81 1.57-.74.35-1.58.53-2.52.53zm-.3-9.64c-.69 0-1.25.24-1.68.73-.43.49-.7 1.16-.82 2.03h4.82v-.19c-.06-.85-.28-1.49-.68-1.92-.39-.43-.94-.65-1.64-.65zM240.04 129.05c0-.39.12-.71.37-.97s.6-.38 1.06-.38.81.13 1.06.38c.25.26.37.58.37.97 0 .38-.12.7-.37.95s-.6.38-1.06.38-.81-.13-1.06-.38-.37-.57-.37-.95zm2.68 14.18h-2.53v-11.26h2.53v11.26zM247.85 131.97l.07 1.18c.79-.92 1.87-1.38 3.25-1.38 1.5 0 2.53.58 3.09 1.73.82-1.15 1.97-1.73 3.45-1.73 1.24 0 2.17.34 2.77 1.03s.92 1.7.93 3.04v7.4h-2.53v-7.32c0-.71-.16-1.24-.47-1.57s-.83-.5-1.55-.5c-.58 0-1.05.15-1.41.46-.36.31-.62.71-.76 1.21l.01 7.72h-2.53v-7.41c-.03-1.32-.71-1.99-2.03-1.99-1.01 0-1.73.41-2.15 1.24v8.16h-2.53v-11.26h2.39zM273.87 137.71c0 1.74-.4 3.13-1.19 4.17-.79 1.04-1.85 1.56-3.18 1.56-1.23 0-2.22-.41-2.96-1.22v5.34h-2.53v-15.58h2.33l.1 1.14c.74-.9 1.75-1.35 3.03-1.35 1.37 0 2.45.51 3.23 1.53.78 1.02 1.17 2.44 1.17 4.26v.15zm-2.52-.22c0-1.12-.22-2.01-.67-2.67-.45-.66-1.09-.99-1.92-.99-1.03 0-1.78.43-2.23 1.28v4.99c.46.87 1.21 1.31 2.25 1.31.8 0 1.43-.32 1.89-.97s.68-1.63.68-2.95zM275.54 137.49c0-1.1.22-2.1.66-2.98.44-.88 1.05-1.56 1.84-2.04s1.7-.71 2.73-.71c1.52 0 2.75.49 3.7 1.47.95.98 1.46 2.27 1.53 3.89l.01.59c0 1.11-.21 2.1-.64 2.98-.43.87-1.04 1.55-1.83 2.03-.79.48-1.71.72-2.75.72-1.59 0-2.86-.53-3.81-1.59-.95-1.06-1.43-2.47-1.43-4.23v-.13zm2.52.22c0 1.16.24 2.06.72 2.72.48.66 1.14.98 2 .98s1.52-.33 1.99-1c.48-.67.71-1.64.71-2.92 0-1.14-.24-2.04-.73-2.71-.49-.67-1.15-1-1.99-1-.83 0-1.48.33-1.97.98-.48.67-.73 1.65-.73 2.95zM294.03 134.28c-.33-.06-.68-.08-1.03-.08-1.16 0-1.94.44-2.34 1.33v7.7h-2.53v-11.26h2.41l.06 1.26c.61-.98 1.46-1.47 2.54-1.47.36 0 .66.05.89.15v2.37zM299.32 129.23v2.74h1.99v1.87h-1.99v6.28c0 .43.08.74.25.93s.47.29.91.29c.29 0 .59-.03.88-.1v1.96c-.58.16-1.13.24-1.66.24-1.94 0-2.91-1.07-2.91-3.21v-6.38h-1.85v-1.87h1.85v-2.74h2.53z"/><path class="st0" d="M201.1 127.46l8.32 8.32-8.32 8.32zM84.59 127.46l8.32 8.32-8.32 8.32z"/></svg>