<svg clip-rule="evenodd" fill-rule="evenodd" height="517" stroke-linejoin="round" stroke-miterlimit="2" width="924" xmlns="http://www.w3.org/2000/svg"><g fill-rule="nonzero"><path d="m188.771 178.759c6.839-11.43 2.953-16.494 2.953-16.494-2.229-3.221-4.783-6.346-4.783-6.346-15.736-18.104-27.415-39.666-35.926-59.772-12.306 29.624-34.249 82.771-35.687 88.862-2.002 8.532 5.589 49.85 7.085 51.565 1.515 1.696 29.821-4.094 31.688-4.318 1.123-.194 19.77-14.555 34.59-26.061-8.512-14.059.08-27.436.08-27.436z" fill="#f5c115"/><path d="m150.405 94.696c-14.261-34.181-19.298-63.679-19.298-63.679-1.704-8.781-5.607-1.265-5.607-1.265-5.534 11.552-.866 25.619-.866 25.619 2.094 6.586-.505 6.211-.505 6.211-1.925.628-2.981-4.28-2.981-4.28-3.276-14.632-6.229-14.034-6.229-14.034-6.286-1.249-1.712 28.778-1.712 28.778 2.297 14.584-2.829 3.84-2.829 3.84-4.677-9.391-4.934-11.325-7.937-14.37-6.627-6.696-1.429 16.132-1.429 16.132 5.66 21.249-.875 10.164-2.208 8.427-7.722-9.925-1.333 12.427-1.333 12.427 5 14.42-1.599 8.277-1.599 8.277-6.79-6.847-1.807 7.573-1.807 7.573 2.561 8.21-1.477 5.182-3.049 3.772l16.477 106.554 13.609 64.502z" fill="#14bdef"/><path d="m102.097 61.23c-6.038-5.45-1.085 16.418-1.085 16.418 5.661 21.25-.874 10.164-2.207 8.427-7.722-9.925-1.334 12.427-1.334 12.427 5.001 14.42-1.598 8.277-1.598 8.277-6.792-6.847-1.809 7.574-1.809 7.574 3.138 10.067-3.637 3.23-3.637 3.23-3.251-2.192-12.347-12.356-12.347-12.356-12.688-12.373-27.201-43.433-27.201-43.433-13.65-25.683-34.165-58.494-34.165-58.494-3.524-7.023-5.286-.652-5.286-.652-8.504 25.943-2.848 34.749-2.848 34.749 3.916 8.882-4.364.228-4.364.228-12.924-8.411 7.99 29.176 7.99 29.176 4.437 7.617-2.145 3.121-2.145 3.121-12.864-7.14 4.059 14.887 7.385 18.668 8.562 9.676 1.245 5.749.004 5.282-10.484-3.752-2.923 5.858-1.656 7.183 9.63 10.152 3.38 7.704 1.551 7.293-8.827-1.961-2.62 4.966-1.429 5.916 11.476 9.211 7.964 7.78 5.584 7.78-9.916.038 5.627 12.154 5.627 12.154 7.212 5.875-.694 5.626-2.192 5.677-7.351.08 7.819 8.247 11.213 9.774 3.524 1.577 1.409 3.142.618 3.616-5.858 3.849-3.067 6.434-1.46 7.465 2.347 1.526.934 3.281.934 3.281-1.127.836-1.03 1.446-1.135 1.98-1.4 6.481 10.572 15.278 10.572 15.278 5.601 2.284 4.058 3.995 2.999 5.043-4.113 4.096-.686 6.174.857 7.01 3.399 1.922 1.544 3.987.648 4.782-3.179 2.822.152 6.097 1.716 7.053 3.916 2.476 1.19 6.719.349 8.726-5.038 12.494 13.058 25.901 19.622 30.241l54.356-7.427-24.127-175.467z" fill="#bbbdbf"/><path d="m95.793 312.462s26.276-11.048 37.391-15.661c11.115-4.63 40.902-26.002 40.902-26.002l7.026-16.456-21.825-14.917s-43.632 5.543-79.041 10.191c8.234 4.267 14.033 2.396 14.033 2.396 7.385-.109 2.393 2.86 2.393 2.86-11.145 6.59-19.798 21.372-19.798 21.372-30.432 2.174-34.974 37.411-34.974 37.411-1.551 10.497 2.268 8.403 4.345 7.654 7.208-2.544 5.647 3.47 5.433 5.341-.917 8.071 4.61 5.025 6.304 4.209 5.887-2.88 6.258-.234 6.489 1.427.324 2.712 1.177 4.079 2.208 4.726 3.268-.799 5.737-1.543 6.837-2.158 1.355-1.505 2.373-2.114 3.185-2.3 7.081-6.055 19.092-20.093 19.092-20.093z" fill="#f5c115"/><path d="m187.055 252.8-124.931 76.824c1.918 0 2.175 1.543 2.338 2.666 1.22 9.833 9.047 2.57 9.047 2.57 4.621-5.122 5.723-.588 5.723-.588 3.352 11.178 9.029 3.616 9.029 3.616 2.893-3.734 4.466 0 4.466 0 3.499 7.351 8.306.135 8.306.135 2.057-2.212 3.886-.135 3.886-.135 12.381 15.539 11.733-16.914 11.733-16.914 5.601.82 10.362-1.145 10.362-1.145l1.695 12.294c.437 4.533-3.768 8.549-3.768 8.549-4.668 5.144.61 5.601.61 5.601 4.693-.189-3.714 10.208-3.714 10.208-3.607 4.424-.218 9.259-.218 9.259 3.667 6.557 6.779-.193 6.779-.193 10.984-19.315 9.1-33.064 9.1-33.064l-1.918-13.906c22.525-3.832 61.501-32.479 61.501-32.479 1.485-.971 2.72-1.963 4.079-2.936z" fill="#d82727"/><path d="m307.516 218.492-33.509-14.702-35.961 9.445-58.531 36.995-2.309 49.162c11.334-7.023 19.87-13.29 19.87-13.29 22.63-15.299 32.307-30.156 32.307-30.156 10.438-17.159 20.194-22.534 20.194-22.534 7.431-4.319 12.877-7.367 12.877-7.367 5.871-4.211 11.166-2.137 11.166-2.137 8.096 2.099 23.272.382 35.793-1.712z" fill="#1b75bb"/><path d="m226.426 222.495 19.644-19.315s-.173-2.553-.576-5.581c-9.525 4.858-19.013 9.012-19.013 9.012-28.286 11.469-37.067.833-37.067.833-1.37-2.014-2.343-4.058-3.048-6.018l-54.746 16.536-4.467 26.835-3.39-24.472-59.621 18c5.191 4.436 10.048 7.313 10.048 7.313 11.354 9.39 20.084 6.38 20.084 6.38 7.386-.111 2.394 2.859 2.394 2.859-.593.345-1.166.804-1.732 1.186l105.568 7.801z" fill="#83c241"/><path d="m296.888 192.283c-.459-.324-.765-.496-.765-.496-19.084-12.99-41.218.673-41.218.673-4.726 2.793-10.48 5.728-15.581 8.205l-45.759 40.195 72.519-31.465 32.634-.361z" fill="#2490cf"/><path d="m305.421 222.802c12.915-1.981 24.19-4.668 24.19-4.668 15.926-2.304 3.222-5.046 3.222-5.046-24.742-5.257-27.374-11.128-27.374-11.128-4.151-7.098-9.336-10.173-9.336-10.173-.42-.264-.833-.493-1.275-.74l-28.975 17.848c.005 0 18.404 6.472 39.548 13.907z" fill="#f5c115"/><path d="m240.071 414.634v-59.315l-26.351 45.885h-4.171l-26.35-45.885v59.315h-7.122v-72.236h7.325l28.182 49.446 28.385-49.446h7.224v72.236z" fill="#f5c115"/><path d="m263.878 414.634v-53.007h6.919v53.007zm0-64.096v-10.174h6.919v10.174z" fill="#f5c115"/><path d="m282.395 387.978c0-3.731.644-7.258 1.933-10.581 1.289-3.324 3.103-6.223 5.443-8.699 2.34-2.475 5.138-4.425 8.394-5.85 3.255-1.424 6.85-2.136 10.784-2.136 5.019 0 9.394 1.136 13.124 3.408 3.731 2.272 6.546 5.341 8.445 9.207l-6.715 2.137c-1.492-2.713-3.578-4.833-6.257-6.359s-5.647-2.289-8.902-2.289c-2.713 0-5.24.543-7.58 1.628s-4.375 2.56-6.104 4.426c-1.73 1.865-3.086 4.086-4.07 6.664-.983 2.577-1.475 5.392-1.475 8.444 0 2.984.509 5.799 1.526 8.444 1.017 2.646 2.408 4.935 4.171 6.868 1.764 1.933 3.816 3.459 6.156 4.578s4.832 1.679 7.478 1.679c1.695 0 3.374-.238 5.036-.712 1.661-.475 3.204-1.136 4.629-1.984 1.424-.848 2.645-1.815 3.662-2.9 1.018-1.085 1.73-2.238 2.137-3.459l6.817 2.035c-.747 1.899-1.832 3.645-3.256 5.239s-3.103 2.985-5.036 4.172-4.07 2.102-6.41 2.747c-2.34.644-4.765.966-7.274.966-3.866 0-7.427-.729-10.683-2.187s-6.07-3.459-8.444-6.003c-2.374-2.543-4.223-5.477-5.545-8.8-1.323-3.324-1.984-6.885-1.984-10.683z" fill="#f5c115"/><path d="m386.475 414.634h-6.919v-29.607c0-6.036-1.034-10.547-3.103-13.531-2.068-2.984-5.104-4.476-9.105-4.476-1.967 0-3.917.39-5.85 1.17s-3.748 1.848-5.443 3.204c-1.696 1.357-3.171 2.951-4.426 4.782s-2.188 3.832-2.798 6.003v32.455h-6.918v-74.27h6.918v33.269c2.103-4.002 5.019-7.156 8.75-9.462 3.73-2.306 7.766-3.459 12.107-3.459 3.052 0 5.629.559 7.732 1.678s3.832 2.68 5.189 4.68c1.356 2.001 2.34 4.409 2.95 7.224.611 2.815.916 5.918.916 9.309z" fill="#f5c115"/><path d="m414.555 415.651c-2.51 0-4.833-.424-6.969-1.272-2.137-.847-4.002-2.017-5.596-3.51-1.594-1.492-2.832-3.238-3.713-5.239-.882-2.001-1.323-4.155-1.323-6.461s.543-4.442 1.628-6.409 2.611-3.663 4.578-5.087c1.967-1.425 4.307-2.527 7.02-3.307s5.698-1.17 8.953-1.17c2.713 0 5.46.238 8.241.712 2.781.475 5.257 1.153 7.427 2.035v-4.782c0-4.68-1.322-8.393-3.968-11.14-2.645-2.747-6.307-4.121-10.988-4.121-2.713 0-5.493.543-8.342 1.628s-5.732 2.645-8.648 4.68l-2.442-4.578c6.851-4.612 13.498-6.918 19.941-6.918 6.647 0 11.87 1.865 15.668 5.595 3.798 3.731 5.698 8.886 5.698 15.465v23.909c0 1.899.847 2.848 2.543 2.848v6.105c-1.153.203-2.035.305-2.645.305-1.764 0-3.137-.441-4.121-1.323-.983-.881-1.509-2.102-1.577-3.662l-.203-4.172c-2.442 3.188-5.511 5.63-9.208 7.326-3.696 1.695-7.681 2.543-11.954 2.543zm1.628-5.29c3.595 0 6.901-.679 9.919-2.035 3.019-1.357 5.308-3.154 6.868-5.392.61-.611 1.068-1.272 1.373-1.984.306-.712.458-1.374.458-1.984v-8.648c-2.306-.882-4.697-1.56-7.172-2.035-2.476-.475-5.003-.712-7.58-.712-4.884 0-8.851 1.017-11.904 3.052-3.052 2.035-4.578 4.714-4.578 8.038 0 1.627.322 3.154.967 4.578.644 1.424 1.526 2.662 2.645 3.713 1.119 1.052 2.459 1.883 4.019 2.493s3.221.916 4.985.916z" fill="#f5c115"/><path d="m479.567 415.651c-3.866 0-7.41-.729-10.632-2.187s-6.02-3.459-8.394-6.003c-2.374-2.543-4.222-5.477-5.544-8.8-1.323-3.324-1.984-6.885-1.984-10.683 0-3.731.661-7.241 1.984-10.53 1.322-3.29 3.154-6.172 5.494-8.648s5.137-4.443 8.393-5.901 6.783-2.187 10.581-2.187c3.866 0 7.41.729 10.632 2.187s5.986 3.442 8.292 5.952c2.306 2.509 4.103 5.392 5.392 8.648 1.289 3.255 1.933 6.715 1.933 10.377v1.628c0 .543-.034.916-.102 1.119h-45.376c.204 2.849.865 5.477 1.984 7.885s2.561 4.494 4.324 6.257c1.764 1.764 3.781 3.137 6.054 4.12 2.272.984 4.697 1.476 7.274 1.476 1.696 0 3.391-.238 5.087-.712 1.696-.475 3.256-1.12 4.68-1.934 1.424-.813 2.713-1.814 3.866-3.001s2.035-2.492 2.645-3.917l6.003 1.628c-.814 1.967-1.967 3.747-3.459 5.341s-3.222 2.985-5.189 4.172-4.137 2.102-6.511 2.747c-2.374.644-4.85.966-7.427.966zm19.534-30.318c-.204-2.849-.865-5.443-1.984-7.783s-2.544-4.358-4.273-6.054c-1.73-1.696-3.731-3.018-6.003-3.968-2.272-.949-4.697-1.424-7.274-1.424-2.578 0-5.019.475-7.325 1.424-2.307.95-4.324 2.272-6.054 3.968s-3.12 3.731-4.171 6.104c-1.052 2.374-1.679 4.952-1.883 7.733z" fill="#f5c115"/><path d="m516.702 340.364h6.918v62.264c0 1.967.543 3.511 1.628 4.63s2.611 1.678 4.578 1.678c.746 0 1.628-.101 2.646-.305 1.017-.203 1.966-.475 2.848-.814l1.221 5.596c-1.289.543-2.866.983-4.731 1.323-1.865.339-3.476.508-4.832.508-3.188 0-5.698-.898-7.529-2.696-1.832-1.797-2.747-4.324-2.747-7.58z" fill="#f5c115"/><path d="m620.477 404.053c-6.715 7.393-14.448 11.089-23.197 11.089-4.884 0-9.377-1.051-13.481-3.153-4.103-2.103-7.664-4.884-10.682-8.343-3.019-3.459-5.376-7.376-7.071-11.751-1.696-4.375-2.544-8.868-2.544-13.481 0-4.815.831-9.428 2.493-13.836 1.662-4.409 3.985-8.292 6.969-11.649 2.984-3.358 6.511-6.037 10.581-8.038s8.512-3.001 13.328-3.001c3.527 0 6.749.39 9.665 1.17 2.917.78 5.511 1.865 7.783 3.255 2.272 1.391 4.239 3.053 5.901 4.986s3.069 4.052 4.222 6.358l-5.494 3.663c-2.374-4.476-5.46-7.766-9.258-9.869-3.798-2.102-8.105-3.154-12.921-3.154-4.002 0-7.613.848-10.835 2.544s-5.969 3.951-8.241 6.766c-2.272 2.814-4.019 6.036-5.24 9.665s-1.831 7.376-1.831 11.242c0 4.07.695 7.936 2.086 11.598 1.39 3.663 3.306 6.868 5.748 9.615s5.307 4.934 8.597 6.562 6.867 2.442 10.734 2.442c4.137 0 8.088-.967 11.852-2.9 3.765-1.933 7.376-5.002 10.836-9.207v-12.005h-16.075v-5.494h22.077v35.507h-6.002z" fill="#f5c115"/><path d="m653.033 415.651c-2.509 0-4.832-.424-6.969-1.272-2.136-.847-4.002-2.017-5.596-3.51-1.594-1.492-2.831-3.238-3.713-5.239s-1.323-4.155-1.323-6.461.543-4.442 1.628-6.409 2.611-3.663 4.578-5.087c1.967-1.425 4.307-2.527 7.02-3.307 2.714-.78 5.698-1.17 8.954-1.17 2.713 0 5.46.238 8.241.712 2.78.475 5.256 1.153 7.427 2.035v-4.782c0-4.68-1.323-8.393-3.968-11.14-2.646-2.747-6.308-4.121-10.988-4.121-2.713 0-5.494.543-8.343 1.628s-5.731 2.645-8.648 4.68l-2.442-4.578c6.851-4.612 13.498-6.918 19.941-6.918 6.647 0 11.87 1.865 15.668 5.595 3.799 3.731 5.698 8.886 5.698 15.465v23.909c0 1.899.848 2.848 2.543 2.848v6.105c-1.153.203-2.034.305-2.645.305-1.763 0-3.137-.441-4.12-1.323-.984-.881-1.51-2.102-1.577-3.662l-.204-4.172c-2.442 3.188-5.511 5.63-9.207 7.326-3.697 1.695-7.682 2.543-11.955 2.543zm1.628-5.29c3.595 0 6.901-.679 9.92-2.035 3.018-1.357 5.307-3.154 6.867-5.392.611-.611 1.068-1.272 1.374-1.984.305-.712.458-1.374.458-1.984v-8.648c-2.307-.882-4.697-1.56-7.173-2.035s-5.002-.712-7.58-.712c-4.883 0-8.851 1.017-11.903 3.052-3.053 2.035-4.579 4.714-4.579 8.038 0 1.627.323 3.154.967 4.578s1.526 2.662 2.645 3.713c1.119 1.052 2.459 1.883 4.019 2.493s3.222.916 4.985.916z" fill="#f5c115"/><path d="m712.755 415.651c-4.138 0-8.174-.678-12.107-2.035-3.934-1.356-7.326-3.323-10.174-5.901l3.153-4.68c2.985 2.442 6.02 4.274 9.106 5.494 3.086 1.221 6.393 1.832 9.92 1.832 4.273 0 7.681-.865 10.225-2.595 2.543-1.729 3.815-4.188 3.815-7.376 0-1.492-.339-2.73-1.017-3.713-.679-.984-1.679-1.849-3.002-2.595-1.322-.746-2.984-1.407-4.985-1.984-2.001-.576-4.324-1.17-6.969-1.78-3.052-.746-5.698-1.492-7.936-2.238s-4.086-1.594-5.545-2.544c-1.458-.949-2.543-2.119-3.255-3.51-.713-1.39-1.069-3.137-1.069-5.239 0-2.646.526-4.986 1.577-7.021 1.052-2.034 2.476-3.713 4.273-5.036 1.798-1.322 3.9-2.323 6.308-3.001s4.969-1.017 7.682-1.017c4.069 0 7.766.661 11.089 1.984 3.324 1.322 6.003 3.069 8.038 5.239l-3.358 4.07c-1.967-2.035-4.358-3.561-7.172-4.579-2.815-1.017-5.749-1.526-8.801-1.526-1.831 0-3.527.187-5.087.56s-2.933.966-4.12 1.78-2.12 1.849-2.798 3.103c-.678 1.255-1.018 2.73-1.018 4.426 0 1.425.238 2.578.713 3.459.474.882 1.254 1.645 2.34 2.289 1.085.645 2.458 1.221 4.12 1.73s3.68 1.034 6.054 1.577c3.391.814 6.375 1.628 8.953 2.442 2.577.814 4.731 1.763 6.46 2.848 1.73 1.086 3.035 2.408 3.917 3.968s1.323 3.459 1.323 5.698c0 4.883-1.865 8.749-5.596 11.598-3.73 2.849-8.75 4.273-15.057 4.273z" fill="#f5c115"/><path d="m771.764 415.651c-4.477 0-8.428-1.136-11.853-3.408s-6.189-5.138-8.292-8.597v32.658h-6.918v-74.677h6.206v10.276c2.17-3.323 4.985-6.02 8.444-8.088 3.46-2.069 7.224-3.103 11.294-3.103 3.662 0 7.02.763 10.072 2.289s5.697 3.561 7.936 6.104c2.238 2.544 3.984 5.477 5.239 8.801 1.255 3.323 1.882 6.748 1.882 10.275 0 3.731-.576 7.258-1.729 10.581-1.153 3.324-2.798 6.24-4.935 8.75-2.136 2.51-4.68 4.494-7.63 5.952-2.951 1.458-6.189 2.187-9.716 2.187zm-1.933-6.104c2.848 0 5.443-.611 7.783-1.832 2.34-1.22 4.341-2.831 6.002-4.832 1.662-2.001 2.934-4.273 3.816-6.817.881-2.543 1.322-5.172 1.322-7.885 0-2.848-.508-5.561-1.526-8.139-1.017-2.577-2.408-4.849-4.171-6.816-1.764-1.967-3.849-3.527-6.257-4.68s-5.002-1.73-7.783-1.73c-1.764 0-3.612.356-5.545 1.068s-3.731 1.662-5.392 2.849c-1.662 1.187-3.086 2.577-4.273 4.171s-1.916 3.273-2.188 5.036v16.279c.814 1.899 1.849 3.663 3.103 5.29 1.255 1.628 2.679 3.036 4.273 4.223s3.307 2.119 5.138 2.797c1.832.679 3.731 1.018 5.698 1.018z" fill="#f5c115"/><path d="m830.366 415.651c-3.866 0-7.41-.729-10.632-2.187s-6.02-3.459-8.393-6.003c-2.374-2.543-4.223-5.477-5.545-8.8-1.323-3.324-1.984-6.885-1.984-10.683 0-3.731.661-7.241 1.984-10.53 1.322-3.29 3.154-6.172 5.494-8.648s5.138-4.443 8.393-5.901c3.256-1.458 6.783-2.187 10.581-2.187 3.866 0 7.41.729 10.632 2.187s5.986 3.442 8.292 5.952c2.306 2.509 4.103 5.392 5.392 8.648 1.289 3.255 1.933 6.715 1.933 10.377v1.628c0 .543-.034.916-.102 1.119h-45.376c.204 2.849.865 5.477 1.984 7.885s2.561 4.494 4.324 6.257c1.764 1.764 3.782 3.137 6.054 4.12 2.272.984 4.697 1.476 7.274 1.476 1.696 0 3.391-.238 5.087-.712 1.696-.475 3.256-1.12 4.68-1.934 1.425-.813 2.713-1.814 3.866-3.001s2.035-2.492 2.645-3.917l6.003 1.628c-.814 1.967-1.967 3.747-3.459 5.341s-3.222 2.985-5.189 4.172-4.137 2.102-6.511 2.747c-2.374.644-4.85.966-7.427.966zm19.534-30.318c-.204-2.849-.865-5.443-1.984-7.783s-2.543-4.358-4.273-6.054-3.731-3.018-6.003-3.968c-2.272-.949-4.697-1.424-7.274-1.424-2.578 0-5.019.475-7.325 1.424-2.306.95-4.324 2.272-6.054 3.968-1.729 1.696-3.12 3.731-4.171 6.104-1.052 2.374-1.679 4.952-1.882 7.733z" fill="#f5c115"/><path d="m893.648 367.732c-4.68.135-8.75 1.424-12.209 3.866s-5.901 5.799-7.325 10.072v32.964h-6.918v-53.007h6.511v12.718c1.967-4.07 4.612-7.258 7.936-9.564 3.323-2.306 6.884-3.459 10.682-3.459.543 0 .984.034 1.323.102z" fill="#f5c115"/><path d="m903.212 340.364h6.918v62.264c0 1.967.543 3.511 1.628 4.63s2.611 1.678 4.578 1.678c.746 0 1.628-.101 2.645-.305 1.018-.203 1.967-.475 2.849-.814l1.221 5.596c-1.289.543-2.866.983-4.731 1.323-1.865.339-3.476.508-4.833.508-3.187 0-5.697-.898-7.528-2.696-1.832-1.797-2.747-4.324-2.747-7.58z" fill="#f5c115"/><g fill="#bbbdbf"><path d="m362.824 456.421h4.48v45.44h-4.48z"/><path d="m410.952 460.389h-16.192v41.472h-4.48v-41.472h-16.192v-3.968h36.864z"/><path d="m432.264 501.861v-45.44h15.424c3.627 0 6.795.597 9.504 1.792 2.71 1.194 4.971 2.816 6.784 4.864 1.814 2.048 3.179 4.448 4.096 7.2.918 2.752 1.376 5.685 1.376 8.8 0 3.456-.512 6.581-1.536 9.376-1.024 2.794-2.485 5.184-4.384 7.168-1.898 1.984-4.181 3.52-6.848 4.608-2.666 1.088-5.664 1.632-8.992 1.632zm32.704-22.784c0-2.731-.384-5.238-1.152-7.52-.768-2.283-1.888-4.256-3.36-5.92s-3.274-2.955-5.408-3.872c-2.133-.918-4.586-1.376-7.36-1.376h-10.944v37.504h10.944c2.816 0 5.302-.48 7.456-1.44 2.155-.96 3.958-2.283 5.408-3.968 1.451-1.686 2.55-3.67 3.296-5.952.747-2.283 1.12-4.768 1.12-7.456z"/><path d="m477.128 501.861v-33.344h4.352v33.344zm0-40.32v-6.4h4.352v6.4z"/><path d="m505.48 502.501c-2.432 0-4.661-.459-6.688-1.376-2.026-.918-3.786-2.176-5.28-3.776-1.493-1.6-2.656-3.446-3.488-5.536-.832-2.091-1.248-4.331-1.248-6.72 0-2.347.416-4.555 1.248-6.624.832-2.07 1.984-3.883 3.456-5.44 1.472-1.558 3.232-2.795 5.28-3.712 2.048-.918 4.267-1.376 6.656-1.376 2.432 0 4.662.458 6.688 1.376 2.027.917 3.766 2.165 5.216 3.744 1.451 1.578 2.582 3.392 3.392 5.44.811 2.048 1.216 4.224 1.216 6.528v1.024c0 .341-.021.576-.064.704h-28.544c.128 1.792.544 3.445 1.248 4.96.704 1.514 1.611 2.826 2.72 3.936 1.11 1.109 2.379 1.973 3.808 2.592 1.43.618 2.955.928 4.576.928 1.067 0 2.134-.15 3.2-.448 1.067-.299 2.048-.704 2.944-1.216s1.707-1.142 2.432-1.888c.726-.747 1.28-1.568 1.664-2.464l3.776 1.024c-.512 1.237-1.237 2.357-2.176 3.36-.938 1.002-2.026 1.877-3.264 2.624-1.237.746-2.602 1.322-4.096 1.728-1.493.405-3.05.608-4.672.608zm12.288-19.072c-.128-1.792-.544-3.424-1.248-4.896s-1.6-2.742-2.688-3.808c-1.088-1.067-2.346-1.899-3.776-2.496-1.429-.598-2.954-.896-4.576-.896-1.621 0-3.157.298-4.608.896-1.45.597-2.72 1.429-3.808 2.496-1.088 1.066-1.962 2.346-2.624 3.84-.661 1.493-1.056 3.114-1.184 4.864z"/><path d="m556.68 501.861h-4.352v-18.624c0-3.968-.586-6.848-1.76-8.64-1.173-1.792-2.976-2.688-5.408-2.688-1.28 0-2.56.234-3.84.704-1.28.469-2.464 1.13-3.552 1.984-1.088.853-2.058 1.866-2.912 3.04-.853 1.173-1.472 2.442-1.856 3.808v20.416h-4.352v-33.344h3.968v7.552c1.366-2.432 3.318-4.395 5.856-5.888 2.539-1.494 5.302-2.24 8.288-2.24 1.835 0 3.392.341 4.672 1.024 1.28.682 2.304 1.642 3.072 2.88.768 1.237 1.323 2.752 1.664 4.544.342 1.792.512 3.776.512 5.952z"/><path d="m577.032 502.501c-2.602 0-5.141-.427-7.616-1.28-2.474-.854-4.608-2.091-6.4-3.712l1.984-2.944c1.878 1.536 3.787 2.688 5.728 3.456 1.942.768 4.022 1.152 6.24 1.152 2.688 0 4.832-.544 6.432-1.632s2.4-2.635 2.4-4.64c0-.939-.213-1.718-.64-2.336-.426-.619-1.056-1.163-1.888-1.632-.832-.47-1.877-.886-3.136-1.248-1.258-.363-2.72-.736-4.384-1.12-1.92-.47-3.584-.939-4.992-1.408-1.408-.47-2.57-1.003-3.488-1.6-.917-.598-1.6-1.334-2.048-2.208-.448-.875-.672-1.974-.672-3.296 0-1.664.331-3.136.992-4.416.662-1.28 1.558-2.336 2.688-3.168 1.131-.832 2.454-1.462 3.968-1.888 1.515-.427 3.126-.64 4.832-.64 2.56 0 4.886.416 6.976 1.248 2.091.832 3.776 1.93 5.056 3.296l-2.112 2.56c-1.237-1.28-2.741-2.24-4.512-2.88-1.77-.64-3.616-.96-5.536-.96-1.152 0-2.218.117-3.2.352-.981.234-1.845.608-2.592 1.12-.746.512-1.333 1.162-1.76 1.952-.426.789-.64 1.717-.64 2.784 0 .896.15 1.621.448 2.176.299.554.79 1.034 1.472 1.44.683.405 1.547.768 2.592 1.088 1.046.32 2.315.65 3.808.992 2.134.512 4.011 1.024 5.632 1.536 1.622.512 2.976 1.109 4.064 1.792 1.088.682 1.91 1.514 2.464 2.496.555.981.832 2.176.832 3.584 0 3.072-1.173 5.504-3.52 7.296-2.346 1.792-5.504 2.688-9.472 2.688z"/><path d="m613.128 500.261c-.256.128-.629.298-1.12.512-.49.213-1.056.426-1.696.64-.64.213-1.365.405-2.176.576-.81.17-1.664.256-2.56.256-.938 0-1.834-.128-2.688-.384-.853-.256-1.6-.651-2.24-1.184-.64-.534-1.152-1.206-1.536-2.016-.384-.811-.576-1.75-.576-2.816v-23.872h-4.608v-3.456h4.608v-11.264h4.352v11.264h7.68v3.456h-7.68v22.656c.086 1.237.523 2.144 1.312 2.72.79.576 1.696.864 2.72.864 1.238 0 2.326-.203 3.264-.608.939-.406 1.536-.694 1.792-.864z"/><path d="m618.76 455.141h4.352v39.168c0 1.237.342 2.208 1.024 2.912.683.704 1.643 1.056 2.88 1.056.47 0 1.024-.064 1.664-.192s1.238-.299 1.792-.512l.768 3.52c-.81.341-1.802.618-2.976.832-1.173.213-2.186.32-3.04.32-2.005 0-3.584-.566-4.736-1.696-1.152-1.131-1.728-2.72-1.728-4.768z"/><path d="m650.376 502.501c-2.432 0-4.661-.459-6.688-1.376-2.026-.918-3.786-2.176-5.28-3.776-1.493-1.6-2.656-3.446-3.488-5.536-.832-2.091-1.248-4.331-1.248-6.72 0-2.347.416-4.555 1.248-6.624.832-2.07 1.984-3.883 3.456-5.44 1.472-1.558 3.232-2.795 5.28-3.712 2.048-.918 4.267-1.376 6.656-1.376 2.432 0 4.662.458 6.688 1.376 2.027.917 3.766 2.165 5.216 3.744 1.451 1.578 2.582 3.392 3.392 5.44.811 2.048 1.216 4.224 1.216 6.528v1.024c0 .341-.021.576-.064.704h-28.544c.128 1.792.544 3.445 1.248 4.96.704 1.514 1.611 2.826 2.72 3.936 1.11 1.109 2.379 1.973 3.808 2.592 1.43.618 2.955.928 4.576.928 1.067 0 2.134-.15 3.2-.448 1.067-.299 2.048-.704 2.944-1.216s1.707-1.142 2.432-1.888c.726-.747 1.28-1.568 1.664-2.464l3.776 1.024c-.512 1.237-1.237 2.357-2.176 3.36-.938 1.002-2.026 1.877-3.264 2.624-1.237.746-2.602 1.322-4.096 1.728-1.493.405-3.05.608-4.672.608zm12.288-19.072c-.128-1.792-.544-3.424-1.248-4.896s-1.6-2.742-2.688-3.808c-1.088-1.067-2.346-1.899-3.776-2.496-1.429-.598-2.954-.896-4.576-.896-1.621 0-3.157.298-4.608.896-1.45.597-2.72 1.429-3.808 2.496-1.088 1.066-1.962 2.346-2.624 3.84-.661 1.493-1.056 3.114-1.184 4.864z"/><path d="m673.544 501.861v-33.344h4.352v33.344zm0-40.32v-6.4h4.352v6.4z"/><path d="m698.568 502.501c-2.602 0-5.141-.427-7.616-1.28-2.474-.854-4.608-2.091-6.4-3.712l1.984-2.944c1.878 1.536 3.787 2.688 5.728 3.456 1.942.768 4.022 1.152 6.24 1.152 2.688 0 4.832-.544 6.432-1.632s2.4-2.635 2.4-4.64c0-.939-.213-1.718-.64-2.336-.426-.619-1.056-1.163-1.888-1.632-.832-.47-1.877-.886-3.136-1.248-1.258-.363-2.72-.736-4.384-1.12-1.92-.47-3.584-.939-4.992-1.408-1.408-.47-2.57-1.003-3.488-1.6-.917-.598-1.6-1.334-2.048-2.208-.448-.875-.672-1.974-.672-3.296 0-1.664.331-3.136.992-4.416.662-1.28 1.558-2.336 2.688-3.168 1.131-.832 2.454-1.462 3.968-1.888 1.515-.427 3.126-.64 4.832-.64 2.56 0 4.886.416 6.976 1.248 2.091.832 3.776 1.93 5.056 3.296l-2.112 2.56c-1.237-1.28-2.741-2.24-4.512-2.88-1.77-.64-3.616-.96-5.536-.96-1.152 0-2.218.117-3.2.352-.981.234-1.845.608-2.592 1.12-.746.512-1.333 1.162-1.76 1.952-.426.789-.64 1.717-.64 2.784 0 .896.15 1.621.448 2.176.299.554.79 1.034 1.472 1.44.683.405 1.547.768 2.592 1.088 1.046.32 2.315.65 3.808.992 2.134.512 4.011 1.024 5.632 1.536 1.622.512 2.976 1.109 4.064 1.792 1.088.682 1.91 1.514 2.464 2.496.555.981.832 2.176.832 3.584 0 3.072-1.173 5.504-3.52 7.296-2.346 1.792-5.504 2.688-9.472 2.688z"/><path d="m734.664 500.261c-.256.128-.629.298-1.12.512-.49.213-1.056.426-1.696.64-.64.213-1.365.405-2.176.576-.81.17-1.664.256-2.56.256-.938 0-1.834-.128-2.688-.384-.853-.256-1.6-.651-2.24-1.184-.64-.534-1.152-1.206-1.536-2.016-.384-.811-.576-1.75-.576-2.816v-23.872h-4.608v-3.456h4.608v-11.264h4.352v11.264h7.68v3.456h-7.68v22.656c.086 1.237.523 2.144 1.312 2.72.79.576 1.696.864 2.72.864 1.238 0 2.326-.203 3.264-.608.939-.406 1.536-.694 1.792-.864z"/><path d="m750.536 502.501c-3.626 0-6.325-1.206-8.096-3.616-1.77-2.411-2.656-6.006-2.656-10.784v-19.584h4.352v18.816c0 7.552 2.582 11.328 7.744 11.328 1.28 0 2.539-.214 3.776-.64 1.238-.427 2.379-1.046 3.424-1.856 1.046-.811 1.984-1.771 2.816-2.88.832-1.11 1.504-2.368 2.016-3.776v-20.992h4.352v27.712c0 1.194.512 1.792 1.536 1.792v3.84c-.512.085-.928.128-1.248.128h-.672c-1.024-.043-1.856-.406-2.496-1.088-.64-.683-.96-1.6-.96-2.752v-3.84c-1.45 2.602-3.424 4.618-5.92 6.048-2.496 1.429-5.152 2.144-7.968 2.144z"/><path d="m806.152 501.861h-4.352v-18.624c0-3.968-.586-6.848-1.76-8.64-1.173-1.792-2.976-2.688-5.408-2.688-1.28 0-2.56.234-3.84.704-1.28.469-2.464 1.13-3.552 1.984-1.088.853-2.058 1.866-2.912 3.04-.853 1.173-1.472 2.442-1.856 3.808v20.416h-4.352v-33.344h3.968v7.552c1.366-2.432 3.318-4.395 5.856-5.888 2.539-1.494 5.302-2.24 8.288-2.24 1.835 0 3.392.341 4.672 1.024 1.28.682 2.304 1.642 3.072 2.88.768 1.237 1.323 2.752 1.664 4.544.342 1.792.512 3.776.512 5.952z"/><path d="m828.808 502.309c-2.304 0-4.405-.48-6.304-1.44-1.898-.96-3.541-2.23-4.928-3.808-1.386-1.579-2.464-3.392-3.232-5.44s-1.152-4.16-1.152-6.336c0-2.304.374-4.512 1.12-6.624.747-2.112 1.803-3.958 3.168-5.536 1.366-1.579 2.998-2.838 4.896-3.776 1.899-.939 4-1.408 6.304-1.408 2.859 0 5.334.714 7.424 2.144 2.091 1.429 3.883 3.232 5.376 5.408v-6.976h3.904v33.472c0 2.304-.437 4.341-1.312 6.112-.874 1.77-2.048 3.253-3.52 4.448-1.472 1.194-3.2 2.09-5.184 2.688-1.984.597-4.085.896-6.304.896-3.84 0-6.933-.683-9.28-2.048-2.346-1.366-4.245-3.2-5.696-5.504l2.688-2.112c1.323 2.133 3.072 3.701 5.248 4.704 2.176 1.002 4.523 1.504 7.04 1.504 1.622 0 3.158-.224 4.608-.672 1.451-.448 2.72-1.11 3.808-1.984 1.088-.875 1.952-1.984 2.592-3.328s.96-2.912.96-4.704v-6.592c-1.28 2.133-3.029 3.818-5.248 5.056-2.218 1.237-4.544 1.856-6.976 1.856zm1.216-3.648c1.28 0 2.539-.235 3.776-.704 1.238-.47 2.358-1.099 3.36-1.888 1.003-.79 1.846-1.675 2.528-2.656.683-.982 1.131-1.984 1.344-3.008v-10.304c-.469-1.195-1.109-2.304-1.92-3.328-.81-1.024-1.728-1.899-2.752-2.624-1.024-.726-2.122-1.302-3.296-1.728-1.173-.427-2.357-.64-3.552-.64-1.877 0-3.552.394-5.024 1.184-1.472.789-2.72 1.824-3.744 3.104s-1.802 2.73-2.336 4.352c-.533 1.621-.8 3.264-.8 4.928 0 1.792.32 3.498.96 5.12.64 1.621 1.526 3.04 2.656 4.256 1.131 1.216 2.443 2.176 3.936 2.88 1.494.704 3.115 1.056 4.864 1.056z"/><path d="m869.384 502.501c-2.432 0-4.661-.459-6.688-1.376-2.026-.918-3.786-2.176-5.28-3.776-1.493-1.6-2.656-3.446-3.488-5.536-.832-2.091-1.248-4.331-1.248-6.72 0-2.347.416-4.555 1.248-6.624.832-2.07 1.984-3.883 3.456-5.44 1.472-1.558 3.232-2.795 5.28-3.712 2.048-.918 4.267-1.376 6.656-1.376 2.432 0 4.662.458 6.688 1.376 2.027.917 3.766 2.165 5.216 3.744 1.451 1.578 2.582 3.392 3.392 5.44.811 2.048 1.216 4.224 1.216 6.528v1.024c0 .341-.021.576-.064.704h-28.544c.128 1.792.544 3.445 1.248 4.96.704 1.514 1.611 2.826 2.72 3.936 1.11 1.109 2.379 1.973 3.808 2.592 1.43.618 2.955.928 4.576.928 1.067 0 2.134-.15 3.2-.448 1.067-.299 2.048-.704 2.944-1.216s1.707-1.142 2.432-1.888c.726-.747 1.28-1.568 1.664-2.464l3.776 1.024c-.512 1.237-1.237 2.357-2.176 3.36-.938 1.002-2.026 1.877-3.264 2.624-1.237.746-2.602 1.322-4.096 1.728-1.493.405-3.05.608-4.672.608zm12.288-19.072c-.128-1.792-.544-3.424-1.248-4.896s-1.6-2.742-2.688-3.808c-1.088-1.067-2.346-1.899-3.776-2.496-1.429-.598-2.954-.896-4.576-.896-1.621 0-3.157.298-4.608.896-1.45.597-2.72 1.429-3.808 2.496-1.088 1.066-1.962 2.346-2.624 3.84-.661 1.493-1.056 3.114-1.184 4.864z"/><path d="m920.584 501.861h-4.352v-18.624c0-3.968-.586-6.848-1.76-8.64-1.173-1.792-2.976-2.688-5.408-2.688-1.28 0-2.56.234-3.84.704-1.28.469-2.464 1.13-3.552 1.984-1.088.853-2.058 1.866-2.912 3.04-.853 1.173-1.472 2.442-1.856 3.808v20.416h-4.352v-33.344h3.968v7.552c1.366-2.432 3.318-4.395 5.856-5.888 2.539-1.494 5.302-2.24 8.288-2.24 1.835 0 3.392.341 4.672 1.024 1.28.682 2.304 1.642 3.072 2.88.768 1.237 1.323 2.752 1.664 4.544.342 1.792.512 3.776.512 5.952z"/></g></g></svg>
