<svg xmlns="http://www.w3.org/2000/svg" viewBox="0 0 100 100"><style>.st0{display:none}.st2{display:inline}.st3{opacity:.7}.st3,.st4,.st7{fill:#fff}.st7{opacity:.8}</style><g id="Referenzen" class="st0"><linearGradient id="SVGID_1_" gradientUnits="userSpaceOnUse" x1="80.5" y1="109.9" x2="19.5" y2="-9.9"><stop offset="0" stop-color="#5d4b41"/><stop offset="1" stop-color="#9e8a78"/></linearGradient><path fill="url(#SVGID_1_)" d="M0 0h100v100H0z"/><g class="st2"><path class="st3" d="M81.9 66.5c-.1-.3-.3-.4-.6-.5l-5.9-2.2c-.5-.2-1.1.1-1.3.6l-.4 1-6.9-2.5h-.5L52 65.4a4.3 4.3 0 00-3 2.2l-6.5-2.4c-1-.4-2.2-.3-3.2.1a4.2 4.2 0 00.5 7.8l18.6 6.8 3 1.1h.7l6-2 .6.2-.4 1c-.2.5.1 1.1.6 1.3l5.9 2.2c.5.2 1.1-.1 1.3-.6l5.7-15.8c.2-.3.2-.6.1-.8zM67.7 76.9l-6 2-21.2-7.7c-1-.3-1.6-1.3-1.5-2.3.1-.6.5-1.2 1-1.5.5-.3 1.2-.4 1.8-.2l6.8 2.5v.6a4.2 4.2 0 004.9 3.4l11.8-2.1-.4-2.1-11.8 2.1c-1.1.2-2.2-.6-2.4-1.7v-.7-.1l.1-.3c.3-.7.9-1.2 1.6-1.4l14-2.5 6.6 2.4-3.6 9.9-1-.4-.7.1zm6.9 4.5L70.7 80l5-13.8 3.9 1.4-5 13.8z"/><path class="st4" d="M39.7 47.2l2-1.5V59a2 2 0 002.1 2.1h18.9a2 2 0 002.1-2.1V45.7l2 1.5c.5.4 1.1.6 1.7.6 1 0 1.9-.5 2.5-1.3.9-1.3.5-3.1-.8-4l-8-5.6.7-.8a4 4 0 00-.7-5.1l-8.5-8.5a7.3 7.3 0 00-5.2-2.2h-11l-.4.1-7.1 2.9h-.8v-2.1c0-.6-.5-1-1-1h-8.4c-.6 0-1.1.5-1.1 1V38c0 .6.5 1 1.1 1h8.4c.6 0 1-.5 1-1v-2.1h.2c.8 2.5 4.1 4.2 7.2 4.2 3.1 0 6.4-1.7 7.2-4.2h1.8l-9.2 6.5a2.9 2.9 0 00-.7 4c.8 1.4 2.7 1.7 4 .8zM27 37h-6.3V22.3H27V37zm21 22v-6.3h4.2V59H48zm14.7 0h-8.4v-7.3c0-.6-.5-1-1.1-1H47c-.6 0-1.1.5-1.1 1V59h-2.1V44.2l9.4-6.9 9.4 6.9V59zM42.8 33.8a1 1 0 00-1 1c0 1.6-2.6 3.1-5.2 3.1s-5.2-1.6-5.2-3.1c0-.6-.5-1-1.1-1h-1v-8.4h1l.4-.1 7.1-3.1h10.8c1.4 0 2.7.5 3.7 1.5l8.5 8.5c.7.6.8 1.7.4 2.5-.3.5-.8.8-1.4.8-.6.1-1.1-.1-1.6-.5l-3.9-3.9c-.2-2.1-2-3.7-4.2-3.7h-9.4v2.1h9.4a2 2 0 012.1 2.1 2 2 0 01-2.1 2.1h-7.3zm-5.5 11.5c-.2-.4-.2-.9.2-1.1L49.1 36h1c1.5 0 3-.8 3.7-2.2l2.9 2.9c.9.9 2.1 1.3 3.3 1.1l9 6.3c.3.2.4.5.3.9-.1.3-.3.6-.7.6l-.6-.1-14.1-10.4c-.4-.3-.9-.3-1.2 0L38.5 45.5l-.5.2-.7-.4z"/><path class="st4" d="M55.8 52.2v4.1c0 .6.5 1 1 1H61c.6 0 1-.5 1-1v-4.1c0-.6-.5-1-1-1h-4.1c-.6 0-1.1.4-1.1 1zm2.1 1H60v2.1h-2.1v-2.1zM50.6 43.9c0 1.7 1.4 3.1 3.1 3.1 1.7 0 3.1-1.4 3.1-3.1 0-1.7-1.4-3.1-3.1-3.1a3.1 3.1 0 00-3.1 3.1zm4.2 0a1 1 0 01-2 0c0-.6.5-1 1-1s1 .5 1 1z"/></g><g class="st2"><path class="st4" d="M-76 51.3l-8.9-8.9-.6-.3h-16v1.8h15.1v6.2c0 1.5 1.2 2.7 2.7 2.7h6.2v31.1c0 1.5-1.2 2.7-2.7 2.7h-18.6V73.2c0-6-4.6-11-10.7-11.5v-1.9c2.1-.4 3.5-2.2 3.6-4.4v-1.8c1.5 0 2.7-1.2 2.7-2.7v-8c0-2.5-2-4.4-4.4-4.4h-16c-.5 0-.9.4-.9.9 0 1.4.3 2.7 1 3.9a2.6 2.6 0 00-1.3 3l.8 3.2c-.6.8-.6 1.9-.2 2.8.5.9 1.4 1.4 2.4 1.4v1.8c0 2.1 1.5 3.9 3.6 4.4v1.9c-6 .5-10.6 5.5-10.7 11.5V91c0 .5.4.9.9.9h28.4c.5 0 .9-.4.9-.9v-2.7h18.6c2.5 0 4.4-2 4.4-4.4v-32c0-.2-.1-.5-.3-.6zm-30.1 16.3l-2 1.4c-.2.1-.4.4-.4.7 0 .3.1.5.3.7l1.1 1.1-4.4 3.4 3.9-9.2c.1-.3.1-.6-.1-.8l-.7-1.1.8.2 1.5 3.6zm-13.5 1.3l-2-1.4 1.6-3.7.8-.2-.7 1.1c-.2.2-.2.6-.1.8l3.9 9.2-4.4-3.4 1.1-1.1c.2-.2.3-.5.3-.7l-.5-.6zm8.4-9v2.4l-2.7 3.3-2.7-3.3v-2.4h5.4zm-6.2 4.2l2.2 2.8-1.9 1.4-1.2-2.9.9-1.3zm3.5 4l2.5 1.8-2.5 5.5-2.5-5.5 2.5-1.8zm3.2.2l-1.9-1.4 2.2-2.8.8 1.3-1.1 2.9zm4.8-16.4v-1.8c.5 0 .9.4.9.9s-.4.9-.9.9zm-1.8-11.5c1.5 0 2.7 1.2 2.7 2.7v5.5l-.9-.2v-.9c0-.5-.4-.9-.9-.9a3.1 3.1 0 01-2.7-2.1.9.9 0 00-.6-.6.8.8 0 00-.8.2c-1.2 1.2-4.5 1.5-5.6 1.5a6.3 6.3 0 01-6.2-5.3h15zm-14.2 5v2.9l-.6.1-.6-2.5c-.1-.3 0-.5.2-.8.1-.2.3-.3.5-.3l.5.6zm-.9 5.6c0-.5.4-.9.9-.9v1.8a.9.9 0 01-.9-.9zm2.7 4.5v-8.8c1.1.6 2.3.8 3.6.8.4 0 3.7 0 5.9-1.3a4.3 4.3 0 003 2.1v7.2c0 1.5-1.2 2.7-2.7 2.7h-7.1c-1.5-.1-2.7-1.3-2.7-2.7zm-7.1 17.7c0-3.4 1.8-6.6 4.8-8.4l-1.2 2.7c-.2.4 0 .9.3 1.1l1.8 1.2-1 1a1 1 0 00-.3.7c0 .3.1.5.3.6l7.6 5.9v12h-7.1V73.2h-1.8v16.9h-3.6V73.2zm26.6 16.9h-3.6V73.2h-1.8v16.9h-7.1v-12l7.6-5.9.3-.6a1 1 0 00-.3-.7l-1-1 1.8-1.2c.4-.2.5-.7.3-1.1l-1.2-2.7c3 1.8 4.8 4.9 4.8 8.4v16.8zm16-40v-5l5.8 5.8h-5c-.4.1-.8-.3-.8-.8z"/><path class="st3" d="M-101.4 55.5h1.8v8c0 .5.4.9.9.9H-88c.5 0 .9-.4.9-.9v-8h1.8c.4 0 .7-.2.8-.6.1-.4 0-.8-.3-1l-8-6.2a1 1 0 00-1.1 0l-8 6.2c-.3.2-.4.6-.3 1 0 .3.4.6.8.6zm7.1 7.1V59h1.8v3.6h-1.8zm5.3 0h-1.8v-4.4c0-.5-.4-.9-.9-.9h-3.6c-.5 0-.9.4-.9.9v4.4H-98v-7.1h8.9v7.1zm-4.5-13.1l5.4 4.2h-10.8l5.4-4.2zM-96.1 67.9h3.6v1.8h-3.6v-1.8zM-90.3 67.5h7.1v1.8h-7.1v-1.8zM-96.1 72.3h12.4v1.8h-12.4v-1.8zM-88.1 77.7c-.6.3-1.3.3-1.9 0-.5-.3-1.1-.4-1.7-.4v1.8l.9.2a4 4 0 003.4 0c.6-.3 1.3-.3 1.9 0 .5.3 1.1.4 1.7.4V78l-.9-.2c-1-.6-2.3-.6-3.4-.1z"/></g></g><g id="Käufer_Mieterfinder" class="st0"><linearGradient id="SVGID_2_" gradientUnits="userSpaceOnUse" x1="80.5" y1="109.9" x2="19.5" y2="-9.9"><stop offset="0" stop-color="#1a1e35"/><stop offset="1" stop-color="#4f5995"/></linearGradient><path fill="url(#SVGID_2_)" d="M0 0h100v100H0z"/><g class="st2"><path class="st4" d="M78.6 36.4L69.2 27a1 1 0 00-.7-.3H51.6v1.9h16v6.6c0 1.6 1.3 2.8 2.8 2.8H77v33c0 1.6-1.3 2.8-2.8 2.8H54.4V59.7c0-6.4-4.9-11.7-11.3-12.2v-2a4.8 4.8 0 003.8-4.6V39c1.6 0 2.8-1.3 2.8-2.8v-8.5c0-2.6-2.1-4.7-4.7-4.7H28.1c-.5 0-.9.4-.9.9 0 1.4.4 2.9 1.1 4.1a2.9 2.9 0 00-1.4 3.2l.8 3.3c-.6.9-.7 2-.2 2.9.5 1 1.4 1.6 2.5 1.6v1.9c0 2.2 1.6 4.2 3.8 4.6v2c-6.4.5-11.3 5.8-11.3 12.2v18.8c0 .5.4.9.9.9h30.1c.5 0 .9-.4.9-.9v-2.8h19.8c2.6 0 4.7-2.1 4.7-4.7V37.1a1 1 0 00-.3-.7zM46.7 53.7l-2.2 1.4c-.2.2-.4.4-.4.7 0 .3.1.6.3.8l1.1 1.1-4.7 3.6 4.1-9.8a1 1 0 00-.1-.9l-.8-1.2.9.2 1.8 4.1zm-14.3 1.4l-2.2-1.4 1.7-4 .9-.2-.8 1.2a1 1 0 00-.1.9l4.1 9.8-4.7-3.6 1.1-1.1c.2-.2.3-.5.3-.8.1-.3-.1-.6-.3-.8zm8.9-9.5v2.5l-2.8 3.5-2.8-3.5v-2.5h5.6zM34.7 50l2.4 2.9-2 1.5-1.2-3.1.8-1.3zm3.7 4.3l2.6 1.9-2.6 5.8-2.6-5.8 2.6-1.9zm3.4.1l-2-1.5 2.4-2.9.9 1.3-1.3 3.1zm5.1-17.3v-1.9c.5 0 .9.4.9.9 0 .6-.4 1-.9 1zM45 24.9c1.6 0 2.8 1.3 2.8 2.8v5.8l-.9-.2v-.9c0-.5-.4-.9-.9-.9a3.3 3.3 0 01-2.9-2.2c-.1-.3-.4-.5-.7-.6a.8.8 0 00-.9.3c-1.3 1.3-4.7 1.6-5.9 1.6-3.3 0-6-2.4-6.5-5.6H45zm-15 5.3v3.1l-.7.1-.7-2.7c-.1-.3 0-.6.2-.8.1-.2.3-.3.5-.3l.7.6zm-1 6c0-.5.4-.9.9-.9v1.9c-.4-.1-.9-.5-.9-1zm2.9 4.7v-9.4c1.2.6 2.5.9 3.8.9.4 0 4 0 6.3-1.4.7 1.2 1.8 2 3.2 2.3v7.6c0 1.6-1.3 2.8-2.8 2.8h-7.5c-1.8 0-3-1.3-3-2.8zm-7.6 18.8c0-3.6 1.9-7 5.1-8.9l-1.2 2.9c-.2.4 0 .9.3 1.2l1.9 1.2-1.1 1.1a1 1 0 00-.3.7c0 .3.1.5.4.7l8.1 6.3v12.7H30V59.7h-1.9v17.9h-3.8V59.7zm28.2 17.9h-3.8V59.7h-1.9v17.9h-7.5V64.9l8.1-6.3.4-.7a1 1 0 00-.3-.7l-1.1-1.1 1.9-1.2c.4-.3.5-.7.3-1.2l-1.2-2.9c3.1 1.9 5.1 5.2 5.1 8.9v17.9zm17-42.4V30l6.2 6.2h-5.3c-.5 0-.9-.5-.9-1z"/><path class="st3" d="M51.6 40.9h1.9v8.5c0 .5.4.9.9.9h11.3c.5 0 .9-.4.9-.9v-8.5h1.9c.4 0 .8-.3.9-.6.1-.4 0-.8-.3-1l-8.5-6.6c-.3-.3-.8-.3-1.2 0L51 39.2c-.3.2-.4.7-.3 1 .1.4.5.7.9.7zm7.5 7.5v-3.8H61v3.8h-1.9zm5.7 0h-1.9v-4.7c0-.5-.4-.9-.9-.9h-3.8c-.5 0-.9.4-.9.9v4.7h-1.9v-7.5h9.4v7.5zm-4.7-13.9l5.7 4.5H54.3l5.8-4.5zM57.3 54H61v1.9h-3.8V54zM63.4 53.7H71v1.9h-7.5v-1.9zM57.3 58.7h13.2v1.9H57.3v-1.9zM65.8 64.5c-.6.3-1.4.3-2 0a4 4 0 00-1.8-.4V66l1 .2c1.1.6 2.5.6 3.6 0 .6-.3 1.4-.3 2 0a4 4 0 001.8.4v-1.9l-1-.2a3.8 3.8 0 00-3.6 0z"/></g></g><g id="Meta_Tags" class="st0"><linearGradient id="SVGID_3_" gradientUnits="userSpaceOnUse" x1="80.5" y1="109.9" x2="19.5" y2="-9.9"><stop offset="0" stop-color="#a7aa4c"/><stop offset="1" stop-color="#d3e17b"/></linearGradient><path fill="url(#SVGID_3_)" d="M0 0h100v100H0z"/><g class="st2"><path class="st4" d="M71.9 25.1H28.5a5.1 5.1 0 00-5.1 5.1V59c0 2.8 2.3 5.1 5.1 5.1h14.3c-.1 2.8-.6 5.5-1.5 8.1h-3.5c-.6 0-1.2.5-1.2 1.2 0 .6.5 1.2 1.2 1.2h24.8c.6 0 1.2-.5 1.2-1.2 0-.6-.5-1.2-1.2-1.2h-3.5c-.9-2.6-1.4-5.3-1.5-8.1h14.3c2.8 0 5.1-2.3 5.1-5.1V30.2c0-2.8-2.3-5.1-5.1-5.1zm-46.2 5.1c0-1.5 1.2-2.8 2.8-2.8h43.4c1.5 0 2.8 1.2 2.8 2.8v26.3h-49V30.2zm18.1 42c.8-2.6 1.3-5.3 1.4-8.1h10.2c.1 2.8.6 5.5 1.4 8.1h-13zM74.7 59c0 1.5-1.2 2.8-2.8 2.8H28.5a2.8 2.8 0 01-2.8-2.8v-.2h48.9v.2z"/><path class="st7" d="M56.5 35.6l7.4 6.3-7.4 6.3c-.5.4-.6 1.2-.1 1.8.2.3.6.4.9.4.3 0 .6-.1.8-.3l8.5-7.2c.3-.2.4-.6.4-.9 0-.4-.2-.7-.4-.9l-8.5-7.2c-.5-.4-1.3-.4-1.8.1-.4.4-.4 1.1.2 1.6zM33.9 42.8l8.5 7.2c.2.2.5.3.8.3.4 0 .7-.1.9-.4.4-.5.4-1.3-.1-1.8l-7.4-6.3 7.4-6.3c.5-.4.6-1.2.1-1.8-.4-.5-1.2-.6-1.8-.1l-8.5 7.2c-.3.2-.4.6-.4.9.1.5.2.9.5 1.1z"/></g></g><g id="Standorte"><linearGradient id="SVGID_4_" gradientUnits="userSpaceOnUse" x1="80.5" y1="109.9" x2="19.5" y2="-9.9"><stop offset="0" stop-color="#e00c3f"/><stop offset="1" stop-color="#f67f93"/></linearGradient><path fill="url(#SVGID_4_)" d="M0 0h100v100H0z"/><path class="st3" d="M79.3 41.1l-1.9-.9c-.5-.2-1 0-1.2.4-.2.4 0 1 .4 1.2l1.3.7v33.3l-9.3-4.7v-17c0-.6-.4-.9-.9-.9-.6 0-.9.4-.9.9v17.1l-10.2 4.7V68c0-.6-.4-.9-.9-.9s-.9.4-.9.9v7.8l-9.3-4.6v-5.1c0-.6-.4-.9-.9-.9-.6 0-.9.4-.9.9V71l-10.2 4.8V45.7c0-.6-.4-.9-.9-.9-.6 0-.9.4-.9.9v30.2l-9.3-4.7V37.9l9.9 4.9c.3.1.6.1.8 0l1.9-.9c.5-.2.7-.7.4-1.2-.3-.5-.7-.7-1.2-.4l-1.4.7L22 35.6c-.3-.2-.7-.1-.9 0l-.4.8v35.4c0 .4.2.7.6.8l11.2 5.6.4.1.4-.1 11.4-5.4 11 5.4.3.1h.1l.4-.1 11.8-5.4 10.8 5.4.5.1.5-.1c.3-.2.5-.5.5-.8V42l-1.3-.9z"/><path class="st3" d="M46.5 37.4c-.2.5 0 1 .4 1.2l7.9 3.9v3.2c0 .6.4.9.9.9.6 0 .9-.4.9-.9v-3.2l1.3-.7c.5-.2.7-.7.4-1.2-.2-.5-.7-.7-1.2-.4l-1.4.7-8-4c-.5-.1-1 0-1.2.5z"/><path class="st4" d="M67.2 52c.3 0 .6-.1.7-.4.7-.9 7.3-9.2 7.3-13.3a8 8 0 00-8-8 8 8 0 00-8 8c0 4.1 6.5 12.4 7.3 13.3.1.2.4.4.7.4zm0-19.8c3.4 0 6.1 2.8 6.1 6.1 0 2.6-3.9 8.4-6.1 11.3-2.2-2.9-6.1-8.7-6.1-11.3a6 6 0 016.1-6.1z"/><path class="st4" d="M69.5 38.3c0-1.3-1-2.3-2.3-2.3-1.3 0-2.3 1-2.3 2.3s1 2.3 2.3 2.3c1.3.1 2.3-1 2.3-2.3zm-2.8 0c0-.3.2-.5.5-.5s.5.2.5.5-.2.5-.5.5-.5-.2-.5-.5zM39.2 44.6c.3 0 .6-.1.7-.4.7-.9 7.3-9.2 7.3-13.3a8 8 0 00-8-8 8 8 0 00-8 8c0 4.1 6.5 12.4 7.3 13.3l.7.4zm0-19.8c3.4 0 6.1 2.8 6.1 6.1 0 2.6-3.9 8.4-6.1 11.3-2.2-2.9-6.1-8.7-6.1-11.3 0-3.4 2.8-6.1 6.1-6.1z"/><path class="st4" d="M41.6 30.9c0-1.3-1-2.3-2.3-2.3-1.3 0-2.3 1-2.3 2.3 0 1.3 1 2.3 2.3 2.3 1.2 0 2.3-1 2.3-2.3zm-2.8 0c0-.3.2-.5.5-.5s.5.2.5.5-.2.5-.5.5-.5-.2-.5-.5zM49.7 67.5l.7.4c.3 0 .6-.1.7-.4.7-.9 7.3-9.2 7.3-13.3a8 8 0 00-8-8 8 8 0 00-8 8c0 4.1 6.5 12.3 7.3 13.3zm.7-19.5c3.4 0 6.1 2.8 6.1 6.1 0 2.6-3.9 8.4-6.1 11.3-2.2-2.9-6.1-8.7-6.1-11.3a6 6 0 016.1-6.1z"/><path class="st4" d="M50.4 56.5c1.3 0 2.3-1 2.3-2.3s-1-2.3-2.3-2.3c-1.3 0-2.3 1-2.3 2.3s1 2.3 2.3 2.3zm0-2.8c.3 0 .5.2.5.5s-.2.5-.5.5-.5-.2-.5-.5.2-.5.5-.5z"/><path class="st3" d="M45.5 45.7V42c0-.6-.4-.9-.9-.9s-.9.4-.9.9v3.7c0 .6.4.9.9.9s.9-.3.9-.9z"/></g></svg>