<svg xmlns="http://www.w3.org/2000/svg" xml:space="preserve" viewBox="0 0 150 150"><path fill="#676767" d="M46 37.7c0-4.8 1.3-8 4-10.7 5.2-5.1 10.2-10.2 15.4-15.3 5.2-5.3 13.8-5.3 19.1-.1 5.2 5.2 10.4 10.3 15.5 15.5 5.3 5.3 5.3 13.9 0 19.2-5.2 5.2-10.3 10.4-15.5 15.5-5.2 5.2-13.7 5.2-18.9.1S55.4 51.7 50.2 46.6c-2.8-2.8-4.3-6.1-4.2-8.9z"/><path d="M36.6 103.9c-3.6.1-7.1-1.3-9.6-3.9L12 85c-5.8-5.8-5.8-14 0-19.8C17 60 22 55 27.1 49.9c5.3-5.2 13.8-5.2 19.1 0l15.3 15.3c5.5 5.6 5.5 13.9 0 19.4l-15 15c-2.9 3.1-5.7 4.2-9.9 4.3zm76.8-57.8c3.6-.1 7.1 1.4 9.6 4l15 15c5.7 5.8 5.7 14 0 19.8-5 5.1-10.1 10.1-15.2 15.2-5.3 5.2-13.8 5.2-19.1 0L88.4 84.8c-5.5-5.6-5.5-13.9 0-19.4l15-15c2.9-3.1 5.8-4.3 10-4.3zm-67.3 68.1c0-4.7 1.3-7.9 4-10.6l15-15c5.8-5.8 14-5.8 19.8 0 5.1 5 10.1 10.1 15.2 15.2 5.2 5.3 5.2 13.8 0 19.1l-15.3 15.3c-5.6 5.5-13.9 5.5-19.4 0l-15-15c-3-2.8-4.4-6.1-4.3-9z" style="fill:#a4c420"/></svg>