<?xml version="1.0" encoding="UTF-8"?>
<!DOCTYPE svg PUBLIC "-//W3C//DTD SVG 1.1//EN" "http://www.w3.org/Graphics/SVG/1.1/DTD/svg11.dtd">
<svg xmlns="http://www.w3.org/2000/svg" xml:space="preserve" width="256px" height="256px" version="1.1" style="shape-rendering:geometricPrecision; text-rendering:geometricPrecision; image-rendering:optimizeQuality; fill-rule:evenodd; clip-rule:evenodd"
viewBox="0 0 256 256"
 xmlns:xlink="http://www.w3.org/1999/xlink">
 <defs>
  <style type="text/css">
   <![CDATA[
    .fil0 {fill:#006B7A}
    .fil1 {fill:white;fill-rule:nonzero}
   ]]>
  </style>
 </defs>
 <g id="bwein-icon">
  <rect id="background" class="fil0" width="256" height="256" rx="30" ry="30"/>
  <path id="bwein" class="fil1" d="M171.83 216.37c0,5.13 -2.44,9.16 -7.33,12.14 -4.92,2.98 -11.5,4.49 -19.71,4.49l-60.62 0 0 -210 29.84 0 0 79.44c6.93,-1.06 13.9,-2.2 20.83,-3.35 8.79,-1.42 15.72,-2.15 20.87,-2.15 10.7,0.05 16.08,5.59 16.12,16.63l0 102.8zm-29.84 -19.15l0 -74.17 -27.98 0.55 0 83.84 18.47 0c6.36,0 9.51,-3.39 9.51,-10.22z"/>
 </g>
</svg>
