<svg xmlns="http://www.w3.org/2000/svg" xml:space="preserve" id="Ebene_2" width="450" height="450" x="0" y="0" style="enable-background:new 0 0 450 450" version="1.1"><style>.st1{fill:#fff}</style><path d="m390.3 92.4-154-89.3c-8-4.7-18-4.7-25.3 0L57.1 92.4c-8 4.7-12.7 13.3-12.7 22V293c0 9.3 4.7 18 12.7 22.7L211 404.9h.7l76.6 44.7v-60 .7-7.3c0-4.7 2.7-8.7 6-10.7l4-2 2.7-1.3 90-52c8-4.7 12.7-13.3 12.7-22.7V115c-.8-9.3-5.4-17.9-13.4-22.6z" style="fill:#142c46"/><path d="M313.6 190.4c-10-10-26.7-10-36.7 0v.7l-70.6-41.3c2.7-9.3 0-19.3-7.3-26-10-10-26.7-10-36.7 0a26.33 26.33 0 0 0 0 38.7c10 10 26.7 10 36.7 0 .7-.7.7-.7.7-1.3l70 40h.7c-3.3 9.3-1.3 20.7 6.7 28 10 10 26.7 10 36.7 0 11.2-10.9 11.2-28.2-.2-38.8zM275 233.7l-12.7-7.3-62 36-1.3-1.3c-10-10-26.7-10-36.7 0a26.33 26.33 0 0 0 0 38.7c10 10 26.7 10 36.7 0 7.3-6.7 9.3-16.7 7.3-26l68.7-40.1z" class="st1"/></svg>