<svg xmlns="http://www.w3.org/2000/svg" viewBox="0 0 191.8 150"><title>queue_c4g</title><g id="Ebene_12" data-name="Ebene 12"><path d="M65.67,32.12a1.28,1.28,0,0,0-.43,1v36a1.27,1.27,0,0,0,.43,1,1.48,1.48,0,0,0,1.08.39h9.06a1.48,1.48,0,0,0,1.08-.39,1.27,1.27,0,0,0,.43-1v-36a1.28,1.28,0,0,0-.43-1,1.54,1.54,0,0,0-1.08-.38H66.75a1.55,1.55,0,0,0-1.09.38m24.18,0a1.32,1.32,0,0,0-.43,1v36a1.3,1.3,0,0,0,.43,1,1.54,1.54,0,0,0,1.07.46H100a1.48,1.48,0,0,0,1.08-.39,1.28,1.28,0,0,0,.43-1v-36a1.32,1.32,0,0,0-.43-1.07,1.51,1.51,0,0,0-1.08-.38H90.91a1.55,1.55,0,0,0-1.09.38m24.15,0a1.32,1.32,0,0,0-.43,1v36a1.3,1.3,0,0,0,.43,1,1.51,1.51,0,0,0,1.09.39h9.06a1.51,1.51,0,0,0,1.09-.39,1.29,1.29,0,0,0,.42-1v-36a1.32,1.32,0,0,0-.43-1,1.55,1.55,0,0,0-1.09-.38h-9.06a1.57,1.57,0,0,0-1.08.38M113,76.45a.89.89,0,0,0-.3.7V83H66.12a1.14,1.14,0,0,0-.81.27.93.93,0,0,0-.31.7v5.82a.91.91,0,0,0,.31.69,1.06,1.06,0,0,0,.81.27h46.62v5.83a.88.88,0,0,0,.67.9,1.1,1.1,0,0,0,1.21-.19l10.81-9.71a1,1,0,0,0,.31-.69.93.93,0,0,0-.31-.7l-10.81-9.67a1.36,1.36,0,0,0-.81-.31,1.15,1.15,0,0,0-.82.27" style="fill:#003764"/><path d="M70.94,110.07c.29.05.41.16.41.45v18.31a.35.35,0,0,1-.29.4H69.24a.35.35,0,0,1-.38-.31.14.14,0,0,1,0-.09v-4.78a28.42,28.42,0,0,1-3.45.12c-4.91,0-5.95-1.46-5.95-7.31s1-7.24,6.09-7.24A29.57,29.57,0,0,1,70.94,110.07Zm-5.43,1.73c-3.22,0-3.55,1-3.55,5.07s.38,5.09,3.6,5.09a27.92,27.92,0,0,0,3.29-.19v-10Z" style="fill:#003764"/><path d="M86.35,109.76a.36.36,0,0,1,.4.3.14.14,0,0,1,0,.09v13.26c0,.31-.12.34-.4.39a29.85,29.85,0,0,1-5.42.41c-4.68,0-6.06-.6-6.06-6.13v-7.93c0-.26.18-.39.44-.39H77a.36.36,0,0,1,.39.3.14.14,0,0,1,0,.09v7.74c0,4,.79,4.14,3.29,4.14h3.58V110.15a.36.36,0,0,1,.31-.39h1.79Z" style="fill:#003764"/><path d="M101.67,116.53v.75c0,.53-.13.74-1,.74H92.39c.08,3.18.68,4,3.48,4h4.29a.34.34,0,0,1,.39.29.14.14,0,0,1,0,.09v1.16a.37.37,0,0,1-.35.41h0a30.4,30.4,0,0,1-4.37.23c-4.92,0-5.95-1.43-5.95-7.25s1-7.29,5.95-7.29C100.52,109.63,101.62,111,101.67,116.53ZM92.39,116h6.78c0-3.32-.6-4.15-3.32-4.15S92.45,112.66,92.39,116Z" style="fill:#003764"/><path d="M115.94,109.76a.37.37,0,0,1,.4.3v13.35c0,.31-.13.34-.4.39a29.9,29.9,0,0,1-5.43.41c-4.67,0-6.06-.6-6.06-6.13v-7.93c0-.26.19-.39.45-.39h1.67a.37.37,0,0,1,.4.3v7.83c0,4,.78,4.14,3.29,4.14h3.58V110.15a.36.36,0,0,1,.3-.39h1.8Z" style="fill:#003764"/><path d="M131.28,116.53v.75c0,.53-.12.74-1,.74H122c.08,3.18.68,4,3.47,4h4.29a.35.35,0,0,1,.4.29v1.25a.38.38,0,0,1-.36.41h0a30.34,30.34,0,0,1-4.36.23c-4.92,0-6-1.43-6-7.25s1-7.29,6-7.29C130.13,109.63,131.22,111,131.28,116.53ZM122,116h6.77c0-3.32-.6-4.15-3.32-4.15s-3.4.83-3.46,4.15Z" style="fill:#003764"/><path d="M24.65,5.15S5.12,5.15,5.12,24.67v101s0,19.53,19.53,19.53H166.54s19.53,0,19.53-19.53V24.67s0-19.52-19.53-19.52Z" style="fill:none;stroke:#103a5d;stroke-width:2.51389524052214px"/></g></svg>