<svg xmlns="http://www.w3.org/2000/svg" viewBox="0 0 500.08 428.12"><defs><style>.cls-1{fill:#333a46;}.cls-2{fill:#fff;}.cls-3{fill:#7ac0bc;}</style></defs><g id="Ebene_2" data-name="Ebene 2"><g id="sticky_footer" data-name="sticky footer"><polygon class="cls-1" points="405.6 364.46 0.08 364.46 94.55 0 500.08 0 405.6 364.46"/><path class="cls-1" d="M16.21,386a12.06,12.06,0,0,1,3.85,2.48l-2.26,3.3a11.23,11.23,0,0,0-2.8-1.68,8,8,0,0,0-3-.54,5.7,5.7,0,0,0-5.1,2.91q-1.81,2.91-1.82,8.6t1.79,8.41A5.79,5.79,0,0,0,12,412.22a7.76,7.76,0,0,0,2.93-.54,14.13,14.13,0,0,0,3-1.74l2.16,3.42a12.1,12.1,0,0,1-8.26,3.3,10.31,10.31,0,0,1-8.65-4.1Q0,408.45,0,401.22a22.42,22.42,0,0,1,1.44-8.38,12.68,12.68,0,0,1,4.07-5.59,10.16,10.16,0,0,1,6.29-2A12,12,0,0,1,16.21,386Z"/><path class="cls-1" d="M42.4,389.48q3.15,4.22,3.15,11.45a22,22,0,0,1-1.43,8.24A12.3,12.3,0,0,1,40,414.7a10.73,10.73,0,0,1-6.46,2,10.48,10.48,0,0,1-8.88-4.21q-3.18-4.21-3.18-11.46a21.88,21.88,0,0,1,1.44-8.24A12.31,12.31,0,0,1,27,387.23a10.79,10.79,0,0,1,6.52-2A10.39,10.39,0,0,1,42.4,389.48ZM26.52,401q0,11.46,7,11.46t7-11.52q0-11.44-6.93-11.45T26.52,401Z"/><path class="cls-1" d="M69.28,387.71a10,10,0,0,1,2.08,6.73V416H66.64v-20.8c0-2.13-.36-3.63-1.08-4.51a3.89,3.89,0,0,0-3.18-1.31,5.78,5.78,0,0,0-3.8,1.37,13.77,13.77,0,0,0-3.07,3.93V416H50.79v-30h4.05l.41,4.45a11.3,11.3,0,0,1,3.56-3.76,8.46,8.46,0,0,1,4.7-1.37A7.16,7.16,0,0,1,69.28,387.71Z"/><path class="cls-1" d="M91.93,414.61a9.66,9.66,0,0,1-6.05,2.05,6.78,6.78,0,0,1-5.37-2.19q-1.92-2.19-1.92-6.35V390H73.87v-4.05h4.72v-6.78l4.72-.63v7.41h6.41L89.21,390h-5.9v17.9a6,6,0,0,0,.74,3.39,2.85,2.85,0,0,0,2.49,1.05A6.33,6.33,0,0,0,90.13,411Z"/><path class="cls-1" d="M113,411.68a3.51,3.51,0,0,0,1.7,1.34l-1.08,3.64a6.76,6.76,0,0,1-3.39-1.31,6.12,6.12,0,0,1-1.9-3.19,8.82,8.82,0,0,1-8,4.5,8.15,8.15,0,0,1-6.31-2.5,9.3,9.3,0,0,1-2.31-6.56,9,9,0,0,1,3.11-7.35c2.06-1.71,5-2.57,8.79-2.57h4.16v-2.22c0-2.13-.46-3.65-1.39-4.56a5.84,5.84,0,0,0-4.25-1.37,21.83,21.83,0,0,0-7.29,1.6l-1.18-3.82a24.82,24.82,0,0,1,9.34-2.05q4.77,0,7.13,2.59t2.36,7.38V409A5.19,5.19,0,0,0,113,411.68Zm-5.28-3.62v-6.9h-3.54q-7.48,0-7.49,6.16a6,6,0,0,0,1.18,4,4.34,4.34,0,0,0,3.49,1.37Q105.42,412.73,107.73,408.06Z"/><path class="cls-1" d="M138.59,389.48q3.15,4.22,3.15,11.45a21.85,21.85,0,0,1-1.44,8.24,12.21,12.21,0,0,1-4.15,5.53,10.74,10.74,0,0,1-6.47,2,10.48,10.48,0,0,1-8.87-4.21q-3.18-4.21-3.18-11.46a21.88,21.88,0,0,1,1.44-8.24,12.24,12.24,0,0,1,4.15-5.52,10.75,10.75,0,0,1,6.52-2A10.41,10.41,0,0,1,138.59,389.48ZM122.71,401q0,11.46,7,11.46t7-11.52q0-11.44-6.92-11.45T122.71,401Z"/><path class="cls-1" d="M170.31,386.11a14.59,14.59,0,0,1,4.21,2.57l-2,3.3a15.5,15.5,0,0,0-3.51-1.93,9.93,9.93,0,0,0-3.52-.63,5.73,5.73,0,0,0-3.64,1.05,3.83,3.83,0,0,0-.08,5.73,13.76,13.76,0,0,0,4.54,2,15.45,15.45,0,0,1,6.75,3.42,7.86,7.86,0,0,1,2.23,5.93,8,8,0,0,1-3.1,6.78,12.2,12.2,0,0,1-7.57,2.33,14.08,14.08,0,0,1-10.21-3.93l2.51-3.19a11.52,11.52,0,0,0,7.6,2.91,6.67,6.67,0,0,0,4.23-1.23,4,4,0,0,0,1.56-3.33,4,4,0,0,0-2.51-4.14,26,26,0,0,0-4.05-1.51,13.3,13.3,0,0,1-6.24-3.36,7.64,7.64,0,0,1-1.92-5.36,7.54,7.54,0,0,1,1.26-4.24,8.34,8.34,0,0,1,3.49-3,11.56,11.56,0,0,1,5-1.05A13.67,13.67,0,0,1,170.31,386.11Z"/><path class="cls-1" d="M193,414.61a9.66,9.66,0,0,1-6,2.05,6.74,6.74,0,0,1-5.36-2.19q-1.94-2.19-1.93-6.35V390H175v-4.05h4.72v-6.78l4.72-.63v7.41h6.41l-.51,4.05h-5.9v17.9a6,6,0,0,0,.75,3.39,2.82,2.82,0,0,0,2.48,1.05,6.33,6.33,0,0,0,3.59-1.31Z"/><path class="cls-1" d="M200.07,372.55a3.71,3.71,0,0,1,.92,2.56,3.62,3.62,0,0,1-.92,2.54,3.16,3.16,0,0,1-2.41,1,3.08,3.08,0,0,1-2.36-1,3.58,3.58,0,0,1-.93-2.54,3.67,3.67,0,0,1,.93-2.56,3,3,0,0,1,2.36-1A3.08,3.08,0,0,1,200.07,372.55Zm0,43.43h-4.72v-30h4.72Z"/><path class="cls-1" d="M221.51,386a12.06,12.06,0,0,1,3.85,2.48l-2.26,3.3a11.36,11.36,0,0,0-2.79-1.68,8.1,8.1,0,0,0-3-.54,5.71,5.71,0,0,0-5.1,2.91q-1.81,2.91-1.82,8.6t1.79,8.41a5.79,5.79,0,0,0,5.13,2.71,7.76,7.76,0,0,0,2.93-.54,14.13,14.13,0,0,0,3-1.74l2.16,3.42a12.1,12.1,0,0,1-8.26,3.3,10.28,10.28,0,0,1-8.64-4.1q-3.17-4.11-3.16-11.34a22.42,22.42,0,0,1,1.44-8.38,12.68,12.68,0,0,1,4.07-5.59,10.16,10.16,0,0,1,6.29-2A12,12,0,0,1,221.51,386Z"/><path class="cls-1" d="M233.93,416h-4.72V373.86l4.72-.63Zm5.59-16.76L250.6,416H245l-10.72-16.41,10-13.63h5.28Z"/><path class="cls-1" d="M263.73,416.15a20.83,20.83,0,0,1-4.44,8.3,12.77,12.77,0,0,1-8.13,3.67l-.51-4.1a13,13,0,0,0,4.26-1.48,7.82,7.82,0,0,0,2.54-2.48,18.6,18.6,0,0,0,1.77-4.08h-1.59l-9.08-30h5l7.24,26.22,7.08-26.22h4.87Z"/><path class="cls-1" d="M292.71,378.5a4.94,4.94,0,0,0-.92,3.28v4.16h6.57l-.52,4.05h-6v26h-4.72V390h-4.82v-4.05h4.82v-4.1a8.69,8.69,0,0,1,2.23-6.24,8.15,8.15,0,0,1,6.23-2.37,13.78,13.78,0,0,1,3.31.37,18,18,0,0,1,3.16,1.17l-1.49,3.82a10.55,10.55,0,0,0-4.72-1.14A3.93,3.93,0,0,0,292.71,378.5Z"/><path class="cls-1" d="M319.72,389.48q3.16,4.22,3.16,11.45a21.85,21.85,0,0,1-1.44,8.24,12.28,12.28,0,0,1-4.15,5.53,10.76,10.76,0,0,1-6.47,2,10.48,10.48,0,0,1-8.87-4.21q-3.18-4.21-3.18-11.46a22.09,22.09,0,0,1,1.43-8.24,12.33,12.33,0,0,1,4.16-5.52,10.74,10.74,0,0,1,6.51-2A10.39,10.39,0,0,1,319.72,389.48ZM303.85,401q0,11.46,7,11.46t7-11.52q0-11.44-6.93-11.45T303.85,401Z"/><path class="cls-1" d="M347.12,389.48q3.15,4.22,3.15,11.45a22,22,0,0,1-1.43,8.24,12.3,12.3,0,0,1-4.16,5.53,10.73,10.73,0,0,1-6.46,2,10.48,10.48,0,0,1-8.88-4.21q-3.18-4.21-3.18-11.46a21.88,21.88,0,0,1,1.44-8.24,12.24,12.24,0,0,1,4.15-5.52,10.77,10.77,0,0,1,6.52-2A10.41,10.41,0,0,1,347.12,389.48ZM331.24,401q0,11.46,7,11.46t7-11.52q0-11.44-6.92-11.45T331.24,401Z"/><path class="cls-1" d="M369.15,414.61a9.66,9.66,0,0,1-6,2.05,6.76,6.76,0,0,1-5.36-2.19q-1.94-2.19-1.93-6.35V390h-4.72v-4.05h4.72v-6.78l4.72-.63v7.41h6.41l-.51,4.05h-5.9v17.9a6,6,0,0,0,.74,3.39,2.85,2.85,0,0,0,2.49,1.05,6.33,6.33,0,0,0,3.59-1.31Z"/><path class="cls-1" d="M391.26,402.76H374q.32,5,2.26,7.29a6.25,6.25,0,0,0,5,2.34,10,10,0,0,0,3.59-.63,14,14,0,0,0,3.44-2l2.05,3.13a14,14,0,0,1-9.44,3.76,10.46,10.46,0,0,1-8.8-4.1Q369,408.45,369,401.28a23.45,23.45,0,0,1,1.36-8.3,12.92,12.92,0,0,1,3.89-5.67,9.23,9.23,0,0,1,6-2.05,9.62,9.62,0,0,1,8.26,3.93q2.88,3.93,2.87,10.89C391.36,401,391.33,401.84,391.26,402.76Zm-4.57-4.22c0-3-.53-5.22-1.59-6.78a5.38,5.38,0,0,0-4.77-2.34q-5.79,0-6.31,9.46h12.67Z"/><path class="cls-1" d="M411,385.6l-.87,5.13a8.74,8.74,0,0,0-2.36-.34,4.8,4.8,0,0,0-4,2.05,16.26,16.26,0,0,0-2.42,6.38V416H396.6v-30h4l.46,6.1A11.61,11.61,0,0,1,404,387a6.16,6.16,0,0,1,4.31-1.71A9.86,9.86,0,0,1,411,385.6Z"/><rect class="cls-2" x="132.08" y="121.34" width="235.99" height="18.89"/><rect class="cls-2" x="132.08" y="145.27" width="155.99" height="62.68"/><rect class="cls-2" x="293.71" y="145.27" width="74.36" height="62.68"/><rect class="cls-2" x="174.49" y="213.23" width="71.29" height="55"/><rect class="cls-2" x="251.92" y="213.23" width="71.29" height="55"/><rect class="cls-2" x="174.49" y="258.39" width="71.29" height="20.02"/><rect class="cls-2" x="251.92" y="258.39" width="71.29" height="20.02"/><rect class="cls-3" x="122.08" y="258.23" width="256" height="30"/><path class="cls-2" d="M135.07,95.71a4,4,0,1,0-2.82-1.17,4,4,0,0,0,2.82,1.17Z"/><path class="cls-2" d="M147.85,95.71A4,4,0,1,0,145,94.54a4,4,0,0,0,2.82,1.17Z"/><path class="cls-2" d="M160.63,95.71a4,4,0,1,0-2.82-1.17,4,4,0,0,0,2.82,1.17Z"/><path class="cls-2" d="M177.67,95.71H339.52a4,4,0,1,0,0-8H177.67a4,4,0,1,0,0,8Z"/><path class="cls-2" d="M356.56,95.71h8.52a4,4,0,0,0,0-8h-8.52a4,4,0,0,0,0,8Z"/><path class="cls-2" d="M365.08,70.69h-230a21,21,0,0,0-21,21v181a21.06,21.06,0,0,0,21,21h230a21.06,21.06,0,0,0,21-21v-181a21,21,0,0,0-21-21Zm-230,8h230a13.07,13.07,0,0,1,13.05,13v13H122v-13a13.06,13.06,0,0,1,13-13Zm230,207.12h-230a13.06,13.06,0,0,1-13-13.05v-160h256.1v160a13.07,13.07,0,0,1-13.05,13.05Z"/></g></g></svg>