<svg xmlns="http://www.w3.org/2000/svg" version="1.0" viewBox="0 0 344 344">
  <path d="M166.9 42a121 121 0 0 0-87 53.6l-4 6.1-12.7-3.3C49.9 94.9 45 94.3 45 96.1c0 1.3 5.4 8.1 10 12.6a632 632 0 0 0 7.8 7.6c3.1 3.1 4.1 4.7 3.7 6.2a124 124 0 0 0-3.6 64 119.8 119.8 0 0 0 112.3 95.1l11.7.7 2.3 4.6c1.3 2.5 3 4.6 3.8 4.6.9 0 2.9 3.6 5.5 10 3.5 8.8 4.3 10 6.4 9.9 1.7-.1 3 1.1 5.2 4.7 3.9 6.2 6.9 7.4 6.9 2.7 0-1.7.1-1.7 2 .2 1.1 1.1 2.7 2 3.6 2 2.7 0 1-5.3-7.6-24.1-6.8-15.1-7.7-17.5-6.2-18.1.9-.4 4.9-1.6 8.7-2.8a120.2 120.2 0 0 0-50.6-234zm29.7 4.1c43.2 6 80.4 37 94.3 78.5a117.2 117.2 0 0 1-14.2 102.9 154.3 154.3 0 0 1-26.7 27.6c-11.1 8.4-36 19.9-43 19.9-1.3 0-4.8-7.1-14.4-29.5-11.3-26.3-13.8-33.6-11.3-32.8.4.2 2.3.3 4.2.3 3.9 0 5.5 2.1 3.5 4.5-.9 1.1-1.7 1.2-3.1.4-2.8-1.4-2.5 1.2.4 3.9 1.8 1.7 3 2 6.2 1.5 4.9-.8 6.5-2.3 6.5-6 0-5.2-4.6-10.3-9.3-10.3-2.9 0-2.8-.1 3.9-7.3 8.6-9 12-16.8 13.9-32.5 1.7-13.5 4.4-21.3 9.2-26.6 2.1-2.4 4.6-5.7 5.6-7.5l1.7-3.3 10.3.6c20.7 1.2 29 1.2 29.4-.1.5-1.5-3.5-2.6-20.8-5.8-10-1.8-13.7-2.9-14.4-4.2-4.1-7.2-12.7-11.3-23.6-11.3-10.6 0-15.4 3.5-19.4 14-2.9 7.6-10.5 16.4-10.5 12.2 0-3.3-2.6-7.8-7.4-13.1-2.3-2.5-6.9-8.4-10.2-13a92 92 0 0 0-25.9-25.8c-4.9-3.3-11-7.7-13.4-9.7-2.7-2.2-5.2-3.6-6.5-3.4-1.9.3-2.1.9-1.8 5.3.2 2.7.8 5.4 1.3 6 .5.5.9 2.2.9 3.7 0 1.6.7 4.5 1.5 6.5.8 1.9 1.5 4.7 1.5 6.2s.6 3.5 1.4 4.6c.7 1.1 1.7 3.6 2.1 5.5a14 14 0 0 0 2 5c1.3 1.5 3 6 2.3 6l-13.4-5.3a360 360 0 0 0-21.1-8.1l-8.3-2.8 1.5-2.8a120.4 120.4 0 0 1 82-53.9c8.7-1.2 24.2-1.3 33.1 0zM73.2 126a11 11 0 0 0 4.4 4.2c1.4.7 4.1 2.6 6 4.3a69.1 69.1 0 0 0 11.9 9.5c.4 0 2.3 1.3 4.2 3 1.8 1.6 3.9 3 4.5 3 .5 0 2.6 1.3 4.5 3a15 15 0 0 0 4.3 3c.6 0 3.5 1.9 6.4 4.2 3 2.4 7.1 5.4 9.1 6.8 2 1.4 4.6 3.5 5.8 4.7a36 36 0 0 0 18.5 8.3c2.3 0 4.2.1 4.2.3 0 3.4 3.6 22.4 5 26.6 1.1 3.1 2.7 10.1 3.5 15.6 1 5.8 2.6 11.8 4 14.5 1.3 2.5 3.6 9.9 5.1 16.5 3.3 15.1 5 19.4 8 20.6 1.3.4 2.4 1.6 2.4 2.5 0 1.5-1.2 1.6-11.7 1.1-14.9-.7-28.2-4.1-41.9-10.6a104.7 104.7 0 0 1-31.2-21.5A114.8 114.8 0 0 1 70.9 123c.3 0 1.4 1.4 2.3 3z"/>
</svg>
