<?xml version="1.0" standalone="no"?>
<!DOCTYPE svg PUBLIC "-//W3C//DTD SVG 20010904//EN"
 "http://www.w3.org/TR/2001/REC-SVG-20010904/DTD/svg10.dtd">
<svg version="1.0" xmlns="http://www.w3.org/2000/svg"
 width="344.000000pt" height="344.000000pt" viewBox="0 0 344.000000 344.000000"
 preserveAspectRatio="xMidYMid meet">
<metadata>
Created by potrace 1.16, written by Peter Selinger 2001-2019
</metadata>
<g transform="translate(0.000000,344.000000) scale(0.100000,-0.100000)"
fill="#000000" stroke="none">
<path d="M1669 3020 c-353 -41 -678 -240 -870 -536 l-40 -61 -127 33 c-133 35
-182 41 -182 23 0 -13 54 -81 100 -126 19 -19 54 -53 78 -76 31 -31 41 -47 37
-62 -70 -242 -80 -426 -36 -640 98 -470 459 -828 936 -930 39 -8 123 -18 187
-21 l117 -7 23 -46 c13 -25 30 -46 38 -46 9 0 29 -36 55 -100 35 -88 43 -100
64 -99 17 1 30 -11 52 -47 39 -62 69 -74 69 -27 0 17 1 17 20 -2 11 -11 27
-20 36 -20 27 0 10 53 -76 241 -68 151 -77 175 -62 181 9 4 49 16 87 28 341
105 633 383 756 719 214 587 -36 1223 -591 1504 -190 95 -454 142 -671 117z
m297 -41 c432 -60 804 -370 943 -785 116 -345 63 -726 -142 -1029 -53 -78
-185 -214 -267 -276 -111 -84 -360 -199 -430 -199 -13 0 -48 71 -144 295 -113
263 -138 336 -113 328 4 -2 23 -3 42 -3 39 0 55 -21 35 -45 -9 -11 -17 -12
-31 -4 -28 14 -25 -12 4 -39 18 -17 30 -20 62 -15 49 8 65 23 65 60 0 52 -46
103 -93 103 -29 0 -28 1 39 73 86 90 120 168 139 325 17 135 44 213 92 266 21
24 46 57 56 75 l17 33 103 -6 c207 -12 290 -12 294 1 5 15 -35 26 -208 58
-100 18 -137 29 -144 42 -41 72 -127 113 -236 113 -106 0 -154 -35 -194 -140
-29 -76 -105 -164 -105 -122 0 33 -26 78 -74 131 -23 25 -69 84 -102 130 -82
116 -153 187 -259 258 -49 33 -110 77 -134 97 -27 22 -52 36 -65 34 -19 -3
-21 -9 -18 -53 2 -27 8 -54 13 -60 5 -5 9 -22 9 -37 0 -16 7 -45 15 -65 8 -19
15 -47 15 -62 0 -15 6 -35 14 -46 7 -11 17 -36 21 -55 4 -19 13 -42 20 -50 13
-15 30 -60 23 -60 -2 0 -62 24 -134 53 -71 30 -166 66 -211 81 l-83 28 15 28
c25 48 129 172 198 237 168 157 402 270 622 302 87 12 242 13 331 0z m-1234
-799 c9 -17 29 -35 44 -42 14 -7 41 -26 60 -43 56 -51 111 -95 119 -95 4 0 23
-13 42 -30 18 -16 39 -30 45 -30 5 0 26 -13 45 -30 18 -16 38 -30 43 -30 6 0
35 -19 64 -42 30 -24 71 -54 91 -68 20 -14 46 -35 58 -47 37 -38 138 -83 185
-83 23 0 42 -1 42 -3 0 -34 36 -224 50 -266 11 -31 27 -101 35 -156 10 -58 26
-118 40 -145 13 -25 36 -99 51 -165 33 -151 50 -194 80 -206 13 -4 24 -16 24
-25 0 -15 -12 -16 -117 -11 -149 7 -282 41 -419 106 -132 63 -209 116 -312
215 -106 102 -169 186 -231 306 -137 268 -167 551 -89 843 11 42 23 77 27 77
3 0 14 -14 23 -30z"/>
</g>
</svg>
