<svg xmlns="http://www.w3.org/2000/svg" viewBox="0 0 512 512">
  <path d="M438.28743,139.05686a25.9212,25.9212,0,0,0-3.27319-9.66114,76.34053,76.34053,0,0,0-6.62681-9.75175,34.18409,34.18409,0,0,0-3.412-3.6425l-95.8762-96.6946-.16758-.16095c-1.12362-1.0275-6.86282-6.22983-9.51763-7.77562l-.35261-.2055A34.03933,34.03933,0,0,0,310.264,7.31414a48.88441,48.88441,0,0,0-6.72214-.8129L73.03551,6.4893,90.44174,360.87857,254.94743,506,419.826,360.9599l19.127-215.528.04076-.45536-.04815-.4565S438.56877,140.92588,438.28743,139.05686Zm-29.34152-20.10712c-12.64278,0-66.543-.41573-76.54578-1.196a.54749.54749,0,0,1-.53137-.5183L329.973,46.16969a108.09451,108.09451,0,0,0-1.91414-20.8385l93.985,94.65515A80.45826,80.45826,0,0,0,408.94591,118.94974Z" style="fill: #414652"/>
</svg>
