<svg xmlns="http://www.w3.org/2000/svg" viewBox="0 0 512 512"><path fill="#414652" d="M438.287 139.057a25.921 25.921 0 0 0-3.273-9.661 76.34 76.34 0 0 0-6.627-9.752 34.184 34.184 0 0 0-3.412-3.643L329.1 19.307l-.167-.161c-1.124-1.028-6.863-6.23-9.518-7.776l-.353-.205a34.04 34.04 0 0 0-8.797-3.85 48.884 48.884 0 0 0-6.722-.814L73.036 6.49l17.406 354.39L254.947 506l164.879-145.04 19.127-215.528.04-.455-.047-.457s-.377-3.594-.659-5.463zm-29.341-20.107c-12.643 0-66.543-.416-76.546-1.196a.547.547 0 0 1-.531-.519l-1.896-71.065a108.095 108.095 0 0 0-1.914-20.839l93.985 94.655a80.458 80.458 0 0 0-13.098-1.036z"/></svg>