<svg xmlns="http://www.w3.org/2000/svg" width="272.49" height="70.736">
    <defs>
        <style>
            .a{fill:#90b628}.b{fill:#ffab08}.c{fill:#dc001d}.d{fill:#30b3da}.e{fill:#363685}.g{fill:#49b9db}
        </style>
    </defs>
    <path d="M32.205 67.218a.549.549 0 0 1-.43.65l-5.38 1.31a.547.547 0 0 1-.68-.38l-1.47-6.06a.557.557 0 0 1 .43-.65l5.38-1.3a.547.547 0 0 1 .68.38Z" class="a"/>
    <path d="M30.115 58.608a.549.549 0 0 1-.43.65l-5.38 1.31a.547.547 0 0 1-.68-.38l-1.47-6.06a.557.557 0 0 1 .43-.65l5.38-1.31a.555.555 0 0 1 .68.38Z" class="b"/>
    <path d="M22.175 60.538a.549.549 0 0 1-.43.65l-5.38 1.31a.547.547 0 0 1-.68-.38l-1.47-6.06a.549.549 0 0 1 .43-.65l5.38-1.3a.547.547 0 0 1 .68.38Z" class="c"/>
    <path d="M28.025 49.998a.549.549 0 0 1-.43.65l-5.38 1.3a.547.547 0 0 1-.68-.38l-1.47-6.06a.557.557 0 0 1 .43-.65l5.38-1.31a.547.547 0 0 1 .68.38Z" class="d"/>
    <path d="M20.085 51.928a.549.549 0 0 1-.43.65l-5.38 1.3a.547.547 0 0 1-.68-.38l-1.47-6.06a.549.549 0 0 1 .43-.65l5.38-1.31a.547.547 0 0 1 .68.38Z" class="a"/>
    <path d="M16.305 64.668a.549.549 0 0 1 .43-.65l5.38-1.31a.547.547 0 0 1 .68.38l1.47 6.06a.549.549 0 0 1-.43.65l-2.92.71-.32.08c-1.65.43-3-.03-3.34-1.99-.03-.1-.05-.21-.08-.33l-.09-.35c-.34-1.45-.78-3.25-.78-3.25" class="d"/>
    <path d="M35.305 66.458a.546.546 0 0 0 .68.37l5.37-1.34a.549.549 0 0 0 .43-.65l-1.5-6.05a.546.546 0 0 0-.68-.37l-5.37 1.33a.549.549 0 0 0-.43.65Z" class="c"/>
    <path d="M33.175 57.848a.546.546 0 0 0 .68.37l5.37-1.34a.549.549 0 0 0 .43-.65l-1.5-6.05a.546.546 0 0 0-.68-.37l-5.37 1.34a.549.549 0 0 0-.43.65Z" class="a"/>
    <path d="M41.095 55.878a.546.546 0 0 0 .68.37l5.37-1.33a.549.549 0 0 0 .43-.65l-1.5-6.05a.546.546 0 0 0-.68-.37l-5.37 1.34a.549.549 0 0 0-.43.65Z" class="b"/>
    <path d="M31.035 49.248a.546.546 0 0 0 .68.37l5.37-1.33a.549.549 0 0 0 .43-.65l-1.5-6.05a.546.546 0 0 0-.68-.37l-5.37 1.33a.549.549 0 0 0-.43.65Z" class="e"/>
    <path d="M38.965 47.278a.546.546 0 0 0 .68.37l5.37-1.34a.549.549 0 0 0 .43-.65l-1.5-6.05a.546.546 0 0 0-.68-.37l-5.37 1.33a.549.549 0 0 0-.43.65ZM48.215 56.828a.546.546 0 0 0-.68-.37l-5.37 1.34a.549.549 0 0 0-.43.65l1.5 6.05a.546.546 0 0 0 .68.37l2.91-.73.32-.08c1.66-.39 2.64-1.42 2.03-3.31-.02-.1-.05-.21-.08-.33l-.09-.35c-.35-1.45-.79-3.24-.79-3.24M94.11 26.739v24.77c0 9.5-6.22 15.27-16.36 15.27-6.29 0-11.49-1.92-13.73-4.88a3.712 3.712 0 0 1-.71-2.18 3.132 3.132 0 0 1 2.98-3.28 2.943 2.943 0 0 1 .42.01 3.176 3.176 0 0 1 2.18.9 12.014 12.014 0 0 0 8.66 3.02c5.9 0 9.5-3.27 9.5-8.53v-2.5h-.13c-2.44 2.89-6.1 4.43-10.72 4.43-9.05 0-14.95-6.22-14.95-15.59s5.9-15.59 14.95-15.59c4.62 0 8.28 1.54 10.72 4.43h.13v-.26c0-2.31 1.35-3.79 3.47-3.79 2.25-.02 3.59 1.45 3.59 3.77Zm-7.05 11.42c0-5.52-3.72-9.11-9.56-9.11-5.39 0-9.05 3.59-9.05 9.11s3.66 9.11 9.05 9.11c5.83 0 9.56-3.6 9.56-9.11ZM130.94 26.729v24.19a3.419 3.419 0 0 1-3.3 3.53h-.29a3.352 3.352 0 0 1-3.47-3.23v-.75h-.13c-2.18 2.76-5.58 4.36-10.01 4.36-8.41 0-12.96-5-12.96-14.24v-13.86c0-2.31 1.35-3.79 3.53-3.79s3.53 1.48 3.53 3.79v13.09c0 5.58 2.7 8.53 7.64 8.53 5.2 0 8.41-3.59 8.41-9.56v-12.06c0-2.31 1.35-3.79 3.53-3.79s3.52 1.48 3.52 3.79ZM158.6 26.289a3.3 3.3 0 0 1-3.05 3.53 3.84 3.84 0 0 1-.48 0c-6.16 0-9.75 3.27-9.75 10.78v10.08c0 2.38-1.28 3.79-3.53 3.79-2.18 0-3.53-1.41-3.53-3.79v-23.94c0-2.31 1.35-3.79 3.53-3.79 2.25 0 3.53 1.48 3.53 3.79v1.16h.13c1.92-3.34 5.2-5.13 9.62-5.13a3.3 3.3 0 0 1 3.53 3.05 3.692 3.692 0 0 1 0 .47ZM194.47 26.739v23.93c0 2.38-1.35 3.79-3.59 3.79-2.12 0-3.47-1.41-3.47-3.79v-.32h-.13c-2.37 2.89-6.03 4.49-10.65 4.49-9.05 0-15.02-6.42-15.02-16.11 0-9.75 5.97-16.17 15.02-16.17 4.62 0 8.28 1.6 10.65 4.49h.13v-.32c0-2.31 1.35-3.79 3.47-3.79 2.24.01 3.59 1.48 3.59 3.8Zm-7.06 12c0-5.71-3.85-9.69-9.37-9.69-5.45 0-9.24 3.91-9.24 9.69 0 5.71 3.79 9.62 9.24 9.62 5.52 0 9.37-3.98 9.37-9.62ZM233.41 12.549v38.11c0 2.38-1.35 3.79-3.59 3.79-2.12 0-3.47-1.41-3.47-3.79v-.32h-.13c-2.37 2.89-6.03 4.49-10.65 4.49-9.05 0-15.02-6.42-15.02-16.11 0-9.75 5.97-16.17 15.02-16.17 4.62 0 8.28 1.6 10.65 4.49h.13v-14.5c0-2.31 1.35-3.79 3.47-3.79a3.445 3.445 0 0 1 3.59 3.8Zm-7.06 26.18c0-5.71-3.85-9.69-9.37-9.69-5.45 0-9.24 3.91-9.24 9.69 0 5.71 3.79 9.62 9.24 9.62 5.52.01 9.37-3.97 9.37-9.62ZM256 22.559c9.75 0 16.49 6.54 16.49 16.17 0 9.56-6.74 16.11-16.49 16.11-9.82 0-16.49-6.54-16.49-16.11 0-9.62 6.67-16.17 16.49-16.17Zm0 25.8c5.58 0 9.3-3.91 9.3-9.62 0-5.78-3.72-9.69-9.3-9.69-5.52 0-9.3 3.91-9.3 9.69-.01 5.71 3.78 9.62 9.3 9.62Z" class="d"/>
    <path d="M25.725 40.158a.557.557 0 0 1-.43.65l-5.41 1.31a.555.555 0 0 1-.68-.38l-1.47-6.09a.556.556 0 0 1 .44-.65l5.41-1.31a.555.555 0 0 1 .68.38Z" class="e"/>
    <path d="M23.625 31.498a.557.557 0 0 1-.43.65l-5.41 1.31a.547.547 0 0 1-.68-.38l-1.47-6.09a.556.556 0 0 1 .44-.65l5.41-1.31a.555.555 0 0 1 .68.38Z" class="d"/>
    <path d="M17.745 42.098a.557.557 0 0 1-.43.65l-5.41 1.31a.555.555 0 0 1-.68-.38l-1.47-6.09a.557.557 0 0 1 .43-.65l5.41-1.31a.555.555 0 0 1 .68.38Z" class="b"/>
    <path d="M15.645 33.428a.557.557 0 0 1-.43.65l-5.41 1.31a.555.555 0 0 1-.68-.38l-1.47-6.09a.557.557 0 0 1 .43-.65l5.41-1.31a.555.555 0 0 1 .68.38Z" class="c"/>
    <path fill="#3e3685" d="M1.125 36.938a.56.56 0 0 0 .68.38l5.41-1.31a.564.564 0 0 0 .44-.65l-1.47-6.09a.56.56 0 0 0-.68-.38l-2.94.71-.32.08c-1.67.38-2.67 1.41-2.07 3.32.02.1.05.22.08.33s.06.23.09.35c.35 1.45.78 3.26.78 3.26"/>
    <path d="M1.755 39.508a.557.557 0 0 1 .43-.65l5.41-1.31a.547.547 0 0 1 .68.38l1.47 6.09a.556.556 0 0 1-.44.65l-2.94.71-.32.08c-1.66.43-3.02-.04-3.36-2.01-.03-.11-.05-.22-.08-.33l-.08-.35c-.33-1.45-.77-3.26-.77-3.26" class="d"/>
    <path d="M4.955 25.039a1.123 1.123 0 0 1-1.1-1.13 1.108 1.108 0 0 1 1.02-1.09 65.094 65.094 0 0 0 10.3-1.51c-5.77-.8-9.22-3.71-9.78-6.72-.44-2.37.98-4.4 3.7-5.29a7.819 7.819 0 0 1 7.89 1.96c2.69 2.43 4.59 6.61 4.08 8.96-.26 1.19-1.48 2.71-8.65 3.93-3.68.63-7.22.89-7.37.9h-.09Zm6.46-13.9a5.066 5.066 0 0 0-1.63.27c-.96.32-2.52 1.1-2.21 2.78.42 2.26 4.2 5.27 11.35 5.11a10.723 10.723 0 0 0-3.44-6.4 6.155 6.155 0 0 0-4.07-1.76ZM26.096 20.566c-1.63 0-2.97-.4-3.67-1.44-1.78-2.64-2.71-10.51-.5-15.2a6.2 6.2 0 0 1 5.06-3.89 5.537 5.537 0 0 1 6.04 4.33 11.391 11.391 0 0 1-.98 8.04 16.094 16.094 0 0 1-5.15 5.93 42.5 42.5 0 0 0 11.31-3.65 1.114 1.114 0 1 1 .98 2c-.01.01-.02.01-.04.02-2.38 1.08-8.75 3.86-13.05 3.86Zm1.52-18.36c-.13 0-.27.01-.41.02a4.014 4.014 0 0 0-3.27 2.63c-1.85 3.94-1.05 10.33.11 12.64 6.57-3.68 7.71-9.57 6.85-12.52a3.484 3.484 0 0 0-3.28-2.77Z" class="g"/>
    <path d="M28.575 39.418a.552.552 0 0 0 .69.37l5.4-1.35a.549.549 0 0 0 .43-.65l-1.52-6.08a.552.552 0 0 0-.69-.37l-5.4 1.35a.549.549 0 0 0-.43.65Z" class="a"/>
    <path d="M26.415 30.768a.552.552 0 0 0 .69.37l5.4-1.35a.549.549 0 0 0 .43-.65l-1.52-6.08a.552.552 0 0 0-.69-.37l-5.4 1.35a.549.549 0 0 0-.43.65Z" class="b"/>
    <path d="M36.545 37.428a.552.552 0 0 0 .69.37l5.4-1.35a.549.549 0 0 0 .43-.65l-1.52-6.08a.552.552 0 0 0-.69-.37l-5.4 1.35a.549.549 0 0 0-.43.65Z" class="c"/>
    <path d="M34.385 28.778a.552.552 0 0 0 .69.37l5.4-1.35a.549.549 0 0 0 .43-.65l-1.52-6.08a.552.552 0 0 0-.69-.37l-5.4 1.35a.549.549 0 0 0-.43.65Z" class="g"/>
    <path d="M48.875 25.168a.549.549 0 0 1-.43.65l-5.4 1.35a.556.556 0 0 1-.69-.37l-1.52-6.08a.549.549 0 0 1 .43-.65l2.93-.73.32-.08c1.66-.44 3.02.01 3.37 1.98l.08.33c.03.11.06.23.09.35l.82 3.25" class="a"/>
    <path d="M49.515 27.728a.552.552 0 0 0-.69-.37l-5.4 1.35a.549.549 0 0 0-.43.65l1.52 6.08a.552.552 0 0 0 .69.37l2.93-.73.32-.08c1.67-.39 2.66-1.43 2.04-3.34-.03-.11-.05-.22-.08-.33s-.06-.23-.09-.35l-.81-3.25" class="d"/>
</svg>
