<svg xmlns="http://www.w3.org/2000/svg" viewBox="0 0 100 100"><linearGradient id="A" x1="49.9" x2="49.9" y1="0" y2="100" gradientUnits="userSpaceOnUse"><stop offset="0" stop-color="#ef5491"/><stop offset="1" stop-color="#d43f79"/></linearGradient><path fill="url(#A)" d="M-.1 5.8C-.1 2.7 2.5.1 5.6.1h88.6c3.1 0 5.7 2.6 5.7 5.7v88.6c0 3.1-2.6 5.7-5.7 5.7H5.6a6 6 0 01-5.7-5.8V5.8z"/><path d="M89 87.7c0-.3-.2-.6-.6-.6s-.8.3-.7.6c.1.4.2.7.7.7.3.1.6-.2.6-.7zm3-1c-.4-.1-.8.5-.4.7.2.2 1.1.4 1.5.7 1.1.7 1.7 1.3 2 2.3.4 1.9 0 5-2.6 5-.7 0-1.6-.3-2-1-.4-.9.2-2.3 1.2-2.5 1.2-.2 1.7.7.7 1.3-1.9 1.1 1 .9 1.5-.1.6-1.2-.6-2.3-2-2.2-1.1.1-2.1.8-2.4 1.8-.9 2.4 1.4 4.4 3.7 4 2.5-.4 3.4-3.1 3.2-5.4-.2-2.4-1.9-3.9-4.4-4.6zm-1.9.5c-.2-.2-.1-.6-.1-.8 0-.1.1-.6-.1-.6h-.4c-.5 0-1.1.2-1.6.5a4 4 0 0 0-1.9 3l4.4.1c.3 0 .5.7-.4.7l-4.2-.1c-.5 0-.6-.2-.5-.6v-.3a4.4 4.4 0 0 1 4.9-3.9c.4 0 .5.1.5.5v1.1c.1.6-.6.4-.6.4z" opacity=".7" fill-rule="evenodd" fill="#fff"/><g fill="#fff"><path d="M31.6 28.9c.8 0 1.5-.7 1.5-1.5v-2.1c0-.8-.7-1.5-1.5-1.5s-1.5.7-1.5 1.5v2.1c.1.9.7 1.5 1.5 1.5zM31.6 38.5c.8 0 1.5-.7 1.5-1.5v-2.1c0-.8-.7-1.5-1.5-1.5s-1.5.7-1.5 1.5V37c.1.9.7 1.5 1.5 1.5zM35.4 32.7h2.1c.8 0 1.5-.7 1.5-1.5s-.7-1.4-1.5-1.4h-2.1c-.8 0-1.5.7-1.5 1.5s.6 1.4 1.5 1.4zM25.8 32.7h2.1c.8 0 1.5-.7 1.5-1.5s-.7-1.4-1.5-1.4h-2.1c-.8 0-1.5.7-1.5 1.5s.7 1.4 1.5 1.4z" opacity=".8"/><path d="M73.6 58c-.8 0-1.5.7-1.5 1.5v2.1c0 .8.7 1.5 1.5 1.5s1.5-.7 1.5-1.5v-2.1c0-.8-.7-1.5-1.5-1.5zM73.6 67.7c-.8 0-1.5.7-1.5 1.5v2.1c0 .8.7 1.5 1.5 1.5s1.5-.7 1.5-1.5v-2.1c0-.8-.7-1.5-1.5-1.5zM79.5 63.9h-2.1c-.8 0-1.5.7-1.5 1.5s.7 1.5 1.5 1.5h2.1c.8 0 1.5-.7 1.5-1.5s-.7-1.5-1.5-1.5zM69.8 63.9h-2.1c-.8 0-1.5.7-1.5 1.5s.7 1.5 1.5 1.5h2.1c.8 0 1.5-.7 1.5-1.5s-.7-1.5-1.5-1.5z" opacity=".8" class="F"/><path d="M68.2 43.6c0-.8-.3-1.5-.8-2l-5.5-5.5a2.8 2.8 0 0 0-4 0L25.5 68.6a1.57 1.57 0 0 0 0 2.2c.3.3.7.5 1.1.5s.8-.2 1.1-.5l22.5-22.5 5.1 5.1-5.3 5.2a1.57 1.57 0 0 0 0 2.2 1.57 1.57 0 0 0 2.2 0l15.1-15.1c.6-.6.9-1.3.9-2.1zm-3.2 0l-7.6 7.6-5.1-5.1 7.6-7.6 5.1 5.1zM45.5 67c0-.4-.2-.8-.5-1.1a1.57 1.57 0 0 0-2.2 0L20.6 88l-5.1-5.1 4.9-4.9c.3-.3.5-.7.5-1.1s-.2-.8-.5-1.1a1.57 1.57 0 0 0-2.2 0l-5.1 5.1a2.8 2.8 0 0 0 0 4l5.5 5.5c.5.5 1.2.8 2 .8s1.5-.3 2-.8L45 68.1c.3-.3.5-.7.5-1.1zm3.1-2.6c.3-.3.5-.7.5-1.1s-.2-.8-.5-1.1a1.57 1.57 0 0 0-2.2 0c-.3.3-.5.7-.5 1.1s.2.8.5 1.1.7.5 1.1.5c.5-.1.9-.2 1.1-.5zm-26.8 7.9c-.3.3-.5.7-.5 1.1s.2.8.5 1.1.7.5 1.1.5.8-.2 1.1-.5.5-.7.5-1.1-.2-.8-.5-1.1a1.57 1.57 0 0 0-2.2 0z"/><path d="M81.7 37.8a4.7 4.7 0 1 0 0 9.4 4.7 4.7 0 0 0 0-9.4zm0 6.2a1.58 1.58 0 1 1 0-3.2 1.58 1.58 0 1 1 0 3.2z" opacity=".7" class="F"/><path d="M55.2 74.4a4.7 4.7 0 1 0 4.7 4.7 4.8 4.8 0 0 0-4.7-4.7zm0 6.1a1.58 1.58 0 1 1 0-3.2 1.58 1.58 0 0 1 1.6 1.6c-.1.9-.8 1.6-1.6 1.6zm-36-68.6c-1.9 0-3.5 1.6-3.5 3.5s1.6 3.5 3.5 3.5 3.5-1.6 3.5-3.5-1.6-3.5-3.5-3.5zm0 4.7c-.6 0-1.2-.5-1.2-1.2 0-.6.5-1.2 1.2-1.2.6 0 1.2.5 1.2 1.2s-.5 1.2-1.2 1.2z" opacity=".3" class="F"/><path d="M22.9 56.2a5 5 0 005-5c0-2.7-2.2-5-5-5s-5 2.2-5 5a5 5 0 005 5zm0-6.6c.9 0 1.7.7 1.7 1.7 0 .9-.7 1.7-1.7 1.7-.9 0-1.7-.7-1.7-1.7.1-1 .8-1.7 1.7-1.7z" opacity=".7" class="F"/><path d="M46 19.9a7.5 7.5 0 012-5.3 7.8 7.8 0 015.6-2.2c1.6 0 2.9.3 4 1s1.9 1.6 2.5 2.7l-3.6 1.1c-.3-.5-.7-.9-1.2-1.2-.5-.3-1.1-.4-1.7-.4a4 4 0 00-1.5.3c-.5.2-.9.5-1.2.9-.3.4-.6.8-.8 1.4a5.7 5.7 0 000 3.6l.8 1.4c.3.4.7.7 1.2.9a3.7 3.7 0 003.3-.2c.6-.3.9-.7 1.2-1.2l3.6 1.1c-.5 1.1-1.3 2-2.4 2.7-1.1.7-2.5 1-4.1 1a7.8 7.8 0 01-5.6-2.2 6 6 0 01-1.5-2.4 8 8 0 01-.6-3zM67.8 27.4c-1.2 0-2.4-.2-3.5-.6a9.6 9.6 0 01-3-1.6l1.4-2.3a11 11 0 002.6 1.4c.8.3 1.7.5 2.5.5.7 0 1.3-.1 1.7-.4s.6-.7.6-1.2-.2-.9-.7-1.1l-2.4-.8-2.4-.7c-.7-.2-1.2-.5-1.6-.8l-.9-1c-.2-.4-.3-.9-.3-1.4 0-.7.1-1.4.4-2 .3-.6.7-1.1 1.2-1.5s1.1-.7 1.8-.9a9.4 9.4 0 015.2.2c.9.3 1.8.8 2.6 1.5l-1.5 2.2c-.7-.5-1.4-1-2.1-1.2a5 5 0 00-2-.4 3 3 0 00-1.6.4c-.4.3-.6.7-.6 1.2l.2.6.5.4.9.4 1.3.4 2.5.8c.7.3 1.3.5 1.7.9.4.3.8.7 1 1.1.2.4.3.9.3 1.6 0 1.4-.5 2.5-1.6 3.3-1 .6-2.4 1-4.2 1zM81.4 27.4c-1.2 0-2.4-.2-3.5-.6a9.6 9.6 0 01-3-1.6l1.4-2.3a11 11 0 002.6 1.4c.8.3 1.7.5 2.5.5.7 0 1.3-.1 1.7-.4.4-.3.6-.7.6-1.2s-.2-.9-.7-1.1l-2.4-.8-2.4-.7c-.7-.2-1.2-.5-1.6-.8l-.9-1c-.2-.4-.3-.9-.3-1.4 0-.7.1-1.4.4-2s.7-1.1 1.2-1.5a5 5 0 011.8-.9 9.4 9.4 0 015.2.2c.9.3 1.8.8 2.6 1.5l-1.5 2.2c-.7-.5-1.4-1-2.1-1.2-.7-.3-1.4-.4-2-.4s-1.1.1-1.6.4c-.4.3-.6.7-.6 1.2l.2.6.5.4.9.4 1.3.4 2.5.8c.7.3 1.3.5 1.7.9.4.3.8.7 1 1.1.2.4.3.9.3 1.6 0 1.4-.5 2.5-1.6 3.3-1 .6-2.4 1-4.2 1z" opacity=".6"/></g></svg>