<svg id="Ebene_1" xmlns="http://www.w3.org/2000/svg" viewBox="0 0 100 100"><style>.st2,.st3{fill:#fff}.st3{opacity:.8}.st4,.st5{opacity:.7;fill:#fff}.st5{opacity:.3}</style><linearGradient id="SVGID_1_" gradientUnits="userSpaceOnUse" x1="50" y1="0" x2="50" y2="100"><stop offset="0" stop-color="#ef5491"/><stop offset="1" stop-color="#d43f79"/></linearGradient><path d="M95 100H5a5 5 0 01-5-5V5a5 5 0 015-5h90a5 5 0 015 5v90a5 5 0 01-5 5z" fill="url(#SVGID_1_)"/><g opacity=".8"><path class="st2" d="M31.5 29.1c.8 0 1.5-.7 1.5-1.5v-2.1c0-.8-.7-1.5-1.5-1.5s-1.5.7-1.5 1.5v2.1c.1.9.7 1.5 1.5 1.5zM31.5 38.7c.8 0 1.5-.7 1.5-1.5v-2.1c0-.8-.7-1.5-1.5-1.5s-1.5.7-1.5 1.5v2.1c.1.9.7 1.5 1.5 1.5zM35.3 32.9h2.1c.8 0 1.5-.7 1.5-1.5s-.7-1.4-1.5-1.4h-2.1c-.8 0-1.5.7-1.5 1.5s.6 1.4 1.5 1.4zM25.7 32.9h2.1c.8 0 1.5-.7 1.5-1.5s-.7-1.4-1.5-1.4h-2.1c-.8 0-1.5.7-1.5 1.5s.7 1.4 1.5 1.4z"/></g><path class="st3" d="M73.6 58.2c-.8 0-1.5.7-1.5 1.5v2.1c0 .8.7 1.5 1.5 1.5s1.5-.7 1.5-1.5v-2.1c0-.8-.7-1.5-1.5-1.5zM73.6 67.9c-.8 0-1.5.7-1.5 1.5v2.1c0 .8.7 1.5 1.5 1.5s1.5-.7 1.5-1.5v-2.1c0-.8-.7-1.5-1.5-1.5zM79.5 64.1h-2.1c-.8 0-1.5.7-1.5 1.5s.7 1.5 1.5 1.5h2.1c.8 0 1.5-.7 1.5-1.5s-.7-1.5-1.5-1.5zM69.8 64.1h-2.1c-.8 0-1.5.7-1.5 1.5s.7 1.5 1.5 1.5h2.1c.8 0 1.5-.7 1.5-1.5s-.7-1.5-1.5-1.5z"/><path class="st2" d="M68.2 43.8c0-.8-.3-1.5-.8-2l-5.5-5.5a2.8 2.8 0 00-4 0L25.4 68.8c-.6.6-.6 1.6 0 2.2.3.3.7.5 1.1.5.4 0 .8-.2 1.1-.5l22.5-22.5 5.1 5.1-5.2 5.2c-.6.6-.6 1.6 0 2.2.6.6 1.6.6 2.2 0l15.1-15.1c.6-.6.9-1.3.9-2.1zm-3.2 0l-7.6 7.6-5.1-5.1 7.6-7.6 5.1 5.1zM45.4 67.2c0-.4-.2-.8-.5-1.1-.6-.6-1.6-.6-2.2 0L20.5 88.3l-5.1-5.1 4.9-4.9c.3-.3.5-.7.5-1.1s-.2-.8-.5-1.1c-.6-.6-1.6-.6-2.2 0L13 81.2a2.8 2.8 0 000 4l5.5 5.5c.5.5 1.2.8 2 .8s1.5-.3 2-.8l22.4-22.4c.3-.3.5-.7.5-1.1z"/><path class="st2" d="M48.5 64.6c.3-.3.5-.7.5-1.1s-.2-.8-.5-1.1c-.6-.6-1.6-.6-2.2 0-.3.3-.5.7-.5 1.1s.2.8.5 1.1c.3.3.7.5 1.1.5.5-.1.9-.2 1.1-.5zM21.7 72.5c-.3.3-.5.7-.5 1.1 0 .4.2.8.5 1.1.3.3.7.5 1.1.5.4 0 .8-.2 1.1-.5.3-.3.5-.7.5-1.1 0-.4-.2-.8-.5-1.1-.6-.6-1.6-.6-2.2 0z"/><path class="st4" d="M81.7 38a4.7 4.7 0 100 9.4 4.7 4.7 0 000-9.4zm0 6.2c-.9 0-1.6-.7-1.6-1.6 0-.9.7-1.6 1.6-1.6.9 0 1.6.7 1.6 1.6 0 .9-.7 1.6-1.6 1.6z"/><path class="st5" d="M55.2 74.6a4.7 4.7 0 104.7 4.7 4.8 4.8 0 00-4.7-4.7zm0 6.2c-.9 0-1.6-.7-1.6-1.6 0-.9.7-1.6 1.6-1.6.9 0 1.6.7 1.6 1.6-.1.9-.8 1.6-1.6 1.6zM19.1 12.1a3.5 3.5 0 00-3.5 3.5c0 1.9 1.6 3.5 3.5 3.5s3.5-1.6 3.5-3.5-1.6-3.5-3.5-3.5zm0 4.7c-.6 0-1.2-.5-1.2-1.2 0-.6.5-1.2 1.2-1.2.6 0 1.2.5 1.2 1.2s-.5 1.2-1.2 1.2z"/><path class="st4" d="M22.8 56.4a5 5 0 005-5c0-2.7-2.2-5-5-5s-5 2.2-5 5a5 5 0 005 5zm0-6.6c.9 0 1.7.7 1.7 1.7 0 .9-.7 1.7-1.7 1.7-.9 0-1.7-.7-1.7-1.7.1-1 .8-1.7 1.7-1.7z"/><g opacity=".6"><path class="st2" d="M45.9 20.1a7.5 7.5 0 012-5.3 7.8 7.8 0 015.6-2.2c1.6 0 2.9.3 4 1s1.9 1.6 2.5 2.7l-3.6 1.1c-.3-.5-.7-.9-1.2-1.2-.5-.3-1.1-.4-1.7-.4a4 4 0 00-1.5.3c-.5.2-.9.5-1.2.9s-.6.8-.8 1.4a5.7 5.7 0 000 3.6l.8 1.4c.3.4.7.7 1.2.9a3.7 3.7 0 003.3-.2c.6-.3.9-.7 1.2-1.2l3.6 1.1c-.5 1.1-1.3 2-2.4 2.7-1.1.7-2.5 1-4.1 1a7.8 7.8 0 01-5.6-2.2 6 6 0 01-1.5-2.4 8 8 0 01-.6-3zM67.8 27.6c-1.2 0-2.4-.2-3.5-.6a9.6 9.6 0 01-3-1.6l1.4-2.3a11 11 0 002.6 1.4c.8.3 1.7.5 2.5.5.7 0 1.3-.1 1.7-.4.4-.3.6-.7.6-1.2s-.2-.9-.7-1.1l-2.4-.8-2.4-.7c-.7-.2-1.2-.5-1.6-.8a4 4 0 01-.9-1c-.2-.4-.3-.9-.3-1.4 0-.7.1-1.4.4-2 .3-.6.7-1.1 1.2-1.5a5 5 0 011.8-.9 9.4 9.4 0 015.2.2c.9.3 1.8.8 2.6 1.5l-1.5 2.2c-.7-.5-1.4-1-2.1-1.2a5 5 0 00-2-.4 3 3 0 00-1.6.4c-.4.3-.6.7-.6 1.2l.2.6.5.4.9.4 1.3.4 2.5.8c.7.3 1.3.5 1.7.9.4.3.8.7 1 1.1.2.4.3.9.3 1.6 0 1.4-.5 2.5-1.6 3.3-1 .6-2.4 1-4.2 1zM81.4 27.6c-1.2 0-2.4-.2-3.5-.6a9.6 9.6 0 01-3-1.6l1.4-2.3a11 11 0 002.6 1.4c.8.3 1.7.5 2.5.5.7 0 1.3-.1 1.7-.4.4-.3.6-.7.6-1.2s-.2-.9-.7-1.1l-2.4-.8-2.4-.7c-.7-.2-1.2-.5-1.6-.8a4 4 0 01-.9-1c-.2-.4-.3-.9-.3-1.4 0-.7.1-1.4.4-2 .3-.6.7-1.1 1.2-1.5a5 5 0 011.8-.9 9.4 9.4 0 015.2.2c.9.3 1.8.8 2.6 1.5l-1.5 2.2c-.7-.5-1.4-1-2.1-1.2a5 5 0 00-2-.4 3 3 0 00-1.6.4c-.4.3-.6.7-.6 1.2l.2.6.5.4.9.4 1.3.4 2.5.8c.7.3 1.3.5 1.7.9.4.3.8.7 1 1.1.2.4.3.9.3 1.6 0 1.4-.5 2.5-1.6 3.3-1 .6-2.4 1-4.2 1z"/></g></svg>