<svg xmlns="http://www.w3.org/2000/svg" data-name="Ebene 1" viewBox="0 0 800 800"><rect width="800" height="800" fill="#34495e" rx="30" ry="30"/><g fill="#f6f6f6"><path d="M57.41 310.14c-3.36 2.3-5.71 4.91-7.05 7.85l-.16-8.17zm3.04 39.63h-9.53L50.68 330c1.12 2.35 3.08 4.18 5.88 5.48 2.8 1.31 6.66 1.69 11.57 1.16 1.39-.16 2.55-.25 3.48-.28s1.71.04 2.32.2 1.11.41 1.48.76q.555.525.96 1.32c.43 1.07.37 2.1-.16 3.08-.53.99-1.82 1.94-3.84 2.84-.96.43-2.02.8-3.16 1.12-1.15.32-2.28.57-3.4.76q-1.68.285-3.24.36c-1.04.05-1.96.03-2.76-.08l.64 3.04Zm14.41-38.67 12.41.4 6.56 38.27H82.94c3.31-2.61 5.38-5.48 6.2-8.61q1.245-4.68-.84-9.33c-1.44-2.93-3.51-5.06-6.2-6.36-2.7-1.31-6.36-1.75-11.01-1.32-1.44.16-2.67.27-3.68.32s-1.87.03-2.56-.08-1.25-.32-1.68-.64-.77-.72-1.04-1.2c-.43-1.01-.36-2.01.2-3s1.61-1.83 3.16-2.52c1.76-.8 3.59-1.33 5.48-1.6s3.43-.35 4.6-.24l-.72-4.08Z"/><path d="M102 310.78c-4.27 1.28-7.74 3.5-10.41 6.64v-7.21l10.41.56Zm-10.41 36.59c.37.43.73.81 1.08 1.16s.68.71 1 1.08h-2.08zm16.74-28.18q2.235-.165 3.96.84c1.15.67 2.12 1.59 2.92 2.76s1.43 2.51 1.88 4c.45 1.5.76 3.04.92 4.64.37 4-.09 7.25-1.4 9.73s-3.32 3.86-6.04 4.12c-2.88.27-5.18-.77-6.89-3.12s-2.75-5.39-3.12-9.13c-.16-1.6-.13-3.19.08-4.76s.63-3.01 1.24-4.32 1.44-2.39 2.48-3.24 2.36-1.36 3.96-1.52Zm22.65 5.84c-.85-3.04-2.18-5.67-3.96-7.89-1.79-2.21-3.99-4.02-6.6-5.4l10.57.72v12.57Zm-6.32 24.58c1.39-1.28 2.64-2.73 3.76-4.36s1.97-3.45 2.56-5.48v9.85h-6.32ZM140.51 311.26l-1.84 38.11-7.45.56 1.12-38.35zm11.85-.4 18.65-.72-2.88 36.51-17.53 1.6zM209.44 310.06v41.15l-9.61-.48 1.68-32.98-12.41-.64-1.52 32.9-13.53-.72-2.08-40.43 18.01.64c.53.91 1.27 1.64 2.2 2.2q1.395.84 3.24.84c1.39.11 2.6-.11 3.64-.64s1.85-1.25 2.44-2.16l7.93.32ZM227.77 315.66q-2.64-.165-5.16.6a14.4 14.4 0 0 0-4.64 2.4c-1.41 1.09-2.67 2.44-3.76 4.04s-1.94 3.44-2.52 5.52v-16.17l26.02-2-.4 10.09h-.16c-.8-1.23-1.99-2.25-3.56-3.08s-3.51-1.29-5.8-1.4Zm-16.09 26.5c.43 1.49 1.01 2.87 1.76 4.12s1.6 2.34 2.56 3.24l-4.32.16v-7.53Zm24.42-2.56c-.43 1.6-1.25 2.87-2.48 3.8s-2.64 1.38-4.24 1.32c-2.4-.16-4.26-1.16-5.56-3-1.31-1.84-1.88-4.31-1.72-7.41q.165-4.32 2.28-7.17c1.41-1.89 3.4-2.79 5.96-2.68 1.71.11 3.12.72 4.24 1.84s1.81 2.43 2.08 3.92c.05.37.08.75.08 1.12v.96l-.24 4.72c0 .8-.13 1.65-.4 2.56Zm.96 8.73h-.56l.4-.4h.16zm13.77-39.23-2.48 38.67h-1.04c0-.8.03-1.6.08-2.4s.08-1.6.08-2.4l1.6-33.78 1.76-.08ZM290.38 348.09l.32 2.96-39.63-2.72v-23.14l5.12 21.22 10.97.56 4.56-13.21c.48-1.71.97-3.48 1.48-5.32s1-3.96 1.48-6.36h.16c.27 2.4.53 4.52.8 6.36s.61 3.72 1.04 5.64l2.96 13.45 10.73.56Zm-27.54-11.29c-.27-2.24-.53-4.4-.8-6.48s-.53-4.08-.8-6l-2-13.13 11.37-.56-4.24 14.01c-.59 1.87-1.17 3.83-1.76 5.88-.59 2.06-1.15 4.15-1.68 6.28h-.08Zm17.69-26.66 7.21-.24.96 14.73v.4c-.59 2.14-1.12 4.28-1.6 6.44s-.93 4.31-1.36 6.44h-.16c-.21-2.24-.51-4.42-.88-6.52-.37-2.11-.77-4.28-1.2-6.52l-2.96-14.73ZM302.15 310.78c-4.27 1.28-7.74 3.5-10.41 6.64v-7.21l10.41.56Zm-10.41 36.59c.37.43.73.81 1.08 1.16s.68.71 1 1.08h-2.08zm16.73-28.18q2.235-.165 3.96.84c1.15.67 2.12 1.59 2.92 2.76s1.43 2.51 1.88 4c.45 1.5.76 3.04.92 4.64.37 4-.09 7.25-1.4 9.73s-3.32 3.86-6.04 4.12c-2.88.27-5.18-.77-6.89-3.12s-2.75-5.39-3.12-9.13c-.16-1.6-.13-3.19.08-4.76s.63-3.01 1.24-4.32 1.44-2.39 2.48-3.24 2.36-1.36 3.96-1.52Zm22.66 5.84c-.85-3.04-2.18-5.67-3.96-7.89-1.79-2.21-3.99-4.02-6.6-5.4l10.57.72v12.57Zm-6.33 24.58c1.39-1.28 2.64-2.73 3.76-4.36s1.97-3.45 2.56-5.48v9.85h-6.32Z"/><path d="m338.97 348.81-3.92-.24-5.2-39.79 10.81.48c0 1.6-.01 3.36-.04 5.28s-.12 4.19-.28 6.8l-1.36 27.46Zm17.61-38.83c-.75.69-1.47 1.5-2.16 2.4-.69.91-1.25 1.98-1.68 3.2h-.4v-5.76zm10.97.4h1.6l1.92 39.79-18.49-.72.88-20.41c.11-.53.17-1.05.2-1.56s.12-.97.28-1.4c.53-2.08 1.63-3.71 3.28-4.88s3.76-1.71 6.32-1.6c1.39.16 2.56.35 3.52.56l.48-9.77ZM375.24 348.01l-2.88-.16-1.6-37.95h1.12zm10.57-37.71 24.66 1.04v1.84l-12.01 1.04-7.77 14.17c-.43.85-.88 1.75-1.36 2.68s-.91 1.91-1.28 2.92h-.24l-2-23.7Zm12.08 39.15-8.81-.56-.16-3.2 3.04-4.64 5.92 8.41Zm12.73-30.58.4 25.7-10.25-12.41z"/></g><g fill="#f6f6f6"><path d="M59.68 395.61h33.76v5.9H66.67v17.04h22.62v5.9H66.67v19.79h27.6v5.9H59.68V395.6ZM120.71 429.2l-14.13-19.46h7.57l6.4 8.81a92 92 0 0 0 4.74 6.82h.33c1.5-2.16 3.16-4.66 4.57-6.9l5.99-8.73h7.32l-14.3 20.04 15.47 20.37h-7.65l-6.98-9.31c-1.75-2.25-3.58-4.99-5.32-7.32h-.33c-1.66 2.41-3.33 4.82-4.99 7.4l-6.65 9.23h-7.32l15.3-20.95ZM167.1 434.44v-19.12h-11.47v-5.16l11.72-.42.91-12.97H174v12.97h19.79v5.57H174v19.21c0 7.23 2.41 10.97 10.23 10.97 3.74 0 6.73-.75 9.64-1.83l1.5 5.07c-3.66 1.33-7.57 2.41-12.64 2.41-11.81 0-15.63-6.74-15.63-16.71ZM211.91 409.74h5.74l.67 9.56h.17c4.24-6.57 10.56-10.56 18.04-10.56 2.99 0 5.49.42 7.98 1.66l-1.58 5.9c-2.83-.92-4.32-1.33-7.48-1.33-6.07 0-11.81 3.08-16.63 11.56v23.61h-6.9v-40.41ZM256.39 439.67c0-9.06 8.48-13.47 29.35-15.13-.25-5.49-2.91-10.14-10.73-10.14-5.24 0-10.39 2.49-14.13 4.82l-2.74-4.66c4.16-2.66 10.98-5.82 18.04-5.82 11.06 0 16.46 6.57 16.46 16.63v24.78h-5.74l-.58-5.49h-.25c-4.41 3.49-10.23 6.49-15.88 6.49-7.57 0-13.8-4.24-13.8-11.47Zm29.35-.08v-10.48c-17.29 1.33-22.53 4.74-22.53 10.06 0 4.57 4.16 6.4 8.81 6.4s9.06-2.16 13.72-5.99ZM358.98 395.61h33.76v5.9h-26.77v17.04h22.62v5.9h-22.62v19.79h27.6v5.9h-34.59V395.6ZM419.84 436.6v-40.08h-14.3v-5.57h21.2v46.15c0 5.82 3.16 8.31 7.98 8.31 2.33 0 4.82-.58 7.57-1.83l1.75 5.16c-3.74 1.58-6.4 2.41-10.81 2.41-8.65 0-13.39-4.99-13.39-14.55M454.92 429.86c0-13.14 9.81-21.12 20.62-21.12 11.64 0 18.46 7.57 18.46 18.96 0 1.58-.17 3.08-.33 4.16H459.5v-5.32h30.1l-1.75 1.91c0-9.56-4.74-14.3-12.14-14.3s-13.97 5.65-13.97 15.71 6.82 15.8 15.8 15.8c4.82 0 8.65-1.5 12.31-3.82l2.49 4.49c-3.99 2.66-9.15 4.82-15.63 4.82-12.14 0-21.78-7.82-21.78-21.29ZM503.97 409.74h5.49l.58 5.32h.17c2.08-3.74 4.57-6.32 9.23-6.32 3.99 0 6.49 2.33 7.65 6.98 2.33-4.32 4.82-6.98 9.48-6.98 5.65 0 8.98 4.41 8.98 12.47v28.93h-6.82V421.7c0-4.66-1.33-7.07-4.32-7.07-2.83 0-4.32 2.08-6.49 6.24v29.27h-6.32V421.7c0-4.66-1.16-7.07-4.16-7.07-2.83 0-4.66 2.08-6.65 6.24v29.27h-6.82v-40.41ZM554.69 429.86c0-13.14 9.81-21.12 20.62-21.12 11.64 0 18.46 7.57 18.46 18.96 0 1.58-.17 3.08-.33 4.16h-34.17v-5.32h30.1l-1.75 1.91c0-9.56-4.74-14.3-12.14-14.3s-13.97 5.65-13.97 15.71 6.82 15.8 15.8 15.8c4.82 0 8.65-1.5 12.31-3.82l2.49 4.49c-3.99 2.66-9.15 4.82-15.63 4.82-12.14 0-21.78-7.82-21.78-21.29ZM606.65 409.74h5.65l.58 6.82h.33c4.24-4.41 8.9-7.82 15.22-7.82 9.56 0 13.97 5.65 13.97 16.3v25.11h-6.9v-24.2c0-7.65-2.66-11.22-9.23-11.22-4.82 0-8.06 2.41-12.72 7.23v28.19h-6.9zM665.93 434.44v-19.12h-11.47v-5.16l11.72-.42.92-12.97h5.74v12.97h19.79v5.57h-19.79v19.21c0 7.23 2.41 10.97 10.23 10.97 3.74 0 6.73-.75 9.64-1.83l1.5 5.07c-3.66 1.33-7.57 2.41-12.64 2.41-11.81 0-15.63-6.74-15.63-16.71ZM704.59 444.83l3.16-4.57c4.66 3.33 10.14 5.49 17.54 5.49 6.82 0 10.14-2.83 10.14-6.24 0-3.08-1.58-5.24-12.55-7.48-10.56-2.16-15.8-5.74-15.8-11.81 0-6.49 5.74-11.47 16.8-11.47 6.15 0 12.3 2.41 16.3 5.16l-3.33 4.41c-3.74-2.58-8.4-4.24-13.55-4.24-6.82 0-9.31 2.74-9.31 5.82 0 3.49 3.49 4.99 11.81 6.73 13.39 2.91 16.63 6.24 16.63 12.47 0 6.57-6.4 12.06-17.96 12.06-7.9 0-14.97-2.91-19.87-6.32Z"/></g></svg>
