<svg xmlns="http://www.w3.org/2000/svg" data-name="Ebene 1" viewBox="0 0 800 800"><path fill="#34495e" stroke="#1d1d1b" stroke-miterlimit="10" d="M0 0h800v800H0z"/><g fill="#ecf0f1"><path d="M60.91 221.84c-12.25 8.36-20.8 17.89-25.66 28.57l-.58-29.74 26.24 1.17Zm11.08 144.32h-34.7l-.88-72.02c4.08 8.56 11.23 15.21 21.43 19.97 10.2 4.77 24.25 6.17 42.13 4.23 5.05-.58 9.28-.92 12.68-1.02 3.4-.1 6.22.15 8.46.73 2.23.58 4.03 1.51 5.39 2.77 1.36 1.27 2.52 2.87 3.5 4.81 1.55 3.89 1.36 7.63-.58 11.23-1.95 3.6-6.61 7.05-14 10.35-3.5 1.56-7.34 2.92-11.52 4.08-4.18 1.17-8.31 2.09-12.39 2.77-4.08.68-8.02 1.12-11.81 1.31-3.79.2-7.14.1-10.06-.29l2.33 11.08Zm52.48-140.82 45.19 1.46 23.91 139.37h-39.65c12.05-9.52 19.58-19.97 22.6-31.34 3.01-11.37 1.99-22.69-3.06-33.97-5.25-10.69-12.78-18.42-22.6-23.18-9.82-4.76-23.18-6.37-40.09-4.81-5.25.58-9.72.98-13.41 1.17-3.69.2-6.81.1-9.33-.29-2.53-.39-4.57-1.17-6.12-2.33a13.662 13.662 0 0 1-3.79-4.37c-1.56-3.69-1.31-7.33.73-10.93 2.04-3.59 5.88-6.66 11.52-9.18a72.178 72.178 0 0 1 19.97-5.83c6.9-.97 12.49-1.26 16.77-.87l-2.62-14.87Z"/><path d="M223.31 224.17c-15.55 4.67-28.19 12.73-37.9 24.2v-26.24l37.9 2.04Zm-37.9 133.25c1.36 1.56 2.67 2.97 3.94 4.23 1.26 1.27 2.48 2.58 3.64 3.94h-7.58v-8.16Zm60.93-102.64c5.44-.39 10.25.63 14.43 3.06s7.73 5.79 10.64 10.06c2.92 4.28 5.2 9.14 6.85 14.58a88.226 88.226 0 0 1 3.35 16.91c1.36 14.58-.34 26.39-5.1 35.43-4.77 9.04-12.1 14.04-22.01 15.02-10.5.97-18.86-2.82-25.07-11.37-6.22-8.55-10.01-19.63-11.37-33.24-.58-5.83-.49-11.61.29-17.35.77-5.73 2.28-10.98 4.52-15.74 2.23-4.76 5.25-8.7 9.04-11.81 3.79-3.11 8.6-4.96 14.43-5.54Zm82.52 21.29c-3.11-11.08-7.92-20.65-14.43-28.72-6.51-8.06-14.53-14.62-24.05-19.68l38.49 2.62v45.78Zm-23.04 89.51c5.05-4.67 9.62-9.96 13.7-15.89s7.19-12.58 9.33-19.97v35.86h-23.03ZM363.55 225.92l-6.71 138.79-27.12 2.04 4.08-139.66 29.74-1.17Zm43.16-1.46 67.94-2.62-10.5 132.96-63.85 5.83 6.41-136.16ZM614.6 221.55v149.87l-34.99-1.75 6.12-120.13-45.19-2.33L535 367.04l-49.28-2.62-7.58-147.24 65.6 2.33c1.94 3.31 4.62 5.98 8.02 8.02 3.4 2.04 7.33 3.06 11.81 3.06 5.05.39 9.48-.39 13.27-2.33 3.79-1.94 6.75-4.57 8.89-7.87l28.87 1.17ZM681.36 241.96c-6.41-.39-12.68.34-18.81 2.19-6.12 1.85-11.76 4.77-16.91 8.75-5.15 3.99-9.72 8.89-13.7 14.72-3.99 5.83-7.05 12.54-9.18 20.12v-58.9l94.76-7.29-1.46 36.74h-.58c-2.92-4.47-7.24-8.21-12.98-11.23-5.74-3.01-12.78-4.71-21.14-5.1Zm-58.6 96.5c1.55 5.44 3.69 10.45 6.42 15.02 2.72 4.57 5.83 8.51 9.33 11.81l-15.75.58v-27.41Zm88.93-9.33c-1.56 5.83-4.57 10.45-9.04 13.85-4.47 3.4-9.62 5.01-15.45 4.81-8.75-.58-15.5-4.23-20.26-10.93-4.76-6.71-6.85-15.7-6.27-26.97.39-10.5 3.16-19.19 8.31-26.1 5.15-6.9 12.39-10.15 21.72-9.77 6.22.39 11.37 2.62 15.45 6.71 4.08 4.08 6.61 8.85 7.58 14.29.19 1.36.29 2.72.29 4.08v3.5l-.88 17.2c0 2.92-.49 6.03-1.46 9.33Zm3.5 31.79h-2.04l1.46-1.46h.58v1.46Zm50.15-142.87-9.04 140.83h-3.79c0-2.92.1-5.83.29-8.75.19-2.92.29-5.83.29-8.75l5.83-123.04 6.41-.29ZM180.45 572.04l1.17 10.79-144.33-9.91v-84.26l18.66 77.27 39.94 2.04 16.62-48.11c1.75-6.22 3.54-12.68 5.39-19.39 1.85-6.71 3.64-14.43 5.39-23.18h.58c.97 8.75 1.94 16.47 2.92 23.18.97 6.71 2.23 13.56 3.79 20.56l10.79 48.98 39.07 2.04Zm-100.3-41.11c-.97-8.16-1.95-16.04-2.92-23.62-.98-7.58-1.95-14.87-2.92-21.87l-7.29-47.82 41.4-2.04-15.45 51.03c-2.14 6.81-4.28 13.95-6.41 21.43-2.14 7.49-4.18 15.12-6.12 22.89h-.29Zm64.44-97.09 26.24-.88 3.5 53.65v1.46c-2.14 7.78-4.08 15.6-5.83 23.47-1.75 7.87-3.4 15.7-4.96 23.47h-.58c-.78-8.16-1.85-16.08-3.21-23.76-1.36-7.68-2.82-15.6-4.37-23.76l-10.79-53.65ZM223.31 436.17c-15.55 4.67-28.19 12.73-37.9 24.2v-26.24l37.9 2.04Zm-37.9 133.25c1.36 1.56 2.67 2.97 3.94 4.23 1.26 1.27 2.48 2.58 3.64 3.94h-7.58v-8.16Zm60.93-102.64c5.44-.39 10.25.63 14.43 3.06s7.73 5.79 10.64 10.06c2.92 4.28 5.2 9.14 6.85 14.58a88.226 88.226 0 0 1 3.35 16.91c1.36 14.58-.34 26.39-5.1 35.43-4.77 9.04-12.1 14.04-22.01 15.02-10.5.97-18.86-2.82-25.07-11.37-6.22-8.55-10.01-19.63-11.37-33.24-.58-5.83-.49-11.61.29-17.35.77-5.73 2.28-10.98 4.52-15.74 2.23-4.76 5.25-8.7 9.04-11.81 3.79-3.11 8.6-4.96 14.43-5.54Zm82.52 21.29c-3.11-11.08-7.92-20.65-14.43-28.72-6.51-8.06-14.53-14.62-24.05-19.68l38.49 2.62v45.78Zm-23.04 89.51c5.05-4.67 9.62-9.96 13.7-15.89s7.19-12.58 9.33-19.97v35.86h-23.03Z"/><path d="m357.43 574.67-14.29-.88-18.95-144.91 39.36 1.75c0 5.83-.05 12.25-.15 19.24-.1 7-.44 15.26-1.02 24.78l-4.96 100.01Zm64.15-141.42c-2.72 2.53-5.35 5.44-7.87 8.75-2.53 3.31-4.57 7.19-6.12 11.66h-1.46v-20.99l15.45.58Zm39.94 1.46h5.83l7 144.91L407 577l3.21-74.35c.39-1.94.63-3.84.73-5.69.1-1.85.44-3.54 1.02-5.1 1.94-7.58 5.93-13.51 11.95-17.79 6.02-4.27 13.7-6.22 23.03-5.83 5.05.58 9.33 1.27 12.83 2.04l1.75-35.57ZM489.51 571.75l-10.5-.58-5.83-138.2h4.08l12.25 138.79ZM528 434.42l89.8 3.79v6.71l-43.74 3.79-28.28 51.61c-1.56 3.11-3.21 6.37-4.96 9.77a95.1 95.1 0 0 0-4.67 10.64h-.87l-7.29-86.3ZM572.03 577l-32.07-2.04-.58-11.66 11.08-16.91L572.04 577Zm46.36-111.38 1.46 93.59-37.32-45.19 35.86-48.4Z"/></g></svg>