<svg xmlns="http://www.w3.org/2000/svg" data-name="Ebene 1" viewBox="0 0 800 800"><rect width="800" height="800" fill="#34495e" rx="30" ry="30"/><g fill="#f6f6f6"><path d="M61.08 230.47c-7.2 4.92-12.23 10.52-15.09 16.81l-.34-17.49 15.43.69Zm6.52 84.89H47.19L46.68 273c2.4 5.03 6.6 8.95 12.6 11.75q9 4.2 24.78 2.49c2.97-.34 5.46-.54 7.46-.6s3.66.09 4.97.43 2.37.89 3.17 1.63 1.48 1.69 2.06 2.83c.91 2.29.8 4.49-.34 6.6-1.14 2.12-3.89 4.15-8.23 6.09-2.06.92-4.32 1.71-6.77 2.4-2.46.69-4.89 1.23-7.29 1.63s-4.72.66-6.94.77c-2.23.12-4.2.06-5.92-.17l1.37 6.52Zm30.87-82.83 26.58.86 14.06 81.97h-23.32c7.09-5.6 11.52-11.75 13.29-18.43q2.655-10.035-1.8-19.98c-3.09-6.29-7.52-10.83-13.29-13.63s-13.63-3.74-23.58-2.83q-4.635.51-7.89.69c-2.17.12-4 .06-5.49-.17s-2.69-.69-3.6-1.37a8 8 0 0 1-2.23-2.57c-.92-2.17-.77-4.31.43-6.43 1.2-2.11 3.46-3.91 6.77-5.4 3.77-1.71 7.69-2.86 11.75-3.43s7.34-.74 9.86-.51l-1.54-8.75Z"/><path d="M156.6 231.84c-9.15 2.74-16.58 7.49-22.29 14.23v-15.43zm-22.29 78.37c.8.92 1.57 1.74 2.31 2.49s1.46 1.52 2.14 2.31h-4.46v-4.8Zm35.84-60.36q4.8-.345 8.49 1.8c2.46 1.43 4.54 3.4 6.26 5.92 1.71 2.52 3.06 5.38 4.03 8.57.97 3.2 1.63 6.52 1.97 9.95.8 8.57-.2 15.52-3 20.83-2.8 5.32-7.12 8.26-12.95 8.83-6.17.57-11.09-1.66-14.75-6.69s-5.89-11.55-6.69-19.55c-.34-3.43-.29-6.83.17-10.2s1.34-6.46 2.66-9.26c1.31-2.8 3.09-5.11 5.32-6.94s5.06-2.92 8.49-3.26m48.53 12.52q-2.745-9.78-8.49-16.89c-3.83-4.74-8.55-8.6-14.15-11.57l22.64 1.54zm-13.55 52.64c2.97-2.74 5.66-5.86 8.06-9.35s4.23-7.4 5.49-11.75V315h-13.55ZM239.08 232.87l-3.94 81.63-15.95 1.2 2.4-82.14zm25.38-.85 39.96-1.54-6.17 78.2-37.55 3.43 3.77-80.08ZM386.73 230.3v88.14l-20.58-1.03 3.6-70.65-26.58-1.37-3.26 70.48-28.98-1.54-4.46-86.6 38.58 1.37c1.14 1.95 2.71 3.52 4.72 4.72 2 1.2 4.31 1.8 6.94 1.8 2.97.23 5.57-.23 7.8-1.37s3.97-2.68 5.23-4.63l16.98.69ZM426 242.31c-3.77-.23-7.46.2-11.06 1.29s-6.92 2.8-9.95 5.14-5.72 5.23-8.06 8.66-4.15 7.37-5.4 11.83v-34.64l55.73-4.29-.86 21.61h-.34c-1.71-2.63-4.26-4.83-7.63-6.6s-7.52-2.77-12.43-3m-34.47 56.76c.91 3.2 2.17 6.15 3.77 8.83 1.6 2.69 3.43 5 5.49 6.94l-9.26.34v-16.12Zm52.3-5.49c-.92 3.43-2.69 6.15-5.32 8.15s-5.66 2.94-9.09 2.83c-5.14-.34-9.12-2.49-11.92-6.43s-4.03-9.23-3.69-15.86c.23-6.17 1.86-11.29 4.89-15.35s7.29-5.97 12.78-5.74c3.66.23 6.69 1.54 9.09 3.94s3.88 5.2 4.46 8.4c.11.8.17 1.6.17 2.4v2.06l-.51 10.12c0 1.71-.29 3.54-.86 5.49Zm2.06 18.69h-1.2l.86-.86h.34zm29.5-84.03-5.32 82.83h-2.23c0-1.71.06-3.43.17-5.14s.17-3.43.17-5.14l3.43-72.37 3.77-.17ZM131.39 440.28l.69 6.34-84.88-5.83v-49.56l10.97 45.44 23.49 1.2 9.77-28.29c1.03-3.66 2.08-7.46 3.17-11.4s2.14-8.49 3.17-13.63h.34c.57 5.14 1.14 9.69 1.71 13.63s1.31 7.97 2.23 12.09l6.35 28.81 22.98 1.2ZM72.4 416.1q-.855-7.2-1.71-13.89c-.57-4.46-1.14-8.75-1.71-12.86l-4.29-28.12 24.35-1.2-9.09 30.01c-1.26 4-2.52 8.2-3.77 12.6-1.26 4.4-2.46 8.89-3.6 13.46h-.17Zm37.9-57.11 15.43-.51 2.06 31.55v.86c-1.26 4.57-2.4 9.17-3.43 13.8s-2 9.23-2.92 13.8h-.34q-.69-7.2-1.89-13.98c-.8-4.51-1.66-9.17-2.57-13.98l-6.34-31.55ZM156.6 360.36c-9.15 2.74-16.58 7.49-22.29 14.23v-15.43zm-22.29 78.37c.8.92 1.57 1.74 2.31 2.49s1.46 1.52 2.14 2.31h-4.46v-4.8Zm35.84-60.36q4.8-.345 8.49 1.8c2.46 1.43 4.54 3.4 6.26 5.92 1.71 2.52 3.06 5.38 4.03 8.57.97 3.2 1.63 6.52 1.97 9.95.8 8.57-.2 15.52-3 20.83-2.8 5.32-7.12 8.26-12.95 8.83-6.17.57-11.09-1.66-14.75-6.69s-5.89-11.55-6.69-19.55c-.34-3.43-.29-6.83.17-10.2s1.34-6.46 2.66-9.26c1.31-2.8 3.09-5.11 5.32-6.94s5.06-2.92 8.49-3.26m48.53 12.52q-2.745-9.78-8.49-16.89c-3.83-4.74-8.55-8.6-14.15-11.57l22.64 1.54zm-13.55 52.64c2.97-2.74 5.66-5.86 8.06-9.35s4.23-7.4 5.49-11.75v21.09h-13.55Z"/><path d="m235.48 441.82-8.4-.51-11.15-85.23 23.15 1.03c0 3.43-.03 7.2-.09 11.32q-.09 6.18-.6 14.58l-2.92 58.82Zm37.73-83.17a41 41 0 0 0-4.63 5.14c-1.49 1.95-2.69 4.23-3.6 6.86h-.86V358.3l9.09.34Zm23.49.86h3.43l4.12 85.23-39.61-1.54 1.89-43.73c.23-1.14.37-2.26.43-3.34.06-1.09.26-2.08.6-3 1.14-4.46 3.49-7.94 7.03-10.46 3.54-2.51 8.06-3.66 13.55-3.43 2.97.34 5.49.74 7.55 1.2l1.03-20.92ZM313.16 440.1l-6.17-.34-3.43-81.28h2.4l7.2 81.63Zm22.64-80.76 52.82 2.23v3.94l-25.72 2.23-16.63 30.35c-.92 1.83-1.89 3.75-2.92 5.74-1.03 2-1.95 4.09-2.74 6.26h-.51l-4.29-50.76Zm25.89 83.85-18.86-1.2-.34-6.86 6.52-9.95 12.69 18.01Zm27.27-65.51.86 55.05-21.95-26.58z"/></g><g fill="#f6f6f6"><path d="M47.54 510.41h34.95v6.58H54.77v18.98h23.41v6.58H54.77v22.04h28.58v6.58H47.54v-60.75ZM110.71 547.82l-14.63-21.67h7.83l6.63 9.82c1.46 2.5 3.19 5.19 4.91 7.59h.34c1.55-2.41 3.27-5.19 4.73-7.69l6.2-9.72h7.57l-14.81 22.32 16.01 22.69h-7.92l-7.23-10.37c-1.81-2.5-3.7-5.56-5.51-8.15h-.34c-1.72 2.69-3.44 5.37-5.16 8.24l-6.89 10.28h-7.57zM158.74 553.66v-21.3h-11.88v-5.74l12.14-.46.95-14.45h5.94v14.45h20.49v6.2h-20.49v21.39c0 8.06 2.5 12.22 10.59 12.22 3.87 0 6.97-.83 9.98-2.04l1.55 5.65c-3.79 1.48-7.83 2.69-13.08 2.69-12.22 0-16.18-7.5-16.18-18.61ZM205.13 526.15h5.94l.69 10.65h.17c4.39-7.32 10.93-11.76 18.68-11.76 3.1 0 5.68.46 8.26 1.85l-1.64 6.58c-2.93-1.02-4.48-1.48-7.75-1.48-6.28 0-12.22 3.43-17.21 12.87v26.3h-7.14zM251.18 559.49c0-10.09 8.78-15 30.38-16.85-.26-6.11-3.01-11.3-11.1-11.3-5.42 0-10.76 2.78-14.63 5.37l-2.84-5.19c4.3-2.96 11.36-6.48 18.68-6.48 11.45 0 17.04 7.32 17.04 18.52v27.6h-5.94l-.6-6.11h-.26c-4.56 3.89-10.59 7.22-16.44 7.22-7.83 0-14.29-4.72-14.29-12.78m30.38-.09v-11.67c-17.9 1.48-23.33 5.28-23.33 11.21 0 5.09 4.3 7.13 9.12 7.13s9.38-2.41 14.2-6.67ZM357.39 510.41h34.95v6.58h-27.72v18.98h23.41v6.58h-23.41v22.04h28.58v6.58h-35.81v-60.75ZM420.4 556.06v-44.64h-14.81v-6.21h21.95v51.4c0 6.48 3.27 9.26 8.26 9.26 2.41 0 4.99-.65 7.83-2.04l1.81 5.74c-3.87 1.76-6.63 2.69-11.19 2.69-8.95 0-13.86-5.56-13.86-16.21ZM456.72 548.56c0-14.63 10.16-23.52 21.35-23.52 12.05 0 19.11 8.43 19.11 21.11 0 1.76-.17 3.43-.34 4.63h-35.38v-5.93h31.16l-1.81 2.13c0-10.65-4.91-15.93-12.57-15.93s-14.46 6.3-14.46 17.5 7.06 17.59 16.35 17.59c4.99 0 8.95-1.67 12.74-4.26l2.58 5c-4.13 2.96-9.47 5.37-16.18 5.37-12.57 0-22.55-8.71-22.55-23.71ZM507.5 526.15h5.68l.6 5.93h.17c2.15-4.17 4.73-7.04 9.55-7.04 4.13 0 6.71 2.59 7.92 7.78 2.41-4.82 4.99-7.78 9.81-7.78 5.85 0 9.3 4.91 9.3 13.89v32.23h-7.06v-31.67c0-5.19-1.38-7.87-4.48-7.87-2.93 0-4.48 2.32-6.71 6.95v32.6h-6.54V539.5c0-5.19-1.21-7.87-4.3-7.87-2.93 0-4.82 2.32-6.89 6.95v32.6h-7.06v-45.01ZM560 548.56c0-14.63 10.16-23.52 21.35-23.52 12.05 0 19.11 8.43 19.11 21.11 0 1.76-.17 3.43-.34 4.63h-35.38v-5.93h31.16l-1.81 2.13c0-10.65-4.91-15.93-12.57-15.93s-14.46 6.3-14.46 17.5 7.06 17.59 16.35 17.59c4.99 0 8.95-1.67 12.74-4.26l2.58 5c-4.13 2.96-9.47 5.37-16.18 5.37-12.57 0-22.55-8.71-22.55-23.71ZM613.79 526.15h5.85l.6 7.59h.34c4.39-4.91 9.21-8.7 15.75-8.7 9.9 0 14.46 6.3 14.46 18.15v27.97h-7.14v-26.95c0-8.52-2.75-12.5-9.55-12.5-4.99 0-8.35 2.69-13.17 8.06v31.39h-7.14zM675.16 553.66v-21.3h-11.88v-5.74l12.14-.46.95-14.45h5.94v14.45h20.49v6.2h-20.49v21.39c0 8.06 2.5 12.22 10.59 12.22 3.87 0 6.97-.83 9.98-2.04l1.55 5.65c-3.79 1.48-7.83 2.69-13.08 2.69-12.22 0-16.18-7.5-16.18-18.61ZM715.19 565.23l3.27-5.09c4.82 3.71 10.5 6.11 18.16 6.11 7.06 0 10.5-3.15 10.5-6.95 0-3.43-1.64-5.83-13-8.33-10.93-2.41-16.35-6.39-16.35-13.15 0-7.22 5.94-12.78 17.39-12.78 6.37 0 12.74 2.69 16.87 5.74l-3.44 4.91c-3.87-2.87-8.69-4.72-14.03-4.72-7.06 0-9.64 3.06-9.64 6.48 0 3.89 3.62 5.56 12.22 7.5 13.86 3.24 17.21 6.95 17.21 13.89 0 7.32-6.63 13.43-18.59 13.43-8.18 0-15.49-3.24-20.57-7.04"/></g></svg>
