<svg xmlns="http://www.w3.org/2000/svg" viewBox="0 0 459.5 123.334"><g fill="#414652"><path d="M153.245 27.364c.014.015.038.024.068.024 0-.093-.022-.139-.068-.139l4.739-.022 4.579 5.45h3.681V31.46l-3.589-4.232h.161c.935 0 1.741-.334 2.416-1.001.675-.669 1.012-1.47 1.012-2.406v-4.278c0-.936-.337-1.739-1.012-2.405-.675-.667-1.48-1.002-2.416-1.002h-13.139v16.543h3.568v-5.315zm0-7.662h9.387v3.935h-9.387v-3.935zm31.959-.181a3.28 3.28 0 0 0-1.001-2.406c-.667-.667-1.469-1.001-2.404-1.001h-9.756c-.951 0-1.756.33-2.417.988-.66.66-.989 1.467-.989 2.419v9.754c0 .952.329 1.756.989 2.417.661.659 1.466.986 2.417.986h9.756c.936 0 1.737-.33 2.404-.999s1.001-1.469 1.001-2.404v-9.754zm-3.613 9.568h-9.388v-9.387h9.388v9.387zm9.549 3.589h13.115v-3.589H191.3v-9.387h12.954v-3.589H191.14c-.951 0-1.757.33-2.416.988-.661.66-.99 1.467-.99 2.419v9.754c0 .952.329 1.756.99 2.417.659.66 1.464.987 2.416.987zm19.12-6.487h3.245l5.43 6.487h3.728v-1.241l-5.913-7.042 5.913-7.041v-1.241h-3.728l-3.36 4.028-2.07 2.461h-3.245v-6.489h-3.589v16.565h3.589zm18.017 6.487h9.755c.935 0 1.736-.33 2.405-.999.666-.669 1-1.469 1-2.404v-3.269c0-.935-.333-1.735-1-2.403-.669-.665-1.47-1.001-2.405-1.001h-9.595v-2.899h9.388v1.359h3.612v-1.541c0-.937-.333-1.74-1-2.406-.669-.667-1.47-1.001-2.405-1.001h-9.755c-.936 0-1.738.33-2.405.988-.668.66-1.001 1.467-1.001 2.419v3.265c0 .951.333 1.758 1.001 2.417a3.304 3.304 0 0 0 2.405.989h9.548v2.897h-9.388v-1.356h-3.566v1.542c0 .952.333 1.756 1.001 2.417a3.297 3.297 0 0 0 2.405.986zm18.982 0h9.755c.935 0 1.737-.33 2.406-.999.667-.669 1-1.469 1-2.404v-9.754c0-.937-.333-1.74-1-2.406-.669-.667-1.471-1.001-2.406-1.001h-9.755c-.952 0-1.756.33-2.416.988-.66.66-.989 1.467-.989 2.419v9.754c0 .952.329 1.756.989 2.417.659.659 1.464.986 2.416.986zm.161-12.976h9.387v9.387h-9.387v-9.387zm32.12 9.387h-13V16.09h-3.566v16.588h16.566zm1.358-12.976h3.59v16.564h-3.59zm21.57 15.566c.668-.669 1.001-1.469 1.001-2.404v-9.754c0-.937-.333-1.74-1.001-2.406-.667-.667-1.477-1.001-2.428-1.001h-13.138v16.564h13.138c.952 0 1.761-.33 2.428-.999zm-2.612-2.59h-9.387v-9.387h9.387v9.387zm-148.277 12.32c-1.319 1.322-1.979 2.934-1.979 4.833v19.515c0 1.9.659 3.512 1.979 4.829 1.318 1.319 2.929 1.979 4.83 1.979h26.232v-7.179h-25.908V46.612h25.908v-7.179h-26.232c-1.901.001-3.512.659-4.83 1.976zm61.664 23.978h-18.775V39.434h-7.133v26.323c0 1.9.658 3.512 1.979 4.829 1.319 1.319 2.929 1.979 4.832 1.979h19.511c1.871 0 3.476-.668 4.81-2.002 1.335-1.335 2.001-2.937 2.001-4.807V39.434h-7.225v25.953zm45.19.37v-6.536c0-1.871-.668-3.475-2.002-4.809-1.335-1.337-2.939-2.004-4.81-2.004h-19.189v-5.796h18.775v2.715h7.226v-3.085c0-1.87-.668-3.474-2.002-4.81-1.335-1.333-2.939-1.999-4.81-1.999H232.11c-1.872 0-3.475.658-4.81 1.976-1.334 1.322-2.001 2.934-2.001 4.833v6.536c0 1.901.667 3.512 2.001 4.832 1.335 1.318 2.938 1.978 4.81 1.978h19.097v5.799h-18.775v-2.715H225.3v3.085c0 1.9.667 3.512 2.001 4.829 1.335 1.319 2.938 1.979 4.81 1.979h19.511c1.871 0 3.475-.668 4.81-2.002 1.333-1.334 2.001-2.936 2.001-4.806zm3.266-19.145h12.978v25.953h7.179V46.612h12.978v-7.178h-33.135zm62.815-7.178h-19.512c-1.901 0-3.513.658-4.832 1.976-1.319 1.322-1.978 2.934-1.978 4.833v19.515c0 1.9.659 3.512 1.978 4.829 1.319 1.319 2.931 1.979 4.832 1.979h19.512c1.871 0 3.475-.668 4.81-2.002 1.335-1.335 2.002-2.937 2.002-4.807V46.242c0-1.87-.667-3.474-2.002-4.81-1.335-1.332-2.939-1.998-4.81-1.998zm-.414 25.953h-18.774V46.612H324.1v18.775zm49.47 7.178V39.434h-7.409l-11.183 13.389-11.228-13.389h-7.364v33.131h7.133v-22.18l11.459 13.575 11.413-13.62v22.225zm-223.878 39.391h30.602v-7.181h-23.377v-5.797h18.821v-7.18h-18.821v-5.797h23.377v-7.18h-30.602zm42.337-33.183h-7.133v33.183h33.132v-7.181h-25.999zm28.761 33.183h30.603v-7.181h-23.378v-5.797h18.82v-7.18h-18.82v-5.797h23.378v-7.18H220.79zm52.874-19.744-11.227-13.391h-7.364v33.135h7.133V89.773l11.458 13.577 11.413-13.623v22.229h7.179V78.821h-7.409zm24.206 19.744h30.603v-7.181h-23.378v-5.797h18.821v-7.18h-18.821v-5.797h23.378v-7.18H297.87zm61.066-11.048-18.545-22.087h-7.363v33.135h7.132V89.773l18.638 22.183h7.363V78.821h-7.225zm10.722-14.907h12.977v25.955h7.179V86.001h12.977v-7.18h-33.133zm69.487 2.714v-3.083c0-1.871-.667-3.475-2.002-4.81-1.334-1.335-2.938-2.001-4.81-2.001h-19.511c-1.872 0-3.475.66-4.809 1.979-1.336 1.319-2.001 2.93-2.001 4.832v6.536c0 1.9.665 3.512 2.001 4.829 1.334 1.319 2.937 1.98 4.809 1.98h19.098v5.798h-18.776v-2.714h-7.131v3.081c0 1.904.665 3.515 2.001 4.833 1.334 1.318 2.937 1.98 4.809 1.98h19.511c1.872 0 3.476-.67 4.81-2.003 1.335-1.336 2.002-2.937 2.002-4.811v-6.533c0-1.87-.667-3.477-2.002-4.808-1.334-1.338-2.938-2.004-4.81-2.004h-19.189v-5.797h18.776v2.714h7.224zM121.436 74.677l6.357-6.06-4.392-6.943-8.194 3.149a22.934 22.934 0 0 0-7.522-4.682c-.002 0-.003-.002-.004-.003l-.773-8.76-8.167-.893-2.652 8.377a22.965 22.965 0 0 0-8.351 2.951l-.002.004-7.327-4.853-5.792 5.826 4.896 7.295a22.775 22.775 0 0 0-2.887 8.375l-8.374 2.705.944 8.155 8.753.722v.003a22.92 22.92 0 0 0 4.744 7.487l-3.1 8.223 6.969 4.347 6.029-6.405c1.397.446 2.84.749 4.355.916 1.505.169 2.997.182 4.451.062l4.493 7.547 7.744-2.734-1.246-8.696a23.106 23.106 0 0 0 6.252-6.287v-.002l8.7 1.191 2.692-7.763-7.585-4.453a22.636 22.636 0 0 0-1.011-8.801zM104.821 86.23l-2.442 2.79-3.661-.635-3.709-.171-1.781-3.248-2.167-3.011 1.42-3.42 1-3.577 3.564-1.023 3.419-1.443 3.021 2.155 3.264 1.758.19 3.709.663 3.647-2.781 2.469z"/><path d="m69.704 34.728-5.377 1.929.78 5.277 5.704.289v.003a15.047 15.047 0 0 0 3.226 4.764l-1.847 5.403 4.614 2.682 3.787-4.279h.001a13.69 13.69 0 0 0 2.841.506c.986.073 1.938.062 2.889-.061h.005l3.075 4.815 4.973-1.936-.982-5.611a15.165 15.165 0 0 0 3.935-4.21l.002-.005 5.666.597 1.589-5.096-5.018-2.74v-.007a14.835 14.835 0 0 0-.831-5.683l-.002-.005 4.004-4.063-2.992-4.417-5.264 2.213a14.8 14.8 0 0 0-4.976-2.897l-.681-5.666-5.318-.414-1.555 5.498a15.012 15.012 0 0 0-5.372 2.071c-.003.002-.005.005-.007.005l-4.845-2.994-3.643 3.902 3.33 4.637a14.618 14.618 0 0 0-1.711 5.493zm10.309-.267.566-2.35 2.3-.734 2.191-1.011 1.997 1.336 2.155 1.083.205 2.396.505 2.358-1.757 1.662-1.53 1.854-2.382-.338-2.408-.035-1.229-2.073-1.471-1.911.858-2.237zm-7.439 33.595-6.503-3.541v-.009a19.405 19.405 0 0 0-1.096-7.377l5.188-5.276-3.887-5.726-6.823 2.879a19.392 19.392 0 0 0-6.458-3.752l-.892-7.342-6.901-.53-1.998 7.119c-.002.004-.004.004-.005.004a19.183 19.183 0 0 0-6.954 2.721l-6.301-3.884-4.719 5.063 4.32 6.006a19.238 19.238 0 0 0-2.203 7.132l-6.974 2.506 1.02 6.847 7.39.366a19.232 19.232 0 0 0 4.204 6.166l-2.389 7.019 5.989 3.473 4.89-5.544a20.4 20.4 0 0 0 3.697.643c1.279.094 2.53.068 3.757-.068h.005l3.986 6.222 6.445-2.518-1.288-7.289a19.585 19.585 0 0 0 5.095-5.464v-.001l7.354.768 2.051-6.613zm-21.28-.742-1.984 2.419-3.089-.441-3.12-.043-1.6-2.687-1.908-2.476 1.106-2.917.742-3.034 2.977-.957 2.838-1.312 2.602 1.728 2.787 1.398.272 3.11.657 3.058-2.28 2.154z"/></g></svg>