<svg xmlns="http://www.w3.org/2000/svg" width="577" height="575"><path fill="#fdfdfd" d="M0 0h577v575H0z"/><path fill="#363b41" d="m108 147 39-.2 50.6-.2c31.7-.3 59.6 4.2 83.3 26.8a78 78 0 0 1 13.5 19 84 84 0 0 1 5.7 62A89 89 0 0 1 233 317l-2.2.6c-9.8 2.2-20 1.6-30 1.5L181 319v-47l20.5-.3A58 58 0 0 0 239 260c9.4-10 10.5-20.3 10.3-33.3-.4-9-3.8-15.2-9.9-21.7-11-9.3-24-10.3-37.8-10.4h-3.8l-10-.2-10-.1-19.8-.3v10h-50z"/><path fill="#383d43" d="M321 262h116v48H330v113h-51c-.4-25.7-.4-25.7-.4-36.6a2450 2450 0 0 0-.6-47.4v-9.7l-.1-2.8c0-4.1.2-6.5 3-9.6q3.5-2.6 7.1-4.9c16-14 24.9-30.6 33-50"/><path fill="#255487" d="M108 225h50v198h-50z"/><path fill="#2d9dd3" d="M284 148h185v47H319l-7-16a92 92 0 0 0-28-30z"/><path fill="#268fc6" d="M284 148h148v1l-138 1 4 7h3v-4h2v2c.4 5.5.7 9.1 5 13l3 1h-2v2h2l.8 2.4 1.2 2.6 3 1-1 6q-4.4-5.4-8.1-11.2A83 83 0 0 0 284 149z"/><path fill="#3296c7" d="M290 150c2.3.1 2.3.1 5 1 1.8 3 1.8 3 3 6h3v-4h2v2c.4 5.5.7 9.1 5 13l3 1h-2v2h2l.8 2.4 1.2 2.6 3 1-1 6q-4.4-5.4-8.1-11.2A97 97 0 0 0 292 155l-3-3z"/><path fill="#2e94c8" d="m316 182 3 1v9c-2.7-2.7-3-5.4-4-9z"/><path fill="#2893c9" d="M301 153h2l1 8-2 1v-2h-3l1-3z"/></svg>