<?xml version="1.0" encoding="UTF-8"?>
<!DOCTYPE svg PUBLIC "-//W3C//DTD SVG 1.1//EN" "http://www.w3.org/Graphics/SVG/1.1/DTD/svg11.dtd">
<svg xmlns="http://www.w3.org/2000/svg" version="1.1" width="200px" height="94px" style="shape-rendering:geometricPrecision; text-rendering:geometricPrecision; image-rendering:optimizeQuality; fill-rule:evenodd; clip-rule:evenodd" xmlns:xlink="http://www.w3.org/1999/xlink">
<g><path style="opacity:0.867" fill="#4a4b4a" d="M 187.5,3.5 C 190.518,3.33537 193.518,3.50204 196.5,4C 197.38,5.35613 197.714,6.85613 197.5,8.5C 192.308,7.75473 188.975,9.75473 187.5,14.5C 189.607,19.0499 191.441,23.7165 193,28.5C 195.405,41.1075 190.739,45.4408 179,41.5C 178.51,40.2068 178.343,38.8734 178.5,37.5C 180.792,37.2436 182.959,37.5769 185,38.5C 186.397,37.7741 187.231,36.6075 187.5,35C 185.022,28.5456 182.689,22.0456 180.5,15.5C 181.31,10.5372 183.644,6.53716 187.5,3.5 Z"/></g>
<g><path style="opacity:0.847" fill="#4a4b4a" d="M 7.5,4.5 C 25.5339,3.37215 32.7006,11.7055 29,29.5C 26.7838,38.1296 21.1172,42.463 12,42.5C 8.88166,42.2104 5.88166,41.5437 3,40.5C 4.5522,31.0112 4.88554,21.3445 4,11.5C 2.10793,10.3826 1.27459,8.71589 1.5,6.5C 3.7857,6.40505 5.7857,5.73838 7.5,4.5 Z M 12.5,9.5 C 19.8108,10.9855 23.1441,15.4855 22.5,23C 23.2548,31.3653 19.5881,36.1987 11.5,37.5C 11.044,28.188 11.3773,18.8546 12.5,9.5 Z"/></g>
<g><path style="opacity:0.851" fill="#4a4b4a" d="M 60.5,4.5 C 62.288,4.21478 63.9547,4.54811 65.5,5.5C 67.5055,9.5134 70.0055,13.1801 73,16.5C 78,22.1667 83,27.8333 88,33.5C 94.8774,26.0788 99.3774,17.4122 101.5,7.5C 103.989,7.29777 106.323,7.79777 108.5,9C 109.554,10.3876 109.72,11.8876 109,13.5C 104.163,21.844 98.8295,29.844 93,37.5C 90.8305,41.2599 87.8305,42.2599 84,40.5C 76.2781,29.7528 67.6115,19.7528 58,10.5C 57.0339,7.66027 57.8672,5.66027 60.5,4.5 Z"/></g>
<g><path style="opacity:0.867" fill="#4a4b4a" d="M 153.5,4.5 C 164.765,1.93267 169.265,6.266 167,17.5C 165.5,20.3333 163.333,22.5 160.5,24C 165.42,28.4135 169.753,33.2469 173.5,38.5C 173.392,39.4419 173.059,40.2753 172.5,41C 170.833,41.6667 169.167,41.6667 167.5,41C 163.45,36.4049 159.283,31.9049 155,27.5C 154.501,32.1548 154.334,36.8215 154.5,41.5C 152.473,41.6621 150.473,41.4955 148.5,41C 146.18,39.5124 146.013,37.6791 148,35.5C 149.038,27.0334 148.538,18.7001 146.5,10.5C 146.608,9.55805 146.941,8.72472 147.5,8C 149.727,7.05898 151.727,5.89232 153.5,4.5 Z M 157.5,8.5 C 161.846,13.0983 161.179,17.0983 155.5,20.5C 154.49,16.2167 155.157,12.2167 157.5,8.5 Z"/></g>
<g><path style="opacity:0.835" fill="#4a4b4a" d="M 45.5,5.5 C 47.5,5.5 49.5,5.5 51.5,5.5C 50.7747,17.4797 50.2747,29.4797 50,41.5C 48.3005,42.4061 46.4672,42.7394 44.5,42.5C 44.1305,31.6447 43.4638,20.8113 42.5,10C 42.5572,7.79108 43.5572,6.29108 45.5,5.5 Z"/></g>
<g><path style="opacity:0.881" fill="#4a4b4a" d="M 125.5,5.5 C 128.85,5.33499 132.183,5.50166 135.5,6C 135.957,6.41395 136.291,6.91395 136.5,7.5C 132.925,8.81367 129.425,10.4803 126,12.5C 124.698,15.3751 123.865,18.3751 123.5,21.5C 127.555,21.1758 131.555,21.5091 135.5,22.5C 135.023,23.4776 134.357,24.3109 133.5,25C 130.183,25.4983 126.85,25.665 123.5,25.5C 123.167,35.1667 127.833,39.8333 137.5,39.5C 137.67,40.8221 137.337,41.9887 136.5,43C 130.903,44.0909 125.57,43.4242 120.5,41C 119.789,39.7453 118.956,38.5786 118,37.5C 115.316,27.4236 116.316,17.757 121,8.5C 122.652,7.60064 124.152,6.60064 125.5,5.5 Z"/></g>
<g><path style="opacity:0.741" fill="#b1a4a0" d="M 89.5,48.5 C 86.5176,48.0371 83.5176,47.7038 80.5,47.5C 79.5084,47.3284 78.8417,47.6618 78.5,48.5C 76.8333,48.5 75.1667,48.5 73.5,48.5C 78.8333,45.8333 84.1667,45.8333 89.5,48.5 Z"/></g>
<g><path style="opacity:1" fill="#f89c93" d="M 73.5,48.5 C 73.0269,49.9063 72.0269,50.573 70.5,50.5C 70.9731,49.0937 71.9731,48.427 73.5,48.5 Z"/></g>
<g><path style="opacity:1" fill="#e32f2d" d="M 73.5,48.5 C 75.1667,48.5 76.8333,48.5 78.5,48.5C 78.0922,53.1564 76.2589,54.1564 73,51.5C 72.6174,52.056 72.1174,52.3893 71.5,52.5C 70.6618,52.1583 70.3284,51.4916 70.5,50.5C 72.0269,50.573 73.0269,49.9063 73.5,48.5 Z"/></g>
<g><path style="opacity:1" fill="#e13a36" d="M 80.5,47.5 C 83.5176,47.7038 86.5176,48.0371 89.5,48.5C 91.674,48.7497 93.3406,49.7497 94.5,51.5C 94.8333,52.1667 95.1667,52.8333 95.5,53.5C 93.6096,53.7035 92.1096,53.0368 91,51.5C 89.0875,53.9556 87.4208,53.6222 86,50.5C 86.9071,54.6989 87.4071,59.0323 87.5,63.5C 85.8333,63.5 84.1667,63.5 82.5,63.5C 82.5,60.8333 82.5,58.1667 82.5,55.5C 83.552,55.6495 84.552,55.4828 85.5,55C 83.1902,54.5034 80.8568,54.3367 78.5,54.5C 78.8782,52.079 79.5448,49.7457 80.5,47.5 Z"/></g>
<g><path style="opacity:0.87" fill="#4a4b4a" d="M 141.5,49.5 C 143.5,49.5 145.5,49.5 147.5,49.5C 146.997,60.4916 146.664,71.4916 146.5,82.5C 152.189,82.4676 157.855,82.1342 163.5,81.5C 163.167,83.5 162.833,85.5 162.5,87.5C 154.936,86.6317 147.436,86.2984 140,86.5C 140.552,77.2065 140.552,67.8732 140,58.5C 139.654,56.7818 139.154,55.1151 138.5,53.5C 139.524,52.1482 140.524,50.8149 141.5,49.5 Z"/></g>
<g><path style="opacity:0.856" fill="#4a4b4a" d="M 3.5,50.5 C 5.4672,50.2606 7.30054,50.5939 9,51.5C 11.5453,60.469 14.8786,69.1356 19,77.5C 22.4185,72.3318 25.5852,66.9984 28.5,61.5C 30.3529,60.2404 32.1862,60.2404 34,61.5C 35.4128,66.7391 37.4128,71.7391 40,76.5C 43.8788,68.0634 48.2121,60.0634 53,52.5C 56.7892,52.9447 58.1225,54.9447 57,58.5C 51.0956,67.642 46.2623,77.3087 42.5,87.5C 40.2075,87.7564 38.0408,87.4231 36,86.5C 34.7706,81.4707 32.7706,76.8041 30,72.5C 26.4401,77.063 23.2734,81.8963 20.5,87C 18.1902,87.4966 15.8568,87.6633 13.5,87.5C 11.128,75.7516 6.79465,64.7516 0.5,54.5C 1.52435,53.1482 2.52435,51.8149 3.5,50.5 Z"/></g>
<g><path style="opacity:0.867" fill="#4a4b4a" d="M 110.5,50.5 C 121.765,47.9327 126.265,52.266 124,63.5C 122.5,66.3333 120.333,68.5 117.5,70C 122.42,74.4135 126.753,79.2469 130.5,84.5C 130.392,85.4419 130.059,86.2753 129.5,87C 127.833,87.6667 126.167,87.6667 124.5,87C 120.45,82.4049 116.283,77.9049 112,73.5C 111.501,78.1548 111.334,82.8215 111.5,87.5C 109.473,87.6621 107.473,87.4955 105.5,87C 103.18,85.5124 103.013,83.6791 105,81.5C 106.038,73.0334 105.538,64.7001 103.5,56.5C 103.608,55.5581 103.941,54.7247 104.5,54C 106.727,53.059 108.727,51.8923 110.5,50.5 Z M 114.5,54.5 C 118.846,59.0983 118.179,63.0983 112.5,66.5C 111.49,62.2167 112.157,58.2167 114.5,54.5 Z"/></g>
<g><path style="opacity:0.847" fill="#4a4b4a" d="M 175.5,50.5 C 193.534,49.3721 200.701,57.7055 197,75.5C 194.784,84.1296 189.117,88.463 180,88.5C 176.882,88.2104 173.882,87.5437 171,86.5C 172.552,77.0112 172.886,67.3445 172,57.5C 170.108,56.3826 169.275,54.7159 169.5,52.5C 171.786,52.405 173.786,51.7384 175.5,50.5 Z M 180.5,55.5 C 187.811,56.9855 191.144,61.4855 190.5,69C 191.255,77.3653 187.588,82.1987 179.5,83.5C 179.044,74.188 179.377,64.8546 180.5,55.5 Z"/></g>
<g><path style="opacity:0.071" fill="#f5cdcc" d="M 94.5,51.5 C 96.8333,51.8333 98.1667,53.1667 98.5,55.5C 97.5,54.8333 96.5,54.1667 95.5,53.5C 95.1667,52.8333 94.8333,52.1667 94.5,51.5 Z"/></g>
<g><path style="opacity:1" fill="#a2312f" d="M 80.5,47.5 C 79.5448,49.7457 78.8782,52.079 78.5,54.5C 80.8568,54.3367 83.1902,54.5034 85.5,55C 84.552,55.4828 83.552,55.6495 82.5,55.5C 82.5,58.1667 82.5,60.8333 82.5,63.5C 82.1667,63.5 81.8333,63.5 81.5,63.5C 81.5,63.1667 81.5,62.8333 81.5,62.5C 81.5,60.1667 81.5,57.8333 81.5,55.5C 79.7085,55.366 78.0418,55.6993 76.5,56.5C 76.1667,56.5 75.8333,56.5 75.5,56.5C 73.8333,55.5 72.5,54.1667 71.5,52.5C 72.1174,52.3893 72.6174,52.056 73,51.5C 76.2589,54.1564 78.0922,53.1564 78.5,48.5C 78.8417,47.6618 79.5084,47.3284 80.5,47.5 Z"/></g>
<g><path style="opacity:1" fill="#fd3e37" d="M 95.5,53.5 C 96.5,54.1667 97.5,54.8333 98.5,55.5C 99.9063,55.9731 100.573,56.9731 100.5,58.5C 99.5972,61.119 97.9305,61.7856 95.5,60.5C 93.5218,57.8294 93.5218,55.4961 95.5,53.5 Z"/></g>
<g><path style="opacity:1" fill="#fa3a35" d="M 81.5,62.5 C 79.8333,61.1667 78.1667,59.8333 76.5,58.5C 76.5,57.8333 76.5,57.1667 76.5,56.5C 78.0418,55.6993 79.7085,55.366 81.5,55.5C 81.5,57.8333 81.5,60.1667 81.5,62.5 Z"/></g>
<g><path style="opacity:1" fill="#a13332" d="M 95.5,53.5 C 93.5218,55.4961 93.5218,57.8294 95.5,60.5C 97.9305,61.7856 99.5972,61.119 100.5,58.5C 101.338,58.8417 101.672,59.5084 101.5,60.5C 101.5,60.8333 101.5,61.1667 101.5,61.5C 97.652,61.6814 95.9853,63.6814 96.5,67.5C 96.8333,68.8333 97.1667,70.1667 97.5,71.5C 99.0754,70.5435 100.742,69.8769 102.5,69.5C 102.5,69.8333 102.5,70.1667 102.5,70.5C 99.0128,71.3752 96.6795,73.3752 95.5,76.5C 94.8333,76.1667 94.1667,75.8333 93.5,75.5C 93.5,74.8333 93.1667,74.5 92.5,74.5C 92.1667,73.8333 91.8333,73.1667 91.5,72.5C 92.5,72.5 93.5,72.5 94.5,72.5C 94.6646,69.4816 94.498,66.4816 94,63.5C 92.6439,64.3802 91.1439,64.7135 89.5,64.5C 89.5,66.5 89.5,68.5 89.5,70.5C 88.8333,70.1667 88.1667,69.8333 87.5,69.5C 87.5,69.1667 87.5,68.8333 87.5,68.5C 88.404,67.791 88.7373,66.791 88.5,65.5C 87.209,65.2627 86.209,65.596 85.5,66.5C 84.8333,66.1667 84.1667,65.8333 83.5,65.5C 83.1667,64.8333 82.8333,64.1667 82.5,63.5C 84.1667,63.5 85.8333,63.5 87.5,63.5C 87.4071,59.0323 86.9071,54.6989 86,50.5C 87.4208,53.6222 89.0875,53.9556 91,51.5C 92.1096,53.0368 93.6096,53.7035 95.5,53.5 Z"/></g>
<g><path style="opacity:1" fill="#fa3332" d="M 90.5,54.5 C 92.5669,56.3177 93.9003,58.651 94.5,61.5C 93.2643,62.3567 91.931,63.0234 90.5,63.5C 89.645,61.3923 88.9784,59.2256 88.5,57C 89.0556,55.9889 89.7222,55.1556 90.5,54.5 Z"/></g>
<g><path style="opacity:1" fill="#fd2523" d="M 68.5,60.5 C 65.6273,61.8904 63.9606,60.8904 63.5,57.5C 65.712,56.9531 67.3787,57.9531 68.5,60.5 Z"/></g>
<g><path style="opacity:1" fill="#ecebea" d="M 70.5,50.5 C 70.3284,51.4916 70.6618,52.1583 71.5,52.5C 72.5,54.1667 73.8333,55.5 75.5,56.5C 75.5358,59.461 74.5358,61.7943 72.5,63.5C 71.1667,62.5 69.8333,61.5 68.5,60.5C 67.3787,57.9531 65.712,56.9531 63.5,57.5C 64.8333,54.1667 67.1667,51.8333 70.5,50.5 Z"/></g>
<g><path style="opacity:1" fill="#fcfefe" d="M 76.5,58.5 C 78.1667,59.8333 79.8333,61.1667 81.5,62.5C 81.5,62.8333 81.5,63.1667 81.5,63.5C 79.8333,63.5 78.1667,63.5 76.5,63.5C 76.5,61.8333 76.5,60.1667 76.5,58.5 Z"/></g>
<g><path style="opacity:1" fill="#fb3f38" d="M 61.5,61.5 C 63.5,61.8333 65.5,62.1667 67.5,62.5C 67.8174,65.5719 67.4841,68.5719 66.5,71.5C 65.2322,70.5721 63.8989,70.4054 62.5,71C 64.1667,71.8333 65.8333,72.6667 67.5,73.5C 68.2766,75.7812 69.2766,77.9479 70.5,80C 67.8151,79.5059 65.1485,78.6725 62.5,77.5C 61.596,76.791 61.2627,75.791 61.5,74.5C 60.1667,70.1667 60.1667,65.8333 61.5,61.5 Z"/></g>
<g><path style="opacity:1" fill="#fd3332" d="M 101.5,61.5 C 102.388,64.0545 102.721,66.7212 102.5,69.5C 100.742,69.8769 99.0754,70.5435 97.5,71.5C 97.1667,70.1667 96.8333,68.8333 96.5,67.5C 95.9853,63.6814 97.652,61.6814 101.5,61.5 Z"/></g>
<g><path style="opacity:1" fill="#a6a8a8" d="M 75.5,56.5 C 75.8333,56.5 76.1667,56.5 76.5,56.5C 76.5,57.1667 76.5,57.8333 76.5,58.5C 76.5,60.1667 76.5,61.8333 76.5,63.5C 78.1667,63.5 79.8333,63.5 81.5,63.5C 81.8333,63.5 82.1667,63.5 82.5,63.5C 82.8333,64.1667 83.1667,64.8333 83.5,65.5C 82.5269,67.9479 82.1936,70.6146 82.5,73.5C 82.1667,73.5 81.8333,73.5 81.5,73.5C 81.5,73.1667 81.5,72.8333 81.5,72.5C 81.5,70.1667 81.5,67.8333 81.5,65.5C 79.2188,65.0773 77.5521,65.744 76.5,67.5C 75.8333,67.1667 75.1667,66.8333 74.5,66.5C 74.1667,65.5 73.5,64.8333 72.5,64.5C 72.5,64.1667 72.5,63.8333 72.5,63.5C 74.5358,61.7943 75.5358,59.461 75.5,56.5 Z"/></g>
<g><path style="opacity:1" fill="#fe3332" d="M 72.5,64.5 C 73.5,64.8333 74.1667,65.5 74.5,66.5C 74.5,68.8333 74.5,71.1667 74.5,73.5C 73.0695,73.5792 71.7362,73.2458 70.5,72.5C 69.3452,69.5541 69.1786,66.5541 70,63.5C 70.6708,64.2524 71.5041,64.5858 72.5,64.5 Z"/></g>
<g><path style="opacity:1" fill="#fe3332" d="M 91.5,72.5 C 90.8333,71.8333 90.1667,71.1667 89.5,70.5C 89.5,68.5 89.5,66.5 89.5,64.5C 91.1439,64.7135 92.6439,64.3802 94,63.5C 94.498,66.4816 94.6646,69.4816 94.5,72.5C 93.5,72.5 92.5,72.5 91.5,72.5 Z"/></g>
<g><path style="opacity:1" fill="#fbf3f3" d="M 81.5,72.5 C 79.8333,71.1667 78.1667,69.8333 76.5,68.5C 76.5,68.1667 76.5,67.8333 76.5,67.5C 77.5521,65.744 79.2188,65.0773 81.5,65.5C 81.5,67.8333 81.5,70.1667 81.5,72.5 Z"/></g>
<g><path style="opacity:1" fill="#f33731" d="M 87.5,68.5 C 86.5,68.1667 85.8333,67.5 85.5,66.5C 85.8333,67.5 86.5,68.1667 87.5,68.5 Z"/></g>
<g><path style="opacity:0.58" fill="#fadada" d="M 61.5,61.5 C 60.1667,65.8333 60.1667,70.1667 61.5,74.5C 60.8826,74.3893 60.3826,74.056 60,73.5C 59.3333,69.8333 59.3333,66.1667 60,62.5C 60.3826,61.944 60.8826,61.6107 61.5,61.5 Z"/></g>
<g><path style="opacity:0.608" fill="#fdb9b6" d="M 101.5,60.5 C 102.117,60.6107 102.617,60.944 103,61.5C 103.667,65.8333 103.667,70.1667 103,74.5C 102.722,75.4158 102.222,76.0825 101.5,76.5C 101.833,74.5 102.167,72.5 102.5,70.5C 102.5,70.1667 102.5,69.8333 102.5,69.5C 102.721,66.7212 102.388,64.0545 101.5,61.5C 101.5,61.1667 101.5,60.8333 101.5,60.5 Z"/></g>
<g><path style="opacity:1" fill="#faf9f9" d="M 83.5,65.5 C 84.1667,65.8333 84.8333,66.1667 85.5,66.5C 85.8333,67.5 86.5,68.1667 87.5,68.5C 87.5,68.8333 87.5,69.1667 87.5,69.5C 87.5,70.8333 87.5,72.1667 87.5,73.5C 86.0413,73.4326 84.7079,73.7659 83.5,74.5C 82.8333,74.5 82.5,74.1667 82.5,73.5C 82.1936,70.6146 82.5269,67.9479 83.5,65.5 Z"/></g>
<g><path style="opacity:1" fill="#fd2422" d="M 76.5,68.5 C 78.1667,69.8333 79.8333,71.1667 81.5,72.5C 81.5,72.8333 81.5,73.1667 81.5,73.5C 80.1418,73.8222 78.4752,73.8222 76.5,73.5C 76.5,71.8333 76.5,70.1667 76.5,68.5 Z"/></g>
<g><path style="opacity:1" fill="#fa463b" d="M 102.5,70.5 C 102.167,72.5 101.833,74.5 101.5,76.5C 101.573,78.0269 100.906,79.0269 99.5,79.5C 97.5956,79.2624 96.2623,78.2624 95.5,76.5C 96.6795,73.3752 99.0128,71.3752 102.5,70.5 Z"/></g>
<g><path style="opacity:1" fill="#a7a7a7" d="M 87.5,69.5 C 88.1667,69.8333 88.8333,70.1667 89.5,70.5C 90.1667,71.1667 90.8333,71.8333 91.5,72.5C 91.8333,73.1667 92.1667,73.8333 92.5,74.5C 89.0897,74.3838 87.7564,76.0504 88.5,79.5C 86.8333,78.1667 85.1667,76.8333 83.5,75.5C 83.5,75.1667 83.5,74.8333 83.5,74.5C 84.7079,73.7659 86.0413,73.4326 87.5,73.5C 87.5,72.1667 87.5,70.8333 87.5,69.5 Z"/></g>
<g><path style="opacity:1" fill="#a03432" d="M 63.5,57.5 C 63.9606,60.8904 65.6273,61.8904 68.5,60.5C 69.8333,61.5 71.1667,62.5 72.5,63.5C 72.5,63.8333 72.5,64.1667 72.5,64.5C 71.5041,64.5858 70.6708,64.2524 70,63.5C 69.1786,66.5541 69.3452,69.5541 70.5,72.5C 71.7362,73.2458 73.0695,73.5792 74.5,73.5C 74.5,71.1667 74.5,68.8333 74.5,66.5C 75.1667,66.8333 75.8333,67.1667 76.5,67.5C 76.5,67.8333 76.5,68.1667 76.5,68.5C 76.5,70.1667 76.5,71.8333 76.5,73.5C 78.4752,73.8222 80.1418,73.8222 81.5,73.5C 81.8333,73.5 82.1667,73.5 82.5,73.5C 82.5,74.1667 82.8333,74.5 83.5,74.5C 83.5,74.8333 83.5,75.1667 83.5,75.5C 82.5318,77.6074 82.1984,79.9407 82.5,82.5C 84.451,82.7733 85.951,82.1066 87,80.5C 87.6869,82.9203 87.1869,85.087 85.5,87C 86.4158,87.2784 87.0825,87.7784 87.5,88.5C 86.1667,88.5 84.8333,88.5 83.5,88.5C 84.1534,87.1932 84.8201,85.8599 85.5,84.5C 84.675,83.6143 83.675,83.281 82.5,83.5C 82.1667,88.8333 81.8333,88.8333 81.5,83.5C 79.8762,83.3601 78.7096,84.0267 78,85.5C 77.0094,84.0611 75.676,83.0611 74,82.5C 73.043,84.7092 71.8764,84.5425 70.5,82C 69.1279,81.5983 67.7946,81.0983 66.5,80.5C 65.8933,80.6236 65.56,80.9569 65.5,81.5C 63.7376,80.7377 62.7376,79.4044 62.5,77.5C 65.1485,78.6725 67.8151,79.5059 70.5,80C 69.2766,77.9479 68.2766,75.7812 67.5,73.5C 65.8333,72.6667 64.1667,71.8333 62.5,71C 63.8989,70.4054 65.2322,70.5721 66.5,71.5C 67.4841,68.5719 67.8174,65.5719 67.5,62.5C 65.5,62.1667 63.5,61.8333 61.5,61.5C 61.6596,59.847 62.3263,58.5137 63.5,57.5 Z"/></g>
<g><path style="opacity:1" fill="#fc3333" d="M 76.5,75.5 C 78.1667,75.5 79.8333,75.5 81.5,75.5C 81.5,77.8333 81.5,80.1667 81.5,82.5C 80.1667,82.5 78.8333,82.5 77.5,82.5C 77.552,80.0971 77.2186,77.7638 76.5,75.5 Z"/></g>
<g><path style="opacity:1" fill="#f63332" d="M 69.5,73.5 C 74.8724,74.0645 77.0391,77.0645 76,82.5C 74.6439,81.6198 73.1439,81.2865 71.5,81.5C 71.0372,78.779 70.3705,76.1123 69.5,73.5 Z"/></g>
<g><path style="opacity:1" fill="#faf4f4" d="M 92.5,74.5 C 93.1667,74.5 93.5,74.8333 93.5,75.5C 93.539,78.089 92.539,80.089 90.5,81.5C 89.5,81.1667 88.8333,80.5 88.5,79.5C 87.7564,76.0504 89.0897,74.3838 92.5,74.5 Z"/></g>
<g><path style="opacity:1" fill="#a5a9a8" d="M 93.5,75.5 C 94.1667,75.8333 94.8333,76.1667 95.5,76.5C 96.2623,78.2624 97.5956,79.2624 99.5,79.5C 99.5,79.8333 99.5,80.1667 99.5,80.5C 96.539,80.4642 94.2057,81.4642 92.5,83.5C 91.5,83.1667 90.8333,82.5 90.5,81.5C 92.539,80.089 93.539,78.089 93.5,75.5 Z"/></g>
<g><path style="opacity:0.69" fill="#f8f6f6" d="M 99.5,80.5 C 98.0892,82.914 96.0892,84.5806 93.5,85.5C 93.1667,84.8333 92.8333,84.1667 92.5,83.5C 94.2057,81.4642 96.539,80.4642 99.5,80.5 Z"/></g>
<g><path style="opacity:0.008" fill="#fdd5d4" d="M 65.5,81.5 C 66.8333,82.1667 67.8333,83.1667 68.5,84.5C 66.5,84.5 65.5,83.5 65.5,81.5 Z"/></g>
<g><path style="opacity:1" fill="#dd2f2d" d="M 65.5,81.5 C 65.56,80.9569 65.8933,80.6236 66.5,80.5C 67.7946,81.0983 69.1279,81.5983 70.5,82C 71.8764,84.5425 73.043,84.7092 74,82.5C 75.676,83.0611 77.0094,84.0611 78,85.5C 78.7096,84.0267 79.8762,83.3601 81.5,83.5C 81.8333,88.8333 82.1667,88.8333 82.5,83.5C 83.675,83.281 84.675,83.6143 85.5,84.5C 84.8201,85.8599 84.1534,87.1932 83.5,88.5C 79.8019,88.4476 76.1352,88.1143 72.5,87.5C 71.7377,85.7376 70.4044,84.7376 68.5,84.5C 67.8333,83.1667 66.8333,82.1667 65.5,81.5 Z"/></g>
<g><path style="opacity:1" fill="#e04139" d="M 83.5,75.5 C 85.1667,76.8333 86.8333,78.1667 88.5,79.5C 88.8333,80.5 89.5,81.1667 90.5,81.5C 90.8333,82.5 91.5,83.1667 92.5,83.5C 92.8333,84.1667 93.1667,84.8333 93.5,85.5C 92.3406,87.2503 90.674,88.2503 88.5,88.5C 88.1667,88.5 87.8333,88.5 87.5,88.5C 87.0825,87.7784 86.4158,87.2784 85.5,87C 87.1869,85.087 87.6869,82.9203 87,80.5C 85.951,82.1066 84.451,82.7733 82.5,82.5C 82.1984,79.9407 82.5318,77.6074 83.5,75.5 Z"/></g>
<g><path style="opacity:0.882" fill="#ffbbb8" d="M 68.5,84.5 C 70.4044,84.7376 71.7377,85.7376 72.5,87.5C 70.5956,87.2624 69.2623,86.2624 68.5,84.5 Z"/></g>
<g><path style="opacity:0.635" fill="#d0b3b0" d="M 72.5,87.5 C 76.1352,88.1143 79.8019,88.4476 83.5,88.5C 84.8333,88.5 86.1667,88.5 87.5,88.5C 87.8333,88.5 88.1667,88.5 88.5,88.5C 86.5274,89.1627 84.3608,89.4961 82,89.5C 78.5226,89.6725 75.356,89.0058 72.5,87.5 Z"/></g>
</svg>
