<svg xmlns="http://www.w3.org/2000/svg" xml:space="preserve" width="13" height="13" viewBox="0 0 1.612 1.612"><path d="M49.279 4.75h-.255v-1A3.754 3.754 0 0 0 45.274 0a3.754 3.754 0 0 0-3.75 3.75v1H21.976v-1A3.754 3.754 0 0 0 18.226 0a3.754 3.754 0 0 0-3.75 3.75v1h-.255C7.87 4.75 2.703 9.917 2.703 16.268v35.715c0 6.351 5.167 11.518 11.518 11.518h35.058c6.351 0 11.518-5.167 11.518-11.518V16.268C60.796 9.917 55.629 4.75 49.279 4.75m-5.755-1c0-.965.785-1.75 1.75-1.75s1.75.785 1.75 1.75v4c0 .965-.785 1.75-1.75 1.75s-1.75-.785-1.75-1.75zm-27.048 0c0-.965.785-1.75 1.75-1.75s1.75.785 1.75 1.75v4c0 .965-.785 1.75-1.75 1.75s-1.75-.785-1.75-1.75zm-2.255 3h.255v1a3.754 3.754 0 0 0 3.75 3.75 3.754 3.754 0 0 0 3.75-3.75v-1h19.548v1a3.754 3.754 0 0 0 3.75 3.75 3.754 3.754 0 0 0 3.75-3.75v-1h.255c5.248 0 9.518 4.27 9.518 9.518v2.482H4.704v-2.482c0-5.248 4.269-9.518 9.517-9.518M49.279 61.5H14.221c-5.248 0-9.518-4.27-9.518-9.518V20.75h54.093v31.232c0 5.248-4.269 9.518-9.517 9.518m3.388-29.667a1 1 0 0 0 0-2h-3.5v-3a1 1 0 0 0-2 0v3h-6.333v-3a1 1 0 0 0-2 0v3H32.5v-3a1 1 0 0 0-2 0v3h-6.333v-3a1 1 0 0 0-2 0v3h-6.333v-3a1 1 0 0 0-2 0v3h-3.5a1 1 0 0 0 0 2h3.5V39.5h-3.5a1 1 0 0 0 0 2h3.5v7.667h-3.5a1 1 0 0 0 0 2h3.5v3a1 1 0 0 0 2 0v-3h6.333v3a1 1 0 0 0 2 0v-3H30.5v3a1 1 0 0 0 2 0v-3h6.333v3a1 1 0 0 0 2 0v-3h6.333v3a1 1 0 0 0 2 0v-3h3.5a1 1 0 0 0 0-2h-3.5V41.5h3.5a1 1 0 0 0 0-2h-3.5v-7.667zm-13.834 0V39.5H32.5v-7.667zm-8.333 0V39.5h-6.333v-7.667zm-14.667 0h6.333V39.5h-6.333zm0 17.334V41.5h6.333v7.667zm8.334 0V41.5H30.5v7.667zm8.333 0V41.5h6.333v7.667zm14.667 0h-6.333V41.5h6.333zm0-9.667h-6.333v-7.667h6.333z" class="active-path" data-old_color="#91979c" data-original="#000000" style="fill:#91979c" transform="matrix(.02348 0 0 .02148 .06 .124)"/></svg>