<svg xmlns="http://www.w3.org/2000/svg" width="191.8" height="150"><path fill="none" stroke="#103a5d" stroke-width="2.514" d="M24.72 5.15S5.2 5.15 5.2 24.67v101s0 19.53 19.52 19.53h141.9s19.53 0 19.53-19.53v-101s0-19.52-19.53-19.52z"/><path fill="#003764" d="M79.51 56.67h11.21v2.8h-9.81v12.24h3.48l-.73-1.78a.17.17 0 0 1 0-.19.17.17 0 0 1 .19 0l6.52 3.22a.2.2 0 0 1 .11.18.18.18 0 0 1-.11.17L83.9 76.5a.16.16 0 0 1-.19 0 .17.17 0 0 1 0-.2l.72-1.77h-4.92a1.41 1.41 0 0 1-1.41-1.4v-15a1.41 1.41 0 0 1 1.41-1.46zm29.78 17.84V71.7h11.21a1.41 1.41 0 0 1 1.41 1.41v15a1.4 1.4 0 0 1-1.41 1.4h-4.88l.73 1.78a.17.17 0 0 1 0 .19.17.17 0 0 1-.19 0l-6.53-3.22a.21.21 0 0 1-.1-.18.19.19 0 0 1 .1-.17l6.53-3.22a.17.17 0 0 1 .23.22l-.73 1.77h3.49V74.51zM93.9 52.81v10.51a.85.85 0 0 0 .85.85h10.51a.85.85 0 0 0 .85-.85V52.81a.85.85 0 0 0-.85-.85H94.75a.85.85 0 0 0-.85.85zm2.8 2h6.61v6.6H96.7zm-2.8 12.98V78.3a.85.85 0 0 0 .85.85h10.51a.85.85 0 0 0 .85-.85V67.79a.85.85 0 0 0-.85-.84H94.75a.85.85 0 0 0-.85.84zm2.8 2h6.61v6.6H96.7zm-2.8 12.98v10.52a.85.85 0 0 0 .85.84h10.51a.85.85 0 0 0 .85-.84V82.77a.86.86 0 0 0-.85-.85H94.75a.86.86 0 0 0-.85.85zm2.8 2h6.61v6.6H96.7zM115 30v14.17a.86.86 0 0 0 .85.85h21.52a.86.86 0 0 0 .85-.85V30a.85.85 0 0 0-.85-.85h-21.55a.85.85 0 0 0-.82.85zm2.8 2h17.62v10.21h-17.65zm-1.73 22.65a.17.17 0 0 1 .23.22l-.73 1.77h9.61v-8.56H128v10a1.4 1.4 0 0 1-1.4 1.4h-11l.73 1.77a.16.16 0 0 1 0 .19.17.17 0 0 1-.19 0l-6.53-3.22a.18.18 0 0 1-.11-.17.2.2 0 0 1 .11-.18z"/><path fill="#0b395d" d="M36.87 104a.4.4 0 0 1 .36.43v1.19a.36.36 0 0 1-.41.4H35.3c-1.56 0-2.3.11-2.3 1.45v2.1h3.51c.31 0 .42.14.36.43l-.22 1.29a.39.39 0 0 1-.44.35H33v12.22c0 .27-.14.4-.42.4h-1.81a.36.36 0 0 1-.41-.4v-12.19h-1.95c-.28 0-.42-.13-.42-.4V110a.37.37 0 0 1 .42-.41h1.95v-2.66c0-3 2.53-3.15 4.09-3.15a14.38 14.38 0 0 1 2.42.22zm9.65 5.74c.27.08.41.18.41.45v1.13a.35.35 0 0 1-.44.38H44.1c-1.9 0-2.39.3-2.39 1.51v10.68a.36.36 0 0 1-.41.4h-1.79a.36.36 0 0 1-.41-.4v-11.3c0-3 2.75-3.15 4.34-3.15a16 16 0 0 1 3.08.3zm13.36 3.92v9.42a.67.67 0 0 1-.53.75 23 23 0 0 1-6.1.59c-3.63 0-5.3-.72-5.3-4.33 0-3.22 1.73-4.14 4.86-4.14h4.43v-1.8c0-1.67-1-2.42-3.57-2.42h-4.13c-.33 0-.41-.08-.41-.4v-1.11c0-.32.11-.37.38-.43a24.74 24.74 0 0 1 4.16-.32c4.33-.03 6.21 1.26 6.21 4.19zm-7 4.36c-1.51 0-2.31.49-2.31 2 0 1.78.91 2.18 3.16 2.18a16.61 16.61 0 0 0 3.52-.32V118zm30.91-2.39-.06 8.26a.36.36 0 0 1-.41.4h-1.76c-.28 0-.41-.13-.41-.4V116c0-4.11-.83-4.28-3.41-4.28a18.63 18.63 0 0 0-3.22.25 11.5 11.5 0 0 1 .44 3.82v8.15c0 .32-.11.4-.36.4h-1.86c-.28 0-.41-.13-.41-.4v-8.1c0-4-.83-4.09-3.41-4.09h-2.75v12.19a.36.36 0 0 1-.41.4h-1.82a.36.36 0 0 1-.41-.4V110.3c0-.32.14-.38.41-.43a28 28 0 0 1 4.59-.43 12.43 12.43 0 0 1 4.57.81 14.89 14.89 0 0 1 4.42-.84c4.75 0 6.27.65 6.27 6.22zm15.58.91v.78c0 .54-.13.76-1 .76h-8.73c.09 3.28.72 4.09 3.66 4.09h4.51a.36.36 0 0 1 .41.4v1.18a.4.4 0 0 1-.39.43 34.43 34.43 0 0 1-4.59.24C88.08 124.42 87 123 87 117s1.1-7.51 6.26-7.51c4.9-.05 6.06 1.38 6.11 7.05zm-9.75-.54h7.11c0-3.42-.63-4.28-3.49-4.28s-3.57.84-3.62 4.28zm32.48-6.42c.3 0 .39.08.33.43L120 121.38c-.57 2.67-1 3-3.21 3-2.42 0-2.56-.34-3.19-3l-1.79-7.53-1.81 7.53c-.63 2.7-.77 3-3.19 3-2.2 0-2.64-.37-3.22-3L101.22 110c-.06-.35 0-.43.33-.43h2c.19 0 .25.08.33.43l2.26 11c.21.94.38 1 .74 1s.52-.08.74-1l2.66-10.62c.09-.33.2-.43.39-.43H113c.22 0 .3.1.38.43l2.62 10.68c.22.94.27 1 .74 1s.52-.08.74-1l2.25-11c.09-.35.14-.43.36-.43zm15.23 7.42c0 6-1.07 7.47-6.38 7.47s-6.4-1.47-6.4-7.47 1.1-7.51 6.4-7.51 6.38 1.51 6.38 7.51zm-10.14 0c0 4.17.41 5.22 3.76 5.22s3.74-1 3.74-5.22-.41-5.25-3.74-5.25-3.76 1-3.76 5.25zm20.81-7.26c.28.08.41.18.41.45v1.13a.35.35 0 0 1-.43.38h-2.4c-1.89 0-2.39.3-2.39 1.51v10.68c0 .27-.13.4-.41.4H141c-.28 0-.42-.13-.42-.4v-11.3c0-3 2.75-3.15 4.35-3.15a16 16 0 0 1 3.07.3zm4.94-5.74a.38.38 0 0 1 .42.43v10.41l4.5-5a.74.74 0 0 1 .58-.26h2.28c.5 0 .52.24.25.51l-4.87 5.27 6.46 8.2c.25.33.28.73-.46.73h-1.93a.74.74 0 0 1-.6-.3l-6.21-8v7.88c0 .3-.14.43-.42.43h-1.81c-.28 0-.41-.13-.41-.43v-19.49a.38.38 0 0 1 .41-.43z"/><path fill="#103a5d" d="M53.87 68.57 74.8 89.9a1.18 1.18 0 0 0 .4.27l5.9 2.36a1.25 1.25 0 0 0 .42.08 1.15 1.15 0 0 0 .83-.36 1.19 1.19 0 0 0 .26-1.25l-2.33-6a1.07 1.07 0 0 0-.26-.4L59.1 63.22a1.1 1.1 0 0 0-.82-.35 1.14 1.14 0 0 0-.83.35l-3.58 3.65a1.2 1.2 0 0 0 0 1.7zm2.49-.84 1.93-2L78.2 86.09l1.23 3.2L76.29 88z"/><path fill="#103a5d" d="m55.481 67.748 2.56-2.56 20.336 20.336-2.56 2.56z"/></svg>