<?xml version="1.0" encoding="UTF-8"?><svg xmlns="http://www.w3.org/2000/svg" width="500" height="500"><path d="M499.5 230.27l-10.77-55.45a26.5 26.5 0 0 0-31.09-21l-4.78.93V99.57A26.84 26.84 0 0 0 426 72.9H74a26.85 26.85 0 0 0-26.86 26.67v134.08l-25.68 5a26.54 26.54 0 0 0-21 31.08l10.78 55.45a26.54 26.54 0 0 0 26 21.45 26.24 26.24 0 0 0 5.07-.49l4.79-.93v55.22A26.85 26.85 0 0 0 74 427.1h352a26.84 26.84 0 0 0 26.85-26.67V266.35l25.68-5a26.5 26.5 0 0 0 21-31.08z" fill="#fff"/><path d="M47.14 345.21L94 336.09c8.71 34.5 20.31 66.08 43.08 91H74a26.85 26.85 0 0 1-26.86-26.67zM452.86 99.57A26.84 26.84 0 0 0 426 72.9h-71.58c16.95 16.94 31.25 38.9 42 66.18l-108.83 23c-11.92-22.85-30.05-41.88-65.51-34.39-19.55 4.13-32.54 15.12-38.27 27.13-4.87 10.22-8 21.29-4 53.07l273-53.07zM229.55 368.49c10.17 8.62 26.53 13.43 46.09 9.29 35.48-7.47 44.24-32.17 45.77-57.86l108.82-23c2.57 56.3-14.85 99.89-45.61 130.17H426a26.84 26.84 0 0 0 26.85-26.67V266.35l-250.58 48.7c10.24 35.95 18.08 45.57 27.28 53.44zm-139-261.28a174.74 174.74 0 0 1 29-34.31H74a26.85 26.85 0 0 0-26.86 26.67v134.08l24.46-4.75C65 186 65.61 145.39 90.57 107.21zm395.57 125.66l-10.77-55.44a12.88 12.88 0 0 0-15.1-10.19L24.06 252a12.87 12.87 0 0 0-10.19 15.1l10.78 55.44a12.88 12.88 0 0 0 15.1 10.19L475.94 248a12.87 12.87 0 0 0 10.18-15.13z" fill="#f47c00"/><path d="M45.42 277.5l1.82 9.36 15-2.92 1.29 6.64-15 2.92 3 15.46-7.44 1.45-7.41-38.1 25.1-4.88 1.29 6.63zM84.74 281.46a4.75 4.75 0 0 0-4-.94c-2.14.42-4.18 2.48-3.49 6l3.26 16.81-6.95 1.35-5.42-27.88 6.79-1.32.52 2.67a9.6 9.6 0 0 1 6.43-4.36 8.57 8.57 0 0 1 7.12 1.35zM91.44 267.33l-1.11-5.67 7.12-1.39 1.1 5.68zM97.89 300l-5.42-27.89 7-1.35 5.42 27.88zM115.78 284.26c.69 3.58 3.4 5.78 7.3 5a7.86 7.86 0 0 0 5.81-3.85l5 3.3a13.53 13.53 0 0 1-9.75 6.45c-6.58 1.28-13.48-.49-15.67-11.78-1.77-9.1 2.16-15.2 9.38-16.6 7.76-1.51 13.25 3.31 14.74 11l.6 3.11zm8.44-9.7a5.29 5.29 0 0 0-9.31 1.82 7.74 7.74 0 0 0-.06 3.12l10.6-2.06a8 8 0 0 0-1.23-2.88zM158.15 288.24l-3.27-16.86c-.74-3.8-3.4-4.61-5.6-4.19s-4.4 2.19-3.66 6l3.27 16.81-6.95 1.35-5.42-27.88 6.79-1.32.5 2.57a9.74 9.74 0 0 1 6.4-4.24 9.18 9.18 0 0 1 7.06 1.18c2.68 1.81 3.78 4.32 4.37 7.37l3.47 17.82zM188 282.44l-.51-2.63a8.52 8.52 0 0 1-6.33 4.29 10 10 0 0 1-7.34-1.18c-3.33-2.25-4.32-7.05-5.13-11.23s-1.68-8.94.56-12.27a10 10 0 0 1 6.31-3.84 8.53 8.53 0 0 1 7.34 1.47l-2.47-12.69 7-1.35 7.4 38.11zm-9.19-21c-4.18.81-4.05 4.34-3.16 8.89s2.09 7.92 6.27 7.11 4.09-4.4 3.2-8.95-2.12-7.85-6.29-7.04zM211.84 278.14c-4.38.85-8.44 1.14-12.66-1.71l3.67-5.43a10.37 10.37 0 0 0 8 1.18c2.41-.47 4.76-1.76 4.36-3.85-.27-1.39-1.21-2.21-3.44-2l-4.48.43c-5.12.49-8.65-1.1-9.65-6.23-1.12-5.78 3.36-9.88 9-11 4.34-.84 8.12-.8 11.29 1.19l-3.44 5.17c-1.89-1.13-4.43-1.08-6.84-.61-2.79.54-3.71 2.05-3.44 3.44.19 1 .85 2.11 3.35 1.85l4.48-.43c5.61-.53 9 1.87 9.88 6.58 1.18 6.17-3.49 10.14-10.08 11.42zM260.52 265.12a11.75 11.75 0 0 1-8 5.11 11.62 11.62 0 0 1-9.28-1.75c-3-2.13-4.28-5.17-5.27-10.25s-.95-8.31 1.06-11.42a11.59 11.59 0 0 1 7.95-5.1 11.75 11.75 0 0 1 9.33 1.74c3 2.13 4.28 5.16 5.26 10.19s.96 8.36-1.05 11.48zm-8.82-16.56a4.53 4.53 0 0 0-3.51-.59 4.35 4.35 0 0 0-3 1.85c-1.16 1.73-.86 4.17-.29 7.06s1.2 5.32 2.92 6.48a4.34 4.34 0 0 0 3.45.61 4.5 4.5 0 0 0 3-1.87c1.16-1.72.84-4.22.28-7.11s-1.13-5.26-2.85-6.43zM274.5 243l4.24 21.78-7 1.35-4.23-21.78-2.89.56-1-5.29 2.89-.57-.68-3.48c-.77-4 .91-8.45 6.59-9.55l4-.77 1.14 5.89-2.73.53c-1.66.32-2.23 1.38-1.92 3l.59 3.05 5.14-1 1 5.3zM315 258.09a14.25 14.25 0 0 1-11.09-2.18 11.14 11.14 0 0 1-4.21-5.12 52.2 52.2 0 0 1-2.49-9.35 53.22 53.22 0 0 1-1.2-9.6 11.11 11.11 0 0 1 2-6.33 14.22 14.22 0 0 1 9.46-6.17c7.33-1.42 13.57 1.81 16.36 9.32l-7.54 1.46c-1.44-3.1-3.89-4.85-7.48-4.15a6 6 0 0 0-4.37 2.91c-1.23 2-1.22 3.73.21 11.12s2.09 9 4 10.39a6 6 0 0 0 5.14 1.05c3.59-.69 5.21-3.23 5.38-6.65l7.54-1.47c.18 8.01-4.45 13.36-11.71 14.77zM353.49 247.05a11.77 11.77 0 0 1-8 5.11 11.62 11.62 0 0 1-9.28-1.75c-3-2.13-4.28-5.17-5.27-10.25s-.95-8.31 1.05-11.42a12.83 12.83 0 0 1 17.29-3.36c3 2.13 4.28 5.16 5.26 10.19s.96 8.37-1.05 11.48zm-8.82-16.56a4.49 4.49 0 0 0-3.51-.59 4.35 4.35 0 0 0-3 1.85c-1.16 1.73-.86 4.17-.29 7.06s1.2 5.32 2.92 6.48a4.34 4.34 0 0 0 3.45.61 4.5 4.5 0 0 0 3-1.87c1.16-1.72.84-4.22.28-7.11s-1.13-5.26-2.85-6.43zM380.11 245.1l-3.28-16.86c-.74-3.8-3.39-4.62-5.59-4.19s-4.41 2.19-3.67 6l3.28 16.86-7 1.35-5.42-27.88 6.8-1.33.5 2.57a9.71 9.71 0 0 1 6.4-4.24 9.23 9.23 0 0 1 7.06 1.18c2.68 1.81 3.78 4.32 4.37 7.37l3.47 17.83zM403.29 240.59c-5.68 1.11-8.87-2.44-9.64-6.4L391 220.38l-3 .62-1-5.29 2.94-.58-1.6-8.24 7-1.35 1.61 8.24 4.92-1 1 5.3-4.92 1 2.6 13.38c.31 1.6 1.24 2.37 2.9 2.05l2.51-.49 1.14 5.88zM427.53 235.88l-.47-2.41c-1.51 2.24-3.12 3.38-6.33 4s-5.61.26-7.59-1.08a9.06 9.06 0 0 1-3.52-5.81c-.87-4.45 1.48-8.68 7.95-9.94l6.59-1.28-.28-1.39c-.59-3-2.35-4.1-6-3.38-2.67.52-3.78 1.4-4.9 3.34l-5.29-3.47c2.15-3.52 4.66-4.9 9.31-5.81 7.82-1.52 12.53 1 13.8 7.54l3.57 18.36zm-2.45-11.74l-5.51 1.07c-2.52.49-3.68 1.93-3.29 3.91s1.9 3 4.63 2.43c1.93-.37 3.13-.77 4.13-2.18.62-.85.67-2 .33-3.74zM460.49 226.25a11.8 11.8 0 0 1-8 5.11 11.63 11.63 0 0 1-9.28-1.75c-3-2.13-4.28-5.16-5.27-10.25s-.95-8.31 1.06-11.42a11.59 11.59 0 0 1 7.95-5.1 11.75 11.75 0 0 1 9.33 1.74c3 2.13 4.28 5.16 5.26 10.19s.95 8.37-1.05 11.48zm-8.83-16.55a4.49 4.49 0 0 0-3.51-.6 4.36 4.36 0 0 0-3 1.86c-1.16 1.72-.85 4.16-.29 7s1.2 5.32 2.92 6.48a4.34 4.34 0 0 0 3.45.61 4.5 4.5 0 0 0 3-1.86c1.16-1.73.85-4.22.28-7.11s-1.13-5.22-2.85-6.38z" fill="#fff"/></svg>