<svg xmlns="http://www.w3.org/2000/svg" viewBox="0 0 191.8 150"><title>maps_c4g</title><g id="Ebene_13" data-name="Ebene 13"><path d="M128.33,84.19l-20,8V45.54l20-8ZM62.56,45.07l20-8V83.71l-20,8Zm22.32-8L106,45.54V92.15L84.88,83.71ZM132,32.16a2.36,2.36,0,0,0-2.2-.22L107.19,41l-22.6-9.07a2.11,2.11,0,0,0-1.77,0L59.33,41.32a2.3,2.3,0,0,0-1.46,2.17v51.7a2.41,2.41,0,0,0,1,2,2.52,2.52,0,0,0,1.31.4,1.88,1.88,0,0,0,.88-.18L83.71,88.3l22.61,9.06a2.08,2.08,0,0,0,1.76,0l23.48-9.42A2.33,2.33,0,0,0,133,85.77V34.09a2.41,2.41,0,0,0-1-1.94" style="fill:#103a5d"/><path d="M83.8,115.59l0,8.12a.36.36,0,0,1-.31.4H81.66a.36.36,0,0,1-.39-.31v-7.91c0-4-.8-4.2-3.28-4.2a18.75,18.75,0,0,0-3.09.23,11.91,11.91,0,0,1,.42,3.76l0,8c0,.32-.11.4-.34.4H73.18a.36.36,0,0,1-.39-.31.14.14,0,0,1,0-.09v-8c0-3.9-.8-4-3.28-4H66.86v12a.37.37,0,0,1-.31.4H64.72a.36.36,0,0,1-.39-.31.14.14,0,0,1,0-.09V110.34c0-.32.12-.38.39-.43a27.33,27.33,0,0,1,4.42-.42,11.59,11.59,0,0,1,4.4.8,14,14,0,0,1,4.25-.82C82.35,109.47,83.8,110.1,83.8,115.59Z" style="fill:#003764"/><path d="M97.92,113.62v9.26a.68.68,0,0,1-.51.74,22.14,22.14,0,0,1-5.91.58c-3.49,0-5.1-.71-5.1-4.26,0-3.17,1.67-4.08,4.68-4.08h4.26v-1.77c0-1.64-1-2.38-3.44-2.38H88c-.32,0-.4-.08-.4-.4v-1.08c0-.32.11-.38.38-.42a23.29,23.29,0,0,1,4-.32C96.06,109.49,97.92,110.76,97.92,113.62Zm-6.75,4.28c-1.46,0-2.23.48-2.23,2,0,1.75.88,2.15,3,2.15a15.37,15.37,0,0,0,3.38-.32v-3.77Z" style="fill:#003764"/><path d="M113.53,116.85c0,5.91-1.06,7.38-6.06,7.38a31.53,31.53,0,0,1-3.5-.16v4.86a.35.35,0,0,1-.31.4h-1.82a.37.37,0,0,1-.4-.31V110.4c0-.3.16-.4.43-.46a29.48,29.48,0,0,1,5.47-.45C112.46,109.49,113.53,111,113.53,116.85ZM104,111.72v10.07a26.59,26.59,0,0,0,3.33.21c3.28,0,3.68-1,3.68-5.13s-.38-5.16-3.63-5.16Z" style="fill:#003764"/><path d="M125.67,109.74a.39.39,0,0,1,.38.41h0v1.13a.37.37,0,0,1-.31.4h-5c-1.22,0-2,.42-2,1.38v.34c0,.74.34,1.38,1.64,1.85l3.52,1.4c2.43.93,2.65,2.28,2.65,3.73v.3c0,3-1.77,3.55-5.35,3.55-2.3,0-4.39-.19-4.84-.24s-.4-.19-.4-.39v-1.18a.36.36,0,0,1,.31-.39h5c2.12,0,2.78-.24,2.78-1.38v-.31c0-.77-.32-1.28-1.54-1.78l-3.75-1.43a3.71,3.71,0,0,1-2.54-3.78v-.55c0-3,2.54-3.31,5.37-3.31A34.26,34.26,0,0,1,125.67,109.74Z" style="fill:#003764"/><path d="M24.72,5.15S5.2,5.15,5.2,24.67v101s0,19.53,19.52,19.53h141.9s19.53,0,19.53-19.53V24.67s0-19.52-19.53-19.52Z" style="fill:none;stroke:#103a5d;stroke-width:2.51389524052214px"/></g></svg>