<svg xmlns="http://www.w3.org/2000/svg" viewBox="0 0 100 100"><linearGradient id="A" x1="80.51" x2="19.49" y1="109.92" y2="-9.92" gradientUnits="userSpaceOnUse"><stop offset="0" stop-color="#dc964c"/><stop offset="1" stop-color="#ffc57f"/></linearGradient><path fill="url(#A)" d="M0 0h100v100H0V0z"/><g fill="#fff"><path d="M68 48.5h5.1a.47.47 0 0 0 .5-.5v-2.9l.2.2c.2.2.5.1.7-.1s.1-.5-.1-.7l-3.6-3.1c-.2-.2-.5-.2-.6 0l-3.6 3.1c-.2.2-.2.5-.1.7.1.1.2.2.3.2s.3 0 .3-.1l.2-.2V48c.2.3.4.5.7.5zm-9.1 13.2h4.2c.2 0 .4-.2.4-.4V59l.2.1c.2.1.4.1.6 0 .1-.2.1-.4 0-.6l-3-2.5c-.1-.1-.4-.1-.5 0l-2.9 2.5c-.2.1-.2.4 0 .6.1.1.2.1.3.1s.2 0 .3-.1l.2-.1v2.4c-.2.1 0 .3.2.3zm11.5 10.2h5.1a.47.47 0 0 0 .5-.5v-2.9l.2.2c.2.2.5.1.7-.1s.1-.5-.1-.7l-3.6-3.1c-.2-.2-.5-.2-.6 0L69 67.9c-.2.2-.2.5-.1.7.1.1.2.2.3.2s.3 0 .3-.1l.2-.2v2.9c.2.3.4.5.7.5zM31.5 40.2h5.1a.47.47 0 0 0 .5-.5v-2.9l.2.2c.2.2.5.1.7-.1s.1-.5-.1-.7l-3.6-3.1c-.2-.2-.5-.2-.6 0l-3.6 3.1c-.2.2-.2.5-.1.7.1.1.2.2.3.2s.3 0 .3-.1l.2-.2v2.9c.2.2.4.5.7.5z" opacity=".7"/><path d="M80 20c-.5-.5-1.3-.5-1.7 0l-7.7 7.7c-5.6-5.2-12.8-8-20.5-8-16.7 0-30.3 13.6-30.3 30.3a30.34 30.34 0 0 0 41.4 28.2c.3-.1.5-.4.7-.7.1-.3.1-.6 0-.9-.2-.6-1-.9-1.6-.7a27.87 27.87 0 0 1-38-25.9c0-15.3 12.5-27.8 27.8-27.8 7 0 13.6 2.6 18.8 7.3l-6.8 6.8c-3.3-2.9-7.5-4.5-12-4.5a18.33 18.33 0 0 0-15.1 8c-.4.6-.2 1.3.3 1.7.2.1.4.2.7.2.4 0 .8-.2 1-.5 3-4.3 7.8-6.9 13.1-6.9 3.8 0 7.4 1.3 10.2 3.8l-6.8 6.8a6.23 6.23 0 0 0-9.6 5.2c0 3.4 2.8 6.2 6.2 6.2.7 0 1.2-.6 1.2-1.2 0-.7-.6-1.2-1.2-1.2a3.8 3.8 0 1 1 0-7.6c.6 0 1.1.1 1.6.4L49.3 49c-.5.5-.5 1.3 0 1.7.1.1.3.2.4.3h.1c.1 0 .2.1.3.1s.2 0 .3-.1h.2c.1-.1.3-.2.4-.3l2.5-2.5c.2.5.4 1.1.4 1.6 0 .7.6 1.2 1.2 1.2.7 0 1.2-.6 1.2-1.2 0-1.3-.4-2.5-1-3.4L80 21.7c.5-.5.5-1.3 0-1.7zM35 44.2c-.2-.3-.4-.5-.7-.6s-.6-.1-.9.1-.5.4-.6.7c-.6 1.8-.8 3.6-.8 5.5 0 8.5 5.7 15.7 14 17.7h.3c.6 0 1.1-.4 1.2-.9.2-.7-.3-1.3-.9-1.5-7.1-1.7-12.1-8-12.1-15.4 0-1.6.2-3.2.7-4.7 0-.3-.1-.6-.2-.9z"/></g></svg>
