<svg xmlns="http://www.w3.org/2000/svg" viewBox="0 0 100 100"><linearGradient id="A" x1="79.7" x2="20.4" y1="108.2" y2="-8.1" gradientUnits="userSpaceOnUse"><stop offset="0" stop-color="#dc964c"/><stop offset="1" stop-color="#ffc57f"/></linearGradient><path fill="url(#A)" d="M0 5.8C0 2.7 2.6.1 5.7.1h88.6c3.1 0 5.7 2.6 5.7 5.7v88.6c0 3.1-2.6 5.7-5.7 5.7H5.7A6 6 0 010 94.3V5.8z"/><g fill="#fff"><g fill-rule="evenodd" opacity=".9"><path d="M84.8 88.9v.8l.1.1 1.1.6 1.7 1 1.2.7.1.2v1.5l-4.1-2.4v.7l.1.1 3.9 2.3.1.3v1.4l-.2-.1-5.2-3-.1-.2v-6.3l.2.1 4.5 2.7.7.4.1.2v1.5a34.6 34.6 0 0 0-4.2-2.6z"/><path d="M92.2 94.9v-4.8a2 2 0 0 0-.6.4v4.7c0 .1 0 .2-.2.3l-1.2.7V90l.1-.2 5.3-3.1.1-.1v6.1c0 .3-.1.4-.3.5l-1 .6-.2.1v-4.8l-.7.4v4.8l-.1.1c-.3 0-.7.2-1.2.5z" opacity=".8"/><path d="M89.8 88.6a145.6 145.6 0 01-5.7-3.1l-.3-.2.2-.1 5.4-3.2h.3l5.4 3.2.1.1-.1.1-5.1 3-.2.2zm-3.2-3.3l.2.1 2.6 1.5h.3l2.6-1.5.1-.1-.1-.1-2.7-1.5c-.1-.1-.2 0-.2 0l-2.6 1.5-.2.1z" opacity=".6"/></g><path d="M66.3 49.3h5.1c.3 0 .5-.2.5-.4v-3l.2.2c.2.2.5.1.7-.1s.1-.5-.1-.7l-3.6-3.1c-.2-.2-.5-.2-.6 0l-3.6 3.1c-.2.2-.2.5-.1.7l.3.2.3-.1.2-.2v2.9c.2.3.4.5.7.5zm-9.1 13.2h4.2c.2 0 .4-.2.4-.4v-2.3l.2.1h.6v-.6l-3-2.5h-.5l-2.9 2.5c-.2.1-.2.4 0 .6l.3.1.3-.1.2-.1v2.4c-.2.1 0 .3.2.3zm11.5 10.2h5.1c.3 0 .5-.2.5-.4v-3l.2.2c.2.2.5.1.7-.1s.1-.5-.1-.7l-3.6-3.1c-.2-.2-.5-.2-.6 0l-3.6 3.1c-.2.2-.2.5-.1.7l.3.2.3-.1.2-.2v2.9c.2.3.4.5.7.5zM29.8 41h5.1c.3 0 .5-.2.5-.4v-3l.2.2c.2.2.5.1.7-.1s.1-.5-.1-.7l-3.6-3.1c-.2-.2-.5-.2-.6 0L28.4 37c-.2.2-.2.5-.1.7l.3.2.3-.1.2-.2v2.9c.2.2.4.5.7.5z" opacity=".7"/><path d="M78.3 20.8c-.5-.5-1.3-.5-1.7 0l-7.7 7.7A30.3 30.3 0 1059.5 79c.3-.1.5-.4.7-.7v-.9c-.2-.6-1-.9-1.6-.7a28 28 0 01-38-25.9 27.9 27.9 0 0146.6-20.5l-6.8 6.8a18.3 18.3 0 00-27.1 3.5c-.4.6-.2 1.3.3 1.7l.7.2c.4 0 .8-.2 1-.5a15.9 15.9 0 0123.3-3.1l-6.8 6.8a6.2 6.2 0 00-8.6 1.9c-.6 1-1 2.1-1 3.3 0 3.4 2.8 6.2 6.2 6.2.7 0 1.2-.6 1.2-1.2 0-.7-.6-1.2-1.2-1.2a3.8 3.8 0 110-7.6 3 3 0 011.6.4l-2.4 2.3c-.5.5-.5 1.3 0 1.7l.4.3h.1l.3.1.3-.1h.2l.4-.3 2.5-2.5c.2.5.4 1.1.4 1.6 0 .7.6 1.2 1.2 1.2.7 0 1.2-.6 1.2-1.2 0-1.3-.4-2.5-1-3.4l24.7-24.7c.5-.5.5-1.3 0-1.7zM33.3 45c-.2-.3-.4-.5-.7-.6a1 1 0 00-.9.1c-.3.2-.5.4-.6.7a18 18 0 0013.2 23.2h.3c.6 0 1.1-.4 1.2-.9.2-.7-.3-1.3-.9-1.5a15.8 15.8 0 01-11.4-20.1 3 3 0 00-.2-.9z"/></g></svg>