<svg xmlns="http://www.w3.org/2000/svg" xml:space="preserve" id="Ebene_2_00000003082143268403364210000017331588248483125951_" x="0" y="0" style="enable-background:new 0 0 360 360" version="1.1" viewBox="0 0 360 360"><style>.st2{fill:#f2edd5}</style><g id="bg"><path d="M80 0h200c44.2 0 80 35.8 80 80v200c0 44.2-35.8 80-80 80H80c-44.2 0-80-35.8-80-80V80C0 35.8 35.8 0 80 0z" style="fill:#a13609"/><path d="M95 25h170c38.7 0 70 31.3 70 70v170c0 38.7-31.3 70-70 70H95c-38.7 0-70-31.3-70-70V95c0-38.7 31.3-70 70-70z" style="fill:#2d3f4b"/></g><path id="frame" d="M270 34c14.9 0 28.9 5.8 39.5 16.5S326 75.1 326 90v180c0 14.9-5.9 28.9-16.5 39.5S284.9 326 270 326H90c-14.9 0-28.9-5.9-39.5-16.5S34 284.9 34 270V90c0-14.9 5.8-28.9 16.5-39.5S75.1 34 90 34h180m0-14H90c-38.5 0-70 31.5-70 70v180c0 38.5 31.5 70 70 70h180c38.5 0 70-31.5 70-70V90c0-38.5-31.5-70-70-70z" class="st2"/><path d="M233.9 250.7h46.9v20.5h-46.9v-20.5z" style="fill:none"/><path d="M115.3 129.7c0-25.6 20.9-46.5 46.5-46.5s46.5 20.9 46.5 46.5c0 54.3 23.2 69.7 23.2 69.7H92.2s23.1-15.5 23.1-69.7m33.3 100.7c4 7.3 13.1 9.9 20.5 5.9 2.5-1.3 4.5-3.4 5.9-5.9" style="fill:none;stroke:#f2edd5;stroke-width:15;stroke-linecap:round;stroke-linejoin:round"/><path d="M293.3 224.2c6.4 0 11.7 5.3 11.7 11.7v26.3c0 6.4-5.3 11.7-11.7 11.7h-79.1c-6.4 0-11.7-5.3-11.7-11.7V236c0-6.4 5.3-11.7 11.7-11.7h79.1m0-3.1h-79.1c-8 0-14.6 6.5-14.6 14.6v26.3c0 8 6.5 14.6 14.6 14.6h79.1c8 0 14.6-6.5 14.6-14.6v-26.3c0-8-6.6-14.6-14.6-14.6z" class="st2"/><path d="M241.2 244.7c0 1.9-.4 3.4-1.2 4.5s-1.9 2-3.3 2.6c-1.4.5-3 .8-4.8.8H229v8.5h-4v-23.9h6.7c3 0 5.3.7 7.1 1.9s2.4 3.1 2.4 5.6zm-4.3.1c0-1.6-.4-2.9-1.4-3.5s-2.2-1.1-3.7-1.1H229v9.3h2.9c1.5 0 2.7-.4 3.7-1.1s1.3-1.8 1.3-3.6zm24.4-.6c0 1.8-.5 3.1-1.6 4.2s-2.3 1.9-3.8 2.3l6.8 10.4h-4.6l-6-9.8h-2.6v9.8h-4v-23.9h6.7c3 0 5.3.5 7 1.8 1.6 1.2 2.1 2.8 2.1 5.2zm-4.2 0c0-1.4-.4-2.3-1.2-3-.8-.7-2-1-3.7-1h-2.9v8.2h3c1.5 0 2.7-.3 3.5-1 .9-.7 1.3-1.7 1.3-3.2zm25.5 5c0 2.5-.3 4.6-1 6.5-.7 1.9-1.6 3.3-3 4.4s-3 1.5-5 1.5-3.7-.5-5-1.5-2.3-2.5-3-4.4c-.7-1.9-1-4.1-1-6.5 0-2.5.3-4.6 1-6.5.7-1.9 1.6-3.3 3-4.4s3-1.6 5-1.6 3.7.5 5 1.5c1.4 1.1 2.3 2.5 3 4.4.7 2 1 4.1 1 6.6zm-4.1 0c0-3.1-.4-5.5-1.1-7-.8-1.5-2-2.3-3.8-2.3s-3 .8-3.8 2.3c-.8 1.5-1.1 4-1.1 7 0 3.1.4 5.5 1.2 7 .8 1.5 2 2.3 3.8 2.3s3-.8 3.8-2.3c.6-1.5 1-3.9 1-7z" class="st2"/></svg>