<svg width="600" height="260">
  <path fill="#88cf18" d="M354.71106 238.09574c-13.24776-1.49828-26.20677-6.9423-40.78156-17.13209-5.04342-3.52606-10.31887-7.63439-21.17557-16.49081-25.65302-20.9266-32.74662-25.41012-48.51417-30.6634-12.96798-4.32055-26.38715-7.12787-49.14627-10.28151-20.01444-2.77332-25.9692-4.11314-29.75137-6.69408-1.53644-1.04847-3.08683-3.27079-2.60076-3.72795.15-.14108 3.04609-.0659 6.43576.16697 25.62359 1.76068 50.4645 2.08851 69.84776.92179 8.06501-.48544 16.0706-1.25567 16.3915-1.57704.11071-.11088.21436-3.78076.23033-8.1553.0401-10.97795.96208-18.54867 3.41285-28.0231 8.99365-34.76844 35.60876-67.34801 68.77628-84.18906 15.54546-7.89332 30.77382-11.51882 43.45502-10.34558 4.0966.379 11.3252 1.90761 11.9432 2.5256.8248.82481 3.2814 13.36752 4.1548 21.21312 2.6198 23.53265.3538 52.82921-5.9862 77.39311-.6001 2.32474-1.0267 4.33084-.9481 4.45802.079.12718 2.5295.33125 5.4465.45349 13.6615.57252 25.9058 3.34269 35.7353 8.08483 7.5909 3.66221 12.3408 7.22789 19.6282 14.73469 6.5296 6.72619 9.1842 9.10233 13.154 11.77453 3.6113 2.43082 9.7839 5.62133 14.8134 7.6568l3.4389 1.39174-5.3352.19934c-5.5929.20896-8.9981.7631-12.2799 1.99838-5.0879 1.91511-8.7627 4.41245-13.1814 8.95812-3.6128 3.71662-4.9463 5.40799-11.6371 14.76052-2.4871 3.47659-5.592 7.6722-6.8997 9.32357-3.0484 3.84939-11.166 11.96697-14.4341 14.43405-10.9705 8.28162-23.9895 13.94731-37.2942 16.22997-4.4166.75773-12.8588 1.05813-16.8982.60128zm61.1483-68.36212c2.2916-1.04914 4.6922-3.35369 5.7614-5.531.7766-1.58133.873-2.12671.873-4.93818 0-2.79787-.098-3.36001-.8562-4.89883-2.5353-5.14684-8.1948-7.71644-13.5153-6.13639-3.1623.93908-5.7267 3.12108-7.212 6.13639-.7587 1.54014-.856 2.09857-.8542 4.89883 0 3.70992.547 5.22984 2.7171 7.58411 3.4745 3.76947 8.6582 4.91228 13.0862 2.88507zm-122.78938-8.63358c3.0797-.88201 9.37291-3.54337 11.17894-4.72751 1.0334-.67756 1.15603-.86854.79013-1.23048-.23822-.23564-5.37771-1.94448-11.4211-3.79742-8.4872-2.60223-11.08676-3.28699-11.42203-3.00874-.23874.19814-.7635 1.24114-1.16613 2.31778-1.96771 5.2616.24549 10.59194 4.6737 11.25632 2.12257.31845 4.23895.0857 7.36649-.80995zm20.41129-17.16419c2.02489 0 .44278-1.30803-13.18865-10.90383-7.65499-5.38871-14.20754-9.93412-14.56123-10.10091-.79655-.37564-1.70983.64761-3.09151 3.46379-2.2595 4.60539-1.65654 9.7382 1.46604 12.47986 3.24837 2.85211 10.77755 4.55913 22.2383 5.04189 3.04201.12815 5.72034.18488 5.95185.12609.2315-.0588.76484-.10689 1.1852-.10689zm12.77431-10.24316c0-.72143-31.52822-34.95245-32.19269-34.95245-.94579 0-3.16374 1.8091-4.18135 3.41057-2.00706 3.15863-2.44604 7.8414-.99956 10.6627 2.51057 4.89677 13.61743 11.71141 31.21056 19.14931 5.25735 2.22267 6.16304 2.47688 6.16304 1.72987zm10.42975-5.8154c0-.14075-5.08931-12.54979-11.30955-27.57564-9.8193-23.71984-11.40117-27.33296-12.00483-27.42006-.98601-.14226-4.31206 1.71495-6.26062 3.49583-2.08415 1.90479-3.37544 3.91597-4.26951 6.64973-.63725 1.94851-.66495 2.30569-.30394 3.91886 1.34884 6.02727 9.59026 16.77098 26.16055 34.1035 4.23657 4.43146 6.99976 7.08368 7.38004 7.08368.33432 0 .60786-.11515.60786-.2559zm28.06793-5.50772c.2657-2.22974 4.6888-76.93502 4.5739-77.25017-.2349-.64363-3.3432-1.76883-5.3259-1.92798-3.0389-.24394-5.1007.51199-7.4883 2.74552-2.3152 2.16567-3.2277 3.8135-3.688 6.65953-1.1321 7.00022.8839 23.77796 5.6778 47.25407 1.6575 8.11697 4.9883 22.86975 5.2655 23.3215.2989.48736.8886.007.985-.80247zm-12.8974.37014c0-.77916-12.06736-66.25368-12.32763-66.88664-.6035-1.46772-5.2492-1.2061-8.32677.46892-3.08635 1.67981-5.26349 5.2644-5.25973 8.66.006 5.14703 3.84081 15.71172 11.73835 32.33602 3.13695 6.6033 11.70008 23.31437 12.83468 25.04721.4792.73186 1.3411.97253 1.3411.37449zm-137.95721-9.12519c-4.73047-.77209-7.768-2.26907-10.94231-5.39268-1.9756-1.94404-2.67002-2.91045-3.86078-5.3729-4.31886-8.93123-4.39172-22.06647-.16996-30.63657 1.02411-2.07891 1.87758-3.23029 3.87643-5.22951 4.25319-4.25398 8.37931-5.88871 15.04729-5.96162 5.20942-.057 8.86457 1.14482 12.57363 4.13406 2.38104 1.91895 2.32392 2.18336 2.21712-10.26338-.0829-9.65932-.15964-11.10629-.63523-11.97491-.6504-1.18789-2.50603-2.0145-4.52229-2.0145-1.34742 0-1.41585-.0437-1.41585-.90491 0-.88498.0609-.917 2.76225-1.45349 3.18848-.63322 6.15647-1.68984 8.56947-3.05077.93065-.52489 1.89066-.87814 2.13336-.78501.3741.14355.44126 5.68075.44126 36.37749 0 39.21969-.065 37.7218 1.68742 38.87004.43563.28543 1.59248.60158 2.57079.70256 1.58118.16319 1.7682.25747 1.68376.84883-.0883.61819-.35213.67976-3.72959.87019-1.99904.11272-4.60345.43273-5.78759.71112-1.18413.2784-2.3468.50619-2.58371.50619-.31531 0-.49052-.76414-.6538-2.85136-.12268-1.56824-.32143-2.91215-.44166-2.98646-.12024-.0743-1.20503.60696-2.41065 1.51393-3.88289 2.92105-7.3598 4.19486-12.16406 4.45646-1.46577.0798-3.37615.0291-4.2453-.1128zm7.80676-3.22011c2.89194-.61446 5.83647-2.33415 8.53171-4.98276l2.4667-2.42402V71.66739l-1.8172-2.00807c-6.2489-6.90526-15.58727-7.59605-21.59443-1.59743-4.15207 4.14619-5.91478 10.69595-5.57698 20.72268.19883 5.90173 1.01418 9.65928 2.91502 13.43385 1.22109 2.42475 3.90384 5.53276 5.77276 6.68781 2.63078 1.62592 6.06697 2.17563 9.30242 1.48818zm203.31674 3.22105c-3.8384-.62879-6.8213-1.83578-9.8134-3.97086-1.0966-.78252-2.1364-1.42276-2.3107-1.42276-.1744 0-1.6129 1.14237-3.1967 2.53859-1.5838 1.39623-3.0157 2.45451-3.182 2.35175-.1893-.11702-.303-12.90585-.3041-34.22293 0-21.5537-.1168-34.45037-.3156-35.16574-.4764-1.7152-1.4919-2.47754-3.6586-2.74665-1.7227-.21396-1.8787-.29918-1.9685-1.07529-.091-.7894.016-.86641 1.6863-1.21321 2.589-.53747 5.6648-1.63777 8.3215-2.97685 1.2787-.64454 2.5232-1.09583 2.7655-1.00287.3684.14138.4404 2.75413.4404 15.9816 0 13.9801.056 15.81258.4834 15.81258.2658 0 1.2259-.5913 2.1333-1.314 4.847-3.86 12.3487-5.27593 18.9245-3.57197 7.1633 1.85617 12.0276 7.30398 14.3833 16.10854.7643 2.85653.8461 3.70068.8569 8.84681.011 5.13943-.07 6.0158-.8343 9.07264-2.8464 11.38028-9.6713 17.62695-19.7636 18.08904-1.687.0772-3.7784.024-4.6476-.11842zm7.8256-4.06855c4.0539-1.9957 6.9956-6.25541 8.6635-12.54496.7668-2.8914.8406-3.69879.866-9.48159.022-5.01301-.092-6.87699-.55-9.00752-.7581-3.52489-2.1634-6.84478-3.8899-9.19007-5.0148-6.81214-15.098-6.90958-22.4023-.2165l-2.0488 1.87729v33.10401l.8691.82769c1.1407 1.08631 3.9835 3.03173 5.768 3.94731 2.8573 1.46598 4.7152 1.89535 7.7755 1.797 2.4962-.0802 3.1507-.22737 4.9489-1.11266zm115.1191 4.06761c-4.7304-.77209-7.7679-2.26907-10.9423-5.39268-1.9756-1.94404-2.67-2.91045-3.8608-5.3729-4.3188-8.93123-4.3917-22.06647-.1699-30.63657 1.0241-2.07891 1.8776-3.23029 3.8764-5.22951 4.2532-4.25398 8.3793-5.88871 15.0473-5.96162 5.2094-.057 8.8646 1.14482 12.5737 4.13406 2.381 1.91895 2.3239 2.18336 2.2171-10.26338-.083-9.65932-.1597-11.10629-.6353-11.97491-.6504-1.18789-2.506-2.0145-4.5223-2.0145-1.3474 0-1.4158-.0437-1.4158-.90491 0-.88498.061-.917 2.7622-1.45349 3.1885-.63322 6.1565-1.68984 8.5695-3.05077.9307-.52489 1.8907-.87814 2.1334-.78501.3741.14355.4412 5.68075.4412 36.37749 0 39.21969-.065 37.7218 1.6874 38.87004.4357.28543 1.5925.60158 2.5709.70256 1.5811.16319 1.7681.25747 1.6837.84883-.088.61819-.3521.67976-3.7296.87019-1.999.11272-4.6034.43273-5.7876.71112-1.1841.2784-2.3468.50619-2.5837.50619-.3153 0-.4905-.76414-.6538-2.85136-.1227-1.56824-.3214-2.91215-.4417-2.98646-.1202-.0743-1.205.60696-2.4106 1.51393-3.8829 2.92105-7.3598 4.19486-12.1641 4.45646-1.4657.0798-3.3761.0291-4.2453-.1128zm7.8068-3.22011c2.8919-.61446 5.8365-2.33415 8.5317-4.98276l2.4667-2.42402V71.66739l-1.8172-2.00807c-6.2489-6.90526-15.5873-7.59605-21.5944-1.59743-4.1521 4.14619-5.9148 10.69595-5.577 20.72268.1988 5.90173 1.0142 9.65928 2.915 13.43385 1.2211 2.42475 3.9039 5.53276 5.7728 6.68781 2.6308 1.62592 6.0669 2.17563 9.3024 1.48818zM20.2152 112.44037c-.11835-.11835-.21518-.61815-.21518-1.11067 0-.84253.0794-.89559 1.34322-.89725 2.16885-.003 3.61249-.54894 4.41113-1.66861l.72474-1.01608.0961-17.69898c.0529-9.73444.007-18.31245-.10139-19.06226-.11924-.82316-.53296-1.73726-1.04425-2.30723-.70871-.79005-1.22036-.99913-3.13816-1.28234-2.10165-.31037-2.29138-.40016-2.29138-1.08432 0-.55752.21953-.79336.86914-.93371 3.1004-.66985 6.74876-1.88884 8.91908-2.98006 1.3881-.69792 2.71975-1.26895 2.95921-1.26895.45721 0 .83613 2.65376.84061 5.8873.004 2.66033.5246 2.71844 3.1089.34683 5.52129-5.06688 10.5108-7.04707 15.85299-6.29159 5.16999.73113 8.13626 2.66573 10.24747 6.68338.64266 1.22296 1.2488 2.22357 1.347 2.22357.0982 0 1.41652-1.17335 2.92961-2.60744 4.32398-4.09823 8.16267-6.00678 12.93449-6.43086 2.44349-.21716 5.9983.43514 8.21234 1.50694 2.05002.9924 4.04402 3.1138 5.15171 5.48089 1.6769 3.58345 1.82251 5.36333 1.86137 22.75196.0248 11.1045.14576 16.16853.4068 17.03329.48299 1.60002 1.66609 2.45427 3.66509 2.64635 1.58179.15199 1.60381.16881 1.60381 1.22485v1.07075l-9.24456-.0838-9.24455-.0838v-.94816c0-.90872.0698-.95668 1.67774-1.15293 1.86342-.22743 2.77648-.86566 3.42273-2.39252.68043-1.60762.62075-31.74801-.0695-35.08964-.81572-3.94913-2.35647-6.32929-5.03099-7.77189-1.01458-.54724-1.79471-.68106-3.95067-.67766-2.33975.004-2.9542.13035-4.76115.98158-2.43401 1.14663-5.72287 4.0931-7.7684 6.95965l-1.4082 1.97341.0947 16.53066c.10489 18.30665.063 17.93696 2.14943 18.97957.6082.30393 1.63916.55282 2.29102.55309 1.14469.00064 1.1852.0385 1.1852 1.11145v1.11096l-9.24456-.0838-9.24456-.0838v-.94816c0-.90314.0761-.95745 1.60268-1.14378 2.11804-.25854 2.94053-.73867 3.48093-2.03204.66048-1.58074.64505-32.81749-.0178-35.94537-.88803-4.1908-2.94337-6.7662-6.14835-7.70405-4.51558-1.32136-9.50807 1.07118-14.61209 7.00253l-2.17576 2.52843.0857 16.76513c.0784 15.34742.13245 16.83648.63877 17.60885.7259 1.10732 1.58352 1.53854 3.5332 1.77652 1.52657.18633 1.60267.24064 1.60267 1.14378v.94816l-9.66148.0835c-5.31381.0459-9.75831-.0133-9.87666-.13169zm87.45455-.24519c-.4642-1.20968-.0124-1.5978 2.09277-1.7976 3.37051-.31991 4.39312-.98842 5.02028-3.28192.45148-1.65101.48057-35.54461.0319-37.15973-.54712-1.96951-1.50283-2.5623-4.48879-2.78423-2.52785-.18787-2.62113-.22272-2.62113-.97933 0-.74223.17891-.82128 3.31856-1.46632 3.35648-.68959 6.35749-1.69271 8.81546-2.94667 2.61262-1.33286 2.3849-3.35401 2.56246 22.74271.14791 21.73863.19464 23.2796.72991 24.06802.73794 1.08694 2.65513 1.8441 4.66941 1.8441h1.5939l-.099 1.02718-.099 1.02717-10.6751.0832c-9.10389.071-10.70107.0155-10.85155-.37661zm28.22099.24525c-.11838-.11839-.21525-.59874-.21525-1.06746 0-.82285.0721-.858 2.09234-1.02017 2.4355-.1955 3.57109-.87616 4.13188-2.47661.27511-.78516.37722-5.91039.37722-18.93359 0-13.02321-.10211-18.14844-.37722-18.9336-.54871-1.56596-1.73492-2.30193-4.07006-2.5252-1.8339-.17534-2.0036-.25507-2.08802-.98098-.0878-.75474.0609-.82916 3.31856-1.66114 1.96511-.50187 4.65886-1.49029 6.35623-2.3323 1.84004-.91278 3.05739-1.34971 3.2431-1.164.16351.16352.38943 2.1151.50204 4.33684.14925 2.94482.32001 4.08377.63013 4.20278.24448.0938 1.61506-.96887 3.22255-2.49861 3.00038-2.85524 6.20077-4.77756 9.6838-5.81657 2.2396-.66808 7.3313-.76255 9.89994-.18368 3.70651.83531 6.99165 3.24948 8.53292 6.27063 1.68104 3.2951 1.72053 3.75831 1.92228 22.55004.14413 13.42433.28365 17.70784.59451 18.25207.59752 1.04609 1.72967 1.67813 3.44565 1.92359 1.42942.20447 1.52107.27447 1.52107 1.16184v.94425h-18.64714v-.94816c0-.90314.0761-.95745 1.60267-1.14378 1.95001-.23802 2.80744-.66927 3.53319-1.77703.50983-.77818.55309-2.20494.55309-18.24095 0-15.64395-.0554-17.57582-.55034-19.1742-.87912-2.83937-2.31263-4.69375-4.48416-5.8007-1.70081-.867-2.15347-.95497-4.89882-.95201-2.63157.003-3.26635.11596-4.88227.87002-1.02157.47672-2.74545 1.50046-3.83083 2.27497-2.24846 1.60447-7.04551 6.58759-7.29045 7.57324-.0897.36103-.12181 7.83874-.0713 16.61711.074 12.85892.17711 16.12664.53068 16.81461.55533 1.08055 2.1215 1.83253 3.81664 1.83253 1.29375 0 1.31385.017 1.21644 1.02718l-.099 1.02717-9.50339.0836c-5.22686.046-9.60025-.0133-9.71864-.13169zm323.23022-.24525c-.4642-1.20968-.012-1.5978 2.0927-1.7976 3.3705-.31991 4.3932-.98842 5.0203-3.28192.4515-1.65101.4806-35.54461.032-37.15973-.5471-1.96951-1.5028-2.5623-4.4888-2.78423-2.5278-.18787-2.6211-.22272-2.6211-.97933 0-.74223.1789-.82128 3.3186-1.46632 3.3564-.68959 6.3574-1.69271 8.8154-2.94667 2.6126-1.33286 2.3849-3.35401 2.5625 22.74271.1479 21.73863.1946 23.2796.7299 24.06802.7379 1.08694 2.6551 1.8441 4.6694 1.8441h1.5939l-.099 1.02718-.099 1.02717-10.6751.0832c-9.1039.071-10.7011.0155-10.8515-.37661zm28.2206.24484c-.1182-.11816-.2149-.59833-.2149-1.06705 0-.81905.078-.85847 2.0037-1.01305 1.1021-.0885 2.3677-.39932 2.8125-.69079 1.662-1.08897 1.6629-1.10003 1.6629-21.04259 0-17.05393-.043-18.56812-.5564-19.50692-.7208-1.31863-1.5456-1.73657-3.8684-1.96017-1.7573-.16918-1.9033-.24342-1.9926-1.01322-.089-.76931.016-.84746 1.4223-1.05786 2.2682-.33936 6.2958-1.68023 8.7423-2.91054 1.1919-.59935 2.3463-1.02096 2.5653-.9369.2714.10415.4709 1.36928.6262 3.97157.2773 4.64538.4888 4.76466 3.1359 1.7682 2.0999-2.37704 5.0508-4.55994 7.3083-5.40638 3.6078-1.35269 8.4805-.42583 10.6296 2.02193 2.558 2.91331 2.466 6.76756-.1823 7.64158-1.8565.61271-3.0773-.20998-4.4867-3.02374-1.557-3.10826-2.2512-3.73099-4.1493-3.72232-2.9004.0132-6.4775 2.66189-10.2788 7.61084l-1.5095 1.96519.09 16.7381c.088 16.41162.1026 16.7555.7502 17.63011.9441 1.27503 2.1614 1.76549 4.802 1.93496l2.3145.14853-.096.98453-.096.98453-10.6099.0831c-5.8355.0457-10.7067-.0135-10.8248-.13169zm-371.65469-59.3913c-1.38977-.75401-2.24758-2.77429-2.27209-5.35107-.0238-2.50693.67883-4.25124 2.15718-5.35499 1.1878-.88681 3.6141-.88652 4.83079.00063 3.05591 2.22812 3.0814 8.70822.0416 10.56157-1.24591.75962-3.49707.82771-4.75743.14391zm351.4512 0c-1.3898-.75401-2.2476-2.77429-2.2721-5.35107-.024-2.50693.6788-4.25124 2.1572-5.35499 1.1878-.88681 3.6141-.88652 4.8308.00063 3.0559 2.22812 3.0814 8.70822.042 10.56157-1.2459.75962-3.4971.82771-4.7574.14391z"/>
</svg>