<?xml version="1.0" encoding="UTF-8" standalone="no"?>
<!-- Created with Inkscape (http://www.inkscape.org/) -->

<svg
   width="1000"
   height="1000"
   id="svg2"
   version="1.1"
   xmlns="http://www.w3.org/2000/svg"
   xmlns:svg="http://www.w3.org/2000/svg"
   xmlns:rdf="http://www.w3.org/1999/02/22-rdf-syntax-ns#"
   xmlns:cc="http://creativecommons.org/ns#"
   xmlns:dc="http://purl.org/dc/elements/1.1/">
  <defs
     id="defs4" />
  <metadata
     id="metadata7">
    <rdf:RDF>
      <cc:Work
         rdf:about="">
        <dc:format>image/svg+xml</dc:format>
        <dc:type
           rdf:resource="http://purl.org/dc/dcmitype/StillImage" />
      </cc:Work>
    </rdf:RDF>
  </metadata>
  <g
     id="layer1"
     transform="translate(-77.535414,-158.52627)">
    <path
       id="path3009"
       style="fill:#88cf18;fill-opacity:1"
       d="m 685.72991,635.55456 c 0,-2.4653 -38.1815,-209.62825 -39.005,-211.63095 -1.9095,-4.64391 -16.6086,-3.81614 -26.3461,1.48366 -9.7653,5.31496 -16.6538,16.65669 -16.6419,27.40046 0.018,16.28533 12.1524,49.71227 37.1404,102.31193 9.9254,20.89302 37.0193,73.76724 40.6093,79.25 1.5163,2.3156 4.2433,3.0771 4.2433,1.1849 z m 40.8077,-1.17115 c 0.8406,-7.05495 14.8355,-243.42425 14.4717,-244.42138 -0.7432,-2.03649 -10.5777,-5.59662 -16.8513,-6.1002 -9.6151,-0.77181 -16.1385,1.61996 -23.6931,8.68691 -7.3251,6.85224 -10.2124,12.06599 -11.6687,21.07092 -3.582,22.14885 2.7964,75.23403 17.9645,149.51301 5.2445,25.68227 15.7833,72.36043 16.6601,73.78978 0.9458,1.54201 2.8116,0.0221 3.1168,-2.53904 z m -88.8077,17.42656 c 0,-0.44533 -16.1027,-39.70783 -35.7837,-87.25 -31.0685,-75.05013 -36.07355,-86.48213 -37.98356,-86.75771 -3.11976,-0.45012 -13.64346,5.42614 -19.80875,11.06087 -6.5943,6.02681 -10.67998,12.39025 -13.50882,21.03993 -2.01628,6.16513 -2.10393,7.29526 -0.96168,12.39937 4.26777,19.07041 30.34382,53.06376 82.77261,107.90427 13.4046,14.02125 22.1474,22.41296 23.3506,22.41296 1.0578,0 1.9233,-0.36436 1.9233,-0.80969 z m -33,18.40007 c 0,-2.28263 -99.75602,-110.59038 -101.85841,-110.59038 -2.99253,0 -10.01016,5.72401 -13.22991,10.79111 -6.35038,9.99397 -7.73932,24.81038 -3.16262,33.73705 7.94351,15.49349 43.08587,37.05517 98.75094,60.58887 16.6344,7.03258 19.5,7.83691 19.5,5.47335 z m -40.41821,32.40962 c 6.40685,0 1.40097,-4.13865 -41.72919,-34.5 -24.22057,-17.05 -44.95301,-31.43178 -46.07208,-31.95952 -2.52032,-1.18854 -5.40995,2.04906 -9.78162,10.95952 -7.14911,14.57155 -5.24132,30.8119 4.63858,39.48656 10.27793,9.02415 34.10043,14.42522 70.36252,15.95269 9.625,0.40544 18.0993,0.58496 18.83179,0.39895 0.73248,-0.18601 2.41998,-0.3382 3.75,-0.3382 z m -64.58179,54.30789 c 9.74422,-2.79068 29.65609,-11.2113 35.37041,-14.95796 3.2697,-2.14381 3.65772,-2.74807 2.5,-3.89326 -0.75372,-0.74557 -17.0152,-6.15237 -36.13662,-12.01512 -26.85371,-8.23351 -35.07878,-10.40012 -36.1396,-9.51972 -0.75537,0.6269 -2.41572,3.92697 -3.68967,7.33349 -6.22588,16.64783 0.77674,33.51317 14.78772,35.61527 6.71585,1.0076 13.41214,0.27133 23.30776,-2.5627 z m 388.5085,27.31685 c 7.2507,-3.31949 14.8462,-10.61113 18.2293,-17.5002 2.4571,-5.00336 2.7622,-6.72896 2.7622,-15.62454 0,-8.8525 -0.3109,-10.63113 -2.7092,-15.5 -8.0215,-16.28474 -25.9283,-24.41499 -42.7627,-19.4157 -10.0054,2.97128 -18.1194,9.87518 -22.8189,19.4157 -2.4004,4.87305 -2.7085,6.63992 -2.7026,15.5 0.01,11.7383 1.7306,16.54735 8.5968,23.99632 10.9936,11.9267 27.3947,15.54258 41.4051,9.12842 z m -193.4747,216.2994 c -41.9162,-4.7406 -82.9188,-21.96559 -129.0338,-54.20635 -15.9575,-11.15651 -32.64913,-24.15538 -67,-52.17731 -81.16678,-66.21228 -103.6111,-80.39822 -153.5,-97.01973 -41.031,-13.67032 -83.48958,-22.55275 -155.5,-32.53095 -63.32616,-8.77485 -82.16716,-13.01409 -94.134043,-21.18023 -4.86135,-3.31737 -9.7668,-10.34887 -8.22888,-11.79533 0.4746,-0.44639 9.63792,-0.20866 20.362923,0.52829 81.07364,5.57085 159.67089,6.60812 221,2.91659 25.51788,-1.53597 50.84775,-3.97299 51.8631,-4.98981 0.35029,-0.35081 0.67823,-11.96241 0.72875,-25.80357 0.12676,-34.7345 3.04405,-58.68844 10.79835,-88.66574 28.45611,-110.00819 112.66698,-213.09075 217.6098,-266.37624 49.1862,-24.97464 97.369,-36.4458 137.4928,-32.73367 12.9618,1.19918 35.833,6.03573 37.7884,7.99106 2.6097,2.60972 10.3826,42.29518 13.1461,67.11885 8.2891,74.45785 1.1192,167.15289 -18.9407,244.87366 -1.8985,7.35552 -3.2483,13.70289 -2.9996,14.10528 0.2487,0.40239 8.0033,1.04807 17.2326,1.43484 43.2256,1.81147 81.9668,10.57636 113.0674,25.58062 24.0179,11.58731 39.0467,22.86921 62.1043,46.6209 20.6598,21.28184 29.0588,28.79998 41.61959,37.25491 11.4262,7.69116 30.9563,17.78602 46.8698,24.2263 l 10.8807,4.40349 -16.8807,0.63071 c -17.696,0.66116 -28.47,2.41447 -38.8537,6.32292 -16.09849,6.05946 -27.72539,13.96112 -41.70639,28.34371 -11.4311,11.75947 -15.6502,17.111 -36.8199,46.70266 -7.8693,11 -17.6933,24.275 -21.831,29.5 -9.6451,12.17955 -35.3294,37.86376 -45.6697,45.66968 -34.7109,26.20322 -75.9033,44.12961 -118,51.35199 -13.9742,2.39747 -40.6854,3.34797 -53.4662,1.90247 z" />
  </g>
</svg>
