<svg xmlns="http://www.w3.org/2000/svg" width="1890.667" height="733.333"><path fill="#88cf18" d="M1129.636 731.27c-44.71-5.056-88.448-23.426-137.636-57.817-17.021-11.9-34.828-25.767-71.47-55.657-86.577-70.624-110.514-85.76-163.727-103.49-43.772-14.577-89.058-24.057-165.871-34.697-67.547-9.36-87.645-13.88-100.405-22.593-5.188-3.537-10.423-11.037-8.782-12.584.506-.473 10.282-.219 21.724.568 86.474 5.943 170.312 7.047 235.728 3.11 27.219-1.642 54.24-4.24 55.324-5.323.375-.376.724-12.762.776-27.527.135-37.047 3.25-62.599 11.52-94.573C837.172 203.344 926.995 93.39 1038.932 36.552c52.47-26.641 103.86-38.875 146.661-34.917 13.823 1.281 38.219 6.438 40.308 8.526 2.782 2.782 11.072 45.115 14.02 71.594 8.844 79.422 1.194 178.292-20.202 261.198-2.026 7.843-3.464 14.615-3.198 15.042.266.432 8.536 1.12 18.38 1.53 46.11 1.934 87.432 11.282 120.606 27.287 25.613 12.36 41.653 24.396 66.24 49.73 22.04 22.702 31 30.718 44.4 39.74 12.186 8.202 33.026 18.973 50 25.843l11.6 4.692-18 .678c-18.88.702-30.374 2.573-41.454 6.74-17.173 6.462-29.573 14.894-44.48 30.233-12.2 12.548-16.693 18.256-39.28 49.819-8.386 11.733-18.866 25.89-23.28 31.468-10.293 12.989-37.69 40.385-48.722 48.713-37.02 27.948-80.963 47.068-125.864 54.776-14.907 2.558-43.396 3.568-57.031 2.027zm206.377-230.718c7.734-3.541 15.827-11.317 19.44-18.667 2.627-5.338 2.947-7.177 2.947-16.666 0-9.443-.333-11.339-2.893-16.532-8.547-17.37-27.652-26.042-45.611-20.714-10.672 3.172-19.328 10.538-24.339 20.714-2.562 5.198-2.89 7.084-2.885 16.532.01 12.521 1.85 17.65 9.172 25.598 11.724 12.719 29.219 16.579 44.17 9.735zM921.6 471.416c10.396-2.979 31.636-11.957 37.729-15.957 3.49-2.287 3.901-2.934 2.667-4.152-.802-.796-18.151-6.563-38.547-12.818-28.641-8.781-37.417-11.093-38.547-10.15-.808.666-2.578 4.186-3.937 7.817-6.641 17.76.828 35.75 15.776 37.99 7.161 1.078 14.307.291 24.859-2.73zm68.89-57.932c6.834 0 1.49-4.41-44.516-36.797-25.833-18.187-47.946-33.526-49.14-34.094-2.688-1.265-5.77 2.188-10.432 11.694-7.63 15.541-5.594 32.864 4.948 42.12 10.958 9.624 36.37 15.385 75.052 17.014 10.266.432 19.307.626 20.088.428.782-.198 2.579-.365 4-.365zm43.11-34.568c0-2.437-106.406-117.963-108.646-117.963-3.193 0-10.677 6.104-14.114 11.51-6.771 10.662-8.255 26.464-3.375 35.985 8.473 16.525 45.957 39.525 105.339 64.63 17.738 7.5 20.796 8.36 20.796 5.838zm35.204-19.624c0-.48-17.178-42.36-38.172-93.068-33.142-80.057-38.48-92.25-40.516-92.541-3.328-.48-14.552 5.785-21.131 11.796-7.03 6.428-11.39 13.218-14.405 22.442-2.152 6.579-2.246 7.782-1.027 13.224 4.552 20.344 32.365 56.604 88.292 115.099 14.296 14.959 23.62 23.907 24.905 23.907 1.126 0 2.054-.386 2.054-.859zm94.724-18.59c.9-7.525 15.828-259.655 15.437-260.718-.792-2.172-11.281-5.968-17.975-6.505-10.254-.823-17.213 1.729-25.27 9.265-7.812 7.308-10.896 12.87-12.448 22.475-3.823 23.625 2.984 80.249 19.161 159.478 5.595 27.396 16.839 77.188 17.77 78.714 1.011 1.641 3 .021 3.325-2.708zM1120 341.949c0-2.625-40.73-223.599-41.604-225.74-2.036-4.953-17.719-4.068-28.104 1.584-10.417 5.67-17.765 17.77-17.75 29.228.02 17.37 12.963 53.027 39.614 109.13 10.59 22.287 39.49 78.689 43.317 84.537 1.62 2.469 4.527 3.281 4.527 1.261zm-465.599-30.797c-15.969-2.604-26.218-7.656-36.932-18.198-6.666-6.562-9.01-9.824-13.026-18.136-14.579-30.14-14.823-74.473-.579-103.396 3.459-7.014 6.339-10.901 13.084-17.65 14.355-14.355 28.281-19.87 50.787-20.12 17.577-.192 29.916 3.865 42.432 13.953 8.036 6.479 7.844 7.37 7.484-34.636-.282-32.604-.536-37.484-2.146-40.416-2.193-4.01-8.453-6.797-15.26-6.797-4.548 0-4.776-.151-4.776-3.058 0-2.984.203-3.093 9.323-4.905 10.76-2.136 20.776-5.704 28.916-10.297 3.147-1.771 6.385-2.964 7.204-2.646 1.26.484 1.49 19.171 1.49 122.771 0 132.364-.22 127.312 5.691 131.187 1.475.964 5.376 2.026 8.678 2.37 5.338.552 5.969.87 5.682 2.864-.297 2.084-1.188 2.292-12.589 2.938-6.744.38-15.536 1.458-19.53 2.401-3.995.937-7.922 1.708-8.72 1.708-1.062 0-1.655-2.583-2.207-9.625-.412-5.291-1.084-9.828-1.49-10.078-.406-.25-4.068 2.047-8.136 5.11-13.104 9.858-24.838 14.156-41.052 15.036-4.948.27-11.396.098-14.328-.38zm26.348-10.864c9.756-2.074 19.699-7.88 28.792-16.819l8.323-8.181V169.583l-6.13-6.776c-21.089-23.307-52.609-25.635-72.88-5.391-14.015 13.99-19.963 36.1-18.823 69.937.672 19.918 3.422 32.6 9.838 45.339 4.12 8.183 13.178 18.672 19.486 22.568 8.874 5.49 20.473 7.344 31.394 5.027zm686.184 10.869c-12.96-2.12-23.026-6.197-33.12-13.401-3.698-2.64-7.209-4.802-7.797-4.802-.59 0-5.443 3.854-10.792 8.567-5.344 4.715-10.177 8.281-10.74 7.939-.635-.396-1.02-43.558-1.025-115.5 0-72.746-.391-116.272-1.063-118.683-1.61-5.792-5.036-8.365-12.35-9.27-5.811-.725-6.338-1.011-6.64-3.631-.313-2.667.053-2.922 5.687-4.094 8.74-1.813 19.12-5.526 28.09-10.046 4.312-2.178 8.514-3.699 9.333-3.386 1.239.479 1.484 9.296 1.484 53.938 0 47.181.188 53.364 1.63 53.364.897 0 4.143-1.995 7.21-4.432 16.347-13.027 41.667-17.808 63.867-12.058 24.173 6.266 40.586 24.651 48.533 54.364 2.587 9.642 2.853 12.491 2.893 29.86.04 17.344-.226 20.302-2.813 30.62-9.6 38.406-32.64 59.49-66.707 61.052-5.693.26-12.746.078-15.68-.401zm26.414-13.73c13.68-6.74 23.6-21.114 29.24-42.338 2.586-9.76 2.84-12.484 2.92-32 .066-16.921-.307-23.213-1.854-30.401-2.56-11.895-7.306-23.104-13.133-31.015-16.92-22.995-50.947-23.323-75.6-.735l-6.92 6.339V279l2.932 2.792c3.855 3.667 13.441 10.233 19.468 13.323 9.64 4.948 15.907 6.396 26.24 6.068 8.427-.272 10.64-.772 16.707-3.756zm388.52 13.725c-15.96-2.604-26.214-7.656-36.934-18.198-6.666-6.562-9.013-9.824-13.026-18.136-14.574-30.14-14.827-74.473-.574-103.396 3.454-7.014 6.334-10.901 13.08-17.65 14.36-14.355 28.28-19.87 50.787-20.12 17.587-.192 29.92 3.865 42.44 13.953 8.027 6.479 7.84 7.37 7.48-34.636-.28-32.604-.547-37.484-2.147-40.416-2.186-4.01-8.453-6.797-15.253-6.797-4.547 0-4.787-.151-4.787-3.058 0-2.984.214-3.093 9.32-4.905 10.76-2.136 20.774-5.704 28.92-10.297 3.147-1.771 6.387-2.964 7.2-2.646 1.267.484 1.494 19.171 1.494 122.771 0 132.364-.227 127.312 5.693 131.187 1.467.964 5.373 2.026 8.68 2.37 5.333.552 5.96.87 5.68 2.864-.293 2.084-1.187 2.292-12.587 2.938-6.746.38-15.533 1.458-19.533 2.401-4 .937-7.92 1.708-8.72 1.708-1.067 0-1.653-2.583-2.2-9.625-.427-5.291-1.093-9.828-1.493-10.078-.414-.25-4.067 2.047-8.134 5.11-13.106 9.858-24.84 14.156-41.066 15.036-4.934.27-11.387.098-14.32-.38zm26.346-10.864c9.76-2.074 19.694-7.88 28.8-16.819l8.32-8.181V169.583l-6.133-6.776c-21.093-23.307-52.613-25.635-72.88-5.391-14.013 13.99-19.96 36.1-18.813 69.937.666 19.918 3.413 32.6 9.826 45.339 4.12 8.183 13.174 18.672 19.48 22.568 8.88 5.49 20.48 7.344 31.4 5.027zM.724 307.192c-.396-.4-.724-2.088-.724-3.75 0-2.843.265-3.026 4.53-3.031 7.325-.004 12.194-1.848 14.891-5.63l2.443-3.428.33-59.733c.175-32.855.02-61.803-.345-64.333-.401-2.782-1.797-5.866-3.526-7.787-2.391-2.667-4.115-3.375-10.588-4.328C.64 154.125 0 153.817 0 151.511c0-1.882.74-2.678 2.932-3.152 10.464-2.26 22.776-6.375 30.104-10.058 4.683-2.353 9.178-4.281 9.985-4.281 1.547 0 2.823 8.953 2.839 19.87.01 8.98 1.77 9.173 10.49 1.167 18.634-17.098 35.473-23.781 53.505-21.229 17.448 2.464 27.457 8.995 34.582 22.552 2.172 4.13 4.219 7.505 4.547 7.505.333 0 4.781-3.958 9.89-8.797 14.59-13.833 27.547-20.276 43.653-21.708 8.244-.73 20.244 1.47 27.718 5.088 6.916 3.35 13.646 10.51 17.386 18.495 5.656 12.1 6.15 18.105 6.281 76.792.083 37.474.49 54.568 1.375 57.485 1.63 5.4 5.62 8.28 12.369 8.932 5.339.51 5.412.568 5.412 4.13v3.614l-31.204-.281-31.197-.282v-3.202c0-3.063.234-3.23 5.661-3.891 6.292-.765 9.37-2.921 11.552-8.073 2.297-5.427 2.093-107.151-.235-118.427-2.754-13.328-7.952-21.359-16.978-26.23-3.422-1.847-6.058-2.295-13.334-2.286-7.896.01-9.969.439-16.068 3.313-8.213 3.87-19.317 13.812-26.218 23.49l-4.755 6.656.323 55.792c.354 61.786.213 60.536 7.254 64.057 2.052 1.025 5.532 1.864 7.73 1.864 3.865.005 4 .13 4 3.75v3.75l-31.198-.281-31.204-.282v-3.202c0-3.047.262-3.23 5.412-3.859 7.146-.87 9.922-2.49 11.75-6.86 2.229-5.333 2.177-110.755-.062-121.312-2.994-14.141-9.933-22.833-20.75-26-15.24-4.459-32.088 3.615-49.318 23.635l-7.338 8.532.286 56.582c.266 51.798.448 56.823 2.156 59.427 2.448 3.74 5.344 5.193 11.922 5.996 5.157.63 5.412.812 5.412 3.859v3.202l-32.61.282c-17.932.157-32.931-.047-33.333-.443zm295.156-.828c-1.563-4.083-.041-5.396 7.063-6.068 11.374-1.077 14.828-3.337 16.948-11.077 1.521-5.574 1.62-119.959.104-125.412-1.844-6.646-5.074-8.646-15.151-9.396-8.532-.635-8.844-.755-8.844-3.307 0-2.505.604-2.77 11.197-4.948 11.33-2.328 21.459-5.713 29.756-9.943 8.818-4.5 8.047-11.322 8.646 76.755.5 73.365.656 78.568 2.464 81.23 2.489 3.666 8.964 6.223 15.76 6.223h5.38l-.334 3.464-.338 3.468-36.026.282c-30.724.24-36.114.052-36.625-1.271zm95.245.828c-.396-.4-.724-2.02-.724-3.604 0-2.776.244-2.896 7.063-3.443 8.219-.661 12.052-2.958 13.943-8.358.926-2.652 1.27-19.948 1.27-63.902 0-43.953-.344-61.25-1.27-63.901-1.855-5.281-5.855-7.765-13.735-8.521-6.193-.594-6.765-.859-7.047-3.312-.297-2.547.203-2.798 11.198-5.604 6.63-1.694 15.724-5.031 21.453-7.87 6.208-3.084 10.317-4.557 10.943-3.933.552.552 1.317 7.141 1.698 14.641.499 9.938 1.078 13.782 2.124 14.183.823.317 5.454-3.272 10.876-8.433 10.124-9.635 20.927-16.124 32.682-19.63 7.557-2.256 24.745-2.573 33.412-.62 12.51 2.818 23.598 10.964 28.801 21.162 5.672 11.12 5.803 12.682 6.485 76.104.49 45.308.958 59.765 2.006 61.604 2.02 3.526 5.837 5.661 11.629 6.489 4.823.693 5.136.928 5.136 3.923v3.186h-62.932v-3.202c0-3.047.255-3.23 5.405-3.859 6.584-.803 9.475-2.256 11.928-5.996 1.719-2.63 1.864-7.443 1.864-61.561 0-52.798-.188-59.319-1.86-64.715-2.962-9.583-7.801-15.843-15.129-19.577-5.74-2.927-7.27-3.224-16.537-3.214-8.88.011-11.02.391-16.474 2.938-3.448 1.609-9.265 5.062-12.932 7.677-7.589 5.416-23.776 22.233-24.604 25.563-.302 1.218-.412 26.452-.24 56.077.25 43.401.599 54.427 1.792 56.75 1.875 3.646 7.156 6.187 12.88 6.187 4.364 0 4.432.058 4.104 3.464l-.333 3.468-32.073.282c-17.64.157-32.4-.047-32.802-.443zm1090.888-.828c-1.56-4.083-.04-5.396 7.067-6.068 11.373-1.077 14.827-3.337 16.947-11.077 1.52-5.574 1.613-119.959.106-125.412-1.853-6.646-5.08-8.646-15.16-9.396-8.52-.635-8.84-.755-8.84-3.307 0-2.505.614-2.77 11.2-4.948 11.334-2.328 21.454-5.713 29.747-9.943 8.827-4.5 8.053-11.322 8.653 76.755.507 73.365.654 78.568 2.467 81.23 2.493 3.666 8.96 6.223 15.76 6.223h5.373l-.333 3.464-.333 3.468-36.027.282c-30.733.24-36.12.052-36.627-1.271zm95.24.823c-.4-.395-.72-2.015-.72-3.599 0-2.765.267-2.896 6.76-3.421 3.72-.298 7.987-1.344 9.494-2.328 5.613-3.678 5.613-3.714 5.613-71.022 0-57.552-.147-62.666-1.88-65.833-2.427-4.448-5.213-5.859-13.053-6.615-5.934-.573-6.427-.822-6.72-3.421-.307-2.595.053-2.86 4.8-3.568 7.653-1.145 21.24-5.672 29.506-9.823 4.014-2.026 7.907-3.448 8.654-3.161.906.348 1.586 4.62 2.106 13.4.947 15.677 1.654 16.084 10.587 5.97 7.093-8.022 17.053-15.391 24.667-18.246 12.173-4.567 28.626-1.437 35.88 6.824 8.626 9.833 8.32 22.839-.614 25.79-6.266 2.069-10.4-.707-15.146-10.207-5.267-10.49-7.6-12.588-14.014-12.563-9.786.047-21.853 8.985-34.68 25.688l-5.093 6.63.293 56.495c.307 55.386.347 56.547 2.534 59.5 3.186 4.302 7.293 5.958 16.213 6.531l7.8.5-.64 6.645-35.813.282c-19.694.152-36.134-.047-36.534-.448zM322.937 106.744c-4.686-2.541-7.582-9.364-7.666-18.057-.078-8.463 2.292-14.348 7.281-18.072 4.01-2.995 12.197-2.995 16.303 0 10.312 7.52 10.4 29.39.14 35.645-4.203 2.563-11.802 2.792-16.058.484zm1186.143 0c-4.693-2.541-7.587-9.364-7.667-18.057-.093-8.463 2.28-14.348 7.267-18.072 4.013-2.995 12.2-2.995 16.307 0 10.32 7.52 10.4 29.39.146 35.645-4.213 2.563-11.8 2.792-16.053.484"/></svg>