<?xml version="1.0" encoding="UTF-8"?><svg id="Ebene_1" xmlns="http://www.w3.org/2000/svg" viewBox="0 0 53.83 53.83"><path d="m26.91,3.79C14.14,3.79,3.78,14.14,3.78,26.92c0,7.32,3.4,13.84,8.71,18.08v-20.97c0-1.85.66-3.45,1.97-4.76,1.31-1.31,2.91-1.97,4.76-1.97s3.45.66,4.76,1.97c1.31,1.31,1.97,2.91,1.97,4.76v12.5h-1.92v-12.5c0-1.35-.46-2.46-1.4-3.4-.94-.94-2.06-1.4-3.4-1.4s-2.46.46-3.4,1.4c-.94.94-1.4,2.06-1.4,3.4v22.35c3.6,2.32,7.89,3.67,12.5,3.67,12.77,0,23.13-10.36,23.13-23.13S39.69,3.79,26.91,3.79Zm12.44,30.77c-1.31,1.31-2.91,1.97-4.76,1.97s-3.45-.66-4.76-1.97c-1.31-1.31-1.97-2.91-1.97-4.76v-5.77c0-1.85.66-3.45,1.97-4.76,1.31-1.31,2.91-1.97,4.76-1.97s3.45.66,4.76,1.97c1.21,1.21,1.87,2.67,1.96,4.34h-1.93c-.09-1.17-.54-2.14-1.39-2.98-.94-.94-2.06-1.4-3.4-1.4s-2.46.46-3.4,1.4c-.94.94-1.4,2.06-1.4,3.4v5.77c0,1.35.46,2.46,1.4,3.4.94.94,2.06,1.4,3.4,1.4s2.46-.46,3.4-1.4c.85-.85,1.3-1.83,1.39-3.01h1.93c-.09,1.68-.75,3.15-1.96,4.36Z" fill="#0e0e0f"/><path d="m15.82,20.63c.94-.94,2.06-1.4,3.4-1.4s2.46.46,3.4,1.4c.94.94,1.4,2.06,1.4,3.4v12.5h1.92v-12.5c0-1.85-.66-3.45-1.97-4.76-1.31-1.31-2.91-1.97-4.76-1.97s-3.45.66-4.76,1.97c-1.31,1.31-1.97,2.91-1.97,4.76v20.97c.62.49,1.26.95,1.92,1.38v-22.35c0-1.35.46-2.46,1.4-3.4Z" fill="#fff"/><path d="m38,33.2c-.94.94-2.06,1.4-3.4,1.4s-2.46-.46-3.4-1.4c-.94-.94-1.4-2.06-1.4-3.4v-5.77c0-1.35.46-2.46,1.4-3.4.94-.94,2.06-1.4,3.4-1.4s2.46.46,3.4,1.4c.84.84,1.3,1.82,1.39,2.98h1.93c-.09-1.67-.75-3.13-1.96-4.34-1.31-1.31-2.91-1.97-4.76-1.97s-3.45.66-4.76,1.97c-1.31,1.31-1.97,2.91-1.97,4.76v5.77c0,1.85.66,3.45,1.97,4.76,1.31,1.31,2.91,1.97,4.76,1.97s3.45-.66,4.76-1.97c1.21-1.21,1.87-2.68,1.96-4.36h-1.93c-.09,1.17-.54,2.16-1.39,3.01Z" fill="#fff"/></svg>