<svg xmlns="http://www.w3.org/2000/svg" xml:space="preserve" id="Ebene_2_00000156570788268193613470000017052364798905568165_" x="0" y="0" style="enable-background:new 0 0 360 360" version="1.1" viewBox="0 0 360 360"><style>.st2{fill:#0098ac}</style><g id="bg"><path d="M80 0h200c44.2 0 80 35.8 80 80v200c0 44.2-35.8 80-80 80H80c-44.2 0-80-35.8-80-80V80C0 35.8 35.8 0 80 0z" style="fill:#a13609"/><path d="M95 25h170c38.7 0 70 31.3 70 70v170c0 38.7-31.3 70-70 70H95c-38.7 0-70-31.3-70-70V95c0-38.7 31.3-70 70-70z" style="fill:#02848e"/><path d="M158.9 85h42.3v113.8h-42.3V85z" class="st2"/><path d="m259 161.4-39.9 71.3h-78.2L101 161.4l-36.9 20.7 52.1 92.9h127.6l52.1-92.9-36.9-20.7z" class="st2"/></g><path id="frame" d="M270 34c14.9 0 28.9 5.8 39.5 16.5S326 75.1 326 90v180c0 14.9-5.9 28.9-16.5 39.5S284.9 326 270 326H90c-14.9 0-28.9-5.9-39.5-16.5S34 284.9 34 270V90c0-14.9 5.8-28.9 16.5-39.5S75.1 34 90 34h180m0-14H90c-38.5 0-70 31.5-70 70v180c0 38.5 31.5 70 70 70h180c38.5 0 70-31.5 70-70V90c0-38.5-31.5-70-70-70z" style="fill:#f2edd5"/><path d="M231.7 159.4c-1.1.5-2.3.7-3.5.7-2.4 0-4.7-.9-6.4-2.7-1.7-1.7-2.7-4.1-2.7-6.5 0-2.5 1-4.9 2.7-6.6 1.7-1.8 4-2.7 6.4-2.7 2.4 0 4.7 1 6.4 2.7 1.7 1.8 2.7 4.1 2.7 6.6 0 1.2-.2 2.4-.7 3.6-.5 1.1-1.1 2.1-2 3-.8.8-1.8 1.5-2.9 1.9zm13.9-10.3 18.5-3.4v72.1h-18.5v-68.7zm26.5 0v68.7h18.5v-72.1l-18.5 3.4zm-34.4 68.7h-18.5v-53.1h18.5v53.1zM97.4 172.6c-2.3-.2-7.7-.5-7.7-5.4 0-6 7.8-6 10.7-6 5.1 0 11.7 1.5 16.5 3 0 0 2.5.9 4.8 1.9v.1h.4l-.2-.1-.1-.1v-16.2l.1-.1c-5.6-2-12.1-3.9-24.1-3.9-20.7 0-28.1 12.3-28.1 22.8 0 6.1 2.6 20.4 26.3 22 2 .1 7.3.4 7.3 5.5 0 4.2-4.3 6.7-11.7 6.7-7.1-.1-14.1-1.4-20.7-4.1v16.8c7.1 1.9 15.1 2.8 24.5 2.8 20.3 0 29.4-11.6 29.4-23.2-.2-12.9-10.3-21.4-27.4-22.5zm85.6 15.5c0-15.4 8.6-23.2 25.6-23.8 1.6 0 3.1.1 4.6.4v15c-10.8.4-11.7 4.6-11.7 13.9l-.2 24.2H183v-29.7zm-23.8-22.7c-.4 1-4.1 8.9-11.2 17.7v-37.4l-18.5 4.1v68H148v-21.1c5.5 8.4 8.6 21.1 8.6 21.1h23.1c-2.3-9.5-12.5-27.2-12.5-27.2 5.8-7.5 10.2-16.1 13.2-25.2h-21.2z" style="fill-rule:evenodd;clip-rule:evenodd;fill:#f2edd5"/></svg>