<svg xmlns="http://www.w3.org/2000/svg" xml:space="preserve" width="32.277" height="37.186"><linearGradient id="a" x1="166.708" x2="166.708" y1="-275.557" y2="-257.401" gradientTransform="matrix(1 0 0 -1 -150.57 -257.114)" gradientUnits="userSpaceOnUse"><stop offset="0" style="stop-color:#50aad6"/><stop offset="1" style="stop-color:#40a3d7"/></linearGradient><path fill="url(#a)" d="M16.138 0 0 9.221l16.138 9.222 16.138-9.222z"/><linearGradient id="b" x1="166.456" x2="150.606" y1="-275.619" y2="-284.841" gradientTransform="matrix(1 0 0 -1 -150.57 -257.114)" gradientUnits="userSpaceOnUse"><stop offset="0" style="stop-color:#40a3d7"/><stop offset="1" style="stop-color:#036297"/></linearGradient><path fill="url(#b)" d="M16.138 36.885V18.443L0 9.221v18.443z"/><path fill="#40A3D7" d="m20.75 29.106 11.526-6.628-2.017-1.154L20.75 26.8zM20.75 21.901l6.916-4.035-2.017-1.153-4.899 2.883z"/><path fill="#1E81B5" d="m27.666 15.561-2.018 1.151 2.018 1.153v-2.304z"/><linearGradient id="c" x1="166.745" x2="182.597" y1="-275.493" y2="-284.716" gradientTransform="matrix(1 0 0 -1 -150.57 -257.114)" gradientUnits="userSpaceOnUse"><stop offset="0" style="stop-color:#badaea"/><stop offset="1" style="stop-color:#51acdc"/></linearGradient><path fill="url(#c)" d="M16.138 18.443v18.441l16.14-9.221v-5.188l-11.527 6.63V26.8l11.526-6.628V9.221l-16.139 9.222zm11.528-.577-6.916 4.035v-2.308l6.916-4.034v2.307z"/></svg>