<svg xmlns="http://www.w3.org/2000/svg" viewBox="0 0 459.5 123.334"><path fill="#414652" d="M166.246 19.516v4.286c0 .938-.338 1.74-1.014 2.408-.676.669-1.483 1.003-2.419 1.003h-.161l3.595 4.24v1.222h-3.687l-4.586-5.462-4.747.022c.046 0 .069.047.069.139-.031 0-.054-.008-.069-.023v5.324h-3.572v-16.57h13.158c.937 0 1.744.334 2.419 1.002s1.014 1.471 1.014 2.409zm-13.02.161v3.94h9.402v-3.94h-9.402zm18.827-3.595h9.771c.937 0 1.74.334 2.408 1.003.668.668 1.002 1.471 1.002 2.407v9.771c0 .938-.334 1.74-1.002 2.408-.668.668-1.472 1.003-2.408 1.003h-9.771c-.953 0-1.759-.33-2.419-.991-.661-.66-.991-1.467-.991-2.42v-9.771c0-.952.33-1.759.991-2.419.659-.661 1.466-.991 2.419-.991zm.161 3.595v9.402h9.402v-9.402h-9.402zm32.1 0H191.34v9.402h12.974v3.596h-13.135c-.953 0-1.759-.33-2.42-.991-.661-.66-.991-1.467-.991-2.42v-9.771c0-.952.33-1.759.991-2.419.661-.661 1.467-.991 2.42-.991h13.135v3.594zm14.702-3.595h3.733v1.244l-5.922 7.052 5.922 7.052v1.245h-3.733l-5.438-6.499h-3.249v6.499h-3.595V16.082h3.595v6.499h3.249l2.074-2.466 3.364-4.033zm22.537 3.41v1.545h-3.618v-1.36h-9.402v2.904h9.609c.937 0 1.74.334 2.408 1.002a3.286 3.286 0 0 1 1.002 2.408v3.272c0 .938-.334 1.74-1.002 2.408-.668.668-1.471 1.003-2.408 1.003h-9.771a3.3 3.3 0 0 1-2.408-.991c-.668-.66-1.002-1.467-1.002-2.42V27.72h3.572v1.359h9.402v-2.903h-9.563a3.3 3.3 0 0 1-2.408-.991c-.668-.66-1.002-1.467-1.002-2.42v-3.272c0-.952.334-1.759 1.002-2.419a3.3 3.3 0 0 1 2.408-.991h9.771c.937 0 1.74.334 2.408 1.003a3.28 3.28 0 0 1 1.002 2.406zm5.83-3.41h9.771c.937 0 1.74.334 2.408 1.003.668.668 1.002 1.471 1.002 2.407v9.771c0 .938-.334 1.74-1.002 2.408-.668.668-1.471 1.003-2.408 1.003h-9.771c-.953 0-1.759-.33-2.419-.991-.661-.66-.991-1.467-.991-2.42v-9.771c0-.952.33-1.759.991-2.419.66-.661 1.466-.991 2.419-.991zm.161 3.595v9.402h9.402v-9.402h-9.402zm15.578 12.998V16.059h3.572V29.08h13.02v3.596h-16.592zm17.951 0V16.082h3.595v16.593h-3.595zm6.014-16.593h13.158c.952 0 1.762.334 2.432 1.003.668.668 1.002 1.471 1.002 2.407v9.771c0 .938-.334 1.74-1.002 2.408a3.314 3.314 0 0 1-2.432 1.003h-13.158V16.082zm3.572 3.595v9.402h9.402v-9.402h-9.402zm-140.99 19.761h30.648v7.19h-23.413v5.807h18.85v7.189h-18.85v12.997h-7.236V39.438zm66.366 6.867v8.572c0 1.875-.676 3.48-2.028 4.816-1.353 1.337-2.965 2.005-4.839 2.005h-.322l7.189 8.48v2.442h-7.374l-9.171-10.923-9.494.046c.092 0 .138.092.138.276-.062 0-.108-.015-.138-.046v10.646h-7.144V39.483h26.316c1.874 0 3.487.669 4.839 2.005 1.352 1.337 2.028 2.944 2.028 4.817zm-26.039.323v7.881H208.8v-7.881h-18.804zm37.653-7.19h19.541c1.874 0 3.479.669 4.816 2.005 1.336 1.337 2.005 2.942 2.005 4.816V65.8c0 1.875-.668 3.479-2.005 4.816-1.337 1.337-2.942 2.005-4.816 2.005h-19.541c-1.906 0-3.519-.66-4.839-1.982-1.322-1.32-1.982-2.933-1.982-4.839V46.259c0-1.904.66-3.518 1.982-4.84 1.321-1.32 2.934-1.981 4.839-1.981zm.323 7.19v18.804h18.804V46.628h-18.804zm57.056 14.933V39.438h7.236v33.184h-7.375l-18.666-22.215v22.215h-7.144V39.438h7.374l18.575 22.123zm10.738-22.123h33.184v7.19h-12.998v25.993h-7.189V46.628h-12.997v-7.19zm67.38 0v7.19h-23.414v5.807h18.85v7.189h-18.85v5.808h23.414v7.189h-30.649V39.438h30.649zm30.509 22.123V39.438h7.236v33.184h-7.374l-18.666-22.215v22.215h-7.144V39.438h7.375l18.573 22.123zm12.49-22.123h26.316c1.905 0 3.526.669 4.862 2.005 1.336 1.337 2.005 2.942 2.005 4.816V65.8c0 1.875-.668 3.479-2.005 4.816s-2.958 2.005-4.862 2.005h-26.316V39.438zm7.143 7.19v18.804h18.804V46.628h-18.804zM176.354 78.886h7.144v33.184h-7.144V99.072h-19.587v12.997h-7.144V78.886h7.144v12.997h19.587V78.886zm43.184 0v7.189h-23.413v5.808h18.85v7.189h-18.85v5.807h23.413v7.19H188.89V78.886h30.648zm4.609 33.183V78.84h7.144v26.039h26.04v7.19h-33.184zm35.856-33.137h26.316c1.874 0 3.487.669 4.839 2.005 1.352 1.337 2.028 2.943 2.028 4.816v8.572c0 1.875-.676 3.479-2.028 4.816-1.353 1.337-2.966 2.005-4.839 2.005l-19.172.046c.092 0 .138.092.138.276-.062 0-.107-.015-.138-.046v10.646h-7.144V78.932zm7.143 7.143v7.882h18.804v-7.882h-18.804zm60.052-7.189v7.189h-23.413v5.808h18.85v7.189h-18.85v5.807h23.413v7.19h-30.649V78.886h30.649zm37.7 6.867v8.572c0 1.875-.677 3.479-2.028 4.816-1.352 1.337-2.965 2.005-4.839 2.005h-.323l7.19 8.48v2.442h-7.375l-9.172-10.923-9.493.046c.091 0 .138.092.138.276-.062 0-.108-.015-.138-.046v10.646h-7.144V78.932h26.316c1.874 0 3.487.669 4.839 2.005 1.352 1.336 2.029 2.943 2.029 4.816zm-26.04.322v7.882h18.803v-7.882h-18.803z"/><path fill="none" d="M88.674 54.76c1.059.82 2.004 1.395 3.276 1.395.515 0 1.084-.094 1.736-.305 2.26-.729 6.032-2.121 6.032-2.121l1.567-2.02h-.019c-.3 0-4.089-.065-8.208-3.258-4.293-3.329-4.241-6.405-4.241-6.405l-1.564 2.02-.55 6.371c-.172 1.969.484 3.17 1.971 4.323zm25.866-34.522c4.552 3.526 7.951 4.009 9.589 4.009.163 0 .308-.005.435-.012-.233-.838-1.569-4.976-6.319-8.616-3.293-2.522-6.019-2.98-7.597-2.98-.606 0-1.043.067-1.278.111 0 1.321.583 3.933 5.17 7.488z"/><path fill="#414652" d="M126.85 43.348a36.153 36.153 0 0 0-.158-1.31c-.107-.71-.236-1.344-.835-2.471-.553-1.043-1.502-2.241-1.625-2.394a8.717 8.717 0 0 0-.852-.911l-2.087-2.104-5.875 7.581h.242c1.87 0 3.559.324 5.029.965l-4.266 48.756-33.328 22.595-33.204-22.573-4.287-74.987h49.283l.137.283c.883 1.958 1.331 4.364 1.331 7.152v.121l5.671-7.318.873-1.127-1.973-1.99-.062-.061c-.49-.447-1.697-1.528-2.342-1.903l-.082-.049c-.493-.287-1.167-.681-2.215-.967-.299-.082-.872-.153-1.701-.212l-55.195-.004 4.591 84.125 39.171 27.204 39.248-27.182 4.516-50.883.015-.169-.02-.167z"/><path fill="#414652" d="M89.31 33.141a29.388 29.388 0 0 0-5.936-.603c-16.239 0-29.405 13.166-29.405 29.406S67.134 91.35 83.374 91.35c16.241 0 29.406-13.165 29.406-29.405 0-4.642-1.084-9.026-3.001-12.929l-5.552 7.165c.508 1.836.786 3.768.786 5.764 0 11.932-9.707 21.638-21.639 21.638-11.931 0-21.637-9.706-21.637-21.638s9.707-21.638 21.637-21.638c.125 0 .25.008.375.01l5.561-7.176z"/><path fill="#414652" d="M81.574 50.597c-5.49.864-9.689 5.615-9.689 11.348 0 6.346 5.145 11.49 11.49 11.49 6.346 0 11.49-5.145 11.49-11.49 0-.367-.019-.729-.052-1.088l-10.538 3.67-3.972 1.383.348-4.191.923-11.122z"/><path fill="none" d="M118.245 15.619c-3.293-2.522-6.019-2.98-7.597-2.98-.606 0-1.043.067-1.278.111 0 1.321.583 3.933 5.169 7.488 4.552 3.526 7.951 4.009 9.589 4.009.163 0 .308-.005.435-.012-.232-.838-1.568-4.975-6.318-8.616zM93.057 48.451l-4.241-6.405-1.564 2.02-.55 6.371c-.17 1.97.485 3.171 1.972 4.323 1.059.82 2.004 1.395 3.276 1.395.515 0 1.084-.094 1.736-.305 2.26-.729 6.032-2.121 6.032-2.121l1.567-2.02h-.019c-.301 0-4.089-.065-8.209-3.258z"/><path fill="none" d="m93.057 48.451-4.241-6.405-1.564 2.02-.55 6.371c-.17 1.97.485 3.171 1.972 4.323 1.059.82 2.004 1.395 3.276 1.395.515 0 1.084-.094 1.736-.305 2.26-.729 6.032-2.121 6.032-2.121l1.567-2.02h-.019c-.301 0-4.089-.065-8.209-3.258zm25.188-32.832c-3.293-2.522-6.019-2.98-7.597-2.98-.606 0-1.043.067-1.278.111 0 1.321.583 3.933 5.169 7.488 4.552 3.526 7.951 4.009 9.589 4.009.163 0 .308-.005.435-.012-.232-.838-1.568-4.975-6.318-8.616z"/><path fill="none" d="M118.245 15.619c-3.293-2.522-6.019-2.98-7.597-2.98-.606 0-1.043.067-1.278.111 0 1.321.583 3.933 5.169 7.488 4.552 3.526 7.951 4.009 9.589 4.009.163 0 .308-.005.435-.012-.232-.838-1.568-4.975-6.318-8.616zM93.057 48.451l-4.241-6.405-1.564 2.02-.55 6.371c-.17 1.97.485 3.171 1.972 4.323 1.059.82 2.004 1.395 3.276 1.395.515 0 1.084-.094 1.736-.305 2.26-.729 6.032-2.121 6.032-2.121l1.567-2.02h-.019c-.301 0-4.089-.065-8.209-3.258z"/><path fill="none" d="m93.057 48.451-4.241-6.405-1.564 2.02-.55 6.371c-.17 1.97.485 3.171 1.972 4.323 1.059.82 2.004 1.395 3.276 1.395.515 0 1.084-.094 1.736-.305 2.26-.729 6.032-2.121 6.032-2.121l1.567-2.02h-.019c-.301 0-4.089-.065-8.209-3.258zm25.188-32.832c-3.293-2.522-6.019-2.98-7.597-2.98-.606 0-1.043.067-1.278.111 0 1.321.583 3.933 5.169 7.488 4.552 3.526 7.951 4.009 9.589 4.009.163 0 .308-.005.435-.012-.232-.838-1.568-4.975-6.318-8.616z"/><path fill="#414652" d="M118.958 14.689c-3.528-2.703-6.307-3.226-7.936-3.226-.961 0-1.522.182-1.602.206a.622.622 0 0 0 .006-.026l-5.241 6.765L84.926 43.26l-.559 6.729-.993 11.956 17.704-6.166 19.26-24.852 5.243-6.763c-.05-.206-1.042-5.197-6.623-9.475zm-19.24 39.04s-3.772 1.392-6.032 2.121c-.651.211-1.221.305-1.736.305-1.272 0-2.217-.574-3.276-1.395-1.487-1.152-2.143-2.354-1.972-4.323l.55-6.371 1.564-2.02 4.241 6.405c4.12 3.192 7.908 3.258 8.208 3.258h.019l-1.566 2.02zm14.822-33.491c-4.587-3.556-5.169-6.167-5.169-7.488a6.9 6.9 0 0 1 1.278-.111c1.578 0 4.304.458 7.597 2.98 4.75 3.641 6.085 7.778 6.319 8.616a7.872 7.872 0 0 1-.435.012c-1.639 0-5.039-.482-9.59-4.009z"/></svg>