<svg xmlns="http://www.w3.org/2000/svg" viewBox="0 0 191.8 150"><g data-name="Ebene 8"><path d="M133.12 46.37a3.73 3.73 0 0 0 0-5.27v-.06L128 35.9a3.74 3.74 0 0 0-5.28-.06v.06L92.41 66.14l-12.3-12.3a3.73 3.73 0 0 0-5.27-.05l-.06.05L69.64 59a3.72 3.72 0 0 0 0 5.27v.06l20.1 20.1a3.72 3.72 0 0 0 5.26.06l.07-.06Zm-10.81 22.85a1.47 1.47 0 0 0-.93-1.39 1.18 1.18 0 0 0-.56-.13 1.47 1.47 0 0 0-1.07.47l-3 3a1.45 1.45 0 0 0-.42 1v11.91a7.49 7.49 0 0 1-7.48 7.48H70a7.5 7.5 0 0 1-7.49-7.48V45.2A7.5 7.5 0 0 1 70 37.72h38.89A8.3 8.3 0 0 1 111 38a1.58 1.58 0 0 0 .42.09 1.62 1.62 0 0 0 1.08-.47l2.29-2.28a1.49 1.49 0 0 0 .42-1.36 1.53 1.53 0 0 0-.81-1.07 13.09 13.09 0 0 0-5.47-1.17H70A13.47 13.47 0 0 0 56.5 45.2v38.88A13.46 13.46 0 0 0 70 97.55h38.9a13.46 13.46 0 0 0 13.45-13.47Z" style="fill:#103a5d"/><path d="M60 117.27c0 6.11-1.1 7.67-6.3 7.67a29.15 29.15 0 0 1-3.62-.17v5.09a.37.37 0 0 1-.31.42H47.9a.37.37 0 0 1-.41-.32v-19.4c0-.31.17-.41.44-.47a31 31 0 0 1 5.69-.47c5.32 0 6.38 1.57 6.38 7.65ZM50.11 112v10.46a30.77 30.77 0 0 0 3.46.23c3.41 0 3.82-1 3.82-5.34s-.39-5.36-3.77-5.36ZM70.73 109.92c.27.08.4.19.4.47v1.16a.34.34 0 0 1-.31.39.25.25 0 0 1-.12 0h-2.37c-1.89 0-2.39.31-2.39 1.54v10.92a.37.37 0 0 1-.32.41h-1.88a.35.35 0 0 1-.4-.32.11.11 0 0 1 0-.08v-11.57c0-3.1 2.74-3.22 4.33-3.22a15.72 15.72 0 0 1 3.06.3ZM85.44 117.3c0 6.11-1.07 7.64-6.37 7.64s-6.41-1.51-6.41-7.64 1.1-7.67 6.41-7.67 6.37 1.54 6.37 7.67Zm-10.18 0c0 4.26.41 5.34 3.77 5.34s3.73-1.07 3.73-5.34-.37-5.35-3.7-5.35-3.76 1-3.76 5.35ZM91.07 109.77a.37.37 0 0 1 .41.32V128c0 2.2-1.62 2.31-3.06 2.31a12.61 12.61 0 0 1-1.5-.11.4.4 0 0 1-.39-.42v-1.39c0-.28.16-.39.44-.39h.71c1.13 0 1.21-.11 1.21-1.18v-16.65a.36.36 0 0 1 .32-.4h1.86Zm.71-4.4a1.45 1.45 0 0 1-1.27 1.63 2 2 0 0 1-.35 0 1.49 1.49 0 0 1-1.64-1.31 1.61 1.61 0 0 1 0-.31 1.48 1.48 0 0 1 1.36-1.57 1.38 1.38 0 0 1 .29 0 1.44 1.44 0 0 1 1.59 1.27 1.4 1.4 0 0 1 0 .29ZM107.21 116.88v.8c0 .55-.13.77-1 .77h-8.76c.09 3.35.72 4.18 3.66 4.18h4.51a.36.36 0 0 1 .42.3v1.31a.41.41 0 0 1-.38.44 33.54 33.54 0 0 1-4.59.25c-5.16 0-6.26-1.51-6.26-7.64s1.1-7.67 6.26-7.67c4.93 0 6.09 1.47 6.14 7.26Zm-9.76-.58h7.13c0-3.49-.63-4.37-3.49-4.37s-3.58.89-3.64 4.37ZM120.35 109.92a.41.41 0 0 1 .39.44v1.21a.38.38 0 0 1-.32.41h-4.23c-3.33 0-3.74 1.06-3.74 5.35s.41 5.34 3.74 5.34h4.15a.36.36 0 0 1 .41.32v1.18a.42.42 0 0 1-.36.47 34.19 34.19 0 0 1-4.17.25c-5.34 0-6.38-1.51-6.38-7.64s1-7.67 6.38-7.67a34.14 34.14 0 0 1 4.13.34ZM126.5 105.61c.31-.08.47 0 .47.36v3.82h2.88c.31 0 .44.14.44.41v1.3c0 .27-.13.4-.44.4H127v9.22c0 1.21.33 1.49 1.78 1.49h1.33c.3 0 .43.11.43.38v1.33c0 .24-.13.38-.4.43a7.27 7.27 0 0 1-1.54.17c-2 0-4.24 0-4.24-3.14V112h-1.56a.36.36 0 0 1-.41-.32v-1.48a.36.36 0 0 1 .31-.41.17.17 0 0 1 .1 0h1.53v-3.29a.4.4 0 0 1 .34-.44ZM142.28 109.92a.4.4 0 0 1 .39.42v1.2a.35.35 0 0 1-.32.4.14.14 0 0 1-.09 0h-5.09c-1.26 0-2 .44-2 1.43v.36c0 .77.35 1.42 1.7 1.92l3.66 1.4c2.53 1 2.75 2.36 2.75 3.88v.3c0 3.06-1.84 3.69-5.55 3.69-2.39 0-4.56-.2-5-.25s-.4-.19-.4-.41v-1.2a.35.35 0 0 1 .32-.4h5.17c2.2 0 2.89-.25 2.89-1.43v-.33c0-.79-.33-1.32-1.6-1.84l-3.9-1.48a3.88 3.88 0 0 1-2.67-3.93v-.59c0-3 2.64-3.43 5.58-3.43a35.06 35.06 0 0 1 4.16.29Z" style="fill:#003764"/><path d="M24.65 5.15s-19.53 0-19.53 19.52v101s0 19.53 19.53 19.53h141.89s19.53 0 19.53-19.53v-101s0-19.52-19.53-19.52Z" style="fill:none;stroke:#103a5d;stroke-width:2.51389524052214px"/></g></svg>