<?xml version="1.0" encoding="UTF-8" standalone="no"?>
<!DOCTYPE svg PUBLIC "-//W3C//DTD SVG 1.1//EN" "http://www.w3.org/Graphics/SVG/1.1/DTD/svg11.dtd">
<svg width="100%" height="100%" viewBox="0 0 512 512" version="1.1" xmlns="http://www.w3.org/2000/svg" xmlns:xlink="http://www.w3.org/1999/xlink" xml:space="preserve" xmlns:serif="http://www.serif.com/" style="fill-rule:evenodd;clip-rule:evenodd;stroke-linejoin:round;stroke-miterlimit:2;">
    <g transform="matrix(1.97753,0,0,1.97753,-80.7316,388.25)">
        <path d="M216.017,53.793L220.569,53.793L220.569,37.448L216.017,37.448L216.017,53.793ZM215.81,34.759L220.776,34.759L220.776,30.621L215.81,30.621L215.81,34.759ZM178.776,30.414L183.328,30.414L183.328,53.793L178.776,53.793L178.776,30.414ZM164.707,45.931C164.707,44.483 164.707,40.345 168.017,40.345C171.121,40.345 171.534,43.241 171.534,45.517C171.534,49.862 170.086,51.103 168.224,51.103C165.948,51.103 164.707,49.448 164.707,45.931M159.948,45.724C159.948,51.517 163.466,54.207 168.017,54.207C173.81,54.207 176.293,50.069 176.293,45.517C176.293,40.966 173.81,37.034 168.017,37.034C161.81,37.034 159.948,41.793 159.948,45.724M144.845,49.034C144.845,49.862 145.052,51.103 146.086,52.138C147.534,53.586 149.397,54.207 151.466,54.207C156.431,54.207 158.707,51.31 158.707,48.621C158.707,46.345 157.466,44.897 154.569,44.069L151.672,43.241C150.224,42.828 149.603,42.621 149.603,41.586C149.603,40.552 150.638,39.931 151.879,39.931C152.5,39.931 153.948,40.138 154.155,41.793L158.293,41.793C158.086,38.483 155.603,37.034 152.293,37.034C148.155,37.034 145.466,38.897 145.466,42.207C145.466,45.517 148.155,46.345 149.397,46.759L152.293,47.586C154.155,48 154.569,48.621 154.569,49.448C154.569,50.483 153.741,51.31 152.086,51.31C150.224,51.31 149.603,50.069 149.397,49.034L144.845,49.034ZM186.431,37.448L186.431,47.586C186.431,48.414 186.431,50.69 187.466,51.931C188.293,53.172 190.155,54.207 192.224,54.207C195.121,54.207 196.362,52.345 196.983,51.724L197.19,53.793L201.741,53.793C201.741,53.379 201.741,52.966 201.534,52.552L201.534,37.448L196.776,37.448L196.776,45.724C196.776,48.414 196.776,50.69 193.879,50.69C191.397,50.69 191.397,48.621 191.397,47.172L191.397,37.448L186.431,37.448ZM213.948,50.483L212.293,50.483C210.224,50.483 210.224,49.448 210.224,48L210.224,40.552L213.948,40.552L213.948,37.448L210.224,37.448L210.224,32.483L205.672,34.138L205.672,37.241L202.569,37.241L202.569,40.345L205.672,40.345L205.672,49.655C205.672,51.103 205.672,54 210.224,54C211.052,54 212.293,54 213.741,53.586L213.741,50.483L213.948,50.483ZM227.603,45.931C227.603,44.483 227.603,40.345 230.914,40.345C234.017,40.345 234.431,43.241 234.431,45.517C234.431,49.862 232.983,51.103 231.121,51.103C228.845,51.103 227.603,49.448 227.603,45.931M223.052,45.724C223.052,51.517 226.569,54.207 231.121,54.207C236.914,54.207 239.397,50.069 239.397,45.517C239.397,40.966 236.914,37.034 231.121,37.034C224.914,37.034 223.052,41.793 223.052,45.724M241.879,53.793L246.431,53.793L246.431,44.276C246.431,43.034 246.638,42.207 247.052,41.793C247.466,40.966 248.5,40.552 249.534,40.552C250.776,40.552 251.397,41.172 251.81,42C252.017,42.414 252.017,43.034 252.017,43.862L252.017,53.793L256.776,53.793L256.776,44.897C256.776,41.793 256.776,40.966 256.362,39.931C255.948,38.897 254.707,36.828 251.603,36.828C248.086,36.828 246.845,38.897 246.431,39.724L246.224,37.241L241.879,37.241L241.879,53.793ZM258.845,49.034C258.845,49.862 259.052,51.103 260.086,52.138C261.534,53.586 263.397,54.207 265.466,54.207C270.431,54.207 272.707,51.31 272.707,48.621C272.707,46.345 271.466,44.897 268.569,44.069L265.672,43.241C264.224,42.828 263.603,42.621 263.603,41.586C263.603,40.552 264.638,39.931 265.879,39.931C266.5,39.931 267.948,40.138 268.155,41.793L272.293,41.793C272.086,38.483 269.603,37.034 266.293,37.034C262.155,37.034 259.466,38.897 259.466,42.207C259.466,45.517 262.155,46.345 263.397,46.759L266.293,47.586C268.155,48 268.569,48.621 268.569,49.448C268.569,50.483 267.741,51.31 266.086,51.31C264.224,51.31 263.603,50.069 263.397,49.034L258.845,49.034ZM81.534,43.241C81.534,38.897 77.81,37.241 74.707,37.241C72.431,37.241 67.052,38.276 67.052,45.724C67.052,48.414 67.672,50.483 69.121,52.138C70.569,53.793 72.638,54.207 74.707,54.207C76.776,54.207 78.224,53.793 79.466,52.759C81.328,51.103 81.534,49.241 81.534,48L76.776,48C76.569,50.897 75.121,51.103 74.5,51.103C74.086,51.103 73.672,51.103 73.259,50.483C72.224,49.241 72.017,46.345 72.017,45.517C72.017,43.655 72.224,40.345 74.5,40.345C76.362,40.345 76.569,42.828 76.569,43.241L81.534,43.241ZM83.81,53.793L88.362,53.793L88.362,43.862C88.362,41.379 90.017,40.552 91.259,40.552C93.948,40.552 93.948,43.241 93.948,44.069L93.948,53.793L98.5,53.793L98.5,43.862C98.5,41.793 98.086,40.345 97.466,39.517C96.845,38.483 95.397,37.241 93.121,37.241C90.224,37.241 88.983,38.897 88.569,39.724L88.569,30.414L84.017,30.414L84.017,53.793L83.81,53.793ZM105.948,45.931C105.948,44.483 105.948,40.345 109.259,40.345C112.362,40.345 112.776,43.241 112.776,45.517C112.776,49.862 111.328,51.103 109.466,51.103C107.19,51.103 105.948,49.448 105.948,45.931M101.19,45.724C101.19,51.517 104.707,54.207 109.259,54.207C115.052,54.207 117.534,50.069 117.534,45.517C117.534,40.966 115.052,37.034 109.259,37.034C103.052,37.034 101.19,41.793 101.19,45.724M127.879,50.897C124.569,50.897 124.362,46.759 124.362,45.724C124.362,41.379 126.431,40.138 128.086,40.138C130.776,40.138 131.19,43.448 131.19,45.31C131.19,48.828 129.948,50.897 127.879,50.897M119.81,37.448L119.81,60L124.569,60L124.569,51.931C124.983,52.552 126.224,54 128.914,54C133.466,54 135.741,49.862 135.741,45.31C135.741,40.345 133.259,37.241 129.121,37.241C128.293,37.241 125.81,37.241 124.362,39.931L124.362,37.448L119.81,37.448Z" style="fill:rgb(0,67,128);fill-rule:nonzero;"/>
    </g>
    <g transform="matrix(7.99754,0,0,7.99754,32.4481,4.11914)">
        <path d="M53.397,54.414L2.293,54.414L2.293,3.103L53.397,3.103L53.397,54.414ZM3.121,53.586L52.776,53.586L52.776,3.931L3.121,3.931L3.121,53.586Z" style="fill:rgb(0,67,128);fill-rule:nonzero;"/>
    </g>
    <g transform="matrix(7.99754,0,0,7.99754,32.4481,4.11914)">
        <path d="M39.328,36C38.914,40.966 36.017,43.034 34.362,43.034C33.328,43.034 32.086,42.414 32.086,39.931C32.086,35.793 34.983,32.69 37.052,32.69C38.707,32.897 39.534,34.345 39.328,36M53.19,12.828L48.845,12.828L48.845,25.448C45.741,22.759 41.19,21.517 36.845,21.517C27.121,21.517 18.431,28.552 18.431,38.897C18.431,46.966 24.845,54.414 35.81,54.414C39.948,54.414 43.466,53.379 46.362,52.345L44.914,49.241C42.845,50.069 40.155,50.897 36.431,50.897C28.776,50.897 23.397,45.931 23.397,38.897C23.397,31.241 29.397,25.034 36.845,25.034C42.224,25.034 48.845,27.724 48.845,35.586C48.845,39.724 46.776,44.483 44.086,44.483C42.224,44.483 41.81,43.034 42.224,41.793L45.121,30.207L41.397,30.207L40.983,32.069C40.362,30.828 39.328,29.586 36.638,29.586C31.672,29.586 27.741,34.552 27.741,40.345C27.741,44.276 30.017,46.552 32.5,46.552C35.81,46.552 37.879,44.276 38.293,43.448C38.293,44.276 39.741,46.966 43.259,46.966C49.672,46.966 52.983,40.966 52.983,35.586L52.983,12.828L53.19,12.828Z" style="fill:rgb(0,67,128);fill-rule:nonzero;"/>
    </g>
    <g transform="matrix(7.99754,0,0,7.99754,32.4481,4.11914)">
        <path d="M45.948,5.172C45.948,2.276 48.224,0 51.121,0C54.017,0 56.293,2.276 56.293,5.172C56.293,8.069 54.017,10.345 51.121,10.345C48.224,10.552 45.948,8.069 45.948,5.172" style="fill:rgb(255,212,0);fill-rule:nonzero;"/>
    </g>
</svg>
