<svg id="Ebene_1" xmlns="http://www.w3.org/2000/svg" viewBox="0 0 500 500"><style>.st0{fill:#333a46}.st2{fill:#fff}.st3{fill:#7abfbc}</style><path class="st0" d="M405.5 432.2H0L94.5 67.8H500z"/><path fill="none" d="M0 441h405v60H0z"/><path class="st0" d="M74.2 461.1l-2.7 4.5c-3.1-2.4-5.8-3.6-9.1-3.6-4 0-6.5 2-6.5 5.1 0 3.2 1.9 4.7 7.5 6.3 7.4 2.1 11.7 5.3 11.7 12.1 0 8.1-6.7 11.8-13.9 11.8-5.9 0-10.2-2.1-13.3-5.1l3.4-4.3c2.7 2.5 5.9 3.9 9.7 3.9 4.6 0 7.5-2.3 7.5-5.7 0-4.1-1.7-5.5-8.5-7.5-7.6-2.2-10.6-5.8-10.6-11.4 0-6.1 5.4-10.7 12.7-10.7 5.1.1 8.8 1.7 12.1 4.6zM111 477c0 12.1-5.7 20.4-15.7 20.4s-15.7-8-15.7-20.4c0-12.1 5.7-20.4 15.7-20.4s15.7 8 15.7 20.4zm-24.7 0c0 10.1 3.2 14.9 9.1 14.9 5.9 0 9.1-4.7 9.1-14.9 0-10.1-3.2-14.9-9-14.9-6 0-9.2 4.7-9.2 14.9zM143 460.8l-3 4.4c-2.3-2.1-4.5-3-7.5-3-5.5 0-9 4.8-9 14.9 0 10.2 3.5 14.4 9 14.4 2.9 0 5-1 7.5-3.2l2.9 4.7c-3.1 2.8-6.7 4.3-10.7 4.3-9.5 0-15.3-7.5-15.3-20.1 0-12.4 5.8-20.7 15.3-20.7 4.2.1 7.5 1.3 10.8 4.3zM156.9 443.4c0 2.6-1.7 4.6-4.3 4.6-2.5 0-4.3-2-4.3-4.6 0-2.7 1.7-4.7 4.3-4.7 2.6.1 4.3 2.1 4.3 4.7zm-7.3 53.1v-39h6.1v39h-6.1zM190.4 487.4c0 3.4 1.1 4.5 2.9 5.3l-1.4 4.7c-3.5-.4-5.8-2-6.9-5.8-2.5 4.1-6.2 5.8-10.5 5.8-7 0-11.2-4.8-11.2-11.8 0-8.4 5.7-12.9 15.5-12.9h5.4v-2.9c0-5.6-2.5-7.7-7.3-7.7-2.6 0-5.9.7-9.5 2.1l-1.5-5c4.3-1.8 8.2-2.7 12.1-2.7 8.5 0 12.3 4.8 12.3 13v17.9zm-6.1-1.2v-9h-4.6c-6.5 0-9.7 2.7-9.7 8 0 4.6 2.1 7 6.1 7 3.5.1 6.2-1.9 8.2-6zM207.1 488.7c0 2.1.6 3.1 2.2 3.1.9 0 1.6-.1 2.3-.4l1.6 4.7c-1.7.9-3.4 1.3-5.2 1.3-4.5 0-7-3-7-8.6v-47l6.1-.8v47.7zM241.9 452.1v5.4h8.5l-.7 5.3h-7.9v33.7h-6.1v-33.7h-6.3v-5.3h6.3v-5.3c0-6.5 3.9-11.2 11-11.2 3.3 0 5.6.7 8.4 2l-1.9 5c-2.3-1.1-4.3-1.5-6.1-1.5-3.9 0-5.2 1.8-5.2 5.6zM281.5 479.3h-22.4c.6 9 4.4 12.5 9.5 12.5 3.5 0 6.1-1 9.1-3.4l2.7 4.1c-3.5 3-7.4 4.9-12.3 4.9-9.8 0-15.5-7.6-15.5-20 0-12.1 5.5-20.8 14.6-20.8 9.5 0 14.5 7.3 14.5 19.2-.1 1.4-.1 2.6-.2 3.5zm-5.9-5.4c0-7.6-2.7-11.8-8.3-11.8-4.7 0-7.7 3.6-8.2 12.3h16.5v-.5zM316.5 479.3h-22.4c.6 9 4.4 12.5 9.5 12.5 3.5 0 6.1-1 9.1-3.4l2.7 4.1c-3.5 3-7.4 4.9-12.3 4.9-9.8 0-15.5-7.6-15.5-20 0-12.1 5.5-20.8 14.6-20.8 9.5 0 14.5 7.3 14.5 19.2-.1 1.4-.2 2.6-.2 3.5zm-6-5.4c0-7.6-2.7-11.8-8.3-11.8-4.7 0-7.7 3.6-8.2 12.3h16.5v-.5zM352.2 496.5h-5.4l-.6-5.4c-2.3 3.9-5.8 6.3-10.1 6.3-8.5 0-13.3-8.1-13.3-20.2 0-11.9 5.2-20.6 13.8-20.6 4.1 0 7.1 2.1 9.5 4.8V441l6.1.8v54.7zm-6.1-10.3v-19.1c-2.2-3.1-4.7-5.1-8.1-5.1-5.3 0-8.5 4.9-8.5 15 0 10.3 2.9 14.9 8 14.9 3.9.1 6.3-2.1 8.6-5.7z"/><g><path class="st2" d="M297.6 242.6H113.1c-9.9 0-18 8.1-18 18v68.6c0 9.9 8.1 18 18 18h10.5v28.2c0 2.1 1.3 3.9 3.2 4.7.6.3 1.3.4 2 .4 1.3 0 2.6-.5 3.6-1.5l48-31.9h117.2c9.9 0 18-8.1 18-18v-68.6c0-9.8-8.1-17.9-18-17.9zm0 94.3H178.2c-1.3 0-2.5.5-3.4 1.3l-.2.2-40.7 24.6v-21-.5c-.2-2.6-2.4-4.7-5.1-4.7h-15.6c-4.3 0-7.7-3.5-7.7-7.7v-68.6c0-4.3 3.5-7.7 7.7-7.7h184.5c4.3 0 7.7 3.5 7.7 7.7v68.6c-.1 4.4-3.6 7.8-7.8 7.8zm0 0"/><path class="st2" d="M270.1 275.5h-130c-2.8 0-5.1 2.3-5.1 5.1s2.3 5.1 5.1 5.1h130c2.8 0 5.1-2.3 5.1-5.1.1-2.8-2.2-5.1-5.1-5.1zm0 0M234.5 304.9h-94.3c-2.8 0-5.1 2.3-5.1 5.1s2.3 5.1 5.1 5.1h94.3c2.8 0 5.1-2.3 5.1-5.1s-2.3-5.1-5.1-5.1zm0 0"/><g><path class="st3" d="M202.4 119.4c-9.9 0-18 8.1-18 18V206c0 9.9 8.1 18 18 18h117.2l48 31.9c1 1 2.3 1.5 3.6 1.5.7 0 1.3-.1 2-.4 1.9-.8 3.2-2.7 3.2-4.7V224h10.5c9.9 0 18-8.1 18-18v-68.6c0-9.9-8.1-18-18-18H202.4zm0 94.3c-4.3 0-7.7-3.5-7.7-7.7v-68.6c0-4.3 3.5-7.7 7.7-7.7h184.5c4.3 0 7.7 3.5 7.7 7.7V206c0 4.3-3.5 7.7-7.7 7.7h-15.6c-2.7 0-4.9 2-5.1 4.7v21.5l-40.7-24.6-.2-.2c-.9-.8-2.1-1.3-3.4-1.3H202.4v-.1zm0 0"/><path class="st3" d="M229.9 152.3c-2.8 0-5.1 2.3-5.1 5.1s2.3 5.1 5.1 5.1h130c2.8 0 5.1-2.3 5.1-5.1s-2.3-5.1-5.1-5.1h-130zm0 0M265.5 181.7c-2.8 0-5.1 2.3-5.1 5.1s2.3 5.1 5.1 5.1h94.3c2.8 0 5.1-2.3 5.1-5.1s-2.3-5.1-5.1-5.1h-94.3zm0 0"/></g></g></svg>