<?xml version="1.0" encoding="utf-8"?>
<svg version="1.1" id="Ebene_1" xmlns="http://www.w3.org/2000/svg" xmlns:xlink="http://www.w3.org/1999/xlink" x="0px" y="0px"
	 viewBox="0 0 500 500" style="enable-background:new 0 0 500 500;" xml:space="preserve">
<style type="text/css">
	.st0{fill:#333A46;}
	.st1{fill:none;}
	.st2{fill:#FFFFFF;}
	.st3{fill:#7ABFBC;}
</style>
<g>
	<polygon class="st0" points="405.5,432.2 0,432.2 94.5,67.8 500,67.8 	"/>
</g>
<g>
	<rect y="441" class="st1" width="405" height="60"/>
	<path class="st0" d="M74.2,461.1l-2.7,4.5c-3.1-2.4-5.8-3.6-9.1-3.6c-4,0-6.5,2-6.5,5.1c0,3.2,1.9,4.7,7.5,6.3
		c7.4,2.1,11.7,5.3,11.7,12.1c0,8.1-6.7,11.8-13.9,11.8c-5.9,0-10.2-2.1-13.3-5.1l3.4-4.3c2.7,2.5,5.9,3.9,9.7,3.9
		c4.6,0,7.5-2.3,7.5-5.7c0-4.1-1.7-5.5-8.5-7.5c-7.6-2.2-10.6-5.8-10.6-11.4c0-6.1,5.4-10.7,12.7-10.7
		C67.2,456.6,70.9,458.2,74.2,461.1z"/>
	<path class="st0" d="M111,477c0,12.1-5.7,20.4-15.7,20.4c-10,0-15.7-8-15.7-20.4c0-12.1,5.7-20.4,15.7-20.4S111,464.6,111,477z
		 M86.3,477c0,10.1,3.2,14.9,9.1,14.9c5.9,0,9.1-4.7,9.1-14.9c0-10.1-3.2-14.9-9-14.9C89.5,462.1,86.3,466.8,86.3,477z"/>
	<path class="st0" d="M143,460.8l-3,4.4c-2.3-2.1-4.5-3-7.5-3c-5.5,0-9,4.8-9,14.9c0,10.2,3.5,14.4,9,14.4c2.9,0,5-1,7.5-3.2
		l2.9,4.7c-3.1,2.8-6.7,4.3-10.7,4.3c-9.5,0-15.3-7.5-15.3-20.1c0-12.4,5.8-20.7,15.3-20.7C136.4,456.6,139.7,457.8,143,460.8z"/>
	<path class="st0" d="M156.9,443.4c0,2.6-1.7,4.6-4.3,4.6c-2.5,0-4.3-2-4.3-4.6c0-2.7,1.7-4.7,4.3-4.7
		C155.2,438.8,156.9,440.8,156.9,443.4z M149.6,496.5v-39h6.1v39H149.6z"/>
	<path class="st0" d="M190.4,487.4c0,3.4,1.1,4.5,2.9,5.3l-1.4,4.7c-3.5-0.4-5.8-2-6.9-5.8c-2.5,4.1-6.2,5.8-10.5,5.8
		c-7,0-11.2-4.8-11.2-11.8c0-8.4,5.7-12.9,15.5-12.9h5.4v-2.9c0-5.6-2.5-7.7-7.3-7.7c-2.6,0-5.9,0.7-9.5,2.1l-1.5-5
		c4.3-1.8,8.2-2.7,12.1-2.7c8.5,0,12.3,4.8,12.3,13V487.4z M184.3,486.2v-9h-4.6c-6.5,0-9.7,2.7-9.7,8c0,4.6,2.1,7,6.1,7
		C179.6,492.3,182.3,490.3,184.3,486.2z"/>
	<path class="st0" d="M207.1,488.7c0,2.1,0.6,3.1,2.2,3.1c0.9,0,1.6-0.1,2.3-0.4l1.6,4.7c-1.7,0.9-3.4,1.3-5.2,1.3c-4.5,0-7-3-7-8.6
		v-47l6.1-0.8V488.7z"/>
	<path class="st0" d="M241.9,452.1v5.4h8.5l-0.7,5.3h-7.9v33.7h-6.1v-33.7h-6.3v-5.3h6.3v-5.3c0-6.5,3.9-11.2,11-11.2
		c3.3,0,5.6,0.7,8.4,2l-1.9,5c-2.3-1.1-4.3-1.5-6.1-1.5C243.2,446.5,241.9,448.3,241.9,452.1z"/>
	<path class="st0" d="M281.5,479.3h-22.4c0.6,9,4.4,12.5,9.5,12.5c3.5,0,6.1-1,9.1-3.4l2.7,4.1c-3.5,3-7.4,4.9-12.3,4.9
		c-9.8,0-15.5-7.6-15.5-20c0-12.1,5.5-20.8,14.6-20.8c9.5,0,14.5,7.3,14.5,19.2C281.6,477.2,281.6,478.4,281.5,479.3z M275.6,473.9
		c0-7.6-2.7-11.8-8.3-11.8c-4.7,0-7.7,3.6-8.2,12.3h16.5V473.9z"/>
	<path class="st0" d="M316.5,479.3h-22.4c0.6,9,4.4,12.5,9.5,12.5c3.5,0,6.1-1,9.1-3.4l2.7,4.1c-3.5,3-7.4,4.9-12.3,4.9
		c-9.8,0-15.5-7.6-15.5-20c0-12.1,5.5-20.8,14.6-20.8c9.5,0,14.5,7.3,14.5,19.2C316.6,477.2,316.5,478.4,316.5,479.3z M310.5,473.9
		c0-7.6-2.7-11.8-8.3-11.8c-4.7,0-7.7,3.6-8.2,12.3h16.5V473.9z"/>
	<path class="st0" d="M352.2,496.5h-5.4l-0.6-5.4c-2.3,3.9-5.8,6.3-10.1,6.3c-8.5,0-13.3-8.1-13.3-20.2c0-11.9,5.2-20.6,13.8-20.6
		c4.1,0,7.1,2.1,9.5,4.8V441l6.1,0.8V496.5z M346.1,486.2v-19.1c-2.2-3.1-4.7-5.1-8.1-5.1c-5.3,0-8.5,4.9-8.5,15
		c0,10.3,2.9,14.9,8,14.9C341.4,492,343.8,489.8,346.1,486.2z"/>
</g>
<g>
	<g>
		<path class="st2" d="M297.6,242.6H113.1c-9.9,0-18,8.1-18,18v68.6c0,9.9,8.1,18,18,18h10.5v28.2c0,2.1,1.3,3.9,3.2,4.7
			c0.6,0.3,1.3,0.4,2,0.4c1.3,0,2.6-0.5,3.6-1.5l48-31.9h117.2c9.9,0,18-8.1,18-18v-68.6C315.6,250.7,307.5,242.6,297.6,242.6
			L297.6,242.6z M297.6,336.9H178.2c-1.3,0-2.5,0.5-3.4,1.3c0,0,0,0,0,0c-0.1,0.1-0.1,0.1-0.2,0.2l-40.7,24.6v-21c0-0.2,0-0.3,0-0.5
			c-0.2-2.6-2.4-4.7-5.1-4.7h-15.6c-4.3,0-7.7-3.5-7.7-7.7v-68.6c0-4.3,3.5-7.7,7.7-7.7h184.5c4.3,0,7.7,3.5,7.7,7.7v68.6
			C305.3,333.5,301.8,336.9,297.6,336.9L297.6,336.9z M297.6,336.9"/>
		<path class="st2" d="M270.1,275.5h-130c-2.8,0-5.1,2.3-5.1,5.1c0,2.8,2.3,5.1,5.1,5.1h130c2.8,0,5.1-2.3,5.1-5.1
			C275.3,277.8,273,275.5,270.1,275.5L270.1,275.5z M270.1,275.5"/>
		<path class="st2" d="M234.5,304.9h-94.3c-2.8,0-5.1,2.3-5.1,5.1c0,2.8,2.3,5.1,5.1,5.1h94.3c2.8,0,5.1-2.3,5.1-5.1
			C239.6,307.2,237.3,304.9,234.5,304.9L234.5,304.9z M234.5,304.9"/>
	</g>
	<g>
		<path class="st3" d="M202.4,119.4c-9.9,0-18,8.1-18,18V206c0,9.9,8.1,18,18,18h117.2l48,31.9c1,1,2.3,1.5,3.6,1.5
			c0.7,0,1.3-0.1,2-0.4c1.9-0.8,3.2-2.7,3.2-4.7V224h10.5c9.9,0,18-8.1,18-18v-68.6c0-9.9-8.1-18-18-18H202.4L202.4,119.4z
			 M202.4,213.7c-4.3,0-7.7-3.5-7.7-7.7v-68.6c0-4.3,3.5-7.7,7.7-7.7h184.5c4.3,0,7.7,3.5,7.7,7.7V206c0,4.3-3.5,7.7-7.7,7.7h-15.6
			c-2.7,0-4.9,2-5.1,4.7c0,0.1,0,0.3,0,0.5v21l-40.7-24.6c-0.1-0.1-0.1-0.1-0.2-0.2c0,0,0,0,0,0c-0.9-0.8-2.1-1.3-3.4-1.3H202.4
			L202.4,213.7z M202.4,213.7"/>
		<path class="st3" d="M229.9,152.3c-2.8,0-5.1,2.3-5.1,5.1c0,2.8,2.3,5.1,5.1,5.1h130c2.8,0,5.1-2.3,5.1-5.1c0-2.8-2.3-5.1-5.1-5.1
			H229.9L229.9,152.3z M229.9,152.3"/>
		<path class="st3" d="M265.5,181.7c-2.8,0-5.1,2.3-5.1,5.1c0,2.8,2.3,5.1,5.1,5.1h94.3c2.8,0,5.1-2.3,5.1-5.1
			c0-2.8-2.3-5.1-5.1-5.1H265.5L265.5,181.7z M265.5,181.7"/>
	</g>
</g>
</svg>