<svg xmlns="http://www.w3.org/2000/svg" baseProfile="tiny" version="1.2" viewBox="0 0 400 200"><path fill="#F0F0F0" d="M263.2 131c-2.9 7.2-8.4 14.1-16.5 20.8-8.1 6.7-17.7 12.1-28.9 16.2-17.1 6.3-32.7 6-46.7-.7s-24.8-19.3-32.4-37.7l-4.2-11.3c-4.7-12.9-6.5-24.9-5.5-36.2 1-11.3 4.8-21 11.4-29.3 6.6-8.3 15.4-14.4 26.5-18.5 16.3-5.9 30.2-6.8 42-2.7 11.7 4.2 21 13.4 27.9 27.6l-30.3 11.1c-3.7-6.9-8-11.3-12.7-13.1-4.7-1.8-10.4-1.5-16.9.9-7.9 2.9-12.8 8.5-14.6 16.8-1.9 8.3-.5 18.7 4 31.1l2.9 7.9c4.8 13.1 10.6 22 17.4 27 6.8 4.9 15.1 5.6 24.6 2.1 8.2-3 13.6-7.1 16.3-12.2l-7.4-20.3-21.9 8-7.9-21.6 53.3-19.5 19.6 53.6z"/><path d="M60 140.1c-.1 1.3-.6 2.4-1.4 3.1-.8.7-1.9 1.1-3.3 1.1-.9 0-1.8-.2-2.5-.7-.7-.5-1.3-1.1-1.7-2-.4-.9-.6-1.9-.6-3v-2c0-1.1.2-2.1.6-3 .4-.9.9-1.6 1.7-2s1.5-.7 2.5-.7c1.4 0 2.5.4 3.3 1.1s1.3 1.7 1.4 3.1h-.5c-.1-1.2-.6-2.1-1.3-2.7-.7-.6-1.7-.9-2.9-.9-1.3 0-2.3.5-3.1 1.4-.8 1-1.2 2.2-1.2 3.9v1.9c0 1 .2 1.9.5 2.7s.8 1.4 1.5 1.9c.6.4 1.4.7 2.2.7 1.3 0 2.2-.3 2.9-.9.7-.6 1.1-1.5 1.2-2.8h.7zm13.1-1.6c0 1.1-.2 2.1-.6 3s-1 1.5-1.7 2-1.6.7-2.6.7c-1.5 0-2.7-.5-3.6-1.6-.9-1-1.4-2.5-1.4-4.2v-1.9c0-1.1.2-2.1.6-3 .4-.9 1-1.5 1.7-2 .8-.5 1.6-.7 2.6-.7s1.8.2 2.6.7c.8.5 1.3 1.2 1.7 2 .4.9.6 1.9.6 3v2zm-.5-2c0-1.6-.4-2.8-1.2-3.8-.8-1-1.9-1.4-3.3-1.4-1.3 0-2.4.5-3.2 1.4-.8.9-1.2 2.2-1.2 3.9v1.9c0 1 .2 2 .5 2.8.4.8.9 1.4 1.5 1.8.7.4 1.5.6 2.4.6 1.4 0 2.4-.5 3.2-1.4.8-1 1.2-2.3 1.2-3.9v-1.9zm13.7 7.6h-.5l-8.4-12.3v12.3h-.5V131h.5l8.4 12.2V131h.5v13.1zm13.1-12.6h-4.8v12.6h-.5v-12.6h-4.8v-.5h10v.5zm8.5 8.7h-6.4l-1.5 3.9h-.5l4.9-13.1h.6l4.9 13.1h-.5l-1.5-3.9zm-6.2-.5h6l-3-8.1-3 8.1zm20.1-1.2c0 1.1-.2 2.1-.6 3s-1 1.5-1.7 2-1.6.7-2.6.7c-1.5 0-2.7-.5-3.6-1.6-.9-1-1.4-2.5-1.4-4.2v-1.9c0-1.1.2-2.1.6-3s1-1.5 1.7-2c.8-.5 1.6-.7 2.6-.7s1.8.2 2.6.7c.8.5 1.3 1.2 1.7 2 .4.9.6 1.9.6 3v2zm-.4-2c0-1.6-.4-2.8-1.2-3.8s-1.9-1.4-3.3-1.4c-1.3 0-2.4.5-3.2 1.4-.8.9-1.2 2.2-1.2 3.9v1.9c0 1 .2 2 .5 2.8.4.8.9 1.4 1.5 1.8.7.4 1.5.6 2.4.6 1.4 0 2.4-.5 3.2-1.4s1.2-2.3 1.2-3.9v-1.9zm7.7 1.8h-4.2v-.5h4.2v.5zm11.3 2.6c0-.6-.1-1-.4-1.4-.3-.4-.7-.7-1.2-1-.6-.3-1.4-.6-2.5-.9-1.1-.3-2-.6-2.5-.9-.6-.3-1-.7-1.2-1.1-.3-.4-.4-.9-.4-1.5 0-1 .4-1.7 1.2-2.3.8-.6 1.8-.9 3.1-.9.8 0 1.6.2 2.3.5.7.3 1.2.8 1.5 1.4.4.6.5 1.3.5 2h-.5c0-1-.4-1.8-1.1-2.4s-1.7-1-2.8-1c-1.1 0-2.1.3-2.8.8-.7.5-1.1 1.2-1.1 1.9 0 .8.3 1.4.9 1.9.6.5 1.6.9 3.1 1.3 1.4.4 2.5.8 3.1 1.3.8.6 1.3 1.4 1.3 2.5 0 .7-.2 1.2-.6 1.7-.4.5-.9.9-1.6 1.2-.7.3-1.4.4-2.3.4-.9 0-1.8-.2-2.6-.5s-1.3-.8-1.7-1.3-.6-1.3-.6-2.1h.5c0 1.1.4 1.9 1.2 2.5.8.6 1.8.9 3.1.9 1.1 0 2.1-.3 2.8-.8.9-.6 1.3-1.3 1.3-2.2zm12.4-9.4H148v12.6h-.5v-12.6h-4.8v-.5h10v.5zm8.5 8.7h-6.4l-1.5 3.9h-.5l4.9-13.1h.6l4.9 13.1h-.5l-1.5-3.9zm-6.2-.5h6l-3-8.1-3 8.1zM167 131l5.4 12.4 5.4-12.4h.7v13.1h-.5v-12.4l-5.4 12.4h-.4l-5.4-12.3v12.3h-.5V131h.7zm16.4 0 5.4 12.4 5.4-12.4h.7v13.1h-.5v-12.4l-5.4 12.4h-.4l-5.4-12.3v12.3h-.5V131h.7zm24.7.5h-4.8v12.6h-.5v-12.6H198v-.5h10v.5zm3.8 12.6h-.5V131h.5v13.1zm12.3-3.2c0-.6-.1-1-.4-1.4-.3-.4-.7-.7-1.2-1-.6-.3-1.4-.6-2.5-.9-1.1-.3-2-.6-2.5-.9-.6-.3-1-.7-1.2-1.1-.3-.4-.4-.9-.4-1.5 0-1 .4-1.7 1.2-2.3.8-.6 1.8-.9 3.1-.9.8 0 1.6.2 2.3.5.7.3 1.2.8 1.5 1.4.4.6.5 1.3.5 2h-.5c0-1-.4-1.8-1.1-2.4s-1.7-1-2.8-1c-1.1 0-2.1.3-2.8.8-.7.5-1.1 1.2-1.1 1.9 0 .8.3 1.4.9 1.9s1.6.9 3.1 1.3c1.4.4 2.5.8 3.1 1.3.8.6 1.3 1.4 1.3 2.5 0 .7-.2 1.2-.6 1.7-.4.5-.9.9-1.6 1.2-.7.3-1.4.4-2.3.4-.9 0-1.8-.2-2.6-.5s-1.3-.8-1.7-1.3-.6-1.3-.6-2.1h.5c0 1.1.4 1.9 1.2 2.5.8.6 1.8.9 3.1.9 1.1 0 2.1-.3 2.8-.8 1-.6 1.3-1.3 1.3-2.2zm12.9-.8c-.1 1.3-.6 2.4-1.4 3.1-.8.7-1.9 1.1-3.3 1.1-.9 0-1.8-.2-2.5-.7s-1.3-1.1-1.7-2c-.4-.9-.6-1.9-.6-3v-2c0-1.1.2-2.1.6-3s.9-1.6 1.7-2c.7-.5 1.5-.7 2.5-.7 1.4 0 2.5.4 3.3 1.1s1.3 1.7 1.4 3.1h-.5c-.1-1.2-.6-2.1-1.3-2.7-.7-.6-1.7-.9-2.9-.9-1.3 0-2.3.5-3.1 1.4-.8 1-1.2 2.2-1.2 3.9v1.9c0 1 .2 1.9.5 2.7s.8 1.4 1.5 1.9c.6.4 1.4.7 2.2.7 1.3 0 2.2-.3 2.9-.9s1.1-1.5 1.2-2.8h.7zm12.9 4h-.5v-6.5h-8.4v6.5h-.5V131h.5v6.1h8.4V131h.5v13.1zm9.7 0V131h3.6c1 0 1.9.2 2.7.7.8.5 1.5 1.2 1.9 2 .5.9.7 1.8.7 2.9v1.7c0 1.1-.2 2.1-.7 2.9-.5.9-1.1 1.6-1.9 2-.8.5-1.7.7-2.7.7h-3.6zm.5-12.6v12.1h3.1c.9 0 1.8-.2 2.5-.7.8-.4 1.3-1.1 1.8-1.9.4-.8.6-1.7.6-2.7v-1.7c0-1-.2-1.9-.6-2.7-.4-.8-1-1.4-1.7-1.9s-1.6-.7-2.5-.7h-3.2zm17.2 7h-4.5v5.6h-.5V131h4.2c1.3 0 2.4.3 3.1 1 .8.7 1.2 1.6 1.2 2.8 0 .9-.3 1.7-.8 2.3-.6.7-1.3 1.1-2.1 1.2l3.5 5.6v.1h-.5l-3.6-5.5zm-4.5-.5h4.1c1 0 1.8-.3 2.4-.9.6-.6.9-1.4.9-2.3 0-1-.3-1.8-1-2.4-.7-.6-1.6-.9-2.8-.9h-3.6v6.5zm19.1-.4h-6.6v6h7.5v.5h-8V131h8v.5h-7.5v5.6h6.6v.5zm11.8 3.3c0-.6-.1-1-.4-1.4-.3-.4-.7-.7-1.2-1-.6-.3-1.4-.6-2.5-.9-1.1-.3-2-.6-2.5-.9s-1-.7-1.2-1.1c-.3-.4-.4-.9-.4-1.5 0-1 .4-1.7 1.2-2.3.8-.6 1.8-.9 3.1-.9.8 0 1.6.2 2.3.5.7.3 1.2.8 1.5 1.4.4.6.5 1.3.5 2h-.5c0-1-.4-1.8-1.1-2.4s-1.7-1-2.8-1c-1.1 0-2.1.3-2.8.8-.7.5-1.1 1.2-1.1 1.9 0 .8.3 1.4.9 1.9.6.5 1.6.9 3.1 1.3 1.4.4 2.5.8 3.1 1.3.8.6 1.3 1.4 1.3 2.5 0 .7-.2 1.2-.6 1.7-.4.5-.9.9-1.6 1.2-.7.3-1.4.4-2.3.4-.9 0-1.8-.2-2.6-.5s-1.3-.8-1.7-1.3-.6-1.3-.6-2.1h.5c0 1.1.4 1.9 1.2 2.5s1.8.9 3.1.9c1.1 0 2.1-.3 2.8-.8.9-.6 1.3-1.3 1.3-2.2zm3.9 3.2V131h3.6c1 0 1.9.2 2.7.7.8.5 1.5 1.2 1.9 2 .5.9.7 1.8.7 2.9v1.7c0 1.1-.2 2.1-.7 2.9-.5.9-1.1 1.6-1.9 2-.8.5-1.7.7-2.7.7h-3.6zm.5-12.6v12.1h3.1c.9 0 1.8-.2 2.5-.7.8-.4 1.3-1.1 1.8-1.9.4-.8.6-1.7.6-2.7v-1.7c0-1-.2-1.9-.6-2.7-.4-.8-1-1.4-1.7-1.9s-1.6-.7-2.5-.7h-3.2zm19.2 6.1h-6.6v6h7.5v.5h-8V131h8v.5h-7.5v5.6h6.6v.5zm13.7 6.5h-.5l-8.4-12.3v12.3h-.5V131h.5l8.4 12.2V131h.5v13.1z"/><path fill="#EA4E4B" d="M90.1 113.7c-1.4 1.9-3.8 3.5-7.2 4.7s-7.2 1.9-11.4 1.9c-4 0-7.6-1-10.8-3-3.2-2-5.6-4.8-7.4-8.3-1.8-3.6-2.7-7.7-2.8-12.2v-9.4c0-4.5.9-8.5 2.6-12 1.7-3.5 4.1-6.3 7.3-8.2 3.1-1.9 6.6-2.9 10.5-2.9 5.4 0 9.8 1.4 13.2 4.2 3.4 2.8 5.4 6.6 5.9 11.3h-2c-.7-4.3-2.5-7.7-5.4-10-2.9-2.3-6.9-3.5-11.7-3.5-5.5 0-9.9 2-13.3 5.9-3.4 3.9-5.1 9.1-5.1 15.5v8.7c0 4.3.8 8.1 2.4 11.4 1.6 3.3 3.8 5.9 6.7 7.8 2.9 1.8 6.2 2.8 9.9 2.8 3.6 0 7-.5 10.1-1.6 3.1-1.1 5.3-2.4 6.4-3.9v-16H71.4v-2h18.7v18.8zm52.8-17.3c0 4.7-.8 8.9-2.5 12.5-1.7 3.6-4.1 6.4-7.2 8.4-3.1 2-6.7 3-10.8 3-6.1 0-11.1-2.2-14.9-6.6-3.8-4.4-5.7-10.3-5.7-17.7v-7.9c0-4.7.8-8.9 2.5-12.5 1.7-3.6 4.1-6.5 7.2-8.4 3.1-2 6.7-3 10.8-3 4.1 0 7.7 1 10.8 3 3.1 2 5.5 4.8 7.2 8.5 1.7 3.7 2.5 7.8 2.5 12.5v8.2zm-2-8.3c0-6.6-1.7-11.9-5-15.9s-7.9-6-13.6-6c-5.6 0-10.1 2-13.4 5.9-3.3 4-5 9.3-5 16.2v8c0 4.3.8 8.2 2.3 11.5 1.5 3.3 3.7 5.9 6.5 7.7 2.8 1.8 6.1 2.7 9.8 2.7 5.7 0 10.2-2 13.5-6 3.3-4 5-9.4 5-16.2v-7.9zm53.8 31.4h-2l-35.2-51.1v51.1h-2.1V65h2.1l35.2 50.9V65h2v54.5zm15 0V65h15.1c4.2 0 8 1 11.5 3 3.4 2 6.1 4.8 8 8.4 1.9 3.6 2.9 7.6 3 12.1v7.1c0 4.5-1 8.6-2.9 12.3-1.9 3.6-4.6 6.5-8 8.5-3.4 2-7.2 3.1-11.5 3.1h-15.2zm2-52.4v50.5h13.1c3.8 0 7.3-.9 10.4-2.8 3.1-1.9 5.6-4.5 7.4-7.8 1.8-3.3 2.7-7 2.7-11.1v-7c0-4.1-.9-7.8-2.6-11.1-1.7-3.3-4.2-5.9-7.3-7.8-3.1-1.9-6.5-2.9-10.3-2.9h-13.4zm76 36.2H261l-6.1 16.3h-2.2L273.2 65h2.5l20.4 54.5h-2.2l-6.2-16.2zm-25.9-2.1H287l-12.6-33.8-12.6 33.8zm81.2-4.8c0 4.7-.8 8.9-2.5 12.5-1.7 3.6-4.1 6.4-7.2 8.4-3.1 2-6.7 3-10.8 3-6.1 0-11.1-2.2-14.9-6.6-3.8-4.4-5.7-10.3-5.7-17.7v-7.9c0-4.7.8-8.9 2.5-12.5 1.7-3.6 4.1-6.5 7.2-8.4 3.1-2 6.7-3 10.8-3 4.1 0 7.7 1 10.8 3 3.1 2 5.5 4.8 7.2 8.5 1.7 3.7 2.5 7.8 2.5 12.5v8.2zm-2-8.3c0-6.6-1.7-11.9-5-15.9s-7.9-6-13.6-6c-5.6 0-10.1 2-13.4 5.9-3.3 4-5 9.3-5 16.2v8c0 4.3.8 8.2 2.3 11.5 1.5 3.3 3.7 5.9 6.5 7.7 2.8 1.8 6.1 2.7 9.8 2.7 5.7 0 10.2-2 13.5-6 3.3-4 5-9.4 5-16.2v-7.9z"/></svg>