<?xml version="1.0" encoding="utf-8"?>
<svg version="1.2" baseProfile="tiny" xmlns="http://www.w3.org/2000/svg" xmlns:xlink="http://www.w3.org/1999/xlink" x="0px"
	 y="0px" viewBox="0 0 400 200" xml:space="preserve">
<g id="Ebene_1" display="none">
	<g display="inline">
		<path fill="#EFEEEE" d="M263.2,131c-2.9,7.2-8.4,14.1-16.5,20.8c-8.1,6.7-17.7,12.1-28.9,16.2c-17.1,6.3-32.7,6-46.7-0.7
			c-14-6.7-24.8-19.3-32.4-37.7l-4.2-11.3c-4.7-12.9-6.5-24.9-5.5-36.2c1-11.3,4.8-21,11.4-29.3c6.6-8.3,15.4-14.4,26.5-18.5
			c16.3-5.9,30.2-6.8,42-2.7c11.7,4.2,21,13.4,27.9,27.6l-30.3,11.1c-3.7-6.9-8-11.3-12.7-13.1c-4.7-1.8-10.4-1.5-16.9,0.9
			c-7.9,2.9-12.8,8.5-14.6,16.8c-1.9,8.3-0.5,18.7,4,31.1l2.9,7.9c4.8,13.1,10.6,22,17.4,27c6.8,4.9,15.1,5.6,24.6,2.1
			c8.2-3,13.6-7.1,16.3-12.2l-7.4-20.3l-21.9,8l-7.9-21.6l53.3-19.5L263.2,131z"/>
	</g>
	<g display="inline">
		<path fill="#FFFFFF" d="M60,140.1c-0.1,1.3-0.6,2.4-1.4,3.1c-0.8,0.7-1.9,1.1-3.3,1.1c-0.9,0-1.8-0.2-2.5-0.7
			c-0.7-0.5-1.3-1.1-1.7-2c-0.4-0.9-0.6-1.9-0.6-3v-2c0-1.1,0.2-2.1,0.6-3c0.4-0.9,0.9-1.6,1.7-2s1.5-0.7,2.5-0.7
			c1.4,0,2.5,0.4,3.3,1.1s1.3,1.7,1.4,3.1h-0.5c-0.1-1.2-0.6-2.1-1.3-2.7c-0.7-0.6-1.7-0.9-2.9-0.9c-1.3,0-2.3,0.5-3.1,1.4
			c-0.8,1-1.2,2.2-1.2,3.9v1.9c0,1,0.2,1.9,0.5,2.7s0.8,1.4,1.5,1.9c0.6,0.4,1.4,0.7,2.2,0.7c1.3,0,2.2-0.3,2.9-0.9
			c0.7-0.6,1.1-1.5,1.2-2.8H60z"/>
		<path fill="#FFFFFF" d="M73.1,138.5c0,1.1-0.2,2.1-0.6,3s-1,1.5-1.7,2c-0.7,0.5-1.6,0.7-2.6,0.7c-1.5,0-2.7-0.5-3.6-1.6
			c-0.9-1-1.4-2.5-1.4-4.2v-1.9c0-1.1,0.2-2.1,0.6-3c0.4-0.9,1-1.5,1.7-2c0.8-0.5,1.6-0.7,2.6-0.7c1,0,1.8,0.2,2.6,0.7
			c0.8,0.5,1.3,1.2,1.7,2c0.4,0.9,0.6,1.9,0.6,3V138.5z M72.6,136.5c0-1.6-0.4-2.8-1.2-3.8c-0.8-1-1.9-1.4-3.3-1.4
			c-1.3,0-2.4,0.5-3.2,1.4c-0.8,0.9-1.2,2.2-1.2,3.9v1.9c0,1,0.2,2,0.5,2.8c0.4,0.8,0.9,1.4,1.5,1.8c0.7,0.4,1.5,0.6,2.4,0.6
			c1.4,0,2.4-0.5,3.2-1.4c0.8-1,1.2-2.3,1.2-3.9V136.5z"/>
		<path fill="#FFFFFF" d="M86.3,144.1h-0.5l-8.4-12.3v12.3h-0.5V131h0.5l8.4,12.2V131h0.5V144.1z"/>
		<path fill="#FFFFFF" d="M99.4,131.5h-4.8v12.6h-0.5v-12.6h-4.8V131h10V131.5z"/>
		<path fill="#FFFFFF" d="M107.9,140.2h-6.4l-1.5,3.9h-0.5l4.9-13.1h0.6l4.9,13.1h-0.5L107.9,140.2z M101.7,139.7h6l-3-8.1
			L101.7,139.7z"/>
		<path fill="#FFFFFF" d="M121.8,138.5c0,1.1-0.2,2.1-0.6,3s-1,1.5-1.7,2c-0.7,0.5-1.6,0.7-2.6,0.7c-1.5,0-2.7-0.5-3.6-1.6
			c-0.9-1-1.4-2.5-1.4-4.2v-1.9c0-1.1,0.2-2.1,0.6-3s1-1.5,1.7-2c0.8-0.5,1.6-0.7,2.6-0.7c1,0,1.8,0.2,2.6,0.7
			c0.8,0.5,1.3,1.2,1.7,2c0.4,0.9,0.6,1.9,0.6,3V138.5z M121.4,136.5c0-1.6-0.4-2.8-1.2-3.8s-1.9-1.4-3.3-1.4
			c-1.3,0-2.4,0.5-3.2,1.4c-0.8,0.9-1.2,2.2-1.2,3.9v1.9c0,1,0.2,2,0.5,2.8c0.4,0.8,0.9,1.4,1.5,1.8c0.7,0.4,1.5,0.6,2.4,0.6
			c1.4,0,2.4-0.5,3.2-1.4s1.2-2.3,1.2-3.9V136.5z"/>
		<path fill="#FFFFFF" d="M129.1,138.3h-4.2v-0.5h4.2V138.3z"/>
		<path fill="#FFFFFF" d="M140.4,140.9c0-0.6-0.1-1-0.4-1.4c-0.3-0.4-0.7-0.7-1.2-1c-0.6-0.3-1.4-0.6-2.5-0.9
			c-1.1-0.3-2-0.6-2.5-0.9c-0.6-0.3-1-0.7-1.2-1.1c-0.3-0.4-0.4-0.9-0.4-1.5c0-1,0.4-1.7,1.2-2.3c0.8-0.6,1.8-0.9,3.1-0.9
			c0.8,0,1.6,0.2,2.3,0.5c0.7,0.3,1.2,0.8,1.5,1.4c0.4,0.6,0.5,1.3,0.5,2h-0.5c0-1-0.4-1.8-1.1-2.4s-1.7-1-2.8-1
			c-1.1,0-2.1,0.3-2.8,0.8c-0.7,0.5-1.1,1.2-1.1,1.9c0,0.8,0.3,1.4,0.9,1.9c0.6,0.5,1.6,0.9,3.1,1.3c1.4,0.4,2.5,0.8,3.1,1.3
			c0.8,0.6,1.3,1.4,1.3,2.5c0,0.7-0.2,1.2-0.6,1.7c-0.4,0.5-0.9,0.9-1.6,1.2c-0.7,0.3-1.4,0.4-2.3,0.4c-0.9,0-1.8-0.2-2.6-0.5
			c-0.8-0.3-1.3-0.8-1.7-1.3s-0.6-1.3-0.6-2.1h0.5c0,1.1,0.4,1.9,1.2,2.5c0.8,0.6,1.8,0.9,3.1,0.9c1.1,0,2.1-0.3,2.8-0.8
			C140,142.5,140.4,141.8,140.4,140.9z"/>
		<path fill="#FFFFFF" d="M152.8,131.5H148v12.6h-0.5v-12.6h-4.8V131h10V131.5z"/>
		<path fill="#FFFFFF" d="M161.3,140.2h-6.4l-1.5,3.9h-0.5l4.9-13.1h0.6l4.9,13.1h-0.5L161.3,140.2z M155.1,139.7h6l-3-8.1
			L155.1,139.7z"/>
		<path fill="#FFFFFF" d="M167,131l5.4,12.4l5.4-12.4h0.7v13.1h-0.5v-12.4l-5.4,12.4h-0.4l-5.4-12.3v12.3h-0.5V131H167z"/>
		<path fill="#FFFFFF" d="M183.4,131l5.4,12.4l5.4-12.4h0.7v13.1h-0.5v-12.4l-5.4,12.4h-0.4l-5.4-12.3v12.3h-0.5V131H183.4z"/>
		<path fill="#FFFFFF" d="M208.1,131.5h-4.8v12.6h-0.5v-12.6h-4.8V131h10V131.5z"/>
		<path fill="#FFFFFF" d="M211.9,144.1h-0.5V131h0.5V144.1z"/>
		<path fill="#FFFFFF" d="M224.2,140.9c0-0.6-0.1-1-0.4-1.4c-0.3-0.4-0.7-0.7-1.2-1c-0.6-0.3-1.4-0.6-2.5-0.9
			c-1.1-0.3-2-0.6-2.5-0.9c-0.6-0.3-1-0.7-1.2-1.1c-0.3-0.4-0.4-0.9-0.4-1.5c0-1,0.4-1.7,1.2-2.3c0.8-0.6,1.8-0.9,3.1-0.9
			c0.8,0,1.6,0.2,2.3,0.5c0.7,0.3,1.2,0.8,1.5,1.4c0.4,0.6,0.5,1.3,0.5,2h-0.5c0-1-0.4-1.8-1.1-2.4s-1.7-1-2.8-1
			c-1.1,0-2.1,0.3-2.8,0.8c-0.7,0.5-1.1,1.2-1.1,1.9c0,0.8,0.3,1.4,0.9,1.9s1.6,0.9,3.1,1.3c1.4,0.4,2.5,0.8,3.1,1.3
			c0.8,0.6,1.3,1.4,1.3,2.5c0,0.7-0.2,1.2-0.6,1.7c-0.4,0.5-0.9,0.9-1.6,1.2c-0.7,0.3-1.4,0.4-2.3,0.4c-0.9,0-1.8-0.2-2.6-0.5
			c-0.8-0.3-1.3-0.8-1.7-1.3s-0.6-1.3-0.6-2.1h0.5c0,1.1,0.4,1.9,1.2,2.5c0.8,0.6,1.8,0.9,3.1,0.9c1.1,0,2.1-0.3,2.8-0.8
			C223.9,142.5,224.2,141.8,224.2,140.9z"/>
		<path fill="#FFFFFF" d="M237.1,140.1c-0.1,1.3-0.6,2.4-1.4,3.1c-0.8,0.7-1.9,1.1-3.3,1.1c-0.9,0-1.8-0.2-2.5-0.7s-1.3-1.1-1.7-2
			c-0.4-0.9-0.6-1.9-0.6-3v-2c0-1.1,0.2-2.1,0.6-3s0.9-1.6,1.7-2c0.7-0.5,1.5-0.7,2.5-0.7c1.4,0,2.5,0.4,3.3,1.1s1.3,1.7,1.4,3.1
			h-0.5c-0.1-1.2-0.6-2.1-1.3-2.7c-0.7-0.6-1.7-0.9-2.9-0.9c-1.3,0-2.3,0.5-3.1,1.4c-0.8,1-1.2,2.2-1.2,3.9v1.9c0,1,0.2,1.9,0.5,2.7
			s0.8,1.4,1.5,1.9c0.6,0.4,1.4,0.7,2.2,0.7c1.3,0,2.2-0.3,2.9-0.9s1.1-1.5,1.2-2.8H237.1z"/>
		<path fill="#FFFFFF" d="M250,144.1h-0.5v-6.5h-8.4v6.5h-0.5V131h0.5v6.1h8.4V131h0.5V144.1z"/>
		<path fill="#FFFFFF" d="M259.7,144.1V131h3.6c1,0,1.9,0.2,2.7,0.7c0.8,0.5,1.5,1.2,1.9,2c0.5,0.9,0.7,1.8,0.7,2.9v1.7
			c0,1.1-0.2,2.1-0.7,2.9c-0.5,0.9-1.1,1.6-1.9,2c-0.8,0.5-1.7,0.7-2.7,0.7H259.7z M260.2,131.5v12.1h3.1c0.9,0,1.8-0.2,2.5-0.7
			c0.8-0.4,1.3-1.1,1.8-1.9c0.4-0.8,0.6-1.7,0.6-2.7v-1.7c0-1-0.2-1.9-0.6-2.7c-0.4-0.8-1-1.4-1.7-1.9s-1.6-0.7-2.5-0.7H260.2z"/>
		<path fill="#FFFFFF" d="M277.4,138.5h-4.5v5.6h-0.5V131h4.2c1.3,0,2.4,0.3,3.1,1c0.8,0.7,1.2,1.6,1.2,2.8c0,0.9-0.3,1.7-0.8,2.3
			c-0.6,0.7-1.3,1.1-2.1,1.2l3.5,5.6v0.1h-0.5L277.4,138.5z M272.9,138h4.1c1,0,1.8-0.3,2.4-0.9c0.6-0.6,0.9-1.4,0.9-2.3
			c0-1-0.3-1.8-1-2.4c-0.7-0.6-1.6-0.9-2.8-0.9h-3.6V138z"/>
		<path fill="#FFFFFF" d="M292,137.6h-6.6v6h7.5v0.5h-8V131h8v0.5h-7.5v5.6h6.6V137.6z"/>
		<path fill="#FFFFFF" d="M303.8,140.9c0-0.6-0.1-1-0.4-1.4c-0.3-0.4-0.7-0.7-1.2-1c-0.6-0.3-1.4-0.6-2.5-0.9
			c-1.1-0.3-2-0.6-2.5-0.9s-1-0.7-1.2-1.1c-0.3-0.4-0.4-0.9-0.4-1.5c0-1,0.4-1.7,1.2-2.3c0.8-0.6,1.8-0.9,3.1-0.9
			c0.8,0,1.6,0.2,2.3,0.5c0.7,0.3,1.2,0.8,1.5,1.4c0.4,0.6,0.5,1.3,0.5,2h-0.5c0-1-0.4-1.8-1.1-2.4s-1.7-1-2.8-1
			c-1.1,0-2.1,0.3-2.8,0.8c-0.7,0.5-1.1,1.2-1.1,1.9c0,0.8,0.3,1.4,0.9,1.9c0.6,0.5,1.6,0.9,3.1,1.3c1.4,0.4,2.5,0.8,3.1,1.3
			c0.8,0.6,1.3,1.4,1.3,2.5c0,0.7-0.2,1.2-0.6,1.7c-0.4,0.5-0.9,0.9-1.6,1.2c-0.7,0.3-1.4,0.4-2.3,0.4c-0.9,0-1.8-0.2-2.6-0.5
			c-0.8-0.3-1.3-0.8-1.7-1.3s-0.6-1.3-0.6-2.1h0.5c0,1.1,0.4,1.9,1.2,2.5s1.8,0.9,3.1,0.9c1.1,0,2.1-0.3,2.8-0.8
			C303.4,142.5,303.8,141.8,303.8,140.9z"/>
		<path fill="#FFFFFF" d="M307.7,144.1V131h3.6c1,0,1.9,0.2,2.7,0.7c0.8,0.5,1.5,1.2,1.9,2c0.5,0.9,0.7,1.8,0.7,2.9v1.7
			c0,1.1-0.2,2.1-0.7,2.9c-0.5,0.9-1.1,1.6-1.9,2c-0.8,0.5-1.7,0.7-2.7,0.7H307.7z M308.2,131.5v12.1h3.1c0.9,0,1.8-0.2,2.5-0.7
			c0.8-0.4,1.3-1.1,1.8-1.9c0.4-0.8,0.6-1.7,0.6-2.7v-1.7c0-1-0.2-1.9-0.6-2.7c-0.4-0.8-1-1.4-1.7-1.9c-0.7-0.5-1.6-0.7-2.5-0.7
			H308.2z"/>
		<path fill="#FFFFFF" d="M327.4,137.6h-6.6v6h7.5v0.5h-8V131h8v0.5h-7.5v5.6h6.6V137.6z"/>
		<path fill="#FFFFFF" d="M341.1,144.1h-0.5l-8.4-12.3v12.3h-0.5V131h0.5l8.4,12.2V131h0.5V144.1z"/>
	</g>
	<g display="inline">
		<path fill="#EA4E4B" d="M90.1,113.7c-1.4,1.9-3.8,3.5-7.2,4.7s-7.2,1.9-11.4,1.9c-4,0-7.6-1-10.8-3c-3.2-2-5.6-4.8-7.4-8.3
			c-1.8-3.6-2.7-7.7-2.8-12.2v-9.4c0-4.5,0.9-8.5,2.6-12c1.7-3.5,4.1-6.3,7.3-8.2c3.1-1.9,6.6-2.9,10.5-2.9c5.4,0,9.8,1.4,13.2,4.2
			c3.4,2.8,5.4,6.6,5.9,11.3h-2c-0.7-4.3-2.5-7.7-5.4-10c-2.9-2.3-6.9-3.5-11.7-3.5c-5.5,0-9.9,2-13.3,5.9
			c-3.4,3.9-5.1,9.1-5.1,15.5v8.7c0,4.3,0.8,8.1,2.4,11.4c1.6,3.3,3.8,5.9,6.7,7.8c2.9,1.8,6.2,2.8,9.9,2.8c3.6,0,7-0.5,10.1-1.6
			c3.1-1.1,5.3-2.4,6.4-3.9V96.9H71.4v-2h18.7V113.7z"/>
		<path fill="#EA4E4B" d="M142.9,96.4c0,4.7-0.8,8.9-2.5,12.5c-1.7,3.6-4.1,6.4-7.2,8.4c-3.1,2-6.7,3-10.8,3
			c-6.1,0-11.1-2.2-14.9-6.6c-3.8-4.4-5.7-10.3-5.7-17.7v-7.9c0-4.7,0.8-8.9,2.5-12.5c1.7-3.6,4.1-6.5,7.2-8.4c3.1-2,6.7-3,10.8-3
			c4.1,0,7.7,1,10.8,3c3.1,2,5.5,4.8,7.2,8.5c1.7,3.7,2.5,7.8,2.5,12.5V96.4z M140.9,88.1c0-6.6-1.7-11.9-5-15.9
			c-3.3-4-7.9-6-13.6-6c-5.6,0-10.1,2-13.4,5.9c-3.3,4-5,9.3-5,16.2v8c0,4.3,0.8,8.2,2.3,11.5c1.5,3.3,3.7,5.9,6.5,7.7
			c2.8,1.8,6.1,2.7,9.8,2.7c5.7,0,10.2-2,13.5-6c3.3-4,5-9.4,5-16.2V88.1z"/>
		<path fill="#EA4E4B" d="M194.7,119.5h-2l-35.2-51.1v51.1h-2.1V65h2.1l35.2,50.9V65h2V119.5z"/>
		<path fill="#EA4E4B" d="M209.7,119.5V65h15.1c4.2,0,8,1,11.5,3c3.4,2,6.1,4.8,8,8.4c1.9,3.6,2.9,7.6,3,12.1v7.1
			c0,4.5-1,8.6-2.9,12.3c-1.9,3.6-4.6,6.5-8,8.5c-3.4,2-7.2,3.1-11.5,3.1H209.7z M211.7,67.1v50.5h13.1c3.8,0,7.3-0.9,10.4-2.8
			c3.1-1.9,5.6-4.5,7.4-7.8c1.8-3.3,2.7-7,2.7-11.1v-7c0-4.1-0.9-7.8-2.6-11.1c-1.7-3.3-4.2-5.9-7.3-7.8c-3.1-1.9-6.5-2.9-10.3-2.9
			H211.7z"/>
		<path fill="#EA4E4B" d="M287.7,103.3h-26.7l-6.1,16.3h-2.2L273.2,65h2.5l20.4,54.5h-2.2L287.7,103.3z M261.8,101.2H287l-12.6-33.8
			L261.8,101.2z"/>
		<path fill="#EA4E4B" d="M343,96.4c0,4.7-0.8,8.9-2.5,12.5c-1.7,3.6-4.1,6.4-7.2,8.4c-3.1,2-6.7,3-10.8,3c-6.1,0-11.1-2.2-14.9-6.6
			c-3.8-4.4-5.7-10.3-5.7-17.7v-7.9c0-4.7,0.8-8.9,2.5-12.5c1.7-3.6,4.1-6.5,7.2-8.4c3.1-2,6.7-3,10.8-3c4.1,0,7.7,1,10.8,3
			c3.1,2,5.5,4.8,7.2,8.5c1.7,3.7,2.5,7.8,2.5,12.5V96.4z M341,88.1c0-6.6-1.7-11.9-5-15.9c-3.3-4-7.9-6-13.6-6
			c-5.6,0-10.1,2-13.4,5.9c-3.3,4-5,9.3-5,16.2v8c0,4.3,0.8,8.2,2.3,11.5c1.5,3.3,3.7,5.9,6.5,7.7c2.8,1.8,6.1,2.7,9.8,2.7
			c5.7,0,10.2-2,13.5-6c3.3-4,5-9.4,5-16.2V88.1z"/>
	</g>
</g>
<g id="Ebene_1_Kopie">
	<g>
		<path fill="#F0F0F0" d="M263.2,131c-2.9,7.2-8.4,14.1-16.5,20.8c-8.1,6.7-17.7,12.1-28.9,16.2c-17.1,6.3-32.7,6-46.7-0.7
			c-14-6.7-24.8-19.3-32.4-37.7l-4.2-11.3c-4.7-12.9-6.5-24.9-5.5-36.2c1-11.3,4.8-21,11.4-29.3c6.6-8.3,15.4-14.4,26.5-18.5
			c16.3-5.9,30.2-6.8,42-2.7c11.7,4.2,21,13.4,27.9,27.6l-30.3,11.1c-3.7-6.9-8-11.3-12.7-13.1c-4.7-1.8-10.4-1.5-16.9,0.9
			c-7.9,2.9-12.8,8.5-14.6,16.8c-1.9,8.3-0.5,18.7,4,31.1l2.9,7.9c4.8,13.1,10.6,22,17.4,27c6.8,4.9,15.1,5.6,24.6,2.1
			c8.2-3,13.6-7.1,16.3-12.2l-7.4-20.3l-21.9,8l-7.9-21.6l53.3-19.5L263.2,131z"/>
	</g>
	<g>
		<path d="M60,140.1c-0.1,1.3-0.6,2.4-1.4,3.1c-0.8,0.7-1.9,1.1-3.3,1.1c-0.9,0-1.8-0.2-2.5-0.7c-0.7-0.5-1.3-1.1-1.7-2
			c-0.4-0.9-0.6-1.9-0.6-3v-2c0-1.1,0.2-2.1,0.6-3c0.4-0.9,0.9-1.6,1.7-2s1.5-0.7,2.5-0.7c1.4,0,2.5,0.4,3.3,1.1s1.3,1.7,1.4,3.1
			h-0.5c-0.1-1.2-0.6-2.1-1.3-2.7c-0.7-0.6-1.7-0.9-2.9-0.9c-1.3,0-2.3,0.5-3.1,1.4c-0.8,1-1.2,2.2-1.2,3.9v1.9c0,1,0.2,1.9,0.5,2.7
			s0.8,1.4,1.5,1.9c0.6,0.4,1.4,0.7,2.2,0.7c1.3,0,2.2-0.3,2.9-0.9c0.7-0.6,1.1-1.5,1.2-2.8H60z"/>
		<path d="M73.1,138.5c0,1.1-0.2,2.1-0.6,3s-1,1.5-1.7,2c-0.7,0.5-1.6,0.7-2.6,0.7c-1.5,0-2.7-0.5-3.6-1.6c-0.9-1-1.4-2.5-1.4-4.2
			v-1.9c0-1.1,0.2-2.1,0.6-3c0.4-0.9,1-1.5,1.7-2c0.8-0.5,1.6-0.7,2.6-0.7c1,0,1.8,0.2,2.6,0.7c0.8,0.5,1.3,1.2,1.7,2
			c0.4,0.9,0.6,1.9,0.6,3V138.5z M72.6,136.5c0-1.6-0.4-2.8-1.2-3.8c-0.8-1-1.9-1.4-3.3-1.4c-1.3,0-2.4,0.5-3.2,1.4
			c-0.8,0.9-1.2,2.2-1.2,3.9v1.9c0,1,0.2,2,0.5,2.8c0.4,0.8,0.9,1.4,1.5,1.8c0.7,0.4,1.5,0.6,2.4,0.6c1.4,0,2.4-0.5,3.2-1.4
			c0.8-1,1.2-2.3,1.2-3.9V136.5z"/>
		<path d="M86.3,144.1h-0.5l-8.4-12.3v12.3h-0.5V131h0.5l8.4,12.2V131h0.5V144.1z"/>
		<path d="M99.4,131.5h-4.8v12.6h-0.5v-12.6h-4.8V131h10V131.5z"/>
		<path d="M107.9,140.2h-6.4l-1.5,3.9h-0.5l4.9-13.1h0.6l4.9,13.1h-0.5L107.9,140.2z M101.7,139.7h6l-3-8.1L101.7,139.7z"/>
		<path d="M121.8,138.5c0,1.1-0.2,2.1-0.6,3s-1,1.5-1.7,2c-0.7,0.5-1.6,0.7-2.6,0.7c-1.5,0-2.7-0.5-3.6-1.6c-0.9-1-1.4-2.5-1.4-4.2
			v-1.9c0-1.1,0.2-2.1,0.6-3s1-1.5,1.7-2c0.8-0.5,1.6-0.7,2.6-0.7c1,0,1.8,0.2,2.6,0.7c0.8,0.5,1.3,1.2,1.7,2c0.4,0.9,0.6,1.9,0.6,3
			V138.5z M121.4,136.5c0-1.6-0.4-2.8-1.2-3.8s-1.9-1.4-3.3-1.4c-1.3,0-2.4,0.5-3.2,1.4c-0.8,0.9-1.2,2.2-1.2,3.9v1.9
			c0,1,0.2,2,0.5,2.8c0.4,0.8,0.9,1.4,1.5,1.8c0.7,0.4,1.5,0.6,2.4,0.6c1.4,0,2.4-0.5,3.2-1.4s1.2-2.3,1.2-3.9V136.5z"/>
		<path d="M129.1,138.3h-4.2v-0.5h4.2V138.3z"/>
		<path d="M140.4,140.9c0-0.6-0.1-1-0.4-1.4c-0.3-0.4-0.7-0.7-1.2-1c-0.6-0.3-1.4-0.6-2.5-0.9c-1.1-0.3-2-0.6-2.5-0.9
			c-0.6-0.3-1-0.7-1.2-1.1c-0.3-0.4-0.4-0.9-0.4-1.5c0-1,0.4-1.7,1.2-2.3c0.8-0.6,1.8-0.9,3.1-0.9c0.8,0,1.6,0.2,2.3,0.5
			c0.7,0.3,1.2,0.8,1.5,1.4c0.4,0.6,0.5,1.3,0.5,2h-0.5c0-1-0.4-1.8-1.1-2.4s-1.7-1-2.8-1c-1.1,0-2.1,0.3-2.8,0.8
			c-0.7,0.5-1.1,1.2-1.1,1.9c0,0.8,0.3,1.4,0.9,1.9c0.6,0.5,1.6,0.9,3.1,1.3c1.4,0.4,2.5,0.8,3.1,1.3c0.8,0.6,1.3,1.4,1.3,2.5
			c0,0.7-0.2,1.2-0.6,1.7c-0.4,0.5-0.9,0.9-1.6,1.2c-0.7,0.3-1.4,0.4-2.3,0.4c-0.9,0-1.8-0.2-2.6-0.5c-0.8-0.3-1.3-0.8-1.7-1.3
			s-0.6-1.3-0.6-2.1h0.5c0,1.1,0.4,1.9,1.2,2.5c0.8,0.6,1.8,0.9,3.1,0.9c1.1,0,2.1-0.3,2.8-0.8C140,142.5,140.4,141.8,140.4,140.9z"
			/>
		<path d="M152.8,131.5H148v12.6h-0.5v-12.6h-4.8V131h10V131.5z"/>
		<path d="M161.3,140.2h-6.4l-1.5,3.9h-0.5l4.9-13.1h0.6l4.9,13.1h-0.5L161.3,140.2z M155.1,139.7h6l-3-8.1L155.1,139.7z"/>
		<path d="M167,131l5.4,12.4l5.4-12.4h0.7v13.1h-0.5v-12.4l-5.4,12.4h-0.4l-5.4-12.3v12.3h-0.5V131H167z"/>
		<path d="M183.4,131l5.4,12.4l5.4-12.4h0.7v13.1h-0.5v-12.4l-5.4,12.4h-0.4l-5.4-12.3v12.3h-0.5V131H183.4z"/>
		<path d="M208.1,131.5h-4.8v12.6h-0.5v-12.6h-4.8V131h10V131.5z"/>
		<path d="M211.9,144.1h-0.5V131h0.5V144.1z"/>
		<path d="M224.2,140.9c0-0.6-0.1-1-0.4-1.4c-0.3-0.4-0.7-0.7-1.2-1c-0.6-0.3-1.4-0.6-2.5-0.9c-1.1-0.3-2-0.6-2.5-0.9
			c-0.6-0.3-1-0.7-1.2-1.1c-0.3-0.4-0.4-0.9-0.4-1.5c0-1,0.4-1.7,1.2-2.3c0.8-0.6,1.8-0.9,3.1-0.9c0.8,0,1.6,0.2,2.3,0.5
			c0.7,0.3,1.2,0.8,1.5,1.4c0.4,0.6,0.5,1.3,0.5,2h-0.5c0-1-0.4-1.8-1.1-2.4s-1.7-1-2.8-1c-1.1,0-2.1,0.3-2.8,0.8
			c-0.7,0.5-1.1,1.2-1.1,1.9c0,0.8,0.3,1.4,0.9,1.9s1.6,0.9,3.1,1.3c1.4,0.4,2.5,0.8,3.1,1.3c0.8,0.6,1.3,1.4,1.3,2.5
			c0,0.7-0.2,1.2-0.6,1.7c-0.4,0.5-0.9,0.9-1.6,1.2c-0.7,0.3-1.4,0.4-2.3,0.4c-0.9,0-1.8-0.2-2.6-0.5c-0.8-0.3-1.3-0.8-1.7-1.3
			s-0.6-1.3-0.6-2.1h0.5c0,1.1,0.4,1.9,1.2,2.5c0.8,0.6,1.8,0.9,3.1,0.9c1.1,0,2.1-0.3,2.8-0.8C223.9,142.5,224.2,141.8,224.2,140.9
			z"/>
		<path d="M237.1,140.1c-0.1,1.3-0.6,2.4-1.4,3.1c-0.8,0.7-1.9,1.1-3.3,1.1c-0.9,0-1.8-0.2-2.5-0.7s-1.3-1.1-1.7-2
			c-0.4-0.9-0.6-1.9-0.6-3v-2c0-1.1,0.2-2.1,0.6-3s0.9-1.6,1.7-2c0.7-0.5,1.5-0.7,2.5-0.7c1.4,0,2.5,0.4,3.3,1.1s1.3,1.7,1.4,3.1
			h-0.5c-0.1-1.2-0.6-2.1-1.3-2.7c-0.7-0.6-1.7-0.9-2.9-0.9c-1.3,0-2.3,0.5-3.1,1.4c-0.8,1-1.2,2.2-1.2,3.9v1.9c0,1,0.2,1.9,0.5,2.7
			s0.8,1.4,1.5,1.9c0.6,0.4,1.4,0.7,2.2,0.7c1.3,0,2.2-0.3,2.9-0.9s1.1-1.5,1.2-2.8H237.1z"/>
		<path d="M250,144.1h-0.5v-6.5h-8.4v6.5h-0.5V131h0.5v6.1h8.4V131h0.5V144.1z"/>
		<path d="M259.7,144.1V131h3.6c1,0,1.9,0.2,2.7,0.7c0.8,0.5,1.5,1.2,1.9,2c0.5,0.9,0.7,1.8,0.7,2.9v1.7c0,1.1-0.2,2.1-0.7,2.9
			c-0.5,0.9-1.1,1.6-1.9,2c-0.8,0.5-1.7,0.7-2.7,0.7H259.7z M260.2,131.5v12.1h3.1c0.9,0,1.8-0.2,2.5-0.7c0.8-0.4,1.3-1.1,1.8-1.9
			c0.4-0.8,0.6-1.7,0.6-2.7v-1.7c0-1-0.2-1.9-0.6-2.7c-0.4-0.8-1-1.4-1.7-1.9s-1.6-0.7-2.5-0.7H260.2z"/>
		<path d="M277.4,138.5h-4.5v5.6h-0.5V131h4.2c1.3,0,2.4,0.3,3.1,1c0.8,0.7,1.2,1.6,1.2,2.8c0,0.9-0.3,1.7-0.8,2.3
			c-0.6,0.7-1.3,1.1-2.1,1.2l3.5,5.6v0.1h-0.5L277.4,138.5z M272.9,138h4.1c1,0,1.8-0.3,2.4-0.9c0.6-0.6,0.9-1.4,0.9-2.3
			c0-1-0.3-1.8-1-2.4c-0.7-0.6-1.6-0.9-2.8-0.9h-3.6V138z"/>
		<path d="M292,137.6h-6.6v6h7.5v0.5h-8V131h8v0.5h-7.5v5.6h6.6V137.6z"/>
		<path d="M303.8,140.9c0-0.6-0.1-1-0.4-1.4c-0.3-0.4-0.7-0.7-1.2-1c-0.6-0.3-1.4-0.6-2.5-0.9c-1.1-0.3-2-0.6-2.5-0.9
			s-1-0.7-1.2-1.1c-0.3-0.4-0.4-0.9-0.4-1.5c0-1,0.4-1.7,1.2-2.3c0.8-0.6,1.8-0.9,3.1-0.9c0.8,0,1.6,0.2,2.3,0.5
			c0.7,0.3,1.2,0.8,1.5,1.4c0.4,0.6,0.5,1.3,0.5,2h-0.5c0-1-0.4-1.8-1.1-2.4s-1.7-1-2.8-1c-1.1,0-2.1,0.3-2.8,0.8
			c-0.7,0.5-1.1,1.2-1.1,1.9c0,0.8,0.3,1.4,0.9,1.9c0.6,0.5,1.6,0.9,3.1,1.3c1.4,0.4,2.5,0.8,3.1,1.3c0.8,0.6,1.3,1.4,1.3,2.5
			c0,0.7-0.2,1.2-0.6,1.7c-0.4,0.5-0.9,0.9-1.6,1.2c-0.7,0.3-1.4,0.4-2.3,0.4c-0.9,0-1.8-0.2-2.6-0.5c-0.8-0.3-1.3-0.8-1.7-1.3
			s-0.6-1.3-0.6-2.1h0.5c0,1.1,0.4,1.9,1.2,2.5s1.8,0.9,3.1,0.9c1.1,0,2.1-0.3,2.8-0.8C303.4,142.5,303.8,141.8,303.8,140.9z"/>
		<path d="M307.7,144.1V131h3.6c1,0,1.9,0.2,2.7,0.7c0.8,0.5,1.5,1.2,1.9,2c0.5,0.9,0.7,1.8,0.7,2.9v1.7c0,1.1-0.2,2.1-0.7,2.9
			c-0.5,0.9-1.1,1.6-1.9,2c-0.8,0.5-1.7,0.7-2.7,0.7H307.7z M308.2,131.5v12.1h3.1c0.9,0,1.8-0.2,2.5-0.7c0.8-0.4,1.3-1.1,1.8-1.9
			c0.4-0.8,0.6-1.7,0.6-2.7v-1.7c0-1-0.2-1.9-0.6-2.7c-0.4-0.8-1-1.4-1.7-1.9c-0.7-0.5-1.6-0.7-2.5-0.7H308.2z"/>
		<path d="M327.4,137.6h-6.6v6h7.5v0.5h-8V131h8v0.5h-7.5v5.6h6.6V137.6z"/>
		<path d="M341.1,144.1h-0.5l-8.4-12.3v12.3h-0.5V131h0.5l8.4,12.2V131h0.5V144.1z"/>
	</g>
	<g>
		<path fill="#EA4E4B" d="M90.1,113.7c-1.4,1.9-3.8,3.5-7.2,4.7s-7.2,1.9-11.4,1.9c-4,0-7.6-1-10.8-3c-3.2-2-5.6-4.8-7.4-8.3
			c-1.8-3.6-2.7-7.7-2.8-12.2v-9.4c0-4.5,0.9-8.5,2.6-12c1.7-3.5,4.1-6.3,7.3-8.2c3.1-1.9,6.6-2.9,10.5-2.9c5.4,0,9.8,1.4,13.2,4.2
			c3.4,2.8,5.4,6.6,5.9,11.3h-2c-0.7-4.3-2.5-7.7-5.4-10c-2.9-2.3-6.9-3.5-11.7-3.5c-5.5,0-9.9,2-13.3,5.9
			c-3.4,3.9-5.1,9.1-5.1,15.5v8.7c0,4.3,0.8,8.1,2.4,11.4c1.6,3.3,3.8,5.9,6.7,7.8c2.9,1.8,6.2,2.8,9.9,2.8c3.6,0,7-0.5,10.1-1.6
			c3.1-1.1,5.3-2.4,6.4-3.9V96.9H71.4v-2h18.7V113.7z"/>
		<path fill="#EA4E4B" d="M142.9,96.4c0,4.7-0.8,8.9-2.5,12.5c-1.7,3.6-4.1,6.4-7.2,8.4c-3.1,2-6.7,3-10.8,3
			c-6.1,0-11.1-2.2-14.9-6.6c-3.8-4.4-5.7-10.3-5.7-17.7v-7.9c0-4.7,0.8-8.9,2.5-12.5c1.7-3.6,4.1-6.5,7.2-8.4c3.1-2,6.7-3,10.8-3
			c4.1,0,7.7,1,10.8,3c3.1,2,5.5,4.8,7.2,8.5c1.7,3.7,2.5,7.8,2.5,12.5V96.4z M140.9,88.1c0-6.6-1.7-11.9-5-15.9
			c-3.3-4-7.9-6-13.6-6c-5.6,0-10.1,2-13.4,5.9c-3.3,4-5,9.3-5,16.2v8c0,4.3,0.8,8.2,2.3,11.5c1.5,3.3,3.7,5.9,6.5,7.7
			c2.8,1.8,6.1,2.7,9.8,2.7c5.7,0,10.2-2,13.5-6c3.3-4,5-9.4,5-16.2V88.1z"/>
		<path fill="#EA4E4B" d="M194.7,119.5h-2l-35.2-51.1v51.1h-2.1V65h2.1l35.2,50.9V65h2V119.5z"/>
		<path fill="#EA4E4B" d="M209.7,119.5V65h15.1c4.2,0,8,1,11.5,3c3.4,2,6.1,4.8,8,8.4c1.9,3.6,2.9,7.6,3,12.1v7.1
			c0,4.5-1,8.6-2.9,12.3c-1.9,3.6-4.6,6.5-8,8.5c-3.4,2-7.2,3.1-11.5,3.1H209.7z M211.7,67.1v50.5h13.1c3.8,0,7.3-0.9,10.4-2.8
			c3.1-1.9,5.6-4.5,7.4-7.8c1.8-3.3,2.7-7,2.7-11.1v-7c0-4.1-0.9-7.8-2.6-11.1c-1.7-3.3-4.2-5.9-7.3-7.8c-3.1-1.9-6.5-2.9-10.3-2.9
			H211.7z"/>
		<path fill="#EA4E4B" d="M287.7,103.3h-26.7l-6.1,16.3h-2.2L273.2,65h2.5l20.4,54.5h-2.2L287.7,103.3z M261.8,101.2H287l-12.6-33.8
			L261.8,101.2z"/>
		<path fill="#EA4E4B" d="M343,96.4c0,4.7-0.8,8.9-2.5,12.5c-1.7,3.6-4.1,6.4-7.2,8.4c-3.1,2-6.7,3-10.8,3c-6.1,0-11.1-2.2-14.9-6.6
			c-3.8-4.4-5.7-10.3-5.7-17.7v-7.9c0-4.7,0.8-8.9,2.5-12.5c1.7-3.6,4.1-6.5,7.2-8.4c3.1-2,6.7-3,10.8-3c4.1,0,7.7,1,10.8,3
			c3.1,2,5.5,4.8,7.2,8.5c1.7,3.7,2.5,7.8,2.5,12.5V96.4z M341,88.1c0-6.6-1.7-11.9-5-15.9c-3.3-4-7.9-6-13.6-6
			c-5.6,0-10.1,2-13.4,5.9c-3.3,4-5,9.3-5,16.2v8c0,4.3,0.8,8.2,2.3,11.5c1.5,3.3,3.7,5.9,6.5,7.7c2.8,1.8,6.1,2.7,9.8,2.7
			c5.7,0,10.2-2,13.5-6c3.3-4,5-9.4,5-16.2V88.1z"/>
	</g>
</g>
</svg>