<svg xmlns="http://www.w3.org/2000/svg" width="128" height="79"><svg width="75" height="75" fill="#a16aff" color="#a16aff" transform="matrix(.58667 0 0 .58667 41.956 0)"><path d="M14.291 23.127l-1.135 2.508a21.498 21.498 0 005.757 2.738c.263-1.003.713-1.983 1.072-2.967.146-.398-.252-1.393.857-.933.088-.273.301-.583.236-.814-.134-.477-.427-.908-.633-1.367-.095-.21-.237-.468-.189-.664.38-1.584-.036-3.172.041-4.756.006-.128-.278-.28-.439-.403-.185-.141-.395-.249-.574-.396-1.463-1.198-2.426-1.385-3.374-.132a2.5 2.5 0 01-.545.522c-.257.181-.546.317-.822.472-.038-.375-.18-.78-.085-1.118.086-.307.402-.572.664-.801.416-.365.884-.671 1.306-1.031.252-.215.657-.461.264-.834-.083-.08-.534.103-.719.271-1.99 1.808-3.815 3.777-5.269 6.041a39.378 39.378 0 00-1.386 2.328l4.973 1.336zM42.123 70.074c.229-1.125-1.058-2.229-.039-3.361.114-.125.1-.384.111-.584.045-.854-.042-1.737.143-2.56.435-1.93-.199-3.083-2.059-3.853-.734-.304-1.191-1.295-1.76-1.986a47.443 47.443 0 01-1.372-1.753c-.136-.184-.329-.47-.27-.622.149-.387.425-.726.651-1.084-.604-.302-.548-.758-.238-1.217.247-.365.524-.724.851-1.016.798-.714.845-1.546.498-2.474-.14-.376-.271-.755-.407-1.131l-.949.028c-.189.171-.423.519-.559.484-.883-.226-1.81-.594-2.244-1.382-.983-1.784-3.254-1.469-4.415-2.893-.024-.03-.102-.041-.145-.029-1.508.432-2.595-.568-3.797-1.139-.696-.33-1.188-.803-1.264-1.716-.054-.651-.482-1.281-.789-1.898-.199-.398-.511-.739-.717-1.134-.487-.935-.935-1.89-1.418-2.825-.083-.163-.263-.276-.398-.412-.117.185-.246.365-.343.559-.041.083.001.202-.019.3-.018.092-.068.177-.105.265-.109-.091-.282-.163-.317-.276-.148-.481-.236-.98-.384-1.461-.101-.328-.177-.737-.411-.937a3.59 3.59 0 01-1.184-1.884c-2.671-.345-5.112-1.27-7.284-2.765l-1.398 3.093-2.875-6.104c-2.17 5.689-2.716 11.709-1.477 18.058 1.486 7.615 5.257 13.979 11.167 18.969 6.647 5.611 14.416 8.19 23.113 7.858 1.215-.045 2.419-.38 3.628-.588-.336-.022-.68-.011-.996-.099-.21-.058-.552-.322-.529-.431zM43.697 70.597c-.018.002-.032.007-.048.009.019.001.037.001.057.004l-.009-.013z"/><path d="M44.946 47.787c.211-.075.406-.112.591-.123-.074-6.17-2.747-10.923-5.274-14.042-.16.211-.374.392-.655.544-.482.262-.881.676-1.346.978-.671.436-.97.965-.732 1.79.166.577.24 1.188.281 1.788.015.211-.189.438-.294.657-.169-.144-.392-.257-.493-.438a2.17 2.17 0 01-.282-.854c-.063-.775-.244-1.301-1.202-1.409-.676-.077-1.391-.661-2.016-.203a5.504 5.504 0 01-.39.268 7.695 7.695 0 01-2.688 2.382l1.037 1.396-2.849-.192a74.2 74.2 0 00-.068.662c-.089.891.739 2.294 1.479 2.441.47.094 1.037.096 1.461-.089.348-.151.552-.638.815-.979.061-.08.091-.231.161-.249.465-.114.937-.201 1.407-.298-.063.305-.119.611-.191.913-.07.292-.143.586-.24.87-.383 1.129-.386 1.125.883 1.235.25.022.51.034.744.113.482.162.788.447.576 1.025a2.965 2.965 0 00-.17.734c-.11 1.202.456 1.75 1.791 1.754.316-.01.633-.02.949-.028.407.23.763.638 1.188-.065.544-.895 1.267-1.56 2.438-.945.697-.401 1.291-.176 1.931.21.313.188.827.275 1.158.154z"/><path d="M70.885 31.56c-.04-.202-.436-.513-.591-.474-.293.074-.677.317-.766.577-.207.612-1.774 1.397-1.826 1.096-.102-.593-.058-.86-.04-1.463.003-.125.266-.335.423-.349.866-.074 1.17-.32.767-1.008-.668-1.141.009-1.999.508-2.736.279-.413.306-.575.142-.933-.689-1.502-1.373-3.008-2.062-4.512-.062-.137-.141-.268-.216-.4-1.592-2.786-3.54-5.29-5.92-7.445-.228-.205-.562-.291-.847-.433-.112.374-.336.759-.302 1.118.028.292.373.55.569.828.054.076.128.183.107.25-.019.063-.188.15-.228.126-.823-.5-1.408.431-2.087.366-1.019-.097-1.347.444-1.589 1.23-.119.385-.243.772-.421 1.13-.05.102-.342.193-.447.14-1.038-.521-1.803-1.228-1.807-2.525-.001-.412-.219-.83-.37-1.233-.121-.324-.243-.588.299-.573.07.002.178-.266.218-.421.428-1.654-1.274-2.442-1.593-3.831-.12-.521-.86-.91-1.346-1.328-.141-.121-.377-.128-.568-.193-.285-.098-.568-.202-.815-.29l.983-.792c-.388-.205-.763-.442-1.168-.603-.368-.146-.823-.123-1.146-.325-.634-.396-1.821-.603-1.957-.688-.165-.105-.372-.195-.562-.197-.244-.002-1.476-.307-1.5-.315a4.315 4.315 0 00-.876-.231c-.998-.146-1.995-.333-2.998-.396-4.959-.305-9.782.368-14.425 2.158-1.222.472-2.392 1.078-3.577 1.641-.1.048-.133.235-.197.358.093.035.184.091.28.101.749.075 1.528.039 2.237.247.447.131.813.195 1.284.147 1.2-.122 2.388-.598 3.617-.239.614.18 1.344.245 1.8.626.724.607.649.685 1.103.774.169.033.454.151.46.244.03.483.136.481.513.216.379-.266.874-.625 1.264-.569.831.119 1.726.333 2.41.785.696.461 1.001.008 1.431-.248.511-.305.935-.651.4-1.322-.06-.076.209-.476.394-.657.122-.12.365-.118.555-.17.048.224 2.202 2.091 2.588 1.864.16-.096.46-.011.673.062.094.032.128.238.19.365-.487.153-2.604 1.273-3.101 1.833-.285.321-.683.639-1.085.742-1.436.364-2.49 1.286-3.504 2.265-.378.365-.179 2.516.192 2.522 1.328.02 1.899 1.302 2.991 1.645.655.205.732.592.594 1.155-.048.19-.147.459-.062.576.278.383.631.712.955 1.062.233-.354.647-.699.663-1.062.033-.793.097-1.395 1.008-1.694.299-.098.691-.808.592-1.061-.411-1.039.292-1.82.464-2.709.179-.923.243-.911 1.209-.688.818.19 1.869 1.183 1.646 1.743-.295.736.219 1.058.558 1.344.154.131.753-.25 1.143-.418.082-.036.122-.158.192-.229.271-.278.374-.13.512.156.512 1.059.369 2.389 1.301 3.276.479-.039.966-.061 1.457-.061 2.556 0 4.992.559 7.249 1.661l.925-3.267 7.321 10.958-10.095-1.151.749-2.65a21.633 21.633 0 00-9.33-2.084c-.607 0-1.2.025-1.777.069a.298.298 0 00.272.045c.024.343.013.693.086 1.025.053.236.187.475.341.666.447.554.242.918-.312 1.187-.148.072-.33.079-.495.115.031-.14.049-.286.099-.419.048-.129.13-.244.196-.366-.143-.027-.309-.113-.427-.07-.467.169-.914.387-1.376.57-.54.215-1.033.503-1.104 1.13-.044.39-1.923 2.045-2.811 2.966 3.861 3.009 8.551 8.17 8.444 15.437l3.349-.553-1.981 3.287c.739.45 1.018 1.367.633 2.36-.179.462.049.536.384.541.299.004.598-.058.897-.087.246-.023.601-.155.724-.041 1.075.997 2.701.063 3.777 1.15.629.637.919 1.003.327 1.617-1.161 1.207-1.657 2.707-2.265 4.186-.262.637-.741 1.098-1.472 1.409-1.031.438-1.832 1.15-2.555 2.165-.787 1.104-1.541 2.694-3.376 2.671-.099-.001-.306.282-.283.321.357.576-.064.732-.464.844-1.797.496-2.938 1.652-3.52 3.397.646-.058 1.31-.038 1.934-.188 10.304-2.476 17.83-8.468 22.662-17.893.796-1.553 1.176-3.215 1.628-4.867.104-.377-.033-.477-.297-.688-.343-.275-.504-.123-.762.069-.36.27-.762.482-1.138.73-.413.271-.738.248-.991-.222-.31-.57-.591-1.165-.974-1.683-.475-.642-.496-1.264-.264-1.995.181-.57.394-1.218.289-1.775-.284-1.511.479-2.607 1.202-3.762.287-.454.633-.958.673-1.463.111-1.383 1.089-1.854 2.146-2.259.416-.159.821-.055.869.513.06.707.253 1.345.926 1.947.131-1.985-.373-3.736-.726-5.5zM49.673 14.441c-.057.034-.298-.083-.314-.162-.156-.735-.726-.739-1.285-.751-.6-.015-1.098-.012-.959-.914.05-.316-.437-.712-.675-1.074-.537-.815-1.135-1.479-2.272-1.259-.323.062-.688-.131-1.038-.154-.643-.041-.621-.611-.715-.984-.053-.203.244-.576.476-.743.214-.152.551-.129.833-.183-.135.202-.313.389-.389.611-.056.159.025.365.046.55.143-.087.301-.158.426-.267.187-.164.326-.396.534-.52.154-.092.551-.094.554-.078.227 1.113 1.494.802 2.05 1.526.559.726 1.426 1.17 1.582 2.247.056.389.689.683 1.03 1.046.188.199.313.454.45.656-.153.222-.217.382-.334.453zM43.706 70.609l.004-.013-.013.001z"/><path d="M21.209 31.595c-3.637 0-6.887-1.019-9.662-3.027l-.321-.233-1.145 2.534-4.421-9.39 7.728 2.076-1.044 2.309.223.153c3.826 2.637 8.221 3.974 13.062 3.974h.001c2.068 0 3.894-.247 5.332-.539-2.392 1.008-5.932 2.143-9.753 2.143zM57.879 29.147l.689-2.438-.243-.119a22.272 22.272 0 00-9.857-2.268c-3.586 0-6.71.83-8.878 1.623 2.724-1.665 7.165-3.794 12.058-3.794 2.585 0 5.042.594 7.306 1.765l.353.183.758-2.675 5.765 8.629-7.951-.906zM43.756 48.949l2.501-.413.003-.27c.128-8.344-4.388-14.241-7.396-17.234 3.938 2.604 10.41 8.196 10.084 16.666l-.016.396 2.743-.453-5.358 8.889-2.561-7.581zM26.173 39.51l2.163-2.233.662.89.243-.12c2.622-1.3 4.11-3.346 4.944-5.088-.504 2.05-1.661 4.524-4.295 5.756l-.36.167.667.898-4.024-.27zM32.481 24.355c-1.595-1.383-3.271-3.539-3.167-6.445l.015-.397-1.104.185 2.074-3.459 1.002 2.943-1.094.184-.003.271c-.037 2.925 1.106 5.181 2.277 6.718z"/></svg><path fill="#5e00ff" d="M2.44 73.5v-4.94q0-.7-.12-1.17t-.35-.76q-.24-.29-.58-.42-.34-.12-.78-.15L0 66.03v-2.1l.6-.04q.44-.02.78-.15t.58-.41q.23-.29.35-.75.12-.47.12-1.17V56.5q0-1.21.31-2.06.31-.86.84-1.4.53-.55 1.24-.79.7-.25 1.5-.25.37 0 .83.08.47.08.92.22v1.81h-.44q-.73 0-1.21.08-.49.08-.79.27-.31.19-.44.5t-.13.77v4.7q0 .86-.09 1.56-.08.7-.3 1.25-.22.55-.59.95-.37.4-.92.64v.31q.54.24.91.64.36.4.58.94.23.55.32 1.25.09.71.09 1.56v4.75q0 .45.13.76.13.32.44.51.3.19.79.27.48.09 1.21.09h.44v1.79q-.45.15-.92.23-.46.09-.83.09-.8 0-1.5-.25-.71-.25-1.23-.79-.53-.55-.84-1.4-.31-.86-.31-2.08zm13.24-2.54q0-.64.08-1.19.07-.54.22-1.18h2.36v.98q0 .81.1 1.43.1.62.33 1.04.23.43.61.65.38.22.93.22.87 0 1.32-.48.46-.47.46-1.39 0-.47-.06-.86-.07-.39-.23-.78-.16-.38-.42-.81-.27-.43-.7-.96l-3.16-3.76q-.84-1.08-1.3-2.17-.46-1.1-.46-2.34 0-1 .31-1.83.31-.83.9-1.43.58-.61 1.45-.94.86-.34 1.95-.34 1.32 0 2.21.38.88.37 1.41.98.53.61.74 1.37.22.75.22 1.52 0 .64-.1 1.19-.1.54-.23 1.2h-2.34v-.95q0-1.6-.46-2.45-.46-.85-1.49-.85-.85 0-1.28.48-.42.47-.42 1.27 0 .42.07.76.06.34.18.63.13.29.3.56.18.27.4.56l3.53 4.26q.96 1.26 1.48 2.41.51 1.16.51 2.45 0 1.06-.33 1.92-.34.85-.96 1.45-.62.6-1.5.92-.88.32-1.98.32-1.36 0-2.25-.36-.9-.36-1.43-.96-.54-.6-.75-1.36-.22-.76-.22-1.56zm14.02 4.23q-.75 0-1.33-.3-.58-.3-.98-.81-.4-.52-.61-1.23-.2-.71-.2-1.54 0-.99.24-1.77.25-.77.72-1.39.48-.62 1.18-1.13.71-.51 1.63-.97.45-.22 1-.45.56-.23.99-.39v-2.14q0-.46-.03-.87-.04-.4-.17-.7-.14-.3-.41-.47-.27-.17-.73-.17-.32 0-.62.12-.3.11-.53.4-.22.28-.36.75-.13.46-.13 1.16v.7h-2.27q-.1-.46-.15-.84-.06-.38-.06-.76 0-.9.31-1.59.31-.69.87-1.16t1.33-.71q.77-.24 1.7-.24 1.21 0 2 .27.8.26 1.28.79.47.52.66 1.32.2.8.2 1.86v12.09h-2.21l-.21-1.39q-.48.69-1.28 1.13-.8.43-1.83.43zm1.31-2.28q.37 0 .73-.2.36-.19.6-.47v-5.05q-.23.09-.52.22-.3.13-.64.34-.31.2-.62.48-.3.28-.54.67-.24.39-.39.87-.15.49-.15 1.09 0 .92.37 1.48.36.57 1.16.57zm11.05 2.28q-2.04 0-3.11-1.67-1.07-1.68-1.07-5.11v-3.05q0-1.54.22-2.63.22-1.1.59-1.84.37-.75.84-1.18.48-.43.98-.66.51-.23 1-.29.49-.07.9-.07.82 0 1.5.22t1.17.65q.49.44.76 1.11.27.67.27 1.57 0 .56-.05.97-.05.4-.15.78h-2.36v-.54q0-1.22-.29-1.91-.29-.68-.94-.68-.37 0-.64.17t-.45.58q-.18.41-.27 1.1-.08.69-.08 1.74v4.58q0 1.05.07 1.79t.24 1.2q.18.46.47.68.29.21.73.21.22 0 .43-.12.21-.11.37-.36.16-.26.26-.69.1-.43.1-1.06v-.5h2.55v.62q0 2.29-1.01 3.34-1.02 1.05-3.03 1.05zm6.44-.17V53.7h2.97v3.8l-.15 2.76q.32-.46.71-.75.38-.3.78-.48.4-.19.82-.26.42-.08.83-.08 1.42 0 2.18.99.77.99.77 2.97v12.37h-2.96V62.76q0-1.07-.33-1.48-.33-.42-.96-.42-.45 0-.9.3t-.79.82v13.04H48.5zm11.35-3.38q0-.53.1-1.02t.19-.78h2.09q0 .87.08 1.47.09.59.29.94.2.35.53.5.34.16.82.16.67 0 .97-.38.31-.37.31-.87 0-.25-.07-.49-.07-.23-.2-.47-.13-.24-.32-.49t-.42-.54l-2.17-2.55q-.42-.53-.81-1.08-.4-.54-.7-1.12-.29-.58-.48-1.21-.18-.64-.18-1.34 0-.94.33-1.63.32-.69.86-1.15.55-.45 1.26-.68.72-.22 1.51-.22.88 0 1.59.21.7.21 1.2.64.51.42.78 1.04.27.63.27 1.46 0 .57-.1 1.09-.1.53-.2.91h-2.05q-.01-.8-.07-1.4-.06-.6-.22-.99-.15-.39-.43-.59-.27-.2-.72-.2-.39 0-.64.12-.26.13-.42.32-.16.2-.22.45-.07.25-.07.5 0 .57.27 1.05.27.48.72 1.04l2.36 2.78q.26.31.6.76.34.46.65 1 .3.55.51 1.19.21.64.21 1.35 0 .85-.27 1.55-.27.7-.79 1.19-.53.49-1.3.76t-1.75.27q-.81 0-1.52-.18-.72-.18-1.25-.6-.52-.41-.83-1.09-.3-.68-.3-1.68zm14.24 3.55q-1.05 0-1.85-.39-.8-.38-1.35-1.2t-.84-2.11q-.28-1.28-.28-3.08v-3.05q0-1.54.23-2.63.23-1.1.6-1.84.37-.75.86-1.18.48-.43 1-.66.51-.23 1.02-.29.51-.07.95-.07.79 0 1.53.24t1.3.82q.56.58.9 1.55.33.98.33 2.43 0 .49-.03 1-.03.5-.07.99-.05.48-.13.94-.07.46-.15.84h-5.36v1.64q0 1.06.08 1.78t.28 1.16q.19.44.52.63.34.2.84.2.27 0 .53-.12.26-.11.45-.36.19-.26.31-.69.12-.43.12-1.06v-.5h2.47v.62q0 2.29-1.09 3.34-1.1 1.05-3.17 1.05zm-1.34-9.68h2.98q.01-.13.02-.34l.02-.46v-.46-.39q0-1.59-.37-2.3-.38-.7-1.11-.7-.39 0-.68.18-.3.18-.48.61-.19.43-.29 1.13-.09.7-.09 1.75v.98zM81 75.02V58.88h2.29l.26 1.72v.01q.36-.55.76-.92t.84-.59q.43-.22.88-.31.45-.1.9-.1 1.42 0 2.19.99.76.99.76 2.97v12.37h-2.96V62.76q0-1.07-.33-1.48-.33-.42-.96-.42-.45 0-.89.29-.44.3-.78.81v13.06H81zm17.27 0V55h3.04v20.02h-3.04zm8.31 0V57.39h-3.22V55h9.47v2.39h-3.21v17.63h-3.04zm13.26.89h.44q.72 0 1.21-.09.49-.08.8-.27.3-.19.43-.51.13-.31.13-.76v-4.75q0-.85.09-1.56.1-.7.31-1.25.22-.54.58-.94.37-.4.9-.64v-.31q-.55-.24-.91-.64t-.58-.95q-.22-.55-.3-1.25-.09-.7-.09-1.56v-4.7q0-.46-.13-.77t-.43-.5q-.31-.19-.8-.27-.49-.08-1.21-.08h-.44V52.3q.45-.14.91-.22.46-.08.84-.08.79 0 1.5.25.71.24 1.24.79.53.54.84 1.4.31.85.31 2.06v4.91q0 .7.12 1.17.12.46.35.75.24.28.58.41.34.13.78.15l.6.04v2.1l-.61.03q-.44.03-.78.15-.34.13-.58.42-.23.29-.35.76-.12.47-.12 1.17v4.94q0 1.22-.31 2.08-.31.85-.84 1.4-.52.54-1.23.79t-1.5.25q-.38 0-.84-.09-.46-.08-.91-.23v-1.79z"/></svg>