<?xml version="1.0" standalone="no"?>
<svg xmlns="http://www.w3.org/2000/svg" viewBox="0 0 128 79" width="128" height="79"><g fill="#a16aff" color="#a16aff" transform="translate(41.956 0) scale(0.5866667) "><svg width="75.0" height="75.0" x="0.0" y="0.0" viewBox="0 0 75 75"><g><g><g><path d="M14.291,23.127l-1.135,2.508c1.796,1.206,3.72,2.119,5.757,2.738c0.263-1.003,0.713-1.983,1.072-2.967     c0.146-0.398-0.252-1.393,0.857-0.933c0.088-0.273,0.301-0.583,0.236-0.814c-0.134-0.477-0.427-0.908-0.633-1.367     c-0.095-0.21-0.237-0.468-0.189-0.664c0.38-1.584-0.036-3.172,0.041-4.756c0.006-0.128-0.278-0.28-0.439-0.403     c-0.185-0.141-0.395-0.249-0.574-0.396c-1.463-1.198-2.426-1.385-3.374-0.132c-0.15,0.199-0.342,0.378-0.545,0.522     c-0.257,0.181-0.546,0.317-0.822,0.472c-0.038-0.375-0.18-0.78-0.085-1.118c0.086-0.307,0.402-0.572,0.664-0.801     c0.416-0.365,0.884-0.671,1.306-1.031c0.252-0.215,0.657-0.461,0.264-0.834c-0.083-0.08-0.534,0.103-0.719,0.271     c-1.99,1.808-3.815,3.777-5.269,6.041c-0.494,0.769-0.956,1.545-1.386,2.328L14.291,23.127z"></path></g><g><path d="M42.123,70.074c0.229-1.125-1.058-2.229-0.039-3.361c0.114-0.125,0.1-0.384,0.111-0.584     c0.045-0.854-0.042-1.737,0.143-2.56c0.435-1.93-0.199-3.083-2.059-3.853c-0.734-0.304-1.191-1.295-1.76-1.986     c-0.47-0.573-0.929-1.158-1.372-1.753c-0.136-0.184-0.329-0.47-0.27-0.622c0.149-0.387,0.425-0.726,0.651-1.084     c-0.604-0.302-0.548-0.758-0.238-1.217c0.247-0.365,0.524-0.724,0.851-1.016c0.798-0.714,0.845-1.546,0.498-2.474     c-0.14-0.376-0.271-0.755-0.407-1.131c-0.316,0.009-0.633,0.019-0.949,0.028c-0.189,0.171-0.423,0.519-0.559,0.484     c-0.883-0.226-1.81-0.594-2.244-1.382c-0.983-1.784-3.254-1.469-4.415-2.893c-0.024-0.03-0.102-0.041-0.145-0.029     c-1.508,0.432-2.595-0.568-3.797-1.139c-0.696-0.33-1.188-0.803-1.264-1.716c-0.054-0.651-0.482-1.281-0.789-1.898     c-0.199-0.398-0.511-0.739-0.717-1.134c-0.487-0.935-0.935-1.89-1.418-2.825c-0.083-0.163-0.263-0.276-0.398-0.412     c-0.117,0.185-0.246,0.365-0.343,0.559c-0.041,0.083,0.001,0.202-0.019,0.3c-0.018,0.092-0.068,0.177-0.105,0.265     c-0.109-0.091-0.282-0.163-0.317-0.276c-0.148-0.481-0.236-0.98-0.384-1.461c-0.101-0.328-0.177-0.737-0.411-0.937     c-0.652-0.556-1.007-1.2-1.184-1.884c-2.671-0.345-5.112-1.27-7.284-2.765l-1.398,3.093l-2.875-6.104     c-2.17,5.689-2.716,11.709-1.477,18.058c1.486,7.615,5.257,13.979,11.167,18.969c6.647,5.611,14.416,8.19,23.113,7.858     c1.215-0.045,2.419-0.38,3.628-0.588c-0.336-0.022-0.68-0.011-0.996-0.099C42.442,70.447,42.1,70.183,42.123,70.074z"></path></g><g><path d="M43.697,70.597c-0.018,0.002-0.032,0.007-0.048,0.009c0.019,0.001,0.037,0.001,0.057,0.004L43.697,70.597z"></path></g></g><g><g><path d="M44.946,47.787c0.211-0.075,0.406-0.112,0.591-0.123c-0.074-6.17-2.747-10.923-5.274-14.042     c-0.16,0.211-0.374,0.392-0.655,0.544c-0.482,0.262-0.881,0.676-1.346,0.978c-0.671,0.436-0.97,0.965-0.732,1.79     c0.166,0.577,0.24,1.188,0.281,1.788c0.015,0.211-0.189,0.438-0.294,0.657c-0.169-0.144-0.392-0.257-0.493-0.438     c-0.145-0.258-0.258-0.562-0.282-0.854c-0.063-0.775-0.244-1.301-1.202-1.409c-0.676-0.077-1.391-0.661-2.016-0.203     c-0.136,0.101-0.265,0.191-0.39,0.268c-0.659,0.927-1.53,1.769-2.688,2.382l1.037,1.396l-2.849-0.192     c-0.024,0.221-0.046,0.441-0.068,0.662c-0.089,0.891,0.739,2.294,1.479,2.441c0.47,0.094,1.037,0.096,1.461-0.089     c0.348-0.151,0.552-0.638,0.815-0.979c0.061-0.08,0.091-0.231,0.161-0.249c0.465-0.114,0.937-0.201,1.407-0.298     c-0.063,0.305-0.119,0.611-0.191,0.913c-0.07,0.292-0.143,0.586-0.24,0.87c-0.383,1.129-0.386,1.125,0.883,1.235     c0.25,0.022,0.51,0.034,0.744,0.113c0.482,0.162,0.788,0.447,0.576,1.025c-0.086,0.235-0.147,0.487-0.17,0.734     c-0.11,1.202,0.456,1.75,1.791,1.754c0.316-0.01,0.633-0.02,0.949-0.028c0.407,0.23,0.763,0.638,1.188-0.065     c0.544-0.895,1.267-1.56,2.438-0.945c0.697-0.401,1.291-0.176,1.931,0.21C44.101,47.821,44.615,47.908,44.946,47.787z"></path></g><g><path d="M70.885,31.56c-0.04-0.202-0.436-0.513-0.591-0.474c-0.293,0.074-0.677,0.317-0.766,0.577     c-0.207,0.612-1.774,1.397-1.826,1.096c-0.102-0.593-0.058-0.86-0.04-1.463c0.003-0.125,0.266-0.335,0.423-0.349     c0.866-0.074,1.17-0.32,0.767-1.008c-0.668-1.141,0.009-1.999,0.508-2.736c0.279-0.413,0.306-0.575,0.142-0.933     c-0.689-1.502-1.373-3.008-2.062-4.512c-0.062-0.137-0.141-0.268-0.216-0.4c-1.592-2.786-3.54-5.29-5.92-7.445     c-0.228-0.205-0.562-0.291-0.847-0.433c-0.112,0.374-0.336,0.759-0.302,1.118c0.028,0.292,0.373,0.55,0.569,0.828     c0.054,0.076,0.128,0.183,0.107,0.25c-0.019,0.063-0.188,0.15-0.228,0.126c-0.823-0.5-1.408,0.431-2.087,0.366     c-1.019-0.097-1.347,0.444-1.589,1.23c-0.119,0.385-0.243,0.772-0.421,1.13c-0.05,0.102-0.342,0.193-0.447,0.14     c-1.038-0.521-1.803-1.228-1.807-2.525c-0.001-0.412-0.219-0.83-0.37-1.233c-0.121-0.324-0.243-0.588,0.299-0.573     c0.07,0.002,0.178-0.266,0.218-0.421c0.428-1.654-1.274-2.442-1.593-3.831c-0.12-0.521-0.86-0.91-1.346-1.328     c-0.141-0.121-0.377-0.128-0.568-0.193c-0.285-0.098-0.568-0.202-0.815-0.29c0.336-0.271,0.659-0.532,0.983-0.792     c-0.388-0.205-0.763-0.442-1.168-0.603c-0.368-0.146-0.823-0.123-1.146-0.325c-0.634-0.396-1.821-0.603-1.957-0.688     c-0.165-0.105-0.372-0.195-0.562-0.197c-0.244-0.002-1.476-0.307-1.5-0.315c-0.281-0.104-0.577-0.188-0.876-0.231     c-0.998-0.146-1.995-0.333-2.998-0.396c-4.959-0.305-9.782,0.368-14.425,2.158c-1.222,0.472-2.392,1.078-3.577,1.641     c-0.1,0.048-0.133,0.235-0.197,0.358c0.093,0.035,0.184,0.091,0.28,0.101c0.749,0.075,1.528,0.039,2.237,0.247     c0.447,0.131,0.813,0.195,1.284,0.147c1.2-0.122,2.388-0.598,3.617-0.239c0.614,0.18,1.344,0.245,1.8,0.626     c0.724,0.607,0.649,0.685,1.103,0.774c0.169,0.033,0.454,0.151,0.46,0.244c0.03,0.483,0.136,0.481,0.513,0.216     c0.379-0.266,0.874-0.625,1.264-0.569c0.831,0.119,1.726,0.333,2.41,0.785c0.696,0.461,1.001,0.008,1.431-0.248     c0.511-0.305,0.935-0.651,0.4-1.322c-0.06-0.076,0.209-0.476,0.394-0.657c0.122-0.12,0.365-0.118,0.555-0.17     c0.048,0.224,2.202,2.091,2.588,1.864c0.16-0.096,0.46-0.011,0.673,0.062c0.094,0.032,0.128,0.238,0.19,0.365     c-0.487,0.153-2.604,1.273-3.101,1.833c-0.285,0.321-0.683,0.639-1.085,0.742c-1.436,0.364-2.49,1.286-3.504,2.265     c-0.378,0.365-0.179,2.516,0.192,2.522c1.328,0.02,1.899,1.302,2.991,1.645c0.655,0.205,0.732,0.592,0.594,1.155     c-0.048,0.19-0.147,0.459-0.062,0.576c0.278,0.383,0.631,0.712,0.955,1.062c0.233-0.354,0.647-0.699,0.663-1.062     c0.033-0.793,0.097-1.395,1.008-1.694c0.299-0.098,0.691-0.808,0.592-1.061c-0.411-1.039,0.292-1.82,0.464-2.709     c0.179-0.923,0.243-0.911,1.209-0.688c0.818,0.19,1.869,1.183,1.646,1.743c-0.295,0.736,0.219,1.058,0.558,1.344     c0.154,0.131,0.753-0.25,1.143-0.418c0.082-0.036,0.122-0.158,0.192-0.229c0.271-0.278,0.374-0.13,0.512,0.156     c0.512,1.059,0.369,2.389,1.301,3.276c0.479-0.039,0.966-0.061,1.457-0.061c2.556,0,4.992,0.559,7.249,1.661l0.925-3.267     l7.321,10.958l-10.095-1.151l0.749-2.65c-2.921-1.383-6.06-2.084-9.33-2.084c-0.607,0-1.2,0.025-1.777,0.069     c0.069,0.053,0.162,0.076,0.272,0.045c0.024,0.343,0.013,0.693,0.086,1.025c0.053,0.236,0.187,0.475,0.341,0.666     c0.447,0.554,0.242,0.918-0.312,1.187c-0.148,0.072-0.33,0.079-0.495,0.115c0.031-0.14,0.049-0.286,0.099-0.419     c0.048-0.129,0.13-0.244,0.196-0.366c-0.143-0.027-0.309-0.113-0.427-0.07c-0.467,0.169-0.914,0.387-1.376,0.57     c-0.54,0.215-1.033,0.503-1.104,1.13c-0.044,0.39-1.923,2.045-2.811,2.966c3.861,3.009,8.551,8.17,8.444,15.437l3.349-0.553     l-1.981,3.287c0.739,0.45,1.018,1.367,0.633,2.36c-0.179,0.462,0.049,0.536,0.384,0.541c0.299,0.004,0.598-0.058,0.897-0.087     c0.246-0.023,0.601-0.155,0.724-0.041c1.075,0.997,2.701,0.063,3.777,1.15c0.629,0.637,0.919,1.003,0.327,1.617     c-1.161,1.207-1.657,2.707-2.265,4.186c-0.262,0.637-0.741,1.098-1.472,1.409c-1.031,0.438-1.832,1.15-2.555,2.165     c-0.787,1.104-1.541,2.694-3.376,2.671c-0.099-0.001-0.306,0.282-0.283,0.321c0.357,0.576-0.064,0.732-0.464,0.844     c-1.797,0.496-2.938,1.652-3.52,3.397c0.646-0.058,1.31-0.038,1.934-0.188c10.304-2.476,17.83-8.468,22.662-17.893     c0.796-1.553,1.176-3.215,1.628-4.867c0.104-0.377-0.033-0.477-0.297-0.688c-0.343-0.275-0.504-0.123-0.762,0.069     c-0.36,0.27-0.762,0.482-1.138,0.73c-0.413,0.271-0.738,0.248-0.991-0.222c-0.31-0.57-0.591-1.165-0.974-1.683     c-0.475-0.642-0.496-1.264-0.264-1.995c0.181-0.57,0.394-1.218,0.289-1.775c-0.284-1.511,0.479-2.607,1.202-3.762     c0.287-0.454,0.633-0.958,0.673-1.463c0.111-1.383,1.089-1.854,2.146-2.259c0.416-0.159,0.821-0.055,0.869,0.513     c0.06,0.707,0.253,1.345,0.926,1.947C71.742,35.075,71.238,33.324,70.885,31.56z M49.673,14.441     c-0.057,0.034-0.298-0.083-0.314-0.162c-0.156-0.735-0.726-0.739-1.285-0.751c-0.6-0.015-1.098-0.012-0.959-0.914     c0.05-0.316-0.437-0.712-0.675-1.074c-0.537-0.815-1.135-1.479-2.272-1.259c-0.323,0.062-0.688-0.131-1.038-0.154     c-0.643-0.041-0.621-0.611-0.715-0.984C42.362,8.94,42.659,8.567,42.891,8.4c0.214-0.152,0.551-0.129,0.833-0.183     c-0.135,0.202-0.313,0.389-0.389,0.611c-0.056,0.159,0.025,0.365,0.046,0.55c0.143-0.087,0.301-0.158,0.426-0.267     c0.187-0.164,0.326-0.396,0.534-0.52c0.154-0.092,0.551-0.094,0.554-0.078c0.227,1.113,1.494,0.802,2.05,1.526     c0.559,0.726,1.426,1.17,1.582,2.247c0.056,0.389,0.689,0.683,1.03,1.046c0.188,0.199,0.313,0.454,0.45,0.656     C49.854,14.21,49.79,14.37,49.673,14.441z"></path></g><g><polygon points="43.706,70.609 43.71,70.596 43.697,70.597    "></polygon></g></g></g><path d="M21.209,31.595c-3.637,0-6.887-1.019-9.662-3.027l-0.321-0.233l-1.145,2.534l-4.421-9.39l7.728,2.076l-1.044,2.309  l0.223,0.153c3.826,2.637,8.221,3.974,13.062,3.974c0,0,0,0,0.001,0c2.068,0,3.894-0.247,5.332-0.539  C28.57,30.46,25.03,31.595,21.209,31.595z"></path><path d="M57.879,29.147l0.689-2.438l-0.243-0.119c-3.079-1.504-6.396-2.268-9.857-2.268c-3.586,0-6.71,0.83-8.878,1.623  c2.724-1.665,7.165-3.794,12.058-3.794c2.585,0,5.042,0.594,7.306,1.765l0.353,0.183l0.758-2.675l5.765,8.629L57.879,29.147z"></path><path d="M43.756,48.949l2.501-0.413l0.003-0.27c0.128-8.344-4.388-14.241-7.396-17.234c3.938,2.604,10.41,8.196,10.084,16.666  l-0.016,0.396l2.743-0.453l-5.358,8.889L43.756,48.949z"></path><path d="M26.173,39.51l2.163-2.233l0.662,0.89l0.243-0.12c2.622-1.3,4.11-3.346,4.944-5.088c-0.504,2.05-1.661,4.524-4.295,5.756  l-0.36,0.167l0.667,0.898L26.173,39.51z"></path><path d="M32.481,24.355c-1.595-1.383-3.271-3.539-3.167-6.445l0.015-0.397l-1.104,0.185l2.074-3.459l1.002,2.943l-1.094,0.184  l-0.003,0.271C30.167,20.562,31.31,22.818,32.481,24.355z"></path></svg></g><path fill="#5e00ff" fill-rule="nonzero" d="M2.44 21.50L2.44 16.56Q2.44 15.86 2.32 15.39Q2.20 14.92 1.97 14.63Q1.73 14.34 1.39 14.21Q1.05 14.09 0.61 14.06L0.61 14.06L0 14.03L0 11.93L0.60 11.89Q1.04 11.87 1.38 11.74Q1.72 11.61 1.96 11.33Q2.19 11.04 2.31 10.58Q2.43 10.11 2.43 9.41L2.43 9.41L2.43 4.50Q2.43 3.29 2.74 2.44Q3.05 1.58 3.58 1.04Q4.11 0.49 4.82 0.25Q5.52 0 6.32 0L6.32 0Q6.69 0 7.15 0.08Q7.62 0.16 8.07 0.30L8.07 0.30L8.07 2.11L7.63 2.11Q6.90 2.11 6.42 2.19Q5.93 2.27 5.63 2.46Q5.32 2.65 5.19 2.96Q5.06 3.27 5.06 3.73L5.06 3.73L5.06 8.43Q5.06 9.29 4.97 9.99Q4.89 10.69 4.67 11.24Q4.45 11.79 4.08 12.19Q3.71 12.59 3.16 12.83L3.16 12.83L3.16 13.14Q3.70 13.38 4.07 13.78Q4.43 14.18 4.65 14.72Q4.88 15.27 4.97 15.97Q5.06 16.68 5.06 17.53L5.06 17.53L5.06 22.28Q5.06 22.73 5.19 23.04Q5.32 23.36 5.63 23.55Q5.93 23.74 6.42 23.82Q6.90 23.91 7.63 23.91L7.63 23.91L8.07 23.91L8.07 25.70Q7.62 25.85 7.15 25.93Q6.69 26.02 6.32 26.02L6.32 26.02Q5.52 26.02 4.82 25.77Q4.11 25.52 3.59 24.98Q3.06 24.43 2.75 23.58Q2.44 22.72 2.44 21.50L2.44 21.50ZM15.68 18.96L15.68 18.96Q15.68 18.32 15.76 17.77Q15.83 17.23 15.98 16.59L15.98 16.59L18.34 16.59L18.34 17.57Q18.34 18.38 18.44 19.00Q18.54 19.62 18.77 20.04Q19.00 20.47 19.38 20.69Q19.76 20.91 20.31 20.91L20.31 20.91Q21.18 20.91 21.63 20.43Q22.09 19.96 22.09 19.04L22.09 19.04Q22.09 18.57 22.03 18.18Q21.96 17.79 21.80 17.40Q21.64 17.02 21.38 16.59Q21.11 16.16 20.68 15.63L20.68 15.63L17.52 11.87Q16.68 10.79 16.22 9.70Q15.76 8.60 15.76 7.36L15.76 7.36Q15.76 6.36 16.07 5.53Q16.38 4.70 16.97 4.10Q17.55 3.49 18.42 3.16Q19.28 2.82 20.37 2.82L20.37 2.82Q21.69 2.82 22.58 3.20Q23.46 3.57 23.99 4.18Q24.52 4.79 24.73 5.55Q24.95 6.30 24.95 7.07L24.95 7.07Q24.95 7.71 24.85 8.26Q24.75 8.80 24.62 9.46L24.62 9.46L22.28 9.46L22.28 8.51Q22.28 6.91 21.82 6.06Q21.36 5.21 20.33 5.21L20.33 5.21Q19.48 5.21 19.05 5.69Q18.63 6.16 18.63 6.96L18.63 6.96Q18.63 7.38 18.70 7.72Q18.76 8.06 18.88 8.35Q19.01 8.64 19.18 8.91Q19.36 9.18 19.58 9.47L19.58 9.47L23.11 13.73Q24.07 14.99 24.59 16.14Q25.10 17.30 25.10 18.59L25.10 18.59Q25.10 19.65 24.77 20.51Q24.43 21.36 23.81 21.96Q23.19 22.56 22.31 22.88Q21.43 23.20 20.33 23.20L20.33 23.20Q18.97 23.20 18.08 22.84Q17.18 22.48 16.65 21.88Q16.11 21.28 15.90 20.52Q15.68 19.76 15.68 18.96ZM29.70 23.19L29.70 23.19Q28.95 23.19 28.37 22.89Q27.79 22.59 27.39 22.08Q26.99 21.56 26.78 20.85Q26.58 20.14 26.58 19.31L26.58 19.31Q26.58 18.32 26.82 17.54Q27.07 16.77 27.54 16.15Q28.02 15.53 28.72 15.02Q29.43 14.51 30.35 14.05L30.35 14.05Q30.80 13.83 31.35 13.60Q31.91 13.37 32.34 13.21L32.34 13.21L32.34 11.07Q32.34 10.61 32.31 10.20Q32.27 9.80 32.14 9.50Q32.00 9.20 31.73 9.03Q31.46 8.86 31.00 8.86L31.00 8.86Q30.68 8.86 30.38 8.98Q30.08 9.09 29.85 9.38Q29.63 9.66 29.49 10.13Q29.36 10.59 29.36 11.29L29.36 11.29L29.36 11.99L27.09 11.99Q26.99 11.53 26.94 11.15Q26.88 10.77 26.88 10.39L26.88 10.39Q26.88 9.49 27.19 8.80Q27.50 8.11 28.06 7.64Q28.62 7.17 29.39 6.93Q30.16 6.69 31.09 6.69L31.09 6.69Q32.30 6.69 33.09 6.96Q33.89 7.22 34.37 7.75Q34.84 8.27 35.03 9.07Q35.23 9.87 35.23 10.93L35.23 10.93L35.23 23.02L33.02 23.02L32.81 21.63Q32.33 22.32 31.53 22.76Q30.73 23.19 29.70 23.19ZM31.01 20.91L31.01 20.91Q31.38 20.91 31.74 20.71Q32.10 20.52 32.34 20.24L32.34 20.24L32.34 15.19Q32.11 15.28 31.82 15.41Q31.52 15.54 31.18 15.75L31.18 15.75Q30.87 15.95 30.56 16.23Q30.26 16.51 30.02 16.90Q29.78 17.29 29.63 17.77Q29.48 18.26 29.48 18.86L29.48 18.86Q29.48 19.78 29.85 20.34Q30.21 20.91 31.01 20.91ZM42.06 23.19L42.06 23.19Q40.02 23.19 38.95 21.52Q37.88 19.84 37.88 16.41L37.88 16.41L37.88 13.36Q37.88 11.82 38.10 10.73Q38.32 9.63 38.69 8.89Q39.06 8.14 39.53 7.71Q40.01 7.28 40.51 7.05Q41.02 6.82 41.51 6.76Q42 6.69 42.41 6.69L42.41 6.69Q43.23 6.69 43.91 6.91Q44.59 7.13 45.08 7.56Q45.57 8.00 45.84 8.67Q46.11 9.34 46.11 10.24L46.11 10.24Q46.11 10.80 46.06 11.21Q46.01 11.61 45.91 11.99L45.91 11.99L43.55 11.99L43.55 11.45Q43.55 10.23 43.26 9.54Q42.97 8.86 42.32 8.86L42.32 8.86Q41.95 8.86 41.68 9.03Q41.41 9.20 41.23 9.61Q41.05 10.02 40.96 10.71Q40.88 11.40 40.88 12.45L40.88 12.45L40.88 17.03Q40.88 18.08 40.95 18.82Q41.02 19.56 41.19 20.02Q41.37 20.48 41.66 20.70Q41.95 20.91 42.39 20.91L42.39 20.91Q42.61 20.91 42.82 20.79Q43.03 20.68 43.19 20.43Q43.35 20.17 43.45 19.74Q43.55 19.31 43.55 18.68L43.55 18.68L43.55 18.18L46.10 18.18L46.10 18.80Q46.10 21.09 45.09 22.14Q44.07 23.19 42.06 23.19ZM48.50 23.02L48.50 1.70L51.47 1.70L51.47 5.50L51.32 8.26Q51.64 7.80 52.03 7.51Q52.41 7.21 52.81 7.03Q53.21 6.84 53.63 6.77Q54.05 6.69 54.46 6.69L54.46 6.69Q55.88 6.69 56.64 7.68Q57.41 8.67 57.41 10.65L57.41 10.65L57.41 23.02L54.45 23.02L54.45 10.76Q54.45 9.69 54.12 9.28Q53.79 8.86 53.16 8.86L53.16 8.86Q52.71 8.86 52.26 9.16Q51.81 9.46 51.47 9.98L51.47 9.98L51.47 23.02L48.50 23.02ZM59.85 19.64L59.85 19.64Q59.85 19.11 59.95 18.62Q60.05 18.13 60.14 17.84L60.14 17.84L62.23 17.84Q62.23 18.71 62.31 19.31Q62.40 19.90 62.60 20.25Q62.80 20.60 63.13 20.75Q63.47 20.91 63.95 20.91L63.95 20.91Q64.62 20.91 64.92 20.53Q65.23 20.16 65.23 19.66L65.23 19.66Q65.23 19.41 65.16 19.17Q65.09 18.94 64.96 18.70Q64.83 18.46 64.64 18.21Q64.45 17.96 64.22 17.67L64.22 17.67L62.05 15.12Q61.63 14.59 61.24 14.04Q60.84 13.50 60.54 12.92Q60.25 12.34 60.06 11.71Q59.88 11.07 59.88 10.37L59.88 10.37Q59.88 9.43 60.21 8.74Q60.53 8.05 61.07 7.59Q61.62 7.14 62.33 6.91Q63.05 6.69 63.84 6.69L63.84 6.69Q64.72 6.69 65.43 6.90Q66.13 7.11 66.63 7.54Q67.14 7.96 67.41 8.58Q67.68 9.21 67.68 10.04L67.68 10.04Q67.68 10.61 67.58 11.13Q67.48 11.66 67.38 12.04L67.38 12.04L65.33 12.04Q65.32 11.24 65.26 10.64Q65.20 10.04 65.04 9.65Q64.89 9.26 64.61 9.06Q64.34 8.86 63.89 8.86L63.89 8.86Q63.50 8.86 63.25 8.98Q62.99 9.11 62.83 9.30Q62.67 9.50 62.61 9.75Q62.54 10.00 62.54 10.25L62.54 10.25Q62.54 10.82 62.81 11.30Q63.08 11.78 63.53 12.34L63.53 12.34L65.89 15.12Q66.15 15.43 66.49 15.88Q66.83 16.34 67.14 16.88Q67.44 17.43 67.65 18.07Q67.86 18.71 67.86 19.42L67.86 19.42Q67.86 20.27 67.59 20.97Q67.32 21.67 66.80 22.16Q66.27 22.65 65.50 22.92Q64.73 23.19 63.75 23.19L63.75 23.19Q62.94 23.19 62.23 23.01Q61.51 22.83 60.98 22.41Q60.46 22.00 60.15 21.32Q59.85 20.64 59.85 19.64ZM74.09 23.19L74.09 23.19Q73.04 23.19 72.24 22.80Q71.44 22.42 70.89 21.60Q70.34 20.78 70.05 19.49Q69.77 18.21 69.77 16.41L69.77 16.41L69.77 13.36Q69.77 11.82 70.00 10.73Q70.23 9.63 70.60 8.89Q70.97 8.14 71.46 7.71Q71.94 7.28 72.46 7.05Q72.97 6.82 73.48 6.76Q73.99 6.69 74.43 6.69L74.43 6.69Q75.22 6.69 75.96 6.93Q76.70 7.17 77.26 7.75Q77.82 8.33 78.16 9.30Q78.49 10.28 78.49 11.73L78.49 11.73Q78.49 12.22 78.46 12.73Q78.43 13.23 78.39 13.72Q78.34 14.20 78.26 14.66Q78.19 15.12 78.11 15.50L78.11 15.50L72.75 15.50L72.75 17.14Q72.75 18.20 72.83 18.92Q72.91 19.64 73.11 20.08Q73.30 20.52 73.63 20.71Q73.97 20.91 74.47 20.91L74.47 20.91Q74.74 20.91 75 20.79Q75.26 20.68 75.45 20.43Q75.64 20.17 75.76 19.74Q75.88 19.31 75.88 18.68L75.88 18.68L75.88 18.18L78.35 18.18L78.35 18.80Q78.35 21.09 77.26 22.14Q76.16 23.19 74.09 23.19ZM72.75 13.51L75.73 13.51Q75.74 13.38 75.75 13.17Q75.76 12.95 75.77 12.71Q75.77 12.48 75.77 12.25Q75.77 12.02 75.77 11.86L75.77 11.86Q75.77 10.27 75.40 9.56Q75.02 8.86 74.29 8.86L74.29 8.86Q73.90 8.86 73.61 9.04Q73.31 9.22 73.13 9.65Q72.94 10.08 72.84 10.78Q72.75 11.48 72.75 12.53L72.75 12.53L72.75 13.51ZM81 23.02L81 6.88L83.29 6.88L83.55 8.60L83.55 8.61Q83.91 8.06 84.31 7.69Q84.71 7.32 85.15 7.10Q85.58 6.88 86.03 6.79Q86.48 6.69 86.93 6.69L86.93 6.69Q88.35 6.69 89.12 7.68Q89.88 8.67 89.88 10.65L89.88 10.65L89.88 23.02L86.92 23.02L86.92 10.76Q86.92 9.69 86.59 9.28Q86.26 8.86 85.63 8.86L85.63 8.86Q85.18 8.86 84.74 9.15Q84.30 9.45 83.96 9.96L83.96 9.96L83.96 23.02L81 23.02ZM98.27 23.02L98.27 3L101.31 3L101.31 23.02L98.27 23.02ZM106.58 23.02L106.58 5.39L103.36 5.39L103.36 3L112.83 3L112.83 5.39L109.62 5.39L109.62 23.02L106.58 23.02ZM119.84 23.91L120.28 23.91Q121.00 23.91 121.49 23.82Q121.98 23.74 122.29 23.55Q122.59 23.36 122.72 23.04Q122.85 22.73 122.85 22.28L122.85 22.28L122.85 17.53Q122.85 16.68 122.94 15.97Q123.04 15.27 123.25 14.72Q123.47 14.18 123.83 13.78Q124.20 13.38 124.73 13.14L124.73 13.14L124.73 12.83Q124.18 12.59 123.82 12.19Q123.46 11.79 123.24 11.24Q123.02 10.69 122.94 9.99Q122.85 9.29 122.85 8.43L122.85 8.43L122.85 3.73Q122.85 3.27 122.72 2.96Q122.59 2.65 122.29 2.46Q121.98 2.27 121.49 2.19Q121.00 2.11 120.28 2.11L120.28 2.11L119.84 2.11L119.84 0.30Q120.29 0.16 120.75 0.08Q121.21 0 121.59 0L121.59 0Q122.38 0 123.09 0.25Q123.80 0.49 124.33 1.04Q124.86 1.58 125.17 2.44Q125.48 3.29 125.48 4.50L125.48 4.50L125.48 9.41Q125.48 10.11 125.60 10.58Q125.72 11.04 125.95 11.33Q126.19 11.61 126.53 11.74Q126.87 11.87 127.31 11.89L127.31 11.89L127.91 11.93L127.91 14.03L127.30 14.06Q126.86 14.09 126.52 14.21Q126.18 14.34 125.94 14.63Q125.71 14.92 125.59 15.39Q125.47 15.86 125.47 16.56L125.47 16.56L125.47 21.50Q125.47 22.72 125.16 23.58Q124.85 24.43 124.32 24.98Q123.80 25.52 123.09 25.77Q122.38 26.02 121.59 26.02L121.59 26.02Q121.21 26.02 120.75 25.93Q120.29 25.85 119.84 25.70L119.84 25.70L119.84 23.91Z" transform="translate(0, 52)"></path></svg>
